<?xml version="1.0" standalone="no"?>
<!DOCTYPE svg PUBLIC "-//W3C//DTD SVG 20010904//EN"
 "http://www.w3.org/TR/2001/REC-SVG-20010904/DTD/svg10.dtd">
<svg version="1.0" xmlns="http://www.w3.org/2000/svg"
 width="72.000000pt" height="72.000000pt" viewBox="0 0 72.000000 72.000000"
 preserveAspectRatio="xMidYMid meet">

<g transform="translate(0.000000,72.000000) scale(0.100000,-0.100000)"
fill="#000000" stroke="none">
<path d="M233 620 c-66 -33 -100 -67 -136 -134 -17 -33 -22 -58 -22 -126 0
-76 3 -91 30 -138 50 -92 129 -142 235 -149 119 -9 228 55 282 166 31 63 32
176 2 242 -47 101 -137 160 -254 166 -69 4 -80 2 -137 -27z m243 -18 c85 -43
154 -152 154 -242 0 -108 -89 -225 -194 -255 -129 -37 -254 17 -319 139 -16
31 -22 58 -22 116 0 65 4 82 31 130 32 57 97 111 158 130 47 14 146 5 192 -18z"/>
<path d="M215 534 c-22 -7 -41 -14 -42 -14 -2 0 -3 -7 -3 -15 0 -19 9 -19 34
0 11 8 30 15 43 15 13 0 23 4 23 9 0 18 -15 19 -55 5z"/>
<path d="M450 530 c0 -5 10 -10 23 -10 12 0 32 -7 44 -15 13 -9 24 -11 28 -6
3 5 -5 17 -17 25 -25 18 -78 22 -78 6z"/>
<path d="M234 406 c-11 -29 1 -61 23 -64 29 -4 48 30 33 58 -12 23 -48 27 -56
6z"/>
<path d="M432 408 c-27 -27 -3 -73 35 -66 27 5 25 72 -2 76 -11 1 -26 -3 -33
-10z"/>
<path d="M314 261 c-21 -9 -54 -48 -54 -63 0 -23 31 -33 101 -32 41 1 77 3 82
3 4 1 7 14 7 31 0 20 -8 34 -24 45 -30 20 -85 27 -112 16z"/>
</g>
</svg>
