<?xml version="1.0" standalone="no"?>
<!DOCTYPE svg PUBLIC "-//W3C//DTD SVG 20010904//EN"
 "http://www.w3.org/TR/2001/REC-SVG-20010904/DTD/svg10.dtd">
<svg version="1.0" xmlns="http://www.w3.org/2000/svg"
 width="72.000000pt" height="72.000000pt" viewBox="0 0 72.000000 72.000000"
 preserveAspectRatio="xMidYMid meet">

<g transform="translate(0.000000,72.000000) scale(0.100000,-0.100000)"
fill="#000000" stroke="none">
<path d="M275 637 c-128 -52 -195 -147 -195 -274 0 -29 -5 -72 -12 -97 -19
-71 17 -126 83 -126 10 0 44 -14 75 -31 145 -82 323 -26 401 125 22 42 27 64
27 126 0 47 -6 89 -16 112 -22 50 -93 125 -143 150 -48 26 -174 34 -220 15z
m87 -94 l2 -88 5 84 c4 54 10 86 19 89 9 3 12 -18 12 -82 0 -51 4 -86 10 -86
6 0 10 33 10 80 0 47 4 80 10 80 6 0 10 -33 10 -80 0 -47 4 -80 10 -80 6 0 10
12 10 26 0 14 4 23 10 19 6 -3 10 -15 10 -26 0 -21 16 -26 23 -6 4 8 8 9 14 2
4 -6 20 -11 35 -12 23 -1 27 4 30 31 l4 31 8 -30 c5 -16 13 -33 19 -36 14 -10
27 -89 20 -134 -24 -162 -198 -273 -345 -221 -21 8 -49 21 -63 30 -24 16 -25
18 -10 39 31 44 11 128 -48 201 l-23 29 -22 -34 -22 -34 0 38 c0 21 12 64 27
95 26 56 27 56 32 27 6 -31 30 -39 60 -21 8 5 17 3 22 -5 7 -11 9 -11 9 2 0 9
6 22 14 28 12 10 15 7 19 -16 2 -15 5 9 6 55 1 66 4 82 16 82 12 0 15 -17 17
-82 l2 -83 3 75 c4 83 8 100 23 100 6 0 11 -35 12 -87z m-82 22 c0 -35 -3 -43
-15 -39 -15 6 -21 64 -8 77 16 16 23 4 23 -38z m200 6 c0 -22 -4 -43 -10 -46
-6 -4 -10 12 -10 39 0 25 5 46 10 46 6 0 10 -18 10 -39z m-242 -23 c-4 -55
-28 -64 -28 -10 0 21 3 42 7 45 16 17 24 4 21 -35z m282 -3 c0 -25 -4 -45 -10
-45 -5 0 -10 20 -10 45 0 25 5 45 10 45 6 0 10 -20 10 -45z m-320 -20 c0 -24
-5 -35 -15 -35 -15 0 -22 50 -8 63 15 15 23 5 23 -28z m360 -6 c0 -16 -4 -29
-10 -29 -5 0 -10 16 -10 36 0 21 4 33 10 29 6 -3 10 -19 10 -36z m-371 -223
c26 -53 27 -90 1 -116 -27 -27 -56 -25 -87 6 -30 30 -27 61 13 130 30 51 40
49 73 -20z"/>
<path d="M240 401 c-15 -29 4 -63 33 -59 18 2 22 10 22 38 0 28 -4 36 -22 38
-14 2 -26 -4 -33 -17z"/>
<path d="M440 405 c-15 -18 -10 -45 12 -59 26 -16 53 14 44 48 -7 29 -36 35
-56 11z"/>
<path d="M303 260 c-31 -13 -46 -45 -33 -69 9 -17 21 -20 94 -20 93 0 113 10
102 53 -10 39 -104 60 -163 36z"/>
</g>
</svg>
