<svg width="131" height="42" viewBox="0 0 131 42" fill="none" xmlns="http://www.w3.org/2000/svg">
<path d="M43.3018 28.1396H38.5684L37.4316 31.4961H35.4268L39.9102 19.0781H41.9932L46.4766 31.4961H44.4375L43.3018 28.1396ZM39.0586 26.5908H42.8106L40.961 21.1435H40.9092L39.0586 26.5908Z" fill="black"/>
<path d="M56.1592 26.9697C56.1592 29.7832 54.6533 31.5908 52.3809 31.5908C51.8052 31.6209 51.2327 31.4883 50.7289 31.2082C50.2251 30.928 49.8104 30.5117 49.5323 30.0068H49.4893V34.4912H47.6309V22.4423H49.4297V23.9482H49.4639C49.7548 23.4457 50.1766 23.0316 50.6842 22.7497C51.1918 22.4679 51.7664 22.3289 52.3467 22.3476C54.6446 22.3476 56.1592 24.164 56.1592 26.9697ZM54.249 26.9697C54.249 25.1367 53.3018 23.9316 51.8565 23.9316C50.4365 23.9316 49.4815 25.1621 49.4815 26.9697C49.4815 28.7939 50.4365 30.0156 51.8565 30.0156C53.3018 30.0156 54.249 28.8193 54.249 26.9697H54.249Z" fill="black"/>
<path d="M66.1245 26.9697C66.1245 29.7832 64.6182 31.5908 62.3457 31.5908C61.7701 31.6209 61.1976 31.4883 60.6938 31.2082C60.19 30.928 59.7753 30.5117 59.4971 30.0068H59.4541V34.4912H57.5957V22.4423H59.3945V23.9482H59.4287C59.7197 23.4457 60.1414 23.0316 60.649 22.7497C61.1567 22.4679 61.7312 22.3289 62.3115 22.3476C64.6094 22.3476 66.1245 24.164 66.1245 26.9697ZM64.2139 26.9697C64.2139 25.1367 63.2666 23.9316 61.8213 23.9316C60.4014 23.9316 59.4463 25.1621 59.4463 26.9697C59.4463 28.7939 60.4014 30.0156 61.8213 30.0156C63.2666 30.0156 64.2139 28.8193 64.2139 26.9697Z" fill="black"/>
<path d="M72.709 28.0361C72.8467 29.2676 74.043 30.0761 75.6778 30.0761C77.2442 30.0761 78.3711 29.2675 78.3711 28.1572C78.3711 27.1933 77.6915 26.6162 76.0821 26.2207L74.4727 25.833C72.1924 25.2822 71.1338 24.2158 71.1338 22.4853C71.1338 20.3427 73.001 18.871 75.6514 18.871C78.2764 18.871 80.0753 20.3427 80.1358 22.4853H78.2598C78.1475 21.246 77.1231 20.498 75.626 20.498C74.1289 20.498 73.1045 21.2548 73.1045 22.3564C73.1045 23.2343 73.7588 23.7509 75.3594 24.1464L76.7276 24.4823C79.2754 25.0849 80.333 26.1083 80.333 27.9247C80.333 30.248 78.4834 31.703 75.54 31.703C72.7861 31.703 70.9268 30.2821 70.8066 28.036L72.709 28.0361Z" fill="black"/>
<path d="M84.3457 20.2998V22.4424H86.0674V23.9141H84.3457V28.9053C84.3457 29.6807 84.6904 30.042 85.4473 30.042C85.6516 30.0384 85.8557 30.0241 86.0586 29.999V31.4619C85.7183 31.5255 85.3725 31.5543 85.0264 31.5478C83.1934 31.5478 82.4785 30.8593 82.4785 29.1035V23.9141H81.1621V22.4424H82.4785V20.2998H84.3457Z" fill="black"/>
<path d="M87.0645 26.9697C87.0645 24.1211 88.7422 22.3311 91.3584 22.3311C93.9834 22.3311 95.6533 24.1211 95.6533 26.9697C95.6533 29.8262 93.9922 31.6084 91.3584 31.6084C88.7256 31.6084 87.0645 29.8262 87.0645 26.9697ZM93.7598 26.9697C93.7598 25.0156 92.8643 23.8623 91.3584 23.8623C89.8525 23.8623 88.957 25.0244 88.957 26.9697C88.957 28.9316 89.8525 30.0762 91.3584 30.0762C92.8643 30.0762 93.7598 28.9316 93.7598 26.9697H93.7598Z" fill="black"/>
<path d="M97.1846 22.4424H98.957V23.9834H99C99.12 23.5021 99.4019 23.0768 99.7985 22.7789C100.195 22.481 100.682 22.3287 101.178 22.3476C101.392 22.3469 101.606 22.3702 101.814 22.417V24.1553C101.544 24.0726 101.262 24.0347 100.979 24.043C100.71 24.032 100.44 24.0796 100.191 24.1825C99.9407 24.2854 99.7161 24.4411 99.5321 24.639C99.3481 24.8369 99.2091 25.0723 99.1247 25.3289C99.0403 25.5856 99.0124 25.8575 99.043 26.126V31.4961H97.1846L97.1846 22.4424Z" fill="black"/>
<path d="M110.384 28.8369C110.134 30.4805 108.533 31.6084 106.485 31.6084C103.852 31.6084 102.217 29.8437 102.217 27.0127C102.217 24.1729 103.86 22.3311 106.407 22.3311C108.912 22.3311 110.487 24.0518 110.487 26.7969V27.4336H104.093V27.5459C104.063 27.8791 104.105 28.2148 104.215 28.5306C104.325 28.8464 104.501 29.1352 104.732 29.3778C104.962 29.6203 105.241 29.8111 105.551 29.9374C105.861 30.0637 106.194 30.1226 106.528 30.1103C106.967 30.1515 107.408 30.0498 107.785 29.8203C108.162 29.5909 108.454 29.246 108.619 28.8369L110.384 28.8369ZM104.102 26.1348H108.628C108.645 25.8352 108.599 25.5354 108.495 25.2541C108.39 24.9729 108.228 24.7164 108.02 24.5006C107.811 24.2849 107.56 24.1145 107.283 24.0003C107.005 23.8861 106.707 23.8305 106.407 23.8369C106.105 23.8351 105.805 23.8933 105.525 24.008C105.245 24.1227 104.99 24.2918 104.776 24.5054C104.561 24.7191 104.391 24.973 104.276 25.2527C104.16 25.5323 104.101 25.8321 104.102 26.1348V26.1348Z" fill="black"/>
<path d="M38.8262 9.73101C39.2158 9.70305 39.6067 9.76191 39.9709 9.90335C40.335 10.0448 40.6632 10.2653 40.9317 10.5489C41.2003 10.8325 41.4026 11.1722 41.524 11.5435C41.6454 11.9148 41.6829 12.3083 41.6338 12.6959C41.6338 14.6021 40.6035 15.6979 38.8262 15.6979H36.6709V9.73101H38.8262ZM37.5976 14.854H38.7226C39.0011 14.8707 39.2797 14.825 39.5382 14.7204C39.7967 14.6158 40.0287 14.4548 40.2172 14.2493C40.4057 14.0437 40.546 13.7987 40.6278 13.5321C40.7097 13.2655 40.7311 12.9839 40.6904 12.708C40.7281 12.4332 40.7046 12.1534 40.6215 11.8887C40.5383 11.6241 40.3977 11.3811 40.2096 11.1771C40.0216 10.9732 39.7907 10.8134 39.5337 10.7092C39.2766 10.6049 38.9996 10.5589 38.7226 10.5742H37.5976V14.854Z" fill="black"/>
<path d="M42.68 13.4443C42.6517 13.1484 42.6855 12.8499 42.7794 12.5678C42.8732 12.2857 43.0249 12.0264 43.2249 11.8064C43.4248 11.5864 43.6685 11.4107 43.9404 11.2904C44.2122 11.1701 44.5062 11.108 44.8035 11.108C45.1008 11.108 45.3948 11.1701 45.6666 11.2904C45.9385 11.4107 46.1822 11.5864 46.3821 11.8064C46.5821 12.0264 46.7338 12.2857 46.8277 12.5678C46.9215 12.8499 46.9553 13.1484 46.927 13.4443C46.9559 13.7406 46.9224 14.0396 46.8288 14.3221C46.7353 14.6046 46.5836 14.8644 46.3836 15.0848C46.1836 15.3052 45.9397 15.4814 45.6676 15.6019C45.3955 15.7225 45.1011 15.7847 44.8035 15.7847C44.5059 15.7847 44.2115 15.7225 43.9394 15.6019C43.6673 15.4814 43.4234 15.3052 43.2234 15.0848C43.0234 14.8644 42.8718 14.6046 42.7782 14.3221C42.6846 14.0396 42.6511 13.7406 42.68 13.4443ZM46.013 13.4443C46.013 12.4683 45.5745 11.8975 44.805 11.8975C44.0325 11.8975 43.598 12.4683 43.598 13.4444C43.598 14.4282 44.0325 14.9946 44.805 14.9946C45.5745 14.9946 46.013 14.4243 46.013 13.4443H46.013Z" fill="black"/>
<path d="M52.5732 15.6978H51.6514L50.7207 12.3813H50.6504L49.7236 15.6978H48.8105L47.5693 11.1948H48.4707L49.2773 14.6308H49.3438L50.2695 11.1948H51.1221L52.0479 14.6308H52.1182L52.9209 11.1948H53.8096L52.5732 15.6978Z" fill="black"/>
<path d="M54.8535 11.1948H55.709V11.9101H55.7754C55.888 11.6532 56.0781 11.4378 56.3189 11.294C56.5598 11.1502 56.8395 11.0852 57.1191 11.1079C57.3382 11.0914 57.5582 11.1244 57.7628 11.2045C57.9674 11.2846 58.1514 11.4097 58.3011 11.5706C58.4508 11.7314 58.5623 11.9239 58.6275 12.1337C58.6927 12.3435 58.7099 12.5653 58.6777 12.7827V15.6977H57.7891V13.0058C57.7891 12.2822 57.4746 11.9223 56.8174 11.9223C56.6686 11.9154 56.5201 11.9407 56.3821 11.9966C56.244 12.0524 56.1197 12.1374 56.0175 12.2458C55.9154 12.3542 55.8379 12.4834 55.7904 12.6245C55.7429 12.7656 55.7264 12.9154 55.7422 13.0635V15.6977H54.8535L54.8535 11.1948Z" fill="black"/>
<path d="M60.0938 9.43701H60.9824V15.6978H60.0938V9.43701Z" fill="black"/>
<path d="M62.2171 13.4444C62.1888 13.1484 62.2226 12.8499 62.3165 12.5678C62.4104 12.2857 62.5621 12.0263 62.7621 11.8064C62.9621 11.5864 63.2058 11.4106 63.4777 11.2903C63.7495 11.17 64.0435 11.1079 64.3408 11.1079C64.6381 11.1079 64.9321 11.17 65.204 11.2903C65.4759 11.4106 65.7196 11.5864 65.9196 11.8064C66.1195 12.0263 66.2713 12.2857 66.3652 12.5678C66.459 12.8499 66.4929 13.1484 66.4646 13.4444C66.4934 13.7406 66.4599 14.0396 66.3663 14.3221C66.2727 14.6046 66.121 14.8645 65.921 15.0849C65.721 15.3053 65.4771 15.4814 65.2049 15.6019C64.9328 15.7225 64.6385 15.7847 64.3408 15.7847C64.0432 15.7847 63.7489 15.7225 63.4767 15.6019C63.2046 15.4814 62.9607 15.3053 62.7607 15.0849C62.5607 14.8645 62.409 14.6046 62.3153 14.3221C62.2217 14.0396 62.1882 13.7406 62.2171 13.4444ZM65.5501 13.4444C65.5501 12.4683 65.1116 11.8975 64.3421 11.8975C63.5696 11.8975 63.1351 12.4683 63.1351 13.4444C63.1351 14.4283 63.5696 14.9947 64.3421 14.9947C65.1116 14.9947 65.5501 14.4244 65.5501 13.4444H65.5501Z" fill="black"/>
<path d="M67.4004 14.4243C67.4004 13.6138 68.0039 13.1465 69.0752 13.0801L70.2949 13.0098V12.6211C70.2949 12.1455 69.9805 11.877 69.373 11.877C68.877 11.877 68.5332 12.0591 68.4346 12.3774H67.5742C67.665 11.604 68.3926 11.1079 69.4141 11.1079C70.543 11.1079 71.1797 11.6699 71.1797 12.6211V15.6978H70.3242V15.0649H70.2539C70.1112 15.2919 69.9108 15.477 69.6732 15.6012C69.4355 15.7254 69.1692 15.7843 68.9014 15.7719C68.7123 15.7916 68.5213 15.7714 68.3405 15.7127C68.1598 15.654 67.9933 15.5581 67.8519 15.4311C67.7105 15.3042 67.5972 15.149 67.5195 14.9756C67.4417 14.8021 67.4011 14.6144 67.4004 14.4243ZM70.2949 14.0395V13.6631L69.1953 13.7334C68.5752 13.7749 68.2939 13.9858 68.2939 14.3828C68.2939 14.7881 68.6455 15.0239 69.1289 15.0239C69.2706 15.0382 69.4137 15.0239 69.5497 14.9819C69.6857 14.9398 69.8118 14.8707 69.9206 14.7789C70.0294 14.6871 70.1186 14.5743 70.1829 14.4473C70.2472 14.3202 70.2853 14.1816 70.2949 14.0395Z" fill="black"/>
<path d="M72.3477 13.4444C72.3477 12.0215 73.0791 11.1201 74.2168 11.1201C74.4982 11.1072 74.7775 11.1746 75.022 11.3145C75.2666 11.4544 75.4662 11.661 75.5977 11.9101H75.6641V9.43701H76.5527V15.6978H75.7012V14.9863H75.6309C75.4893 15.2338 75.2826 15.4378 75.0334 15.5763C74.7841 15.7148 74.5017 15.7825 74.2168 15.772C73.0713 15.772 72.3477 14.8706 72.3477 13.4444ZM73.2657 13.4444C73.2657 14.3994 73.7159 14.9741 74.4688 14.9741C75.2178 14.9741 75.6807 14.3911 75.6807 13.4483C75.6807 12.5098 75.2129 11.9185 74.4688 11.9185C73.7207 11.9185 73.2656 12.4971 73.2656 13.4444H73.2657Z" fill="black"/>
<path d="M80.2298 13.4443C80.2015 13.1484 80.2353 12.8499 80.3292 12.5678C80.423 12.2857 80.5748 12.0264 80.7747 11.8064C80.9746 11.5864 81.2183 11.4107 81.4902 11.2904C81.762 11.1701 82.056 11.108 82.3533 11.108C82.6506 11.108 82.9446 11.1701 83.2164 11.2904C83.4883 11.4107 83.732 11.5864 83.9319 11.8064C84.1319 12.0264 84.2836 12.2857 84.3775 12.5678C84.4713 12.8499 84.5052 13.1484 84.4768 13.4443C84.5057 13.7406 84.4722 14.0396 84.3786 14.3221C84.2851 14.6046 84.1334 14.8644 83.9334 15.0848C83.7334 15.3052 83.4895 15.4814 83.2174 15.6019C82.9453 15.7225 82.6509 15.7847 82.3533 15.7847C82.0557 15.7847 81.7613 15.7225 81.4892 15.6019C81.2171 15.4814 80.9732 15.3052 80.7732 15.0848C80.5732 14.8644 80.4216 14.6046 80.328 14.3221C80.2344 14.0396 80.2009 13.7406 80.2298 13.4443ZM83.5628 13.4443C83.5628 12.4683 83.1243 11.8975 82.3548 11.8975C81.5823 11.8975 81.1478 12.4683 81.1478 13.4444C81.1478 14.4282 81.5823 14.9946 82.3548 14.9946C83.1243 14.9946 83.5628 14.4243 83.5628 13.4443Z" fill="black"/>
<path d="M85.6689 11.1948H86.5244V11.9101H86.5908C86.7035 11.6532 86.8935 11.4378 87.1344 11.294C87.3752 11.1502 87.655 11.0852 87.9346 11.1079C88.1537 11.0914 88.3737 11.1244 88.5783 11.2045C88.7829 11.2846 88.9668 11.4097 89.1165 11.5706C89.2662 11.7314 89.3778 11.9239 89.443 12.1337C89.5082 12.3435 89.5253 12.5653 89.4932 12.7827V15.6977H88.6045V13.0058C88.6045 12.2822 88.2901 11.9223 87.6328 11.9223C87.4841 11.9154 87.3356 11.9407 87.1975 11.9966C87.0594 12.0524 86.9351 12.1374 86.833 12.2458C86.7308 12.3542 86.6534 12.4834 86.6058 12.6245C86.5583 12.7656 86.5419 12.9154 86.5576 13.0635V15.6977H85.6689V11.1948Z" fill="black"/>
<path d="M94.5146 10.0737V11.2153H95.4902V11.9639H94.5146V14.2793C94.5146 14.751 94.709 14.9575 95.1514 14.9575C95.2646 14.9572 95.3778 14.9503 95.4902 14.937V15.6772C95.3307 15.7058 95.169 15.721 95.0068 15.7226C94.0186 15.7226 93.625 15.375 93.625 14.5068V11.9638H92.9102V11.2153H93.625V10.0737H94.5146Z" fill="black"/>
<path d="M96.7051 9.43701H97.5859V11.9185H97.6562C97.7744 11.6591 97.9696 11.4425 98.2153 11.2982C98.461 11.1539 98.7452 11.0888 99.0292 11.1118C99.2472 11.1 99.4651 11.1364 99.6674 11.2184C99.8697 11.3004 100.051 11.4261 100.199 11.5864C100.348 11.7468 100.458 11.9378 100.524 12.146C100.59 12.3541 100.609 12.5742 100.58 12.7905V15.6978H99.6905V13.0098C99.6905 12.2905 99.3555 11.9263 98.7276 11.9263C98.5748 11.9137 98.4212 11.9347 98.2774 11.9878C98.1337 12.0408 98.0032 12.1247 97.8952 12.2334C97.7872 12.3421 97.7043 12.4732 97.6522 12.6173C97.6002 12.7614 97.5802 12.9152 97.5938 13.0679V15.6977H96.7051L96.7051 9.43701Z" fill="black"/>
<path d="M105.761 14.4819C105.641 14.8935 105.379 15.2495 105.022 15.4876C104.666 15.7258 104.237 15.8309 103.81 15.7847C103.514 15.7925 103.219 15.7357 102.946 15.6182C102.674 15.5006 102.43 15.3252 102.232 15.1041C102.034 14.8829 101.887 14.6214 101.8 14.3376C101.713 14.0537 101.69 13.7544 101.73 13.4605C101.691 13.1656 101.715 12.8656 101.801 12.581C101.888 12.2963 102.035 12.0335 102.231 11.8105C102.428 11.5874 102.671 11.4092 102.943 11.288C103.214 11.1668 103.509 11.1054 103.806 11.1079C105.059 11.1079 105.815 11.9639 105.815 13.3779V13.688H102.635V13.7378C102.621 13.9031 102.642 14.0694 102.696 14.2261C102.751 14.3829 102.837 14.5266 102.95 14.6481C103.063 14.7695 103.2 14.866 103.352 14.9314C103.504 14.9968 103.669 15.0297 103.835 15.0278C104.047 15.0533 104.263 15.0151 104.453 14.9178C104.644 14.8206 104.802 14.6689 104.906 14.4819L105.761 14.4819ZM102.635 13.0308H104.91C104.921 12.8796 104.9 12.7278 104.85 12.5851C104.799 12.4424 104.718 12.3119 104.614 12.2021C104.51 12.0922 104.383 12.0054 104.243 11.9472C104.103 11.8891 103.953 11.8608 103.801 11.8643C103.648 11.8623 103.495 11.8912 103.353 11.9491C103.21 12.0071 103.081 12.0929 102.972 12.2017C102.864 12.3104 102.778 12.4397 102.72 12.5821C102.662 12.7245 102.633 12.8771 102.635 13.0308H102.635Z" fill="black"/>
<path d="M25.997 20.8893C26.0082 20.0214 26.2388 19.1703 26.6672 18.4154C27.0957 17.6605 27.7081 17.0262 28.4476 16.5716C27.9779 15.9007 27.3581 15.3486 26.6377 14.9591C25.9172 14.5696 25.1158 14.3535 24.2972 14.3279C22.551 14.1446 20.8581 15.3728 19.9682 15.3728C19.0612 15.3728 17.6911 14.3461 16.2158 14.3764C15.2615 14.4072 14.3314 14.6847 13.5163 15.1819C12.7011 15.679 12.0287 16.3788 11.5644 17.2131C9.55327 20.6951 11.0534 25.8125 12.9799 28.6271C13.9438 30.0053 15.0703 31.5448 16.5443 31.4903C17.9867 31.4304 18.5254 30.5705 20.2665 30.5705C21.9914 30.5705 22.4968 31.4903 24.0007 31.4555C25.5485 31.4304 26.5237 30.0712 27.4537 28.6799C28.1463 27.6979 28.6792 26.6125 29.0327 25.464C28.1335 25.0837 27.3662 24.4471 26.8263 23.6336C26.2865 22.8201 25.9981 21.8657 25.997 20.8893Z" fill="black"/>
<path d="M23.1563 12.4768C24.0003 11.4637 24.416 10.1616 24.3153 8.84692C23.026 8.98234 21.8351 9.59854 20.9798 10.5727C20.5616 11.0487 20.2413 11.6023 20.0372 12.2021C19.8332 12.8019 19.7493 13.436 19.7905 14.0682C20.4353 14.0749 21.0733 13.9351 21.6563 13.6594C22.2394 13.3838 22.7522 12.9794 23.1563 12.4768Z" fill="black"/>
<path d="M123.303 1H7.69662C3.99818 1 1 4.16087 1 8.06V33.94C1 37.8391 3.99818 41 7.69662 41H123.303C127.002 41 130 37.8391 130 33.94V8.06C130 4.16087 127.002 1 123.303 1Z" stroke="black" stroke-width="0.8" stroke-miterlimit="10"/>
</svg>
