<svg width="137" height="44" viewBox="0 0 137 44" fill="none" xmlns="http://www.w3.org/2000/svg">
<path d="M10.0049 21.9951C10.0194 15.488 15.2457 10.252 21.6814 10.2667C28.1414 10.2814 33.3386 15.5516 33.3143 22.0391C33.29 28.5365 28.0394 33.7725 21.6134 33.7334C15.1729 33.6991 10.0049 28.4534 10 21.9951H10.0049ZM11.1609 22.5769C11.2191 23.6134 11.4183 24.6107 11.7631 25.5787C12.108 26.5467 12.584 27.4462 13.1814 28.2529C13.672 27.9694 14.1431 27.6858 14.6337 27.4316C15.1194 27.1774 15.6246 26.9622 16.1297 26.7227C15.6683 25.388 15.4011 23.9996 15.338 22.572H11.1657L11.1609 22.5769ZM30.1377 28.2774C31.3666 26.5711 32.0466 24.6791 32.168 22.5769H28.1511C28.088 24.0289 27.816 25.4369 27.3351 26.8058C28.3211 27.2018 29.244 27.6907 30.1329 28.2774H30.1377ZM15.3331 21.4182C15.3866 20.0885 15.6246 18.8027 16.018 17.5658C15.4983 17.3165 14.9786 17.0867 14.4831 16.8227C13.9877 16.5587 13.5117 16.2556 13.0163 15.9671C11.8991 17.6 11.2774 19.4187 11.1609 21.4182H15.3331ZM27.4323 17.4925C27.8549 18.7782 28.0977 20.0787 28.156 21.4134H32.1729C32.0514 19.4089 31.4297 17.5902 30.3029 15.9476C29.3946 16.5685 28.4474 17.0769 27.4323 17.4925ZM26.2714 26.4196C26.7086 25.168 26.9611 23.892 27.0194 22.5769H22.2449V25.7205C23.6146 25.7791 24.9551 26.004 26.2714 26.4196ZM21.0937 22.5769H16.4746C16.5377 23.8822 16.7854 25.1436 17.2129 26.3707C18.4854 25.9796 19.7726 25.7694 21.0937 25.7156V22.5769ZM22.2449 18.6071V21.4134H27.0097C27.068 20.7876 26.5969 18.2747 26.3491 17.8836C25.0183 18.3138 23.6534 18.5485 22.2449 18.6071ZM16.4746 21.4134H21.0937V18.6071C19.7337 18.5485 18.4077 18.3236 17.1011 17.9178C16.7369 19.0569 16.528 20.2156 16.4746 21.4134ZM22.2449 17.4534C23.0803 17.4778 25.538 17.0378 25.9557 16.7885C25.0911 14.74 23.8234 12.98 22.2691 11.4156L22.2449 11.4254V17.4534ZM21.0937 11.4742C19.5637 13.0582 18.33 14.8085 17.4946 16.8422C18.67 17.204 19.8649 17.4094 21.0937 17.4631V11.4791V11.4742ZM22.2497 26.8694V32.5796C22.2934 32.5551 22.3226 32.5454 22.3469 32.5258C23.804 31.0494 24.9989 29.3969 25.8489 27.4902C25.2611 27.2214 23.0171 26.8351 22.2497 26.8694ZM21.0889 32.4769V26.8645C19.9086 26.9134 18.7623 27.104 17.6306 27.4414C18.4709 29.3431 19.6511 30.9907 21.0889 32.4769ZM13.7303 15.0431C14.5803 15.6151 15.4691 16.0894 16.4163 16.4707C17.1351 14.7009 18.1406 13.1218 19.384 11.66C17.1254 12.188 15.2603 13.3174 13.7303 15.0431ZM27.0291 16.4218C27.9374 16.0502 28.7826 15.5956 29.5937 15.0431C28.8651 14.2022 28.0346 13.4982 27.0971 12.9311C26.1889 12.3836 24.4403 11.6845 24.0954 11.7187C25.3097 13.1316 26.3054 14.6862 27.034 16.4218H27.0291ZM19.384 32.3302C18.228 30.9614 17.2614 29.4751 16.5426 27.8178C15.6197 28.1796 14.7503 28.6245 13.9149 29.1671C15.4254 30.7854 17.2371 31.8462 19.3791 32.3302H19.384ZM26.9174 27.8716C26.2083 29.4947 25.2563 30.9516 24.1003 32.3058C26.1937 31.7827 27.9471 30.7365 29.4043 29.172C28.6077 28.6538 27.7869 28.2236 26.9174 27.8765V27.8716Z" fill="black"/>
<path d="M45.3064 12.1292V16.1088C45.3064 16.7688 45.0927 17.2821 44.6701 17.6537C44.2427 18.0252 43.6987 18.211 43.0284 18.211C42.3581 18.211 41.853 18.0252 41.4401 17.6537C41.0272 17.2821 40.8232 16.7688 40.8232 16.1137V12.1341H41.6295V16.1137C41.6295 16.5732 41.7607 16.9301 42.0181 17.1892C42.2755 17.4483 42.6155 17.5803 43.0235 17.5803C43.4607 17.5803 43.8152 17.4483 44.0872 17.1892C44.3592 16.9301 44.5001 16.5732 44.5001 16.1137V12.1341H45.3064V12.1292Z" fill="black"/>
<path d="M49.0413 16.9201C49.0413 16.7441 48.9733 16.5974 48.8373 16.485C48.7013 16.3725 48.4488 16.2748 48.0699 16.1868C47.5502 16.0743 47.147 15.9179 46.8702 15.7125C46.5933 15.5072 46.4525 15.2383 46.4525 14.8961C46.4525 14.5343 46.6079 14.2214 46.9139 13.9672C47.2199 13.713 47.6182 13.581 48.1039 13.581C48.5896 13.581 49.0122 13.7179 49.323 13.9917C49.6339 14.2654 49.7845 14.5832 49.7699 14.9499L49.7602 14.9743H48.9928C48.9928 14.7837 48.9102 14.6077 48.7402 14.4512C48.575 14.2948 48.3613 14.2165 48.1039 14.2165C47.8222 14.2165 47.6085 14.2801 47.4676 14.4121C47.3268 14.5441 47.2588 14.6957 47.2588 14.8717C47.2588 15.0477 47.317 15.1845 47.4385 15.2774C47.5599 15.3752 47.8076 15.4632 48.1865 15.5414C48.7305 15.6588 49.1385 15.8201 49.4202 16.0303C49.7019 16.2405 49.8428 16.5192 49.8428 16.8565C49.8428 17.2525 49.6825 17.5752 49.3668 17.8245C49.051 18.0739 48.6333 18.201 48.1233 18.201C47.5599 18.201 47.113 18.0592 46.7925 17.7708C46.467 17.4823 46.3165 17.145 46.331 16.7637L46.3408 16.7392H47.1082C47.1228 17.0277 47.2296 17.2379 47.4288 17.3699C47.6279 17.5019 47.861 17.5703 48.1282 17.5703C48.4148 17.5703 48.6382 17.5117 48.7985 17.3894C48.9588 17.2672 49.0413 17.1108 49.0413 16.9201Z" fill="black"/>
<path d="M52.6788 18.2062C52.0425 18.2062 51.5471 18.0008 51.1925 17.5951C50.8379 17.1844 50.6582 16.6466 50.6582 15.9817V15.8008C50.6582 15.1604 50.8428 14.6324 51.2071 14.2168C51.5713 13.7964 52.0231 13.5911 52.5476 13.5911C53.1402 13.5911 53.5822 13.7768 53.8785 14.1484C54.1748 14.52 54.3205 15.0088 54.3205 15.6248V16.0551H51.4936L51.4839 16.0746C51.4839 16.5195 51.5811 16.8862 51.7802 17.1648C51.9745 17.4435 52.2756 17.5804 52.6788 17.5804C52.9508 17.5804 53.1888 17.5413 53.3976 17.4631C53.6016 17.3848 53.7813 17.2773 53.9271 17.1404L54.2428 17.6684C54.0825 17.82 53.8785 17.952 53.6162 18.0546C53.3588 18.1622 53.0431 18.2111 52.6788 18.2111V18.2062ZM52.5525 14.2217C52.2708 14.2217 52.0376 14.3293 51.8531 14.5493C51.6685 14.7693 51.5568 15.048 51.5179 15.3853L51.5276 15.4048H53.5239V15.3413C53.5239 15.0186 53.4462 14.7497 53.2859 14.5395C53.1256 14.3293 52.8828 14.2217 52.5525 14.2217Z" fill="black"/>
<path d="M58.1823 12.5252H57.376V11.699H58.1823V12.5252ZM58.1823 18.1181H57.376V13.6643H58.1823V18.1181Z" fill="black"/>
<path d="M60.1407 13.6694L60.199 14.3294C60.3447 14.0947 60.5293 13.9089 60.7527 13.7818C60.9761 13.6498 61.2287 13.5862 61.5104 13.5862C61.9864 13.5862 62.3556 13.728 62.6179 14.0067C62.8801 14.2854 63.0113 14.7205 63.0113 15.3071V18.1182H62.205V15.3267C62.205 14.9356 62.1273 14.6569 61.9719 14.4907C61.8164 14.3245 61.5833 14.2462 61.2676 14.2462C61.0199 14.2462 60.811 14.2951 60.6361 14.3978C60.4613 14.4956 60.3253 14.6374 60.2233 14.8182V18.1231H59.417V13.6694H60.1358H60.1407Z" fill="black"/>
<path d="M67.6163 16.4703L67.7572 17.0276H67.7814L68.8694 13.6641H69.7632L67.9029 18.7974C67.7912 19.0956 67.6309 19.3547 67.422 19.5796C67.2132 19.8045 66.9314 19.9121 66.5769 19.9121C66.5137 19.9121 66.4263 19.9023 66.3292 19.8876C66.2272 19.873 66.1494 19.8583 66.096 19.8436L66.1786 19.2081C66.1786 19.2081 66.2126 19.2081 66.3243 19.2178C66.436 19.2276 66.5089 19.2325 66.538 19.2325C66.708 19.2325 66.8489 19.1543 66.9606 19.0027C67.0674 18.8512 67.1597 18.6801 67.2326 18.4943L67.4269 18.0298L65.7852 13.669H66.6837L67.6163 16.4703Z" fill="black"/>
<path d="M70.2246 15.8494C70.2246 15.1894 70.3995 14.6468 70.754 14.2214C71.1086 13.7961 71.5895 13.581 72.1966 13.581C72.8037 13.581 73.2943 13.7961 73.6489 14.2165C74.0035 14.6419 74.1832 15.1845 74.1832 15.8445V15.9374C74.1832 16.6023 74.0083 17.145 73.6537 17.5654C73.2992 17.9859 72.8183 18.201 72.2063 18.201C71.5943 18.201 71.1135 17.9908 70.7589 17.5654C70.4043 17.1401 70.2246 16.5974 70.2246 15.9374V15.8445V15.8494ZM71.0309 15.9423C71.0309 16.4165 71.128 16.8028 71.3272 17.1108C71.5263 17.4188 71.8177 17.5703 72.2063 17.5703C72.5949 17.5703 72.8815 17.4188 73.0806 17.1108C73.2797 16.8028 73.3769 16.4165 73.3769 15.9423V15.8494C73.3769 15.385 73.2749 14.9939 73.0757 14.6859C72.8766 14.3779 72.5803 14.2214 72.1966 14.2214C71.8129 14.2214 71.5215 14.3779 71.3223 14.6859C71.1232 14.9939 71.026 15.385 71.026 15.8494V15.9423H71.0309Z" fill="black"/>
<path d="M77.9763 17.463C77.8354 17.7025 77.6606 17.8834 77.442 18.0154C77.2234 18.1425 76.9709 18.211 76.6843 18.211C76.2034 18.211 75.8246 18.0545 75.5574 17.7465C75.2854 17.4385 75.1543 16.9545 75.1543 16.2994V13.6741H75.9606V16.3092C75.9606 16.7834 76.0286 17.111 76.1694 17.287C76.3103 17.463 76.524 17.5559 76.8203 17.5559C77.1166 17.5559 77.3449 17.4972 77.5294 17.3798C77.714 17.2625 77.8549 17.0963 77.952 16.8861V13.679H78.7583V18.1327H78.0346L77.9812 17.4727L77.9763 17.463Z" fill="black"/>
<path d="M82.0173 14.3831L81.6044 14.3587C81.3907 14.3587 81.211 14.4076 81.0653 14.5102C80.9195 14.6129 80.8078 14.7547 80.7301 14.9405V18.1231H79.9238V13.6694H80.6427L80.7204 14.3196C80.8467 14.0898 81.0021 13.9089 81.1867 13.7818C81.3713 13.6547 81.5801 13.5862 81.823 13.5862C81.8813 13.5862 81.9395 13.5862 81.993 13.6009C82.0464 13.6107 82.0901 13.6205 82.129 13.6302L82.0173 14.3831Z" fill="black"/>
<path d="M49.144 28.8738H49.1877L50.5283 21.9561H52.6217L50.2563 32.1494H48.3717L46.5066 25.4369H46.4629L44.6074 32.1494H42.7229L40.3574 21.9561H42.4509L43.8011 28.8641H43.8449L45.6663 21.9561H47.308L49.144 28.8738Z" fill="black"/>
<path d="M56.5944 32.3007C55.4724 32.3007 54.5981 31.9536 53.9667 31.2594C53.3352 30.5652 53.0195 29.6754 53.0195 28.5803V28.3016C53.0195 27.1674 53.3255 26.2385 53.9375 25.515C54.5495 24.7914 55.3898 24.4345 56.4632 24.4345C57.4735 24.4345 58.2507 24.7474 58.7898 25.3683C59.329 25.9892 59.601 26.8301 59.601 27.8861V28.9421H55.113L55.0935 28.9861C55.1275 29.5043 55.283 29.9247 55.5647 30.2474C55.8464 30.5701 56.2592 30.7314 56.813 30.7314C57.2695 30.7314 57.6532 30.6825 57.969 30.5896C58.2847 30.4967 58.615 30.355 58.955 30.1643L59.5038 31.4256C59.2027 31.675 58.7947 31.8803 58.2798 32.0465C57.765 32.2127 57.2064 32.3007 56.5944 32.3007ZM56.4632 26.0136C56.0552 26.0136 55.7395 26.1554 55.521 26.439C55.3024 26.7225 55.1664 27.0941 55.1227 27.5634L55.1372 27.5976H57.6144V27.4461C57.6144 27.0012 57.5221 26.6541 57.3424 26.3998C57.1627 26.1456 56.8712 26.0185 56.4681 26.0185L56.4632 26.0136Z" fill="black"/>
<path d="M67.5676 28.5754C67.5676 29.7047 67.3151 30.6092 66.8148 31.2839C66.3145 31.9585 65.5908 32.3007 64.6436 32.3007C64.2016 32.3007 63.8179 32.2079 63.4925 32.0221C63.1671 31.8363 62.8902 31.5625 62.6619 31.2007L62.4968 32.1541H60.7773V21.2323H62.8028V25.383C63.0213 25.0799 63.2836 24.8452 63.5848 24.6839C63.8859 24.5225 64.2356 24.4394 64.6291 24.4394C65.5859 24.4394 66.3145 24.8012 66.8148 25.5296C67.3151 26.2532 67.5676 27.2212 67.5676 28.4336V28.5803V28.5754ZM65.5422 28.4287C65.5422 27.6905 65.4353 27.1087 65.2168 26.6736C65.0031 26.2434 64.6339 26.0283 64.1142 26.0283C63.7985 26.0283 63.5313 26.0967 63.3128 26.2287C63.0942 26.3607 62.9242 26.5514 62.7979 26.8007V30.0079C62.9242 30.2376 63.0942 30.4136 63.3176 30.531C63.5362 30.6532 63.8082 30.7119 64.1288 30.7119C64.6533 30.7119 65.0176 30.5261 65.2265 30.1545C65.4353 29.783 65.5373 29.2599 65.5373 28.5754V28.4287H65.5422Z" fill="black"/>
<path d="M72.5215 32.1541V21.9608H75.8389C77.0289 21.9608 77.9615 22.1955 78.6269 22.6648C79.2924 23.1341 79.6275 23.8284 79.6275 24.7524C79.6275 25.2217 79.5061 25.6373 79.2681 26.0039C79.0252 26.3706 78.6755 26.6493 78.2092 26.835C78.8406 26.9524 79.3166 27.2261 79.6372 27.6613C79.9578 28.0964 80.1181 28.5999 80.1181 29.1817C80.1181 30.1595 79.7975 30.8977 79.1564 31.3964C78.5152 31.8999 77.6118 32.1493 76.4363 32.1493H72.5215V32.1541ZM74.5518 26.2337H75.9069C76.4509 26.2337 76.8686 26.1213 77.1601 25.8964C77.4515 25.6715 77.5972 25.3439 77.5972 24.9186C77.5972 24.4493 77.4515 24.0973 77.1552 23.8773C76.8589 23.6524 76.4218 23.5399 75.8389 23.5399H74.5518V26.2337ZM74.5518 27.6466V30.5848H76.4363C76.9755 30.5848 77.3835 30.4675 77.6652 30.2328C77.9469 29.9981 78.0878 29.6461 78.0878 29.1866C78.0878 28.6928 77.9469 28.3115 77.6701 28.0475C77.3932 27.7835 76.9706 27.6466 76.4121 27.6466H74.5469H74.5518Z" fill="black"/>
<path d="M85.4029 26.3365L84.6598 26.3169C84.3586 26.3169 84.1109 26.3805 83.9166 26.5076C83.7223 26.6347 83.5718 26.8107 83.4698 27.0405V32.1591H81.4443V24.5862H83.3289L83.4212 25.7058C83.5961 25.3098 83.8243 25.0018 84.1061 24.7769C84.3878 24.5569 84.7083 24.4445 85.0775 24.4445C85.1795 24.4445 85.2718 24.4542 85.3592 24.4689C85.4466 24.4836 85.5341 24.5031 85.6215 24.5276L85.4078 26.3413L85.4029 26.3365Z" fill="black"/>
<path d="M86.0049 28.2965C86.0049 27.1672 86.3157 26.2432 86.9423 25.5197C87.5689 24.7961 88.4335 24.4392 89.5457 24.4392C90.658 24.4392 91.5323 24.7961 92.1589 25.5197C92.7855 26.2432 93.106 27.1672 93.106 28.2965V28.4432C93.106 29.5823 92.7903 30.5112 92.1637 31.225C91.5372 31.9436 90.6677 32.3005 89.5603 32.3005C88.4529 32.3005 87.5786 31.9436 86.9472 31.225C86.3206 30.5063 86.0049 29.5823 86.0049 28.4432V28.2965ZM88.0303 28.4432C88.0303 29.1325 88.1517 29.6899 88.3897 30.1054C88.6326 30.521 89.0212 30.7312 89.5603 30.7312C90.0995 30.7312 90.4686 30.521 90.7115 30.1005C90.9543 29.6801 91.0757 29.1277 91.0757 28.4432V28.2965C91.0757 27.6268 90.9543 27.0743 90.7066 26.6539C90.4589 26.2334 90.0752 26.0183 89.5457 26.0183C89.0163 26.0183 88.6375 26.2334 88.3946 26.6588C88.1517 27.0841 88.0303 27.6317 88.0303 28.3014V28.4481V28.4432Z" fill="black"/>
<path d="M100.907 29.3381H100.95L101.864 24.5763H103.84L101.927 32.1492H100.232L98.8327 27.7785H98.789L97.3901 32.1492H95.6998L93.7861 24.5763H95.763L96.6858 29.3136H96.7296L98.1333 24.5763H99.4884L100.907 29.3381Z" fill="black"/>
<path d="M108.911 30.0517C108.911 29.8268 108.805 29.6361 108.586 29.4748C108.372 29.3134 107.969 29.1717 107.386 29.0494C106.507 28.8734 105.837 28.6045 105.38 28.2428C104.924 27.8859 104.695 27.397 104.695 26.781C104.695 26.1308 104.967 25.5783 105.516 25.1237C106.065 24.669 106.789 24.4392 107.702 24.4392C108.615 24.4392 109.412 24.669 109.985 25.1237C110.558 25.5832 110.83 26.1503 110.811 26.8299L110.796 26.8739H108.834C108.834 26.5708 108.737 26.3214 108.542 26.1308C108.348 25.9401 108.066 25.8423 107.702 25.8423C107.377 25.8423 107.119 25.9254 106.93 26.0868C106.74 26.2481 106.643 26.4485 106.643 26.6881C106.643 26.9277 106.74 27.1134 106.939 27.2601C107.139 27.4068 107.537 27.5388 108.139 27.6561C109.062 27.8419 109.747 28.1157 110.203 28.4774C110.66 28.8392 110.883 29.3379 110.883 29.9734C110.883 30.653 110.592 31.2103 110.014 31.6454C109.436 32.0805 108.669 32.2957 107.717 32.2957C106.716 32.2957 105.924 32.0414 105.341 31.5281C104.759 31.0148 104.482 30.433 104.511 29.7828L104.525 29.7388H106.381C106.395 30.1445 106.527 30.4379 106.779 30.6188C107.032 30.7997 107.357 30.8925 107.76 30.8925C108.134 30.8925 108.421 30.8143 108.62 30.6628C108.819 30.5112 108.916 30.3059 108.916 30.0419L108.911 30.0517Z" fill="black"/>
<path d="M115.449 32.3007C114.327 32.3007 113.453 31.9536 112.821 31.2593C112.19 30.5651 111.874 29.6753 111.874 28.5802V28.3016C111.874 27.1673 112.18 26.2384 112.792 25.5149C113.404 24.7913 114.244 24.4344 115.318 24.4344C116.328 24.4344 117.105 24.7473 117.644 25.3682C118.183 25.9891 118.455 26.83 118.455 27.886V28.942H113.967L113.948 28.986C113.982 29.5042 114.137 29.9247 114.419 30.2473C114.701 30.57 115.114 30.7313 115.667 30.7313C116.124 30.7313 116.508 30.6825 116.823 30.5896C117.139 30.4967 117.469 30.3549 117.809 30.1642L118.358 31.4256C118.057 31.6749 117.649 31.8802 117.134 32.0465C116.619 32.2127 116.061 32.3007 115.449 32.3007ZM115.318 26.0136C114.91 26.0136 114.594 26.1553 114.375 26.4389C114.157 26.7225 114.021 27.094 113.977 27.5633L113.992 27.5976H116.469V27.446C116.469 27.0011 116.377 26.654 116.197 26.3998C116.017 26.1456 115.726 26.0184 115.323 26.0184L115.318 26.0136Z" fill="black"/>
<path d="M123.594 26.3365L122.851 26.3169C122.55 26.3169 122.302 26.3805 122.108 26.5076C121.914 26.6347 121.763 26.8107 121.661 27.0405V32.1591H119.636V24.5862H121.52L121.613 25.7058C121.787 25.3098 122.016 25.0018 122.297 24.7769C122.579 24.5569 122.9 24.4445 123.269 24.4445C123.371 24.4445 123.463 24.4542 123.551 24.4689C123.638 24.4836 123.725 24.5031 123.813 24.5276L123.599 26.3413L123.594 26.3365Z" fill="black"/>
<path d="M124.303 2H8.69662C4.99818 2 2 5.16087 2 9.06V34.94C2 38.8391 4.99818 42 8.69662 42H124.303C128.002 42 131 38.8391 131 34.94V9.06C131 5.16087 128.002 2 124.303 2Z" stroke="black" stroke-width="0.8" stroke-miterlimit="10"/>
</svg>
