<!DOCTYPE svg PUBLIC "-//W3C//DTD SVG 1.1//EN" "http://www.w3.org/Graphics/SVG/1.1/DTD/svg11.dtd">
<svg xmlns="http://www.w3.org/2000/svg" viewBox="0 0 475 468">
<path fill="#070707" d="M226 11.092C126.327 16.591 39.319 92.511 19.567 191.219-6.47 321.333 81.742 443.422 214.5 461.014c14.257 1.889 52.156.826 66.719-1.871C417.496 433.9 499.621 296.377 456.561 165.52 424.319 67.541 331.362 5.279 226 11.092M213.603 32.62C122.999 44.227 49.31 118.584 37.517 210.301 21.75 332.93 117.772 442 241.5 442c140.388 0 239.301-137.559 194.865-271C405.324 77.785 312.271 19.98 213.603 32.62m-.103 23.359c-53.647 8.656-99.648 39.797-115.806 78.396-4.389 10.486-4.429 10.981-1.144 14.266 4.071 4.071 6.2 2.713 26.835-17.114 27.806-26.718 38.239-34.456 62.115-46.071C201.843 77.506 240.889 65 249.369 65c3.543 0 4.616-7.197 1.408-9.443-3.064-2.147-22.74-1.924-37.277.422m54.005 63.271c-.238.688-1.839 8.9-3.557 18.25-1.719 9.35-3.423 17.279-3.787 17.62-.363.341-8.196 3.697-17.405 7.456-9.209 3.76-16.409 7.158-16 7.551.409.393 7.494 4.395 15.744 8.893 8.25 4.499 15.318 8.475 15.708 8.837.522.486 3.792 33.193 3.792 37.93 0 .366 3.488-2.701 7.75-6.816a3840.32 3840.32 0 0 1 13.915-13.361l6.164-5.878 17.68 4.186c9.723 2.302 18.013 4.05 18.421 3.884.407-.166-2.794-7.811-7.115-16.988l-7.856-16.686 9.582-15.669c5.27-8.618 9.332-15.919 9.026-16.225-.306-.306-5.846.18-12.311 1.079-6.466.9-14.681 1.901-18.256 2.224l-6.5.589-11.867-14.063c-12.522-14.839-12.451-14.769-13.128-12.813m-185.753 50.5c-6.9 7.237-13.049 25.978-10.888 33.189 2.386 7.964 9.105 9.097 13.593 2.292 5.091-7.718 8.689-34.189 5.012-36.877-2.769-2.025-4.807-1.656-7.717 1.396m70.28 25.913c-.033 1.203-5.607 31.079-6.553 35.122-.294 1.257-1.535 2.667-2.757 3.132-12.156 4.631-31.674 13.525-31.033 14.142.446.43 7.786 4.569 16.311 9.199l15.5 8.418 1.61 18.412c.886 10.127 1.674 18.571 1.75 18.766.204.516 6.308-4.902 17.473-15.511 5.408-5.139 10.473-9.343 11.255-9.343.783 0 8.916 1.804 18.074 4.01 9.159 2.205 16.877 3.784 17.152 3.509.275-.275-2.945-7.706-7.157-16.512-4.211-8.807-7.657-16.46-7.657-17.005 0-.546 4.298-8.022 9.552-16.612 5.253-8.591 9.416-15.727 9.25-15.857-.166-.13-7.727.794-16.802 2.055-9.075 1.26-17.457 2.319-18.626 2.352-1.792.051-16.547-15.72-26.092-27.887-.716-.913-1.232-1.073-1.25-.39m262.226 57.587c-2.31 2.486-4.367 6.878-13.93 29.75-14.835 35.482-29.135 57.896-53.078 83.195-8.736 9.231-9.64 11.432-6.061 14.766 2.811 2.619 3.274 2.574 9.63-.929 30.812-16.986 59.365-51.924 71.371-87.329 4.613-13.602 5.429-35.175 1.481-39.123-3.177-3.177-6.654-3.299-9.413-.33m-151.242 19.658-3.327 18.813-13.095 5.287c-7.201 2.907-15.103 6.145-17.557 7.195l-4.464 1.909 16.203 8.767c8.912 4.822 16.417 8.981 16.678 9.242.261.261 1.142 8.717 1.958 18.791.815 10.074 1.629 18.463 1.808 18.642.18.179 6.476-5.51 13.992-12.642l13.666-12.967 12.811 3.079c26.887 6.464 24.297 6.062 23.346 3.622-.46-1.18-3.838-8.446-7.507-16.146-3.669-7.7-6.727-14.688-6.795-15.528-.069-.841 4.068-8.399 9.192-16.796 5.125-8.396 9.151-15.433 8.946-15.635-.312-.311-20.227 2.054-33.065 3.926-3.687.538-3.715.514-15.755-13.408-6.634-7.671-12.432-14.176-12.885-14.456-.452-.28-2.32 7.957-4.15 18.305" fill-rule="evenodd"/>
</svg>