<!DOCTYPE svg PUBLIC "-//W3C//DTD SVG 1.1//EN" "http://www.w3.org/Graphics/SVG/1.1/DTD/svg11.dtd">
<svg xmlns="http://www.w3.org/2000/svg" viewBox="0 0 457 463">
<path fill="#090909" d="M208.417 5.991C104.93 14.699 20.735 92.971 4.027 196c-2.507 15.463-2.805 49.777-.568 65.5C21.955 391.496 144.02 478.316 272.5 452.861c115.196-22.824 193.708-131.009 180.017-248.052C438.363 83.811 330.233-4.261 208.417 5.991m3.083 20.042C77.529 37.743-9.437 168.992 32.618 296c25.516 77.06 94.659 132.397 174.882 139.961 148.921 14.042 262.71-128.735 215.397-270.27C393.201 76.859 304.026 17.945 211.5 26.033M208 49.639c-1.375.202-5.875.846-10 1.431-49.036 6.953-98.903 40.901-113.713 77.411-4.01 9.885-4.13 12.711-.652 15.446 4.154 3.268 4.576 2.995 22.805-14.756 40.444-39.382 70.265-56.329 118.074-67.098 7.008-1.578 13.128-3.478 13.599-4.221 1.556-2.456.983-6.73-1.047-7.817-1.786-.955-23.261-1.248-29.066-.396m-26.384 37.986c-.333 2.681-1.07 9.825-1.637 15.875-1.77 18.874.163 16.101-17.75 25.459-8.651 4.519-16.053 8.524-16.449 8.899-.396.375 6.884 3.979 16.179 8.007 9.295 4.029 17.114 7.882 17.375 8.563.261.681 1.739 8.963 3.284 18.405 1.545 9.442 3.134 17.167 3.53 17.167.396 0 6.012-5.963 12.48-13.25 6.467-7.287 12.548-13.391 13.513-13.563.965-.172 9.276.843 18.468 2.256 9.192 1.412 16.919 2.362 17.171 2.11.252-.252-3.645-7.482-8.661-16.066-5.015-8.585-9.119-16.036-9.119-16.559 0-.523 3.6-8.141 8-16.928s8-16.14 8-16.341c0-.2-7.717 1.37-17.149 3.488-9.432 2.119-17.864 3.853-18.737 3.853-.873 0-7.506-5.906-14.74-13.125l-13.152-13.126-.606 4.876m132.963 60.625c-.969 10.037-2.059 18.537-2.421 18.887-.362.35-7.779 4.344-16.483 8.875s-15.454 8.605-15 9.054c.454.449 7.8 3.822 16.325 7.495 8.525 3.674 15.812 6.963 16.194 7.309.381.347 2.107 8.73 3.836 18.63 1.728 9.9 3.266 18.125 3.417 18.277.232.235 18.977-20.448 23.548-25.984 1.452-1.758 2.1-1.732 18.48.733 9.336 1.405 17.726 2.424 18.645 2.264 1.319-.229-.295-3.629-7.671-16.159l-9.341-15.869 8.452-16.881c4.648-9.285 8.127-16.881 7.73-16.881-.396 0-8.802 1.827-18.681 4.061l-17.96 4.061-13.088-13.061C323.363 135.877 317.219 130 316.907 130c-.311 0-1.359 8.213-2.328 18.25M67.672 164.978c-11.814 14.04-13.917 39.272-3.272 39.272 6.675 0 9.761-7.272 12.594-29.678 1.512-11.961-3.227-16.838-9.322-9.594m144.33 20.272c.003 2.24-3.051 32.194-3.496 34.277-.308 1.443-5.045 4.441-16.469 10.423-8.82 4.617-16.037 8.691-16.037 9.051 0 .361 7.232 3.763 16.071 7.561 8.839 3.797 16.462 7.376 16.941 7.952.478.577 2.196 8.822 3.817 18.322 1.622 9.501 3.16 17.487 3.42 17.746.26.26 5.372-5.041 11.362-11.78 5.989-6.739 11.603-12.978 12.477-13.865 1.459-1.482 3.008-1.411 19.253.889 9.716 1.375 17.947 2.22 18.289 1.877.343-.343-3.48-7.555-8.494-16.028l-9.118-15.404 8.055-16.738c4.43-9.206 7.87-16.923 7.644-17.149-.226-.227-8.439 1.417-18.251 3.652l-17.84 4.063-13.076-13.049c-12.953-12.927-14.552-14.223-14.548-11.8m-109.952 63.5c-1.772 18.546-2.662 24.619-3.662 24.971-3.674 1.294-30.601 16.052-30.581 16.76.014.494 7.238 4.089 16.055 7.988 8.816 3.899 16.254 7.314 16.529 7.589.275.275 1.854 8.529 3.509 18.342 1.654 9.812 3.182 18.016 3.396 18.229.319.319 11.724-12.146 22.792-24.911l2.412-2.782 17.812 2.594c9.797 1.428 18.19 2.455 18.651 2.283.462-.172-2.509-5.938-6.601-12.813-4.093-6.875-8.305-14.134-9.361-16.132l-1.921-3.631 7.99-16.255c4.394-8.941 7.786-16.459 7.538-16.708-.404-.404-10.627 1.719-29.566 6.138l-6.457 1.508-13.088-12.96c-7.199-7.128-13.345-12.96-13.659-12.96-.313 0-1.118 5.738-1.788 12.75m298.648-.968c-1.939 2.141-6.544 12.155-13.668 29.718-13.548 33.402-27.356 55.235-51.862 82-9.235 10.087-10.859 13.409-7.968 16.3 2.986 2.986 8.542.817 21.3-8.314 39.261-28.1 67.266-76.648 63.941-110.849-.941-9.682-6.917-14.189-11.743-8.855m-172.009 51.934c-.318 2.081-1.126 10.175-1.795 17.987-.67 7.811-1.482 14.622-1.806 15.135-.323.512-7.676 4.623-16.338 9.134S193 350.5 193 350.898c0 .399 6.637 3.576 14.75 7.061 20.891 8.973 18.475 6.059 21.731 26.209 1.54 9.533 3.099 17.672 3.464 18.087.365.415 5.14-4.31 10.61-10.5s11.079-12.424 12.465-13.852l2.52-2.597 17.734 2.51c9.753 1.381 17.995 2.248 18.315 1.928.32-.32-3.585-7.649-8.678-16.287l-9.259-15.705 8.227-16.49c4.525-9.069 8.09-16.619 7.924-16.777-.167-.158-8.396 1.468-18.288 3.614l-17.984 3.902-11.516-11.294c-16.488-16.171-15.624-15.59-16.326-10.991" fill-rule="evenodd"/>
</svg>