<!DOCTYPE svg PUBLIC "-//W3C//DTD SVG 1.1//EN" "http://www.w3.org/Graphics/SVG/1.1/DTD/svg11.dtd">
<svg xmlns="http://www.w3.org/2000/svg" viewBox="0 0 479 459">
<path fill="#070707" d="M218.5 6.668C138.661 16.476 73.42 62.91 38.895 134.5c-58.774 121.869 4.258 269.648 133.022 311.868 134.374 44.059 275.409-43.503 295.554-183.496 2.303-16.009 2.054-48.833-.497-65.372C451.508 97.228 370.86 19.231 270.026 7.026c-7.83-.948-44.642-1.204-51.526-.358m7.5 19.893c-1.375.238-6.55.938-11.5 1.555-57.042 7.11-111.305 41.603-143.76 91.384-67.242 103.138-29.649 240.944 80.82 296.269 93.959 47.056 210.654 14.058 266.185-75.269C494.395 217.2 423.122 56.228 280 29.402c-12.939-2.426-46.287-4.18-54-2.841m-.5 23.086C166.557 56.48 116 88.468 99.291 129.5c-3.8 9.332-4.017 11.774-1.291 14.5 4.298 4.298 6.175 3.148 24.921-15.281 19.612-19.279 28.142-26.513 42.079-35.684 19.482-12.82 48.309-24.53 74.862-30.411C254.48 59.386 258.144 56.144 253 51c-1.951-1.951-16.262-2.655-27.5-1.353M284 79.054c0 6.451-3.487 35.714-4.365 36.63-.624.651-8.248 4.864-16.941 9.361-8.693 4.497-15.632 8.351-15.419 8.563.212.213 8 3.706 17.306 7.763l16.919 7.377 3.198 18.24c1.759 10.033 3.356 18.399 3.549 18.592.193.193 5.897-5.934 12.677-13.615 6.78-7.681 12.509-13.965 12.733-13.965.223 0 8.095 1.148 17.491 2.551 9.397 1.403 17.664 2.415 18.372 2.25.818-.192-2.173-6.123-8.219-16.301l-9.506-16 8.155-16.364c4.486-9 7.911-16.609 7.611-16.908-.3-.3-8.086 1.111-17.303 3.135s-17.287 3.67-17.933 3.658c-.646-.011-7.284-5.92-14.75-13.131C290.109 83.68 284 78.354 284 79.054m-118.282 23.135c-.314 2.371-1.126 10.611-1.803 18.311-.678 7.7-1.659 14.554-2.181 15.232-.522.677-8.101 4.929-16.843 9.448-8.742 4.519-15.556 8.526-15.143 8.904.414.377 7.727 3.694 16.252 7.37 8.525 3.676 16.018 7.215 16.652 7.865.634.649 2.372 8.606 3.863 17.681 1.49 9.075 3.018 17.068 3.394 17.762.445.822 5.006-3.636 13.057-12.763 11.746-13.317 12.527-13.998 15.453-13.461 12.271 2.251 33.581 4.895 33.581 4.166 0-.489-4.119-7.897-9.153-16.464l-9.152-15.574 8.205-16.447c4.513-9.046 7.992-16.66 7.73-16.922-.261-.261-8.497 1.325-18.303 3.524l-17.827 4-13.606-13.471-13.605-13.472-.571 4.311m-80.6 61.441C79.726 167.407 72 185.048 72 193.584c0 11.913 9.314 15.319 14.869 5.435C88.897 195.412 93 175.254 93 168.901c0-2.664-2.933-6.901-4.777-6.901-.428 0-1.825.733-3.105 1.63m242.822 15.884c-.223 7.379-3.71 35.643-4.486 36.366-.525.489-7.704 4.382-15.954 8.651s-15.365 8.084-15.811 8.477c-.657.578 14.349 7.667 30.816 14.557 2.995 1.253 3.013 1.312 5.876 18.596 1.58 9.536 3.153 17.864 3.496 18.505.367.687 5.713-4.579 13.028-12.833 11.76-13.269 12.566-13.969 15.5-13.452 11.977 2.11 32.755 4.792 33.256 4.292.333-.334-3.565-7.687-8.664-16.34l-9.27-15.732 8.19-16.414c4.504-9.028 7.944-16.66 7.644-16.959-.3-.3-8.086 1.111-17.303 3.135s-17.427 3.67-18.245 3.658c-.817-.011-7.455-5.977-14.75-13.257-9.677-9.658-13.279-12.699-13.323-11.25m-108.31 13.543c-.251.793-1.183 9.045-2.072 18.335-.889 9.291-1.837 17.25-2.107 17.687-.27.437-7.682 4.511-16.471 9.055S183 246.66 183 246.984c0 .324 7.65 3.891 17 7.928s17 7.396 17.001 7.464c.001.068 1.351 7.93 3 17.471S223 297.638 223 298.18c0 1.921 1.816.176 13.457-12.93 13.6-15.313 10.337-14.247 33.008-10.785 8.781 1.341 16.126 2.277 16.323 2.08.197-.197-3.725-7.361-8.715-15.92-4.99-8.558-9.073-15.992-9.073-16.519 0-.526 3.571-8.415 7.935-17.531 4.364-9.116 7.815-16.575 7.669-16.575-.146 0-8.533 1.815-18.637 4.034l-18.371 4.035-13.255-13.228c-8.719-8.701-13.411-12.734-13.711-11.784m-101.99 46.574c-.317 2.128-1.055 9.044-1.64 15.369-1.891 20.456.293 17.273-18.529 27.003-9.04 4.673-16.434 8.722-16.431 8.997.002.275 7.752 3.881 17.221 8.013l17.216 7.513 2.971 18.237c1.634 10.03 3.273 18.237 3.643 18.237.37 0 5.995-6.075 12.501-13.5 9.387-10.714 12.353-13.498 14.368-13.489 2.218.009 22.559 2.895 31.79 4.511 4.392.768 4.462.969-5.75-16.412-4.95-8.424-9-15.726-9-16.225 0-.5 3.627-8.151 8.06-17.004 4.432-8.852 7.91-16.244 7.728-16.427-.183-.182-8.412 1.439-18.287 3.601l-17.956 3.932-6.022-5.738a3597.018 3597.018 0 0 1-13.665-13.113l-7.642-7.374-.576 3.869m299.579 7.041c-1.785.718-4.808 6.965-13.712 28.338-16.053 38.532-28.504 58.275-54.396 86.255-8.515 9.202-9.682 12.003-6.282 15.08 2.629 2.379 4.32 2.091 11.127-1.898 35.766-20.962 68.068-65.625 72.974-100.898 2.9-20.852-.599-30.538-9.711-26.877M247.03 305.75c-.68 7.012-1.528 15.364-1.884 18.559l-.646 5.81-15.971 8.354c-8.784 4.595-16.098 8.734-16.252 9.197-.155.464 7.37 4.159 16.721 8.212 9.351 4.053 17.007 7.65 17.014 7.994.034 1.849 5.964 35.433 6.319 35.788.231.232 5.509-5.335 11.728-12.371 6.219-7.036 11.89-13.285 12.602-13.887.947-.801 6.119-.375 19.31 1.59 9.909 1.475 18.199 2.5 18.422 2.277.223-.223-3.812-7.603-8.968-16.401l-9.374-15.996 8.48-16.938c4.664-9.316 8.024-16.938 7.467-16.938-.851 0-10.636 2.109-32.472 6.998l-3.973.89-13.072-12.944c-7.19-7.119-13.329-12.944-13.643-12.944-.313 0-1.127 5.738-1.808 12.75" fill-rule="evenodd"/>
</svg>