<!DOCTYPE svg PUBLIC "-//W3C//DTD SVG 1.1//EN" "http://www.w3.org/Graphics/SVG/1.1/DTD/svg11.dtd">
<svg xmlns="http://www.w3.org/2000/svg" viewBox="0 0 327 446">
<path fill="#0a0a0a" d="M128 6.912C103.826 10.366 88.032 22.954 80.837 44.5c-2.982 8.932-3.381 34.127-.649 41.079l1.603 4.08-4.57 3.42c-16.924 12.667-9.473 44.76 10.425 44.899 2.666.019 3.63.776 6.32 4.969 3.612 5.629 9.369 11.148 14.224 13.636 1.821.933 3.641 2.196 4.045 2.807.953 1.44.953 9.776 0 11.233-2.009 3.072-26.703 17.516-50.735 29.676-16.478 8.338-22.826 13.529-28.984 23.701-7.539 12.455-7.197 8.642-10.484 117l-2.957 97.5 2.056 1.735c2.157 1.822 5.521 1.005 6.381-1.55.219-.652 1.533-41.91 2.92-91.685 1.386-49.775 2.965-94.543 3.508-99.484 1.932-17.589 9.992-28.504 28.374-38.425 5.398-2.913 9.96-5.138 10.139-4.944.179.194 2.405 5.449 4.948 11.678 15.504 37.987 34.454 67.693 54.812 85.925 7.136 6.39 7.171 6.391 14.286.534 17.735-14.601 39.678-48.521 54.521-84.284 2.853-6.875 5.391-12.834 5.638-13.243.511-.841 5.754 1.672 15.507 7.433 9.646 5.698 15.093 12.123 26.97 31.81 5.806 9.625 22.401 37.075 36.877 61 27.647 45.693 29.459 49.352 28.468 57.5-1.162 9.554-5.244 15.633-27.531 41-22.879 26.04-26.248 28.842-34.814 28.944l-4.635.056-.501-11c-.573-12.572-2.501-17.79-9.161-24.791-2.134-2.244-3.759-4.406-3.61-4.806.15-.399 9.61-10.42 21.022-22.27 20.937-21.738 22.025-23.216 19.179-26.062-2.286-2.286-3.377-1.989-8.929 2.429-2.75 2.188-5.337 3.984-5.75 3.989-.413.006-.75-11.832-.75-26.307 0-29.994-.679-34.107-6.738-40.814-5.154-5.705-10.403-8.095-19.008-8.657-15.997-1.045-27.714 7.115-30.063 20.936l-.74 4.353-7.128.557c-5.767.451-7.836 1.097-10.832 3.382-6.566 5.009-6.491 4.351-6.491 56.595 0 30.553-.364 47.777-1.035 49.032-1.001 1.869-2.579 1.934-47.25 1.928-47.784-.005-50.804-.232-56.779-4.258-7.18-4.839-6.888-2.405-7.496-62.339-.619-61.073-.558-60.137-3.997-61.001-5.79-1.453-5.637-3.241-4.914 57.531.684 57.471.978 61.356 5.063 66.756C63.871 410.695 64 411.622 64 424.91c0 13.67.063 14.085 2.369 15.596 2.108 1.381 12.814 1.522 96.75 1.273l94.381-.279 5.5-2.66c7.646-3.698 8.412-4.448 31.494-30.84 25.777-29.473 28.006-33.329 28.006-48.448 0-12.225 4.507-3.535-40.5-78.094-42.8-70.903-41.846-69.689-63.317-80.584-17.225-8.74-30.391-16.29-41.933-24.046l-8.75-5.88V159.19l4.508-2.642c5.371-3.147 11.807-9.609 14.741-14.798 1.74-3.079 2.678-3.75 5.239-3.75 4.949 0 12.92-4.538 16.149-9.194 3.923-5.656 4.772-21.123 1.511-27.515-1.966-3.854-7.589-9.605-10.264-10.496-1.038-.346-.903-1.768.653-6.866 4.166-13.647 2.094-34.697-4.803-48.783C185.601 14.45 157.427 2.706 128 6.912m33.476 62.205C150.82 71.952 136.22 72.504 126 70.458 107.118 66.679 106.23 67.034 99.59 81c-3.05 6.416-3.094 6.736-3.419 24.722-.538 29.813 4.874 40.389 23.744 46.396 24.8 7.895 52.187.324 60.947-16.848 4.963-9.728 5.706-39.875 1.266-51.375-5.638-14.607-9.882-17.643-20.652-14.778M122.75 97.08c-2.069 1.205-2.459 8.811-.55 10.72 3.167 3.167 7 .264 7-5.3 0-5.553-2.547-7.693-6.45-5.42m29.821.491c-3.22 3.221-1.117 11.429 2.929 11.429 2.393 0 4.5-3.044 4.5-6.5s-2.107-6.5-4.5-6.5c-.746 0-2.064.707-2.929 1.571m-69.808 1.994c-8.746 4.746-7.661 25.637 1.498 28.858 1.485.522 2.85.753 3.034.513.618-.808-.507-30.936-1.154-30.896-.353.022-1.873.708-3.378 1.525m110.893-.11c-1.374 3.581-.896 29.041.551 29.333 4.379.884 9.793-7.568 9.793-15.288 0-8.68-8.155-19.751-10.344-14.045m-71.692 27.612c-2.424 4.529 5.269 10.356 15.212 11.523 9.939 1.166 22.255-4.125 21.635-9.294-.439-3.659-3.175-5.178-6.058-3.361-5.299 3.339-7.561 4.053-12.863 4.059-4.343.005-6.444-.559-9.295-2.494-4.481-3.041-7.163-3.176-8.631-.433m17.334 41.309c-8.361 1.757-15.541 3.533-15.955 3.947-.414.414 3.162 4.667 7.946 9.452l8.698 8.698 9.507-9.467c8.14-8.106 9.506-9.936 9.506-12.736 0-4.078.215-4.079-19.702.106M108 183.912c-4.125 2.634-7.639 5.498-7.809 6.365-.32 1.629 5.392 19.68 6.621 20.926.801.812 24.503-13.684 25.057-15.326.343-1.013-14.679-16.953-15.846-16.815-.287.034-3.898 2.217-8.023 4.85m47.967 2.682c-4.382 4.264-7.961 8.237-7.954 8.829.007.593 5.519 4.517 12.25 8.721 10.928 6.826 12.373 7.47 13.513 6.023 1.686-2.141 7.193-19.408 6.531-20.479-.418-.677-9.221-6.555-15.09-10.077-.848-.509-3.989 1.863-9.25 6.983m32.577 8.589c-.244.724-1.613 4.917-3.041 9.317-5.588 17.218-19.741 43.414-34.173 63.249-10.201 14.021-11.205 14.41-17.393 6.751-13.316-16.482-32.744-51.412-38.94-70.01-3.489-10.473-3.883-10.756-10.041-7.24-4.89 2.792-4.896 2.575.47 15.677 13.364 32.629 31.348 61.803 48.333 78.407l5.968 5.834 6.242-6.334c17.748-18.011 32.908-42.439 46.518-74.957 3.972-9.491 6.067-15.709 5.516-16.374-2.064-2.486-9.007-5.658-9.459-4.32m-38.193 16.067c.315 1.787 1.565 10.338 2.776 19 1.211 8.662 2.543 15.75 2.958 15.75.94 0 12.917-23.354 12.91-25.174-.004-1.179-16.838-12.826-18.538-12.826-.374 0-.421 1.463-.106 3.25m-31.11 3.267c-4.533 3.035-8.241 5.81-8.241 6.168 0 .881 11.988 23.584 13.047 24.71 1.189 1.262 4.953-24.382 4.953-33.744 0-3.56-.284-3.477-9.759 2.866M227 283.025c-6.203.799-10.384 3.247-13.153 7.701-2.341 3.764-2.348 3.871-2.653 42.235-.366 46.131-.753 43.498 6.273 42.672 9.395-1.104 8.533 2.792 8.533-38.585 0-38.91.135-40.048 4.757-40.048 4.032 0 4.243 1.821 4.243 36.571 0 18.386.338 33.413.75 33.394.412-.019 3.805-2.29 7.54-5.047l6.789-5.012-.289-31.783-.29-31.782-2.791-3.657c-4.355-5.708-10.631-7.828-19.709-6.659m-30.093 115.301c-11.97 6.318-17.135 24.614-9 31.883l3.165 2.827 23.714-.268 23.714-.268-.077-9.5c-.109-13.464-4.046-20.564-13.923-25.114-6.281-2.893-21.745-2.647-27.593.44" fill-rule="evenodd"/>
</svg>