<!DOCTYPE svg PUBLIC "-//W3C//DTD SVG 1.1//EN" "http://www.w3.org/Graphics/SVG/1.1/DTD/svg11.dtd">
<svg xmlns="http://www.w3.org/2000/svg" viewBox="0 0 736 736">
<path fill="#121420" d="M164 .777c0 .427 2.916 4.464 6.48 8.971 15.17 19.185 24.424 33.986 37.165 59.444 11.341 22.66 11.249 22.118 3.348 19.77-8.503-2.528-29.611-5.88-37.342-5.93-7.622-.05-24.483 7.156-46.651 19.937-13.238 7.632-40.003 29.845-39.998 33.195.001.806 3.638 2.485 9.176 4.235 8.934 2.824 28.219 11.832 40.322 18.835 13.112 7.587 27.995 16.948 28.662 18.029 1.138 1.841-.193 2.946-2.768 2.3-2.499-.627-45.766-6.281-55.539-7.258-5.807-.58-15.5.384-14.447 1.437.326.325 3.405.494 6.842.374 5.941-.207 18.099 1.027 43.75 4.44 20.057 2.669 20.108 2.847 2.008 7.005-6.329 1.454-12.697 3.386-14.15 4.292-3.063 1.91-14.518 15.846-18.78 22.849-20.418 33.544-29.658 53.82-22.873 50.189 4.988-2.67 32.65.303 76.712 8.246 18.867 3.401 19.52 4.304 8.833 12.216-10.236 7.577-27.521 23.729-34.162 31.922-4.108 5.068-4.281 6.857-.425 4.39 6.486-4.149 57.914-6.029 87.337-3.194 28.659 2.762 41.5 7.435 41.5 15.102 0 1.524.704 6.53 1.565 11.125l1.566 8.353-6.118 6.676c-3.365 3.672-8.628 10.636-11.695 15.475-6.079 9.589-5.861 9.481-14.818 7.318-3.3-.797-6.324-1.465-6.72-1.484-.917-.046-9.799 13.1-12.699 18.796-1.213 2.383-3.501 5.076-5.084 5.984-1.582.909-3.528 3.309-4.324 5.334-.907 2.31-2.915 4.609-5.388 6.17-4.539 2.865-10.004 7.503-23.083 19.588-9.206 8.507-9.383 8.76-17.869 25.592-4.715 9.35-8.945 17.468-9.4 18.039-2.082 2.613-17.933 41.534-17.933 44.032 0 .31.875.286 1.944-.053 1.203-.382 3.397.302 5.75 1.791l3.806 2.409.029 14.891.028 14.891 4.222 8.73c5.524 11.424 5.283 17.453-1.845 46.184-1.626 6.553-3.662 17.341-4.525 23.975-.863 6.633-1.724 12.311-1.913 12.617-.189.306.306 3.653 1.099 7.438 1.257 5.998 1.257 8.047-.005 15.969-.796 4.998-1.672 10.745-1.945 12.771-.274 2.026-3.696 9.622-7.605 16.881C125.646 720.366 121.058 736 125.788 736c1.903 0 4.212-6.221 4.212-11.346 0-1.622 15.605-33.102 18.657-37.636 2.767-4.112 2.899-5.018.732-5.018-1.335 0-1.477-.643-.825-3.75.433-2.062.857-11.85.944-21.75.159-18.296 2.607-33.717 5.651-35.598.62-.384.863-1.708.54-2.944-.323-1.235-.221-1.844.227-1.352 1.028 1.129 6.106 16.394 5.453 16.394-.266 0-.954-1.35-1.529-3-.876-2.513-2.85-4.231-2.85-2.48 0 1.467 5.002 12.525 7.341 16.23 3.479 5.509 5.153 5.509 2.299 0-5.312-10.256-5.642-12.32-.767-4.797 2.13 3.288 3.699 4.765 4.668 4.393.875-.336 1.459.034 1.459.924 0 2.893 6.098 21.252 7.538 22.694 1.962 1.965 1.941.351-.087-6.964-3.248-11.713-3.072-25.846.536-43.001 5.425-25.799 10.869-38.559 20.462-47.957 4.697-4.601 5.477-6.042 3.274-6.042-4.492 0-18.387 18.443-22.601 30-3.718 10.195-11.534 45.496-10.462 47.25.252.413.218.75-.075.75-.821 0-3.554-5.525-8.161-16.5-2.309-5.5-4.698-9.888-5.311-9.75-1.355.304-1.38-1.883-.084-7.497 1.685-7.302 4.085-26.259 3.455-27.279-.331-.536-.417-.974-.191-.974.227 0 3.245 3.825 6.707 8.5 3.462 4.675 6.715 8.5 7.229 8.5 1.09 0-1.366-4.215-9.326-16-11.867-17.572-15.16-28.092-13.343-42.63 1.102-8.824.189-9.026 24.94 5.505 14.605 8.574 21.594 12.913 39.75 24.674 6.135 3.974 17.304 10.396 30.56 17.573 9.069 4.91 9.137 6.113 1.704 30.203-12.394 40.163-12.403 40.182-23.358 48.815-4.211 3.318-10.356 8.623-13.656 11.789l-6 5.757-.269 7.407c-.2 5.502.483 10.493 2.657 19.407 1.61 6.6 3.246 15.487 3.637 19.75.512 5.587 1.096 7.75 2.092 7.75 2.839 0 1.937-7.129-4.681-37-2.114-9.542.797-17.379 8.324-22.407 21.116-14.106 22.817-16.481 30.143-42.093 8.08-28.246 9.597-34.466 9.597-39.344 0-5.312.634-5.957 4.055-4.126 4.041 2.162 4.945 6.056 4.945 21.295 0 22.265-1.902 19.662 27.088 37.071 5.176 3.108 10.087 6.091 10.912 6.629.825.537 2.731 1.412 4.235 1.945 2.578.914 2.699 1.229 2.114 5.5-.392 2.863-.239 4.53.417 4.53.571 0 1.535 1.237 2.141 2.75.607 1.512 2.226 4.733 3.598 7.157 2.136 3.774 2.495 5.671 2.495 13.191 0 4.831.45 9.062 1 9.402 1.651 1.02 1.285 1.746-6.085 12.072-3.897 5.461-8.628 12.966-10.513 16.678l-3.427 6.75h3.896c3.055 0 4.009-.432 4.419-2 .287-1.1.115-2-.384-2-.498 0-.118-.9.844-2l3.5-4c.962-1.1 1.75-2.765 1.75-3.7 0-1.251.295-1.405 1.115-.585.821.821.707 1.936-.431 4.217-.851 1.706-1.17 2.868-.709 2.583.461-.285.604.378.318 1.472-.286 1.095-.919 1.744-1.407 1.443-.487-.302-.886.604-.886 2.011 0 2.498.165 2.559 6.886 2.559h6.887l.665-4.75c.801-5.722 3.23-14.934 4.722-17.912 1.082-2.159 8.996-4.978 10.816-3.853.481.297 2.02.019 3.419-.619 4.439-2.023 5.467-.066 4.948 9.42-.247 4.518-.875 9.519-1.396 11.113-1.447 4.43-1.172 6.601.836 6.601 1.845 0 3.247-5.634 4.728-19 1.046-9.439 1.951-10.762 8.799-12.865 7.754-2.38 8.765-1.576 12.12 9.632 5.397 18.029 7.54 22.233 11.336 22.233 3.306 0 3.375-.083 2.688-3.25-.388-1.788-1.137-3.525-1.665-3.862-.528-.336-.889-.911-.802-1.277.218-.923-3.127-9.842-4.245-11.317-.503-.664-.653-1.629-.334-2.145.319-.517-.139-1.215-1.017-1.553-.893-.342-1.351-1.257-1.038-2.073.308-.804-.087-2.708-.878-4.233-1.306-2.519-1.259-2.951.52-4.729 2.033-2.034 18.657-6.389 24.814-6.501 1.82-.033 3.091-.414 2.823-.846-.267-.432.269-.843 1.191-.914.923-.07 3.477-.646 5.677-1.278 2.2-.633 6.7-1.804 10-2.603 3.3-.799 6.9-1.711 8-2.026 1.1-.315 2.9-.719 4-.899 1.1-.18 2-.395 2-.478 0-.083 1.491-.345 3.313-.582s4.155-.882 5.184-1.432c1.029-.551 3.026-1.002 4.437-1.002 1.411 0 2.566-.392 2.566-.871 0-1.739 10.335-2.391 11.55-.729 1.051 1.437 2.003 25.808 1.811 46.35l-.077 8.25h2.751c3.746 0 3.672.711 2.929-28-.72-27.82-.434-29.849 4.392-31.127 4.61-1.221 6.265.606 7.54 8.327 2.332 14.122 16.56 50.087 20.025 50.62 2.688.413 2.646.073-.943-7.521-3.346-7.084-5.794-13.507-6.58-17.268-.284-1.358-.99-3.04-1.569-3.737-.579-.698-.783-1.973-.452-2.833.39-1.017.199-1.317-.546-.857-.78.482-.966.019-.582-1.449.311-1.187.156-1.906-.342-1.597-.499.308-.976-.254-1.059-1.249-.254-3.01-.403-3.661-1.751-7.628-1.556-4.578-2.138-13.563-1.021-15.751.441-.863 2.669-2.186 4.951-2.939 5.798-1.914 7.582-.629 7.127 5.132-1.314 16.645-1.321 18.098-.086 17.335.824-.509.987-.357.486.455-.736 1.191 2.228 16.091 3.399 17.087 1.149.978 3.064 6.163 2.571 6.962-.276.446.138 1.343.921 1.993.783.649 2.462 4.075 3.73 7.613l2.307 6.432h44.32l-1.822-8.25c-1.002-4.538-3.863-13.163-6.356-19.168-2.494-6.005-4.296-11.304-4.005-11.775.291-.471-.012-.733-.674-.582-.662.151-1.312-.625-1.445-1.725s-.61-2.885-1.061-3.966c-.765-1.838-.669-1.826 1.478.174 1.375 1.281 1.991 2.632 1.535 3.37-.447.722-.348.976.24.613 1.424-.881 18.337 22.271 25.309 34.646 3.116 5.532 5.351 7.644 6.682 6.314 1.761-1.762-16.194-27.904-35.743-52.041-21.347-26.357-21.327-25.627-.459-17.136 34.781 14.152 43.089 21.346 72.019 62.36l5 7.089 27.809.038c21.986.031 27.653-.223 27.063-1.211-.41-.687-5.499-7.478-11.309-15.09-5.81-7.611-13.318-17.611-16.685-22.222-19.083-26.129-41.237-39.575-83.176-50.479-6.436-1.674-14.852-4.112-18.702-5.418-3.85-1.306-8.254-2.65-9.787-2.986-2.723-.598-2.781-.753-2.5-6.778l.287-6.166-6.682-2.056c-3.675-1.13-7.014-2.394-7.421-2.809-1.128-1.151 3.454-5.514 9.31-8.864 6.73-3.851 6.748-3.893 4.067-9.41l-2.263-4.658 2.495-2.023c1.372-1.112 3.369-2.637 4.439-3.388 2.378-1.669 3.351-8.366 3.472-23.903.091-11.818 2.678-49.04 3.687-53.06.907-3.614 1.617-3.152 7.805 5.068 6.93 9.207 14.512 16.86 21.296 21.492 3.49 2.384 6.456 5.652 9.298 10.248 4.928 7.968 12.776 14.901 18.838 16.641 6.592 1.892 22.853 2.21 27.644.54 2.208-.77 5.421-1.406 7.14-1.414 5.236-.025 9.375-1.19 9.375-2.64 0-1.001 1.505-1.375 5.532-1.375 14.291 0 22.135-9.72 21.789-27-.723-36.061-4.885-52.512-16.291-64.39-3.316-3.454-6.03-6.873-6.03-7.599 0-1.563-6.649-13.676-7.948-14.479-.494-.305-1.67-2.913-2.612-5.794-4.34-13.274-14.482-25.271-38.378-45.398l-6.729-5.668.939-5.086c2.235-12.098-.108-20.888-9.693-36.376l-5.75-9.29 2.411-7.21c1.326-3.966 2.602-7.872 2.835-8.681.601-2.081-19.003-9.871-26.616-10.575-7.426-.687-7.792-.97-7.075-5.455.833-5.208-1.755-8.158-11.42-13.017-4.303-2.164-11.061-6.645-15.017-9.958-9.524-7.978-10.578-7.853-13.442 1.585-2.355 7.765-1.973 14.089 1.096 18.112 3.27 4.287 3.046 4.474-6.076 5.059l-7.51.482-7.257-7.851c-26.614-28.79-27.564-29.452-50.258-35.029-3.851-.946-8.683 4.466-9.249 10.358-.884 9.2 4.642 16.26 12.726 16.26 6.479 0 20.13 13.936 18.545 18.932-1.169 3.681-5.595 2.261-17.774-5.7-9.318-6.091-16.7-8.149-20.44-5.698-3.569 2.338-6.3 7.46-6.304 11.823-.003 2.699-.379 3.699-1.254 3.33-10.045-4.237-14.561-5.868-20.077-7.254l-6.575-1.652-4.106-8.033c-2.258-4.419-3.743-8.341-3.299-8.717 5.282-4.47 18.793-13.869 26.327-18.313 5.214-3.076 11.28-6.7 13.48-8.053 10.155-6.247 45.5-21.652 49.742-21.68 4.005-.027 5.11-1.503 2.139-2.857-2.876-1.311-22.127-3.894-37.051-4.972-5.043-.364-9.492-.984-9.885-1.377-2.44-2.44 45.336-47.11 62.305-58.254 4.947-3.248 5.249-4.236 1.577-5.158-3.398-.853-29.776 2.961-47.17 6.82-16.725 3.711-18.119 3.048-7.658-3.643 5.963-3.814 31.893-17.239 43.467-22.504 8.656-3.937 8.096-5.301-.707-1.723-5.554 2.256-32.819 16.489-41.748 21.793l-3.988 2.369 2.46-3.489c5.475-7.765 14.41-18.114 25.41-29.429C473.424 133.242 476.121 130 474.674 130c-6.015 0-35.376 5.521-59.674 11.222-25.503 5.983-24.019 5.997-27.426-.264-11.288-20.739-38.948-42.948-59.074-47.433l-9.169-2.041c-2.846-.632-4.739-6.553-6.868-21.484-2.419-16.956-5.141-31.188-7.519-39.311C302.242 21.463 292.069 0 290.398 0c-.794 0 .782 4.287 4.154 11.301 6.763 14.063 9.695 23.75 12.361 40.838 1.146 7.349 2.298 14.598 2.56 16.111.813 4.691-1.016 3.106-8.079-7-12.223-17.489-28.867-32.301-44.661-39.744-11.986-5.648-45.402-16.756-58.425-19.421C188.066-.01 164-.928 164 .777M729.015 114.75c.009.412.434 1.412.946 2.221 1.152 1.822 2.504.682 1.694-1.428-.598-1.558-2.668-2.18-2.64-.793m-421.983 40.667c-1.641 4.315-5.05 25.396-5.715 35.333-.341 5.098-1.068 9.25-1.62 9.25-1.19 0-.224-20.28 1.416-29.712 1.472-8.475.762-9.623-2.653-4.284-5.87 9.177-10.475 19.639-15.342 34.859-6.794 21.246-7.905 27.286-5.653 30.724 1.999 3.052 7.041 17.221 8.051 22.629l.694 3.715-5.541 2.535c-6.018 2.752-6.669 2.924-6.669 1.763 0-.424 2.025-1.877 4.5-3.229 5.147-2.812 4.994-2.272 2.934-10.356-2.218-8.702-8.828-21.957-12.486-25.035-5.76-4.846-13.409-2.508-16.095 4.921-1.186 3.279-2.853 4.699-2.853 2.43 0-2.185 4.06-8.862 6.607-10.865 3.155-2.482 6.401-2.659 10.443-.569l2.95 1.525v-3.557c0-6.878-2.252-10.195-8.105-11.932-10.48-3.113-17-.889-20.876 7.119a900.852 900.852 0 0 1-3.083 6.319c-.412.825-1.242 1.388-1.843 1.25-.601-.137-1.107.988-1.125 2.5-.03 2.634-.094 2.668-1.5.809-1.403-1.855-1.468-1.816-1.468.872 0 2.507-.181 2.664-1.662 1.441-2.744-2.265-1.061 8.381 2.586 16.356 3.605 7.885 3.775 9.129 1.132 8.29-2.095-.665-1.735 2.476.834 7.277 1.628 3.041 1.36 4.504-.723 3.959-2.975-.778-2.239 1.896 3.64 13.211 22.867 44.015 31.562 52.671 63.193 62.904 19.603 6.342 23.539 6.568 32.829 1.883 3.891-1.962 27.132-27.723 32.706-36.252 11.204-17.142 11.92-20.456 14.045-65l.572-12-3.137 3.5c-1.726 1.925-3.746 4.85-4.49 6.5-1.246 2.766-2.634 3.41-17.817 8.265-9.056 2.896-17.189 4.988-18.072 4.649-.883-.339-4.588.779-8.233 2.485C322.773 255.001 318 255.881 318 254c0-.55.631-1 1.401-1 .771 0 6.733-2.076 13.25-4.612 14.005-5.452 30.085-10.643 31.505-10.169.553.184-2.217 1.373-6.157 2.642s-6.961 2.51-6.714 2.757c.393.393 17.87-4.295 18.231-4.89.507-.835 2.484-14.041 2.484-16.593 0-4.099-1.136-3.955-4.869.615l-3.064 3.75.002-3.5c.001-1.925.645-6.425 1.431-10 2.116-9.62 1.882-15.809-.766-20.223-8.661-14.437-11.86-19.189-17.567-26.095-7.675-9.29-7.9-9.213-11.136 3.818-3.663 14.754-3.569 13.886-1.427 13.222 14.49-4.49 16.826-4.61 18.901-.972 1.181 2.071 1.425 2.215.991.584-.711-2.668 1.005-3.984 2.058-1.578.42.959.692 2.082.605 2.494-.088.412.277.75.81.75.532 0 .709.675.393 1.5-.365.95.013 1.5 1.031 1.5 1.023 0 1.578.817 1.528 2.25-.043 1.238-.306 1.688-.583 1-.781-1.935-1.908-1.489-3.156 1.25-.901 1.978-1.875 2.5-4.661 2.5-4.188 0-4.12-.358-1.082 5.691 2.634 5.245 6.89 19.214 7.931 26.031.781 5.117.056 5.718-12.311 10.211-14.873 5.403-15.272 3.242-.461-2.497 5.263-2.039 9.809-4.333 10.103-5.098 1.722-4.488-7.322-30.907-11.352-33.163-4.733-2.648-20.455 6.237-32.32 18.265-7.467 7.57-8.423 7.797-12.89 3.06-2.099-2.225-2.77-3.5-1.843-3.5.803 0 2.019.675 2.704 1.5 2.281 2.749 3.795 1.574 11.92-9.25 9.218-12.28 9.205-12.223 5.644-25.6-6.379-23.961-9.456-30.694-11.532-25.233m-53.966 17.212c-10.525 10.674-20.187 23.583-18.737 25.034.3.3 3.045-.677 6.1-2.172 7.119-3.483 15.986-1.559 23.65 5.131 3.739 3.264 3.972 2.078 3.692-18.789-.215-15.963-.555-20.262-1.635-20.622-.783-.26-6.348 4.601-13.07 11.418m145.338 27.413c-2.956 1.099-9.247 8.629-11.661 13.958-2.195 4.847-4.114 25.12-3.051 32.234l.558 3.733 3.07-2.583c2.366-1.991 3.804-2.463 6.279-2.062 2.661.432 3.303.159 3.763-1.598.609-2.329-.868-4.724-2.913-4.724-6.143 0-5.347-20.931 1.066-28.017 2.863-3.163 7.561 1.397 7.435 7.217-.039 1.809-.49 1.393-2.111-1.95-2.531-5.22-3.487-5.306-5.554-.5-3.199 7.44-4.278 16.037-2.316 18.46 1.726 2.131 1.734 2.124 1.27-1.033-.278-1.899-.031-3.177.616-3.177.595 0 .823.675.507 1.5-.317.825-.118 1.5.443 1.5 1.313 0 .923-2.672-.615-4.21-3.052-3.052.832-3.883 4.599-.984l2.289 1.762-1.484 9.18c-1.709 10.565-2.861 13.252-5.68 13.252-1.359 0-2.493 1.141-3.478 3.5-1.369 3.274-2.289 3.931-5.053 3.605-2.85-.336-6.277 11.506-4.31 14.895 1.102 1.9 20.26-17.355 25.648-25.778l3.555-5.557-.626-8.816c-1.093-15.392-5.702-32.895-8.992-34.146-.637-.242-2.101-.09-3.254.339M313.2 229.2c-1.751 1.751-1.465 4.853.789 8.55 2.281 3.741 3.068 3.949 5.356 1.421 4.255-4.702-1.719-14.397-6.145-9.971m84.51 4.8c-.287 1.1-.115 2 .384 2 .498 0 .906-.9.906-2s-.173-2-.383-2c-.211 0-.619.9-.907 2M347 245c-.825.533-1.05.969-.5.969s1.675-.436 2.5-.969c.825-.533 1.05-.969.5-.969s-1.675.436-2.5.969m-140.669 5.579c-2.609 6.8 6.001 40.909 12.181 48.253 3.92 4.659 23.341 11.175 29.043 9.744 2.776-.697 3.068-2.471 1.047-6.378-2.66-5.145-5.292-6.754-8.85-5.41-2.747 1.037-3.418.935-5.265-.8-1.292-1.214-3.499-1.988-5.669-1.988-3.826 0-5.822-2.207-10.774-11.915-3.329-6.524-.525-11.018 5.022-8.05 2.715 1.453 2.63-1.88-.136-5.397l-2.071-2.632-3.429 2.615c-4.072 3.106-4.686 1.272-.785-2.343l2.644-2.45-3.038-3.039c-3.164-3.163-5.251-3.056-5.251.27 0 1.068-.45 1.941-1 1.941-1.58 0-1.164-4.693.569-6.427 2.187-2.186 4.168-.914 10.864 6.979 7.694 9.07 8.369 13.132 3.121 18.795-2.148 2.318-2.337 3.035-1.363 5.172 1.357 2.979 1.971 3.064 4.214.586 2.917-3.224 6.429-3.249 8.785-.062 1.134 1.534 2.924 3.015 3.977 3.291 2.547.666 2.03-.832-4.325-12.521-2.784-5.122-5.979-11.262-7.1-13.644-1.186-2.519-3.545-5.297-5.64-6.641-1.981-1.27-5.153-3.934-7.048-5.919-3.741-3.917-8.608-4.934-9.723-2.03m42.213 1.373c-3.274 3.617-.119 12.048 4.508 12.048 4.014 0 3.341-8.524-.981-12.436-1.599-1.447-1.896-1.415-3.527.388m57.456-.236c.825.307 2.85 1.199 4.5 1.981l3 1.423-2.5-2.038c-1.375-1.12-3.4-2.012-4.5-1.981-1.429.041-1.572.216-.5.615m-5.836 8.534c-2.772 9.095-2.472 13.592 1.052 15.74 5.949 3.627 10.252 2.396 14.357-4.106 3.338-5.287 2.909-5.89-3.073-4.32-5.819 1.528-7.5.395-7.5-5.055 0-2.909-1.474-5.509-3.122-5.509-.398 0-1.169 1.462-1.714 3.25M283 266.391c0 1.721-7.072 4.657-10.77 4.473-2.247-.112-2.345-.211-.553-.56 1.915-.373 5.468-3.304 4.005-3.304-3.534 0-23.541 8.921-25.617 11.422-2.083 2.51.363 1.897 5.547-1.391 2.574-1.632 5.102-2.708 5.617-2.389.516.318-.401 1.393-2.037 2.387-1.635.995-3.328 2.381-3.76 3.081-.432.7.809.286 2.759-.919 1.95-1.205 4.167-2.186 4.927-2.18 3.766.031 22.882-8.51 22.882-10.224 0-.983-.675-1.787-1.5-1.787s-1.5.626-1.5 1.391m18.179 3.115c-1.551 3.404-1.617 3.216 1.771 4.968 3.898 2.016 6.378 1.926 8.395-.303 2.739-3.026 2.123-4.23-1.514-2.962-2.889 1.007-3.36.866-5.321-1.594l-2.151-2.698-1.18 2.589m-32.708 2.447c.568.92.227 1.086-1.262.613-1.122-.356-2.335-.172-2.694.41-.359.581-1.142.755-1.739.386-.615-.381-.8-.21-.426.395.786 1.271 5.368.925 6.807-.514.69-.69.617-1.265-.224-1.785-.838-.518-.989-.357-.462.495m60.856 1.413c-5.721 4.788-13.756 9-24.133 12.652-12.378 4.355-13.277 5.254-10.784 10.783 4.981 11.044 14.207 15.838 24.596 12.779 14.217-4.187 18.985-9.926 18.99-22.862.006-14.088-2.739-18.316-8.669-13.352m110.902-.697c-6.684 2.69-3.682 22.331 3.414 22.331 1.252 0 1.019-.611-1.007-2.636-2.589-2.589-3.495-5.364-1.751-5.364.487 0 1.597 1.087 2.467 2.415 1.034 1.577 2.228 2.246 3.444 1.928 2.215-.579 15.684 13.208 19.853 20.321 6.765 11.543-4.355 12.049-20.011.91-11.412-8.119-19.666-8.749-22.577-1.722-1.324 3.196-1.101 8.852.327 8.313.489-.185 1.227.212 1.641.882.839 1.357 1.371-.027 2.437-6.342.483-2.854 1.282-4.039 3.226-4.778 3.509-1.334 4.094-.393 1.484 2.385-1.191 1.268-2.56 4.42-3.043 7.004-.875 4.684-.865 4.708 3.093 7.619 5.358 3.94 13.506 11.726 15.573 14.881 1.656 2.528 2.574 8.17 1.334 8.199-.348.008-2.354 1.471-4.457 3.251l-3.824 3.235 2.365 6.516c2.801 7.717 2.394 11.429-1.27 11.591-4.626.205-4.999.4-6.049 3.142-1.863 4.87.359 9.712 5.629 12.263 4.487 2.172 9.26 6.256 38.473 32.921 16.744 15.283 24.513 20.652 28.243 19.52 1.241-.377 6.936-2.977 12.654-5.779l10.398-5.093 10.927-13.041c10.377-12.384 10.895-13.217 10.286-16.541-.352-1.925-.834-7.775-1.07-13-.877-19.416-2.455-30.937-5.47-39.935-4.033-12.04-4.035-20.422-.007-31.997 3.476-9.987 3.424-10.126-5.505-14.458-3.826-1.857-10.507-6.353-14.846-9.993-9.017-7.562-9.961-7.836-11.623-3.367-3.548 9.543-2.936 15.461 2.205 21.316 4.892 5.571 6.225 5.931 11.354 3.064 3.329-1.86 4.454-2.132 4.454-1.076 0 .777-2.166 2.51-4.813 3.851-5.896 2.988-6.813 4.05-7.729 8.955-.522 2.792-.348 4.09.631 4.695 2.503 1.547.007 2.227-3.239.883-7.449-3.086-17.455-12.372-41.464-38.479-5.563-6.048-11.638-11.718-13.5-12.599-3.425-1.619-19.964-7.013-20.886-6.812-.275.061-1.072.34-1.771.621M326.973 278.1c-3.01 2.254-5.671 4.289-5.912 4.522-.241.232 1.503-.262 3.876-1.1 2.373-.837 5.608-1.522 7.189-1.522 3.053 0 3.188-.226 2.244-3.75-.798-2.977-1.032-2.918-7.397 1.85M219 278.167c0 1.191.127 1.979.283 1.75.156-.229.886-1.205 1.622-2.167 1.147-1.498 1.106-1.75-.283-1.75-.997 0-1.622.835-1.622 2.167m233.306 3.301c-1.543 1.358-2.322 2.483-1.73 2.5.591.018 2.132-1.093 3.424-2.468 3.019-3.214 1.946-3.234-1.694-.032m-149.037 7.656c-6.691 2.079-8.537 4.04-7.183 7.626 1.163 3.08 2.595 2.823 4.84-.868 1.043-1.715 3.736-4.216 5.985-5.557 6.504-3.878 5.76-4.124-3.642-1.201m18.641 1.626c-7.502 3.892-17.791 14.015-16.45 16.185 2.21 3.576 20.611-1.268 25.939-6.83 3.414-3.563 4.449-9.114 2.132-11.431-2.354-2.355-3.461-2.157-11.621 2.076m-93.91.219c0 .532.675.709 1.5.393.825-.317 1.5-.753 1.5-.969 0-.216-.675-.393-1.5-.393s-1.5.436-1.5.969m148.559 4.23L367.93 307.5c-6.673 9.51-6.904 10.027-4.733 10.543 1.566.372 1.894.783 1.043 1.309-.682.421-1.76.445-2.395.053-.715-.443-.883-.275-.44.44.418.677.092 1.155-.787 1.155-.825 0-1.825.526-2.223 1.17-.483.782-.182.962.909.544.898-.345 1.912-.173 2.255.382.343.555-.767 1.534-2.468 2.176-3.398 1.282-4.29 3.275-1.091 2.438 3.405-.89 2.202.931-1.75 2.648-2.472 1.074-2.898 1.478-1.25 1.185 2.39-.424 2.414-.379.559 1.007-1.068.797-2.643 1.465-3.5 1.483-2.206.047-6.338 3.707-5.576 4.939.349.565 1.171 1.021 1.826 1.013.797-.011.742-.3-.166-.875-.746-.473-.971-1.094-.5-1.38.471-.286 1.415.084 2.097.822 1.532 1.658 1.786 1.52-9.74 5.268-19.851 6.456-28.47 8.026-31.559 5.749-1.759-1.297-1.529-1.376 2.462-.848 2.882.382 4.185.23 3.771-.44-.708-1.145-5.622-2.418-10.174-2.637-2.262-.109-2.928-.575-2.706-1.894.222-1.32-.394-1.75-2.508-1.75-1.541 0-4.89-1.112-7.443-2.47-3.929-2.092-17.263-7.53-18.462-7.53-1.628 0 3.414 27.277 6.528 35.315 1.32 3.405 1.432 7.013.194 6.249-.493-.305-2.141-4.044-3.662-8.309-3.272-9.177-3.475-9.47-5.517-7.938-2.757 2.068-15.285 19.203-19.228 26.298l-3.8 6.836 8.802 8.404c13.258 12.659 25.756 22.488 61.802 48.603 21.766 15.769 49.158 31.991 52.136 30.876 1.301-.486-3.192-16.307-10.317-36.334C355.226 427.687 350 408.323 350 403.766c0-5.007.858-2.853 4.921 12.358 2.112 7.907 5.261 18.201 6.998 22.876 1.737 4.675 5.568 15.304 8.514 23.62 6.739 19.019 6.664 18.889 12.507 21.85 6.13 3.106 5.373 4.179 13.035-18.47 3.442-10.175 7.731-22.1 9.531-26.5 6.118-14.954 10.449-30.979 16.355-60.517 6.807-34.039 7.537-30.879-6.703-29.01-17.41 2.285-27.675 7.053-47.982 22.286-16.261 12.2-21.267 13.762-36.106 11.27-26.61-4.468-41.874-2.998-59.008 5.683-12.635 6.401-12.062 6.16-12.062 5.057 0-1.103 11.376-7.519 19.5-10.998 8.703-3.726 16.635-5.196 28.25-5.236 12.172-.042 12.73-.788 5.34-7.153-6.971-6.005-22.466-22.882-21.008-22.882.671 0 6.665 5.376 13.319 11.947 14.966 14.778 20.34 18.898 26.938 20.655 9.418 2.508 19.552 1.021 22.371-3.282 4.834-7.378 11.633-31.376 16.313-57.582 1.253-7.016 2.98-9.947 2.973-5.047-.003 2.527-.709 7.157-4.088 26.809-.567 3.3-2.351 10.725-3.963 16.5-3.234 11.582-3.44 13-1.886 13 .582 0 .738-.52.346-1.155-.459-.742-.273-.881.522-.39.738.456 2.31-.222 3.904-1.685 13.307-12.206 40.311-22.684 55.655-21.594 3.928.279 3.997.224 4.693-3.697 1.595-8.991 1.071-12.188-2.429-14.835-6.062-4.586-26.813-13.644-31.254-13.644-1.953 0-1.921.274.987 8.5 2.759 7.805 3.138 10.869 1.267 10.26-.687-.224-3.075-5.549-5.306-11.834-4.329-12.193-10.314-24.743-12.774-26.785-1.235-1.025-1.783-.839-3.111 1.058m99.8 16.309c-.726 1.89.289 7.062 2.157 10.992 1.375 2.894 1.417 2.761 1.205-3.752-.246-7.528.41-8.005 8.022-5.822 1.777.51 3.443.583 3.702.163.525-.85-8.213-3.089-12.053-3.089-1.35 0-2.715.678-3.033 1.508m33.891 3.229c-6.4.448-6.451.901-.7 6.202 5.264 4.853 6.156 4.803 9.18-.517 2.263-3.981 1.268-6.838-2.171-6.237-.583.102-3.421.35-6.309.552m-14.621 7.513c4.3 6.886 6.558 9.896 7.054 9.4.67-.67-7.684-13.65-8.785-13.65-.508 0 .271 1.913 1.731 4.25m53.483 1.663c-1.756 8.189-1.322 13.816 1.934 25.087 2.647 9.165 4.816 25.328 4.931 36.75.02 1.948.551 2.25 3.95 2.25 2.859 0 4.43.612 5.775 2.25 2.896 3.528 4.133 3.126 4.675-1.519.271-2.327 1.01-8.731 1.641-14.231 1.522-13.251 4.45-28.082 7.573-38.359 1.397-4.597 2.31-8.957 2.029-9.689-.766-1.995-16.129-6.535-24.258-7.168l-7.138-.556-1.112 5.185M482 327.398c0 .185 1.8 1.527 4 2.983 2.2 1.456 4 2.243 4 1.748 0-.494-1.012-1.547-2.25-2.339-2.43-1.555-5.75-2.936-5.75-2.392m-17.936 1.932c-5.883 1.551-6.615 4.195-3.999 14.426 2.698 10.548 3.141 10.279 2.764-1.678l-.329-10.413 4.835-1.251c2.659-.687 5.096-1.512 5.416-1.832.935-.935-3.875-.52-8.687.748m-28.571 3.659c.338.546-.022.745-.805.445-1.104-.424-1.648 1.28-2.472 7.735-1.251 9.794-1.017 10.478 2.475 7.242 1.459-1.353 3.701-2.673 4.981-2.935 7.819-1.598 7.449-1.382 6.238-3.644-1.285-2.401-8.986-9.801-10.219-9.82-.445-.006-.534.433-.198.977m-89.847 12.698c-.378.378-1.465.811-2.416.962-13.435 2.135-21.607 4.742-12.23 3.901 3.993-.358 4.884-.236 3.25.446-4.525 1.889-2.089 1.841 3.5-.069 6.474-2.213 12.25-4.794 12.25-5.474 0-.719-3.594-.526-4.354.234m97.439 1.758c-4.369 1.171-9.085 6.027-9.085 9.354 0 1.41 5.8 7.735 6.474 7.06.212-.211-.088-2.603-.667-5.314-1.147-5.38-1.566-4.641 5.804-10.239 1.589-1.207 2.664-2.161 2.389-2.12-.275.041-2.487.608-4.915 1.259m136.042 4.525c-1.922 6.415-6.637 41.812-6.228 46.755.093 1.125 8.186 9.694 14.166 14.998 2.19 1.942 2.513 2.005 2.561.5.03-.948.862-6.397 1.848-12.111 3.132-18.144 1.954-30.982-3.913-42.646-5.958-11.844-6.884-12.667-8.434-7.496m-255.82.632c1.545.837 3.795 1.33 5 1.096 1.81-.351 1.713-.449-.557-.562-1.512-.075-2.75-.586-2.75-1.136 0-.55-1.012-.982-2.25-.96-2.101.037-2.064.141.557 1.562m10.506 4.081c.721.289 1.584.253 1.916-.079.332-.332-.258-.568-1.312-.525-1.165.048-1.402.285-.604.604m94.278 6.067c-.609 2.613-2.668 13.218-4.575 23.568-6.27 34.037-8.848 42.7-26.895 90.393-2.542 6.716-4.621 12.611-4.621 13.1 0 .489-2.049 6.019-4.554 12.289-6.281 15.722-19.27 50.704-27.068 72.9a6561.627 6561.627 0 0 1-9.363 26.5c-1.576 4.4-4.503 13.175-6.505 19.5-4.332 13.688-6.369 19.793-7.504 22.5-2.587 6.167-1.708 8.833 2.909 8.833 5.431 0 17.93-3.636 20.711-6.026 1.477-1.269 3.238-2.307 3.913-2.307.676 0 2.118-2.362 3.204-5.25 2.204-5.856 2.072-5.448 9.641-29.75 5.159-16.564 15.138-45.57 19.438-56.5 1.082-2.75 5.865-15.35 10.63-28 4.764-12.65 11.771-30.425 15.57-39.5 12.304-29.394 14.029-35.767 20.92-77.272.618-3.725 1.578-7.965 2.132-9.423 1.206-3.171-.385-5.216-5.356-6.886-6.782-2.28-10.637-15.646-5.364-18.597 3.902-2.184 3.884-4.551-.077-9.75-4.731-6.211-5.801-6.259-7.186-.322M440 380.696c0 1.218 5.236 8.304 6.136 8.304 1.424 0 1-1.336-1.672-5.268-2.29-3.37-4.464-4.848-4.464-3.036m-210.661 7.554c-2.247 3.438-5.038 8.136-6.202 10.441l-2.117 4.191 7.74 7.005c12.465 11.28 41.49 34.675 58.753 47.357 92.552 67.988 86.893 65.167 93.789 46.756 5.842-15.595 6.625-13.891-9.809-21.361-16.948-7.704-42.308-22.039-45.493-25.716-.275-.318-6.888-5.211-14.695-10.875-7.808-5.664-15.008-11.033-16-11.932-.993-.899-5.175-4.105-9.293-7.125-11.401-8.36-24.435-19.341-35.528-29.93-9.717-9.277-16.156-15.061-16.763-15.061-.163 0-2.135 2.813-4.382 6.25m219.831 13.5c-.59 1.512-1.575 6.35-2.188 10.75-.613 4.4-1.312 9.125-1.553 10.5-5.071 28.914-6.776 34.867-17.039 59.5-3.666 8.8-10.368 25.675-14.894 37.5-4.525 11.825-10.93 28.25-14.232 36.5-5.465 13.655-20.685 58.043-26.23 76.5-1.239 4.125-2.64 8.259-3.113 9.187-.69 1.355-.454 1.608 1.202 1.289 1.556-.299 1.91-.004 1.446 1.205-.484 1.262-.325 1.362.75.469.751-.623 1.616-.882 1.922-.576.306.307 2.515.026 4.908-.624 2.393-.65 5.355-1.186 6.583-1.191 1.227-.005 2.022-.348 1.766-.762-.255-.413 1.89-1.013 4.769-1.332 2.878-.319 9.508-1.453 14.733-2.52 5.225-1.067 9.825-1.743 10.222-1.501 2.698 1.642 11.261-7.355 16.793-17.644 9.5-17.668 28.21-42.748 34.525-46.283 3.513-1.965 2.361.387-2.706 5.531-5.032 5.106-13.435 17.367-13.023 19.002.104.413-.212.75-.702.75s-2.153 2.897-3.695 6.438c-1.543 3.541-3.197 6.196-3.676 5.9-.48-.296-.788.069-.686.812.396 2.891-.102 4.839-1.177 4.6-.619-.137-1.585 1.1-2.147 2.75-.562 1.65-1.64 3.365-2.396 3.811-.756.447-1.113 1.234-.794 1.75.319.517.195.939-.275.939-.471 0-.781 1.237-.688 2.75.273 4.492.385 4.845 1.19 3.75.404-.55 1.298-1.045 1.985-1.1a271.23 271.23 0 0 1 3.647-.25c1.593-.1 6.712-4.29 15.25-12.483 37.059-35.56 37.616-36.014 49.804-40.648 5.54-2.107 2.243 1.109-4.701 4.585-6.869 3.439-34.731 29.224-34.032 31.495.12.39-.555 1.315-1.5 2.055-1.573 1.232-1.6 1.177-.322-.654.767-1.1-.228-.2-2.213 2-1.984 2.2-3.625 4.589-3.645 5.309-.021.72-.483 1.034-1.027.698-.555-.343-.74.035-.422.864 1.92 5.003 26.545-.956 31.471-7.617.635-.859 22.791-13.986 33.599-19.907 10.064-5.514 9.485-3.883 9.794-27.559.318-24.339 2.445-46.569 5.562-58.121l2.218-8.217-2.483-3.725c-6.715-10.074-23.688-28.498-37.478-40.682-5.777-5.105-8.398-9.609-8.106-13.934.247-3.678-3.265-7.464-25.166-27.124-3.025-2.716-8.494-7.761-12.153-11.211-7.535-7.106-8.187-7.343-9.677-3.524m144.387 4.333c-2.161 7.7-2.025 7.989 6.239 13.286 3.78 2.423 12.831 8.322 20.114 13.109 7.282 4.787 13.497 8.448 13.81 8.135 2.967-2.967-12.174-21.135-29.522-35.423-7.986-6.577-8.559-6.529-10.641.893m-379.016.71c-.298.297-.541 1.639-.541 2.982 0 1.794-2.721 5.042-10.25 12.234-28.61 27.332-26.801 25.217-35.501 41.491-16.414 30.701-27.185 53.983-25.659 55.461.5.486 6.31 3.889 12.91 7.564 12.363 6.884 43.104 24.65 59.024 34.112 4.963 2.949 9.463 5.378 10 5.397 2.347.082 8.67 3.739 7.361 4.259-.822.326-.47.581.865.628 1.238.043 2.25.556 2.25 1.138 0 .582.45.781 1 .441s1-.093 1 .548.638.921 1.417.622c.78-.299 1.684.15 2.009.997.343.893 1.239 1.292 2.134.948.849-.326 1.301-.199 1.004.282-.298.481.579 1.088 1.948 1.35 2.994.572 2.982.628.488-2.247-1.1-1.268-2-2.912-2-3.653 0-.741-.525-1.347-1.167-1.347-.641 0-.87-.296-.508-.658.988-.989-1.39-3.42-2.608-2.667-.637.393-.827.053-.478-.856.33-.859-.243-2.101-1.33-2.885-1.05-.756-1.909-1.745-1.909-2.197 0-.843-1.266-2.541-4.126-5.535-.894-.936-1.939-2.721-2.322-3.967-.398-1.294-1.166-1.973-1.794-1.585-.705.435-.869.083-.459-.986.351-.915.202-1.664-.33-1.664-.533 0-.969-.575-.969-1.278 0-.703-.9-2.048-2-2.99-1.1-.942-2-2.322-2-3.067 0-.745-.838-2.113-1.861-3.04-1.024-.926-2.668-3.471-3.652-5.655-.985-2.183-2.172-3.97-2.639-3.97-.466 0-.848-.675-.848-1.5s-.398-1.5-.883-1.5c-.486 0-1.139-.788-1.45-1.75-.312-.962-2.572-5.462-5.023-10-2.452-4.538-4.299-8.25-4.106-8.25.193 0-.718-2.363-2.025-5.25-5.58-12.331-3.439-18.099 2.328-6.271 1.737 3.563 3.159 6.938 3.159 7.5 0 .562.353 1.021.784 1.021.432 0 2.119 2.924 3.75 6.499 1.631 3.574 3.304 6.499 3.716 6.5.412 0 .75.644.75 1.43 0 .785.563 2.023 1.252 2.75.688.726 2.495 3.234 4.014 5.571 1.519 2.337 3.179 4.25 3.689 4.25 1.718 0 2.186-2.009.608-2.614-.859-.33-1.563-1.028-1.563-1.552s.515-.634 1.144-.245c.646.399.478-.555-.386-2.191-1.86-3.526-5.793-16.228-5.772-18.648.028-3.482 2.177-1.629 4.638 4 15.244 34.87 46.251 88.453 63.664 110.017 8.397 10.398 6.546 11.281-3.269 1.559C271.556 607.962 271 608.122 271 621.478v10.265l12.062 7.378c29.274 17.908 29.912 18.265 28.445 15.89-.35-.566.05-.735.935-.395.851.327 1.328.947 1.062 1.378-.741 1.199 9.686.219 12.273-1.153 1.252-.664 2.549-2.293 2.882-3.619.408-1.624.853-2.011 1.365-1.184.486.787 1.004.112 1.441-1.88.376-1.71.355-3.64-.045-4.288-.457-.739-.298-.913.425-.465.635.392 1.155.236 1.155-.346s-.408-1.059-.907-1.059c-2.41 0-25.891-22.197-24.129-22.809 1.072-.372 7.815 3.789 11.337 6.996 9.116 8.304 13.815 10.559 15.088 7.241.794-2.069-1.053-5.428-2.983-5.428-.838 0-1.277-.4-.975-.888.798-1.292-11.685-12.72-20.875-19.112-8.103-5.636-20.922-16.967-20.112-17.777.405-.406 9.876 6.557 36.805 27.055 5.705 4.343 9.307 6.446 10.351 6.045.881-.338 1.92-.1 2.308.528.388.629 2.443-4.368 4.565-11.104 5.562-17.654 18.769-57.519 22.113-66.747.299-.825.5-1.5.448-1.5-.052 0 1.494-4.047 3.435-8.993 4.481-11.413 4.384-14.861-.469-16.699-3.916-1.483-26.656-17.612-73-51.778-33.208-24.482-48.347-36.628-72.689-58.314-2.086-1.858-7.622-3.072-8.77-1.923M597 422.799c0 1.129 10.189 10.817 15.5 14.737 5.116 3.776 5.466 4.301 5.485 8.217.015 3.18.316 3.401 13.336 9.75 7.326 3.574 13.595 6.497 13.929 6.497 1.158 0-4.211-8.513-7.568-12-8.498-8.827-40.682-30.346-40.682-27.201m-118.631 23.068c-2.267 2.266-4.059 2.984-8.544 3.42-22.857 2.226-38.31 29.304-29.762 52.151 3.45 9.221 14.735 17.193 18.71 13.217 1.403-1.403 1.203-1.939-2.087-5.581C444.667 495.77 445.73 468.182 458.5 462c5.149-2.492 13.286-2.722 14.177-.399.728 1.897-.789 3.016-6.073 4.477-15.571 4.307-18.269 27.174-4.179 35.431 9.266 5.43 22.429 2.622 28.724-6.129 9.534-13.253 8.728-28.375-2.144-40.256-2.583-2.823-4.005-5.326-4.005-7.05 0-5.345-2.62-6.217-6.631-2.207m131.734 15.045C597.132 482.02 588.38 491.758 572 503.311c-9.279 6.545-9.335 6.915-2.887 19.244 13.265 25.361 25.172 40.6 33.648 43.064 7.891 2.294 39.856.544 40.924-2.24.362-.944 2.29-1.379 6.106-1.379 15.464 0 23.232-12.937 20.373-33.931-.642-4.713-1.615-13.513-2.162-19.555-2.399-26.465-8.938-35.232-37.179-49.843l-14.676-7.594-6.044 9.835M481.26 465.25c-.541.688-1.252 2.375-1.579 3.75-1.182 4.97-3.065 6.406-8.064 6.147-11.345-.587-13.989 14.059-3.405 18.863 5.169 2.346 7.738 2.456 12.356.526 8.413-3.515 12.502-22.639 6.03-28.205-3.093-2.661-3.956-2.836-5.338-1.081m66.801 43.712c-1.074.664-.253 2.26 3.704 7.196 7.882 9.832 17.848 19.278 18.768 17.788.427-.69.369-1.008-.128-.705-1.248.758-2.838-1.264-3.24-4.121-.687-4.882-7.702-17.636-9.525-17.316-.951.167-3.185-.596-4.964-1.695-2.062-1.274-3.736-1.69-4.615-1.147m-324.589 20.083c-.44.711-.071 1.6.888 2.136.902.505 1.64 1.544 1.64 2.31 0 .765.432 1.658.96 1.984 1.04.643-.72-5.403-1.984-6.812-.412-.461-1.089-.289-1.504.382m417.552-.362c.052 1.807 22.976 11.171 22.976 9.384 0-.587-.441-1.067-.981-1.067-.539 0-4.702-1.75-9.25-3.889-9.432-4.436-12.779-5.599-12.745-4.428m-14.582 9.067c2.368 6.322 16.396 24.632 16.513 21.553.025-.658-2.183-4.14-4.906-7.738-2.723-3.597-6.14-8.571-7.595-11.053-2.569-4.384-5.333-6.286-4.012-2.762m5.558.31c0 .648 2.542 4.837 5.649 9.309 6.84 9.845 6.213 9.103 7.009 8.306.611-.61-10.22-17.286-11.902-18.326-.416-.257-.756.063-.756.711m-110.697 67.251c-3.175 3.163-5.107 4.683-6.011 4.73-.436.022-2.367 1.421-4.292 3.109-2.111 1.852-2.607 2.615-1.25 1.925 1.238-.63 2.25-.853 2.25-.495 0 .357 1.18-.123 2.623-1.069 1.443-.945 2.28-1.163 1.861-.485-.498.806-.281 1.058.627.729.764-.278 1.277-1.011 1.139-1.63-.138-.619.425-1.125 1.25-1.125s1.5-.45 1.5-1 .943-1 2.096-1c2.598 0 8.134-3.819 7.357-5.076-.314-.508-1.107-.888-1.762-.845-.852.056-.834.223.065.585.691.279.999.923.685 1.432-.321.519-1.52.262-2.729-.585-2.679-1.877-2.73-1.869-5.409.8M186 671.878c0 .482.686 1.446 1.524 2.142 2.396 1.989.932 2.325-1.937.445-4.635-3.037-2.78.375 2.163 3.978 7.626 5.558 9.073 6.163 10.739 4.492 1.241-1.245.586-2.129-4.956-6.685-6.486-5.332-7.533-5.94-7.533-4.372m-3 7.636c0 .283 2.278 2.654 5.063 5.268 4.722 4.434 4.992 4.943 4 7.551-.585 1.539-1.116 4.23-1.181 5.982-.091 2.485-.298 2.109-.937-1.707-.964-5.749-2.826-10.608-4.066-10.608-1.397 0 .383 10.528 3.043 18 .49 1.375 1.188 3.4 1.552 4.5 1.039 3.145 2.26.088 3.424-8.572.549-4.085 1.289-8.401 1.644-9.59.531-1.778-.392-2.976-5.198-6.749-5.449-4.278-7.344-5.329-7.344-4.075" fill-rule="evenodd"/>
</svg>