<!DOCTYPE svg PUBLIC "-//W3C//DTD SVG 1.1//EN" "http://www.w3.org/Graphics/SVG/1.1/DTD/svg11.dtd">
<svg xmlns="http://www.w3.org/2000/svg" viewBox="0 0 395 328">
<path fill="#080808" d="M170.696 23.191c-2.326 2.104-2.962 4.647-7.176 28.694-2.544 14.512-4.489 28.009-4.322 29.993.563 6.723 9.162 7.806 11.56 1.456.588-1.559 3.155-14.917 5.705-29.685 4.307-24.955 4.524-27.02 3.063-29.25-.865-1.319-1.975-2.399-2.467-2.399-.493 0-1.551-.252-2.353-.559-.801-.308-2.606.48-4.01 1.75M89.358 27.9c-7.09 1.813-14.07 8.106-16.398 14.786l-1.049 3.008-7.205-.434C46.899 44.188 39.027 53.758 39.01 76.5l-.01 13h-7.91c-15.156 0-20.078 6.258-21.194 26.947-3.074 57.007-3.493 125.014-.89 144.536 2.372 17.793 8.846 33.108 18.501 43.767l5.661 6.25h51.781c59.513 0 53.06 1.129 61.925-10.83 4.174-5.63 37.845-75.805 41.466-86.42.525-1.538 2.069-1.75 12.736-1.75 11.16 0 12.082.141 11.438 1.75-3.454 8.64-.42 20.607 6.791 26.779 3.969 3.397 4.006 3.491 2.858 7.322-2.812 9.385.385 20.415 7.488 25.832 2.319 1.769 3.242 3.148 2.825 4.222-4.397 11.34-.082 24.184 9.832 29.26 5.252 2.689 19.569 3.725 52.192 3.778 57.119.092 77.64-4.523 96.711-21.753l3.789-3.423v-99.648l-5.098-4.298c-21.457-18.094-33.171-45.66-33.068-77.821.038-12.091-.203-14.041-2.309-18.681-8.307-18.303-35.648-16.541-41.403 2.669-3.847 12.84-5.36 56.53-2.536 73.262l.633 3.75H153l-.044-11.25c-.026-6.752-.579-12.75-1.383-15.002-4.16-11.657-16.604-18.181-28.287-14.83l-3.201.918-.293-40.168c-.32-44.066-.183-43.031-6.656-50.01-5.329-5.744-15.944-8.761-23.778-6.758M91.5 40.954c-1.1.455-3.002 1.907-4.228 3.227l-2.227 2.401-.273 62.673c-.302 69.483.047 66.078-6.772 66.078-6.555 0-6.283 2.591-6.087-58.143l.178-54.973-2.68-2.109c-5.142-4.044-13.314-2.251-16.294 3.576C52.334 65.216 52 82.611 52 121.934c0 54.733-.048 56.114-2 58.066-2.557 2.557-6.443 2.557-9 0-1.923-1.923-2-3.333-2-36.55 0-37.783-.208-39.281-5.725-41.204-3.191-1.113-6.046-.304-8.43 2.386-3.468 3.913-5.944 131.129-2.986 153.368 2.109 15.856 5.685 25.649 13.053 35.75l3.101 4.25h93.997l4.238-5.476c4.939-6.384 39.227-79.449 37.904-80.772-.456-.456-5.282-.699-10.725-.54l-9.897.288-.635 3.918c-1.025 6.325-6.746 8.731-10.895 4.582-1.928-1.928-2-3.333-2-38.953 0-39.739-.154-41.041-5.145-43.622-4.483-2.318-8.637-1.797-11.932 1.498-2.91 2.91-2.923 2.978-2.923 15.066 0 15.193-1.162 17.964-7.55 17.996-5.658.028-5.45 2.42-5.45-62.735 0-66.211.144-64.573-5.967-67.733-3.205-1.657-6.428-1.847-9.533-.563m133.434.22c-2.419.82-29.225 45.146-31.038 51.323-1.446 4.928 3.522 9.442 8.354 7.592 1.888-.723 28.197-44.241 30.856-51.04 1.775-4.539-3.375-9.502-8.172-7.875m23.398 51.47C223.954 112.895 222 114.78 222 118.048c0 3.321 2.828 5.952 6.399 5.952 2.371 0 32.747-24.084 45.351-35.958 2.636-2.484 2.972-7.177.679-9.471-3.717-3.717-6.465-2.235-26.097 14.073m81.556-6.144c-5.671 3.082-7.417 13.986-7.287 45.5.073 17.648.535 26.737 1.65 32.5 1.551 8.006 1.183 10.843-1.651 12.735-.605.404-39.028.741-85.385.75L152.93 178l.285 10.25.285 10.25 70.5.5c78.715.558 73.17.019 80.204 7.805 6.817 7.545 7.86 19.966 2.374 28.257l-2.843 4.296 3.132 5.698c4.03 7.33 4.269 14.36.727 21.358l-2.407 4.754 3.157 5.087c2.902 4.677 3.153 5.766 3.118 13.516l-.037 8.428 13.037-.681c29.312-1.531 43.585-5.596 55.078-15.687l3.46-3.038v-85.08l-7.818-8.144c-20.981-21.854-31.103-47.622-31.649-80.569-.25-15.099-.588-16.46-4.605-18.537-3.491-1.805-5.667-1.796-9.04.037m-97.853 125.806c-9.332 3.214-10.318 15.959-1.557 20.117 3.826 1.815 50.666 2.304 58.022.605 11.161-2.577 11.677-17.941.705-20.988-5.31-1.475-52.757-1.254-57.17.266m4.37 36.799c-3.273 3.616-2.609 10.43 1.361 13.977l3.266 2.918h24.033c19.481 0 24.588-.286 26.955-1.51 5.832-3.016 6.794-9.83 2.057-14.567L291.154 247h-26.422c-25.591 0-26.482.066-28.327 2.105m9.769 32.209c-3.987 4.245-2.652 11.773 2.583 14.561 2.549 1.358 40.223 2.849 44.55 1.763 6.808-1.709 7.567-14.552 1.036-17.528-1.548-.705-10.384-1.11-24.216-1.11-21.472 0-21.809.033-23.953 2.314" fill-rule="evenodd"/>
</svg>