<!DOCTYPE svg PUBLIC "-//W3C//DTD SVG 1.1//EN" "http://www.w3.org/Graphics/SVG/1.1/DTD/svg11.dtd">
<svg xmlns="http://www.w3.org/2000/svg" viewBox="0 0 150 339">
<path d="M96.415 8.409c-8.171 3.59-8.989 6.846-11.711 46.591l-2.225 32.5-5.235-.341c-9.709-.634-17.046 4.925-19.016 14.408-.794 3.819-.881 3.883-4.889 3.593-5.006-.361-10.483 1.815-13.94 5.539-2.429 2.617-3.124 2.801-10.59 2.801-7.646 0-8.092.127-10.343 2.945-3.237 4.053-6.186 15.697-8.965 35.401-6.082 43.127-3.595 63.651 10.745 88.654 9.859 17.192 10.85 20.074 12.374 36 1.27 13.265 2.153 17.268 11.312 51.25.958 3.557 1.552 4.25 3.638 4.25 4.091 0 3.944-2.286-1.451-22.53-5.158-19.353-7.018-29.562-7.102-38.97-.063-7.171-4.784-19.779-11.921-31.837-9.174-15.501-12.265-25.809-13.541-45.163-1.055-15.99 3.606-54.117 8.252-67.5l1.909-5.5 5.511.019c7.14.025 7.875.725 14.364 13.662L49 144.967v14.048c0 11.819-.248 14.143-1.564 14.648-4.455 1.71-9.619-4.522-13.393-16.163-3.341-10.303-6.565-15.5-9.617-15.5-3.455 0-4.068 2.502-1.673 6.832 1.116 2.017 3.192 6.927 4.614 10.91 5.866 16.436 12.103 22.518 21.32 20.789 2.564-.481 4.102-.106 6.466 1.578 9.195 6.547 22.847.355 22.847-10.362 0-2.484.275-2.716 2.543-2.147 7.324 1.838 14.579-4.706 14.708-13.268.084-5.513.788-5.965 3.968-2.546 2.086 2.243 2.631 4.058 3.139 10.454l.615 7.74-5.237 2.635c-5.67 2.853-21.023 17.563-22.199 21.269-.756 2.382.847 5.116 3 5.116.711 0 2.906-2.197 4.877-4.883C88.872 188.682 100.543 179 104.047 179c.598 0 2.573 1.575 4.388 3.5 6.063 6.429 10.901 3.304 5.855-3.78-3.779-5.305-5.021-9.268-5.868-18.72l-.673-7.5-6.785-6.249C92.768 138.702 90 133.51 90 125.684c0-12.19 5.948-12.578 17-1.112 3.025 3.139 8.537 7.666 12.25 10.061 3.713 2.395 6.75 4.571 6.75 4.837 0 .265 2.062 10.055 4.583 21.756 7 32.499 6.84 33.325-10.988 56.774-14.775 19.435-19.341 39.446-15.172 66.5 4.354 28.258 5.791 33.044 9.268 30.869 2.314-1.448 2.195-5.192-.666-20.869-6.479-35.514-3.313-52.011 14.536-75.75 16.431-21.852 16.917-24.665 9.983-57.753-5.631-26.873-5.193-25.951-15.666-32.97l-8.378-5.615.032-5.956c.018-3.276.626-14.506 1.353-24.956 2.217-31.902 1.269-69.846-1.885-75.411-4.188-7.391-10.544-10.333-16.585-7.68m.808 7.823c-2.561 3.085-3.266 8.472-5.718 43.69-2.124 30.52-2.376 38.153-1.438 43.542L91.205 110l4.148.004c2.352.002 5.538.851 7.361 1.963 4.144 2.527 3.898 3.293 5.278-16.467 1.975-28.274 1.039-73.644-1.591-77.179-2.334-3.138-7.359-4.282-9.178-2.089M69.869 95.51c-2.928 1.591-3.628 2.954-4.85 9.45-.704 3.742-.466 5.198 1.476 9.031 2.039 4.023 6.401 22.204 9.42 39.263 1.693 9.564 5.164 12.334 10.534 8.407 2.707-1.98 2.436-13.498-.526-22.368-1.247-3.736-2.242-9.043-2.211-11.793.032-2.75.118-8.375.191-12.5.32-18.07-4.451-24.697-14.034-19.49M49.5 111.798c-2.338.47-6.499 4.069-6.503 5.626-.002.592 2.81 6.655 6.25 13.474l6.253 12.397.5 15.442C56.555 175.874 57.45 178 64.111 178c8.643 0 8.68-6.907.243-45.5-3.894-17.815-7.085-22.262-14.854-20.702" fill-rule="evenodd"/>
</svg>