<!DOCTYPE svg PUBLIC "-//W3C//DTD SVG 1.1//EN" "http://www.w3.org/Graphics/SVG/1.1/DTD/svg11.dtd">
<svg xmlns="http://www.w3.org/2000/svg" viewBox="0 0 441 358">
<path d="M97.372 9.589c-1.72.848-3.96 3.088-4.977 4.977-1.919 3.562-2.841 4.139-3.895 2.434-1.128-1.825-9.055-1.138-11.802 1.023C70.08 23.229 69.502 28.488 70.551 74c.824 35.734.26 41.343-4.654 46.257-5.769 5.769-10.385 1.477-13.344-12.409-4.602-21.601-10.635-46.106-12.001-48.747-5.041-9.749-17.319-9.398-20.614.588-2.553 7.736 1.8 35.915 9.079 58.766 5.791 18.181 5.565 14.36 4.508 76.045-.913 53.294-.239 65.069 4.387 76.621 2.084 5.206 5.459 19.612 10.657 45.498 4.184 20.835 8.19 38.487 8.903 39.229 1.346 1.401 5.528.079 5.528-1.748 0-4.669-15.656-77.325-18.015-83.6-5.045-13.424-5.129-14.788-4.869-79l.243-60-4.254-13c-5.226-15.972-7.743-27.503-9.277-42.5-1.437-14.056-.875-17.255 2.957-16.813 3.947.455 5.307 4.081 11.183 29.813 2.827 12.375 5.794 24.833 6.594 27.683 4.441 15.822 19.708 17.421 26.888 2.817 3.658-7.442 4.542-28.36 2.631-62.272-1.194-21.199-.497-28.519 3.143-32.978 1.39-1.702 5.435-1.582 6.111.181 1.372 3.574 4 38.676 5.501 73.463.701 16.259 1.419 18.373 5.677 16.739 2.073-.795 1.733-18.234-1.112-56.973C94.282 28.805 96.077 15 101.95 15c2.502 0 5.774 4.26 7.124 9.275 2.074 7.703 5.772 69.967 4.289 72.225-5.189 7.904-9.705 17.351-10.14 21.212-.336 2.986-1.413 5.467-3.24 7.468-8.333 9.123-7.685 26.619 1.55 41.86 8.291 13.683 7.945 14.902-8.931 31.46-17.37 17.044-21.988 24.428-24.878 39.782-.949 5.039-.87 6 .612 7.483 2.805 2.805 4.85.469 6.415-7.329 2.602-12.96 6.117-18.398 21.935-33.936 20.332-19.971 20.893-22.01 11.288-41-8.54-16.884-9.134-26.835-2.054-34.414 4.076-4.364 4.617-3.862 14.74 13.693 10.545 18.288 10.608 18.462 13.293 36.394 3.728 24.902 2.247 33.449-10.966 63.275-10.128 22.862-11.158 30.587-6.607 49.552 2.524 10.518 4.601 23.439 6.894 42.897 1.277 10.83 2.511 13.167 6.205 11.749 1.525-.585 1.666-1.544 1.089-7.409-1.63-16.587-4.748-37.558-6.948-46.737-4.914-20.506-4.556-23.624 5.331-46.431 12.763-29.443 15.733-42.327 13.257-57.525-.833-5.117-.651-7.02 1.292-13.5l2.262-7.544 7.869.301c13.731.525 46.369 5.797 46.369 7.491 0 .508-2.19 3.688-4.867 7.066-8.426 10.632-11.732 18.705-10.116 24.706 2.099 7.796 6.146 10.556 28.483 19.427 6.6 2.621 16.05 6.794 21 9.275 21.168 10.605 32.549 11.957 35.023 4.16.366-1.153 1.908-2.529 3.427-3.058 1.602-.559 5.615-4.511 9.559-9.415 3.739-4.649 6.884-8.453 6.988-8.453.105 0 3.923 4.517 8.486 10.039 17.424 21.087 24.028 25.247 41.705 26.277 15.909.926 32.953 7.722 53.18 21.207 8.999 5.998 11.456 6.476 11.939 2.32.269-2.318-.71-3.314-8-8.143-21.977-14.558-39.086-21.347-56.81-22.542-9.928-.669-12.354-1.179-16.094-3.379-8.239-4.848-26.019-25.027-40.632-46.118-4.252-6.137-5.206-5.956-15.585 2.949-9.506 8.155-10.572 9.617-8.675 11.903 1.962 2.364 3.186 1.85 10.746-4.513 3.92-3.3 7.34-6 7.6-6 .26 0 2.125 2.25 4.144 5.001l3.67 5-6.534 7.835c-9.368 11.232-7.618 10.663-20.848 6.77-15.711-4.623-16.158-4.9-15.415-9.546 1.308-8.175 6.274-18.504 23.109-48.06 3.659-6.423 5.886-7.147 13.528-4.399 8.899 3.2 11.289-2.157 2.739-6.137-6.904-3.215-13.691-3.299-17.191-.214-4.833 4.26-25.589 44.486-28.088 54.434-2.815 11.211-.292 14.204 16.279 19.312 9.893 3.049 12.93 5.004 7.773 5.004-7.628 0-41.185-16.767-43.433-21.702-2.387-5.239-1.25-7.465 21.23-41.543C255.43 148.818 257.047 147 263.012 147c6.93 0 26.708 9.049 53.988 24.7 24.607 14.118 36.25 19.76 51.079 24.752 15.512 5.222 20.487 8.001 26.132 14.598 8.378 9.79 32.321 27.95 36.85 27.95 1.892 0 3.507-3.272 2.455-4.974-.337-.545-3.854-3.084-7.814-5.642-9.445-6.098-19.912-14.945-26.823-22.672-6.77-7.569-11.787-10.395-28.805-16.224-15.192-5.204-27.038-10.953-50.071-24.3-20.939-12.134-40.892-21.742-49.907-24.032-3.866-.981-7.847-2.526-8.849-3.432-7.267-6.577-17.358-6.232-25.209.86l-4.066 3.674-14.736-1.105c-8.105-.608-26.661-1.627-41.236-2.265-14.575-.637-26.562-1.211-26.638-1.274-.076-.063.293-6.864.821-15.114 1.753-27.428-2.847-34.491-21.679-33.282l-7.222.464-.682-14.091c-2.088-43.101-4.315-58.084-9.326-62.759-5.452-5.086-8.653-5.833-13.902-3.243m26.694 87.597c-3.696 1.929-5.225 3.729-9.189 10.814-7.374 13.181-6.665 13.707 10.542 7.83 12.394-4.233 15.581-4.434 15.581-.984 0 2.729-1.332 3.501-12.26 7.106l-9.76 3.22 3.26 6.164 3.26 6.164 8.197.29 8.198.289.511-3.289c1.299-8.352 1.687-27.731.634-31.643-1.998-7.418-10.853-10.2-18.974-5.961m118.317 45.064c-10.17 7.612-46.939 49.171-50.079 56.604-2.87 6.792.506 11.526 11.319 15.871l5.124 2.059.573-4.838c.315-2.661 1.325-6.325 2.245-8.142 3.606-7.128 36.125-56.358 39.216-59.369 2.705-2.637 2.998-3.306 1.668-3.816-3.176-1.219-7.111-.582-10.066 1.631m-108.54 9.844c4.029 7.31 4.138 7.409 8.37 7.636 17.361.933 35.61 3.282 57.097 7.349l6.809 1.289 9.646-9.646c5.305-5.305 9.44-9.828 9.19-10.051-1.014-.905-38.249-2.818-65.825-3.382l-29.37-.6 4.083 7.405" fill-rule="evenodd"/>
</svg>