<!DOCTYPE svg PUBLIC "-//W3C//DTD SVG 1.1//EN" "http://www.w3.org/Graphics/SVG/1.1/DTD/svg11.dtd">
<svg xmlns="http://www.w3.org/2000/svg" viewBox="0 0 421 592">
<path fill="#2e3228" d="M204.975 45.565c-.536 1.411-.985 2.873-.998 3.25-.076 2.248-13.004 17.473-18.705 22.031-6.999 5.594-11.617 9.426-19.154 15.893-6.453 5.538-16.871 16.273-19.406 19.998-3.455 5.076-3.756 3.903-1.15-4.487 4.539-14.609 3.04-14.759-9.262-.927-17.943 20.171-24.126 30.523-29.702 49.727-1.988 6.847-4.071 13.247-4.628 14.222-.558.974-1.29 3.787-1.628 6.25-.338 2.463-1.07 4.478-1.629 4.478-1.423 0-.147-18.832 1.831-27 2.843-11.746 2.942-13.24.853-12.838-1.087.209-3.373 3.226-5.567 7.347-2.048 3.845-5.093 9.558-6.768 12.696-13.729 25.72-17.492 72.765-6.763 84.545 2.059 2.26.412 3.474-1.849 1.363C78.556 240.346 66.158 234 64.599 234c-6.062 0 11.257 25.728 23.898 35.5l6.468 5-3.732.257C84.989 275.186 81 276.044 81 276.96c0 2.229 17.611 10.04 22.636 10.04 1.675 0 2.863 1.047 4.255 3.75 1.062 2.063 3.294 5.263 4.959 7.112l3.028 3.362-2.82 2.638c-2.885 2.698-10.945 14.085-13.587 19.193-.98 1.897-1.471 5.898-1.471 12.001 0 9.631.222 9.017-6.032 16.67-2.694 3.296-11.945 23.916-12.801 28.53-2.169 11.701-2.806 16.849-2.133 17.265.389.24.995 1.872 1.345 3.625 1.458 7.287 8.517 13.318 17.839 15.241 10.233 2.11 36.05-2.39 39.828-6.942 1.129-1.361 1.519-1.181 3.205 1.483 2.17 3.427 2.76 1.918-6.938 17.741-2.641 4.308-5.151 10.34-6.798 16.331-3.006 10.938-4.941 15.597-7.771 18.705-1.716 1.885-1.902 2.972-1.279 7.5.401 2.912.855 7.951 1.008 11.197.299 6.317 1.069 7.371 8.238 11.266 3.948 2.145 5.726.857 2.287-1.658-6.015-4.398-7.149-5.738-5.415-6.404 1.008-.386 1.387-1.243.998-2.255-.344-.898.095-2.733.976-4.079 1.862-2.841 1.133-4.184-1.41-2.596-1.466.916-2.131.561-3.964-2.114-2.825-4.123-2.065-8.85 1.894-11.777 1.539-1.138 3.316-3.319 3.949-4.848.634-1.529 2.799-4.397 4.813-6.374 2.013-1.976 5.686-5.993 8.161-8.925 6.026-7.14 8.088-8.482 9.46-6.157 3.368 5.703 5.32 8.046 6.969 8.363 2.089.402-.55-4.885-4.815-9.647-1.735-1.937-1.833-2.444-.617-3.195.795-.491 1.207-1.132.915-1.423-.774-.775-10.17 6.506-13.944 10.805-4.926 5.61-6.949 6.404-5.965 2.342 1.756-7.247 5.595-16.505 8.699-20.978 2.734-3.939 3.298-5.674 3.298-10.136 0-2.961.672-6.672 1.494-8.248.821-1.575 1.496-3.835 1.5-5.022.006-2.285 9.74-15.319 11.482-15.375 1.697-.055 4.946-3.291 6.262-6.237 1.755-3.928 5.946-5.381 9.593-3.326 3.349 1.888 6.807 2.058 8.449.416.906-.906 1.798-.848 3.85.25 1.469.787 5.076 1.43 8.017 1.43h5.347l.003 3.25c.002 2.406-.452 3.266-1.747 3.313-1.376.05-1.283.252.435.944 3.308 1.333 4.388 4.066 2.77 7.009-.948 1.724-1.199 4.474-.823 8.984.299 3.575-.151 12.336-.999 19.469-.893 7.509-1.164 13.203-.643 13.525.53.327.469 6.501-.149 15.031-1.225 16.922-1.498 43.63-.508 49.725l.691 4.25-13.262-.001c-7.442-.001-16.992-.667-21.762-1.518-4.675-.834-9.975-1.715-11.777-1.957-1.802-.241-3.602-.639-4-.883-.398-.244-2.446-.716-4.552-1.049-2.106-.334-4.694-1.069-5.75-1.634-1.32-.707-1.921-.704-1.921.007 0 .569.41 1.035.911 1.035.501 0 1.891 2.025 3.089 4.5s2.588 4.5 3.089 4.5c1.888 0 .813 2.715-1.582 3.996-6.665 3.567-6.528 9.974.303 14.195 1.966 1.216 5.653 4.056 8.194 6.312l4.619 4.103-2.3 1.735c-3.164 2.387-10.274 13.048-10.576 15.858-.506 4.713 17.594 3.096 29.136-2.602 18.498-9.132 18.537-9.17 17.758-17.553-.361-3.883-1.321-8.969-2.134-11.302s-1.484-6.829-1.492-9.992L183 504h7.965c6.941 0 8.102.257 9.035 2 1.392 2.601 22.339 3.021 26.846.537 2.731-1.505 16.999-3.665 18.489-2.799 1.266.736-.329 12.132-2.456 17.549-1.033 2.633-1.893 6.008-1.911 7.5-.017 1.492-.692 3.587-1.5 4.654-.807 1.068-1.468 2.755-1.468 3.75 0 .995-.441 1.809-.981 1.809-.539 0-1.257 1.101-1.595 2.446-.839 3.345 1.887 7.016 5.345 7.197 1.502.079 5.431 1.132 8.731 2.341 13.913 5.098 31.698 6.892 34.527 3.484 1.934-2.331-.6-8.811-5.822-14.891-6.763-7.872-6.745-7.732-1.609-12.698 2.491-2.409 5.942-6.404 7.669-8.879 1.727-2.475 3.764-5.135 4.527-5.911.842-.857 1.199-2.626.908-4.5-.802-5.161 7.329-19.873 11.963-21.646 1.862-.712 2.101-1.426 1.722-5.135-.781-7.654-2.543-18.251-3.398-20.435-.887-2.268.419-4.373 2.713-4.373.715 0 1.3-.618 1.3-1.374 0-1.932-4.979-10.626-6.085-10.626-1.56 0-1.019 1.953 1.606 5.803l2.521 3.697-4.225 1.246c-3.164.932-4.488.958-5.271.103-.747-.816-.689-.941.204-.437 2.931 1.655.933-.445-2.36-2.48-1.985-1.227-4.797-3.335-6.25-4.684-1.452-1.35-4.44-3.368-6.64-4.485-2.2-1.118-5.553-3.387-7.451-5.044-2.446-2.134-3.581-2.622-3.897-1.676-.494 1.483 3.323 4.948 15.592 14.155 4.534 3.402 8.501 7 8.817 7.994.646 2.036 3.431 2.486 3.454.558.03-2.42 1.971 1.691 3.896 8.25 1.956 6.664 3.307 18.253 2.036 17.468-.39-.242-2.324.845-4.298 2.414-5.774 4.588-42.829 13.916-62.421 15.714-4 .367-7.514 1.058-7.809 1.535-.295.478-5.376.869-11.29.869h-10.753l-2.292-3.1c-3.265-4.417-4.18-14.626-1.487-16.593 1.047-.765 3.703-3.071 5.903-5.126 7.291-6.808 15.199-13.181 16.358-13.181.628 0 1.142-.434 1.142-.965 0-.531 1.41-2.571 3.133-4.534 3.477-3.96 3.353-5.98-.142-2.317l-2.211 2.316.409-3.75c.286-2.619.018-3.75-.89-3.75-.714 0-1.33.788-1.368 1.75-.212 5.38-1.108 7.984-3.44 10-1.431 1.238-2.271 2.25-1.865 2.25.406 0-1.221 1.463-3.615 3.25-2.394 1.788-6.39 5.134-8.881 7.436-2.491 2.302-4.889 3.963-5.329 3.691-.441-.272-.777-7.781-.747-16.686.048-14.534.684-23.188 2.576-35.056.373-2.345.191-4.128-.464-4.532-.761-.471-.632-3.166.437-9.135 1.011-5.642 1.311-11.138.9-16.468-.436-5.651-.209-9.175.772-12 .764-2.2 1.196-5.872.961-8.159l-.429-4.159 5.847-1.164c3.215-.641 7.298-1.542 9.072-2.004 3.572-.93 7.274-.318 7.274 1.203 0 1.453-6.037 6.997-10.027 9.208-2.532 1.404-3.021 2.029-1.805 2.308.917.21 3.954-1.261 6.75-3.269l5.082-3.652.015 10.844c.011 7.371.326 10.364.985 9.344.533-.825.981-4.65.996-8.5.043-11.592.816-14.391 4.392-15.914 1.712-.73 6.604-4.647 10.871-8.706 4.268-4.059 9.347-8.676 11.287-10.26 4.374-3.572 3.795-4.698-.73-1.42-1.824 1.321-4.554 3.017-6.066 3.77-1.512.752-2.75 1.68-2.75 2.062 0 3.659-45.452 15.916-48.333 13.035-.587-.587-2.505-1.067-4.263-1.067-2.741 0-3.653-.712-6.413-5.013-1.769-2.758-3.739-5.345-4.378-5.75-2.334-1.481-4.478-6.062-5.667-12.108-1.376-6.992-1.202-7.394 3.307-7.662 4.736-.281 20.349-2.334 35.247-4.634 7.15-1.104 14.763-2.187 16.919-2.406 8.167-.832 21.441-7.105 25.321-11.968 1.518-1.902 3.321-3.459 4.007-3.459 2.427 0 9.605-7.568 11.856-12.5l2.282-5 .057 4.185c.079 5.722-2.459 17.302-4.816 21.969-3.132 6.204-3.531 8.346-1.554 8.346.939 0 2.263-.76 2.943-1.689 1.773-2.426 4.226 8.534 5.636 25.189.747 8.815 1.551 13.363 2.498 14.127 1.729 1.395 4.351 11.171 4.351 16.222 0 2.063.499 4.25 1.109 4.86.611.611 1.461 5.313 1.889 10.45.534 6.392 1.446 10.592 2.891 13.302 1.212 2.275 2.111 5.804 2.111 8.287v4.325l-5.953-4.954c-7.949-6.616-9.819-7.142-12.669-3.568-2.295 2.878-3.705 6.459-2.534 6.437.361-.007 1.673-1.582 2.915-3.5 1.243-1.919 2.681-3.488 3.197-3.488 1.92 0 16.256 13.637 18.135 17.25 1.072 2.063 2.316 3.75 2.763 3.75 2.055 0 1.95-1.659-.356-5.593-1.643-2.805-2.498-5.774-2.498-8.679 0-2.428-.96-7.073-2.133-10.321-2.247-6.22-3.328-11.758-4.863-24.907-.513-4.4-2.097-11.6-3.52-16-4.491-13.893-4.605-33.446-.22-37.532 1.204-1.121 3.513-1.968 5.364-1.968 3.035 0 3.272.249 3.562 3.75l.31 3.75 6.399.706c7.781.858 10.681 3.238 14.609 11.991 3.159 7.039 8.21 14.803 9.63 14.803 1.207 0 .14-3.893-1.645-6-1.47-1.734-8.494-15.571-8.491-16.725.001-.426 1.913-1.988 4.25-3.47 4.831-3.065 12.245-9.805 10.785-9.805-.532 0-2.446 1.253-4.252 2.783-8.022 6.798-11.553 8.415-14.358 6.577-1.407-.922-5.342-1.943-8.743-2.268-6.071-.581-6.19-.65-6.492-3.768-.504-5.203-3.742-6.017-11.373-2.859-1.341.555-1.763.022-2.09-2.635-.336-2.734-.438-2.503-.569 1.295-.196 5.674-1.185 10.875-2.066 10.875-.361 0-1.709-4.19-2.994-9.311l-2.338-9.311 2.119-8.379c1.253-4.955 2.119-11.538 2.119-16.108 0-4.25.273-8.439.607-9.309.87-2.266 3.393-1.955 3.393.418 0 1.1.337 2.015.75 2.032 10.3.445 30.779.282 29.85-.237-.694-.388-7.413-.771-14.931-.851-9.544-.102-13.668-.493-13.665-1.295.008-2.468 4.035-7.649 5.946-7.649 1.089 0 2.433-.847 2.987-1.882 1.468-2.742 2.873-2.969 9.68-1.562 17.262 3.568 44.683 22.796 50.114 35.14 1.454 3.307 1.721 3.51 2.04 1.554.419-2.562 1.474-2.865 3.111-.893 2.073 2.498 7.118 17.905 7.118 21.738 0 5.015-1.341 5.632-3.008 1.384-1.234-3.144-7.992-10.857-7.992-9.12 0 .413 1.8 3.735 4 7.383 2.2 3.647 3.998 7.785 3.996 9.195-.012 8.705-15.545 20.642-29.496 22.668-3.741.544-4.424.874-2.711 1.311 2.676.683 3.843 12.674 2.052 21.077-1.085 5.087 1.034 8.007 5.81 8.007 1.337 0 3.664.912 5.173 2.028 5.82 4.303 13.982 3.802 16.838-1.034.973-1.647 2.556-2.994 3.518-2.994.962 0 2.206-.853 2.764-1.895.557-1.042 2.311-2.347 3.897-2.9 8.85-3.085 9.214-24.889.696-41.705-2.879-5.684-3.545-8.115-3.541-12.932.007-9.969-5.581-23.941-10.661-26.653-1.458-.778-5.803-4.546-9.655-8.373-10.908-10.839-16.2-14.4-30.973-20.838-7.542-3.287-12.135-4.704-15.25-4.704-5.118 0-5.048.113-2.616-4.22 1.013-1.804 2.452-7.043 3.199-11.642 1.309-8.065 2.752-11.055 8.276-17.138.749-.825 3.122-4.875 5.273-9s4.235-7.743 4.631-8.041c.397-.297 2.074-3.821 3.727-7.83s4.591-9.9 6.529-13.09c5.511-9.072 4.691-10.392-2.476-3.986-10.958 9.795-14.39 12.431-13.597 10.447 3.327-8.334.759-36.496-4.379-48-.982-2.2-2.111-5.125-2.509-6.5-.398-1.375-3.711-8.687-7.361-16.25-7.782-16.122-9.548-17.363-10.667-7.5-.785 6.915-2.405 11.196-2.457 6.492-.043-3.949-4.772-23.449-6.449-26.592-.777-1.458-2.677-5.69-4.222-9.407-1.546-3.716-4.057-8.216-5.582-10-1.525-1.783-2.773-3.551-2.775-3.927-.001-.376-3.152-4.506-7.002-9.178-3.85-4.671-7-8.906-7-9.411 0-.504-.891-1.723-1.979-2.708-2.586-2.341-2.908-1.401-3.252 9.481l-.269 8.5-2.149-4.649c-1.182-2.557-3.044-5.544-4.137-6.637-1.094-1.094-2.377-2.656-2.851-3.472-.832-1.429-11.474-13.637-16.121-18.49-1.242-1.297-4.164-4.922-6.494-8.055-6.119-8.228-8.056-9.146-9.773-4.632M232 189.012c0 .617-1.529.767-3.915.386-3.776-.604-4.014-.471-6.677 3.738-4.44 7.017-12.943 31.83-15.817 46.154-2.793 13.919-3.909 14.479-8.894 4.46-3.614-7.264-10.828-18.055-16.651-24.905-1.709-2.011-4.271-5.386-5.695-7.5-1.423-2.115-3.191-4.52-3.927-5.345a616.037 616.037 0 0 1-5-5.752c-5.585-6.487-15.421-7.533-19.693-2.093a521.749 521.749 0 0 1-5.501 6.792c-5.027 6.11-10.396 16.938-14.226 28.688-1.769 5.426-3.618 10.646-4.11 11.601-1.101 2.138-1.192 12.764-.11 12.764.432 0 1.517 1.238 2.413 2.75.895 1.512 3.432 4.645 5.638 6.961 3.934 4.131 5.304 8.578 5.173 16.789-.104 6.502 1.181 9.221 5.708 12.082 2.491 1.575 5.165 3.833 5.941 5.017.776 1.185 3.421 3.424 5.877 4.977 4.68 2.958 6.102 7.388 3.278 10.212-.917.917-.746 1.649.75 3.212 2.827 2.953 3.616 3.684 6.938 6.429l3 2.479-3.599-.56c-3.222-.502-4.078-.105-8.189 3.796-6.804 6.457-12.308 10.856-13.584 10.856-2.479 0-.891-2.649 3.124-5.21 5.721-3.649 13.211-10.867 12.094-11.655-.496-.349-1.759-2.58-2.808-4.958-3.983-9.027-7.57-9.672-19.763-3.552-7.582 3.805-8.598 4.071-6.669 1.747.743-.895 3.935-2.748 7.094-4.118 7.016-3.043 6.718-4.277-2.182-9.038-12.188-6.52-19.656-1.776-29.405 18.677-4.975 10.437-1.988 21.065 8.637 30.738 2.338 2.128 5.462 5.493 6.944 7.478 1.481 1.985 4.294 4.369 6.25 5.297 1.956.928 3.556 2.082 3.556 2.563 0 1.547 6.922 3.219 10.771 2.602 2.051-.329 5.079-.181 6.729.329 3.408 1.054-.055 1.4-16.327 1.63l-8.326.118-4.912-5.511c-2.702-3.031-5.689-7.564-6.639-10.074-2.052-5.421-7.242-14.063-8.445-14.063-.468 0-.858 1.238-.866 2.75-.021 3.756-1.915 6.758-2.051 3.25-.09-2.323-.201-2.262-1.562.856-.805 1.845-2.268 3.565-3.25 3.822-1.79.468-3.777 4.381-9.265 18.241-4.014 10.137-3.386 11.849 2.141 5.831 2.399-2.613 4.768-4.75 5.263-4.75.829 0-1.928 3.279-8.261 9.826-6.813 7.043-1.029 22.68 9.96 26.921 6.686 2.582 19.355 2.365 21.907-.374 1.04-1.117 3.409-2.606 5.262-3.309 8.398-3.184 20.277-11.997 16.009-11.877-16.266.46-33.634-8.041-36.302-17.767-1.02-3.721.352-2.862 3.762 2.356 4.555 6.971 10.625 9.93 23.162 11.294 12.127 1.32 12.803 1.059 23.376-9.029 4.05-3.864 7.816-6.86 8.369-6.658.553.201 1.543-.209 2.2-.913.96-1.027.223-1.286-3.741-1.317-7.083-.055-9.555-1.687-3.85-2.543 3.272-.491 5.868-1.922 10.217-5.634 3.207-2.737 6.132-4.981 6.5-4.987 1.939-.034 4.119-7.629 3.248-11.318-1.324-5.608-1.464-5.581-8.682 1.673-5.899 5.928-9.376 8.111-9.408 5.906-.006-.413 3.925-4.422 8.735-8.91l8.746-8.159-2.147-3.841c-2.462-4.403-4.875-21.463-3.853-27.234 2.411-13.61 4.608-14.957 25.03-15.336 14.503-.27 15.215-.383 21.5-3.423 6.944-3.358 11.357-4.733 10.442-3.254-.308.499-1.286.907-2.172.907-.887 0-2.371.686-3.298 1.525-4.67 4.227-12.926 5.982-26.889 5.718-10.673-.202-13.894.058-15.75 1.274-2.608 1.709-3.075 3.483-.916 3.483.779 0 1.603.563 1.832 1.25.539 1.622 19.633 2.677 29.251 1.616 4.35-.479 10.153-2.115 15.329-4.319 4.581-1.951 9.012-3.547 9.846-3.547 2.158 0 7.325-3.217 7.325-4.561 0-1.713-3.411-4.437-5.579-4.454-3.443-.028-4.911-1.658-1.995-2.216 8.775-1.677 16.966 13.093 17.04 30.731.024 5.583.4 8 1.247 8 2.01 0 11.322-8.633 15.639-14.5 2.226-3.025 4.562-6.024 5.19-6.664.628-.64 1.422-6.055 1.764-12.034.839-14.656 2.263-20.741 5.794-24.763 1.595-1.817 2.9-3.704 2.9-4.193 0-3.278 9.135-10.555 10.492-8.359.272.44-.572 1.067-1.876 1.395-2.606.654-4.689 3.38-6.401 8.375-1.085 3.168-1.048 3.239 1.375 2.631 5.766-1.447 9.647 10.809 4.324 13.658-2.52 1.349-3.438.671-2.374-1.753.433-.986.77-2.355.749-3.043-.196-6.346-.219-6.391-2.997-6.066-2.296.268-2.873.999-3.796 4.811-.695 2.867-1.706 4.614-2.793 4.824-1.322.254-1.703 1.401-1.703 5.12v4.792l3.75-.74c5.922-1.169 7.475-2.03 11.953-6.62 9.777-10.022 10.056-39.397.373-39.366-3.917.013-9.408 4.712-10.664 9.124-2.424 8.52-4.628 13.757-6.508 15.458-1.856 1.68-1.904 1.531-1.904-5.901 0-6.391.244-7.529 1.511-7.043 1.071.411 1.336.121.908-.994-.333-.866.164-3.89 1.104-6.719 1.701-5.121 1.697-5.176-1.005-12.063-1.493-3.805-3.581-7.919-4.639-9.142-1.059-1.224-3.494-4.7-5.411-7.725-1.917-3.025-4.044-5.95-4.726-6.5-.683-.55-2.771-2.8-4.639-5C245.141 192.769 232 183.959 232 189.012m-3 12.881c0 4.994.957 6.191 4.832 6.044 1.18-.045 1.01-.328-.582-.968-2.252-.905-2.62-2.072-2.281-7.219.1-1.512-.302-2.75-.894-2.75-.62 0-1.075 2.069-1.075 4.893m-8 1.024c0 .504.563 1.106 1.25 1.337.863.291 1.207 2.639 1.111 7.574-.077 3.956.258 6.907.75 6.603 1.233-.762 1.119-12.133-.146-14.497-1.066-1.992-2.965-2.643-2.965-1.017m19.998 9.166c-3.394 5.082-6.537 10.18-6.984 11.329-.448 1.148-1.939 3.729-3.313 5.734-1.375 2.005-3.959 6.73-5.744 10.5-1.784 3.77-4.009 7.979-4.945 9.354-.936 1.375-3.426 6.898-5.535 12.274-4.162 10.611-5.275 11.347-7.184 4.755-.687-2.376-1.541-4.592-1.896-4.924-.355-.333-.383.295-.062 1.395.744 2.552 1.643 11.418.989 9.75-.27-.687-1.13-1.25-1.911-1.25-.839 0-1.914-1.843-2.624-4.5-.715-2.672-1.784-4.5-2.632-4.5-1.797 0-.829 8.955 1.101 10.18.76.484.031.795-1.883.805-3.383.016-4.375-2.15-4.375-9.551 0-3.917-1.942-5.738-2.125-1.993-.233 4.774-.373 5.059-2.646 5.381-3.453.49-9.511-2.859-12.792-7.072-1.615-2.075-3.877-4.329-5.026-5.011-2.925-1.735-18.411-20.474-18.411-22.278 0-.37-1.257-2.313-2.794-4.317-1.537-2.004-3.327-4.882-3.978-6.394-1.971-4.573-6.378-2.915-8.881 3.342-.879 2.195-1.827 3.762-2.107 3.482-.772-.772 1.819-6.635 4.673-10.574 2.506-3.458 2.508-3.476.167-1.5-2.843 2.401-7.708 12.791-6.222 13.286.567.189.775 1.006.465 1.816-.724 1.886 2.118 5.041 5.251 5.827 2.214.556 3.553 3.571 1.586 3.571-2.992 0-4.579 20.036-2.24 28.279 1.427 5.027.805 7.717-.835 3.616-.934-2.334-.96-2.319-1.015.605-.098 5.166 5.94 12.201 9.349 10.893 1.802-.692 2.101-2.953.519-3.931-5.061-3.128-6.685-25.248-2.455-33.429 2.029-3.924 1.982-3.936 9.017 2.265 3.3 2.909 9.391 7.52 13.535 10.246 10.322 6.79 10.887 7.126 15.715 9.369 4.237 1.968 4.842 3.162 4.284 8.448-.122 1.154.308 1.694 1.134 1.423.733-.241 1.471-1.842 1.641-3.557.317-3.198 3.191-3.685 3.191-.541 0 1.217 1.344 1.377 7.75.922 10.596-.752 12.562-1.019 13.932-1.89.698-.444 1.796.126 2.686 1.397.952 1.359 2.101 1.919 3.129 1.524 1.609-.617-.276-5.863-2.772-7.713-.426-.316.432-2.341 1.907-4.5s4.127-7.085 5.894-10.945c1.767-3.861 3.947-7.629 4.844-8.373.896-.744 1.63-1.796 1.63-2.337 0-2.293 14.407-18.771 16.412-18.771.561 0 .496.492-.152 1.14-.853.853-.344 1.677 2.028 3.275 5.109 3.443 6.907 9.757 7.072 24.832.121 11.04.357 12.747 1.765 12.75 2.36.005 3.014-4.817 2.252-16.605-.724-11.196-4.486-20.679-9.109-22.958-2.014-.993-2.09-1.288-.782-3.017 2.564-3.389.872-15.878-2.573-18.996-1.625-1.47-2.166-.946-7.915 7.662m12.568-5.583c.467 1.1 1.015 5.488 1.218 9.75.264 5.557.741 7.75 1.685 7.75 1.616 0 2.793-2.767 1.836-4.315-.385-.624-1.032-3.575-1.437-6.558-.406-2.996-1.5-6.14-2.444-7.025-1.581-1.483-1.645-1.453-.858.398M157.221 217c.229 2.049.82 2.5 3.279 2.5s3.05-.451 3.279-2.5c.257-2.295.166-2.356-1.11-.75-.764.963-1.74 1.75-2.169 1.75-.429 0-1.405-.787-2.169-1.75-1.276-1.606-1.367-1.545-1.11.75m73.336 2.418c2.095 1.532 3.044 1.364 1.984-.351-.362-.587-1.393-1.067-2.291-1.067-1.365 0-1.315.232.307 1.418m32.611 6.633c.585 1.678 1.258 2.856 1.496 2.618.703-.703-.804-5.669-1.72-5.669-.462 0-.361 1.373.224 3.051m-121.001 18.213-1.07 4.236 1.929-2.5c2.099-2.72 2.472-4.574 1.092-5.427-.485-.3-1.363 1.361-1.951 3.691M173 242.167c0 .458.675.833 1.5.833s1.5-.375 1.5-.833c0-.459-.675-.834-1.5-.834s-1.5.375-1.5.834m104 6.392c0 .857.45 1.281 1 .941.55-.34 1-1.041 1-1.559s-.45-.941-1-.941-1 .702-1 1.559m-11 4.639c0 1.823-.442 4.857-.983 6.742-1.042 3.635-.626 5.069.999 3.444 1.317-1.317 2.083-12.205.91-12.93-.509-.314-.926.92-.926 2.744m-141.457.733c-.317.512-.118 1.213.441 1.559.559.345 1.016-.074 1.016-.931 0-1.757-.6-2.015-1.457-.628m102.819 8.569c-.876 2.281.349 4.5 2.484 4.5 2.887 0 4.719-2.614 3.154-4.5-.685-.825-2.104-1.5-3.154-1.5-1.05 0-2.168.675-2.484 1.5m-115.684 10.042c-6.232 7.503-5.562 14.95 1.96 21.796 2.399 2.183 4.362 4.575 4.362 5.316 0 .74.45 1.346 1 1.346s1-.388 1-.863c0-.474 2.925-2.302 6.5-4.062 5.934-2.922 8.218-5.075 5.382-5.075-.615 0-2.656-1.35-4.535-3-2.815-2.472-4.291-3-8.382-3-5.673 0-6.643-1.595-1.552-2.55 4.415-.828 6.915.021 11.235 3.814 2.84 2.494 3.685 2.815 4.393 1.67.515-.833.481-1.812-.083-2.376-.527-.527-.958-1.975-.958-3.217 0-3.031-3.189-9.286-4.75-9.316-.687-.014-1.25-.431-1.25-.927 0-1.2-5.635-3.116-8.899-3.026-1.682.047-3.598 1.273-5.423 3.47M251 270c-1.282.828-1.246.972.25.985.963.008 1.75-.435 1.75-.985 0-1.22-.113-1.22-2 0m-78.299.632c-1.436 1.437-.631 4.255 1.4 4.9 2.83.898 4.717-1.011 3.269-3.31-1.187-1.885-3.564-2.695-4.669-1.59m73.806 1.357c-.35.566.051.734.941.393 1.732-.665 2.049-1.382.611-1.382-.518 0-1.216.445-1.552.989m-17.878 3.802c-.269.435 1.055.611 2.941.391 1.887-.221 3.43-.577 3.43-.791 0-.753-5.887-.383-6.371.4m-3.816.892c.721.289 1.584.253 1.916-.079.332-.332-.258-.568-1.312-.525-1.165.048-1.402.285-.604.604m-31.448 2.681c-1.576 1.356-2.514 2.818-2.085 3.248.429.43 1.981-.418 3.447-1.885 3.467-3.466 2.364-4.57-1.362-1.363m67.077-1.458c.308.498 1.46.671 2.559.383 2.752-.719 2.504-1.289-.56-1.289-1.407 0-2.307.408-1.999.906M245 279c0 .55.702 1 1.559 1s1.3.419.984.931c-1.253 2.027 1.198 1.776 4.975-.51l3.982-2.411-5.75-.005c-3.17-.003-5.75.444-5.75.995m-69.5 2.92c-1.1.436-5.825 1.366-10.5 2.066-9.526 1.428-14.692 3.492-6.5 2.597 10.437-1.14 18.933-2.665 19.457-3.493.298-.472 1.443-1.083 2.543-1.358 1.631-.408 1.538-.51-.5-.553-1.375-.029-3.4.305-4.5.741m69.5 3.781c0 .65.392 1.423.871 1.719.479.296 1.143 1.898 1.475 3.559.332 1.662 1.065 3.021 1.629 3.021 1.92 0 1.033-4.079-1.475-6.783-1.375-1.483-2.5-2.165-2.5-1.516M197.5 289c-.34.55-.141 1 .441 1s1.059-.45 1.059-1-.198-1-.441-1-.719.45-1.059 1m-52.273 1.993c.876 1.402 1.841 1.793 3.259 1.32 1.108-.37 4.873-.602 8.368-.515 5.503.137 6.19-.04 5.128-1.32-.904-1.089-3.434-1.478-9.613-1.478-8.125 0-8.347.062-7.142 1.993M164 289.869c0 1.158 7.267 2.301 7.959 1.252.298-.452 1.216-1.078 2.041-1.392.825-.314-1.088-.607-4.25-.65-3.162-.043-5.75.312-5.75.79m-35.5 8.076c-3.092 1.463-3.5 1.911-1.8 1.974 1.21.045 2.56.698 3 1.452.794 1.361 15.914 9.629 17.608 9.629.486 0 2.129.887 3.651 1.97 1.521 1.084 3.053 1.684 3.404 1.334 1.622-1.622.204-3.606-4.92-6.884-3.057-1.955-5.79-4.162-6.075-4.904-.634-1.652-7.841-6.526-9.597-6.49-.699.015-3.071.878-5.271 1.919m36.124 1.594c-.343.893-.585 2.375-.538 3.293.047.917.482.341.967-1.282.943-3.156.609-4.718-.429-2.011m151.262 4.858c2.264 7.318 4.455 9.603 9.204 9.603 4.879 0 8.279 1.332 13.054 5.114 4.144 3.282 5.329 2.619 1.592-.892-3.176-2.984-8.983-5.222-13.549-5.222-4.073 0-7.187-2.283-7.187-5.27 0-.886-.45-1.89-1-2.23-.55-.34-1-1.436-1-2.437 0-1-.632-2.343-1.405-2.984-1.12-.93-1.061-.052.291 4.318m-50.542 7.112c-.637 1.371-.751 2.243-.256 1.937 1.319-.816 3.117-4.447 2.197-4.438-.432.004-1.305 1.13-1.941 2.501M279.35 316c-.605 1.375-1.428 4.525-1.829 7l-.729 4.5 2.158-2.266c1.719-1.805 2.091-3.23 1.829-7-.305-4.395-.407-4.555-1.429-2.234m-80.806 2.607c-3.275.792-6.2 1.81-6.5 2.263-.299.452-1.725 1.111-3.168 1.463-7.84 1.917-9.698 8.706-3.376 12.337 7.808 4.484 39.632 1.066 46.25-4.967 9.471-8.634-12.722-16.05-33.206-11.096m36.5 1.643c1.314 7.445 2.599 9.612 4.99 8.421 2.379-1.186 3.367-4.464 2.234-7.415-.381-.992-7.394-1.969-7.224-1.006m-112.97 2.05c-2.461 1.252-5.963 5.72-4.446 5.673 1.337-.041 7.931-5.748 7.332-6.346-.29-.29-1.588.013-2.886.673M350.5 329c.995 1.1 2.035 2 2.31 2 .275 0-.315-.9-1.31-2-.995-1.1-2.035-2-2.31-2-.275 0 .315.9 1.31 2m-177.466.459c-.735.886-.951 2.641-.55 4.468.728 3.316 4.012 4.526 10.583 3.9l3.433-.327-4.25-2.434c-3.076-1.762-4.25-3.074-4.25-4.75 0-2.685-3.017-3.206-4.966-.857M336 334c-.639 1.194-.937 2.396-.662 2.671.275.275 1.023-.477 1.662-1.671s.937-2.396.662-2.671c-.275-.275-1.023.477-1.662 1.671m-222.985 14.75c-.008 2.887.435 5.25.985 5.25 1.279 0 1.279-7.021 0-9-.694-1.074-.974-.008-.985 3.75m85.315-3.838c-3.943.323-7.467.886-7.829 1.25-.703.707 8.431.104 17.499-1.155 6.843-.949 1.397-1.003-9.67-.095m-58.156 1.838c-1.264 2.469-2.202 9.25-1.28 9.25.851 0 2.254-2.81 3.87-7.75 1.188-3.636-.882-4.835-2.59-1.5m45.231 4.596c.888 4.733 4.233 11.301 6.126 12.027 1.871.719 1.172-2.791-1.071-5.373-.716-.825-1.898-3.413-2.625-5.75-1.568-5.04-3.329-5.695-2.43-.904m-68.636-.39c-.691 2.461-.278 3.886.812 2.797.319-.32.423-1.632.229-2.917l-.351-2.336-.69 2.456m143.556.294c-3.244 6.35-4.361 9.303-4.05 10.704.199.898 1.23-.353 2.461-2.989 3.208-6.867 4.594-13.598 1.589-7.715m102.052 3.392C358.89 362.037 343.013 374 336.686 374c-2.548 0-2.902 1.584-3.062 13.7-.163 12.4.512 13.841 6.005 12.806a66.753 66.753 0 0 1 2.469-.429c.329-.043 1.41-1.877 2.402-4.077 1.13-2.507 2.472-4 3.595-4 .985 0 2.429-.91 3.208-2.022 1.209-1.726 1.59-1.812 2.607-.586.968 1.166.62 1.773-1.859 3.237C348.533 394.707 348.13 396 351 396c1.1 0 2 .45 2 1s-1.462 1.014-3.25 1.031c-4.426.043-7.887 4.29-4.83 5.926 5.002 2.677 11.199.342 13.273-5 .311-.802 2.888-2.351 5.727-3.443 7.818-3.008 9.499-6.473 8.738-18.014-.666-10.1-2.54-17.152-6.073-22.858l-2.389-3.857-1.819 3.857m-262.98 3.123c-1.524 1.016-2.725 10.914-1.422 11.72.648.4 1.025-1.208 1.025-4.367 0-4.838.836-6.31 3.842-6.765.738-.112 1.6-.462 1.916-.778.846-.846-4.067-.671-5.361.19m74.146 4.394c-1.891 5.781-1.754 6.013 4.713 8.005 5.155 1.587 5.502.696 1.867-4.792-1.718-2.593-3.123-5.286-3.123-5.984 0-3.384-1.957-1.815-3.457 2.771M112 359.698c0 1.339 2.749 4.887 3.332 4.3.273-.274-.365-1.56-1.418-2.859-1.053-1.298-1.914-1.947-1.914-1.441m34.861 5.269c-1.319 1.099-1.788 1.981-1.061 2 1.45.037 7.2-2.752 7.2-3.493 0-1.24-4.037-.259-6.139 1.493m67.639.7c-2.846.807-7.908 1.278-11.75 1.093-6.687-.322-8.838.447-4.5 1.61 5.292 1.418 22.829-1.07 24.298-3.448.761-1.231-1.976-.978-8.048.745m47.382 8.016c-.066 3.749-.066 7.154 0 7.567.405 2.568-1.777-.082-3.89-4.723-3.083-6.77-3.38-6.786-5.219-.277-1.416 5.014-1.629 5.243-4.737 5.091-4.01-.197-5.955-1.822-4.236-3.541 1.382-1.382 1.62-4.8.335-4.8-1.66 0-6.187 4.199-7.718 7.16-1.648 3.188-.647 5.84 2.205 5.84 1.8 0 1.76.238-.746 4.486-1.168 1.979-1.858 3.866-1.532 4.191.955.956 6.268-1.635 8.732-4.257 2.704-2.879 3.758-3.006 5.532-.67.731.962 1.343 1.232 1.36.599.066-2.368 7.197-5.599 9.563-4.333 1.786.956 3.028.748 7.019-1.177 5.696-2.747 6.316-3.955 3.417-6.655-1.737-1.618-1.936-2.374-1.057-4.016 1.482-2.769.465-4.864-2.732-5.625-1.473-.351-3.466-.872-4.428-1.158-1.539-.457-1.764.303-1.868 6.298m-31.132-4.967c-1.908.289-2.75 1.009-2.75 2.35 0 2.586 1.317 2.436 4.694-.534 1.543-1.358 2.356-2.416 1.806-2.351-.55.065-2.238.306-3.75.535m-64.083.951c-.367.366-.667 1.131-.667 1.7 0 .626.466.567 1.183-.15.651-.651.951-1.416.667-1.7-.284-.284-.817-.217-1.183.15M264 377c0 7.522.029 7.573 3.316 5.865 3.221-1.675 3.219-1.666.69-4.358-2.233-2.378-2.259-2.57-.588-4.417 1.669-1.844 1.657-1.979-.269-3.01-3.093-1.655-3.149-1.549-3.149 5.92m-9.385 1.536c-.391 1.63-.958 3.796-1.261 4.813-.48 1.608 2.554 1.738 4.4.189.14-.117-.35-1.957-1.088-4.089l-1.342-3.876-.709 2.963m-15.456 2.705c-.814.814-.303 1.602 1.915 2.95 1.664 1.012 2.751 2.283 2.416 2.824-.907 1.468.1 1.205 3.651-.955l3.189-1.939-2.915-.679c-1.603-.374-3.867-1.272-5.03-1.996-1.551-.964-2.412-1.019-3.226-.205M136.3 403.354c-.44.745-2.712 2.551-5.05 4.013-5.671 3.547-5.399 4.144.5 1.096 7.466-3.859 10.206-6.463 6.8-6.463-.798 0-1.81.61-2.25 1.354m12.7 46.782c-8.978 7.895-19.368 18.343-20.612 20.728-2.093 4.01-1.662 5.754.685 2.771 2.019-2.567 4.754-3.783 3.332-1.48-.433.699-.276.883.397.467.611-.377.872-1.308.58-2.069-.715-1.862 6.539-9.797 8.328-9.111.857.329 1.126.102.699-.589-.667-1.079 7.016-8.853 8.749-8.853 1.111 0 4.842-3.254 4.842-4.222 0-1.772-3.733-.515-7 2.358m73.404 27.633c-.019 3.702-.409 10.894-.867 15.981-.561 6.228-.496 9.25.199 9.25.596 0 1.325-4.323 1.728-10.25 1.096-16.132 1.096-19.59-.001-20.687-.7-.7-1.036 1.11-1.059 5.706m-78.591 23.914c.721.289 1.584.253 1.916-.079.332-.332-.258-.568-1.312-.525-1.165.048-1.402.285-.604.604m1.187 1.71c0 .216.698.661 1.552.989.89.341 1.291.173.941-.393-.587-.951-2.493-1.406-2.493-.596m106.283.308c-2.299.445-2.441.882-3.833 11.799-.35 2.75-1.066 5.521-1.589 6.157-.524.637-1.404 3.562-1.957 6.5a736.37 736.37 0 0 1-1.578 8.162c-.315 1.55-1.418 3.346-2.45 3.99-2.692 1.681-2.313 3.549.874 4.306 1.512.36 3.425 1.228 4.25 1.929 2.713 2.307 5.469 2.176 5.817-.277.505-3.551 6.98-8.267 11.352-8.267 2.042 0 3.991-.45 4.331-1 .34-.55 1.806-1 3.259-1 2.054 0 2.374-.267 1.441-1.2-.66-.66-1.2-2.01-1.2-3 0-1.522-.964-1.827-6.25-1.977l-6.25-.176 6.628-.574c6.003-.519 7.039-.955 11-4.628 4.487-4.162 11.205-12.387 9.01-11.03-.674.416-1.768.33-2.432-.193-.663-.522-3.906-1.243-7.206-1.601-7.553-.82-14.998-3.426-18.161-6.358-1.343-1.245-2.531-2.202-2.641-2.127-.109.075-1.196.329-2.415.565m-82.49 2.769c-6.179 3.174-24.078 7.862-27.887 7.303-5.775-.848-4.921 3.831 1.39 7.604 7.128 4.263 12.704 9.638 12.704 12.248 0 1.306.46 2.375 1.021 2.375 2.548 0 9.13 5.505 9.642 8.063l.543 2.718 7.712-3.86c4.617-2.311 8.241-4.85 9.033-6.329 1.812-3.386.566-14.12-2.021-17.408-1.448-1.84-1.93-4.045-1.93-8.819 0-7.543-1.783-8.223-10.207-3.895M148 506c-1.282.828-1.246.972.25.985.963.008 1.75-.435 1.75-.985 0-1.22-.113-1.22-2 0m3 2.213c0 1.043 1.159.972 2.987-.184 1.169-.739 1.009-.904-.75-.772-1.23.093-2.237.523-2.237.956m128.789-.044c-.859.557-.547.733.935.526 1.224-.17 2.461-.547 2.75-.836.861-.861-2.287-.596-3.685.31m-111.064 11.763c-5.474 3.116-7.36 4.767-6.466 5.66.344.345 2.114-.358 3.933-1.562l3.308-2.188-3.25 2.902c-1.787 1.596-3.25 3.206-3.25 3.579 0 1.381 2.746.615 4.417-1.232.95-1.049 2.977-2.426 4.505-3.059 2.108-.873 2.797-1.858 2.861-4.091.099-3.488.056-3.488-6.058-.009M150.75 539.08c-2.51 1.462-2.162 2.586 1 3.233 4.368.894 7.032 3.267 5.458 4.861-.905.918-1.503.983-2 .217-2.766-4.265-8.422-4.262-10.457.005l-1.62 3.397 4.418.662c2.515.377 5.18.219 6.185-.366 1.552-.903 1.463-1.034-.734-1.072-3.691-.065-7-1.115-7-2.222 0-1.17 7.941-.02 9.709 1.407 2.154 1.737 7.029-.053 7.549-2.772.856-4.48-8.249-9.83-12.508-7.35m107.646 1.953c-3.902 1.932-7.023 6.143-5.9 7.961.921 1.489 10.74 3.17 11.877 2.033.565-.565 1.725-1.03 2.577-1.033 2.885-.01 9.05-2.082 9.05-3.041 0-1.514-4.304-1.115-11.161 1.034-7.28 2.282-7.839 2.358-7.839 1.06 0-2.746 17.104-6.941 19.718-4.836.67.54 1.12 1.343 1 1.785-.12.442.232.849.782.904 2.329.233.708-2.505-3-5.068-4.965-3.433-11.195-3.724-17.104-.799m21.048 7.862c-.519.486-3.644 1.553-6.944 2.371l-6 1.487 4.658.723c5.344.83 10.849-.088 10.827-1.805-.027-2.051-1.544-3.709-2.541-2.776" fill-rule="evenodd"/>
</svg>