<?xml version="1.0" standalone="no"?>
<!DOCTYPE svg PUBLIC "-//W3C//DTD SVG 1.1//EN" "http://www.w3.org/Graphics/SVG/1.1/DTD/svg11.dtd" >
<svg xmlns="http://www.w3.org/2000/svg">
<metadata>
<json>
<![CDATA[
{
	"fontFamily": "xiibicon",
	"majorVersion": 1,
	"minorVersion": 1,
	"fontURL": "https://www.xiiber.com",
	"description": "Xiiber - Font & icons Gay app\nFont generated by IcoMoon.",
	"copyright": "Xiiber",
	"designer": "Luis Angel Maciel",
	"designerURL": "https://www.twitter.com/luisangelmaciel",
	"license": "",
	"version": "Version 1.1",
	"fontId": "xiibicon",
	"psName": "xiibicon",
	"subFamily": "Regular",
	"fullName": "xiibicon"
}
]]>
</json>
</metadata>
<defs>
<font id="xiibicon" horiz-adv-x="1024">
<font-face units-per-em="1024" ascent="960" descent="-64" />
<missing-glyph horiz-adv-x="1024" />
<glyph unicode="&#x20;" horiz-adv-x="512" d="" />
<glyph unicode="&#xe900;" glyph-name="faq" data-tags="faq" d="M390.025 260.492c-35.057 3.024-157.527-0.348-205.522 0.403-65.038 0.99-109.459 38.154-131.175 75.447-29.871 51.33-21.020 120.693-21.093 185.089-0.055 38.026-2.346 174.662 2.217 201.985 9.126 54.94 49.278 97.053 91.866 114.517 45.466 18.637 137.772 11.6 191.998 11.6l514.749 0.055c85.031-0.128 155.072-58.605 158.627-147.87 2.676-66.687 0.22-139 0.202-206.292 0-75.172 8.356-119.025-31.209-174.112-11.912-16.566-34.434-35.588-57.726-46.309-31.099-14.331-52.43-14.147-88.495-14.147-49.021 0-164.344 2.401-204.551 0.183-8.54-0.476-4.581 0.788-9.383-3.299l-18.344-20.653c-8.741-9.474-14.899-17.776-24.245-27.782-8.411-8.98-15.742-19.517-23.97-28.057-17.648-18.344-110.119-129.379-119.043-136.086-8.283 16.603-17.373 178.327-24.905 215.326zM440.695 326.080l14.88-136.673c11.692 9.401 6.872 7.239 15.32 15.943l88.843 102.495c4.985 6.084 11.435 12.187 15.064 18.197 55.087 2.602 263.468-6.817 298.030 7 45.539 18.197 53.694 56.938 53.676 99.197-0.037 50.78 0 101.579 0 152.378 0 80.413 15.43 151.626-42.057 187.031-21.148 13.030-37.348 12.608-64.415 12.59h-609.511c-27.030 0-44.623 0.971-66.687-10.262-61.537-31.373-46.291-109.019-46.291-181.919 0-50.799 0-101.597 0-152.396 0-26.682-2.016-43.707 9.768-66.064 33.133-62.894 105.207-47.335 181.259-47.335 49.424 0 103.247 2.034 152.121-0.183zM838.471 402.516c-29.559 6.689-41.324 35.827-60.969 29.761-74.714-23.035-165.114 1.539-175.083 94.395-17.281 160.752 144.498 165.847 203.671 122.049 40.958-30.311 51.623-94.34 37.549-143.636-8.448-29.578-14.221-28.881-19.7-41.269 6.047-6.616 23.219-16.823 34.361-20.213l-19.828-41.086zM333.032 429.125l90.052 238.508 80.468-0.312 89.264-238.618-76.986 0.348-11.454 39.107-82.007-0.165c-7-4.765-11.582-31.117-14.404-39.345l-74.934 0.476zM166.085 428.978l0.476 238.636 181.699-0.073-0.421-51.037-107.828-0.22v-41.801l92.489-0.403-0.77-47.592-91.756-0.367-0.33-97.419-73.559 0.275zM738.212 480.968c-6.121 10.134-19.407 11.032-27.305 18.161 2.236 7.459 7.294 18.692 11.124 25.179 23.915-3.757 28.167-16.676 44.128-21.862 13.103 18.582 11.454 66.724 1.943 87.816-18.967 41.947-108.928 42.644-91.317-65.093 5.388-33.078 23.713-49.644 61.428-44.201zM436.902 519.672l50.817 0.073c-1.155 10.391-14.092 48.361-18.619 63.37-2.327 7.752-3.409 15.577-7.862 20.616-4.838-23.438-22.632-62.527-24.336-84.060z" />
<glyph unicode="&#xe901;" d="M114.792 655.061c3.958-11.49 61.867-51.77 73.651-60.676l76.161-57.946c-0.513 10.281 18.857 46.84 25.418 56.809 86.955 132.604 251.354 175.23 382.419 84.921 32.546-22.431 11.728-35.625 89.887 43.578 11.124 11.27 58.166 54.647 63.26 65.276-9.346 17.153-56.021 47.115-75.227 58.001-30.164 17.116-59.119 30.86-94.762 40.939-146.862 41.471-301.017 12.59-419.364-82.007-38.172-30.512-108.506-106.435-121.444-148.896z" />
<glyph unicode="&#xe902;" d="M115.433 242.13c3.683-16.731 39.363-66.577 50.725-80.083 21.643-25.711 39.602-44.843 66.504-66.174 147.411-116.991 344.595-137.112 508.555-52.521 43.67 22.522 53.676 38.246 78.947 54.427-1.118 8.008 0.183 4.508-5.938 10.317l-100.864 77.719c-13.030 9.273-25.253 24.263-40.976 25.601-23.475-19.957-86.002-37.073-120.033-39.473-95.165-6.707-169.494 23.164-230.408 87.945-13.634 14.496-23.402 27.855-34.342 45.374l-20.25 40.243c-2.547 6.047-2.84 9.694-8.21 11.509l-72.57-58.221c-9.254-7.514-22.834-14.642-37.714-27.47-8.045-6.927-5.919-9.199-15.962-15.082-8.063-4.728-10.244-6.872-17.464-14.111z" />
<glyph unicode="&#xe903;" d="M672.386 211.416c15.723-1.338 27.947-16.328 40.976-25.601l100.864-77.719c6.121-5.809 4.82-2.309 5.938-10.317 4.82 6.377 11.6 10.849 18.051 17.391 5.883 5.956 10.794 11.435 17.299 18.82 63.737 72.441 94.799 163.758 103.192 261.782 2.529 29.413 2.877 114.444-7.587 136.324-14.569 6.377-379.744 2.566-427.757 1.448l-0.568-173.892 245.912-0.275c7.33-39.217-53.914-131.267-96.32-147.961z" />
<glyph unicode="&#xe904;" d="M115.433 242.13c7.22 7.239 9.401 9.383 17.464 14.111 10.042 5.883 7.917 8.155 15.962 15.082 14.88 12.828 28.46 19.957 37.714 27.47l72.57 58.221c0.476 31.025-25.344 86.79-0.092 168.431 3.189 10.336 0.367 5.040 5.553 10.995l-76.161 57.946c-11.783 8.906-69.692 49.186-73.651 60.676-15.375-30.622-26.7-54.739-36.156-91.408-24.886-96.539-17.519-186.83 14.99-279.099 6.322-17.941 10.409-29.559 21.808-42.424z" />
<glyph unicode="&#xe905;" horiz-adv-x="5866" d="M464.487 126.188h-90.263v324.455c0 117.29-43.526 175.838-130.789 175.838-43.915 0-81.065-16.888-111.093-50.858s-45.035-77.497-45.035-130.609v-318.826h-90.263v833.379h90.263v-363.861h2.255c43.153 71.121 104.702 106.584 184.648 106.584 126.861 0 190.277-76.377 190.277-229.13v-346.973zM626.139 832.153c-15.947 0-29.834 5.435-41.093 16.515-11.438 10.885-17.082 24.772-17.082 41.66s5.644 30.954 17.082 42.033c11.259 11.259 25.145 16.888 41.093 16.888 16.515 0 30.595-5.629 42.227-16.888 11.453-11.079 17.261-25.145 17.261-42.033 0-16.141-5.809-29.834-17.261-41.093-11.632-11.453-25.713-17.082-42.227-17.082zM670.248 126.188h-90.263v562.963h90.263v-562.963zM1320.757 126.188h-173.21v319.961c0 82.558-30.028 123.666-90.263 123.666-30.775 0-55.741-11.453-74.689-34.537-19.143-23.085-28.714-52.545-28.714-88.009v-321.081h-173.583v833.379h173.583v-353.916h2.255c42.601 64.745 100.208 97.207 173.21 97.207 127.608 0 191.412-76.944 191.412-230.817v-345.853zM1909.163 358.125h-367.25c5.823-81.618 57.428-122.531 154.441-122.531 61.923 0 116.349 14.633 163.265 43.915v-125.353c-51.978-27.773-119.545-41.66-202.865-41.66-90.816 0-161.384 25.145-211.675 75.615-50.097 50.291-75.242 120.665-75.242 210.749 0 93.444 27.012 167.566 81.439 222.172 54.233 54.621 120.859 81.827 200.043 81.827 82.006 0 145.616-24.399 190.471-73.002 44.855-48.783 67.373-115.035 67.373-198.535v-73.196zM1748.152 464.903c0 80.513-32.656 120.859-97.953 120.859-27.773 0-51.993-11.453-72.255-34.537-20.457-23.070-32.656-51.978-37.151-86.321h207.359zM2131.439 126.188h-173.583v833.379h173.583v-833.379zM2396.705 126.188h-173.583v833.379h173.583v-833.379zM2756.549 112.495c-93.817 0-167.566 26.265-221.246 78.811-53.665 52.545-80.498 124.039-80.498 214.109 0 93.085 27.773 166.088 83.499 218.633 55.741 52.53 131.177 78.811 225.95 78.811 93.444 0 166.819-26.28 219.932-78.811 53.098-52.545 79.751-122.173 79.751-208.673 0-93.459-27.4-167.402-82.2-221.634-54.785-54.233-129.848-81.244-225.188-81.244zM2761.058 569.814c-41.093 0-73.002-14.081-95.713-42.227-22.696-28.341-34.149-68.313-34.149-119.918 0-108.092 43.721-162.131 130.983-162.131 83.141 0 124.801 55.547 124.801 166.446 0 105.285-42.033 157.83-125.921 157.83z" />
<glyph unicode="&#xe906;" horiz-adv-x="5866" d="M3033.804-61.895c-10.9 0-20.248 3.763-27.788 11.453-7.69 7.541-11.453 16.888-11.453 27.788 0 11.020 3.763 20.516 11.169 28.057 7.541 7.69 16.903 11.453 28.072 11.453 5.435 0 10.467-0.971 15.216-3.076 4.748-2.090 8.929-4.748 12.423-8.093 3.628-3.494 6.421-7.541 8.661-12.423 2.090-5.032 3.21-10.333 3.21-15.917 0-5.45-1.12-10.617-3.21-15.365-2.24-4.748-5.032-8.929-8.661-12.423-3.494-3.494-7.675-6.286-12.423-8.377-4.748-2.105-9.78-3.076-15.216-3.076zM3689.583-53.518v246.6c0 24.996-1.956 46.214-5.719 63.67-3.778 17.321-9.78 31.417-17.739 42.317-8.093 10.885-18.292 18.844-30.581 23.727-12.423 4.898-27.221 7.406-44.407 7.406-15.216 0-29.595-3.628-43.273-10.885-13.558-7.272-25.414-17.187-35.747-29.894-10.198-12.707-18.157-27.639-24.025-44.826-5.868-17.172-8.795-35.747-8.795-55.711v-242.404h-52.784v251.901c0 87.829-33.507 131.819-100.671 131.819-15.499 0-29.894-3.494-43.153-10.467-13.409-6.988-24.996-16.619-34.911-29.192s-17.59-27.654-23.174-45.378c-5.585-17.59-8.377-37.001-8.377-58.234v-240.448h-52.784v418.9h52.784v-67.851h1.672c29.461 51.933 72.33 77.915 128.743 77.915 14.663 0 28.624-2.24 41.75-6.704 12.991-4.614 24.712-10.885 35.045-18.859 10.482-8.093 19.277-17.724 26.818-28.893 7.541-11.318 13.125-23.607 17.037-37.001 14.663 29.879 33.791 52.501 57.383 68.134 23.607 15.499 50.276 23.324 79.871 23.324 91.891 0 137.821-56.696 137.821-170.224v-258.74h-52.784zM4008.992-63.567c-30.999 0-58.921 5.166-83.499 15.499-24.712 10.467-45.796 25.13-63.252 44.124s-30.73 41.615-39.943 68.134c-9.347 26.534-13.961 55.86-13.961 88.113 0 34.911 4.883 66.193 14.663 93.698 9.915 27.654 23.876 50.963 41.884 70.24 18.157 19.262 40.077 33.925 65.626 43.974 25.698 10.198 54.322 15.231 85.888 15.231 30.297 0 57.518-5.032 81.678-14.947 24.294-9.915 44.826-24.429 61.728-43.138 16.888-18.859 29.879-41.899 38.808-68.851 9.079-27.086 13.543-57.801 13.543-92.16 0-32.805-4.748-62.55-14.096-89.502-9.362-26.952-22.756-49.992-40.212-69.403s-38.689-34.343-63.819-45.094c-24.996-10.617-53.337-15.917-85.037-15.917zM4013.187 330.202c-23.040 0-43.706-3.912-62.281-11.871s-34.493-19.411-47.752-34.627c-13.274-15.081-23.458-33.657-30.581-55.711-7.123-21.935-10.617-46.916-10.617-74.704 0-26.265 3.494-49.858 10.617-70.807 7.123-21.084 17.172-39.092 30.162-54.173 12.976-14.947 28.759-26.534 47.334-34.493 18.56-8.093 39.226-12.14 62.266-12.14 23.458 0 44.273 3.897 62.281 11.722 18.023 7.675 33.238 18.993 45.811 33.94 12.558 14.932 22.054 33.089 28.475 54.725 6.421 21.502 9.631 46.080 9.631 73.734 0 56.413-12.558 99.7-37.688 129.579-25.145 29.879-61.027 44.826-107.659 44.826zM4571.237-53.518v241.568c0 94.818-34.224 142.152-102.776 142.152-18.157 0-35.045-3.628-50.544-10.885-15.499-7.272-28.908-17.187-40.227-30.028-11.169-12.841-20.098-28.072-26.385-45.662-6.421-17.59-9.631-36.718-9.631-57.115v-240.030h-52.784v418.9h52.784v-72.599h1.672c30.999 55.158 77.78 82.663 140.046 82.663 45.811 0 80.722-14.798 104.732-44.542 23.876-29.744 35.881-72.748 35.881-129.027v-255.395h-52.769zM4696.695 21.739c7.959-6.271 16.47-11.856 25.683-16.754 9.228-4.883 18.859-9.079 28.639-12.707 9.765-3.479 19.546-6.137 29.595-7.959 9.915-1.807 19.277-2.643 28.341-2.643 61.997 0 92.996 23.309 92.996 69.807 0 10.617-2.225 19.83-6.555 27.654s-10.617 14.947-18.71 21.368c-8.242 6.421-18.008 12.289-29.461 17.724-11.453 5.45-24.444 11.169-38.823 17.187-19.411 7.959-36.031 16.052-49.992 24.145-13.827 8.242-25.265 17.187-34.343 26.818-8.944 9.765-15.649 20.382-19.979 31.969-4.315 11.602-6.555 24.862-6.555 39.525 0 18.575 4.047 35.18 12.005 49.574 8.108 14.514 18.859 26.803 32.402 36.852 13.678 10.064 29.311 17.873 47.050 23.189 17.873 5.301 36.583 7.959 56.129 7.959 36.165 0 67.597-6.839 94.534-20.397v-55.144c-31.267 20.248-65.058 30.297-101.223 30.297-12.991 0-24.862-1.672-35.613-4.883-10.751-3.36-19.964-7.959-27.654-13.976-7.541-6.003-13.543-13.26-17.724-21.636-4.196-8.377-6.286-17.59-6.286-27.654 0-10.467 1.672-19.546 4.883-27.221 3.36-7.824 8.377-14.947 15.365-21.233 6.973-6.137 15.917-12.14 26.952-18.008 11.020-5.719 24.429-11.871 40.346-18.426 20.113-8.108 37.569-16.201 52.232-24.294 14.798-8.108 26.952-16.769 36.434-26.265 9.497-9.347 16.619-19.815 21.233-31.551 4.599-11.587 6.973-24.996 6.973-40.212 0-18.859-3.897-35.747-11.587-50.41-7.809-14.798-18.56-27.236-32.253-37.285-13.678-10.049-29.879-17.739-48.32-22.906-18.426-5.166-38.539-7.809-60.31-7.809-42.183 0-77.646 8.929-106.405 26.668v58.638zM5210.054-48.351c-18.008-9.079-37.554-13.543-58.787-13.543-67.447 0-101.238 38.957-101.238 116.872v264.339h-73.719v46.065h73.719v105.15l52.784 17.172v-122.322h107.241v-46.065h-107.241v-255.963c0-28.341 4.614-48.723 13.827-61.295 9.213-12.423 24.712-18.71 46.782-18.71 16.201 0 31.7 4.883 46.632 14.663v-46.364zM5284.967 146.719c0.284-25.698 3.628-48.738 10.198-69.254 6.555-20.397 15.917-37.852 28.206-51.948 12.289-14.245 27.221-25.13 44.811-32.537 17.605-7.541 37.434-11.303 59.489-11.303 47.2 0 91.742 16.47 133.79 49.559v-51.799c-40.092-28.624-88.681-43.004-145.661-43.004-28.057 0-53.62 4.883-76.511 14.798-22.906 9.78-42.317 24.010-58.518 42.735-16.052 18.71-28.475 41.75-37.136 68.97-8.795 27.37-13.125 58.503-13.125 93.414 0 31.417 4.748 60.474 14.245 87.277 9.631 26.668 22.756 49.843 39.659 69.403 17.022 19.546 37.001 34.761 60.176 45.796s48.454 16.619 75.959 16.619c27.086 0 50.828-4.748 71.643-14.111 20.666-9.497 38.121-22.891 52.082-40.346 14.111-17.455 24.727-38.689 32.133-63.819 7.391-25.13 11.020-53.202 11.020-84.201v-26.25h-302.461zM5533.793 192.799c-0.836 43.571-11.169 77.362-31.133 101.373-19.964 24.025-47.752 36.031-83.23 36.031-17.724 0-34.209-3.076-49.425-9.362-15.081-6.271-28.49-15.35-39.928-27.221-11.453-11.871-20.949-26.4-28.49-43.422-7.541-17.037-12.707-36.18-15.783-57.398h247.989zM5868.999 311.627c-12.289 9.079-28.072 13.543-47.483 13.543-13.812 0-26.101-2.643-36.718-7.959-10.751-5.301-19.964-12.423-28.072-21.502-8.093-8.929-14.798-19.411-20.382-31.282-5.719-11.871-10.198-24.145-13.543-37.001-3.494-12.841-5.868-25.832-7.406-38.808-1.538-13.14-2.225-25.563-2.225-37.285v-204.851h-51.948v418.9h51.948v-89.786h1.672c4.883 15.231 11.035 29.057 18.575 41.063 7.541 12.14 16.186 22.473 25.967 30.715 9.78 8.377 20.531 14.663 32.119 18.993s23.742 6.555 36.583 6.555c8.511 0 16.052-0.552 22.756-1.672 6.57-0.971 12.707-2.643 18.157-4.883v-54.74z" />
<glyph unicode="&#xe907;" d="M352.897 581.96c6.176-0.861 33.518-19.095 40.976-23.677 5.644-3.445 8.411-4.252 8.595-12.571 17.336 10.372 44.311 49.351 113.161 47.885 91.243-1.979 157.582-86.845 139.733-174.698-12.865-63.297-48.233-77.298-65.221-96.008 8.283 0.128 5.736-3.903 9.328-10.519 3.445-6.359 4.911-5.626 8.302-13.726 8.173-19.48 14.496-19.92 11.307-30.292 43.798 16.511 86.864 82.722 98.317 135.133 37.934 173.58-146.11 310.143-299.899 231.599-22.614-11.545-57.268-36.34-64.598-53.126z" />
<glyph unicode="&#xe908;" d="M333.49 798.771c45.246 3.537 206.273 1.063 263.541 1.063 40.243 0 88.824 3.409 126.245-6.689 35.24-9.511 66.522-30.311 85.214-49.094 56.828-57.066 56.076-109.606 56.076-209.352-0.018-86.314 3.922-182.688-1.026-267.774 9.584 21.184 4.38 250.53 4.38 293.558l15.998-25.161c1.723-2.877 2.162-4.398 3.793-7.202l28.551-48.6c7.184-11.050 6.78-17.263 6.927-35.13l1.411-176.549c5.553 9.969 2.602 136.618 2.602 147.87-0.037 49.937-0.092 99.893-0.092 149.83 0 89.851-8.595 157.802-75.703 223.664-69.527 68.208-135.518 72.954-225.735 72.973-34.672 0.018-289.325 4.288-298.525-2.437 31.428-7.44 207.575 6.066 226.45-4.948l67.42-44.898c9.584-7.477 3.372-7.202 17.556-6.377-42.369 0-284.487 3.665-305.085-4.746z" />
<glyph unicode="&#xe909;" d="M619.077 268.354c3.189 10.372-3.134 10.812-11.307 30.292-3.39 8.1-4.856 7.367-8.302 13.726-3.592 6.616-1.045 10.647-9.328 10.519-24.831-6.945-48.838-29.761-106.509-18.326-90.822 18.014-142.042 116.258-105.831 200.336 3.244 7.495 7.459 15.119 11.545 21.643 4.93 7.862 10.666 12.461 13.121 19.169-0.183 8.32-2.95 9.126-8.595 12.571-7.459 4.581-34.8 22.815-40.976 23.677-11.105-5.571-28.771-40.225-35.46-56.131-30.934-73.467-12.058-159.635 34.874-213.952 25.234-29.193 63.26-58.642 117.687-69.784 27.47-5.626 55.27-5.681 82.649-0.33 17.244 3.354 58.312 15.962 66.43 26.591z" />
<glyph unicode="&#xe90a;" d="M98.867 267.914c-1.631-60.823 40.628-125.696 67.493-155.328 14.074-15.54 39.235-35.387 62.307-47.83 18.087-9.749 60.383-29.614 84.701-27.177l50.029-1.191c-9.199 38.136-3.555 47.28-18.124 57.817-0.367 0.257-1.118 0.623-1.558 1.063l-6.451 0.696c-95.147 6.487-167.423 81.732-176.806 175.358-3.683 8.595-4.087 27.452-1.393 38.099-9.859 1.356-5.992 1.979-14.569 6.029-5.369 2.529-9.383 3.867-14.606 5.168-11.435 2.804-21.606 5.15-31.722 8.98l0.696-61.684z" />
<glyph unicode="&#xe90b;" d="M863.541 266.924c-1.741-13.268-3.757-23.567-7.385-35.735-3.885-12.993-9.071-21.698-13.286-33.664l5.754-1.668c-0.037-18.527 3.152-23.402 6.634-37.751 2.419-10.006 7.239-29.284 5.076-40.243l7.972 6.726c3.005 3.225 3.72 4.435 5.809 7.257 12.003 16.145 21.020 30.256 29.816 49.516 8.356 18.271 25.436 64.635 20.671 86.479l-1.411 176.549c-0.147 17.867 0.257 24.080-6.927 35.13l-28.551 48.6c-1.631 2.804-2.071 4.325-3.793 7.202l-15.998 25.161c0-43.029 5.204-272.374-4.38-293.558z" />
<glyph unicode="&#xe90c;" d="M202.004 812.020c17.263 2.456 27.397-5.626 41.709-8.906 9.126-2.071 11.6-1.668 19.865-4.508 7.752-2.639 11.655-4.985 20.726-5.388 1.668-2.822 1.283 0.403 0-4.765 16.75 3.793 29.724 8.76 49.186 10.317 20.598 8.411 262.716 4.746 305.085 4.746-14.184-0.825-7.972-1.1-17.556 6.377l-67.42 44.898c-18.875 11.014-195.021-2.492-226.45 4.948-31.19 2.914-84.17-19.462-112.245-37.384l-12.901-10.336z" />
<glyph unicode="&#xe90d;" d="M98.006 627.243l1.649-33.994c4.875-2.126 27.873-6.029 35.075-6.542 35.039-2.419 17.171-10.079 25.106-19.792l0.788 56.26c3.665 43.12 20.983 79.332 41.031 104.383 11.967 14.935 21.404 23.823 37.238 35.478 15.907 11.728 30.109 15.65 45.411 25.418 1.283 5.168 1.668 1.943 0 4.765-9.071 0.403-12.975 2.749-20.726 5.388-8.265 2.84-10.739 2.437-19.865 4.508-14.312 3.28-24.446 11.362-41.709 8.906-18.344-6.157-56.040-51.953-68.63-73.449-19.517-33.334-30.347-65.239-35.368-111.328z" />
<glyph unicode="&#xe90e;" d="M337.265 95.964l6.451-0.696 201.252-1.338 150.71-1.778c3.427-8.247 6.047-31.777 6.524-42.515 0.44-10.024-2.382-10.336 4.16-10.794-11.985-0.77-0.678 0.568-5.809-4.032 56.040 4.325 107.333 31.63 146.385 66.999l10.904 10.995c4.013 5.754 1.411 0.935 2.492 5.058 2.162 10.959-2.657 30.237-5.076 40.243-3.482 14.349-6.671 19.224-6.634 37.751l-5.754 1.668c-12.187-17.299-18.729-29.852-32.216-44.018-10.207-10.72-26.114-23.182-42.369-32.528-40.518-23.31-73.816-25.528-127.198-25.546-98.94-0.037-205.834-3.83-303.821 0.531z" />
<glyph unicode="&#xe90f;" d="M313.368 37.579c5.186-3.757 5.773-2.621 13.854-3.115 23.658-5.058 183.11 2.346 226.487 1.283l-8.32-0.275c-0.128 24.263-2.822 34.544-6.689 54.097 3.775 3.317-2.309 1.191 6.267 4.362l-201.252 1.338c0.44-0.44 1.191-0.806 1.558-1.063 14.569-10.537 8.925-19.682 18.124-57.817l-50.029 1.191z" />
<glyph unicode="&#xe910;" d="M98.867 267.914l-0.696 61.684c-4.233 23.365-0.183 76.821 0.513 103.137 14.349-0.953 43.762-0.953 53.694-7.605 6.029-4.013 2.327-1.374 5.589-5.021 1.136-20.928 4.508-94.212 1.1-110.687-2.694-10.647-2.291-29.504 1.393-38.099l0.165 351.852-0.788-56.26c-7.935 9.713 9.932 17.373-25.106 19.792-7.202 0.513-30.201 4.416-35.075 6.542l-1.649 33.994c-0.385-59.283-0.623-118.988-0.623-178.492-0.018-31.52-3.885-161.101 1.484-180.837z" />
<glyph unicode="&#xe911;" d="M327.223 34.464c8.485-2.547 356.928-2.84 373.33 0.348 5.131 4.6-6.176 3.262 5.809 4.032-6.542 0.458-3.72 0.77-4.16 10.794-0.476 10.739-3.097 34.269-6.524 42.515l-150.71 1.778c-8.576-3.17-2.492-1.045-6.267-4.362 3.867-19.553 6.561-29.834 6.689-54.097l8.32 0.275c-43.377 1.063-202.828-6.341-226.487-1.283z" />
<glyph unicode="&#xe912;" d="M734.272 733.294c-73.211-16.621-47.482-120.766 21.936-106.655 25.839 5.241 49.278 32.821 41.947 65.423-5.809 25.784-32.125 48.435-63.883 41.233z" />
<glyph unicode="&#xe913;" d="M98.17 329.598c10.116-3.83 20.286-6.176 31.722-8.98 5.223-1.301 9.236-2.639 14.606-5.168 8.576-4.050 4.71-4.673 14.569-6.029 3.409 16.475 0.037 89.759-1.1 110.687-3.262 3.647 0.44 1.008-5.589 5.021-9.932 6.652-39.345 6.652-53.694 7.605-0.696-26.316-4.746-79.772-0.513-103.137z" />
<glyph unicode="&#xe914;" glyph-name="logo-xiiber-2021" data-tags="logo-xiiber-2021" horiz-adv-x="2478" d="M261.174 112.674c-95.355-41.675-37.36-186.365 61.042-148.438 10.258 4.002 19.934 10.796 24.847 15.574 67.208 66.999-7.959 166.864-85.888 132.685v0.179zM144.989 355.482c-53.561 82.14-91.831 119.037-125.413 252.528-79.945 317.676 75.854 482.256 207.285 139.449 47.274-123.263 42.929-186.798 41.809-323.276l47.737 2.494c12.752 108.674 57.309 234.416 111.422 293.188 44.422 48.305 209.913 128.937 311.42 77.228 64.491-32.94 42.496-89.547-10.109-119.724-133.85-76.541-117.096-89.412-195.026-203.193-34.045-49.768-61.176-62.908-97.028-105.136 18.202-38.405 78.602-91.831 47.483-194.548-99.446 37.793-180.079 64.491-300.579 22.771-20.068-6.928-28.938-13.215-45.333-19.247-87.352-32.925-23.592 145.138 6.286 177.585l0.045-0.119zM844.474 20.067l-85.41 119.381-88.307-119.381h-123.039l149.782 196.011-144.66 193.174h126.712l82.484-113.572 84.634 113.572h120.023l-144.645-190.337 150.454-198.983h-128.026v0.134zM991.404 409.252h112.885v-389.23l-112.885 0.045v389.185zM1047.891 463.499c-20.755 0-37.584 6.018-50.589 18.112-13.006 12.11-19.591 26.997-19.591 44.87 0 17.859 6.51 32.805 19.591 44.855 13.006 11.96 29.834 18.127 50.589 18.127 20.74 0 37.584-5.823 50.664-17.306 13.006-11.632 19.456-26.101 19.456-43.407 0-18.814-6.495-34.388-19.456-46.573s-29.953-18.471-50.664-18.471v-0.209zM1173.215 409.252h112.87v-389.23l-112.87 0.045v389.185zM1229.568 463.499c-20.755 0-37.584 6.018-50.679 18.112-13.080 12.11-19.456 26.997-19.456 44.87 0 17.859 6.495 32.805 19.456 44.855 13.095 11.96 29.968 18.127 50.679 18.127 20.696 0 37.584-5.823 50.574-17.306 13.095-11.632 19.591-26.101 19.591-43.407 0-18.814-6.495-34.388-19.591-46.573-13.080-12.184-29.834-18.471-50.574-18.471v-0.209zM1584.857 415.060c36.21 0 69.15-8.302 98.76-24.921 29.625-16.619 52.963-40.092 69.837-70.18 16.873-30.177 25.265-65.267 25.265-105.255 0-40.003-8.437-75.167-25.265-105.255-16.873-30.192-40.212-53.561-69.837-70.18-29.61-16.619-62.55-24.921-98.76-24.921-53.546 0-94.325 16.873-122.218 50.664v-44.855h-107.883v536.847h112.87v-188.874c28.46 31.342 67.552 47.065 117.23 47.065v-0.134zM1565.356 106.866c28.938 0 52.739 9.81 71.21 29.267s27.893 45.677 27.893 78.482c0 32.671-9.213 59.026-27.893 78.482s-42.362 29.281-71.21 29.281c-28.923 0-52.739-9.825-71.285-29.281-18.56-19.456-27.908-45.677-27.908-78.482s9.347-59.026 27.908-78.482c18.545-19.456 42.362-29.267 71.285-29.267zM2014.030 104.671c20.278 0 38.285 2.957 53.994 8.989s30.312 15.589 43.736 28.595l60.011-65.148c-36.673-41.929-90.099-62.983-160.622-62.983-43.87 0-82.693 8.526-116.529 25.743-33.851 17.231-59.802 40.898-78.139 71.3-18.351 30.312-27.475 64.79-27.475 103.403 0 38.061 9.004 72.465 27.131 103.060 18.112 30.61 42.914 54.546 74.465 71.643 31.685 17.216 67.208 25.743 106.733 25.743 37.151 0 70.852-7.869 101.253-23.592 30.386-15.708 54.546-38.27 72.793-68.015 18.127-29.744 27.131-64.79 27.131-105.255l-287.977-55.711c8.227-19.247 21.188-33.836 38.748-43.392 17.56-9.571 39.181-14.469 64.715-14.469l0.030 0.090zM1997.426 329.65c-28.46 0-51.62-9.123-69.359-27.475-17.739-18.336-27.206-43.736-28.251-75.974l189.561 36.897c-5.346 20.263-16.186 36.464-32.596 48.379-16.395 11.931-36.195 18.127-59.324 18.127l-0.030 0.045zM2346.31 357.886c13.558 18.814 31.685 33.029 54.531 42.705 22.861 9.691 49.35 14.469 79.303 14.469v-104.225c-12.528 1.030-20.964 1.463-25.265 1.463-32.328 0-57.652-9.123-75.988-27.116-18.336-18.008-27.46-45.214-27.46-81.454v-183.752l-112.885 0.090v389.23l107.883-0.045v-51.366h-0.119zM1024.687 598.454c-89.98-31.685-46.797-167.76 45.677-139.867 9.691 2.971 18.889 8.437 23.682 12.662 66.074 56.607 4.076 153.082-69.493 127.205h0.134zM1203.392 598.454c-89.98-31.685-46.797-167.685 45.677-139.733 9.676 2.957 18.889 8.437 23.667 12.647 66.089 56.622 4.091 153.097-69.478 127.22l0.134-0.134z" />
<glyph unicode="&#xe915;" glyph-name="whatsapp" data-tags="whatsapp" d="M84.884 18.667c12.168 54.757 38.905 119.538 58.001 175.321 30.054 87.816 0.953 35.204-31.19 159.873-36.578 141.84 6.047 269.112 73.651 360.722 157.252 213.109 508.097 227.293 680.926-19.077 88.843-126.648 98.152-313.002 18.454-444.58-45.979-75.905-41.782-57.194-76.455-94.963-15.503-16.878-11.527-13.616-27.965-25.784-90.089-66.705-206.475-112.519-351.193-81.183-133.191 28.826-70.37 57.744-170.96 24.245-51.312-17.098-121.242-43.139-173.269-54.574zM626.499 401.673c21.038 0.018 87.835-34.654 97.163-41.966 43.249-33.811-18.894-114.004-97.236-110.027-84.884 4.307-175.834 76.198-228.374 133.117-150.399 162.952-78.342 284.89-7.788 280.511 34.599-2.144 33.518-21.404 42.79-47.262 31.538-87.981 29.889-55.893-15.009-117.486 8.173-48.636 103.448-143.123 160.331-148.768 22.339 16.731 23.933 31.703 48.123 51.88zM193.665 124.754c26.645 7.404 115.177 43.029 135.536 38.502 21.881-4.856 54.995-38.099 136.856-50.267 285.202-42.406 485.721 255.166 371.846 489.551-134.492 276.809-470.932 243.768-590.47 76.674-69.014-96.484-112.556-222.583-50.45-358.175l32.949-58.147c11.857-26.371-32.29-101.726-36.266-138.139z" />
<glyph unicode="&#xe916;" horiz-adv-x="3426" d="M264.922 120.29c-95.355-41.675-37.36-186.365 61.042-148.438 10.258 4.002 19.934 10.796 24.847 15.574 67.208 66.999-7.959 166.864-85.888 132.685v0.179z" />
<glyph unicode="&#xe917;" horiz-adv-x="3426" d="M148.737 363.097c-53.561 82.14-91.831 119.037-125.413 252.528-79.945 317.676 75.854 482.256 207.285 139.449 47.274-123.263 42.929-186.798 41.809-323.276l47.737 2.494c12.752 108.674 57.309 234.416 111.422 293.188 44.422 48.305 209.913 128.937 311.42 77.228 64.491-32.94 42.496-89.547-10.109-119.724-133.85-76.541-117.096-89.412-195.026-203.193-34.045-49.768-61.176-62.908-97.027-105.136 18.202-38.405 78.602-91.831 47.483-194.548-99.446 37.793-180.079 64.491-300.579 22.771-20.068-6.928-28.938-13.215-45.333-19.247-87.352-32.925-23.592 145.138 6.286 177.585l0.045-0.119z" />
<glyph unicode="&#xe918;" horiz-adv-x="3426" d="M848.222 27.682l-85.41 119.381-88.307-119.381h-123.039l149.782 196.011-144.66 193.174h126.712l82.484-113.572 84.634 113.572h120.023l-144.645-190.337 150.454-198.983h-128.026v0.134zM995.152 416.867h112.885v-389.23l-112.885 0.045v389.185zM1051.639 471.115c-20.755 0-37.584 6.018-50.589 18.112-13.006 12.11-19.591 26.997-19.591 44.87 0 17.859 6.51 32.805 19.591 44.855 13.006 11.96 29.834 18.127 50.589 18.127 20.74 0 37.584-5.823 50.664-17.306 13.006-11.632 19.456-26.101 19.456-43.407 0-18.814-6.495-34.388-19.456-46.573s-29.953-18.471-50.664-18.471v-0.209zM1176.962 416.867h112.87v-389.23l-112.87 0.045v389.185zM1233.315 471.115c-20.755 0-37.584 6.018-50.679 18.112-13.080 12.11-19.456 26.997-19.456 44.87 0 17.859 6.495 32.805 19.456 44.855 13.095 11.96 29.968 18.127 50.679 18.127 20.696 0 37.584-5.823 50.574-17.306 13.095-11.632 19.591-26.101 19.591-43.407 0-18.814-6.495-34.388-19.591-46.573-13.080-12.184-29.834-18.471-50.574-18.471v-0.209zM1588.605 422.675c36.21 0 69.15-8.302 98.76-24.921 29.625-16.619 52.963-40.092 69.837-70.18 16.873-30.177 25.265-65.267 25.265-105.255 0-40.003-8.437-75.167-25.265-105.255-16.873-30.192-40.212-53.561-69.837-70.18-29.61-16.619-62.55-24.921-98.76-24.921-53.546 0-94.325 16.873-122.218 50.664v-44.855h-107.883v536.847h112.87v-188.874c28.46 31.342 67.552 47.065 117.23 47.065v-0.134zM1569.104 114.481c28.938 0 52.739 9.81 71.21 29.267s27.893 45.677 27.893 78.482c0 32.671-9.213 59.026-27.893 78.482s-42.362 29.281-71.21 29.281c-28.923 0-52.739-9.825-71.285-29.281-18.56-19.456-27.908-45.677-27.908-78.482s9.347-59.026 27.908-78.482c18.545-19.456 42.362-29.267 71.285-29.267zM2017.778 112.286c20.278 0 38.285 2.957 53.994 8.989s30.312 15.589 43.736 28.595l60.011-65.148c-36.673-41.929-90.099-62.983-160.622-62.983-43.87 0-82.693 8.526-116.529 25.743-33.851 17.231-59.802 40.898-78.139 71.3-18.351 30.312-27.475 64.79-27.475 103.403 0 38.061 9.004 72.465 27.131 103.060 18.112 30.61 42.914 54.546 74.465 71.643 31.685 17.216 67.208 25.743 106.733 25.743 37.151 0 70.852-7.869 101.253-23.592 30.386-15.708 54.546-38.27 72.793-68.015 18.127-29.744 27.131-64.79 27.131-105.255l-287.977-55.711c8.227-19.247 21.188-33.836 38.748-43.392 17.56-9.571 39.181-14.469 64.715-14.469l0.030 0.090zM2001.173 337.265c-28.46 0-51.62-9.123-69.359-27.475-17.739-18.336-27.206-43.736-28.251-75.974l189.56 36.897c-5.346 20.263-16.186 36.464-32.596 48.379-16.395 11.931-36.195 18.127-59.324 18.127l-0.030 0.045zM2350.057 365.501c13.558 18.814 31.685 33.029 54.531 42.705 22.861 9.691 49.35 14.469 79.303 14.469v-104.225c-12.528 1.030-20.964 1.463-25.265 1.463-32.328 0-57.652-9.123-75.988-27.116-18.336-18.008-27.46-45.214-27.46-81.454v-183.752l-112.885 0.090v389.23l107.883-0.045v-51.366h-0.119z" />
<glyph unicode="&#xe919;" horiz-adv-x="3426" d="M2501.676-3.436c12.393 0 22.338-10.034 22.338-22.353 0-12.304-10.019-22.428-22.338-22.428-12.393 0-22.428 10.034-22.428 22.428 0 12.408 10.034 22.353 22.428 22.353z" />
<glyph unicode="&#xe91a;" horiz-adv-x="3426" d="M2734.151-4.9c12.319 0 22.338-10.034 22.338-22.443 0-12.393-10.019-22.338-22.338-22.338-12.393 0-22.428 10.034-22.428 22.338 0 12.319 10.034 22.443 22.428 22.443z" />
<glyph unicode="&#xe91b;" horiz-adv-x="3426" d="M2620.713-3.436c12.304 0 22.338-10.034 22.338-22.353 0-12.304-10.034-22.428-22.338-22.428-12.393 0-22.428 10.034-22.428 22.428 0 12.408 10.034 22.353 22.428 22.353z" />
<glyph unicode="&#xe91c;" horiz-adv-x="3426" d="M2557.73-3.227c12.304 0 22.338-10.034 22.338-22.428s-10.034-22.338-22.338-22.338c-12.393 0-22.428 10.019-22.428 22.338s10.034 22.428 22.428 22.428z" />
<glyph unicode="&#xe91d;" horiz-adv-x="3426" d="M2790.205-4.825c12.393 0 22.428-10.019 22.428-22.428 0-12.393-10.034-22.338-22.428-22.338-12.319 0-22.338 10.034-22.338 22.338 0 12.319 10.019 22.428 22.338 22.428z" />
<glyph unicode="&#xe91e;" horiz-adv-x="3426" d="M2676.723-3.227c12.304 0 22.338-10.034 22.338-22.428s-10.034-22.338-22.338-22.338c-12.393 0-22.428 10.019-22.428 22.338s10.034 22.428 22.428 22.428z" />
<glyph unicode="&#xe91f;" horiz-adv-x="3426" d="M1028.435 606.069c-89.98-31.685-46.797-167.76 45.677-139.867 9.691 2.971 18.889 8.437 23.682 12.662 66.074 56.607 4.076 153.082-69.493 127.205h0.134z" />
<glyph unicode="&#xe920;" horiz-adv-x="3426" d="M1207.14 606.069c-89.98-31.685-46.797-167.685 45.677-139.733 9.676 2.957 18.889 8.437 23.667 12.647 66.089 56.622 4.091 153.097-69.478 127.22l0.134-0.134z" />
<glyph unicode="&#xe921;" horiz-adv-x="3426" d="M2563.748 33.804c-4.987-4.569-11.050-7.884-18.336-10.258-7.272-2.359-14.812-3.524-22.771-3.524-18.471 0-32.581 4.987-42.496 14.932-9.9 9.945-14.932 24.025-14.932 42.287v183.827h26.564v-42.929l59.324-0.045v-22.338l-59.324 0.045v-117.23c0-11.617 2.837-20.487 8.526-26.653 5.674-6.152 14.111-9.123 24.921-9.123 11.975 0 21.651 3.404 29.147 10.124l9.347-19.038 0.030-0.075zM2620.026 179.614c6.286 13.215 15.499 23.115 27.803 29.834 12.319 6.719 27.564 10.034 45.677 10.034v-25.758l-6.361 0.358c-20.755 0-36.897-6.376-48.529-19.038-11.617-12.647-17.515-30.521-17.515-53.292v-100.014h-26.609v196.28h25.399v-38.405h0.134zM2901.239 218.019v-196.28h-25.414v38.838c-7.959-13.215-18.456-23.249-31.551-30.177-13.080-6.928-27.803-10.467-44.213-10.467-18.471 0-35.090 4.226-50.022 12.662-14.947 8.437-26.519 20.278-35.090 35.433-8.437 15.156-12.737 32.462-12.737 51.829s4.211 36.673 12.737 51.829c8.437 15.156 20.143 26.862 35.090 35.224 14.932 8.347 31.685 12.528 50.022 12.528 15.932 0 30.312-3.315 43.049-9.9 12.752-6.6 23.339-16.201 31.566-28.938v37.375l26.564-0.090v0.134zM2802.389 43.48c13.693 0 26.086 3.061 37.151 9.556 11.065 6.51 19.8 15.38 26.086 26.997 6.376 11.632 9.556 24.921 9.556 39.868 0 14.932-3.061 28.236-9.556 39.868-6.376 11.617-15.021 20.74-26.086 27.116s-23.458 9.467-37.151 9.467c-13.991 0-26.429-3.046-37.464-9.467-11.020-6.421-19.8-15.365-26.086-27.116s-9.556-24.936-9.556-39.868c0-14.947 3.195-28.236 9.556-39.868 6.376-11.617 15.021-20.755 26.086-26.997 11.065-6.361 23.592-9.556 37.464-9.556zM3122.768 218.019l-87.352-196.28h-27.206l-86.919 196.28h27.549l73.495-167.088 74.256 167.088h26.176zM3221.185 43.48c12.184 0 23.458 2.15 33.716 6.51 10.243 4.345 19.158 10.796 26.295 19.158l14.947-17.231c-8.661-10.452-19.471-18.471-32.462-23.936-13.006-5.465-27.206-8.213-42.929-8.213-20.143 0-38.046 4.211-53.635 12.871-15.589 8.646-27.893 20.397-36.553 35.642-8.646 15.245-13.080 32.328-13.080 51.485s4.211 36.344 12.393 51.485c8.183 15.156 19.934 26.997 34.612 35.568 14.588 8.437 31.342 12.662 50.022 12.662 17.44 0 33.149-4.017 47.14-11.975s25.28-19.023 33.627-33.149c8.347-14.126 12.737-30.312 13.215-48.394l-161.175-31.342c4.987-15.917 13.991-28.371 27.116-37.449s28.714-13.558 46.797-13.558l-0.045-0.134zM3214.465 196.83c-13.693 0-25.952-3.061-36.673-9.556s-19.247-15.156-25.399-26.519c-6.167-11.274-9.123-24.279-9.123-38.957 0-3.748 0.119-6.51 0.343-8.227l138.404 26.862c-2.971 16.41-10.587 29.834-22.771 40.421-12.184 10.602-27.131 15.843-44.781 15.843v0.134zM3400.621 20.022c-17.65 0-31.342 4.987-40.898 14.932s-14.335 23.682-14.335 41.466v222.351h26.519v-220.066c0-11.632 2.747-20.502 8.227-26.653 5.465-6.152 13.678-9.123 24.623-9.123 6.928 0 12.871 1.12 17.859 3.404l1.941-22.099c-7.75-2.747-15.589-4.002-23.936-4.002v-0.209z" />
<glyph unicode="&#xe922;" d="M356.195 738.7c-116.624-4.71-232.626 5.974-255.258-104.236-17.739-86.387-16.182-249.21-5.204-340.27 7.349-61.024 21.203-89.961 64.506-112.648 70.59-36.944 423.597-26.7 508.463-24.098 116.459 3.573 231.838-5.168 253.682 105.226 18.362 92.746 17.556 242.265 4.783 338.108-18.124 136.013-85.837 129.324-220.366 136.324-113.381 5.883-237.189 6.176-350.606 1.594z" />
<glyph unicode="&#xe923;" d="M430.799 318.896c17.079 7.715 37.549 21.881 52.851 31.172 31.080 18.875 140.539 89.814 158.077 95.44-8.045 11.16-140.301 89.539-156.116 99.288-16.053 9.878-37.183 24.428-54.812 32.363v-258.263z" />
<glyph unicode="&#xe924;" glyph-name="hhm" data-tags="hhm" d="M521.401 549.194c-10.885-7.294-21.917-14.276-33.133-21.478l-24.685-15.815c-3.005-1.997-5.388-3.244-8.118-5.058l-189.267-121.499c-2.382-1.411-5.974-3.427-7.587-5.608 3.903-0.916 62.912-37.824 66.467-39.95 6.102-3.647 10.83-6.671 16.97-10.354l164.931-100.626c5.828-3.464 10.977-6.487 16.31-10.042l196.561 119.85c4.636 2.749 62.161 36.926 64.36 40.188l-65.936 42.369c-34.251 22.742-73.962 46.346-107.956 69.088l-24.117 15.43c-5.663 3.812-10.922 6.927-16.566 10.739l-16.603 10.72c-5.901 3.592-11.124 6.78-16.75 10.556-6.212 4.178-13.873 7.733-14.88 11.49zM410.256 851.384h40.903c14.496-0.275 28.753-1.118 39.547-3.39 48.398-10.097 16.64-15.577 49.901-4.49 5.699 1.906 10.794 3.17 17.153 4.49 7.807 1.631 21.716 2.822 37.054 3.39h39.18c10.336-0.44 19.315-1.264 25.198-2.566 8.943-1.979 9.768-3.793 15.742-7.788 11.783 5.644 44.989 10.354 63.113 10.354 28.68 0 64.799-7.459 87.468-24.611l13.469-11.014c0.916-0.77 1.1-0.935 1.924-1.851l5.681-6.561c42.167-48.050 38.392-130.643 38.392-193.207 0-42.351 0-84.719 0-127.088 4.691-3.134 28.423-18.802 32.033-19.755v-177.942c-3.61-0.953-9.713-5.534-13.139-7.568l-147.631-90.639c-4.38-2.602-8.173-4.71-12.37-7.404l-74.054-45.539c-8.631-5.186-15.943-9.841-24.483-15.064l-116.881-71.47c-3.354-2.456-2.346-1.759-2.346-7.074-3.28 0.88-46.162 27.8-50.56 30.421-8.686 5.15-16.383 10.262-25.069 15.412l-63.132 38.594c-40.408 24.025-84.866 52.21-125.366 77.096l-62.527 38.227c-6.176 3.72-71.837 44.971-75.538 45.961v179.811c3.097 2.071 6.377 4.068 9.823 6.194l29.743 18.271c0 19.004-1.228 178.107 0.403 188.827 0.825 5.461 0.238 9.878 0.531 15.467 0.495 9.090 4.416 32.84 6.194 40.884 11.105 50.029 36.156 87.065 85.764 103.503 24.281 8.063 46.84 8.393 71.946 7.184 4.911-0.238 11.417-1.356 16.695-2.162 13.176-2.016 19.169-4.856 29.449-7.257 5.040 7.495 22.852 10.354 35.79 10.354zM599.597 667.816c0-1.411 15.687-10.574 18.069-12.058l36.853-23.42c17.116-10.097 36.358-23.53 54.281-34.232 3.17-1.888 5.681-3.848 9.163-5.919 3.555-2.089 5.718-3.537 9.328-5.736 4.197-2.547 14.294-9.969 18.289-10.904 0 19.773 0 39.547 0 59.32 0 30.97 0.11 71.067-25.198 93.424-9.621 8.503-24.905 15.778-42.607 15.778l-16.97-0.953c-0.77-9.236-6.561-16.401-12.48-22.357-6.304-6.341-12.15-9.273-19.718-14.166-6.945-4.49-14.404-8.082-20.341-13.561-4.856-4.49-8.668-18.142-8.668-25.216zM302.886 583.078c6.249 3.299 12.113 7.807 18.546 11.6 6.359 3.757 11.49 7.514 17.886 11.289l36.395 22.944c6.469 3.812 12.132 7.825 18.491 11.637l45.081 28.386c3.024 1.961 5.828 3.573 8.65 5.461-0.843 3.665-2.492 9.639-3.848 13.103-5.864 15.045-53.951 25.912-56.425 55.618-4.783 0-5.131 0.953-10.354 0.953-19.828 0-33.884-2.895-48.71-15.339-33.408-28.075-25.711-100.883-25.711-145.652zM67.42 273.357h40.5c0 78.8-3.775 162.219-3.775 241h-32.015l-0.953-29.174c0-5.040 0.037-10.079 0.037-15.1-0.018-6.066-1.026-8.43-0.99-15.027 0.055-10.042 0.018-20.085 0.018-30.127 0-11.289-0.971-19.663-0.953-30.127 0.092-40.665-1.869-80.761-1.869-121.444zM933.013 253.583h31.099c0 5.883 0.953 7.33 0.971 13.158l-0.073 45.246c0.073 5.443 1.026 7.11 1.008 13.121l-0.055 30.182c-0.018 6.231 0.99 8.118 1.008 14.056l-0.073 44.311c0.055 5.534 1.026 7.733 0.99 14.074-0.128 20.525 0.935 38.832 0.935 58.385h-39.565c0-56.7 2.822-117.174 2.822-174.167 0-10.629 0.99-18.491 0.953-28.24-0.037-10.042-0.018-20.085-0.018-30.127zM49.516 588.723v-5.644c0-18.546 26.187-33.023 44.513-16.255 17.116 15.65 3.683 44.495-15.32 44.495-9.236 0-14.587-0.312-21.459-6.78-3.354-3.17-7.733-9.603-7.733-15.815zM948.095 158.51c15.632 0 26.371 11.197 26.371 21.643v5.663c0 11.454-10.501 22.596-26.371 22.596-31.63 0-31.63-49.901 0-49.901z" />
<glyph unicode="&#xe925;" horiz-adv-x="11961" d="M1817.52 24.357v48.912c0.564 8.337-2.483 16.514-8.354 22.416-5.918 5.918-14.095 9.063-22.448 8.547-11.014 0.726-21.545-4.596-27.528-13.853-5.402 8.999-15.352 14.336-25.851 13.853-9.176 0.484-17.9-3.919-22.932-11.563v9.595l-17.046 0.032v-77.939h17.191v42.88c-0.726 5.402 1 10.837 4.709 14.852 3.677 3.999 8.999 6.144 14.449 5.854 11.321 0 17.046-7.338 17.046-20.529v-43.38h17.207v43.203c-0.726 5.402 1.016 10.837 4.709 14.82 3.709 3.983 8.982 6.144 14.449 5.886 11.611 0 17.191-7.338 17.191-20.529v-43.38l17.207 0.323zM2071.964 102.296h-28.012v23.625h-17.191v-23.625h-15.546v-15.514h15.868v-35.833c0-18.11 7.063-28.883 27.189-28.883 7.547 0 14.933 2.080 21.303 6.064l-4.919 14.514c-4.548-2.709-9.74-4.225-15.046-4.403-8.176 0-11.321 5.225-11.321 13.030v35.543l27.85-0.032-0.177 15.514zM2217.264 104.264c-8.483 0.242-16.385-4.145-20.642-11.401v9.434h-16.884v-77.939h17.046v43.703c0 12.869 5.58 20.061 16.385 20.061 3.645 0.032 7.273-0.645 10.643-1.967l5.257 16.288c-3.903 1.403-7.999 2.113-12.127 2.113l0.323-0.29zM1997.621 96.088c-9.628 5.725-20.739 8.563-31.963 8.176-19.787 0-32.769-9.482-32.769-24.964 0-12.692 9.515-20.545 27.044-22.98l8.208-1.145c9.321-1.306 13.756-3.741 13.756-8.144 0-6.047-6.225-9.482-17.868-9.482-9.353-0.274-18.529 2.629-26.028 8.176l-8.176-13.208c9.886-6.886 21.771-10.45 33.898-10.111 22.577 0 35.704 10.595 35.704 25.431 0 14.852-10.321 20.884-27.334 23.319l-8.208 1.129c-7.37 0.984-13.256 2.435-13.256 7.66 0 5.209 5.564 9.144 14.917 9.144 8.628-0.129 17.078-2.419 24.561-6.709l7.515 13.708zM2453.839 104.264c-8.45 0.242-16.385-4.145-20.61-11.401v9.434h-16.884v-77.939h17.046v43.703c0 12.869 5.548 20.061 16.385 20.061 3.612 0.032 7.241-0.645 10.611-1.967l5.257 16.288c-3.903 1.403-7.999 2.113-12.095 2.113l0.29-0.29zM2234.374 63.496c-0.419-11.079 3.886-21.819 11.821-29.56 7.966-7.789 18.836-11.837 29.931-11.208 10.24-0.532 20.287 2.79 28.189 9.305l-8.176 13.691c-5.886-4.467-13.095-6.934-20.497-7.031-13.062 1.064-23.109 11.917-23.109 24.948 0 13.046 10.079 23.899 23.109 24.964 7.402-0.097 14.578-2.532 20.497-6.999l8.176 13.691c-7.902 6.483-17.949 9.805-28.189 9.289-11.095 0.645-21.997-3.435-29.931-11.192-7.934-7.789-12.24-18.497-11.821-29.56v-0.339zM2393.897 63.496v38.8h-17.030v-9.466c-5.87 7.499-15.014 11.756-24.545 11.401-22.642 0-40.945-18.223-40.945-40.768 0-22.513 18.304-40.752 40.945-40.752 9.563-0.339 18.707 3.886 24.545 11.401v-9.45l17.030 0.032v38.8zM2330.504 63.496c0.758 12.788 11.643 22.625 24.528 22.142 12.853-0.484 22.964-11.095 22.771-23.916-0.21-12.821-10.676-23.109-23.561-23.174-6.547-0.097-12.821 2.564-17.352 7.305-4.515 4.725-6.838 11.127-6.386 17.642v0zM2124.972 104.264c-22.625-0.339-40.703-18.836-40.365-41.332 0.29-22.513 18.884-40.526 41.51-40.203 11.772-0.597 23.351 3.177 32.495 10.595l-8.176 12.546c-6.451-5.16-14.482-8.015-22.754-8.144-11.708-1.016-22.077 7.45-23.432 19.078h58.136c0 2.113 0 4.225 0 6.515 0 24.464-15.24 40.752-37.172 40.752l-0.242 0.194zM2124.972 89.089c5.128 0.113 10.111-1.822 13.82-5.37 3.709-3.564 5.854-8.418 5.967-13.546h-40.945c0.645 10.885 9.869 19.271 20.819 18.916h0.339zM2551.727 63.319v70.263h-16.385v-40.752c-5.886 7.499-15.030 11.756-24.561 11.401-22.625 0-40.945-18.223-40.945-40.768 0-22.513 18.32-40.752 40.945-40.752 9.563-0.339 18.707 3.886 24.561 11.401v-9.45l16.385 0.032v38.623zM2580.142 35.678c1.064 0.032 2.113-0.145 3.112-0.581 0.935-0.355 1.806-0.903 2.532-1.629 0.726-0.693 1.29-1.5 1.726-2.435 0.839-1.935 0.839-4.112 0-6.031-0.435-0.903-1-1.758-1.726-2.451s-1.597-1.242-2.532-1.629c-1-0.419-2.048-0.661-3.112-0.661-3.161 0.032-6.031 1.871-7.354 4.741-0.855 1.919-0.855 4.096 0 6.031 0.419 0.903 0.984 1.742 1.709 2.435s1.597 1.242 2.532 1.629c1.097 0.435 2.209 0.613 3.354 0.581h-0.242zM2580.142 21.922c0.822 0 1.629 0.145 2.387 0.484 0.693 0.323 1.322 0.758 1.871 1.29 2.113 2.322 2.113 5.854 0 8.176-0.548 0.548-1.177 1-1.871 1.306-0.758 0.29-1.564 0.484-2.387 0.484-0.806 0-1.629-0.194-2.387-0.484-0.726-0.306-1.387-0.758-1.951-1.306-2.113-2.322-2.113-5.854 0-8.176 0.564-0.532 1.226-0.984 1.951-1.29 0.855-0.371 1.726-0.516 2.629-0.484h-0.242zM2580.626 31.598c0.758 0.032 1.516-0.177 2.145-0.661 0.484-0.387 0.758-1.048 0.726-1.677 0.032-0.548-0.177-1.097-0.581-1.484-0.484-0.419-1.080-0.693-1.709-0.726l2.371-2.693h-1.887l-2.209 2.693h-0.726v-2.693h-1.564v7.192l3.435 0.048zM2578.82 30.211v-1.919h1.806c0.306-0.097 0.661-0.097 0.968 0 0.113 0.21 0.113 0.484 0 0.726 0.113 0.21 0.113 0.468 0 0.71-0.306 0.097-0.661 0.097-0.968 0l-1.806 0.484zM2488.721 63.319c0.758 12.788 11.643 22.625 24.528 22.142 12.853-0.484 22.996-11.095 22.787-23.932-0.21-12.788-10.692-23.109-23.545-23.158-6.563-0.065-12.853 2.564-17.368 7.289-4.499 4.741-6.822 11.143-6.402 17.659v0zM1913.586 63.319v38.978h-17.046v-9.466c-5.854 7.499-14.998 11.756-24.561 11.401-22.593 0-40.945-18.223-40.945-40.768 0-22.513 18.352-40.752 40.945-40.752 9.563-0.339 18.707 3.886 24.561 11.401v-9.45l17.046 0.032v38.623zM1850.192 63.319c0.758 12.788 11.643 22.625 24.528 22.142 12.853-0.484 22.964-11.095 22.787-23.932-0.21-12.788-10.692-23.109-23.561-23.158-6.58-0.129-12.917 2.5-17.481 7.241-4.515 4.725-6.87 11.192-6.418 17.707h0.145z" />
<glyph unicode="&#xe926;" horiz-adv-x="11961" d="M1991.977 696.171h257.959v-461.476h-257.959z" />
<glyph unicode="&#xe927;" horiz-adv-x="11961" d="M2008.329 465.384c-0.097 90.099 41.445 175.182 112.627 230.786-120.9 94.566-294.486 80.81-398.776-31.624-104.306-112.45-104.306-285.778 0-398.211 104.29-112.45 277.876-126.206 398.776-31.64-71.182 55.604-112.692 140.655-112.627 230.722v-0.032z" />
<glyph unicode="&#xe928;" horiz-adv-x="11961" d="M2597.978 465.384c0-112.353-64.458-214.853-165.974-263.975-101.532-49.089-222.304-36.172-311.048 33.285 71.118 55.636 112.627 140.688 112.627 230.722 0 90.066-41.51 175.118-112.627 230.754 88.744 69.457 209.515 82.374 311.048 33.253 101.516-49.089 165.974-151.589 165.974-263.942v-0.097z" />
<glyph unicode="&#xe929;" horiz-adv-x="11961" d="M2571.934 261.481v27.786l5.257-0.016v5.757h-13.272v-5.741l5.693-0.016v-27.802l2.322 0.032zM2597.704 261.481v33.527h-4.015l-4.709-23.964-4.677 23.964h-3.548v-33.527h2.887v25.141l4.354-21.819h3.016l4.37 21.819v-25.415l2.322 0.274z" />
<glyph unicode="&#xe92a;" horiz-adv-x="11961" d="M4639.592 631.81c0 18.739 15.32 34.075 34.091 34.075h1026.548c18.739 0 34.091-15.336 34.091-34.075v-436.367c0-18.771-15.352-34.091-34.091-34.091h-1026.548c-18.771 0-34.091 15.32-34.091 34.091v436.367z" />
<glyph unicode="&#xe92b;" horiz-adv-x="11961" d="M4639.592 616.361h1094.731v-405.468h-1094.731z" />
<glyph unicode="&#xe92c;" horiz-adv-x="11961" d="M5567.317 511.038c-50.089 0-90.905-40.816-90.905-90.905 0-50.057 40.816-90.905 90.905-90.905s90.905 40.848 90.905 90.905c0 50.089-40.816 90.905-90.905 90.905z" />
<glyph unicode="&#xe92d;" horiz-adv-x="11961" d="M4817.999 511.038c-50.089 0-90.937-40.816-90.937-90.905 0-50.057 40.816-90.905 90.937-90.905 50.057 0 90.905 40.848 90.905 90.905 0 50.089-40.848 90.905-90.905 90.905z" />
<glyph unicode="&#xe92e;" horiz-adv-x="11961" d="M5560.205 591.058c-84.164 1.919-123.739-52.024-181.165-118.578l-54.185-62.797 85.809-102.661c20.432-31.56-18.578-62.893-42.784-34.011l-79.326 94.582-77.262-89.567c-24.625-28.512-63.184 3.338-42.3 34.607l83.906 97.533-54.975 65.57 35.365 43.816 55.878-67.167 48.186 56.056c23.658 27.48 47.751 63.909 79.020 82.648l-776.781-0.032v-354.88h181.6c84.18 0 122.384 50.315 178.262 118.175l52.701 64.054-88.131 100.662c-21.142 31.076 17.11 63.264 41.977 34.962l81.455-92.743 75.23 91.357c23.916 29.092 63.2-1.903 43.058-33.64l-81.616-99.484 56.475-64.264-35.607-42.155-56.169 63.393-46.896-57.104c-22.996-28.028-46.283-63.796-77.117-83.213h769.508v354.88h-174.118zM4961.622 420.133c0-79.117-64.506-143.623-143.623-143.623-79.149 0-143.655 64.506-143.655 143.623 0 79.133 64.506 143.639 143.655 143.639 79.117 0 143.623-64.538 143.623-143.639zM5567.317 276.511c-79.117 0-143.623 64.506-143.623 143.623 0 79.133 64.506 143.639 143.623 143.639 79.149 0 143.655-64.538 143.655-143.639 0-79.117-64.506-143.623-143.655-143.623z" />
<glyph unicode="&#xe92f;" horiz-adv-x="11961" d="M9878.589 668.046c-0.339 70.15-57.297 126.948-127.512 126.948-17.465 0-34.575-3.322-49.234-9.837l-464.717-197.356c-66.215-28.028-112.805-93.663-112.805-169.957v-249.622c0-70.424 57.088-127.528 127.544-127.528 17.852 0 34.865 3.709 50.315 10.337l462.75 196.453c66.683 27.85 113.692 93.679 113.692 170.36l-0.032 250.203z" />
<glyph unicode="&#xe930;" horiz-adv-x="11961" d="M9451.060 317.633c-5.402 0-9.805 4.854-9.805 10.869v229.544c0 5.999 4.403 10.885 9.805 10.885 5.419 0 9.837-4.886 9.837-10.885v-229.544c0-6.015-4.419-10.869-9.837-10.869z" />
<glyph unicode="&#xe931;" horiz-adv-x="11961" d="M9536.353 327.89v179.472c0 6.096-4.403 11.014-9.837 11.014-5.402 0-9.773-4.919-9.773-11.014v-179.472c0-6.096 4.37-11.014 9.773-11.014 5.435 0 9.837 4.919 9.837 11.014z" />
<glyph unicode="&#xe932;" horiz-adv-x="11961" d="M9536.353 558.837v0.564c0 5.257-4.403 9.531-9.837 9.531-5.402 0-9.773-4.274-9.773-9.531v-0.564c0-5.257 4.37-9.547 9.773-9.547 5.435 0 9.837 4.29 9.837 9.547z" />
<glyph unicode="&#xe933;" d="M84.96 413.504c-13.6 24.672-23.808 36.096-30.592 75.040-16.16 92.768 32.032 136.64 62.4 35.552 10.912-36.32 8.32-54.464 5.088-93.536l13.728-0.32c5.952 30.912 21.44 65.984 38.176 81.664 13.76 12.896 62.944 32.48 90.912 15.488 17.792-10.784 10.272-26.56-5.44-34.080-40-19.104-35.456-23.136-60.224-54.112-10.816-13.536-18.88-16.704-30.048-28.064 4.416-11.392 20.576-28 9.472-56.8-27.712 12.96-50.24 22.336-85.696 12.928-5.888-1.568-8.576-3.168-13.408-4.576-25.76-7.584-3.68 42.112 5.568 50.784z" />
<glyph unicode="&#xe934;" d="M113.088 341.408c-28.224-9.92-14.656-52.608 14.336-43.84 3.008 0.928 5.92 2.656 7.456 3.968 20.704 17.76 1.248 48-21.792 39.904z" />
<glyph unicode="&#xe935;" d="M292.48 325.92l-22.976 32.128-23.776-32.128h-33.12l40.32 52.8-38.976 52h34.080l22.208-30.592 22.784 30.592h32.352l-38.944-51.232 40.512-53.568h-34.496zM332.032 430.72h30.4v-104.8h-30.4v104.8zM347.232 445.344c-5.6 0-10.144 1.632-13.632 4.864s-5.248 7.264-5.248 12.064 1.76 8.832 5.248 12.064c3.52 3.232 8.064 4.864 13.632 4.864s10.144-1.568 13.632-4.672c3.52-3.104 5.248-7.008 5.248-11.68 0-5.056-1.76-9.248-5.248-12.576s-8.064-4.96-13.632-4.96zM380.96 430.72h30.4v-104.8h-30.4v104.8zM396.16 445.344c-5.6 0-10.144 1.632-13.632 4.864s-5.248 7.264-5.248 12.064 1.76 8.832 5.248 12.064c3.52 3.232 8.064 4.864 13.632 4.864s10.144-1.568 13.632-4.672c3.52-3.104 5.248-7.008 5.248-11.68 0-5.056-1.76-9.248-5.248-12.576s-8.064-4.96-13.632-4.96zM491.84 432.288c9.728 0 18.592-2.24 26.592-6.72s14.24-10.784 18.784-18.88c4.544-8.128 6.816-17.568 6.816-28.352s-2.272-20.224-6.816-28.352c-4.544-8.128-10.816-14.4-18.784-18.88s-16.864-6.72-26.592-6.72c-14.4 0-25.376 4.544-32.928 13.632v-12.064h-29.024v144.544h30.4v-50.848c7.648 8.448 18.176 12.672 31.552 12.672zM486.592 349.312c7.776 0 14.176 2.624 19.2 7.904s7.488 12.32 7.488 21.152c0 8.832-2.496 15.872-7.488 21.12s-11.392 7.904-19.2 7.904c-7.808 0-14.176-2.624-19.2-7.904s-7.488-12.32-7.488-21.12c0-8.832 2.496-15.872 7.488-21.152s11.392-7.904 19.2-7.904zM607.392 348.736c5.472 0 10.304 0.8 14.528 2.432s8.16 4.192 11.776 7.68l16.16-17.536c-9.856-11.296-24.288-16.96-43.232-16.96-11.808 0-22.272 2.304-31.36 6.912s-16.096 11.008-21.024 19.2c-4.928 8.192-7.392 17.472-7.392 27.84 0 10.272 2.432 19.52 7.296 27.744s11.552 14.688 20.064 19.296c8.512 4.608 18.080 6.912 28.736 6.912 9.984 0 19.104-2.112 27.264-6.336s14.72-10.336 19.584-18.304c4.864-8 7.296-17.44 7.296-28.352l-77.536-15.008c2.208-5.184 5.696-9.088 10.432-11.68s10.56-3.904 17.44-3.904zM602.912 409.312c-7.648 0-13.888-2.464-18.688-7.392s-7.328-11.744-7.616-20.448l51.040 9.92c-1.44 5.472-4.352 9.792-8.768 13.056s-9.728 4.864-15.968 4.864zM696.832 416.896c3.648 5.056 8.544 8.896 14.72 11.488s13.28 3.904 21.344 3.904v-28.064c-3.36 0.256-5.664 0.384-6.816 0.384-8.704 0-15.52-2.432-20.448-7.296s-7.392-12.16-7.392-21.92v-49.472h-30.4v104.8h29.024v-13.824z" />
<glyph unicode="&#xe936;" d="M737.664 317.568c3.328 0 6.016-2.688 6.016-6.016s-2.688-6.048-6.016-6.048-6.048 2.688-6.048 6.048c0 3.328 2.688 6.016 6.048 6.016z" />
<glyph unicode="&#xe937;" d="M800.256 317.152c3.328 0 6.016-2.688 6.016-6.048s-2.688-6.016-6.016-6.016c-3.328 0-6.048 2.688-6.048 6.016s2.688 6.048 6.048 6.048z" />
<glyph unicode="&#xe938;" d="M769.728 317.568c3.328 0 6.048-2.688 6.048-6.016s-2.688-6.048-6.048-6.048-6.016 2.688-6.016 6.048c0 3.328 2.688 6.016 6.016 6.016z" />
<glyph unicode="&#xe939;" d="M752.736 317.632c3.328 0 6.048-2.688 6.048-6.016s-2.688-6.048-6.048-6.048c-3.328 0-6.016 2.688-6.016 6.048s2.688 6.016 6.016 6.016z" />
<glyph unicode="&#xe93a;" d="M815.328 317.216c3.328 0 6.016-2.688 6.016-6.048s-2.688-6.016-6.016-6.016c-3.328 0-6.048 2.688-6.048 6.016s2.688 6.048 6.048 6.048z" />
<glyph unicode="&#xe93b;" d="M784.8 317.632c3.328 0 6.016-2.688 6.016-6.016s-2.688-6.048-6.016-6.048c-3.328 0-6.048 2.688-6.048 6.048s2.688 6.016 6.048 6.016z" />
<glyph unicode="&#xe93c;" d="M340.992 481.664c-24.256-8.512-12.576-45.152 12.32-37.632 2.592 0.768 5.088 2.272 6.4 3.392 17.76 15.232 1.088 41.184-18.72 34.24z" />
<glyph unicode="&#xe93d;" d="M389.12 481.664c-24.224-8.512-12.576-45.152 12.32-37.632 2.592 0.768 5.088 2.272 6.4 3.392 17.76 15.232 1.088 41.216-18.72 34.24z" />
<glyph unicode="&#xe93e;" d="M754.368 327.584c-1.344-1.216-2.976-2.112-4.928-2.752s-3.968-0.96-6.112-0.96c-4.96 0-8.768 1.344-11.456 4s-4 6.464-4 11.36v49.504h7.136v-11.552h15.968v-6.016h-15.968v-31.552c0-3.136 0.768-5.536 2.304-7.168s3.776-2.464 6.72-2.464c3.2 0 5.824 0.896 7.84 2.72l2.496-5.12zM769.536 366.848c1.664 3.552 4.16 6.24 7.488 8.032s7.424 2.72 12.288 2.72v-6.944l-1.696 0.096c-5.568 0-9.92-1.696-13.056-5.12s-4.736-8.192-4.736-14.368v-26.912h-7.136v52.832h6.816v-10.336zM845.248 377.216v-52.832h-6.816v10.432c-2.144-3.552-4.96-6.272-8.48-8.128s-7.488-2.816-11.904-2.816c-4.96 0-9.44 1.152-13.472 3.424s-7.168 5.472-9.44 9.536c-2.272 4.096-3.424 8.736-3.424 13.952s1.152 9.888 3.424 13.952c2.272 4.096 5.408 7.264 9.44 9.504s8.512 3.36 13.472 3.36c4.288 0 8.16-0.896 11.616-2.656s6.272-4.384 8.48-7.776v10.048h7.136zM818.624 330.208c3.68 0 7.008 0.864 9.984 2.56s5.312 4.128 7.040 7.296c1.696 3.136 2.56 6.72 2.56 10.752s-0.864 7.616-2.56 10.752c-1.696 3.136-4.064 5.568-7.040 7.296s-6.304 2.56-9.984 2.56c-3.744 0-7.104-0.864-10.080-2.56s-5.312-4.128-7.040-7.296c-1.696-3.136-2.56-6.72-2.56-10.752s0.864-7.616 2.56-10.752c1.696-3.136 4.064-5.568 7.040-7.296s6.336-2.56 10.080-2.56zM904.896 377.216l-23.52-52.832h-7.328l-23.392 52.832h7.424l19.776-44.992 20 44.992h7.040zM931.392 330.208c3.264 0 6.304 0.576 9.088 1.76s5.152 2.88 7.072 5.184l4.032-4.608c-2.336-2.816-5.248-4.96-8.736-6.432s-7.328-2.208-11.552-2.208c-5.408 0-10.24 1.152-14.464 3.456s-7.488 5.504-9.856 9.6c-2.336 4.096-3.52 8.704-3.52 13.856s1.12 9.76 3.36 13.856c2.24 4.096 5.344 7.264 9.28 9.536s8.448 3.424 13.472 3.424c4.672 0 8.928-1.088 12.704-3.2s6.784-5.12 9.024-8.928c2.24-3.808 3.424-8.16 3.552-13.056l-43.392-8.448c1.344-4.288 3.776-7.648 7.296-10.080s7.712-3.648 12.608-3.648zM929.6 371.488c-3.68 0-6.976-0.864-9.888-2.56s-5.184-4.096-6.816-7.136c-1.632-3.040-2.464-6.528-2.464-10.496 0-0.992 0.032-1.728 0.096-2.208l37.248 7.232c-0.8 4.416-2.848 8.064-6.112 10.88s-7.296 4.288-12.064 4.288zM979.712 323.872c-4.768 0-8.416 1.344-11.008 4s-3.872 6.4-3.872 11.136v59.872h7.136v-59.264c0-3.136 0.736-5.536 2.208-7.168s3.68-2.464 6.624-2.464c1.856 0 3.488 0.288 4.832 0.896l0.512-5.92c-2.080-0.736-4.224-1.12-6.432-1.12z" />
<glyph unicode="&#xe93f;" horiz-adv-x="11961" d="M9382.925 341.839c4.338 4.274 4.338 11.24 0 15.562-4.338 4.29-11.369 4.29-15.659 0-32.011-31.705-84.035-31.705-116.046 0-31.979 31.737-31.979 83.358 0 115.111 15.514 15.352 36.123 23.835 57.991 23.835 21.932 0 42.509-8.483 58.023-23.835 4.322-4.322 11.353-4.322 15.691 0 4.338 4.306 4.338 11.256 0 15.562-19.674 19.529-45.864 30.302-73.714 30.302-27.818 0-53.975-10.772-73.682-30.302-40.639-40.3-40.639-105.903 0-146.235 20.336-20.158 47.009-30.237 73.714-30.237 26.673 0 53.346 10.079 73.682 30.237v0zM9382.925 341.839v0 0z" />
<glyph unicode="&#xe940;" glyph-name="agregar-negocio" data-tags="agregar-negocio" d="M640 233.984h86.016v128h41.984v86.016l-41.984 214.016h-640l-44-214.016v-86.016h44v-256h384v256h169.984v-128zM384 192h-214.016v169.984h214.016v-169.984zM86.016 790.016h640v-86.016h-640v86.016zM854.016 192v128h-86.016v-128h-128v-86.016h128v-128h86.016v128h128v86.016h-128z" />
<glyph unicode="&#xe941;" glyph-name="alerta-del-bus" data-tags="alerta-del-bus" d="M682.656 917.344c0 0-0.032 0-0.032 0-101.984 0-192.032-51.136-245.92-129.12l-0.64-0.992 0.864 1.28c-17.056 0.864-34.976 0.864-52.896 0.864-188.576 0-341.344-21.344-341.344-170.656v-426.656c0-37.536 16.64-71.264 42.656-94.72v-75.936c0-23.552 19.104-42.656 42.656-42.656v0h42.656c23.552 0 42.656 19.104 42.656 42.656v0 42.656h341.344v-42.656c0-23.552 19.104-42.656 42.656-42.656v0h42.656c23.552 0 42.656 19.104 42.656 42.656v0 75.936c26.016 23.456 42.656 57.184 42.656 94.72v131.424c144.48 22.624 253.696 146.176 253.696 295.264 0 164.128-132.416 297.344-296.256 298.656h-0.128zM192 149.344c-35.36 0-64 28.64-64 64s28.64 64 64 64v0c35.36 0 64-28.64 64-64s-28.64-64-64-64v0zM128 405.344v213.344h256c0-83.616 34.56-159.136 90.016-213.344h-346.016zM576 149.344c-35.36 0-64 28.64-64 64s28.64 64 64 64v0c35.36 0 64-28.64 64-64s-28.64-64-64-64v0zM682.656 405.344c-117.824 0-213.344 95.52-213.344 213.344s95.52 213.344 213.344 213.344v0c117.824 0 213.344-95.52 213.344-213.344s-95.52-213.344-213.344-213.344v0zM640 789.344h85.344v-213.344h-85.344zM640 533.344h85.344v-85.344h-85.344z" />
<glyph unicode="&#xe942;" glyph-name="alertas" data-tags="alertas" d="M639.264 185.12c27.744 0 37.152-32.96 22.624-50.912-7.712-9.536-16.928-10.4-27.328-10.4-34.112 0-39.296 61.344 4.704 61.344zM278.4 649.792c0 13.472 74.72 37.888 88.608 43.456 32.576 13.024 61.792 24.704 94.368 37.728l70.752 28.32c30.272 12.576 23.456 8.864 63.008-89.984 10.816-27.008 150.304-363.296 150.304-382.816 0-10.048-52.128-27.456-62.688-31.68l-138.144-55.264c-86.464-34.56-69.376-43.008-98.048 28.64l-120.288 299.552c-8.416 20.992-16.192 40.288-24.256 60.672-3.872 9.76-23.584 53.28-23.584 61.312zM193.472 680.448c0-13.824 24.8-70.304 30.656-84.896l202.848-504.768c12.576-31.392 20-61.312 61.344-61.312 12.96 0 38.464 12.128 49.536 16.512 16.352 6.496 31.136 12.928 48.512 19.872l192.064 76.832c76.832 30.752 86.912 40.352 59.328 108.864-5.792 14.336-11.36 27.104-17.216 41.76-25.248 63.104-207.296 524.896-220.32 543.936-8.576 12.544-25.088 20.128-43.552 20.128-12 0-38.112-12.416-49.184-16.832-15.968-6.368-31.68-12.672-48.864-19.52-33.088-13.248-63.104-25.248-96.032-38.4s-62.944-25.664-95.712-38.752c-13.504-5.408-35.68-12.768-48.352-20.064-12.224-7.008-25.12-25.696-25.12-43.296zM452.928 465.824c7.744-33.184 8.864-6.592 14.336-72.928 7.84-94.432 16.544-69.6 147.072-15.36 56.032 23.296 22.432 40.512-0.32 67.744-16.896 20.224-21.152 21.504-34.336 36.416-8.256 9.312-10.176 20.48-15.904 31.296-9.024-2.112-18.048-7.040-26.944-10.784-10.56-4.416-17.856-7.424-28.128-12-18.848-8.384-38.72-15.36-55.808-24.384zM47.232 671.008c0-13.664-4-47.168 18.88-47.168 35.84 0-8.512 67.808 57.28 145.568 61.568 72.768 133.888 40.8 125.76 77.6-6.144 27.808-55.744 8-73.088 1.824-32.352-11.488-65.888-37.568-86.432-64.544-22.944-30.112-42.4-70.624-42.4-113.28zM950.624 270.048c0-20.192 4.704-31.232 4.704-49.568 0-75.232-48.288-135.744-111.168-157.696-11.776-4.128-24.352-4.384-28.672-16.448-3.968-11.104 6.464-23.968 17.184-23.968 12.608 0 51.68 18.080 60.896 24.032 50.784 32.736 97.152 93.952 97.152 162.304v21.472c-0.48 23.232-3.744 51.648-21.248 51.648-7.744 0-18.848-7.168-18.848-11.776zM117.984 666.304c0-12.288-3.040-37.76 16.512-37.76 41.504 0-12.608 77.056 79.36 121.184 17.312 8.288 45.664 4 45.664 25.088 0 51.264-141.536-8.032-141.536-108.512zM884.576 220.48c0-25.28-12.8-52.352-28.96-70.112-7.424-8.16-19.904-14.592-29.952-19.584-13.248-6.496-30.72-7.552-30.72-23.52 0-51.616 125.024 14.88 125.024 106.112 0 82.432-37.344 51.328-38.976 37.248-0.8-6.752 3.584-19.648 3.584-30.176zM457.632 541.28c0-13.792 5.984-2.112-0.544-13.568-10.656-18.816-11.264-10.624-11.264-45.408 26.272 13.92 85.952 35.264 108.48 47.2-10.624 15.872-20.224 19.776-35.776 23.168-19.936 4.32-6.496 12.192-27.904 12.192-14.848 0-33.024-10.688-33.024-23.584zM544.928 340.8c24.8-5.76 34.72-6.784 49.536 21.216-6.976-0.576-42.016-14.688-49.536-21.216z" />
<glyph unicode="&#xe943;" d="M78.144 881.856h867.68v-867.68h-867.68z" />
<glyph unicode="&#xe944;" d="M127.104 105.536h-2.432c0 1.216-0.608 3.072-0.608 3.68s0 1.824-1.824 1.824h-3.68v-5.504h-1.856v12.832h5.504c2.432 0 4.256-0.608 4.256-3.072 0-1.824-0.608-2.432-1.216-3.040 0.608-0.608 1.216-1.216 1.216-2.464v-2.432c0-0.608 0-0.608 0.608-0.608v-1.216zM124.672 114.688c0 1.824-1.216 1.824-1.824 1.824h-4.256v-3.68h3.68c1.216 0 2.432 0.608 2.432 1.824zM135.072 112.256c0 7.328-6.112 13.44-14.048 13.44-7.328 0-13.44-6.112-13.44-13.44 0-7.936 6.112-14.048 13.44-14.048 7.936 0 14.048 6.112 14.048 14.048zM133.216 112.256c0-6.72-5.472-11.616-12.192-11.616s-11.584 4.864-11.584 11.616c0 6.112 4.864 11.616 11.584 11.616s12.192-5.504 12.192-11.616zM885.728 359.008c0-18.336-11.616-26.88-32.384-26.88h-39.68v18.336h39.68c3.68 0 6.72 0.608 7.968 1.824s2.432 3.072 2.432 5.504c0 2.464-1.216 4.896-2.432 6.112s-3.68 1.824-7.328 1.824c-18.944 0.608-42.752-0.608-42.752 26.272 0 12.224 7.936 25.664 29.312 25.664h40.928v-18.336h-37.888c-3.68 0-6.112 0-7.936-1.216-1.824-1.824-3.072-3.68-3.072-6.72s1.824-4.896 4.288-6.112c2.432-0.608 4.864-1.216 7.936-1.216h11.008c11.616 0 18.944-2.432 23.808-6.72 3.68-4.256 6.112-9.792 6.112-18.336v0zM799.584 377.344c-4.864 4.288-12.192 6.72-23.808 6.72h-10.976c-3.072 0-5.504 0.608-7.968 1.216-2.432 1.216-4.256 3.072-4.256 6.112s0.608 4.896 3.072 6.72c1.824 1.216 4.256 1.216 7.936 1.216h37.856v18.336h-40.928c-21.984 0-29.312-13.44-29.312-25.664 0-26.88 23.808-25.664 42.784-26.272 3.648 0 6.112-0.608 7.328-1.824s2.464-3.68 2.464-6.112c0-2.432-1.216-4.256-2.464-5.504-1.824-1.216-4.256-1.824-7.936-1.824h-39.68v-18.336h39.68c20.768 0 32.384 8.544 32.384 26.88 0 8.544-2.464 14.048-6.112 18.336v0zM721.408 349.856h-48.256v17.088h47.040v17.088h-47.040v15.904h48.256v17.728h-68.416v-85.504h68.416v17.696zM631.008 413.376c-6.72 3.68-14.656 4.288-25.024 4.288h-47.040v-85.504h20.768v31.168h21.984c7.328 0 11.616-0.608 14.656-3.68 3.68-4.256 3.68-11.616 3.68-17.088v-10.368h20.128v16.48c0 7.936-0.608 11.616-3.040 15.872-1.824 2.464-5.504 5.504-10.4 7.328 5.504 1.824 14.656 9.152 14.656 22.592 0 9.76-3.68 15.296-10.4 18.944zM514.976 417.664h-65.376l-26.272-28.096-25.024 28.096h-82.464v-85.504h81.248l26.272 28.096 25.056-28.096h39.68v28.704h25.664c17.728 0 35.456 4.896 35.456 28.704-0.032 23.2-18.336 28.096-34.208 28.096zM614.528 382.208c-3.040-1.216-6.112-1.216-9.76-1.216l-25.024-0.608v19.552h25.024c3.68 0 7.328 0 9.76-1.824 2.464-1.216 4.288-3.68 4.288-7.328s-1.824-6.72-4.288-8.544zM514.976 377.952h-26.88v21.984h26.88c7.328 0 12.192-3.072 12.192-10.368 0-7.36-4.864-11.616-12.192-11.616v0zM436.16 374.912l31.744 33.6v-69.024l-31.744 35.456zM386.688 349.856h-50.688v17.088h45.184v17.088h-45.184v15.904h51.328l22.592-25.024-23.232-25.056zM828.896 479.328h-29.312l-38.464 64.128v-64.128h-41.536l-7.968 18.944h-42.752l-7.936-18.944h-23.808c-9.792 0-22.624 2.432-29.92 9.792-6.72 7.328-10.4 17.088-10.4 32.352 0 12.832 1.824 24.416 11.008 33.6 6.112 6.72 17.088 9.76 31.136 9.76h19.552v-18.336h-19.552c-7.328 0-11.616-1.216-15.872-4.864-3.68-3.68-5.504-10.4-5.504-19.552s1.824-15.872 5.504-20.16c3.040-3.040 8.544-4.256 14.048-4.256h9.152l29.312 67.168h30.56l34.208-80.608v80.608h31.744l36.032-59.232v59.232h20.768v-85.504zM586.432 564.832h-20.768v-85.504h20.768v85.504zM543.072 561.184c-6.72 3.68-14.048 3.68-24.416 3.68h-47.040v-85.504h20.16v31.168h21.984c7.328 0 12.224-0.608 15.264-3.68 3.68-4.256 3.072-11.616 3.072-16.48v-11.008h20.768v17.088c0 7.328-0.608 11.008-3.68 15.296-1.824 2.432-5.504 5.504-9.76 7.328 5.472 2.432 14.656 9.152 14.656 22.592 0 9.76-4.288 15.264-11.008 19.52v0zM456.928 497.056h-47.616v17.088h47.040v17.696h-47.040v15.296h47.616v17.696h-68.416v-85.504h68.416v17.728zM373.248 564.832h-33.6l-25.056-58.016-26.88 58.016h-32.992v-80.608l-34.816 80.608h-30.528l-36.64-85.504h21.984l7.936 18.944h42.752l7.936-18.944h41.536v67.168l29.92-67.168h17.696l29.952 67.168v-67.168h20.768v85.504zM704.32 516.608l-14.048 33.6-14.048-33.6h28.096zM527.168 530.016c-3.040-1.824-6.112-1.824-10.368-1.824h-25.056v18.944h25.056c3.68 0 7.936 0 10.368-1.216 2.432-1.824 3.68-4.288 3.68-7.968s-1.216-6.72-3.68-7.936v0zM190.016 516.608l14.048 33.6 14.048-33.6h-28.096zM880.832 832.992h-728.672v-307.84l25.024 56.8h53.152l7.328-14.048v14.048h62.304l14.048-30.528 13.44 30.528h198.528c9.152 0 17.088-1.824 23.2-6.72v6.72h54.368v-6.72c9.152 4.896 20.768 6.72 34.208 6.72h78.784l7.328-14.048v14.048h58.048l8.544-14.048v14.048h56.8v-119.712h-57.408l-11.008 18.336v-18.336h-71.456l-7.968 19.52h-17.696l-7.968-19.52h-37.248c-14.656 0-25.664 3.68-32.96 7.328v-7.328h-88.576v27.488c0 3.68-0.608 4.256-3.072 4.256h-3.040v-31.744h-171.040v15.264l-6.112-15.264h-36.032l-6.112 14.656v-14.656h-69.024l-7.328 19.52h-17.728l-7.936-19.52h-35.424v-360.992h728.672v219.296c-7.936-3.68-18.944-5.504-29.92-5.504h-53.152v7.36c-6.112-4.896-17.088-7.36-27.456-7.36h-167.36v27.488c0 3.68-0.608 3.68-3.68 3.68h-3.040v-31.168h-54.976v32.384c-9.152-4.256-19.552-4.256-28.704-4.256h-6.112v-28.096h-67.168l-15.872 18.336-17.696-18.336h-108.128v119.712h109.92l15.872-18.336 17.088 18.336h73.92c8.544 0 22.624-1.216 28.704-7.328v7.328h65.952c6.72 0 19.552-1.216 28.096-7.328v7.328h99.552v-7.328c5.504 4.896 15.904 7.328 25.056 7.328h55.584v-7.328c6.112 4.256 14.656 7.328 25.664 7.328h37.856v398.24z" />
<glyph unicode="&#xe945;" glyph-name="arrow-back" data-tags="arrow-back" d="M498.016 793.984l-345.984-345.984 345.984-345.984-76-76-422.016 422.016 422.016 422.016z" />
<glyph unicode="&#xe946;" glyph-name="arrow-circle-abajo" data-tags="arrow-circle-abajo" d="M512 789.344c188.16 0 341.344-153.184 341.344-341.344s-153.184-341.344-341.344-341.344-341.344 153.184-341.344 341.344 153.184 341.344 341.344 341.344zM512 874.656c-235.52 0-426.656-191.136-426.656-426.656s191.136-426.656 426.656-426.656c235.52 0 426.656 191.136 426.656 426.656s-191.136 426.656-426.656 426.656v0zM554.656 448v170.656h-85.344v-170.656h-128l170.656-170.656 170.656 170.656h-128z" />
<glyph unicode="&#xe947;" glyph-name="arrow-circle-arriba" data-tags="arrow-circle-arriba" d="M512 106.656c-188.16 0-341.344 153.184-341.344 341.344s153.184 341.344 341.344 341.344 341.344-153.184 341.344-341.344-153.184-341.344-341.344-341.344zM512 21.344c235.52 0 426.656 191.136 426.656 426.656s-191.136 426.656-426.656 426.656c-235.52 0-426.656-191.136-426.656-426.656s191.136-426.656 426.656-426.656v0zM469.344 448v-170.656h85.344v170.656h128l-170.656 170.656-170.656-170.656h128z" />
<glyph unicode="&#xe948;" horiz-adv-x="11961" d="M9614.195 272.77v142.413c0 44.767 36.51 81.229 81.374 81.229s81.374-36.462 81.374-81.229c0-44.783-36.51-81.197-81.374-81.197-25.867 0-43.396 9.869-43.509 9.934-5.257 3.080-11.982 1.322-15.062-3.919-3.080-5.225-1.29-11.95 3.919-15.030 0.919-0.548 22.513-12.95 54.653-12.95 57.023 0 103.403 46.283 103.403 103.161 0 56.91-46.38 103.193-103.403 103.193-56.991 0-103.371-46.283-103.371-103.193v-142.413c0-6.064 4.919-10.982 10.982-10.982 6.096 0 11.014 4.919 11.014 10.982z" />
<glyph unicode="&#xe949;" horiz-adv-x="11961" d="M9876.686 199.91c0-17.513-14.175-31.689-31.705-31.689-17.497 0-31.689 14.175-31.689 31.689 0 17.529 14.191 31.705 31.689 31.705 17.529 0 31.705-14.175 31.705-31.705zM9871.687 199.91c0 14.901-11.982 27.060-26.705 27.060-14.691 0-26.609-12.159-26.609-27.060 0-14.885 11.917-27.044 26.609-27.044 14.723 0 26.705 12.159 26.705 27.044zM9858.286 182.59h-5.58l-7.966 14.175h-5.289v-14.175h-4.79v34.753h11.821c6.047 0 10.934-4.548 10.934-10.434 0-5.080-3.145-8.208-7.434-9.547l8.305-14.772zM9852.529 206.909c0 3.499-2.725 6.128-6.58 6.128h-6.499v-12.159h6.499c3.854 0 6.58 2.532 6.58 6.031z" />
<glyph unicode="&#xe94a;" horiz-adv-x="11961" d="M11205.832 713.394c-111.886 0-202.678-90.776-202.678-202.742 0-112.095 90.857-202.791 202.678-202.791 112.079 0 202.839 90.695 202.839 202.791 0 111.966-90.792 202.742-202.839 202.742z" />
<glyph unicode="&#xe94b;" horiz-adv-x="11961" d="M11311.331 918.361c0 0-4.919 1.5-13.611 3.919 46.831 13.917 105.725 29.124 170.957 40.397-91.469 0-169.296-4.515-235.334-14.772-9.482-1.451-18.642-3.032-27.576-4.677-8.837 1.645-18.078 3.225-27.576 4.677-66.022 10.224-143.752 14.772-235.253 14.772 65.264-11.305 124.093-26.48 170.957-40.397-8.724-2.435-13.675-3.951-13.675-3.951-302.807-94.856-530.932-302.259-514.548-472.248 13.611-141.171 157.459-212.66 391.954-188.277-130.367 23.625-183.858 89.615-193.518 189.486-14.804 152.992 158.685 333.931 404.968 437.947 0 0 6.064 2.5 16.691 6.483 10.643-3.983 16.707-6.483 16.707-6.483 246.235-104.016 419.579-284.955 404.92-437.947-9.628-99.936-63.151-165.925-193.534-189.486 234.463-24.383 378.473 47.154 391.971 188.277 16.385 169.989-211.773 377.392-514.645 472.248l0.145 0.032z" />
<glyph unicode="&#xe94c;" horiz-adv-x="11961" d="M10545.145 88.363v0.516c25.77 3.048 42.784 19.416 42.784 41.364 0 30.866-29.237 37.43-46.073 37.43l-72.505 0.032-34.204-163.313 74.424 0.903c37.446 0.452 67.135 16.868 67.135 51.508 0 18.013-12.821 28.786-31.56 31.56zM10496.476 35.323h-11.708l7.934 38.349h10.531c19.642 0 29.963-2.113 29.963-16.385 0-15.901-14.772-21.964-36.752-21.964h0.032zM10515.457 103.135h-16.385l7.031 33.656 11.224 0.016c16.385 0 27.125-2.080 27.125-15.223 0-11.224-10.74-18.465-28.995-18.465v0.016z" />
<glyph unicode="&#xe94d;" horiz-adv-x="11961" d="M10662.82 129.099c-18.949 0-32.253-2.79-44.719-7.031l-4.193-30.656c14.062 7.289 24.383 9.628 39.558 9.628 13.788 0 22.48-7.063 22.48-15.691 0-1.629 0-3.241-0.484-4.919-5.854 0.5-14.24 1.177-22.722 1.177-37.172 0-67.199-14.723-67.199-44.719 0-23.593 14.514-35.333 40.736-35.333 16.385 0 32.076 5.886 40.977 19.884v0.452l0.484-0.452-1.871-17.078h34.366c4.677 36.72 15.481 64.151 15.481 83.277 0 29.931-23.899 41.429-52.927 41.429l0.032 0.032zM10639.647 29.647c-8.902 0-14.272 6.628-14.272 12.192 0 10.74 14.788 17.981 34.882 17.32 2.564 0 7.757 0 11.224-0.693-3.048-16.417-13.82-28.786-31.834-28.786v-0.032z" />
<glyph unicode="&#xe94e;" horiz-adv-x="11961" d="M10828.036 129.099c-22.271 0-34.882-9.095-47.009-22.674h-0.452l3.29 19.916h-39.107c-1.177-10.982-3.048-21.335-5.177-31.834l-18.949-90.050h42.090l11.966 56.136c3.048 18.013 13.579 33.527 31.382 33.527 11.676 0.452 16.385-6.854 16.385-14.095 0-6.338-1.661-12.401-2.838-18.465l-11.676-57.104h43.509l11.224 56.862c2.596 12.853 3.29 17.513 3.29 25.738 0 23.899-13.304 42.155-37.897 42.155l-0.032-0.113z" />
<glyph unicode="&#xe94f;" horiz-adv-x="11961" d="M10957.451 98.281c9.321 0 18.497-2.612 27.189-6.58l9.111 29.237c-12.401 5.193-28.092 8.208-38.381 8.208-46.799 0-78.633-31.769-78.633-71.827 0-30.64 22.029-55.701 57.572-55.701 16.417 0 27.641 1.871 36.059 4.709l6.064 31.56c-9.111-3.741-16.626-5.402-27.189-5.402-17.804 0-29.028 11.917-29.028 26.464 0 25.254 15.417 39.333 37.236 39.333v0z" />
<glyph unicode="&#xe950;" horiz-adv-x="11961" d="M11066.483 129.099c-47.751 0-78.617-28.979-78.617-71.844 0-30.592 18.255-55.701 63.442-55.701 45.59 0 78.633 22.271 78.633 73.069 0 30.608-21.997 54.491-63.458 54.491v-0.016zM11054.356 31.066c-14.272-0.242-22.948 10.772-22.948 27.189 0 19.416 12.627 41.364 32.963 41.364 16.385 0 21.98-11.917 21.98-24.512 0-27.625-12.401-44.009-32.043-44.009l0.048-0.032z" />
<glyph unicode="&#xe951;" horiz-adv-x="11961" d="M11266.29 167.77l-97.098-163.377h47.315l19.368 34.849h63.458l4.451-34.849h43.993l-26.641 163.345-54.846 0.032zM11252.953 70.172l34.607 63.829h0.484l7.063-63.829h-42.155z" />
<glyph unicode="&#xe952;" horiz-adv-x="11961" d="M11372.064 95.427h52.169l-66.457-59.168-6.096-31.866h106.016l6.338 30.931h-55.733l66.957 59.136 6.515 31.834h-103.387z" />
<glyph unicode="&#xe953;" horiz-adv-x="11961" d="M11547.101 96.83h30.689l5.096 29.511h-28.995l8.45 38.139-44.477-11.95-5.886-26.189h-24.077l-5.16-29.511h22.48l-7.241-34.14c-2.806-12.853-3.741-18.981-3.741-25.077 0-25.496 17.11-36.027 38.623-36.027 8.386 0 17.288 0.968 26.222 2.354l4.709 27.818c-4.499-1.661-9.176-3.499-13.643-3.499-8.45 0-13.788 5.402-13.788 13.611 0 5.87 1.629 11.934 3.499 21.061l7.273 33.898h-0.032z" />
<glyph unicode="&#xe954;" horiz-adv-x="11961" d="M11651.729 129.099c-54.33 0-73.069-43.493-73.069-71.844 0-30.592 22.029-55.701 62.7-55.701 12.192 0 27.818 2.322 42.606 6.789l5.338 29.753c-11.676-5.612-26.915-8.45-38.139-8.45-25.77 0-32.285 10.256-32.801 23.416h86.422c1.645 7.241 3.016 18.013 3.016 22.98 0 36.962-24.077 53.056-56.104 53.056h0.032zM11621.024 76.897c3.048 11.74 12.853 24.141 31.108 24.141 15.498 0 20.61-11.047 20.61-24.141h-51.718z" />
<glyph unicode="&#xe955;" horiz-adv-x="11961" d="M11798.883 98.281c9.321 0 18.465-2.612 27.157-6.58l9.111 29.237c-12.401 5.193-28.092 8.208-38.413 8.208-46.799 0-78.633-31.769-78.633-71.827 0-30.64 21.997-55.701 57.572-55.701 16.417 0 27.641 1.871 36.027 4.709l6.128 31.56c-9.079-3.741-16.626-5.402-27.157-5.402-17.804 0-29.060 11.917-29.060 26.464 0 25.254 15.417 39.333 37.236 39.333h0.032z" />
<glyph unicode="&#xe956;" horiz-adv-x="11961" d="M11905.125 129.099c-18.981 0-32.285-2.79-44.751-7.031l-4.193-30.656c14.030 7.289 24.351 9.628 39.558 9.628 13.82 0 22.48-7.063 22.48-15.691 0-1.629 0-3.241-0.452-4.919-5.886 0.5-14.336 1.177-22.722 1.177-37.204 0-67.199-14.723-67.199-44.719 0-23.593 14.514-35.333 40.736-35.333 16.385 0 32.076 5.886 40.977 19.884v0.452l0.452-0.452-1.871-17.078h34.43c4.693 36.72 15.465 64.151 15.465 83.277 0 29.931-23.867 41.429-52.911 41.429v0.032zM11881.951 29.647c-8.902 0-14.304 6.628-14.304 12.192 0 10.74 14.788 17.981 34.849 17.32 2.596 0 7.692 0 11.224-0.693-3.048-16.417-13.788-28.786-31.769-28.786v-0.032z" />
<glyph unicode="&#xe957;" horiz-adv-x="11961" d="M3189.465 864.596h931.257v-931.257h-931.257z" />
<glyph unicode="&#xe958;" horiz-adv-x="11961" d="M3242.022 31.356h-2.629c0 1.338-0.629 3.322-0.629 3.967 0 0.661 0 1.951-1.951 1.951h-3.983v-5.918h-1.967v13.804h5.886c2.629 0 4.58-0.677 4.58-3.29 0-1.967-0.661-2.629-1.322-3.258 0.661-0.677 1.322-1.338 1.322-2.661v-2.629c0-0.629 0-0.629 0.645-0.629v-1.338h0.048zM3239.393 41.193c0 1.967-1.29 1.967-1.951 1.967h-4.564v-3.951h3.935c1.322 0 2.612 0.661 2.612 1.967l-0.032 0.016zM3250.569 38.613c0 7.837-6.547 14.417-15.094 14.417-7.87 0-14.417-6.58-14.417-14.417 0-8.547 6.547-15.094 14.417-15.094 8.515 0 15.094 6.547 15.094 15.094zM3248.569 38.613c0-7.257-5.886-12.466-13.095-12.466s-12.434 5.209-12.434 12.466c0 6.547 5.225 12.45 12.434 12.45s13.095-5.902 13.095-12.45zM4056.216 303.426c0-19.674-12.466-28.85-34.753-28.85h-42.574v19.674h42.574c3.951 0 7.209 0.661 8.563 1.967 1.322 1.322 2.596 3.322 2.596 5.902 0 2.661-1.306 5.257-2.596 6.547-1.29 1.306-3.951 1.967-7.87 1.967-20.336 0.661-45.896-0.629-45.896 28.205 0 13.127 8.515 27.56 31.463 27.56h43.945v-19.707h-40.687c-3.951 0-6.547 0-8.499-1.306-1.967-1.951-3.322-3.951-3.322-7.209 0-3.29 1.967-5.241 4.612-6.547 2.629-0.661 5.225-1.322 8.515-1.322h11.821c12.466 0 20.336-2.596 25.56-7.209 3.951-4.564 6.547-10.498 6.547-19.674v0zM3963.763 323.1c-5.209 4.612-13.095 7.209-25.544 7.209h-11.805c-3.29 0-5.886 0.661-8.531 1.322-2.629 1.306-4.596 3.29-4.596 6.547s0.661 5.257 3.322 7.209c1.967 1.338 4.564 1.338 8.515 1.338l40.639-0.032v19.707h-43.929c-23.593 0-31.479-14.433-31.479-27.56 0-28.866 25.56-27.544 45.928-28.205 3.919 0 6.547-0.629 7.87-1.967 1.306-1.29 2.629-3.919 2.629-6.547 0-2.58-1.29-4.548-2.629-5.902-1.951-1.306-4.58-1.967-8.531-1.967h-42.574v-19.674h42.574c22.287 0 34.785 9.144 34.785 28.85 0 9.176-2.661 15.078-6.58 19.674v0h-0.065zM3879.857 293.589h-51.798v18.352h50.508v18.336h-50.508v17.078h51.798v19.045h-73.44v-91.792h73.44v18.981zM3782.824 361.772c-7.209 3.951-15.707 4.628-26.851 4.628h-50.476v-91.792h22.303v33.462h23.561c7.87 0 12.466-0.661 15.756-3.951 3.951-4.58 3.951-12.466 3.951-18.352v-11.127h21.593v17.707c0 8.515-0.661 12.466-3.258 17.013-1.951 2.661-5.918 5.918-11.16 7.886 5.918 1.951 15.723 9.805 15.723 24.222 0 10.498-3.935 16.449-11.176 20.336l0.032-0.032zM3658.311 366.4h-70.182l-28.173-30.173-26.867 30.173h-88.518v-91.792h87.196l28.205 30.14 26.883-30.14h42.606v30.802h27.544c19.013 0 38.059 5.257 38.059 30.818-0.032 24.883-19.674 30.14-36.72 30.14l-0.032 0.032zM3765.149 328.309c-3.258-1.29-6.547-1.29-10.466-1.29l-26.851-0.661v20.997h26.851c3.951 0 7.837 0 10.466-1.967 2.661-1.29 4.612-3.951 4.612-7.87s-1.951-7.209-4.612-9.144v-0.065zM3658.311 323.762h-28.85v23.593h28.85c7.837 0 13.062-3.29 13.062-11.127 0-7.918-5.225-12.466-13.062-12.466v0 0zM3573.711 320.504l34.059 36.059v-74.085l-34.059 38.026zM3520.607 293.589h-54.411v18.352h48.525v18.336h-48.525v17.078h55.104l24.254-26.851-24.948-26.915zM3995.242 432.567h-31.479l-41.268 68.812v-68.812h-44.59l-8.547 20.336h-45.896l-8.499-20.336h-25.56c-10.531 0-24.286 2.58-32.124 10.498-7.225 7.87-11.176 18.336-11.176 34.72 0 13.788 1.967 26.222 11.837 36.059 6.547 7.241 18.336 10.498 33.398 10.498h20.997v-19.707h-20.964c-7.886 0-12.466-1.29-17.046-5.209-3.951-3.935-5.918-11.176-5.918-20.981 0-9.837 1.967-17.046 5.918-21.626 3.258-3.258 9.16-4.596 15.078-4.596h9.805l31.479 72.118h32.785l36.72-86.535v86.535h34.075l38.639-63.571v63.571h22.335v-91.776zM3735.008 524.343h-22.303v-91.776h22.303v91.776zM3688.451 520.424c-7.209 3.919-15.094 3.919-26.189 3.919l-50.508 0.032v-91.792h21.658v33.462h23.593c7.854 0 13.127-0.661 16.385-3.951 3.935-4.548 3.29-12.45 3.29-17.675v-11.837h22.303v18.352c0 7.87-0.661 11.821-3.951 16.417-1.967 2.629-5.918 5.918-10.466 7.87 5.854 2.629 15.707 9.837 15.707 24.254 0 10.482-4.612 16.385-11.788 20.948v0h-0.032zM3595.998 451.596h-51.105v18.352h50.476v18.981h-50.476v16.401h51.105v19.013h-73.44v-91.776h73.44v19.029zM3506.174 524.343h-36.043l-26.883-62.281-28.883 62.281h-35.382v-86.535l-37.397 86.535h-32.737l-39.3-91.776h23.561l8.531 20.336h45.864l8.547-20.336h44.557v72.069l32.108-72.069h18.997l32.14 72.069v-72.069h22.303v91.776h0.016zM3861.521 472.561l-15.094 36.059-15.078-36.059h30.173zM3671.373 486.962c-3.258-1.967-6.547-1.967-11.111-1.967h-26.899v20.336h26.899c3.967 0 8.515 0 11.111-1.29 2.629-1.967 3.951-4.612 3.951-8.563 0-3.967-1.29-7.225-3.951-8.515v0zM3309.543 472.561l15.062 36.059 15.094-36.059h-30.157zM4050.959 812.12h-782.054v-330.383l26.851 60.958h57.039l7.87-15.094v15.094h66.893l15.078-32.769 14.433 32.769h213.031c9.837 0 18.352-1.967 24.899-7.225v7.225h58.378v-7.225c9.805 5.257 22.271 7.225 36.688 7.225h84.583l7.87-15.094v15.094h62.297l9.144-15.094v15.094h60.99v-128.48h-61.619l-11.821 19.674v-19.674h-76.698l-8.547 20.932h-19.013l-8.531-20.932h-39.978c-15.723 0-27.544 3.951-35.365 7.87v-7.87h-95.066v29.511c0 3.951-0.661 4.548-3.322 4.548h-3.225v-34.059h-183.6v16.385l-6.547-16.385h-38.671l-6.547 15.723v-15.723h-74.117l-7.837 20.932h-19.045l-8.499-20.932h-38.026v-387.439h782.070v235.366c-8.547-3.951-20.336-5.902-32.14-5.902h-57.023v7.902c-6.547-5.257-18.352-7.902-29.479-7.902h-179.617v29.511c0 3.951-0.661 3.951-3.951 3.951h-3.258v-33.462h-59.023v34.753c-9.805-4.548-20.964-4.548-30.802-4.548l-6.547-0.032v-30.14h-72.102l-17.030 19.658-18.997-19.658h-116.046v128.464h117.965l17.062-19.674 18.304 19.674h79.358c9.176 0 24.286-1.29 30.802-7.837v7.837h70.779c7.241 0 21.013-1.29 30.173-7.837v7.837h106.838v-7.837c5.918 5.241 17.078 7.837 26.883 7.837h59.652v-7.837c6.547 4.548 15.756 7.837 27.544 7.837h40.655v427.417l0.016-0.032z" />
<glyph unicode="&#xe959;" horiz-adv-x="11961" d="M7079.691 411.264c0 163.652-203.339 297.034-454.154 297.034-250.783 0-454.122-133.382-454.122-297.034 0-4.225-0.081-15.965-0.081-17.417 0-173.602 177.762-314.176 454.122-314.176 278.117 0 454.235 140.575 454.235 314.176 0 6.064 0 9.595 0 17.465v-0.048z" />
<glyph unicode="&#xe95a;" horiz-adv-x="11961" d="M7062.275 411.409c0-154.266-195.518-279.359-436.673-279.359-241.139 0-436.657 125.093-436.657 279.359 0 154.298 195.518 279.391 436.657 279.391 241.156 0 436.673-125.093 436.673-279.391z" />
<glyph unicode="&#xe95b;" horiz-adv-x="11961" d="M6480.592 499.54c-0.242-0.387-4.548-4.951-1.742-8.531 6.87-8.789 28.141-13.82 49.686-9.031 12.756 2.871 29.205 15.901 45.203 28.576 17.255 13.724 34.333 27.399 51.556 32.882 18.191 5.822 29.866 3.258 37.591 0.968 8.45-2.467 18.449-8.047 34.253-19.932 29.866-22.513 150.009-127.432 170.747-145.429 16.772 7.531 90.986 39.494 191.986 61.748-8.789 53.798-41.526 103.129-91.179 143.477-69.215-29.060-153.847-44.299-236.56-3.838-0.387 0.161-45.186 21.4-89.341 20.271-65.619-1.5-94.098-29.931-124.126-59.942l-38.042-41.123-0.032-0.097z" />
<glyph unicode="&#xe95c;" horiz-adv-x="11961" d="M6863.016 367.545c-1.435 1.258-141.284 123.61-172.908 147.412-18.368 13.724-28.576 17.32-39.284 18.674-5.58 0.726-13.24-0.323-18.674-1.742-14.756-3.983-34.011-16.933-51.169-30.511-17.723-14.111-34.398-27.399-49.911-30.898-19.787-4.467-43.961 0.79-54.975 8.241-4.467 3.048-7.563 6.467-9.111 9.982-4.064 9.418 3.451 17.030 4.709 18.287l38.623 41.768c4.467 4.467 9.015 8.918 13.643 13.337-12.466-1.613-23.964-4.806-35.188-7.918-13.966-3.919-27.399-7.66-41.026-7.66-5.677 0-36.091 4.951-41.832 6.547-34.962 9.595-65.619 18.836-111.353 40.252-54.862-40.881-91.582-91.969-102.194-148.17 7.902-2.080 20.61-5.918 25.948-7.031 124.222-27.609 162.861-56.007 169.86-62.006 7.579 8.45 18.594 13.788 30.818 13.788 13.724 0 26.093-6.854 33.608-17.529 7.096 5.58 16.917 10.385 29.624 10.385 5.757 0 11.74-1.032 17.675-3.112 14.062-4.806 21.255-14.127 24.996-22.593 4.709 2.129 10.466 3.677 17.255 3.677 6.692 0 13.627-1.516 20.658-4.564 22.9-9.805 26.431-32.334 24.351-49.234 1.597 0.145 3.258 0.242 4.951 0.242 27.157 0 49.25-22.126 49.25-49.234 0-8.402-2.145-16.304-5.918-23.238 7.321-4.161 26.189-13.579 42.784-11.401 13.175 1.677 18.191 6.144 20.029 8.676 1.209 1.758 2.564 3.741 1.355 5.289l-35.059 38.945c0 0-5.757 5.435-3.822 7.579 1.919 2.145 5.515-0.968 8.047-3.048 17.9-14.933 39.591-37.349 39.591-37.349 0.339-0.242 1.838-3.112 9.902-4.564 6.934-1.209 19.239-0.484 27.689 6.467 2.145 1.742 4.322 3.983 6.064 6.209-0.145-0.097-0.242-0.339-0.387-0.339 8.934 11.498-0.968 23.093-0.968 23.093l-40.945 45.88c0 0-5.822 5.435-3.822 7.579 1.742 1.935 5.515-0.968 8.144-3.112 12.933-10.853 31.221-29.205 48.783-46.364 3.435-2.564 18.82-12.079 39.284 1.355 12.369 8.144 14.836 18.126 14.546 25.609-0.871 9.998-8.628 17.078-8.628 17.078l-55.878 56.217c0 0-5.918 5.031-3.838 7.547 1.693 2.129 5.515-0.968 8.063-3.032 17.788-14.933 66.006-59.071 66.006-59.071 0.726-0.484 17.32-12.369 37.93 0.79 7.338 4.709 12.063 11.821 12.466 20.029 0.726 14.304-9.418 22.754-9.418 22.754l-0.339 0.032z" />
<glyph unicode="&#xe95d;" horiz-adv-x="11961" d="M6592.026 296.33c-8.644 0.097-18.142-5.031-19.416-4.306-0.71 0.484 0.484 3.919 1.371 5.967 0.871 2.048 12.208 36.333-15.578 48.218-21.303 9.111-34.237-1.113-38.704-5.822-1.209-1.209-1.693-1.113-1.838 0.387-0.403 6.16-3.209 22.9-21.545 28.512-26.222 7.999-43.090-10.289-47.396-16.917-1.935 14.982-14.546 26.576-30.028 26.576-16.836 0-30.511-13.643-30.511-30.511 0-16.852 13.643-30.415 30.511-30.415 8.144 0 15.562 3.274 21.093 8.45 0.145-0.145 0.242-0.387 0.145-1.016-1.258-7.515-3.596-34.882 25.077-46.073 11.498-4.467 21.303-1.113 29.35 4.548 2.387 1.693 2.806 0.968 2.483-1.258-1.032-7.031 0.323-22.126 21.48-30.656 16.046-6.547 25.609 0.145 31.866 5.918 2.709 2.467 3.435 2.080 3.58-1.758 0.79-20.432 17.707-36.575 38.236-36.623 21.142 0 38.397 17.078 38.397 38.317s-17.159 38.075-38.317 38.317l-0.258 0.145z" />
<glyph unicode="&#xe95e;" horiz-adv-x="11961" d="M6592.026 222.407c-19.174 0-34.833 14.949-35.527 33.914 0 1.613-0.242 5.983-3.822 5.983-1.516 0-2.871-0.968-4.322-2.242-4.225-3.919-9.595-7.902-17.4-7.902-3.596 0-7.434 0.871-11.498 2.483-20.271 8.225-20.61 22.109-19.787 27.689 0.226 1.516 0.323 3.048-0.726 4.225l-1.274 1.113-1.29 0.032c-1.032 0-2.064-0.387-3.483-1.451-5.902-4.161-11.482-6.064-17.255-6.064-3.096 0-6.386 0.645-9.595 1.935-26.673 10.385-24.593 35.607-23.319 43.122 0.145 1.597-0.242 2.709-1.209 3.499l-1.935 1.597-1.742-1.693c-5.193-5.031-11.982-7.757-19.158-7.757-15.336 0-27.786 12.466-27.786 27.705s12.45 27.689 27.786 27.689c13.82 0 25.56-10.369 27.302-24.19l0.968-7.418 4.080 6.305c0.468 0.71 11.643 17.707 32.253 17.642 3.919 0 7.983-0.629 12.030-1.935 16.449-5.031 19.255-19.884 19.642-26.093 0.339-3.596 2.871-3.741 3.354-3.741 1.451 0 2.467 0.871 3.193 1.693 3.112 3.193 9.805 8.628 20.368 8.628 4.79 0 9.982-1.113 15.24-3.435 26.093-11.176 14.304-44.299 14.111-44.719-2.225-5.531-2.322-7.999-0.242-9.353l1.032-0.484 0.839 0.032c1.209 0 2.629 0.484 5.048 1.355 3.499 1.209 8.934 3.048 13.885 3.048v0c19.642-0.242 35.591-16.207 35.591-35.607 0-19.642-16.046-35.511-35.591-35.511l0.242-0.097zM6868.45 382.236c-43.106 37.559-142.655 124.093-169.618 144.364-15.417 11.595-25.948 17.723-35.123 20.432-4.161 1.274-9.902 2.709-17.255 2.709-6.886 0-14.207-1.193-21.884-3.677-17.465-5.515-34.817-19.303-51.556-32.64l-0.871-0.726c-15.659-12.466-31.785-25.319-44.090-28.028-5.338-1.209-10.853-1.838-16.288-1.838-13.74 0-26.012 3.983-30.624 9.805-0.79 0.968-0.339 2.564 1.5 4.79l0.242 0.339 37.897 40.881c29.689 29.689 57.717 57.717 122.287 59.168 1.032 0 2.145 0.081 3.193 0.081 40.171 0 80.326-18.029 84.793-20.11 37.688-18.384 76.536-27.705 115.675-27.802 40.703 0 82.793 10.047 126.932 30.415-4.951 4.161-10.047 8.144-15.32 12.127-38.8-16.836-75.859-25.302-111.466-25.302-36.478 0.081-72.892 8.773-108.257 26.028-1.838 0.887-46.219 21.787-92.356 21.787-1.193 0-2.371 0-3.58-0.081-54.217-1.274-84.793-20.529-105.306-37.365-19.932-0.484-37.204-5.273-52.492-9.595-13.74-3.741-25.464-7.080-37.059-7.080-4.79 0-13.24 0.387-14.062 0.484-13.24 0.387-79.987 16.772-133.14 36.865-5.435-3.838-10.627-7.821-15.723-11.837 55.491-22.738 123.013-40.3 144.348-41.751 5.902-0.387 12.208-1.032 18.513-1.032 14.127 0 28.189 3.935 41.832 7.757 7.966 2.242 16.884 4.709 26.206 6.547-2.467-2.467-4.935-4.951-7.499-7.418l-38.446-41.671c-3.048-3.048-9.66-11.256-5.273-21.303 1.742-4.064 5.273-7.983 10.127-11.256 9.176-6.144 25.528-10.369 40.865-10.369 5.757 0 11.24 0.564 16.288 1.693 16.11 3.58 33.043 17.078 51.024 31.366 14.288 11.353 34.575 25.802 50.137 30.028 4.322 1.209 9.66 1.935 13.966 1.935 1.274 0 2.483-0.097 3.596-0.242 10.289-1.274 20.19-4.806 37.93-18.142 31.624-23.706 171.457-146.058 172.828-147.267 0.081-0.081 9.015-7.757 8.386-20.61-0.339-7.080-4.322-13.482-11.16-17.884-5.983-3.741-12.143-5.677-18.384-5.677-9.353 0-15.804 4.403-16.207 4.709-0.484 0.387-48.444 44.38-66.102 59.168-2.806 2.29-5.515 4.37-8.289 4.37-1.451 0-2.806-0.629-3.693-1.742-2.806-3.419 0.339-8.128 3.983-11.224l55.975-56.281c0.097-0.081 6.934-6.547 7.757-15.175 0.484-9.353-3.983-17.159-13.256-23.222-6.628-4.322-13.24-6.547-19.868-6.547-8.644 0-14.611 3.919-15.965 4.854l-7.999 7.902c-14.691 14.449-29.866 29.382-40.945 38.655-2.709 2.225-5.58 4.306-8.386 4.306-1.355 0-2.564-0.484-3.499-1.5-1.274-1.451-2.145-3.919 1.032-8.144 1.258-1.693 2.806-3.112 2.806-3.112l40.881-45.896c0.323-0.387 8.386-9.982 0.968-19.545l-1.451-1.838c-1.209-1.355-2.564-2.629-3.741-3.693-6.951-5.757-16.304-6.386-19.948-6.386-1.984 0-3.919 0.242-5.515 0.484-4.080 0.726-6.709 1.838-8.063 3.435l-0.484 0.484c-2.225 2.322-22.835 23.319-39.913 37.526-2.242 1.935-5.048 4.225-7.902 4.225-1.451 0-2.725-0.564-3.693-1.677-3.338-3.693 1.693-9.176 3.838-11.256l34.882-38.413c-0.097-0.339-0.484-1.113-1.355-2.322-1.274-1.693-5.435-5.983-18.142-7.515-1.5-0.242-3.096-0.339-4.612-0.339-12.998 0-26.915 6.322-34.091 10.144 3.258 6.886 4.951 14.546 4.951 22.126 0 28.657-23.335 52.040-51.96 52.040-0.629 0-1.274 0-1.838 0 0.968 13.095-0.968 37.833-26.351 48.783-7.321 3.209-14.691 4.806-21.722 4.806-5.58 0-10.918-0.968-15.901-2.871-5.273 10.224-14.062 17.707-25.464 21.545-6.305 2.145-12.579 3.225-18.642 3.225-10.627 0-20.368-3.080-29.060-9.224-8.289 10.337-20.9 16.497-34.156 16.497-11.579 0-22.738-4.612-31.043-12.821-10.853 8.257-53.879 35.575-168.99 61.764-5.58 1.258-18.384 4.935-26.189 7.176-1.274-6.209-2.322-12.53-2.951-18.836 0 0 21.239-5.096 25.367-6.064 117.675-26.093 156.475-53.282 163.087-58.41-2.242-5.338-3.451-11.095-3.451-16.917 0-24.27 19.739-44.090 44.090-44.090 2.709 0 5.419 0.242 8.047 0.726 3.693-17.884 15.417-31.431 33.285-38.413 5.273-1.984 10.531-3.048 15.723-3.048 3.338 0 6.692 0.403 10.047 1.274 3.258-8.386 10.676-18.836 27.367-25.609 5.822-2.338 11.643-3.596 17.32-3.596 4.612 0 9.16 0.79 13.482 2.387 7.999-19.4 26.915-32.253 48.057-32.253 13.982 0 27.463 5.66 37.301 15.707 8.386-4.693 26.093-13.095 43.993-13.095 2.322 0 4.548 0.161 6.692 0.403 17.804 2.225 26.044 9.16 29.866 14.594 0.726 0.968 1.274 1.935 1.838 2.967 4.177-1.209 8.789-2.242 14.062-2.242 9.757 0 19.078 3.354 28.431 10.224 9.257 6.644 15.804 16.304 16.772 24.448 0 0.145 0.097 0.242 0.097 0.323 3.096-0.629 6.305-0.951 9.499-0.951 9.982 0 19.787 3.096 29.205 9.257 18.126 11.821 21.239 27.399 20.997 37.526 3.112-0.629 6.402-0.951 9.595-0.951 9.418 0 18.594 2.806 27.399 8.386 11.256 7.176 17.949 18.191 19.013 30.979 0.726 8.692-1.451 17.465-6.064 24.98 30.318 13.095 99.775 38.381 181.455 56.814-0.484 6.305-1.451 12.611-2.564 18.836-98.855-21.964-172.682-53.895-191.115-62.071l-0.306 0.339z" />
<glyph unicode="&#xe95f;" horiz-adv-x="11961" d="M8586.567 482.704c-7.999-10.531-19.303-15.804-34.156-15.804-14.836 0-26.254 5.273-34.253 15.804-8.047 10.531-12.063 25.56-12.063 45.025 0 19.449 3.983 34.382 12.063 44.945 7.999 10.531 19.497 15.723 34.253 15.723s26.254-5.273 34.156-15.723c7.902-10.434 11.982-25.464 11.982-44.945 0-19.497-3.983-34.495-11.982-45.025zM8627.173 600.524c-16.352 20.513-41.268 30.802-74.65 30.802-33.366 0-58.249-10.289-74.633-30.802-16.352-20.513-24.593-44.767-24.593-72.795 0-28.512 8.241-52.863 24.593-73.15 16.352-20.271 41.268-30.318 74.633-30.318 33.382 0 58.265 10.144 74.65 30.318 16.449 20.287 24.593 44.638 24.593 73.15 0 28.028-8.144 52.282-24.593 72.795z" />
<glyph unicode="&#xe960;" horiz-adv-x="11961" d="M8182.405 506.717c-0.323-17.013-5.177-28.802-14.594-35.204s-19.642-9.74-30.753-9.74c-7.015 0-12.998 1.984-17.884 5.822-4.886 3.822-7.338 10.127-7.338 18.82 0 9.757 3.983 16.933 12.079 21.642 4.79 2.709 12.514 5.031 23.383 6.934l11.579 2.145c5.757 1.113 10.289 2.225 13.643 3.499 3.338 1.258 6.628 2.871 9.886 4.951v-18.868zM8208.272 617.699c-16.594 8.386-35.688 12.692-57.088 12.692-32.882 0-56.12-8.628-69.699-25.706-8.531-10.998-13.24-24.98-14.353-41.993h49.17c1.209 7.515 3.596 13.482 7.273 17.9 5.096 5.967 13.724 8.918 25.867 8.918 10.853 0 19.158-1.5 24.738-4.548s8.45-8.547 8.45-16.53c0-6.547-3.693-11.353-11.014-14.465-4.080-1.742-10.869-3.258-20.368-4.467l-17.417-2.129c-19.787-2.483-34.817-6.709-45.009-12.53-18.594-10.708-27.947-28.028-27.947-52.040 0-18.433 5.773-32.737 17.32-42.784 11.563-10.047 26.254-14.304 43.993-15.094 111.208-4.951 109.918 58.604 110.966 71.844v73.134c0 23.48-8.289 39.445-24.915 47.912l0.032-0.113z" />
<glyph unicode="&#xe961;" horiz-adv-x="11961" d="M7954.65 586.801c12.756 0 22.013-3.919 28.076-11.821 4.177-5.838 6.709-12.385 7.757-19.642h54.862c-3.048 27.689-12.708 46.993-29.060 57.959-16.352 10.95-37.349 16.352-63.055 16.352-30.269 0-53.975-9.273-71.118-27.786-17.142-18.529-25.802-44.477-25.802-77.762 0-29.544 7.757-53.556 23.319-72.085 15.578-18.513 39.832-27.786 72.714-27.786 32.979 0 57.878 11.111 74.746 33.285 10.531 13.82 16.352 28.415 17.642 43.832l-54.733 0.032c-1.113-10.224-4.306-18.529-9.595-24.915-5.273-6.402-14.111-9.595-26.722-9.595-17.659 0-29.689 8.047-36.188 24.254-3.499 8.628-5.273 20.029-5.273 34.253 0 14.933 1.758 26.915 5.273 35.93 6.709 17.013 19.013 25.56 37.059 25.56l0.097-0.065z" />
<glyph unicode="&#xe962;" horiz-adv-x="11961" d="M7841.684 629.729c-112.692 0-105.999-99.775-105.999-99.775v-101.323l51.121 0.032v95.082c0 15.562 1.951 27.141 5.87 34.575 7.031 13.24 20.771 19.932 41.187 19.932 1.516 0 3.499-0.081 6.064-0.242 2.564-0.145 5.338-0.323 8.628-0.71v52.040c-2.322 0.145-3.741 0.242-4.403 0.339-0.661 0.081-1.451 0.081-2.387 0.081l-0.081-0.032z" />
<glyph unicode="&#xe963;" horiz-adv-x="11961" d="M7585.16 576.818c7.176 7.418 17.32 11.095 30.318 11.095 12.079 0 22.029-3.499 30.173-10.466s12.611-17.255 13.482-30.656h-87.486c1.838 12.611 6.305 22.658 13.482 30.028h0.032zM7653.891 481.591c-2.145-3.048-4.467-5.677-7.031-7.757-7.176-5.967-17.013-7.757-28.576-7.757-10.918 0-19.481 1.693-27.205 6.547-12.772 7.821-19.948 21.093-20.674 40.558h141.445c0.242 16.772-0.339 29.624-1.693 38.558-2.322 15.175-7.515 28.657-15.481 40.155-8.773 13.095-20.029 22.658-33.608 28.754s-28.754 9.111-45.654 9.111c-28.512 0-51.653-8.934-69.441-26.915-17.804-17.981-26.738-43.751-26.738-77.359 0-35.93 9.902-61.877 29.689-77.746s42.542-23.964 68.392-23.964c31.302 0 55.636 9.418 73.15 28.334 9.353 9.902 15.223 19.787 17.707 29.544h-54.217l-0.065-0.065z" />
<glyph unicode="&#xe964;" horiz-adv-x="11961" d="M7498.69 428.664h-46.702v117.578c0 10.724-3.516 36.333-34.349 36.333-20.61 0-35.446-14.852-35.446-36.333v-117.578h-46.767v117.578c0 10.724-3.193 36.333-34.011 36.333-20.9 0-35.446-14.852-35.446-36.333v-117.578h-46.67v116.466c0 48.557 32.253 85.261 82.148 85.261 24.738 0 44.961-10.466 58.055-27.141 13.82 16.675 34.333 27.141 58.055 27.141 51.024 0 81.036-35.204 81.036-85.261v-116.466h0.097z" />
<glyph unicode="&#xe965;" horiz-adv-x="11961" d="M8376.777 482.317c-7.418-10.708-18.433-16.062-32.801-16.062-14.353 0-25.061 5.435-32.156 16.126-7.031 10.756-10.531 26.431-10.531 44.38 0 16.594 3.435 30.56 10.385 41.751 6.934 11.192 17.804 16.836 32.64 16.836 9.74 0 18.287-3.048 25.706-9.257 11.982-10.24 17.949-28.512 17.949-52.298 0-17.013-3.741-30.802-11.256-41.51l0.065 0.032zM8438.058 691.22c0 0-51.476 5.531-51.476-35.93v-54.766c-5.66 9.176-13.095 16.304-22.271 21.48-9.16 5.193-19.545 7.757-31.366 7.757-25.56 0-45.896-9.499-61.168-28.512-15.256-19.013-22.835-46.38-22.835-79.504 0-28.754 7.757-52.282 23.238-70.715 15.465-18.449 45.88-26.351 72.892-26.351 94.163 0 93.050 80.81 93.050 80.81l0.081 185.858-0.145-0.129z" />
<glyph unicode="&#xe966;" horiz-adv-x="11961" d="M7678.387 242.5c0 19.32-3.741 34.108-11.256 44.477-7.515 10.385-18.287 15.659-32.334 15.659-13.498 0-24.028-5.273-31.624-15.659-6.934-9.418-10.466-24.254-10.466-44.477 0-18.82 3.741-32.882 11.256-42.3 7.499-10.369 18.271-15.659 32.334-15.659 13.014 0 23.319 5.193 30.802 15.659 7.483 10.482 11.256 24.448 11.256 42.3v0h0.032zM7592.74 104.167c0-6.87-2.483-12.853-7.579-17.804s-11.014-7.418-18.046-7.418h-25.56v177.714c0 34.575 11.659 56.217 30.818 70.811 12.692 9.66 31.527 18.836 66.893 18.836 23.851 0 51.798-9.273 66.877-27.705 16.933-20.674 23.964-43.751 23.964-73.924 0-31.221-7.515-56.362-22.513-75.666-14.998-18.836-34.333-28.189-57.862-28.189-12.53 0-23.561 2.242-33.043 6.644-10.047 4.951-18.046 12.611-24.012 22.996v-66.409l0.065 0.113z" />
<glyph unicode="&#xe967;" horiz-adv-x="11961" d="M7984.823 242.5c0-34.091 9.886-52.911 29.528-56.685s34.156 0.968 43.509 13.724c4.467 5.435 7.579 13.966 9.595 25.56 2.016 11.579 2.145 23.142 0.339 34.478-1.693 11.418-5.773 21.497-12.224 30.415-6.451 8.934-15.723 13.337-28.028 13.337-16.772 0-28.028-6.209-34.011-18.513-5.967-12.321-8.87-26.431-8.87-42.316v0h0.161zM8068.971 157.272v12.514c-8.87-13.804-20.852-22.416-35.849-25.851s-29.931-2.225-44.622 3.741c-14.756 5.918-27.463 16.933-38.075 32.882-10.627 15.965-15.82 37.204-15.82 63.458 0 30.56 7.031 55.395 21.013 74.408 13.966 18.997 36.559 27.689 67.602 28.512 30.511 0.774 48.315-6.064 65.715-19.255 19.013-14.449 30.269-36.559 30.269-71.118v-104.484c0.081-33.269-23.142-94.921-95.953-89.728-45.106 3.258-70.182 21.787-84.148 63.7h53.862c3.919-6.886 9.886-12.224 18.126-15.901 8.241-3.693 16.304-4.709 24.351-2.967 8.144 1.758 15.481 6.547 22.206 14.449 6.725 7.918 10.466 19.803 11.401 35.607l-0.081 0.032z" />
<glyph unicode="&#xe968;" horiz-adv-x="11961" d="M7865.1 221.842c-0.339-17.013-5.193-28.754-14.546-35.22-9.353-6.451-19.642-9.644-30.753-9.644-7.031 0-12.998 1.919-17.884 5.822-4.886 3.886-7.338 10.224-7.338 18.916 0 9.74 3.983 16.933 12.079 21.545 4.79 2.709 12.514 5.096 23.383 6.934l11.579 2.145c5.822 1.113 10.385 2.225 13.643 3.499s6.628 2.871 9.886 4.854v-18.916l-0.048 0.065zM7890.854 332.905c-16.594 8.386-35.591 12.708-57.072 12.708-32.898 0-56.104-8.644-69.666-25.722-8.45-10.918-13.256-24.98-14.369-41.993h49.154c1.209 7.515 3.58 13.482 7.273 17.9 5.096 5.967 13.724 8.918 25.851 8.918 10.918 0 19.158-1.5 24.738-4.548s8.45-8.628 8.45-16.53c0-6.547-3.677-11.353-11.014-14.465-4.064-1.742-10.853-3.258-20.368-4.467l-17.4-2.129c-19.803-2.483-34.785-6.709-44.993-12.53-18.578-10.772-27.931-28.092-27.931-52.040 0-18.433 5.757-32.737 17.32-42.784 11.547-10.047 26.238-14.304 43.961-15.094 111.112-4.951 109.902 58.604 110.966 71.844v73.134c0 23.48-8.305 39.445-24.98 47.912l0.081-0.113z" />
<glyph unicode="&#xe969;" horiz-adv-x="11961" d="M8271.955 199.007c-7.983-10.531-19.303-15.901-34.14-15.901-14.852 0-26.351 5.273-34.349 15.901-8.047 10.514-12.063 25.544-12.063 45.009s3.983 34.398 12.063 44.961c7.999 10.531 19.4 15.707 34.349 15.707 14.933 0 26.238-5.177 34.14-15.707 7.999-10.531 11.901-25.464 11.901-44.961s-3.983-34.495-11.901-45.009v0zM8312.61 316.763c-16.352 20.513-41.284 30.802-74.746 30.802s-58.265-10.224-74.633-30.802c-16.368-20.513-24.593-44.783-24.593-72.811 0-28.512 8.225-52.863 24.593-73.134 16.352-20.19 41.268-30.318 74.633-30.318 33.382 0 58.265 10.127 74.746 30.318 16.352 20.271 24.496 44.622 24.496 73.134 0 28.028-8.144 52.298-24.496 72.811z" />
<glyph unicode="&#xe96a;" horiz-adv-x="11961" d="M762.074 583.334c-89.905-0.484-153.057-48.815-153.589-117.804-0.581-51.331 45.541-79.939 80.31-97.001 35.736-17.465 47.702-28.657 47.589-44.267-0.29-23.948-28.512-34.495-54.927-34.898-46.090-0.71-72.876 12.514-94.195 22.513l-16.61-78.084c21.416-9.869 60.974-18.513 102.016-18.949 96.388 0 159.394 47.831 159.701 121.932 0.403 94.050-129.399 99.259-128.512 141.284 0.274 12.772 12.369 26.351 38.913 29.834 13.111 1.709 49.363 3.064 90.421-15.949l16.11 75.601c-21.819 7.918-49.766 15.578-84.503 15.788h-2.725zM1004.277 576.802c-17.61 0-32.447-10.289-39.058-26.141l-137.64-330.238h96.324l19.142 53.266h117.643l11.111-53.266h84.841l-74.053 356.379h-78.31zM1017.743 480.527l27.77-133.818h-76.069l48.299 133.818zM491.794 576.802l-75.875-356.379h91.744l75.859 356.379h-91.727zM356.073 576.802l-95.469-242.559-38.623 206.242c-4.515 23.045-22.432 36.317-42.3 36.317h-156.104l-2.177-10.305c32.043-7.047 68.457-18.304 90.486-30.334 13.514-7.37 17.368-13.82 21.819-31.318l73.118-284.423h96.985l148.622 356.379h-96.356z" />
<glyph unicode="&#xe96b;" glyph-name="visa" data-tags="visa" d="M658.99 604.501c-76.363-0.421-130.002-41.453-130.46-100.058-0.495-43.597 38.685-67.896 68.226-82.392 30.347-14.825 40.5-24.336 40.408-37.604-0.238-20.323-24.226-29.303-46.657-29.633-39.144-0.605-61.886 10.629-80.010 19.132l-14.092-66.339c18.179-8.375 51.788-15.723 86.644-16.090 81.861 0 135.371 40.628 135.646 103.577 0.33 79.881-109.917 84.298-109.166 119.996 0.238 10.849 10.519 22.376 33.059 25.344 11.124 1.429 41.929 2.584 76.803-13.561l13.689 64.213c-18.527 6.744-42.277 13.231-71.782 13.414h-2.309zM864.714 598.948c-14.972 0-27.58-8.723-33.188-22.192l-116.899-280.492h81.806l16.255 45.228h99.93l9.438-45.228h72.056l-62.894 302.685h-66.504zM876.13 517.179l23.585-113.656h-64.598l41.013 113.656zM429.425 598.948l-64.451-302.685h77.921l64.433 302.685h-77.902zM314.138 598.948l-81.073-205.998-32.821 175.156c-3.83 19.572-19.040 30.842-35.918 30.842h-132.586l-1.851-8.76c27.214-5.974 58.147-15.54 76.858-25.748 11.472-6.267 14.752-11.747 18.527-26.609l62.106-241.569h82.374l126.227 302.685h-81.842z" />
</font>
</defs>
</svg>
