<!DOCTYPE svg PUBLIC "-//W3C//DTD SVG 1.1//EN" "http://www.w3.org/Graphics/SVG/1.1/DTD/svg11.dtd">
<svg xmlns="http://www.w3.org/2000/svg" viewBox="0 0 508 556">
<path fill="#fcf304" stroke="#fcf304" d="M228 47.058c-66.369 8.161-125.506 44.236-162.657 99.226-3.635 5.38-6.338 10.055-6.006 10.387.333.332 14.005-1.536 30.384-4.15 16.378-2.615 31.579-4.925 33.779-5.135 2.2-.21 23.979-3.57 48.398-7.467 45.871-7.321 49.301-7.568 52.715-3.792 3.532 3.907 2.396 10.344-6.156 34.873-10.535 30.215-9.292 28.959-32.167 32.509l-4.211.653 2.529 3.822c4.81 7.269 6.591 17.349 4.409 24.956-.54 1.885-.774 3.636-.519 3.891.255.255 13.41-1.187 29.233-3.206 37.353-4.764 38.133-4.729 45.395 2.058l2.626 2.454 2.182-3.531c11.464-18.548 67.957-29.842 84.845-16.961 1.847 1.409 4.629 4.316 6.183 6.461l2.825 3.901 3.162-4.927c8.785-13.691 18.616-18.938 41.464-22.129 7.652-1.069 13.982-2.058 14.065-2.197.084-.14 3.498-11.712 7.587-25.717 4.089-14.004 8.404-26.897 9.587-28.65l2.152-3.188-6.52-8.349C398.94 88.874 348.621 58.871 292.5 48.907c-13.619-2.418-51.125-3.493-64.5-1.849m-95 108.605c-95.127 15.139-87.121 13.671-90.492 16.594-2.469 2.14-17.503 46.081-16.209 47.375.247.248 13.831-1.843 30.187-4.646 16.355-2.803 29.956-4.877 30.225-4.608.269.268-13.077 44.223-29.656 97.677-16.58 53.454-29.972 97.361-29.761 97.573.556.556 43.937-6.549 45.631-7.474.835-.456 13.908-41.352 31.556-98.716l30.13-97.938 32.242-5.083c21.014-3.313 32.689-5.576 33.528-6.5 1.502-1.654 16.947-45.522 16.453-46.728-.184-.448-37.909 5.165-83.834 12.474m328.55-8.544c-8.773 1.621-16.063 3.061-16.202 3.199-.138.139-4.049 13.045-8.69 28.68-4.641 15.636-8.825 28.545-9.298 28.687-.473.142-8.014 1.175-16.758 2.297-32.567 4.176-38.968 11.336-52.761 59.018-9.203 31.813-9.229 31.927-8.427 37.272 1.303 8.691 9.853 16.728 17.796 16.728 4.739 0 61.177-8.07 61.875-8.848.322-.359 12.198-38.227 26.392-84.152 14.194-45.925 26.016-84.062 26.272-84.75.653-1.756-1.818-1.527-20.199 1.869M147.463 204.53c-25.052 9.274-18.749 42.927 8.037 42.914 24.847-.012 33.776-30.59 12.154-41.621-5.258-2.682-14.789-3.292-20.191-1.293m323.713 8.571c-.592 1.869-8.103 26.094-16.69 53.833-16.379 52.91-16.373 52.893-19.075 55.148-1.658 1.384-62.441 11.019-68.911 10.923-7.814-.115-18.861-6.706-22.435-13.384-1.883-3.518-2.182-3.359-5.002 2.67-6.922 14.799-19.607 21.265-49.364 25.163-31.158 4.082-42.435.897-49.341-13.933-3.11-6.677-2.986-12.034.658-28.506 1.641-7.417 2.984-13.743 2.984-14.058 0-.315-6.863.261-15.25 1.281-13.457 1.637-15.611 1.685-18.317.412l-3.066-1.443-3.617 11.147c-1.989 6.13-7.062 21.893-11.274 35.028-5.685 17.728-8.286 24.464-10.093 26.139-2.566 2.378-3.782 2.61-31.383 5.98-7.425.907-14.85 2.037-16.5 2.511-1.65.474-8.175 1.575-14.5 2.446-6.325.87-13.3 2.044-15.5 2.608-2.2.564-6.237 1.15-8.971 1.301l-4.971.276-3.668 11.685c-4.472 14.243-5.727 16.282-10.887 17.671-2.202.593-4.003 1.406-4.003 1.807s4.434 5.925 9.854 12.276c79.31 92.933 219.782 105.497 315.646 28.233 66.884-53.908 97.559-141.95 78.852-226.315-3.135-14.137-3.743-15.418-5.176-10.899m-419.91 12.698c-15.551 2.707-20.35 3.891-20.74 5.119-3.331 10.496-4.854 50.58-2.605 68.582 1.78 14.247 7.581 41.331 8.628 40.284C36.879 339.455 73 223.17 73 222.439c0-.241-.338-.377-.75-.3-.412.076-9.855 1.723-20.984 3.66m261.234-2.252c-15.452 2.876-25.881 7.1-32.706 13.246-11.594 10.44-34.223 74.47-31.264 88.462 2.418 11.437 7.708 14.193 25.82 13.452 27.114-1.109 42.229-5.185 50.675-13.664C328.998 321.054 341 296.394 341 292.22c0-.447-7.974.558-17.721 2.234l-17.72 3.046-2.164 3.862c-4.503 8.037-12.901 12.348-16.233 8.333-1.168-1.407 1.443-15.634 3.19-17.381.282-.281 12.232-2.631 26.556-5.222 14.325-2.591 26.204-4.909 26.398-5.152.194-.242 2.728-9.343 5.632-20.224 5.788-21.691 5.997-25.512 1.749-31.893-4.744-7.124-20.085-9.645-38.187-6.276m99.329 13.755c-8.005 1.273-8.592 2.236-17.202 28.198-8.135 24.533-8.656 27.039-5.811 27.942 1.53.485 12.269-.956 12.659-1.699.431-.821 16.4-55.18 16.232-55.253-.114-.049-2.759.316-5.878.812M208.5 244.697c-18.7 2.457-34.308 4.768-34.685 5.135-.737.718-35.903 111.413-35.517 111.799.944.944 37.162-5.434 37.869-6.668.46-.805 6.479-19.238 13.374-40.963 13.947-43.946 13.462-43 22.07-43 6.075 0 5.945-.235 3.821 6.917-.862 2.904-1.425 5.423-1.25 5.596.175.174 8.309-.632 18.076-1.791l17.759-2.108 4.491-14.194c5.328-16.835 5.452-18.614 1.569-22.497-3.851-3.851-5.138-3.803-47.577 1.774m-62.956 8.441c-8.775 1.617-16.041 3.035-16.147 3.151-.526.579-35.491 111.942-35.216 112.166 1.179.962 35.078-5.154 35.774-6.455.596-1.115 31.464-99.276 34.669-110.25.652-2.234.533-2.226-19.08 1.388m156.118 2.854c-3.296 2.894-7.327 10.766-6.52 12.734.197.48 4.062.224 8.589-.569 9.104-1.595 9.918-2.599 9.096-11.224-.476-4.998-6.013-5.465-11.165-.941" fill-rule="evenodd"/>
<path fill="#f45b23" stroke="#f45b23" d="M236.768 93.04c-38.465 4.028-74.352 19.721-103.736 45.364-4.982 4.347-8.924 8.037-8.761 8.2.163.163 21.355-3.06 47.094-7.162 44.768-7.135 46.942-7.39 50.139-5.873 3.973 1.885 6.968 7.413 6.034 11.137-.567 2.257-.384 2.474 1.663 1.976 36.525-8.891 83.799 4.778 113.652 32.861 10.063 9.467 24.166 28.014 26.402 34.721.188.566 3.144-1.034 6.569-3.555 8.486-6.248 14.902-8.415 30.709-10.376 7.407-.919 13.467-1.941 13.467-2.271 0-.33-2.587-5.219-5.75-10.865-35.964-64.206-106.44-101.594-177.482-94.157M170.5 150.027c-23.1 3.735-60.666 9.756-83.479 13.38-39.89 6.337-41.584 6.695-44.22 9.341-2.46 2.47-17.374 45.346-16.186 46.534.182.182 13.955-2.013 30.608-4.877 16.652-2.864 30.382-5.11 30.509-4.99.128.119-13.325 43.958-29.897 97.42-16.571 53.462-29.847 97.486-29.502 97.832.607.606 44.405-6.072 45.23-6.897.224-.224 13.959-44.477 30.521-98.339 16.563-53.862 30.182-97.999 30.265-98.083.083-.083 14.543-2.45 32.132-5.259 24.48-3.909 32.358-5.515 33.589-6.848.884-.958 4.797-10.966 8.695-22.241 3.898-11.275 7.394-21.287 7.768-22.25.927-2.383 2.332-2.544-46.033 5.277m293.5-2.848c-9.075 1.556-16.97 3.002-17.544 3.214-.575.213-4.812 13.149-9.417 28.747-4.604 15.598-8.444 28.469-8.532 28.603-.088.134-8.118 1.321-17.844 2.638-26.244 3.554-31.93 7.151-41.222 26.078-3.691 7.517-15.159 44.348-19.761 63.466-1.81 7.516 4.034 17.734 12.212 21.351l4.392 1.943 30.941-4.331c23.545-3.296 31.134-4.696 31.748-5.859 1.384-2.622 52.165-167.124 51.837-167.923-.17-.415-7.735.517-16.81 2.073m-314.208 57.185c-26.627 7.383-22.001 42.713 5.58 42.614 14.15-.051 24.072-9.235 23.985-22.203-.095-14.125-15.035-24.439-29.565-20.411m168.708 18.77c-16.22 2.043-31.587 7.492-38.674 13.714-10.183 8.94-28.93 59.758-30.491 82.652-.497 7.275-.331 8.315 1.833 11.476 5.585 8.159 11.019 9.319 32.621 6.966 34.617-3.771 41.129-7.781 51.171-31.515 3.237-7.652 5.744-14.057 5.569-14.232-.281-.281-25.452 3.862-32.856 5.407-2.154.45-3.275 1.637-4.71 4.985-2.243 5.232-6.861 8.404-12.244 8.409-5.048.005-5.46-1.497-3.111-11.332l1.927-8.066 26.322-4.722c14.478-2.598 26.538-4.938 26.802-5.201 1.514-1.515 10.317-36.904 10.328-41.524.036-14.738-10.662-20.016-34.487-17.017m94.5 13.558c-10.05 1.687-9.116.213-19.11 30.137-9.251 27.7-9.249 27.807.422 26.796 3.355-.351 6.424-.972 6.821-1.381.718-.742 16.867-53.774 16.867-55.391 0-.873-.637-.893-5-.161m-202.703 8.176c-19.362 2.548-35.634 5.082-36.161 5.632-1.331 1.39-35.435 109.534-34.757 110.213.471.47 35.635-4.376 36.223-4.992.116-.122 5.949-18.221 12.962-40.221 14.303-44.87 13.828-43.947 23.084-44.926l6.148-.65-1.53 6.073c-.841 3.34-1.28 6.323-.974 6.628.647.647 32.306-2.758 33.71-3.626.521-.322 3.052-7.168 5.626-15.213 5.223-16.325 5.127-19.31-.719-22.333-3.658-1.892-2.711-1.966-43.612 3.415m-63.757 8.607-16.96 3.025-17.454 55.252c-9.6 30.389-17.196 55.511-16.88 55.828.529.529 33.661-4.095 34.24-4.779.805-.949 34.537-110.375 34.3-111.269-.191-.723-5.918-.078-17.246 1.943m156.855.426c-3.616 2.205-7.303 7.756-8.409 12.66-.903 4.003-1.147 3.944 8.63 2.079 9.1-1.735 9.068-1.71 9.892-7.7 1.123-8.163-3.263-11.216-10.113-7.039m94.105 75.241c-21.271 3.09-27.268 4.287-28.263 5.64-.694.945-3.969 5.857-7.278 10.916-32.001 48.921-94.377 70.024-150.017 50.752-15.927-5.517-28.413-12.763-44.168-25.631l-3.282-2.681-15.996 2.459c-8.798 1.352-22.409 3.42-30.246 4.596-7.838 1.175-14.25 2.446-14.25 2.823 0 1.537 10.973 15.046 18.966 23.35 55.341 57.495 140.69 72.177 212.534 36.56 42.5-21.07 75.412-58.283 90.9-102.777L429.933 325l-2.717.11c-1.494.06-14.866 1.874-29.716 4.032" fill-rule="evenodd"/>
<path fill="#042b93" stroke="#042b93" d="M135.5 156.081c-44 6.993-82.146 13.015-84.769 13.381-8.193 1.144-9.041 2.505-16.795 26.948-3.822 12.05-6.784 22.075-6.581 22.278.203.203 13.736-1.939 30.074-4.759 16.337-2.821 29.974-4.86 30.302-4.531.329.329-12.96 44.34-29.531 97.802-16.571 53.462-30.005 97.328-29.854 97.479.151.151 10.352-1.402 22.669-3.452l22.394-3.727 30.118-97.931c24.289-78.978 30.491-98.081 32.045-98.706 1.061-.426 15.203-2.834 31.428-5.352 16.225-2.517 30.4-4.958 31.5-5.423 1.833-.775 18.593-45.541 17.385-46.437-.212-.157-36.385 5.436-80.385 12.43m326.125-8.049c-8.182 1.55-15.201 3.19-15.598 3.643-.398.454-4.228 12.75-8.512 27.325-4.284 14.575-8.144 27.197-8.579 28.048-.593 1.162-5.064 2.097-17.919 3.747-33.038 4.241-38.255 10.119-52.642 59.315-8.174 27.948-9.257 33.688-7.411 39.28 2.438 7.387 9.411 12.61 16.835 12.61 3.263 0 60.456-7.836 60.824-8.333.1-.136 46.429-149.552 50.98-164.417 1.591-5.196 2.637-5.125-17.978-1.218m-313.866 57.391c-16.083 5.74-20.597 23.27-8.909 34.596 17.916 17.359 48.336-1.398 38.257-23.59-4.569-10.06-17.944-15.076-29.348-11.006m164.401 19.075c-15.111 2.88-27.55 8.064-32.78 13.663-9.132 9.775-22.106 42.399-27.917 70.2-6.13 29.326 3.229 34.791 46.498 27.152 17.161-3.03 24.375-6.518 29.48-14.255 1.961-2.974 12.559-27.021 12.559-28.499 0-.401-31.834 4.967-33.705 5.683-.662.253-2.112 2.24-3.222 4.415-3.8 7.448-12.268 11.392-16.142 7.518-1.843-1.843-1.84-2.062.152-10.51l2.033-8.628 8.594-1.578c4.726-.868 16.771-3.023 26.766-4.789l18.174-3.21 5.323-19.744c6.857-25.434 6.41-30.849-2.999-36.358-4.312-2.525-22.112-3.1-32.814-1.06m97.049 12.486c-5.77 1.368-6.811 3.322-15.239 28.606-9.867 29.602-9.787 30.655 2.149 28.307l5.837-1.148 2.455-8.125c1.35-4.468 5.018-16.674 8.151-27.124 3.132-10.45 5.911-19.562 6.174-20.25.543-1.419-4.112-1.548-9.527-.266M247 240.634c-.825.193-17.445 2.387-36.934 4.876-19.488 2.488-35.593 4.684-35.789 4.879-.469.469-35.149 110.054-34.908 110.305.102.107 8.246-1.018 18.097-2.5l17.912-2.694 13.061-40.738c7.184-22.406 13.843-41.509 14.799-42.452 1.855-1.83 14.772-3.298 14.75-1.676-.006.476-.665 3.32-1.463 6.319-.798 3-1.353 5.552-1.233 5.672.502.502 33.25-3.77 33.857-4.417 1.256-1.337 8.851-26.463 8.851-29.28 0-4.95-5.991-9.467-11-8.294m-101.305 13.34c-8.143 1.505-15.162 3.139-15.598 3.631-.805.909-35.242 109.629-34.825 109.946.216.163 28.74-4.005 32.273-4.716 1.261-.254 36.2-107.239 36.441-111.585.029-.52-3.929.069-18.291 2.724m155.683 1.267c-5.404 4.745-10.235 17.069-6.064 15.469.723-.278 4.81-1.069 9.082-1.758 8.722-1.407 9.604-2.354 9.604-10.317 0-7.576-6.017-9.193-12.622-3.394" fill-rule="evenodd"/>
</svg>