<!DOCTYPE svg PUBLIC "-//W3C//DTD SVG 1.1//EN" "http://www.w3.org/Graphics/SVG/1.1/DTD/svg11.dtd">
<svg xmlns="http://www.w3.org/2000/svg" viewBox="0 0 800 470">
<path fill="#c0cad0" stroke="#c0cad0" d="M0 235.001v235.001l400.25-.251 400.25-.251.252-234.75L801.004 0H0v235.001m.492.499c0 129.25.116 182.274.258 117.83.142-64.443.142-170.193 0-235C.608 53.524.492 106.25.492 235.5M70 135.589c-12.102 2.104-15.276 2.949-20.649 5.499-6.841 3.246-11.582 8.024-14.745 14.861-3.141 6.787-3.322 152.398-.2 160.492 8.912 23.108 49.507 29.233 66.417 10.022 5.013-5.694 5.177-5.646 5.177 1.537v6h17v-97H75v23h14.098l-.299 24.921C88.445 314.423 88.246 315 78.407 315 66.155 315 67 320.856 67 235.973v-72.127l2.923-2.923c3.94-3.94 11.497-4.185 15.771-.511l2.806 2.411.302 23.089.303 23.088h33.991l-.298-25.25c-.331-28.054-.634-29.519-7.518-36.403-8.247-8.248-31.198-14.207-45.28-11.758m210.226.491c-14.91 2.295-25.088 8.328-29.955 17.757L247 160.175v75.787c0 82.499-.146 80.224 5.651 87.825 13.503 17.704 60.847 18.965 77.048 2.052 6.472-6.756 7.662-11.317 8.117-31.099l.407-17.76-9.347 9.25c-5.956 5.894-9.239 9.888-9.048 11.01.164.968-.293 1.761-1.015 1.763-.722.001-2.213 1.35-3.313 2.997-1.1 1.647-2.517 2.996-3.15 2.997-.759.002-1.071 1.956-.919 5.753.216 5.418.415 5.834 3.443 7.199 2.324 1.048 3.132 2.017 2.919 3.5-.476 3.329-7.639 3.393-11.55.102-3.959-3.331-4.335-3.264-8.123 1.449-2.174 2.706-4.008 4-5.667 4-2.725 0-3.365-2.625-1.203-4.936 1.029-1.1.807-1.217-1.25-.661-9.059 2.447-13.032 2.965-14.152 1.845-1.317-1.317.465-4.248 2.583-4.248.653 0 2.06-.657 3.128-1.46 1.749-1.316 1.555-1.356-1.965-.41-4.723 1.27-11.957.343-13.698-1.755-1.67-2.013.279-3.317 5.104-3.416 1.925-.04 4.975-.609 6.778-1.265l3.279-1.194.221-73.222.222-73.223 2.191-2.19c3.839-3.839 12.456-3.872 16.266-.062l3.043 3.043v61.577c0 41.269.337 61.577 1.022 61.577 1.641 0 6.978-9.149 6.978-11.964 0-3.237 3.813-8.901 9.556-14.195 2.968-2.735 4.804-5.458 5.541-8.216 2.356-8.814 4.153-12.628 8.023-17.024l4.017-4.564-.318-35.268c-.355-39.265-.425-39.694-7.776-48.067-8.063-9.184-30.955-14.524-49.817-11.622M468 231.333v92.333l7.15 5.167L482.3 334H502v-49.5c0-27.225.358-49.5.795-49.5.438 0 1.721 3.713 2.852 8.25 5.538 22.212 21.576 84.639 22.481 87.5l1.027 3.25h17.423c9.582 0 17.422-.264 17.422-.587 0-.506-7.966-31.451-23.057-89.569l-4.066-15.655 13.062-43.523C557.122 160.729 563 140.661 563 140.072c0-.719-5.38-1.072-16.327-1.072h-16.328l-7.113 23.25a15689.885 15689.885 0 0 0-13.378 44c-3.447 11.412-6.624 20.75-7.06 20.75-.437 0-.794-19.8-.794-44v-44h-34v92.333m213-6.492c0 94.706-.2 91.548 6.301 99.481 7.434 9.073 19.37 13.128 38.699 13.149 19.457.021 30.79-3.773 38.917-13.03 6.996-7.968 6.553-1.625 6.864-98.191l.282-87.25h-35.03l-.267 86.089-.266 86.088-2.361 1.912c-3.603 2.917-12.174 2.645-15.833-.502l-2.806-2.413-.272-85.587-.272-85.587H681v85.841M404 242.44V268h8.034l-.267-25.25-.267-25.25-3.75-.31-3.75-.311v25.561m-218.436-23.19c-.205.688-1.565 10.7-3.022 22.25-1.457 11.55-2.886 22.238-3.175 23.75-.501 2.622-.343 2.75 3.396 2.75h3.922l.907-6.75c.803-5.966 1.176-6.788 3.213-7.077 3.114-.441 5.195 1.491 5.195 4.824 0 7.28.981 9.003 5.125 9.003 4.684 0 4.598 2.471.875-25.165-1.65-12.248-3-22.846-3-23.552 0-1.776-12.906-1.808-13.436-.033M606 242.906V268h9v-11.5c0-11.463.008-11.5 2.393-11.5 3.131 0 3.607 1.518 3.607 11.5 0 10.792.311 11.5 5.051 11.5h3.837l-.58-10.75c-.665-12.326-1.3-14.098-5.346-14.908-3.122-.624-3.103-2.342.026-2.342 3.704 0 5.012-2.71 5.012-10.38 0-10.54-.566-11.043-12.918-11.464L606 217.813v25.093m9-11.972c0 7.224.196 8.066 1.878 8.066 3.201 0 4.241-2.43 3.922-9.163-.288-6.084-.41-6.35-3.05-6.653l-2.75-.317v8.067m-424.75 6.316c-1.122 11.209-1.039 11.75 1.809 11.75 2.192 0 2.446-3.004 1.289-15.25-.9-9.529-1.907-8.391-3.098 3.5" fill-rule="evenodd"/>
<path fill="#fb5404" stroke="#fb5404" d="M0 235.001v235.001l400.25-.251 400.25-.251.252-234.75L801.004 0H0v235.001m.492.499c0 129.25.116 182.274.258 117.83.142-64.443.142-170.193 0-235C.608 53.524.492 106.25.492 235.5m61.044-98.845c-14.424 3.091-24.93 11.197-28.026 21.624-2.273 7.653-2.259 148.837.016 156.495 7.588 25.553 50.766 32.13 68.673 10.46l2.698-3.265.681 6.015.68 6.016H124v-97H75v22.909l6.75.295 6.75.296.303 19.5c.496 31.909-.307 34.5-10.687 34.5-4.973 0-6.469-.409-8.338-2.277l-2.278-2.278-.259-71.722c-.294-81.255-.604-77.779 7.119-79.576 4.917-1.144 11.146.617 12.874 3.638.886 1.551 1.366 8.889 1.599 24.465l.333 22.25h34.99l-.337-24.25c-.384-27.66-1.241-31.285-9.069-38.356-10.873-9.824-33.495-13.964-53.214-9.739m214.058-.011c-13.063 2.8-22.569 9.421-26.724 18.614l-2.37 5.242v75c0 83.548-.179 81.174 6.732 89.026 14.708 16.709 55.669 18.6 74.795 3.453 7.777-6.16 9.425-11.742 9.801-33.202l.327-18.723-9.57 9.696c-5.264 5.332-9.475 10.157-9.359 10.723.253 1.227-5.435 7.01-7.781 7.91-1.001.384-1.414 1.254-1.049 2.207.332.866.604 3.585.604 6.043 0 4.162.24 4.569 3.5 5.931 3.925 1.64 4.39 2.889 1.628 4.368-2.467 1.32-7.721-.201-10.852-3.142l-2.403-2.258-4.409 4.734c-6.324 6.79-9.875 6.536-6.977-.498.667-1.619.396-1.636-4.137-.261-5.5 1.668-12.35 1.968-12.35.54 0-.524 2.025-1.849 4.5-2.944 5.86-2.592 5.846-2.603-3.447-2.603-11.095 0-14.285-2.908-4.474-4.078 2.707-.323 6.046-1.008 7.421-1.522l2.5-.935-.282-70.506c-.314-78.312-.358-77.667 5.555-80.138 4.612-1.927 10.807-1.185 13.624 1.631 2.082 2.081 2.108 2.739 2.603 64.825l.5 62.723 2.64-2.777c2.836-2.984 4.137-5.76 5.857-12.493.791-3.096 2.822-6.045 7.384-10.721 5.523-5.66 6.556-7.352 8.433-13.812 1.551-5.34 3.244-8.617 6.162-11.933l4.024-4.571v-34.415c0-39.862-.325-42.004-7.548-49.726-10.371-11.088-33.712-15.942-54.858-11.408M467 231.401v92.401l3.25 2.082c1.788 1.145 5.155 3.552 7.484 5.349 4.22 3.256 4.267 3.266 14.25 2.951l10.016-.317v-49.633c0-27.299.373-49.207.83-48.684.456.522 6.419 22.885 13.25 49.695l12.42 48.745 17.75.005c13.542.004 17.747-.291 17.738-1.245-.007-.687-6.027-24.506-13.378-52.931l-13.367-51.68 12.72-42.32c6.995-23.275 13.049-43.342 13.453-44.593l.734-2.274-17.203.274-17.204.274-13.121 43.189c-7.217 23.754-13.459 43.516-13.872 43.917-.413.4-.75-19.148-.75-43.439V139h-35v92.401m213.213-5.651.287 86.75 2.386 5.279c6.449 14.271 22.54 21.046 47.385 19.95 22.913-1.011 36.643-8.956 40.696-23.552.659-2.37 1.024-34.149 1.027-89.427L772 139h-34.967l-.267 85.587-.266 85.587-2.932 2.522c-2.558 2.2-3.632 2.463-8.416 2.067-9.994-.829-9.152 7.489-9.152-90.374V139h-36.073l.286 86.75m-494.695-7.5C185 219.795 179 264.947 179 267.298c0 1.31.893 1.702 3.883 1.702h3.883l.867-6.75c.853-6.643.918-6.755 4.047-7.058 3.103-.301 3.195-.192 3.805 4.5 1.241 9.554 1.079 9.308 6.114 9.308 4.443 0 4.546-.07 4.001-2.75-.516-2.535-6.6-47.422-6.6-48.69 0-1.219-13.066-.55-13.482.69M403 243v26h10v-52h-10v26m203 0v26h9v-12c0-11.212.128-12 1.941-12 2.993 0 3.52 1.688 4.059 13l.5 10.5 4.402.315 4.402.315-.574-11.65c-.613-12.438-1.777-15.392-6.135-15.562-1.64-.063-1.383-.392 1.186-1.515 3.764-1.645 5.219-4.684 5.219-10.903 0-9.688-3.704-12.5-16.468-12.5H606v26m9-12c0 8.233.404 8.925 4.066 6.965 2.269-1.215 2.827-11.672.734-13.765-3.433-3.433-4.8-1.498-4.8 6.8m-424.353 4.651c-1.002 11.847-.941 12.349 1.495 12.349 2.028 0 2.108-.331 1.5-6.147-.353-3.38-.642-7.88-.642-10 0-6.821-1.686-4.101-2.353 3.798" fill-rule="evenodd"/>
<path fill="#ea550e" stroke="#ea550e" d="M0 235.001v235.001l400.25-.251 400.25-.251.252-234.75L801.004 0H0v235.001m.492.499c0 129.25.116 182.274.258 117.83.142-64.443.142-170.193 0-235C.608 53.524.492 106.25.492 235.5M454.994 24.934c-15.881 4.831-22.659 21.118-16.051 38.566 6.568 17.341 6.714 18.118 3.549 18.913-2.484.623-3.173 3.651-2.748 12.087.177 3.508-1.944 8.901-4.785 12.168-4.396 5.057-7.256 13.825-6.61 20.269.514 5.128.35 5.654-2.877 9.225-1.881 2.083-3.694 5.036-4.026 6.563-.333 1.526-1.47 5.663-2.526 9.193-1.056 3.531-1.92 7.027-1.92 7.77 0 .744-1.238 3.255-2.75 5.582-1.512 2.326-2.995 5.128-3.294 6.225-.804 2.948-3.738 3.077-5.039.221-1.281-2.81 1.355-9.072 5.943-14.121 1.452-1.597 2.19-2.669 1.64-2.382-3.964 2.069-8.632 3.986-8.935 3.668-1.04-1.092 4.042-11.289 7.695-15.439l4.2-4.771-4.438.709c-6.29 1.006-12.113 3.804-16.88 8.111l-4.113 3.716-1.257-2.854c-1.711-3.882-1.361-18.647.587-24.806 1.908-6.03 1.674-6.349-2.685-3.654-9.021 5.575-16.061 16.913-17.08 27.511-.313 3.247-.72 6.055-.904 6.24-.984.983-5.963-5.995-7.606-10.661l-1.898-5.389-.986 3.953c-3.293 13.204-3.319 12.08.442 19.291 3.261 6.252 3.403 6.917 2.313 10.816-1.152 4.122-.945 12.461.382 15.354.503 1.096-.803 2.402-4.784 4.783-5.29 3.164-8.035 5.615-5.355 4.781 3.13-.974 9.802-1.526 9.802-.811 0 .431-1.567 1.628-3.482 2.659-3.471 1.87-7.166 6.265-6.134 7.297.299.3 3.541-.209 7.204-1.129 6.798-1.707 9.865-1.471 4.986.384-1.487.565-3.11 1.028-3.605 1.028-2.086 0-7.969 3.477-7.969 4.71 0 .737-1.137 1.772-2.526 2.3-1.389.528-2.8 1.676-3.136 2.552-.336.875-1.649 1.986-2.918 2.468-2.055.782-2.206 1.23-1.38 4.11.719 2.505.535 3.903-.816 6.216-4.046 6.927-4.224 5.622-4.23-31.023-.005-36.87-.247-39.187-4.84-46.43-6.767-10.669-19.261-15.403-40.654-15.403-22.131 0-32.418 3.814-41.146 15.258-5.358 7.025-5.429 8.244-5.129 88.771.31 83.389-.153 78.476 8.181 86.81 17.413 17.414 63.963 15.776 78.091-2.746 4.584-6.01 5.503-11.17 5.503-30.886 0-21.619.63-24.33 6.523-28.058 4.046-2.56 8.874-7.461 12.577-12.767l1.6-2.293 2.679 4.048c1.65 2.494 2.427 4.705 2.023 5.757-.409 1.068.149 2.563 1.489 3.99 1.213 1.291 2.028 3.304 1.877 4.634-.204 1.786.595 2.847 3.323 4.417 1.976 1.136 3.396 2.643 3.156 3.349-.24.706-.002 1.831.528 2.5 1.442 1.818 2.424 8.475 1.35 9.139-.516.318-.715 1.428-.444 2.465.271 1.038.046 2.163-.5 2.5-.546.338-.777 1.439-.514 2.447.365 1.394-.317 2.062-2.844 2.787-1.828.524-3.323 1.605-3.323 2.402 0 .797-1.238 2.042-2.75 2.767-1.934.927-2.75 2.073-2.75 3.862 0 2.787-6.323 9.283-9.076 9.324-.866.013-2.666 1.199-4 2.637-6.138 6.618-16.566 14.09-21.308 15.269-7.542 1.874-11.273 4.276-22.616 14.561-5.775 5.237-13.047 10.865-16.16 12.508-3.113 1.642-6.631 4.35-7.818 6.017-1.187 1.667-2.915 3.048-3.84 3.069-3.628.081-12.668 5.525-14.881 8.962-1.24 1.925-2.675 3.877-3.189 4.339-5.91 5.302-5.958 5.383-5.539 9.287l.416 3.874-11.491 8.45c-6.32 4.648-11.716 9.148-11.993 10-.582 1.798-3.133 3.119-13.589 7.036-9.923 3.718-13.58 6.025-17.601 11.106-3.929 4.965-3.996 5.427-1.065 7.299 8.509 5.434 32.953 3.567 45.222-3.453 1.666-.953 4.153-2.061 5.528-2.462 1.375-.401 8.608-4.893 16.073-9.983 12.783-8.713 13.715-9.174 16-7.908 3.517 1.948 7.35 1.71 9.427-.585.995-1.1 2.392-2 3.104-2 .712 0 2.496-1.575 3.964-3.5s3.409-3.5 4.314-3.5c.905 0 3.983-1.575 6.842-3.5 2.858-1.925 5.887-3.5 6.73-3.5.842 0 5.616-3.6 10.607-8s9.47-8 9.953-8c.483 0 10.465-3.978 22.182-8.84 11.717-4.861 26.132-10.771 32.034-13.131l10.73-4.293 4.77 2.035c2.623 1.119 7.02 2.712 9.77 3.54 5.355 1.611 25.545 10.158 33.402 14.139 5.392 2.732 14.817 5.765 23.373 7.52 4.71.966 6.921 2.185 11.992 6.607 3.633 3.169 7.168 5.423 8.504 5.423 1.478 0 4.061 1.907 7.31 5.399 3.44 3.695 6.069 5.594 8.335 6.019 1.82.342 4.159 1.566 5.197 2.721 2.057 2.288 13.745 10.103 16.762 11.208 1.031.377 4.51-.053 7.73-.956l5.854-1.643 7.192 4.273c10.842 6.441 14.06 8.656 17.349 11.945 3.485 3.484 17.382 10.68 19.746 10.225.886-.171 3.328-2.962 5.427-6.204 2.133-3.294 5.363-6.77 7.322-7.879 8.051-4.56 20.952-22.381 20.991-28.997.024-4.034-7.597-2.332-21.613 4.828-12.359 6.313-14.471 7.089-12.353 4.537.696-.838.945-1.844.554-2.235-.391-.391-1.536.382-2.544 1.719l-1.832 2.429-5.849-4.365c-11.365-8.483-15.262-12.086-14.688-13.582 1.105-2.881-.633-8.442-2.639-8.442-1.038 0-2.175-.908-2.527-2.017-.352-1.109-2.107-2.63-3.899-3.378-1.928-.806-4.413-3.186-6.085-5.83-2.323-3.671-3.79-4.795-8.221-6.302-2.967-1.008-5.608-2.178-5.868-2.6-.261-.422-2.375-2.054-4.698-3.627a734.893 734.893 0 0 1-9.724-6.745c-10.754-7.595-12.148-8.387-18.422-10.475-3.49-1.161-7.185-3.053-8.212-4.204-1.026-1.151-3.891-3.373-6.366-4.938l-4.5-2.846 9.75-.019L502 335v-49.7c0-27.335.381-49.272.846-48.75.465.523 4.966 17.15 10.003 36.95 5.036 19.8 10.618 41.625 12.404 48.5l3.247 12.5 18.325.273c17.14.255 18.291.158 17.808-1.5C561.878 323.804 538 229.628 538 228.23c0-1.016 5.85-21.318 13-45.115s13-43.469 13-43.715c0-.246-7.747-.324-17.215-.174l-17.216.274-13.203 43.335c-7.261 23.834-13.464 43.597-13.784 43.917-.32.32-.582-19.294-.582-43.585V139h-35v92c0 60.667-.341 92-1 92-.55 0-1-.367-1-.815 0-.448-1.58-1.568-3.511-2.489-2.132-1.017-4.168-3.053-5.185-5.185-.945-1.981-2.415-3.511-3.374-3.511-1.305 0-1.855-1.246-2.37-5.365-.558-4.464-1.101-5.561-3.241-6.536-2.322-1.058-2.523-1.594-2.078-5.542.271-2.404.125-4.965-.324-5.691-.498-.806-.17-2.034.844-3.154 1.31-1.448 1.389-2.001.372-2.63-.707-.437-1.161-1.422-1.007-2.188.154-.767-.302-3.099-1.014-5.183-1.335-3.913-.686-5.884 2.638-8.011 1.558-.996 1.608-5.773.113-10.763-.93-3.104-.84-4.536.492-7.867 1.57-3.922 1.538-4.348-.863-11.498-2.94-8.761-2.994-9.743-.869-15.979 1.338-3.927 1.403-5.177.367-7.111-.691-1.291-.966-3.103-.611-4.027.37-.964-.263-3.149-1.482-5.122-1.911-3.092-2.005-3.877-.923-7.74 1.043-3.725.914-5.371-.963-12.327l-2.166-8.027 2.466-4.87c4.247-8.385 5.861-15.294 6.228-26.654.332-10.286.491-10.964 3.417-14.66 4.57-5.769 6.044-11.028 6.044-21.558 0-7.004.364-9.555 1.5-10.497.825-.685 1.5-2.675 1.5-4.422 0-1.748.521-3.699 1.158-4.336.876-.876.87-1.503-.025-2.582-.651-.784-1.143-2.715-1.094-4.292.048-1.578-.053-3.758-.225-4.845-.268-1.684.433-2.071 4.725-2.615 21.669-2.745 29.659-30.848 12.745-44.836-6.057-5.009-16.29-7.267-23.29-5.138m8.35 13.616c-.636 1.348-.748 2.45-.25 2.45s.906.675.906 1.5.45 1.5 1 1.5 1-.45 1-1 .619-1 1.375-1c.808 0 1.375-1.054 1.375-2.559 0-1.64-.45-2.386-1.253-2.078-.689.264-1.646.088-2.125-.391-.496-.496-1.371.185-2.028 1.578M448 44.393c0 .884-.529 1.607-1.175 1.607s-.321.81.722 1.801c2.387 2.266 6.433.84 5.689-2.005-.258-.988-.83-1.796-1.271-1.796-.441 0-1.513-.273-2.383-.607-1.038-.398-1.582-.055-1.582 1M472.232 51c-.74 1.186-.838 2-.24 2 .554 0 1.008.675 1.008 1.5s.45 1.5 1 1.5 1-.498 1-1.107.661-.853 1.468-.544c1.688.648 3.055-.908 1.592-1.812-.535-.331-.719-1.262-.409-2.069.884-2.305-3.943-1.831-5.419.532m-13.867 5.788c-.87 1.391-.802 2.261.291 3.757 1.149 1.571 1.586 1.681 2.272.572.466-.755 1.346-1.066 1.954-.69.713.44 1.03-.224.893-1.872-.116-1.405-.526-2.555-.911-2.555s-1.301-.23-2.034-.512c-.734-.281-1.843.303-2.465 1.3M62.5 136.022c-12.628 2.535-22.368 8.698-27.021 17.099L32.5 158.5l-.274 75.91c-.309 85.45-.528 82.557 6.885 90.978 8.25 9.374 25.743 14.968 39.749 12.712 8.708-1.403 16.831-5.382 21.735-10.647l4.147-4.453.678 6 .679 6H124v-98H75v23h13v23.935c0 13.164-.422 25.045-.938 26.402-2.048 5.388-14.491 5.99-17.851.863-1.565-2.388-1.737-8.461-2.012-71.155-.166-37.7-.021-70.49.322-72.867.913-6.333 3.242-8.178 10.324-8.178 9.612 0 9.561-.137 10.155 27.352l.5 23.148h35l.269-22.928c.363-30.918-1.77-37.214-15.298-45.142-9.397-5.507-32.146-8.183-45.971-5.408m617.724 90.228c.311 98.455-.267 91.404 8.2 100.015 16.435 16.717 61.433 16.201 76.465-.877 7.459-8.473 7.111-3.579 7.111-100.066V139h-34.956l-.272 85.395c-.259 81.288-.36 85.493-2.111 87.428-4.027 4.448-15.258 3.551-17.514-1.399-.834-1.831-1.147-25.569-1.147-86.971V139h-36.053l.277 87.25m-396.151-64.615c-2.054 2.61-2.073 3.304-2.073 75 0 39.801.255 72.365.566 72.365 1.321 0 5.197-2.524 8.738-5.69 2.092-1.871 4.911-3.906 6.264-4.523 1.631-.743 2.282-1.683 1.932-2.786-.299-.942.347-2.458 1.486-3.488 1.977-1.79 2.014-2.936 1.99-62.418-.024-60.747-.37-67.448-3.612-69.818-3.391-2.479-12.94-1.631-15.291 1.358M185 217.938c0 .951-5.699 44.675-6.362 48.812-.327 2.039.041 2.25 3.913 2.25 4.26 0 4.275-.013 4.915-4.25 1.453-9.63 1.508-9.75 4.497-9.75 2.708 0 2.832.228 3.67 6.75l.867 6.75 4.75.305c2.613.167 4.75.028 4.75-.31 0-1.307-6.071-46.143-6.6-48.745-.545-2.681-.732-2.75-7.479-2.75-3.807 0-6.921.422-6.921.938m421 24.965V269h9v-12c0-12.041.421-13.352 3.605-11.235.619.412 1.345 5.209 1.652 10.922.655 12.193.715 12.313 6.137 12.313h4.275l-.369-8.25c-.682-15.244-1.06-16.74-4.623-18.29-1.747-.76-2.594-1.399-1.882-1.421 6.087-.184 8.784-14.928 3.793-20.733-2.282-2.654-2.932-2.825-12-3.153l-9.588-.346v26.096M615 231c0 6.8.071 7 2.5 7s2.5-.2 2.5-7-.071-7-2.5-7-2.5.2-2.5 7m-424.009 3.25c-.004 1.787-.292 5.613-.639 8.5-.598 4.977-.512 5.25 1.64 5.25 2.066 0 2.214-.336 1.65-3.75-.341-2.062-.625-5.887-.631-8.5-.006-2.613-.461-4.75-1.011-4.75-.55 0-1.004 1.463-1.009 3.25" fill-rule="evenodd"/>
<path fill="#04243c" stroke="#04243c" d="M0 235.001v235.001l400.25-.251 400.25-.251.252-234.75L801.004 0H0v235.001m.492.499c0 129.25.116 182.274.258 117.83.142-64.443.142-170.193 0-235C.608 53.524.492 106.25.492 235.5M450.22 26.578c-14.008 6.98-18.04 22.888-10.372 40.922 4.308 10.131 4.99 14.5 2.263 14.5-1.863 0-2.111.58-2.111 4.941 0 2.718-.468 5.23-1.041 5.584-.572.354-.774 1.483-.448 2.51.914 2.88-1.218 9.341-3.919 11.879-4.284 4.024-6.857 11.59-6.397 18.813.394 6.188.303 6.475-3.247 10.207-2.029 2.133-3.935 5.335-4.287 7.203-1.603 8.493-5.301 19.723-7.694 23.363-1.447 2.2-2.917 4.787-3.267 5.75-.87 2.39-2.191 2.196-3.419-.5-1.141-2.508.893-7.473 5.588-13.639l2.58-3.388-2.475.743c-1.361.408-3.486 1.381-4.724 2.161-4.53 2.857-.244-7.509 5.829-14.097l4.176-4.53h-4.19c-4.976 0-13.618 3.846-18.145 8.075-1.757 1.641-3.297 2.858-3.422 2.704-3.107-3.82-3.362-16.386-.522-25.727 2.233-7.344 2.067-7.939-1.67-5.97-10.543 5.556-18.961 19.205-19.224 31.168-.045 2.063-.419 3.734-.832 3.714-1.692-.083-6.327-7.596-6.902-11.186-.916-5.732-2.61-4.115-4.729 4.516-2.067 8.418-1.735 10.309 3.048 17.357 2.296 3.383 2.309 3.545.711 8.433-1.537 4.699-1.525 11.179.028 14.93.426 1.029-.418 2.086-2.64 3.304-1.796.985-4.616 2.93-6.266 4.322l-3 2.531 6-.652 6-.651-3.585 2.49c-3.261 2.265-6.915 6.606-6.915 8.215 0 .354 1.238.349 2.75-.012s3.65-.874 4.75-1.14c1.1-.267.313.44-1.75 1.571-2.062 1.131-3.75 2.72-3.75 3.532 0 .812-.815 1.476-1.812 1.476-.997 0-2.81 1.35-4.03 3-1.22 1.65-2.907 3-3.749 3-1.236 0-1.408.823-.892 4.265.531 3.544.246 4.767-1.689 7.228l-2.328 2.963-.5-37.559-.5-37.559-3.032-4.901c-14.164-22.9-68.358-24.273-83.191-2.108-5.321 7.951-5.265 7.042-5.271 86.306-.007 82.494-.173 80.305 6.729 88.368 14.822 17.317 58.198 18.7 76.207 2.43 7.912-7.147 8.462-9.134 9.123-32.933.695-25.026.879-25.732 7.955-30.425 2.981-1.978 7.034-5.906 9.005-8.727l3.585-5.131 2.195 3.203c1.207 1.762 2.195 4.653 2.195 6.423 0 1.94.596 3.449 1.5 3.795.927.356 1.5 1.877 1.5 3.985 0 2.917.509 3.652 3.53 5.093 1.966.937 3.322 2.227 3.06 2.911-.259.675.208 1.791 1.039 2.48.831.689 1.309 2.022 1.063 2.962-.246.94-.078 2.307.373 3.037s.39 1.845-.135 2.479c-.526.633-1.063 3.01-1.193 5.282-.212 3.69-.584 4.247-3.487 5.21-2.076.689-3.25 1.733-3.25 2.892 0 1.092-.977 2.059-2.455 2.43-1.744.438-2.741 1.652-3.442 4.19-1.071 3.878-4.724 7.839-8.268 8.963-1.226.39-4.503 2.815-7.282 5.391-8.874 8.223-14.192 12.057-16.727 12.057-4.873 0-13.796 5.611-25.318 15.92-6.406 5.73-13.865 11.447-16.578 12.704-2.95 1.366-5.397 3.308-6.091 4.83-.638 1.4-1.875 2.563-2.75 2.583-4.165.096-14.57 6.542-16.706 10.35-1.197 2.134-3.602 4.783-5.346 5.887-2.86 1.811-3.145 2.432-2.904 6.35l.267 4.342-8.26 6.051c-4.543 3.328-10.167 7.948-12.499 10.267-4.803 4.778-6.356 5.671-16.141 9.276-12.461 4.592-20.5 11.178-20.5 16.795 0 7.484 33.334 7.2 46.5-.396 1.65-.952 4.125-2.052 5.5-2.444 1.375-.392 8.829-4.955 16.565-10.14l14.066-9.427 3.791 1.584c3.744 1.564 3.857 1.543 9.274-1.724 3.016-1.82 5.902-4.082 6.413-5.028.511-.947 3.283-2.913 6.16-4.37 2.877-1.457 7.481-3.792 10.231-5.188s8.15-5.422 12-8.947c7.606-6.962 5.849-6.12 51.947-24.907 14.373-5.858 21.749-8.377 23.5-8.027 7.009 1.4 36.152 13.043 48.565 19.402 3.868 1.981 12.693 4.745 22.846 7.154 3.395.806 6.575 2.647 10.563 6.116 3.138 2.729 7.112 5.244 8.831 5.587 2.07.414 4.508 2.266 7.221 5.484 2.847 3.376 5.271 5.174 7.945 5.894 2.117.57 4.431 1.738 5.143 2.596 2.344 2.824 15.22 10.598 18.36 11.085 1.694.262 5.067-.235 7.496-1.106l4.417-1.582 7.083 4.183c3.896 2.301 8.475 5.232 10.177 6.515 1.702 1.282 3.405 2.331 3.784 2.331s2.266 1.577 4.193 3.504c4.601 4.601 18.187 11.131 20.359 9.786.864-.535 3.194-3.28 5.178-6.099 1.985-2.82 6.26-7.124 9.5-9.565 3.241-2.442 6.872-5.493 8.07-6.782 3.532-3.801 11.135-18.842 10.586-20.942-.731-2.794-7.983-2.549-14.019.475-2.61 1.307-7.67 3.831-11.245 5.609-3.575 1.777-6.813 3.732-7.196 4.344-.382.612-1.009.798-1.392.415-.383-.383-.128-1.383.568-2.221 1.044-1.258.984-1.524-.349-1.524-.888 0-2.142.846-2.788 1.88-1.112 1.781-1.439 1.693-6.258-1.689C566.377 400.922 564 398.288 564 392.923c0-4.276-.266-4.923-2.025-4.923-1.211 0-2.387-.954-2.927-2.373-.496-1.306-2.05-2.662-3.454-3.014-1.495-.375-4.202-2.875-6.539-6.038-2.861-3.874-5.055-5.741-7.771-6.613-4.733-1.521-10.047-4.767-20.619-12.594-8.892-6.584-13.831-9.365-20.165-11.353-2.2-.691-5.125-2.264-6.5-3.496-1.375-1.232-4.292-3.428-6.482-4.879l-3.982-2.64H503l.08-48.75.079-48.75 4.404 17c2.422 9.35 6.392 24.65 8.823 34 2.43 9.35 6.104 23.637 8.164 31.75l3.745 14.75h18.353c10.093 0 18.352-.282 18.352-.627 0-.592-6.304-25.211-16.484-64.373a6629.878 6629.878 0 0 1-7.645-29.706l-3.097-12.207 13.114-43.793c7.213-24.087 13.114-44.367 13.113-45.068-.001-.992-3.79-1.213-17.178-1l-17.177.274-12.807 42c-7.044 23.1-12.919 42.675-13.057 43.5-.137.825-.482-18.075-.766-42l-.516-43.5-17.75-.273-17.75-.273v92.106c0 50.659-.337 91.957-.75 91.773-4.98-2.213-9.17-5.723-10.185-8.531-.757-2.093-1.862-3.302-3.019-3.302-1.003 0-1.803-.562-1.777-1.25.247-6.662-.367-8.688-3.018-9.958-2.497-1.197-2.751-1.819-2.779-6.805-.017-3.018.293-6.195.69-7.061.396-.866.026-4.619-.823-8.339l-1.543-6.765 2.822-2.945 2.821-2.945-1.519-5.833c-1.36-5.22-1.36-6.273.001-10.005 1.391-3.815 1.369-4.599-.25-9.158-2.675-7.53-3.103-13.748-1.303-18.922 1.002-2.879 1.215-4.831.596-5.45-.53-.53-.964-2.423-.964-4.207 0-1.783-.929-4.818-2.065-6.743-1.614-2.736-1.833-3.936-1-5.492 1.633-3.052 1.273-9.205-.911-15.552l-1.976-5.744 2.099-4.115c4.418-8.659 6-15.088 6.695-27.211.679-11.842.736-12.062 4.331-16.706 4.232-5.467 5.827-11.566 5.827-22.284 0-4.066.45-7.67 1-8.01.55-.34 1-2.354 1-4.476 0-2.178.544-4.054 1.25-4.31.96-.348.984-.905.104-2.403-.63-1.073-.925-3.106-.655-4.519.27-1.412.015-3.458-.567-4.545-.972-1.817-.662-2.024 3.837-2.557 21.34-2.527 30.452-28.103 15.622-43.851-7.742-8.221-20.127-10.366-30.371-5.261m13.482 12.454c-.603 2.306.96 3.869 3.266 3.266 1.161-.303 1.631-1.117 1.323-2.292-.666-2.547-3.993-3.253-4.589-.974m-15.41 6.5c-.713.764-.609 1.682.338 2.977.754 1.03 1.37 1.337 1.37.682 0-.655.579-1.191 1.286-1.191.707 0 1.285-.804 1.285-1.786 0-1.978-2.67-2.404-4.279-.682m24.418 5.469c-.256.977-.147 2.291.241 2.92 1.069 1.73 4.54-.096 4.602-2.422.069-2.622-4.173-3.059-4.843-.498m-14.008 6.031c-.603 2.306.96 3.869 3.266 3.266 1.161-.303 1.631-1.117 1.323-2.292-.666-2.547-3.993-3.253-4.589-.974M68.907 135.075c-18.085 1.571-31.242 9.654-35.353 21.72-2.679 7.862-2.267 155.036.45 161.025 10.174 22.418 47.821 28.486 65.715 10.591L105 323.13v4.353c0 7.425.124 7.517 10.107 7.517H124v-99.035l-24.75.268-24.75.267v24l6.75.296 6.75.295v23.899c0 23.414-.046 23.952-2.273 26.541-3.816 4.436-14.946 3.653-16.784-1.182-.559-1.469-.943-31.809-.943-74.46v-71.98l2.455-2.454C72.418 159.491 73.928 159 78 159s5.582.491 7.545 2.455L88 163.909V210H124.123l-.312-25.75-.311-25.75-2.954-5.333c-7.618-13.752-26.29-20.294-51.639-18.092m611.317 91.175.276 88.25 2.971 5.364c6.452 11.648 18.599 17.554 38.529 18.733 22.959 1.358 41.06-6.283 47.61-20.097l2.37-5 .01-87.75L772 138h-34.936l-.282 85.25c-.299 90.337-.214 88.8-4.957 90.306-4.372 1.387-11.115.599-13.265-1.551-2.044-2.044-2.062-2.729-2.326-88.033L715.967 138H679.948l.276 88.25m-395.363-65.339-2.361 1.912-.269 73.124-.269 73.124 3.269-1.669c1.798-.918 5.171-3.409 7.497-5.536 2.325-2.126 4.736-3.866 5.357-3.866.639 0 .854-.717.495-1.651-.386-1.006.158-2.388 1.393-3.539 1.995-1.858 2.027-2.898 2.027-65.394v-63.507l-2.455-2.454c-3.175-3.176-11.072-3.468-14.684-.544m77.952 43.772c.721.289 1.584.253 1.916-.079.332-.332-.258-.568-1.312-.525-1.165.048-1.402.285-.604.604m-178.229 15.524c-.288 1.811-1.664 12.068-3.058 22.793s-2.778 20.962-3.076 22.75l-.541 3.25h4.478c4.992 0 5.031-.057 6.135-8.75.625-4.927.838-5.25 3.47-5.25 2.739 0 2.822.164 3.508 7l.703 7h4.898c5.919 0 5.756 2.879 1.579-28l-3.18-23.5-7.197-.293-7.196-.292-.523 3.292M606 243v26h10v-12.035c0-11.725.051-12.008 2-10.965 1.739.931 2 2.094 2 8.91 0 13.179.388 14.09 6.005 14.09h4.755l-.491-11.25c-.509-11.685-1.803-15.75-5.015-15.75-1.294 0-1.11-.403.773-1.692 3.678-2.516 3.941-3.214 3.958-10.476.025-11.228-1.904-12.832-15.435-12.832H606v26m9.5-11.963c0 6.466.162 7.013 2 6.75 3.306-.474 3.592-13.787.296-13.787-2.177 0-2.296.365-2.296 7.037m-424.511 5.513c-.006 2.172-.29 5.638-.631 7.7-.537 3.251-.363 3.75 1.309 3.75 1.753 0 1.891-.611 1.526-6.75-.443-7.433-2.186-11.15-2.204-4.7" fill-rule="evenodd"/>
</svg>