<!DOCTYPE svg PUBLIC "-//W3C//DTD SVG 1.1//EN" "http://www.w3.org/Graphics/SVG/1.1/DTD/svg11.dtd">
<svg xmlns="http://www.w3.org/2000/svg" viewBox="0 0 1000 800">
<path fill="#d8e1e8" stroke="#d8e1e8" d="M438.942 164.902c-11.167 3.286-21.017 7.787-26.396 12.062-2.102 1.67-4.337 3.036-4.968 3.036-1.421 0-10.444 9.27-13.627 14-1.295 1.925-2.653 3.725-3.017 4-.63.476-2.154 2.709-12.413 18.192C368.842 230.8 366 242.072 366 265.844c0 1.88-.272 1.957-3.25.921-1.788-.622-3.813-1.691-4.501-2.377-.688-.686-3.613-1.907-6.5-2.715l-16.39-4.584c-6.128-1.714-14.106-4.46-17.728-6.102-7.903-3.584-14.034-3.971-15.631-.987-1.296 2.422-8.619 2.839-10.39.591-.61-.775-3.09-1.726-5.509-2.113l-4.399-.704.616 3.8c.367 2.262.161 4.349-.51 5.158-.893 1.075 1.017 3.374 9.19 11.057 9.843 9.255 10.533 9.708 15.005 9.869 5.671.205 25.245 5.177 37.226 9.455 7.288 2.603 8.727 3.47 8.715 5.252-.076 11.391 5.032 38.72 9.726 52.041 1.376 3.902 3.167 9.217 3.981 11.811 1.487 4.737 4.7 6.672 9.308 5.604.928-.215 2.466 2.528 4.65 8.29 5.646 14.901 15.851 30.407 27.238 41.389 5.04 4.861 21.61 15.429 25.387 16.192 1.533.309 2.453 1.005 2.095 1.584-.352.57-.155.735.44.367.592-.366 2.728.308 4.745 1.498 2.96 1.746 6.03 2.304 15.919 2.893 13.4.797 19.89 3.419 21.178 8.553.782 3.115.233 3.765-5.852 6.925-2.893 1.502-7.284 4.196-9.759 5.988-8.086 5.853-39.685 20.561-42.248 19.665-3.98-1.39-5.053-.779-6.167 3.515-1.261 4.859-11.654 13.386-16.745 13.738-1.571.109-3.25.622-3.731 1.14-3.306 3.557-10.109 12.594-10.109 13.428 0 1.601 2.439 1.184 4.561-.779 7.954-7.358 36.16-27.207 38.661-27.207.645 0 7.721-3.086 15.725-6.857 8.004-3.772 16.353-7.436 18.553-8.143 2.2-.706 4.888-1.896 5.973-2.642 1.084-.747 2.412-1.358 2.95-1.358.537 0-.871 1.198-3.129 2.663-2.405 1.559-3.897 3.208-3.6 3.981.313.817-1.842 2.752-5.664 5.087-5.678 3.469-16.882 11.673-36.381 26.64-4.207 3.229-7.649 6.495-7.649 7.257 0 .763-3.599 4.952-7.998 9.31-4.4 4.358-8.438 9.08-8.976 10.493-.537 1.413-1.604 2.569-2.371 2.569-.767 0-3.141 3.477-5.275 7.726-2.134 4.25-4.238 8.188-4.676 8.75-.438.563-2.824 4.531-5.301 8.818-2.521 4.363-5.544 8.269-6.866 8.871-2.319 1.057-2.363 1.336-2.444 15.705-.119 21.002-1.007 44.911-2.141 57.63-2.96 33.19-5.184 56.224-6.372 66l-1.336 11-.11-10c-.404-36.934 3.89-125.232 7.441-153 1.905-14.896 2.297-16.5 4.033-16.5.955 0 1.392-1.243 1.392-3.953 0-2.174.419-4.987.931-6.25s1.17-3.434 1.463-4.824c.293-1.39 2.124-4.386 4.069-6.659 3.792-4.43 4.412-6.314 2.077-6.314-4.138 0-14.619 18.745-16.494 29.5-5.091 29.203-8.443 85.555-10.023 168.5-.529 27.775-1.264 60.962-1.632 73.75l-.67 23.25h2.664c2.161 0 2.778-.567 3.265-3 .626-3.13 2.691-4.31 2.188-1.25-.68 4.13.129 4.25 28.721 4.25H415l.122-11.75c.068-6.462.283-15.8.479-20.75.196-4.95.366-12.712.378-17.25.029-11.359 1.582-10.382 2.385 1.5.975 14.407 3.609 43.411 4.179 46 .453 2.058 1.063 2.25 7.13 2.25h6.635l-.679-14.25c-.374-7.837-1.577-26.4-2.674-41.25-4-54.151-4.895-67.566-6.505-97.5-.902-16.775-1.71-37.7-1.795-46.5l-.155-16 5.195.213c2.909.119 5.99.883 7 1.736.993.838 3.821 2.79 6.285 4.338l4.48 2.814 6.459-7.318c3.552-4.025 8.106-9.673 10.12-12.551l13.561-19.383c5.445-7.784 13.409-19.296 17.698-25.583 12.336-18.085 18.37-24.821 26.702-29.808 3.025-1.811 6.175-3.856 7-4.546.825-.69 3.901-2.527 6.837-4.083 6.722-3.563 11.394-6.115 17.368-9.484 2.588-1.46 6.535-2.963 8.772-3.341 4.077-.689 6.535-3.43 8.061-8.99.396-1.44 1.998-2.308 5.83-3.159 6.209-1.379 6.821-1.82 5.212-3.759-.951-1.145-.877-2.089.349-4.459 1.457-2.817 1.435-3.045-.344-3.61-1.996-.633-3.5-3.174-2.291-3.87.388-.223 3.181-.058 6.206.368 3.067.432 7.486.351 9.988-.183 10.163-2.168 40.26 1.246 55.261 6.268 5.175 1.733 9.711 2.687 11.106 2.337 1.527-.383 2.959.01 4.066 1.116 1.198 1.199 2.022 1.394 2.763.653.741-.741-.396-1.811-3.814-3.589-5.529-2.877-5.45-3.394.16-1.05 4.435 1.853 10.506 7.894 15.027 14.952C683.689 476.98 694 498.235 694 500.302c0 .869.45 1.858 1 2.198.55.34 1 .066 1-.608 0-.674.289-.936.643-.583.353.354.073 1.329-.623 2.167-1.17 1.41-.719 1.969 1.305 1.617.454-.079.536.77.181 1.887-.433 1.365-.124 2.229.943 2.639.872.335 1.525 1.12 1.45 1.745-.317 2.649.163 4.716.979 4.211 1.148-.709 2.163 4.451 1.481 7.526-.432 1.948-.32 2.117.599.899.932-1.236 1.097-1.061.935 1-.107 1.375.357 3.85 1.032 5.5s1.286 3.756 1.359 4.681c.072.924.451 1.482.843 1.241.95-.588 2.696 4.999 3.307 10.578l.492 4.5-1.105-4.25c-1.695-6.519-2.829-5.046-1.268 1.647.757 3.243 1.858 8.981 2.448 12.75 1.477 9.446 1.99 10.977 3.093 9.235 2.806-4.43.478 5.984-4.999 22.364-1.21 3.62.366 4.524 1.728.991C715.79 581.351 731 532.841 731 529.884c0-4.385-1.88-1.248-4.634 7.732l-2.948 9.616-2.857-7.487c-1.572-4.117-3.664-8.556-4.65-9.863l-1.793-2.376-.908 2.456c-.858 2.319-.949 2.235-1.624-1.503-2.352-13.013-16.379-46.368-23.953-56.959-1.966-2.75-4.434-6.8-5.484-9-2.825-5.923-14.407-15.106-17.537-13.905-.844.324-5.49-.331-10.324-1.456-7.24-1.686-25.51-4.139-30.824-4.139-.729 0-1.469-1.006-1.644-2.237-.798-5.582-29.274-4.956-31.441.692-.828 2.157-4.494 1.948-16.782-.955-12.528-2.96-11.096-2.858-13.021-.933-.862.862-3.424 1.752-5.692 1.978-2.269.225-4.717.901-5.441 1.502-.951.79-1.886.786-3.379-.013-1.864-.998-2.057-1.995-1.996-10.319l.067-9.215 7.673-5c8.559-5.577 12.66-10.458 18.666-22.219 2.186-4.279 5.68-10.729 7.764-14.332 2.085-3.604 5.344-11.013 7.243-16.466 2.275-6.535 4.071-10.143 5.267-10.586 2.554-.944 8.509-7.756 11.822-13.522 1.541-2.681 4.086-6.783 5.656-9.114 4.985-7.401 5.619-10.521 4.603-22.648-.501-5.981-1.511-12.31-2.245-14.066-3.026-7.243-10.887-13.547-16.891-13.547-2.348 0-2.384-.162-3.596-16.25-2.715-36.021-10.725-49.76-42.272-72.5-4.503-3.246-6.109-2.765-2.754.826 3.033 3.247 8.249 7.069 11.179 8.191.962.369 1.75 1.23 1.75 1.914 0 .684 1.747 3.06 3.883 5.281 5.747 5.977 13.191 17.181 12.541 18.875-.31.808.396 3.349 1.568 5.647 4.45 8.724 6.18 18.429 6.745 37.849.578 19.866.783 20.486 5.923 17.861 6.149-3.141 15.141.531 14.493 5.919-.437 3.631-.534 3.718-3.21 2.869-1.707-.542-1.896-.893-.833-1.55 1.038-.641 1.091-1.131.219-2.003-1.296-1.296-3.683-.311-2.782 1.147.645 1.044-.407 1.484-5.547 2.32-3.254.529-3.364.465-1.559-.914 1.071-.817 1.381-1.482.691-1.482-.687 0-.972-.45-.632-1 .34-.55-.072-1-.915-1-1.937 0-5.355 6.243-3.717 6.789.623.208 1.132 1.068 1.132 1.911 0 1.165.659 1.375 2.75.875 6.279-1.503 12.279-1.796 13.64-.666 3.473 2.882 2.648 11.81-.963 10.425-.832-.32-1.427.057-1.427.904 0 2.467-3.341 4.747-5.956 4.063-1.958-.512-2.264-.318-1.724 1.09.361.942.28 1.48-.181 1.195-.881-.545-1.812 1.041-4.937 8.414-1.049 2.475-2.296 5.4-2.771 6.5-.563 1.304-1.112-3.567-1.579-14-.394-8.8-.913-17.125-1.153-18.5s-.75-7.225-1.133-13c-.841-12.675-4.08-29.518-6.23-32.402-1.546-2.074-1.557-2.07-.911.402.359 1.375.93 4.075 1.269 6 .338 1.925.9 3.725 1.248 4 2.436 1.927 5.13 34.708 2.965 36.079-.998.631-1.043.895-.157.906.688.008 1.25.492 1.25 1.074 0 .582-.337.851-.75.596s-.789 9.056-.838 20.691c-.165 40.046-7.558 63.169-25.144 78.649-4.629 4.075-9.268 5.329-9.268 2.505 0-2.058-2.259-1.914-16.702 1.061-6.837 1.409-12.964 2.376-13.615 2.15-.651-.226-2.855.171-4.899.882-16.896 5.884-47.241 6.829-57.784 1.8a942.208 942.208 0 0 0-11.017-5.165c-12.69-5.803-30.553-19.939-29.635-23.453.322-1.23-.106-1.775-1.394-1.775-5.154 0-19.416-30.411-21.473-45.788-1-7.479-1.226-7.78-3.77-5.034-2.743 2.96-5.864 4.385-5.07 2.316.296-.773-.692-2.636-2.196-4.14-2.709-2.708-2.741-2.898-3.23-19.045-.445-14.65-.328-16.309 1.145-16.309 1.992 0 2.272-4.507.354-5.7-1.765-1.098-1.718-11.233.049-10.558 2.14.817 4.329-1.702 3.243-3.731-.673-1.258-.594-1.768.271-1.738 4.23.145 4.723-.289 4.723-4.163 0-22.996 14.076-54.405 32.55-72.631 6.586-6.498 7.897-8.272 6.841-9.259-1.822-1.701-3.722-1.526-3.029.28.55 1.433.219 1.674-2.612 1.9-.687.055-2.262 1.225-3.499 2.6s-2.249 2.027-2.25 1.449c-.002-2.001 2.504-6.433 3.642-6.441.629-.004 1.389-.65 1.69-1.434 1.641-4.276 21.929-14.649 32.18-16.454 13.211-2.326 43.561-1.072 54.987 2.271 2.75.805 6.8 1.993 9 2.64s4.45 1.528 5 1.957c.55.43 2.575 1.088 4.5 1.464 3.259.635 3.084.413-2.541-3.227-16.14-10.445-23.801-12.353-51.459-12.812-18.922-.314-19.783-.241-29.058 2.489m24.871.781c.721.289 1.584.253 1.916-.079.332-.332-.258-.568-1.312-.525-1.165.048-1.402.285-.604.604m-2.563 2.006c.962.252 2.538.252 3.5 0 .962-.251.175-.457-1.75-.457s-2.712.206-1.75.457m66.235 13.287c.441.713.18 1.646-.607 2.178-1.138.768-1.117.895.122.73.825-.11 2.307.152 3.293.582 3.074 1.339 2.826-.002-.448-2.423-1.722-1.272-2.784-1.753-2.36-1.067m7.694 6.33c.726.718 2.196 1.638 3.265 2.043 1.896.719 1.898.687.095-1.306-1.017-1.124-2.486-2.043-3.265-2.043-1.174 0-1.19.224-.095 1.306M406 195.5c-.718.865-.815 1.5-.229 1.5.558 0 1.274-.675 1.591-1.5.316-.825.419-1.5.229-1.5-.19 0-.906.675-1.591 1.5m166.503 40.622c.84 6.225 1.125 6.878 2.997 6.878 2.478 0 2.595-1.821.412-6.463-3.125-6.649-4.269-6.788-3.409-.415m160.898 45.386c-3.188 3.188-2.4 4.639 1.856 3.418 5.003-1.434 5.314-1.28 9.199 4.574 2.008 3.025 4.06 5.5 4.559 5.5.499 0 1.402 1.913 2.006 4.25.604 2.337 1.321 5.019 1.593 5.958.404 1.396-.426 1.831-4.536 2.376-8.79 1.166-11.912 5.277-11.868 15.629.025 5.929.522 9.149 1.749 11.317.942 1.666 2.021 4.254 2.396 5.75.777 3.093 2.358 3.494 4.144 1.052 1.127-1.54 1.49-1.502 4.729.5 5.055 3.124 5.563 2.845 4.696-2.582-.886-5.552-.31-8.888 1.666-9.646.776-.298 1.453-1.568 1.506-2.823.17-4.01 2.493 8.538 2.448 13.219-.044 4.489-.053 4.501-3.886 4.816-3.607.296-3.804.48-3.22 3 .413 1.78.315 2.223-.29 1.316-1.859-2.789-5.401 2.453-4.873 7.211 1.716 15.458 3.083 20.657 5.429 20.657 2.125 0 2.296-.423 2.296-5.667 0-6.693 1.099-6.355 1.993.614.678 5.282-.01 6.005-5.743 6.039-1.765.011-2.267.607-2.329 2.764l-.079 2.75-1.043-2.866c-.732-2.012-.724-3.062.026-3.526.687-.424.736-1.188.138-2.134-.817-1.292-.944-1.289-1.028.026-.052.825-.972-1.875-2.044-6s-1.724-9.075-1.448-11c.376-2.632.24-3.128-.55-2-.813 1.162-.949.873-.603-1.285.245-1.531.175-2.513-.157-2.182-.625.626-5.676-13.395-7.036-19.533-.427-1.925-1.763-5.3-2.969-7.5-2.028-3.697-2.156-4.984-1.701-17 .466-12.298.419-12.73-.871-8-.75 2.75-1.441 6.125-1.536 7.5-.163 2.364-.236 2.328-1.346-.678-2.185-5.916-2.495-5.248-2.633 5.678-.046 3.648 2.124 14.216 6.445 31.379 7.345 29.181 7.352 29.232 4.264 30.169-1.237.376-5.528 2.656-9.535 5.068-4.246 2.554-8.523 4.384-10.25 4.384-5.193 0-6.965 2.927-6.965 11.5 0 4.333.422 7.5 1 7.5 2.195 0 .762 1.603-3.077 3.443-5.653 2.709-13.396 11.827-8.423 9.919.825-.317 1.5-.94 1.5-1.385 0-1.43 7.855-7.083 10.511-7.565 3.18-.576 6.535 5.623 4.421 8.17-.642.774-.932 2.309-.644 3.412.288 1.102.116 2.256-.382 2.564-.498.308-.906 1.914-.906 3.568 0 2.554-.303 2.913-2 2.374-1.407-.447-2-.18-2 .901 0 1.018-.558 1.322-1.654.901-1.436-.55-1.567-.083-.989 3.532.794 4.964-.277 5.371-2.357.894-.853-1.835-2.363-3.336-3.5-3.478a543.05 543.05 0 0 1-4.414-.576c-4.274-.579-5.227-8.388-1.367-11.211 2.362-1.727.716-3.766-1.907-2.362-1.547.827-2.254.801-2.814-.105-.56-.905-.928-.919-1.462-.054-.536.867-1.079.853-2.175-.058-1.158-.961-1.767-.907-2.934.261-2 1.999-1.123 4.494 9.789 27.855C698.26 456.942 705 471.956 705 472.481c0 .258 1.35 3.416 3 7.019s3 7.384 3 8.403c0 1.805 2.783 4.913 3.833 4.28.29-.174 1.355 1.904 2.367 4.618 2.78 7.451 7.856 12.191 13.098 12.231 8.75.066 9.672 5.77 4.118 25.468-1.396 4.95-3.167 11.25-3.935 14-.768 2.75-2.328 8.15-3.465 12-3.609 12.217-8.952 30.708-11.413 39.5-12.706 45.395-12.641 45.117-12.097 51.933.362 4.523.231 5.944-.42 4.567-.816-1.726-.955-1.761-1.016-.25-.038.962-.535 1.75-1.102 1.75-.568 0-1.411 1.013-1.873 2.25-.79 2.113-.94 2.014-2.468-1.622-.895-2.13-1.627-4.627-1.627-5.55s-.488-2.166-1.084-2.762c-1.461-1.461-2.266-12.453-1.044-14.252.815-1.199 1.239-1.217 2.576-.107.88.73 1.72 1.151 1.866.936 1.655-2.449 5.063-11.533 4.94-13.167-.088-1.166 1.395-4.679 3.295-7.807 3.818-6.284 5.641-12.482 3.459-11.755-.712.237-4.561 5.203-8.551 11.034-3.991 5.831-8.184 11.529-9.317 12.662-1.134 1.134-2.786 4.554-3.672 7.601-.983 3.383-2.166 5.539-3.039 5.539-.786 0-1.474 1.013-1.529 2.25-.096 2.173-.13 2.165-.984-.25-.638-1.803-.78-.828-.508 3.5l.377 6-2.51-5.5c-3.713-8.14-4.279-10.689-3.115-14.03 1.038-2.976-1.521-11.957-3.41-11.966-.413-.002-.75-.485-.75-1.074 0-.588-1.296-2.953-2.879-5.255-4.013-5.832-7.372-11.948-6.146-11.19.564.348 1.025.156 1.025-.426s.664-1.059 1.475-1.059c1.526 0 1.088-5.899-.52-7-.402-.275-1.954-3.425-3.45-7-8.193-19.577-9.462-21.178-17.755-22.415-2.612-.389-4.75-.838-4.75-.997 0-2.477 2.581-6.53 4.317-6.779 3.108-.444 3.228-3.348.247-5.94-1.41-1.226-2.564-3.092-2.564-4.145 0-1.97-8.26-17.837-10.875-20.891-1.309-1.529-1.757-1.557-4.245-.271-1.529.791-3.673 1.438-4.763 1.438-1.104 0-2.263.886-2.617 2-.349 1.1-1.012 2-1.474 2-.461 0-.603.9-.316 2 .364 1.391.031 2-1.093 2-.95 0-1.617.825-1.617 2 0 2.161-1.585 2.746-2.226.823-.237-.712-.922-.849-1.735-.347-1.073.663-.978 1.096.478 2.16 1.555 1.137 1.645 1.713.62 3.962-.659 1.448-.942 3.442-.627 4.433.314.99.123 2.078-.426 2.417-.548.339-.749 1.389-.446 2.334.426 1.329.33 1.408-.426.35-1.235-1.73-5.212 1.861-5.212 4.706 0 1.434-.825 1.867-3.75 1.97-2.062.072-5.907.645-8.543 1.272-4.738 1.127-4.775 1.167-3.25 3.495.849 1.295 1.543 2.99 1.543 3.767 0 4.255 6.681 3.973 24.757-1.041 10.684-2.964 10.243-3.144 14.682 5.995 1.9 3.914 2.125 5.229 1.221 7.144l-1.107 2.347-1.513-3.144c-3.693-7.669-6.185-8.919-10.257-5.143-1.482 1.375-3.165 2.5-3.739 2.5-.574 0-.932.537-.794 1.194.137.657-1.1 1.454-2.75 1.772-2.01.386-2.582.84-1.734 1.374.697.439 1.04 1.165.762 1.614-1.476 2.388 5.488 14.751 13.7 24.323 4.382 5.108 5.399 6.899 5.695 10.032.043.445.527.531 1.077.191.55-.34 1 .069 1 .91 0 .947-.57 1.308-1.5.952-.825-.317-1.504-.19-1.51.281-.005.471-.916 9.632-2.025 20.357-1.252 12.119-1.807 22.623-1.465 27.75.303 4.538.181 8.25-.271 8.25s-.632 4.336-.4 9.636c.335 7.654.158 9.474-.858 8.846-.806-.498-1.033-.391-.613.289.367.594.022 5.051-.768 9.904a1888.61 1888.61 0 0 0-3.079 19.825c-.903 6.05-2.249 13.25-2.991 16s-1.847 8.375-2.456 12.5c-1.321 8.942-2.293 14.331-4.872 27-1.064 5.225-2.163 11.647-2.443 14.271l-.508 4.77 19.44-.27 19.439-.271 6.19-18.495c7.192-21.49 8.803-20.593 4.237 2.357-3.718 18.685-5.614 16.638 15.409 16.638h17.957l.293-18.052c.162-9.929-.004-18.367-.368-18.75-.934-.984-1.501-12.113-.588-11.546.413.256.75 1.564.75 2.907 0 3.975 1.985 2.778 2.17-1.309.442-9.783-1.315-19.896-3.251-18.7-.505.312-.953-.696-.996-2.241-.042-1.545-.222-3.565-.401-4.49-.179-.924.298-1.92 1.06-2.212.764-.293 1.12-1.221.794-2.069-.324-.846-.153-1.538.38-1.538.534 0 .894 1.013.799 2.25-.094 1.237.202 2.758.659 3.378.456.621.409 2.234-.104 3.584-.514 1.35-.578 3.031-.143 3.735.634 1.025.88 1.011 1.241-.071.248-.743.509.219.582 2.137.072 1.918.583 7.466 1.136 12.328.553 4.863 1.315 18.251 1.694 29.75l.69 20.909h5.868l-.636-16.75c-.35-9.212-1.043-20.575-1.54-25.25-3.835-36.054-3.642-42.144 1.043-32.869 1.803 3.569 8.887 14.089 16.827 24.986 1.264 1.735 1.126 1.883-1.75 1.883-5.285 0-3.685 3.062 2.889 5.531 12.921 4.852 45.989 9.028 45.989 5.808 0-.535 2.995-1.567 6.655-2.295 7.573-1.505 16.389-8.044 10.845-8.044-2.206 0-1.827-2.102.489-2.707 1.094-.286 1.752-.904 1.462-1.372-.29-.469.342-2.555 1.403-4.637 9.035-17.715 13.31-50.058 13.587-102.784.305-58.112 1.587-109.64 2.812-113 .602-1.65 1.849-3.742 2.771-4.649.922-.908 1.966-3.762 2.32-6.343.469-3.422 1.458-5.454 3.65-7.502 2.246-2.099 3.006-3.703 3.006-6.348 0-1.947.474-3.833 1.053-4.191.579-.357.868-1.172.642-1.809-.679-1.916 11.839-25.511 18.598-35.054l2.052-2.897 1.739 2.149c1.152 1.422 2.332 1.921 3.492 1.476 1.196-.458 1.522-.3 1.029.498-.398.644-.54 1.17-.317 1.17 2.337 0 12.712-15.056 16.557-24.028 1.29-3.009 3.428-7.563 4.75-10.119 2.459-4.752 3.047-9.292 1.516-11.708-.495-.781-.409-2.545.204-4.169 1.374-3.64.069-5.248-7.255-8.946-9.309-4.699-21.686-15.591-28.161-24.78-2.933-4.162-5.899-5.607-5.899-2.872 0 .757.681 1.942 1.513 2.633.832.691 1.395 1.937 1.25 2.769-.145.832.412 1.706 1.237 1.942 1.333.382 1.333.312 0-.631-.825-.583-1.05-1.064-.5-1.069.55-.005 5.752 4.826 11.561 10.735 5.808 5.909 12.657 12.318 15.219 14.243 4.892 3.676 5.574 5.047 3.403 6.848-.998.829-2.56.158-6.47-2.78-3.792-2.849-6.548-4.061-10.433-4.587-12.238-1.657-14.78-2.778-14.78-6.519 0-1.537-.337-2.945-.75-3.129-.413-.183-1.526-2.012-2.475-4.064l-1.725-3.731 2.725-1.479c1.499-.813 2.163-1.497 1.475-1.519-.687-.022-1.25-.914-1.25-1.983s-.873-2.555-1.94-3.302c-1.424-.998-1.924-2.492-1.881-5.616.04-2.913-.571-4.949-1.933-6.448-1.095-1.205-1.792-2.737-1.548-3.404.441-1.206-.547-1.578-8.198-3.082-3.217-.632-4.068-1.268-4.346-3.246-.799-5.683-1.85-5.75-13.834-.878-8.33 3.386-7.987 3.319-7.987 1.56 0-.747-.613-4.234-1.364-7.75-1.168-5.474-1.477-6.032-2.152-3.891-.53 1.678-.65.857-.366-2.5.248-2.932.104-4.192-.348-3.047-.652 1.65-.877 1.427-1.45-1.437-.537-2.685-.934-3.135-1.909-2.16-.974.974-.868 1.863.513 4.268.958 1.671 1.707 4.014 1.664 5.207-.069 1.887-.209 1.812-1.083-.581-.553-1.512-1.417-2.75-1.921-2.75s-.917-.675-.917-1.5-.495-1.5-1.101-1.5c-.687 0-.969-1.654-.75-4.405.193-2.422.014-4.195-.399-3.941-.413.255-.802 2.35-.865 4.655l-.115 4.191-.776-4c-.428-2.204-.366-4.776.138-5.727.663-1.252.564-1.598-.359-1.254-.894.332-2.14-3.023-4.187-11.273-8.134-32.792-20.237-49.686-29.185-40.738m-275.928.157c-.736 2.409-2.628 3.068-11.448 3.99-3.314.347-6.025 1.016-6.025 1.487 0 .472-.675.858-1.5.858s-1.5.703-1.5 1.561c0 1.284-.8 1.442-4.5.887-3.891-.584-4.5-.436-4.5 1.093 0 1.677-.1 1.679-1.906.044-1.412-1.277-4.328-1.855-11.25-2.226-5.139-.276-14.069-.846-19.844-1.268-12.117-.884-14.32-.275-13.371 3.699 1.053 4.409 1.275 4.493 10.478 3.968 8.282-.472 8.767-.392 7.86 1.304-1.568 2.929-1.159 4.414 2.485 9.018 2.405 3.04 3.091 4.584 2.264 5.096-.679.419-1.59.004-2.129-.971-3.973-7.191-12.989-7.525-10.502-.39.616 1.766.868 3.865.561 4.665-.307.801-.128 1.722.398 2.047.526.325.956 1.216.956 1.98 0 2.416 4.372 6.226 8.429 7.346 9.512 2.626 20.115-2.996 25.555-13.55 1.541-2.99 3.118-4.511 5.487-5.293 5.44-1.796 24.255-3.734 29.101-2.999 2.475.375 4.735.302 5.023-.164 1.511-2.446 9.588-.831 12.9 2.581 6.315 6.502 11.418 9.018 22.505 11.099 8.363 1.569 10 1.665 10 .582 0-.61.477-1.109 1.059-1.109s.781.45.441 1-.141 1 .441 1 1.059-.45 1.059-1 .421-1 .935-1c3.496 0 6.106-2.054 5.07-3.991-.788-1.472-.744-2.61.165-4.259 1.388-2.52 1.319-4.534-.347-10-1.224-4.014-4.925-5.216-7.7-2.5-1.031 1.009-1.214.672-.95-1.75.316-2.896.486-2.99 4.892-2.719 4.886.3 7.981-2.614 6.599-6.214-.908-2.368-47.812-2.338-52.566.034-4.515 2.252-9.683 1.188-10.525-2.168-.348-1.383-1.03-2.269-1.517-1.968-.487.301-1.118-.018-1.403-.709-.322-.779-.77-.434-1.18.909M459 284c0 .55.477 1 1.059 1s.781-.45.441-1-.816-1-1.059-1-.441.45-.441 1m-8.731 2.693c.973.254 2.323.237 3-.037.677-.274-.119-.481-1.769-.461-1.65.02-2.204.244-1.231.498M448 289c0 .55 1.8 1 4 1s4-.45 4-1-1.8-1-4-1-4 .45-4 1m-3.25 4.08c-2.524 1.47-2.151 2.92.75 2.92 1.833 0 2.5-.533 2.5-2 0-2.229-.675-2.42-3.25-.92m33.814-.019c-2.716.455-5.303.6-5.75.324-.448-.277-.814.006-.814.628 0 .79 2.183.957 7.25.553 9.729-.776 9.75-.78 9.75-1.733 0-.988-3.644-.908-10.436.228m15.762.126c-1.862.9-2.019 1.394-1.09 3.432 1.575 3.457 3.483 2.918 3.954-1.119.443-3.8.357-3.871-2.864-2.313m-39.076 2.475c-1.741.703-1.566 2.338.25 2.338.825 0 1.5-.675 1.5-1.5s-.113-1.464-.25-1.421c-.137.043-.812.306-1.5.583m-34.5 1.454c.688.706 1.25 2.994 1.25 5.084 0 4.255-.105 4.171 3.495 2.802 1.466-.558 2.333-1.471 1.964-2.068-.364-.589-1.291-.829-2.06-.534-1.686.647-1.835-.564-.263-2.136 1.382-1.382-.573-3.587-3.636-4.098-1.612-.269-1.758-.084-.75.95m22 .607c1.788.222 4.712.222 6.5 0 1.788-.221.325-.403-3.25-.403s-5.038.182-3.25.403m330.329 36.86c.048 1.165.285 1.402.604.605.289-.722.253-1.585-.079-1.917-.332-.332-.568.258-.525 1.312m-388.515 1.71c.376.986.935 1.541 1.243 1.233.308-.307.001-1.114-.683-1.793-.988-.98-1.102-.865-.56.56M583 343.801c0 1.606-.237 5.12-.526 7.809-.696 6.473 1.01 2.807 1.978-4.252.458-3.335.327-5.377-.373-5.809-.678-.419-1.079.418-1.079 2.252M741.645 347c.791 4.313 1.36 5.126 1.34 1.917-.009-1.33-.458-3.092-.999-3.917-.692-1.055-.793-.462-.341 2m26.434-.417c.048 1.165.285 1.402.604.605.289-.722.253-1.585-.079-1.917-.332-.332-.568.258-.525 1.312m-16.426 11.934c-.363 2.645-.433 5.036-.156 5.313.277.277.503-.472.503-1.663 0-1.26.628-2.167 1.5-2.167 1.862 0 1.933-2.026.156-4.456-1.211-1.656-1.409-1.363-2.003 2.973M777 358c0 1.65.372 3 .827 3 .455 0 .628-1.35.386-3s-.614-3-.826-3c-.213 0-.387 1.35-.387 3m-286 9.167c-8.076 1.155-22.942 2.213-37 2.632-23.06.688-23.506.741-23.807 2.859-.245 1.714.349 2.302 2.883 2.859 8.894 1.953 77.304-3.896 79.075-6.761 1.178-1.906-1.135-3.766-4.523-3.639-1.721.065-9.203.987-16.628 2.05m293.575.51c.465 1.003.754 3.96.644 6.573-.195 4.588.958 6.336 2.143 3.25.316-.825 1.28-1.5 2.142-1.5 1.239 0 1.35.405.531 1.934-1.201 2.244-1.382 6.077-.285 6.042.413-.013 2.466-.422 4.563-.909 3.397-.788 3.921-.647 4.806 1.295 1.478 3.243 8.881 2.526 8.881-.86 0-1.258.682-2.55 1.515-2.869 1.879-.721 3.629-5.095 2.85-7.124-.82-2.138-2.037-1.869-2.681.592-.303 1.156-1.029 1.804-1.617 1.441-1.547-.957-1.31-3.542.326-3.542.766 0 1.69-.775 2.054-1.722.566-1.475.794-1.511 1.591-.25.778 1.23.934 1.179.947-.309.02-2.376-.411-2.464-15.87-3.215-12.717-.618-13.343-.559-12.54 1.173M751.158 370c0 1.375.227 1.938.504 1.25.278-.687.278-1.812 0-2.5-.277-.687-.504-.125-.504 1.25m-370.908 8.733c-5.059 1.754 6.11 23.863 15.201 30.093 5.142 3.523 4.902 2.66-1.964-7.076-7.817-11.083-10.482-15.895-10.502-18.96-.02-2.937-1.146-4.608-2.735-4.057m353.779 2.358c-4.453 1.817-12.984 7.956-14.182 10.206-.646 1.212-1.888 2.758-2.76 3.435-1.32 1.025-1.04 1.13 1.663.625 3.133-.585 4.523.738 2.25 2.143-2.078 1.284-1.164 8.952 1.194 10.013 1.408.634 2.927 3.046 4.244 6.739 1.968 5.519 4.401 7.401 3.748 2.898-.354-2.442 1.877-5.15 4.243-5.15 1.019 0 1.571-.899 1.571-2.559 0-1.554.418-2.301 1.064-1.902.72.446.846-.503.388-2.941-.562-2.997-.387-3.598 1.044-3.598 1.247 0 1.518-.479.989-1.75-.401-.962-1.161-3.666-1.69-6.008-.589-2.613-1.376-4.001-2.035-3.594-.712.44-.858-.148-.431-1.742.354-1.323.65-3.194.657-4.156.016-2.042 2.997-2.345 4.911-.5 1.049 1.011 1.229.868.942-.75-.412-2.314-4.004-2.962-7.81-1.409m16.05 12.492c.048 1.165.285 1.402.604.605.289-.722.253-1.585-.079-1.917-.332-.332-.568.258-.525 1.312m38.802 33.667c-.432 4.533-.276 11.75.255 11.75.871 0 3.864-6.445 3.864-8.319 0-3.788-3.785-6.94-4.119-3.431m-93.318 11c2.201 7.098 6.412 13.109 8.041 11.479.416-.416-7.561-13.729-8.227-13.729-.281 0-.198 1.012.186 2.25m89.937.75c.34.55.816 1 1.059 1s.441-.45.441-1-.477-1-1.059-1-.781.45-.441 1m-249.259 4.633a163.615 163.615 0 0 1-1.746 4.617c-.585 1.443-.165 1.75 2.398 1.75 3.531 0 3.564-.101 1.731-5.367l-1.347-3.867-1.036 2.867m59.099-.864c-.638.406 2.512.605 7 .444 11.981-.432 13.443-.923 3.16-1.062-4.95-.066-9.522.212-10.16.618M552 448.243c0 .416 4.612.696 10.25.621 11.423-.152 10.543-.627-2-1.081-4.538-.164-8.25.043-8.25.46m153.57 7.644c-.708 1.145 3.224 10.113 4.433 10.113.431 0 1.06-.722 1.399-1.605.723-1.883-4.878-10.052-5.832-8.508m-122.948 1.938c-.443 1.279-.539 2.592-.213 2.917 1.036 1.037 1.765-.492 1.385-2.906l-.368-2.336-.804 2.325M577 470c0 .55.423 1 .941 1s1.219-.45 1.559-1c.34-.55-.084-1-.941-1s-1.559.45-1.559 1m-129.493 1.989c-.35.566.051.734.941.393 1.732-.665 2.049-1.382.611-1.382-.518 0-1.216.445-1.552.989M573.5 474c-.738 1.194 1.222 1.194 4 0 1.786-.767 1.712-.867-.691-.93-1.48-.038-2.969.38-3.309.93m-4.5 1c-1.293.835-1.266.971.191.985.93.008 1.969-.435 2.309-.985.782-1.266-.542-1.266-2.5 0m-48.493 21.989c-.35.566.051.734.941.393 1.732-.665 2.049-1.382.611-1.382-.518 0-1.216.445-1.552.989M711.657 509c1.079 9.886 2.34 14.339 1.74 6.146-.296-4.045-.944-8.32-1.44-9.5-.602-1.435-.702-.324-.3 3.354M690 507.559c0 1.517-.423 2.297-1.04 1.916-.675-.417-.812.266-.392 1.941.487 1.939.265 2.584-.887 2.584-1.226 0-.957 1.159 1.337 5.75 6.967 13.946 10.21 22.407 12.938 33.75 1.218 5.066 2.078 6.896 3.114 6.623.786-.208 2.012-.395 2.723-.417 1.565-.048.676-5.164-1.421-8.179-1.326-1.905-1.373-1.888-1.411.5-.085 5.354-2.961-4.19-2.981-9.892-.039-11.082-1.728-18.306-6.522-27.898-4.993-9.988-5.458-10.557-5.458-6.678M395.2 515.2c-1.368 1.368-1.626 4.8-.361 4.8.727 0 3.161-4.271 3.161-5.547 0-.872-1.611-.442-2.8.747m397.656 25.98c-.222 1.276-.137 3.895.188 5.82l.591 3.5.807-4.825c.5-2.985.428-5.205-.187-5.82-.66-.66-1.131-.214-1.399 1.325m-88.74 16.57c.071 1.692.292 2.077.573 1 .252-.962.901-1.75 1.443-1.75s.708-.45.368-1c-1.193-1.931-2.499-.972-2.384 1.75M392.218 568c-.014 6.738.158 7.762.827 4.942.464-1.957.472-5.782.017-8.5-.761-4.55-.828-4.268-.844 3.558m324.032-6.28c-1.45.518-1.632 4.128-.314 6.211.669 1.057 1.088.457 1.605-2.297.763-4.066.591-4.586-1.291-3.914m-79.186 32.504c.515 1.795.936 3.378.936 3.519 0 .142.54.257 1.2.257.933 0 .933-.267 0-1.2-.66-.66-1.2-1.983-1.2-2.941 0-.958-.421-2.001-.936-2.319-.581-.359-.581.658 0 2.684m3.936 5.987c0 1.079 3.038 7.789 3.527 7.789.275 0-.196-1.664-1.046-3.699-1.498-3.587-2.481-5.206-2.481-4.09m4.031 9.289c0 .55.436 1.675.969 2.5.533.825.969 1.05.969.5s-.436-1.675-.969-2.5c-.533-.825-.969-1.05-.969-.5M632 621.294c0 .847-.337 1.728-.75 1.959-.413.23-.242.303.378.161.621-.142 1.633.247 2.25.864.829.829 1.122.71 1.122-.456 0-.867-.675-2.137-1.5-2.822-1.223-1.015-1.5-.96-1.5.294m.07 7.289c.039 1.605.469 3.817.956 4.917.591 1.335.688.505.291-2.5-.701-5.3-1.346-6.551-1.247-2.417M638 634.5c0 3.025-.45 5.5-1 5.5s-1 .45-1 1c0 2.197 1.87.813 2.902-2.149 1.372-3.935 1.431-9.851.098-9.851-.55 0-1 2.475-1 5.5m154.272-1.5c0 2.475.195 3.487.434 2.25.238-1.237.238-3.263 0-4.5-.239-1.237-.434-.225-.434 2.25m-156.114 1c0 1.375.227 1.938.504 1.25.278-.687.278-1.812 0-2.5-.277-.687-.504-.125-.504 1.25m-4.079 4.583c.048 1.165.285 1.402.604.605.289-.722.253-1.585-.079-1.917-.332-.332-.568.258-.525 1.312m159.626 20.789c-.437 10.93-.598 20.068-.358 20.308.602.602 1.918-31.249 1.495-36.18-.188-2.2-.7 4.943-1.137 15.872M660 642.941c0 .518.481 1.238 1.068 1.601.588.363.859 1.205.604 1.871-.256.666.417 2.308 1.494 3.649l1.959 2.438-.689-2.5c-1.351-4.9-4.436-9.809-4.436-7.059m130 42.809c0 3.706-2.641 20.933-5.364 35-.772 3.987-1.055 7.25-.629 7.25.426 0 .998-1.462 1.271-3.25.273-1.788 1.445-8.65 2.605-15.25 2.331-13.264 3.76-27.5 2.761-27.5-.354 0-.644 1.688-.644 3.75m-82 .809c0 .885-.478 1.263-1.107.875-.718-.444-.912-.025-.553 1.191.304 1.031.865 3.675 1.247 5.875.381 2.2 1.15 5.125 1.709 6.5 1.226 3.017 1.333 3.536 1.642 8l.242 3.5.993-3.459c1.006-3.505.773-6.977-.702-10.455-.574-1.356-.47-1.703.359-1.191.714.442 1.17.074 1.17-.943 0-.97-.552-1.454-1.322-1.159-2.065.793-3.643-2.733-2.999-6.702.32-1.975.299-3.591-.048-3.591s-.631.702-.631 1.559m15.624 26.98c-.965 2.514-.681 3.163.498 1.136.584-1.004.851-2.036.593-2.293-.257-.258-.749.263-1.091 1.157m-16.823 5.223c-1.392.299-.863 1.527 2.932 6.801 6.647 9.241 9.86 8.923 4.345-.43-1.607-2.726-2.714-5.164-2.46-5.417.68-.68-2.845-1.378-4.817-.954M685.158 722c0 1.375.227 1.938.504 1.25.278-.687.278-1.812 0-2.5-.277-.687-.504-.125-.504 1.25M722 742.098c0 .482 2.265 3.152 5.033 5.935l5.033 5.06 7.783-.231c7.347-.218 7.687-.326 6.07-1.943-1.867-1.867-10.401-4.055-12.569-3.223-.743.285-1.35.02-1.35-.589s-.471-1.107-1.048-1.107c-.576 0-2.039-1.013-3.25-2.25-2.219-2.267-5.702-3.276-5.702-1.652m28 10.317c0 2.029 14.861 3.428 16.046 1.511 1.472-2.381-.037-2.926-8.105-2.926-6.179 0-7.941.314-7.941 1.415" fill-rule="evenodd"/>
<path fill="#fbfbfb" stroke="#fbfbfb" d="M454 163.658c-.825.275-2.175.759-3 1.075-.825.316-2.625.747-4 .958-7.612 1.169-20.125 6.796-28.664 12.889-3.559 2.54-6.297 4.792-6.084 5.006.214.213 5.56-2.194 11.881-5.349 6.321-3.155 16.189-7.273 21.93-9.151 5.74-1.877 11.337-3.766 12.437-4.198 1.1-.432 2.9-.981 4-1.22 1.1-.24-.025-.453-2.5-.473-2.475-.02-5.175.188-6 .463m31.813 1.025c.721.289 1.584.253 1.916-.079.332-.332-.258-.568-1.312-.525-1.165.048-1.402.285-.604.604m8.187 1.86c3.025.755 5.95 1.344 6.5 1.31 2.009-.126-7.076-2.699-9.5-2.691-1.375.004-.025.626 3 1.381m-86.554 14.47c-5.294 2.005-26.097 29.992-34.532 46.459l-4.689 9.152-.688 13.938c-.952 19.275-1.227 19.666-10.079 14.357-1.673-1.004-10.081-3.864-18.684-6.355-8.602-2.492-18.259-5.697-21.458-7.123-6.901-3.076-12.731-3.575-14.55-1.245-2.228 2.855-9.21 3.317-11.585.768-1.115-1.197-2.532-1.865-3.148-1.484-.616.381-1.771.153-2.565-.507-1.569-1.301-2.868.461-2.339 3.174.145.744-.103 2.436-.55 3.76-1.153 3.413 17.384 21.57 21.076 20.644 1.276-.321 3.114-.174 4.083.325.969.5 4.687 1.442 8.262 2.095 3.575.652 13.298 3.459 21.607 6.237l15.107 5.052.567 10.62c.647 12.141 4.082 28.653 9.288 44.65 4.761 14.626 7.055 17.396 12.485 15.072 1.214-.52 2.064.816 3.892 6.116 4.532 13.142 13.481 28.106 24.577 41.096 11.941 13.979 39.557 26.048 59.845 26.155 5.126.027 6.327.43 9.5 3.185 6.273 5.448 8.707 12.709 3.851 11.49-2.156-.541-8.331 2.41-7.268 3.473.257.257-10.202 5.69-23.242 12.074-17.877 8.752-26.661 13.72-35.709 20.196-6.6 4.723-13.636 9.047-15.636 9.608-3.556.998-11.864 10.16-11.864 13.084 0 1.426.801.87 13.163-9.141 11.479-9.297 24.782-17.994 32.517-21.258 3.201-1.35 10.545-4.569 16.32-7.152 9.033-4.04 15.936-7.109 31.638-14.07l3.139-1.392.725 14.979c.735 15.172 1.059 16.444 3.908 15.351 2.083-.799 2.101-9.403.054-26.786-.834-7.09-1.393-13.014-1.241-13.165.964-.958 5.458 4.583 5.376 6.627-.164 4.032 5.271 3.865 11.697-.361 2.862-1.882 9.704-6.223 15.204-9.645 5.5-3.423 11.35-7.748 13-9.61 1.65-1.863 4.237-3.676 5.75-4.03 2.726-.637 2.75-.598 2.75 4.481 0 6.125 2.865 17.093 4.465 17.093 2.16 0 6.519-2.504 6.527-3.75.004-.687-.41-1.25-.921-1.25-2.846 0-4.071-3.352-4.071-11.137 0-7.826 1.052-11.863 3.09-11.863 2.056 0 12.759-8.024 15.616-11.707 7.745-9.984 25.294-45.637 25.294-51.386 0-1.021 1.237-2.504 2.75-3.296 5.592-2.929 15.076-15.457 20.901-27.611 3.385-7.061 2.572-20.721-.934-15.697-.461.661-.536-.763-.167-3.18.519-3.394.385-4.201-.595-3.595-.804.497-1.014.377-.578-.329.885-1.432-2.05-8.519-3.227-7.792-1.727 1.068-2.016 6.303-.578 10.477 2.339 6.789-.782 22.552-5.292 26.733-3.447 3.193-9.718 5.094-11.616 3.519-2.298-1.907-4.277 1.224-2.809 4.446 1.313 2.88-.436 13.299-3.259 19.418l-1.614 3.5.552-3.5c2.264-14.346 2.718-47.842.719-53-1.114-2.873-2.105 7.572-2.183 23-.181 35.971-7.066 56.996-24.311 74.241-6.875 6.875-9.606 10.236-8.749 10.765.685.424.937 1.271.559 1.882-1.044 1.69-2.278 1.333-2.842-.823-.363-1.39-1.094-1.782-2.593-1.39-1.666.436-1.89.913-1.11 2.37 1.416 2.645 1.335 2.778-2.711 4.469-3.245 1.356-3.864 1.364-5.158.069-1.245-1.244-1.871-1.267-4.063-.147-5.456 2.785-8.903 2.926-9.264.376-.257-1.814-.866-2.247-2.828-2.01-7.301.882-10 1.492-10 2.258 0 .467-1.687 1.153-3.75 1.525-2.062.372-4.2 1.005-4.75 1.408-.55.402-2.35 1.037-4 1.411l-3 .68 3-1.83c1.65-1.007 5.586-3.163 8.748-4.792 10.081-5.195 6.66-6.101-5.659-1.499-4.352 1.625-8.251 2.746-8.665 2.49-.414-.256-.904-.067-1.089.419-.184.487-1.854 1.213-3.71 1.613-2.367.511-3.171.398-2.691-.378.381-.617.035-1.107-.781-1.107-.937 0-1.29.672-.979 1.862.347 1.326-.185 2.042-1.843 2.487-3.167.848-5.043.806-4.495-.099.25-.413-1.836-.865-4.635-1.005-2.799-.14-5.339-.59-5.645-1-1.002-1.343-9.064-1.317-8.798.029.166.841-1.014 1.135-3.758.935-5.312-.387-10.657-2.146-9.957-3.278.308-.5-.137-.64-.991-.313-.854.328-1.552.098-1.552-.511s.482-1.107 1.071-1.107c1.279 0-.935-2.384-3.089-3.328-.815-.356.093-.401 2.018-.1 2.612.41 3.12.284 2-.496-1.333-.929-1.333-1.051 0-1.097 2.556-.087-3.983-4.729-6.662-4.729-1.344 0-3.432-.876-4.64-1.947-1.209-1.07-4.673-3.664-7.698-5.764-3.025-2.099-6.77-5.329-8.323-7.178-3.098-3.689-4.361-4.164-4.854-1.827-.251 1.19-.625 1.046-1.672-.645-1.166-1.883-1.145-2.101.152-1.603 2.562.983 2.652-.353.209-3.128a242.362 242.362 0 0 1-4.393-5.158c-1.129-1.375-2.067-1.937-2.086-1.25-.018.688.375 1.25.873 1.25.499 0 .685 1.012.414 2.25-.397 1.808-.283 1.955.578.75 1.335-1.87 1.428-.052.102 2-.798 1.235-.972 1.25-.985.083-.008-.779-.319-1.112-.691-.741-.776.776-5.324-3.202-5.324-4.656 0-.531-.788-1.569-1.75-2.307-1.537-1.177-1.567-1.477-.25-2.454 1.296-.962 1.275-1.042-.152-.588-2.441.776-3.073-.429-1.082-2.062.953-.783 1.172-1.138.484-.79-.687.348-1.257.044-1.265-.676-.012-1.042-.191-1.032-.876.049-.613.967-1.361-.042-2.595-3.5a306.301 306.301 0 0 0-3.718-9.763c-4.645-11.48-8.219-26.666-9.671-41.095-2.261-22.463-2.379-25.533-.96-25.012 2.03.747 4.079-.996 3.652-3.108-.241-1.194-1.188-1.851-2.598-1.801-2.505.09-3.261-5.137-1.061-7.337.876-.876.861-1.514-.063-2.627-1.018-1.227-.755-1.523 1.593-1.793 3.464-.397 3.647-2.472.362-4.11-1.633-.814-2.442-2.054-2.427-3.717.058-6.353 1.641-17.383 2.94-20.493 1.945-4.655 1.866-6.604-.237-5.797-1.344.516-1.514.264-.866-1.281.444-1.058.768-2.801.721-3.873-.238-5.364 23.966-42.792 33.227-51.382 4.861-4.508 4.884-8.992.038-7.156M561 206.111c0 .611 1.692 3.199 3.761 5.75 6.387 7.879 9.942 13.509 10.505 16.639.297 1.65 1.909 6.938 3.584 11.751 3.775 10.852 5.15 20.425 5.15 35.853 0 10.175.245 12.053 1.645 12.59 4.308 1.653 5.435-7.682 3.321-27.502-2.77-25.978-7.23-36.78-20.97-50.788-5.261-5.364-6.996-6.428-6.996-4.293m-173.272 11.596c-1.549 3.867-1.431 5.293.438 5.293.576 0 .787-.679.469-1.509-.318-.829-.129-2.692.421-4.138 1.589-4.179.357-3.85-1.328.354m187.287 20.484c-.008.93.435 1.969.985 2.309 1.266.782 1.266-.542 0-2.5-.835-1.293-.971-1.266-.985.191m-197.262 3.321c-.571 2.989-.185 3.164 1.215.549.587-1.098.652-2.178.149-2.489-.489-.302-1.102.571-1.364 1.94m-63.02 15.612c.679.684 1.486.991 1.793.683.308-.308-.247-.867-1.233-1.243-1.425-.542-1.54-.428-.56.56m9.136 3.218c.612.738.918 1.538.678 1.778-.912.911 21.386 7.119 23.142 6.443 2.582-.994.876-1.81-12.673-6.058-12.715-3.987-12.65-3.974-11.147-2.163M350 268.393c0 .216.698.661 1.552.989.89.341 1.291.173.941-.393-.587-.951-2.493-1.406-2.493-.596M734.2 281.2c-2.184 2.184-1.25 2.984 2.701 2.317 3.647-.616 4.085-.417 6.75 3.078 1.567 2.055 3.749 4.698 4.849 5.871 2.139 2.283 4.846 10.524 10.028 30.534 3.514 13.571 8.485 29.32 9.07 28.736.867-.868-6.139-33.409-9.201-42.736-2.415-7.355-10.12-22.257-13.313-25.75-3.167-3.464-8.471-4.463-10.884-2.05m-276.493 1.122c-.531 1.384.055 12.552.862 16.428.258 1.238 1.136 2.25 1.95 2.25 2.413 0 2.047-11.434-.445-13.926-1.196-1.196-1.72-2.711-1.383-4 .596-2.278-.173-2.865-.984-.752m14.582 4.022c-3.973 2.667-4.02 3.226-.428 5.084 2.241 1.159 4.465 1.305 10.25.675 4.701-.512 7.625-.443 8.037.19.632.97 2.406.731 6.256-.846 1.749-.716 1.85-.436 1.235 3.407-1.136 7.104 2.987 12.135 8.997 10.978 2.805-.541 6.364-6.634 6.364-10.897 0-4.149.981-4.899 5.512-4.209 3.908.595 7.499-2.803 5.504-5.207-2.277-2.743-47.486-2.021-51.727.825m-89.903 3.092c-.357.931-.126 2.84.514 4.243 1.15 2.525 1.251 2.545 9.415 1.865l8.252-.687-.324 3.821c-.474 5.608 5.861 12.322 11.628 12.322 7.079 0 11.946-9.229 7.474-14.171-1.563-1.727-1.511-1.829.941-1.829 2.505 0 4.483-1.564 3.377-2.671-2.88-2.879-40.276-5.5-41.277-2.893M357 294.059c0 .582.45.781 1 .441s1-.816 1-1.059-.45-.441-1-.441-1 .477-1 1.059m5.611 2.413c-5.137 7.838-2.968 28.114 5.313 49.674l2.781 7.24.688-3.669c.431-2.296-.057-7.533-1.305-14-1.097-5.682-2.537-17.393-3.2-26.024-1.252-16.301-1.585-17.33-4.277-13.221m226.639 3.19c-1.991.804-1.526 3.555.5 2.953.962-.286 3.084-.839 4.714-1.23 2.617-.626 2.734-.799 1-1.477-2.259-.883-4.423-.969-6.214-.246M411.5 306c-.34.55.084 1 .941 1s1.559-.45 1.559-1-.423-1-.941-1-1.219.45-1.559 1m313.051 3.805c-.598 4.211-.33 6.479 1.302 11 1.131 3.132 4.363 13.345 7.183 22.695 2.82 9.35 5.809 19.025 6.644 21.5 3.081 9.139 4.103 12.984 3.324 12.503-.439-.272-2.307-.172-4.151.222l-3.353.717 3.5.536c3.281.502 3.487.755 3.298 4.029-.112 1.921.676 6.672 1.75 10.557 1.073 3.885 1.952 9.689 1.952 12.897 0 8.243 6.75 37.573 9.137 39.699 2.101 1.873 2.896 23.84.863 23.84-.55 0-1-.393-1-.873 0-.481-2.057-.752-4.571-.603-2.892.171-4.742-.177-5.038-.948-.277-.721-1.658-1.044-3.384-.79-2.469.362-3.015.029-3.57-2.179-.359-1.434-1.041-2.607-1.514-2.607-.473 0-.601-.675-.285-1.5.317-.825.171-1.5-.325-1.5-.495 0-1.452-2.812-2.126-6.25-.674-3.437-2.454-10.075-3.956-14.75-1.502-4.675-2.587-9.757-2.411-11.293.189-1.654-.685-4.51-2.142-7-7.594-12.978-8.868-16.439-7.223-19.62 2.073-4.009 2.053-4.044-1.937-3.396-3.72.603-3.899.409-4.875-5.286-.466-2.714-.137-3.291 2.663-4.686l3.194-1.591-3.128-.064c-4.355-.089-5.511 1.824-5.59 9.258-.059 5.533.316 6.94 2.671 10.028 1.641 2.151 3.661 7.112 5.036 12.371 1.263 4.828 4.391 15.754 6.951 24.279 2.56 8.525 4.98 16.625 5.377 18 .435 1.502 1.587 2.624 2.887 2.811 1.48.212 2.373 1.263 2.825 3.321.775 3.528.084 4.621-1.888 2.985-1.108-.92-1.561-.791-2.132.607-.671 1.647-.783 1.631-1.546-.224-.798-1.941-.825-1.937-.893.143-.106 3.226-5.07 4.383-5.07 1.182 0-.581-1.687-3.353-3.75-6.159-2.062-2.807-7.002-10.417-10.976-16.911-7.615-12.446-11.929-17.284-13.931-15.624-1.351 1.12-3.813-5.155-3.526-8.981.247-3.279-.99-4.989-1.868-2.584-.642 1.761-.82 1.687-1.988-.816-1.946-4.173-5.413-3.795-4.581.5 1.247 6.437 19.488 39.647 20.352 37.054.177-.531-1.457-4.529-3.632-8.885-8.362-16.748-5.871-17.762 3.643-1.483 3.075 5.26 6.841 11.41 8.371 13.667 2.519 3.719 2.644 4.298 1.329 6.175-1.115 1.591-1.208 2.71-.403 4.828 1.626 4.276 2.75 18.281 1.509 18.799-.607.253-.526.47.191.516.682.043 2.526 2.892 4.097 6.329 4.21 9.208 7.495 12.085 13.081 11.456 4.117-.464 7.687.566 9.211 2.658.347.475.025 3.158-.715 5.963-1.707 6.469-.997 9.673 2.143 9.673 2.626 0 7.461 3.99 7.41 6.115-.021.857-.798.467-2.04-1.025-2.294-2.756-3.569-2.024-4.2 2.41-.347 2.436-.456 2.216-.577-1.167-.083-2.291.311-4.395.875-4.675.564-.279.451-.395-.25-.256-1.935.382-2.079 5.861-.334 12.672.86 3.36 1.325 6.496 1.032 6.97-.293.473-.644 5.181-.78 10.462-.137 5.281-.686 9.915-1.221 10.298-2.295 1.644-4.887 8.155-7.579 19.04-2.544 10.287-4.443 17.209-9.371 34.156-.823 2.829-1.855 4.457-2.781 4.383-.81-.064-2.067 1.399-2.793 3.25-.727 1.852-1.687 3.367-2.135 3.367-.447 0-.813 1.083-.813 2.406 0 1.918.408 2.3 2.009 1.881 2.319-.606 2.483 3.164.241 5.534-.687.727-1.25 2.415-1.25 3.75 0 1.336-.45 2.429-1 2.429s-1 .513-1 1.14c0 .627-.719 1.665-1.597 2.307-1.348.986-1.564 3.335-1.389 15.11.294 19.713.538 23.196 1.73 24.655.647.791 1.018 7.388.964 17.112-.064 11.569.245 16.029 1.149 16.587 1.151.712 2.294 2.571 6.645 10.816 3.222 6.103 8.579 9.908 15.693 11.146 8.779 1.529 10.268 1.441 14.805-.873 4.449-2.27 5-2.384 5-1.039 0 .529-1.877 1.467-4.172 2.085-3.081.83-3.8 1.359-2.75 2.023 1.906 1.207 5.619 1.164 7.965-.092 1.242-.665 2.532-.686 3.684-.06.975.529 3.01 1.223 4.523 1.542 1.991.419 2.759 1.195 2.782 2.81.029 2.079.123 2.11 1.373.464.808-1.066 1.996-1.516 2.991-1.135 6.459 2.479 18.256-27.812 18.926-48.598.098-3.025.471-5.725.828-6 1.926-1.48 3.663-62.065 4.359-152 .145-18.625-1.934-15.507-3.333 5l-.784 11.5-.765-7c-.42-3.85-1.205-8.159-1.745-9.575-1.461-3.84 3.743-25.617 11.094-46.425.972-2.75 2.354-6.935 3.072-9.3 1.927-6.348 3.307-6.415 2.441-.118-.404 2.936-1.109 6.031-1.566 6.878-.957 1.773-6.923 25.075-6.923 27.041 0 3.282 3.785-2.465 4.898-7.435.829-3.703 1.946-5.889 3.546-6.937 1.543-1.012 2.509-2.821 2.844-5.33.979-7.331 2.56-11.418 8.723-22.561 9.074-16.404 14.659-24.662 17.377-25.695 1.32-.502 4.813-4.429 7.763-8.728 3.926-5.72 6.032-7.902 7.856-8.141 3.456-.452 10.346-10.971 10.125-15.458-.087-1.769-.15-5.483-.141-8.253l.017-5.038-6.873-3.712c-7.839-4.234-9.689-4.722-5.542-1.463 4.931 3.875 8.393 7.96 7.735 9.128-.348.617-1.351 1.957-2.23 2.977-.879 1.02-1.403 1.92-1.164 2 1.837.614-9.882 17.756-15.008 21.953-3.23 2.644-8.472 8.001-11.649 11.905-3.178 3.903-6.667 7.59-7.754 8.192-1.087.602-2.575 1.77-3.305 2.595-1.114 1.258-1.134 1.097-.127-1 .66-1.375 1.81-2.86 2.555-3.3.745-.44 1.354-1.429 1.354-2.198 0-1.411 4.365-6.695 5.427-6.569 2.136.251 2.716-.118 2.219-1.412-.354-.923.695-2.442 2.789-4.04 2.426-1.85 3.212-3.116 2.832-4.566-.329-1.261.174-2.528 1.354-3.411 1.801-1.346 1.791-1.382-.235-.873-1.499.377-2.734-.258-4.25-2.185L829 431.73l-.079 2.885c-.043 1.587-.327 2.21-.629 1.385-.303-.825-1.393-3.388-2.421-5.695-2.329-5.222-2.399-7.742-.113-4.055 2.037 3.285 2.816 3.415 4.262.712 1.646-3.075-.541-7.668-7.87-16.525-3.167-3.828-4.02-8.879-4.293-25.437-.175-10.597-.871-14-2.866-14-2.099 0-2.821 13.185-2.12 38.7.17 6.161-.053 11.785-.495 12.5-.441.714-.67 2.559-.509 4.1.403 3.835-1.657 6.37-3.323 4.091-.709-.97-2.761-1.684-5.058-1.761-4.19-.141-5.008 1.272-5.999 10.37-1.786 16.402-1.353 15.593-8.851 16.528l-5.865.731.697-6.939c.562-5.596.403-7.182-.822-8.199-1.642-1.363-4.829-.271-6.353 2.177-.436.701-2.091 2.27-3.678 3.488L769.73 449h4.135c3.343 0 4.135.351 4.135 1.833 0 1.009-.675 1.834-1.5 1.834s-1.5-.375-1.5-.834c0-.458-.45-.833-1-.833s-1 .67-1 1.489c0 .976-.86 1.417-2.5 1.282-1.375-.114-2.5-.559-2.5-.989 0-.43-.942-.782-2.094-.782-1.252 0-2.303-.803-2.616-2-.288-1.1-.921-2-1.407-2-.485 0-.814-.337-.729-.75.085-.413-.59-2.423-1.5-4.468-2.027-4.555-2.039-4.867-.162-4.147 4.158 1.596 2.147-8.156-7.347-35.635-4.983-14.419-6.968-22.126-9.147-35.5-1.442-8.854-3.68-18.44-5.952-25.5-.974-3.025-2.332-7.606-3.019-10.18-.686-2.574-2.084-5.577-3.106-6.675-1.046-1.123-2.309-4.759-2.889-8.32-1.92-11.792-2.606-13.175-3.481-7.02M494 310.32c0 3.96 11.933 8.106 17.891 6.215 3.424-1.087.914-4.535-3.3-4.535-1.837 0-5.253-.675-7.591-1.5-5.234-1.847-7-1.892-7-.18m99.114 32.609c-.859.532-.962 1.047-.29 1.462.571.353 1.339.154 1.707-.441.918-1.486.188-2.012-1.417-1.021m176.44 11.633c-.367 1.96-.158 5.107.465 6.996.944 2.859.864 3.702-.477 5.043-.885.885-1.395 2.35-1.133 3.254.262.905.79 3.895 1.173 6.645.383 2.75 1.05 5.231 1.484 5.514.433.283 1.759 5.683 2.947 12 1.187 6.317 3.229 15.986 4.536 21.486 1.308 5.5 2.677 11.575 3.042 13.5 1.253 6.604 2.194 8.185 4.228 7.097 2.136-1.143 2.908-23.789 1.09-31.967-.827-3.719-.279-12.03 1.422-21.563.428-2.402-3.007-1.406-3.963 1.149-.952 2.544-1.109 2.203-1.822-3.972-.566-4.897-.439-7.168.459-8.25 1.657-1.997-.345-4.494-3.602-4.494-2.089 0-2.298.364-1.859 3.25l.494 3.25-1.422-3.622c-.783-1.992-2.186-7.054-3.12-11.25-1.866-8.388-2.926-9.481-3.942-4.066m19.357 5.758c-9.307 3.9-9.215 5.248.338 4.966a973.86 973.86 0 0 1 9.844-.25c2.432-.034 2.555-.267 1.986-3.786-.787-4.871-2.456-4.999-12.168-.93M490.5 367.647c-11.075 1.404-25.633 2.446-37.84 2.708-19.359.415-22.786 1.014-21.128 3.696 2.271 3.675 79.511-2.265 80.256-6.172.498-2.613-2.278-2.644-21.288-.232m332.528 11.103c.037 1.007 5.972 6.792 5.972 5.821 0-1.285-4.077-6.571-5.068-6.571-.513 0-.919.337-.904.75M396.5 380c.34.55.816 1 1.059 1s.441-.45.441-1-.477-1-1.059-1-.781.45-.441 1m-1 4c.34.55.816 1 1.059 1s.441-.45.441-1-.477-1-1.059-1-.781.45-.441 1m-11.104 8.5c3.202 5.924 5.417 9.021 6.02 8.417.386-.385-6.719-11.629-8.162-12.917-.308-.275.656 1.75 2.142 4.5m394.762-2.5c0 1.375.227 1.938.504 1.25.278-.687.278-1.812 0-2.5-.277-.687-.504-.125-.504 1.25M403 395.048c0 .67-.698.898-1.641.536-1.417-.543-1.456-.406-.287 1.003.85 1.024 1.493 1.217 1.727.516.204-.613.783-.861 1.286-.55.503.311.915.115.915-.435s-.45-1.278-1-1.618c-.55-.34-1-.093-1 .548m2.879 2.847c-2.195 1.358-2.398 1.83-1.25 2.903.754.704 1.403.926 1.441.491.039-.434.413.087.832 1.157.727 1.858.788 1.846 1.337-.251.316-1.209.166-1.946-.332-1.637-1.32.815-1.111-.954.276-2.341 1.897-1.897.546-2.086-2.304-.322m437.347 1.679c.95.994 2.001 1.533 2.336 1.197.335-.335-.442-1.148-1.726-1.807-2.233-1.145-2.26-1.118-.61.61M410.5 400c.34.55 1.068 1 1.618 1s.722-.45.382-1c-.34-.55-1.068-1-1.618-1s-.722.45-.382 1m-1.5 3c0 .55.675 1 1.5 1s1.5-.45 1.5-1-.675-1-1.5-1-1.5.45-1.5 1m2.937 5.02c1.891 1.616 3.634 2.742 3.875 2.502.24-.24 1.288.556 2.328 1.771l1.892 2.207-1.188-2.776c-.654-1.527-1.665-2.617-2.247-2.423-.582.194-2.187-.694-3.567-1.974-1.38-1.28-2.964-2.309-3.52-2.286-.555.022.537 1.363 2.427 2.979m93.813 7.642c.688.278 1.813.278 2.5 0 .688-.277.125-.504-1.25-.504s-1.937.227-1.25.504m-76.75.768c0 .275.9.981 2 1.57 1.1.589 2 .845 2 .57s-.9-.981-2-1.57c-1.1-.589-2-.845-2-.57m371 3.604c-1.298.869-1.239 1.203.441 2.485 1.694 1.292 1.726 1.481.25 1.481-.93 0-1.691.45-1.691 1 0 1.519 2.594 1.195 4-.5 1.601-1.929 3.453-1.904 5.429.071.864.865 1.571 1.141 1.571.615 0-1.397-4.889-4.373-6.028-3.669-.535.331-1.47.293-2.079-.083-.771-.477-.696-.944.25-1.544.746-.473.907-.859.357-.859s-1.675.451-2.5 1.003m11.442 13.716c-3.28 11.097-4.224 15.134-3.669 15.69 1.486 1.485 5.013.072 7.607-3.049 3.268-3.929 2.915-5.676-.502-2.492-2.641 2.461-4.054 2.723-3.24.601.317-.825 1.154-1.5 1.861-1.5 2.227 0 3.937-8.724 2.467-12.589-1.441-3.791-2.688-2.871-4.524 3.339m-16.839-1.917c-.283.459.12.834.897.834s1.18-.375.897-.834c-.283-.458-.687-.833-.897-.833-.21 0-.614.375-.897.833m23.397.406c0 2.259 2.117 6.761 3.18 6.761 1.203 0-.142-5.196-1.804-6.964-1.203-1.281-1.376-1.255-1.376.203m-40.921 1.344c.048 1.165.285 1.402.604.605.289-.722.253-1.585-.079-1.917-.332-.332-.568.258-.525 1.312M599 438.093c-2.823.538-5.328 1.807-6.722 3.406-2.443 2.801-6.174 2.625-21.631-1.02-7.749-1.827-8.647-1.825-8.647.021 0 1.147-1.264 1.5-5.378 1.5-5.423 0-9.029 2.032-7.03 3.96 1.076 1.037 15.454 1.749 16.926.838.56-.346 4.61-.198 9 .33 4.39.527 15.857 1.155 25.482 1.394 9.625.239 19.188.636 21.25.881 2.063.246 3.75.126 3.75-.267 0-3.509 33.301 2.315 43 7.52 9.545 5.122 30.902 43.573 35.676 64.229 1.349 5.838 3.383 13.757 4.521 17.598 1.138 3.841 2.216 10.391 2.396 14.556.314 7.25 2.189 15.517 2.344 10.328.037-1.259.883-2.348 2.062-2.656 2.276-.596 3.536.865 3.268 3.789-.1 1.1 2.284-5.425 5.299-14.5 3.015-9.075 5.337-17.4 5.159-18.5-.178-1.1-1.613 2.178-3.189 7.285-3.032 9.822-3.351 10.039-5.464 3.715-.735-2.2-2.486-5.985-3.893-8.41-2.42-4.174-2.609-4.293-3.534-2.22-.825 1.848-1.502.384-4.328-9.356-5.639-19.432-13.881-38.213-21.847-49.78-2.183-3.171-5.124-7.894-6.535-10.497-3.823-7.051-10.332-10.653-23.017-12.735-1.42-.233-3.699-.848-5.063-1.367-2.537-.965-17.379-2.894-26.355-3.427-4.505-.267-4.976-.517-4.757-2.53.399-3.661-12.656-6.005-22.743-4.085m-5.5 4.279c-1.904 1.489-1.783 1.576 2.5 1.81 9.086.496 23.994.3 23.997-.315.011-2.424-23.606-3.756-26.497-1.495m187.083 5.271c-.837 2.182.275 3.196 1.456 1.328 1.183-1.87 1.208-2.971.068-2.971-.491 0-1.177.739-1.524 1.643M653 453.98c4.675 1.554 8.675 2.657 8.889 2.451.518-.5-4.224-2.341-10.389-4.034-8.35-2.293-7.517-1.415 1.5 1.583m71.079.603c.048 1.165.285 1.402.604.605.289-.722.253-1.585-.079-1.917-.332-.332-.568.258-.525 1.312m17.975 2.518c.52.972.946 2.922.946 4.333s.459 2.566 1.019 2.566c.618 0 .739-1.083.307-2.75-.392-1.512-.722-3.462-.734-4.333-.011-.871-.575-1.584-1.252-1.584-.868 0-.953.523-.286 1.768m-15.814 8.747-.18 2.652 1.435-2.5c.789-1.375 1.45-1.911 1.47-1.191.019.72.515 1.012 1.102.65 1.321-.817.782-1.41-1.722-1.892-1.478-.285-1.967.244-2.105 2.281m83.95 13.775c-.72.781-1.728 1.163-2.238.847-.511-.316-.661.124-.334.978.822 2.141 2.103 1.942 3.428-.534 1.364-2.548.92-3.218-.856-1.291m-88.857 5.877c0 .825.375 1.5.834 1.5.458 0 .833-.675.833-1.5s-.375-1.5-.833-1.5c-.459 0-.834.675-.834 1.5m4.338 2.162c-1.049 1.049 2.208 6.116 5.385 8.378 3.588 2.555 4.05.239.694-3.479-.962-1.066-1.75-2.287-1.75-2.714 0-1.085-3.608-2.906-4.329-2.185M374.735 510.75c-6.941 7.714-10.436 17.341-12.254 33.75-.792 7.15-1.897 16.825-2.457 21.5-3.259 27.251-5.582 81.165-7.024 163-.557 31.625-1.281 60.538-1.608 64.25-.588 6.672-.567 6.75 1.875 6.75h2.471l.156-22.75c.086-12.513.323-24.1.527-25.75.204-1.65.657-20.55 1.006-42 1.656-101.782 5.448-162.677 11.052-177.5.728-1.925 1.897-6.2 2.597-9.5s2.021-7.125 2.934-8.5c3.499-5.264 3.816-6.685.725-3.25M410.936 531c-.051 1.375-.321 1.938-.598 1.25-.278-.687-1.212-1.25-2.076-1.25-1.401 0-1.498 2.404-.893 22.25 1.232 40.477 7.939 163.952 9.6 176.75.535 4.125 1.242 11.55 1.57 16.5.329 4.95 1.466 18.225 2.528 29.5 1.063 11.275 1.932 21.288 1.932 22.25.001 1.405.881 1.75 4.47 1.75 3.139 0 4.339-.372 4.035-1.25-1.964-5.663-13.08-130.329-14.022-157.25-.115-3.3-.738-11.85-1.384-19-.646-7.15-1.131-15.025-1.076-17.5.119-5.466-.727-35.299-1.021-36-.454-1.081-.191-13.211.364-16.75.419-2.674.328-3.176-.318-1.75-.616 1.36-.934-1.36-.992-8.5-.075-9.216-1.84-18.381-2.119-11m333.264 4.5c0 3.64 1.145 4.649 2.189 1.928.529-1.378-.833-5.428-1.824-5.428-.201 0-.365 1.575-.365 3.5m7.8.441c0 1.132.45 2.059 1 2.059s1-.648 1-1.441-.45-1.719-1-2.059c-.55-.34-1 .309-1 1.441m34.323 14.66c-.338.881-.411 8.868-.162 17.75.249 8.882.157 14.124-.204 11.649l-.657-4.5-.15 4.25c-.082 2.337-.538 4.25-1.011 4.25-.474 0-.933 12.938-1.02 28.75-.087 15.813-.577 30.55-1.089 32.749-.584 2.506-.577 4.354.019 4.95.6.6.957.6.966.001.009-.522.444-.275.968.55.623.982.824-2.473.582-10-.355-11.02-.331-11.187.579-4 .522 4.125.707 11.1.413 15.5-.295 4.4-.767 11.375-1.048 15.5s-.961 8.805-1.51 10.399c-.55 1.595-.998 5.645-.997 9 .002 5.839-1.903 19.32-4.009 28.365-1.72 7.388-1.305 10.731 1.519 12.242 2.696 1.443 2.614 4.011-.218 6.843-1.183 1.183-1.204 1.592-.118 2.281 1.079.684 1.082.842.015.855-.72.008-1.048.437-.729.954.319.516-.217 1.402-1.191 1.969-1.019.593-1.229 1.044-.495 1.062.957.022.86.832-.386 3.242l-1.661 3.213 2.972-2.972c2.935-2.935 9.032-19.964 10.904-30.453 1.39-7.792 2.008-13.834 2.762-27 .236-4.125.981-16.95 1.655-28.5 1.442-24.688.748-69.855-1.363-88.65-.781-6.957-1.206-13.769-.944-15.138.858-4.49-2.936-8.905-4.392-5.111m-162.574 2.996c-.34.549-.484 2.215-.321 3.701.362 3.292-.57 3.363-7.311.562-4.963-2.063-5.222-2.075-7.133-.345-4.038 3.654-1.259 5.23 12.608 7.148 5.294.732 10.88 10.535 9.811 17.219-.415 2.593-.088 4.827 1.019 6.967 2.136 4.13 2.959 3.996 2.144-.349-.361-1.925-.407-3.5-.103-3.5.625 0 6.271 11.913 13.745 29 2.767 6.325 7.678 16.807 10.914 23.294 10.656 21.362 17.02 40.382 8.592 25.682-8-13.956-9.903-16.976-10.695-16.976-.435 0-1.63-1.62-2.655-3.6-4.045-7.814-5.271-9.859-5.331-8.9-.035.55-.5.325-1.033-.5-.533-.825-.976-.993-.985-.372-.008.62.637 1.668 1.434 2.33.797.661 1.976 2.853 2.621 4.872.644 2.018 1.567 4.098 2.051 4.62.483.523.879 1.66.879 2.528 0 1.882 6.085 13.938 11.645 23.071 2.193 3.603 4.3 7.203 4.682 8 .382.798 1.513 2.798 2.512 4.445 1.931 3.182.671 6.284-2.098 5.165-.982-.396-.98-.518.009-.58.688-.043 1.25-.781 1.25-1.638 0-.894-.477-1.264-1.118-.868-3.009 1.859-7.783 2.185-8.215.56-.239-.898-.487-.422-.551 1.058-.064 1.48-.584 2.98-1.156 3.334-.662.409-.79 2.851-.354 6.708.474 4.192.357 5.862-.379 5.408-1.443-.892-2.155 3.35-1.987 11.843l.137 6.984 1.186-4.647c.652-2.556 1.507-7.646 1.899-11.313.802-7.485.996-7.694 1.868-2.008.418 2.724.308 3.521-.343 2.5-.714-1.119-.963-.612-.984 2-.015 1.925-.765 5.975-1.667 9-.903 3.025-1.722 8.875-1.82 13-.099 4.125-.431 12.9-.738 19.5s-.34 10.875-.072 9.5c.267-1.375.9-3.005 1.407-3.623.507-.618.728-1.743.491-2.5-1.148-3.668-1.457-7.877-.579-7.877.536 0 1.047 1.913 1.135 4.25.134 3.546.226 3.726.557 1.085.352-2.806 3.283-5.755 3.283-3.304a.972.972 0 0 1-.97.969c-.533 0-.909 1.591-.836 3.537.073 1.945-.391 4.06-1.031 4.7-.639.639-1.163 2.846-1.163 4.904s-.387 3.98-.86 4.273c-1.557.961-2.092 9.234-1.456 22.513l.625 13.073h11.611l1.154-4.25a859.253 859.253 0 0 1 1.509-5.5c1.016-3.585 2.207-.617 1.705 4.25l-.568 5.5h13.304l-.574-3.75c-.315-2.062-1.181-9.825-1.924-17.25l-1.351-13.5.162 14.18c.204 17.765-.738 16.398-2.19-3.18-1.359-18.325-2.287-51.227-1.227-43.5 1.077 7.851 1.235.282.208-9.985-.685-6.849-.552-7.775 1.562-10.89 1.478-2.179 2.31-4.871 2.31-7.479 0-3.64.162-3.913 1.515-2.56 2.098 2.098 4.203 14.175 2.566 14.72-.86.287-.744.909.406 2.18 1.044 1.154 1.95 5.071 2.576 11.146.532 5.153 1.157 10.043 1.389 10.868.232.825.914 10.725 1.516 22 1.831 34.302 2.086 37 3.502 37 2.532 0 1.02-41.433-2.498-68.5-1.3-9.996-1.25-10.5 1.028-10.5 1.1 0 2 .37 2 .823 0 1.345 8.925 15.087 15.268 23.51 5.722 7.597 5.817 7.822 3.153 7.5-1.511-.183-2.926.199-3.145.849-.646 1.922 3.722 3.596 10.187 3.903 3.32.158 7.71.991 9.755 1.851 5.509 2.318 10.175 2.001 13.476-.914l2.806-2.477-5 .607c-4.916.597-5.647-.821-1-1.939 1.1-.265-.842-.533-4.316-.597-6.416-.118-9.803-1.248-11.782-3.932-.604-.819-1.504-1.255-2-.969-.882.51-6.228-4.3-5.568-5.009.184-.198-1.576-2.458-3.911-5.024-5.903-6.486-13.17-18.089-13.58-21.682-.189-1.65-.554-3.562-.812-4.25-.728-1.942-2.537-1.472-1.924.5.437 1.405.301 1.368-.686-.188-2.286-3.599-4.914-11.969-4.036-12.847.489-.489 1.334.476 1.939 2.209 1.08 3.1 2.535 3.922 3.676 2.076.34-.55 1.488-1 2.55-1 2.33 0-.371-8.273-6.664-20.411-2.017-3.891-4.003-9.573-4.544-13-1.975-12.531-2.577-20.984-1.902-26.714.796-6.752.34-7.969-1.592-4.246-.893 1.723-1.348 6.335-1.348 13.676 0 9.955-.149 10.881-1.468 9.136-1.404-1.856-1.47-1.817-1.5.875-.018 1.548.434 3.686 1.003 4.75.584 1.09.635 1.934.117 1.934-1.266 0-2.122-3.628-2.138-9.059-.008-2.507-.661-5.432-1.452-6.5-1.295-1.748-1.347-1.543-.524 2.059 1.357 5.936.964 8.709-.496 3.5-1.224-4.367-1.275-4.411-1.745-1.5-.266 1.65-.346.429-.177-2.714.168-3.142-.108-5.969-.613-6.282-.506-.312-.638-1.302-.293-2.2.393-1.026.226-1.385-.451-.967-.697.431-.877-.096-.512-1.492.355-1.359.178-1.919-.48-1.513-.574.355-1.278-.25-1.564-1.345-.348-1.332-.138-1.761.636-1.296.858.514.871.32.054-.749-.607-.793-3.249-6.842-5.871-13.442-2.622-6.6-5.352-13.35-6.065-15-4.247-9.823-5.842-13.673-8.078-19.5-4.121-10.741-7.802-18.246-8.255-16.832-.959 2.993-3.894 5.883-4.465 4.396-.303-.789-.013-1.627.643-1.862.657-.236.867-.779.468-1.208-.399-.428-1.412-.21-2.25.486-1.391 1.154-1.953.734-1.642-1.23.065-.413-.587-.75-1.449-.75-1.136 0-1.403.619-.97 2.25.329 1.237-1.859-2.7-4.862-8.75-3.002-6.05-5.873-11.471-6.379-12.046-.505-.575-1.13-1.678-1.387-2.45-.276-.827-.723-.994-1.086-.407M370.558 566.25c-.265 1.237-.616 14.85-.782 30.25-.311 28.907.283 29.046 2.145.5 1.347-20.653 1.383-33 .098-33-.539 0-1.197 1.013-1.461 2.25m346.533 4.841c-.676 2.257-1.046 4.288-.821 4.513.225.225.963-1.438 1.639-3.695.676-2.257 1.046-4.288.821-4.513-.225-.225-.963 1.438-1.639 3.695m66.988 1.492c.048 1.165.285 1.402.604.605.289-.722.253-1.585-.079-1.917-.332-.332-.568.258-.525 1.312m-70.505 8.274c-.866 1.674-1.554 3.629-1.53 4.343.025.715.957-.43 2.072-2.544 1.116-2.115 1.804-4.069 1.53-4.343-.274-.275-1.207.871-2.072 2.544M419.158 586c0 1.375.227 1.938.504 1.25.278-.687.278-1.812 0-2.5-.277-.687-.504-.125-.504 1.25m-2.008 13.691c-.083 4.505.187 8.401.6 8.657.413.257.624-2.304.47-5.691-.47-10.352-.913-11.578-1.07-2.966M785.286 611.5c.008 2.75.202 3.756.432 2.236.229-1.52.223-3.77-.014-5-.237-1.23-.425.014-.418 2.764m1.909 7c.02 1.65.244 2.204.498 1.231.254-.973.237-2.323-.037-3-.274-.677-.481.119-.461 1.769m-3 3c.02 1.65.244 2.204.498 1.231.254-.973.237-2.323-.037-3-.274-.677-.481.119-.461 1.769m-85.48 1.412c-2.025 4.01-1.74 4.878.712 2.169.962-1.063 1.582-2.753 1.38-3.757-.287-1.415-.755-1.06-2.092 1.588M418.158 626c0 1.375.227 1.938.504 1.25.278-.687.278-1.812 0-2.5-.277-.687-.504-.125-.504 1.25m274.425 2.866c-.431.697-.513 1.537-.183 1.867.895.895 1.871-.421 1.387-1.871-.338-1.016-.574-1.016-1.204.004m75.918 3.703c-.361 2.162-.915 4.606-1.23 5.431-1.467 3.839-3.394 14.21-2.759 14.845 1.753 1.754 6.323-16.674 4.763-19.207-.292-.474-.047-1.161.544-1.526.652-.403.734-1.218.207-2.069-.616-.998-1.058-.266-1.525 2.526M719.794 642.7c-1.605 3.42-1.592 5.3.038 5.3.392 0 1.183-2.025 1.757-4.5 1.258-5.42.526-5.746-1.795-.8M675 651c0 .55.45 1 1 1s1-.45 1-1-.45-1-1-1-1 .45-1 1m4.434 15.31c-.337.879.113 2.631.999 3.894 1.588 2.261 1.602 2.243.946-1.204-.814-4.278-1.155-4.748-1.945-2.69M698 670c0 1.1.408 2 .906 2 .499 0 .671-.9.384-2-.288-1.1-.696-2-.907-2-.21 0-.383.9-.383 2m60.232 1c0 1.925.206 2.712.457 1.75.252-.962.252-2.538 0-3.5-.251-.962-.457-.175-.457 1.75m-79.153 2.583c.048 1.165.285 1.402.604.605.289-.722.253-1.585-.079-1.917-.332-.332-.568.258-.525 1.312m2.196 1.417c.083 1.1.505 2 .938 2 .433 0 .787-.9.787-2s-.422-2-.938-2-.87.9-.787 2m74.978 6.25c-1.06 6.475-.815 8.253.786 5.721.867-1.371 1.398-11.971.599-11.971-.199 0-.822 2.813-1.385 6.25m-57.174.333c.048 1.165.285 1.402.604.605.289-.722.253-1.585-.079-1.917-.332-.332-.568.258-.525 1.312m-39 5c.048 1.165.285 1.402.604.605.289-.722.253-1.585-.079-1.917-.332-.332-.568.258-.525 1.312M776 689.5c0 .825.45 1.5 1 1.5s1-.675 1-1.5-.45-1.5-1-1.5-1 .675-1 1.5m-103.03 5.079c-.564 1.484-.775 2.949-.469 3.255.97.971 3.499 1.027 3.499.078 0-.502-.45-.912-1-.912s-.993-.788-.985-1.75c.013-1.496.157-1.532.985-.25.835 1.293.971 1.266.985-.191.026-2.907-1.94-3.057-3.015-.23M774.86 701c-.353 3.025-.465 5.688-.25 5.917 1.025 1.094 1.474-1.181 1.196-6.056l-.306-5.361-.64 5.5m-115.588 7c0 2.475.195 3.487.434 2.25.238-1.237.238-3.263 0-4.5-.239-1.237-.434-.225-.434 2.25m96.874-1c-.095 1.375-.423 3.625-.728 5-.479 2.154-.399 2.255.575.728.622-.974.95-3.224.729-5-.313-2.511-.44-2.673-.576-.728m-30.161-.25c-.049 2.368-1.799 3.42-3.858 2.318-1.903-1.019-2.127-.878-2.127 1.338 0 1.362.45 2.754 1 3.094.55.34 1 1.743 1 3.118 0 1.375.392 2.258.87 1.962.479-.295 2.757 2.153 5.064 5.441 6.01 8.569 10.63 8.193 4.937-.402-2.24-3.382-2.91-5.327-2.456-7.135.535-2.134.281-2.484-1.801-2.484-2.25 0-2.385-.286-1.887-4 .295-2.2.252-4-.095-4-.348 0-.639.337-.647.75m-26.906 2.833c.048 1.165.285 1.402.604.605.289-.722.253-1.585-.079-1.917-.332-.332-.568.258-.525 1.312m-15.009 2.608c-.038 1.48.38 2.969.93 3.309 1.194.738 1.194-1.222 0-4-.767-1.786-.867-1.712-.93.691m87.192-.645c-.819.889-.949 2.125-.385 3.649.81 2.189.89 2.138 1.583-1.017.845-3.842.538-4.517-1.198-2.632M744 716c0 1.311.485 1.751 1.5 1.362.825-.317 1.5-.93 1.5-1.362 0-.432-.675-1.045-1.5-1.362-1.015-.389-1.5.051-1.5 1.362m-81.805 1.5c.02 1.65.244 2.204.498 1.231.254-.973.237-2.323-.037-3-.274-.677-.481.119-.461 1.769m100.328.464c-.364.588-1.08.81-1.592.493-.512-.316-.931-.098-.931.484s.373 1.059.829 1.059c.457 0 .794 1.013.75 2.25-.056 1.61.49 2.25 1.921 2.25 1.61 0 2-.667 2-3.417 0-3.387-1.707-5.175-2.977-3.119m-3.958 8.931c-.305.493.096 1.145.89 1.449.963.37 1.258.072.887-.895-.645-1.68-1.011-1.794-1.777-.554m-2.752 2.788c.721.289 1.584.253 1.916-.079.332-.332-.258-.568-1.312-.525-1.165.048-1.402.285-.604.604M751 731.734c-.825.316-3.75 2.481-6.5 4.81-2.75 2.329-5.9 4.404-7 4.611-1.62.304-1.29.713 1.739 2.152 7.051 3.35 22.761-4.263 22.761-11.03 0-1.318-7.957-1.711-11-.543M663.158 738c0 1.375.227 1.938.504 1.25.278-.687.278-1.812 0-2.5-.277-.687-.504-.125-.504 1.25m103.425-.134c-.431.697-.513 1.537-.183 1.867.895.895 1.871-.421 1.387-1.871-.338-1.016-.574-1.016-1.204.004M681.739 751c.29 6.325.692 11.688.894 11.917.649.736.196-12.234-.626-17.917-.527-3.652-.618-1.636-.268 6m82.074-5.317c.721.289 1.584.253 1.916-.079.332-.332-.258-.568-1.312-.525-1.165.048-1.402.285-.604.604" fill-rule="evenodd"/>
<path fill="#7b7d80" stroke="#7b7d80" d="M562 206.579c0 .537.788 1.688 1.75 2.558.962.869 2.987 3.041 4.5 4.825 1.513 1.784 2.741 2.635 2.73 1.891-.011-.744-2.036-3.355-4.5-5.802-2.464-2.447-4.48-4.01-4.48-3.472m9.749 11.005c-.605.605.646 2.871 7.549 13.665 4.142 6.476 4.596 5.206.876-2.45-3.295-6.782-7.397-12.242-8.425-11.215M301.5 252.021c-3.029 1.985-8.73 1.911-10.95-.142-2.617-2.421-6.076.065-7.037 5.055-.639 3.317 17.008 19.33 20.465 18.571 1.6-.352 3.116-.162 3.486.436.36.583 1.598 1.059 2.751 1.059 2.714 0 27.127 7.143 36.663 10.727l7.378 2.773.226 11.5c.345 17.615 9.034 50.63 14.946 56.79 2.735 2.85 5.222 2.081 6.092-1.882.354-1.609 1.056-2.67 1.561-2.358 1.235.763 1.166-4.23-.117-8.557-2.783-9.386-5.721-30.639-6.081-43.993-.193-7.166-.105-7.486 1.958-7.187 1.647.239 2.159-.204 2.159-1.867 0-1.687-.452-2.061-2-1.656-2.235.584-2.26.51-2.465-7.54-.08-3.163.247-5.75.727-5.75s.629-.788.332-1.75c-.298-.962-.632-7.262-.742-14-.181-11.038-.734-13.867-2.236-11.437-.277.447-.591 4.473-.699 8.947-.226 9.38-.844 10.031-7.203 7.583-16.06-6.18-47.991-16.635-51.714-16.931-3.246-.258-5.336.191-7.5 1.609m11.5 3.941c0 .506.45 1.198 1 1.538 1.508.932 1.2 2.5-.492 2.5-.82 0-2.053-.9-2.74-2-.841-1.347-2.332-2-4.568-2-1.825 0-3.093.364-2.818.81.275.445-2.173.616-5.441.379-3.836-.277-5.941-.049-5.941.645 0 1.118 2.397 1.641 12.465 2.723 6.669.716 8.817 1.08 11.615 1.968 2.012.639 2.68-.937.871-2.055-.727-.449-.729-1.033-.007-1.902.769-.927.389-1.551-1.452-2.39-1.371-.624-2.492-.721-2.492-.216m8.271 3.301c.315.821.093 1.973-.494 2.56-.755.755-.222 1.234 1.828 1.64 1.592.315 9.388 2.648 17.323 5.185 11.538 3.687 14.79 4.385 16.236 3.481 2.582-1.612 5.884-1.395 8.007.526 1.484 1.343 1.829 1.385 1.829.222 0-.993-6.362-3.381-20.75-7.787-26.165-8.012-24.679-7.651-23.979-5.827m158.622 25.536c-3.644.236-4.871.791-5.868 2.655-1.972 3.685-.505 4.828 5.346 4.165 2.821-.319 8.279-.669 12.129-.776l7-.195v4.907c0 4.612.21 5.009 3.5 6.627 6.614 3.254 8.887 1.613 9.954-7.182l.546-4.5h4.086c4.254 0 7.414-1.757 7.414-4.122 0-.758-.562-1.427-1.25-1.486-3.228-.281-38.784-.357-42.857-.093m-96.466 4.531c-1.706 4.445-.361 5.174 9.391 5.09 8.073-.07 9.181.123 8.61 1.5-1.822 4.395-1.608 5.312 2.14 9.15 2.621 2.684 4.645 3.893 6.385 3.814 1.695-.077 1.961-.269.797-.573-2.552-.667-2.139-2.175.797-2.912 3.14-.788 4.148.058 2.473 2.077-2.229 2.686.368 1.62 3.73-1.531 3.834-3.594 3.82-3.498 1.186-7.818-1.131-1.855-1.834-3.95-1.563-4.656.799-2.084-4.168-3.407-14.873-3.961-5.5-.284-11.907-.791-14.238-1.126-3.301-.473-4.371-.264-4.835.946M356 294.324c0 3.347 1.613 4.268 2.985 1.704 1.977-3.694 3.028-2.101 1.361 2.064-3.3 8.249.204 31.912 7.392 49.919 5.419 13.574 7.216 9.351 3.794-8.913-2.513-13.414-4.532-31.082-4.532-39.658 0-4.886-.172-5.248-2.75-5.766a159.558 159.558 0 0 1-5.5-1.23c-2.46-.606-2.75-.407-2.75 1.88m151.07-1.574c.039.413.457 1.65.93 2.75.762 1.772.867 1.687.93-.75.038-1.512-.38-2.75-.93-2.75s-.968.337-.93.75m217.993 19.809c-.039 3.167.52 5.785 1.495 7 1.448 1.804 1.514 1.595.919-2.941-1.029-7.859-2.338-10.061-2.414-4.059m-120.4 12.131c-1.26 7.764-8.798 14.31-16.479 14.31-3.458 0-4.042 1.043-1.682 3.002 1.442 1.197 4.839.973 8.864-.584 3.236-1.251.005 3.43-3.996 5.791-3.441 2.031-4.414 5.627-1.758 6.5 1.376.452 7.924-5.989 10.887-10.709 11.151-17.765 12.442-21.432 7.605-21.601-2.539-.089-2.958.312-3.441 3.291m185.375 35.97c-8.681 3.266-8.653 3.34 1.295 3.34H800v-3c0-3.662-1.041-3.698-9.962-.34m-410.03 4.007c.07 7.704 10.277 26.195 22.439 40.651 9.71 11.541 31.857 24.109 47.19 26.779 7.514 1.309 27.613.594 31.524-1.121 1.741-.764.167-.903-6.161-.544-6.241.354-9.164.104-11-.94-1.375-.781-5.134-1.437-8.352-1.457-11.455-.069-30.735-8.167-43.374-18.218-9.845-7.829-21.459-24.307-27.308-38.747-2.244-5.541-4.983-9.078-4.958-6.403m107.524 3.915c-11.6 1.448-25.747 2.474-36.418 2.643-12.32.194-17.565.622-17.842 1.457-.685 2.059 32.597 1.636 52.228-.665 23.224-2.722 24.5-2.961 24.5-4.605 0-1.704.966-1.754-22.468 1.17m327.11 8.168c-1.12 6.775-.601 28.575.815 34.25.755 3.025 1.411 4.848 1.458 4.05.066-1.128.352-1.183 1.285-.25.887.887.907 1.493.078 2.322-.617.617-.84 1.854-.496 2.75.491 1.277.758 1.088 1.238-.872.384-1.565 1.214-2.397 2.221-2.223.885.152 1.89-.181 2.236-.739.381-.617-.045-.757-1.089-.357-1.109.426-1.477.272-1.04-.434.371-.602-.199-2.591-1.267-4.42-2.174-3.724-3.269-12.532-3.457-27.798-.128-10.36-.902-12.812-1.982-6.279m-39.563 11.833c.048 1.165.285 1.402.604.605.289-.722.253-1.585-.079-1.917-.332-.332-.568.258-.525 1.312m1.451 8.95c.346 3.832 1.001 8.092 1.455 9.467.454 1.375 1.826 6.775 3.049 12 2.891 12.355 3.776 15.188 3.902 12.5.08-1.689.258-1.766 1.145-.5.854 1.221.954 1.127.536-.5-.283-1.1-.977-5.375-1.543-9.5-.89-6.493-7.286-28.545-8.683-29.943-.27-.27-.208 2.645.139 6.476m-66.53.309c0 2.689 4.069 7.664 5.016 6.132 1.16-1.876-.002-4.735-2.62-6.45-2.236-1.465-2.396-1.444-2.396.318m7.195 12.658c.02 1.65.244 2.204.498 1.231.254-.973.237-2.323-.037-3-.274-.677-.481.119-.461 1.769m141.364 1.339c.875 2.54.945 4.044.229 4.911-.714.864-.704 1.25.033 1.25 3.918 0 4.516-7.07.743-8.789-2.238-1.019-2.251-.986-1.005 2.628M683 418c0 .55.45 1 1 1s1-.45 1-1-.45-1-1-1-1 .45-1 1m140.518-.029c-.301.486.587 2.154 1.972 3.707 1.774 1.988 2.32 2.256 1.845.908-.486-1.377-.326-1.698.569-1.145.942.582.928.263-.059-1.317-1.508-2.416-3.54-3.427-4.327-2.153m34.295 1.712c.721.289 1.584.253 1.916-.079.332-.332-.258-.568-1.312-.525-1.165.048-1.402.285-.604.604M540.62 422.25c-.174.688-.749 2.6-1.277 4.25-2.196 6.865.213 22.5 3.467 22.5 1.502 0 1.488-.234-.803-13.361-1.161-6.65-1.067-9.23.471-12.889.451-1.073.295-1.75-.402-1.75-.627 0-1.281.563-1.456 1.25m148.019 6.226c.911 3.921 6.053 15.215 7.27 15.968.526.325-.139-2.203-1.477-5.616-1.337-3.414-2.442-6.684-2.454-7.268-.012-.583-.924-2.185-2.026-3.56l-2.003-2.5.69 2.976M754 438.857c0 2.514 2.095 6.143 3.546 6.143.888 0-.981-6.578-2.22-7.817-1.101-1.101-1.326-.817-1.326 1.674m69.18 1.393c-.949 3.793-.908 4.041.378 2.309 1.275-1.716 2.06-6.559 1.064-6.559-.208 0-.857 1.913-1.442 4.25m18.689.457c-13.832 11.268-27.177 31.235-30.941 46.293-1.031 4.125-2.529 9.602-3.329 12.171-1.941 6.229.472 7.859 3.177 2.146 1.154-2.437 1.36-3.763.622-4.012-3.04-1.028 7.786-24.98 16.373-36.223 5.676-7.431 15.786-18.082 17.165-18.082 1.059 0 5.064-4.466 5.064-5.648 0-2.093-2.923-.887-8.131 3.355m-226.626-.025c2.609.916 5.046 1.362 5.417.991 1.133-1.132-.106-1.643-5.239-2.16l-4.921-.496 4.743 1.665M562 441.64c-1.375.213-4.413.633-6.75.935-8.214 1.059-4.496 4.384 4.933 4.411 3.879.012 4.796-.345 5.346-2.077.496-1.562 1.209-1.941 2.817-1.495 4.936 1.369 20.809 3.608 21.695 3.061 2.31-1.428.323-2.147-9.291-3.363-13.994-1.77-15.869-1.917-18.75-1.472m-87 9.745c-3.025 1.286-11.125 5.048-18 8.362-6.875 3.313-16.325 7.807-21 9.986-8.01 3.733-16.386 9.259-11.5 7.586 1.1-.376 3.887-1.727 6.192-3.002 2.306-1.274 4.7-2.317 5.319-2.317.62 0 10.522-4.095 22.005-9.101 11.483-5.006 21.36-8.94 21.949-8.744.662.221 1.233 5.513 1.496 13.851.234 7.422.451 13.831.482 14.244.031.413.732.75 1.557.75 1.837 0 2.05-9.648.477-21.678-1.845-14.117-1.095-13.287-8.977-9.937m277.407 22.646c-5.343 1.059-11.407 3.616-11.407 4.81 0 1.886 5.022 2.28 6.771.531.928-.928 3.609-2.537 5.958-3.576 2.349-1.039 4.271-2.094 4.271-2.343 0-.521-.11-.509-5.593.578m-31.225 4.469c.626 1.375 1.517 2.5 1.979 2.5 1.105 0 1.058-.721-.196-3.066-1.539-2.874-3.122-2.372-1.783.566m-3.45 6.706c-1.215 3.386.7 8.417 4.584 12.044 3.847 3.592 7.547 5.47 4.218 2.141-.885-.885-3.123-4.73-4.973-8.544-1.851-3.815-3.574-6.353-3.829-5.641M392.241 497.84c-5.406 3.762-10.583 9.504-6.621 7.345 1.983-1.082 13.237-11.126 12.38-11.05-.275.025-2.867 1.692-5.759 3.705m411.768 14.129c-1.173 3.939-1.935 7.694-1.694 8.346.241.652.751-.165 1.133-1.815s1.362-5.187 2.179-7.86c.817-2.673 1.267-5.079 1-5.346-.267-.267-1.445 2.737-2.618 6.675m-437.322 14.403c-.289.755-.798 3.567-1.13 6.25l-.604 4.878 2.009-6c2.361-7.052 2.263-6.5 1.145-6.5-.491 0-1.13.617-1.42 1.372m342.395 5.564c-.045 2.44.878 7.84 2.05 12 1.173 4.16 2.258 9.139 2.41 11.064.153 1.925.319 3.853.368 4.285.05.432.921.341 1.937-.203 1.228-.658 2.188-.647 2.867.032 2.121 2.121 1.987-1.702-.231-6.614-2.184-4.836-4.304-12.553-3.15-11.467.311.293 1.901 3.661 3.532 7.484l2.965 6.951 1.278-2.806c.826-1.814.927-3.045.284-3.484-.547-.373-1.758-2.703-2.69-5.178-2.69-7.137-5.712-11.601-6.735-9.947-1.046 1.692-1.361 1.399-3.288-3.053l-1.516-3.5-.081 4.436M409.01 565.25c.034 30.45 5.655 122.53 9.996 163.75 1.13 10.725 2.505 24.45 3.056 30.5.551 6.05 1.404 13.25 1.897 16 .493 2.75 1.437 9.388 2.097 14.75 1.05 8.524 1.442 9.75 3.118 9.75 1.606 0 1.83-.527 1.381-3.25-4.027-24.419-12.483-121.003-16.044-183.25-.849-14.85-1.987-33.1-2.528-40.557-.541-7.456-.983-14.318-.983-15.25 0-.931-.45-1.693-1-1.693-.595 0-.996 3.743-.99 9.25m200.638-6.565c-1.449 1.449-.354 2.146 5.808 3.693 8.553 2.149 13.267 2.199 11.544.122-.685-.825-2.248-1.5-3.473-1.5-1.226 0-3.533-.413-5.128-.917-4.983-1.577-8.077-2.071-8.751-1.398m182.604 2.815c.011 2.2.216 2.982.455 1.738.239-1.244.23-3.044-.02-4s-.446.062-.435 2.262m-161.218 10.212c-.019 1.216 1.483 5.491 3.337 9.5 8.269 17.88 13.714 29.873 16.927 37.288 1.907 4.4 5.954 13.175 8.994 19.5C668.067 654.179 673 666.838 673 670.611c0 1.772.563 3.451 1.25 3.73.958.388.92.737-.165 1.494-1.198.836-1.057 2.035.921 7.826 1.284 3.761 2.286 7.636 2.225 8.611-.06.974.231 1.56.649 1.302.417-.257.556.906.31 2.587-.431 2.934-.33 3.029 2.535 2.399 2.449-.537 3.265-.224 4.56 1.752.868 1.324 2.285 3.115 3.15 3.98 1.041 1.041 1.915 4.904 2.583 11.414.555 5.413 1.2 10.83 1.433 12.039.523 2.714 2.259 20.704 3.981 41.255.756 9.03 1.35 12.995 1.422 9.5.067-3.3-.525-12.75-1.316-21s-1.733-19.05-2.093-24c-1.015-13.952-1.109-14.819-1.91-17.75-.492-1.798-.368-2.75.357-2.75.609 0 1.108.384 1.108.854 0 .743 10.486 16.927 12.729 19.646.454.55 1.905 2.575 3.224 4.5 2.907 4.241 7.261 8.934 8.323 8.972 1.036.037-1.63-4.964-3.983-7.472-7.283-7.764-27.661-43.651-30.227-53.233-.998-3.726-3.992-7.007-5.249-5.751-.245.245-.55-1.683-.679-4.285-.174-3.536-2.076-8.519-7.531-19.731-4.013-8.25-7.869-16.575-8.569-18.5-.7-1.925-1.86-4.85-2.578-6.5-19.798-45.486-28.37-63.515-28.426-59.788m163.942 17.371c-.046 25.206-1.69 83.687-2.647 94.167-.512 5.607-.362 6.75.884 6.75 1.149 0 1.649-1.813 2.14-7.75.784-9.49.961-105.27.196-106.035-.302-.301-.56 5.489-.573 12.868M356.87 635.75c-.742 4.269-2.848 75.827-2.714 92.25.096 11.795.311 14.185.9 10 1.527-10.846 3.3-110.802 1.814-102.25M661.141 657c0 .825.386 2.4.859 3.5.542 1.261.859 1.445.859.5 0-.825-.386-2.4-.859-3.5-.542-1.261-.859-1.445-.859-.5m3.859 5.756c0 1.885 6.659 14.252 7.319 13.592.317-.317-.027-1.538-.765-2.713-.738-1.174-2.515-4.381-3.948-7.127-1.433-2.746-2.606-4.434-2.606-3.752m124.066 55.038c-1.212 3.771-2.336 8.518-2.497 10.55-.162 2.032-.997 4.473-1.856 5.425-.86.952-2.126 3.974-2.815 6.714-.689 2.741-2.186 5.808-3.325 6.815-1.327 1.172-1.533 1.69-.573 1.439 3.747-.978 10.241-16.653 12.907-31.156 1.484-8.076.799-7.996-1.841.213m-70.293 30.766c-.71.71 1.976 6.167 3.498 7.108 1.694 1.047 10.817 1.283 10.187.263-.298-.481-2.435-1.714-4.749-2.74-2.315-1.026-4.827-2.614-5.581-3.528-1.43-1.733-2.405-2.053-3.355-1.103M716.5 755c-.34.55-.141 1 .441 1s1.059-.45 1.059-1-.198-1-.441-1-.719.45-1.059 1M352 797.5c0 1.556.567 2.5 1.5 2.5s1.5-.944 1.5-2.5-.567-2.5-1.5-2.5-1.5.944-1.5 2.5" fill-rule="evenodd"/>
</svg>