<svg viewBox="0 0 280 280" width="280" height="280" x="0" y="0" xmlns="http://www.w3.org/2000/svg"><defs><pattern id="diagonalStripes" x="0" y="0" width="8" height="8" patternUnits="userSpaceOnUse"><polygon points="0,4 0,8 8,0 4,0" fill="#ffffff"></polygon><polygon points="4,8 8,8 8,4" fill="#ffffff"></polygon></pattern><mask id="grating" x="0" y="0" width="1" height="1"><rect x="0" y="0" width="100%" height="100%" fill="url(#diagonalStripes)"></rect></mask></defs><g id="horizStripes"><rect fill="#FF8A00" height="40" width="100%" x="0" y="0"></rect><rect fill="#E52E71" height="10" width="100%" x="0" y="40"></rect><rect fill="#FFFFFF" height="10" width="100%" x="0" y="50"></rect><rect fill="#E52E71" height="70" width="100%" x="0" y="60"></rect><rect fill="#100e17" height="20" width="100%" x="0" y="130"></rect><rect fill="#E52E71" height="70" width="100%" x="0" y="150"></rect><rect fill="#FFFFFF" height="10" width="100%" x="0" y="220"></rect><rect fill="#E52E71" height="10" width="100%" x="0" y="230"></rect><rect fill="#FF8A00" height="40" width="100%" x="0" y="240"></rect></g><g id="vertStripes" mask="url(#grating)"><rect fill="#FF8A00" height="100%" width="40" x="0" y="0"></rect><rect fill="#E52E71" height="100%" width="10" x="40" y="0"></rect><rect fill="#FFFFFF" height="100%" width="10" x="50" y="0"></rect><rect fill="#E52E71" height="100%" width="70" x="60" y="0"></rect><rect fill="#100e17" height="100%" width="20" x="130" y="0"></rect><rect fill="#E52E71" height="100%" width="70" x="150" y="0"></rect><rect fill="#FFFFFF" height="100%" width="10" x="220" y="0"></rect><rect fill="#E52E71" height="100%" width="10" x="230" y="0"></rect><rect fill="#FF8A00" height="100%" width="40" x="240" y="0"></rect></g></svg>