<!DOCTYPE svg PUBLIC "-//W3C//DTD SVG 1.1//EN" "http://www.w3.org/Graphics/SVG/1.1/DTD/svg11.dtd">
<svg xmlns="http://www.w3.org/2000/svg" viewBox="0 0 400 300">
<path fill="#fad613" stroke="#fad613" d="M175.5 89.067c-15.065 5.945-57.426 17.134-81.25 21.461-10.512 1.909-10.387 1.76-5.945 7.042 1.818 2.162 4.295 5.352 5.504 7.09l2.199 3.16-9.469 7.34c-8.387 6.501-11.334 9.84-8.686 9.84 1.857 0 18.837 16.94 24.142 24.085 5.726 7.712 13.305 21.561 16.508 30.165 2.049 5.503 1.748 5.376 6.202 2.623 3.861-2.386 4.526-2.021 6.274 3.446.941 2.941 1.6 3.663 2.871 3.144 16.589-6.773 63.488-18.163 69.9-16.975 2.34.434 3.25 1.145 3.25 2.538 0 1.19.867 2.132 2.25 2.444 6.797 1.536 75.099 14.503 75.255 14.287.226-.314 15.495-79.135 15.495-79.99 0-.334-1.306-.895-2.903-1.246-2.787-.612-2.864-.78-1.927-4.173.536-1.945.83-3.679.653-3.855-.178-.175-8.198-1.79-17.823-3.589-9.625-1.798-17.693-3.418-17.929-3.599-.236-.182.345-1.955 1.293-3.941.947-1.987 1.59-3.713 1.429-3.837-.161-.124-7.268-1.472-15.793-2.994-19.481-3.48-35.605-7.411-48.68-11.868-11.435-3.898-11.32-3.94-11.32 4.117 0 5.587-1.044 4.646-3.365-3.032-.955-3.162-2.052-5.729-2.436-5.703-.384.026-2.949.934-5.699 2.02M165 96.706c-16.99 5.519-40.188 11.629-58.284 15.352-7.692 1.583-14.186 3.079-14.432 3.325-.246.245 1.614 3.072 4.134 6.282 2.519 3.209 4.581 6.151 4.581 6.536.001.386-4.28 3.97-9.512 7.965l-9.513 7.263 3.263 2.535c13.885 10.787 26.248 27.259 34.281 45.673l3.113 7.137 3.934-2.382c5.039-3.05 4.912-3.08 6.281 1.489l1.163 3.88 10.245-3.246c5.635-1.785 19.921-5.585 31.746-8.444l21.5-5.198-.351-5.003-.351-5.003 3.851.317 3.851.316-.242 4.75c-.134 2.613.107 4.75.534 4.75.428 0 16.909 2.94 36.626 6.534 19.716 3.593 35.946 6.406 36.066 6.25.376-.489 13.516-70.475 13.516-71.987 0-1.07-4.529-2.283-17.75-4.755-20.88-3.904-19.629-3.408-17.746-7.049 2.207-4.268 1.95-4.699-3.254-5.465-15.703-2.31-43.636-8.886-54.501-12.83l-6.522-2.368-.643 4.585c-.353 2.522-.922 8.747-1.264 13.835-.342 5.088-.891 9.246-1.221 9.241-.329-.005-2.337-6.31-4.462-14.011-2.124-7.7-4.149-14.149-4.5-14.33-.35-.182-6.712 1.644-14.137 4.056m2.5 1.444c-15.652 5.125-39.747 11.574-55.643 14.892-8.446 1.763-15.508 3.338-15.692 3.5-.185.163 1.909 3.622 4.653 7.688 11.858 17.573 14.202 23.038 14.002 32.642l-.18 8.628-.57-7c-.576-7.069-9.475-26.5-12.137-26.5-.548 0-4.346 2.521-8.439 5.602l-7.443 5.602 7.724 7.27c10.97 10.323 25.66 32.04 29.363 43.408.371 1.141 1.019 1.088 3.707-.302 3.796-1.963 3.9-1.196-2.295-16.86-3.998-10.108-4.425-12.548-1.907-10.904 1.13.738 8.027 18.039 10.95 27.467 1.38 4.45 2.152 5.644 3.35 5.18 4.334-1.678 30.318-8.638 43.304-11.6l14.747-3.363-.07-3.5c-.038-1.925-.406-5.863-.818-8.75-.737-5.178-.712-5.249 1.823-5.171 1.414.043 2.088.279 1.498.524-.59.245-.877 1.785-.637 3.421.4 2.721.773 2.976 4.355 2.976 2.275 0 4.069-.524 4.279-1.25.199-.687.919-3.95 1.6-7.25.956-4.632 1.412-5.535 1.997-3.961.429 1.152-.056 6.342-1.115 11.933-1.03 5.442-1.655 10.112-1.389 10.378.698.698 68.797 13.169 69.279 12.687.856-.855 13.4-68.674 12.812-69.262-.575-.575-65.728-13.242-68.228-13.265-.616-.005-1.654 2.803-2.307 6.24-1.889 9.948-1.778 9.767-5.89 9.6-2.829-.115-3.072-.244-1.046-.555 2.461-.379 2.752-1.001 4.374-9.35.955-4.92 2.213-8.945 2.794-8.945s8.269 1.384 17.084 3.075c15.204 2.916 16.095 2.984 17.32 1.309 2.079-2.844 1.74-3.049-7.959-4.803-15.516-2.807-31.767-6.618-41.591-9.752-5.137-1.64-9.513-2.808-9.724-2.598-.797.797-2.631 20.661-2.772 30.019-.107 7.088-.491 9.75-1.405 9.75-.692 0-1.258-.904-1.258-2.008 0-5.329-9.395-40.087-10.782-39.89-.395.056-4.768 1.427-9.718 3.048m26.25 38.512c.688.278 1.813.278 2.5 0 .688-.277.125-.504-1.25-.504s-1.937.227-1.25.504m12.063.021c.721.289 1.584.253 1.916-.079.332-.332-.258-.568-1.312-.525-1.165.048-1.402.285-.604.604m-7.813.71c0 .216.698.661 1.552.989.89.341 1.291.173.941-.393-.587-.951-2.493-1.406-2.493-.596m-7.751 7.853c.549 1.648 7.105 2.661 11.086 1.713 2.785-.664 2.542-.767-2.026-.857-2.855-.056-5.469-.552-5.809-1.102-.894-1.447-3.744-1.231-3.251.246m15.564.437c.721.289 1.584.253 1.916-.079.332-.332-.258-.568-1.312-.525-1.165.048-1.402.285-.604.604m-2.207 5.469c1.042 1.459 2.094 2.459 2.338 2.222.245-.236-.607-1.43-1.894-2.652l-2.338-2.222 1.894 2.652m2.473 5.431c.048 1.165.285 1.402.604.605.289-.722.253-1.585-.079-1.917-.332-.332-.568.258-.525 1.312m-13.746.917c0 .825.375 1.5.834 1.5.458 0 .833-.675.833-1.5s-.375-1.5-.833-1.5c-.459 0-.834.675-.834 1.5m12.231 3.207c-.542 1.425-.428 1.54.56.56.684-.679.991-1.486.683-1.793-.308-.308-.867.247-1.243 1.233" fill-rule="evenodd"/>
<path fill="#dddddc" stroke="#dddddc" d="M175.135 89.539c-10.776 4.679-54.423 16.286-77.135 20.514-6.875 1.28-12.657 2.436-12.848 2.569-.192.133 2.171 3.359 5.25 7.17 6.792 8.407 6.802 7.747-.192 12.981-3.141 2.35-7.438 5.731-9.551 7.514l-3.84 3.242 7.84 6.566c13.432 11.247 25.317 27.742 32.47 45.068 3.532 8.556 3.84 8.763 8.645 5.833 4.131-2.518 3.89-2.584 4.629 1.254 1.203 6.243 1.317 6.264 13.214 2.42 20.62-6.663 52.729-14.003 59.007-13.488 3.069.252 3.939.761 4.18 2.448.278 1.949 2.194 2.492 22.5 6.371 12.208 2.333 29.499 5.697 38.424 7.477 14.455 2.883 16.279 3.061 16.7 1.629.259-.884 3.644-18.032 7.522-38.107s7.284-37.512 7.569-38.75c.452-1.961.121-2.25-2.579-2.25-2.971 0-3.07-.134-2.41-3.25.379-1.787.752-3.665.83-4.172.077-.508-8.04-2.533-18.037-4.5l-18.176-3.578 1.426-3.365c1.874-4.42 1.804-5.135-.506-5.135-7.734 0-45.431-8.475-60.897-13.69-5.681-1.916-10.54-3.273-10.797-3.016-.258.257-.812 3.334-1.232 6.837l-.764 6.369-2.231-7.25c-2.435-7.913-3.046-8.3-9.011-5.711m1.782 2.875c-1.956 1.946-48.491 14.778-68.917 19.004-6.875 1.423-13.538 2.826-14.808 3.118l-2.307.531 2.875 3.716c1.581 2.045 3.852 5.129 5.045 6.854l2.171 3.138-9.559 7.184-9.558 7.184 8.752 8.179c11.364 10.618 19.218 21.318 26.154 35.626 3.079 6.354 5.7 11.697 5.823 11.874.122.177 2.073-.845 4.334-2.273l4.11-2.594.984 2.587c.541 1.424.984 3.234.984 4.023 0 1.853-1.05 2.041 14.233-2.556 7.297-2.195 21.592-5.974 31.767-8.398l18.5-4.408-.242-4.601-.243-4.602h3.993c4.37 0 4.314-.093 3.094 5.16l-.851 3.661 10.625 2.012c31.238 5.918 63.168 11.456 63.594 11.03.267-.267 3.425-15.983 7.017-34.924 3.592-18.942 6.751-35.41 7.018-36.597.464-2.055-.341-2.313-17.045-5.463-20.839-3.929-20.036-3.564-18.085-8.234.838-2.005 1.169-3.645.737-3.645-6.333 0-47.854-9.554-60.299-13.874l-5.687-1.975-.521 2.674c-.286 1.471-.787 5.825-1.113 9.675-.325 3.85-.865 8.8-1.199 11l-.609 4-.883-3.5c-4.927-19.52-7.798-26.661-9.884-24.586M242 131v4h12v-8h-12v4m32.571-2.429c-2.009 2.01-1.992 3.865.054 5.911 3.69 3.69 9.779-1.032 6.805-5.278-1.81-2.584-4.645-2.846-6.859-.633M115 146.5V165h29.105l-.303-5.25-.302-5.25-7.75-.292-7.75-.292V128h-13v18.5m94-13c0 3.833-.296 4.5-2 4.5-1.556 0-2 .667-2 3s.444 3 2 3c1.841 0 2 .667 2 8.389 0 11.19 1.361 13.037 9.637 13.081l5.863.03.304-4.173c.269-3.703.044-4.211-2-4.5-3.759-.533-4.096-11.827-.354-11.827 2.248 0 2.55-.415 2.55-3.5 0-3.067-.31-3.5-2.5-3.5-2.296 0-2.5-.367-2.5-4.5V129h-11v4.5m49.667-3.833c-.367.366-.667 2.391-.667 4.5V138h-16v27h12v-10.406c0-9.734.123-10.375 1.901-9.91 1.64.429 1.949 1.649 2.25 8.871.446 10.709 1.477 11.924 10.126 11.936l6.223.009.307-4.25c.288-3.972.141-4.25-2.25-4.25-3.724 0-4.018-11.653-.307-12.18 1.725-.245 2.323-1.079 2.563-3.57.302-3.126-.642-3.909-4.063-3.368-.413.065-.75-1.907-.75-4.382V129h-5.333c-2.934 0-5.634.3-6 .667m16.528 1.833c.02 1.65.244 2.204.498 1.231.254-.973.237-2.323-.037-3-.274-.677-.481.119-.461 1.769m4.884.083c.048 1.165.285 1.402.604.605.289-.722.253-1.585-.079-1.917-.332-.332-.568.258-.525 1.312M277 133.441c0 .857.45 1.559 1 1.559s1-.423 1-.941-.45-1.219-1-1.559c-.55-.34-1 .084-1 .941m-123.98 5.311c-14.083 7.075-8.333 27.241 7.77 27.246 9.07.004 15.21-5.849 15.21-14.498 0-11.418-12.18-18.175-22.98-12.748m31.001-.69c-9.898 4.164-7.71 14.812 3.384 16.476 5.382.807 7.05 1.834 6.272 3.861-.842 2.194-3.347 2.009-5.409-.399-2.409-2.814-11.268-2.921-11.268-.136 0 3.169 4.769 6.979 9.652 7.711 10.731 1.609 17.646-1.567 18.151-8.336.39-5.22-2.141-7.724-9.462-9.362-6.312-1.413-8.596-3.344-5.22-4.415 1.525-.484 2.6-.196 3.413.915 1.986 2.716 10.701 2.269 10.286-.527-.759-5.104-12.952-8.669-19.799-5.788m-26.986 8.872c-2.336 4.366.158 12.066 3.908 12.066 1.575 0 4.057-4.283 4.057-7 0-5.651-5.708-9.282-7.965-5.066M226 152v5h15v-10h-15v5" fill-rule="evenodd"/>
<path fill="#060605" stroke="#060605" d="M167 92.649c-19.514 6.429-39.832 11.818-61.322 16.266-10.352 2.142-19.042 4.116-19.311 4.385-.27.269.805 2 2.389 3.845a159.103 159.103 0 0 1 5.597 6.996l2.718 3.641-10.032 7.836-10.032 7.836 3.246 2.434c15.519 11.632 30.281 31.779 39.127 53.4l1.55 3.788 4.171-2.127c4.018-2.051 5.819-1.672 5.884 1.236.008.377.433 1.784.944 3.127l.928 2.442 9.863-3.303c10.037-3.362 36.289-10.016 50.78-12.871 9.094-1.791 13.998-1.108 14.003 1.952.002 1.683 4.046 2.663 37.9 9.192 20.844 4.019 38.072 7.134 38.285 6.921.843-.843 15.321-77.18 14.864-78.371-.269-.701-1.461-1.274-2.648-1.274-1.958 0-2.1-.372-1.523-3.979.742-4.643 2.887-3.753-19.258-7.996-8.458-1.62-15.571-3.14-15.809-3.377-.237-.238.247-2.055 1.076-4.04.83-1.984 1.348-3.608 1.152-3.608-6.989 0-54.561-11.142-66.074-15.476C191.78 90.136 188.649 89 188.51 89c-.138 0-.563 3.159-.943 7.02-.835 8.472-1.51 8.316-4.044-.936-1.067-3.896-2.184-7.039-2.482-6.983-.297.055-6.616 2.102-14.041 4.548m10-.71c-5.33 3.122-55.875 16.755-76.75 20.7-5.088.962-9.25 2.008-9.25 2.325 0 .316 2.02 3.266 4.489 6.556 2.47 3.289 4.495 6.294 4.5 6.678.006.384-4.027 3.759-8.962 7.5-10.325 7.828-10.321 7.816-4.898 11.802 10.441 7.674 22.438 23.462 30.588 40.25 6.066 12.496 5.53 12.006 10.093 9.224 3.868-2.358 4.801-2.024 5.693 2.037.812 3.701-.628 3.816 17.63-1.404 8.452-2.416 22.68-6.115 31.617-8.22l16.25-3.826v-4.781c0-4.673.069-4.78 3.083-4.78 3.05 0 3.079.049 2.75 4.662l-.333 4.663 36.987 6.767c20.343 3.722 37.165 6.589 37.382 6.372.444-.443 14.087-71.247 14.114-73.245.022-1.641.541-1.503-19.702-5.247l-17.219-3.184 1.492-3.571c1.88-4.501 1.627-4.695-8.054-6.154-11.924-1.797-32.684-6.552-44-10.077-5.5-1.713-10.945-3.351-12.1-3.638-2-.499-2.157.057-3.334 11.814-.679 6.786-1.332 12.435-1.45 12.554-.119.12-1.012-2.805-1.984-6.5-3.114-11.824-5.808-20.217-6.479-20.186-.359.017-1.328.426-2.153.909m66 38.561v3.5h10v-7h-10v3.5m-127 16V165h27v-9.916l-7.75-.292-7.75-.292-.279-13.25-.279-13.25H116v18.5m93-12.5c0 3.333-.333 4-2 4-1.556 0-2 .667-2 3 0 2.281.455 3 1.901 3 1.702 0 1.936.948 2.25 9.081.42 10.919 1.267 11.919 10.1 11.919h5.87l-.311-3.75c-.249-3.011-.753-3.813-2.558-4.069-4.601-.654-4.603-12.468-.002-12.997 2.287-.264 2.75-.8 2.75-3.184 0-2.384-.463-2.92-2.75-3.184-2.455-.282-2.75-.718-2.75-4.067v-3.75h-5.25L209 130v4m50 0c0 3.333-.333 4-2 4-1.556 0-2 .667-2 3s.444 3 2 3c1.851 0 2 .667 2 8.943 0 10.683 1.108 12.057 9.723 12.057H274v-3.93c0-3.315-.353-3.981-2.25-4.25-3.723-.529-4.008-12.82-.298-12.82 2.164 0 2.548-.452 2.548-3 0-2.533-.389-3-2.5-3-2.25 0-2.5-.4-2.5-4v-4h-10v4m-102.5 3.898c-7.315 1.84-10.858 6.364-10.747 13.722.272 18.02 28.104 19.057 29.926 1.116 1.009-9.941-8.72-17.468-19.179-14.838m29.516.095c-11.107 2.709-10.131 13.274 1.484 16.067 5.462 1.313 8.116 3.134 7.059 4.844-.986 1.595-5.111 1.341-6.559-.404-1.928-2.323-11.15-2.1-10.317.25 3.633 10.244 27.317 8.341 27.317-2.195 0-3.992-3.116-6.607-10.026-8.413-4.273-1.118-6.474-2.194-6.474-3.168 0-1.907 3.849-2.463 5.263-.759.697.84 2.709 1.182 5.598.953 4.322-.344 4.465-.456 3.444-2.696-1.752-3.846-10.173-6.092-16.789-4.479M243 151.5V165h10v-27h-10v13.5m-84.977-5.72c-4.385 3.551-2.51 13.22 2.564 13.22 3.046 0 4.603-3.018 4.219-8.174-.411-5.501-3.438-7.754-6.783-5.046M227 151.5v4.5h13v-9h-13v4.5" fill-rule="evenodd"/>
</svg>