<!DOCTYPE svg PUBLIC "-//W3C//DTD SVG 1.1//EN" "http://www.w3.org/Graphics/SVG/1.1/DTD/svg11.dtd">
<svg xmlns="http://www.w3.org/2000/svg" viewBox="0 0 736 552">
<path fill="#fbfbfb" stroke="#fbfbfb" d="M548.739 113.689c-1.3 2.096-6.536 10.786-11.634 19.311a9681.597 9681.597 0 0 1-10.18 17c-.501.825-5.919 9.825-12.041 20-13.727 22.817-13.482 22.46-14.408 20.96-.404-.652-1.149-14.973-1.656-31.823-.507-16.85-1.125-31.62-1.373-32.82-.544-2.632-3.651-3.813-6.3-2.396-2.394 1.281-3.702 26.946-2.935 57.579l.475 19-6.593.025c-7.566.028-15.684 1.991-18.594 4.494-1.1.947-4.025 2.026-6.5 2.399-4.768.718-14.884 4.133-24 8.101-3.025 1.317-12.025 3.567-20 4.999-16.76 3.009-17.48 3.406-13.418 7.377 1.634 1.598 5.842 7.563 9.35 13.255 13.862 22.493 15.607 23.898 26.426 21.292 3.928-.946 8.38-2.344 9.892-3.107 2.513-1.267 2.75-1.225 2.75.479 0 2.306-2.339 3.397-12.308 5.742-12.01 2.825-14.708.688-29.646-23.481-10.513-17.01-11.079-17.244-35.487-14.661l-12.942 1.37-14.558-9.065c-24.398-15.193-43.926-28.721-46.269-32.055-1.223-1.74-2.795-3.752-3.492-4.47-.697-.719-3.272-3.912-5.722-7.096-6.853-8.905-7.952-9.415-19.848-9.213-6.4.109-7.006.328-11 3.985-2.326 2.128-5.241 4.183-6.479 4.567-3.381 1.049-4.167 3.371-5.768 17.059-1.998 17.08-7.516 55.873-8.02 56.376-.481.481-18.379 3.504-30.326 5.122-4.601.623-9.215 1.663-10.252 2.311-5.398 3.371-4.02 17.6 1.712 17.68.602.008 1.843.842 2.758 1.853 1.557 1.72 1.535 1.954-.345 3.655-3.14 2.842-1.345 8.507 2.696 8.507.575 0 1.3 1.27 1.61 2.822.627 3.135 12.409 10.842 21.103 13.804 6.715 2.288 5.873 3.797-1.667 2.99-31.503-3.373-31.304-3.386-38.647 2.587-8.222 6.688-6.843 11.739 3.436 12.592 5.157.427 5.468.317 6.457-2.284.92-2.419 1.41-2.661 4.271-2.106 9.314 1.807 27.973 3.699 33.233 3.369 8.485-.532 11.595-2.317 13.548-7.774 1.083-3.025 2.076-4.35 3.031-4.041.782.252 23.359.626 50.171.832 30.931.237 48.75.732 48.75 1.354 0 .539-.985 3.801-2.188 7.25-2.081 5.962-2.419 6.351-6.902 7.943-4.718 1.676-10.91 7.423-10.91 10.125 0 3.095 2.687 4.199 9.713 3.995 8.918-.26 15.243-4.347 17.733-11.458.867-2.475 3.307-7.615 5.424-11.421l3.847-6.921 7.392-.198c14.208-.379 71.685-14.426 76.865-18.785 4.014-3.377 3.657-3.422 10.641 1.323 3.237 2.198 6.376 3.998 6.976 4 .6.001 3.949 5.29 7.441 11.752 14.459 26.754 18.542 30.775 30.921 30.455 7.369-.191 10.406-2.118 9.4-5.965-.745-2.848-8.767-8.399-13.242-9.162-2.858-.487-3.994-1.573-7.25-6.928-2.124-3.493-3.861-6.557-3.861-6.809 0-.252-1.324-2.119-2.941-4.15-4.051-5.084-9.059-14.9-9.059-17.758 0-2.974-5.374-9.204-8.298-9.62-2.707-.385-5.883-6.403-5.054-9.575.747-2.856 2.352-2.912 2.352-.082 0 4.808 8.08 11.844 13.602 11.844 2.129 0 2.217.222 1.218 3.086-2.189 6.281 3.433 7.689 6.456 1.618l1.596-3.204.064 3.143c.128 6.274 5.523 5.058 6.625-1.493 1.644-9.775 2.644-9.489 9.193 2.628 5.837 10.799 11.457 18.646 15.246 21.286 3.992 2.781 16.561 3.375 19.037.899 1.564-1.564 2.782-1.813 6.432-1.312 5.284.724 7.895-.786 6.991-4.042-2.277-8.201-8.881-10.811-16.721-6.609-5.304 2.843-7.399 2.563-9.352-1.25-2.662-5.198-14.848-22.768-19.824-28.582-2.51-2.932-4.563-5.407-4.562-5.5 0-.092.868-2.451 1.928-5.241 2.202-5.792 2.325-38.573.154-40.744-1.884-1.884-1.238-3.86 5.801-17.751 6.926-13.669 25.943-48.291 29.074-52.932.928-1.375 3.186-5.2 5.018-8.5 5.383-9.695 7.109-12.755 9.708-17.208 5.062-8.671-.696-15.067-5.945-6.603M261.65 200.681c-1.147 5.998-5.653 30.194-6.997 37.569L253.24 246l2.63-.011c1.447-.005 8.43-.905 15.519-2 16.894-2.607 16.108-2.704 19.069 2.349 3.221 5.497 3.202 5.655-.708 5.697-3.577.039-8.571 2.34-7.08 3.261.869.537 4.284-.092 10.226-1.883 2.173-.655 2.349-.477 1.893 1.91-.362 1.892-.027 2.784 1.19 3.17 2.31.734 6.971 10.69 5.27 11.257-2.114.705-1.382 2.25 1.066 2.25 1.634 0 2.777.97 3.888 3.299 1.997 4.189 11.487 16.78 13.958 18.519 1.03.726 1.637 1.7 1.349 2.167-.772 1.248 1.256 6.015 2.559 6.015.615 0 1.354-.9 1.641-2 .288-1.1.583-1.994.657-1.987.073.007 2.986.907 6.472 2 12.134 3.803 16.51 1.979 22.103-9.213 4.573-9.15 3.445-17.07-3.842-26.979l-3.113-4.233 4.174-1.544c5.562-2.057 6.471-4.329 1.151-2.877-2.097.573-4.373 1.498-5.058 2.057-1.292 1.052-9.686-5.459-8.529-6.616.304-.303-.523-.97-1.836-1.48-2.453-.953-12.469-10.986-33.321-33.378-7.219-7.751-12.624-12.75-13.787-12.75-1.052 0-2.821-.486-3.932-1.081-3.26-1.744-3.432-.137-.333 3.098 1.803 1.881 3.502 2.795 4.57 2.456 1.167-.371 2.975.951 5.76 4.208 4.549 5.322 4.626 5.829.654 4.319-3.378-1.284-4.008-.818-2.558 1.891 1.708 3.192 4.628 4.397 6.388 2.636 2.196-2.196 46.705 42.124 50.393 50.179 4.646 10.148 3.783 16.837-3.245 25.153-3.715 4.395-9.773 4.13-20.037-.878-3.818-1.863-7.499-3.346-8.18-3.297-.682.05-.97-.346-.641-.878.329-.533-.517-2.169-1.88-3.637-2.26-2.433-14.572-22.56-16.865-27.57a46.668 46.668 0 0 0-2.186-4.099c-.674-1.1-3.18-5.713-5.568-10.25-4.136-7.856-4.506-8.25-7.732-8.25-3.792 0-4.368-1.577-1.934-5.292 1.947-2.97-1.345-8.708-4.994-8.708-3.12 0-3.899-1.528-2.5-4.906 1.549-3.739-1.914-10.094-5.501-10.094-2.783 0-4.134-1.726-2.573-3.287 1.656-1.656 1.346-3.713-.558-3.713-.919 0-2.452-.706-3.406-1.569-1.601-1.45-1.775-1.355-2.273 1.25M455 221c1.958 1.266 3.282 1.266 2.5 0-.34-.55-1.379-.993-2.309-.985-1.457.014-1.484.15-.191.985m-152.46 7.936c-1.05 1.698 3.618 6.184 6.107 5.869 1.328-.168 2.469-.755 2.534-1.305.159-1.328-7.983-5.629-8.641-4.564m85.21 5.753c-2.794.73-2.023 2.311 1.128 2.311 1.582 0 3.437-.675 4.122-1.5 1.302-1.569-.994-1.923-5.25-.811m-16.774 2.84c-1.207 1.454-.987 1.591 2.087 1.298 3.762-.358 4.683-2.149 1.349-2.625-1.148-.164-2.694.433-3.436 1.327m-16.726 1.502c-3.363 1.352-2.715 2.969 1.191 2.969 3.746 0 5.636-1.703 3.437-3.096-1.637-1.037-1.738-1.034-4.628.127m-16.5 2.049c-2.603 1.516-2.119 2.922 1 2.905 3.939-.022 6.265-1.647 4.25-2.97-1.884-1.237-3.04-1.222-5.25.065m48.75 1.431-3 1.327 2.691.081c1.48.044 2.988-.399 3.35-.986 1.06-1.715.165-1.839-3.041-.422m-74.5.866c0 3.106 6.959 7.116 8.375 4.825.846-1.369-.731-2.917-4.625-4.539-2.889-1.202-3.75-1.268-3.75-.286m59.299 1.789c-3.966 1.073-5.24 2.834-2.049 2.834 2.369 0 6.688-2.455 5.748-3.268-.274-.237-1.938-.042-3.699.434m-19.549 2.523c-2.355.616-2.232 2.311.168 2.311 2.613 0 5.082-1.024 5.082-2.107 0-.921-2.183-1.005-5.25-.204m33.5 2.284c-3.967 1.801-5.691 4.027-3.118 4.027 1.66 0 7.868-4.009 7.868-5.082 0-1.161.257-1.218-4.75 1.055m-17 3.274c-3.373 1.082-4.405 2.753-1.7 2.753.852 0 2.877-.687 4.5-1.526 4.925-2.547 3.399-3.216-2.8-1.227m-111.583 1.42c-1.365 1.364-.598 2.462 1.505 2.153 2.748-.405 3.671-2.82 1.078-2.82-1.054 0-2.217.3-2.583.667m-13 1c-1.365 1.364-.598 2.462 1.505 2.153 2.748-.405 3.671-2.82 1.078-2.82-1.054 0-2.217.3-2.583.667m25.774.847c-1.817 1.417-1.691 1.496 1.982 1.25 2.157-.145 4.107-.826 4.333-1.514.584-1.777-3.94-1.588-6.315.264m-37.405.942c-.664.801-.917 1.927-.561 2.503.889 1.439 4.525-.565 4.525-2.494 0-1.886-2.402-1.891-3.964-.009m88.964-.591c0 2.116 4.351 6.226 6.287 5.939 3.601-.533 2.979-2.629-1.41-4.749-4.86-2.348-4.877-2.353-4.877-1.19m-98.983 2.614c-1.009 1.216-1.051 1.887-.175 2.763 1.691 1.691 3.668-.508 2.437-2.709-.852-1.521-1.041-1.525-2.262-.054m26.328 3.064c-.326.849-.332 1.803-.015 2.12 1.076 1.076 5.67-.692 5.67-2.182 0-2-4.884-1.947-5.655.062m-40.91 1.66c-.782 2.466.668 4.079 2.898 3.223 2.3-.883 2.098-4.08-.298-4.707-1.362-.356-2.16.1-2.6 1.484m72.888-1.444c-1.198.198-2.716 1.009-3.373 1.801-1.621 1.954 2.784 1.957 5.36.004 2.061-1.563 1.211-2.336-1.987-1.805m120.859 1.741c-1.634 1.375-3.678 2.5-4.542 2.5-.864 0-3.222 1.45-5.24 3.222-2.534 2.225-4.764 3.26-7.206 3.345-2.536.088-4.133.873-5.652 2.778-1.456 1.826-3.066 2.655-5.155 2.655-3.452 0-8.387 4.264-6.375 5.507.639.395 1.663.218 2.275-.394.612-.612 3.273-1.113 5.913-1.113 3.354 0 4.8-.405 4.8-1.345 0-2.828 3.352-4.494 8.25-4.099 4.384.353 4.75.207 4.75-1.887 0-3.266 1.863-4.669 6.2-4.669 2.999 0 3.8-.381 3.8-1.809 0-.995.661-2.682 1.468-3.75 3.104-4.103 1.141-4.665-3.286-.941M233.5 264c-.972 1.573.404 3 2.892 3 2.954 0 3.869-.981 2.477-2.658-1.307-1.575-4.482-1.777-5.369-.342m56.941.468c-1.874 1.418-1.854 1.469.559 1.487 3.478.025 7-1.017 7-2.072 0-1.431-5.45-1.01-7.559.585m-30.828 1.098c-.468 1.219-.011 1.496 2.066 1.25 1.467-.174 2.851-.878 3.077-1.566.613-1.867-4.424-1.558-5.143.316M216.5 271c-.361.583.656 1 2.441 1 1.682 0 3.059-.45 3.059-1s-1.098-1-2.441-1c-1.343 0-2.719.45-3.059 1m26.043-.069c-.317.512-.114 1.216.45 1.564 1.315.813 5.007-.339 5.007-1.562 0-1.214-4.707-1.216-5.457-.002m42.809.062c-3.107 1.254-3.832 2.942-1.125 2.621 3.079-.364 5.773-1.635 5.773-2.721 0-1.093-1.787-1.054-4.648.1m-55.747.837c-.878 1.421 1.906 3.295 3.811 2.564.917-.352 1.502-1.147 1.298-1.767-.473-1.439-4.339-2.043-5.109-.797m37.057 1.788c-3.458 1.874-2.873 2.807 1.197 1.913 3.668-.806 6.433-3.553 3.513-3.491-1.029.022-3.149.732-4.71 1.578m-14.412.602c-2.36 1.139-3.156 2.996-1 2.332.688-.212 2.488-.656 4-.988 1.512-.331 2.75-1.044 2.75-1.583 0-1.266-2.878-1.146-5.75.239m-22.675 13.697c-1.384 1.529-1.509 2.338-.62 4 2.189 4.089 6.212 1.408 5.272-3.512-.555-2.899-2.304-3.083-4.652-.488m13.625 4.823c.234 4.48.676 5.812 2.014 6.067 2.495.474 3.233-3.802 1.41-8.165-2.299-5.501-3.774-4.597-3.424 2.098m14.998 2.51c.258 4.483.594 5.25 2.302 5.25 2.661 0 3.198-4.506.946-7.942-2.567-3.918-3.58-3.077-3.248 2.692m16.393.209c.369 6.049 1.411 8.276 3.322 7.095 1.986-1.228 1.216-7.293-1.297-10.214l-2.384-2.771.359 5.89m31.905-.209c.963 7.393 5.504 10.505 5.504 3.772 0-3.457-2.982-9.007-4.844-9.016-1.041-.005-1.19 1.175-.66 5.244m-15.905-1c1.209 7.267 1.431 7.75 3.559 7.75 2.585 0 2.086-5.976-.762-9.124-2.49-2.751-3.409-2.3-2.797 1.374m-71.279 63.714c-18.319 9.267-24.153 34.3-11.773 50.519 1.936 2.537 3.212 5.11 2.836 5.719-.4.647-.229.826.41.431.602-.372 3.034.686 5.405 2.352 15.38 10.808 38.649 1.764 44.284-17.211 8.384-28.23-17.013-54.027-41.162-41.81m160.048-.551c-20.639 9.61-25.694 36.296-10.375 54.774 8.891 10.724 26.935 12.478 38.765 3.769 5.21-3.836 5.322-5.764.634-10.953-4.246-4.699-4.908-4.805-9.384-1.503-7.095 5.235-16.289 2.154-18.824-6.307-5.708-19.05 5.862-32.924 19.693-23.615 4.039 2.719 4.968 2.453 9.013-2.581 3.826-4.761 3.882-6.205.368-9.474-6.956-6.468-20.751-8.366-29.89-4.11m48.924.653c-20.497 9.941-24.374 39.351-7.294 55.328 15.832 14.809 40.168 8.733 47.97-11.975 3.152-8.368 2.595-21.608-1.222-29.027-7.831-15.221-24.86-21.404-39.454-14.326m56.216-1.225c-7.898 3.788-11.5 9.361-11.5 17.789 0 9.704 5.464 14.621 25.264 22.737 4.568 1.872 5.484 3.842 3.323 7.141-2.968 4.529-9.721 3.197-16.408-3.237-3.23-3.107-12.179 2.038-12.179 7.002 0 3.23 7.33 9.451 13.184 11.189 20.477 6.081 36.737-5.08 33.39-22.921-1.08-5.756-5.549-9.785-17.092-15.41-11.228-5.472-12.771-7.049-9.948-10.168 2.729-3.016 8.372-1.87 13.676 2.776 4.085 3.579 13.413-4.883 11.064-10.037-3.091-6.784-23.868-11.134-32.774-6.861m-317.929.73c-1.903 1.903-2.391 57.028-.536 60.495.961 1.795 2.251 1.934 17.965 1.934 19.364 0 19.37-.003 18.803-8.76-.38-5.879-2.571-7.204-11.946-7.225-8.36-.019-7.857 1.542-7.857-24.397 0-15.17-.342-21.56-1.2-22.418-1.828-1.828-13.309-1.548-15.229.371m94.629-.371c-1.81 1.81-1.509 3.979 2.233 16.143 1.888 6.136 5.497 18.132 8.021 26.657 6.59 22.261 4.725 20 16.502 20 12.028 0 11.447.569 16.134-15.788 1.779-6.208 3.581-10.933 4.003-10.5.423.434 2.398 6.175 4.388 12.76 1.99 6.584 4.158 12.315 4.819 12.734 1.557.991 18.836.995 20.392.006.655-.417 2.981-6.823 5.169-14.235 2.187-7.412 4.89-16.402 6.005-19.977 8.836-28.314 8.796-29-1.719-29-8.165 0-8.382.197-10.525 9.5-2.568 11.148-8.524 33.735-9.029 34.24-.535.536-1.322-2.241-7.113-25.117-2.35-9.282-4.882-17.263-5.627-17.735-2.225-1.41-12.55-1.048-14.092.494-1.144 1.144-4.704 13.829-10.945 38.995-1.39 5.605-2.022 4.146-7.097-16.377-6.436-26.025-5.298-24-13.494-24-3.975 0-7.326.501-8.025 1.2m261.55-.12c-1.315.766-1.746 2.311-1.735 6.22.022 7.252.703 7.931 8.645 8.613l6.84.587.5 22.5c.275 12.375.864 23.063 1.309 23.75 1.116 1.724 14.08 1.692 15.516-.039.669-.806 1.112-8.57 1.183-20.75.16-27.121-.158-25.961 7.103-25.961 8.05 0 10.319-2.171 9.642-9.223-.264-2.744-1.104-5.385-1.866-5.868-1.968-1.246-44.972-1.09-47.137.171m-295.462 14.526c-11.865 5.938-8.651 34.394 3.884 34.394 7.605 0 12.334-6.901 12.319-17.975-.017-13.002-7.626-20.712-16.203-16.419m211.192-.756c-13.586 4.373-12.105 35.15 1.691 35.15 14.125 0 17.841-27.771 4.631-34.602-2.91-1.505-3.256-1.535-6.322-.548" fill-rule="evenodd"/>
<path fill="#86d5ae" stroke="#86d5ae" d="M550.806 111.75c-.828.963-5.924 9.175-11.326 18.25-12.088 20.309-35.132 58.607-37.306 62l-1.601 2.5-.76-4c-.417-2.2-1.069-17.46-1.448-33.912-.635-27.594-.836-30.059-2.6-31.823-1.709-1.709-2.142-1.759-4.088-.469-2.085 1.382-2.211 2.388-2.975 23.823-.782 21.943-.351 46.174.9 50.631.613 2.186.422 2.25-6.735 2.262-8.863.014-17.407 2.117-20.027 4.929-1.212 1.301-3.173 2.059-5.329 2.059-3.244 0-19.038 5.196-25.148 8.274-1.575.793-9.163 2.65-16.863 4.126-7.7 1.477-15.059 3.127-16.353 3.668l-2.352.983 2.533 1.992c1.393 1.096 6.052 7.639 10.352 14.54 13.606 21.831 15.397 23.227 26.222 20.442 3.648-.938 7.686-2.27 8.973-2.958 3.456-1.85 5.455.396 2.502 2.811-2.886 2.361-17.374 5.589-21.012 4.682-4.324-1.079-10.98-8.761-19.865-22.93-4.4-7.017-9.496-13.903-11.325-15.302-3.663-2.803-1.954-2.79-27.225-.196l-10.549 1.083-11.451-7.241a5218.35 5218.35 0 0 0-18.45-11.615c-19.798-12.374-26.989-17.924-33.478-25.836-13.992-17.063-13.812-16.923-22.458-17.36-8.776-.443-12.337.686-15.452 4.9-1.195 1.615-2.989 2.937-3.987 2.937-4.324 0-5.226 2.981-8.695 28.704-4.822 35.76-6.211 45.411-6.592 45.79-.186.184-9.312 1.669-20.28 3.299-22.911 3.404-23.558 3.743-23.558 12.318 0 4.999 2.339 8.889 5.345 8.889.74 0 2.127.864 3.083 1.92 1.659 1.833 1.64 1.973-.403 3.067-3.325 1.779-2.486 7.402 1.166 7.824 2.214.255 2.746.876 3 3.5.231 2.384 1.067 3.568 3.309 4.691 1.65.826 4.464 2.545 6.253 3.821 1.79 1.275 5.84 3.368 9 4.652 6.635 2.696 8.662 6.033 3.082 5.074-7.251-1.246-21.707-2.533-28.548-2.541-7.021-.008-7.352.106-12.497 4.3-7.672 6.254-7.541 9.605.461 11.76 5.034 1.355 8.749.519 8.749-1.97 0-2.122 3.495-3.416 5.912-2.189 3 1.523 17.318 3.272 27.69 3.382 12.446.133 15.286-1.25 16.858-8.211.948-4.2 1.001-4.242 4.5-3.607 1.947.354 25.044.886 51.327 1.182 44.185.498 47.746.666 47.252 2.222-3.287 10.356-5.179 13.532-8.578 14.395-4.856 1.232-11.132 7.49-10.754 10.723.279 2.387.638 2.519 7.6 2.8 10.646.43 13.341-1.801 21.327-17.658L364.247 311h6.693c12.378 0 77.06-15.123 77.06-18.017 0-.512 1.364-1.637 3.031-2.499 2.958-1.529 3.133-1.485 7.25 1.85 2.32 1.879 5.569 4.102 7.219 4.94 2.258 1.147 4.855 4.892 10.5 15.148 9.665 17.557 13.403 22.53 19.009 25.287 7.914 3.892 18.991 2.673 18.991-2.09 0-3.009-8.557-9.511-13.592-10.328-2.788-.452-3.867-1.442-6.332-5.811-1.635-2.896-5.702-9.423-9.038-14.503-3.336-5.081-6.312-10.416-6.613-11.857-1.011-4.841-3.286-8.923-6.005-10.778-6.272-4.279-8.56-7.198-8.234-10.502.173-1.752.876-3.371 1.563-3.596 1.276-.419 1.653.274 2.65 4.862.682 3.137 7.322 7.812 12.225 8.608 3.326.54 3.383.626 1.914 2.869-1.81 2.762-1.051 5.417 1.55 5.417 1.214 0 2.762-1.672 4.399-4.75l2.525-4.75-.256 4.5c-.238 4.192-.086 4.5 2.222 4.5 2.211 0 2.591-.593 3.52-5.49 1.433-7.556 3.565-7.805 7.076-.824 5.178 10.296 14.36 23.326 18.399 26.11 3.448 2.376 17.799 2.462 18.701.112.488-1.273 1.497-1.459 5.031-.93 4.988.749 7.295-.478 7.295-3.878 0-6.946-8.415-10.1-16.454-6.167-6.957 3.405-6.871 3.431-10.577-3.183-4.799-8.566-15.234-23.269-19.339-27.25-4.17-4.045-4.28-4.768-1.748-11.5 2.375-6.314 2.129-34.766-.343-39.723-2.149-4.308 2.358-13.414 35.058-70.836 18.009-31.623 18.698-33.177 15.469-34.906-2.501-1.338-2.494-1.34-4.26.715m-290.623 93.5c-.692 4.537-2.645 15.584-4.34 24.547-1.695 8.963-2.838 16.541-2.54 16.839.298.298 8.064-.661 17.259-2.131 18.069-2.89 16.859-3.053 19.975 2.695 1.836 3.39 1.865 4.892.08 4.206-1.758-.674-8.617 2.146-8.617 3.543 0 1.505 4.477 1.296 8.532-.398 3.601-1.504 3.923-1.258 3.52 2.699-.098.962.477 1.75 1.278 1.75s1.729.712 2.063 1.582c.822 2.141.764 2.633-.237 2.015-1.158-.716-8.156 1.295-8.156 2.343 0 1.731 3.224 1.993 6.692.544 3.281-1.371 3.69-1.349 4.912.26 1.718 2.263 1.707 2.753-.093 4.247-1.881 1.561-1.088 2.973 1.315 2.344 1.41-.369 3.095 1.525 7.423 8.344 3.079 4.852 6.983 10.143 8.675 11.758 1.692 1.615 3.076 3.888 3.076 5.05 0 4.072 4.331 6.18 5.275 2.568.502-1.919.579-1.918 5.853.086 13.01 4.943 20.424.756 25.449-14.374 1.891-5.693-.085-13.169-5.701-21.567-3.485-5.211-3.476-4.827-.126-5.513 3.289-.673 7.019-3.251 6.073-4.198-.371-.371-3.222.066-6.335.971l-5.66 1.646-2.414-2.605c-1.328-1.432-2.414-3.256-2.414-4.053 0-.796-.877-1.448-1.949-1.448-2.126 0-15.938-13.568-34.866-34.25-9.124-9.969-12.227-12.75-14.227-12.75-1.407 0-3.09-.532-3.741-1.183-1.941-1.941-2.778.095-1.19 2.891 1.596 2.81 3.099 3.84 6.973 4.778 1.375.333 3.85 2.24 5.5 4.239 3.089 3.741 2.67 4.013-2.75 1.781-2.616-1.076-2.213 1.702.702 4.848 2.678 2.889 4.823 3.338 6.642 1.39.923-.988 2.677.344 8.231 6.25 3.881 4.128 14.164 14.481 22.85 23.006 16.062 15.763 19.724 20.833 21.404 29.626 1.192 6.238-7.358 19.374-12.61 19.374-2.973 0-14.655-4.526-18.855-7.306-4.794-3.172-10.549-11.878-23.512-35.568-8.563-15.648-10.585-18.674-12.647-18.925-4.88-.595-5.151-.921-3.467-4.178 2.314-4.474-1.028-11.023-5.625-11.023-2.635 0-3.004-.298-2.48-2 .34-1.1.853-2.787 1.142-3.75.756-2.52-2.985-8.036-5.713-8.423-2.325-.33-2.688-1.733-1.316-5.077.539-1.314.232-1.75-1.234-1.75-1.074 0-2.767-.9-3.762-2-2.723-3.008-2.956-2.67-4.317 6.25M453 219.933c0 1.075 3.89 2.51 4.675 1.725.289-.289.229-1.005-.134-1.591-.81-1.312-4.541-1.422-4.541-.134m-151 8.556c0 3.655 5.025 7.955 8.141 6.966 3.431-1.089 1.847-4.506-2.641-5.697-1.1-.292-2.788-.855-3.75-1.252-.962-.396-1.75-.404-1.75-.017m148.688 1.157c-1.305 1.304-.682 2.354 1.395 2.354 1.164 0 1.909-.524 1.688-1.187-.487-1.462-2.157-2.094-3.083-1.167m-63.438 5.016c-1.92.775-1.487 2.043.912 2.67 2.339.612 5.838-.807 5.838-2.367 0-.994-4.532-1.198-6.75-.303M370.5 237c-.967 1.565.4 3 2.859 3 2.225 0 4.641-1.666 4.641-3.2 0-1.163-6.769-.983-7.5.2m-17.75 2.08c-2.514 1.464-2.16 2.606 1 3.23 2.987.59 7.705-1.764 6.723-3.354-.773-1.25-5.494-1.174-7.723.124m-16.239 2.288c-1.824 1.334-1.823 1.394.059 2.371 3.385 1.756 8.507-.188 6.984-2.652-.935-1.513-4.801-1.358-7.043.281m48.739.852c-1.238.597-2.25 1.467-2.25 1.933 0 1.597 4.778.848 7.139-1.12l2.361-1.966-2.5.034c-1.375.019-3.512.523-4.75 1.119m-74.25.645c0 .476.933 2.051 2.073 3.5 2.5 3.179 8.307 3.846 7.737.888-.508-2.639-9.81-6.8-9.81-4.388m58 2.873-3.5 1.661 3.315.368c3.184.355 6.185-1.048 6.185-2.889 0-1.302-2.066-1.005-6 .86m-19 2.277c-1.333.876-1.333 1.094 0 1.962 1.736 1.131 4.856.421 6.964-1.584 1.795-1.707-4.426-2.044-6.964-.378m34.25 1.73c-3.451 1.718-4.383 4.255-1.562 4.255 1.866 0 8.294-4.064 8.305-5.25.011-1.222-3.258-.739-6.743.995M370 252.414c-5.214 1.618-6.542 2.628-4.857 3.696 1.861 1.179 1.864 1.178 6.243-1.472 4.453-2.696 3.754-3.818-1.386-2.224m-113.489 1.954c-1.817 1.329-1.812 1.401.171 2.462 2.737 1.464 6.776-1.151 4.318-2.796-1.958-1.31-2.272-1.287-4.489.334m-14.065 1.719c-1.035 1.674 1.106 3.19 3.453 2.445 2.935-.931 2.684-3.532-.34-3.532-1.343 0-2.743.489-3.113 1.087m26.804-.425c-1.887.762-1.499 3.34.5 3.324 3.178-.024 6.103-1.162 6.649-2.585.542-1.412-4.252-1.908-7.149-.739m51.17.467c-.281.455.494 2.188 1.722 3.85 2.59 3.503 7.859 4.355 7.857 1.271-.001-1.911-8.691-6.557-9.579-5.121m-88.17.533c-.687.278-1.25 1.367-1.25 2.421 0 2.305 3.188 2.601 4.964.461 2.079-2.506-.222-4.291-3.714-2.882M222.2 258.2c-.66.66-1.2 2.043-1.2 3.073 0 3.049 3.447 1.666 3.816-1.532.337-2.919-.654-3.503-2.616-1.541m26.338 3.148c-3.318 2.426.418 4.757 4.88 3.045 2.916-1.119 1.196-4.393-2.309-4.393-.4 0-1.556.607-2.571 1.348m-41.433 2.025c-1.643 1.98-.273 4.627 2.395 4.627 1.257 0 2.567-.732 2.91-1.627.701-1.825-.995-4.373-2.91-4.373-.69 0-1.768.618-2.395 1.373m70.974-.108c-3.153 1.608-3.841 3.735-1.209 3.735 2.999 0 7.13-2.121 7.13-3.661 0-1.668-2.73-1.702-5.921-.074m122.509 1.235c-1.275 1.375-3.313 2.5-4.53 2.5-1.216 0-3.562 1.35-5.212 3-2.197 2.198-3.942 3-6.522 3-2.623 0-4.236.765-6.324 3-1.723 1.845-3.803 3-5.401 3-2.565 0-6.599 3.057-6.599 5 0 1.302 3.697 1.3 4.501-.002.355-.575 2.286-.736 4.525-.378 3.532.565 4.021.372 5.111-2.022 1.332-2.923 3.943-3.926 8.918-3.427 2.959.296 3.371.011 4.128-2.857.922-3.491 3.519-4.857 7.389-3.885 2.348.589 2.886-.058 2.533-3.046-.072-.614.55-1.681 1.382-2.372.832-.691 1.513-1.876 1.513-2.633 0-2.198-2.892-1.598-5.412 1.122m-167.208-.048c-.752 1.959.358 3.548 2.479 3.548 2.303 0 4.117-1.9 3.456-3.622-.702-1.828-5.227-1.771-5.935.074m26.967.049c-1.395 1.03-1.566 1.65-.698 2.531 1.413 1.434 5.351.335 5.351-1.492 0-2.003-2.57-2.576-4.653-1.039m-43.097 5.161c-1.792.724-1.545 3.338.316 3.338 2.384 0 5.565-1.979 4.903-3.05-.618-1-3.113-1.138-5.219-.288m26.5.027c-2.639.69-2.143 3.311.628 3.311 2.482 0 5.085-2.204 3.947-3.342-.704-.704-1.789-.697-4.575.031m-13 1.417c-2.602 1.477-2.174 3.894.691 3.894 3.037 0 4.24-1.754 2.427-3.539-.972-.958-1.875-1.06-3.118-.355m52.388.51c-3.382 2.369-1.291 3.714 3.365 2.164 2.114-.704 4.028-1.842 4.254-2.53.603-1.839-4.845-1.577-7.619.366m-30.388 2.045c-3.996 1.655-4.954 3.339-1.899 3.339 3.103 0 8.262-2.161 7.882-3.301-.565-1.696-1.955-1.705-5.983-.038m13.5-.441c-2.173 1.048-3.164 3.78-1.372 3.78 1.887 0 8.122-3.081 8.122-4.013 0-1.284-3.881-1.15-6.75.233m-36.143 13.664c-2.652 2.039-2.391 6.686.436 7.771 3.255 1.249 5.567-3.598 3.85-8.073-.769-2.005-1.338-1.964-4.286.302m12.882.866c-.006.962-.263 3.325-.571 5.25-.736 4.593 1.552 8.099 3.974 6.09 2.028-1.684 2.066-6.304.082-10.14-1.696-3.279-3.468-3.89-3.485-1.2m14.925 1.5c-.721 2.086-.372 10.109.49 11.288 1.778 2.431 4.596.779 4.596-2.695 0-4.284-4.152-11.299-5.086-8.593m48.156 1.165c-2.072 2.497 1.121 12.585 3.984 12.585 2.799 0 3.267-3.487 1.118-8.344-2.273-5.138-3.506-6.163-5.102-4.241m-32.62 1.835c.376 1.238.821 3.97.988 6.072.407 5.092 2.184 6.864 4.191 4.178 1.694-2.266 1.199-6.587-1.167-10.198-2.028-3.096-4.948-3.134-4.012-.052m17.266-1.6c-.936 1.514.499 10.284 1.868 11.42 2.3 1.909 3.685-.029 3.106-4.346-.527-3.927-3.929-8.765-4.974-7.074M225 355.935c-28.35 8.655-32.033 49.673-5.584 62.185 26.722 12.642 52.319-17.872 38.514-45.913-6.119-12.431-21.163-19.864-32.93-16.272m159.5-.054c-24.793 6.537-32.302 40.92-12.704 58.17 10.448 9.198 27.709 9.265 37.454.148 3.459-3.236 3.438-3.642-.404-8.067-4.627-5.329-5.494-5.606-8.803-2.822-4.142 3.485-9.291 4.231-13.786 1.996-9.918-4.932-10.881-25.932-1.527-33.316 3.573-2.821 11.172-2.37 14.617.866 3.237 3.041 4.923 2.694 9.037-1.859 4.34-4.805 4.43-5.719.866-8.847-6.062-5.321-17.428-8.2-24.75-6.269m47.166.793c-26.024 8.997-28.225 49.631-3.325 61.411 30.688 14.518 56.915-26.945 33.739-53.341-6.943-7.908-20.488-11.502-30.414-8.07m54.892-.182c-11.41 4.065-16.624 15.577-11.555 25.514 2.482 4.865 6.608 7.718 18.177 12.569 9.546 4.004 10.665 5.122 9.222 9.22-1.802 5.118-9.029 4.928-15.255-.401-4.749-4.065-6.063-4.177-10.017-.85-4.496 3.783-4.85 6.09-1.477 9.643 12.934 13.626 39.18 10.289 43.438-5.523 2.974-11.047-1.81-17.978-17.681-25.615-8.783-4.226-10.41-5.372-10.41-7.329 0-5.232 5.924-6.296 12.5-2.246 5.465 3.366 7.731 3.165 11.396-1.009 4.062-4.625 3.923-5.859-1.06-9.469-7.704-5.58-19.014-7.448-27.278-4.504m-318.808.588c-2.215 1.29-2.734 59.536-.55 61.72 1.68 1.68 31.92 1.68 33.6 0 1.624-1.624 1.549-11.265-.097-12.632-.714-.592-4.876-1.21-9.25-1.372l-7.953-.296-.5-23.288c-.413-19.231-.761-23.453-2-24.235-1.989-1.255-11.039-1.185-13.25.103m95.489-.414c-3.692 1.487-3.3 3.883 5.32 32.497 5.076 16.849 9.203 28.844 10.18 29.587 2.421 1.842 17.692 1.676 19.581-.213 1.355-1.355 2.491-4.662 7.306-21.27 2.225-7.674 2.265-7.629 6.835 7.733 4.429 14.885 4.544 15 15.039 15 5.013 0 8.702-.478 9.644-1.25.84-.687 3.884-9.125 6.765-18.75s6.555-21.845 8.165-27.156c4.498-14.843 3.866-16.844-5.317-16.844-7.048 0-7.329.505-13.282 23.917-2.99 11.758-5.639 21.58-5.887 21.828-.559.559-1.468-2.669-7.107-25.245-4.96-19.857-5.352-20.5-12.481-20.5-7.399 0-7.633.412-13.645 24.022-2.998 11.774-5.644 21.6-5.88 21.836-.604.605-.784-.028-6.482-22.858-3.223-12.912-5.72-20.963-6.746-21.75-1.587-1.218-9.482-1.602-12.008-.584M523 358c-1.3 1.3-2 3.333-2 5.809 0 5.841 1.501 7.076 9 7.406l6.5.285.5 22.832c.574 26.208.371 25.668 9.62 25.668 8.493 0 8.38.345 8.38-25.464 0-25.2-.593-23.536 8.382-23.536 6.534 0 7.618-1.091 7.618-7.665 0-7.294-.139-7.335-24.934-7.335-19.733 0-21.193.127-23.066 2m-295 12.706c-5.652 2.066-9.716 11.839-8.557 20.576 3.105 23.409 25.877 19.012 24.339-4.699-.815-12.568-7.217-19.008-15.782-15.877m206.143 1.827c-7.559 6.36-7.163 26.229.637 31.944 8.849 6.484 18.149-1.956 18.198-16.515.049-14.523-10.065-22.808-18.835-15.429" fill-rule="evenodd"/>
<path fill="#0aa254" stroke="#0aa254" d="M543.974 123.25A3037.18 3037.18 0 0 1 528.48 149a3993.374 3993.374 0 0 0-18.008 29.947c-7.981 13.419-9.92 16.074-10.532 14.421-.971-2.627-1.832-18.54-2.448-45.266-.514-22.324-.953-24.465-4.904-23.9-1.948.278-2.14 1.172-2.868 13.298-.774 12.896-.525 59.648.333 62.471.365 1.2-.658 1.422-5.553 1.205-6.774-.3-16.755 1.983-20.5 4.69-1.375.994-4.75 2.081-7.5 2.416-2.75.335-9.5 2.478-15 4.763-6.533 2.714-15.721 5.369-26.5 7.66-18.575 3.946-18.258 3.819-15.307 6.113 1.19.925 5.416 6.857 9.392 13.182 15.149 24.101 15.89 24.646 28.437 20.937 11.535-3.411 11.478-3.405 11.478-1.214 0 2.35-2.897 3.8-12.797 6.407-12.294 3.238-15.044 1.22-29.47-21.63-4.167-6.6-8.945-13.306-10.618-14.902l-3.042-2.902-11.786.685c-6.483.377-14.381 1.046-17.552 1.487-4.161.578-6.387.441-8-.494a91.691 91.691 0 0 0-3.805-2.084c-5.694-2.864-50.005-32.419-52.884-35.274-1.95-1.934-6.883-7.648-10.961-12.699-7.903-9.788-8.949-10.415-18.085-10.842-6.542-.306-11.217 1.401-13.537 4.941-.931 1.421-2.463 2.584-3.404 2.584-5.333 0-7.169 8.677-14.67 69.318-.456 3.687-1.1 5.015-2.742 5.652-2.546.987-29.903 5.041-33.974 5.035-9.362-.016-11.804 14.466-3.133 18.581 4.524 2.147 5.361 4.095 2.591 6.034-3.689 2.585-2.133 7.38 2.396 7.38 1.788 0 2.057.471 1.692 2.965-.387 2.632-.004 3.161 3.423 4.727 2.122.97 5.106 2.766 6.631 3.99 1.525 1.225 5.422 3.193 8.66 4.374 8.602 3.136 9.352 6.457 1.255 5.555-29.649-3.303-33.541-3.095-39.926 2.138-7.429 6.087-4.968 11.764 4.797 11.068 3.79-.271 4.49-.662 4.774-2.668.291-2.059.727-2.277 3.5-1.752 28.65 5.43 44.709 4.706 46.224-2.081 1.525-6.829 1.165-6.536 7.288-5.94 3.11.302 26.4.85 51.755 1.217l46.1.668-2.989 7.868c-2.872 7.558-3.15 7.912-7.04 8.96-2.228.599-5.54 2.58-7.361 4.401-5.848 5.848-4.035 8.419 5.732 8.125 9.477-.286 12.363-2.895 19.698-17.813l5.76-11.714 6-.046c7.63-.057 17.766-1.894 38.5-6.977 30.105-7.379 36.359-9.269 40.447-12.218 4.965-3.581 4.634-3.615 11.293 1.153 3.072 2.2 6.149 4 6.837 4 .688 0 2.924 3.038 4.969 6.75C489.339 336.053 492.178 339 505.5 339c6.949 0 9.783-1.742 7.842-4.82-2.036-3.228-9.796-8.046-13.066-8.114-2.604-.053-3.539-.691-4.861-3.316-.901-1.787-5.012-8.546-9.137-15.02-4.125-6.473-7.925-13.664-8.445-15.98-1.149-5.114-5.247-10.75-7.816-10.75-4.077 0-8.171-10.246-5.258-13.159 1.581-1.581 2.935-.287 3.641 3.48.917 4.883 7.152 9.679 12.586 9.679 3.236 0 3.689.946 1.856 3.881-1.355 2.169-.404 5.466 1.409 4.884.687-.221 2.39-2.487 3.785-5.035 3.576-6.536 3.98-6.658 3.31-1.001-.393 3.316-.199 5.244.575 5.722 2.013 1.244 3.801-1.301 4.474-6.37.56-4.224 1.823-6.081 4.136-6.081.202 0 2.219 3.558 4.481 7.906 5.12 9.842 12.686 20.851 15.988 23.264 4.246 3.102 17.274 3.704 19.246.889 1.388-1.982 1.935-2.103 5.294-1.176 7.302 2.017 9.92-2.576 4.537-7.96-3.584-3.584-8.936-3.916-13.941-.865-3.95 2.409-6.996 2.22-8.534-.527-3.915-6.994-16.592-25.316-20.188-29.178-5.6-6.014-5.84-6.842-3.423-11.835 2.378-4.912 2.523-38.404.176-40.751-1.882-1.882-1.47-3.258 4.665-15.567 7.541-15.128 10.313-20.184 29.169-53.2 20.111-35.213 19.403-33.809 17.939-35.572-2.707-3.262-4.657-1.498-11.966 10.822m-283.833 80a7234.645 7234.645 0 0 0-3.304 18.75c-1.107 6.325-2.591 14.546-3.298 18.269-1.538 8.095-1.975 7.759 7.961 6.127 4.4-.723 11.15-1.803 15-2.401 3.85-.598 7.929-1.279 9.064-1.514 1.63-.336 2.521.515 4.237 4.047 2.155 4.435 2.156 4.472.154 4.472-2.777 0-8.955 2.678-8.955 3.882 0 1.854 3.669 2.146 7.959.632 5.422-1.913 5.192-1.963 4.452.986-.515 2.05-.263 2.5 1.397 2.5 3.879 0 2.905 2.439-1.588 3.98-2.438.836-4.399 1.97-4.358 2.52.131 1.725 5.153 1.72 7.789-.007 1.388-.909 2.648-1.504 2.8-1.323 1.87 2.221 2.359 4.689 1.031 5.199-2.475.949-1.69 3.474 1.186 3.815 2.088.247 3.61 1.84 6.993 7.316 2.379 3.85 6.128 9.109 8.332 11.686 2.204 2.577 4.007 5.524 4.007 6.55 0 2.162 1.824 4.264 3.7 4.264.715 0 1.3-.648 1.3-1.441 0-2.481 1.581-2.595 7.539-.546 10.851 3.734 16.122 1.534 21.945-9.157 4.353-7.994 4.11-13.489-1.046-23.586l-4.062-7.955 3.494-1.908c6.968-3.802 1.957-5.9-5.222-2.186-2.196 1.137-7.818-3.544-7.399-6.159.165-1.023-.648-1.666-2.356-1.865-3.097-.359-17.908-15.169-39.674-39.668-7.067-7.955-18.837-11.788-15.173-4.942 1.457 2.721 6.25 5.784 7.342 4.691.702-.702 7.612 5.601 7.612 6.944 0 .456-1.324.144-2.943-.693-3.769-1.949-4.746-.505-2.375 3.51 2.016 3.413 5.729 4.81 8.381 3.154 1.465-.915 2.293-.478 4.913 2.589 5.463 6.396 21.338 22.38 31.187 31.401 17.548 16.074 20.248 28.601 8.806 40.85-3.446 3.689-6.534 3.468-16.965-1.215-11.232-5.042-15.623-11.192-37.713-52.818-2.495-4.702-3.38-5.545-6.105-5.813-3.634-.358-3.526-.163-2.13-3.834 1.6-4.209-1.392-10.353-5.041-10.353-3.662 0-4.173-.794-2.541-3.95 1.925-3.722-2.145-11.05-6.138-11.05-2.035 0-2.405-.353-1.832-1.75 1.362-3.318 1.007-4.747-1.256-5.069-1.239-.177-2.717-1.189-3.285-2.251-1.74-3.249-2.477-2.223-3.822 5.32m193.299 15.846c-.432.7.029 1.774 1.098 2.556 2.651 1.938 3.647 1.668 3.282-.892-.354-2.475-3.208-3.559-4.38-1.664M302 228.865c0 3.302 3.935 7.28 6.866 6.94 4.275-.495 3.385-3.747-1.773-6.474-5.297-2.801-5.093-2.782-5.093-.466m148.188 1.874c.502 2.606 3.812 2.897 3.812.334 0-1.431-.642-2.073-2.073-2.073s-1.97.539-1.739 1.739m-63.022 3.323c-1.283.515-2.149 1.499-1.922 2.187.617 1.88 7.187 2.142 8.678.345 2.576-3.104-1.508-4.635-6.756-2.532m-16.725 2.371c-2.686 1.982-.702 3.809 3.682 3.39 2.62-.251 3.449-.828 3.697-2.573.384-2.709-4.137-3.21-7.379-.817M354 238.301c-3.931 1.978-3.196 4.199 1.391 4.199 3.495 0 7.075-2.459 5.574-3.828-1.416-1.29-4.78-1.47-6.965-.371m-17.964 3.155c-1.67 2.013-.447 3.544 2.832 3.544 3.337 0 6.705-2.264 5.726-3.848-1.016-1.643-7.122-1.426-8.558.304m50.464.107c-2.2.774-4.113 1.414-4.25 1.422-.137.008-.25.465-.25 1.015 0 1.517 6.353 1.195 8.559-.433 3.205-2.365.61-3.647-4.059-2.004m-75.5 1.291c0 5.281 9.095 9.485 9.802 4.531.236-1.653-.692-2.583-4.239-4.25-5.513-2.592-5.563-2.594-5.563-.281m58.005 2.04c-3.698 1.029-3.924 4.106-.301 4.106 2.959 0 7.296-2.412 7.296-4.057 0-1.064-3.264-1.088-6.995-.049m-17.839 2.168c-2.802 1.123-2.384 3.31.72 3.765 2.599.381 7.452-2.471 6.587-3.871-.733-1.185-4.21-1.135-7.307.106m34.084 1.911c-4.183 1.899-5.812 5.027-2.618 5.027 2.438 0 8.368-3.955 8.368-5.582 0-1.831-.627-1.771-5.75.555m-16.75 3.471c-4.53 1.399-6.142 4.558-2.323 4.552 2.675-.004 8.823-3.475 8.823-4.981 0-1.249-1.351-1.16-6.5.429m-112.396 1.47c-1.69 1.07-.743 4.086 1.283 4.086 2.788 0 4.613-1.229 4.613-3.107 0-2.045-3.337-2.599-5.896-.979m14.008 1.351c-3.492 1.806-3.11 3.193.974 3.536 4.175.35 7.421-2.235 4.85-3.862-1.908-1.207-2.976-1.147-5.824.326m-38.037 1.144c-1.427 1.72-1.108 4.748.559 5.303 1.621.539 4.524-2.655 4.154-4.572-.416-2.163-3.17-2.59-4.713-.731M242 257c0 2.29 3.788 2.812 5.8.8 2.012-2.012 1.364-2.8-2.3-2.8-2.833 0-3.5.381-3.5 2m78-.577c0 2.233 4.975 7.577 7.054 7.577 2.452 0 4.38-3.42 2.675-4.745-4.333-3.367-9.729-4.938-9.729-2.832m-99.194 3.104c-.815 1.788-.84 2.839-.086 3.593 1.534 1.534 5.616-.801 4.858-2.778-.318-.828-.578-1.919-.578-2.424 0-1.972-3.105-.781-4.194 1.609m26.861 1.14c-1.212 1.212-.693 4.109.842 4.698 2.487.955 6.491-1.106 6.491-3.34 0-2.026-5.624-3.068-7.333-1.358m-41.199 3.434c-.367 1.155-.224 2.543.317 3.084 1.571 1.571 5.657.515 6.053-1.565.697-3.656-5.242-5.072-6.37-1.519m28.367-1.428c-1.849.49-3.149 3.009-2.279 4.417.935 1.514 6.455 1.045 7.087-.603.563-1.466-1.245-4.606-2.515-4.371-.346.064-1.377.314-2.293.557m42.415.547c-3.775 1.821-2.876 4.143 1.339 3.459 5.958-.967 8.954-4.742 3.661-4.611-1.512.037-3.762.556-5 1.152M400 264.5c-1.292 1.375-3.311 2.5-4.487 2.5-1.176 0-3.446 1.364-5.043 3.032-2.294 2.393-3.47 2.907-5.587 2.442-2.098-.461-3.503.131-6.447 2.717-2.167 1.902-4.587 3.166-5.701 2.977-2.1-.355-6.735 3.394-6.735 5.447 0 1.913 1.913 2.702 3.452 1.425.75-.622 3.287-1.018 5.637-.88 2.851.168 4.421-.191 4.717-1.079 1.221-3.661 4.32-5.289 8.793-4.618 3.868.58 4.401.433 4.401-1.211 0-3.433 2.461-5.541 6.595-5.65 3.46-.09 3.94-.407 4.214-2.779.171-1.472.958-3.215 1.75-3.872 2.117-1.757 1.759-2.951-.885-2.951-1.279 0-3.382 1.125-4.674 2.5m-140.462-.152c-3.318 2.426.418 4.757 4.88 3.045 2.916-1.119 1.196-4.393-2.309-4.393-.4 0-1.556.607-2.571 1.348m-42.871 5.319c-1.836 1.836-.519 3.445 2.575 3.146 4.387-.424 5.275-3.813.998-3.813-1.599 0-3.207.3-3.573.667m25.739.718c-.321.836-.316 1.951.01 2.479.869 1.406 6.084-.253 6.084-1.936 0-2.013-5.347-2.49-6.094-.543m40.795.634c-3.711 2.262-3.436 3.981.636 3.981 3.212 0 7.163-2.513 7.163-4.557 0-2.075-3.926-1.785-7.799.576m-53.534-.352c-.367.366-.667 1.491-.667 2.5 0 2.046 5.35 2.693 6.527.789 1.44-2.329-3.851-5.299-5.86-3.289m37.393 2.071c-3.866 1.98-5.194 4.302-2.393 4.186 3.415-.142 8.833-2.595 8.833-4 0-2.09-2.578-2.164-6.44-.186m-14.595.214c-1.119.453-2.694 1.62-3.5 2.593-1.374 1.659-1.17 1.736 3.284 1.235 4.878-.549 8.151-2.323 7.181-3.893-.67-1.084-4.212-1.051-6.965.065m-21.728 12.85c-4.2 2.549-3.548 9.198.902 9.198 2.982 0 4.428-3.279 3.253-7.377-1.086-3.786-.987-3.743-4.155-1.821m11.647 6.9c.112 6.536.212 6.798 2.592 6.798 3.75 0 4.849-4.141 2.42-9.117-3.217-6.589-5.149-5.695-5.012 2.319M257 294.933c0 5.212.264 6.016 2.174 6.622 4.447 1.412 6.089-3.972 2.837-9.305-3.207-5.261-5.011-4.295-5.011 2.683m16.562-5.033c-.831 1.344.627 10.977 1.933 12.762 1.832 2.506 4.505.965 4.505-2.597 0-5.355-4.763-12.876-6.438-10.165m31.958.067c-1.096 1.774.702 10.924 2.458 12.513 4.688 4.243 6.695-2.654 2.772-9.524-2.206-3.864-4.041-4.912-5.23-2.989M289.5 291c-.34.55-.27 1.563.156 2.25.426.688 1.015 3.05 1.309 5.25.462 3.457.874 4 3.035 4 2.215 0 2.489-.404 2.404-3.551-.158-5.803-4.874-11.233-6.904-7.949m-63.353 65.075c-23.872 4.694-32.443 38.404-14.308 56.267 10.287 10.132 25.197 11.21 36.982 2.673 18.107-13.117 15.869-45.895-3.821-55.977-2.817-1.442-13.484-4.373-14.299-3.928-.111.06-2.16.494-4.554.965m159.15-.047c-24.412 4.946-32.666 39.553-13.592 56.986 11.175 10.213 27.781 10.409 37.744.446 3.157-3.157 3.275-2.489-1.338-7.585-4.223-4.666-3.678-4.649-11.111-.35-3.214 1.858-8.338 1.869-11.905.024-8.324-4.304-9.573-25.225-1.96-32.837 3.85-3.851 13.133-3.687 17.384.305l2.545 2.392 4.673-4.672 4.672-4.673-2.399-2.553c-5.386-5.734-16.595-9.127-24.713-7.483m50.97.066c-15.14 2.847-24.767 15.241-24.767 31.885 0 39.03 49.56 45.157 58.476 7.229 4.959-21.098-13.794-42.858-33.709-39.114m53.072-.081c-10.975 2.247-17.91 12.358-15.278 22.274 1.224 4.613 4.644 9.013 6.239 8.028.579-.358.7-.124.284.55-.695 1.123 3.172 3.208 16.68 8.994 7.109 3.046 8.214 8.599 2.251 11.316-3.571 1.627-8.725.193-13.261-3.69-4.966-4.25-4.392-4.258-9.251.131-4.743 4.285-4.875 5.192-1.253 8.587 4.987 4.673 11.168 7.094 19.369 7.584 15.377.918 23.881-5.599 23.881-18.303 0-9.397-4.152-13.969-18.661-20.544-9.341-4.233-10.717-5.685-9.222-9.727 1.328-3.59 6.186-3.41 13.584.504l5.201 2.751 3.135-2.984c4.888-4.652 5.333-6.051 2.723-8.562-5.648-5.432-17.937-8.646-26.421-6.909M167.2 358.2c-1.713 1.713-1.713 57.887 0 59.6 1.68 1.68 31.92 1.68 33.6 0 1.611-1.611 1.538-10.274-.097-11.632-.714-.592-4.876-1.21-9.25-1.372l-7.953-.296-.27-22.421c-.174-14.485-.66-22.892-1.372-23.75-1.409-1.698-12.987-1.8-14.658-.129m95 0c-.66.66-1.2 1.925-1.2 2.812 0 2.432 16.049 55.3 17.224 56.738.683.836 4.083 1.25 10.276 1.25 11.12 0 10.122 1.047 14.975-15.716 3.834-13.248 4.73-14.679 5.97-9.543 1.528 6.325 6.91 22.852 7.818 24.009.661.841 4.041 1.25 10.324 1.25 11.168 0 9.58 1.991 16.376-20.544 2.812-9.326 6.533-21.605 8.268-27.288 3.875-12.69 3.574-13.545-4.926-13.962-7.827-.383-7.339-1.223-13.607 23.381-2.93 11.502-5.72 21.138-6.201 21.413-.48.275-3.29-9.161-6.244-20.969-2.954-11.808-5.85-22.045-6.435-22.75-.642-.774-3.378-1.281-6.917-1.281-7.237 0-7.85.785-10.935 14-2.824 12.099-7.949 31.317-8.498 31.866-.608.607-.862-.282-6.56-22.866-2.844-11.275-5.617-21.062-6.162-21.75-1.279-1.613-11.943-1.653-13.546-.05m261 0c-1.605 1.605-1.539 10.274.088 11.624.709.588 4.196 1.206 7.75 1.373l6.462.303.27 22.421c.174 14.485.66 22.892 1.372 23.75 1.457 1.756 13.422 1.821 14.549.079.445-.687 1.034-11.375 1.309-23.75l.5-22.5 6.788-.5c7.5-.552 8.672-1.471 8.697-6.816.034-7.329.524-7.184-24.32-7.184-15.984 0-22.604.339-23.465 1.2m-297.145 13.067c-8.657 4.381-9.554 25.576-1.386 32.747 8.937 7.847 19.256.023 19.309-14.639.056-15.506-7.66-23.302-17.923-18.108m206.962 1.562c-9.677 9.678-4.54 34.171 7.168 34.171 11.121 0 17.714-18.54 10.897-30.647-3.987-7.083-12.789-8.8-18.065-3.524" fill-rule="evenodd"/>
<path fill="#ea1d25" stroke="#ea1d25" d="M473.25 211.54c-1.788 1.872-3.25 4.091-3.25 4.932 0 .84-.45 1.528-1 1.528-1.85 0-1.096 9.631 1.072 13.693 3.758 7.041 19.928 10.52 19.928 4.288 0-1.09.357-1.981.793-1.981 1.491 0 3.299-8.959 2.216-10.983-.555-1.037-1.009-2.821-1.009-3.965 0-9.684-12.06-14.516-18.75-7.512" fill-rule="evenodd"/>
</svg>