<!DOCTYPE svg PUBLIC "-//W3C//DTD SVG 1.1//EN" "http://www.w3.org/Graphics/SVG/1.1/DTD/svg11.dtd">
<svg xmlns="http://www.w3.org/2000/svg" viewBox="0 0 700 699">
<path fill="#e1e3e4" stroke="#e1e3e4" d="M304 30c0 3.333.444 6 1 6 .55 0 1-1.575 1-3.5 0-2.444.452-3.5 1.5-3.5 1.054 0 1.5 1.065 1.5 3.583 0 2.416.406 3.448 1.246 3.168 1.841-.613 1.675-7.731-.204-8.692-.848-.434-2.104-.587-2.792-.341-.687.247-1.25-.264-1.25-1.135S305.55 24 305 24c-.556 0-1 2.667-1 6m45.624-4.464c-.771 2.009.325 9.315 1.507 10.045 1.766 1.092 2.837-.659 1.608-2.627-.944-1.511-.952-2.384-.036-3.85.968-1.55.852-2.197-.636-3.543-1.674-1.516-1.87-1.517-2.443-.025M358 30.083c0 7.996 2.268 7.658 2.662-.397.219-4.462-.038-5.686-1.192-5.686-1.132 0-1.47 1.397-1.47 6.083M314.2 27.2c-2.01 2.01-1.499 7.57.762 8.288C318.103 36.485 321 34.332 321 31c0-4.046-4.205-6.395-6.8-3.8m8.362-.247c-.697 1.249.061 7.585.962 8.047.537.275 1.117-.962 1.289-2.75.407-4.222 3.187-4.492 3.187-.309 0 1.618.45 3.219 1 3.559.611.378 1-1.156 1-3.941 0-2.507-.337-4.617-.75-4.688-2.507-.431-6.429-.383-6.688.082m10.188.127c-4.549 2.65-.298 10.219 4.668 8.313 2.437-.935 1.879-2.215-1.168-2.677l-2.75-.416 2.75-.15c3.313-.181 3.842-3.495.816-5.115-2.302-1.232-2.12-1.234-4.316.045m8.812.501c-.869.869-1.25 2.106-.846 2.75.404.643.611 1.919.46 2.836-.311 1.892 2.708 3.198 5.191 2.246 1.11-.426 1.588-1.657 1.464-3.773-.319-5.418-3.105-7.223-6.269-4.059m22.198-.331c-3.083 2.376-2.621 7.496.753 8.343 4.929 1.237 8.006-6.174 3.553-8.558-2.412-1.29-2.348-1.294-4.306.215m8.892-.075c-1.868 1.045-2.258 6.332-.545 7.391.772.477.696.949-.25 1.559-1.923 1.24.813 2.979 4.143 2.634 2.329-.241 2.52-.677 2.794-6.384.314-6.512-1.322-7.897-6.142-5.2m8.936.728c-2.015 2.226-2.021 4.521-.017 6.526 3.877 3.876 9.58-1.491 6.59-6.202-1.302-2.052-4.852-2.226-6.573-.324m10.195-1.22c-3.788.995-1.626 9.265 2.432 9.302 3.747.033 4.162-3.912.585-5.562-2.968-1.369-3.023-1.465-.55-.953 1.512.312 2.75.2 2.75-.251 0-.982-2.172-3.267-2.95-3.103-.302.064-1.323.319-2.267.567m-76.61 3.976c.195 1.013 1.023 1.841 1.841 1.841 2.143 0 1.834-2.906-.355-3.327-1.336-.257-1.743.15-1.486 1.486m19.64-.976c.721.289 1.584.253 1.916-.079.332-.332-.258-.568-1.312-.525-1.165.048-1.402.285-.604.604m9 0c.721.289 1.584.253 1.916-.079.332-.332-.258-.568-1.312-.525-1.165.048-1.402.285-.604.604M364 31c0 1.506.522 2.046 1.75 1.81.962-.186 1.75-1 1.75-1.81s-.788-1.624-1.75-1.81c-1.228-.236-1.75.304-1.75 1.81m9.173-.341c.195 1.013 1.023 1.841 1.841 1.841 2.143 0 1.834-2.906-.355-3.327-1.336-.257-1.743.15-1.486 1.486M383 31c0 1.1.6 2 1.333 2 1.881 0 2.619-.962 1.991-2.598-.816-2.127-3.324-1.676-3.324.598M31 349.5V669l128.25-.246 128.25-.246-127.75-.258L32 667.992V31.007l131.25-.257 131.25-.257-131.75-.247L31 30v319.5M537 30.994l131.5.506v636l-128.5.506-128.5.505 129.25.245L670 669V30l-132.25.244-132.25.245 131.5.505m-193.187 1.689c.721.289 1.584.253 1.916-.079.332-.332-.258-.568-1.312-.525-1.165.048-1.402.285-.604.604m49 0c.721.289 1.584.253 1.916-.079.332-.332-.258-.568-1.312-.525-1.165.048-1.402.285-.604.604M374.5 36c-.34.55-.168 1 .382 1s1.278-.45 1.618-1c.34-.55.168-1-.382-1s-1.278.45-1.618 1M511 135.458c0 4.121-14.848 30.181-23.313 40.92-2.946 3.736-2.989 3.928-1.163 5.263 2.703 1.976 3.375 1.522 9.187-6.209 8.957-11.914 22.899-38.155 21.183-39.871-1.55-1.55-5.894-1.626-5.894-.103m18 4.527c0 5.175-24.046 34.91-31.305 38.711-1.734.908-1.73 1.039.077 3.271 2.223 2.745 3.042 2.424 9.645-3.774 2.647-2.486 5.075-4.007 5.74-3.596.744.46.879.27.379-.538-.491-.796.855-2.942 3.705-5.905 2.463-2.56 5.974-6.904 7.803-9.654 1.828-2.75 3.579-5.229 3.89-5.508.903-.812 6.217-11.179 5.876-11.464-2.37-1.971-5.81-2.884-5.81-1.543m-40.654 14.765c-13.779 31.156-20.675 40.114-36.866 47.887-9.593 4.606-13.313 8.217-25.986 25.223-6.084 8.165-13.121 15.613-16.214 17.162-1.529.765-3.478 1.962-4.331 2.659-5.327 4.356-23.403 9.939-36.687 11.332-11.883 1.247-15.872 2.544-22.967 7.467-11.272 7.82-18.86 29.4-12.555 35.705l2.24 2.24 3.76-3.627c6.844-6.602 11.46-8.16 23.412-7.899l4.652.101.715 6.166c.394 3.392 1.082 7.441 1.528 8.999.977 3.405-2.41 8.036-14.437 19.74-4.186 4.073-7.61 7.828-7.61 8.344 0 1.487-10.147-.078-18.145-2.798-9.106-3.098-11.166-1.811-3.818 2.385l5.265 3.007-6.789 3.079c-3.734 1.693-7.177 3.078-7.651 3.078-.474 0-.862.684-.862 1.519 0 1.661.137 1.644 12.482-1.57 8.109-2.111 7.348-2.428 8.915 3.716 1.559 6.11 3.014 5.831 3.405-.652l.303-5.013h4.447c2.447 0 4.448.438 4.448.974 0 1.768 5.595 3.909 10.841 4.148 3.49.159 5.159.663 5.159 1.557 0 1.453-.82 1.565-12.5 1.717-8.492.11-10.58 1.388-5.235 3.203l3.235 1.098-6.373 3.228c-8.978 4.547-6.957 6.207 3.342 2.744 8.359-2.81 7.899-3.025 9.261 4.331 1.035 5.588 2.682 5.462 3.034-.232.473-7.658.996-8.768 4.133-8.768 1.572 0 3.462.728 4.2 1.617 4.272 5.148 36.631-5.841 45.161-15.335 2.774-3.088-1.054-6.406-4.487-3.889-9.412 6.9-14.496 9.584-21.996 11.614-18.069 4.889-19.754 2.755-8.787-11.129 12.039-15.241 12.872-17.338 8.262-20.795-1.512-1.133-3.294-2.516-3.958-3.072-1.733-1.45-2.755-1.261-4.679.864-1.613 1.783-1.543 2.006 1.41 4.491 3.593 3.023 4.013 1.966-5.926 14.94-6.269 8.184-7.63 9.486-8.226 7.874-.505-1.366-1.399-1.802-3.046-1.487-2.935.561-7.699-1.201-8.435-3.12-.357-.93 2.637-4.663 8.275-10.315 4.859-4.872 10.082-10.673 11.606-12.892l2.771-4.034-1.521-7.232c-.836-3.977-1.521-9.409-1.521-12.072v-4.84l-5.25-.73c-12.936-1.798-21.361-.28-28.446 5.124-4.327 3.3-4.405 1.441-.304-7.238 1.65-3.492 3-6.745 3-7.228 0-1.759 6.226-6.902 11.455-9.462 3.795-1.859 8.231-2.934 15.202-3.686 28.221-3.042 45.346-12.206 60.677-32.468 8.408-11.112 17.222-20.951 19.907-22.222 1.243-.587 4.896-2.298 8.12-3.801 3.223-1.503 7.321-4.015 9.106-5.582 1.785-1.567 3.535-2.635 3.889-2.372.354.262.441.199.193-.14-.247-.34 1.799-3.377 4.548-6.75 2.95-3.62 7.883-12.075 12.038-20.633 3.871-7.975 7.449-15.281 7.952-16.236 1.356-2.58 1.111-4.474-.669-5.157-2.931-1.125-3.521-.625-6.072 5.143m47.744 4.34c-12.506 13.75-32.073 28.512-44.376 33.478-4.294 1.734-4.722 2.189-4.168 4.43.879 3.562.78 3.555 7.679.571 11.433-4.944 25.538-15.222 39.025-28.436 13.443-13.17 13.77-13.638 11-15.741-2.449-1.859-2.079-2.089-9.16 5.698m-190.984-.84c-2.706 13.717-4.432 45.09-2.582 46.94.287.288 1.667.305 3.065.038 2.482-.475 2.527-.631 1.894-6.607-.606-5.728 1.482-30.4 3.412-40.319.639-3.281.503-4.319-.621-4.75-3.267-1.254-4.152-.45-5.168 4.698m25.166 12.5c-4.555 8.585-8.006 18.652-8.469 24.711-.428 5.601 4.091 6.027 5.422.511 1.905-7.897 4.123-13.918 8.01-21.737 3.985-8.017 4.05-8.308 2.186-9.718-2.786-2.107-2.668-2.21-7.149 6.233m-14.702.5c-4.453 18.375-4.474 30.75-.051 30.75 2.383 0 2.481-.253 2.481-6.403 0-5.476 2.117-18.59 4.473-27.711.635-2.455-.934-3.788-4.559-3.872-.323-.008-1.377 3.248-2.344 7.236m186.93 2.291c-11.348 10.419-31.468 22.402-37.691 22.447-2.276.016-2.996 1.419-2.251 4.386l.619 2.466 5.16-1.533c12.061-3.582 26.123-12.206 37.717-23.133 7.206-6.792 7.382-7.068 5.446-8.564-2.692-2.081-2.236-2.28-9 3.931m-209.109 5.151c-1.692 16.706-1.051 32.311 1.552 37.808 1.303 2.75 2.287 5.371 2.188 5.824-.099.454.228.572.727.264.499-.308 1.972.254 3.274 1.251 1.303.996 4.902 3.242 7.999 4.991 3.497 1.975 6.058 4.221 6.758 5.925 1.468 3.574 4.071 15.972 4.094 19.495.015 2.385.415 2.75 3.017 2.75 3.539 0 3.575-.258 1.573-11.5-2.747-15.425-2.963-15.74-17.001-24.814-9.463-6.117-10.356-10.356-8.572-40.686l.5-8.5-2.659-.308c-2.622-.303-2.671-.197-3.45 7.5m49.822.208c-4.141 4.266-8.408 12.029-10.547 19.183l-1.37 4.583 3.678.982c3.463.924 3.654.855 3.263-1.191-.609-3.182 3.586-12.161 8.498-18.193 3.772-4.631 4.135-5.499 3.034-7.262-1.704-2.728-2.208-2.583-6.556 1.898m3.836 16.052c-7.906 7.797-8.106 8.245-4.419 9.925 2.304 1.05 2.812.937 4.109-.915 1.488-2.124 5.627-6.071 10.252-9.776 2.458-1.968 2.466-2.024.595-4.091-2.641-2.918-2.664-2.908-10.537 4.857m151.285-.513c.516 2.915-28.311 12.057-41.584 13.188l-7.75.661v5.947l7.75-.705c15.346-1.397 29.156-5.376 42.5-12.246 6.672-3.435 7.935-5.059 5.5-7.073-1.524-1.261-6.648-1.079-6.416.228m-142.513 8.589c-6.818 3.52-7.647 4.627-5.192 6.928 3.072 2.879 14.379-3.433 13.087-7.307-1.075-3.225-.897-3.234-7.895.379m131.297 10.603c-6.999 2.635-21.906 5.359-29.368 5.365-4.61.004-4.75.092-4.75 3.004 0 2.866.19 2.999 4.25 2.98 13.859-.064 40.75-6.93 40.75-10.403 0-3.901-2.466-4.115-10.882-.946m-127.438 1.078c-2.036.52-1.611 10.137.765 17.291 1.438 4.333 12.009 10.474 13.627 7.917 1.863-2.943.924-4.647-3.49-6.333l-4.419-1.687-1.135-7.199a934.277 934.277 0 0 1-1.332-8.615c-.225-1.628-1.42-2.037-4.016-1.374m110.82 15.35c-8.506 1.885-25.075 2.42-32.202 1.041-4.083-.791-4.22-.731-4.845 2.115-.936 4.26-.817 4.289 17.38 4.245 15.312-.037 26.187-1.5 30.37-4.085.81-.501-1.192-5.455-2.114-5.232-.324.078-4.189.94-8.589 1.916m-45.94 12.559c-.833 3.319-1.282 3.013 8.021 5.465 16.264 4.286 48.452 2.941 48.404-2.024-.041-4.121-1.404-4.495-9.473-2.594-9.891 2.329-27.568 1.69-38.249-1.383-3.981-1.145-7.42-2.082-7.642-2.082-.222 0-.7 1.178-1.061 2.618m3.548 13.502c-.936 2.684-.797 3.048 1.497 3.92 5.026 1.911 17.03 3.958 23.211 3.959 6.222.001 6.312-.038 6-2.606-.295-2.431-.722-2.635-6.316-3.017-7.393-.505-15.957-2.161-20.18-3.904-3.086-1.273-3.211-1.224-4.212 1.648m-16.677 2.957c-1.848 2.041-1.838 2.109.595 4.026 8.366 6.594 27.192 13.004 38.935 13.258 6.282.135 6.467.067 6.679-2.472.212-2.529.007-2.628-6.535-3.177-12.095-1.014-29.291-7.025-35.184-12.299-2.046-1.831-2.261-1.799-4.49.664m-218.654 9.94c-1.498.438-3.921 1.738-5.385 2.889-1.464 1.152-3.229 2.094-3.923 2.094-1.905 0-7.469 6.784-7.469 9.107 0 2.032-.008 2.032-2.685-.074-1.476-1.161-3.48-3.419-4.452-5.018-2.358-3.877-5.893-6.066-10.244-6.345-1.968-.126-4.127-.778-4.798-1.449-.672-.672-3.374-1.221-6.005-1.221-9.427 0-14.384 8.937-9.197 16.581 1.296 1.909 2.637 4.591 2.98 5.959.881 3.509 5.566 8.218 8.999 9.044 1.596.384 3.656 1.48 4.578 2.435 1.58 1.639 1.425 1.766-2.736 2.235-5.273.594-9.187 2.951-10.46 6.298-.808 2.125-1.874 2.826-4.016 2.638-.565-.05-.793 1.853-.976 8.142-.206 7.084 4.937 11.451 12.012 10.201 1.925-.341 4.85-.597 6.5-.569 3.434.056 10.5-2.792 10.5-4.233 0-.53.88-.734 1.955-.453 1.321.345 3.106-.606 5.5-2.932 5.368-5.213 4.408-8.743-1.182-4.346-1.399 1.1-3.805 2-5.349 2-1.543 0-3.086.453-3.428 1.007-1.53 2.476-6.353 4.015-8.918 2.847-1.941-.885-2.867-.859-4.035.111-2.199 1.824-6.443.428-7.55-2.484-.979-2.573-.401-5.481 1.088-5.481.477 0 1.559-1.337 2.404-2.97 1.828-3.536 4.11-4.906 8.654-5.196 1.848-.118 4.434-1.029 5.746-2.024 1.312-.996 3.224-1.81 4.25-1.81 1.026 0 1.865-.675 1.865-1.5s-.852-1.5-1.894-1.5c-1.042 0-3.345-1.355-5.117-3.01-1.772-1.656-4.182-3.259-5.356-3.563-3.227-.835-6.893-4.198-6.055-5.554.452-.731.302-.917-.394-.487-.69.427-1.394-.384-1.819-2.095-.382-1.535-1.587-4.005-2.679-5.489-2.916-3.962-.153-8.335 4.653-7.365 1.738.351 5.374 1.001 8.079 1.443 4.706.77 9.518 4.59 9.599 7.62.014.55 1.479 1.675 3.255 2.5 2.193 1.019 3.586 2.608 4.345 4.956 1.094 3.384 3.383 5.406 3.383 2.987 0-1.034 2.071-6.014 4.946-11.893 1.318-2.697 5.767-5.24 9.343-5.341 3.097-.088 3.341-.265 1.884-1.373-1.448-1.102-1.167-1.277 2.098-1.304 4.537-.038 7.074 3.584 4.923 7.029-.657 1.051-1.194 3.483-1.194 5.402 0 2.657-.622 3.898-2.602 5.196-1.432.938-3.665 3.388-4.963 5.444s-3.277 4.029-4.397 4.385c-2.772.88-2.612 3.513.212 3.508 2.74-.004 8.601-3.443 9.395-5.513.318-.828 2.103-3.031 3.966-4.894 3.138-3.138 3.907-5.015 3.447-8.413-.099-.728.233-1.853.737-2.5 5.594-7.178-2.949-18.309-12.018-15.659m218.841 3.443c-1.587 2.422-1.545 2.498 2.779 5.032 10.317 6.047 24.044 10.002 25.69 7.402 1.683-2.659.892-3.822-3.337-4.904-6.212-1.588-14.71-5.024-18.98-7.675-4.559-2.829-4.197-2.838-6.152.145m-103.048 3.894-3.93 3.325 3.112 1.085c4.135 1.441 7.135.533 7.867-2.381 1.496-5.963-1.41-6.799-7.049-2.029m87.158-1.897c-2.574 1.882-2.165 2.991 2.659 7.208 8.449 7.386 21.609 13.889 31.863 15.746 3.617.655 3.75.578 3.75-2.177 0-2.611-.45-2.969-5.25-4.177-9.798-2.464-17.512-6.601-27.435-14.71-3.282-2.683-4.117-2.965-5.587-1.89M192 283.821c0 .869 3.298 4.037 10.412 10.001 2.599 2.18 5.588 2.36 5.588.337 0-.777-7.539-7.936-10.5-9.972-1.642-1.128-5.5-1.385-5.5-.366m36.314 2.429c-5.723 6.044-8.568 11.508-6.573 12.625 1.425.798 2.518-.249 6.484-6.208 6.396-9.61 6.445-13.128.089-6.417M433.2 289.2c-1.901 1.901-1.42 3.091 2.568 6.347 6.21 5.071 9.873 7.404 15.603 9.938l5.467 2.418 1.045-2.997c.879-2.521.772-3.084-.669-3.545-5.513-1.764-8.134-3.231-14.345-8.03-7.452-5.758-7.865-5.935-9.669-4.131m-11.271 6.861c-2.01 1.744-1.993 1.793 2.273 6.62 4.912 5.557 12.504 12.319 13.831 12.319.493 0 1.378-.9 1.967-1.999.938-1.753.015-3.028-7.488-10.348-8.342-8.138-8.608-8.304-10.583-6.592m-206.661 8.06c-1.03 1.04 5.283 15.175 8.407 18.823.209.245 1.332-.507 2.495-1.669l2.114-2.115-2.601-4.33c-4.528-7.536-9.001-12.135-10.415-10.709m206.283 5.218c-2.167 1.585-1.737 2.549 3.949 8.861 11.466 12.728 33.503 23.922 51.778 26.301 19.84 2.583 22.408 2.321 21.545-2.193-.291-1.523-1.763-1.912-9.334-2.469-16.861-1.241-29.973-4.988-42.809-12.234-7.525-4.247-16.939-12.376-16.033-13.843.364-.589.24-.81-.276-.491-.516.319-1.986-.737-3.267-2.346-2.649-3.326-3.025-3.434-5.553-1.586M204.5 311.938c-6.192 1.514-13.654 6.242-12.179 7.716 1.281 1.281 17.679-5.083 17.679-6.86 0-1.907-.735-2.021-5.5-.856m55 2.952c-2.769 1.59-6.462 4.911-8.277 7.441l-3.276 4.57-3.669-2.165c-14.364-8.474-27.935 6.096-20.971 22.514 2.932 6.912 7.873 4.407 5.186-2.629-3.512-9.195-.183-16.554 7.507-16.595 9.601-.051 18.499 13.366 15.18 22.888-1.606 4.605 2.497 7.551 4.689 3.367 1.414-2.7 1.431-2.703 2.243-.506 1.491 4.029 5.801 1.005 5.183-3.635-1.042-7.812 7.607-12.546 17.533-9.598 5.452 1.619 10.702 5.4 11.651 8.393.806 2.539 6.477 3.43 5.998.943-.761-3.949-7.439-12.397-10.252-12.97-4.162-.847-5.246-1.966-4.498-4.642 4.364-15.614-9.713-25.711-24.227-17.376m3.642 4.269c-5.103 2.525-10.525 9.369-9.775 12.337.279 1.102 1.382 4.414 2.451 7.359l1.945 5.354 1.81-3.064c2.027-3.43 9.476-7.145 14.327-7.145 6.592 0 7.403-11.013 1.127-15.308-3.304-2.262-6.637-2.131-11.885.467m156.793 7.963c-.926 1.73-.795 2.453.715 3.919 3.691 3.585 27.127 15.124 38.579 18.995 12.949 4.376 14.701 4.666 14.921 2.464a353.4 353.4 0 0 0 .25-2.593c.055-.601-5.09-2.796-11.434-4.878-12.086-3.967-20.758-7.984-33.498-15.516-8.917-5.272-8.101-5.067-9.533-2.391m-3.953 6.904-2.482 1.884 3.5 3.066c3.931 3.443 12.925 9 14.589 9.015.6.005 1.596-1.101 2.214-2.457 1.063-2.335.846-2.603-4.09-5.04-2.867-1.415-5.894-3.343-6.727-4.284-3.428-3.873-4.386-4.172-7.004-2.184M209 336.005c-7.754 1.327-12.579 2.91-16.099 5.284l-3.401 2.293.076 8.228c.062 6.748.458 8.745 2.204 11.106 1.608 2.175 1.987 3.745 1.552 6.427-.846 5.213.176 7.975 5.263 14.22 2.512 3.084 4.418 5.733 4.236 5.887-.182.153-4.831 2.205-10.331 4.56-11.859 5.076-14.438 7.257-15.52 13.119-1.385 7.509-.649 11.322 2.255 11.675 2.869.348 3.729-1.605 3.751-8.515.01-2.956.63-4.785 2.08-6.136 1.65-1.537 23.731-11.114 31.094-13.486 2.284-.736 8.908 1.413 8.148 2.644-.341.551-.116.689.5.307 1.18-.729 7.183 2.726 10.9 6.274 2.571 2.454 3.16 2.524 5.612.664 1.715-1.299 1.618-1.564-1.666-4.552-8.576-7.805-14.493-10.504-23.024-10.504h-7.871l-4.384-4.978c-6.898-7.832-7.204-10.646-.82-7.552 6.07 2.942 11.948 3.783 11.106 1.59-.363-.948-.661-2.057-.661-2.464 0-.407-2.181-1.725-4.847-2.93-6.18-2.793-13.153-9.172-13.153-12.033v-2.174l3.866 1.972c7.066 3.605 12.171 4.393 17.177 2.65 6.229-2.169 9.809-1.971 18.467 1.019 7.54 2.603 10.49 2.636 10.49.117 0-2.512-15.682-8.717-22.031-8.717-2.045 0-5.634.676-7.977 1.503-4.964 1.751-9.63.89-15.084-2.786-6.77-4.563-3.723-7.731 9.483-9.857 5.861-.944 7.561-1.976 7.594-4.61.016-1.365-2.098-1.423-8.985-.245m85 2.495c2.225 2.368 2.92 2.5 13.174 2.5 5.954 0 10.826-.255 10.826-.566 0-3.807-2.008-4.434-14.209-4.434h-12.14l2.349 2.5m-12.991 19.107c-6.304 1.694-7.528 2.599-6.64 4.913.528 1.375 1.354 1.513 4.883.818 2.336-.461 10.924-.685 19.084-.498 13.356.306 15.426.119 20.75-1.872 9.549-3.571 5.999-6.195-5.336-3.944-4.821.958-8.173.982-14.659.109-10.322-1.391-11.231-1.367-18.082.474m-22.132 2.892c-20.587 10.57-15.457 25.122 6.216 17.633 13.725-4.743 17.876-8.323 10.847-9.354-1.608-.236-2.694-.199-2.413.083.984.983-10.934 5.326-16.072 5.856-10.071 1.039-8.059-3.834 4.062-9.841 8.093-4.01 8.415-4.294 6.833-6.042-2.077-2.295-1.595-2.38-9.473 1.665m65.428 4.777C318.807 372.543 311.126 380 309.139 380c-2.094 0-3.104-2.533-3.125-7.838l-.014-3.338-4.25.713c-8.037 1.349-14.776 3.447-20.749 6.463-6.02 3.038-6.049 3.083-5.075 7.865.041.201 1.086-.291 2.324-1.094 3.992-2.588 15.502-6.771 18.632-6.771 2.701 0 3.161.447 4.116 3.993 2.526 9.381 9.997 8.394 19.713-2.604 3.072-3.478 6.039-6.044 6.592-5.702.593.366.693.116.245-.609-.455-.736.452-2.739 2.259-4.988 1.661-2.066 2.496-3.778 1.856-3.804-.64-.026-1.838-.315-2.663-.641-.988-.39-2.59.849-4.695 3.631m-105.619-1.657c-7.168 2.202-6.261 4.994 1.489 4.584 5.065-.267 5.811-.037 7.716 2.385 3.36 4.272 2.774 5.395-2.891 5.537-6.536.163-7 .238-7 1.125v2.25c0 1.206 1.536 1.5 7.826 1.5 7.171 0 8.028.22 10.25 2.632 3.848 4.178 11.601 7.347 18.004 7.358 7.005.012 16.93-3.786 18.091-6.922.463-1.252.421-1.934-.099-1.612-.496.306-1.052.108-1.237-.441-.191-.568-2.919.066-6.335 1.47-13.854 5.697-22.197 2.21-29.445-12.307-4.346-8.705-7.661-10.235-16.369-7.559m117.26 6.257c-5.209 3.369-11.047 9.382-16.755 17.259-3.974 5.483-8.901 8.83-15.261 10.369-2.244.544-2.791.14-4.318-3.191-4.664-10.169-11.601-11.282-26.504-4.251-12.336 5.819-13.515 6.673-11.709 8.48 1.945 1.945 1.877 1.958 10.14-1.964 14.41-6.84 18.67-6.942 21.987-.528 2.058 3.98 2.639 3.682-9.045 4.635-9.512.777-9.997.928-10.321 3.221l-.34 2.406 11.321-.688c12.489-.758 20.854-2.406 28.192-5.552 2.658-1.14 6.766-2.072 9.128-2.072 7.556 0 17.539-5.351 17.539-9.401 0-3.616-1.033-3.741-4.996-.602-5.521 4.373-12.794 6.703-11.712 3.753.252-.687.998-1.126 1.657-.975.66.151.913-.19.562-.757-.615-.995 1.857-5.084 5.91-9.774 1.073-1.241 4.343-3.904 7.267-5.918 5.038-3.47 5.23-3.759 3.66-5.494-2.01-2.221-1.135-2.363-6.402 1.044m18.896 7.923c-2.011 2.036-4.381 5.154-5.265 6.931-2.967 5.962-13.031 15.601-21.121 20.229l-7.768 4.445-21.594.66c-15.581.477-23.368 1.141-27.964 2.387-6.753 1.83-11.345 1.523-16.409-1.095-2.574-1.331-3.349-4.136-1.013-3.662.527.107.959-1.312.959-3.154 0-4.215-.868-3.965-10.167 2.932-3.85 2.856-8.405 6.158-10.123 7.337l-3.122 2.146-.512-4.54c-.826-7.333-7.955-13.006-13.288-10.576-3.441 1.568-3.086 2.399 1.907 4.451 11.415 4.694 8.515 18.211-4.484 20.896-3.233.668-5.878 1.537-5.878 1.932s-.273 1.43-.607 2.3c-.479 1.25.099 1.581 2.75 1.576 7.599-.012 11.664-2.098 26.827-13.768l8.153-6.274 2.873 2.045c7.368 5.247 13.784 5.984 26.191 3.01 6.541-1.568 11.829-1.997 24.813-2.012 18.692-.021 24.199-1.062 32.684-6.179 6.571-3.962 19.367-17.036 22.299-22.782 1.151-2.258 2.521-3.84 3.044-3.517.522.323.724-.003.447-.725-.277-.721.355-2.994 1.403-5.052 2.612-5.122.057-5.093-5.035.059m60.793 70.274c-5.3 4.169-2.309 13.927 4.269 13.927 7.413 0 10.85-8.543 5.45-13.548-3.234-2.997-6.242-3.114-9.719-.379m85.365-.035c-7.975.428-24.85 1.297-37.5 1.931-12.65.633-23.37 1.518-23.823 1.964-.452.447-.677 2.332-.5 4.19l.323 3.377h87v-12l-5.5-.12c-3.025-.066-12.025.231-20 .658M149.2 449.2c-1.719 1.719-1.719 68.881 0 70.6 1.869 1.869 12.447 1.563 13.193-.382.334-.87.627-12.007.651-24.75l.044-23.168 2.053 4c1.128 2.2 3.75 6.925 5.825 10.5s6.832 11.9 10.571 18.5c9.531 16.82 9.17 16.5 18.602 16.5 6.679 0 7.938-.276 8.826-1.934.644-1.204 1.035-12.722 1.035-30.5V460h115.05l.884-2.326c.486-1.28.569-3.867.184-5.75l-.7-3.424-64.08-.257c-58.688-.236-64.197-.118-65.459 1.403-1.081 1.301-1.379 6.476-1.379 23.924 0 12.244-.071 22.188-.157 22.096-1.27-1.342-9.106-15.67-8.576-15.681.403-.009.251-.346-.337-.75-.589-.404-4.541-6.907-8.782-14.45-4.241-7.544-8.697-14.406-9.902-15.25-2.698-1.89-15.742-2.139-17.546-.335m184 0c-.752.752-1.2 4.489-1.2 10 0 8.702-.028 8.8-2.481 8.8-4.71 0-5.046 10.266-.354 10.808l2.665.308.335 16.379.335 16.378 3 3.153c4.535 4.766 7.635 5.974 15.334 5.974 6.344 0 6.984-.191 7.536-2.25 1.717-6.409.393-8.75-4.952-8.75-5.421 0-6.418-2.711-6.418-17.45V479.1l5.75-.3 5.75-.3.315-4.401c.376-5.261-.554-6.063-7.065-6.084L347 468v-8.429c0-6.329-.391-8.82-1.571-10-1.886-1.885-10.455-2.145-12.229-.371m31.371.371c-2.241 2.242-2.388 68.506-.155 70.359.835.693 3.809 1.051 7.25.872l5.834-.302.5-17.841c.561-20.024 1.207-21.659 8.554-21.659 5.785 0 6.446 2.116 6.446 20.641 0 20.242-.342 19.359 7.5 19.359 7.88 0 7.5 1.061 7.5-20.933 0-22.279-1.308-26.557-9.406-30.769-3.873-2.014-14.728-1.392-17.366.996-3.043 2.754-3.228 2.234-3.228-9.094 0-7.067-.415-11.215-1.2-12-1.774-1.774-10.343-1.514-12.229.371m-129.837 17.475c-25.846 6.376-29.66 42.566-5.577 52.926 24.438 10.513 47.649-11.673 38.397-36.7-4.43-11.981-19.607-19.485-32.82-16.226m57.766.448c-2.75.78-5.336 1.438-5.747 1.462-2.056.121-9.346 8.143-11.4 12.544-2.78 5.956-3.195 16.861-.892 23.39 5.496 15.577 24.771 22.436 39.366 14.008 1.829-1.057 3.753-1.657 4.275-1.335.521.322.825.215.676-.239-.149-.453.997-2.484 2.548-4.513 4.687-6.134 3.596-9.236-3.38-9.605-5.063-.268-5.946.018-10 3.24-3.17 2.52-5.451 3.536-7.946 3.541-4.043.006-10-3.253-10-5.472 0-.833-.45-1.515-1-1.515s-1-.9-1-2c0-1.925.667-2 17.878-2 21.024 0 20.734.132 19.776-9.034-1.757-16.812-16.907-27.08-33.154-22.472m122.25-.414c-2.2 1.281-2.737 52.192-.564 53.535 1.819 1.124 12.203.369 13.041-.949 1.417-2.227.847-49.984-.619-51.916-1.5-1.975-8.899-2.394-11.858-.67m35.44.399c-16.079 5.019-22.944 24.925-14.374 41.676 8.688 16.98 36.859 18.164 45.157 1.898 2.043-4.005 2.663-8.558 1.277-9.38-3.036-1.8-11.19-1.716-12.781.131-5.597 6.497-6.508 7.196-9.376 7.196-9.345 0-14.379-12.199-9.678-23.452 2.86-6.844 11.532-7.865 16.302-1.919 5.046 6.289 16.283 5.771 16.283-.75 0-11.255-18.408-19.895-32.81-15.4m52.483-.368c-9.716 1.935-15.673 8.145-15.673 16.34 0 8.057 4.446 12.006 17.5 15.543 10.703 2.9 14.501 4.794 13.784 6.872-1.928 5.589-12.44 5.933-17.641.578-4.854-4.997-13.947-4.942-14.44.088-.957 9.768 14.914 18.107 29.372 15.432 11.827-2.189 17.81-7.868 17.81-16.906 0-9.24-4.659-13.239-19.885-17.067-9.889-2.486-11.5-3.337-11.5-6.078 0-4.819 10.207-5.426 15.347-.913 3.948 3.466 13.166 4.432 14.292 1.498 3.532-9.203-13.796-18.407-28.966-15.387m-208.295 12.326c-3.206 1.395-6.378 5.019-6.378 7.286 0 .962 2.835 1.277 11.5 1.277 12.337 0 13.045-.35 9.869-4.883-3.142-4.487-9.533-6.056-14.991-3.68m-60.179 3.049c-6.066 5.104-6.173 18.325-.191 23.764 4.308 3.918 10.709 3.868 15.17-.118 5.74-5.129 5.182-19.344-.948-24.166-3.67-2.887-10.273-2.642-14.031.52M541.4 507.4c-3.796 3.796-4.298 6.964-1.852 11.693 4.437 8.58 18.452 5.101 18.452-4.582 0-9.672-9.828-13.883-16.6-7.111m3.842-.357c-2.367.942-5.044 5.488-3.903 6.629 1.145 1.145 5.661-1.92 5.661-3.841 0-2.959 1.989-2.095 2.116.919.072 1.715.289 2.087.576.988.253-.969.856-1.518 1.34-1.218.484.299.597 1.283.251 2.186-.47 1.225-.214 1.481 1.011 1.011 2.966-1.138 2.632.828-.366 2.155-1.61.712-2.928 1.933-2.928 2.712 0 .779-.45 1.416-1 1.416s-1.007-1.013-1.015-2.25c-.013-1.819-.201-1.963-.985-.75-.828 1.282-.972 1.246-.985-.25-.009-1.078-.783-1.75-2.015-1.75-2.807 0-2.488 2.471.635 4.927 3.587 2.822 5.986 2.606 9.442-.85 3.506-3.506 3.692-6.119.673-9.44-2.698-2.968-5.454-3.808-8.508-2.594m-66.909 11.413c0 .801.383 1.22.85.931.467-.289.591-.944.274-1.456-.808-1.308-1.124-1.161-1.124.525M308.806 655c-.36.825-1.564 3.975-2.678 7-1.113 3.025-2.047 4.712-2.076 3.75-.068-2.3-1.275-2.223-2.773.175-.662 1.059-2.232 2.123-3.491 2.364-1.701.326-1.454.474.962.575 3.022.126 3.25.382 3.25 3.636 0 4.995 1.566 4.324 3.5-1.5 2.126-6.401 2.189-6.342 2.052 1.947-.179 10.84.753 11.6 3.711 3.027 1.418-4.11 2.615-6.461 2.658-5.224.097 2.76 1.72 2.957 2.56.31.397-1.252 1.752-2.082 3.817-2.34 3.093-.386 3.075-.405-.548-.56-3.589-.153-3.75-.311-3.75-3.66 0-4.787-1.124-4.384-3.5 1.254l-2 4.746-.521-8.5c-.286-4.675-.814-7.825-1.173-7M336 666.952c0 5.455.159 5.845 2.578 6.308 1.968.376 2.773-.011 3.4-1.634.741-1.917.891-1.954 1.529-.376.389.962 1.345 1.75 2.126 1.75 1.206 0 1.194-.434-.081-2.899-1.314-2.542-1.319-3.05-.037-4.113 1.62-1.345 2.136-.576 2.686 4.002.164 1.369.986 2.62 1.826 2.78 1.372.261 1.822-3.964 1.067-10.02-.142-1.137-3.094-.898-3.094.25 0 .55-.873 1-1.941 1s-2.286.558-2.707 1.24c-.522.844-.946.479-1.329-1.141-.396-1.68-1.365-2.466-3.292-2.671-2.695-.288-2.731-.215-2.731 5.524m33 .048c0 4.774.319 6 1.563 6 .889 0 1.486-.754 1.385-1.75-.369-3.628.093-5.403 1.302-4.999.749.25 1.12 1.686.925 3.583-.242 2.353.079 3.166 1.25 3.166.866 0 1.575-.505 1.575-1.122 0-.795.422-.773 1.445.076 1.672 1.388 6.198 1.031 5.76-.454-.163-.55-1.175-.859-2.25-.687-1.075.172-1.955-.166-1.955-.75 0-.585 1.125-1.063 2.5-1.063 1.825 0 2.5-.535 2.5-1.981 0-2.553-4.369-3.784-6.676-1.881-1.288 1.064-1.741 1.089-2.07.112-.231-.687-1.235-1.25-2.23-1.25-.996 0-2.069-.675-2.386-1.5-1.316-3.431-2.638-1.177-2.638 4.5m24-4c0 .55-1.575 1-3.5 1-3.475 0-3.5.032-3.5 4.441 0 2.443.45 4.719 1 5.059 1.083.669 1.143.49 1.357-4 .111-2.33.664-3.074 2.477-3.331 2.096-.296 2.3.009 2 3l-.334 3.331 5.75.3c3.539.185 5.75-.104 5.75-.75 0-.578-.933-1.05-2.073-1.05h-2.072l2.072-2.635c2.964-3.767 2.631-4.365-2.427-4.365-2.475 0-4.5-.45-4.5-1s-.45-1-1-1-1 .45-1 1m-55.245 2.5c.263 1.375.651 2.5.862 2.5.21 0 .383-1.125.383-2.5s-.388-2.5-.861-2.5c-.474 0-.647 1.125-.384 2.5m-10.74-1.25c.136 2.261 3.167 8.326 4.273 8.551 1.414.287 3.712-4.326 3.712-7.45 0-2.357-1.796-1.458-2.793 1.399l-.96 2.75-.732-2.75c-.54-2.031-3.603-4.219-3.5-2.5m26.556 1.321c-3.02 3.021-1.282 7.429 2.929 7.429 1.155 0 2.64-.54 3.3-1.2.933-.933 1.2-.933 1.2 0 0 .66.675 1.2 1.5 1.2.993 0 1.5-.993 1.5-2.941 0-1.618.45-3.219 1-3.559 1.842-1.139 1.025-2.5-1.5-2.5-1.703 0-2.51.558-2.53 1.75-.029 1.667-.079 1.667-1.05 0-1.266-2.174-4.269-2.259-6.349-.179m2.068 1.123c-1.236 1.236-.622 4.306.861 4.306.825 0 1.5-.873 1.5-1.941 0-2.087-1.318-3.408-2.361-2.365M380 667c0 .55.675 1 1.5 1s1.5-.45 1.5-1-.675-1-1.5-1-1.5.45-1.5 1m15 1.5c0 2.962.335 3.05 2.989.778 2.682-2.297 2.535-3.278-.489-3.278-2 0-2.5.5-2.5 2.5" fill-rule="evenodd"/>
<path fill="#fbfbfb" stroke="#fbfbfb" d="M509.016 141.613c-4.125 9.386-12.499 23.568-18.593 31.487-4.66 6.056-5.099 8.508-1.727 9.632 3.298 1.099 29.832-43.451 27.819-46.709-2.025-3.275-4.372-1.525-7.499 5.59m16.708 5.203c-5.992 10.301-16.438 23.062-23.203 28.346-6.123 4.782-6.075 4.698-4.149 7.332 1.316 1.799 1.535 1.747 5.335-1.262 9.588-7.594 23.434-24.826 29.603-36.843 1.548-3.014 1.524-3.144-.76-4.184-2.22-1.012-2.614-.631-6.826 6.611m-39.495 13.434c-11.9 26.657-20.96 37.502-36.501 43.699-6.419 2.559-12.627 8.857-25.368 25.735-13.361 17.699-30.126 26.776-54.253 29.373-10.678 1.15-14.438 2.129-21.23 5.532C344.105 266.98 336 275.216 336 277.674c0 .766-1.088 3.54-2.418 6.164-4.285 8.456-4.303 14.298-.058 18.543 1.588 1.588 1.975 1.426 6.362-2.677 6.333-5.925 12.377-8.139 20.261-7.424 6.766.613 7.803 1.499 7.862 6.72.022 1.925.489 5.448 1.038 7.828 1.18 5.117-2.085 10.041-13.56 20.448-3.503 3.177-6.651 6.665-6.995 7.75-.891 2.805-7.424 2.61-17.204-.513-11.777-3.761-14.369-2.925-5.061 1.633l5.228 2.559-4.978 2.253a1011.46 1011.46 0 0 1-8.477 3.79c-5.697 2.503-1.581 2.619 8.093.229 4.947-1.222 9.13-2.055 9.294-1.85.165.205.708 2.362 1.206 4.792 1.371 6.683 3.407 6.482 3.407-.336V342h3.695c2.648 0 4.491.762 6.499 2.686 2.243 2.149 4.005 2.773 8.805 3.12 5.052.366 6.001.732 6.001 2.314 0 1.721-.89 1.88-10.5 1.88-10.504 0-13.74 1.17-6.825 2.467l3.675.689-6.425 3.642c-7.483 4.241-6.03 5.508 2.61 2.275 7.77-2.907 8.057-2.81 9.074 3.099 1.35 7.836 3.391 7.482 3.391-.589V357h3.671c2.024 0 4.498.748 5.514 1.667 1.72 1.557 2.382 1.552 10.002-.086 14.669-3.152 20.376-5.384 27.746-10.854 7.76-5.76 7.631-5.574 5.708-8.203-1.286-1.759-1.672-1.618-7.25 2.656-3.24 2.482-6.904 5.048-8.141 5.702-3.522 1.86-23.886 6.967-24.945 6.256-3.172-2.128-2.213-4.583 6.061-15.523 4.623-6.113 8.906-12.095 9.517-13.293 1.123-2.202.587-5.322-.913-5.322-.449 0-2.136-1.11-3.748-2.467-2.591-2.18-3.151-2.305-4.827-1.074-1.826 1.342-1.79 1.502.985 4.407 3.508 3.672 3.666 3.269-6.208 15.902-6.727 8.608-8.129 9.942-8.666 8.25-.455-1.433-1.51-2.018-3.639-2.018-3.161 0-6.889-1.563-8.071-3.384-.401-.618 3.061-4.965 8.045-10.101 4.811-4.958 10.154-10.833 11.871-13.055l3.123-4.04-1.402-5.96c-.771-3.278-1.409-8.521-1.417-11.651-.019-6.854.117-6.756-10.353-7.495-10.671-.753-13.986-.093-21.116 4.2-7.802 4.698-7.82 4.663-3.027-6.014 1.235-2.75 2.557-6.023 2.938-7.274 1.847-6.066 15.276-12.72 27.62-13.686 24.072-1.882 46.755-13.626 58.508-30.292 2.617-3.711 6.369-8.581 8.336-10.822a275.351 275.351 0 0 0 6.745-8.037c1.741-2.179 4.216-4.467 5.5-5.084 1.283-.617 5.258-2.467 8.833-4.112 13.073-6.012 22.306-17.784 33.862-43.174 4.837-10.627 5.097-11.576 3.491-12.75-2.733-1.999-2.828-1.882-8.124 9.981m-141.134-.847c-2.018 11.633-3.199 26.146-2.898 35.597.297 9.296.357 9.506 2.803 9.789l2.5.289.129-14.789c.072-8.316.838-19.051 1.75-24.528 2.026-12.171 2.075-11.441-.803-11.991-2.267-.434-2.492-.07-3.481 5.633m188.405 2.698c-13.59 13.73-28.295 24.715-40.649 30.368-4.627 2.118-5.555 2.945-5.13 4.574.839 3.208 1.533 3.108 10.877-1.566 17.155-8.582 50.441-37.316 47.43-40.944-2.104-2.535-3.156-1.899-12.528 7.568m-175.828 2.633c-2.553 4.197-6.409 34.862-4.61 36.661.289.289 1.455.282 2.592-.015 1.866-.488 2.125-1.53 2.662-10.71.327-5.594 1.477-13.461 2.556-17.483 1.812-6.757 1.834-7.359.295-7.905-.917-.325-1.973-.753-2.348-.953-.374-.199-.891-.017-1.147.405m11.384 9.516c-7.424 15.781-9.075 24.75-4.556 24.75 2.008 0 2.5-.498 2.5-2.532 0-3.735 3.619-13.908 8.07-22.687 3.737-7.369 3.827-7.766 1.988-8.75-2.958-1.583-2.878-1.674-8.002 9.219m174.902-1.68c-9.058 9.285-25.658 19.722-37.208 23.393-3.976 1.264-5.693 6.037-2.171 6.037 6.217 0 27.256-11.671 38.735-21.486 8.498-7.267 9.546-8.773 7.675-11.027-1.764-2.126-2.087-1.985-7.031 3.083m-209.62-.308c-1.228 1.987-1.609 37.13-.449 41.38 1.296 4.749 5.54 8.892 15.012 14.656 7.236 4.403 8.21 6.186 10.382 19.006 1.706 10.07 1.575 9.807 4.533 9.034 2.49-.651 2.477-1.057-.488-15.338-2.244-10.805-3.248-12.214-12.85-18.013-12.164-7.348-11.989-6.939-11.921-27.952.031-9.644.365-18.721.74-20.17.587-2.264.329-2.703-1.831-3.116-1.382-.265-2.79-.033-3.128.513m48.112 7.988c-3.849 4.413-8.717 13.958-9.882 19.374-.597 2.779-.394 3.176 1.851 3.605 2.303.441 2.656.025 4.05-4.769 1.627-5.598 7.406-14.984 10.605-17.224 1.531-1.073 1.717-1.758.894-3.295-1.573-2.94-3.441-2.366-7.518 2.309m5.372 14.582c-5.155 4.917-6.985 7.301-6.525 8.5 1.074 2.799 2.92 1.931 10.047-4.722 6.132-5.724 6.727-6.609 5.715-8.5-1.51-2.822-1.111-3.026-9.237 4.722M536 196.515c-11.556 6.077-28.645 10.743-43 11.742-2.777.193-3.566.707-3.82 2.493-.846 5.963 29.614.406 47.82-8.724 8.812-4.419 9.182-4.761 7.715-7.111-1.487-2.381-.962-2.477-8.715 1.6m-139.062 6.506c-6.966 3.533-8.54 5.235-6.449 6.97 1.665 1.381 13.543-3.476 13.428-5.491-.236-4.13-1.305-4.357-6.979-1.479M529.5 213.206c-7.094 2.839-21.901 5.765-29.25 5.781-6.219.013-6.25.027-6.25 2.898v2.885l6.75-.445c12.379-.817 34.272-5.933 35.772-8.361.714-1.156-.348-5.01-1.339-4.862-.376.057-2.933 1.003-5.683 2.104m-130.994 6.544c1.715 12.972 2.443 15.022 6.095 17.177 4.953 2.922 8.427 3.639 9.491 1.958 1.603-2.53.946-3.552-3.153-4.905-4.782-1.578-5.483-2.671-6.396-9.98-1.027-8.211-1.392-9-4.172-9-2.396 0-2.469.185-1.865 4.75M512 230.241c-8.024 1.954-25.275 2.696-33.122 1.424-4.255-.69-4.669-.57-5.211 1.499-.776 2.969-.99 2.861 8.003 4.011 8.767 1.121 20.375.482 30.767-1.696 7.878-1.65 8.941-2.342 7.843-5.102-.769-1.935-.887-1.937-8.28-.136m-46.938 12.083c-2.762 7.343 32.501 11.135 52.236 5.617 3.523-.985 4.375-3.223 2.188-5.747-.145-.168-2.902.347-6.125 1.146-13.075 3.24-27.798 2.767-41.322-1.328l-6.158-1.865-.819 2.177m3.421 13.729c-1.029 3.243 2.674 4.931 15.397 7.015 10.804 1.77 14.917 1.321 14.365-1.568-.405-2.117-1.035-2.502-4.112-2.513-3.604-.013-20.108-3.174-23.293-4.461-1.168-.472-1.866-.02-2.357 1.527m-16.792 3.295c-1.484 2.266-1.384 2.415 3.642 5.448C466.457 271.51 480.816 276 491.16 276c5.465 0 5.84-.151 5.84-2.352 0-2.214-.453-2.387-7.75-2.96-10.933-.858-24.836-5.774-33.391-11.807-2.614-1.843-2.657-1.839-4.168.467m-269.865 11.364c-5.354 3.322-6.518 11.171-2.326 15.693 1.375 1.484 2.5 3.559 2.5 4.612 0 2.787 5.619 8.74 8.938 9.469 1.57.345 3.646 1.502 4.613 2.571 1.706 1.885 1.665 1.943-1.362 1.943-3.979 0-10.007 2.85-10.709 5.064-.298.937-1.877 3.101-3.51 4.81-6.238 6.527-2.129 17.349 6.551 17.255 7.749-.084 15.011-1.376 17.479-3.11 1.375-.966 3.625-2.092 5-2.503 3.433-1.024 7-4.471 7-6.763 0-1.848-.066-1.846-2.491.061-1.371 1.078-4.132 2.268-6.137 2.644-2.004.376-4.935 1.638-6.513 2.804-2.334 1.726-3.38 1.937-5.614 1.133-1.829-.658-3.671-.645-5.52.038-6.096 2.251-9.706-4.186-5.382-9.596 4.675-5.849 5.896-6.793 9.566-7.399 1.975-.326 4.941-1.205 6.591-1.952 1.65-.747 3.816-1.609 4.813-1.915 2.22-.682 1.273-2.571-1.287-2.571-1.021 0-3.132-1.352-4.691-3.004-1.559-1.653-4.29-3.485-6.068-4.072-3.612-1.193-7.267-5.633-7.267-8.828 0-1.153-.434-2.096-.965-2.096-1.629 0-3.239-4.052-2.608-6.564.863-3.442 4.156-4.954 7.449-3.421 1.443.671 4.365 1.359 6.493 1.529 4.018.321 9.631 4.515 9.631 7.195 0 .751 1.334 1.83 2.966 2.399 2.013.702 3.519 2.29 4.692 4.948 2.119 4.803 2.439 4.813 4.421.138 4.715-11.118 4.557-10.919 11.341-14.259 6.27-3.087 6.646-3.152 9.061-1.57 2.604 1.707 3.566 6.84 1.519 8.105-.55.34-1 2.054-.999 3.809.001 3.21-.205 3.487-10.293 13.81-3.704 3.791-3.734 3.881-1.297 3.881 2.957 0 7.589-1.953 7.589-3.2 0-.484 1.783-2.627 3.962-4.762 2.178-2.136 4.219-5.156 4.534-6.711.315-1.555 1.008-4.209 1.539-5.898 3.69-11.74-6.504-19.96-16.035-12.929-1.864 1.375-3.794 2.5-4.29 2.5-2.374 0-6.768 4.463-7.807 7.928-1.122 3.746-1.187 3.788-3.025 1.95-1.033-1.033-2.226-1.878-2.651-1.878-.425 0-1.577-1.494-2.56-3.32-2.194-4.075-6.378-6.67-10.821-6.712-1.84-.017-4.22-.692-5.287-1.5-2.556-1.933-7.402-1.823-10.733.244m270.23 2.183c-1.502 2.807 3.957 6.188 17.35 10.743 8.911 3.031 10.594 3.03 10.594-.006 0-2.029-.823-2.6-5.75-3.984-3.163-.889-9.049-3.198-13.081-5.132-8.617-4.132-7.843-3.994-9.113-1.621M348.5 276.55c-2.507 2.07-2.754 2.637-1.5 3.448 2.653 1.717 6.847 1.156 8.042-1.076 2.641-4.936-1.584-6.468-6.542-2.372m86.5-1.05c-3.135 3.778 17.233 17.047 32 20.848 6.247 1.608 7 1.424 7-1.707 0-1.921-.822-2.414-5.75-3.455-7.281-1.537-18.87-7.494-25.219-12.963-5.4-4.652-6.204-4.924-8.031-2.723m-242.384 8.313c-.292.472 2.646 3.472 6.529 6.666 5.471 4.501 7.252 5.496 7.915 4.425.575-.932.028-2.246-1.676-4.025-3.159-3.297-12.055-8.22-12.768-7.066m36.493 2.232c-6.287 6.287-9.426 12.955-6.098 12.955 1.232 0 10.166-13.969 9.744-15.235-.188-.564-1.829.462-3.646 2.28m204.498 3.836c-1.626 1.798-1.492 2.062 2.996 5.898 7.164 6.124 19.158 12.134 20.396 10.221 1.743-2.693 1.085-3.529-5.249-6.668-3.437-1.703-8.344-4.95-10.903-7.214-5.399-4.777-5.041-4.666-7.24-2.237m-10.857 6.227c-.962.545-1.75 1.418-1.75 1.939 0 1.462 6.952 8.845 12.382 13.15l4.883 3.87 1.506-2.15c1.413-2.018 1.297-2.31-1.883-4.761-1.863-1.436-5.638-4.957-8.388-7.825-4.069-4.243-5.326-5.03-6.75-4.223M215 305.165c0 .919 7.367 15.285 8.546 16.666.155.182 1.224-.173 2.374-.788 2.006-1.074 2.025-1.251.463-4.331-4.1-8.084-11.383-15.472-11.383-11.547m207.046 4.785c-2.211 1.399.229 5.209 7.75 12.1 13.775 12.622 32.228 20.438 54.204 22.959 13.565 1.556 14 1.493 14-2.009v-3h-6.89c-21.85 0-46.248-9.938-60.45-24.624-6.666-6.892-6.48-6.775-8.614-5.426M204.5 312.443c-5.647 1.733-12.5 5.397-12.5 6.684 0 .598.563.88 1.25.626.688-.253 4.4-1.482 8.25-2.73 7.727-2.506 9.408-3.546 7.95-4.915-.56-.525-2.594-.387-4.95.335m56.993 1.908c-4.574 2.13-9.914 7.005-12.255 11.188-.851 1.522-1.271 1.485-5.043-.44-14.71-7.504-27.082 5.647-20.586 21.881 1.808 4.519 1.716 4.459 4.33 2.826 1.768-1.104 1.799-1.413.406-4.106-5.085-9.833 1.24-20.642 10.324-17.644 8.542 2.819 13.793 10.88 13.123 20.146-.298 4.11-.024 6.19.916 6.971 1.542 1.279 1.51 1.303 3.62-2.673 1.405-2.647 1.597-2.742 1.632-.809.047 2.584 1.257 3.547 3.416 2.718.993-.381 1.514-1.739 1.44-3.753-.192-5.247 1.064-7.419 5.546-9.589 8.323-4.03 18.766-.906 24.079 7.202 1.94 2.962 2.366 3.139 4.416 1.841 3.028-1.919-4.092-10.981-10.427-13.271l-3.25-1.176.478-7.081c.952-14.071-8.911-20.403-22.165-14.231m2.007 4.07c-8.592 3.847-12.322 11.418-8.928 18.123 1.336 2.637 2.428 5.394 2.428 6.125 0 2.102 1.543 1.554 2.932-1.041 1.69-3.159 7.491-6.291 13.222-7.138 4.429-.655 4.703-.885 5.688-4.767 2.482-9.776-5.544-15.688-15.342-11.302m156.601 9.39c-1.747 3.265 20.301 15.42 40.229 22.177 13.907 4.716 13.316 4.644 13.88 1.695.408-2.137-.339-2.576-9.634-5.668-13.122-4.364-19.922-7.42-31.905-14.339-10.966-6.332-11.209-6.407-12.57-3.865m-4.21 6.82c-1.645 1.982 3.545 6.994 11.38 10.99 4.438 2.264 4.815 2.31 5.404.656.348-.977.806-2.098 1.016-2.491.211-.393-1.806-1.824-4.481-3.179-2.675-1.356-5.954-3.614-7.287-5.019-2.832-2.985-4.172-3.198-6.032-.957M203 337.428c-5.199 1.443-11.17 4.352-12.235 5.962-1.621 2.449-.821 15.783 1.14 18.992 1.274 2.086 1.873 4.827 1.81 8.282-.097 5.311 1.106 7.775 7.798 15.966l2.558 3.129-6.786 2.714C179.004 399.786 177 401.762 177 412.474c0 6.34.11 6.65 2.25 6.346 1.985-.282 2.321-1.065 2.855-6.647.793-8.295 1.389-8.793 19.34-16.176 18.545-7.627 20.528-7.474 33.092 2.563 3.681 2.94 4.21 3.095 6 1.755 1.893-1.418 1.802-1.612-2.537-5.418-7.718-6.771-14.317-9.438-22.628-9.147l-7.128.249-4.622-5.614c-2.584-3.14-4.622-6.648-4.622-7.959v-2.343l4.75 2.332c7.311 3.59 10.25 4.059 10.25 1.635 0-1.419-1.59-2.767-5.554-4.708-6.15-3.011-12.446-9.256-12.446-12.345 0-2.477-.276-2.499 6.151.493 6.032 2.808 10.301 3.099 16.849 1.147 4.991-1.488 11.259-.58 20.239 2.932 3.508 1.373 5.03 1.562 5.862.73 4.576-4.576-18.602-11.954-27.877-8.873-6.018 1.998-9.715 1.533-15.857-1.998-8.503-4.887-4.872-8.914 9.911-10.992 3.177-.446 5.115-1.302 5.785-2.554 1.237-2.311-6.476-2.56-14.063-.454m90-.583c0 2.99 3.878 4.155 13.829 4.155 10.013 0 10.772-.271 9.564-3.418-.667-1.739-23.393-2.455-23.393-.737m23.58 19.905c-.415.413-8.944.75-18.954.75-16.017 0-18.539.222-21.029 1.849-4.473 2.924-1.559 5.258 4.515 3.616 3.014-.814 8.363-.967 17.081-.488 15.369.845 29.631-2.295 24.807-5.462-1.784-1.171-5.361-1.319-6.42-.265M259 360.459c-22.148 11.644-14.039 25.346 9.6 16.221 9.124-3.521 11.345-5.095 9.636-6.827-1.028-1.041-1.869-1.038-4.5.019-13.61 5.468-21.201 6.686-22.389 3.591-.9-2.347 2.299-5.179 10.341-9.154 5.836-2.884 7.081-3.882 6.187-4.96-1.567-1.888-3.674-1.624-8.875 1.11m64.667 5.936c-9.148 12.772-16.793 17.201-17.441 10.105-.696-7.608-.442-7.418-7.966-5.971-8.092 1.556-23.295 7.736-23.245 9.448.085 2.896 1.983 3.058 6.863.585 11.597-5.877 19.059-6.442 19.107-1.447.028 2.934 3.984 6.885 6.893 6.885 5.954 0 24.895-20.159 22.102-23.524-1.787-2.153-2.106-1.955-6.313 3.919m-106.417-2.148c-6.028 1.934-3.331 5.659 2.909 4.019 4.757-1.251 6.467-.608 8.914 3.352 2.642 4.274 2.687 4.229-4.949 5.027-4.963.519-6.151.972-5.9 2.252.255 1.298 1.782 1.615 8.025 1.666 7.498.062 7.812.165 11.341 3.694 6.772 6.771 15.484 8.231 26.41 4.426 5.079-1.768 6.57-2.746 6.82-4.473.397-2.747-.343-2.752-6.443-.048-12.576 5.576-21.385 2.016-28.859-11.662-2.104-3.85-4.544-7.548-5.422-8.218-1.913-1.46-8.348-1.478-12.846-.035m120.25 4.937c-4.825 2.774-10.905 8.589-15.885 15.191-6.471 8.581-7.871 9.833-13.385 11.97-5.434 2.106-7.141 2.086-7.909-.095-2.601-7.383-9.452-11.682-16.201-10.166-4.7 1.057-23.12 9.768-23.12 10.934 0 3.129 3.129 2.828 11.286-1.086 13.746-6.596 18.379-6.348 22.278 1.191 1.578 3.053-.827 3.845-11.743 3.866-5.537.011-8.821 1.579-8.821 4.211 0 2.826 32.625-1.886 40.206-5.807 1.737-.898 5.663-1.729 8.726-1.848 8.271-.319 16.068-4.748 16.068-9.127 0-2.227-.112-2.205-5.691 1.155-3.13 1.885-6.972 3.427-8.537 3.427h-2.847l3.93-5.786c4.24-6.244 10.749-12.621 14.738-14.438 2.648-1.207 2.902-4.086.396-4.498-.819-.134-2.389.273-3.489.906m19.247 7.469c-2.051 1.46-5.052 4.997-6.668 7.862-5.803 10.281-20.504 22.402-29.785 24.557-2.087.484-10.769.907-19.294.939-9.886.037-18.398.633-23.5 1.644-13.777 2.73-16.968 2.781-21.987.351-5.041-2.44-5.423-3.255-2.491-5.309 2.206-1.545 1.711-5.192-.586-4.311-.718.276-5.605 3.676-10.859 7.557-10.905 8.054-10.577 7.916-10.577 4.458 0-7.042-8.28-14.927-13.014-12.393-2.704 1.447-2.494 2.648.6 3.424 4.646 1.166 7.414 4.933 7.414 10.088 0 7.592-3.174 10.765-12.326 12.319-3.366.572-4.239 1.164-4.51 3.061-.325 2.274-.173 2.329 4.5 1.631 7.246-1.081 9.87-2.484 21.286-11.384 10.334-8.056 12.337-9.11 13.559-7.133 2.997 4.85 16.025 6.591 27.135 3.626 4.483-1.197 10.486-1.64 22.201-1.64 18.404 0 24.253-.96 32.655-5.359 10.708-5.606 23.773-20.476 29.017-33.028 1.804-4.316 1.9-4.283-2.77-.96M415 449c-2.36 2.36-2.595 6.705-.523 9.663 4.579 6.539 15.469 1.043 13.048-6.585-1.662-5.236-8.65-6.953-12.525-3.078m66 .272c-21.725 1.092-40.062 2.432-40.75 2.979-1.795 1.427-1.564 6.415.332 7.142 2.056.789 81.218.767 84.168-.023 1.973-.529 2.25-1.253 2.25-5.88 0-5.416-.962-6.679-4.832-6.347-.917.079-19.443 1.037-41.168 2.129m-331.429.299c-1.907 1.908-2.402 66.009-.536 69.495.807 1.508 2.114 1.934 5.929 1.934 8.115 0 8.027.284 8.095-26.321.04-15.656.38-22.692 1.048-21.679.545.825 6.391 11.175 12.993 23 6.601 11.825 12.929 22.288 14.062 23.25 2.463 2.093 14.691 2.497 16.638.55.879-.879 1.2-9.044 1.2-30.5V460l55.75-.118c30.663-.066 56.346-.038 57.074.06 3.737.507 5.982-8.198 2.797-10.842-1.639-1.36-126.92-1.134-128.288.231-.458.457-1.058 11.466-1.333 24.464l-.5 23.633-13.122-23.464c-8.613-15.402-13.939-23.888-15.5-24.699-3.528-1.833-14.371-1.629-16.307.306m184 0c-1.193 1.194-1.571 3.717-1.571 10.5 0 8.751-.048 8.929-2.393 8.929-2.503 0-3.607 1.647-3.607 5.382 0 2.649 1.753 4.618 4.11 4.618 1.524 0 1.749 1.666 2.064 15.25.507 21.896 3.464 26.25 17.826 26.25h7.5v-9.966l-3.818-.621c-6.625-1.077-7.141-2.273-7.509-17.446L345.845 479h5.378c5.823 0 7.777-1.16 7.777-4.618 0-4.612-.936-5.382-6.54-5.382-6.33 0-6.577-.422-6.299-10.771.124-4.606-.265-7.65-1.108-8.665-1.733-2.088-9.391-2.084-11.482.007m32.073-.3c-1.595 1.167-1.733 4.102-1.671 35.629.038 18.897.31 34.75.607 35.229.812 1.315 10.846 1.045 12.22-.329.838-.838 1.2-6.267 1.2-18 0-15.395.165-16.965 1.975-18.775 3.113-3.113 6.781-3.597 9.862-1.3l2.663 1.985.5 17.395c.275 9.567.864 17.958 1.309 18.645 1.462 2.259 11.428 1.609 12.734-.831 2.115-3.95.842-37.671-1.601-42.419-4.061-7.894-14.981-10.741-23.192-6.046l-4.25 2.43v-11.407c0-10.254-.195-11.511-1.934-12.442-2.666-1.426-8.324-1.298-10.422.236M228.38 469.835c-19.344 9.347-20.045 38.278-1.181 48.729 10.398 5.76 26.348 3.798 34.375-4.229 9.871-9.871 9.871-29.799 0-39.67-7.891-7.891-22.468-10.012-33.194-4.83m61.373-1.318c-21.971 8.069-22.315 42.112-.52 51.488 13.295 5.719 31.479-1.042 34.431-12.803 1.151-4.587-9.482-6.271-13.257-2.1-7.011 7.748-20.21 5.528-22.897-3.852l-.645-2.25h17.996c21.486 0 21.754-.114 20.726-8.854-2.038-17.346-19.234-27.725-35.834-21.629M414.2 468.2c-1.706 1.706-1.706 49.894 0 51.6 2.074 2.074 11.554 1.529 12.765-.734.628-1.174 1.035-11.033 1.035-25.066s-.407-23.892-1.035-25.066c-1.211-2.263-10.691-2.808-12.765-.734m31.968 1.403c-17.353 8.648-18.286 39.211-1.497 49.05 5.426 3.18 16.236 4.27 23.327 2.352 8.164-2.207 17.113-13.42 14.295-17.91-1.132-1.803-13.293-2.919-13.293-1.219 0 5.064-9.668 8.978-15.055 6.094-5.362-2.869-7.484-18.067-3.311-23.706 4.73-6.391 13.636-6.51 16.886-.226 1.432 2.771 1.909 2.962 7.383 2.962 7.36 0 8.8-1.339 7.072-6.577-3.947-11.959-22.357-17.522-35.807-10.82m52.469-1.138c-8.335 2.971-12.988 11.081-10.714 18.672 1.959 6.54 6.897 9.302 24.711 13.827 7.417 1.885 8.384 6.885 1.753 9.073-5.046 1.665-10.043.393-14.16-3.605-6.225-6.045-15.254-4.382-13.735 2.53 3.055 13.912 32.175 17.696 43.425 5.643 3.197-3.426 4.039-11.856 1.645-16.486-1.914-3.701-6.339-6.7-12.062-8.174-14.754-3.801-17.5-4.955-17.5-7.351 0-6.459 13.57-7.002 16.955-.679 1.598 2.986 11.59 3.093 12.529.135 3.113-9.808-18.439-18.721-32.847-13.585m-205.042 11.062c-3.147 1.642-5.197 3.962-5.938 6.723-.429 1.597.604 1.75 11.843 1.75 11.817 0 12.292-.08 11.79-1.998-1.659-6.344-11.231-9.846-17.695-6.475m-57.379.978c-9.432 4.098-9.276 24.065.22 28.033 9.52 3.977 16.987-2.243 16.876-14.058-.115-12.219-7.411-18.183-17.096-13.975m308.092 24.505c-5.573 2.244-7.501 11.027-3.382 15.411 8.179 8.706 21.448-1.208 15.375-11.488-2.418-4.094-7.468-5.746-11.993-3.923m-1.385 3.913c-5.179 5.179-1.973 12.962 5.372 13.045 7.671.087 10.439-10.985 3.628-14.508-4.059-2.099-5.705-1.831-9 1.463m4.665 1.32c-.441 1.509-1.203 2.495-1.695 2.191-.491-.304-.879.712-.861 2.257.03 2.686.096 2.724 1.5.868 1.401-1.852 1.473-1.806 1.584 1 .064 1.617.316 2.182.561 1.254.245-.928 1.655-2.13 3.134-2.671 1.73-.633 2.065-1.012.939-1.063a1.872 1.872 0 0 1-1.765-1.829c-.013-1.427-.182-1.487-.917-.326-.676 1.069-.999.694-1.29-1.5l-.389-2.924-.801 2.743" fill-rule="evenodd"/>
<path fill="#7c848a" stroke="#7c848a" d="M508.985 142.534c-3.86 8.854-13.159 24.387-18.964 31.677-3.692 4.636-3.943 5.296-2.552 6.687 1.392 1.391 1.779 1.3 3.929-.927 7.893-8.178 26.852-42.559 24.346-44.15-2.558-1.625-3.556-.633-6.759 6.713m19.394.716c-4.257 8.27-12.545 19.069-21.386 27.865-8.268 8.225-9.49 9.852-8.459 11.262 3.01 4.117 25.061-20.156 33.979-37.402 1.38-2.668 1.438-3.391.331-4.092-2.149-1.363-2.695-1.074-4.465 2.367m-41.877 17.5c-10.951 24.759-23.502 39.983-35.389 42.928-4.444 1.101-9.586 5.115-14.859 11.602a11147.36 11147.36 0 0 1-7.095 8.72c-1.121 1.375-4.07 5.286-6.553 8.69-10.822 14.84-31.451 24.987-55.249 27.174-14.954 1.375-28.895 9.424-31.009 17.904-.375 1.503-1.731 4.712-3.015 7.131-2.943 5.549-3.145 12.876-.447 16.209l1.887 2.33 4.068-3.676c7.079-6.394 11.097-7.882 20.398-7.552l8.163.29 1.347 9.407c1.612 11.252 1.864 10.745-12.751 25.648-10.838 11.052-12.391 11.458-26.385 6.887-9.329-3.047-10.615-2.656-3.681 1.118 6.448 3.509 6.43 3.574-1.984 6.961-11.837 4.765-10.825 5.587 2.552 2.073l9-2.364 1.369 5.432c.753 2.988 1.534 5.268 1.736 5.066.307-.307 1.137-6.669 1.338-10.254.099-1.785 8.17-.363 10.749 1.893 4.962 4.342 13.308 5.052 13.308 1.133 0-2.238-.407-2.5-3.889-2.5-2.269 0-4.824-.757-6.133-1.817-2.909-2.355-1.951-4.232 5.501-10.789 3.059-2.692 7.878-7.744 10.708-11.227l5.147-6.334-1.308-6.578c-.719-3.618-1.342-8.978-1.384-11.912-.077-5.284-.11-5.341-3.61-6.047-11.918-2.404-22.62-.274-31.782 6.327-3.234 2.33-3.031-.009.75-8.623 1.65-3.759 3-7.231 3-7.715 0-.483 1.688-2.522 3.75-4.53 5.268-5.128 13.259-8.448 22.25-9.243 27.503-2.431 48.615-13.274 60.81-31.232 3.834-5.645 6.638-9.064 15.557-18.965 2.682-2.978 5.651-4.943 9.688-6.415 14.554-5.307 26.144-19.372 37.976-46.088 4.69-10.591 4.795-11.812 1.016-11.812-.435 0-2.93 4.838-5.545 10.75m45.998 2.61c-12.007 12.231-25.052 22.252-36.25 27.846-4.538 2.266-8.243 4.385-8.235 4.707.23 8.785 31.593-11.475 52.868-34.15 4.517-4.814 5.181-5.981 4.128-7.25-1.789-2.156-1.528-2.34-12.511 8.847m-187.835 1.39c-3.454 23.022-3.385 40.725.155 40.049 1.456-.279 1.768-2.451 2.338-16.31.362-8.794 1.366-19.814 2.231-24.489 1.979-10.688 2.031-10-.75-10-2.236 0-2.448.574-3.974 10.75m11.976 5.444c-2.183 7.553-3.625 17.296-3.633 24.556-.008 5.916.119 6.25 2.369 6.25 2.199 0 2.345-.32 1.942-4.25-.24-2.338.536-9.2 1.724-15.25 2.78-14.158 2.863-15.864.794-16.279-1.246-.25-2.046.993-3.196 4.973m15.168-.944C366.34 179.663 362 191.799 362 196.675c0 1.959.444 2.399 2.167 2.145 1.8-.266 2.391-1.422 3.487-6.82.727-3.575 3.499-10.869 6.161-16.209 3.746-7.514 4.522-9.832 3.431-10.25-2.578-.989-3.189-.572-5.437 3.709m170.691 5.343c-10.066 9.23-25.215 18.449-35.25 21.452-4.097 1.226-5.747 3.912-3.324 5.409 5.668 3.503 50.868-26.382 46.983-31.064-1.63-1.964-1.747-1.905-8.409 4.203m-207.873-.343c-.334 1.238-.902 9.225-1.262 17.75-1.005 23.789.319 26.946 14.876 35.462 7.618 4.456 9.092 6.666 10.697 16.038 2.226 12.997 2.046 12.5 4.515 12.5h2.294l-1.928-10.75c-2.299-12.818-3.814-15.734-10.358-19.936-16.413-10.538-15.677-8.91-15.175-33.564.371-18.201.267-19.75-1.325-19.75-.95 0-2.001 1.012-2.334 2.25m48.865 5.5C379.356 183.901 373 196.432 373 200.434c0 4.473 3.466 3.295 4.953-1.684 1.85-6.19 4.664-11.32 8.603-15.68 2.219-2.457 3.246-4.422 2.85-5.455-.902-2.349-1.753-2.041-5.914 2.135m4.06 15.519c-6.858 6.561-7.666 8.09-4.849 9.171 1.137.436 2.579-.277 4.333-2.143 1.447-1.539 4.537-4.512 6.868-6.609 3.45-3.102 4.016-4.079 3.045-5.25-1.816-2.187-2.347-1.914-9.397 4.831m149.948.77c-9.906 5.823-26.528 10.787-41.75 12.469-4.95.547-5.75.925-5.75 2.712 0 4.62 28.083-.71 44.267-8.402 9.614-4.568 11.079-5.752 10.143-8.191-.806-2.103-.995-2.064-6.91 1.412m-142.25 7.991c-5.588 3.205-6.105 4.015-3.785 5.941 1.171.972 2.022.837 4.25-.677 1.532-1.04 3.987-2.406 5.456-3.035 2.008-.86 2.538-1.656 2.134-3.202-.714-2.73-1.834-2.595-8.055.973M526 214.658c-7.178 2.354-23.453 5.324-29.25 5.336-2.081.005-2.75.492-2.75 2.006 0 3.637 16.308 2.329 32.5-2.606 9.667-2.947 10.753-3.572 9.927-5.724-.796-2.075-1.21-2.036-10.427.988m-126.631 7.405c.939 10.103 2.655 13.592 7.843 15.947 5.564 2.525 6.796 2.478 6.752-.26-.027-1.643-1.17-2.789-4.242-4.25-4.475-2.128-4.81-2.868-6.226-13.75-.514-3.948-.97-4.75-2.701-4.75-1.975 0-2.048.363-1.426 7.063M514.5 229.92c-7.227 2.864-32.706 3.857-38.817 1.512-1.299-.499-1.683-.079-1.683 1.836 0 1.98.632 2.608 3.125 3.107 5.737 1.147 26.66.643 33.56-.81 9.385-1.975 10.181-2.36 9.588-4.63-.529-2.024-2.399-2.353-5.773-1.015m-49.164 12.647c-1.596 4.158 10.677 6.933 30.664 6.933 18.073 0 24-1.213 24-4.911v-2.334l-8.25 1.967c-10.221 2.438-26.365 1.924-37.487-1.193-8.669-2.43-8.181-2.405-8.927-.462m3.282 13.987c-.366.953-.506 1.892-.311 2.087.958.958 16.287 4.296 22.568 4.915l7.125.702v-2.629c0-2.503-.252-2.63-5.25-2.646-4.466-.015-9.533-.885-21.359-3.666-1.396-.329-2.333.089-2.773 1.237m-17.065 3.17c-1.781 4.64 22.173 14.769 37.787 15.979l7.84.607-.34-2.405c-.317-2.245-.871-2.449-8.34-3.061-9.535-.782-18.402-3.587-28.203-8.923-8.341-4.54-7.889-4.427-8.744-2.197m-268.539 11.028c-6.136 3.077-7.818 9.923-3.666 14.921 1.291 1.555 2.664 4.122 3.051 5.705.89 3.643 5.507 8.309 9.118 9.216 1.525.382 3.558 1.481 4.518 2.441 1.66 1.66 1.55 1.776-2.25 2.383-4.389.702-9.785 3.161-9.785 4.459 0 .455-1.462 2.356-3.249 4.225-6.803 7.115-2.462 17.898 7.206 17.898 2.159 0 4.185-.42 4.502-.934.318-.514 2.173-.675 4.123-.359 2.621.425 4.245.059 6.231-1.408 1.478-1.091 4.373-2.539 6.434-3.218 3.388-1.116 6.753-4.267 6.753-6.324 0-.439-1.782.111-3.96 1.223-2.178 1.111-4.695 2.02-5.592 2.02-.898 0-2.788.909-4.201 2.02-1.749 1.376-4.033 2.011-7.158 1.991-2.524-.016-5.836.022-7.361.084-5.572.229-7.859-5.964-3.728-10.095 1.1-1.1 2-2.417 2-2.927 0-1.802 5.308-5.073 8.231-5.073 1.628 0 4.155-.64 5.615-1.422 1.46-.781 3.47-1.678 4.467-1.992 2.215-.698 1.278-2.586-1.283-2.586-1.019 0-2.928-1.279-4.244-2.842-1.315-1.563-3.592-3.144-5.061-3.512-3.388-.85-6.704-4.362-7.408-7.845-.301-1.484-1.395-3.467-2.432-4.405-2.397-2.17-2.426-6.596-.056-8.741 2.017-1.825 6.701-2.225 7.671-.655.34.55 1.829 1.001 3.309 1.002 3.728.002 9.442 3.048 10.764 5.738.606 1.232 2.637 3.273 4.514 4.535 1.963 1.319 3.878 3.719 4.508 5.646l1.094 3.352 2.025-4.386c1.113-2.413 2.559-5.78 3.213-7.483 1.503-3.916 12.485-10.019 16.304-9.061 3.302.829 5.186 5.029 3.572 7.964-.663 1.206-1.267 3.652-1.343 5.436-.142 3.351-2.837 7.257-5.007 7.257-.68 0-1.526 1.155-1.88 2.567-.355 1.412-1.976 3.325-3.603 4.25-3.573 2.033-3.792 3.183-.605 3.183 2.807 0 7.635-3.538 7.635-5.594 0-.797 1.037-1.921 2.304-2.499 3.963-1.805 5.082-4.469 7.34-17.475 1.149-6.621-7.359-12.036-13.956-8.883-10.23 4.888-12.373 6.609-14.571 11.696l-1.617 3.744-3.5-3.416c-1.925-1.879-4.526-4.776-5.779-6.438-1.748-2.317-3.375-3.186-6.983-3.727-2.588-.388-6.16-1.313-7.939-2.057-4.074-1.702-4.096-1.701-8.285.401m269.462 2.323c-.362 1.142-.505 2.213-.317 2.382 2.647 2.374 23.525 10.543 26.946 10.543.492 0 .895-1.053.895-2.341 0-2.013-.748-2.508-5.341-3.536-2.937-.657-8.891-2.979-13.231-5.159-9.299-4.672-8.146-4.429-8.952-1.889M349.5 276.481c-2.521 2.077-2.76 2.633-1.5 3.48 2.861 1.923 6.605.877 7.019-1.961.686-4.711-1.06-5.192-5.519-1.519m86.343-.792c-2.744 3.306 15.623 15.753 29.089 19.713 6.793 1.999 7.702 1.994 8.485-.045.834-2.173.713-2.253-6.07-4.014-7.422-1.927-18.355-7.624-25.018-13.037-4.607-3.742-5.315-4.028-6.486-2.617M193 284.343c0 .704 12.233 10.657 13.099 10.657 3.136 0-2.31-5.943-8.309-9.068-3.635-1.893-4.79-2.276-4.79-1.589m34.062 4.324c-4.062 4.614-5.955 8.773-4.607 10.121.382.383 1.101.024 1.598-.796.496-.821 2.723-4.304 4.949-7.742 4.78-7.382 3.84-8.149-1.94-1.583m206.788 1.014c-1.791 2.157 6.241 9.547 15.461 14.224 7.169 3.638 7.149 3.636 8.001.595.464-1.659-.473-2.491-5.493-4.877-3.328-1.582-8.439-4.82-11.357-7.197-4.71-3.837-5.451-4.144-6.612-2.745m-11.281 6.869c-2.196 1.632-1.439 2.81 6.917 10.776 6.815 6.497 8.346 7.286 9.934 5.114 1.205-1.648.902-2.178-2.926-5.1-2.349-1.794-6.009-5.278-8.133-7.743-3.545-4.116-4.019-4.365-5.792-3.047m-206.926 8.219c-.546.883 6.755 15.741 8.161 16.61.395.244 1.48-.114 2.412-.795 1.547-1.131 1.356-1.756-2.205-7.205-4.376-6.698-7.539-9.952-8.368-8.61m206.467 5.142c-3.764 2.383 12.859 17.848 26.419 24.578 16.87 8.372 49.471 14.075 49.471 8.655 0-1.81-.585-2.145-3.75-2.15-24.067-.038-52.225-11.643-65.416-26.961-4.683-5.437-4.665-5.426-6.724-4.122m-220.265 3.574c-4.483 1.649-9.448 4.814-8.204 5.229 1.562.52 14.719-4.293 15.133-5.537.506-1.517-2.307-1.392-6.929.308m64.655-.519c-7.464 1.943-15.433 8.097-17.039 13.157-.554 1.745-.857 1.71-5.49-.638-15.031-7.616-27.171 5.456-19.917 21.447 1.811 3.99 2.164 4.278 3.551 2.891 1.387-1.386 1.384-1.914-.032-5.303-2.756-6.596-1.238-14.024 3.372-16.49 9.652-5.166 25.032 10.99 21.127 22.193-.972 2.789-.88 3.444.64 4.555 1.88 1.375 1.818 1.445 3.821-4.278.627-1.791.807-1.686 1.72 1 1.289 3.789 1.155 3.664 3.127 2.908 1.28-.491 1.524-1.402 1.052-3.919-1.752-9.34 10.813-14.674 22.085-9.376 4.161 1.956 9.483 6.934 9.483 8.87 0 .456.9.594 2 .307 2.476-.648 2.476-.997-.002-5.061-2.027-3.324-10.223-9.229-12.81-9.229-1.012 0-1.222-.648-.731-2.25 4.139-13.482-3.881-23.928-15.957-20.784m111.954 3.705c-1.89 1.395-1.841 1.535 1.489 4.267 4.053 3.326 4.434 2.402-6.838 16.562-3.941 4.95-7.43 10.223-7.754 11.717l-.588 2.718-10.631.282c-10.231.272-10.554.456-4.719 2.679 1.593.607.948 1.274-3.851 3.982-7.467 4.214-6.693 4.728 2.444 1.62 4.04-1.374 7.432-2.498 7.539-2.498.107 0 .78 2.813 1.495 6.25 1.406 6.756 2.563 5.33 2.842-3.5.065-2.062.455-3.783.868-3.824.413-.041 1.781-.266 3.041-.5 1.324-.246 3.48.454 5.111 1.659l2.82 2.086 12.1-3.046c13.727-3.454 17.506-5.152 24.925-11.198 4.873-3.971 5.134-4.401 3.663-6.027-1.493-1.649-1.939-1.465-7.666 3.149-8.937 7.201-30.806 13.954-33.456 10.331-2.138-2.925-1.497-4.558 4.865-12.38 12.859-15.812 13.632-17.989 8.033-22.635-3.422-2.84-3.963-3-5.732-1.694m-118.021 3.579c-7.361 4.991-9.303 9.558-6.621 15.574 1.147 2.572 2.363 5.688 2.704 6.926.826 3.004 1.648 2.829 3.709-.794 2.027-3.562 8.708-6.902 13.867-6.934 3.328-.02 3.681-.32 4.813-4.098 3.667-12.241-7.038-18.427-18.472-10.674m160.757 6.96c-1.97 1.97-1.515 2.461 7.06 7.608 12.313 7.391 17.314 9.7 31.629 14.603 12.561 4.303 13.046 4.39 13.664 2.445.793-2.501 2.146-1.765-12.543-6.821-10.566-3.637-27.901-12.003-36.371-17.553-1.739-1.139-2.518-1.203-3.439-.282m-4.585 6.991c-1.644.92-1.513 1.302 1.549 4.492 3.696 3.851 12.375 8.716 13.883 7.784 1.919-1.186.893-3.461-2.287-5.076-1.788-.907-5.072-3.125-7.299-4.928-3.199-2.589-4.426-3.066-5.846-2.272m-212.508 3.347c-3.522.764-8.062 2.487-10.089 3.828l-3.687 2.44.106 7.842c.08 5.918.573 8.536 2.008 10.673 1.361 2.026 1.841 4.312 1.69 8.047-.226 5.58 1.79 9.672 7.963 16.158l2.889 3.035-10.384 4.343c-15.05 6.294-17.593 9.054-17.593 19.092 0 5.137.795 6.394 3.41 5.39 1.188-.456 1.598-2.038 1.622-6.253.048-8.637-.05-8.559 22.265-17.713 14.737-6.046 19.4-5.517 29.791 3.378 3.64 3.115 6.912 3.732 6.912 1.301 0-1.732-8.407-8.315-13.873-10.863-4.605-2.147-6.242-2.414-11.457-1.869l-6.084.636-5.293-5.598c-3.912-4.137-5.293-6.361-5.293-8.526v-2.93l3.797 1.937c5.811 2.965 11.71 3.868 10.864 1.664-.363-.948-.661-1.912-.661-2.142 0-.23-.697-.418-1.548-.418-2.821 0-12.12-6.727-14.402-10.419-3.509-5.677-2.181-7.072 3.787-3.976 6.676 3.464 12.035 4.063 17.341 1.94 5.134-2.054 10.561-1.473 19.274 2.063 5.27 2.139 6.123 2.246 7.441.928 1.318-1.318.75-1.82-4.952-4.379-10.439-4.684-16.029-5.656-21.609-3.754-7.669 2.613-14.217 1.476-19.635-3.408-5.189-4.676-.873-8.117 12.29-9.799 4.08-.521 5.573-1.149 5.823-2.449.418-2.17-3.354-2.229-12.713-.199M295 338.5c.96 1.156 3.614 1.5 11.591 1.5 8.786 0 10.259-.226 9.771-1.5-.464-1.208-2.722-1.5-11.591-1.5-9.679 0-10.865.182-9.771 1.5m21 18.666c-1.593.662-7.714.806-16.874.397-13.858-.619-24.168.778-24.111 3.267.036 1.58 1.847 3.374 2.806 2.78 3.081-1.904 11.369-2.459 21.264-1.426 10.596 1.107 17.778.087 22.987-3.265 3.2-2.059-1.836-3.514-6.072-1.753m-56.562 3.828c-12.954 6.281-16.841 13.599-9.205 17.33 3.295 1.61 4.412 1.684 9.5.631 6.454-1.336 19.267-6.736 19.267-8.12 0-1.96-2.866-1.785-8.054.491-20.307 8.908-29.084 1.699-9.126-7.497 5.628-2.594 7.361-4.654 4.618-5.489-.516-.157-3.666 1.037-7 2.654m64.062 6.192c-11.495 14.674-16.369 16.866-17.932 8.064-1.074-6.043-1.354-6.138-10.866-3.673-10.022 2.597-18.702 6.949-18.702 9.377 0 2.06.044 2.057 4.75-.326 10.482-5.307 20.25-7.034 20.25-3.578 0 6.442 5.477 10.306 10.747 7.581 5.003-2.587 20.083-20.467 18.553-21.998-1.391-1.39-2.975-.329-6.8 4.553m-105.25-2.695c-3.799 1.651-4.655 5.152-1 4.087 7.598-2.214 8.402-2.041 11.71 2.525 3.69 5.095 3.088 5.709-5.71 5.827-5.36.071-6.38.887-3.796 3.032 1.013.841 3.431.995 7.97.509 6.43-.688 6.549-.657 9.164 2.452 6.615 7.86 18.895 9.635 30.662 4.432 3.879-1.716 5.836-6.445 2-4.834-18.288 7.68-24.984 5.783-33.852-9.592-5.951-10.319-9.174-11.904-17.148-8.438M336 370.677c-6.177 4.684-11.036 9.671-15.513 15.919-5.048 7.044-7.177 8.641-14.38 10.78l-5.238 1.555-1.36-3.254c-4.503-10.777-11.314-11.974-26.757-4.701-10.299 4.851-10.959 5.32-10.216 7.256.511 1.334 1.851.988 8.816-2.275 14.525-6.807 19.061-6.838 22.963-.158 2.511 4.3 2.361 4.39-9.33 5.586-6.988.715-9.985 1.411-9.985 2.318 0 4.036 36.291-1.065 41.45-5.826.522-.482 3.447-.881 6.5-.886 6.726-.012 16.05-4.67 16.05-8.02 0-1.857-.353-1.789-5.331 1.02-4.65 2.625-11.669 4.092-11.669 2.439 0-2.779 10.936-15.131 16.758-18.929 3.369-2.198 4.022-3.061 3.127-4.139-1.516-1.827-1.837-1.756-5.885 1.315m20.695 6.349c-1.417 1.114-4.653 5.151-7.193 8.971-5.947 8.945-14.093 16.175-23.45 20.812l-7.448 3.691-21.552.645c-14.053.42-23.541 1.169-27.267 2.152-6.555 1.728-12.268.919-16.922-2.395l-2.837-2.02 2.593-2.231c2.135-1.836 2.351-2.431 1.224-3.366-1.078-.895-3.601.545-11.856 6.764-12.324 9.284-11.616 9.058-11.823 3.776-.286-7.295-7.115-13.491-12.313-11.172-2.084.93-1.935 1.128 2.449 3.25 11.426 5.532 6.989 21.944-5.968 22.075-3.239.033-5.332 1.065-5.332 2.629 0 2.365 8.084 1.722 13.315-1.06 2.538-1.349 8.882-5.851 14.099-10.004l9.485-7.551 3.669 2.49c6.937 4.707 14.823 5.656 24.432 2.939 3.68-1.041 12.614-1.799 27-2.291 20.543-.702 21.726-.852 26.588-3.367 13.651-7.063 25.27-19.483 30.883-33.013 1.8-4.338 1.686-4.448-1.776-1.724m58.76 72.429c-2.999 2.998-3.104 5.45-.382 8.91 4.193 5.331 12.26 2.348 12.26-4.534 0-6.25-7.311-8.944-11.878-4.376m91.045-.89c-1.1.161-14.15.792-29 1.402-34.732 1.426-37.256 1.689-37.976 3.958-1.647 5.189-2.604 5.075 42.501 5.075 22.996 0 42.523-.273 43.393-.607 1.615-.62 2.175-5.683.975-8.811-.571-1.489-12.507-2.099-19.893-1.017m-356.833 1.102c-1.284 1.284-.771 68.829.533 70.133 1.717 1.717 9.294 1.514 10.791-.289.91-1.097 1.207-7.562 1.126-24.5-.067-13.987.263-23.011.842-23.011.993 0 2.973 3.293 17.436 29 10.626 18.886 11.717 20 19.589 20 9.428 0 9.016 1.488 9.016-32.571V459h115.962l.627-2.5c.345-1.375.345-3.625 0-5l-.627-2.5h-63.781c-48.274 0-64.073.292-64.981 1.2-.865.865-1.2 7.761-1.2 24.723 0 25.985.357 25.176-5.995 13.577-23.338-42.617-20.89-39.5-31.013-39.5-4.212 0-7.959.3-8.325.667m184.583-.005c-.876.354-1.25 3.324-1.25 9.921 0 9.317-.026 9.417-2.441 9.417-2.684 0-3.004.331-3.879 4.008-.772 3.246.502 5.224 3.46 5.373 2.355.119 2.361.156 2.86 16.119.552 17.667 1.12 19.673 6.645 23.459 2.9 1.987 4.819 2.432 10.695 2.481l7.16.06.318-3.882c.381-4.65-.52-5.722-5.494-6.53-5.632-.916-6.371-3.176-6.074-18.574l.25-12.985 3.5-.093c8.451-.225 8.144-.04 7.807-4.686l-.307-4.25-5.75-.3-5.75-.3v-8.368c0-11.156-.201-11.549-5.857-11.453-2.554.043-5.205.306-5.893.583m30.95.538c-1.719 1.719-1.719 67.881 0 69.6 2.053 2.053 10.557 1.522 11.765-.734.593-1.109 1.035-8.971 1.035-18.428v-16.493l2.635-2.072c3.291-2.59 7.427-2.653 10.504-.161 2.312 1.871 2.363 2.282 2.476 19.607.128 19.73.022 19.44 7.078 19.466 6.996.025 7.417-1.322 7.022-22.485-.358-19.167-.893-21.555-5.87-26.179-5.33-4.952-16.479-5.106-21.638-.299-1.214 1.131-2.234 1.701-2.267 1.267-.033-.434-.008-5.437.057-11.118.075-6.627-.306-10.838-1.062-11.75-1.455-1.752-10.042-1.914-11.735-.221m-133.231 18.272c-11.439 3.688-17.455 12.658-17.455 26.028 0 7.366.401 9.752 2.209 13.143 9.936 18.639 38.21 18.935 49.04.512 5.762-9.801 3.02-26.748-5.545-34.268-6.913-6.07-19.019-8.391-28.249-5.415m60.948-.599c-20.246 4.285-26.646 34.435-10.201 48.06 12.18 10.092 35.282 6.096 40.077-6.933 1.517-4.122.537-5-5.579-5-4.935 0-6.01.379-8.833 3.115-5.719 5.543-16.285 3.839-19.932-3.214-2.812-5.437-2.92-5.401 16.504-5.401 19.9 0 20.509-.183 20.341-6.121-.48-16.931-15.272-28.127-32.377-24.506m121.654.698C413.231 469.912 413 473.645 413 494c0 20.355.231 24.088 1.571 25.429 1.871 1.871 9.478 2.122 11.229.371 1.706-1.706 1.706-49.894 0-51.6-1.751-1.751-9.358-1.5-11.229.371m36.423-.703c-21.729 7.184-24.966 39.246-5.139 50.902 6.189 3.638 19.261 3.913 25.645.539 9.546-5.046 14.611-16.239 8.088-17.876-5.202-1.306-9.863-.072-11.591 3.067-4.256 7.734-14.024 7.207-17.982-.97-7.635-15.771 6.077-32.345 16.985-20.53 5.528 5.988 15 5.639 15-.552 0-9.662-18.942-18.569-31.006-14.58m50.364.023c-17.951 4.639-18.048 24.461-.145 29.561 17.569 5.005 17.267 4.873 17.597 7.735.769 6.653-11.909 8.017-18.164 1.954-4.055-3.93-13.021-4.686-14.13-1.191-2.357 7.425 10.169 15.531 23.984 15.521 14.251-.011 22-5.877 22-16.655 0-9.229-3.503-12.111-19.897-16.37-9.864-2.562-12.167-4.093-11.12-7.392 1.79-5.639 13.253-5.269 18.017.582.902 1.108 5.079 1.736 9.75 1.465 2.415-.14 2.287-4.538-.234-8.079-4.072-5.718-18.615-9.468-27.658-7.131m-206.323 10.394c-3.088 1.083-8.035 6.539-8.035 8.863 0 .469 5.625.852 12.5.852 13.534 0 13.435.045 10.496-4.775-2.949-4.836-9.288-6.929-14.961-4.94m-60.197 2.241c-8.04 4.366-7.524 24.562.723 28.32 11.121 5.067 20.33-4.695 17.914-18.992-1.517-8.98-10.759-13.607-18.637-9.328m307.195 26.445c-3.739 3.243-4.003 10.225-.51 13.463 6.395 5.926 15.539 2.124 15.659-6.511.107-7.754-9.265-12.055-15.149-6.952m.419 1.675c-3.187 3.439-3.186 7.711.003 10.899 5.239 5.24 13.545 1.754 13.545-5.685 0-7.29-8.568-10.587-13.548-5.214m4.548 3.295c0 .518.445 1.216.989 1.552.566.35.734-.051.393-.941-.665-1.732-1.382-2.049-1.382-.611m3.079 1.642c.048 1.165.285 1.402.604.605.289-.722.253-1.585-.079-1.917-.332-.332-.568.258-.525 1.312m-5.079.976c0 .857.457 1.276 1.016.931.559-.346.758-1.047.441-1.559-.857-1.387-1.457-1.129-1.457.628m3.079 2.024c.048 1.165.285 1.402.604.605.289-.722.253-1.585-.079-1.917-.332-.332-.568.258-.525 1.312" fill-rule="evenodd"/>
</svg>