<!DOCTYPE svg PUBLIC "-//W3C//DTD SVG 1.1//EN" "http://www.w3.org/Graphics/SVG/1.1/DTD/svg11.dtd">
<svg xmlns="http://www.w3.org/2000/svg" viewBox="0 0 746 681">
<path fill="#0773b9" d="M654.449 244.551c-8.479 4.185-8.534 16.808-.092 20.814C662.896 269.417 672 264.069 672 255c0-8.955-9.327-14.508-17.551-10.449m-.332 2.08c-5.494 3.848-5.947 11.651-.922 15.88 7.804 6.566 19.868-.731 16.763-10.139-2.185-6.619-10.359-9.581-15.841-5.741m-510.617.997c-23.201 4.906-41.781 22.997-47.625 46.372-2.303 9.213-1.975 105.33.389 113.887 6.282 22.74 26.573 41.126 49.746 45.077 4.649.793 72.021 1.026 237.49.822l231-.286 7.335-2.679c19.521-7.131 33.846-21.589 39.676-40.044l2.489-7.88v-52.239c0-43.887-.247-53.191-1.546-58.198-5.073-19.556-20.223-35.675-40.656-43.253L614.5 246.5l-232-.176c-201.481-.153-232.921.019-239 1.304M656 255c0 4.667.333 6 1.5 6 .883 0 1.5-.914 1.5-2.223v-2.222l1.557 2.222c.856 1.223 2.501 2.223 3.655 2.223 2.004 0 2.021-.086.363-1.917-1.397-1.543-1.513-2.33-.599-4.038 1.981-3.702.414-6.045-4.043-6.045H656v6m3-2.5c0 .917.484 1.505 1.075 1.308.591-.197 1.075-.786 1.075-1.308s-.484-1.111-1.075-1.308c-.591-.197-1.075.391-1.075 1.308m-516.5 5.381c-17.003 4.958-30.599 18.099-35.788 34.589-3.372 10.718-3.445 105.42-.089 115.201 4.391 12.794 14.801 24.94 26.448 30.859 11.519 5.853-4.574 5.515 249.114 5.23l232.315-.26 5.75-2.322c3.163-1.277 5.75-2.482 5.75-2.679 0-.196-11.968-18.239-26.595-40.094-14.628-21.856-26.781-40.226-27.007-40.821-.226-.596 2.589-5.134 6.255-10.084a45514.8 45514.8 0 0 1 16.312-22c5.304-7.15 9.984-13.562 10.399-14.25.584-.968-1.569-1.246-9.555-1.232l-10.309.018-3.212 4.732c-8.765 12.912-20.309 28.711-20.855 28.542-.339-.105-5.506-7.642-11.482-16.75L539.084 310h-21.22l1.91 2.75c1.051 1.512 8.506 12.062 16.568 23.443C544.404 347.575 551 357.265 551 357.727c0 .462-2.711 4.65-6.023 9.306A1378.66 1378.66 0 0 0 533.81 383c-2.829 4.125-7.478 10.65-10.332 14.5-2.853 3.85-5.98 8.238-6.948 9.75l-1.76 2.75 10.365-.037 10.365-.037 12.99-19.463c7.144-10.705 13.219-19.449 13.5-19.433.28.017 3.303 4.179 6.716 9.25 3.413 5.071 11.832 17.545 18.708 27.72l12.503 18.5-220.209.26c-154.107.183-221.775-.062-225.427-.814-16.507-3.4-30.394-17.374-33.394-33.602-.608-3.284-.885-21.638-.698-46.149l.311-40.695 3.201-6.759c3.781-7.981 11.36-16.368 18.113-20.043 10.751-5.852 7.607-5.698 116.396-5.698H358v136h20V273h111.951c78.098 0 113.553.335 117.25 1.109 12.637 2.644 24.065 11.593 29.879 23.4l3.42 6.944.29 43.379c.342 51.007.341 51.013-10.177 64.673-.793 1.03 7.946 15.388 9.387 15.421.962.023 6.862-8.471 9.399-13.53 4.515-9.004 4.703-11.889 4.393-67.534l-.292-52.517-4.186-8.422c-6.401-12.88-17.159-22.505-30.814-27.569-7.582-2.812-466.415-3.268-476-.473m61.615 49.56c-4.68 1.524-9.577 5.636-14.239 11.959L187 323.3v-15.378l-8.75.289-8.75.289-.259 50.25-.259 50.25H189l.015-30.25c.016-32.863.831-39.86 5.46-46.879 4.708-7.139 15.754-9.807 26.085-6.299 2.546.864 4.736 1.427 4.866 1.25 1.416-1.926 5.707-14.033 5.326-15.027-1.478-3.852-19.253-6.757-26.637-4.354m75.385-.792c-29.675 4.751-45.436 22.584-45.485 51.465-.057 32.948 20.505 52.933 54.395 52.869 29.39-.057 50.151-14.261 55.121-37.713 7.988-37.7-13.31-65.572-51.031-66.781-5.5-.176-11.35-.104-13 .16m162.5-.056c-29.247 5.291-45.927 24.143-45.985 51.973C395.947 391.15 417.511 411 452.977 411c24.253 0 42.373-9.124 50.309-25.332 3.399-6.941 3.386-7.668-.135-7.668-1.567 0-6.251-.288-10.409-.639l-7.56-.639-2.006 3.889c-10.792 20.916-46.285 22.089-59.912 1.979-3.152-4.649-4.435-8.146-5.814-15.84l-.673-3.75H507l-.015-6.25c-.054-22.803-13.841-41.449-35.401-47.876-6.857-2.044-23.711-3.343-29.584-2.281m-160.645 14.386c-5.798 1.232-13.346 5.244-17.28 9.185-12.946 12.969-12.696 44.148.458 57.303 13.176 13.175 37.787 12.52 50.762-1.351 11.643-12.448 11.995-41.553.657-54.433-7.708-8.757-22.386-13.298-34.597-10.704m160.669.56c-12.965 3.636-20.905 11.816-23.502 24.211l-.681 3.25H485v-2.462c0-17.406-22.788-30.661-42.976-24.999" fill-rule="evenodd"/>
</svg>