<!DOCTYPE svg PUBLIC "-//W3C//DTD SVG 1.1//EN" "http://www.w3.org/Graphics/SVG/1.1/DTD/svg11.dtd">
<svg xmlns="http://www.w3.org/2000/svg" viewBox="0 0 700 699">
<path fill="#fbfbfb" stroke="#fbfbfb" d="M304 30c0 3.333.444 6 1 6 .55 0 1-1.575 1-3.5 0-2.444.452-3.5 1.5-3.5 1.054 0 1.5 1.065 1.5 3.583 0 2.416.406 3.448 1.246 3.168 1.841-.613 1.675-7.731-.204-8.692-.848-.434-2.104-.587-2.792-.341-.687.247-1.25-.264-1.25-1.135S305.55 24 305 24c-.556 0-1 2.667-1 6m45.624-4.464c-.771 2.009.325 9.315 1.507 10.045 1.766 1.092 2.837-.659 1.608-2.627-.944-1.511-.952-2.384-.036-3.85.968-1.55.852-2.197-.636-3.543-1.674-1.516-1.87-1.517-2.443-.025M358 30.083c0 7.996 2.268 7.658 2.662-.397.219-4.462-.038-5.686-1.192-5.686-1.132 0-1.47 1.397-1.47 6.083M314.2 27.2c-2.01 2.01-1.499 7.57.762 8.288C318.103 36.485 321 34.332 321 31c0-4.046-4.205-6.395-6.8-3.8m8.362-.247c-.697 1.249.061 7.585.962 8.047.537.275 1.117-.962 1.289-2.75.407-4.222 3.187-4.492 3.187-.309 0 1.618.45 3.219 1 3.559.611.378 1-1.156 1-3.941 0-2.507-.337-4.617-.75-4.688-2.507-.431-6.429-.383-6.688.082m10.188.127c-4.549 2.65-.298 10.219 4.668 8.313 2.437-.935 1.879-2.215-1.168-2.677l-2.75-.416 2.75-.15c3.313-.181 3.842-3.495.816-5.115-2.302-1.232-2.12-1.234-4.316.045m8.812.501c-.869.869-1.25 2.106-.846 2.75.404.643.611 1.919.46 2.836-.311 1.892 2.708 3.198 5.191 2.246 1.11-.426 1.588-1.657 1.464-3.773-.319-5.418-3.105-7.223-6.269-4.059m22.198-.331c-3.083 2.376-2.621 7.496.753 8.343 4.929 1.237 8.006-6.174 3.553-8.558-2.412-1.29-2.348-1.294-4.306.215m8.892-.075c-1.868 1.045-2.258 6.332-.545 7.391.772.477.696.949-.25 1.559-1.923 1.24.813 2.979 4.143 2.634 2.329-.241 2.52-.677 2.794-6.384.314-6.512-1.322-7.897-6.142-5.2m8.936.728c-2.015 2.226-2.021 4.521-.017 6.526 3.877 3.876 9.58-1.491 6.59-6.202-1.302-2.052-4.852-2.226-6.573-.324m10.195-1.22c-3.788.995-1.626 9.265 2.432 9.302 3.747.033 4.162-3.912.585-5.562-2.968-1.369-3.023-1.465-.55-.953 1.512.312 2.75.2 2.75-.251 0-.982-2.172-3.267-2.95-3.103-.302.064-1.323.319-2.267.567m-76.61 3.976c.195 1.013 1.023 1.841 1.841 1.841 2.143 0 1.834-2.906-.355-3.327-1.336-.257-1.743.15-1.486 1.486m19.64-.976c.721.289 1.584.253 1.916-.079.332-.332-.258-.568-1.312-.525-1.165.048-1.402.285-.604.604m9 0c.721.289 1.584.253 1.916-.079.332-.332-.258-.568-1.312-.525-1.165.048-1.402.285-.604.604M364 31c0 1.506.522 2.046 1.75 1.81.962-.186 1.75-1 1.75-1.81s-.788-1.624-1.75-1.81c-1.228-.236-1.75.304-1.75 1.81m9.173-.341c.195 1.013 1.023 1.841 1.841 1.841 2.143 0 1.834-2.906-.355-3.327-1.336-.257-1.743.15-1.486 1.486M383 31c0 1.1.6 2 1.333 2 1.881 0 2.619-.962 1.991-2.598-.816-2.127-3.324-1.676-3.324.598M31 349.5V669l128.25-.246 128.25-.246-127.75-.258L32 667.992V31.007l131.25-.257 131.25-.257-131.75-.247L31 30v319.5M537 30.994l131.5.506v636l-128.5.506-128.5.505 129.25.245L670 669V30l-132.25.244-132.25.245 131.5.505m-193.187 1.689c.721.289 1.584.253 1.916-.079.332-.332-.258-.568-1.312-.525-1.165.048-1.402.285-.604.604m49 0c.721.289 1.584.253 1.916-.079.332-.332-.258-.568-1.312-.525-1.165.048-1.402.285-.604.604M374.5 36c-.34.55-.168 1 .382 1s1.278-.45 1.618-1c.34-.55.168-1-.382-1s-1.278.45-1.618 1m-33 146.581c-13.911 1.922-19.321 3.065-28.11 5.939-9.392 3.07-18.025 7.178-24.633 11.721-1.509 1.037-3.266 1.562-3.905 1.168-.673-.416-.893-.284-.523.314.351.568-1.042 2.151-3.095 3.518-5.549 3.693-17.436 15.001-20.659 19.651-1.553 2.24-3.287 3.786-3.853 3.436-.567-.35-.743-.17-.39.4.352.57-.18 2.102-1.183 3.404-26.537 34.447-26.688 91.788-.344 130.581 2.258 3.324 3.787 6.396 3.4 6.826-.388.43-.193.489.434.131 1.261-.721 7.052 6.229 6.524 7.83-.181.55-.003.673.396.274.938-.938 13.048 10.266 12.608 11.666-.184.583-.017.743.371.355.388-.387 3.342 1.086 6.565 3.275 38.611 26.22 94.762 26.329 129.653.253 1.791-1.339 3.773-2.114 4.404-1.724.65.402.879.272.526-.298-.342-.554 1.276-2.379 3.596-4.055 5.738-4.147 15.846-15.338 22.191-24.571 2.883-4.195 5.603-7.3 6.045-6.901.441.399.494.187.116-.471-.378-.659.862-4.259 2.754-8 17.18-33.969 13.67-83.647-8.015-113.437-3.493-4.798-4.209-6.501-2.218-5.271.721.446.882.274.43-.457-.398-.644-1.111-.931-1.586-.638-.474.294-1.566-.487-2.426-1.733C439.054 223.564 425 209 424.394 209c-.166 0-3.292-2.235-6.946-4.966-19.705-14.73-54.165-24.464-75.948-21.453m-8.333 18.974c-12.546 2.291-31.75 9.692-30.48 11.747.342.554.176.731-.369.395-3.746-2.315-30.889 22.59-34.117 31.303-.305.825-.837 1.725-1.181 2-1.437 1.149-5.019 7.933-7.39 14-10.391 26.588-9.197 55.299 3.336 80.221 6.018 11.967 9.968 17.434 11.258 15.581.625-.896.732-.67.344.727-.592 2.134 7.617 10.897 17.578 18.765 26.696 21.086 69.435 24.759 101.354 8.711 11.717-5.891 19.874-11.591 18.882-13.196-.426-.689-.237-.838.492-.387 2.815 1.74 19.82-19.276 25.557-31.585 12.096-25.955 12.472-56.613.999-81.637-4.769-10.404-10.388-19.344-11.663-18.556-.636.393-.786.196-.367-.482 1.261-2.04-17.036-19.163-26.569-24.864-20.269-12.121-45.277-16.831-67.664-12.743m6.018 15.401c-2.924.463-5.489 1.015-5.701 1.227-.212.212-.455 6.895-.54 14.851l-.155 14.466 17.105.274 17.106.273V233.14c0-14.607-.045-14.919-2.25-15.532-3.987-1.108-20.089-1.518-25.565-.652M307.5 228.229c-3.3 2.206-8.074 5.745-10.609 7.865-2.534 2.121-4.969 3.529-5.41 3.131-.441-.399-.521-.232-.178.37s-.935 2.796-2.84 4.876c-1.905 2.079-3.463 4.2-3.463 4.714 0 .513-.428.669-.95.346-.854-.528.227 2.094 7.204 17.469 10.98 24.196 25.556 57.382 25.914 59 .183.825.619 1.725.97 2 .35.275 1.39 2.3 2.311 4.5 1.545 3.692 1.759 3.846 2.777 2 .607-1.1 1.367-2.225 1.689-2.5.322-.275.675-.95.785-1.5.452-2.257 10.754-25.047 11.579-25.612.49-.336.853-.899.806-1.25A15.549 15.549 0 0 1 338 302c0-.611 4.679-1 12.036-1h12.035l2.065 4.75c1.136 2.613 2.178 5.2 2.317 5.75.138.55 2.568 5.856 5.399 11.791 2.832 5.936 5.148 11.223 5.148 11.75 0 .528.702.959 1.559.959s1.339-.356 1.07-.79c-.268-.435.134-2.123.894-3.75.76-1.628 4.143-9.26 7.516-16.96 3.374-7.7 6.548-14.151 7.054-14.335.506-.185.701-.689.434-1.122-.267-.432 4.23-11.229 9.994-23.994C411.284 262.285 416 251.283 416 250.6c0-.682-1.559-3.062-3.465-5.288-1.906-2.227-3.143-4.405-2.75-4.841.393-.435.213-.505-.401-.155s-1.964-.321-3-1.492c-1.036-1.172-4.449-4.033-7.585-6.36-3.135-2.326-5.385-4.579-5-5.007.386-.428.139-.454-.547-.059-.687.395-2.249.017-3.473-.84-1.223-.857-2.574-1.558-3.002-1.558-.427 0-.777 15.525-.777 34.5V294h-19.096l.156-13.75.155-13.75H333.5l-.5 14-.5 14h-18l-.213-34.88c-.117-19.184-.342-34.997-.5-35.141-.158-.144-2.987 1.543-6.287 3.75M271.164 277.8c-7.203 28.498 2.334 60.393 23.879 79.858 2.167 1.958 3.65 4.03 3.294 4.605-.384.623-.161.746.552.306.677-.419 2.592.322 4.404 1.703 6.136 4.677 13.442 7.86 14.101 6.145.321-.837.211-1.291-.244-1.01-1.177.728-24.439-52.13-23.565-53.545.408-.66.294-.905-.262-.562-.549.339-5.131-8.697-10.346-20.405-5.149-11.558-9.645-21.19-9.993-21.405-.347-.215-1.166 1.725-1.82 4.31m155.002-2.8c-1.172 3.01-4.025 9.534-7.432 17C408.523 314.374 384 370.138 384 370.982c0 .492.881.827 1.957.746 1.076-.081 1.75-.354 1.497-.607-.253-.253 1.454-1.571 3.793-2.929 2.339-1.358 6.39-4.234 9.003-6.39 2.689-2.22 5.25-3.611 5.904-3.207.738.456.883.273.4-.507-1.044-1.69 2.613-4.371 3.755-2.753.475.673.566.251.216-1.001-.583-2.083.742-3.784 2.975-3.819a1.083 1.083 0 0 0 1.048-1.015c.093-1.962 4.141-7.479 4.949-6.746.453.41.498.18.1-.511-.398-.691.148-2.491 1.214-4 8.549-12.106 12.95-36.017 9.844-53.492-1.928-10.852-3.082-13.359-4.489-9.751m-79.107 52.767a855.005 855.005 0 0 1-5.128 11.733c-1.478 3.3-4.372 9.825-6.431 14.5a1604.354 1604.354 0 0 1-6.622 14.82c-1.583 3.476-2.878 6.468-2.878 6.65 0 .182 2.363.938 5.25 1.68 10.8 2.777 42.75 1.14 42.75-2.19 0-.803-7.747-18.432-13.166-29.96-1.681-3.575-3.118-7.469-3.195-8.654-.076-1.185-.414-1.984-.75-1.777-.337.208-1.85-2.535-3.363-6.096-3.34-7.858-3.418-7.867-6.467-.706M149 479.5V504h12v-21h19v21h12v-49h-12v18h-19.142l.321-9.002.321-9.003-6.25.003L149 455v24.5m57-7.059c-1.925 1.279-3.849 2.119-4.275 1.868-.426-.252-.694-.087-.595.367.098.453-.566 2.497-1.476 4.542-6.139 13.797 3.32 26.54 18.846 25.386 9.566-.712 10.441-.89 9.763-1.988-.35-.566.176-.661 1.292-.233 1.036.397 1.573.411 1.192.031-.38-.38.409-1.999 1.754-3.598 3.793-4.508 5.129-10.119 3.607-15.151-.693-2.291-1.322-4.919-1.398-5.842-.076-.922-.432-1.495-.791-1.273-.358.221-1.498-.533-2.533-1.676-5.016-5.543-18.728-6.857-25.386-2.433m41.934.268c-3.952 3.325-6.883 9.519-6.912 14.606-.023 4.072 3.601 13.685 5.16 13.685.515 0 .612.563.217 1.25-.396.688-.365.93.067.54.433-.391 2.058-.053 3.611.75 3.682 1.904 11.885 1.875 14.635-.051 1.365-.956 2.386-1.139 2.781-.5.344.556 3.073 1.011 6.066 1.011H279v-33h-6.059c-4.38 0-5.858.325-5.334 1.173.399.645-.35.42-1.664-.5-4.09-2.865-14.054-2.292-18.009 1.036M309.957 471c-.021.275-1.43 2.075-3.131 4-1.702 1.925-2.814 2.689-2.471 1.698.342-.991.213-1.549-.286-1.24-.5.308-1.797-.568-2.883-1.948-1.782-2.266-2.676-2.51-9.202-2.51-6.216 0-7.059.204-6.02 1.456.664.801.875 1.996.468 2.655-.446.72-.318.936.32.542.961-.593 10.248 8.665 10.248 10.217 0 .359-3.375 4.321-7.5 8.804-4.125 4.483-7.5 8.415-7.5 8.738 0 .324 3.271.588 7.27.588h7.269l3.981-5.046 3.98-5.047 4.5 5.066 4.5 5.067 6.75-.02c3.712-.011 6.75-.283 6.75-.603 0-.321-3.44-4.451-7.645-9.177l-7.646-8.593 2.582-2.221c1.42-1.221 2.393-2.408 2.164-2.638-.23-.23 1.373-2.168 3.563-4.306 2.19-2.138 3.982-4.21 3.982-4.603 0-.796-13.982-1.671-14.043-.879m41.422 7c-2.012 4.4-3.975 8-4.363 8-.388 0-2.238-3.36-4.111-7.466l-3.405-7.465-6.25-.035c-3.437-.019-6.25.201-6.25.488s1.805 4.112 4.011 8.5c2.206 4.388 3.669 7.985 3.25 7.993-.418.009-.256.346.362.75.617.404 2.76 3.997 4.762 7.985 3.545 7.06 3.738 7.25 7.378 7.246 3.621-.004 3.815-.191 6.237-5.996 1.375-3.295 2.864-5.993 3.309-5.996.445-.002.572-.388.282-.857s.03-1.614.711-2.545c1.073-1.468 1.707-.587 4.751 6.602l3.512 8.296H373.5l6.117-12.216c3.364-6.72 6.474-11.895 6.91-11.5.437.394.478.167.092-.505-.385-.671-.007-2.561.84-4.2 2.146-4.149 2.224-4.079-4.508-4.079h-6.05l-3.561 7.5c-1.959 4.125-3.85 7.494-4.201 7.487-.351-.007-2.293-3.607-4.314-8-3.423-7.44-3.884-7.987-6.732-7.987-2.851 0-3.305.542-6.714 8m46.592-6.376c-10.192 6.331-10.234 24.365-.073 31.118 4.691 3.117 12.719 3.134 16.66.033 2.295-1.804 2.703-1.899 2.167-.5-.581 1.514.066 1.725 5.306 1.725H428v-33l-4.75-.077c-2.613-.042-5.563-.23-6.556-.419-1.549-.295-1.62-.108-.5 1.309 1.158 1.465.999 1.456-1.409-.08-3.5-2.234-13.29-2.298-16.814-.109m43.333.332c-8.447 5.151-10.376 19.052-3.737 26.941 4.956 5.89 15.86 7.741 20.557 3.491 1.78-1.611 1.876-1.587 1.876.457 0 1.185-.436 2.155-.969 2.155-.532 0-.684.74-.337 1.645 1.494 3.892-7.866 6.032-11.041 2.524-.912-1.007-1.467-2.02-1.234-2.25.233-.231-2.466-.268-5.998-.084-7.832.409-8.373 2.031-2.671 8.019 8.562 8.992 25.619 7.952 31.156-1.9 1.922-3.421 2.094-5.292 2.094-22.84V471h-5.5c-3.197 0-5.5.443-5.5 1.057 0 .592-.977.372-2.223-.5-3.235-2.267-12.468-2.043-16.473.399m43.696-.31c-7.277 4.638-10.2 15.434-6.457 23.856.977 2.199 1.817 4.448 1.867 4.998.049.55.54 1.019 1.09 1.042.55.023 2.44.81 4.2 1.75 4.258 2.272 14.682 2.226 18.97-.084 3.991-2.151 7.698-6.806 6.957-8.737-.783-2.04-9.929-2.017-11.627.029-2.322 2.798-11.257 1.343-9.474-1.543.51-.824.38-1.017-.371-.552-.685.422-1.155.078-1.155-.846 0-1.254 1.285-1.559 6.559-1.559 4.981 0 6.378.301 5.808 1.25-.586.976-.43.991.711.069.804-.65 3.477-1.325 5.942-1.5l4.48-.319-.196-4.315c-.241-5.313-2.849-9.962-7.256-12.932-4.194-2.826-16.004-3.184-20.048-.607m47.063-.027c-1.711 1.233-2.556 1.402-2.834.569-.24-.722-2.519-1.188-5.812-1.188H518v33h11v-9.777c0-11.146 1.267-14.223 5.857-14.223 4.568 0 5.143 1.481 5.143 13.25v10.85l5.75-.3 5.75-.3.17-12.852.17-12.852-3.255-3.552c-4.021-4.387-12.262-5.697-16.522-2.625m-41.408 8.21c-2.379 2.629-2.303 2.671 4.847 2.671 6.992 0 7.483-.299 4.669-2.845-2.427-2.197-7.454-2.105-9.516.174m-278.159 1.421c-3.122 2.686-3.597 7.42-1.124 11.196 3.456 5.274 13.628 1.916 13.628-4.499 0-2.698-1.1-5.003-2.093-4.389-.486.3-.638-.094-.338-.877s-.178-1.701-1.063-2.041c-1.075-.412-1.402-.205-.984.621.345.682-.019.451-.808-.511-1.928-2.352-4.076-2.203-7.218.5m44.373-.74c-1.448.786-2.921 2.182-3.273 3.101-.562 1.464-.422 1.501 1.131.298 1.692-1.312 1.693-1.281.023.687-5.087 5.992 5.356 14.364 10.638 8.528 2.018-2.23 3.569-9.833 1.78-8.728-.731.452-.939.17-.575-.776.371-.968-.487-2.031-2.462-3.052-3.635-1.88-3.906-1.882-7.262-.058m149.631-.355c-7.421 4.058-5.265 14.845 2.966 14.845 5.769 0 9.351-6.736 6.457-12.143-.633-1.184-1.684-1.779-2.552-1.446-.811.311-1.229.168-.929-.318 1.156-1.87-3.03-2.531-5.942-.938m43.965-.194c-2.128.853-5.256 4.039-3.965 4.039.41 0 .185.675-.499 1.499-1.9 2.289.479 7.124 4.131 8.397 7.347 2.561 13.72-5.633 8.691-11.174-2.708-2.984-5.5-3.907-8.358-2.761M308.806 655c-.36.825-1.564 3.975-2.678 7-1.113 3.025-2.047 4.712-2.076 3.75-.07-2.353-1.766-2.227-2.532.188-.354 1.115-1.763 2.113-3.318 2.35-2.456.375-2.407.426.548.562 3.019.139 3.25.399 3.25 3.65 0 4.995 1.566 4.324 3.5-1.5 2.126-6.401 2.189-6.342 2.052 1.947-.179 10.84.753 11.6 3.711 3.027 1.418-4.11 2.615-6.461 2.658-5.224.097 2.76 1.72 2.957 2.56.31.397-1.252 1.752-2.082 3.817-2.34 3.093-.386 3.075-.405-.548-.56-3.589-.153-3.75-.311-3.75-3.66 0-4.787-1.124-4.384-3.5 1.254l-2 4.746-.521-8.5c-.286-4.675-.814-7.825-1.173-7M336 666.952c0 5.455.159 5.845 2.578 6.308 1.968.376 2.773-.011 3.4-1.634.741-1.917.891-1.954 1.529-.376.389.962 1.345 1.75 2.126 1.75 1.206 0 1.194-.434-.081-2.899-1.314-2.542-1.319-3.05-.037-4.113 1.62-1.345 2.136-.576 2.686 4.002.164 1.369.986 2.62 1.826 2.78 1.372.261 1.822-3.964 1.067-10.02-.142-1.137-3.094-.898-3.094.25 0 .55-.873 1-1.941 1s-2.286.558-2.707 1.24c-.522.844-.946.479-1.329-1.141-.396-1.68-1.365-2.466-3.292-2.671-2.695-.288-2.731-.215-2.731 5.524m33 .048c0 4.774.319 6 1.563 6 .889 0 1.486-.754 1.385-1.75-.369-3.628.093-5.403 1.302-4.999.749.25 1.12 1.686.925 3.583-.242 2.353.079 3.166 1.25 3.166.866 0 1.575-.505 1.575-1.122 0-.795.422-.773 1.445.076 1.672 1.388 6.198 1.031 5.76-.454-.163-.55-1.175-.859-2.25-.687-1.075.172-1.955-.166-1.955-.75 0-.585 1.125-1.063 2.5-1.063 1.825 0 2.5-.535 2.5-1.981 0-2.553-4.369-3.784-6.676-1.881-1.288 1.064-1.741 1.089-2.07.112-.231-.687-1.235-1.25-2.23-1.25-.996 0-2.069-.675-2.386-1.5-1.316-3.431-2.638-1.177-2.638 4.5m24-4c0 .55-1.575 1-3.5 1-3.475 0-3.5.032-3.5 4.441 0 2.443.45 4.719 1 5.059 1.083.669 1.143.49 1.357-4 .111-2.33.664-3.074 2.477-3.331 2.096-.296 2.3.009 2 3l-.334 3.331 5.75.3c3.539.185 5.75-.104 5.75-.75 0-.578-.933-1.05-2.073-1.05h-2.072l2.072-2.635c2.964-3.767 2.631-4.365-2.427-4.365-2.475 0-4.5-.45-4.5-1s-.45-1-1-1-1 .45-1 1m-55.245 2.5c.263 1.375.651 2.5.862 2.5.21 0 .383-1.125.383-2.5s-.388-2.5-.861-2.5c-.474 0-.647 1.125-.384 2.5m-10.74-1.25c.136 2.261 3.167 8.326 4.273 8.551 1.414.287 3.712-4.326 3.712-7.45 0-2.357-1.796-1.458-2.793 1.399l-.96 2.75-.732-2.75c-.54-2.031-3.603-4.219-3.5-2.5m26.556 1.321c-3.02 3.021-1.282 7.429 2.929 7.429 1.155 0 2.64-.54 3.3-1.2.933-.933 1.2-.933 1.2 0 0 .66.675 1.2 1.5 1.2.993 0 1.5-.993 1.5-2.941 0-1.618.45-3.219 1-3.559 1.842-1.139 1.025-2.5-1.5-2.5-1.703 0-2.51.558-2.53 1.75-.029 1.667-.079 1.667-1.05 0-1.266-2.174-4.269-2.259-6.349-.179m2.068 1.123c-1.236 1.236-.622 4.306.861 4.306.825 0 1.5-.873 1.5-1.941 0-2.087-1.318-3.408-2.361-2.365M380 667c0 .55.675 1 1.5 1s1.5-.45 1.5-1-.675-1-1.5-1-1.5.45-1.5 1m15 1.5c0 2.962.335 3.05 2.989.778 2.682-2.297 2.535-3.278-.489-3.278-2 0-2.5.5-2.5 2.5" fill-rule="evenodd"/>
<path fill="#b8bac0" stroke="#b8bac0" d="M327.785 184.916c-85.736 18.688-121.236 117.737-66.559 185.705 41.894 52.077 120.562 56.447 168.816 9.379 24.978-24.364 35.88-51.563 34.674-86.5-1.8-52.133-35.738-93.82-87.685-107.707-11.234-3.003-37.355-3.468-49.246-.877m6.046 16.048c-62.454 11.327-98.461 77.316-73.804 135.259 23.957 56.297 96.382 77.205 145.813 42.093 68.242-48.473 50.057-153.557-30.34-175.324-8.871-2.402-33.103-3.581-41.669-2.028m1.919 16.752-2.75.417V247h34v-28.75l-3.125-.625c-3.339-.668-23.547-.602-28.125.091M305 230.385c-3.575 2.364-9.75 7.733-13.723 11.931l-7.224 7.634 3.486 7.775c1.916 4.276 10.373 23.3 18.792 42.275 8.419 18.975 15.678 34.416 16.13 34.313.453-.103 4.08-7.528 8.06-16.5l7.237-16.313 12.371-.261 12.371-.261 7.5 17.007c4.125 9.355 7.733 17.01 8.019 17.012.285.001 9.006-19.085 19.379-42.414l18.861-42.417-4.214-4.998C405.253 237.113 390.89 226 387.271 226c-1.079 0-1.324 4.389-1.27 22.75.037 12.512.052 28.038.033 34.5L386 295h-19v-28h-34v28h-19v-34.5c0-26.956-.273-34.491-1.25-34.457-.687.024-4.175 1.978-7.75 4.342m-33.919 48.865c-6.976 28.999 4.314 62.335 27.443 81.032 6.546 5.291 16.296 11.231 17.107 10.42.282-.281-7.894-19.342-18.168-42.357s-19.869-44.654-21.322-48.087c-3.208-7.582-3.467-7.634-5.06-1.008m154.618-2.108c-.78 1.847-9.865 22.258-20.19 45.358-24.209 54.164-22.045 48.916-19.828 48.085 8.609-3.228 23.606-15.925 30.926-26.182 12.235-17.147 17.677-43.814 12.998-63.699-1.719-7.304-2.157-7.704-3.906-3.562m-87.108 70.63c-13.654 30.949-13.011 27.766-5.934 29.383 12.429 2.84 41.388.708 40.595-2.989-.543-2.528-22.53-51.164-23.12-51.143-.348.013-5.541 11.15-11.541 24.749M149.232 479.25l.268 24.25 5.75.3 5.75.3V483h18.93l.285 10.25.285 10.25 5.75.3 5.75.3V455h-12v18h-19v-18h-12.036l.268 24.25m57.728-6.947c-14.2 7.509-10.357 29.865 5.544 32.25 14.595 2.189 24.242-5.557 23.292-18.7-.969-13.397-15.878-20.402-28.836-13.55m42.281-.308c-11.471 6.993-10.341 25.248 1.957 31.607 3.94 2.038 12.001 1.433 14.812-1.111 1.84-1.665 1.99-1.672 1.99-.094 0 1.432.849 1.659 5.25 1.405l5.25-.302.275-16.25.275-16.25h-5.442c-3.313 0-5.596.465-5.837 1.188-.281.842-1.097.697-2.806-.5-3.394-2.377-11.585-2.217-15.724.307m102.141 6.496c-2.135 4.67-4.107 8.489-4.382 8.487-.275-.003-2.154-3.598-4.175-7.991L339.151 471h-6.076c-3.341 0-6.075.168-6.075.374 0 .205 3.626 7.656 8.057 16.557l8.057 16.183 3.605-.307c3.487-.297 3.719-.574 7.157-8.557 1.954-4.538 3.851-8.25 4.217-8.25.365 0 2.26 3.712 4.21 8.25 3.412 7.94 3.679 8.262 7.086 8.558l3.541.309 8.035-16.047c4.419-8.826 8.035-16.277 8.035-16.558 0-.282-2.6-.512-5.778-.512h-5.778l-4.119 8.25-4.119 8.25-4.228-8.75c-3.79-7.846-4.511-8.75-6.97-8.75-2.47 0-3.129.844-6.626 8.491m46.57-6.238c-10.176 6.858-10.226 22.588-.097 30.247 3.672 2.777 14.013 2.834 17.04.095 1.907-1.726 2.105-1.745 2.105-.198 0 1.432.849 1.659 5.25 1.405l5.25-.302.275-16.25.275-16.25h-5.442c-3.313 0-5.596.465-5.837 1.188-.281.842-1.097.697-2.806-.5-3.615-2.532-11.848-2.241-16.013.565m44.032-.399c-10.185 5.42-10.844 23.092-1.109 29.707 4.324 2.938 13.299 3.407 16.902.882 2.154-1.508 2.223-1.46 2.223 1.546 0 6.977-9.09 10.513-12.872 5.008-2.204-3.208-13.568-2.979-12.564.253 3.983 12.828 25.466 15.641 33.831 4.43 1.945-2.607 2.13-4.332 2.43-22.75l.325-19.93h-5.575c-3.433 0-5.575.428-5.575 1.115 0 .685-.951.492-2.465-.5-3.341-2.189-11.215-2.068-15.551.239m42.914.404c-9.709 6.452-10.253 23.08-.972 29.69 3.866 2.752 13.196 3.827 18.378 2.117 3.333-1.1 9.696-7.01 9.696-9.006 0-1.959-10.056-2.365-11.447-.462-2.006 2.744-8.31 2.421-10.715-.548-3.256-4.022-2.029-4.549 10.601-4.549h11.769l-.423-5.092c-.789-9.489-6.776-14.408-17.538-14.408-4.508 0-6.775.548-9.349 2.258m47.813-.366c-2.931 1.495-3.711 1.6-3.711.5 0-1.021-1.467-1.392-5.5-1.392H518v33h11v-10.345c0-11.37 1.039-13.655 6.206-13.655 4.248 0 5.219 2.349 5.637 13.629l.384 10.371H551v-13.277c0-14.853-.684-16.858-6.599-19.329-4.486-1.874-7.268-1.756-11.69.498m-245.164 2.358a650.545 650.545 0 0 0 6.697 7.298l3.776 4.048-8.069 8.952-8.069 8.952 6.809.317 6.809.317 4.586-5.166 4.586-5.166 4.504 5.149 4.503 5.148 6.863-.3 6.863-.299-7.688-8.5c-4.228-4.675-7.693-8.725-7.699-9-.006-.275 2.718-3.65 6.054-7.5l6.064-7-6.776-.3c-6.687-.297-6.815-.254-9.818 3.287l-3.042 3.588-2.793-3.537c-2.731-3.46-2.95-3.538-9.937-3.538h-7.144l2.921 3.25m204.953 3.953c-2.087 1.175-3.459 2.768-3.485 4.047-.008.413 2.91.75 6.485.75 6.762 0 7.699-.637 4.75-3.227-2.57-2.257-5.482-2.847-7.75-1.57m-280.299 2.825c-4.412 4.11-3.852 10.189 1.246 13.529 4.955 3.247 11.553-.81 11.553-7.102 0-7.031-7.896-10.996-12.799-6.427m43.434.045c-7.198 5.661.226 17.636 8.334 13.443 7.084-3.663 4.434-15.516-3.469-15.516-1.227 0-3.416.933-4.865 2.073m149 0c-4.737 3.726-3.314 11.798 2.434 13.801 7.991 2.786 13.605-7.291 7.476-13.419-2.999-3-6.415-3.132-9.91-.382m44.68-1.066c-7.955 3.205-4.014 16.007 4.508 14.642 7.961-1.274 10.006-10.617 3.105-14.186-3.181-1.645-4.469-1.722-7.613-.456" fill-rule="evenodd"/>
<path fill="#0c589e" stroke="#0c589e" d="M332.5 184.542c-82.638 13.564-123.905 107.325-77.802 176.766 52.296 78.767 173.472 62.854 204.138-26.808 27.635-80.799-42.257-163.758-126.336-149.958m6.5 15.483c-81.546 9.403-116.069 108.762-58.049 167.066 33.135 33.296 86.143 38.394 124.379 11.961 55.93-38.664 57.611-119.879 3.318-160.238-19.82-14.733-45.274-21.6-69.648-18.789m-1.75 17.698-3.25.404V247h32v-28.728l-4.64-.636c-4.826-.662-18.474-.612-24.11.087m-31.386 12.469C299.223 234.567 285 248.132 285 250.09c0 .959 11.61 27.745 20.983 48.41 1.497 3.3 5.774 12.876 9.506 21.279 3.732 8.404 6.906 15.154 7.052 15 .147-.153 3.659-7.929 7.804-17.279l7.537-17h24.541l7.512 16.75c4.131 9.212 7.749 16.75 8.039 16.75.498 0 8.344-16.942 17.599-38 2.296-5.225 7.208-16.25 10.914-24.5 3.707-8.25 7.357-16.432 8.112-18.183l1.372-3.182-7.534-8.008c-6.123-6.51-18.595-16.127-20.912-16.127-.289 0-.525 15.525-.525 34.5V295h-20v-28h-33v28h-20.5l.175-34.5c.096-18.975-.19-34.5-.636-34.5s-3.675 1.887-7.175 4.192M426.2 276.699c-.567 1.541-10.248 23.388-21.513 48.551-11.265 25.163-20.191 45.75-19.835 45.75.357 0 4.238-2.3 8.626-5.112 28.077-17.989 42.276-50.864 36.042-83.447-1.734-9.063-1.956-9.447-3.32-5.742m-155.319 5.051c-6.124 30.716 6.967 63.594 32.524 81.684 7.788 5.513 13.107 8.285 12.312 6.417-2.327-5.469-36.405-81.664-38.752-86.646-1.631-3.462-2.965-6.725-2.965-7.25 0-3.523-2.004.2-3.119 5.795m77.687 44.376c-13.874 30.835-21.407 48.325-21.058 48.89 2.672 4.324 45.49 4.015 45.49-.328 0-.935-21.742-50.535-22.601-51.562-.172-.205-.996 1.145-1.831 3M149.999 479.25l-.002 24.25 5.502-.343 5.501-.342V483h20l-.001 10.25v10.25l5.25-.129 5.251-.13.268-24.12.268-24.121h-10.961l-.287 9.25-.288 9.25-9.75.334-9.75.334V455h-11l-.001 24.25m59.369-8.222c-8.393 2.594-13.281 13.675-9.916 22.486 7.097 18.582 36.548 13.267 36.548-6.596 0-11.916-13.473-19.955-26.632-15.89m40.839.584c-7.693 3.924-10.994 17.998-5.957 25.398 5.083 7.469 13.584 10.056 20.205 6.149 1.95-1.15 3.545-1.7 3.545-1.222 0 .479 2.25 1.026 5.001 1.216l5 .347v-16.25L278 471h-5c-3.986 0-5 .336-5 1.655 0 1.484-.208 1.467-2.015-.169-2.836-2.566-11.519-3.047-15.778-.874m148.777.242c-5.122 2.726-7.947 8.31-7.968 15.748-.034 12.881 11.676 21.082 22.234 15.571 2.063-1.077 3.75-1.599 3.75-1.162 0 .438 2.25.952 5.001 1.142l5 .347v-16.25L427 471h-5c-3.756 0-5 .37-5 1.485 0 1.212-.598 1.121-3.25-.496-4.088-2.493-10.229-2.549-14.766-.135m44.466-.447c-6.711 2.923-10.291 10.289-9.146 18.82 1.414 10.547 13.475 17.041 22.746 12.247l2.95-1.525v3.525c0 7.065-7.541 10.076-12.591 5.026-3.311-3.312-12.409-3.734-12.409-.577 0 8.442 17.891 14.408 27.966 9.325 6.667-3.363 7.493-6.303 7.86-27.998l.327-19.25h-5.577c-4.404 0-5.576.33-5.576 1.573 0 1.303-.451 1.218-2.635-.5-3.062-2.409-9.236-2.704-13.915-.666m42.955.441c-11.264 5.268-12.314 23.702-1.724 30.26 8.913 5.519 26.319 1.147 26.319-6.611 0-2.275-8.063-2.593-10.817-.426-3.321 2.612-6.777 2.426-9.728-.526-4.877-4.876-3.711-5.545 9.675-5.545h12.13l-.52-4.614c-1.299-11.526-14.029-17.826-25.335-12.538M286 471.616c0 .339 2.744 3.712 6.099 7.495l6.098 6.879-7.598 8.37c-4.18 4.603-7.6 8.543-7.6 8.755-.001.212 3.146.16 6.993-.115 6.904-.494 7.044-.56 10.874-5.205l3.879-4.705 3.878 4.863 3.877 4.863 7 .366c3.85.201 7.091.339 7.203.306.111-.033-3.151-3.817-7.25-8.408-4.099-4.592-7.453-8.712-7.453-9.157 0-.444 2.681-3.871 5.958-7.615l5.958-6.808-6.404-.294c-6.255-.288-6.482-.209-9.791 3.401l-3.388 3.697-2.785-3.652c-2.692-3.53-2.998-3.652-9.167-3.652-3.509 0-6.381.277-6.381.616m49.029 15.442 8.041 16.059 3.698-.309c3.608-.3 3.785-.51 7.215-8.535 1.934-4.525 3.758-8.238 4.053-8.25.294-.013 2.137 3.689 4.094 8.225 3.362 7.792 3.756 8.281 7.127 8.829l3.568.58 6.294-12.579c3.462-6.918 7.079-14.265 8.039-16.328l1.744-3.75h-11.606l-4.057 8.714-4.058 8.714-4.026-8.714c-3.738-8.091-4.238-8.714-6.994-8.714-2.731 0-3.268.64-6.722 8-2.065 4.4-4.043 8-4.396 8-.354 0-2.398-3.6-4.543-8l-3.9-8h-11.612l8.041 16.058m182.971.22v16.278l5.179-.528 5.18-.528-.245-6.651c-.442-12.005 2.611-17.888 8.515-16.406 3.387.85 4.371 4.198 4.371 14.872v9.185h10v-12.3c0-13.538-.985-16.961-5.472-19.005-3.635-1.656-11.744-1.499-14.087.273-2.498 1.89-3.441 1.898-3.441.032 0-1.133-1.222-1.5-5-1.5h-5v16.278m-26.238-9.246c-5.283 3.203-4.145 4.968 3.203 4.968 3.869 0 7.035-.364 7.035-.809 0-3.398-6.882-6.194-10.238-4.159m-280.307 3.423c-5.356 5.355-1.162 14.545 6.638 14.545 3.429 0 6.907-4.421 6.907-8.78 0-7.516-8.273-11.038-13.545-5.765m43.389.547c-4.81 4.81-2.235 12.17 4.746 13.566 7.454 1.491 11.898-9.171 5.954-14.284-3.636-3.127-7.086-2.896-10.7.718m148.656.18c-6.78 8.058 4.401 18.361 11.847 10.916 2.892-2.893 2.478-8.992-.803-11.814-3.832-3.296-7.785-2.975-11.044.898m44.135-1.109c-2.01 1.581-2.635 2.962-2.635 5.825 0 7.401 8.322 10.87 13.545 5.647 7.23-7.229-2.841-17.82-10.91-11.472" fill-rule="evenodd"/>
<path fill="#070709" stroke="#070709" d="M346.728 217.722c1.775.221 4.925.224 7 .008 2.074-.217.622-.397-3.228-.402-3.85-.004-5.548.173-3.772.394m-7.978.94c.688.278 1.813.278 2.5 0 .688-.277.125-.504-1.25-.504s-1.937.227-1.25.504m-4.673 11.482c-.079 5.641.076 10.036.346 9.767.666-.666.957-18.864.312-19.509-.283-.283-.579 4.101-.658 9.742m53.256-2.688c0 .801.383 1.22.85.931.467-.289.591-.944.274-1.456-.808-1.308-1.124-1.161-1.124.525m-78.79 1.475c-.317.512-.193 1.167.274 1.456.467.289.85-.13.85-.931 0-1.686-.316-1.833-1.124-.525M387.442 259c0 16.225.138 22.863.306 14.75.168-8.113.168-21.388 0-29.5-.168-8.113-.306-1.475-.306 14.75m-85.952-23.984c-.346.559-1.117.715-1.714.346-.616-.381-.8-.21-.424.398.363.588.095 1.297-.596 1.576-.718.289-.787.54-.161.585.602.043 1.91-.821 2.905-1.921.995-1.1 1.542-2 1.214-2-.328 0-.879.457-1.224 1.016m-14.085 12.234-1.905 2.25 2.25-1.905c2.114-1.79 2.705-2.595 1.905-2.595-.19 0-1.202 1.012-2.25 2.25m148.626 1.25c0 .55.436 1.675.969 2.5.533.825.969 1.05.969.5s-.436-1.675-.969-2.5c-.533-.825-.969-1.05-.969-.5M285 250.878c0 .482.749 1.495 1.664 2.25 1.508 1.244 1.552 1.162.465-.878-1.24-2.327-2.129-2.9-2.129-1.372m6.031 12.622c0 .55.436 1.675.969 2.5.533.825.969 1.05.969.5s-.436-1.675-.969-2.5c-.533-.825-.969-1.05-.969-.5m42.969 16c0 6.508.279 11.554.62 11.213.694-.693.532-21.894-.172-22.598-.246-.247-.448 4.877-.448 11.385m92.638-3c-.316.825-.139 1.5.393 1.5.533 0 .969-.675.969-1.5s-.177-1.5-.393-1.5c-.216 0-.652.675-.969 1.5m-153.971.167c-.367.366-.667 1.131-.667 1.7 0 .626.466.567 1.183-.15.651-.651.951-1.416.667-1.7-.284-.284-.817-.217-1.183.15M447.158 279c0 1.375.227 1.938.504 1.25.278-.687.278-1.812 0-2.5-.277-.687-.504-.125-.504 1.25m.921 4.583c.048 1.165.285 1.402.604.605.289-.722.253-1.585-.079-1.917-.332-.332-.568.258-.525 1.312m-148.048-.083c0 .55.436 1.675.969 2.5.533.825.969 1.05.969.5s-.436-1.675-.969-2.5c-.533-.825-.969-1.05-.969-.5m-29.779 6c.011 2.2.216 2.982.455 1.738.239-1.244.23-3.044-.02-4s-.446.062-.435 2.262m116.943 2c.02 1.65.244 2.204.498 1.231.254-.973.237-2.323-.037-3-.274-.677-.481.119-.461 1.769m-84.16-1.365c-.019.35.622 2.15 1.426 4 .803 1.851 1.462 2.69 1.464 1.865.004-1.441-2.817-7.166-2.89-5.865M449.272 298c0 2.475.195 3.488.434 2.25.238-1.238.238-3.262 0-4.5-.239-1.238-.434-.225-.434 2.25M270 306.941c0 1.068.385 2.179.856 2.47.47.291.643-.583.383-1.941-.564-2.951-1.239-3.239-1.239-.529m178.079 3.642c.048 1.165.285 1.402.604.605.289-.722.253-1.585-.079-1.917-.332-.332-.568.258-.525 1.312m-135.515 1.71c.376.986.935 1.541 1.243 1.233.308-.307.001-1.114-.683-1.793-.988-.98-1.102-.865-.56.56m134.515 4.29c.048 1.165.285 1.402.604.605.289-.722.253-1.585-.079-1.917-.332-.332-.568.258-.525 1.312m-38.515 1.124c-.542 1.425-.428 1.54.56.56.684-.679.991-1.486.683-1.793-.308-.308-.867.247-1.243 1.233M316 319.941c0 .518.445 1.216.989 1.552.566.35.734-.051.393-.941-.665-1.732-1.382-2.049-1.382-.611m55.564.352c.376.986.935 1.541 1.243 1.233.308-.307.001-1.114-.683-1.793-.988-.98-1.102-.865-.56.56m-97.533 3.207c0 .55.436 1.675.969 2.5.533.825.969 1.05.969.5s-.436-1.675-.969-2.5c-.533-.825-.969-1.05-.969-.5m75.415 1.587c-.369.598-.267 1.492.227 1.986.531.531.898.087.898-1.087 0-2.273-.185-2.42-1.125-.899m55.118.62c-.542 1.425-.428 1.54.56.56.684-.679.991-1.486.683-1.793-.308-.308-.867.247-1.243 1.233M377 332c0 .55.477 1 1.059 1s.781-.45.441-1-.816-1-1.059-1-.441.45-.441 1m-96.436 6.293c.376.986.935 1.541 1.243 1.233.308-.307.001-1.114-.683-1.793-.988-.98-1.102-.865-.56.56m60.06 6.246c-.965 2.514-.681 3.163.498 1.136.584-1.004.851-2.036.593-2.293-.257-.258-.749.263-1.091 1.157m95.94 1.168c-.542 1.425-.428 1.54.56.56.684-.679.991-1.486.683-1.793-.308-.308-.867.247-1.243 1.233M286.5 347c.995 1.1 2.035 2 2.31 2 .275 0-.315-.9-1.31-2-.995-1.1-2.035-2-2.31-2-.275 0 .315.9 1.31 2m50.662 5.543c-1.675 3.677-1.355 4.462.456 1.119.846-1.562 1.351-3.026 1.123-3.255-.229-.228-.939.733-1.579 2.136m94.349 1.08c-.945 1.443-1.224 2.318-.62 1.944 1.154-.713 3.483-4.567 2.759-4.567-.231 0-1.193 1.18-2.139 2.623M293 354.378c0 .207.788.995 1.75 1.75 1.586 1.243 1.621 1.208.378-.378-1.307-1.666-2.128-2.195-2.128-1.372m94.731 9.542c-.435 1.663-.305 2.054.437 1.312.582-.582.86-1.647.62-2.369-.25-.749-.703-.295-1.057 1.057m36.356-.524c-.942 1.134-.919 1.402.107 1.252 1.382-.203 2.273-1.515 1.532-2.255-.243-.243-.98.208-1.639 1.003m-4.682 4.854-1.905 2.25 2.25-1.905c2.114-1.79 2.705-2.595 1.905-2.595-.19 0-1.202 1.012-2.25 2.25m-33.053-.49c.363.588.095 1.297-.596 1.576-.899.362-.917.529-.065.585 1.721.114 2.548-1.656 1.171-2.506-.698-.432-.904-.292-.51.345m-57.788 6.533c.376.986.935 1.541 1.243 1.233.308-.307.001-1.114-.683-1.793-.988-.98-1.102-.865-.56.56m84.049.89c.289.467.944.591 1.456.274 1.308-.808 1.161-1.124-.525-1.124-.801 0-1.22.383-.931.85M407 379.059c0 .582.45.781 1 .441s1-.816 1-1.059-.45-.441-1-.441-1 .477-1 1.059m-8.457 4.872c-.317.512-.193 1.167.274 1.456.467.289.85-.13.85-.931 0-1.686-.316-1.833-1.124-.525M395 386c-.901.582-1.025.975-.309.985.655.008 1.469-.435 1.809-.985.767-1.242.421-1.242-1.5 0m-62 9.383c0 .211.901.619 2.001.907 1.101.288 1.75.115 1.441-.383-.538-.871-3.442-1.313-3.442-.524m32.75.279c.688.278 1.813.278 2.5 0 .688-.277.125-.504-1.25-.504s-1.937.227-1.25.504m-24.937 1.021c.721.289 1.584.253 1.916-.079.332-.332-.258-.568-1.312-.525-1.165.048-1.402.285-.604.604m17.437.006c.962.252 2.538.252 3.5 0 .962-.251.175-.457-1.75-.457s-2.712.206-1.75.457M150 479v24h10v-20h21v20h10v-48h-10v19.07l-10.25-.285-10.25-.285-.288-9.25-.287-9.25H150v24m59.276-7.346c-13.177 4.666-14.696 24.01-2.379 30.294 11.085 5.654 23.737 1.814 27.634-8.389 5.716-14.967-8.943-27.682-25.255-21.905m42.224-.242c-11.912 5.294-12.884 24.371-1.578 30.975 4.94 2.884 12.281 2.71 15.559-.369 2.08-1.954 2.519-2.075 2.519-.692 0 1.342.991 1.674 5 1.674h5v-32h-5c-3.606 0-5 .388-5 1.392 0 1.1-.78.995-3.711-.5-4.315-2.2-8.562-2.359-12.789-.48m148.95-.005c-12.043 5.246-12.761 25.237-1.121 31.266 4.751 2.461 10.903 2.27 14.587-.453 2.441-1.805 3.084-1.961 3.084-.75 0 1.169 1.179 1.53 5 1.53h5v-32h-5c-4.391 0-5 .252-5 2.071 0 1.928-.115 1.957-1.655.417-3.568-3.568-9.559-4.405-14.895-2.081m42.55.778c-11.092 5.706-11.991 21.507-1.661 29.219 3.755 2.803 13.542 2.913 16.56.185 2.728-2.466 3.398-1.686 2.528 2.946-1.317 7.023-8.694 10.142-12.927 5.465-1.38-1.525-3.08-2-7.155-2-5.958 0-5.929-.03-3.86 3.971 5.322 10.291 27.054 10.916 31.747.914 1.978-4.214 2.014-4.696 1.879-25.135L470 471h-4.5c-3.333 0-4.5.389-4.5 1.5 0 1.932-.903 1.898-3.131-.118-3.032-2.744-9.744-2.833-14.869-.197m45.001-1.062c-14.804 5.903-13.25 29.042 2.21 32.915 8.284 2.075 20.789-3.046 20.789-8.514 0-2.195-8.776-2.429-10.715-.286-3.519 3.888-12.285.864-12.285-4.238 0-1.89.667-2 12.136-2h12.136l-.649-4.732c-1.459-10.645-13.328-17.25-23.622-13.145m-200.092 2.627c1.124 1.512 3.859 4.763 6.077 7.224 4.823 5.352 5.162 4.105-3.804 13.973L282.864 503H295.889l4.306-5.032 4.305-5.032 4.5 5.089 4.5 5.09 6.212-.307 6.212-.308-7.542-8.244-7.543-8.245 6.08-6.842c7.43-8.359 7.426-8.169.164-8.169-5.693 0-6.044.153-9.276 4.043l-3.358 4.044-2.975-4.02c-2.921-3.949-3.086-4.02-9.292-4.043l-6.318-.024 2.045 2.75M328 471.534c0 .35 3.47 7.596 7.71 16.1l7.71 15.462 3.377-.298c3.2-.282 3.565-.731 6.96-8.548 1.97-4.538 3.885-8.25 4.255-8.25.369 0 2.376 3.825 4.459 8.5 3.668 8.232 3.894 8.5 7.152 8.5 3.336 0 3.429-.128 10.871-14.988 4.128-8.243 7.506-15.443 7.506-16 0-.556-2.253-1.012-5.007-1.012h-5.008l-4.215 8.5c-2.319 4.675-4.453 8.488-4.743 8.472-.29-.015-2.195-3.727-4.233-8.25-3.292-7.304-4.029-8.256-6.598-8.524-2.741-.286-3.089.141-6.702 8.25-2.096 4.704-4.108 8.552-4.471 8.552-.363 0-2.429-3.712-4.592-8.25l-3.931-8.25-5.25-.302c-2.887-.167-5.25-.015-5.25.336M518 487v16H527.813l.343-9.897c.386-11.1 1.864-14.103 6.942-14.103 4.64 0 5.902 3.042 5.902 14.223V503H551.159l-.33-13.085-.329-13.084-3.266-2.916c-4.39-3.919-17.234-3.736-17.234.246 0 .461-.45.839-1 .839s-1-.9-1-2c0-1.733-.667-2-5-2h-5v16m-27.996-7.504c-3.115 3.316-2.513 3.649 5.971 3.3l7.216-.296-2.168-2.75c-2.875-3.647-7.727-3.759-11.019-.254m-278.931 2.139c-6.403 8.139 3.139 18.706 11.18 12.381 6.587-5.182 3.061-14.911-5.43-14.984-2.804-.024-4.17.594-5.75 2.603m43.379.011c-4.717 5.091-.814 14.354 6.048 14.354 3.224 0 8.5-4.949 8.5-7.973 0-8.142-9.183-12.17-14.548-6.381m149 0c-3.372 3.639-3.202 7.758.471 11.431 5.583 5.583 13.532 2.013 13.532-6.078 0-7.667-8.756-11.014-14.003-5.353m43.812-.396c-5.289 5.707-2.035 13.75 5.562 13.75 4.945 0 8.174-3.215 8.174-8.14 0-7.041-9.003-10.718-13.736-5.61" fill-rule="evenodd"/>
</svg>