<!DOCTYPE svg PUBLIC "-//W3C//DTD SVG 1.1//EN" "http://www.w3.org/Graphics/SVG/1.1/DTD/svg11.dtd">
<svg xmlns="http://www.w3.org/2000/svg" viewBox="0 0 1000 800">
<path fill="#dbe3ea" stroke="#dbe3ea" d="M439 164.87c-11.31 3.344-20.093 7.19-24.921 10.913-1.938 1.494-4.505 3.167-5.706 3.717-3.369 1.544-9.646 7.647-13.441 13.069-1.887 2.698-3.95 5.461-4.584 6.141-.634.68-2.185 2.936-3.447 5.013-1.263 2.078-2.595 4.002-2.961 4.277-1.245.935-9.841 14.862-12.836 20.793-2.14 4.24-3.123 7.858-3.481 12.808-.274 3.794-.8 11.229-1.17 16.522l-.672 9.623-3.39-1.041c-1.865-.572-3.391-1.36-3.391-1.751 0-.926-3.843-2.394-12.5-4.776-17.907-4.927-23.176-6.61-29.094-9.293-7.682-3.483-13.827-3.836-15.406-.885-1.364 2.548-10 2.98-10 .5 0-.825-.337-1.526-.75-1.557-.413-.032-2.714-.261-5.115-.509l-4.364-.451.495 3.259c.272 1.792.057 4.094-.478 5.116-.824 1.571.605 3.341 9.277 11.494 9.775 9.19 10.468 9.645 14.938 9.806 5.623.204 25.126 5.174 37.225 9.488 7.303 2.604 8.72 3.458 8.677 5.233-.246 10.246 5.124 38.856 9.765 52.027 1.376 3.902 3.167 9.217 3.981 11.811 1.487 4.737 4.7 6.672 9.308 5.604.928-.215 2.466 2.528 4.65 8.29 8.421 22.222 22.379 39.807 40.514 51.043 5.158 3.194 9.837 6.189 10.399 6.653.562.465 1.637.64 2.389.389.87-.29 1.095-.015.619.756-.499.807-.129 1.118 1.111.931 1.022-.154 3.434.556 5.359 1.577 2.544 1.35 6.829 2.057 15.683 2.586 11.192.669 12.515.961 16.26 3.591 7.034 4.94 6.754 7.753-1.184 11.875-2.893 1.502-7.284 4.194-9.759 5.983C457.423 458.08 421.872 476 420.321 476c-.215 0 .043-.812.574-1.804.59-1.102.61-2.366.051-3.25-.716-1.131-.919-.969-.931.745-.02 2.9-2.016 4.028-3.51 1.985-1.388-1.899-2.904.334-3.979 5.859-.712 3.659-12.09 12.465-16.105 12.465-2.622 0-4.441 1.577-10.648 9.23-2.689 3.316-4.256 4.456-5.63 4.097-2.825-.738-6.576 3.828-11.643 14.173-4.709 9.615-5.655 13.641-7.992 34-4.324 37.669-6.271 79.624-8.006 172.5-.283 15.125-.799 37.962-1.148 50.75l-.633 23.25h2.664c2.161 0 2.778-.567 3.265-3 .634-3.169 2.602-4.239 2.298-1.25-.444 4.364-1.2 4.25 28.052 4.25h28l.128-11.25c.07-6.187.286-15.525.48-20.75s.362-13.212.372-17.75c.028-11.821 1.604-10.182 2.403 2.5.828 13.139 3.491 41.916 4.164 45 .449 2.058 1.057 2.25 7.127 2.25h6.637l-.649-14.25c-.357-7.837-1.558-26.4-2.671-41.25-1.112-14.85-2.457-32.85-2.989-40-2.568-34.52-6.345-109.097-5.85-115.5l.348-4.5 5.423.297c3.875.212 5.907.854 7.118 2.25.931 1.074 2.104 1.953 2.605 1.953.501 0 2.448 1.053 4.327 2.341l3.416 2.341 6.555-7.426c5.977-6.769 21.014-27.675 41.354-57.491 13.027-19.097 18.05-24.42 30.202-32.008 4.95-3.091 9.316-5.689 9.702-5.773.386-.084 5.671-2.988 11.745-6.454 6.655-3.797 12.793-6.564 15.444-6.961 3.195-.479 4.54-1.195 4.911-2.615.345-1.32 1.433-1.992 3.354-2.07 1.828-.075 2.193-.284 1.021-.587-1.126-.292-1.605-1.043-1.25-1.966.315-.822.573-1.908.573-2.413 0-.505.408-.918.906-.918.499 0 .685.849.413 1.887-.271 1.038-.004 2.19.594 2.559 2.05 1.267 1.086 2.554-1.913 2.554-1.65 0-3 .49-3 1.088 0 1.003 5.36.642 10.098-.68 2.862-.799 2.286-6.601-.617-6.221-2.755.361-3.499-1.532-.784-1.993 5.699-.968 7.303-2.355 7.303-6.315 0-2.134-.477-3.879-1.059-3.879s-.762-.48-.399-1.067c.362-.587-.255-1.307-1.372-1.599-2.093-.547-3.629-2.939-2.376-3.698.388-.236 3.144-.04 6.125.434 3.286.523 7.142.477 9.797-.118 10.003-2.242 41.009 1.23 55.222 6.184 5.421 1.889 9.409 2.727 11.155 2.344 2.136-.47 3.273.001 5.312 2.201 2.498 2.694 2.595 2.716 2.595.591 0-1.38-1.031-2.767-2.75-3.7-1.969-1.068-2.251-1.503-.995-1.532 2.354-.054 11.214 9.125 14.869 15.404 4.842 8.318 13.581 26.817 14.349 30.374.393 1.824 1.346 3.559 2.116 3.854.77.296 1.148.944.841 1.442-.777 1.257.531 5.028 1.529 4.411.448-.277.795.054.771.736-.176 4.869.429 7.739 1.631 7.739.925 0 1.221.881.922 2.75-.359 2.243-.225 2.474.725 1.25.96-1.235 1.073-1.083.642.865-.288 1.301-.152 3.101.301 4 4.048 8.029 6.012 13.402 6.446 17.635l.513 5-1.097-4.25c-1.685-6.527-2.82-5.042-1.26 1.647.757 3.243 1.858 8.981 2.448 12.75 1.477 9.446 1.99 10.977 3.093 9.235 2.078-3.281.701 4.524-2.59 14.675-3.204 9.885-3.798 14.104-1.466 10.414 2.164-3.424 20.962-62.724 20.962-66.125 0-4.38-1.928-1.167-4.563 7.604l-2.839 9.449-3.049-7.288c-1.677-4.009-3.796-8.374-4.709-9.7l-1.66-2.411-.905 2.366c-.8 2.09-1.053 1.702-2.182-3.339-3.976-17.77-18.271-49.999-26.181-59.027-.964-1.1-2.496-3.873-3.406-6.162-1.821-4.586-16.239-15.387-17.6-13.186-.456.737-3.432.427-9.534-.994-7.306-1.701-25.57-4.158-30.908-4.158-.729 0-1.469-1.01-1.644-2.244-.796-5.584-29.273-4.951-31.441.699-.831 2.165-4.188 1.955-17.293-1.082-10.64-2.466-11.498-2.53-12.653-.951-.708.968-3.045 1.874-5.456 2.113-2.32.231-4.81.911-5.534 1.512-.951.79-1.886.786-3.379-.013-1.864-.998-2.057-1.995-1.996-10.319l.067-9.215 7.673-5c8.559-5.577 12.66-10.458 18.666-22.219 2.186-4.279 5.68-10.729 7.764-14.332 2.085-3.604 5.344-11.013 7.243-16.466 2.275-6.535 4.071-10.143 5.267-10.586 2.554-.944 8.509-7.756 11.822-13.522 1.541-2.681 4.086-6.783 5.656-9.114 5.054-7.504 5.723-10.783 4.673-22.886-1.426-16.422-7.496-26.012-17.155-27.1l-4.441-.501-1.215-16.137c-2.077-27.562-6.999-40.275-21.367-55.186-4.478-4.648-8.538-8.451-9.022-8.451s-3.202-1.964-6.04-4.364c-8.802-7.445-13.68-9.099-7.772-2.636 2.011 2.2 4.121 4 4.689 4 3.954 0 23.8 24.678 24.047 29.9.067 1.43 1.289 5.331 2.716 8.668 3.602 8.427 5.652 22.46 5.657 38.713.004 15.344.097 15.538 6.383 13.343 7.153-2.498 13.229.289 13.395 6.146.095 3.319-1.046 3.993-3.774 2.23-1.262-.815-1.202-.972.372-.985 1.551-.012 1.659-.273.628-1.515-1.663-2.003-4.396-1.975-3.624.038.635 1.654.021 1.98-5.376 2.858-2.633.429-3.077.32-1.792-.44 1.905-1.125 1.34-3.956-.789-3.956-1.823 0-5.103 6.272-3.551 6.789.623.208 1.132 1.068 1.132 1.911 0 1.168.656 1.374 2.75.866 6.813-1.654 12.825-1.783 14.054-.302 2.077 2.503 2.027 9.234-.069 9.246-.97.005-2.651 1.468-3.735 3.25-2.234 3.673-4.529 4.371-3.678 1.118l.555-2.123-2.003 2.15c-1.95 2.093-6.108 10.025-8.961 17.095-1.329 3.293-1.451 2.523-2.063-13-1.291-32.813-4.375-55.341-8.956-65.426-2.036-4.482-2.764-1.993-.872 2.983.562 1.479 1.226 4.287 1.477 6.242.25 1.955.947 3.858 1.548 4.23.601.372 1.174 3.395 1.273 6.719.099 3.324.451 5.609.781 5.079 1.036-1.66 1.914 16.479.989 20.423-.515 2.194-.508 3.75.015 3.75.492 0 .895.477.895 1.059s-.337.851-.75.596-.795 9.056-.851 20.691c-.192 40.23-7.577 63.288-25.164 78.573-4.752 4.129-9.235 5.383-9.235 2.581 0-2.035-1.886-1.915-17.07 1.089-7.197 1.424-13.316 2.358-13.598 2.076-.282-.282-2.228.093-4.325.832-9.081 3.205-21.626 4.897-36.507 4.926l-15 .029-8-3.755c-11.608-5.448-12.874-6.09-14.181-7.197-.65-.55-3.996-2.575-7.437-4.5-8.336-4.664-18.183-13.741-17.547-16.174.31-1.184-.063-1.826-1.062-1.826-5.585 0-19.975-31.085-21.873-47.25-.753-6.409-1.365-6.881-4.221-3.25-2.512 3.193-2.581 3.179-5.081-1.059-1.155-1.957-2.506-3.307-3.002-3-2.192 1.354-2.824-30.57-.648-32.746 1.894-1.894 2.067-6.695.242-6.695-.925 0-1.293-1.578-1.25-5.368.043-3.892.407-5.236 1.323-4.888 1.712.651 4.238-1.578 3.618-3.194-.302-.786.515-1.558 2.059-1.946 2.197-.551 2.56-1.193 2.56-4.526 0-8.881 7.728-37.631 11.163-41.528.46-.522.837-1.76.837-2.75s.45-1.8 1-1.8 1-.605 1-1.345c0-1.223 6.283-11.6 9.268-15.308 2.624-3.259 16.185-16.347 16.938-16.347 1.162 0 .919-1.252-.646-3.316-1.172-1.545-1.681-1.625-3.423-.538-1.125.703-2.337.988-2.692.633-2.754-2.754 18.259-14.479 31.022-17.309 9.797-2.173 43.203-1.513 52.533 1.037 8.782 2.401 15.424 4.669 16.45 5.616.522.482 2.097.884 3.5.892 1.963.012 2.211.23 1.079.946-2.339 1.479-.774 2.008 1.826.617l2.351-1.259-3.853-2.36c-18.278-11.196-24.939-12.895-52.853-13.479-19.598-.41-20.191-.362-29.5 2.39m21.75 2.792c.688.278 1.813.278 2.5 0 .688-.277.125-.504-1.25-.504s-1.937.227-1.25.504M499 178c0 .55.45 1 1 1s1-.45 1-1-.45-1-1-1-1 .45-1 1m25.5 2.968c-1.786.739-1.602.999 1.718 2.43 2.045.881 4.095 1.602 4.556 1.602.46 0 2.362 1.125 4.226 2.5 4.191 3.092 7.433 3.484 4.244.513-1.173-1.093-3.96-2.939-6.193-4.104-2.234-1.164-4.31-2.52-4.615-3.013-.651-1.052-1.244-1.042-3.936.072M414 188.893c0 1.25 2.823 2.203 3.462 1.168.29-.468-.183-1.124-1.05-1.456-2.096-.805-2.412-.767-2.412.288m-8.128 6.857c-1.243 1.586-1.208 1.621.378.378.962-.755 1.75-1.543 1.75-1.75 0-.823-.821-.294-2.128 1.372M548 205c0 .55.477 1 1.059 1s.781-.45.441-1-.816-1-1.059-1-.441.45-.441 1m14 14.941c0 .518.45 1.219 1 1.559.55.34 1-.084 1-.941s-.45-1.559-1-1.559-1 .423-1 .941m8.629 10.824c.621.404 1.455 3.13 1.854 6.056.718 5.278 2.599 7.497 4.632 5.464 1.662-1.662-3.917-12.302-6.433-12.27-.862.011-.876.215-.053.75m162.772 50.743c-3.188 3.188-2.4 4.639 1.856 3.418 4.998-1.433 5.315-1.277 9.143 4.49 1.978 2.979 4.07 5.574 4.651 5.768.58.193 1.412 1.918 1.848 3.834.436 1.915 1.103 4.45 1.483 5.633.63 1.963.234 2.214-4.525 2.869-8.693 1.195-11.699 5.279-11.614 15.776.051 6.261.6 9.388 2.319 13.204 1.239 2.75 2.528 7.25 2.863 10 .594 4.869.574 4.922-.791 2-2.761-5.91-5.634-14.074-5.638-16.019-.002-1.09-1.014-3.556-2.25-5.481-2.103-3.277-2.227-4.41-1.946-17.75.165-7.837.085-14.25-.177-14.25-.263 0-1.038 3.472-1.722 7.716-1.192 7.389-1.291 7.583-2.323 4.572-1.337-3.899-2.206-4.829-2.371-2.538-.723 10.059.099 15.268 6.254 39.636 6.879 27.229 7.302 29.6 5.289 29.637-.687.013-5.071 2.263-9.742 5-4.67 2.737-9.733 4.977-11.25 4.977-5.34 0-7 3.129-6.607 12.457l.349 8.26-4.428 2.892c-4.877 3.184-8.868 7.929-7.673 9.123.42.421 1.309.091 1.974-.734 3.161-3.915 8.563-8.119 11.002-8.561 3.309-.6 6.734 5.522 4.557 8.145-.642.774-.932 2.309-.644 3.412.288 1.102.116 2.256-.382 2.564-.498.308-.906 1.914-.906 3.568 0 2.554-.303 2.913-2 2.374-1.147-.364-2-.18-2 .433 0 .587-.733 1.067-1.628 1.067-1.339 0-1.514.71-.988 4 .788 4.926-.537 5.23-2.242.516-.919-2.54-1.853-3.482-3.451-3.476-8.02.03-11.03-4.384-6.848-10.042 2.507-3.391 2.804-5.474.657-4.605l-3 1.214c-.849.344-1.5.073-1.5-.622 0-.907-.347-.942-1.324-.131-.967.802-1.642.78-2.507-.085-.911-.911-1.558-.808-2.813.447-1.9 1.899-.579 5.753 8.663 25.284 2.863 6.05 7.645 16.625 10.626 23.5s5.87 13.4 6.421 14.5c.55 1.1 1.588 4.025 2.305 6.5.763 2.628 2.131 4.879 3.289 5.411 1.092.5 2.73 3.009 3.641 5.575 2.348 6.609 7.836 12.014 12.2 12.014 7.485 0 8.794 1.531 8.092 9.46-.343 3.872-1.772 11.09-3.176 16.04A5919.896 5919.896 0 0 1 721.57 579c-2.015 6.875-4.576 15.875-5.691 20-1.116 4.125-3.98 14.25-6.365 22.5-2.386 8.25-4.877 17.925-5.536 21.5-1.734 9.4-3.301 15-4.196 15-.43 0-.782.99-.782 2.2 0 4.453-2.084.097-5.515-11.529-2.399-8.126-1.016-16.485 2.037-12.31 1.244 1.702 1.612 1.299 4.373-4.789 1.657-3.656 2.767-7.289 2.466-8.075-.302-.785 1.07-4.091 3.047-7.346 3.957-6.514 5.813-12.725 3.58-11.98-.724.241-4.615 5.249-8.646 11.128-4.032 5.88-8.208 11.567-9.279 12.638-1.072 1.072-2.491 3.887-3.153 6.256-.663 2.369-1.969 4.998-2.903 5.842-.933.844-1.956 2.194-2.273 3-.353.898-.613.498-.67-1.035-.071-1.868-.32-2.144-.986-1.091-.861 1.359-.716 4.969.378 9.445.288 1.18-.641-.329-2.064-3.354-1.424-3.025-2.727-6.175-2.896-7-.168-.825-.402-1.95-.52-2.5-.117-.55-.16-2.013-.094-3.25.135-2.573 2.118-3.119 2.118-.583 0 .916.301 1.366.668.998.368-.367.187-1.68-.401-2.917-.588-1.236-1.907-4.048-2.931-6.248-1.883-4.046-9.241-16.579-10.275-17.5-1.05-.936-3.213-5.212-2.374-4.693 3.695 2.283 5.316-6.399 1.749-9.36-.79-.656-1.436-1.67-1.436-2.254 0-.584-.861-2.891-1.914-5.127-3.732-7.928-6.086-13.468-6.086-14.324 0-2.346-5.786-6.02-10.421-6.617-6.002-.773-5.802-.574-4.376-4.353.826-2.187 2.009-3.264 4.027-3.668 3.176-.635 2.527-3.632-1.389-6.411-1.012-.718-1.851-2.293-1.863-3.5-.024-2.385-2.412-7.614-6.727-14.729a6149.165 6149.165 0 0 1-3.849-6.354c-1.028-1.702-1.297-1.715-4.2-.214-1.707.882-4.067 1.604-5.246 1.604-1.298 0-2.348.784-2.663 1.989-.286 1.094-.99 1.698-1.564 1.343-.658-.406-.835.154-.48 1.513.311 1.187.238 1.956-.16 1.71-.399-.246-1.356.428-2.128 1.499-.771 1.07-1.952 1.946-2.623 1.946-2.185 0-2.583 2.097-.688 3.629 1.328 1.074 1.497 1.644.6 2.017-.687.286-1.254 2.171-1.259 4.187-.007 2.873-.657 4.179-3 6.03-1.645 1.299-2.991 2.986-2.991 3.75 0 .763-.477 1.387-1.059 1.387s-.828.374-.546.831c.283.457-2.053.933-5.191 1.057-3.137.125-6.132.651-6.654 1.17-.523.518-1.838.942-2.924.942-1.908 0-1.902.078.2 2.314 1.196 1.273 2.174 3.018 2.174 3.878 0 4.586 4.456 4.502 22.79-.428 12.729-3.422 11.921-3.644 16.233 4.446 2.106 3.952 2.446 6.503 1.141 8.559-.579.912-1.208.493-2.235-1.486-3.849-7.421-6.137-8.5-10.146-4.783-1.482 1.375-3.165 2.5-3.739 2.5-.574 0-.932.537-.794 1.194.137.657-1.1 1.454-2.75 1.772-2.01.386-2.582.84-1.734 1.374.697.439 1.037 1.169.757 1.623-1.529 2.474 6.929 17.4 14.188 25.037 4.681 4.924 4.705 5.253 2.31 30.771-1.184 12.617-1.912 25.672-1.619 29.012.296 3.374.12 6.215-.397 6.394-.512.178-1.146 5.948-1.409 12.823-.479 12.531-1.237 19.113-4.176 36.281-2.323 13.571-3.615 20.475-6.029 32.219-.792 3.85-1.603 8.575-1.803 10.5-.201 1.925-.422 3.95-.492 4.5-.069.55-.547.336-1.06-.476-.638-1.008-.925.42-.906 4.5.015 3.287-.434 8.001-.998 10.476-.563 2.475-1.219 6.647-1.458 9.271l-.433 4.77 19.443-.27 19.444-.271 6.186-18.351c7.174-21.28 8.568-20.636 4.24 1.959-1.405 7.332-2.554 14.132-2.554 15.111 0 1.643 1.416 1.781 18.25 1.782h18.25l-.33-18.25c-.182-10.038-.645-21.029-1.03-24.424-.384-3.395-.348-5.956.081-5.691.428.265.779 1.58.779 2.923 0 3.968 1.983 2.782 2.188-1.309.307-6.144-.336-14.638-1.238-16.333-.555-1.044-.422-1.584.39-1.584.677 0 1.254.713 1.281 1.584.027.871.539 6.308 1.138 12.083.599 5.775 1.185 13.65 1.303 17.5.117 3.85.305 8.125.419 9.5.114 1.375.277 7.337.363 13.25L694 800h6.228l-.648-16.25c-.625-15.669-1.646-28.804-3.633-46.75-1.276-11.524-1.205-15 .309-15 .691 0 1.83 1.298 2.532 2.884 1.038 2.344 9.425 14.739 17.19 25.406 1.402 1.926 1.337 2.003-1.274 1.504-5.417-1.035-4.446 3.492 1.134 5.288 2.014.648 4.112 1.517 4.662 1.931 3.945 2.97 42.5 6.875 42.5 4.305 0-.523 2.995-1.546 6.655-2.274 7.573-1.505 16.389-8.044 10.845-8.044-2.206 0-1.827-2.102.489-2.707 1.094-.286 1.752-.904 1.462-1.372-.29-.469.342-2.555 1.403-4.637 9.041-17.727 13.334-50.157 13.605-102.784.302-58.397 1.568-109.647 2.793-113 .602-1.65 1.85-3.742 2.772-4.649.922-.908 1.953-3.67 2.292-6.139.43-3.141 1.527-5.401 3.65-7.524 2.229-2.229 3.034-3.968 3.034-6.552 0-1.935.474-3.811 1.053-4.169.579-.357.868-1.172.642-1.809-.676-1.906 11.831-25.498 18.538-34.97l1.992-2.812 1.491 2.129c.842 1.202 2.122 1.887 2.94 1.574.808-.31 1.178-.119.837.432-.336.544-.138.989.439.989 3.082 0 15.332-18.122 18.442-27.281.844-2.487 2.454-6.028 3.577-7.87 2.118-3.475 2.647-8.356 1.16-10.704-.495-.781-.409-2.545.204-4.169 1.374-3.64.069-5.248-7.255-8.946-9.309-4.699-21.686-15.591-28.161-24.78-2.933-4.162-5.899-5.607-5.899-2.872 0 .757.695 1.954 1.546 2.66.85.705 1.341 1.814 1.092 2.463-.66 1.719.924 4.017 1.796 2.606.376-.609.132-1.107-.542-1.107s-.936-.29-.581-.644c.354-.354 5.521 4.258 11.482 10.25 5.962 5.992 12.933 12.469 15.492 14.394 4.912 3.695 5.57 5.045 3.354 6.884-1.058.879-2.448.273-6.25-2.724-4.126-3.252-6.126-4.05-12.813-5.108-9.959-1.576-12.576-2.738-12.576-5.587 0-1.217-1.16-4.288-2.578-6.825l-2.577-4.612 2.462-1.122c2.272-1.035 2.359-1.321 1.129-3.692-.734-1.414-1.098-2.952-.81-3.417.287-.466.152-.782-.302-.703-2.672.464-3.245-.378-3.16-4.643.065-3.243-.483-5.182-1.909-6.75-1.1-1.211-1.801-2.747-1.557-3.414.441-1.206-.547-1.578-8.198-3.082-3.217-.632-4.068-1.268-4.346-3.246-.799-5.683-1.85-5.75-13.834-.878-8.582 3.488-7.856 3.428-8.062.669-.557-7.451-5.517-22.75-7.377-22.75-1.197 0-2.091 5.43-.956 5.808.591.197 1.061 1.109 1.043 2.025-.027 1.418-.262 1.369-1.579-.333-1.079-1.394-1.416-3.448-1.112-6.78.457-5.021-.624-7.287-1.65-3.459-.33 1.232-.658 3.814-.728 5.739l-.129 3.5-.776-4c-.427-2.2-.375-4.758.115-5.684 1.177-2.226 1.121-3.728-.07-1.845-1.259 1.991-1.165 2.228-4.883-12.348-8.134-31.885-19.934-47.936-28.755-39.115m-275.926.148c-.704 2.303-2.232 2.755-13.31 3.943-4.047.433-5.852.984-5 1.524.958.608.7.851-.915.862-1.238.008-2.25.451-2.25.985 0 .533-1.615.908-3.589.834-2.119-.079-3.97.445-4.52 1.281-.766 1.163-1.268 1.014-2.826-.841-1.042-1.24-2.045-1.833-2.23-1.317-.306.858-23.241-.054-34.446-1.368-5.519-.648-7.642.954-6.545 4.941l.825 3 9.108-.076c8.396-.07 9.034.061 8.165 1.684-1.541 2.88-1.12 4.385 2.51 8.972 2.405 3.04 3.091 4.584 2.264 5.096-.679.419-1.59.004-2.129-.971-3.819-6.912-13.198-7.572-10.603-.746.587 1.543.812 3.608.501 4.589-.312.981-.098 2.073.474 2.427.573.354 1.041 1.268 1.041 2.032 0 2.179 4.165 6.05 7.876 7.321 9.224 3.158 22.346-3.935 26.742-14.456 2-4.787 16.243-8.002 31.943-7.209 4.091.207 7.439.118 7.439-.197 0-1.894 8.524-.556 10.907 1.712 6.985 6.65 15.625 11.026 22.709 11.503 1.938.13 3.744.593 4.013 1.028.715 1.157 7.371.968 7.371-.209 0-.55.477-1 1.059-1s.781.45.441 1c-.359.581.559.971 2.191.93 2.471-.062 2.568-.174.809-.93-1.1-.473-1.467-.891-.815-.93 4.111-.244 6.279-2.036 5.366-4.437-.639-1.681-.53-2.963.357-4.176 2.148-2.937-.36-13.366-3.265-13.575-2.214-.16-2.37-.136-4.481.685-1.514.588-1.778.292-1.5-1.676.305-2.157.765-2.363 4.705-2.11 5.533.357 9.94-4.928 6.092-7.306-2.189-1.353-48.622-.488-51.612.961-1.566.759-3.972 1.254-5.347 1.1l-3.642-.408c-.627-.071-1.428-1.271-1.779-2.669-.351-1.397-1.036-2.295-1.523-1.994-.487.301-1.118-.018-1.403-.709-.322-.78-.768-.44-1.178.9m21.548 11.387c-3.013.437-5.895.536-6.405.221-.51-.315-.593-.033-.185.627.521.843 2.574 1.006 6.904.549 3.39-.358 6.951-.7 7.913-.76.962-.06 1.75-.462 1.75-.894 0-.91-2.338-.85-9.977.257M494 293.5c-1.375.786-1.863 1.445-1.083 1.465.779.019 1.12.331.758.693-.722.723 1.11 3.342 2.338 3.342.423 0 .952-1.575 1.177-3.5.457-3.921.32-4.007-3.19-2m-73.149 3.751c.632.632 1.149 2.907 1.149 5.056 0 3.152.306 3.79 1.582 3.3.87-.334 1.995-.607 2.5-.607.505 0 .918-.45.918-1s-.675-1-1.5-1-1.5-.675-1.5-1.5.454-1.5 1.008-1.5c1.932 0-1.203-3.589-3.27-3.745-1.534-.115-1.753.13-.887.996m19.962.432c.721.289 1.584.253 1.916-.079.332-.332-.258-.568-1.312-.525-1.165.048-1.402.285-.604.604m7.937-.021c.688.278 1.813.278 2.5 0 .688-.277.125-.504-1.25-.504s-1.937.227-1.25.504M757.12 327.2c-.066.935-.838 2.102-1.715 2.593-2.613 1.462-1.806 15.226.89 15.192 3.72-.048 4.052-1.475 2.472-10.635-.84-4.867-1.581-8.085-1.647-7.15m15.959 7.383c.048 1.165.285 1.402.604.605.289-.722.253-1.585-.079-1.917-.332-.332-.568.258-.525 1.312m-190.09 10.108c-.006 2.095-.243 5.609-.526 7.809-.367 2.857-.258 3.428.385 2 1.576-3.507 2.405-12.225 1.231-12.951-.699-.432-1.083.673-1.09 3.142m161.893-2.941a5.707 5.707 0 0 0 0 1.5c.065.413-.444.637-1.132.5-.9-.18-1.152 1.114-.9 4.621.211 2.929-.031 4.635-.605 4.28-.561-.346-.743.523-.442 2.101.461 2.412.592 2.487 1.257.72.475-1.264.713-.176.662 3.028-.099 6.248 3.022 20.01 3.289 14.5l.169-3.5.967 3.36c1.782 6.191 1.999 2.434.289-5.006-3.432-14.936-2.953-20.854 1.686-20.854 1.033 0 1.878-.649 1.878-1.443 0-2.514-6.752-6.125-7.118-3.807m31.276 8.25c0 1.375.227 1.938.504 1.25.278-.687.278-1.812 0-2.5-.277-.687-.504-.125-.504 1.25m.842 8.441c0 .793.408 1.693.907 2.001.498.309.671-.34.383-1.441-.611-2.335-1.29-2.63-1.29-.56M752 359c0 .55.45 1 1 1s1-.45 1-1-.45-1-1-1-1 .45-1 1m-261 8.167c-8.076 1.155-22.942 2.213-37 2.632-23.06.688-23.506.741-23.807 2.859-.245 1.717.349 2.302 2.911 2.865 9.049 1.987 77.231-3.829 79.032-6.743 1.191-1.927-1.102-3.79-4.508-3.663-1.721.065-9.203.987-16.628 2.05m294.312 5.306c-.034 3.59.332 6.527.813 6.527.481 0 .875-.675.875-1.5 0-.842.893-1.5 2.035-1.5 1.702 0 1.866.316 1 1.934-2.988 5.583-1.087 6.757 7.182 4.435 1.179-.332 1.899.246 2.301 1.846.86 3.428 8.482 2.788 8.482-.713 0-1.258.682-2.55 1.515-2.869 2.169-.833 3.856-5.665 2.46-7.046-.794-.785-1.378-.594-2.099.684-.549.974-1.421 1.51-1.937 1.191-1.384-.855-1.142-3.462.32-3.462 1.175 0 4.265-3.873 3.56-4.461-.175-.147-6.197-.565-13.382-.93l-13.063-.663-.062 6.527M747.5 378c-.34.55-.168 1 .382 1s1.278-.45 1.618-1c.34-.55.168-1-.382-1s-1.278.45-1.618 1m4.25-.338c.688.278 1.813.278 2.5 0 .688-.277.125-.504-1.25-.504s-1.937.227-1.25.504m-371.5 1.071c-5.269 1.827 5.935 23.467 15.834 30.582 5.296 3.807 5.018 3.04-3.054-8.411-8.121-11.52-10.024-14.951-10.045-18.104-.02-2.947-1.144-4.618-2.735-4.067m353.168 2.665c-4.023 1.781-13.418 8.543-13.418 9.657 0 .477-.993 1.792-2.206 2.922l-2.206 2.055 3.206-.641c3.097-.619 4.48.703 2.206 2.109-2.058 1.272-1.138 8.179 1.301 9.778 1.338.876 3.101 3.861 4.212 7.128 1.841 5.417 4.327 7.244 3.664 2.691-.397-2.728 1.436-5.097 3.945-5.097 1.348 0 1.878-.722 1.878-2.559 0-1.554.418-2.301 1.064-1.902.72.446.846-.503.388-2.941-.562-2.997-.387-3.598 1.044-3.598 1.247 0 1.518-.479.989-1.75-.401-.962-1.161-3.666-1.69-6.008-.528-2.342-1.342-4.022-1.809-3.734-.466.289-1.111.098-1.433-.423-.322-.521-.128-1.229.431-1.575.559-.345 1.016-1.726 1.016-3.069 0-2.71 2.652-3.355 4.897-1.191 1.049 1.011 1.229.868.942-.75-.444-2.493-4.176-2.982-8.421-1.102m55.862 45.852c-1.018 1.318-.93 10.434.111 11.474.335.335.609-.141.609-1.057 0-.917.401-1.667.892-1.667 1.309 0 2.243-4.613 1.519-7.5-.693-2.76-1.665-3.149-3.131-1.25M695.504 438c1.917 6.369 5.564 11.943 7.841 11.985.93.017-3.52-8.03-6.628-11.985l-1.965-2.5.752 2.5m-159.263 5.633a163.615 163.615 0 0 1-1.746 4.617c-.585 1.443-.165 1.75 2.398 1.75 3.531 0 3.564-.101 1.731-5.367l-1.347-3.867-1.036 2.867m59.099-.864c-.638.406 2.512.605 7 .444 11.981-.432 13.443-.923 3.16-1.062-4.95-.066-9.522.212-10.16.618m-36.06 5.967c2.629.207 6.679.204 9-.005 2.321-.21.17-.379-4.78-.376-4.95.003-6.849.175-4.22.381M660 454.393c0 .216.698.661 1.552.989.89.341 1.291.173.941-.393-.587-.951-2.493-1.406-2.493-.596m45.58 1.478c-.666 1.078 3.366 10.129 4.512 10.129.382 0 .971-.722 1.31-1.605.718-1.871-4.875-10.057-5.822-8.524m-241.457 6.325c-1.858 1.189-4.355 2.266-5.55 2.393-1.195.128-8.924 3.422-17.176 7.321-8.251 3.9-15.535 7.09-16.186 7.09-.651 0-5.577 2.928-10.947 6.506-8.743 5.826-14.273 9.918-25.879 19.147-1.969 1.566-4.469 2.858-5.557 2.872-2.399.031-8.682 7.011-9.428 10.475-.296 1.375-.957 3.534-1.469 4.797-.512 1.263-.931 4.076-.931 6.25 0 2.71-.437 3.953-1.392 3.953-1.919 0-3.362 8.14-6.029 34-1.981 19.212-5.705 111.767-5.452 135.5l.107 10 1.368-11.5c5.178-43.515 8.254-87.948 8.348-120.589l.05-17.09 2.45-1.116c1.424-.649 4.334-4.379 6.953-8.911 2.477-4.287 4.92-8.279 5.428-8.871.508-.592 1.216-1.997 1.573-3.121 1.442-4.544 6.838-13.302 8.196-13.302.797 0 1.896-1.174 2.441-2.609.546-1.435 4.585-6.173 8.976-10.528 4.391-4.356 7.983-8.546 7.983-9.312 0-.765 3.038-3.715 6.75-6.555 22.608-17.292 34.372-25.9 36.185-26.475 1.136-.361 2.065-1.075 2.065-1.588 0-.513.62-.933 1.378-.933.757 0 1.946-.685 2.641-1.523 1.068-1.287.985-1.416-.542-.83-3.184 1.222-.581-1.625 4.338-4.745 2.517-1.596 4.151-2.894 3.631-2.885-.52.009-2.466.99-4.323 2.179m-16.616 9.793c-.35.566.051.734.941.393 1.732-.665 2.049-1.382.611-1.382-.518 0-1.216.445-1.552.989m128.226.135c.679.684 1.486.991 1.793.683.308-.308-.247-.867-1.233-1.243-1.425-.542-1.54-.428-.56.56m-55.226 24.865c-.35.566.051.734.941.393 1.732-.665 2.049-1.382.611-1.382-.518 0-1.216.445-1.552.989M711.669 509c1.216 10.93 2.293 15.066 1.749 6.716-.279-4.281-.925-8.781-1.434-10-.642-1.534-.739-.523-.315 3.284M690 507.559c0 1.684-.396 2.314-1.158 1.844-.788-.487-.982-.048-.61 1.376.33 1.263.008 2.299-.815 2.614-1.097.422-.989 1.257.561 4.315 6.25 12.333 10.761 23.782 13.509 34.292 1.594 6.093 2.618 8.393 3.618 8.123.767-.208 1.99-.395 2.718-.417.848-.025 1.122-.788.764-2.123-.308-1.145-.573-3.433-.589-5.083-.02-2.077-.294-2.58-.892-1.637-.729 1.151-.948 1.151-1.406 0-.342-.86-.573-.625-.627.637-.245 5.754-3.147-4.428-3.118-10.938.055-12.116-.553-14.57-6.638-26.812-4.674-9.402-5.317-10.151-5.317-6.191M395.2 515.2c-1.368 1.368-1.626 4.8-.361 4.8.727 0 3.161-4.271 3.161-5.547 0-.872-1.611-.442-2.8.747m397.87 29.55c.053 3.574.283 4.255.93 2.75 1.201-2.795 1.201-7.5 0-7.5-.55 0-.968 2.138-.93 4.75M704.158 558c0 1.375.227 1.938.504 1.25.278-.687.278-1.812 0-2.5-.277-.687-.504-.125-.504 1.25m-311.978 9c-.039 5.529.189 6.896.868 5.203.546-1.359.568-4.421.054-7.5l-.868-5.203-.054 7.5m323.963-5.099c-.969.606-1.145 1.814-.615 4.224.729 3.315.758 3.332 1.65.922 1.262-3.411.696-6.23-1.035-5.146m-79.318 31.773c.426 2.093.678 2.345.969.97.217-1.021-.043-2.293-.576-2.826-.626-.626-.766.031-.393 1.856m4.246 6.826c0 .55.643 2.125 1.429 3.5s1.429 2.05 1.429 1.5c0-.55-.643-2.125-1.429-3.5s-1.429-2.05-1.429-1.5m3.96 9c0 .55.436 1.675.969 2.5.533.825.969 1.05.969.5s-.436-1.675-.969-2.5c-.533-.825-.969-1.05-.969-.5M632.5 622c.34.55.816 1 1.059 1s.441-.45.441-1-.477-1-1.059-1-.781.45-.441 1m5.5 11.918c0 2.705-.232 5.743-.515 6.75-.283 1.008.146.482.955-1.168 1.68-3.428 2.057-10.5.56-10.5-.55 0-1 2.213-1 4.918m-1.921-.335c.048 1.165.285 1.402.604.605.289-.722.253-1.585-.079-1.917-.332-.332-.568.258-.525 1.312m156.079.417c0 1.375.227 1.938.504 1.25.278-.687.278-1.812 0-2.5-.277-.687-.504-.125-.504 1.25m.128 10.5c.008 2.75.202 3.756.432 2.236.229-1.52.223-3.77-.014-5-.237-1.23-.425.014-.418 2.764M660 642.941c0 .518.481 1.238 1.068 1.601.588.363.859 1.205.604 1.871-.256.666.379 2.308 1.409 3.649 2.409 3.134 2.397 2.22-.045-3.479-1.857-4.331-3.036-5.745-3.036-3.642m131.49 21.402c-.396 7.405-.516 14.07-.265 14.811.251.74.786-5.108 1.19-12.996.404-7.888.524-14.553.266-14.811-.258-.258-.794 5.59-1.191 12.996m-88.411-8.76c.048 1.165.285 1.402.604.605.289-.722.253-1.585-.079-1.917-.332-.332-.568.258-.525 1.312M789.768 689c-.385 4.125-1.858 13.768-3.273 21.429-1.415 7.662-2.433 14.637-2.263 15.5.808 4.093 7.207-36.324 6.58-41.559-.189-1.579-.658.505-1.044 4.63M708 687.059c0 .582-.498.751-1.107.375-.716-.442-.917-.021-.569 1.191.296 1.031 1.051 4.462 1.678 7.625.627 3.163 1.553 5.75 2.057 5.75.505 0 .851.788.771 1.75-.081.962-.024 3.1.127 4.75.256 2.818.322 2.758 1.085-1 .513-2.531.39-5.213-.336-7.305-.94-2.707-.881-3.492.323-4.344 1.263-.892 1.248-.97-.101-.545-2.252.709-4.177-2.898-3.41-6.39.353-1.604.38-2.916.061-2.916-.318 0-.579.477-.579 1.059m15.624 26.48c-.965 2.514-.681 3.163.498 1.136.584-1.004.851-2.036.593-2.293-.257-.258-.749.263-1.091 1.157M706 719.591c0 1.535 8.452 12.409 9.645 12.409 1.994 0 1.685-1.352-1.567-6.867-1.607-2.726-2.657-5.221-2.333-5.544.323-.324-.837-.589-2.578-.589-1.742 0-3.167.266-3.167.591m-20 13.647c0 1.693.167 1.738 1.5.405.825-.825 1.5-1.682 1.5-1.905 0-.223-.675-.405-1.5-.405s-1.5.857-1.5 1.905m36.015 8.462c-.008.66.773 1.659 1.735 2.22.962.561 1.457 1.033 1.1 1.05-.357.016.993 1.7 3 3.741 3.563 3.623 11.19 5.447 15.883 3.798 4.198-1.475-2.633-4.604-10.019-4.589-1.532.003-2.518-.428-2.191-.957.327-.53.097-.963-.512-.963-.608 0-2.166-1.144-3.462-2.541-1.656-1.787-2.509-2.158-2.876-1.25-.405 1.005-.756.959-1.582-.209-.663-.939-1.066-1.051-1.076-.3m30.735 10.016c-3.073.466-3.787 2.284-.897 2.284 1.02 0 4.62.289 8 .642 5.816.608 6.147.528 6.147-1.5 0-2.199-4.762-2.712-13.25-1.426" fill-rule="evenodd"/>
<path fill="#fbfbfb" stroke="#fbfbfb" d="M449.5 164.016c-7.54 1.157-19.636 6.616-30.75 13.879-5.227 3.416-7.75 4.583-7.75 3.585 0-7.232-13.742 7.417-29.756 31.718-11.14 16.905-12.459 20.261-13.485 34.302-1.526 20.902-1.459 20.609-4.571 19.862-1.478-.355-4.488-1.669-6.688-2.919-2.2-1.251-10.075-3.931-17.5-5.956-7.425-2.025-16.625-5.006-20.445-6.623-8.734-3.699-14.213-4.371-15.532-1.907-1.527 2.854-7.98 3.417-11.294.985-1.525-1.118-3.232-1.749-3.794-1.402-.563.348-1.673.093-2.467-.567-1.681-1.395-1.974-.812-2.891 5.745-.543 3.881-.308 4.48 2.945 7.5 1.945 1.805 6.276 5.894 9.626 9.085 5.249 5.003 6.474 5.719 8.876 5.192 1.559-.343 3.074-.146 3.44.446.36.583 1.941 1.059 3.515 1.059 3.502 0 23.797 5.797 34.021 9.717l7.5 2.876.658 10.454c.8 12.707 4.634 30.538 9.865 45.877 4.735 13.883 6.562 15.976 11.977 13.717 1.155-.481 2.267 1.477 4.834 8.514 13.305 36.47 44.793 62.616 77.671 64.493 11.081.633 11.848.819 15.487 3.759 5.767 4.659 8.623 12.558 4.012 11.094-2.053-.651-10.004 3.1-10.004 4.72 0 .469-10.012 5.736-22.25 11.706-16.088 7.847-25.573 13.203-34.25 19.338-6.6 4.666-13.432 8.795-15.182 9.174-2.115.459-4.453 2.262-6.967 5.376-2.081 2.577-4.18 4.964-4.665 5.305-.486.341-.726 1.372-.534 2.292.264 1.268 3.086-.51 11.699-7.373 12.933-10.305 26.613-19.481 31.988-21.455 2.014-.739 14.313-6.123 27.333-11.964 13.019-5.841 24.09-10.62 24.601-10.62.511 0 1.246 6.413 1.632 14.25.715 14.484 1.238 16.485 4.028 15.414 2.048-.786 2.096-11.762.122-27.645-.785-6.314-1.262-11.646-1.06-11.848 1.044-1.043 5.369 3.501 4.88 5.127-1.38 4.591 4.952 5.567 10.625 1.636 2.911-2.016 17.809-11.512 23.208-14.792 2.039-1.239 4.823-3.578 6.185-5.198 2.037-2.421 6.208-4.944 8.172-4.944.239 0 .441 2.363.449 5.25.015 5.85 2.963 16.909 4.659 17.474.602.201 1.878-.418 2.836-1.375 1.753-1.754 11.849-2.174 18.646-.778 1.46.301 2.958.056 3.328-.543.402-.65 2.013-.838 3.996-.466 6.234 1.17 10.023 1.459 27.521 2.105 16.195.597 29.935.762 36 .431 6.265-.341 8.965.044 20.291 2.894 14.748 3.712 16.906 4.921 22.348 12.521 12.284 17.153 24.813 42.614 28.288 57.487 1.221 5.225 3.133 12.796 4.249 16.825 1.117 4.029 2.158 10.329 2.314 14 .278 6.541 2.058 15.175 3.128 15.175.298 0 .251-1.319-.103-2.93-.5-2.278-.218-3.159 1.268-3.954 3.522-1.885 4.153.449 2.032 7.52-1.069 3.563-1.725 7.015-1.458 7.671.3.737.515.611.564-.33.043-.838 3.004-10.693 6.579-21.9 3.575-11.208 6.458-21.548 6.406-22.977-.054-1.499-1.473 1.6-3.349 7.317l-3.255 9.917-1.638-4.807c-2.9-8.51-6.718-14.173-8.195-12.154-1.087 1.487-1.413 1.021-2.502-3.582-4.089-17.279-14.672-42.125-23.728-55.711-3.146-4.719-6.399-9.922-7.229-11.561-2.111-4.169-8.893-8.391-16.262-10.123a876.51 876.51 0 0 1-9.748-2.347c-4.977-1.25-16.224-2.851-25.098-3.573-7.306-.594-7.58-.708-7.148-2.97.408-2.133-.004-2.426-4.402-3.13-12.585-2.015-22.094-.836-25.838 3.203l-2.315 2.499-13.241-2.662c-12.046-2.421-13.323-2.514-14.149-1.039-.642 1.148-2.323 1.623-5.736 1.623-3.041 0-5.282.547-6.056 1.479-.968 1.167-1.68 1.241-3.372.35-3.302-1.737-3.613-2.727-3.63-11.54-.017-9.138-.483-8.376 8.909-14.56 3.533-2.326 8.051-6.287 10.04-8.803 5.24-6.629 21.514-38.192 24.045-46.636 1.431-4.774 2.764-7.401 3.946-7.776 6.906-2.192 21.999-26.07 22.802-36.074.58-7.225-4.131-21.065-7.559-22.207-1.558-.52-2.417 6.49-1.097 8.956 3.452 6.449-.796 26.227-6.37 29.663-4.406 2.716-8.46 3.618-10.111 2.247-2.177-1.807-4.215 1.299-2.837 4.323 1.077 2.366-.524 13.137-2.872 19.313-1.726 4.539-1.801 1.94-.238-8.248 1.44-9.389 1.302-43.846-.183-45.33-1.477-1.477-1.982 3.021-2.599 23.14-1.261 41.132-6.696 57.58-25.065 75.849-6.841 6.803-8.576 9.094-8.143 10.75.334 1.275.078 2.104-.65 2.104-.66 0-1.015-.553-.79-1.228.566-1.699-1.439-3.634-3.103-2.995-1.008.386-1.192-.037-.696-1.599.65-2.05.409-2.117-6.784-1.902-4.102.123-7.222.61-6.934 1.081.289.472-.412.56-1.557.197-3.173-1.008-10.251.489-7.652 1.618 1.345.584.649.696-2.163.349-4.927-.608-13.986.47-12.365 1.472 1.438.889-12.793 5.581-19.699 6.494-5.253.695-11.662-.081-10.891-1.318.229-.368-2.58-.475-6.241-.239-5.946.385-6.284.512-3.158 1.194 2.924.638 2.637.715-1.75.466-2.887-.163-5.25.06-5.25.496 0 2.285-7.551 1.319-10.446-1.336-1.65-1.512-4.137-2.757-5.527-2.765-1.999-.012-2.213-.218-1.027-.985.825-.533 1.107-.976.628-.985-.48-.008-.313-.69.372-1.515.936-1.128.95-1.5.056-1.5-.654 0-2.662-1.123-4.461-2.495-1.799-1.373-3.525-2.241-3.836-1.931-1.903 1.903-27.759-19.345-27.759-22.811 0-.42-.969-1.732-2.152-2.915-1.184-1.184-4.046-5.223-6.359-8.975-2.313-3.752-4.567-6.496-5.008-6.098-.441.399-.471.152-.068-.548.91-1.579-1.531-7.358-2.908-6.884-.553.19-.919 2.779-.813 5.752.172 4.829.103 5.032-.648 1.905-.462-1.925-2.268-6.875-4.012-11-5.696-13.469-8.294-27.258-10.47-55.578-.526-6.844-.47-7.076 1.697-7 1.745.061 2.241-.476 2.241-2.422 0-1.949-.495-2.483-2.25-2.421-1.906.068-2.25-.438-2.25-3.309 0-2.004.408-3.136 1-2.77.55.34 1-.282 1-1.382 0-1.1-.562-2.354-1.25-2.788-.826-.52-.26-.964 1.668-1.309 3.816-.682 4.42-2.752 1.163-3.99-3.051-1.16-3.611-9.396-1.114-16.4.758-2.128 1.117-4.603.797-5.5-.322-.901-.192-1.274.291-.834.48.439 1.718-1.586 2.75-4.5 2.485-7.009 3.217-11.797 1.804-11.797-.939 0-1.523 1.858-1.283 4.083.035.321-.568.584-1.339.584-2.698 0-2.377-2.67 1.054-8.739 1.902-3.366 3.46-6.414 3.46-6.774.001-.36 1.126-1.961 2.5-3.56 2.24-2.604 2.499-2.693 2.499-.857 0 1.127.712 2.322 1.582 2.656 2.356.904 2.414.836 1.82-2.143-.575-2.888.303-5.566 3.628-11.067 1.102-1.825 1.702-3.807 1.333-4.405-.401-.648-.207-.8.478-.376.687.425 1.62-.319 2.315-1.846.641-1.406 1.543-2.556 2.005-2.556.461 0 .839-.477.839-1.059s-.445-.784-.989-.448c-.577.357-.727-.069-.36-1.025.423-1.104.855-1.268 1.326-.505.494.799 1.067.689 1.947-.372.687-.827.961-1.968.61-2.536-.392-.634.014-.782 1.051-.384 1.165.447 1.545.22 1.228-.733-.254-.76.56-2.402 1.808-3.65 1.248-1.248 2.631-2.847 3.074-3.553 2.141-3.417 36.366-18.67 44.852-19.989 1.074-.167 2.551-.677 3.281-1.132.731-.456 2.531-1.192 4-1.635 3.574-1.079-5.224-1.052-12.328.037m30-.016c1.65.445 7.05 1.556 12 2.469 4.95.912 9.9 1.874 11 2.137 1.532.366 1.415.131-.5-1.002-2.456-1.453-10.632-3.027-20.5-3.947-3.718-.347-4.231-.259-2 .343m81.211 41.623c-.343.342 1.121 2.705 3.254 5.25 6.29 7.508 11.035 15.152 11.035 17.777 0 1.347.694 3.792 1.543 5.433 4.698 9.085 7.407 25.35 7.44 44.667.018 10.651 1.129 12.738 4.817 9.05 2.123-2.123.959-28.542-1.959-44.462-2.546-13.889-21.95-41.896-26.13-37.715M383 224c0 .55.477 1 1.059 1s.781-.45.441-1-.816-1-1.059-1-.441.45-.441 1m192.015 14.691c-.008 1.205.435 2.469.985 2.809 1.273.787 1.273-1.53 0-3.5-.788-1.219-.972-1.09-.985.691m-260.282 18.433c.679.684 1.486.991 1.793.683.308-.308-.247-.867-1.233-1.243-1.425-.542-1.54-.428-.56.56m9.267 2.957c0 .505.477.919 1.059.919s.781.45.441 1-.425 1-.189 1 4.96 1.346 10.499 2.992c10.679 3.172 17.181 3.144 9.076-.039-8.246-3.239-20.886-6.793-20.886-5.872M734.2 281.2c-2.143 2.143-1.275 3.037 2.3 2.366 2.901-.544 3.885-.244 5.75 1.755 5.693 6.101 8.775 10.825 9.676 14.83.538 2.392 1.702 6.374 2.586 8.849.885 2.475 2.659 8.775 3.943 14 1.932 7.863 6.044 22.355 10.588 37.315.537 1.769.442 3.72-.254 5.25-1.25 2.742.015 11.845 3.327 23.935 1.054 3.85 2.814 11.05 3.911 16 1.096 4.95 2.424 10.35 2.951 12 .526 1.65 1.204 4.575 1.507 6.5 1.747 11.126 2.8 13.453 5.446 12.037 1.617-.865 1.837-2.239 1.765-11.02-.058-7.14.302-10.39 1.247-11.274 1.086-1.016 1.23-.831.786 1.008-.298 1.239-.134 2 .364 1.691.499-.308.907.367.907 1.499 0 1.132.48 2.059 1.067 2.059s.834-.788.548-1.75c-.286-.962-.841-3.1-1.233-4.75-.392-1.65-1.426-3.548-2.298-4.218-1.363-1.048-1.374-1.225-.084-1.266 1.333-.041 1.333-.152 0-.994-1.543-.974-2.137-14.062-1-22.022.442-3.096.249-3.492-1.677-3.428-3.435.112-4.94-3.672-3.362-8.455 1.497-4.536 1.039-5.693-2.524-6.374-1.931-.369-2.776 0-3.31 1.443-.75 2.028-1.705-.914-4.213-12.988-.675-3.249-1.55-5.137-2.258-4.875-.636.235-1.043.933-.906 1.552.138.619-.109 1.125-.548 1.125-.44 0-1.617-4.387-2.618-9.75-5.8-31.081-15.165-56.341-22.897-61.756-2.563-1.796-7.823-1.958-9.487-.294m-276.473 1.167c-2.285 5.654 1.699 22.77 4.322 18.569 1.186-1.901.03-12.031-1.591-13.936-.701-.825-1.433-2.625-1.626-4-.307-2.193-.443-2.271-1.105-.633m14.562 3.977c-3.911 2.625-3.963 2.984-.741 5.096 2.149 1.408 3.726 1.533 10.052.796 6.112-.711 7.652-.609 8.3.55.681 1.217 1.245 1.19 3.898-.182 1.707-.882 3.304-1.604 3.55-1.604s.317 2.922.158 6.492c-.16 3.571.064 6.274.497 6.006.433-.268 1.033.153 1.333.936.3.782 1.585 1.62 2.855 1.861 1.27.242.661.276-1.354.075-2.014-.201-4.489-.606-5.5-.899-2.152-.624-.083.474 5.663 3.005l3.5 1.542-3.5-.598c-8.323-1.422-9.669-.513-5.655 3.818 4.226 4.561 21.193 5.198 18.378.69-.789-1.263-2.327-1.928-4.464-1.928-3.784 0-4.704-3.818-1.492-6.193 3.117-2.304 5.233-6.627 5.233-10.688 0-4.34 1.091-5.208 5.116-4.073 2.789.786 3.589.467 5.756-2.296 3.336-4.253.654-4.757-24.744-4.656-22.454.09-23.788.202-26.839 2.25m-89.912 3.116c-.352.917-.113 2.824.531 4.238 1.163 2.552 1.232 2.566 9.627 1.885l8.455-.687-1.002 2.636c-1.122 2.951-.98 3.299 3.723 9.109 3.644 4.503 7.937 5.93 12.114 4.028 4.618-2.103 6.854-10.847 3.604-14.098-1.429-1.428-1.308-1.571 1.333-1.571 1.598 0 3.201-.296 3.563-.658 1.224-1.224-1.553-3.342-4.382-3.342-1.547 0-3.855-.393-5.128-.873-5.126-1.933-31.742-2.48-32.438-.667m-19.975 7.29c-4.206 6.327-2.342 25.801 4.369 45.654 4.758 14.076 6.303 10.688 3.149-6.904-1.085-6.05-2.502-17.863-3.148-26.25-1.244-16.143-1.487-16.838-4.37-12.5m226.348 3.33c-2.027 1.181-2.326 2.923-.5 2.914 3.508-.015 9.006-2.219 7.661-3.07-1.861-1.178-4.988-1.11-7.161.156m135.776 9.133c-.487 3.72-.334 6.861.437 9 .651 1.808 4.042 12.737 7.536 24.287 3.493 11.55 7.246 23.839 8.339 27.308l1.988 6.308-2.478.942c-1.363.518-3.097.942-3.854.942-.757 0-1.665.468-2.019 1.04-.414.671.249.816 1.869.41 4.993-1.253 6.476.098 6.405 5.838-.036 2.867.681 7.673 1.593 10.68.912 3.007 1.658 8.474 1.658 12.148 0 10.282 7.747 40.777 10.004 39.381 1.252-.773 1.338 16.414.092 18.381-.48.758-1.373 1.069-1.984.691-.612-.378-1.112-.155-1.112.494 0 .784-.421.863-1.25.235-.687-.522-2.487-.829-4-.683-2.591.25-2.756.023-2.85-3.925-.099-4.184-1.598-10.53-1.816-7.69-.102 1.333-.233 1.333-1.18 0-1.087-1.529-1.073-1.436 1.094 7.666.625 2.628.433 3.25-1.135 3.66-1.932.505-3.863-1.818-3.863-4.646 0-.798-.672-2.74-1.494-4.316-.821-1.575-1.496-3.839-1.5-5.031-.003-1.191-.436-2.316-.962-2.5-.525-.183-1.088-2.65-1.25-5.482-.162-2.832-.584-4.972-.939-4.756-1.027.626-1.855-2.431-1.154-4.259.398-1.036.241-1.418-.417-1.011-1.478.913-2.342-3.108-1.628-7.575.359-2.247.196-3.75-.407-3.75-1.081 0-3.897-5.958-3.462-7.324.144-.454-.115-.592-.575-.307-.461.285-2.224-2.292-3.918-5.727-2.885-5.851-2.992-6.455-1.687-9.559 1.828-4.348 1.833-4.334-1.357-3.664-6.124 1.286-7.569-6.489-1.75-9.412l3-1.507-3.39-.324c-1.908-.182-3.976.261-4.728 1.013-1.929 1.929-2.52 14.451-.752 15.919.754.625 1.37 1.551 1.37 2.056 0 .506.803 1.781 1.784 2.835.981 1.053 2.338 4.747 3.015 8.208.677 3.461 2.136 8.993 3.242 12.293 6.518 19.445 10.334 35.443 5.367 22.5-1.372-3.575-2.9-6.642-3.395-6.815-.495-.173-.624-1.034-.287-1.914.405-1.056.22-1.356-.546-.882-.765.473-1.573-.831-2.377-3.836-.67-2.504-1.498-4.553-1.841-4.553-.67 0 1.036 8.975 2.948 15.5.644 2.2 1.431 6.7 1.749 10 .318 3.3.862 6.225 1.209 6.5.348.275 1.186 2.044 1.864 3.932.677 1.887.866 3.012.42 2.5-1.338-1.536-10.398-15.258-17.121-25.932-6.493-10.307-10.579-14.768-12.813-13.987-1.659.58-3.218-3.577-3.218-8.578 0-3.426-1.945-5.994-2.033-2.685-.019.688-.878.238-1.911-1-2.505-3.003-5.056-2.933-5.056.14 0 5.277 20.028 41.108 20.814 37.237.209-1.03-.533-3.108-1.648-4.616-2.56-3.462-7.389-14.842-6.909-16.281.466-1.399 4.277 4.089 12.299 17.714 7.042 11.961 7.111 12.161 4.979 14.517-1.289 1.424-1.274 1.976.123 4.579 1.483 2.766 2.161 12.125 1.226 16.936-.243 1.248.164 1.985 1.104 2 .876.014 2.25 2.145 3.341 5.177 3.169 8.818 7.638 12.748 13.682 12.032 2.908-.344 4.989-.193 4.989.362 0 .524.961.953 2.136.953 1.994 0 2.083.316 1.336 4.75-1.114 6.614-1.01 11.3.268 12.09.621.383 1.201 4.725 1.359 10.165.152 5.222.655 10.279 1.119 11.237.949 1.959-.74 14.016-2.452 17.506-.606 1.237-.82 2.532-.474 2.877.346.346-.054 1.948-.888 3.56-1.394 2.697-4.963 14.891-6.092 20.815-.262 1.375-1.732 6.775-3.266 12s-3.545 12.087-4.469 15.25c-1.826 6.254-2.66 6.95-4.186 3.5-.548-1.237-.894-1.74-.77-1.118.223 1.117-1.612 9.497-2.247 10.261-.179.215-1.096-.235-2.037-1-1.533-1.248-1.623-1.185-.863.607 1.138 2.682.977 5.388-.534 9-.691 1.65-1.413 5.025-1.605 7.5-.46 5.939-2.009 9.557-4.904 11.453-2.259 1.48-2.437 4.547-.265 4.547.524 0 .693-.419.377-.931-.317-.512-.118-1.213.441-1.559.587-.363 1.016.452 1.016 1.931 0 1.608-.557 2.559-1.5 2.559-1.026 0-1.499 1.026-1.496 3.25l.003 3.25 1.997-3.274c1.098-1.801 1.996-3.713 1.996-4.25 0-.537.45-.976 1-.976.617 0 1 5.126 1 13.378 0 10.035.339 13.658 1.355 14.502 1.046.868 1.315 4.566 1.176 16.212-.146 12.34.108 15.482 1.395 17.259 2.107 2.907 3.667 5.438 5.991 9.717 2.561 4.714 9.142 10.574 12.721 11.324 7.583 1.591 17.598 2.858 24.638 3.119 8.294.307 11.14 1.602 10.179 4.63-.664 2.093 1.016 2.538 2.245.596.44-.695 2.15-1.715 3.8-2.268 6.169-2.064 12.394-15.575 15.972-34.667 4.079-21.767 4.681-30.913 5.551-84.302.475-29.15 1.153-64.475 1.508-78.5.354-14.025.349-25.208-.01-24.851-1.171 1.165-3.447 16.171-3.617 23.851l-.167 7.5-.904-5.5c-.498-3.025-1.24-7.075-1.65-9-.892-4.187.934-16.96 3.2-22.377.891-2.132 2.315-6.407 3.164-9.5l3.011-10.973c.808-2.942 2.138-6.305 2.955-7.473.818-1.167 1.507-3.034 1.532-4.15.025-1.115.634-3.377 1.353-5.027 1.237-2.84 1.281-2.707.817 2.5-.269 3.025-.878 5.65-1.352 5.833-.475.184-.863 1.052-.863 1.929 0 .878-.431 2.978-.958 4.667-1.326 4.252-5.042 20.236-5.042 21.69 0 3.152 3.821-2.739 4.898-7.553.851-3.803 1.935-5.882 3.656-7.009 1.376-.902 2.449-2.577 2.454-3.83.029-8.552 20.887-48.727 25.298-48.727 1.838 0 5.262-3.804 10.125-11.25 2.932-4.489 4.785-6.342 6.575-6.576 4.81-.629 12.215-14.524 9.973-18.713-.913-1.707-.955-3.091-.162-5.366 1.359-3.9.332-4.992-9.186-9.767l-7.131-3.577 6.435 5.939c6.377 5.885 6.418 5.957 4.5 7.905-1.064 1.081-2.574 3.19-3.354 4.685-.78 1.496-2.002 2.72-2.715 2.72-1.77 0-3.736 3.71-2.232 4.211 2.01.67-2.857 8.429-7.809 12.453-5.405 4.39-10.19 9.469-14.409 15.293-2.709 3.739-5.916 5.389-5.916 3.043 0-.55.461-1 1.025-1 .563 0 1.452-1.125 1.975-2.5.523-1.375 1.567-2.5 2.32-2.5 1.42 0 4.347-2.749 4.792-4.5.14-.55 1.255-1.787 2.478-2.749 1.35-1.062 2.036-2.465 1.747-3.57-.262-1.001.23-2.407 1.093-3.123 2.271-1.884 1.927-3.18-.68-2.567-4.015.944-5.237-.848-5.249-7.701-.008-5.215-.479-6.97-2.756-10.272-1.51-2.19-2.745-4.804-2.745-5.809s-.445-1.552-.989-1.216c-.588.363-.72-.088-.326-1.115.506-1.317.27-1.575-.996-1.089-3.266 1.253-4.527-4.827-4.832-23.289-.178-10.773-.865-14-2.979-14-.483 0-.878.93-.878 2.066 0 1.136-.499 2.998-1.109 4.137-1.1 2.056-1.324 16.719-.458 30.047.246 3.78.032 6.75-.485 6.75-.509 0-.858.788-.778 1.75.571 6.809-1.587 8.039-6.576 3.749-3.979-3.422-4.19-3.311-6.674 3.501-1.204 3.3-2.578 6-3.054 6s-.866 1.125-.866 2.5c0 1.467.517 2.397 1.25 2.25 1.709-.342 2.143 7.67.808 14.895-1.252 6.772-.364 5.943-7.193 6.711l-5.636.635.078-7.746c.049-4.834-.606-10-1.741-13.745-1.001-3.3-1.875-7.238-1.943-8.75-.138-3.091-1.239-3.66-1.934-1-.385 1.475-.476 1.435-.575-.25-.134-2.265-6.008-3.164-7.364-1.127-.553.83-.949.82-1.506-.038-1.582-2.436-3.904 1.048-4.444 6.665-.491 5.116-.455 5.238.513 1.75 1.284-4.632 3.246-5.081 2.183-.5-1.186 5.109-1.102 8.018.245 8.483.906.312 1.062-.467.578-2.889l-.664-3.317 2.423 1.606c3.33 2.208 3.575 4.486.565 5.242a80.655 80.655 0 0 0-4.3 1.215c-1.53.497-1.588.415-.343-.48.825-.594 1.01-1.086.41-1.095-.599-.008-1.637-1.928-2.306-4.265-1.155-4.036-4.05-12.705-11.771-35.25-4.03-11.767-5.824-19.043-8.384-34-1.955-11.424-2.863-15.085-7.379-29.756-2.93-9.521-4.94-14.04-5.843-13.137-.318.317-.888-1.602-1.268-4.265-.38-2.663-1.252-7.317-1.939-10.342l-1.247-5.5-.747 5.713M412 306c-1.282.828-1.246.972.25.985.962.008 1.75-.435 1.75-.985 0-1.22-.113-1.22-2 0m2.75 6.662c.688.278 1.813.278 2.5 0 .688-.277.125-.504-1.25-.504s-1.937.227-1.25.504m-10.919 2.588c-4.299 3.464-2.484 6.801 3.619 6.65 3.339-.082 3.611-.222 1.55-.797-2.26-.631-2.044-.826 2.25-2.03 5.253-1.474 5.367-1.599 3.321-3.644-1.761-1.762-8.634-1.876-10.74-.179m13.836-.583c-.367.366-.667 1.131-.667 1.7 0 .626.466.567 1.183-.15.651-.651.951-1.416.667-1.7-.284-.284-.817-.217-1.183.15m-9.854 2.016c.721.289 1.584.253 1.916-.079.332-.332-.258-.568-1.312-.525-1.165.048-1.402.285-.604.604m-5 7c.721.289 1.584.253 1.916-.079.332-.332-.258-.568-1.312-.525-1.165.048-1.402.285-.604.604m386.001 36.583c-4.227 1.723-7.486 3.455-7.243 3.848.243.393-.012.866-.565 1.051-.554.184 3.381.266 8.744.181 15.606-.245 14.878-.156 13.012-1.596-.891-.687-1.765-2.375-1.941-3.75-.449-3.495-2.915-3.441-12.007.266m-400.735 6.317c.048 1.165.285 1.402.604.605.289-.722.253-1.585-.079-1.917-.332-.332-.568.258-.525 1.312m101.421 1.026c-12.225 1.626-24.337 2.501-37.753 2.729-20.501.347-21.41.492-20.36 3.229 1.518 3.954 78.765-1.193 80.362-5.354.546-1.423-1.388-3.262-3.249-3.09-.55.051-9.1 1.17-19 2.486M823 378.335c0 .7 1.632 2.823 3.627 4.719l3.628 3.446-2.378-4.233c-2.402-4.277-4.877-6.272-4.877-3.932m-56.977 3.137c-.975 1.175-.911 1.782.314 3.008.949.949 1.773 1.15 2.158.528.343-.555.116-1.008-.503-1.008-.672 0-.87-.808-.492-2 .752-2.369.211-2.562-1.477-.528M381 385.52c0 2.373 5.506 12.218 8.797 15.73 4.313 4.602 4.511 3.074.324-2.5-2.169-2.887-5.109-7.455-6.532-10.149-1.424-2.694-2.589-4.081-2.589-3.081m462.506 14.486c.998 1.104 2.032 1.789 2.297 1.524.672-.672-1.822-3.53-3.08-3.53-.568 0-.216.903.783 2.006M534.5 414c-.34.55.084 1 .941 1s1.559-.45 1.559-1-.423-1-.941-1-1.219.45-1.559 1m-24.5 1.393c0 .949 2.993 1.427 3.527.563.325-.526-.336-.956-1.468-.956s-2.059.177-2.059.393m10 .607c0 1.253 1.061 1.253 3 0 1.213-.784 1.069-.972-.75-.985-1.237-.008-2.25.435-2.25.985m-79 .487c0 1.07 8.092 5.513 10.039 5.513 2.737 0 1.486-1.965-1.348-2.118-1.703-.092-1.523-.289.809-.882l3-.763-3.691-.119c-2.03-.065-3.969-.568-4.309-1.118-.616-.997-4.5-1.439-4.5-.513m96.813 1.196c.721.289 1.584.253 1.916-.079.332-.332-.258-.568-1.312-.525-1.165.048-1.402.285-.604.604m-50.354 1.384c-.363.586-.389 1.336-.059 1.666.33.33.6.108.6-.493s.788-1.299 1.75-1.551c1.578-.412 1.584-.468.059-.573-.93-.064-1.988.364-2.35.951m-27.697.64c1.244.239 3.044.23 4-.02s-.062-.446-2.262-.435c-2.2.011-2.982.216-1.738.455m62.738.757c-3.862 1.768-2.066 1.794 2.5.036 1.925-.741 2.825-1.362 2-1.379-.825-.017-2.85.587-4.5 1.343m11.692-.751c-2.477.474-2.498 2.598-.03 3.077 2.077.404 6.838-1.522 6.838-2.765 0-1.026-2.476-1.139-6.808-.312m-96.685 2.276c-.35.566.051.734.941.393 1.732-.665 2.049-1.382.611-1.382-.518 0-1.216.445-1.552.989m85.791.415c-4.786 1.743-4.898 2.437-.257 1.589 2.266-.415 4.624-1.258 5.239-1.873 1.439-1.439-.561-1.325-4.982.284m286.677 4.161c-1.228 3.231-1.28 5.168-.104 3.885 1.054-1.15 2.388-6.45 1.623-6.45-.299 0-.982 1.154-1.519 2.565m-339.225-.903c.688.278 1.813.278 2.5 0 .688-.277.125-.504-1.25-.504s-1.937.227-1.25.504m341.239 8.588c-.599 2.337-1.741 6.243-2.539 8.678-1.84 5.62-1.831 5.739.469 6.341 1.19.311 2.639-.326 3.813-1.675 3.398-3.909 3.649-5.16.433-2.167-3.218 2.996-5.577 2.838-3.365-.225 4.079-5.649 5.193-8.104 5.196-11.452.006-5.328-2.598-5.003-4.007.5m27.385-2.783c-.309.807-.331 2.044-.047 2.75.328.818.544.66.594-.436.051-1.108.615-1.512 1.59-1.138 1.082.415 1.336.121.893-1.032-.771-2.01-2.286-2.082-3.03-.144m-60.295 2.116c.048 1.165.285 1.402.604.605.289-.722.253-1.585-.079-1.917-.332-.332-.568.258-.525 1.312m40.522 2.083c.92 3.832 1.399 4.194 1.399 1.06 0-1.435-.468-2.897-1.04-3.251-.682-.421-.806.333-.359 2.191m-60.428 6.401c1.14 3.268 2.827 3.022 2.827-.413 0-1.482-.644-2.277-1.924-2.373-1.704-.129-1.808.19-.903 2.786m-164.923-.106c-4.059 1.758-2.419 2.04 11.5 1.976 10.329-.048 13.128-.316 11.25-1.079-3.501-1.422-20.033-2.074-22.75-.897m170 2.701c-1.697.685-1.586 2.338.156 2.338.88 0 1.224.698.92 1.862-.296 1.13.149 2.106 1.131 2.483 2.075.796 3.025-1.577 1.655-4.135-.573-1.071-.757-2.231-.41-2.579.731-.731-1.614-.71-3.452.031m-123.437 6.021c.721.289 1.584.253 1.916-.079.332-.332-.258-.568-1.312-.525-1.165.048-1.402.285-.604.604m11.687 3.343c4.95 1.623 9.45 2.937 10 2.922 2.154-.06-4.374-2.861-10.17-4.363-9.724-2.519-9.636-1.773.17 1.441m84.5-2.085c0 .518.445 1.216.989 1.552.566.35.734-.051.393-.941-.665-1.732-1.382-2.049-1.382-.611m-5.508 11.263c-.369.938-.003 2.656.814 3.823 1.994 2.847 2.73 1.21 1.136-2.527-1.046-2.451-1.403-2.688-1.95-1.296M809.5 481c-.34.55-.141 1 .441 1s1.059-.45 1.059-1-.198-1-.441-1-.719.45-1.059 1m-83.5 8.333c0 1.48 7.068 8.933 7.787 8.213.25-.25-.837-2.499-2.416-4.998-2.779-4.399-5.371-5.95-5.371-3.215m-311.083 18.503c.685 1.284.984 2.597.664 2.916-.32.32-.581.056-.581-.585 0-1.556-1.66-1.495-2.265.083-.293.764.443 1.306 1.893 1.394 2.841.173 3.263-2.664.708-4.772-1.514-1.249-1.552-1.162-.419.964m-39.224 1.739c-6.985 7.534-12.167 20.49-13.183 32.965-.311 3.828-1.215 12.135-2.009 18.46-3.1 24.725-5.95 79.739-6.941 134-.317 17.325-.809 44.55-1.093 60.5-.285 15.95-.778 32.487-1.096 36.75l-.579 7.75H356l-.012-12.25c-.015-15.242 1.662-91.306 3.071-139.25 1.89-64.339 5.509-108.955 9.449-116.5.718-1.375 1.862-5.2 2.542-8.5 1.058-5.13 3.307-9.844 7.277-15.25 1.642-2.236-.183-1.318-2.634 1.325M421 510c0 1.1.408 2 .906 2 .499 0 .671-.9.384-2-.288-1.1-.696-2-.907-2-.21 0-.383.9-.383 2m-2.236 1c-.405 1.375-.81 4.075-.9 6-.142 3.04-.218 3.138-.58.75-.229-1.513-.837-2.75-1.35-2.75-.514 0-.966 1.237-1.004 2.75-.063 2.468-.164 2.545-.983.75-.645-1.412-.845-.162-.68 4.252.128 3.438-.086 6.251-.477 6.25-.39-.001-.861-3.714-1.046-8.252l-.337-8.25-.219 10c-.134 6.129-.555 9.469-1.088 8.628-2.528-3.991-3.558-.408-3.293 11.449.786 35.153 8.226 172.503 10.152 187.423.533 4.125 1.237 11.775 1.564 17 .327 5.225 1.469 18.836 2.536 30.248 1.068 11.411 1.941 21.198 1.941 21.75 0 .551 2.055 1.002 4.567 1.002 3.883 0 4.489-.263 4.046-1.75-3.2-10.724-13.704-138.699-11.568-140.93.432-.451 1.101-11.17 1.487-23.82.386-12.65.924-23.375 1.195-23.833.862-1.455.237-88.01-.662-91.667-.575-2.341-.946-2.838-1.12-1.5-.142 1.1-.526-.25-.852-3-.498-4.195-.712-4.597-1.329-2.5m204.429 43.251c.351 6.572.643 6.408-6.592 3.701-4.615-1.727-5.798-1.846-7.538-.76-3.894 2.432-2.553 4.563 3.687 5.859 13.73 2.853 13.13 2.516 16.258 9.129 2.281 4.824 2.77 7.014 2.386 10.693-.388 3.719-.065 5.118 1.643 7.127l2.125 2.5-.518-3.75c-.947-6.853-.319-5.683 13.02 24.25 3.554 7.975 9.088 19.9 12.298 26.5 11.032 22.68 15.834 37.101 7.592 22.796-2.154-3.738-6.096-10.084-8.76-14.102-2.664-4.018-5.908-9.418-7.209-12l-5.518-10.944c-1.733-3.437-3.346-6.25-3.584-6.25-.901 0 .851 6.568 2.154 8.079.75.868 1.363 2.118 1.363 2.778 0 .66 1.288 3.775 2.863 6.922 1.574 3.146 3.414 7.423 4.087 9.502.674 2.08 2.368 5.826 3.765 8.324 2.169 3.881 2.372 4.933 1.396 7.219-1 2.339-.97 2.456.233.926 1.971-2.506 2.431-2.232 3.774 2.25.659 2.2 1.535 4 1.945 4 .86 0 5.937 8.383 5.937 9.803 0 .521-1.35 1.217-3 1.547-1.65.33-3 1.092-3 1.692 0 1.181 3.816.373 5.45-1.154 1.383-1.292 2.257-1.094 2.932.664.34.888.173 1.291-.392.942-.542-.335-1.987.091-3.211.948-3.639 2.549-5.611 1.99-5.966-1.692-.172-1.788-.731-3.25-1.241-3.25-1.754 0-2.397 5.532-2.993 25.744-1.738 58.954-1.732 56.456-.131 53.756 1.924-3.248 1.924-1.486-.001 5.701-1.249 4.66-1.421 8.793-.879 21.049l.674 15.25h12.64l.952-4.25.952-4.25.107 4.25L673 800h14.227l-.636-4.25c-.929-6.213-2.416-23.058-3.598-40.75-.569-8.525-1.472-19.325-2.006-24-1.24-10.857-1.267-10.477.639-8.895 1.474 1.223 1.559.952.912-2.878-.858-5.083.04-5.289 4.228-.969 2.82 2.91 3.271 4.219 4.218 12.25 1.723 14.611 2.854 29.048 3.483 44.492.874 21.425 1.353 25 3.355 25.001 2.493.002.913-38.522-2.849-69.454-1.496-12.3.339-12.687 7-1.476 2.322 3.909 7.075 10.89 10.562 15.513l6.341 8.407-3.188-.246c-2.276-.175-3.188.184-3.188 1.255 0 1.994 5.78 3.874 12.128 3.944 2.82.031 6.743.731 8.718 1.556 4.896 2.046 9.524 1.877 13.404-.489 4.485-2.735 4.082-3.313-1.75-2.511-5.666.779-6.621.025-1.75-1.381 2.812-.812 2.292-.951-3.862-1.029-6.327-.08-7.53-.421-10.888-3.09-2.076-1.65-4.388-3-5.138-3-.749 0-1.362-.576-1.362-1.281 0-.704-2.249-3.741-4.997-6.75-7.279-7.967-15.155-20.081-13.978-21.499.527-.635.653-1.459.281-1.831-.861-.861-3.271-7.737-3.291-9.389-.008-.687.716-1.25 1.61-1.25 1.281 0 1.507.688 1.068 3.25-.307 1.788-.325 2.685-.04 1.994.285-.691.929-1.002 1.432-.691 1.582.977.981-6.785-1.039-13.428-1.691-5.562-1.754-6.56-.492-7.822 1.671-1.671 1.841-4.153.432-6.303-.699-1.067-.803-.561-.36 1.75.405 2.11.229 3.25-.501 3.25-1.288 0-1.389-.495-1.629-8-.213-6.668-1.331-13.003-2.291-12.992-1.081.012-3.205 5.108-3.205 7.691 0 1.266-.39 2.301-.867 2.301-2.407 0-4.842-34.343-2.906-41 .4-1.375 2.762-4.731 5.25-7.458 2.488-2.727 4.523-5.738 4.523-6.691 0-.953.45-2.011 1-2.351.55-.34 1-1.045 1-1.567 0-.523-.9-.388-2 .299s-2 1.891-2 2.675c0 .785-.276 1.151-.613.814-.999-.999-9.985 12.352-9.446 14.034.045.14-.597 1.88-1.427 3.866-1.169 2.796-1.372 5.897-.904 13.745.585 9.808.549 10.058-1.14 7.769-2.193-2.973-7.305-13.153-8.459-16.846-.479-1.534-2.305-6.164-4.056-10.289-5.292-12.462-12.746-30.663-18.937-46.242-3.223-8.108-6.538-15.421-7.367-16.25-1.722-1.722-6.651-2.048-6.651-.441 0 .629-.862.794-2.099.402-1.786-.567-1.999-.354-1.432 1.432 1.689 5.322-1.054.978-7.042-11.151l-6.54-13.25.306 5.751m163.161-2.732c-.32.836-.239 4.549.182 8.25.421 3.702.66 10.669.531 15.481-.153 5.758.137 8.75.85 8.75.596 0 1.119-1.013 1.162-2.25.043-1.237.312-1.67.596-.962s-.201 2.801-1.079 4.651c-.959 2.022-1.549 5.696-1.478 9.212.097 4.781.258 5.301.882 2.849.986-3.876 1.044 20.607.08 34-.396 5.5-.365 10.675.07 11.5.599 1.138.797.958.82-.75.016-1.237.367-2.25.78-2.249.697.001.74 3.124.295 21.499-.201 8.289-1.939 26.365-2.741 28.5-.309.825-.467 3.462-.351 5.86.159 3.274-.1 4.167-1.041 3.586-.889-.55-1.06-.273-.588.955.365.951-.062 5.863-.947 10.914-.886 5.052-1.739 11.373-1.895 14.047-.288 4.919-2.216 13.302-3.482 15.138-1.621 2.351-1.887 4.394-.502 3.863 4.455-1.71 11.758-34.83 13.09-59.363.314-5.775.929-16.575 1.366-24 1.051-17.806.413-74.48-.945-84-.589-4.125-1.297-11.325-1.575-16-.278-4.675-.7-9.062-.938-9.75-.598-1.726-2.437-1.568-3.142.269m-47.275 2.064c.048 1.165.285 1.402.604.605.289-.722.253-1.585-.079-1.917-.332-.332-.568.258-.525 1.312m-1.515 6.124c-.542 1.425-.428 1.54.56.56.684-.679.991-1.486.683-1.793-.308-.308-.867.247-1.243 1.233m-366.327 4.543c-.606.752-1.226 14.599-1.556 34.75-.526 32.084-.491 32.993.831 21.5 1.433-12.465 3.211-57.5 2.269-57.5-.295 0-.99.563-1.544 1.25m362.842 2.333c.048 1.165.285 1.402.604.605.289-.722.253-1.585-.079-1.917-.332-.332-.568.258-.525 1.312m-.079 2.731c0 .238-.893 3.977-1.985 8.309-2.332 9.257-2.565 13.073-.358 5.877 3.672-11.975 4.036-13.572 3.213-14.08-.479-.296-.87-.343-.87-.106m-19.712 9.912c-1.17 1.494-3.314 7.582-3.23 9.173.031.606 1.162-1.331 2.511-4.304 2.399-5.282 2.714-7.418.719-4.869m12.336 20.313c-.343.893-.595 2.15-.561 2.793.035.642.495.09 1.022-1.227.527-1.318.779-2.574.56-2.793-.219-.219-.679.333-1.021 1.227M702.5 615c-.34.55-.141 1 .441 1s1.059-.45 1.059-1-.198-1-.441-1-.719.45-1.059 1m65.658 21c0 1.375.227 1.938.504 1.25.278-.687.278-1.812 0-2.5-.277-.687-.504-.125-.504 1.25M716 640c-1.122 2.2-1.57 4-.996 4 .575 0 1.457-1.081 1.959-2.403.503-1.321 1.391-2.698 1.975-3.059 1.334-.824 1.389-2.538.082-2.538-.538 0-1.898 1.8-3.02 4m50.171 5.08c-1.404 6.083-1.439 6.92-.286 6.92.891 0 2.635-10.813 1.868-11.58-.226-.226-.938 1.871-1.582 4.66m21.512 5.138c.785 6.941 1.317 7.348 1.317 1.008 0-2.81-.431-5.374-.957-5.699-.59-.365-.728 1.432-.36 4.691m-1.567 7.973c-.064 3.13.221 5.9.634 6.155.413.254.616-1.631.451-4.191-.469-7.303-.958-8.189-1.085-1.964M660 667.5c0 .825.436 1.5.969 1.5.532 0 .709-.675.393-1.5-.317-.825-.753-1.5-.969-1.5-.216 0-.393.675-.393 1.5m125 2.559c0 .582.45.781 1 .441s1-.816 1-1.059-.45-.441-1-.441-1 .477-1 1.059M664 673c.589 1.1 1.237 2 1.442 2 .204 0 .135-.9-.152-2-.288-1.1-.937-2-1.442-2-.507 0-.439.895.152 2m120.079 1.583c.048 1.165.285 1.402.604.605.289-.722.253-1.585-.079-1.917-.332-.332-.568.258-.525 1.312m-27.329 4.292c-.413 1.856-.721 4.781-.687 6.5.063 3.065.083 3.078 1.047.661.541-1.356.85-4.281.687-6.5l-.297-4.036-.75 3.375m-95.671 2.708c.048 1.165.285 1.402.604.605.289-.722.253-1.585-.079-1.917-.332-.332-.568.258-.525 1.312m36.079.417c0 1.375.227 1.938.504 1.25.278-.687.278-1.812 0-2.5-.277-.687-.504-.125-.504 1.25m88.178-.75c-.431.688-.865 2.825-.966 4.75-.1 1.925-.691 5.476-1.313 7.89-.622 2.415-.924 4.89-.673 5.5.252.611.501-.015.552-1.39.077-2.042.287-2.225 1.145-1 .81 1.157.896.956.377-.875-.457-1.616-.318-2.157.435-1.691.609.376 1.107.207 1.107-.375s-.45-1.059-1-1.059c-1.394 0-1.248-1.604.291-3.179.71-.726 1.159-2.869.997-4.76-.168-1.965.243-3.78.959-4.235.916-.582.933-.799.062-.811-.655-.008-1.543.548-1.973 1.235M704.54 692.5c2.562 15.187 2.419 14.636 1.815 7-.305-3.85-.951-7.675-1.437-8.5-.594-1.007-.718-.515-.378 1.5m-9.474 10c-.02 2.877 3.748 10.629 3.853 7.929.045-1.14-.801-3.84-1.879-6-1.33-2.667-1.965-3.286-1.974-1.929m-11.066.951c0 3.664 2.291 11.546 3.695 12.711 1.717 1.425 1.297-4.01-.842-10.912-1.023-3.297-2.853-4.452-2.853-1.799m23.607 4.131c-.844 2.2-.759 5.418.143 5.416.413-.001.862-1.576.999-3.5.268-3.749-.162-4.47-1.142-1.916M720 709.777c0 .428.701 1.779 1.558 3.002.857 1.224 1.296 2.648.976 3.166-.32.517.894 2.429 2.698 4.248 1.804 1.819 4.221 4.613 5.372 6.209 3.458 4.795 4.71 2.164 1.344-2.824-1.621-2.402-2.948-5.267-2.948-6.366 0-1.099-.675-2.257-1.5-2.574-.825-.316-1.5-1.537-1.5-2.714 0-1.469-.459-1.962-1.468-1.575-.807.31-1.734.133-2.059-.393-.709-1.147-2.473-1.275-2.473-.179M763 719c0 .55.45 1 1 1s1-.45 1-1-.45-1-1-1-1 .45-1 1m-15.125 15.75c-8.247 6.917-9.123 7.941-7.368 8.614 6.023 2.311 20.493-4.686 20.493-9.909 0-2.805-9.335-1.884-13.125 1.295m-68.796 2.833c.048 1.165.285 1.402.604.605.289-.722.253-1.585-.079-1.917-.332-.332-.568.258-.525 1.312m5.153 2.417c0 1.925.206 2.712.457 1.75.252-.962.252-2.538 0-3.5-.251-.962-.457-.175-.457 1.75m-3.569 18c.286 10.175.903 22.1 1.37 26.5.593 5.586.693 2.116.332-11.5-.284-10.725-.901-22.65-1.37-26.5-.584-4.786-.689-1.149-.332 11.5m3.495-12c0 1.375.227 1.938.504 1.25.278-.687.278-1.812 0-2.5-.277-.687-.504-.125-.504 1.25m69.342 0c-1.319.567-1.489.878-.5.914.825.031 2.175-.381 3-.914 1.828-1.181.249-1.181-2.5 0M375 799c0 .55.45 1 1 1s1-.45 1-1-.45-1-1-1-1 .45-1 1" fill-rule="evenodd"/>
<path fill="#9ca1a4" stroke="#9ca1a4" d="M401.631 187.231c-3.409 3.678-10.036 12.769-9.308 12.769.281 0-1.027 1.583-2.906 3.518-1.88 1.935-3.417 4.148-3.417 4.917 0 .769-.506 1.567-1.123 1.773-.618.206-2.169 2.156-3.447 4.333-10.427 17.768-13.385 24.603-11.585 26.772.816.983.785 1.657-.119 2.559-.689.687-1.671 6.351-2.241 12.926-1.167 13.461-.693 13.105-10.985 8.243-3.3-1.559-12.3-4.637-20-6.84-7.7-2.203-16.643-5.174-19.874-6.603-5.68-2.512-12.626-3.479-12.626-1.759 0 2.85-10.893 4.199-13.038 1.615-.705-.85-1.942-1.292-2.749-.982-.807.309-2.021.102-2.7-.461-.941-.781-1.38.215-1.852 4.204l-.619 5.227 9.229 8.755c9.021 8.557 10.985 9.815 12.216 7.823.375-.606 1.254-.632 2.309-.068.937.501 5.675 1.854 10.529 3.007 9.966 2.368 25.777 7.299 32.116 10.016l4.231 1.813.193 9.856c.308 15.723 8.949 49.952 14.67 58.106 1.827 2.604 4.973 2.951 6.24.687 1.333-2.382 2.497-.331 6.22 10.952 12.161 36.862 48.126 63.582 85.615 63.608 3.284.002 4.822.674 7.65 3.342 1.947 1.836 5.048 4.083 6.89 4.993 4.477 2.212 8.568 5.97 9.019 8.285.486 2.496 4.577 2.56 7.831.124 1.375-1.03 7.742-4.937 14.149-8.683 13.587-7.945 21.81-15.527 19.426-17.912-1.281-1.28-2.053-1.22-6.268.485-3.776 1.527-5.58 1.745-8.412 1.016-2.758-.711-6.925-.29-17.755 1.791-14.394 2.766-17.331 2.859-36.14 1.136-30.773-2.817-50.919-14.166-66.198-37.291-9.026-13.66-9.283-14.124-11.262-20.283-.972-3.025-2.373-6.47-3.115-7.656-3.831-6.128-9.744-36.621-10.974-56.594l-.723-11.75h2.709c3.397 0 3.224-3.331-.197-3.82-3.252-.464-3.484-13.18-.24-13.18 2.632 0 2.573-1.617-.084-2.312-2.195-.574-2.334-14.956-.326-33.688.789-7.366 6.678-20.268 11.41-25 .275-.275 3.2-4.537 6.5-9.471 3.3-4.935 6.75-9.885 7.666-11 .916-1.116 3.279-3.984 5.25-6.374 5.068-6.144 3.532-8.659-1.785-2.924M565.72 212.25c6.575 8.401 10.997 15.612 11.804 19.25.366 1.65 1.782 6.777 3.146 11.393 3.427 11.592 4.282 17.68 4.402 31.334.107 12.28.565 13.749 2.75 8.814 1.452-3.281.087-30.834-2.009-40.541-2.226-10.309-8.262-21.222-17.293-31.267-6.757-7.515-8.876-6.745-2.8 1.017m-251.244 45.369c.891.891 1.868 1.37 2.172 1.067.89-.891-.633-2.686-2.278-2.686-1.306 0-1.292.221.106 1.619m-5.663 2.064c.721.289 1.584.253 1.916-.079.332-.332-.258-.568-1.312-.525-1.165.048-1.402.285-.604.604m13.512-.025c.362.362.156 1.262-.456 2-.844 1.017-.765 1.342.326 1.342.793 0 7.927 2.048 15.855 4.55 13.267 4.189 18.95 4.96 18.95 2.573 0-1.01-30.201-11.123-33.216-11.123-1.165 0-1.821.296-1.459.658M735.5 281.936c-1.442.573-.838.768 2.166.699 2.84-.066 4.875.534 6.392 1.884l2.225 1.981-1.342-2.186c-1.877-3.058-5.461-3.961-9.441-2.378m-259.25 3.095c-1.238.498-2.25 1.369-2.25 1.937 0 .567-.675 1.032-1.5 1.032-1.88 0-1.934 1.395-.112 2.907.964.8 5.161.985 13.758.607l12.371-.544-.363 4.557c-.437 5.499 2.187 8.473 7.476 8.473 4.138 0 6.825-3.613 6.825-9.176 0-4.257 1.552-5.362 5.973-4.253 4.384 1.101 8.065-4.4 3.99-5.964-2.499-.959-43.668-.581-46.168.424m-92.583 3.636c-1.223 1.222-.687 6.111.73 6.655.768.295 4.808.21 8.979-.188l7.582-.725-.607 3.799c-.561 3.507-.263 4.143 3.889 8.295 5.45 5.45 7.539 5.594 12.757.881 4.268-3.856 4.991-6.695 2.535-9.943-1.998-2.642-1.89-3.441.468-3.441 3.618 0 2.088-1.74-2.558-2.91-7.211-1.816-32.564-3.635-33.775-2.423m75.989 4.833c.335 2.2.775 4.188.977 4.417.757.859.19-4.497-.68-6.417-.631-1.394-.721-.788-.297 2M357 294c0 1.1.402 2 .893 2 1.124 0 2.173-2.601 1.371-3.402-1.203-1.204-2.264-.547-2.264 1.402m150.71 0c.288 1.1.696 2 .907 2 .21 0 .383-.9.383-2s-.408-2-.906-2c-.499 0-.671.9-.384 2m-146.434 3.25c-2.734 5.003-2.228 19.522 1.135 32.572 2.737 10.621 7.053 23.042 8.513 24.502 1.692 1.692 2.061-6.267.608-13.17-2.255-10.72-4.532-29.373-4.532-37.123 0-10.629-2.199-13.234-5.724-6.781m390.782-.975c-.064.855 6.037 22.775 8.969 32.225l1.861 6-.528-5c-.992-9.39-9.931-38.218-10.302-33.225m-147.39 3.887c-.311 1.189-.138 2.959.383 3.934.522.975.988 2.815 1.035 4.088.078 2.115.158 2.076.916-.445.708-2.353-.378-9.739-1.432-9.739-.185 0-.591.973-.902 2.162M411 306c-1.169.755-.893.973 1.25.985 1.512.008 2.75-.435 2.75-.985 0-1.264-2.043-1.264-4 0m314.105 5.485c-.076 3.594 1.615 10.291 6.06 24 6.68 20.603 6.511 20.173 7.535 19.148 1.544-1.544-7.304-30.633-9.318-30.633-.971 0-1.405-1.411-1.459-4.75-.042-2.613-.67-6.55-1.395-8.75l-1.318-4-.105 4.985m-120.286 9.132c-.925 4.797-2.526 9.883-3.559 11.302-2.696 3.706-9.819 7.119-13.375 6.408-2.412-.482-2.885-.248-2.885 1.426 0 3.295 2.449 4.635 6.128 3.352 4.593-1.601 5.422-1.37 3.34.93-1.013 1.12-2.429 1.81-3.148 1.534-1.836-.704-5.457 3.485-5.109 5.912.961 6.706 10.626-.478 17.645-13.116 1.792-3.226 4.109-7.217 5.15-8.87 2.367-3.76 3.96-12.664 1.922-10.745-2.439 2.296-3.804 1.367-4.121-2.802-.266-3.509-.533-2.882-1.988 4.669m-103.006-4.934c.721.289 1.584.253 1.916-.079.332-.332-.258-.568-1.312-.525-1.165.048-1.402.285-.604.604m78.817 11.567c-.331 1.238-.61 4.725-.619 7.75-.05 16.643-5.643 41.872-12.194 55-2.333 4.675-4.493 8.725-4.8 9-1.259 1.128-3.338 6.62-3.123 8.25.128.962-.372 1.75-1.11 1.75-.739 0-1.962.859-2.718 1.909-.757 1.05-1.897 1.709-2.534 1.465-.637-.245-1.987.471-3 1.591-1.088 1.201-1.356 2.035-.656 2.035.653 0 1.46-.713 1.795-1.584.459-1.197.796-1.279 1.379-.336 1.478 2.392 9.624-6.023 14.796-15.284 8.267-14.805 12.989-34.89 13.881-59.046.52-14.085.226-17.436-1.097-12.5M790 360.349l-8.5 3.151 7.5.538c9.212.661 10.663.358 11.378-2.375 1.142-4.368-1.304-4.678-10.378-1.314m-18 4.592c0 1.618.356 3.161.791 3.43.435.269.611-1.055.391-2.941-.491-4.203-1.182-4.489-1.182-.489m-282.5 3.163c-7.369 1.056-22.657 2.149-35.295 2.524-19.711.586-22.259.849-21.982 2.267.498 2.549 30.974 2.106 56.277-.816 23.126-2.672 22.5-2.545 22.5-4.548 0-1.989-4.435-1.87-21.5.573m324.479 8.472c-3.892 13.899 3.014 56.899 8.783 54.685 1.435-.551 1.333-3.272-.34-9.011-.941-3.23.78-2.762 2.781.756 1.923 3.379 3.277 3.791 4.237 1.291.417-1.088-.439-3.165-2.371-5.75-9.039-12.095-8.503-10.594-9.287-25.972-.396-7.741-.728-15.283-.74-16.759-.034-4.476-1.714-4.059-3.063.76m-40.536 4.576c.315 1.841 1.459 9.198 2.544 16.348 1.085 7.15 3.058 17.275 4.386 22.5 1.327 5.225 2.697 10.747 3.045 12.272.555 2.44.879 2.64 2.694 1.668 1.627-.871 1.915-1.669 1.362-3.772-.386-1.467-.876-5.426-1.09-8.798-.213-3.371-1.062-8.04-1.886-10.376-.824-2.335-1.505-6.101-1.513-8.37-.011-2.814-.3-3.675-.91-2.712-.848 1.34-1.856-1.482-6.119-17.12-1.33-4.879-3.282-6.154-2.513-1.64M824.5 380c.34.55.816 1 1.059 1s.441-.45.441-1-.477-1-1.059-1-.781.45-.441 1m-38.5 3c0 .55.45 1 1 1s1-.45 1-1-.45-1-1-1-1 .45-1 1m-75.128 3.664c-1.244 1.508-1.162 1.552.878.465 2.327-1.24 2.9-2.129 1.372-2.129-.482 0-1.495.749-2.25 1.664M743 389.355c0 .276.733 1.235 1.628 2.13.896.896 3.128 5.935 4.961 11.199 3.145 9.033 4.414 11.833 4.409 9.733-.009-3.501-7.763-22.941-9.266-23.23-.953-.184-1.732-.108-1.732.168m-33.932 5.437c-.066 5.138.302 6.022 4.341 10.438 1.05 1.148 2.254 3.929 2.676 6.179.422 2.25 1.32 5.441 1.995 7.091.675 1.65 1.332 3.45 1.46 4 .127.55.921 3.25 1.763 6 3.017 9.854 7.621 26.051 8.173 28.75.698 3.416 3.524 3.708 3.524.363 0-2.31-1.363-7.193-7.806-27.962-1.681-5.416-2.842-10.404-2.582-11.082.26-.679-.737-3.645-2.217-6.592-3.124-6.218-4.575-11.748-3.291-12.541 1.714-1.06.879-2.015-1.727-1.975-2.595.039-3.19-.586-5.207-5.461-.904-2.183-1.043-1.829-1.102 2.792m147.859 14.843c2.508 3.187 2.557 4.237.404 8.534-5.672 11.318-9.42 17.831-10.261 17.831-1.736 0-14.133 12.387-21.174 21.157-8.165 10.169-12.994 19.634-15.858 31.08-1 3.995-3.17 11.988-4.824 17.763-1.653 5.775-3.325 12.075-3.715 14-1.267 6.25 1.732 1.688 3.452-5.251.852-3.437 1.999-6.175 2.549-6.084 2.105.347 3.269-1.907 3.91-7.571.365-3.229 1.547-7.7 2.627-9.935 1.08-2.234 1.963-4.497 1.963-5.027 0-.531.393-1.115.872-1.299 1.69-.645 6.013-10.557 5.485-12.576-.292-1.117-.047-2.33.544-2.696.694-.429.836-.026.4 1.137-.6 1.6-.482 1.644 1.057.392.953-.776 1.493-2.037 1.199-2.802-.294-.766-.126-1.14.372-.832.499.308 2.5-2.031 4.448-5.198 4.472-7.27 20.493-24.258 22.878-24.258.987 0 2.196-1.012 2.686-2.25.491-1.238 2.28-3.74 3.976-5.562 3.048-3.274 4.185-8.389 2.144-9.65-.516-.319-.701-1.583-.411-2.809l1.026-4.328c.384-1.613-.345-2.598-3.145-4.25-4.72-2.785-5.117-2.711-2.604.484m-307.055 2.115c-1.243 1.586-1.208 1.621.378.378 1.666-1.307 2.195-2.128 1.372-2.128-.207 0-.995.788-1.75 1.75M748.611 417c.345 3.025 1.471 9.1 2.501 13.5 1.031 4.4 1.877 9.28 1.881 10.844.005 1.999.601 2.999 2.007 3.366 1.1.288 2 1.172 2 1.966 0 .793.49 1.139 1.09.768 1.35-.834.608-5.294-2.655-15.944-1.348-4.4-2.888-9.814-3.422-12.031-1.76-7.3-4.152-9.035-3.402-2.469m-65.945.75c-.962 1.596 16.982 36.25 18.771 36.25.207 0-1.116-3.038-2.938-6.75-1.823-3.712-4.064-9.225-4.979-12.25-.915-3.025-2.082-6.281-2.592-7.236-.51-.955-.96-3.205-.998-5-.059-2.722-.212-2.932-.921-1.264-.775 1.821-.967 1.71-2.149-1.25-1.216-3.045-3.165-4.207-4.194-2.5M541 420.831c0 .457-1.119 1.43-2.488 2.162-1.735.929-2.193 1.687-1.514 2.505.535.645.924 3.384.864 6.087-.145 6.493 1.966 16.412 3.628 17.05.727.278 2.255-.293 3.397-1.27l2.075-1.777-2.108-2.243c-2.281-2.428-3.24-16.304-1.458-21.095.651-1.751.479-2.25-.779-2.25-.89 0-1.617.374-1.617.831m316.649 3.993c-1.522 2.378-2.628 5.045-2.458 5.927.208 1.079 1.228.215 3.119-2.643 1.545-2.336 2.652-5.003 2.458-5.927-.25-1.195-1.151-.431-3.119 2.643M824.668 433c-4.205 9.695-4.538 16.577-.538 11.138 2.89-3.929 3.055-4.577 2.159-8.447-.627-2.707-1.201-3.66-1.621-2.691M759 436c0 .55.45 1 1 1s1-.45 1-1-.45-1-1-1-1 .45-1 1m-160 3.003c0 .337 4.95 1.265 11 2.062 10.154 1.338 11 1.322 11-.206 0-1.312-1.403-1.795-6.75-2.323-7.412-.733-15.25-.493-15.25.467m-36 1.884c0 .674-2.069 1.119-5.25 1.128-5.992.018-8.313 1.075-7.427 3.384.874 2.279 15.677 2.374 15.677.101 0-1.864.92-1.864 10.662 0 8.813 1.686 20.338 1.995 20.338.545 0-.525-1.462-1.183-3.25-1.463a2726.17 2726.17 0 0 0-13.75-2.065c-5.775-.855-11.962-1.823-13.75-2.15-2.077-.379-3.25-.192-3.25.52m140.144 2.674c1.208 4.372 8.25 15.711 9.181 14.781.371-.371.675-.075.675.658s.266 1.067.591.742c.511-.511-10.335-19.742-11.134-19.742-.163 0 .147 1.602.687 3.561m-223.25 1.189c-.059.413-.171 1.644-.25 2.736-.091 1.248-1.074 2.187-2.644 2.526-1.375.297-8.8 3.684-16.5 7.527-7.7 3.842-16.925 8.297-20.5 9.898-8.015 3.59-21.88 11.917-32.5 19.519-4.4 3.149-10.25 6.957-13 8.462-4.674 2.557-12.164 10.252-11.056 11.359.273.273 4.898-3.101 10.276-7.499 15.343-12.545 27.955-20.133 47.78-28.749 9.9-4.302 22.44-9.804 27.867-12.225 5.427-2.422 10.152-4.119 10.5-3.771.348.348.858 7.003 1.133 14.789.43 12.17.734 14.201 2.166 14.474 2.253.43 2.439-1.177 1.7-14.699-.715-13.051-2.619-25.097-3.969-25.097-.493 0-.945.337-1.003.75m315.283 11.806c.357 1.711 2.091 2.141 2.59.642.175-.523-.409-1.23-1.297-1.571-1.114-.428-1.515-.14-1.293.929M782 458.93c-4.264.852-8.928 3.261-7.34 3.79.634.211 2.826-.314 4.869-1.168 2.043-.853 4.759-1.552 6.034-1.552 1.275 0 2.597-.45 2.937-1 .684-1.106-1.215-1.127-6.5-.07m48.459.137c-.363.586-.445 1.281-.183 1.543s.743-.218 1.069-1.067c.676-1.762.1-2.072-.886-.476M770 463.722c-.825.31-2.694 1.399-4.154 2.421-1.46 1.021-3.128 1.857-3.706 1.857-.578 0-2.726 1.136-4.772 2.525-2.047 1.389-4.88 2.811-6.295 3.161-4.639 1.145-14.839 6.262-15.401 7.726-.351.916-1.342 1.226-2.745.859-1.555-.407-2.065-.184-1.748.765.641 1.925 2.374 2.257 3.955.759.751-.712 3.391-1.359 5.866-1.438 4.929-.157 11.574-3.382 23.621-11.466 7.946-5.331 10.874-9.234 5.379-7.169m-54 1.219c0 .518.45 1.219 1 1.559.55.34.952 1.829.894 3.309l-.107 2.691-1.086-2.75c-1.709-4.324-4.11-3.6-3.315 1 .357 2.063 1.093 7.125 1.636 11.25 1.359 10.318 3.424 15.992 7.59 20.859 3.476 4.061 8.333 5.657 9.833 3.229.329-.532 1.828-.434 3.604.237 2.49.939 3.213.878 3.992-.339 1.268-1.983-2.802-5.299-8.889-7.242-2.513-.802-5.038-2.31-5.611-3.351-.572-1.041-1.316-2.118-1.651-2.393-1.739-1.424-4.061-7.715-4.542-12.304l-.544-5.196 1.938 3.447c2.99 5.316 4.359 5.081 3.587-.616-.765-5.64-2.616-10.475-4.872-12.731-1.78-1.78-3.457-2.1-3.457-.659m21.813 15.742c.721.289 1.584.253 1.916-.079.332-.332-.258-.568-1.312-.525-1.165.048-1.402.285-.604.604m-11.798 3.067c.038 1.828 1.621 3.093 2.89 2.309.743-.459 1.042-1.336.664-1.947-.768-1.244-3.578-1.53-3.554-.362m62.993 1.224c-2.703 1.709.169 3.209 3.752 1.96 5.224-1.821 7.22.25 2.538 2.633-2.089 1.063-4.146 2.474-4.571 3.136-.672 1.045-11.91 3.054-13.977 2.499-.413-.111-.75.928-.75 2.31 0 2.39.206 2.48 4.25 1.863 2.337-.356 4.755-1.044 5.373-1.529.618-.484 1.743-.675 2.5-.423 3.025 1.004 13.308-6.7 13.59-10.183l.263-3.24-5.738.015c-3.156.009-6.409.44-7.23.959M760 497.944c0 1.365 5.564 2.944 7.077 2.008.751-.464 1.033-1.175.627-1.581-1.074-1.074-7.704-1.441-7.704-.427m35.289 5.055c.288 1.099.115 2.251-.383 2.559-.498.308-.906.083-.906-.499s-.52-1.059-1.155-1.059c-.669 0-.421.811.59 1.928 1.338 1.479 1.498 2.353.685 3.75-.983 1.69-1.061 1.696-1.09.072-.016-.962-.553-1.637-1.191-1.5-.639.137-1.476-.875-1.86-2.25l-.698-2.5-1.02 2.5c-.561 1.375-1.186 3.365-1.39 4.421-.36 1.862-8.322 4.332-14.556 4.515-1.202.035-3.452.56-5 1.167l-2.815 1.103 2.5.967c2.832 1.096 15.318.262 18.061-1.206 2.876-1.539 2.947-1.368 2.792 6.783-.151 7.962.608 12.25 2.169 12.25 1.368 0 2.095-5.733 1.771-13.966-.256-6.515-.065-7.512 1.502-7.832 1.602-.327 1.735.208 1.231 4.966-.649 6.132.153 4.889 3.38-5.238 2.321-7.283 2.589-9.354 1.092-8.429-.551.341-1.44-.533-1.975-1.941-1.148-3.019-2.49-3.453-1.734-.561m-11.21 5.584c.048 1.165.285 1.402.604.605.289-.722.253-1.585-.079-1.917-.332-.332-.568.258-.525 1.312M776 512c-2.01.644-2.108.806-.5.83 1.1.016 2.9-.357 4-.83 2.548-1.095-.081-1.095-3.5 0m-68.534 14.5c.279 4.4 1.365 10.7 2.415 14 1.049 3.3 2.228 8.995 2.619 12.655l.713 6.655 3.699.353c4.278.408 5.028-1.444 2.537-6.262-.797-1.541-1.413-3.387-1.368-4.101.044-.715.915.493 1.936 2.684l1.854 3.985 1.146-2.985c3.273-8.528 7.373-22.484 6.605-22.484-.229 0-1.662 4.065-3.186 9.032-2.974 9.694-3.234 9.828-5.768 2.968-2.773-7.506-5.517-11.37-7.127-10.034-1.127.935-1.855-.283-3.981-6.661l-2.602-7.805.508 8m-341.313.25c-2.358 5.955-3.458 12.345-2.321 13.482.803.803 1.218.718 1.529-.315.235-.779 1.375-4.374 2.533-7.987 2.491-7.772 2.506-7.93.727-7.93-.758 0-1.869 1.237-2.468 2.75m430.013 17c-.648 4.263-1.188 18.1-1.199 30.75-.024 28.222-1.754 94.826-2.772 106.75-.424 4.962-.366 8.75.135 8.75.486 0 .625.675.308 1.5-.333.869-.017 1.5.751 1.5 2.143 0 2.857-9.977 3.152-44 .15-17.325.607-49.837 1.017-72.25.409-22.413.529-40.75.266-40.75s-1.009 3.487-1.658 7.75m-387.683-1.25c-1.095 5.353 1.86 75.5 5.602 133 4.08 62.707 5.401 78.65 8.413 101.5.181 1.375.657 5.749 1.058 9.721.442 4.378 1.121 6.979 1.725 6.605.638-.394.753.786.32 3.279-.484 2.794-.386 3.471.347 2.395.688-1.01 1.026-1.092 1.037-.25.008.688.976 1.25 2.151 1.25 1.976 0 2.085-.356 1.464-4.75-4.476-31.654-12.879-130.524-16.043-188.75-2.205-40.593-3.588-60.521-4.476-64.5l-.78-3.5-.818 4m382.743 15.788c.287 6.883.909 11.226 1.719 12 1.025.978 1.135-.91.57-9.788-.942-14.816-2.892-16.701-2.289-2.212m-182.251.243c-1.833 2.208-.679 2.819 9.567 5.065l8.277 1.815 3.06 7.045c2.415 5.56 2.937 7.912 2.476 11.164-.386 2.727-.17 4.376.638 4.875.911.564 1.047-.038.534-2.37-1.979-9.014 2.486-.637 17.525 32.875 2.838 6.325 6.731 14.649 8.651 18.497 4.7 9.424 13.297 30.103 13.297 31.987 0 3.349-2.12 1.104-6.441-6.823-4.89-8.972-8.559-13.376-8.559-10.276 0 2.116 2.587 7.213 9.996 19.69 6.453 10.867 7.348 13.218 9.033 23.731 1.06 6.614 1.375 7.278 3.321 7 1.364-.195 2.096-.966 2.002-2.111-.133-1.62.069-1.659 1.983-.389 2.641 1.754 6.722 11.983 6.659 16.694-.025 1.925.392 6.2.927 9.5s1.918 17.925 3.074 32.5c2.488 31.373 4.137 42.121 3.376 22-.443-11.701-3.221-47.354-4.87-62.5l-.544-5 2.272 3.773c5.695 9.461 12.604 19.868 17.96 27.054 5.92 7.942 6.516 9.932 2.676 8.927-1.536-.401-2.002-.165-1.666.844.257.771 1.78 1.464 3.384 1.539 1.605.076 4.042.573 5.417 1.107 1.375.533 3.091.761 3.814.508.723-.254 4.405.532 8.183 1.747 6.131 1.971 7.093 2.051 8.96.744 1.999-1.401 1.904-1.49-2.183-2.056-4.628-.641-13.575-4.767-14.914-6.88-.666-1.05-.832-1.031-.845.098-.096 8.806-34.613-45.487-40.493-63.693-.988-3.059-2.67-5.918-3.991-6.783-1.628-1.067-2.464-2.848-2.917-6.213-.63-4.676-4.569-14.322-7.03-17.213-.704-.827-1.865-3.753-2.58-6.503-1.543-5.936-3.022-9.382-12.24-28.5-3.846-7.975-8.345-17.425-9.999-21l-6.246-13.5c-11.171-24.148-13.559-28.211-15.771-26.844-.666.412-8.85-1.607-13.051-3.219-.757-.29-1.982.202-2.722 1.094M360.61 570.678c-2.988 14.529-6.104 82.509-6.958 151.822l-.444 36 1.766-16.914c1.094-10.468 2.02-30.284 2.43-52 .612-32.433 1.644-63.17 3.513-104.586.762-16.88.71-19.269-.307-14.322m358.64 60.275c-1.833 2.962-1.608 4.833.346 2.879.878-.877 1.44-2.339 1.25-3.247-.297-1.42-.522-1.369-1.596.368m70.406 83.797c-1.479 4.263-2.877 9.663-3.105 12.001-.229 2.338-1.291 5.488-2.362 7-1.07 1.512-2.265 4.662-2.655 6.999-.39 2.337-1.233 4.253-1.872 4.256-.639.004-1.929 1.354-2.865 3-1.258 2.211-1.369 2.994-.425 2.994 5.074 0 12.404-18.339 16.088-40.25.955-5.679.164-4.551-2.804 4M725 737.736c0 2.14 6.75 7.155 10.5 7.8 3.773.649 3.887.598 2-.892-1.1-.869-3.013-1.595-4.25-1.612-1.237-.018-2.25-.451-2.25-.964 0-.512-1.35-1.893-3-3.068s-3-1.744-3-1.264m29.813 10.947c.721.289 1.584.253 1.916-.079.332-.332-.258-.568-1.312-.525-1.165.048-1.402.285-.604.604m-402.715 47.466c-1.417 4.064-1.495 3.851 1.402 3.851 2.562 0 3.234-1.924 1.893-5.418-.936-2.439-2.09-1.89-3.295 1.567" fill-rule="evenodd"/>
<path fill="#616163" stroke="#616163" d="M575.609 224.423c.3.782 1.179 1.666 1.954 1.963 1.16.445 1.192.195.182-1.423-1.414-2.264-2.946-2.651-2.136-.54m-270.31 26.683c-1.76.509-3.479 1.376-3.82 1.927-.386.625-3.602.753-8.549.341-5.642-.471-7.966-.332-8.055.482-.069.629-.201 1.707-.295 2.394-.278 2.042 2.536 5.915 8.401 11.568 9.265 8.929 8.571 8.479 10.864 7.047 1.716-1.072 2.344-1.004 3.928.429 1.036.938 2.926 1.706 4.198 1.706 4.397 0 36.653 10.129 41.529 13.041 1.65.985 4.8 2.113 7 2.507 6.831 1.222 6.971 1.424 7.294 10.604.526 14.947 5.377 47.242 7.376 49.106.447.417.596.459.33.092-.265-.366.005-1.253.601-1.971.79-.952.508-3.754-1.04-10.347-2.783-11.853-5.099-34.267-4.886-47.283.093-5.71-.172-10.934-.589-11.609-.417-.675-.269-1.817.329-2.537 1.38-1.663.258-10.596-1.295-10.31-1.682.311-2.584 1.92-2.636 4.707-.044 2.292-.158 2.355-1.376.75-1.494-1.968-4.77-2.269-7.69-.706-1.53.819-5.12-.02-16.684-3.901-8.104-2.72-17.659-5.259-21.234-5.642-3.575-.383-9.296-1.269-12.713-1.969-3.417-.7-6.431-1.055-6.696-.789-1.08 1.079-10.591-1.985-10.591-3.413 0-1.156 1.443-1.455 6.75-1.396 3.712.04 9.294-.192 12.403-.517 6.231-.651 10.379.754 9.441 3.198-.308.803.127 1.724.966 2.046 2.098.805 3.225-.553 1.411-1.7-3.443-2.178 4.257-.764 17.068 3.134a18216.56 18216.56 0 0 0 16.395 4.983c2.784.843 4.512.534 3.375-.602-.507-.508-47.641-16.568-48.088-16.386-.121.05-1.661.507-3.422 1.016m6.434 7.018c.679.684 1.486.991 1.793.683.308-.308-.247-.867-1.233-1.243-1.425-.542-1.54-.428-.56.56m52.08 18.559c.721.289 1.584.253 1.916-.079.332-.332-.258-.568-1.312-.525-1.165.048-1.402.285-.604.604m111.162 10.882c-.536 1.411-.975 2.811-.975 3.111 0 .3 5.634.316 12.521.036l12.521-.509-.649 4.896c-.649 4.886-.643 4.899 2.946 6.398 4.605 1.924 7.292 1.908 8.043-.049.327-.854.181-1.296-.324-.984-1.295.8-1.812-.363-2.208-4.964-.38-4.425-.635-4.3 9.901-4.851 4.398-.23 7.994-2.635 6.808-4.553-.46-.744-8.208-1.096-24.143-1.096H475.95l-.975 2.565m-109.896 1.018c.048 1.165.285 1.402.604.605.289-.722.253-1.585-.079-1.917-.332-.332-.568.258-.525 1.312m18.999.824c-.723.87-.953 2.411-.55 3.68.666 2.1 1.035 2.157 9.635 1.508l8.943-.675-.645 3.435c-1.351 7.201 3.229 10.761 9.995 7.768 2.916-1.29 4.557-1.585 4.798-.862.201.604 1.126.807 2.056.45 2.096-.804 2.254-4.711.19-4.711-.825 0-1.5.54-1.5 1.2 0 .911-.299.901-1.242-.042-.988-.988-.967-1.411.107-2.075 1.785-1.103.572-6.792-1.696-7.955-.918-.471-7.073-1.114-13.677-1.43-6.604-.316-12.72-.848-13.59-1.182-.87-.334-2.141.067-2.824.891M372.5 292c-.729 1.18.217 3 1.559 3 .518 0 .941-.9.941-2 0-2.109-1.455-2.691-2.5-1M355 306.851c0 7.832 1.502 13.149 3.714 13.149 1.091 0 1.346-.635.906-2.25-.338-1.238-.869-4.725-1.18-7.75-1.252-12.155-3.44-14.159-3.44-3.149m371 10.031c0 .55.45 1.278 1 1.618.55.34 1 .168 1-.382s-.45-1.278-1-1.618c-.55-.34-1-.168-1 .382m-120.797 10.353c-2.659 5.051-8.66 10.706-12.087 11.392-1.714.343-3.116 1.242-3.116 1.998 0 1.617.974 1.716 4.332.439 1.354-.515 2.714-.685 3.022-.377.869.869-4.301 7.161-6.443 7.841-1.946.618-2.733 4.472-.912 4.472 3.566 0 16.323-18.059 17.996-25.477 1.006-4.459-.512-4.616-2.792-.288m-245.129.336c-.626 9.092 8.428 32.429 12.581 32.429 2.113 0 1.572-2.42-.784-3.513-2.371-1.099-4.593-6.23-8.872-20.487-1.568-5.225-2.885-9.018-2.925-8.429m436.508 32.296c-.295.477-2.611 1.102-5.146 1.387-7.959.897-7.879 2.81.103 2.48 6.328-.262 6.99-.49 7.281-2.511.312-2.175-1.175-3.076-2.238-1.356M507 368c0 .55.675 1 1.5 1s1.5-.45 1.5-1-.675-1-1.5-1-1.5.45-1.5 1m-22.187 2.683c.721.289 1.584.253 1.916-.079.332-.332-.258-.568-1.312-.525-1.165.048-1.402.285-.604.604m-98.769 7.871c-.024 1.13 1.418 4.246 3.206 6.925 1.788 2.679 3.782 5.775 4.433 6.879 5.844 9.915 26.256 29.642 30.671 29.642.247 0 4.297 1.82 8.998 4.043 9.839 4.654 20.507 7.177 28.551 6.752l5.597-.295-3-1.624c-1.65-.894-6.15-1.944-10-2.334-17.626-1.785-33.982-10.066-48.75-24.681-5.913-5.851-10.75-11.209-10.75-11.905 0-.697-1.059-2.66-2.353-4.362-1.295-1.702-3.3-4.894-4.456-7.094-1.528-2.906-2.115-3.438-2.147-1.946m473.647 33.137c-.307.497-.195 1.494.25 2.214.445.719 1.061.901 1.368.404.307-.497.195-1.494-.25-2.214-.445-.719-1.061-.901-1.368-.404m-319.623 26.368c-.039 3.187.507 6.345 1.279 7.401 2.174 2.973 2.371.511.518-6.46l-1.729-6.5-.068 5.559m17.663 4.859c-8.793.887-6.925 3.735 2.613 3.982 3.05.079 3.951-.313 4.366-1.9.622-2.378 2.394-2.457 11.29-.5 7.302 1.606 14.432 1.962 12 .598-2.036-1.141-16.204-3.138-20.791-2.93-2.04.093-6.305.43-9.478.75M478 450.991c-4.663 1.319-18.117 9.009-15.762 9.009.5 0 7.261-2.813 13.413-5.582 1.733-.78 3.871-1.418 4.75-1.418 1.633 0 2.204-1.546.849-2.299-.413-.229-1.875-.099-3.25.29m340.459 20.076c-.363.586-.445 1.281-.183 1.543s.743-.218 1.069-1.067c.676-1.762.1-2.072-.886-.476m-335.709 3.507c-1.066 1.079-.931 6.196.181 6.883 1.382.854 1.75-.551 1.126-4.3-.307-1.839-.894-3.001-1.307-2.583m263.107 2.25c-2.636 1.212-3.336 1.972-2.53 2.746.954.918 5.905-1.468 8.564-4.127 1.014-1.014-2.65-.176-6.034 1.381m-36.418 56.482c-.772 2.003 3.911 17.492 6.164 20.391 1.637 2.105 1.409-.261-1.037-10.743-.764-3.275-1.091-5.961-.727-5.969.363-.009.173-.346-.424-.75s-1.58-1.635-2.183-2.735c-1.032-1.881-1.139-1.893-1.793-.194m5.816 2.694c2.464 8.14 4.226 12.758 5.373 14.079.755.868 1.372 2.181 1.372 2.916 0 .736.271 1.067.602.736.902-.901-2.519-10.67-5.333-15.231-1.358-2.2-2.264-3.325-2.014-2.5M618.5 562c2.731 1.174 3.5 1.174 3.5 0 0-.55-1.237-.968-2.75-.93-2.437.063-2.522.168-.75.93m-207.421 34.766c-.205 42.243 11.022 174.466 14.518 170.971.22-.221-.702-11.39-2.05-24.819-3.099-30.882-3.823-40.378-8.106-106.418-1.926-29.7-3.678-54.45-3.893-55-.214-.55-.426 6.32-.469 15.266m384.135 6.734c-.13 9.35-.454 18.8-.721 21-.479 3.947-.471 3.957.534.771.585-1.854.892-10.798.722-21l-.298-17.771-.237 17M649 611.157c0 .974 5.107 11.843 5.565 11.843.619 0-2.69-8.184-4.234-10.473-.732-1.084-1.331-1.701-1.331-1.37m23.838 56.274c.386 4.851 4.162 10.072 4.162 5.755 0-1.659-3.648-10.186-4.358-10.186-.086 0 .002 1.994.196 4.431m3.194 15.359c-.036 2.589 2.86 8.475 6.007 12.21l2.106 2.5-.662-4c-.721-4.355-2.2-6.793-3.596-5.93-.488.301-.887-.293-.887-1.32 0-1.027-.661-2.741-1.468-3.809-1.429-1.889-1.469-1.88-1.5.349m4.983.401c-.008.93.435 1.969.985 2.309 1.266.782 1.266-.542 0-2.5-.835-1.293-.971-1.266-.985.191m4.007 13.625c-.032 1.894 1.881 5.184 3.013 5.184 1.452 0 1.135-1.226-1.035-4-1.076-1.375-1.966-1.908-1.978-1.184M691.158 709c0 1.375.227 1.938.504 1.25.278-.687.278-1.812 0-2.5-.277-.687-.504-.125-.504 1.25m1 11c0 1.375.227 1.938.504 1.25.278-.687.278-1.812 0-2.5-.277-.687-.504-.125-.504 1.25m-267.047 49.5c-.153 1.637 1.806 23.732 2.416 27.25.625 3.607 2.473 4.455 2.473 1.136 0-5.195-4.574-31.753-4.889-28.386M353 795.918c0 .505-.273 1.63-.607 2.5-.398 1.038-.055 1.582 1 1.582 1.047 0 1.607-.87 1.607-2.5 0-1.375-.45-2.5-1-2.5s-1 .413-1 .918" fill-rule="evenodd"/>
</svg>