<!DOCTYPE svg PUBLIC "-//W3C//DTD SVG 1.1//EN" "http://www.w3.org/Graphics/SVG/1.1/DTD/svg11.dtd">
<svg xmlns="http://www.w3.org/2000/svg" viewBox="0 0 500 393">
<path d="M250 .559c-.825.172-3.637.595-6.25.939-5.075.667-6.853 4.226-3.147 6.299 1.379.773 1.452 1.649.523 6.3-.594 2.972-1.269 6.528-1.501 7.903-1.354 8.039-1.856 10.704-2.348 12.464-.399 1.431-2.277-1.485-6.92-10.751-5.351-10.675-6.186-13.014-5.207-14.581 1.841-2.948.356-5.388-2.899-4.765-1.513.29-5.114.818-8.001 1.174-5.672.699-6.67 2.232-3.636 5.585 1.489 1.645 1.444 2.742-.574 14.079-1.204 6.762-2.427 12.97-2.717 13.795-.31.883-3.161-3.796-6.935-11.382-5.485-11.027-6.193-13.044-4.914-14 2.576-1.927.813-5.827-2.354-5.207-1.441.282-4.757.806-7.37 1.165-2.928.401-4.75 1.155-4.75 1.966 0 1.404 2.656 4.458 3.876 4.458 1.481 0 15.651 30.324 14.369 30.752-2.874.958-1.392 5.248 1.812 5.248C209.781 52 218 49.77 218 47.403c0-1.267-.704-2.698-1.565-3.179-1.416-.793-1.406-1.769.111-10.3 2.648-14.896 2.441-14.821 8.278-2.987 3.785 7.671 4.855 10.744 4.073 11.688-1.25 1.506-.265 5.375 1.368 5.375.622 0 4.867-.54 9.433-1.2 7.587-1.097 8.302-1.394 8.302-3.451 0-1.237-.709-2.646-1.576-3.131-1.62-.907-1.408-2.606 3.521-28.159.471-2.442 1.612-4.993 2.536-5.669 3.125-2.285 1.281-6.619-2.481-5.831m33.75 4.966c-.305 1.598.062 2.83 1 3.355 1.641.918-13.592 27.371-18.406 31.962-3.554 3.39-2.664 5.315 3.157 6.824 2.75.712 5.734 1.304 6.632 1.315 1.93.023 3.062-4.386 1.521-5.927-2.344-2.344 2.7-6.58 7.487-6.287 5.137.314 9.826 2.014 9.94 3.604l.283 3.879c.114 1.555-.309 2.75-.974 2.75-1.224 0-2.39 2.195-2.39 4.499 0 .777 1.986 1.78 4.75 2.4 2.613.585 5.82 1.365 7.127 1.732 2.282.642 2.35.513 1.709-3.231-.368-2.145-1.295-9.725-2.06-16.843-.765-7.119-1.689-15.107-2.053-17.75-.597-4.345-.471-4.807 1.317-4.807 1.994 0 3.847-3.872 2.427-5.072-.394-.333-3.417-1.177-6.717-1.875s-7.305-1.67-8.899-2.161c-4.423-1.361-5.326-1.109-5.851 1.633m6.187 14.975a466.948 466.948 0 0 0-4.773 7.661l-2.218 3.662 5.173 1.109c6.515 1.397 6.331 1.683 5.267-8.156l-.894-8.276-2.555 4m47.246.578c-.974 1.559-1.015 2.42-.165 3.443 1.616 1.948-15.789 31.914-17.643 30.375-.925-.767-1.638-.289-2.738 1.839-1.67 3.229-2.281 2.517 6.596 7.681l4.733 2.754 1.19-2.612c.832-1.828.874-2.928.138-3.664-.737-.737-.051-2.716 2.283-6.592 1.834-3.046 3.491-6.006 3.682-6.578.521-1.563 9.757 4.217 10.961 6.859 1.013 2.223-1.137 7.22-6.907 16.055-1.314 2.012-1.103 2.319 3.567 5.193l4.965 3.055 1.731-2.642c1.187-1.813 1.369-2.762.577-3.026-1.824-.608-1.344-2.384 1.95-7.218 2.444-3.585 2.971-5.242 2.591-8.151-.436-3.335-.18-3.811 2.962-5.5 4.078-2.193 7.344-7.287 7.344-11.456 0-5.757-2.372-8.265-14.395-15.226-13.357-7.732-11.793-7.197-13.422-4.589m-184.733.834c-.522.502-3.797 2.348-7.278 4.104-12.252 6.18-12.66 9.933-3.084 28.374 9.649 18.582 12.991 20.144 26.756 12.511 6.307-3.497 7.63-4.717 9.362-8.633l2.017-4.56-3.862-7.715-3.861-7.715-5.772 2.886c-5.25 2.626-5.671 3.074-4.664 4.956.74 1.382 1.76 1.898 3.074 1.554 1.55-.405 2.424.43 4.133 3.947 2.589 5.329 1.996 6.79-4.154 10.227-7.064 3.948-8.165 3.086-15.883-12.441L142.5 35.861l3.206-2.877c4.843-4.347 10.036-4.985 12.953-1.594 2.218 2.579 5.403 2.269 9.128-.888.159-.134-.268-1.463-.947-2.953-2.051-4.502-11.654-8.264-14.39-5.637m189.765 13.994-3.247 5.905 4.642 2.595c2.553 1.427 5.468 2.594 6.477 2.594 3.925 0 8.213-7.729 5.86-10.564-.864-1.041-9.533-6.436-10.342-6.436-.079 0-1.604 2.658-3.39 5.906M100.788 57.595C89.45 67.683 88.999 73.07 98.632 83.34c3.227 3.44 8.049 8.596 10.715 11.458 4.63 4.97 5.077 5.202 10 5.202 4.981-.001 5.394-.226 12.403-6.766 7.129-6.652 7.25-6.848 7.25-11.758 0-4.917-.156-5.169-10.108-16.301-14.187-15.87-17.717-16.822-28.104-7.58m286.744-1.628c-2.744 2.863-2.795 3.085-1.146 4.907.95 1.05 2.495 1.708 3.432 1.463.998-.261 2.861.763 4.499 2.472l2.794 2.916-12.755 12.138c-7.974 7.589-13.107 11.786-13.696 11.197-.588-.588-1.774-.313-3.164.735l-2.223 1.677 5.03 5.782 5.029 5.783 2.321-2.181c1.558-1.463 2.01-2.558 1.373-3.325-.853-1.027 11.017-13.602 21.231-22.493l2.756-2.399 3.019 2.892c1.714 1.642 2.782 3.512 2.47 4.325-.303.788.214 2.277 1.148 3.309 1.651 1.825 1.775 1.802 4.524-.831 3.886-3.724 4.28-3.012-9.764-17.682-14.731-15.387-13.263-14.458-16.878-10.685m-282.481 6.347c-7.603 5.844-7.087 7.681 6.057 21.582 9.718 10.279 10.346 10.496 15.889 5.488 6.604-5.967 6.63-5.911-11.997-26.345-3.786-4.153-5.341-4.266-9.949-.725M68.725 94.248c-1.836 2.889-3.647 5.765-4.023 6.393-.388.645.451 1.885 1.932 2.855 2.091 1.37 2.779 1.453 3.422.414.834-1.35 4.971.339 9.856 4.024 2.077 1.566 2.071 1.589-1.944 8.068-2.214 3.574-4.576 6.351-5.247 6.172-3.528-.941-9.762-5.807-9.379-7.32.378-1.494-3.786-4.841-4.694-3.772-.196.23-1.988 3.001-3.983 6.157l-3.627 5.74 2.566 1.681c2.104 1.378 2.717 1.439 3.397.338.767-1.24 7.516 2.427 27.749 15.076 1.237.774 2.25 2.109 2.25 2.967 0 1.865 1.919 3.959 3.628 3.959 1.17 0 8.977-11.785 8.23-12.423-1.968-1.682-4.681-2.354-5.639-1.396-.782.782-2.295.37-5.403-1.471-8.541-5.063-8.322-4.358-3.737-11.995l4.073-6.784 3.674 2.224c7.484 4.53 8.174 5.114 8.174 6.925 0 1.589 3.675 4.695 4.439 3.751.148-.182 1.933-2.964 3.967-6.182 3.491-5.523 3.598-5.929 1.896-7.219-2.136-1.62-3.956-1.798-4.778-.468-1.018 1.647-29.602-16.176-29.135-18.166.234-.997-.581-2.347-1.963-3.252-2.307-1.512-2.44-1.425-5.701 3.704m197.303 2.867c-3.52 1.402-3.995 2.576-4.013 9.912-.02 8.684 1.554 10.973 7.542 10.973 6.677 0 8.353-2.186 8.326-10.856-.012-3.824-.553-7.62-1.202-8.437-1.547-1.944-7.525-2.838-10.653-1.592m-81.84 2.995c.622 1.785.85 6.199.535 10.366l-.548 7.256 7.412.172 7.413.172v-3.05c0-2.998-.068-3.039-4-2.41-3.29.526-4 .351-4-.988 0-1.07.857-1.628 2.5-1.628 2.111 0 2.5-.467 2.5-3s-.389-3-2.5-3c-1.564 0-2.5-.566-2.5-1.512 0-1.204.815-1.381 4-.872 3.814.61 4 .518 4-1.988 0-2.617-.034-2.628-7.948-2.628h-7.948l1.084 3.11m17.64-.631c-1.54 3.378.069 8.906 2.707 9.303 5.03.757 6.465 1.365 6.465 2.737 0 1.894-1.461 1.88-4.394-.042-4.588-3.006-7.129 1.802-2.787 5.273 2.587 2.068 9.869 1.562 12.285-.854 3.75-3.75.783-10.872-4.545-10.911-2.808-.021-4.964-1.521-4.128-2.873.985-1.595 3.256-1.371 3.931.388.34.887 1.842 1.5 3.674 1.5 2.745 0 3.022-.257 2.43-2.25-1.604-5.402-13.429-7.12-15.638-2.271M220 99.93c0 2.781.153 2.886 3 2.07l3.001-.861-.635 8.264-.635 8.263 3.776.142 3.776.142-.665-7.975-.665-7.975h3.024c2.558 0 3.023-.385 3.023-2.5 0-2.471-.1-2.5-8.5-2.5H220v2.93m31.391-.404c-1.531 2.336-1.532 2.66-.023 4.328 2.015 2.227 2.13 7.488.199 9.09-3.21 2.665-1.462 4.751 4.135 4.934 5.842.191 5.906.097 3.89-5.617-.774-2.194-1.334-6.526-1.244-9.625.16-5.513.104-5.636-2.569-5.636-1.819 0-3.286.845-4.388 2.526m29.644-.592c-2.879 5.38-.791 9.687 4.961 10.234 2.361.225 3.595.897 3.819 2.082.395 2.085-2.419 2.343-6.295.577-3.62-1.649-5.194.119-2.77 3.112 1.249 1.543 3.285 2.423 6.423 2.777 6.786.765 8.827-1.613 8.827-10.282 0-9.417-.78-10.434-8-10.434-4.839 0-6.12.356-6.965 1.934M299.2 98.2c-.66.66-1.2 2.235-1.2 3.5 0 2.751 3.967 3.249 6.035.758.893-1.076 1.597-1.226 2.329-.494.731.731-.375 2.493-3.658 5.827-3.317 3.367-4.706 5.592-4.706 7.537v2.76l7.25-.294c6.725-.273 7.258-.457 7.363-2.544.085-1.685-.438-2.25-2.083-2.25-3.551 0-3.668-1.079-.507-4.679 5.382-6.129 3.019-11.321-5.152-11.321-2.459 0-5.011.54-5.671 1.2m-30.763 4.102c-1.125 2.934-.012 10.198 1.563 10.198 1.946 0 2.182-10.606.251-11.25-.688-.229-1.504.245-1.814 1.052m18.813-.594c-1.73.635-1.576 3.292.191 3.292 1.819 0 3.064-1.919 1.922-2.962-.475-.433-1.425-.582-2.113-.33m131.793 3.773c-7.937 4.433-9.218 11.148-3.973 20.832 4.273 7.89 1.541 13.266-6.351 12.496-5.759-.562-9.794-10.621-5.734-14.295 1.978-1.79 1.977-1.809-.157-5.606-2.49-4.43-4.543-4.063-7.878 1.406-2.695 4.42-2.508 5.751 2.109 15.029 6.297 12.655 11.601 15.284 20.414 10.12 8.09-4.741 9.31-9.987 4.527-19.463-3.847-7.62-3.807-9.538.25-12.011 5.378-3.279 8.16-2.671 11.155 2.439 3.144 5.365 3.236 7.261.493 10.181-2.058 2.19-2.064 2.302-.284 5.314.999 1.692 2.627 3.077 3.616 3.077 2.41 0 5.762-5.701 5.766-9.807.005-3.891-7.35-18.777-9.97-20.179-4.214-2.255-9.419-2.081-13.983.467m-179.716 7.11c-1.117 2.909.174 4.897 3.181 4.903 4.406.009 4.554-5.808.153-6.043-1.561-.083-3.062.43-3.334 1.14m97.655 46.465c-4.493.39-8.166 1.464-11.824 3.454-10.04 5.465-11.364 9.463-11.016 33.264.261 17.838.254 17.895-2.566 23.661-4.227 8.64-1.007 17.157 7.444 19.689 3.77 1.13 4.076 1.038 8.42-2.521 7.363-6.034 7.828-9.411 3.132-22.781-2.105-5.995-3.589-11.138-3.298-11.429.291-.291 3.142 4.5 6.336 10.647 7.581 14.59 9.888 16.46 20.312 16.46 6.572 0 8.507-.45 14.578-3.392l7-3.393-3.327-.747c-6.183-1.388-15.662-6.993-29.698-17.56-24.259-18.264-22.272-18.278 5.223-.037 21.089 13.991 26.11 16.159 35.651 15.393 5.743-.461 13.511-3.237 12.338-4.41-.274-.274-2.003-.715-3.843-.978-9.809-1.407-22.33-6.754-41.72-17.817-4.193-2.393-10.886-5.607-14.874-7.141-3.988-1.535-7.25-3.166-7.25-3.624 0-1.58 5.571.562 26 9.995 35.424 16.357 44.632 18.745 54.465 14.123l4.923-2.314-9.444-1.695c-10.496-1.884-13.672-2.872-32.444-10.089a8317.016 8317.016 0 0 0-17.5-6.71c-2.475-.942-8.655-3.038-13.733-4.659-9.071-2.893-11.506-4.445-6.976-4.445 1.26 0 14.198 4.103 28.75 9.117 40.78 14.053 50.478 15.883 62.797 11.853 8.632-2.823 8.234-3.617-2.196-4.383-11.373-.835-21.016-3.051-41.642-9.571-13.127-4.15-20.287-6.285-25.5-7.606-.55-.14-4.6-.794-9-1.454-4.4-.66-8.428-1.595-8.95-2.078-2.759-2.55 14.687.541 43.707 7.743 51.713 12.835 68.792 13.307 82.54 2.282l2.703-2.167-3.5.592c-16.366 2.767-31.269 1.627-69.218-5.296-15.245-2.781-30.446-5.341-33.781-5.69-6.831-.714-9.139-2.344-3.31-2.338 3.473.003 11.178.987 55.309 7.064 48.146 6.63 72.019 4.398 83.535-7.811 4.455-4.723 4.379-5.686-.285-3.633-12.998 5.722-13.521 5.807-35.75 5.818-23.261.012-27.725-.489-75-8.414-31.028-5.201-37.316-5.859-47.518-4.972M134.5 161.044c-6.05 1.011-13.7 2.306-17 2.878-3.3.572-13.425 2.188-22.5 3.591s-19.2 3.014-22.5 3.579c-9.454 1.62-43.003 2.321-51 1.066-4.032-.632-9.862-2.517-13.75-4.445C4.037 165.872 1 164.67 1 165.042c0 2.155 8.579 9.961 13.073 11.894 16.602 7.142 27.898 6.906 93.427-1.954 22.54-3.048 43.647-4.795 42.358-3.507-.446.446-2.7.831-12.358 2.111-2.2.291-6.25.965-9 1.498-8.523 1.65-38.562 6.955-47.5 8.389-12.678 2.034-27.439 2.691-37 1.646-10.087-1.103-10.347-.994-5.273 2.208 14.993 9.465 37.014 7.937 92.363-6.41 8.508-2.206 9.369-2.4 19.748-4.46 8.366-1.661 12.162-1.844 12.162-.586 0 .479-2.812 1.187-6.25 1.573-9.476 1.064-20.96 3.963-39.474 9.964C95.189 194.567 88.639 196 77.997 196c-10.572 0-11.767.992-4.803 3.988 12.146 5.225 21.699 3.712 62.557-9.905C152.388 184.537 166.927 180 168.06 180c3.587 0 1.113 1.797-3.978 2.889-7.137 1.531-15.806 4.631-31.26 11.181-17.163 7.274-27.074 10.419-37.767 11.982l-8.399 1.228 3.922 2.095c7.715 4.12 17.721 3.105 31.922-3.239 28.749-12.844 45.191-19.845 47.75-20.334 4.914-.938 2.906.874-3.5 3.159-3.437 1.226-13.247 6.006-21.798 10.622-18.665 10.075-25.428 12.919-34.474 14.494l-6.844 1.192 3.933 2.1c3.044 1.626 5.741 2.104 11.933 2.115 10.335.019 14.672-1.978 35.371-16.29 15.315-10.59 19.633-13.151 18.963-11.248C172.311 196.268 132.88 222 127.778 222c-4.808 0-.882 2.631 9.129 6.117 15.101 5.259 21.711 1.58 31.228-17.385 5.988-11.933 6.99-12.079 2.874-.418-5.543 15.704-4.907 21.713 2.868 27.101 4.501 3.119 4.989 3.144 10.024.52 7.954-4.146 10.088-10.207 5.945-16.886-3.613-5.824-4.696-11.802-3.724-20.561.426-3.844.798-10.311.827-14.372.166-23.963-15.182-31.3-52.449-25.072m111.884 28.721c-.613.404-2.136 2.76-3.383 5.235-2.831 5.617-12.943 20.449-16.804 24.646-5.961 6.479-12.794 7.972-22.65 4.947-7.219-2.215-6.712-1.575 4.606 5.812 33.798 22.06 51.473 21.918 85.086-.684 10.385-6.983 14.143-10.521 7.556-7.115-1.762.911-5.949 1.877-9.302 2.147-11.023.884-16.66-3.722-28.019-22.892-7.555-12.752-7.632-12.83-12.474-12.83-1.925 0-4.002.33-4.616.734m-11.884 1.647c-11.559 2.872-24.304 11.562-32.028 21.837-5.369 7.142-5.097 7.796 4.104 9.855 11.218 2.511 15.621-.522 28.388-19.55 10.074-15.015 10.084-14.762-.464-12.142m27.53 4.23c13.666 24.257 23.814 31.111 37.217 25.133l3.747-1.671-2.058-3.489c-6.622-11.222-24.912-23.277-38.321-25.257l-3.885-.574 3.3 5.858M292 232.589c-22.133 13.778-28.92 16.55-40.782 16.657-12.775.116-25.693-4.968-46.139-18.159-5.182-3.342-9.566-5.934-9.742-5.758-.175.176-1.164 2.987-2.197 6.246l-1.878 5.925 6.119 1.011c15.552 2.568 23.006 12.711 35.084 47.74 3.556 10.313 6.933 19.623 7.503 20.689 1.334 2.493 7.916 3.52 16.601 2.59 7.668-.822 6.642.697 14.351-21.239 11.11-31.611 16.146-41.441 23.806-46.472 4.39-2.883 9.581-4.819 12.923-4.819 1.293 0 2.351-.338 2.35-.75 0-.68-3.954-11.535-4.337-11.907-.089-.087-6.237 3.624-13.662 8.246m12.994 7.345c-8.816 2.682-18.994 12.15-18.994 17.67 0 1.192 13.833-.549 19.272-2.426l5.228-1.803.294-7.188c.319-7.816.104-8.049-5.8-6.253m-114.336 2.211c-1.308 4.887-.721 8.697 1.592 10.328 3.65 2.573 14.542 5.527 20.381 5.527h5.42l-1.489-2.88c-3.92-7.581-12.159-13.3-21.168-14.694-3.72-.576-4.165-.414-4.736 1.719m.342 16.229c0 4.97 2.409 7.311 12.985 12.618 7.528 3.778 11.374 5.091 16.422 5.609 7.668.785 7.559 1.123 2.779-8.601l-3.686-7.5-9.111-.701c-5.01-.386-11.423-1.58-14.25-2.654L191 255.192v3.182m113-.769c-3.933 1.406-8.87 2.344-12.5 2.375-7.624.064-7.806.201-11.379 8.546-3.488 8.148-3.289 8.354 6.275 6.482 7.028-1.375 19.308-6.798 21.806-9.63 1.441-1.633 3.799-10.655 2.676-10.238-.208.078-3.303 1.187-6.878 2.465m88.75 8.914c-2.062 2.949-3.75 5.822-3.75 6.386 0 1.668 4.061 3.434 5.223 2.272 1.35-1.35 11.057 5.552 10.08 7.167-.534.882-5.008 7.37-7.947 11.526-.666.941-10.417-7.269-9.981-8.404.634-1.653-3.147-5.136-4.225-3.892-.442.509-2.456 3.237-4.477 6.061l-3.674 5.134 2.366 1.55c1.664 1.091 2.679 1.237 3.424.492 1.495-1.495 28.503 17.985 27.729 20.002-.478 1.246 1.918 4.062 3.535 4.155.304.018 2.382-2.561 4.617-5.73l4.063-5.761-2.117-1.597c-1.506-1.136-2.57-1.311-3.686-.607-1.342.846-7.071-2.47-11.786-6.823-.444-.41 7.948-12.45 8.678-12.45 2.269 0 11.127 7.585 10.642 9.114-.476 1.499 1.889 3.886 3.85 3.886.654 0 8.927-11.102 8.526-11.441-1.64-1.389-4.983-2.441-6.232-1.962-2.296.881-27.516-17.551-27.286-19.942.098-1.015-.722-2.442-1.822-3.171-1.835-1.217-2.309-.885-5.75 4.035M77.5 270.526c-16.581 11.703-17.494 14.298-9.378 26.66 4.383 6.676 5.683 7.954 9 8.847 2.259.608 3.878 1.654 3.878 2.506 0 .803.413 1.461.918 1.461.505 0 1.63.273 2.5.607 1.191.457 1.582-.032 1.582-1.977 0-2.737 3.093-5.504 16.353-14.63 10.238-7.046 11.064-11.77 3.897-22.271-8.904-13.046-11.799-13.167-28.75-1.203m116.51-.359c.066 9.01 12.773 20.6 26.49 24.16 11.441 2.97 13.448 2.945 12.492-.155-4.55-14.75-4.294-14.474-14.957-16.101-4.797-.731-10.158-2.467-15-4.855-4.144-2.044-7.873-3.866-8.285-4.049-.412-.184-.746.266-.74 1m105.652 2.588c-4.15 2.086-10.018 3.993-14.925 4.85-9.618 1.679-8.242.527-11.699 9.793-3.305 8.861-3.286 8.89 5.075 7.452 12.546-2.157 22.06-8.946 27.321-19.495 3.809-7.637 4.04-7.533-5.772-2.6m-217.38 4.555c-12.721 8.951-13.743 11.424-7.693 18.613 4.401 5.231 7.433 3.808 8.934-4.191.886-4.723 5.477-5.684 5.477-1.147v2.585l5.25-3.723c10.587-7.51 11.27-9.105 6.536-15.265-4.442-5.78-6.289-5.468-18.504 3.128m37.527 18.168c-1.176 1.559-1.372 2.559-.644 3.287.727.727-1.878 4.556-8.565 12.59-13.685 16.438-14.347 20.207-4.94 28.163 13.55 11.462 16.214 10.917 30.264-6.188 7.095-8.639 9.876-11.354 11.257-10.993 1.131.296 2.423-.348 3.37-1.679 1.611-2.265-.152-4.522-7.327-9.381-2.859-1.936-7.153.899-5.103 3.369 1.685 2.03-17.666 25.354-21.034 25.354-2.581 0-10.087-6.836-10.087-9.187 0-2.97 19.488-25.925 20.852-24.561.758.758 1.633.371 3.01-1.33l1.942-2.398-4.074-3.512c-6.979-6.016-7.033-6.038-8.921-3.534m92.191.517c4.817 4.334 11.088 7.922 18.63 10.66l6.37 2.312v-2.349c0-3.011-3.605-7.618-5.961-7.618-1.521 0-13.228-3.138-20.539-5.506-1.343-.435-.851.386 1.5 2.501m68.773-.104c-5.899 1.501-10.871 2.927-11.047 3.169-.896 1.229-2.726 6.208-2.726 7.417 0 3.002 15.44-3.913 22.417-10.038 4.604-4.043 4.996-4.018-8.644-.548M363 303.829c-2.741.402-15.458 10.316-16.408 12.791-2.247 5.857-.842 9.188 9.005 21.347 9.526 11.763 11.13 12.998 16.903 13.014 2.784.007 15.516-8.84 17.732-12.322 1.526-2.399.806-10.391-1.154-12.798l-1.921-2.361-3.031 2.892c-2.88 2.747-2.959 3.031-1.586 5.686 1.812 3.503 1.197 5.122-3.224 8.495-6.394 4.877-7.476 4.261-19.941-11.354-6.512-8.157-6.826-10.738-1.84-15.115 4.104-3.604 6.237-3.858 9.676-1.153l2.481 1.952 3.227-2.702 3.227-2.701-2.823-2.625c-2.946-2.739-6.092-3.667-10.323-3.046m-202.185 22.678c-.756 1.658-.82 2.888-.184 3.524 1.547 1.547-13.565 30.799-15.632 30.259-.994-.26-2.04.505-2.715 1.987-1.552 3.406 10.211 10.134 12.425 7.106 1.542-2.108 1.67-4.09.294-4.55-1.611-.538 13.552-29.274 15.671-29.699 1.984-.397 3.287-1.92 3.311-3.87.008-.679-2.69-2.601-5.997-4.27l-6.012-3.035-1.161 2.548M316 332.299c-8.525 3.91-15.683 7.238-15.906 7.395-.473.332 3.006 8.306 3.624 8.306 1.676 0 4.282-2.408 4.282-3.958 0-1.673 6.408-5.015 7.462-3.892 2.187 2.33 13.122 29.597 12.283 30.63-.722.888-.701 2.022.069 3.712l1.109 2.433 5.788-2.598c3.184-1.43 6.168-2.939 6.632-3.355 1.258-1.131-1.212-5.079-2.974-4.754-1.077.199-3.148-3.261-7.018-11.718-9.359-20.454-8.886-18.186-4.282-20.535 3.364-1.717 4.057-1.801 4.535-.555.615 1.603 5.396.168 5.396-1.62 0-1.905-3.116-6.785-4.276-6.696-.673.052-8.199 3.294-16.724 7.205m-131.442 6.326c-.414 1.65-.225 2.963.491 3.405 1.297.802.933 3.193-2.276 14.97-1.125 4.125-2.676 9.815-3.449 12.644-.97 3.554-2.01 5.302-3.364 5.656-1.248.327-1.96 1.37-1.96 2.872 0 2.178.937 2.6 12.25 5.515 19.252 4.96 20.728 3.982 26.3-17.421 5.213-20.025 4.425-21.663-12.63-26.262-6.281-1.694-12.155-3.302-13.054-3.573-1.14-.343-1.838.32-2.308 2.194m96.562 4.986c-3.51.724-6.529 1.465-6.711 1.646-.813.814.96 4.743 2.14 4.743 1.628 0 1.702.244 5.445 17.895 2.648 12.486 2.866 14.608 1.64 16-2.752 3.127-.403 6.068 4.051 5.072a579.65 579.65 0 0 1 6.565-1.429c3.429-.718 4.009-5.396.775-6.242-1.335-.349-2.183-1.697-2.614-4.156-.35-2.002-1.449-7.24-2.441-11.64-2.747-12.187-3.38-17.5-2.084-17.5 1.252 0 1.472-2.916.349-4.603-.531-.797-2.504-.737-7.115.214m-87.911 6.063c-.643 2.654-2.521 9.776-4.172 15.826-1.65 6.05-3.009 11.266-3.019 11.592-.026.842 7.237 2.908 10.226 2.908 3.304 0 4.358-1.431 6.302-8.557 6.166-22.6 5.918-23.952-4.75-25.953-3.398-.638-3.424-.613-4.587 4.184m36.816-.109c1.706 4.487 1.254 36.114-.525 36.797-.825.316-1.5 1.662-1.5 2.99 0 3.004 8.379 4.252 20.757 3.092 12.173-1.141 12.908-2.325 13.457-21.683.653-23.023.051-23.761-19.364-23.761h-13.8l.975 2.565m11.225 3.097c-.931.376-1.25 4.824-1.25 17.421V387h4.811c8.382 0 9.189-1.533 9.189-17.466 0-13.273-.023-13.407-2.635-15.461-2.458-1.934-7.185-2.593-10.115-1.411" fill-rule="evenodd"/>
</svg>