<!DOCTYPE svg PUBLIC "-//W3C//DTD SVG 1.1//EN" "http://www.w3.org/Graphics/SVG/1.1/DTD/svg11.dtd">
<svg xmlns="http://www.w3.org/2000/svg" viewBox="0 0 736 736">
<path fill="#fbfbfb" stroke="#fbfbfb" d="M448 124.752c0 .452-1.462.928-3.25 1.057-10.641.769-23.645 4.495-34.089 9.767-1.561.788-3.361 1.134-4 .768-.638-.366-.845-.314-.459.115.931 1.033-1.64 3.541-3.631 3.541-.864 0-1.571.357-1.571.793 0 2.154-11.888 12.923-13.066 11.837-.924-.851-1.053-.821-.52.123.725 1.283-4.13 11.247-5.479 11.247-.411 0-.494.97-.184 2.156.343 1.312.17 1.913-.441 1.536-1.264-.781-7.341 20.465-7.897 27.608-.222 2.86-.584 8.49-.803 12.511-.219 4.021-.667 7.58-.996 7.908-.328.328-.086 1.212.537 1.963 1.781 2.145 1.55 2.173-22.176 2.686-12.361.267-24.162.793-26.225 1.168-2.49.453-3.75.31-3.75-.427 0-.61-1.012-1.102-2.25-1.094-1.733.012-1.921.224-.819.921 1.565.99 2.23.852-16.431 3.413-24.148 3.315-65.264 14.339-69.95 18.756-.522.492-1.547.895-2.277.895-.73 0-6.169 2.394-12.088 5.321-5.919 2.926-11.369 5.118-12.112 4.87-.812-.271-1.072.001-.653.679.409.662.028 1.13-.92 1.13-.89 0-1.364.411-1.054.912.31.502-.551.791-1.913.641-1.363-.149-2.289.033-2.059.405.23.372-2.145 1.996-5.278 3.609-3.133 1.613-5.847 3.273-6.031 3.689-.185.416-.751.5-1.257.187-.507-.313-1.192.134-1.522.994-.33.859-1.478 1.563-2.552 1.563s-1.674.45-1.334 1c.34.55.159 1-.402 1s-1.903.948-2.982 2.106c-1.08 1.159-2.335 1.905-2.789 1.659-.897-.486-4.428 2.801-3.744 3.485.229.229-.159.417-.864.417-1.824 0-6.719 3.362-6.719 4.615 0 .578-.287.765-.637.414-1.461-1.461-8.682 4.954-7.605 6.756.344.577-.222.373-1.258-.452-1.512-1.203-1.715-1.219-1.028-.08.647 1.074.438 1.259-.86.761-1.019-.391-1.468-.257-1.105.33.787 1.274-.092 1.253-2.823-.066-2.148-1.038-2.151-1.029-.184.563 1.981 1.603 1.974 1.641-.686 3.953-1.478 1.283-2.378 2.677-2 3.096.377.42.16.462-.483.094-.644-.368-1.849.01-2.679.84-1.95 1.95-3.027 1.93-2.27-.043.354-.923.178-1.294-.434-.916-.566.35-.772 1.447-.458 2.437.386 1.215-.396 2.616-2.404 4.305-1.636 1.377-2.7 2.779-2.364 3.115.336.336-.214.611-1.222.611s-1.549.285-1.201.633c.659.658-3.733 4.551-4.886 4.331-.362-.069-1.948 1.823-3.525 4.205s-3.434 4.351-4.128 4.376c-.693.025-1.148.588-1.01 1.25.137.663-.313 1.092-1 .955-.688-.138-1.138.313-1 1 .137.688-.425 1.25-1.25 1.25s-1.5.383-1.5.852c0 .468-1.29 2.202-2.867 3.852s-3.048 3.541-3.269 4.203c-.22.661-1.292 1.341-2.382 1.511-1.258.196-1.866.944-1.665 2.046.211 1.155-.092 1.484-.905.982-.743-.46-.964-.339-.563.309 1.141 1.847-.391 4.455-1.887 3.213-1.027-.852-1.184-.592-.736 1.225.313 1.269.229 1.996-.186 1.616-1.042-.953-5.271 3.243-5.737 5.691-.209 1.102-1.112 1.944-2.012 1.874-.923-.071-1.425.416-1.154 1.121.263.686-.223 1.948-1.079 2.805-.857.856-1.558 2.066-1.558 2.688 0 .621-.52.809-1.155.417-.663-.411-.884-.278-.52.311.348.564-.248 2.042-1.325 3.284s-1.716 2.65-1.42 3.129c.296.479.061.871-.521.871-.582 0-1.059.689-1.059 1.531 0 .843-.631 1.774-1.402 2.07-.771.295-1.691 2.081-2.045 3.968-.354 1.887-1.024 3.431-1.49 3.431-.465 0-1.121 1.094-1.456 2.43-.336 1.337-1.188 3.024-1.895 3.75-.706.726-1.852 3.245-2.547 5.599-.694 2.353-1.691 4.014-2.214 3.691-.523-.323-.951.712-.951 2.302 0 1.589-1.083 5.028-2.406 7.642-2.256 4.456-2.392 5.669-2.178 19.419.126 8.067.489 15.342.809 16.167.98 2.536 3.108 11.183 3.108 12.631 0 .753.323 1.369.717 1.369.628 0 1.504 2.006 2.441 5.593.157.601 1.507 2.314 2.999 3.806 1.795 1.795 2.537 3.392 2.191 4.715-.429 1.637-.266 1.786.898.821 1.132-.94 1.421-.838 1.421.502 0 .924.337 1.542.75 1.372.412-.17 3.675 2.591 7.25 6.136s5.868 6.063 5.095 5.595c-.982-.594-1.177-.482-.648.374.415.672 1.385.981 2.154.686.77-.296 1.399.04 1.399.746s1.575 2.035 3.5 2.953c1.925.918 3.5 2.112 3.5 2.653 0 .542.749.698 1.664.347 1.216-.467 1.441-.278.836.701-.61.987-.377 1.167.888.681.944-.362 1.489-.29 1.211.159-.503.813 3.825 3.02 10.431 5.318 1.909.664 4.064 1.799 4.79 2.523.726.724 2.526 1.576 4 1.893 1.474.318 4.878 1.443 7.563 2.502 2.686 1.058 5.499 1.924 6.25 1.924.752 0 1.367.45 1.367 1s.9 1 2 1 2 .391 2 .868c0 .478 2.612 1.601 5.805 2.497 3.192.896 6.68 2.291 7.75 3.1 1.07.809 3.038 1.486 4.374 1.503 1.336.018 3.811.462 5.5.987 1.689.525 7.121 2.145 12.071 3.6 4.95 1.455 9.543 3.089 10.206 3.631.664.543 1.673.698 2.243.346.57-.353 4.331.284 8.357 1.414 4.027 1.13 8.545 2.054 10.04 2.054 1.495 0 4.344.679 6.331 1.51 1.987.83 6.585 1.764 10.218 2.076 7.84.672 12.357 1.172 17.105 1.893 3.357.51 19.869 1.166 40 1.591 5.225.11 14-.191 19.5-.67 5.5-.478 12.095-.876 14.655-.884 2.559-.009 4.473-.309 4.252-.667-.222-.358 1.148-.607 3.043-.553 1.896.053 4.482-.396 5.748-.998 1.266-.603 6.352-1.8 11.302-2.66 4.95-.861 10.35-1.814 12-2.117 4.823-.887 11.5-2.912 11.504-3.489.003-.293 1.526-.609 3.385-.703 1.859-.094 5.317-1.106 7.683-2.25 2.367-1.143 5.093-2.079 6.057-2.079.964 0 1.996-.394 2.294-.875.297-.481 1.725-.875 3.172-.875 1.448 0 2.919-.422 3.269-.937.75-1.105 12.294-5.888 13.386-5.547.413.129.75-.186.75-.699 0-.513 1.356-.895 3.014-.848 1.658.048 3.345-.274 3.75-.714.405-.44-.341-.534-1.658-.209-1.617.4-2.065.263-1.381-.421.558-.558 1.635-1.138 2.394-1.291 1.287-.258 2.378-.682 9.631-3.745 1.512-.639 3.087-1.089 3.5-1 .413.088.75-.289.75-.839s.927-1 2.059-1c1.132 0 1.82-.387 1.527-.86-.504-.816 7.435-4.991 8.223-4.323.205.174.895-.356 1.532-1.177 1.781-2.295 9.438-5.895 10.777-5.067.787.486.927.308.411-.526-.575-.931-.157-1.105 1.596-.663 1.306.328 1.813.339 1.125.023-2.135-.98-1.375-2.407 1.281-2.407 1.393 0 2.79.672 3.105 1.494.316.822 1.046 1.203 1.623.846.585-.362.756-.173.386.425-.365.591.016 1.753.846 2.583.83.83 1.509 1.977 1.509 2.549 0 .572.675.781 1.5.465.845-.325 1.5-.025 1.5.687 0 1.61 4.905 8.089 5.815 7.682 1.305-.585 6.827 6.094 6.681 8.079-.097 1.306.323 1.813 1.216 1.47.749-.287 2.17.208 3.156 1.101.987.893 2.167 1.285 2.623.871.457-.414.546-.255.2.353-.669 1.174 2.897 5.026 5.159 5.57.742.179 2.901 1.801 4.798 3.604 1.897 1.804 3.877 3.015 4.4 2.691.524-.323.952-.129.952.432 0 .561 2.235 2.482 4.966 4.271 3.491 2.285 4.605 3.513 3.75 4.133-.807.586-.611.687.584.301 1.045-.338 4.701.879 8.725 2.905 3.809 1.919 7.542 3.488 8.296 3.488.755 0 2.903.788 4.775 1.75 4.338 2.23 35.497 2.527 36.842.351.432-.7.96-1.202 1.174-1.116.739.297 6.425-2.102 14.301-6.035 4.351-2.172 7.553-3.95 7.115-3.95-.439 0 .489-1.012 2.062-2.249 1.572-1.237 3.433-2.117 4.134-1.956.702.161 1.276-.204 1.276-.81 0-.616.552-.772 1.25-.352.849.51.81.209-.122-.941-1.135-1.399-1.141-1.692-.032-1.692.737 0 2.367-1.195 3.622-2.656 1.255-1.46 2.282-2.328 2.282-1.928 0 .4.659.132 1.465-.595 2.164-1.951 3.649-3.103 7.524-5.836 3.47-2.448 7.058-5.438 11.681-9.735 1.331-1.238 2.799-2.25 3.26-2.25.462 0 1.555-1.091 2.428-2.424.874-1.333 2.507-2.716 3.63-3.072 1.123-.356 1.783-1.066 1.468-1.576-.316-.51.154-.928 1.044-.928.981 0 1.333-.461.895-1.17-.479-.774-.188-.965.858-.563 1.472.565 3.301-1.649 2.906-3.517-.088-.412.431-.75 1.152-.75 1.983 0 5.828-3.966 5.057-5.214-.383-.619-.22-.812.375-.445.579.358 4.314-2.484 8.3-6.315 3.986-3.83 7.627-6.73 8.091-6.443.463.286.609-.09.322-.837-.819-2.135 4.996-6.844 6.684-5.413.748.634.609.309-.309-.723-1.576-1.772-1.508-2.011 1.23-4.315 1.615-1.359 3.418-2.117 4.073-1.712.761.47.907.293.416-.503-.447-.722.151-2.197 1.45-3.58 1.384-1.473 1.912-2.847 1.413-3.676-.612-1.017-.399-1.001.918.067 1.499 1.217 1.636 1.185 1.085-.25-.35-.912-.139-1.641.477-1.641.609 0 1.107-.702 1.107-1.559 0-.936.468-1.27 1.17-.836.801.495.955.164.489-1.052-.507-1.32-.294-1.627.83-1.196.985.378 1.514-.018 1.521-1.138.005-.946 1.596-3.715 3.535-6.155 1.94-2.44 3.29-5.05 3.002-5.802-.288-.751-.143-1.131.322-.843.466.288 1.86-1.601 3.098-4.198 1.239-2.597 2.653-5.502 3.142-6.457.49-.955.891-2.605.891-3.667 0-1.062.457-2.083 1.016-2.269 1.683-.561 3.218-12.858 2.475-19.828-.38-3.575-.743-7.288-.806-8.25-.062-.962-.515-1.75-1.006-1.75s-.634-.675-.317-1.5c.316-.825.17-1.5-.326-1.5s-1.211-.974-1.589-2.165c-.378-1.191-1.959-3.236-3.513-4.544-1.555-1.309-3.106-3.259-3.448-4.335-.397-1.252-1.518-1.956-3.112-1.956-1.629 0-2.245-.4-1.779-1.155.44-.711.275-.883-.429-.447-.629.388-2.611.071-4.405-.706-4.561-1.976-18.377-5.618-23.761-6.264-8.956-1.075-40.313-1.331-42.156-.344-1.467.784-1.858.621-1.914-.799-.063-1.599-.149-1.584-.828.149-.416 1.063-.996 1.513-1.289 1-.964-1.694-.814-9.315.196-9.94 1.372-.847 1.318-25.494-.055-25.494-.614 0-.946-1.936-.804-4.685.152-2.939-.203-4.833-.954-5.083-.658-.219-1.196-1.711-1.196-3.315 0-1.604-.45-2.917-1-2.917s-1-.681-1-1.514c0-.832-.45-2.407-1-3.5l-2-3.972c-.55-1.093-1-2.462-1-3.042 0-.581-.9-2.022-2-3.202-1.1-1.181-2-2.756-2-3.5 0-.745-.9-2.32-2-3.5-1.1-1.181-2-2.764-2-3.518 0-.753-.367-1.143-.817-.865-.936.578-4.786-5.422-4.36-6.795.156-.5-.304-1.281-1.02-1.735-1.069-.678-1.068-.829.006-.842.72-.008 1.089-.372.819-.807-.269-.436.384-.859 1.451-.939 1.067-.08 3.173-.977 4.68-1.994 1.508-1.016 3.971-2.465 5.474-3.221 1.503-.756 3.622-2.202 4.708-3.214 1.087-1.012 2.487-1.84 3.113-1.84 1.285 0 7.269-4.01 7.779-5.214.184-.432.794-.786 1.356-.786.563 0 1.927-1.149 3.031-2.553s2.245-2.315 2.535-2.025c.828.828 6.165-5.742 5.516-6.792-.319-.516-.119-.654.445-.305 2.067 1.277 5.627-3.229 10.313-13.053 3.983-8.35 4.184-18.002.522-25.055-3.488-6.718-6.094-10.341-6.876-9.558-.371.371-.675-.076-.675-.992 0-.917-.454-1.667-1.009-1.667-.555 0-2.422-1.35-4.148-3-2.949-2.818-4.185-3.438-6.167-3.094-.454.079-.54-.318-.191-.881.348-.564-.144-1.025-1.093-1.025s-1.418-.307-1.042-.683c.376-.376-.706-1.268-2.404-1.982-1.936-.814-2.817-1.735-2.362-2.471.437-.707.294-.906-.36-.502-.597.369-1.351.242-1.675-.282-.566-.917-2.672-2.132-10.833-6.25-2.082-1.051-3.521-2.337-3.198-2.858.322-.522-.054-.703-.837-.403-.783.3-1.692-.155-2.021-1.012-.328-.856-1.399-1.583-2.379-1.615-2.838-.092-11.396-4.486-10.549-5.417.422-.465.192-.514-.512-.108-.726.419-3.182-.377-5.678-1.84-2.419-1.417-5.468-2.577-6.776-2.577-1.307 0-3.896-1.12-5.752-2.489-1.917-1.415-5.465-2.767-8.216-3.132-2.664-.354-5.084-1.033-5.379-1.511-.296-.477-1.315-.868-2.267-.868-.951 0-3.512-.911-5.691-2.024-2.178-1.114-5.761-2.286-7.961-2.605-2.2-.319-6.925-1.469-10.5-2.555s-7.625-2.178-9-2.427c-1.375-.249-6.325-1.419-11-2.599-4.675-1.181-10.075-2.273-12-2.428-33.202-2.661-41.377-3.493-43.033-4.38-1.082-.579-1.967-.682-1.967-.23M332 236.005c-7.975.408-15.4.994-16.5 1.301-1.1.307-7.738 1.338-14.75 2.291-7.012.954-12.75 2.079-12.75 2.501 0 .423-1.238.749-2.75.725-1.512-.024-4.017.456-5.565 1.067-1.548.61-3.911 1.11-5.25 1.11s-2.435.388-2.435.861c0 .474-1.128.646-2.506.383-1.378-.264-3.065-.034-3.75.509-.684.544-3.584 1.577-6.444 2.294-2.86.718-4.971 1.676-4.691 2.129.28.453-.305.891-1.3.972-4.141.339-4.999.499-9.059 1.686-2.338.684-4.25 1.676-4.25 2.205 0 .528-.338.901-.75.827-1.546-.276-7.25 1.414-7.25 2.148 0 .42-1.575 1.059-3.5 1.42s-3.5 1.086-3.5 1.611c0 .525-.569.955-1.265.955-.695 0-2.896.874-4.89 1.943-1.994 1.069-3.9 1.669-4.235 1.333-.336-.335-.61-.157-.61.397 0 .822-4.034 3.371-6 3.791-1.266.27-5.563 2.983-7.322 4.621-1.072.999-3.237 2.099-4.813 2.445-1.576.346-2.865 1.043-2.865 1.549 0 .507-.689.921-1.531.921-.843 0-1.791.675-2.107 1.5-.317.825-1.203 1.5-1.969 1.5s-1.402.337-1.413.75c-.011.413-2.261 2.081-5 3.707s-4.98 3.313-4.98 3.75c0 .436-.681.793-1.513.793-.832 0-3.751 2.25-6.487 5s-5.375 5-5.864 5c-.49 0-1.447.67-2.127 1.489-.68.819-1.584 1.274-2.009 1.011-.425-.263-1.387.278-2.137 1.203-.937 1.156-.973 1.446-.113.93 2.903-1.744.932.316-2.732 2.855-2.191 1.518-3.739 3.154-3.441 3.636.297.482-.498.883-1.768.891-1.858.013-2.016.205-.809.985 1.207.78 1.049.972-.809.985-1.282.008-2.034.46-1.691 1.015.34.55.109 1-.512 1-1.625 0-19.988 18.924-19.988 20.599 0 .77-.627 1.401-1.393 1.401-1.374 0-3.098 2.72-2.741 4.324.101.454-.19.594-.645.312-.456-.282-2.38 1.507-4.275 3.975-1.895 2.468-5.315 6.449-7.599 8.846-2.285 2.397-4.452 5.3-4.818 6.451-.365 1.15-1.083 2.092-1.596 2.092-.513 0-.933.886-.933 1.969 0 1.429-.458 1.792-1.674 1.326-1.268-.487-1.518-.237-1.031 1.031.353.921.319 1.686-.076 1.701-.396.015-1.822 1.815-3.17 4-1.348 2.185-2.811 3.973-3.25 3.973-.439 0-.799.9-.799 2s-.45 2-1 2-1 .726-1 1.614c0 .887-.84 3.25-1.866 5.25-7.826 15.247-9.33 20.732-9.268 33.801.053 11.076.754 16.683 1.991 15.929.354-.215.718 1.063.81 2.841.146 2.812 2.987 8.315 6.358 12.315.58.688.742 1.25.361 1.25-.38 0 .277.84 1.461 1.867 1.184 1.027 2.153 2.404 2.153 3.059 0 .656.45.914 1 .574.55-.34 1 .294 1 1.41 0 1.275.493 1.838 1.329 1.517.731-.28 2.188.634 3.237 2.032 1.05 1.397 2.271 2.541 2.713 2.541.443 0 1.77.9 2.951 1.999 1.18 1.1 3.411 2.56 4.958 3.244 1.547.685 2.812 2.035 2.812 3.001 0 1.452 3.166 2.577 4.25 1.51.138-.135 1.651.751 3.363 1.97 1.712 1.219 3.424 1.906 3.804 1.525.381-.38 1.005-.254 1.387.28.844 1.178 6.341 3.867 11.446 5.6 2.063.7 3.75 1.574 3.75 1.943s2.169.958 4.82 1.31c2.745.364 6.285 1.72 8.223 3.15 1.872 1.381 3.964 2.296 4.649 2.033.685-.263 2.498.174 4.027.972 1.53.798 3.361 1.453 4.071 1.457.709.003 2.959.83 5 1.838 2.04 1.007 6.41 2.4 9.71 3.095 3.3.695 7.034 1.671 8.297 2.168 1.263.498 3.648.905 5.3.905 1.651 0 4.392.719 6.091 1.597 4.84 2.503 24.892 6.329 41.812 7.977 2.475.241 7.795.885 11.822 1.432 9.257 1.257 41.134 1.198 51.678-.095 4.4-.539 9.575-1.165 11.5-1.389 1.925-.225 6.65-.91 10.5-1.522 3.85-.613 8.012-1.2 9.249-1.307 1.237-.106 2.25-.53 2.25-.943.001-.413 1.744-.75 3.875-.75 2.131 0 5.788-.675 8.126-1.5 2.338-.825 5.432-1.507 6.876-1.515 2.106-.013 2.328-.219 1.124-1.045-1.244-.854-1.159-.996.5-.831 1.1.109 2.675-.044 3.5-.341.825-.296 4.425-1.315 8-2.264 8.001-2.123 9.347-2.601 15-5.328 2.475-1.194 5.738-2.27 7.25-2.392 1.512-.121 2.75-.543 2.75-.937 0-.395 1.551-1.278 3.447-1.964 1.895-.685 3.176-1.684 2.845-2.219-.33-.535-.1-.664.512-.285 1.6.988 16.405-6.231 15.565-7.59-.389-.631-.221-.815.397-.434 1.283.794 15.531-6.725 14.568-7.688-.367-.367.26-.667 1.392-.667 1.133 0 2.316-.667 2.629-1.483.313-.816 1.154-1.259 1.868-.985.714.274 2.697-.78 4.407-2.342 1.711-1.562 4.631-3.462 6.49-4.223 4.028-1.648 4.757-2.327 7.749-7.217 1.262-2.063 2.707-3.75 3.213-3.75.505 0 .918-.702.918-1.559s.473-1.267 1.051-.909c.578.357 2.171-.558 3.538-2.034 1.368-1.475 3.122-2.439 3.898-2.141.795.305 1.647-.203 1.952-1.163.297-.938 4.145-4.089 8.551-7.003 4.405-2.913 8.01-5.648 8.01-6.075 0-.428 1.125-1.38 2.5-2.116 1.375-.736 2.5-1.937 2.5-2.669s.477-1.331 1.059-1.331.733.527.335 1.172c-.799 1.292 7.019-4.391 12.762-9.277 2.01-1.711 3.952-3.039 4.315-2.951.363.087 1.529-.945 2.59-2.294 1.062-1.35 4.297-3.79 7.19-5.423 2.894-1.633 6.744-4.354 8.556-6.047 1.812-1.692 4.172-3.356 5.244-3.696 1.072-.34 1.949-1.065 1.949-1.61 0-.546.526-.667 1.17-.269.787.486.961.178.531-.941-.406-1.058-.134-1.664.747-1.664.762 0 1.535-.338 1.719-.75.183-.413 4.608-3.642 9.833-7.177 5.225-3.534 9.725-6.684 10-7 .275-.315 2.75-2.104 5.5-3.975 6.666-4.535 7.802-5.985 6.281-8.016-.991-1.323-.955-1.378.217-.332 1.761 1.57 3.357 1.634 2.407.095-.433-.7-.276-.883.4-.466 1.417.876 5.195-1.436 5.195-3.179 0-.725.392-1.076.871-.78.479.296 1.882-.339 3.119-1.411 1.236-1.072 3.207-2.241 4.379-2.598 3.322-1.01 5.631-3.497 5.631-6.066 0-1.29.378-2.345.841-2.345 4.255 0 4.367-30.81.15-41.5-.434-1.1-1.354-3.575-2.044-5.5-.691-1.925-1.844-3.987-2.562-4.581-.719-.595-1.797-2.17-2.397-3.5-1.044-2.315-2.455-4.693-7.986-13.459-1.374-2.178-2.387-4.298-2.25-4.71.136-.413-.089-.697-.502-.632-1.993.315-3.306-.219-2.75-1.118.34-.55-.082-1-.937-1-.855 0-5.032-1.606-9.283-3.57-4.251-1.963-8.987-3.821-10.525-4.129-1.538-.308-3.039-.951-3.335-1.43-.296-.479-1.411-.871-2.479-.871s-1.941-.41-1.941-.912-1.8-1.216-4-1.588c-2.2-.372-4-1.113-4-1.647s-.412-.717-.915-.406c-.503.311-1.065.183-1.25-.285-.184-.468-2.033-1.119-4.107-1.447-2.606-.412-3.563-.258-3.096.499.41.663.215.809-.494.371-.644-.398-.942-1.093-.663-1.544.279-.452-2.751-1.823-6.734-3.047-3.982-1.224-8.275-2.623-9.538-3.11-1.263-.486-3.963-.891-6-.899-2.367-.01-3.228-.317-2.388-.85.853-.54-.907-1.253-5-2.023-3.473-.655-8.565-1.841-11.315-2.638-6.906-2-16.454-3.765-19.75-3.65-1.512.052-2.75-.336-2.75-.864s-1.462-.963-3.25-.966c-1.788-.003-4.825-.417-6.75-.919-1.925-.503-6.65-1.156-10.5-1.451-3.85-.296-11.275-1.018-16.5-1.607-7.709-.868-41.324-1.529-49.5-.974-1.1.075-8.525-.07-16.5-.323-7.975-.252-21.025-.124-29 .285m-27 32.237c-4.125.408-9.975.951-13 1.207-3.025.255-10.9 1.653-17.5 3.106-6.6 1.454-14.7 3.12-18 3.704-3.3.583-6.236 1.414-6.525 1.845-.288.432-2.426 1.26-4.75 1.84a3598.93 3598.93 0 0 0-8.028 2.017c-5.386 1.361-12.311 4.591-11.526 5.377.364.364-.313.662-1.504.662-2.078 0-2.807 1.027-1.592 2.242.317.316 1.9.195 3.52-.269 2.077-.596 2.742-.519 2.26.261-.465.752-.071.851 1.231.309 2.876-1.197 17.338-3.257 22.07-3.143 2.285.055 3.946-.237 3.691-.65-.256-.413 1.024-.796 2.844-.851 1.82-.056 5.109-.312 7.309-.568 11.671-1.361 40.193-.263 39.102 1.505-.226.365.691.73 2.037.811 1.346.081 3.377 1.206 4.513 2.5 1.136 1.294 2.419 2.256 2.85 2.139 1.684-.461 3.257 5.881 2.676 10.786-.723 6.103-4.345 12.928-6.862 12.928-.999 0-1.816.697-1.816 1.548 0 1.959-4.95 6.379-7.191 6.42-.93.018-1.969.482-2.309 1.032-1.57 2.54-2.153.248-2.307-9.074-.188-11.313-.38-11.968-3.351-11.396-2.292.442-4.296 1.959-10.092 7.638-2.062 2.021-3.75 3.205-3.75 2.631 0-.622-.626-.525-1.547.24-.9.747-1.14 1.536-.574 1.886.535.331-.097 1.555-1.405 2.72-1.308 1.165-2.697 1.834-3.086 1.486-.39-.347-.367-.04.05.682.426.738.114 2.051-.713 3-2.972 3.409-4.08 11.692-2.645 19.768.725 4.08 1.678 7.419 2.119 7.419.441 0 .815.788.833 1.75.017.962.661 2.581 1.431 3.597s1.157 2.479.861 3.25c-.296.772-.089 1.403.461 1.403 1.032 0 2.679 4.631 2.36 6.636-.099.625.503 1.399 1.337 1.719.835.32 1.518 1.47 1.518 2.555 0 1.084.45 2.25 1 2.59 1.184.732 1.361 6.5.2 6.5-.44 0-1.263-.463-1.829-1.029-.654-.654-8.669-.957-21.95-.829-11.507.11-24.634.208-29.171.218-5.828.012-8.25.376-8.25 1.241 0 1.281-2.892 1.87-14.5 2.952-3.85.359-7.794 1.076-8.764 1.593-1.561.831-3.713 1.163-11.236 1.733-1.514.115-1.672.36-.649 1.008.912.578-.181 1.085-3.366 1.563-2.594.389-7.477 1.621-10.851 2.739-3.374 1.117-7.295 2.13-8.713 2.25-1.419.121-3.5 1.14-4.625 2.265-1.125 1.125-2.665 2.299-3.421 2.608-1.728.707 1.665 3.726 4.066 3.618 1.116-.051.991-.315-.441-.93-2.532-1.088-3.563-.838 10.465-2.536 3.006-.364 6.381-.84 7.5-1.059 1.119-.218 5.41-.676 9.535-1.017 4.125-.341 7.792-.792 8.15-1.001 1.584-.929 31.069-1.551 30.509-.644-.35.566.426.772 1.868.497 1.357-.26 4.691.255 7.408 1.144 2.717.889 5.531 1.616 6.253 1.616.722 0 3.264 1.784 5.649 3.964 4.04 3.692 4.292 4.222 3.688 7.75-.356 2.082-.625 4.798-.598 6.036.028 1.238-.394 2.25-.938 2.25-.544 0-.989.675-.989 1.5s-.477 1.5-1.059 1.5-.8.419-.484.931c.317.512.111 1.218-.457 1.569-.568.351-.731 1.127-.362 1.724.395.638.207.798-.457.388-.62-.383-1.927.272-2.904 1.457-3.412 4.136-4.543 5.043-5.728 4.588-.656-.251-1.727.398-2.379 1.443-.653 1.045-1.821 1.9-2.595 1.9-.775 0-1.635.563-1.913 1.25-.589 1.461-1.06-5.225-.714-10.134.733-10.385-1.794-14.228-6.817-10.366-3.705 2.849-12.131 11.398-12.131 12.309 0 .463-.609 1.201-1.354 1.641-1.59.939-4.05 5.3-2.99 5.3.399 0 .001.563-.885 1.25-3.926 3.045-4.955 16.397-1.771 22.986 1.1 2.277 2 4.533 2 5.014 0 .481 1.068 3.208 2.373 6.062 2.887 6.311 3.902 8.873 4.035 10.188.056.55.754 2.125 1.552 3.5.797 1.375 1.329 3.288 1.182 4.25-.147.962.211 1.75.795 1.75.585 0 1.07.788 1.078 1.75.013 1.496.157 1.532.985.25.824-1.276.972-1.283.985-.05.037 3.494 1.949-.954 2.987-6.95.62-3.575 1.781-10.1 2.582-14.5.8-4.4 1.453-9.886 1.451-12.191-.003-2.305.452-4.474 1.011-4.819.559-.346.73-1.092.38-1.659-.404-.653.115-.628 1.418.069 2.921 1.564 3.925 1.362 1.627-.326-1.42-1.044-1.539-1.404-.441-1.343 3.088.173 5.311-.253 4.671-.893-.719-.719 5.138-3.584 9.604-4.697 1.527-.381 3.664-1.58 4.75-2.666C247.111 442.889 248.9 442 250 442s2-.45 2-1 .492-1 1.092-1c.601 0 2.254-.913 3.673-2.03 1.802-1.417 2.793-1.685 3.287-.887.51.827.825.786 1.136-.147.259-.776.947-.971 1.728-.488 1.055.652 1.044.963-.059 1.662-.746.473-.871.866-.278.875 1.133.016.496 7.4-1.714 19.855-2.651 14.935 3.587 20.009 19.135 15.564 3.025-.865 7.525-1.968 10-2.452 2.475-.483 6.3-1.55 8.5-2.371s5.425-1.513 7.167-1.537c1.741-.024 3.316-.405 3.5-.847.183-.441 3.483-1.851 7.333-3.133s7.313-2.82 7.696-3.418c.382-.599 1.009-.774 1.392-.391s.208 1.286-.39 2.007c-.829.998-.652 1.309.744 1.309 1.133 0 1.632-.518 1.309-1.36-.416-1.083.725-1.277 5.572-.949 3.352.227 5.861.036 5.577-.424-.285-.461 1.421-.845 3.791-.853 3.151-.012 3.906-.276 2.809-.985-1.138-.735-.711-.973 1.764-.985 1.795-.008 4.045-.412 5-.897 2.805-1.425 11.501-3.474 14.57-3.434 1.919.025 2.403-.235 1.5-.808-.928-.588-.547-.85 1.247-.861 3.821-.022 4.736-2.848 5.91-18.232 1.19-15.613 1.863-19.783 3.193-19.783.514 0 .656-.45.316-1-.731-1.183.248-1.183 3 0 1.1.473 1.48.891.844.93-.641.039-.931.932-.651 2.004.278 1.064.004 6.545-.609 12.181-.613 5.636-.77 10.504-.348 10.816.422.313 1.358 1.719 2.08 3.124 1.717 3.341 6.198 5.019 10.424 3.904 1.793-.473 5.96-1.514 9.26-2.314 12.754-3.09 22.071-5.702 23.736-6.653.955-.546 3.713-.992 6.128-.992 2.506 0 4.881-.59 5.533-1.375.627-.757 3.27-1.924 5.872-2.594 2.602-.67 6.981-1.859 9.731-2.643 2.75-.783 6.35-1.56 8-1.725 1.65-.166 4.012-.848 5.25-1.517 1.238-.669 2.25-.92 2.25-.559 0 .362.602.159 1.337-.452.735-.61 3.201-1.277 5.479-1.483 2.279-.205 4.73-.86 5.448-1.456.717-.595 4.212-1.551 7.765-2.123 3.553-.572 6.609-1.487 6.791-2.032.266-.8 7.626-2.338 10.913-2.281.422.007 2.077-1.358 3.679-3.033l2.911-3.047-2.185-1.769c-2.334-1.891-4.19-1.896-10.851-.033-6.161 1.724-9.249.666-9.445-3.236-.181-3.614-.227-3.014 1.256-16.142.992-8.784 1.268-12.228 1.786-22.25.093-1.81.705-2.25 3.13-2.25 1.657 0 3.795-.436 4.75-.968 3.113-1.737 11.237-4.032 14.271-4.032 2.863 0 6.965-2.945 6.965-5 0-.55.436-1 .969-1 1.965 0-.207-2.856-3.076-4.044-2.46-1.019-3.595-.952-6.678.394-8.852 3.865-18.847 5.167-19.532 2.544-.273-1.042-.081-1.894.427-1.894.507 0 .822-1.303.701-2.895-.266-3.492-4.28-3.66-14.15-.591-4.976 1.547-5.972 1.606-6.735.401-.753-1.19-.898-1.194-.911-.025-.008.764-.748 1.925-1.643 2.58-1.603 1.172-1.992 2.789-2.244 9.339-.071 1.82-.529 3.061-1.02 2.758-.797-.493-3.771.302-13.608 3.634-1.65.559-4.012.972-5.25.919-1.238-.054-2.25.265-2.25.708 0 .443-2.929 1.387-6.509 2.099-3.58.712-6.757 1.694-7.059 2.183-.303.49-1.693.89-3.09.89-1.397 0-3.958.67-5.691 1.488-1.733.818-6.526 2.405-10.651 3.525s-9.075 2.523-11 3.116c-1.925.594-4.512 1.145-5.75 1.225-1.238.08-2.25.434-2.25.785 0 .351-3.038 1.436-6.75 2.411-3.712.974-8.522 2.599-10.688 3.611-2.166 1.011-5.503 1.839-7.416 1.839-1.914 0-3.156.324-2.76.719.728.729-8.404 3.391-11.658 3.398-.974.002-1.542.376-1.261.83.281.454-.385 1.06-1.48 1.346-1.094.286-1.741.118-1.436-.375.731-1.184-2.414-.015-5.551 2.063-4.066 2.693-12.944 5.978-14.522 5.372-.818-.314-1.732.145-2.077 1.043-.338.882-1.377 1.604-2.308 1.604-.931 0-2.121.372-2.643.826-.523.454-2.863 1.427-5.2 2.16-2.337.734-4.25 1.712-4.25 2.174 0 1.24 2.22 1.034 8.701-.807 3.19-.906 8.049-1.771 10.799-1.921 2.75-.15 3.988-.053 2.75.217s-2.25.851-2.25 1.292c0 .873-9.272 2.479-12.5 2.164-1.695-.165-1.771-.022-.5.937 1.231.929 1.097 1.043-.75.638-1.238-.271-2.25-.085-2.25.414 0 .498-.659.906-1.465.906s-3.393.626-5.75 1.39c-2.357.765-5.541 1.678-7.076 2.03-1.535.351-2.524 1.07-2.198 1.598.342.554-.132.681-1.123.301-1.157-.444-1.483-.281-1 .5.468.756.178.952-.836.563-.877-.337-1.552-.068-1.552.618 0 .676-.674.955-1.523.629-1.243-.476-1.328-.22-.465 1.394.582 1.087.669 1.977.192 1.977-.476 0-1.504 1.238-2.283 2.75-.78 1.512-1.816 3.038-2.302 3.391-1.218.883-.932 23.859.298 23.859.321 0 .583 1.58.583 3.511 0 2.398-.396 3.359-1.25 3.031-.687-.263-1.25-.069-1.25.432 0 .78-4.062.601-4.385-.193-.063-.154-.677-1.287-1.365-2.517-.687-1.23-1.25-2.72-1.25-3.309 0-.592.56-.736 1.25-.322.969.582.964.398-.023-.822-1.301-1.606.464-16.613 2.881-24.5.537-1.754.692-5.354.344-8-.663-5.035 2.912-10.44 5.747-8.688.647.4.83.233.439-.399-.369-.597-.213-1.368.346-1.714.559-.345 1.016-1.295 1.016-2.111 0-1.381.879-2.765 3.599-5.667.604-.645.871-2.044.592-3.109-.33-1.262-.116-1.695.614-1.243 1.835 1.133.922-5.628-1.055-7.819-.962-1.066-1.75-2.498-1.75-3.182 0-.684-.907-1.532-2.015-1.884-1.108-.351-1.713-1.126-1.345-1.722.382-.618.206-.796-.411-.415-.593.367-2.238.139-3.654-.506-2.429-1.106-3.049-2.115-2.633-4.282.098-.512.626-3.212 1.174-6 .548-2.789 1.187-6.645 1.421-8.57.234-1.925.825-6.2 1.313-9.5.489-3.3.692-6.517.451-7.149-.24-.632.043-1.446.631-1.809.587-.363 1.068-1.915 1.068-3.449 0-2.287.721-3.114 4-4.593 2.2-.992 4-2.185 4-2.652 0-.466.719-.848 1.599-.848.879 0 3.017-.614 4.75-1.364a963.81 963.81 0 0 1 7.401-3.152c2.337-.983 4.25-2.169 4.25-2.636 0-.466.874-.848 1.943-.848s2.644-1 3.5-2.223c1.04-1.484 1.562-1.733 1.572-.75.01.957.273 1.089.75.377.404-.603 1.996-1.405 3.537-1.782 2.555-.626 2.71-.512 1.75 1.28-.578 1.082-1.052 4.453-1.052 7.493s-.454 10.157-1.009 15.816c-1.922 19.607-1.909 19.051-.403 17.066.742-.977 1.363-1.305 1.38-.728.105 3.457 10.467 4.234 18.625 1.396 3.249-1.13 10.182-3.126 15.407-4.436s11.075-2.879 13-3.486c1.925-.607 5.3-1.511 7.5-2.009 3.698-.838 19.006-4.983 26-7.04 1.65-.485 5.025-1.402 7.5-2.038 11.029-2.832 15.772-4.168 19.533-5.504 2.219-.788 5.931-1.432 8.25-1.432 2.32 0 4.217-.45 4.217-1s.81-1 1.8-1 2.243-.443 2.784-.984c.541-.541 2.612-1.103 4.602-1.25 1.991-.146 3.443-.553 3.227-.904-.216-.351.84-.872 2.347-1.158 5.783-1.099 15.9-3.808 19.51-5.224 2.074-.814 5.043-1.48 6.597-1.48 1.555 0 3.82-.861 5.033-1.913 1.802-1.563 3.715-1.904 10.432-1.861 5.502.036 9.21-.451 11.197-1.472 1.634-.839 5.558-2.059 8.721-2.711 3.163-.652 5.75-1.629 5.75-2.173 0-.543.45-.71 1-.37.564.348 1-.462 1-1.858 0-1.361.47-2.632 1.044-2.823.575-.192.156-1.301-.936-2.472-1.865-2.002-6.26-2.571-8.694-1.125-.502.299-1.958.149-3.233-.333-2.251-.85-2.299-1.119-1.622-9.132.383-4.542 1.029-8.932 1.434-9.757.876-1.784.235-3.915-1.788-5.937-1.297-1.298-1.158-1.579 1.167-2.354 1.452-.484 2.386-1.291 2.075-1.794-.311-.503-.185-.915.28-.915.464 0 .844-.9.844-2s-.38-2-.844-2c-.465 0-.596-.403-.292-.895.984-1.592-2.436-2.113-7.059-1.077-2.478.555-4.927.75-5.441.432-.514-.318-.935-.192-.935.28 0 1.16-6.005 3.26-9.321 3.26-1.473 0-2.679.45-2.679 1s-.981 1-2.179 1c-2.04 0-5.116.787-12.321 3.154-1.65.542-3.453 1.077-4.007 1.189-2.15.434-5.239 3.262-5.922 5.422-.401 1.27-1.19 1.97-1.798 1.595-.634-.392-.794-.204-.387.456.383.619-.021 2.512-.898 4.206-1.745 3.375-2.056 10.738-.952 22.523.385 4.1.309 7.486-.169 7.524-4.346.345-6.895 1.015-7.186 1.888-.191.574-1.24 1.043-2.33 1.043s-2.965.531-4.167 1.181c-3.362 1.818-8.725 2.192-6.45.45.954-.731 1.491-1.573 1.192-1.872-.299-.298.12-2.13.93-4.069.811-1.94 1.175-3.861.809-4.269-.366-.408-.102-.418.585-.022.773.445 1.25.124 1.25-.84 0-.857.45-1.559 1-1.559s1.007-1.012 1.015-2.25c.013-1.819.201-1.963.985-.75.755 1.169.973.893.985-1.25.008-1.512.42-2.75.916-2.75.495 0 1.723-1.988 2.728-4.418 1.005-2.43 2.251-4.156 2.769-3.836.525.324.664-.141.316-1.05-.628-1.635.743-3.376 1.537-1.952.232.416.285.195.117-.492-.167-.686.562-2.714 1.62-4.508 2.261-3.831 2.343-7.808.143-6.964-.94.361-1.202.144-.736-.61 1.051-1.701-.929-1.436-2.386.319-.68.819-1.635 1.242-2.122.941-.488-.301-.887-.071-.887.511s-1.012 1.066-2.25 1.074c-1.238.008-4.275.721-6.75 1.584-2.475.864-6.332 1.695-8.572 1.846-2.24.152-5.165.977-6.5 1.835-1.335.857-4.995 1.869-8.132 2.249-3.578.433-6.903 1.574-8.92 3.062-3.463 2.555-6.339 1.78-5.126-1.381.558-1.454.448-1.475-.949-.177-1.017.944-1.207 1.7-.534 2.122.575.361-.682.607-2.793.547-2.19-.062-4.011.408-4.24 1.095-.22.661-1.462 1.203-2.758 1.203-1.297 0-2.593.381-2.881.847-.288.466-1.958.887-3.712.937-1.753.05-3.457.514-3.785 1.032-.556.875-2.886 1.349-13.845 2.816-2.336.313-4.005.961-3.709 1.439.296.479-.718 1.136-2.253 1.461-4.581.969-9.29 3.348-9.305 4.702-.007.696-.238 2.166-.513 3.266-.648 2.598.429 4.081 3.527 4.856 1.375.344 1.858.341 1.073-.008-1.684-.747 4.704-3.207 6.65-2.561 1.55.515-.854 6.659-3.856 9.855-1.121 1.192-2.654 3.899-3.408 6.013-.754 2.115-1.392 3.395-1.417 2.845-.025-.55-.832.413-1.794 2.139-7.933 14.243-8.544 14.832-11.639 11.218-1.835-2.144-1.836-4.16-.006-16.857.198-1.375.427-4.75.507-7.5.081-2.75.493-5.919.915-7.042.921-2.452-.901-6.05-3.025-5.972-2.443.09-6.302 1.673-7.849 3.22-1.183 1.183-1.592 1.204-2.281.118-.633-.999-.843-1.017-.855-.074-.008.688-.425 1.25-.927 1.25-1.611 0-.502-3.189 1.487-4.277 1.059-.579 2.15-1.32 2.425-1.647.275-.327 2.227-1.491 4.338-2.586 2.111-1.094 5.711-4.039 8-6.543 2.289-2.504 4.612-4.641 5.162-4.75.55-.108 1-.663 1-1.233 0-.571.62-1.42 1.378-1.889.804-.496 1.052-1.379.596-2.118-.475-.768-.379-1.016.243-.632 1.377.851 4.177-6.984 3.957-11.073-.098-1.837-.717-3.248-1.424-3.25-1.156-.002-1.691-1.327-1.344-3.326.079-.454-.318-.54-.881-.191-.564.348-1.025.187-1.025-.359 0-.936-4.391-2.868-4.596-2.023-.053.218-.728-.114-1.5-.738s-2.866-1.447-4.654-1.829c-1.788-.382-3.25-1.052-3.25-1.488 0-1.931-32.947-3.196-47-1.806m205.237 16.348c-1.795.785-4.045 1.602-5 1.816-4.7 1.055-6.237 1.969-6.237 3.711 0 1.063-.7 1.883-1.607 1.883-1.041 0-1.397.546-1.011 1.552.327.854.212 1.315-.257 1.025-2.032-1.255-2.766 16.646-.752 18.318 3.001 2.49 4.627.221 4.627-6.455 0-3.49.528-7.504 1.173-8.92.842-1.847.867-2.88.09-3.657-2.503-2.503 7.546-9.264 11.987-8.065.413.111.75-.215.75-.725 0-.509.788-1.132 1.75-1.384 1.446-.377 1.402-.463-.25-.491-1.1-.019-3.469.607-5.263 1.392m66.2 2.181c.342.341 1.324.723 2.184.85.859.126 1.283-.05.942-.392-.342-.341-1.324-.723-2.184-.85-.859-.126-1.283.05-.942.392M341 294.824c-6.72 2.503-8.893 6.625-4.91 9.311 1.659 1.119 9.888.287 11.32-1.145.544-.544 1.722-.99 2.616-.99 2.333 0 6.147-4.384 5.433-6.246-1.188-3.096-7.547-3.505-14.459-.93m-90.985 2.395c-.01 1.207-.536 1.531-1.765 1.09-.99-.355-1.399-.243-.941.257.444.486-.561 1.346-2.235 1.909-1.674.564-3.111 1.475-3.193 2.025-.23 1.534-3.758 3.694-4.89 2.995-.553-.342-1.285.108-1.627.999-.342.892-1.195 1.401-1.896 1.132-.7-.269-2.105.157-3.121.945-1.77 1.374-1.763 1.405.153.751 1.334-.455.924.235-1.23 2.07-1.776 1.513-3.691 2.466-4.257 2.116-.565-.349-1.283.033-1.597.85-.454 1.183-1.163 1.278-3.492.466-1.607-.56-2.695-1.385-2.418-1.834.277-.448-.254-.703-1.179-.567-.925.135-2.989-.405-4.585-1.202-1.611-.803-6.093-1.509-10.072-1.584-3.944-.076-7.508-.587-7.92-1.137-.49-.654-1.01-.611-1.5.124-.412.619-2.166 1.432-3.896 1.807-1.731.375-3.911 1.527-4.844 2.558-.969 1.07-2.372 1.617-3.268 1.274-.959-.368-1.316-.192-.917.453.359.581-.242 1.291-1.336 1.577-1.094.286-1.989 1.237-1.989 2.113 0 .927-.837 1.594-2 1.594-1.1 0-1.911.337-1.802.75.389 1.47-1.357 5.27-2.186 4.758-2.192-1.355-4.807 19.159-2.998 23.525 2.779 6.71.609 14.706-3.331 12.271-.562-.347-.678-.105-.268.558.398.644 1.212.869 1.809.5.675-.417.795-.202.318.571-.422.683-1.619 1.019-2.659.747-1.376-.36-2.056.161-2.496 1.913-.332 1.324-1.257 2.407-2.054 2.407-.895 0-1.163.479-.7 1.25.497.827.17.779-.965-.143-.944-.765-2.005-1.103-2.359-.75-.353.354-.157.643.436.643 1.226 0 1.082 2.545-.21 3.721-.47.428-.542.104-.158-.721s.118-.664-.59.358c-3.239 4.676-5.058 6.704-5.561 6.201-.734-.734-3.605 3.454-3.959 5.774-.155 1.018-.954 2.81-1.775 3.982-1.679 2.397-1.972 4.099-.553 3.223.516-.319 1.335.13 1.821.998.793 1.417 1.32 1.427 5.179.097 2.363-.814 4.806-1.363 5.429-1.22.622.142.771.063.329-.178-.442-.24.008-1.032 1-1.76 1.522-1.116 2.112-1.062 3.786.351 1.869 1.578 1.905 1.574.627-.076-1.211-1.565-.967-1.912 2.312-3.282 2.016-.842 4.091-1.269 4.611-.948.523.323.671-.127.332-1.01-.488-1.272-.078-1.497 2.032-1.114 1.535.278 2.396.079 2.054-.475-.324-.524-1.008-.695-1.52-.378-.512.316-.931.046-.931-.601 0-.655.826-.959 1.868-.687 1.242.325 1.828-.018 1.75-1.026-.065-.832.507-1.733 1.271-2.001.93-.326 1.127-.062.596.797-.521.842-.396 1.038.36.57.635-.392 1.155-1.361 1.155-2.154 0-1.315 1.428-1.831 4.739-1.711.682.024.993-.355.691-.843-.301-.488-.045-.887.57-.887s.84-.45.5-1c-.34-.55-.141-1 .441-1s1.059.436 1.059.969c0 .532.681.707 1.513.388.832-.32 2.069-.142 2.75.394 1.001.789 8.373 1.574 13.237 1.409 2.028-.069 6.05-.917 7.746-1.633.961-.406 2.873-.803 4.25-.883 1.376-.079 2.503-.609 2.503-1.178.001-.913 4.647-4.199 6.726-4.758a.758.758 0 0 0 .516-.986c-.143-.428.42-1.038 1.25-1.357.83-.318 1.509-1.232 1.509-2.031 0-.854.482-1.154 1.17-.729.787.486.961.178.531-.941-.351-.915-.312-1.664.086-1.664 1.76 0 3.681-7.234 4.176-15.724.469-8.057.841-9.511 2.939-11.5l2.403-2.276-2.102 3.083c-1.58 2.319-1.753 3.084-.696 3.084.773 0 1.214-.309.981-.686-.233-.378.187-1.521.933-2.542.746-1.02 1.133-2.437.861-3.147-.273-.711-.059-1.292.476-1.292.534 0 2.494-1.416 4.356-3.147 1.863-1.731 2.486-2.518 1.386-1.75-1.854 1.295-1.897 1.266-.59-.399.776-.987 2.008-1.566 2.738-1.285.731.28 1.28.188 1.222-.205-.383-2.564.188-3.411 1.541-2.288 1.031.856 1.597.87 2.101.054.38-.614 1.432-.834 2.339-.489 1.291.491 1.387.364.441-.589-.948-.956-1.538-.943-2.75.063-2.002 1.662-2.157-.493-.178-2.472 1.053-1.053 1.638-1.093 2.56-.179.924.918 1.03.753.465-.728-.505-1.327-.374-1.695.43-1.198.734.454.958.195.612-.707-.3-.783.183-1.703 1.075-2.045.915-.351 1.308-1.128.903-1.783-.437-.707-.282-.893.394-.475 1.199.741 4.539-4.703 3.514-5.728-.332-.331.069-.861.892-1.177.966-.37 1.329-1.439 1.026-3.023-.524-2.741-4.605-3.393-8.428-1.347-1.583.847-2.26.789-2.919-.25-.67-1.057-.861-.977-.873.366m165.72 12.376c-.971 1.951-1.51 3.96-1.198 4.464.312.505-.15.643-1.026.307s-1.521-.219-1.433.261c.374 2.049-.151 3.446-1.078 2.873-.55-.34-1 .084-1 .941s-.45 1.559-1 1.559-1 .839-1 1.865-.9 3.009-2 4.408c-1.1 1.398-2 2.889-2 3.312 0 .423-1.589 3.075-3.53 5.895-3.856 5.598-5.849 11.909-3.019 9.561.852-.707 1.549-1.07 1.549-.805 0 .264 3.711-.726 8.246-2.201 6.543-2.127 8.247-3.079 8.25-4.608.002-1.107.588-1.803 1.377-1.636.881.187 1.157-.269.772-1.273-.341-.89.267-2.43 1.414-3.577 1.108-1.108 1.746-2.448 1.418-2.977-.327-.53-.114-.964.474-.964.986 0 1.965-1.632 7.549-12.579 1.1-2.156 2.437-4.234 2.972-4.617 1.535-1.099-2.201-2.1-5.239-1.404-4.779 1.096-7.14 1.333-7.067.707.483-4.142-1.249-3.895-3.431.488m-181.057 5.803c-.287.747.006 1.916.65 2.598.788.833.392.791-1.209-.128-1.952-1.122-2.466-1.132-2.855-.053-.26.723-1.611 1.747-3.001 2.275-2.364.899-2.422 1.077-.893 2.767.899.993 1.367 2.073 1.041 2.399-.327.327.121.489.994.361 1.436-.211 6.368-4.617 5.168-4.617-.278 0 .829-1.366 2.461-3.034 1.631-1.669 2.966-3.146 2.966-3.282 0-1.013-4.913-.354-5.322.714m1.322.661c0 .582.45.781 1 .441s1-.816 1-1.059-.45-.441-1-.441-1 .477-1 1.059M201 317c-1 .646-1.083.974-.25.985 1.815.022 1.532 4.168-.481 7.041-.952 1.359-1.739 3.108-1.75 3.887-.01.778-.581 1.603-1.268 1.834-1.646.552-2.881-2.739-1.378-3.669.768-.474.306-1.179-1.354-2.068-1.557-.833-2.519-2.215-2.519-3.62 0-3.236-1.794-3.918-4.324-1.644-1.197 1.076-3.031 2.26-4.076 2.631-1.831.651-1.822.758.25 2.964 1.183 1.258 2.15 3.073 2.15 4.032 0 .96.402 1.496.894 1.193.491-.304.829.574.75 1.951-.101 1.759-.59 2.348-1.644 1.98-.825-.288-.375.373 1 1.468 2.813 2.24 5.513 2.722 4.399.785-.396-.687-.351-.916.099-.509.45.408 1.432.232 2.183-.391 1.096-.91 1.225-.761.655.759-.631 1.68-.519 1.735 1 .5 1.511-1.23 1.629-1.182 1.017.414-.477 1.242-.328 1.58.477 1.082.644-.398 1.17-.273 1.17.277s-.45 1.278-1 1.618c-.55.34-1 1.097-1 1.681 0 .641.697.524 1.75-.291 1.663-1.288 1.663-1.253-.002.708-.964 1.136-1.494 2.322-1.179 2.638.316.316-.895.896-2.69 1.291-2.634.578-3.588.315-4.947-1.363-.926-1.143-1.988-1.774-2.361-1.402-.372.372-.402-.039-.066-.914.335-.874-.091-2.291-.947-3.148-.857-.856-1.558-2.023-1.558-2.593 0-.57-.89-1.513-1.977-2.095-1.645-.88-1.873-.785-1.356.564.542 1.412.354 1.454-1.457.323-1.144-.715-1.858-1.659-1.586-2.099.272-.44-.009-.8-.624-.8s-.8-.562-.412-1.25c.474-.84.371-.922-.312-.25-1.522 1.496-2.31 5.828-1.344 7.39.66 1.068 1.001.895 1.531-.772.374-1.181 1.147-1.859 1.716-1.508.667.413.553.979-.322 1.593-.958.673-.547.824 1.393.514 2.498-.399 3.23.246 2.868 2.533-.065.413.28.75.765.75.486 0 1.119.9 1.407 2 .335 1.284.03 2-.852 2-.872 0-1.141.609-.737 1.664.445 1.16.264 1.433-.598.9-.734-.454-1.805-.013-2.638 1.086-1.354 1.788-1.402 1.784-1.433-.114-.029-1.81-.159-1.837-1.65-.346-2.542 2.541-.804 4.08 2.611 2.313 1.584-.819 3.471-1.267 4.194-.996 3.61 1.355 7.539 1.162 7.427-.366-.063-.86.673-1.727 1.636-1.926 2.28-.471 2.317 2.369.047 3.639-1.799 1.006-.324 4.146 1.948 4.146.55 0 .382-.753-.373-1.673-1.223-1.492-1.126-1.61.891-1.091 1.583.408 2.559.031 3.248-1.256.541-1.012 1.998-1.984 3.237-2.16 2.542-.361 2.905-5.44.523-7.318-.699-.551-1.338-1.819-1.421-2.819-.083-.999.101-1.565.408-1.258.307.307 1.087.119 1.733-.418 1.244-1.032 1.557.04 1.511 5.177-.031 3.533 1.313 4.231 3.498 1.816.972-1.074 2.168-1.705 2.658-1.402.491.303.827.18.748-.274-.33-1.902.163-3.324 1.153-3.324.582 0 .738.52.346 1.155-.456.737-.273.882.507.399.672-.415.981-.994.688-1.287-.647-.647 4.561-4.864 5.595-4.529.403.131.476-.432.162-1.25-.314-.818-.073-1.488.536-1.488s1.114.563 1.122 1.25c.011.835.328.755.958-.24.635-1.005.459-2.227-.539-3.75-.814-1.243-1.175-2.26-.802-2.26s-.135-.898-1.129-1.996c-1.472-1.627-2.103-1.772-3.405-.783-.879.667-1.282.837-.896.377.387-.46.089-1.449-.66-2.199-.75-.75-1.535-1.878-1.744-2.506-.21-.629-1.608-1.143-3.108-1.143s-2.97-.394-3.267-.875c-.298-.481-1.441-.875-2.541-.875-1.1 0-1.722-.45-1.382-1 .767-1.242.421-1.242-1.5 0m136.115 2.393c-1.312.727-1.987 1.555-1.5 1.839 1.258.736 3.839-.501 4.135-1.982.301-1.506.343-1.508-2.635.143m27.043.607c0 1.375.227 1.938.504 1.25.278-.687.278-1.812 0-2.5-.277-.687-.504-.125-.504 1.25M169 322c.589 1.1 1.295 2 1.57 2 .275 0 .019-.9-.57-2s-1.295-2-1.57-2c-.275 0-.019.9.57 2m58-.607c0 .216.698.661 1.552.989.89.341 1.291.173.941-.393-.587-.951-2.493-1.406-2.493-.596m-21.208 1.283c.986.396 1.019.847.137 1.909-.896 1.08-.799 1.528.433 2 1.361.523 1.388.808.184 2.012-1.695 1.695-2.942 1.853-1.951.248.443-.715.275-.883-.44-.44-.635.392-1.155 1.388-1.155 2.213 0 .825-.45 1.222-1 .882-1.625-1.005-1.142 1.116.75 3.288.963 1.105 2.953 2.759 4.423 3.676 2.596 1.617 2.658 1.604 2.123-.442-.381-1.456-.126-2.017.826-1.815.758.161 1.265-.269 1.128-.957-.138-.687.312-1.257 1-1.265.865-.011.911-.242.15-.75-1.857-1.24-3.426-5.003-2.785-6.675.752-1.959-1.294-4.587-3.487-4.481-1.1.053-1.209.247-.336.597m-13.059 3.448c.679.684 1.486.991 1.793.683.308-.308-.247-.867-1.233-1.243-1.425-.542-1.54-.428-.56.56m25.149 1.626c-.066.413-.04 1.164.056 1.669.096.506-.52.343-1.37-.362-2.727-2.264-3.257 1.718-.569 4.276 1.252 1.192 1.963 1.605 1.58.917-.384-.687-.332-1.25.114-1.25s.829-1.35.851-3c.036-2.723-.37-4.103-.662-2.25M106 330.059c0 .582.45.781 1 .441s1-.816 1-1.059-.45-.441-1-.441-1 .477-1 1.059M204.5 339c.34.55.816 1 1.059 1s.441-.45.441-1-.477-1-1.059-1-.781.45-.441 1m-107.897.833c-.283.459.12.834.897.834s1.18-.375.897-.834c-.283-.458-.687-.833-.897-.833-.21 0-.614.375-.897.833m126.887 2.183c-.346.559-1.034.766-1.53.459-.496-.306-1.179.548-1.518 1.899-.365 1.455-1.83 2.958-3.596 3.69-1.977.819-2.572 1.487-1.768 1.984.667.413.926 1.499.575 2.414-.363.945-1.141 1.354-1.8.947-.723-.446-.892-.281-.448.436.392.635.236 1.155-.346 1.155s-1.059-.45-1.059-1c0-1.557-3.609-1.175-5.026.531-1.051 1.267-.942 1.773.628 2.926 1.85 1.36 1.848 1.391-.102 1.219-1.102-.097-1.893.369-1.762 1.038.135.687-.389.974-1.206.66-1.17-.449-1.28.018-.579 2.461.475 1.658.605 3.273.289 3.59-.316.316-.243.575.163.575 1.365 0 3.507-2.754 2.797-3.598-.386-.46.014-.292.89.372 1.572 1.194 2.908.735 2.908-1 0-.49-.52-.571-1.156-.178-.831.514-.971-.209-.5-2.566.361-1.804.656-3.682.656-4.174 0-.492 1.238-.603 2.75-.247s3.2.702 3.75.769c.55.067 1.225.391 1.5.719.275.329 1.625-.779 3-2.462 1.375-1.683 1.969-2.732 1.319-2.331-.649.401-1.463.271-1.809-.288-.345-.559.047-1.016.872-1.016 2.008 0 2.602-1.147 3.08-5.953.408-4.103.163-4.868-.972-3.031m312.807 1.431c-2.311.723-4.521 1.03-4.91.684-.389-.347-.337.008.117.789.619 1.067.397 1.256-.892.761-.949-.364-1.462-.247-1.148.261.313.506.111 1.202-.448 1.548-1.825 1.128-1.22 6.508.734 6.525 1.496.013 1.532.157.25.985-1.207.78-1.049.972.809.985 1.579.01 2.072.41 1.558 1.265-.562.935-.387.985.691.198.793-.579 3.017-1.18 4.942-1.337 1.925-.156 5.348-1.444 7.606-2.862 3.952-2.48 4.164-2.948 3.514-7.749-.407-3.002-6.61-3.995-12.823-2.053m-418.733 4.26c-.542 1.425-.428 1.54.56.56.684-.679.991-1.486.683-1.793-.308-.308-.867.247-1.243 1.233m69.651 5.702c1.257.924 1.419 1.557.606 2.37-.814.814-.391 1.291 1.581 1.786 1.48.371 2.946.42 3.259.108.977-.978-3.062-5.164-5.161-5.349-1.844-.162-1.866-.078-.285 1.085m-1.829 6.028c-.318.827-1.223 1.179-2.133.83-1.005-.386-1.332-.204-.897.499.376.609 1.543 1.042 2.594.963 1.051-.079 1.691-.501 1.422-.937-.27-.435.212-.792 1.069-.792s1.559-.45 1.559-1c0-1.544-2.993-1.182-3.614.437m-13.068 5.214c.358.358-.086 1.19-.986 1.848-1.632 1.194-1.114 3.501.786 3.501.55 0 .741-.419.425-.931-.317-.512-.118-1.213.441-1.559 1.397-.863 1.283-3.51-.151-3.51-.641 0-.873.293-.515.651m1.618 2.927c-1.684 2.028.625 2.564 2.435.565 1.418-1.568 1.434-1.81.117-1.81-.836 0-1.984.56-2.552 1.245m-7.477 2.076c-1.078.788-1.892 1.75-1.809 2.139.083.389-.288.583-.824.432-.536-.151-.659.237-.272.862.386.625.082 1.529-.676 2.009-.906.574-.97.879-.187.889.655.008 1.499-.483 1.875-1.092.478-.773.973-.698 1.646.25.707.998.839.791.497-.782-.255-1.177-.027-2.752.508-3.5.748-1.047.845-.965.421.357-.752 2.345.955 3.181 3.234 1.584 1.816-1.272 1.807-1.366-.289-2.947-1.896-1.43-2.409-1.455-4.124-.201M464 372.891c0 .875-3.342 1.659-11.747 2.756-2.336.305-3.997.959-3.691 1.453.306.495-.708.906-2.253.914-4.219.02-7.367 1.083-6.649 2.246.414.669-.307.794-2.053.356-1.82-.456-3.186-.18-4.22.854-.842.842-2.928 1.53-4.637 1.53-2.968 0-7.95 1.279-12.25 3.145-1.1.477-4.025 1.291-6.5 1.808-7.646 1.596-13.321 3.288-17.723 5.284-2.322 1.053-4.679 1.633-5.237 1.288-.558-.345-4.197.521-8.087 1.924-3.89 1.403-8.395 2.551-10.013 2.551-1.617 0-2.94.459-2.94 1.019 0 .588-1.058.753-2.5.392-1.597-.401-2.5-.206-2.5.54 0 .642-.412.913-.915.602-.503-.311-1.089-.042-1.302.599-.214.64-1.835 1.122-3.604 1.072-1.768-.05-3.011.238-2.762.641.249.403-.981.775-2.732.827-5.363.159-5.824.274-5.192 1.297.341.552-.03.742-.84.431-.798-.306-1.748-.076-2.111.512-.596.964.861 1.441 4.124 1.351.641-.018 1.387.812 1.657 1.843.29 1.112.077 1.621-.523 1.25-.622-.384-.774.131-.393 1.33.391 1.234-.123 2.814-1.393 4.278-1.108 1.277-2.021 1.916-2.029 1.419-.009-.497-.392-.309-.853.418-.46.726-3.985 1.851-7.831 2.5-3.847.648-7.808 1.854-8.801 2.679-.994.825-1.965 1.379-2.158 1.232-.923-.705-5.342 1.134-5.342 2.223 0 .681-.752 2.746-1.672 4.59-2.527 5.065-2.019 16.621.839 19.1 2.653 2.301 2.742 2.298 2.563-.076-.08-1.062-.502-1.71-.938-1.441-.435.27-.792.013-.792-.569s.637-1.059 1.415-1.059c1.571 0 3.159-12.279 2.231-17.25-.374-2.001-.107-2.75.979-2.75.821 0 1.244-.403.94-.895-.647-1.046 1.412-1.953 6.14-2.705 1.858-.295 4.919-1.181 6.804-1.968 7.586-3.17 9.076-.976 6.927 10.203-1.763 9.168-1.32 12.005 2.119 13.572 3.714 1.692 4.59.134 5.558-9.887.468-4.851 1.248-11.219 1.732-14.15.485-2.932.822-7.74.749-10.686-.073-2.946.189-4.835.583-4.198.493.798.916.634 1.362-.526.564-1.47 2.36-2.49 5.961-3.387l7-1.747c3.3-.824 8.137-1.779 10.75-2.123 2.613-.344 4.75-.952 4.75-1.352 0-.399 1.433-.835 3.184-.968 1.75-.134 3.862-.792 4.691-1.463 1.226-.991 1.351-.958.668.176-.667 1.107-.298 1.259 1.785.737 4.274-1.073 11.667 7.404 10.152 11.642-.24.674-.607 5.87-.815 11.546-.364 9.972-.296 10.374 2.01 11.886 3.235 2.119 3.644 1.407 4-6.974.868-20.398 2.155-26.168 6.685-29.954 2.292-1.915 5.736-4.287 7.653-5.27 1.918-.984 3.712-2.108 3.987-2.5.275-.391 1.625-.955 3-1.254 1.375-.299 5.875-1.412 10-2.473 10.483-2.698 17.772-2.086 18.644 1.565.923 3.871 1.488 4.531 2.575 3.01.683-.956.742-.766.198.643-.425 1.1-.859 5.15-.965 9-.194 7.037-3.935 15.473-6.88 15.515-.589.009-.397.488.428 1.066 1.166.816.988.905-.804.4-1.439-.406-3.97.133-6.739 1.434-2.44 1.147-5.025 2.085-5.746 2.085-.721 0-1.862.551-2.536 1.225-.967.967-1.639.967-3.186 0-3.613-2.256-6.132.929-2.739 3.464 1.606 1.199 6.302 1.018 6.083-.234-.091-.525 1.034-1.007 2.5-1.07 4.759-.205 14.492-2.31 15.543-3.361.563-.563 1.947-1.031 3.074-1.039 3.911-.03 4.823-1.534 5.234-8.633.218-3.769.579-9.102.802-11.852 1.83-22.522 1.797-24.5-.402-24.5-1.146 0-2.084.401-2.084.891m-180.921 7.692c.048 1.165.285 1.402.604.605.289-.722.253-1.585-.079-1.917-.332-.332-.568.258-.525 1.312M437 396.96c0 .493-.68 1.577-1.511 2.408-1.964 1.965-3.241 10.632-1.566 10.632.657 0 .92-.445.584-.989-.336-.544.02-.746.793-.449.807.309 2.105-.531 3.052-1.977 2.091-3.191 2.18-9.167.148-9.947-.825-.316-1.5-.171-1.5.322" fill-rule="evenodd"/>
<path fill="#fbd2d6" stroke="#fbd2d6" d="M440.5 128.117c-28.081 2.168-52 20.813-61.087 47.618-3.572 10.537-5.374 22.232-5.395 35.015L374 222l-22.75.009c-43.232.016-80.485 6.638-116.25 20.664-21.948 8.606-49.278 23.288-64 34.38-1.925 1.45-7.312 5.491-11.97 8.98-12.628 9.458-21.021 17.038-37.053 33.467-29.616 30.348-45.379 53.798-56.803 84.5-2.735 7.352-2.387 34.27.563 43.5 6.93 21.682 24.603 37.998 55.263 51.022 7.425 3.154 15.037 6.408 16.915 7.231 8.472 3.714 50.221 16.796 59.085 18.515 1.375.267 5.875 1.21 10 2.096 7.254 1.559 23.289 4.18 31.5 5.15 2.2.26 5.8.711 8 1.004 43.723 5.809 110.213-4.13 151.239-22.609 2.332-1.05 4.479-1.909 4.772-1.909 1.297 0 30.979-15.342 40.489-20.928l10.5-6.167 3 3.714c12.666 15.68 36.45 36.821 51.387 45.676 29.155 17.282 58.641 16.257 82.342-2.863a633.011 633.011 0 0 1 5.271-4.22c22.546-17.442 44.222-36.534 62.5-55.049 43.37-43.932 54.922-75.759 35.522-97.873-9.599-10.942-43.958-16.991-77.772-13.69-7.69.75-7.642.816-5.161-7.1 2.213-7.061 2.17-26.136-.079-35.116-3.439-13.733-10.147-26.991-21.192-41.884-2.039-2.75-3.327-4.669-2.862-4.266.466.404 1.341.096 1.945-.684.605-.781 3.799-2.872 7.099-4.648 40.797-21.956 55.954-45.516 42.37-65.859-3.483-5.216-18.931-19.043-21.275-19.043-.34 0-3.2-1.753-6.356-3.896-41.868-28.423-120.674-49.774-169.739-45.987m-113 106.991c-24.37 2.419-30.567 3.371-48.5 7.448-16.698 3.796-35.165 9.731-46.78 15.034-2.903 1.325-5.524 2.41-5.823 2.41-1.14 0-20.288 9.955-26.712 13.887-3.696 2.262-6.923 4.113-7.17 4.113-1.034 0-18.877 12.379-26.15 18.143-42.313 33.53-75.616 74.712-87.855 108.642-3.759 10.419-3.842 30.63-.167 40.393 7.128 18.939 22.54 31.622 54.157 44.566 39.388 16.126 65.354 23.262 107 29.406 12.208 1.801 63.767 1.823 76 .033 20.413-2.988 53.714-11.123 63.962-15.625 1.671-.734 6.863-2.805 11.538-4.603 9.477-3.644 39.764-18.591 41.821-20.639.727-.724 1.708-1.316 2.179-1.316.471 0 1.473-.562 2.227-1.25.753-.687 3.373-2.334 5.821-3.66 8.969-4.855 11.87-7.115 13.475-10.497 1.043-2.198 4.248-5.284 8.808-8.481 3.943-2.764 8.294-5.958 9.669-7.098 1.375-1.14 8.35-6.364 15.5-11.609s13.675-10.069 14.5-10.721c.825-.652 4.425-3.338 8-5.971 3.575-2.632 8.3-6.144 10.5-7.806 5.33-4.025 34.348-25.466 37.447-27.668 1.346-.956 8.002-5.932 14.792-11.056 6.79-5.124 13.634-9.766 15.209-10.315 3.294-1.148 4.221-3.075 7.152-14.868 4.666-18.772.341-37.168-13.811-58.745-5.478-8.351-8.954-11.65-15.289-14.511-5.703-2.575-24.144-9.817-29-11.389-2.475-.8-5.4-1.868-6.5-2.372-3.016-1.382-20.041-6.826-28.25-9.034-3.988-1.072-10.58-2.839-14.649-3.927-16.873-4.51-47.767-9.205-72.101-10.957-15.491-1.116-79.634-1.085-91 .043M303 269.64c-21.784 1.991-46.762 7.333-65.5 14.007-5.5 1.959-10.787 3.792-11.75 4.074-2.956.865-2.001 2.562 1 1.777 1.512-.396 5.225-1.071 8.25-1.499 3.025-.429 10.9-1.57 17.5-2.536 24.933-3.648 53.008-2.089 60.5 3.361 8.505 6.186 7.283 19.472-2.792 30.361-3.925 4.243-13.908 10.45-15.017 9.338-.38-.381-.53-5.829-.334-12.108.196-6.278.031-11.415-.366-11.415-1.586 0-10.636 7.379-15.274 12.453-11.735 12.84-12.172 21.943-2.16 45.047 4.649 10.729 9.052 19.725 9.455 19.321.273-.273.934-3.831 1.47-7.908.535-4.077 1.658-11.874 2.496-17.326.837-5.452 1.522-11.12 1.522-12.595 0-3.364 1.833-4.914 10-8.451 12.597-5.458 27.559-12.841 32.769-16.172 2.899-1.853 5.599-3.384 6-3.401.402-.018 3.024-1.705 5.826-3.75 30.743-22.431 29.641-37.446-3.095-42.169-6.39-.921-32.056-1.181-40.5-.409m208.5 5.547c-30.217 8.294-32.554 9.398-36.431 17.219-3.02 6.093-3.688 13.46-2.107 23.258.904 5.603.928 7.846.092 8.682-1.029 1.029-26.195 8.692-26.827 8.168-.15-.124 3.939-7.603 9.087-16.62C467.85 293.935 471 288.227 471 287.475c0-.762-3.958.016-14 2.752-38.607 10.519-35.69 9.475-36.4 13.025-1.109 5.544-.967 5.586 9.186 2.703 6.923-1.965 7.491-3.692-7.466 22.691-6.167 10.877-7.917 13.237-10.137 13.671-1.476.288-6.206 1.499-10.512 2.691-8.145 2.256-9.944 2.072-7.879-.806.671-.936 1.525-2.377 1.897-3.202.372-.825 2.792-5.1 5.378-9.5 14.72-25.045 17.744-30.498 17.121-30.878-.621-.378-24.589 6.08-42.832 11.541-6.876 2.058-7.165 2.271-7.719 5.685-.772 4.757-.706 4.778 7.574 2.363 3.974-1.16 7.316-2.018 7.426-1.907.111.111-2.85 5.375-6.581 11.699a2760.109 2760.109 0 0 0-10.964 18.747c-3.691 6.402-4.523 7.25-7.113 7.25-4.935 0-6.355-3.395-5.102-12.198 2.355-16.56 3.39-25.868 2.928-26.331-.27-.269-5.174 1.019-10.898 2.864l-10.407 3.354-1.164 9.906c-1.707 14.528-1.676 28.878.067 30.325 3.259 2.704 7.453 2.965 15.336.955 4.269-1.089 9.336-2.373 11.261-2.854 1.925-.481 8.225-2.196 14-3.812a8353.114 8353.114 0 0 1 31-8.562c11.275-3.092 22.075-6.081 24-6.642 1.925-.561 10.25-2.864 18.5-5.118 8.25-2.253 23.55-6.576 34-9.604 10.45-3.029 22.546-5.9 26.879-6.381 17.677-1.96 26.621-5.334 26.621-10.041v-3.088l-4.513.677c-9.613 1.441-10.997-.725-8.993-14.08 1.732-11.538 1.639-11.696-5.494-9.285-3.025 1.022-6.426 1.871-7.559 1.887-4.378.06-5.283 1.997-6.336 13.566-1.165 12.794-1.648 14.462-4.189 14.462-6.675 0-7.385-20.073-.943-26.661 2.638-2.699 14.248-7.339 18.362-7.339.93 0 2.474-.417 3.429-.927.955-.51 2.524-1.171 3.486-1.469 1.742-.539 2.696-7.71 1-7.52-.413.046-5.7 1.443-11.75 3.103m-171.493 18.406c-10.838 4.7-10.728 12.43.177 12.392 10.957-.038 20.676-7.168 16.325-11.975-2.256-2.493-11.194-2.719-16.502-.417m-89.656 5.806c-3.9 1.869-10.637 5.753-14.971 8.631s-9.509 6.267-11.5 7.532l-3.62 2.299-3.466-2.355c-25.466-17.304-57.695 9.013-47.26 38.591l1.279 3.624-10.955 10.889c-27.168 27.005-21.097 31.977 12.142 9.944 12.157-8.058 11.969-7.998 18.387-5.9 19.865 6.494 39.832-8.573 40.239-30.365l.173-9.211 11.593-11.144c15.635-15.031 21.865-23.854 17.916-25.369-2.218-.851-2.338-.817-9.957 2.834m3.899.092c-3.85 1.673-4.294 2.809-.75 1.92 2.744-.689 3.474 1.215 1.3 3.389-.836.836-.861 1.2-.082 1.2 1.033 0 5.282-5.928 5.282-7.368 0-1.003-2.233-.67-5.75.859m-19.571 11.253c-6.424 4.259-11.679 8.101-11.679 8.537 0 .437 2.588-.939 5.75-3.057 3.162-2.117 7.55-4.683 9.75-5.701 3.641-1.685 10.299-7.523 8.58-7.523-.398 0-5.978 3.485-12.401 7.744m11.21-3.053c-.061.445-.034 1.782.06 2.971.118 1.493-2.861 5.36-9.632 12.5-5.392 5.686-8.906 9.631-7.81 8.767 7.055-5.558 16.273-14.187 20.698-19.374 2.841-3.33 3.732-4.733 1.98-3.118-2.995 2.762-3.185 2.811-3.185.809 0-2.011-1.875-4.281-2.111-2.555m-6.02 4.204c-10.362 5.181-15.875 9.228-14.883 10.926 3.67 6.287 3.585 6.3 11.127-1.702 10.053-10.667 10.926-12.809 3.756-9.224m-47.875 2.039c-2.839.864-8.994 3.93-8.994 4.48 0 .485 10.87-3.951 11.69-4.77.74-.741.667-.733-2.696.29m5.256-.245c.963.252 2.537.252 3.5 0 .963-.251.175-.457-1.75-.457s-2.713.206-1.75.457M207 315c.825.533 1.95.969 2.5.969s.325-.436-.5-.969c-.825-.533-1.95-.969-2.5-.969s-.325.436.5.969m-7.667 3.065c3.158 4.508-1.693 9.019-5.551 5.162-1.604-1.605-1.773-2.376-.883-4.039 2.548-4.761-7.678-.389-13.083 5.594-9.844 10.896-8.696 29.306 2.339 37.496l2.656 1.971 11.844-9.065c10.642-8.145 14.678-11.455 24.768-20.317l2.998-2.632-2.671-4.037c-4.704-7.108-13.071-12.055-20.557-12.154-3.144-.042-3.235.058-1.86 2.021M212 317c.825.533 1.95.969 2.5.969s.325-.436-.5-.969c-.825-.533-1.95-.969-2.5-.969s-.325.436.5.969m7 4.378c0 .207.787.995 1.75 1.75 1.586 1.243 1.621 1.208.378-.378-1.307-1.666-2.128-2.195-2.128-1.372m-42.128 2.372c-1.243 1.586-1.208 1.621.378.378 1.666-1.307 2.195-2.128 1.372-2.128-.207 0-.995.788-1.75 1.75m29.822.889c-.799.799.104 2.361 1.365 2.361.518 0 .941-.675.941-1.5 0-1.546-1.18-1.987-2.306-.861M179.2 328.2c-2.798 2.798.695 7.19 4.55 5.721 3.706-1.411 2.312-6.921-1.75-6.921-.88 0-2.14.54-2.8 1.2m16.8 1.359c0 .857.45 1.281 1 .941.55-.34 1-1.041 1-1.559s-.45-.941-1-.941-1 .702-1 1.559m7.938 2.558c-.896 1.672-.814 2.435.387 3.636 2.863 2.864 7.251-1.149 4.664-4.266-1.738-2.095-3.726-1.847-5.051.63M215 331.5c0 .917.484 1.505 1.075 1.308.591-.197 1.075-.786 1.075-1.308s-.484-1.111-1.075-1.308c-.591-.197-1.075.391-1.075 1.308m4.741 7.25c-2.904 2.613-6.866 6.1-8.805 7.75-6.123 5.21-.772 1.324 7.314-5.313 4.262-3.498 7.75-6.546 7.75-6.773 0-1.02-1.328-.1-6.259 4.336M184 337.583c0 1.766 2.153 1.459 2.771-.395.218-.654-.317-1.188-1.188-1.188-.87 0-1.583.712-1.583 1.583m5.099 2.667c-.46 1.238-.636 2.778-.39 3.423 1.204 3.166 7.291 1.907 7.291-1.508 0-4.199-5.486-5.722-6.901-1.915m32.958.355c-1.703 1.433-2.975 3.346-2.827 4.25.18 1.094-.376 1.588-1.661 1.476-2.866-.251-13.633 8.339-12.887 10.282.434 1.133.07 1.471-1.331 1.233-1.517-.257-7.068 3.033-13.322 7.896-.961.748 2.566 2.228 5.343 2.243 2.323.012 2.655-.248 1.733-1.358-2.373-2.86 1.719-6.848 4.586-4.468.902.748 1.212 2.092.832 3.605-.571 2.277-.42 2.373 2.686 1.704 6.108-1.316 9.249-3.413 7.274-4.857-2.301-1.682-1.509-5.033 1.283-5.431 1.58-.226 2.491.34 3.07 1.906 1.866 5.043 9.496-10.089 8.976-17.801-.264-3.934.045-3.877-3.755-.68m-20.418-.911c-1.126 1.126-.685 2.306.861 2.306.825 0 1.5-.423 1.5-.941 0-1.261-1.562-2.164-2.361-1.365m-25.889 1.386c-2.482 1.446-2.193 4.817.5 5.834 4.319 1.631 7.678-2.586 4.55-5.714-1.445-1.445-2.722-1.476-5.05-.12m-5.592 2.92c0 1.375.227 1.938.504 1.25.278-.687.278-1.812 0-2.5-.277-.687-.504-.125-.504 1.25m364.863 1.116c-9.167 3.657-7.303 10.739 2.534 9.631 7.485-.844 12.632-6.16 9.245-9.547-1.428-1.428-8.288-1.477-11.779-.084m-46.521.891c-17.669 4.728-16.496 4.068-16.515 9.302-.009 2.305-.411 4.815-.893 5.577-.734 1.158-20.01 7.129-52.092 16.136-3.575 1.003-10.887 3.209-16.25 4.901a6631.485 6631.485 0 0 1-19.5 6.114c-9.873 3.076-43.212 14.41-57.595 19.58-13.672 4.914-6.591 3.715 18.019-3.052 13.104-3.603 27.426-7.503 31.826-8.665 4.4-1.163 10.7-2.915 14-3.894 3.3-.978 11.4-3.228 18-4.999 13.182-3.537 24.096-6.51 29.5-8.037 23.066-6.517 31.975-8.97 32.577-8.97.396 0 .389 3.712-.014 8.25-.404 4.538-1.258 15.188-1.899 23.668-.64 8.479-1.614 15.519-2.164 15.643-3.152.712-18.921 4.959-24.252 6.531-10.085 2.975-10.828 1.916-9.752-13.879.789-11.569 2.935-15.718 7.775-15.03 3.923.558 1.982 13.967-2.214 15.299-2.787.885-3.091 7.953-.307 7.145.962-.279 3.775-1.026 6.25-1.659 7.415-1.896 14.137-6.052 15.652-9.678 2.206-5.278 1.79-18.848-.652-21.29-4.652-4.652-23.888-.383-37.047 8.222-7.511 4.912-8.732 8.233-9.565 26.028l-.691 14.75h-2.694c-5.424 0-6.341-2.576-5.594-15.723 1.224-21.556-1.134-22.909-28.239-16.208l-17.858 4.415-1.118 7.008c-.615 3.854-1.666 12.757-2.334 19.783-1.322 13.888-1.879 15.039-7.045 14.543-4.62-.443-5.517-4.461-3.53-15.818.818-4.675 1.201-8.788.851-9.14-.35-.352-4.772.525-9.827 1.948-10.517 2.961-9.966 2.158-10.856 15.799-.822 12.596-1.056 13.393-3.937 13.393-3.585 0-4.808-3.255-4.765-12.679.061-13.353 3.145-16.897 18.199-20.913 12.374-3.302 13.05-3.717 13.05-8.011 0-2.901-.313-3.436-1.75-2.997-.962.294-4.225 1.194-7.25 1.999-32.571 8.673-34.678 9.569-39.616 16.85-2.751 4.055-2.879 4.736-2.767 14.751.064 5.775.604 12.525 1.2 15 1.268 5.271.978 5.708-4.317 6.484-7.714 1.13-9.084-2.959-6.389-19.069 4.887-29.205 5.116-26.676-2.034-22.46-7.068 4.167-7.315 3.821-.855-1.205 25.109-19.535 25.197-31.823.278-38.842-9.479-2.67-47.856-1.814-66.973 1.494-17.963 3.108-37.679 7.94-50.905 12.475-10.223 3.506-12.039 4.701-5.622 3.698 72.608-11.355 101.58-4.592 89.641 20.925-2.853 6.097-8.452 11.756-16.605 16.785l-6.137 3.785.697-12.535c.793-14.276.787-14.285-6.256-8.692-7.595 6.031-12.819 12.279-16.212 19.389-4.871 10.206-4.544 12.634 4.602 34.142 9.827 23.111 9.351 22.786 11.198 7.626 1.505-12.349 3.088-23.908 3.671-26.797.34-1.689 2.239-3.11 7.182-5.374 15.358-7.035 25.094-11.807 30.049-14.729 6.091-3.591 6.623-3.717 5.707-1.35-.373.962-1.312 7.375-2.088 14.25-3.28 29.074-2.249 30.165 22.131 23.431 7.106-1.962 17.061-4.631 22.122-5.93 5.061-1.299 10.866-3.151 12.9-4.117 2.283-1.083 6.419-1.819 10.799-1.923 6.462-.153 11.328-1.272 36.736-8.447 4.201-1.186 4.106-.822 5.897-22.427 1.193-14.387 1.743-16.063 5.584-17.027 4.415-1.108 4.75.216 3.481 13.718-1.911 20.324.333 22.084 20.901 16.393 3.025-.836 8.988-2.455 13.25-3.596l15.5-4.15c4.262-1.141 10-2.7 12.75-3.463 2.75-.764 14.9-4.089 27-7.389 39.218-10.697 38.038-10.289 37.728-13.039-.38-3.375-.381-3.375-6.946-1.533-3.243.91-7.446 1.507-9.339 1.327-4.211-.401-4.908-3.48-3.814-16.828.383-4.675 1.027-13.113 1.431-18.752l.735-10.251 6.602-1.946a652.376 652.376 0 0 1 13.906-3.885c8.275-2.196 8.106-2.096 8.699-5.174.736-3.825-.117-3.89-11.248-.855-5.915 1.613-12.277 3.21-14.138 3.55l-3.385.618.707-5.652c.767-6.138.738-6.164-4.938-4.646M191 350c0 .55.675 1 1.5 1s1.5-.45 1.5-1-.675-1-1.5-1-1.5.45-1.5 1m12.999 1.502c-.708.852-4.147 3.65-7.643 6.217-3.496 2.567-6.356 5.034-6.356 5.482 0 .448 3.488-1.973 7.75-5.381 4.262-3.408 7.938-6.337 8.167-6.508.229-.172.18-.548-.108-.836-.288-.288-1.103.173-1.81 1.026M213 351.5c0 .917.484 1.505 1.075 1.308.591-.197 1.075-.786 1.075-1.308s-.484-1.111-1.075-1.308c-.591-.197-1.075.391-1.075 1.308m-33.515 2.548c-.69 2.172.964 4.952 2.946 4.952 2.587 0 4.825-2.619 4.124-4.826-.943-2.972-6.138-3.064-7.07-.126M222 359c-.589 1.1-.845 2-.57 2s.981-.9 1.57-2c.589-1.1.845-2 .57-2s-.981.9-1.57 2m-59.073 9.25c-8.653 8.327-13.604 13.936-9.49 10.75 1.763-1.365 1.878-1.341 1.278.259-.434 1.158-.003 2.169 1.262 2.959 1.532.956 1.68 1.49.731 2.634-1.431 1.725 4.96-1.54 10.899-5.567a1560.13 1560.13 0 0 1 8.25-5.548c6.948-4.633 4.63-3.913-4.272 1.326-18.096 10.651-19.867 6.51-4.194-9.813 7.597-7.912 5.207-6.305-4.464 3m3.2 1.253c-11.983 12.615-8.56 12.791 9.968.513l3.594-2.382-2.51-2.817c-3.316-3.723-2.895-3.901-11.052 4.686M214 366.089c-2.154 1.762-2.196 1.897-.306.973 1.207-.59 2.471-1.52 2.809-2.067.903-1.461.297-1.196-2.503 1.094m-31.139 1.97-2.361 2.06 2.75-1.675c1.512-.921 2.75-1.847 2.75-2.059 0-.781-.835-.335-3.139 1.674m23.952 1.624c.721.289 1.584.253 1.916-.079.332-.332-.258-.568-1.312-.525-1.165.048-1.402.285-.604.604m-10.549 1.035c1.52.229 3.77.223 5-.014 1.23-.237-.014-.425-2.764-.418-2.75.008-3.756.202-2.236.432M145 389.505c0 .762.942 1.038 2.515.737 3.584-.685 3.801-1.723.387-1.848-1.672-.062-2.902.409-2.902 1.111M273 428c-.901.582-1.025.975-.309.985.655.008 1.469-.435 1.809-.985.767-1.242.421-1.242-1.5 0m-4 2c-.901.582-1.025.975-.309.985.655.008 1.469-.435 1.809-.985.767-1.242.421-1.242-1.5 0" fill-rule="evenodd"/>
<path fill="#cb838a" stroke="#cb838a" d="M429.682 130.354C392.758 140.442 374 168.897 374 214.818v6.896l-25.25.57c-66.084 1.492-118.351 16.689-167.902 48.818C119.81 310.681 66.328 377.671 63.48 418.115c-1.983 28.145 5.994 45.586 29.242 63.94 10.165 8.025 13.188 9.729 29.278 16.5 60.863 25.615 108.25 35.457 164.349 34.135 56.247-1.325 103.908-15.196 154.651-45.007 4.675-2.746 9.313-5.691 10.306-6.544 1.675-1.438 2.104-1.191 5.928 3.406 7.271 8.738 31.04 31.869 38.191 37.165 36.111 26.743 66.38 27.189 99.333 1.462 91.093-71.119 124.782-122.998 98.707-152-10.85-12.067-49.615-18.468-81.865-13.517-3.732.573-3.871.497-3.226-1.778 7.832-27.652 2.729-52.16-16.384-78.691-3.295-4.573-5.982-8.623-5.973-9 .009-.377 3.272-2.435 7.25-4.573 38.72-20.811 55.542-43.027 46.942-61.996-6.101-13.456-38.467-35.154-73.35-49.174-47.606-19.132-110.772-29.304-137.177-22.089M320.517 235.153c-72.25 6.359-136.181 37.524-189.327 92.294C94.058 365.714 75 398.515 75 424.158c0 33.061 15.781 49.648 66.5 69.892 77.545 30.953 155.853 35.929 225 14.299 33.315-10.421 84.542-36.68 90.27-46.272 1.456-2.437 6.84-7.164 15-13.169 15.624-11.496 83.694-62.044 109.765-81.509 3.87-2.889 8.225-5.552 9.678-5.916 6.918-1.737 11.217-28.55 7.265-45.315-2.606-11.051-11.335-27.291-20.661-38.437-7.756-9.27-80.32-32.569-122.317-39.274-26.641-4.253-102.965-6.121-134.983-3.304M308.5 269.608c-27.303 2.837-47.736 6.889-68 13.486-11.463 3.732-18.322 6.771-12.5 5.538 26.28-5.563 69.576-7.114 80.085-2.868 12.485 5.044 15.051 16.518 6.412 28.669-4.925 6.928-16.082 15.567-20.103 15.567-.378 0-.371-5.67.014-12.601l.7-12.601-4.584 3.292c-7.091 5.093-15.314 14.26-18.037 20.109-4.203 9.029-3.233 14.421 6.912 38.429 7.259 17.178 6.754 17.473 9.958-5.817 3.108-22.587 2.655-21.601 11.635-25.338 24.515-10.203 47.834-24.078 58.664-34.905 14.703-14.699 11.049-24.449-10.93-29.161-6.348-1.361-32.982-2.552-40.226-1.799m196.5 7.951c-24.005 6.624-26.92 8.22-30.452 16.673-1.791 4.286-2.068 18.801-.489 25.65.556 2.41.811 4.581.568 4.824-.64.64-29.067 9.122-29.441 8.784-.172-.157 5.55-10.546 12.717-23.087 7.167-12.542 12.91-22.923 12.763-23.07-.147-.147-7.669 1.766-16.716 4.252a5849.427 5849.427 0 0 1-23.95 6.531c-4.125 1.107-7.79 2.321-8.145 2.698-.723.77-2.209 7.186-1.664 7.186.192 0 3.66-.918 7.707-2.039s7.584-1.812 7.861-1.536c.276.277-4.167 8.802-9.875 18.946l-10.377 18.442-11.757 3.256c-6.467 1.791-11.953 3.061-12.193 2.822-.239-.24 5.607-10.744 12.991-23.343 7.384-12.599 13.249-23.084 13.032-23.301-.216-.216-7.748 1.696-16.737 4.25-8.988 2.554-19.697 5.543-23.797 6.641-9.227 2.471-9.046 2.353-9.046 5.921 0 3.418.428 3.486 8.212 1.302 3.213-.902 6.084-1.398 6.379-1.103.501.501-1.997 5.025-15.705 28.442-5.844 9.982-8.192 11.64-12.492 8.823-2.935-1.924-2.979-3.754-.561-23.273 1.176-9.486 1.415-14.246.716-14.238-2.76.032-18.927 5.925-19.543 7.124-.385.75-1.277 8.942-1.982 18.203-1.977 25.988-1.46 26.22 35.476 15.902 27.244-7.611 48.964-13.618 89.5-24.753 17.325-4.759 34.65-9.7 38.5-10.98 3.85-1.28 10.375-2.533 14.5-2.785 8.309-.506 22.992-4.415 23.014-6.127.007-.603.272-2.06.588-3.238.553-2.062.336-2.123-5.792-1.631-9.133.733-9.528.064-7.887-13.36.705-5.772 1.089-10.688.854-10.924-.763-.763-17.043 4.369-17.813 5.615-.41.664-1.056 5.535-1.434 10.825-.96 13.419-1.186 14.117-4.582 14.117-4.135 0-5.953-3.214-5.924-10.473.059-14.849 2.782-18.16 18.932-23.014 12.586-3.783 13.342-4.233 12.872-7.664l-.328-2.395-18.5 5.105m-163.5 15.043c-9.923 3.111-13.743 10.145-7.032 12.949 10.536 4.402 29.466-6.382 22.031-12.551-2.331-1.935-9.489-2.125-14.999-.398m-86.807 5.004c-4.28 1.494-17.967 9.543-27.524 16.186l-6.33 4.401-6.17-3.347c-16.706-9.062-38.156-1.425-44.699 15.915-2.526 6.694-2.407 18.667.235 23.679l1.55 2.941-11.707 11.559C144.98 383.818 140.007 392 146.035 392c2.88 0 18.191-8.309 28.636-15.542l9.243-6.399 4.293 1.579c20.85 7.672 42.147-7.621 42.254-30.341l.039-8.203 10.655-10.297c20.364-19.678 25.586-29.397 13.538-25.191m-5.517 3.848C236.635 308.212 222 318.271 222 320.132c0 .53 1.979-.397 4.398-2.062 11.104-7.64 19.602-10.978 19.602-7.701 0 9.95-82.565 75.466-88.113 69.918-1.609-1.609.424-4.75 8.438-13.036 11.061-11.436 6.964-9.645-5.305 2.32-9.9 9.653-17.02 18.272-17.02 20.6 0 5.987 39.083-19.258 72-46.507l10.5-8.692.299 6.654c.865 19.26-17.109 31.973-37.799 26.735-1.818-.46-2.218-.327-1.465.488 1.573 1.704 11.157 3.221 15.823 2.504 15.867-2.438 29.429-21.051 24.869-34.131-.982-2.817-.667-3.233 10.064-13.315 23.406-21.99 28.138-31.751 10.885-22.453m-.676 2.789c-2.915 1.569-3.525 2.255-2.25 2.529 1.659.355 2.225 1.524 1.794 3.7-.269 1.359 3.773-2.412 6.132-5.722 2.537-3.559.353-3.754-5.676-.507m-14.024 10.298c-11.144 6.346-11.245 6.479-8.421 11.047l2.319 3.753 8.313-8.715c11.641-12.204 11.108-13.669-2.211-6.085m-48.276 1.517c-17.896 8.943-21.83 32.147-7.917 46.692 4.946 5.17 5.364 3.763.492-1.655-10.044-11.172-10.162-25.887-.295-36.862 13.171-14.649 33.96-12.477 45.718 4.776.933 1.37 1.721 1.996 1.75 1.391.086-1.822-5.571-9.011-9.378-11.914-8.44-6.438-20.427-7.396-30.37-2.428m1.3 2.456c-15.192 8.105-19.603 24.789-10.228 38.685 6.18 9.162 5.999 9.208 25.728-6.502 23.045-18.35 23.391-18.92 16.04-26.419-8.238-8.404-21.909-10.902-31.54-5.764m6.7-.314c-2.986 2.986.326 7.659 4.024 5.68 2.948-1.578 1.619-6.88-1.724-6.88-.605 0-1.64.54-2.3 1.2M207 325c0 .55.477 1 1.059 1s.781-.45.441-1-.816-1-1.059-1-.441.45-.441 1m-26.418 3.316c-2.348 1.717-1.665 5.098 1.111 5.495 3.047.436 4.886-3.089 2.734-5.242-1.888-1.887-1.632-1.87-3.845-.253M196 329c0 .55.45 1 1 1s1-.45 1-1-.45-1-1-1-1 .45-1 1m8.667 2.667c-1.702 1.701-.588 4.333 1.833 4.333 2 0 2.5-.5 2.5-2.5 0-2.421-2.632-3.535-4.333-1.833M215.5 332c.34.55.816 1 1.059 1s.441-.45.441-1-.477-1-1.059-1-.781.45-.441 1m-30.957 4.931c-.317.512-.118 1.213.441 1.559.559.345 1.016-.074 1.016-.931 0-1.757-.6-2.015-1.457-.628M222 340.135c-1.925 1.615-3.561 3.482-3.635 4.15a137.66 137.66 0 0 1-.265 2.215c-.072.55-.523.381-1.002-.376-1.313-2.073-13.133 7.66-12.417 10.225.408 1.461.111 1.72-1.416 1.235-1.357-.431-3.765.791-8.1 4.111-7.213 5.524-6.67 6.625 3.318 6.727 15.561.159 28.479-12.63 27.343-27.072l-.326-4.15-3.5 2.935m-32.638.365c-.876 2.281.349 4.5 2.484 4.5 2.48 0 4.358-2.305 3.564-4.373-.784-2.044-5.277-2.138-6.048-.127M202 341c0 .55.45 1 1 1s1-.45 1-1-.45-1-1-1-1 .45-1 1m-26.638 1.5c-.876 2.281.349 4.5 2.484 4.5 2.48 0 4.358-2.305 3.564-4.373-.784-2.044-5.277-2.138-6.048-.127m360.016 2.937c-4.582 1.994-6.848 5.521-4.838 7.531 3.462 3.461 15.583.369 17.084-4.358 1.308-4.122-5.822-5.969-12.246-3.173m-53.547 2.939c-9.236 2.558-8.878 2.235-9.682 8.727-.75 6.048 1.419 4.948-23.388 11.859-17.481 4.871-41.169 11.944-63.261 18.891-31.649 9.952-68.12 22.839-59 20.848 2.072-.453 99.996-27.314 127.771-35.049 8.674-2.416 15.953-4.098 16.175-3.739.222.359-.414 10.088-1.414 21.62-1 11.532-1.754 22.064-1.675 23.405.136 2.316-.633 2.653-15.357 6.728-22.846 6.322-22.619 6.442-21.096-11.1 1.032-11.887 1.858-13.939 6.224-15.461 5.064-1.765 5.187-1.615 4.605 5.633-.481 5.993-.883 7.024-3.637 9.323-3.081 2.572-4.246 6.946-1.846 6.931 1.689-.01 12.608-3.427 15.895-4.973 6.73-3.166 10.753-18.947 6.49-25.453-3.228-4.928-16.436-3.517-31.135 3.324-12.806 5.961-15.276 10.812-15.712 30.857-.237 10.917-.552 13.269-1.788 13.366-7.964.625-8.97-1.421-8.305-16.883.938-21.832-.475-22.211-41.757-11.204l-3.562.95-1.739 15.762c-3.046 27.602-2.427 25-6.12 25.693-7.537 1.414-9.134-2.062-6.919-15.058.89-5.22 1.386-9.722 1.102-10.006-.551-.551-15.469 3.253-17.368 4.429-.625.387-1.691 6.104-2.368 12.704-1.287 12.534-2.358 15.145-5.769 14.062-6.18-1.961-5.541-22.307.916-29.18 1.302-1.386 6.209-3.318 13.866-5.458 11.343-3.171 11.876-3.44 12.444-6.278.85-4.25.969-4.248-13.765-.279-30.77 8.289-33.747 10.155-36.613 22.94-.954 4.256-.71 7.947 1.502 22.792l.685 4.599-4.243 1.077c-10.333 2.623-11.242-.473-7.355-25.05 2.542-16.078 2.747-18.701 1.419-18.194C281.19 423.388 265 434.7 265 436.239c0 .959-.695 8.414-1.545 16.569-2.189 21.005-.655 23.686 11.871 20.756 14.04-3.284 45.924-12.527 47.38-13.735 1.022-.848 3.72-1.191 7.748-.984 4.973.256 33.619-6.199 41.197-9.284.083-.033.645-5.911 1.25-13.061 2.198-26.016 1.81-24.326 5.851-25.442 5.462-1.508 5.572-1.174 4.796 14.5-.675 13.627-.612 14.378 1.372 16.362 3.657 3.657 2.453 3.909 71.08-14.856 16.225-4.436 33.775-9.226 39-10.644 14.626-3.969 14.475-3.905 14.82-6.248.391-2.658-.833-2.733-8.73-.537-7.195 2-10.818 1.298-11.714-2.272-.574-2.287 2.061-43.17 2.828-43.878.163-.15 6.596-2.012 14.296-4.137 13.412-3.702 14.013-3.98 14.316-6.606.39-3.372 1.32-3.422-14.316.767-7.15 1.916-13.262 3.485-13.582 3.487-.321.002-.377-2.471-.126-5.496.535-6.463.809-6.385-10.961-3.124M191 350c0 .55.45 1 1 1s1-.45 1-1-.45-1-1-1-1 .45-1 1m22 2c0 .55.45 1 1 1s1-.45 1-1-.45-1-1-1-1 .45-1 1m-32.863 1.743c-1.356 2.534.076 4.504 2.976 4.094 1.789-.253 2.387-.963 2.387-2.837 0-3.164-3.858-4.069-5.363-1.257m31.357 4.266c-1.039 1.681.565 5.127 2.234 4.798 2.559-.504 4.057-3.683 2.272-4.82-1.956-1.247-3.727-1.238-4.506.022m-44.787 10.241c-12.931 13.705-10.796 15.207 6.163 4.334l7.37-4.724-2.807-2.93c-3.758-3.923-3.948-3.864-10.726 3.32m30.673-4.798c-.769 2.003.372 3.548 2.62 3.548 2.301 0 3.209-1.292 2.396-3.41-.763-1.99-4.268-2.086-5.016-.138m-47.296 19.442c-4.671 5.897-3.457 6.806 3.868 2.895 3.809-2.033 3.969-2.274 1.99-3.006-1.356-.502-1.939-1.348-1.578-2.289 1.065-2.775-1.177-1.518-4.28 2.4m92.416-1.246c-29.555 2.306-77.432 12.643-85.5 18.459-1.258.907-1.212.989.287.505 4.289-1.385 30.398-4.637 43.273-5.389 34.554-2.019 50.139 3.176 49.794 16.597-.258 10.038-5.976 18.509-17.633 26.126-8.54 5.58-8.266 5.878-7.912-8.557l.309-12.614-6.039 4.744c-11.423 8.975-18.019 19.849-18.057 29.768-.019 4.993 1.023 8.258 7.596 23.798 4.19 9.907 7.77 17.861 7.955 17.676.185-.185 1.549-9.191 3.032-20.013l2.696-19.676 22.099-10.923c38.892-19.224 54.6-32.162 54.6-44.972 0-11.496-23.921-18.071-56.5-15.529" fill-rule="evenodd"/>
<path fill="#da081e" stroke="#da081e" d="M435 129.563c-39.167 8.803-57.96 33.243-59.684 77.615l-.61 15.679-21.603.009c-25.635.012-42.672 1.482-65.603 5.663-36.617 6.676-87.673 28.046-113.134 47.353a116.12 116.12 0 0 1-4.362 3.118c-8.123 5.47-18.861 14.423-18.33 15.282.365.59.145.724-.518.314-1.876-1.159-31.702 27.588-43.994 42.404-3.423 4.125-7.164 8.467-8.314 9.649-1.15 1.182-1.778 2.656-1.395 3.275.39.63.153 1.005-.537.851-3.725-.83-24.599 35.213-30.348 52.401-5.068 15.149-3.144 40.227 4.15 54.107 6.359 12.101 27.259 30.667 40.868 36.303 2.153.892 5.917 2.527 8.366 3.635 88.497 40.023 184.156 46.365 263.048 17.44 17.837-6.539 36.284-15.009 35.23-16.175-.401-.443-.222-.516.4-.162 1.196.684 17.046-7.573 27.465-14.307 3.418-2.209 6.528-4.017 6.911-4.017.382 0 4.441 4.163 9.019 9.25 10.275 11.419 22.694 23.447 29.975 29.031 3.025 2.321 6.099 4.786 6.831 5.478.731.693 1.856.958 2.5.59.643-.368.815-.281.383.194-1.882 2.065 19.138 12.289 31.786 15.46 19.392 4.862 37.236.532 56.056-13.601 34.752-26.097 86.193-73.762 83.795-77.643-.371-.6-.192-.779.409-.408 1.347.833 11.476-12.36 17.657-22.999 17.802-30.638 12.237-54.769-14.58-63.222-16.24-5.119-44.253-7.08-62.586-4.381-7.532 1.109-7.355 1.247-5.651-4.413 5.636-18.73 2.889-41.364-7.308-60.209-3.889-7.187-6.512-11.204-15.182-23.25-.764-1.062-1.214-2.06-1-2.217.215-.158 4.665-2.677 9.89-5.598 31.095-17.384 46.956-34.125 46.956-49.562 0-6.359-3.091-15.153-4.927-14.018-.563.348-.769.005-.469-.779.598-1.557-11.171-13.703-13.278-13.703-.705 0-1.282-.353-1.282-.784 0-.432-1.462-1.632-3.25-2.668-1.788-1.035-6.85-4.195-11.25-7.021-26.044-16.726-57.996-28.967-101.5-38.885-23.422-5.34-58.634-7.859-71-5.079m-99.5 104.121c-61.536 2.339-119.634 23.437-169.139 61.424-5.577 4.279-10.487 7.468-10.911 7.086-.424-.382-.464-.159-.089.495.374.653.051 1.553-.719 2-6.205 3.597-33.828 32.025-46.969 48.336-24.85 30.846-35.682 57.346-32.76 80.138 4.079 31.802 26.056 48.513 93.208 70.871 70.265 23.395 147.559 23.902 208.409 1.366 3.834-1.42 8.095-2.942 9.47-3.384 18.732-6.013 68.187-33.345 70.965-39.221.875-1.85 4.759-5.674 9.035-8.897 38.746-29.197 64.346-47.802 65.118-47.325.512.317.808.147.657-.377-.251-.869 5.694-5.442 44.491-34.225 7.022-5.209 14.027-9.8 15.567-10.202 7.17-1.872 11.46-31.75 6.787-47.269-3.576-11.875-12.34-27.781-20.581-37.352-2.746-3.19-27.657-13.651-51.539-21.643-29.527-9.882-64.339-17.479-94-20.515-9.249-.947-81.023-1.913-97-1.306m-45 38.337c-18.6 2.589-62.944 13.868-61.236 15.576.184.184 5.938-.542 12.785-1.614 28.482-4.457 51.575-4.812 64.951-.998 16.097 4.59 17.456 20.58 2.988 35.149-4.715 4.747-15.503 11.741-16.48 10.683-.161-.174-.003-5.642.35-12.15.353-6.509.472-12.003.265-12.211-.747-.747-12.095 8.675-15.432 12.813-11.229 13.925-10.996 19.175 2.201 49.701 5.737 13.27 4.963 14.299 8.599-11.435 1.397-9.881 2.87-18.29 3.274-18.688.404-.398 4.456-2.312 9.003-4.255 56.448-24.112 80.732-49.387 57.183-59.518-12.56-5.403-42.099-6.721-68.451-3.053m213.905 5.969c-21.174 5.959-24.478 7.576-28.112 13.758-3.043 5.177-3.798 15.966-1.978 28.252l.815 5.5-14.699 4.283c-8.085 2.355-14.894 4.087-15.132 3.849-.618-.618 3.078-7.641 14.536-27.617 5.516-9.616 9.891-17.622 9.723-17.79-.329-.329-25.814 6.415-39.296 10.398-7.032 2.078-8.331 2.803-8.87 4.952-.922 3.672-.308 3.797 7.766 1.583 4.029-1.105 7.494-1.839 7.702-1.632.207.208-2.228 5.012-5.411 10.676a3263.235 3263.235 0 0 0-10.203 18.298c-2.428 4.4-5.039 8.491-5.804 9.091-1.692 1.328-24.344 7.84-24.998 7.187-.256-.257 2.834-6.049 6.866-12.872 17.057-28.862 19.599-33.421 18.789-33.698-.469-.161-9.121 2.032-19.226 4.872-10.105 2.841-20.397 5.702-22.872 6.358-3.435.91-4.72 1.822-5.436 3.858-1.316 3.741-.916 3.83 7.382 1.651 4.066-1.067 7.592-1.741 7.836-1.497.463.463-9.532 18.009-19.558 34.334-3.108 5.061-3.466 5.318-6.993 5.025-5.815-.483-6.582-3.107-4.812-16.463.791-5.965 1.724-13.408 2.073-16.539l.637-5.692-7.815 2.449c-4.298 1.347-8.827 2.72-10.065 3.051-1.238.331-2.252 1.341-2.254 2.243-.002.903-.672 8.842-1.489 17.642-2.458 26.487-2.197 26.529 56.993 8.993 2.75-.815 6.462-1.765 8.25-2.112 1.788-.347 3.25-1.051 3.25-1.565s.418-.676.928-.361c.51.316 17.273-3.977 37.25-9.539 19.977-5.562 39.472-10.926 43.322-11.922 3.85-.995 9.638-2.802 12.862-4.015 3.456-1.301 8.793-2.335 13-2.52 6.077-.268 21.301-3.514 23.842-5.085.438-.271.796-1.768.796-3.327 0-2.806-.039-2.824-3.974-1.826-8.542 2.169-11.294-.787-9.982-10.721 1.982-15.009 2.069-13.738-.893-13.064-1.458.332-5.413 1.322-8.788 2.201l-6.137 1.599-.568 4.632c-.313 2.547-.871 8.332-1.24 12.855-.715 8.749-1.806 10.241-6.419 8.777-3.263-1.036-4.412-4.468-4.28-12.786.22-13.909 3.547-17.496 20.486-22.09 10.087-2.736 10.626-3.017 11.027-5.75.52-3.543 1.787-3.685-18.827 2.116M339.5 292.967c-13.352 6.42-11.375 15.229 3.083 13.737 12.011-1.24 20.694-10.81 13.365-14.732-3.049-1.631-12.127-1.082-16.448.995m-89.734 11.093c-3.552 1.875-3.65 2.058-2 3.734 1.271 1.293 1.821 1.419 2.06.472.179-.71.659-1.084 1.066-.833.408.252 1.524-.867 2.481-2.487 2.028-3.433 1.474-3.569-3.607-.886m1.158 7.69-2.424 2.75 2.75-2.424c2.57-2.266 3.209-3.076 2.424-3.076-.179 0-1.416 1.238-2.75 2.75m-60.424.577c-22.535 7.448-29.652 34.677-13.457 51.489 2.287 2.374 4.375 4.099 4.641 3.833.265-.265-1.277-2.242-3.428-4.393-18.87-18.87-5.489-50.78 21.244-50.661 10.96.049 21.096 5.772 25.496 14.396l1.877 3.681-2.686 2.898c-1.858 2.003-1.531 1.84 1.06-.529 2.06-1.885 3.41-3.678 3-3.984-2.03-1.514-5.254-7.237-4.638-8.233.385-.623.267-.865-.263-.538-.529.327-2.286-.502-3.904-1.842-7.384-6.118-20.531-8.896-28.942-6.117m3.5 7.173c-.993 1.197-.993 1.803 0 3 2.62 3.157 6.822.806 5.362-3-.317-.825-1.373-1.5-2.347-1.5-.973 0-2.33.675-3.015 1.5m40.437 8.75-2.937 3.25 3.25-2.937c3.029-2.738 3.71-3.563 2.937-3.563-.172 0-1.635 1.462-3.25 3.25m-55.105 1.328c-.333.867.039 2.222.827 3.009 1.901 1.901 5.498-.433 4.535-2.942-.805-2.097-4.565-2.144-5.362-.067m25.032 2.915c-.346.903-.15 2.121.436 2.707 1.524 1.524 4.41.131 4.012-1.935-.443-2.302-3.647-2.858-4.448-.772m22.02 2.763c-1.188 1.394-1.296 1.757-.292.985 2.307-1.773 2.907-.604 2.913 5.676.014 15.931-12.032 28.753-28.005 29.808-6.891.456-14.719-1.548-14.24-3.645.15-.658-.801-.444-2.25.506-2.817 1.845-3.269 2.643-1.008 1.775.826-.317 3.31.147 5.52 1.031 19.191 7.679 41.393-8.434 40.882-29.67-.208-8.659-.77-9.691-3.52-6.466m-8.979 3.994-1.905 2.25 2.25-1.905c1.238-1.048 2.25-2.06 2.25-2.25 0-.8-.805-.209-2.595 1.905m-27.411 1.257c-1.103 1.329-1.076 1.84.164 3.08 2.021 2.021 5.033.754 4.645-1.954-.377-2.626-3.045-3.251-4.809-1.126m29.411.743-1.905 2.25 2.25-1.905c1.238-1.048 2.25-2.06 2.25-2.25 0-.8-.805-.209-2.595 1.905m-43.835 1.428c-1.072 2.793 2.02 5.16 4.067 3.114.9-.9 1.364-2.347 1.031-3.214-.802-2.09-4.284-2.022-5.098.1m34.835 2.572-1.905 2.25 2.25-1.905c1.238-1.048 2.25-2.06 2.25-2.25 0-.8-.805-.209-2.595 1.905m2 2-1.905 2.25 2.25-1.905c1.238-1.048 2.25-2.06 2.25-2.25 0-.8-.805-.209-2.595 1.905m321.369-.506c-5.447 3.377-4.165 7.256 2.398 7.256 6.757 0 13.458-4.97 10.581-7.847-1.715-1.715-9.858-1.345-12.979.591m-51.91 2.006-8.637 2.525-.663 5.863c-.365 3.224-.901 5.862-1.192 5.862-.981 0-52.695 14.964-67.872 19.639-19.565 6.028-66.55 21.844-65.716 22.122.777.259 74.814-19.772 95.216-25.761 16.862-4.95 37.226-10.107 37.768-9.566.331.332-.162 9.257-1.096 19.834-.933 10.578-1.691 21.32-1.684 23.872l.012 4.641-8.25 2.166c-4.538 1.191-11.044 3.04-14.459 4.109-9.079 2.842-14.077 2.644-14.889-.591-1.267-5.048.635-23.243 2.705-25.875 2.076-2.639 7.518-4.365 9.021-2.862 1.929 1.929-.27 12.596-3.153 15.292-3.537 3.308-4.974 7.413-2.324 6.635 1.017-.298 4.549-1.301 7.849-2.228 11.609-3.262 14.5-7.095 14.5-19.222 0-11.658-3.042-13.281-17.936-9.57-23.23 5.788-28.179 11.704-28.743 34.365l-.361 14.5-3.423.307c-6.751.605-7.908-2.044-7.099-16.244.901-15.825-.824-19.563-9.03-19.563-2.346 0-34.483 7.742-35.228 8.486-.44.441-2.759 19.509-3.684 30.3-.798 9.309-1.973 11.214-6.912 11.214-5.104 0-6.982-2.786-6.216-9.222.345-2.903.912-7.828 1.261-10.944l.634-5.666-8.382 2.392c-4.609 1.315-8.665 2.402-9.012 2.416-.633.024-2.464 20.087-2.114 23.176.256 2.264-2.17 4.069-4.941 3.675-3.553-.506-5.32-5.186-5.219-13.827.147-12.551 3.684-17.374 15.017-20.479 18.198-4.985 16.683-4.26 16.213-7.766l-.325-2.428-17.5 4.789c-9.625 2.634-18.85 5.55-20.5 6.481-10.861 6.124-13.58 15.356-10.014 33.995.818 4.273 1.38 7.821 1.25 7.886-14.511 7.195-16.91 2.138-12.195-25.718 1.397-8.257 2.326-15.227 2.064-15.489-1.051-1.05-20.455 11.999-20.951 14.09-.279 1.177-1.068 8.963-1.752 17.303-1.453 17.7-.744 20.336 5.466 20.336 4.432 0 50.672-12.726 52.61-14.479 1.077-.974 3.143-1.223 7.061-.851 6.226.591 39.442-7.632 41.576-10.293.613-.765 1.7-9.266 2.414-18.893l1.3-17.502 3.76-1.127c7.521-2.253 7.869-.746 5.268 22.833-.511 4.635-.299 5.461 1.99 7.75 3.391 3.391 4.422 3.305 23.653-1.981a8716.189 8716.189 0 0 1 29-7.913c15.058-4.07 46.809-12.772 56.5-15.484 3.85-1.078 8.869-2.438 11.153-3.022 3.436-.88 4.064-1.406 3.633-3.05-.285-1.094-.579-1.98-.653-1.971-.073.01-3.283.835-7.133 1.835-7.854 2.039-11.94 1.398-12.832-2.014-1.014-3.876 2.459-43.248 3.919-44.424.741-.598 6.874-2.575 13.63-4.394 6.756-1.82 12.846-3.749 13.533-4.287 1.679-1.313 1.642-5.098-.042-4.451-.711.273-6.492 1.883-12.847 3.579-6.354 1.696-12.364 3.395-13.355 3.775-1.658.636-1.746.202-1.104-5.472.812-7.18 1.538-6.945-10.538-3.414m-276.992 1c-1.243 1.586-1.208 1.621.378.378 1.666-1.307 2.195-2.128 1.372-2.128-.207 0-.995.788-1.75 1.75m-23.861 3.737c-1.468 1.769-.656 4.513 1.335 4.513 2.465 0 4.095-2.764 2.654-4.5-1.565-1.886-2.433-1.889-3.989-.013m14.861 3.263c-1.243 1.586-1.208 1.621.378.378 1.666-1.307 2.195-2.128 1.372-2.128-.207 0-.995.788-1.75 1.75m6.692-.457c.376.986.935 1.541 1.243 1.233.308-.307.001-1.114-.683-1.793-.988-.98-1.102-.865-.56.56m8.909 2.751c-.918 1.485 1.398 3.943 3.1 3.29 2.192-.842 1.778-4.334-.514-4.334-1.068 0-2.231.47-2.586 1.044m-45.184 3.981c-2.316 2.186-3.87 3.975-3.453 3.975.417 0 2.516-1.8 4.664-4 5.025-5.146 4.251-5.13-1.211.025M178 360.378c0 .207.787.995 1.75 1.75 1.586 1.243 1.621 1.208.378-.378-1.307-1.666-2.128-2.195-2.128-1.372m39.405 1.872-1.905 2.25 2.25-1.905c1.238-1.048 2.25-2.06 2.25-2.25 0-.8-.805-.209-2.595 1.905m-47.968 2-2.937 3.25 3.25-2.937c3.029-2.738 3.71-3.563 2.937-3.563-.172 0-1.635 1.462-3.25 3.25m18.435-1.5c-1.243 1.586-1.208 1.621.378.378 1.666-1.307 2.195-2.128 1.372-2.128-.207 0-.995.788-1.75 1.75m9.684.16c-.956 1.546.564 4.09 2.444 4.09.982 0 2.024-.62 2.315-1.378.966-2.517-3.357-4.981-4.759-2.712m-48.684 17.84c-1.243 1.586-1.208 1.621.378.378 1.666-1.307 2.195-2.128 1.372-2.128-.207 0-.995.788-1.75 1.75m1.232 2.785c-4.007 4.563-3.947 4.682 1.366 2.713 4.032-1.495 4.326-1.816 2.998-3.284-.81-.894-1.171-1.927-.804-2.295.368-.368.416-.669.106-.669-.309 0-1.959 1.591-3.666 3.535m83.896-.853c-20.939 2.166-53.472 9.147-68.5 14.699-5.132 1.896-4.086 1.921 7.5.178 38.125-5.737 66.766-3.824 75.069 5.014 5.801 6.175 2.513 20.399-6.735 29.135-4.001 3.779-15.327 11.292-17.023 11.292-.32 0-.259-5.66.135-12.579.836-14.682 1.115-14.538-9.366-4.835-6.512 6.029-10.602 11.761-9.576 13.421.355.573.089.919-.591.768-1.933-.43-4.109 8.053-3.521 13.725.443 4.273 6.403 19.768 13.421 34.894l1.807 3.895 1.754-13.895c.964-7.642 2.216-16.594 2.781-19.894l1.027-6 24.159-12.045c14.702-7.33 24.051-12.545 23.884-13.324-.151-.704.169-1.006.711-.671 2.797 1.729 23.126-15.711 26.355-22.611 2.982-6.37.36-16.08-3.899-14.446-.753.289-1.261.003-1.13-.635.959-4.673-35.303-8.461-58.262-6.086m-88.128 2.068c-1.243 1.586-1.208 1.621.378.378.963-.755 1.75-1.543 1.75-1.75 0-.823-.821-.294-2.128 1.372M332.5 406c-1.319.567-1.489.878-.5.914.825.031 2.175-.381 3-.914 1.828-1.181.249-1.181-2.5 0" fill-rule="evenodd"/>
</svg>