<!DOCTYPE svg PUBLIC "-//W3C//DTD SVG 1.1//EN" "http://www.w3.org/Graphics/SVG/1.1/DTD/svg11.dtd">
<svg xmlns="http://www.w3.org/2000/svg" viewBox="0 0 735 484">
<path fill="#e1d71b" stroke="#e1d71b" d="M512 38.56c-27.035 7.014-52.86 29.526-72.779 63.44-8.705 14.82-10.012 28.923-3.597 38.808 1.333 2.053 1.327 3.138-.056 9.823-2.639 12.759 1.569 24.431 11.841 32.848 5.348 4.383 8.667 5.493 19.259 6.447 4.9.442 9.208 1.418 10.768 2.44l2.601 1.705-2.975 3.714c-2.985 3.726-5.353 9.334-11.59 27.446-4.592 13.333-4.842 13.705-6.501 9.699-8.132-19.632-33.316-36.93-53.768-36.93h-3.964l4.486-12.75c2.467-7.012 7.19-20.4 10.496-29.75 8.415-23.802 8.779-25.113 8.779-31.61 0-9.219-1.705-15.185-5.659-19.805-7.422-8.671-12.585-9.296-46.841-5.672-44.26 4.683-46.851 5.873-53.519 24.587-1.274 3.575-2.44 6.662-2.591 6.859-.151.198-1.645-.616-3.319-1.809-12.198-8.686-37.494-15.935-58.571-16.785-98.152-3.959-172.114 90.033-132.605 168.517 6.765 13.439 14.369 22.896 33.642 41.839 24.484 24.066 25.98 27.119 18.865 38.499-8.327 13.32-32.436 18.345-49.402 10.296-12.433-5.898-22.582-19.333-25.243-33.416-2.67-14.133-5.013-22.75-6.957-25.586-7.379-10.77-25.142-12.106-34.589-2.602-2.673 2.688-6.207 9.181-12.632 23.21-4.907 10.713-10.808 23.528-13.114 28.478-2.307 4.95-5.448 11.7-6.981 15a4479.48 4479.48 0 0 1-8.208 17.5C3.96 421.247 6.036 427.706 35 448.146c24.595 17.356 65.284 27.712 98.292 25.015 30.895-2.523 61.419-12.616 85.821-28.376 4.737-3.06 9.577-5.869 10.755-6.243 1.179-.374 3.378-1.708 4.887-2.965 2.317-1.929 4.381-2.393 13.245-2.974 14.8-.97 73.589-7.427 79-8.676 2.475-.571 5.52-1.704 6.767-2.517 1.859-1.212 3.028-1.271 6.5-.327 5.02 1.366 11.332.963 47.733-3.049 26.47-2.918 33.11-3.588 45.12-4.556 3.509-.282 18.53-1.833 33.38-3.445 14.85-1.613 30.375-3.223 34.5-3.579 9.377-.808 19.796-3.09 22.65-4.96 1.789-1.172 3.156-1.219 7.702-.266 5.044 1.058 25.928-.431 53.148-3.79 1.65-.204 5.475-.588 8.5-.854 15.629-1.373 20.076-1.913 26.393-3.206 8.533-1.746 13.325-4.411 16.745-9.31 4.792-6.867 4.917-18.761.268-25.611-3.15-4.642-3.15-11.215.001-22.457 2.198-7.839 4.242-13.716 13.916-40 1.923-5.225 7.297-20.07 11.943-32.988l8.445-23.489 10.105-2.615c41.625-10.774 61.368-60.51 27.186-68.485-3.267-.762-7.305-1.112-8.973-.779l-3.033.607 4.57-12.876c6.358-17.914 7.464-23.099 6.194-29.052-2.736-12.831-14.658-20.147-27.414-16.825-5.863 1.527-8.784 3.477-20.346 13.581-7.801 6.818-21.415 17.807-21.713 17.528-.117-.11.411-2.566 1.174-5.458.763-2.892 1.19-6.471.95-7.954-1.161-7.156-2.841-12.92-4.407-15.114-1.581-2.216-1.602-2.888-.256-8 .94-3.568 1.266-7.746.903-11.581-1.87-19.761-9.982-27.48-30.651-29.167-7.914-.646-11.291-1.9-17-6.312-22.402-17.317-52.362-24.594-76-18.461m1.942 23.727c-10.673 3.639-17.696 8.494-29.963 20.713-11.1 11.056-25.011 29.653-27.913 37.315-2.815 7.434.582 12.657 8.743 13.441 2.855.274 5.191.709 5.191.966 0 .258-2.476 4.513-5.502 9.457-3.026 4.943-5.775 10.075-6.108 11.405-1.742 6.938 3.44 11.406 13.234 11.412 8.317.005 12.913 1.835 23.966 9.541 18.51 12.905 30.315 16.914 47.834 16.244 16.984-.649 26.578-5.457 42.959-21.528 13.569-13.313 29.622-36.441 29.612-42.663-.009-5.493-3.88-9.019-10.134-9.231-2.949-.1-5.49-.222-5.648-.271-.158-.048 1.467-2.676 3.611-5.838 9.414-13.884 10.675-18.541 6.335-23.398-2.672-2.991-3.372-3.219-11.75-3.84-9.934-.735-11.985-1.577-23.702-9.725-21.567-15-43.207-19.985-60.765-14m2.558 3.096c-11.437 3.913-19.457 9.37-31.273 21.279-4.55 4.586-8.02 8.338-7.71 8.338.31 0-.594 1.237-2.009 2.75-1.414 1.513-4.528 5.675-6.918 9.25-12.793 19.133-12.8 21.908-.065 23.124 9.393.897 9.397.901 5.789 5.58-8.97 11.631-13.552 20.572-12.27 23.944 1.187 3.124 2.503 3.634 10.127 3.92 8.282.311 15.697 3.492 27.617 11.844 36.336 25.461 68.489 18 98.747-22.916 17.233-23.303 17.995-28.948 3.999-29.654-8.71-.44-9.422-.9-6.919-4.469 16.969-24.2 17.196-27.29 2.096-28.464-8.814-.686-12.461-2.104-22.395-8.71C554.18 67.142 548.323 64.866 532 64.367c-7.948-.243-12.735.071-15.5 1.016M391 120.089c-4.125.457-16.5 1.809-27.5 3.004-11 1.196-20.135 2.287-20.301 2.424-.165.138-3.894 10.316-8.286 22.617-4.393 12.301-8.851 24.616-9.908 27.366-1.057 2.75-6.862 18.95-12.901 36-6.038 17.05-13.984 39.325-17.658 49.5a5579.428 5579.428 0 0 0-11.439 32c-15.822 44.884-14.999 43.188-15.024 30.95-.047-22.893-10.345-43.593-32.063-64.45-5.154-4.95-12.576-12.225-16.493-16.167-25.697-25.859-25.336-52.122.887-64.393 31.769-14.866 63.321-1.957 71.674 29.327 1.209 4.528 2.526 8.579 2.925 9.003.603.639 13.815-33.316 19.689-50.603l1.642-4.832-3.872-3.995c-38.63-39.846-123.023-27.031-159.607 24.236-20.953 29.363-24.132 58.35-9.573 87.306 6.072 12.077 10.537 17.546 29.896 36.618 29.492 29.055 34.234 40.824 24.437 60.646-10.052 20.339-28.093 30.715-53.525 30.784-21.345.058-33.463-4.77-47.665-18.994C84.643 366.726 75 345.064 75 330.511c0-5.161-1.907-1.874-13.483 23.239-6.529 14.163-13.756 29.8-16.06 34.75-14.187 30.469-13.263 27.341-9.211 31.192 11.927 11.331 34.249 22.063 58.254 28.006 10.836 2.683 44.749 2.436 57-.415 41.004-9.541 71.66-28.772 93.302-58.529 3.124-4.295 5.815-7.403 5.98-6.908.165.496-1.909 7.052-4.609 14.569l-4.909 13.668 4.118-.533c2.265-.293 19.868-2.15 39.118-4.126 19.25-1.976 35.135-3.727 35.299-3.891.165-.164-.817-1.945-2.183-3.957-7.499-11.051-2.958-31.899 19.487-89.453 11.25-28.85 13.831-33.841 22.031-42.607C374.23 249.378 389 252.527 389 271.884c0 5.963-.864 9.438-5.919 23.799-7.188 20.423-24.564 69.173-30.766 86.317-6.5 17.967-6.437 17.1-1.181 16.472 9.86-1.178 57.903-6.37 64.866-7.01 9.235-.848 9.505-1.005 7.076-4.093-5.3-6.738-4.816-19.494 1.58-41.585 16.622-57.414 19.187-69.893 17.343-84.367-4.633-36.37-37.261-50.847-71.804-31.86l-6.435 3.537.679-2.705c.373-1.488 3.629-10.622 7.235-20.297 3.605-9.676 8.041-21.867 9.856-27.092a2892.501 2892.501 0 0 1 7.782-22c11.326-31.589 12.671-35.699 12.679-38.75.007-2.481-.405-3.219-1.741-3.12-.962.071-5.125.503-9.25.959m-42.499 13.161c-.24.688-2.517 6.875-5.059 13.75-2.543 6.875-5.409 14.975-6.369 18-1.671 5.264-7.615 21.896-26.627 74.5-4.771 13.2-10.829 30.075-13.462 37.5-2.634 7.425-7.129 20.025-9.99 28-2.86 7.975-6.022 16.975-7.025 20-1.004 3.025-5.498 15.625-9.988 28-13.613 37.524-17.03 47.285-16.676 47.639.187.186 6.607-.335 14.267-1.158 7.66-.823 18.428-1.952 23.928-2.508 14.725-1.491 15.5-1.719 15.5-4.552 0-2.954 1.719-2.955-25 .009-11.825 1.311-21.801 2.089-22.169 1.727-.368-.361 3.086-11.007 7.675-23.657s13.127-36.5 18.974-53c5.847-16.5 14.718-41.25 19.713-55 11.456-31.537 16.728-46.258 17.804-49.717.823-2.649 11.374-32.297 15.047-42.283C345.087 154.07 352 134.142 352 133.153c0-1.556-2.951-1.474-3.499.097m320.94 11.862c-37.867 32.371-72.677 54.045-94.441 58.801-2.475.541-15.975 2.139-30 3.551-36.889 3.716-49.088 5.223-50.045 6.185-.736.74-8.627 22.27-12.407 33.851-.718 2.2-2.755 7.825-4.526 12.5s-5.603 15.25-8.516 23.5c-8.033 22.751-30.099 84.717-34.126 95.826-1.958 5.405-3.342 10.045-3.076 10.312.433.433 11.084-.636 62.696-6.293 7.975-.874 14.652-1.724 14.838-1.889.186-.164-.714-1.724-2-3.467-2.161-2.928-2.332-4.088-2.262-15.328.09-14.246 2.218-22.473 14.4-55.661 10.099-27.513 15.258-41.84 22.507-62.5 8.473-24.151 10.533-29.5 11.358-29.5.384 0 2.202 2.736 4.04 6.08l3.343 6.081 8.638-.66c4.751-.363 11.292-1.06 14.535-1.548 3.243-.489 6.225-.687 6.625-.439.689.426-2.901 11.286-13.55 40.986a3710.917 3710.917 0 0 0-7.982 22.5 3629.227 3629.227 0 0 1-7.801 22c-2.465 6.875-8.315 23.3-13 36.5-4.686 13.2-9.207 25.896-10.047 28.213l-1.527 4.212 3.693-.462c5.503-.688 48.889-5.215 62.911-6.564l12.22-1.176-1.831-2.612c-7.865-11.22-4.637-30.075 13.377-78.111 2.372-6.325 6.568-17.8 9.324-25.5 13.607-38.014 16.615-46.048 17.456-46.614.501-.337 4.419-.906 8.706-1.263 12.834-1.07 22.401-5.147 29.875-12.729 4.052-4.11 9.532-11.849 8.864-12.518-.266-.266-9.156.444-19.757 1.577-10.6 1.134-19.483 1.851-19.74 1.594-.257-.258 4.319-13.831 10.17-30.164 5.85-16.333 10.493-29.84 10.318-30.015-.175-.176-6.142 4.659-13.26 10.744M239.5 159.476c-8.436 1.852-13.944 4.18-21.863 9.243-7.424 4.745-8.546 7.031-1.466 2.983 13.218-7.557 35.54-9.739 48.829-4.773 11.522 4.306 24.124 14.609 28.706 23.47l1.564 3.025 1.809-4.462c2.855-7.042 2.537-8.039-4.844-15.165-14.074-13.587-32.85-18.686-52.735-14.321m-74.559 20.243c-16.739 19.066-25.5 45.629-21.585 65.445 4.189 21.199 11.817 32.583 40.095 59.836 19.534 18.827 26.525 30.95 26.525 46 0 8.692-4.241 21.408-8.592 25.759-2.715 2.715-1.33 3.563 1.458.892 8.146-7.804 14.847-25.368 13.831-36.25-1.329-14.235-7.628-23.687-31.59-47.401-23.756-23.511-30.181-33.348-34.67-53.082-4.081-17.944 1.277-40.148 13.975-57.918 5.828-8.156 6.064-9.557.553-3.281m511.976 21.696c-.229.228-5.142.955-10.917 1.616-11.044 1.263-13 2.029-13 5.091 0 2.202-.341 2.172 9.678.83 9.503-1.274 13.588-2.483 18.822-5.572l4-2.361-4.083-.01c-2.246-.005-4.271.178-4.5.406m-75 7.962c-.229.208-8.742 1.166-18.917 2.13-20.163 1.91-20.93 2.135-18.29 5.358l1.79 2.185 18-1.933c9.9-1.064 18.162-1.775 18.361-1.582.403.395-.128 1.965-12.346 36.465-24.328 68.703-34.446 97.063-35.498 99.5-2.17 5.03-5.801 17.511-5.194 17.851.476.267 50.116-4.703 52.927-5.298.94-.199-.016-4.218-1.103-4.635-.743-.285-11.206.575-23.25 1.913-12.043 1.337-22.203 2.148-22.576 1.8-.374-.347 2.696-10.081 6.822-21.631 4.125-11.55 10.663-30 14.528-41s9.26-26.3 11.988-34c2.728-7.7 6.458-18.275 8.289-23.5a2029.374 2029.374 0 0 1 6.787-19c5.429-14.912 5.438-15 1.451-15-1.844 0-3.54.17-3.769.377M498.242 226.25c-2.825 8.595-52.179 146.484-54.796 153.09-.671 1.694-.303 1.786 4.663 1.169 2.965-.369 15.291-1.673 27.391-2.898l22-2.228-.348-2.441c-.191-1.343-.484-2.585-.651-2.76-.167-.175-10.548.837-23.07 2.249-12.521 1.413-23.004 2.329-23.296 2.037-.292-.291 1.421-6.029 3.805-12.749 2.385-6.721 6.474-18.294 9.087-25.719 2.613-7.425 6.861-19.35 9.44-26.5 2.58-7.15 9.576-26.725 15.548-43.5 5.972-16.775 11.725-32.75 12.785-35.5 3.255-8.446 3.522-10.5 1.367-10.5-1.41 0-2.378 1.541-3.925 6.25M378.5 241.887c-4.97 1.274-10.128 4.073-14.173 7.692l-3.827 3.424 5-2.382c10.127-4.824 17.625-4.213 24.497 1.995 9.001 8.132 9.28 21.03.96 44.384-2.841 7.975-6.179 17.425-7.418 21-1.239 3.575-5.66 15.95-9.826 27.5l-11.587 32.139c-2.208 6.127-3.827 11.327-3.597 11.556.387.387 39.646-3.379 49.221-4.722 3.742-.524 4.25-.903 4.25-3.163v-2.568l-7.25.674c-3.988.371-13.1 1.309-20.25 2.085-19.746 2.141-20.042 2.148-19.713.467.217-1.106 10.436-30.016 15.895-44.968.302-.825 2.921-8.25 5.822-16.5 2.9-8.25 7.177-20.175 9.503-26.5 6.984-18.99 8.526-28.938 5.933-38.277-2.696-9.71-13.849-16.293-23.44-13.836M67.042 362.183A8391.137 8391.137 0 0 0 54.306 390c-4.638 10.175-9.079 19.807-9.869 21.404-.79 1.597-1.437 3.02-1.437 3.162 0 1.935 22.075 14.906 32 18.804 42.916 16.854 103.538 7.154 136.5-21.842l3-2.639-3 1.743c-1.65.959-3.675 2.301-4.5 2.983-6.751 5.584-33.854 16.323-50.707 20.093-11.296 2.527-41.538 2.477-53.293-.087-16.729-3.649-35.632-11.73-47.299-20.219-6.483-4.718-6.496-4.883-1.277-15.902 2.517-5.315 4.576-9.847 4.576-10.073 0-.226 2.161-4.802 4.803-10.169 7.257-14.745 9.526-20.848 8.458-22.756-.714-1.277-1.858.407-5.219 7.681" fill-rule="evenodd"/>
<path fill="#f6f6f6" stroke="#f6f6f6" d="M510.144 39.516c-24.531 6.338-50.206 28.975-69.965 61.687-9.01 14.917-10.518 30.124-3.965 39.993 1.143 1.722 1.122 3.178-.138 9.362C431.743 171.831 446.823 190 468.813 190c3.791 0 6.485.639 8.846 2.098l3.396 2.099-3.305 3.658c-1.817 2.011-4.347 6.58-5.623 10.151-2.235 6.262-9.64 26.918-10.753 29.994-.36.996-1.384-.143-3.047-3.388-6.532-12.744-17.414-24.045-28.697-29.801-4.539-2.316-21.539-6.811-25.758-6.811-1.58 0-2.872-.264-2.872-.586 0-.322 5.257-15.284 11.681-33.25 12.412-34.707 13.48-39.321 11.348-49.029-1.57-7.151-4.035-11.193-8.775-14.387-7.445-5.018-10.859-5.158-42.785-1.753-44.468 4.743-46.674 5.744-53.055 24.077l-2.754 7.909-3.08-2.06c-14.816-9.91-43.88-17.932-64.902-17.915-13.658.011-37.998 4.816-53 10.463-50.052 18.84-86.728 69.281-84.368 116.031 1.582 31.345 14.324 55.453 44.19 83.609 15.527 14.637 23.5 24.599 23.5 29.362 0 2.887-4.337 10.8-7.84 14.302-10.288 10.289-31.221 13.235-45.66 6.426-15.17-7.153-23.731-19.969-27.537-41.224-3.237-18.08-7.003-23.584-18.149-26.524-5.15-1.359-6.828-1.225-15.175 1.211-6.156 1.797-9.081 6.629-25.187 41.608-8.669 18.827-18.398 39.81-21.621 46.631-13.342 28.231-10.932 35.799 17.508 54.99 50.883 34.336 128.282 32.958 183.058-3.26 4.457-2.947 9.77-6.135 11.807-7.086 2.037-.951 4.23-2.363 4.872-3.137.643-.774 2.834-1.408 4.87-1.408s16.493-1.364 32.128-3.031c15.634-1.667 32.901-3.493 38.371-4.057 11.425-1.179 20.206-3.053 23.27-4.966 1.702-1.063 3.131-1.094 7.19-.157 5.332 1.23 7.715 1.046 68.095-5.271 12.925-1.352 41.05-4.282 62.5-6.512 40.745-4.235 47.426-5.242 51.413-7.748 2.055-1.293 3.388-1.339 9-.314 6.587 1.204 71.903-4.743 88.087-8.019 17.91-3.626 25.156-20.324 15.329-35.323-4.495-6.862-2.842-13.889 14.371-61.102 5.214-14.3 11.958-32.975 14.986-41.5 3.028-8.525 5.607-15.607 5.73-15.737.124-.13 4.603-1.347 9.954-2.705 17.807-4.517 33.281-16.891 41.341-33.058 9.355-18.765-.853-35.5-21.654-35.5-2.231 0-4.057-.196-4.057-.435s1.975-6.002 4.389-12.807c2.414-6.805 4.927-14.963 5.584-18.13 3.636-17.51-9.661-30.806-26.688-26.687-5.363 1.298-7.078 2.53-27.591 19.809-7.998 6.738-14.74 12.25-14.982 12.25-.241 0 .263-2.934 1.121-6.519 1.748-7.309.715-15.527-2.827-22.469-1.711-3.355-1.733-4.029-.323-10.054 3.278-14.012-2.622-30.17-13.002-35.605-3.34-1.749-16.28-4.353-21.63-4.353-2.988 0-5.966-1.443-14.315-6.937-27.069-17.81-50.69-22.981-75.592-16.547M523 59.704c-19.839 2.175-43.914 22.218-62.383 51.933-4.396 7.074-5.617 9.914-5.617 13.064 0 5.66 3.706 9.299 9.47 9.299 5.831 0 5.948.493 1.626 6.871-8.887 13.115-10.049 18.33-5.173 23.206 2.592 2.592 3.614 2.923 9.025 2.923 8.503 0 15.315 2.691 26.434 10.443 43.841 30.567 81.904 17.805 116.056-38.911 6.49-10.777 3.415-19.532-6.861-19.532-5.483 0-5.413.442-.971-6.15 12.446-18.47 11.216-25.527-4.682-26.846-10.116-.839-13.02-2-24.76-9.894-15.427-10.373-25.041-14.497-37.598-16.13-7.183-.933-8.367-.956-14.566-.276m5.19 36.046c.186.963 1 1.75 1.81 1.75s1.624-.787 1.81-1.75c.236-1.228-.304-1.75-1.81-1.75s-2.046.522-1.81 1.75m11.987-.083c.486 2.509 2.823 2.853 2.823.416 0-1.228-.646-2.083-1.573-2.083-.932 0-1.442.68-1.25 1.667M517 97.441c0 2.054 2.07 3.063 3.046 1.485.452-.732.6-1.689.329-2.128-.84-1.36-3.375-.877-3.375.643m29.336 3.126c-.834 2.172 1.282 4.215 2.797 2.7 1.28-1.28.487-4.267-1.133-4.267-.585 0-1.333.705-1.664 1.567m10.352-.921c-1.374 1.374-.662 3.496 1.062 3.164.962-.186 1.75-.969 1.75-1.74 0-1.579-1.764-2.472-2.812-1.424m-22.365 1.955c-.708 1.844 1.711 3.765 3.051 2.425 1.092-1.092.09-4.026-1.374-4.026-.585 0-1.339.72-1.677 1.601m-11 1c-.708 1.844 1.711 3.765 3.051 2.425 1.092-1.092.09-4.026-1.374-4.026-.585 0-1.339.72-1.677 1.601m-11.716.981c-.874 2.277-.803 2.418 1.226 2.418 2.541 0 3.357-1.066 2.036-2.658-1.471-1.772-2.519-1.695-3.262.24m-9.982 1.216c-.791 1.279 1.043 3.525 2.263 2.771 1.606-.992 1.368-3.569-.329-3.569-.793 0-1.663.359-1.934.798m62.629.348c-1.338 1.338-.525 3.854 1.246 3.854 1.846 0 2.609-2.665 1.117-3.903-.886-.735-1.593-.721-2.363.049m-11.587.521c-1.443 1.443-.625 4.333 1.226 4.333 2.286 0 3.383-2.324 1.829-3.878-1.284-1.284-2.104-1.406-3.055-.455m-12.303 1.826c-.346.903-.15 2.121.436 2.707 1.524 1.524 4.41.131 4.012-1.935-.443-2.302-3.647-2.858-4.448-.772m-11 1c-.346.903-.15 2.121.436 2.707 1.524 1.524 4.41.131 4.012-1.935-.443-2.302-3.647-2.858-4.448-.772m-12.028 1.074c-.331.862-.122 2.047.464 2.633 1.555 1.555 4.2.19 4.2-2.169 0-2.466-3.753-2.839-4.664-.464M506 110.941c0 2.521 1.715 3.541 3.484 2.072 1.821-1.511.829-4.013-1.591-4.013-1.207 0-1.893.703-1.893 1.941m-11.559.155c-1.057 1.71 2.277 4.586 3.685 3.178.627-.627.869-1.845.538-2.707-.692-1.803-3.225-2.086-4.223-.471m64.244.362c-1.969 1.969-1.146 4.542 1.453 4.542 2.544 0 3.522-2.769 1.642-4.649-1.326-1.325-1.675-1.313-3.095.107m10.695-.006c-.775 2.021.378 3.548 2.679 3.548 1.404 0 1.941-.692 1.941-2.5 0-2.816-3.626-3.638-4.62-1.048m-22.369 1.035c-1.624 1.957-.576 4.513 1.851 4.513 2.365 0 3.579-2.763 2.033-4.627-1.46-1.758-2.352-1.732-3.884.114m-11.649 1.013c-.883 2.301.43 4.687 2.373 4.312 2.17-.417 2.929-3.776 1.113-4.927-1.952-1.237-2.835-1.082-3.486.615m-11.112.162c-1.782.719-1.548 4.286.328 5.006 2.466.946 5.084-2.166 3.464-4.118-1.346-1.622-1.743-1.715-3.792-.888m-11.86 1.764c-.91 2.371.377 4.765 2.357 4.384 1.107-.213 1.753-1.249 1.753-2.81 0-2.851-3.156-4.059-4.11-1.574m-11.432 1.124c-2.112 2.546 1.362 5.559 3.706 3.214 1.635-1.634.541-4.764-1.664-4.764-.415 0-1.334.698-2.042 1.55m74.431-.12c-.996 2.595.399 4.739 2.857 4.39 1.652-.235 2.254-.987 2.254-2.82 0-2.952-4.098-4.211-5.111-1.57m-85.139.301c-.687.239-1.25 1.25-1.25 2.245 0 1.945 1.725 3 3.75 2.293.688-.239 1.25-1.25 1.25-2.245 0-1.945-1.725-3-3.75-2.293m73.997.422c-1.57 1.57.243 4.847 2.681 4.847 2.09 0 3.301-2.239 2.434-4.5-.684-1.78-3.491-1.971-5.115-.347m-11.858 1.277c-.996 2.595.399 4.739 2.857 4.39 1.652-.235 2.254-.987 2.254-2.82 0-2.952-4.098-4.211-5.111-1.57m-21.83.903c-2.559 1.872-1.632 5.167 1.455 5.167 1.759 0 2.573-.611 2.784-2.088.429-3.003-1.965-4.742-4.239-3.079m10.051.24c-.868 2.262 1.229 4.593 3.802 4.225 3.328-.475 2.876-5.207-.534-5.602-1.733-.201-2.841.266-3.268 1.377m-171.542 2.53c-13.987 1.573-25.754 3.206-26.149 3.629-.394.422-3.274 7.968-6.399 16.768s-7.413 20.725-9.529 26.5c-5.742 15.676-39.86 111.09-49.276 137.807l-8.215 23.306-.745-8.761c-2.196-25.806-10.583-40.513-39.265-68.852-23.246-22.968-28.518-31.566-28.468-46.428.056-16.638 14.5-28.857 37.899-32.061 26.972-3.693 46.88 10.147 53.567 37.239 1.052 4.262 2.201 7.75 2.554 7.75.353 0 4.594-10.687 9.424-23.75 4.83-13.062 9.621-25.892 10.647-28.509l1.865-4.759-3.703-4.099c-24.061-26.633-78.459-31.461-119.775-10.629-41.941 21.146-67.078 66.342-57.645 103.643 4.543 17.967 13.3 32.192 29.302 47.598 22.192 21.366 29.5 29.998 33.923 40.072 9.21 20.974-9.829 49.651-37.746 56.853-41.235 10.639-78.617-15.746-85.437-60.302-.684-4.465-1.527-8.118-1.874-8.118-.347 0-4.307 7.988-8.801 17.75s-13.827 29.9-20.742 44.75l-12.571 27 3.795 3.257c59.633 51.169 162.909 35.584 210.078-31.701 2.87-4.094 5.215-7.244 5.211-7-.004.244-2.227 6.733-4.941 14.42-2.714 7.686-4.746 14.163-4.516 14.393.49.49 14.632-.853 51.884-4.926 14.806-1.619 27.138-2.943 27.405-2.943.267 0-.243-.804-1.132-1.787-4.805-5.309-6.003-16.795-3.169-30.398 3.424-16.435 26.382-78.8 33.984-92.315 15.323-27.242 40.629-29.283 38.182-3.08-.36 3.85-2.575 11.88-5.581 20.232-20.11 55.866-36.97 103.82-36.624 104.166.326.327 46.905-4.346 74.208-7.445l5.192-.589-2.692-4.067c-2.304-3.478-2.738-5.306-3.005-12.642-.347-9.559-.04-10.915 12.678-56.075 7.897-28.042 10.143-38.894 10.117-48.881-.104-39.59-33.741-59.585-69.797-41.489-4.72 2.369-8.675 4.209-8.788 4.089-.114-.121 2.273-6.969 5.304-15.219C389.648 162.205 402 126.408 402 122.9c0-4.787 2.095-4.736-32.932-.797m148.972-.651c-1.047 1.261-1.047 1.835 0 3.096 2.005 2.416 5.46 1.436 5.46-1.548s-3.455-3.964-5.46-1.548m63.627-.785c-.367.366-.667 1.443-.667 2.393 0 3.435-3.996 3.201-5.292-.31-.997-2.702-4.42-2.124-5.917 1-1.604 3.348-3.942 3.551-5.291.459-1.351-3.093-5.858-2.708-6.32.541-.42 2.96-4.71 3.156-5.47.25-.744-2.845-4.531-2.601-5.658.364-1.335 3.511-3.89 4.085-5.218 1.171-1.986-4.36-6.834-3.943-6.834.587 0 2.755-3.072 2.321-5.547-.783-2.35-2.948-4.038-2.561-5.49 1.258-1.101 2.896-4.571 3.212-5.434.495-1.301-4.1-6.529-2.82-6.529 1.599 0 2.245-3.325 1.434-5.547-1.352-2.35-2.948-4.038-2.561-5.49 1.258-1.194 3.14-4.33 3.087-5.781-.097-1.749-3.838-6.182-2.619-6.182 1.7 0 2.689-3.494 2.221-5.426-.727-2.592-3.956-4.918-1.608-16.281 16.43-8.029 12.746-7.343 15.176 4.575 16.2 9.504.817 15.209 3.209 27.744 11.633 25.727 17.29 46.613 19.629 67.388 7.545 12.405-7.216 32.591-29.372 41.46-45.506 5.996-10.91 4.552-13.423-7.96-13.849-4.4-.15-8.867.109-9.928.576-1.456.641-2.281.316-3.372-1.327-1.401-2.11-4.175-2.866-5.533-1.508m-75.278 1.763c-.996 2.595.399 4.739 2.857 4.39 1.652-.235 2.254-.987 2.254-2.82 0-2.952-4.098-4.211-5.111-1.57m-11.21.854c-1.815 2.188 1.094 5.59 3.512 4.107 2.503-1.535 2.327-4.817-.279-5.189-1.148-.164-2.603.323-3.233 1.082m-11.847 1.294c-.784 2.042 2.048 4.874 4.09 4.09.868-.333 1.578-1.744 1.578-3.137 0-2.955-4.603-3.73-5.668-.953m99.109 2.518c-1.057 1.71 2.277 4.586 3.685 3.178.627-.627.869-1.845.538-2.707-.692-1.803-3.225-2.086-4.223-.471m-11.118 1.505c-.853 2.222 1.811 3.693 3.545 1.959.753-.753 1.064-1.861.691-2.464-1.006-1.628-3.533-1.327-4.236.505m-11.85.443c-.918 1.485 1.398 3.943 3.1 3.29 2.192-.842 1.778-4.334-.514-4.334-1.068 0-2.231.47-2.586 1.044m-22.564 1.566c-.996 1.2-.931 1.796.331 3.059 1.833 1.833 3.76 1.002 3.76-1.621 0-2.426-2.532-3.317-4.091-1.438m11.442-.083c-.733 1.91 1.272 3.555 3.357 2.755 1.888-.725 1.186-3.679-.973-4.094-.957-.185-2.03.418-2.384 1.339M525 132.893c0 2.42 2.502 3.412 4.013 1.591 1.469-1.769.449-3.484-2.072-3.484-1.238 0-1.941.686-1.941 1.893m-11.334.534c-.653 1.702 1.805 4.018 3.29 3.1.574-.355 1.044-1.518 1.044-2.586 0-2.292-3.492-2.706-4.334-.514M502 135c0 1.646.518 2.065 2.25 1.82 1.238-.176 2.25-.995 2.25-1.82 0-.825-1.012-1.644-2.25-1.82-1.732-.245-2.25.174-2.25 1.82m75.57-1.113c-.681 1.101 1.868 3.342 2.772 2.438.362-.362.658-1.258.658-1.992 0-1.489-2.578-1.825-3.43-.446m93.513 9.191c-28.007 24.41-60.971 46.982-80.676 55.24-10.944 4.587-16.411 5.596-49.714 9.179a30858.437 30858.437 0 0 0-39.689 4.287l-6.496.716-8.576 24c-8.376 23.441-29.45 82.433-46.262 129.5-8.354 23.39-8.382 23.501-6.005 23.819 1.314.176 13.065-.837 26.112-2.25 13.048-1.413 28.448-3.033 34.223-3.6 5.775-.568 11.956-1.262 13.736-1.543l3.236-.511-2.736-4.135c-2.53-3.823-2.735-4.893-2.722-14.207.02-13.787 3.145-25.037 18.496-66.573 3.964-10.725 11.841-32.55 17.505-48.5 12.056-33.95 11.502-32.5 12.405-32.5.388 0 2.232 2.715 4.099 6.034 3.001 5.335 3.689 5.977 5.938 5.538 5.155-1.007 26.156-2.792 26.679-2.269.298.298-1.269 5.639-3.481 11.869a35785.67 35785.67 0 0 0-12.153 34.328c-4.472 12.65-9.442 26.6-11.044 31-10.91 29.954-26.896 75.895-26.536 76.256.395.395 30.577-2.546 64.467-6.28 7.365-.812 13.817-1.476 14.339-1.476.523 0-.182-1.346-1.566-2.99-7.918-9.41-5.239-27.432 10.453-70.322A10608.5 10608.5 0 0 0 640.595 255c4.652-12.925 9.518-26.424 10.813-29.999l2.354-6.499 4.869-.726c20.216-3.015 24.787-4.697 33.055-12.163 2.852-2.575 6.56-6.917 8.24-9.648l3.056-4.965-3.241.06c-1.783.033-10.779.841-19.991 1.796-13.777 1.429-16.75 1.5-16.75.401 0-.735 2.531-8.406 5.625-17.047 3.094-8.64 7.556-21.11 9.915-27.71 2.36-6.6 4.601-12.787 4.982-13.75 1.255-3.173-.894-1.735-12.439 8.328M491 136c0 1.333.667 2 2 2s2-.667 2-2-.667-2-2-2-2 .667-2 2m75.19-.25c.186.963 1 1.75 1.81 1.75s1.624-.787 1.81-1.75c.236-1.228-.304-1.75-1.81-1.75s-2.046.522-1.81 1.75m-11.531-.008c-.29.47-.152 1.46.306 2.201 1.014 1.641 4.376.581 3.785-1.194-.5-1.502-3.351-2.204-4.091-1.007m-11.469 2.008c.186.963 1 1.75 1.81 1.75s1.624-.787 1.81-1.75c.236-1.228-.304-1.75-1.81-1.75s-2.046.522-1.81 1.75M532 139c0 1.506.522 2.046 1.75 1.81.962-.186 1.75-1 1.75-1.81s-.788-1.624-1.75-1.81c-1.228-.236-1.75.304-1.75 1.81m-22.342-.325c-.362.362-.658 1.258-.658 1.992 0 1.489 2.578 1.825 3.43.446.681-1.101-1.868-3.342-2.772-2.438m10.342.718c0 1.508 2.429 2.845 3.402 1.871 1.317-1.316.481-3.264-1.402-3.264-1.1 0-2 .627-2 1.393m-21.878.96c-1.216 1.465-.526 2.647 1.545 2.647 1.489 0 1.825-2.578.446-3.43-.487-.301-1.383.051-1.991.783m74.878 1.23c0 1.766 2.153 1.459 2.771-.395.218-.654-.317-1.188-1.188-1.188s-1.583.713-1.583 1.583m-12 .917c0 1.03.655 1.52 1.75 1.31 2.108-.406 1.975-2.181-.197-2.633-.906-.189-1.553.362-1.553 1.323m-11.306.139c-.933.934.194 2.361 1.865 2.361.793 0 1.441-.675 1.441-1.5 0-1.506-2.111-2.056-3.306-.861m-22.055 1.055c-1.195 1.195-.645 3.306.861 3.306.825 0 1.5-.648 1.5-1.441 0-1.671-1.427-2.798-2.361-1.865M538 144.5c0 1.03.655 1.52 1.75 1.31 2.108-.406 1.975-2.181-.197-2.633-.906-.189-1.553.362-1.553 1.323m-22.581.631c-.852 1.379 1.105 3.281 2.494 2.423.598-.37 1.087-1.047 1.087-1.506 0-1.33-2.871-2.066-3.581-.917m-11.227 1.944c.197.591.786 1.075 1.308 1.075s1.111-.484 1.308-1.075c.197-.591-.391-1.075-1.308-1.075s-1.505.484-1.308 1.075M567 148c0 .55.45 1 1 1s1-.45 1-1-.45-1-1-1-1 .45-1 1m-10.771 1.188c.618 1.854 2.771 2.161 2.771.395 0-.87-.712-1.583-1.583-1.583s-1.406.534-1.188 1.188m-11.079.762c.22.66.726 1.166 1.125 1.125 1.196-.124.964-1.495-.325-1.925-.66-.22-1.02.14-.8.8m-11.921 1.238c.618 1.854 2.771 2.161 2.771.395 0-.87-.712-1.583-1.583-1.583s-1.406.534-1.188 1.188M512 152.5c0 .825.45 1.5 1 1.5s1-.675 1-1.5-.45-1.5-1-1.5-1 .675-1 1.5m10-.559c0 .518.45 1.219 1 1.559.55.34 1-.084 1-.941s-.45-1.559-1-1.559-1 .423-1 .941M551 156c0 .55.45 1 1 1s1-.45 1-1-.45-1-1-1-1 .45-1 1m-23 2c0 .55.675 1 1.5 1s1.5-.45 1.5-1-.675-1-1.5-1-1.5.45-1.5 1m12 0c0 .55.45 1 1 1s1-.45 1-1-.45-1-1-1-1 .45-1 1" fill-rule="evenodd"/>
<path fill="#24802f" stroke="#24802f" d="M510.5 39.841c-20.911 5.618-40.261 20.393-58.513 44.677-19.636 26.125-24.013 41.398-15.866 55.371 1.896 3.252 1.911 3.673.387 10.375C431.737 171.242 447.521 190 469.944 190c3.357 0 8.94 1.83 10.927 3.581.203.18-1.115 2.202-2.93 4.494-2.783 3.514-8.93 18.71-16.549 40.911-.323.941-1.689-.711-3.719-4.5-11.453-21.366-24.007-30.453-48.778-35.306l-8.604-1.686 6.446-17.997a5467.574 5467.574 0 0 1 11.251-31.105c9.514-25.956 8.849-38.312-2.529-46.991-6.846-5.222-10.854-5.389-44.01-1.841-43.848 4.693-45.713 5.541-51.57 23.44-2.72 8.315-3.118 8.678-6.707 6.122-16.04-11.421-50.388-19.402-73.844-17.157-62.454 5.976-110.282 43.924-124.822 99.035-3.807 14.428-4.284 25.677-1.633 38.5 6.028 29.162 13.985 42.466 42.167 70.5 24.371 24.243 26.533 28.033 21.549 37.783-6.045 11.828-15.749 16.717-33.181 16.717-12.064 0-12.11-.009-19.733-3.879-14.885-7.555-22.565-19.558-26.198-40.947-2.122-12.488-3.148-15.304-7.221-19.813-6.495-7.188-18.724-8.715-27.675-3.455-5.421 3.186-7.011 5.604-14.529 22.094-3.51 7.7-9.008 19.566-12.217 26.369C32.626 361.673 30 367.374 30 367.538c0 .165-1.979 4.499-4.397 9.631-16.224 34.427-16.938 36.748-14.195 46.171 4.554 15.644 37.946 36.172 72.551 44.604 45.328 11.043 98.462 1.315 136.521-24.995 3.937-2.722 7.622-4.949 8.189-4.949.567 0 2.939-1.382 5.272-3.072 2.332-1.69 4.849-2.839 5.593-2.553.743.285 13.415-.776 28.159-2.358s32.207-3.386 38.807-4.011c13.549-1.281 23.476-3.296 26.77-5.434 1.931-1.252 3.032-1.258 8.206-.047 3.287.77 6.887 1.198 8 .953 1.796-.397 40.867-4.506 100.024-10.52 63.816-6.488 67.992-7.063 73.326-10.092 3.057-1.736 3.76-1.775 8.678-.491 4.952 1.293 8.358 1.076 45.674-2.912 22.177-2.37 42.529-4.811 45.227-5.425 15.098-3.435 21.748-21.184 12.699-33.892-4.258-5.98-2.176-16.585 9.65-49.146a10881.77 10881.77 0 0 0 15.106-42c5.012-14.025 9.485-26.141 9.938-26.925.454-.783 5.338-2.598 10.855-4.031 29.91-7.775 51.826-38.185 41.175-57.136-3.75-6.672-16.402-12.447-22.812-10.413-3.779 1.199-3.825-.525-.274-10.248 6.844-18.74 8.432-26.003 7.049-32.247-2.57-11.609-13.782-18.663-25.497-16.041-5.695 1.274-7.104 2.29-31.773 22.906-6.588 5.506-12.154 9.835-12.369 9.62-.215-.215.369-3.49 1.297-7.278 1.829-7.463.774-15.288-3.089-22.908-1.351-2.667-1.433-3.95-.491-7.693 2.405-9.551.244-23.969-4.531-30.23C624.419 67.928 613.789 64 601.253 64c-3.441 0-6.026-1.289-16.418-8.184-26.052-17.284-50.173-22.468-74.335-15.975m6.5 20.683c-20.159 5.598-44.588 28.486-59.505 55.752-5.699 10.417-3.097 17.338 6.943 18.47 5.507.621 5.522-.292-.133 8.449C453.626 159.704 456.179 168 471.94 168c8.066 0 14.103 2.451 24.467 9.933 32.571 23.513 62.983 21.484 90.481-6.039 13.196-13.207 28.67-35.113 29.708-42.056.982-6.562-6.094-12.828-12.572-11.134-2.831.74-2.695.356 3.476-9.881C616.585 93.752 614.462 86 601.247 86c-7.817 0-14.387-2.559-25.68-10.002-19.236-12.678-27.515-15.861-43.067-16.555-7.098-.316-11.596-.003-15.5 1.081M529 96c0 .55.45 1 1 1s1-.45 1-1-.45-1-1-1-1 .45-1 1m11.51.016c.346.559 1.047.758 1.559.441 1.387-.857 1.129-1.457-.628-1.457-.857 0-1.276.457-.931 1.016m-22.913.828c-.346.56-.142 1.319.453 1.687 1.538.95 2.53-.351 1.246-1.635-.718-.718-1.277-.735-1.699-.052m29.097 3.795c-.799.799.104 2.361 1.365 2.361.518 0 .941-.675.941-1.5 0-1.546-1.18-1.987-2.306-.861M557 101c0 .55.45 1 1 1s1-.45 1-1-.45-1-1-1-1 .45-1 1m-22 1.5c0 .917.484 1.505 1.075 1.308.591-.197 1.075-.785 1.075-1.308s-.484-1.111-1.075-1.308c-.591-.197-1.075.391-1.075 1.308m-11 1c0 .825.45 1.5 1 1.5s1-.675 1-1.5-.45-1.5-1-1.5-1 .675-1 1.5m-12 .917c0 .87.712 1.583 1.583 1.583s1.406-.534 1.188-1.187c-.618-1.855-2.771-2.162-2.771-.396m-9.531.633c-.95 1.538.351 2.53 1.635 1.246.718-.718.735-1.277.052-1.699-.56-.346-1.319-.142-1.687.453M564 106.5c0 .825.675 1.5 1.5 1.5s1.5-.675 1.5-1.5-.675-1.5-1.5-1.5-1.5.675-1.5 1.5m-11.312.146c-1.305 1.304-.682 2.354 1.395 2.354 1.164 0 1.909-.524 1.688-1.187-.487-1.462-2.157-2.094-3.083-1.167M541 108.5c0 1.03.655 1.52 1.75 1.31 2.108-.406 1.975-2.181-.197-2.633-.906-.189-1.553.362-1.553 1.323m-11.306.139c-.933.934.194 2.361 1.865 2.361.793 0 1.441-.675 1.441-1.5 0-1.506-2.111-2.056-3.306-.861M518 110.5c0 .825.675 1.5 1.5 1.5s1.5-.675 1.5-1.5-.675-1.5-1.5-1.5-1.5.675-1.5 1.5m-11.457.431c-.317.512-.118 1.213.441 1.559 1.193.737 3.016-.199 3.016-1.549 0-1.217-2.707-1.225-3.457-.01m64.115-.256c-.362.362-.658 1.258-.658 1.992 0 1.489 2.578 1.825 3.43.446.681-1.101-1.868-3.342-2.772-2.438m-74.964.964c-.799.799.104 2.361 1.365 2.361.518 0 .941-.675.941-1.5 0-1.546-1.18-1.987-2.306-.861m62.839.308c-.88 1.423.242 3.053 2.099 3.053.876 0 1.378-.703 1.191-1.667-.389-2.009-2.386-2.849-3.29-1.386M547 113.927c0 1.431.642 2.073 2.073 2.073s1.97-.539 1.739-1.739c-.502-2.606-3.812-2.897-3.812-.334m-11.554.16c-.941 1.523 1.103 3.3 2.97 2.584.898-.345 1.302-1.242.96-2.133-.682-1.779-2.949-2.039-3.93-.451m-10.779.58C523.29 116.043 524.073 118 526 118c1.333 0 2-.667 2-2 0-1.927-1.957-2.71-3.333-1.333m-12.221 1.42c-.941 1.523 1.103 3.3 2.97 2.584.898-.345 1.302-1.242.96-2.133-.682-1.779-2.949-2.039-3.93-.451m-10.758.559c-1.374 1.374-.662 3.496 1.062 3.164.962-.186 1.75-.969 1.75-1.74 0-1.579-1.764-2.472-2.812-1.424m63.263.913c-.928 1.118-.928 1.764 0 2.882 1.51 1.82 4.049.917 4.049-1.441s-2.539-3.261-4.049-1.441M576 118c0 1.333.667 2 2 2s2-.667 2-2-.667-2-2-2-2 .667-2 2m-85.333-.333c-1.218 1.218-.689 3.333.833 3.333.833 0 1.5-.889 1.5-2 0-1.992-1.066-2.601-2.333-1.333m-118.9 3.789c-15.804 1.748-28.914 3.373-29.134 3.611-.417.452-7.836 20.641-12.652 34.433-3.237 9.266-6.266 17.735-27.009 75.5-13.561 37.768-26.868 75.084-31.905 89.476l-1.742 4.976-.618-8.976c-1.568-22.777-11.689-41.968-32.676-61.957-29.268-27.878-36.376-39.199-34.715-55.295 1.808-17.515 22.746-30.082 48.311-28.994 22.378.952 35.83 12.682 42.453 37.02 1.31 4.813 2.652 8.75 2.984 8.75.331 0 5.454-13.07 11.384-29.044 10.644-28.675 10.758-29.072 8.917-31.186-24.575-28.219-75.604-34.286-119.248-14.178-39.849 18.358-67.783 62.466-62.215 98.238 3.52 22.615 12.09 36.503 38.671 62.67 23.722 23.352 29.205 32.386 28.197 46.465C199.021 377.421 173.565 397 143.52 397c-35.056 0-60.588-23.338-67.132-61.365-1.537-8.933-1.966-10.398-2.797-9.552-.225.23-4.102 8.517-8.615 18.417-4.513 9.9-10 21.825-12.192 26.5-11.095 23.661-20.781 44.984-20.76 45.698.013.441 3.201 3.277 7.086 6.302 61.002 47.503 155.764 32.49 205.147-32.5 3.344-4.4 5.811-7.26 5.483-6.355-4.618 12.736-8.74 24.889-8.74 25.769 0 .712 1.344.915 3.75.567 5.684-.821 57.601-6.314 67.031-7.091 7.78-.641 10.761-1.784 8.487-3.252-4.849-3.13-6.278-15.648-3.387-29.671 3.256-15.795 23.534-72.399 31.872-88.967 10.483-20.831 26.901-31.046 35.722-22.225 6.204 6.204 5.756 14.836-1.859 35.859a5309.697 5309.697 0 0 0-8.92 24.866c-2.442 6.875-9.248 26-15.123 42.5-5.876 16.5-11.195 31.451-11.82 33.225-.625 1.774-.938 3.39-.695 3.591.657.546 78.886-7.927 79.577-8.618.326-.326-.332-1.769-1.463-3.206-5.224-6.642-5.099-20.474.35-38.713 6.078-20.343 15.776-55.929 17.064-62.617 9.522-49.419-26.024-80.431-67.861-59.204-4.415 2.241-8.175 3.925-8.356 3.745-.181-.181 4.554-13.801 10.522-30.266 28.654-79.055 29.346-81.268 25.609-81.971-.55-.103-13.93 1.242-29.733 2.99m170.22-1.94c-1.469 1.769-.449 3.484 2.072 3.484 1.238 0 1.941-.686 1.941-1.893 0-2.42-2.502-3.412-4.013-1.591M553 120c0 1.273.667 2 1.833 2 2.36 0 3.165-.841 2.491-2.598-.849-2.212-4.324-1.731-4.324.598m-22.333-.333c-1.167 1.166-.718 4.099.711 4.648 1.541.591 3.622-1.08 3.622-2.908 0-.656-.712-1.466-1.582-1.8-1.958-.752-1.94-.752-2.751.06m-11.603 1.756c-1.552 1.87-.567 3.577 2.065 3.577 1.495 0 1.928-.557 1.691-2.172-.4-2.713-2.132-3.362-3.756-1.405M581.85 123c-1.358 3.897-5.016 4.127-6.704.421-1.402-3.077-3.167-2.755-4.951.903-1.66 3.407-4.865 3.495-6.377.176-1.488-3.266-3.388-3.172-5.023.25-1.77 3.704-5.085 4.105-6.592.796-1.556-3.415-3.774-3.216-5.053.454-1.331 3.819-4.782 4.099-6.15.5-1.293-3.4-3.878-3.149-5.15.5-1.298 3.724-4.183 3.948-6.442.5-2.125-3.243-3.02-3.152-4.908.5-1.935 3.741-5.173 3.99-6.5.5-1.293-3.4-3.878-3.149-5.15.5-1.298 3.724-4.183 3.948-6.442.5-2.18-3.327-3.984-3.155-5.258.5-1.331 3.819-4.782 4.099-6.15.5-1.224-3.22-3.781-3.207-5.01.026-1.45 3.813-3.936 4.268-6.217 1.136-2.681-3.68-2.981-3.536-8.494 4.088-15.629 21.612-16.223 27.25-2.871 27.25 8.167 0 13.012 1.988 27.092 11.116 18.382 11.916 26.677 14.892 41.46 14.873 21.832-.027 40.732-13.534 62.164-44.424 8.969-12.926 10.864-20.509 5.147-20.59-.974-.014-4.853-.215-8.619-.447-4.283-.264-7.584.026-8.811.775-1.69 1.031-2.243.815-3.985-1.553-2.592-3.524-3.71-3.468-5.006.25m-73.6-1.297c-2.066.766-1.498 4.297.691 4.297 1.068 0 2.246-.493 2.618-1.096.86-1.39-1.649-3.816-3.309-3.201m-12.186 1.72c-1.552 1.87-.567 3.577 2.065 3.577 1.495 0 1.928-.557 1.691-2.172-.4-2.713-2.132-3.362-3.756-1.405m-11.684 1.029c-.704 1.834.32 3.548 2.12 3.548 2.058 0 2.838-1.888 1.464-3.544-1.539-1.853-2.874-1.855-3.584-.004m97.657 2.479c-1.469 2.744 1.288 5.501 4.032 4.032 2.201-1.178 2.482-3.012.731-4.763-1.751-1.751-3.585-1.47-4.763.731m-10.991.513c-1.815 2.188-.521 4.762 2.2 4.376 1.648-.234 2.254-.988 2.254-2.806 0-2.918-2.58-3.827-4.454-1.57m-11.379.223c-.367.366-.667 1.716-.667 3 0 2.74 4.647 3.416 5.643.82 1.037-2.701-2.998-5.798-4.976-3.82m-12.146 2.266c-.881 2.776.104 4.067 3.104 4.067 2.146 0 2.462-.397 2.191-2.75-.401-3.492-4.297-4.461-5.295-1.317m-10.812-.309c-2.045 2.046-.685 5.506 2.041 5.192 2.182-.251 2.75-.832 2.75-2.816 0-2.478-3.135-4.032-4.791-2.376m-12.347 1.876c-.945 2.462.414 4.5 3 4.5 2.785 0 4.211-2.605 2.533-4.627-1.516-1.826-4.813-1.75-5.533.127m-10.973.93c-.996 2.595.399 4.739 2.857 4.39 1.652-.235 2.254-.987 2.254-2.82 0-2.952-4.098-4.211-5.111-1.57m-11.751 1.07c-.854 2.226.332 4.5 2.347 4.5.973 0 2.33-.675 3.015-1.5 1.532-1.846-.246-4.5-3.015-4.5-.974 0-2.03.675-2.347 1.5m76.466-.585c-1.89 1.196-.572 4.322 1.643 3.895.964-.185 1.753-1.194 1.753-2.24 0-2.219-1.414-2.908-3.396-1.655M670 143.648c-34.556 29.261-64.767 49.224-85.934 56.786-7.571 2.705-20.278 4.455-69.525 9.576-10.978 1.142-20.056 2.172-20.173 2.289-.253.253-7.942 21.638-29.013 80.701-31.953 89.562-34.597 97.091-34.231 97.444.207.198 12.301-.902 26.876-2.446 14.575-1.544 32.462-3.371 39.75-4.061 13.356-1.264 15.226-2.052 11.74-4.945-7.837-6.505-4.418-30.263 9.785-67.992 4.596-12.208 30.145-83.244 32.459-90.25 1.971-5.966 2.142-5.94 5.69.851 3.685 7.052 2.846 6.835 19.125 4.947 7.557-.876 13.906-1.427 14.108-1.224.203.203-.809 3.475-2.248 7.272s-5.69 15.679-9.446 26.404c-3.756 10.725-13.885 39.3-22.508 63.5-18.293 51.337-19.995 56.32-19.4 56.812.324.267 78.192-7.791 79.665-8.244.121-.038-.88-1.688-2.224-3.669-7.703-11.351-4.784-26.393 16.457-84.82 7.015-19.294 15.091-41.621 17.947-49.617l5.193-14.538 9.203-1.105c17.297-2.075 27.876-7.835 35.581-19.372 4.972-7.446 5.058-8.189.873-7.51-6.737 1.092-35.94 3.707-36.389 3.257-.447-.447 4.826-15.8 15.788-45.965 2.752-7.574 4.857-14.162 4.677-14.641-.179-.479-6.401 4.273-13.826 10.56m-179.611-9.218c-.996 2.595.399 4.739 2.857 4.39 1.652-.235 2.254-.987 2.254-2.82 0-2.952-4.098-4.211-5.111-1.57m74.991.022c-.769 2.003.372 3.548 2.62 3.548 2.301 0 3.209-1.292 2.396-3.41-.763-1.99-4.268-2.086-5.016-.138m-10.713.215c-1.702 1.701-.588 4.333 1.833 4.333 2 0 2.5-.5 2.5-2.5 0-2.421-2.632-3.535-4.333-1.833m-12.097 2.011c-.354.922-.044 2.277.689 3.009 1.811 1.812 5.363-.624 4.435-3.042-.823-2.144-4.297-2.122-5.124.033m-10.869-.046c-1.182 1.182-.779 4.124.64 4.668 2.015.774 3.903-.796 3.496-2.908-.371-1.926-2.895-3-4.136-1.76m-12.107 1.982c-.363.946-.243 2.137.267 2.647 1.548 1.548 4.639.366 4.639-1.775 0-2.578-3.979-3.285-4.906-.872m-11.214.838c-.775 2.021.378 3.548 2.679 3.548 1.404 0 1.941-.692 1.941-2.5 0-2.816-3.626-3.638-4.62-1.048m-11.234.872c-.905 1.09-.856 1.672.215 2.561 1.813 1.504 4.824.314 4.427-1.749-.408-2.117-3.16-2.598-4.642-.812m75.19.243c-.834 2.172 1.282 4.215 2.797 2.7 1.28-1.28.487-4.267-1.133-4.267-.585 0-1.333.705-1.664 1.567m-11.618.725c-.293.764-.17 1.977.274 2.694 1.121 1.815 4.232.414 3.82-1.721-.415-2.159-3.369-2.861-4.094-.973m-11.354 1.201c-.346.903-.15 2.121.436 2.707 1.524 1.524 4.41.131 4.012-1.935-.443-2.302-3.647-2.858-4.448-.772m-11.923.603c-1.057 1.71 2.277 4.586 3.685 3.178.627-.627.869-1.845.538-2.707-.692-1.803-3.225-2.086-4.223-.471m-11.077 1.397c-.346.903-.15 2.121.436 2.707 1.524 1.524 4.41.131 4.012-1.935-.443-2.302-3.647-2.858-4.448-.772m-11.698.934c-.762 1.987 2.065 4.242 3.509 2.798 1.381-1.381.347-4.225-1.537-4.225-.783 0-1.67.642-1.972 1.427m-11.186.605c-.388.628-.235 1.613.34 2.188 1.344 1.344 4.477.172 3.93-1.471-.556-1.671-3.386-2.147-4.27-.717m62.865 1.511c-.754 1.966.138 2.869 2.095 2.118.879-.337 1.276-1.238.936-2.123-.758-1.976-2.272-1.973-3.031.005m-9.971.926c-.874 2.276.542 3.846 2.215 2.457 1.828-1.517 1.787-2.568-.127-3.302-.863-.331-1.78.04-2.088.845m-11.686.177c-1.416 1.415-.615 3.354 1.385 3.354 1.398 0 1.968-.543 1.75-1.667-.357-1.841-2.064-2.759-3.135-1.687m-12.064 1.892c-.342.891.062 1.788.96 2.133 1.867.716 3.911-1.061 2.97-2.584-.981-1.588-3.248-1.328-3.93.451m-10.957.129C520.29 152.043 521.073 154 523 154c1.333 0 2-.667 2-2 0-1.927-1.957-2.71-3.333-1.333m-10.221 1.42c-1.03 1.668 1.287 3.58 2.667 2.2 1.154-1.154.432-3.287-1.113-3.287-.485 0-1.184.489-1.554 1.087m39.29 2.511c-.974.973.363 3.402 1.871 3.402.766 0 1.393-.9 1.393-2 0-1.883-1.948-2.719-3.264-1.402M528 158c0 1.111.667 2 1.5 2s1.5-.889 1.5-2-.667-2-1.5-2-1.5.889-1.5 2m11.446-.913c-1.03 1.668 1.287 3.58 2.667 2.2 1.154-1.154.432-3.287-1.113-3.287-.485 0-1.184.489-1.554 1.087" fill-rule="evenodd"/>
<path fill="#1f3f8a" stroke="#1f3f8a" d="M511.858 40.006c-26.926 7.226-50.787 28.123-71.567 62.678-8.756 14.561-9.761 23.638-4.048 36.567 1.872 4.235 1.973 5.303.928 9.826-5.037 21.824 9.386 39.923 31.815 39.923 4.33 0 6.391.572 9.379 2.602l3.829 2.602-2.977 3.148c-3.857 4.079-3.976 4.334-10.735 23.148-3.161 8.8-6.174 17.125-6.694 18.5-.906 2.391-1.077 2.239-3.939-3.5-10.584-21.228-32.913-36.448-53.54-36.493-4.785-.01-4.743-.572 1.282-17.152 4.936-13.585 10.748-30.016 16.539-46.76 3.838-11.095 1.664-25.286-4.842-31.604-7.245-7.036-10.341-7.283-44.788-3.576-33.94 3.652-37.216 4.225-41.967 7.339-4.016 2.633-8.638 10.054-11.053 17.746-2.258 7.194-2.958 7.838-5.717 5.252-4.495-4.213-18.919-10.35-32.613-13.876-52.262-13.455-111.657 7.008-144.035 49.624-26.702 35.145-32.189 72.356-16.084 109.075 5.715 13.031 16.016 26.963 29.521 39.925 29.368 28.187 31.99 32.451 26.404 42.932-6.503 12.199-16.755 17.57-33.456 17.525-10.507-.029-11.336-.19-18.5-3.591-15.32-7.273-24.44-20.972-27.986-42.036-2.373-14.097-2.973-15.723-7.461-20.211-9.916-9.915-28.953-6.862-34.842 5.588-.857 1.811-3.229 6.893-5.271 11.293-41.43 89.244-40.575 87.084-37.985 95.995 4.909 16.884 42.891 39.368 78.545 46.496 43.315 8.659 90.811-.625 127.947-25.01 5.01-3.29 9.594-5.981 10.187-5.981s2.783-1.35 4.866-3c3.07-2.432 4.738-3 8.807-3 2.761 0 12.596-.89 21.856-1.977 9.261-1.088 26.062-2.895 37.337-4.017 20.457-2.034 29.814-3.777 32.57-6.064 1.141-.947 2.742-.937 7.374.046 5.93 1.259 25.38-.335 79.556-6.516 14.825-1.692 44.299-4.706 68.5-7.005 21.043-2 27.476-3.105 32.778-5.633 3.904-1.861 4.824-1.933 10.5-.817 5.311 1.043 9.15.91 26.222-.907 64.217-6.838 66.267-7.15 71.289-10.849 9.356-6.891 11.566-18.817 5.448-29.403-4.838-8.372-3.623-14.902 9.554-51.358 2.187-6.05 8.549-23.6 14.139-39 5.59-15.4 10.33-28.501 10.532-29.112.203-.612 4.57-2.12 9.704-3.352 20.613-4.945 39.131-21.491 44.422-39.692C727.994 181.19 717.504 169 700.057 169c-6.095 0-6.051.832-.715-13.687 10.463-28.465 7.753-40.853-9.812-44.84-10.08-2.288-12.973-.736-37.795 20.277-14.667 12.417-17.48 14.158-16.151 10 3.647-11.41 3.182-19.397-1.6-27.502-1.842-3.121-1.856-3.571-.321-10.368 2.924-12.949-1.155-26.679-9.857-33.176-3.115-2.325-16.575-5.685-22.817-5.696-3.967-.007-6.022-1.004-17.031-8.264-25.518-16.828-48.966-21.946-72.1-15.738M516 60.469c-15.941 4.57-32.325 17.821-47.751 38.623-15.487 20.884-17.923 29.923-9.269 34.398 1.606.83 4.515 1.51 6.464 1.51h3.543l-4.648 7.25c-8.267 12.895-9.058 16.794-4.453 21.949 2.694 3.015 3.449 3.274 11.311 3.885 10.078.784 14.594 2.63 25.306 10.344 31.549 22.717 62.128 21.407 88.349-3.786C600.578 159.534 617 135.676 617 127.94c0-5.081-5.836-10.261-11.005-9.768-2.197.209-3.995.305-3.995.212 0-.092 2.489-4.133 5.532-8.98 10.434-16.619 8.159-22.984-8.733-24.433-10.316-.884-11.593-1.402-23.493-9.527C553.547 60.587 533.364 55.491 516 60.469m-135 59.553c-8.525.982-20.744 2.327-27.153 2.99l-11.652 1.206-5.235 14.641c-2.879 8.053-7.019 19.591-9.199 25.641-2.181 6.05-6.344 17.75-9.252 26-2.908 8.25-13.842 38.85-24.297 68a74254.49 74254.49 0 0 0-21.861 61l-2.851 8-.668-9c-1.731-23.309-10.578-38.608-37.878-65.5-23.847-23.491-29.281-32.247-29.189-47.025.19-30.369 52.907-43.543 77.083-19.262 6.745 6.774 9.092 11.267 12.816 24.537 1.505 5.363 3.021 9.75 3.369 9.75.807 0 21.973-56.952 21.97-59.113-.004-2.108-8.297-9.82-15.545-14.457-44.999-28.786-118.095-11.771-150.323 34.991-28.149 40.842-23.553 80.417 13.541 116.598 37.057 36.145 41.907 46.509 31.709 67.768-15.599 32.517-65.175 40.258-95.3 14.879-13.461-11.339-22.385-28.786-24.593-48.078-1.173-10.251-1.876-10.93-4.748-4.588-1.369 3.025-8.453 18.325-15.742 34C35.116 407.916 32 414.842 32 416.353c0 3.875 22.415 18.649 37.577 24.768 59.267 23.918 135.758 2.605 173.601-48.371 5.515-7.428 6.307-8.105 4.687-4-3.294 8.343-7.764 21.684-7.391 22.057.518.519 79.675-7.811 80.826-8.505.44-.265-.438-2.105-1.951-4.089-3.971-5.206-4.496-17.311-1.344-30.966 3.89-16.851 24.018-71.643 32.051-87.247 13.849-26.903 38.192-31.98 38.077-7.94-.032 6.573-2.42 13.895-24.115 73.94-2.285 6.325-7.061 19.825-10.613 30-3.552 10.175-6.913 19.571-7.469 20.879-1.399 3.292-1.234 3.336 8.191 2.187 4.605-.561 13.548-1.487 19.873-2.057 26.402-2.38 51.563-5.323 52.446-6.133.581-.533.304-1.353-.717-2.122-6.352-4.787-5.962-27.335.792-45.754 2.466-6.726 14.026-49.46 15.554-57.5 9.425-49.583-26.528-80.014-69.144-58.525l-7.808 3.937 2.322-6.206c2.46-6.572 16.756-46.09 28.512-78.811 4.438-12.355 7.043-21.138 7.043-23.75 0-4.941 1.346-4.812-22-2.123m297.913 15.287c-34.099 31.159-75.779 59.099-98.057 65.734-6.59 1.962-27.211 4.593-67.235 8.578-9.907.986-18.4 2.301-19.048 2.949-.643.643-2.8 5.615-4.794 11.049-4.54 12.373-28.082 78.12-31.826 88.881-1.531 4.4-5.779 16.325-9.439 26.5a6498.995 6498.995 0 0 0-12.597 35.38l-5.94 16.881 7.262-.676c3.993-.372 13.111-1.31 20.261-2.084 7.15-.774 22.337-2.407 33.75-3.629 15.448-1.653 20.75-2.559 20.75-3.546 0-.729-.41-1.326-.911-1.326-2.284 0-5.089-8.722-5.089-15.826 0-12.922 4.453-28.439 21-73.174 3.966-10.725 7.79-21.3 8.495-23.5 2.968-9.252 17.585-48.98 18.275-49.67.414-.414 2.081 1.706 3.706 4.709 3.428 6.337 2.773 6.212 21.024 4.024 6.05-.726 11.169-1.167 11.376-.981.393.352-4.812 15.421-21.901 63.418a25793.476 25793.476 0 0 0-26.319 74.223c-3.054 8.648-5.138 15.979-4.631 16.292.887.549 77.07-7.162 79.823-8.079.964-.321.49-1.426-1.663-3.879-7.75-8.826-4.661-28.427 11.276-71.557 3.15-8.525 10.676-29.225 16.724-46s11.144-30.652 11.326-30.837c.181-.185 3.853-.762 8.159-1.281 19.564-2.36 31.199-9.409 39.144-23.715l2.314-4.167h-2.435c-1.339 0-9.13.682-17.314 1.516-20.536 2.093-20.902 2.111-20.7.984.098-.55 4.938-14.25 10.755-30.444 5.817-16.195 10.237-29.781 9.822-30.192-.416-.41-2.82 1.14-5.343 3.445" fill-rule="evenodd"/>
</svg>