<!DOCTYPE svg PUBLIC "-//W3C//DTD SVG 1.1//EN" "http://www.w3.org/Graphics/SVG/1.1/DTD/svg11.dtd">
<svg xmlns="http://www.w3.org/2000/svg" viewBox="0 0 420 300">
<path fill="#fbfbfa" stroke="#fbfbfa" d="M265.761 34.896C233.669 54.63 224.452 60.399 224 61.031c-.275.385-1.465 1-2.645 1.368-1.887.589-3.015-.748-9.375-11.115-8.738-14.243-7.804-13.23-9.816-10.655L186 61.314c-7.975 10.206-14.757 18.586-15.071 18.621-.463.053-11.776-12.355-21.165-23.214-10.372-11.995-23.685-26.152-24.107-25.636-.186.228-.93 2.665-1.652 5.415-1.704 6.488-1.92 6.816-3.582 5.436-1.078-.895-1.499-.849-1.834.201-.432 1.351-3.359 11.437-5.693 19.613-1.417 4.966-1.63 5.001-11.137 1.826-19.218-6.418-56.589-18.008-58.203-18.051-.519-.014-.822 2.595-.674 5.798l.27 5.822-4.576-.686c-4.043-.606-4.576-.469-4.577 1.177-.001 1.025 1.139 21.048 2.533 44.495l2.535 42.631-9.566 19.813C20.448 183.326 19.251 187 22.19 187c1.953 0 33.409 8.134 34.814 9.002 1.288.796-.943 18.608-8.014 63.97-1.583 10.16-2.686 18.666-2.449 18.902.236.236 4.374-1.385 9.194-3.603 4.821-2.219 17.54-7.971 28.265-12.782 10.725-4.812 21.75-9.795 24.5-11.072 13.451-6.25 31.831-14.405 31.948-14.175.073.142 3.22 6.895 6.995 15.008 3.774 8.112 7.072 14.75 7.329 14.75.256 0 4.674-3.419 9.817-7.599 5.143-4.179 11.622-9.241 14.397-11.25 2.775-2.008 8.389-6.267 12.475-9.465l7.431-5.815 31.535 21.065C247.772 265.521 262.196 275 262.481 275c.286 0 .519-1.173.519-2.607 0-1.899.405-2.452 1.49-2.035 2.007.77 2.162-.296 3.538-24.358.646-11.275 1.356-20.691 1.58-20.923.389-.407 21.439 10.124 69.067 34.55C350.872 265.882 361.052 271 361.297 271c1.615 0 1.495-9.499-.244-19.3-5.979-33.696-7.052-40.033-6.814-40.258.144-.136 7.461-2.971 16.261-6.302 27.113-10.26 27.991-10.676 28.069-13.307.037-1.283.409-3.085.827-4.005.417-.919.29-2.546-.282-3.615-.945-1.765-11.375-29.015-14.818-38.713-.781-2.2-2.943-7.873-4.804-12.606l-3.384-8.607 2.078-6.893c11.551-38.32 19.374-67.626 18.176-68.085-.874-.336-1.039-1.071-.485-2.159 1.238-2.428 2.189-8.156 1.348-8.114-.399.019-3.2.667-6.225 1.44-14.294 3.649-33.441 8.611-42.5 11.014-15.881 4.211-43.672 11.554-47.5 12.551-4.619 1.203-8 1.193-8-.022 0-.539-1.829-4.927-4.064-9.75a2598.082 2598.082 0 0 1-7.69-16.769c-1.994-4.4-3.878-8.272-4.186-8.604-.308-.333-5.393 2.367-11.299 6M259.5 57.347c-14.446 7.983-30.405 16.655-35.259 19.159-2.892 1.492-5.506 3.113-5.809 3.603-1.16 1.879-3.357.745-5.54-2.859-1.249-2.062-3.536-5.315-5.082-7.228-1.545-1.913-2.81-3.995-2.81-4.627 0-4.129-2.961-3.297-8.244 2.317C186.05 79.088 180.461 85.37 175.149 92l-2.003 2.5-12.323-11.948c-6.778-6.572-15.604-15.306-19.613-19.41-4.111-4.207-7.646-7.064-8.104-6.552-.447.501-2.732 6.872-5.078 14.16-2.346 7.287-4.327 13.25-4.403 13.25-.076 0-1.71-.465-3.632-1.034-1.921-.568-7.543-2.123-12.493-3.454L93 75.614c-3.025-.813-11.101-3.084-17.948-5.046-16.479-4.724-16.263-4.74-15.546 1.182.317 2.612 1.433 18.461 2.481 35.219 1.84 29.426 1.843 30.574.095 33.5C57.831 147.586 48 167.043 48 168.338c0 .791.99 1.422 2.25 1.435 1.237.012 7.736 1.419 14.442 3.125 6.705 1.706 13.117 3.102 14.25 3.102 2.337 0 2.462.912 1.05 7.674C76.699 199.439 70.143 242 71.008 242c.851 0 12.045-4.537 18.97-7.688 3.012-1.371 7.512-3.294 10-4.272 8.226-3.235 32.369-13.147 41.874-17.191 5.143-2.188 9.619-3.711 9.947-3.383.328.327 3.096 5.736 6.153 12.019l5.556 11.424 8.136-5.704c4.475-3.138 13.167-9.228 19.317-13.535 6.15-4.306 11.801-7.592 12.559-7.301 1.222.469 7.405 4.219 35.475 21.513 4.122 2.54 8.256 5.068 9.188 5.618.931.55 3.313 2.007 5.291 3.238 4.471 2.78 4.099 4.076 5.587-19.488.668-10.588 1.546-19.25 1.952-19.25.405 0 5.181 2.072 10.612 4.605a7778.075 7778.075 0 0 0 15.875 7.38c3.3 1.526 9.6 4.454 14 6.506 8.593 4.007 27.939 12.89 35.847 16.459 2.666 1.204 5.041 1.995 5.278 1.758.237-.237-1.342-9.38-3.508-20.319-2.165-10.939-4.09-20.974-4.277-22.3-.308-2.182.373-2.661 7.16-5.035l20.25-7.079c7.012-2.45 12.75-5.002 12.75-5.67 0-.668-1.317-4.048-2.926-7.51-1.609-3.462-6.335-14.134-10.502-23.714l-7.576-17.419 4.097-13.081c7.95-25.387 12.052-38.144 14.102-43.864 1.14-3.18 1.834-6.021 1.542-6.314-.583-.583-57.48 11.942-81.737 17.993-5.225 1.304-9.725 2.233-10 2.066-.275-.167-3.65-6.614-7.5-14.326-3.85-7.712-7.45-14.041-8-14.064-.55-.023-3.7 1.451-7 3.275m-62.875 38.122c-25.35 9.036-21.303 61.881 5.062 66.097 20.977 3.354 37.188-32.3 22.58-49.661-4.642-5.517-14.988-8.784-18.067-5.705-3.041 3.041-.318 9.8 3.948 9.8 4.719 0 7.852 5.232 7.852 13.112v7.265l-2.102-2.256c-1.173-1.26-2.756-2.006-3.582-1.689-.814.312-4.733.568-8.709.568-5.868 0-7.638.38-9.395 2.017l-2.165 2.017-.65-2.59C188.588 123.256 194.992 106 201.952 106c6.354 0 9.626-7.081 4.825-10.443-2.692-1.886-5.051-1.906-10.152-.088m46.405.114c-8.679 3.765-15.664 19.383-10.83 24.217 1.699 1.699 6.369 1.488 8.229-.371 1.864-1.865 1.842-2.32.522 10.715-1.246 12.305-3.177 20.343-5.505 22.916-3.373 3.727-1.735 8.889 3.3 10.399 4.446 1.333 10.362-8.378 11.854-19.459l.606-4.5 6.647-.043c21.416-.138 33.602-28.015 17.142-39.217-8.07-5.492-24.516-7.888-31.965-4.657m-125.836 4.342c-25.621 9.49-36.513 25.376-30.218 44.075 3.061 9.092 5.076 11 11.622 11 9.267 0 14.785-7.518 11.034-15.035-1.557-3.122-1.236-13.094.363-11.271 1.424 1.623 5.91 14.252 11.476 32.306 3.137 10.175 6.384 19.033 7.217 19.684 1.249.977.847 1.238-2.306 1.5-4.912.406-7.463 4.149-5.606 8.223 2.821 6.193 31.794.26 43.929-8.995 1.819-1.388 3.824-2.203 4.455-1.813.735.454.875.267.39-.519-.443-.716.098-2.141 1.296-3.416 10.164-10.82 8.961-43.115-2.211-59.329-3.866-5.612-14.578-13.322-22.058-15.878-7.885-2.694-22.816-2.964-29.383-.532m130.012 6.123c-1.262.506-2.95 2.488-3.75 4.404-1.941 4.644-1.848 6.553.177 3.661 1.311-1.871 2.27-2.228 4.856-1.808 2.899.47 3.388.176 4.867-2.925.904-1.896 1.644-3.658 1.644-3.914 0-.791-5.373-.39-7.794.582M120 111.278c-6.469 2.347-15 7.313-15 8.732 0 2.163 2.857 3.016 3.484 1.042.845-2.666 4.102-4.373 6.968-3.653 2.913.731 6.573 8.832 13.598 30.101 2.907 8.8 5.322 16.072 5.367 16.161.046.088 3.252-.904 7.124-2.204 3.873-1.301 11.237-2.924 16.365-3.606l9.324-1.242-.484-8.054c-.776-12.889-4.62-23.228-10.778-28.988-10.449-9.774-23.553-12.794-35.968-8.289m175.252 8.771c-7.204 3.66-14.185 14.527-14.23 22.151-.014 2.372-1.048 5.243-2.879 8-8.904 13.4-7.93 23.825 2.928 31.349 4.358 3.02 14.503 4.528 20.44 3.038 3.609-.906 10.17-7.136 10.759-10.217 1.092-5.714-6.017-8.397-10.266-3.874-2.594 2.761-3.697 2.681-2.197-.16.533-1.01 1.222-3.861 1.53-6.336.309-2.475.584-4.55.612-4.611.028-.062 1.063.077 2.301.308 3.382.631 6.078-1.867 5.974-5.535-.119-4.157-.614-4.79-4.33-5.533l-3.148-.63 4.127-4.477c4.275-4.638 4.822-6.563 3.131-11.011-.971-2.554-.941-2.58 1.223-1.065 4.899 3.432 10.207 1.166 9.595-4.096-.868-7.462-16.48-11.92-25.57-7.301M199.5 168.503c-18.868 3.566-27.887 9.205-24.06 15.046 1.859 2.836 2.993 2.995 6.888.964 17.671-9.217 46.072-9.808 70.94-1.477 10.368 3.474 13.28 3.678 14.697 1.029 1.305-2.439-.127-6.52-2.638-7.519-20.969-8.342-47.251-11.553-65.827-8.043m3.836 16.418c-9.772 2.653-15.336 6.242-15.336 9.892 0 5.593 4.546 6.792 10.481 2.764 7.082-4.805 21.709-5.889 39.533-2.929 8.059 1.338 10.212 1.409 11.455.378 1.661-1.379 1.994-4.748.674-6.829-2.755-4.343-34.655-6.576-46.807-3.276" fill-rule="evenodd"/>
<path fill="#e4e1e4" stroke="#e4e1e4" d="M118.148 45.147c-4.553 14.208-6.126 21.249-4.917 22.017 2.184 1.386 2.661.957 3.792-3.414a1094.47 1094.47 0 0 1 3.127-11.627c1.786-6.504 1.851-7.551.549-8.852-1.301-1.302-1.603-1.08-2.551 1.876m276.359 6.103c-.236.688-4.516 16.325-9.51 34.75s-9.337 34.4-9.651 35.5c-.376 1.318-.235 1.659.413 1 .541-.55 3.032-8.2 5.537-17 2.504-8.8 7.062-24.726 10.128-35.39C394.491 59.445 397 50.557 397 50.36c0-.959-2.117-.203-2.493.89m-124.354 4.634C268.25 57.09 281.38 82 283.919 82c3.359 0 2.997-1.388-3.687-14.135-6.661-12.702-7.453-13.645-10.079-11.981M34.356 60.613c.319 2.688 1.572 22.887 2.785 44.887l2.205 40-9.673 19.906C24.353 176.354 20 185.403 20 185.514c0 .111 8.438 2.363 18.75 5.005 10.313 2.642 19.061 5.068 19.44 5.392.38.324-1.716 16.6-4.657 36.169-2.94 19.569-5.67 38.169-6.066 41.334l-.719 5.755 4.042-2.062c4.852-2.475 3.871 1.769 10.199-44.107 2.769-20.075 5.287-38.146 5.595-40.158l.561-3.658-5.323-1.538c-2.927-.846-10.497-2.929-16.822-4.63-15.466-4.158-15.002-3.993-14.988-5.333.006-.651 4.084-9.958 9.06-20.683l9.049-19.5-1.569-28c-3.162-56.413-2.565-50.554-5.254-51.577-7.291-2.772-7.578-2.661-6.942 2.69m105.106-2.493c-.667 2.101 1.129 4.17 16.144 18.599 17.7 17.01 18.069 17.292 19.098 14.609.471-1.226-2.001-4.169-9.281-11.049-5.458-5.158-13.363-12.786-17.567-16.95-7.273-7.203-7.681-7.457-8.394-5.209m66.124 5.741c-.293.474 1.752 4.186 4.544 8.25 6.163 8.972 5.468 8.257 7.33 7.543 1.224-.47.351-2.253-4.207-8.588-5.734-7.968-6.658-8.837-7.667-7.205m171.749-.144c-1.771.222-3.455 1.142-3.824 2.09-1.853 4.763-18.511 58.305-18.511 59.5 0 1.305 3.226 9.001 15.963 38.082 5.179 11.824 5.36 13.429 1.537 13.634-2.234.12-36.949 12.825-37.214 13.62-.157.471 1.683 10.758 4.089 22.857 2.406 12.1 4.255 22.139 4.108 22.309-.261.302-10.779-4.468-58.689-26.617l-23.706-10.959-.517 4.134c-.524 4.188-2.571 32.081-2.571 35.029 0 2.492-1.142 2.047-12.18-4.751-31.778-19.569-42.423-25.945-43.32-25.947-.55-.002-9.404 5.968-19.676 13.264-19.992 14.202-20.036 14.256-15.716 19.406.4.477 6.658-3.348 13.907-8.5l19.739-14.032 6.56-4.664 2.593 1.829c1.426 1.007 10.918 6.878 21.093 13.048s21.65 13.17 25.5 15.555c3.85 2.384 7.099 4.012 7.22 3.616.121-.396.898-9.896 1.726-21.112.828-11.216 1.629-20.514 1.78-20.662.15-.148 8.824 3.77 19.274 8.707 10.45 4.937 20.8 9.81 23 10.829 2.2 1.019 9.625 4.516 16.5 7.771 17.964 8.506 24.996 11.594 25.37 11.143.181-.218-1.613-10.071-3.986-21.896-2.373-11.825-4.325-22.4-4.338-23.5-.019-1.7 3.053-3.107 20.466-9.371 11.268-4.054 20.488-7.825 20.488-8.381 0-.555-4.8-12.191-10.666-25.856l-10.665-24.847 3.284-10.772A2397.604 2397.604 0 0 1 373.217 95c2.189-6.875 5.062-16.178 6.383-20.673 1.322-4.495 2.676-8.883 3.009-9.75.378-.987.097-1.517-.752-1.417-.746.088-2.781.339-4.522.557M244.664 95.223C232.592 98.421 225.68 121 236.772 121c2.515 0 5.228-3.514 5.228-6.772 0-3.07 2.512-7.827 4.545-8.607 8.14-3.124 25.455 3.085 25.455 9.128 0 6.081-8.718 13.735-15.691 13.775l-4.192.024.584-6.25c.62-6.635-.171-8.665-3.737-9.597-4.601-1.203-6.078 1.966-7.567 16.228-1.564 14.981-2.714 20.157-5.488 24.689-2.32 3.79-2.405 5.744-.338 7.811 5.451 5.451 12.688-3.606 14.851-18.585l.672-4.657 3.495.965c16.051 4.432 34.286-20.164 25.167-33.945-5.37-8.115-23.104-13.16-35.092-9.984m-50.399 1.85c-18.241 9.136-19.08 48.081-1.3 60.403 9.104 6.309 17.992 5.274 26.301-3.063 16.052-16.104 11.831-45.49-7.043-49.031-6.969-1.307-9.957 7.168-3.445 9.777 6.053 2.424 7.196 3.265 8.677 6.387 1.847 3.894 1.875 9.487.073 14.954l-1.318 4-.105-3.231c-.13-4.009-2.334-4.736-12.211-4.029-4.813.344-7.571 1.062-8.981 2.339-1.956 1.77-2.001 2.488-.432 6.921.572 1.618.499 1.713-.387.5-2.009-2.753-3.243-9.19-3.203-16.715.064-12.259 5.536-21.285 12.904-21.285 3.254 0 5.723-3.624 4.618-6.78-1.294-3.7-7.97-4.241-14.148-1.147m-74.141 2.439c-13.293 3.738-27.181 13.723-31.825 22.88-4.804 9.473-2.056 27.808 4.701 31.372 7.157 3.775 17-1.608 17-9.296 0-7.685-6.883-10.204-10.129-3.708l-1.628 3.261-1.18-4.685c-2.644-10.501 2.15-18.055 16.163-25.462 8.096-4.28 8.479-4.374 17.795-4.374 22.285 0 34.564 13.423 35.776 39.111l.429 9.111-7.363.497c-4.375.295-11.015 1.731-16.363 3.54-4.95 1.675-9.053 2.977-9.118 2.893-.065-.084-2.883-8.39-6.262-18.459C120.117 122.347 117.941 118 114.006 118c-6.16 0-6.677 3.443-2.123 14.147 2.188 5.144 6.53 17.678 9.649 27.853 3.686 12.023 6.375 19.113 7.68 20.25 1.906 1.66 1.914 1.756.149 1.865-1.024.064-2.311.22-2.861.348-.55.128-1.799.301-2.775.385-2.773.238-4.111 4.914-2.229 7.787 4.43 6.761 36.28-2.315 47.501-13.537 10.169-10.168 11.714-30.758 3.881-51.696-7.122-19.033-32.628-31.551-52.754-25.89m177.501 19.907c-7.855 2.901-15.193 13.135-16.336 22.785-.4 3.379-1.586 6.604-3.298 8.967C266.315 167.289 275.247 185 295.05 185c11.059 0 21.358-10.799 14.727-15.443-3.132-2.195-4.282-1.974-7.844 1.508-3.17 3.099-5.366 3.366-2.861.349.772-.931 1.357-3.957 1.357-7.025V159h3.585c8.098 0 8.609-8.498.626-10.409l-2.859-.684 4.109-4.151c4.627-4.673 5.499-9.514 2.36-13.095-1.594-1.818-1.379-1.791 2.407.303 9.941 5.499 14.968-3.595 5.154-9.325-5.487-3.204-13.027-4.125-18.186-2.22m-95.845 49.064c-8.175 1.337-22.554 6.255-25.545 8.737-4.079 3.385.788 9.011 5.99 6.923 24.089-9.672 43.032-10.058 70.989-1.446 12.655 3.898 14.786 3.711 14.786-1.296 0-8.384-42.84-16.74-66.22-12.918m-152.788 3.532c-1.301 2.43-2.31 2.021 14.637 5.945 15.11 3.499 15.952 3.575 16.744 1.51.782-2.038-1.238-2.818-16.731-6.453-15.253-3.579-13.341-3.448-14.65-1.002m86.821 8.668c.721.289 1.584.253 1.916-.079.332-.332-.258-.568-1.312-.525-1.165.048-1.402.285-.604.604m70.204 3.81c-13.109 2.985-20.568 9.031-16.579 13.439 2.317 2.56 3.999 2.602 7.408.186 7.87-5.579 26.175-7.193 42.282-3.728 4.196.902 8.362 1.359 9.259 1.015 2.303-.884 3.204-5.242 1.448-6.999-3.961-3.961-32.438-6.504-43.818-3.913M375 196.954c-19.766 7.963-21.5 8.859-21.5 11.104 0 3.176-.727 3.359 23.875-6.018 23.931-9.121 22.171-8.148 20.453-11.306l-1.328-2.442-21.5 8.662m-263.5 28.907-38 15.793-.924 3.665c-1.244 4.931-.704 5.161 5.55 2.365 2.956-1.321 20.899-8.829 39.874-16.685 18.975-7.855 34.915-14.656 35.423-15.113 1.212-1.092-.965-5.897-2.652-5.852-.699.019-18.371 7.141-39.271 15.827M269 220.37v3.37l33.75 17.109c18.563 9.41 39.237 19.919 45.943 23.354 12.619 6.462 13.617 6.7 12.654 3.016-.53-2.028-5.343-4.889-33.347-19.821-1.375-.733-10.6-5.691-20.5-11.018-41.169-22.15-38.5-21.04-38.5-16.01m-72.283 12.206c-7.149 5.934-9.369 8.693-2.823 3.508 2.142-1.696 4.388-3.084 4.992-3.084.604 0 14.89 9.225 31.747 20.5s31.036 20.5 31.508 20.5c.473 0 .859-1.279.859-2.843 0-2.424-1.217-3.702-8.25-8.667-31.291-22.087-50.506-35.49-50.879-35.49-.24 0-3.459 2.509-7.154 5.576M134 236.836c-6.325 3.136-21.283 10.386-33.239 16.11-24.517 11.738-28.577 14.442-6.687 4.452C118.902 246.068 139.32 237 140.004 237c.361 0 3.726 6.525 7.479 14.5 7.341 15.602 7.177 15.406 10.582 12.648l2.287-1.852-2.388-5.898c-5.186-12.803-10.746-24.822-11.583-25.037-.485-.124-6.056 2.339-12.381 5.475m52.872 3.914c-1.243 1.586-1.208 1.621.378.378.963-.755 1.75-1.543 1.75-1.75 0-.823-.821-.294-2.128 1.372" fill-rule="evenodd"/>
<path fill="#7b7337" stroke="#7b7337" d="M118.078 46.685c-.569 2.098-2.117 7.527-3.44 12.065-2.156 7.395-2.233 8.25-.742 8.25 1.394 0 6.478-15.204 7.482-22.375.408-2.92-2.43-1.148-3.3 2.06M394.792 52c-.296 1.375-2.651 10.082-5.233 19.349s-4.531 17.013-4.331 17.213c.656.655 11.005-36.364 10.548-37.73-.245-.733-.687-.207-.984 1.168M35.003 60.32c.002 2.299 1.116 22.274 2.476 44.389l2.472 40.21-9.475 19.657C25.264 175.388 21 184.559 21 184.956c0 .397 8.434 2.853 18.742 5.459 10.309 2.605 18.925 4.919 19.148 5.142.223.222-2.323 18.751-5.657 41.174s-5.896 40.935-5.694 41.139c.202.203 1.85-.495 3.664-1.551L54.5 274.4l5.676-39.45c3.122-21.698 5.71-40.828 5.75-42.512l.074-3.063-17.75-4.825c-9.763-2.655-18.137-5.173-18.61-5.598-.472-.424 3.24-9.817 8.25-20.873 10.674-23.554 9.961-17.045 7.17-65.447-1.999-34.657-1.901-34.152-6.877-35.58L35 56.14l.003 4.18m235.551-3.408c-.346.56 1.843 5.646 4.864 11.303 6.821 12.77 7.707 13.985 9.413 12.907 1.03-.65-.11-3.514-5.04-12.661-6.191-11.485-7.931-13.661-9.237-11.549M139.67 58.419c-.845 2.202 32.875 34.834 34.265 33.159.821-.989-2.993-5.178-16.326-17.931-11.747-11.236-17.573-16.182-17.939-15.228m66.723 7.164c1.16 3.022 10.015 14.283 10.834 13.777.452-.28-.443-2.163-1.99-4.184-1.547-2.022-3.921-5.36-5.275-7.419-2.477-3.766-4.699-5.12-3.569-2.174m169.879-.88c-2.357.455-1.809-1.066-16.715 46.44l-4.595 14.644 10.581 24.171c5.82 13.293 10.423 24.643 10.231 25.221-.193.577-8.905 4.066-19.36 7.752-10.455 3.685-19.481 6.992-20.057 7.348-.696.43.466 8.229 3.454 23.195 2.476 12.4 4.275 22.773 3.998 23.05-.277.277-5.635-1.926-11.906-4.895a3771.71 3771.71 0 0 0-24.403-11.417c-7.15-3.309-20.382-9.441-29.404-13.627-9.023-4.185-16.511-7.492-16.641-7.347-.129.144-.901 9.166-1.715 20.048-.813 10.882-1.702 20.01-1.976 20.283-.273.274-7.645-3.856-16.381-9.177a12875.03 12875.03 0 0 0-27.28-16.568l-11.398-6.895-4.102 2.693C191.921 214.008 165 233.187 165 233.561c0 1.747 2.629 5.411 3.612 5.034.691-.265 9.397-6.357 19.347-13.538C197.91 217.876 206.558 212 207.178 212c.621 0 6.347 3.307 12.725 7.349 22.644 14.349 42.207 25.874 42.841 25.24.588-.588 3.087-29.694 3.205-37.339.028-1.787.5-3.25 1.049-3.25 1.035 0 29.857 13.172 52.502 23.995 15.025 7.18 30.72 14.118 31.095 13.744.141-.142-1.784-10.547-4.279-23.122-3.697-18.633-4.287-23.017-3.189-23.696 1.65-1.019 34.299-12.564 38.123-13.479 3.421-.819 3.938 1.28-4.355-17.689-3.907-8.939-8.89-20.345-11.073-25.346l-3.969-9.093 9.602-30.907c5.282-16.999 9.845-31.694 10.141-32.657.554-1.8-.428-1.993-5.324-1.047m7.807 26.88c.048 1.165.285 1.402.604.605.289-.722.253-1.585-.079-1.917-.332-.332-.568.258-.525 1.312m-137.077 3.532c-8.005 1.54-12.682 6.56-14.539 15.609-1.276 6.214-.648 8.765 2.395 9.731 3.835 1.217 7.142-2.462 7.142-7.946 0-4.946 4.143-8.006 10.656-7.871 6.27.131 14.746 2.598 17.594 5.121 6.209 5.502-3.375 19.241-13.423 19.241h-5.103l.657-6.41c.707-6.903-.521-9.59-4.381-9.59-3.121 0-4.827 2.728-5.471 8.749-2.536 23.709-3.352 27.677-6.668 32.405-3.314 4.727-.603 9.751 4.562 8.455 4.256-1.069 7.13-7.373 10.107-22.175.376-1.866.981-2.025 6.271-1.642 19.283 1.395 33.322-25.255 19.452-36.926-5.697-4.794-21.029-8.332-29.251-6.751m-51.511 1.725c-20.575 9.474-19.912 52.797.953 62.274 18.19 8.262 37.885-16.01 31.499-38.819-3.083-11.01-19.011-19.507-21.972-11.719-1.347 3.542-.36 5.004 4.678 6.928 5.957 2.275 8.361 6.187 8.291 13.496-.133 14.055-10.05 24.718-18.793 20.208-14.775-7.623-12.785-41.631 2.583-44.129 7.436-1.209 7.563-9.279.156-9.832-1.862-.139-5.19.578-7.395 1.593M124.5 99.113c-13.473 1.882-31.141 13.366-36.074 23.448-4.852 9.919-1.536 27.752 5.81 31.237 6.388 3.03 15.764-2.451 15.764-9.215 0-2.931-2.955-7.583-4.816-7.583-1.782 0-5.184 3.28-5.184 4.998 0 3.529-1.889 3.065-2.94-.722-3.531-12.713 1.212-20.383 17.743-28.697 17.739-8.92 40.625-1.578 48.069 15.421 3.681 8.408 6.315 25.674 4.363 28.601-.404.606-3.769 1.406-7.478 1.777-3.708.372-10.862 2.022-15.898 3.668-5.035 1.645-9.365 2.781-9.623 2.523-.258-.257-3.073-8.265-6.255-17.794-8.839-26.463-11.14-30.39-16.403-27.992-3.153 1.436-3.381 4.715-.696 10.007 2.125 4.189 9.494 25.56 14.12 40.951 3.279 10.91 5.559 13.263 10.103 10.426 1.04-.65 2.04-.741 2.365-.216.855 1.383-.454 1.837-7.505 2.605-7.353.801-8.965 1.708-8.965 5.043 0 5.602 6.669 6.448 21.5 2.728 31.57-7.919 41.682-28.323 30.92-62.391-6.057-19.173-27.511-31.814-48.92-28.823m176.417 19.901c-9.42 1.623-18.963 13.262-19.102 23.297-.037 2.716-.851 5.18-2.365 7.165-3.691 4.84-6.45 12.307-6.45 17.457 0 15.786 23.462 23.84 35.214 12.089 4.286-4.286 4.655-6.153 1.786-9.022-2.636-2.636-3.311-2.544-7.347 1-4.318 3.791-6.012 3.895-4.066.25.848-1.587 1.372-4.832 1.24-7.673l-.228-4.922 4.422-.078c3.878-.067 4.54-.411 5.383-2.797 1.071-3.032-1.31-6.779-4.309-6.781-2.754-.001-11.513-3.714-12.517-5.305-1.381-2.19 2.084-9.335 5.963-12.293 3.929-2.997 8.395-3.073 13.339-.228 4.309 2.48 6.618 2.023 8.287-1.641 2.539-5.572-9.566-12.187-19.25-10.518m-105.325 51.073c-16.482 4.049-23.72 9.214-19.218 13.716 1.418 1.417 2.061 1.459 4.88.318 25.235-10.219 46.747-10.53 74.541-1.077 7.992 2.719 8.711 2.808 10.396 1.283 10.9-9.865-43.631-20.864-70.599-14.24m-146.133 1.98c-.928 1.501-1.352 1.348 13.541 4.869 7.425 1.755 14.287 3.418 15.25 3.695 1.215.35 1.75-.059 1.75-1.338 0-1.535-2.216-2.378-13.322-5.067-14.59-3.533-16.242-3.74-17.219-2.159m161.077 11.999C197.745 186.029 189 190.701 189 195.57c0 3.643 3.766 4.086 9.629 1.132 9.852-4.963 20.633-5.829 37.849-3.043 11.805 1.911 13.522 1.587 13.522-2.55 0-2.455-.549-3.128-3.25-3.983-9.107-2.883-27.334-4.423-36.214-3.06m182.964 5.928c-1.1.477-10.325 4.239-20.5 8.362-14.937 6.051-18.562 7.894-18.82 9.569-.437 2.842-1.182 3.042 22.311-5.993 23.882-9.185 21.89-8.157 21.033-10.857-.721-2.272-1.065-2.364-4.024-1.081m-279 35.04c-43.246 17.936-40.761 16.697-41.586 20.733-.364 1.778-.45 3.233-.192 3.233s16.739-6.807 36.624-15.127c19.885-8.321 37.954-15.831 40.154-16.689 2.2-.859 4.129-1.644 4.287-1.744.494-.312-2.075-5.443-2.698-5.389-.324.028-16.789 6.77-36.589 14.983m155.5-4.241c0 2.612 1.153 3.383 17.75 11.871 76.154 38.947 73.25 37.541 73.25 35.478 0-2.174-1.786-3.402-15.5-10.661-11.927-6.312-31.773-16.964-54.713-29.365C269.98 216.868 270 216.875 270 220.793m-69.061 9.055-2.282 1.848 31.69 21.186c30.976 20.708 34.581 22.584 32.38 16.849-.592-1.542-57.218-41.731-58.799-41.731-.389 0-1.734.832-2.989 1.848m-67.439 8.078c-13.775 6.789-14.996 8.022-1.997 2.017 4.83-2.232 9.085-3.695 9.455-3.25.37.444 3.524 7.107 7.009 14.807 3.485 7.7 6.442 14.136 6.57 14.301.128.166 1.379-.734 2.782-2l2.549-2.301-6.546-14.75c-3.6-8.113-6.833-14.747-7.184-14.744-.351.003-6.038 2.667-12.638 5.92M115 246.5c-2.475 1.325-4.05 2.41-3.5 2.41.55 0 3.025-1.085 5.5-2.41 2.475-1.325 4.05-2.41 3.5-2.41-.55 0-3.025 1.085-5.5 2.41" fill-rule="evenodd"/>
<path fill="#584a95" stroke="#584a95" d="M200.343 95.75c.253.412-.83.797-2.406.855-3.542.129-10.279 5.062-9.541 6.986.293.762.039 1.278-.563 1.147-2.8-.609-6.17 9.545-6.637 19.996-.762 17.079 4.493 28.651 15.514 34.161 22.929 11.464 44.498-33.368 23.634-49.125-4.099-3.096-9.899-4.54-12.257-3.053-2.012 1.269-2.072 6.339-.087 7.262 5.928 2.757 7.546 3.845 9.37 6.301 5.958 8.021-1.522 28.689-11.227 31.022-11.164 2.684-19.744-17.812-14.645-34.983 2.019-6.798 4.786-10.036 9.806-11.47 7.297-2.085 9.324-6.331 4.149-8.688-2.873-1.31-5.807-1.545-5.11-.411m41.69 1.514c-2.355 1.246-4.258 2.708-4.229 3.25.03.542-.582 1.342-1.359 1.777-2.945 1.648-5.129 13.219-3.107 16.459 1.767 2.832 7.655.759 7.668-2.7.041-11.456 8.947-14.817 24.136-9.108 7.438 2.796 8.934 5.838 6.062 12.329-2.823 6.384-7.831 9.893-14.345 10.054l-5.194.129.235-7.218c.225-6.958.137-7.262-2.451-8.441-4.114-1.875-6.118 1.295-6.93 10.961-1.102 13.101-3.258 24.136-5.438 27.831-2.667 4.52-2.672 8.026-.014 9.449 2.468 1.321 6.862-1.05 7.67-4.138.273-1.044.845-1.898 1.272-1.898.744 0 3.606-10.809 4.235-16 .2-1.648.806-2.357 1.78-2.081 16.731 4.753 34.992-14.792 28.189-30.17-4.569-10.33-26.885-16.458-38.18-10.485M119.5 100.407c-14.531 4.623-28.018 15.015-31.473 24.25-2.673 7.144-2.5 19.372.249 17.672.603-.372.731-.149.307.536-1.162 1.881 1.377 8.063 4.026 9.798 8.316 5.449 21.596-5.249 15.642-12.601-2.704-3.34-7.066-2.236-7.914 2.004-.852 4.26-2.627 3.119-4.064-2.613-1.999-7.978-.804-12.177 5.109-17.953 22.374-21.857 55.171-15.689 63.814 12 3.118 9.986 3.607 23.103.954 25.575-1.182 1.101-2.15 1.513-2.15.914 0-.723-2.111-.92-6.281-.588-5.98.478-12.907 2.33-9.719 2.599.915.077.622.48-.751 1.032-1.238.497-2.894.658-3.68.356-.786-.302-3.13.259-5.21 1.246-3.694 1.753-3.724 1.811-1.32 2.532l2.461.737-2.494-.201c-2.316-.188-2.961-1.595-9.028-19.702-9.815-29.298-12.025-32.983-17.05-28.435-2.499 2.262-2.442 3.048.727 10.061 1.46 3.231 4.968 12.978 7.795 21.662 2.828 8.683 5.346 15.587 5.596 15.341.25-.245.529 1.013.621 2.797.422 8.169 4.448 12.921 8.921 10.527 1.737-.93 2.763-1.002 3.519-.246 1.613 1.613-.369 2.42-7.425 3.023-6.413.548-9.682 2.339-9.682 5.303 0 8.8 31.082 2.228 45.557-9.633 12.895-10.567 13.941-41.395 2.042-60.243-8.932-14.15-33.033-22.863-49.099-17.75m-19.767 13.717c.679.684 1.486.991 1.793.683.308-.308-.247-.867-1.233-1.243-1.425-.542-1.54-.428-.56.56M219 120c.589 1.1 1.295 2 1.57 2 .275 0 .019-.9-.57-2s-1.295-2-1.57-2c-.275 0-.019.9.57 2m76.9.991c-7.544 3.987-13.9 14.255-13.9 22.454 0 2.505-.419 4.555-.931 4.555-1.596 0-8.069 14.095-8.069 17.569 0 17.328 27.003 25.711 36.762 11.414 4.429-6.49-2.345-10.782-7.8-4.942-2.237 2.394-3.537 3.038-5.22 2.587-1.233-.33-2.917-.66-3.742-.733-.825-.072-.15-.42 1.5-.773 1.704-.365 3-1.285 3-2.132 0-.819.563-1.85 1.25-2.29 1.719-1.1 1.571-2.7-.25-2.7-.825 0-1.5-.45-1.5-1s.506-.888 1.125-.75c.619.137 1.352-.375 1.63-1.139.341-.939.083-1.129-.795-.586-.93.574-1.121.337-.671-.835.379-.989-.048-2.068-1.081-2.727-1.299-.829-.359-.957 3.924-.532 6.434.638 8.217-.543 7.69-5.094-.292-2.525-.984-2.973-7.428-4.811-11.361-3.239-12.385-4.995-7.451-12.775 4.989-7.867 9.693-9.284 17.325-5.221 5.998 3.193 9.028 2.183 8.54-2.846-.656-6.781-15.748-11.005-23.908-6.693M278 154c-.589 1.1-.845 2-.57 2s.981-.9 1.57-2c.589-1.1.845-2 .57-2s-.981.9-1.57 2m9 2c0 .55.413 1 .918 1 .505 0 1.743.286 2.75.635 1.61.557 1.59.44-.168-.969-2.318-1.857-3.5-2.082-3.5-.666m-131.187 5.683c.721.289 1.584.253 1.916-.079.332-.332-.258-.568-1.312-.525-1.165.048-1.402.285-.604.604m47.166 7.374c-10.803 1.592-26.193 7.453-27.326 10.406-1.849 4.818 2.003 6.106 9.001 3.011 18.956-8.383 44.895-8.57 68.784-.495 10.696 3.616 12.354 3.71 13.516.771.688-1.738.433-2.644-1.119-3.981-2.975-2.562-20.554-7.954-26.483-8.123-2.832-.08-4.715-.416-4.185-.745 2.671-1.662-22.211-2.314-32.188-.844m72.458 2.714c.342.341 1.324.723 2.184.85.859.126 1.283-.05.942-.392-.342-.341-1.324-.723-2.184-.85-.859-.126-1.283.05-.942.392M138 174.059c0 .582.45.781 1 .441s1-.816 1-1.059-.45-.441-1-.441-1 .477-1 1.059m2.211 2.542c-.71.769-.849 1.399-.309 1.399 1.038 0 2.541-1.902 1.948-2.466-.192-.183-.93.297-1.639 1.067M143 178c0 .55.45 1 1 1s1-.45 1-1-.45-1-1-1-1 .45-1 1m62.25 7.657c-3.437.815-6.25 1.886-6.25 2.381 0 .494-.749.612-1.664.261-1.208-.464-1.44-.276-.846.686.547.884.433 1.085-.342.606-1.855-1.146-7.308 3.296-6.953 5.664.609 4.073 3.051 4.242 10.227.709 8.72-4.293 22.904-5.222 38.061-2.493 10.429 1.878 12.913 1.297 12.315-2.883-.365-2.553-5.923-4.578-13.395-4.879-2.854-.115-4.986-.547-4.737-.959.804-1.333-19.971-.62-26.416.907m7.75 52.736c0 .216.698.661 1.552.989.89.341 1.291.173.941-.393-.587-.951-2.493-1.406-2.493-.596m0 1.985c0 .207.787.995 1.75 1.75 1.586 1.243 1.621 1.208.378-.378-1.307-1.666-2.128-2.195-2.128-1.372m97 .622c-.901.582-1.025.975-.309.985.655.008 1.469-.435 1.809-.985.767-1.242.421-1.242-1.5 0m-72.986 13.414c.648.648 1.324.648 1.972 0 .647-.647.309-.985-.986-.985s-1.633.338-.986.985m-81.142 9.336c-1.243 1.586-1.208 1.621.378.378 1.666-1.307 2.195-2.128 1.372-2.128-.207 0-.995.788-1.75 1.75" fill-rule="evenodd"/>
</svg>