<!DOCTYPE svg PUBLIC "-//W3C//DTD SVG 1.1//EN" "http://www.w3.org/Graphics/SVG/1.1/DTD/svg11.dtd">
<svg xmlns="http://www.w3.org/2000/svg" viewBox="0 0 746 681">
<path fill="#fbfbfb" stroke="#fbfbfb" d="M652.206 245.48c-6.412 5.395-6.681 13.14-.64 18.444 3.821 3.354 10.426 4.221 14.708 1.929C677.641 259.77 673.037 243 660 243c-3.7 0-5.544.587-7.794 2.48m-502.451.557c-26.111 3.085-47.916 22.03-54.125 47.027-2.366 9.525-2.442 104.369-.091 113.476 4.788 18.549 16.73 33.213 33.666 41.339 14.754 7.08-2.732 6.621 252.295 6.621h231l8.021-2.721c20.283-6.881 35.185-21.443 41.733-40.779 2.955-8.727 4.019-102.979 1.31-116.075-4.612-22.294-22.449-40.745-46.064-47.649-5.636-1.648-19.82-1.763-233.5-1.895-125.125-.078-230.535.218-234.245.656m505.628.506c-11.717 5.931-2.627 22.463 9.252 16.826 1.89-.897 3.217-1.85 2.948-2.119-.268-.268.166-1.142.965-1.94 6.112-6.113-5.008-16.896-13.165-12.767M655 255c0 6.333.19 7 2 7 1.4 0 2-.667 2-2.223v-2.222l1.557 2.222c1.713 2.447 5.443 3.026 5.443.845 0-.757-.694-1.953-1.542-2.657-1.07-.888-1.224-1.599-.5-2.323 3.536-3.536.561-7.642-5.54-7.642H655v7m4-2c0 .55.45 1 1 1s1-.45 1-1-.45-1-1-1-1 .45-1 1m-512.75 4.51c-19.943 4.353-36.505 20.838-40.222 40.035-.803 4.151-1.058 21.103-.84 55.955l.312 50 2.401 6c6.965 17.406 20.504 29.032 38.391 32.968 6.486 1.428 30.156 1.559 236.208 1.309l229-.277 6.832-2.315c4.457-1.511 6.664-2.753 6.349-3.574-.266-.693-12.154-18.776-26.42-40.185-14.265-21.409-26.236-39.448-26.602-40.087-.367-.638.238-2.213 1.343-3.5 3.124-3.636 31.998-42.72 31.998-43.312 0-.29-4.043-.527-8.985-.527h-8.985l-3.607 4.75c-8.59 11.311-20.41 27.811-20.416 28.5-.029 3.097-4.04-1.745-13.507-16.302l-11-16.916-9.75-.016c-5.362-.009-9.75.198-9.75.46s7.313 10.721 16.25 23.242c8.938 12.521 16.401 23.109 16.585 23.528.184.419-1.659 3.573-4.095 7.008a2988.584 2988.584 0 0 0-7.933 11.246c-7.264 10.364-17.808 25.148-20.752 29.098-4.118 5.524-4.25 5.402 5.874 5.402 10.716 0 8.428 2.027 24.071-21.32 6.875-10.261 12.725-18.653 13-18.649.275.003 4.192 5.51 8.705 12.238A7095.497 7095.497 0 0 0 589.439 410c5.791 8.525 10.536 15.841 10.545 16.259.009.417-100.906.642-224.255.5l-224.271-.259-6.703-3.3c-9.819-4.834-16.692-11.562-20.829-20.39l-3.426-7.31v-92l2.822-5.748c6.51-13.262 19.505-22.664 34.178-24.728 4.196-.59 45.956-.992 104.25-1.004L359 272v136h17.986l.257-67.75.257-67.75 109.5-.261c62.13-.148 112.312.134 116 .651 17.534 2.46 30.174 12.488 36.689 29.11 2.233 5.696 3.292 80.148 1.286 90.46-1.229 6.322-5.755 16.282-8.393 18.472-2.272 1.886-2.054 2.702 2.608 9.741 4.949 7.474 4.494 7.363 8.444 2.046C653.712 409.154 654 407.157 654 350.926c0-52.219-.21-54.655-5.672-65.708-5.51-11.151-19.719-24.154-26.862-24.582-1.251-.075-2.099-.42-1.884-.768.215-.347-1.516-1.236-3.846-1.974-6.371-2.018-460.297-2.389-469.486-.384m56.716 50.821c-4.825 2.226-8.678 5.611-12.064 10.603-4.487 6.613-4.902 6.407-4.902-2.434V309h-16v99h18l.02-26.75c.028-36.789 1.324-44.857 8.335-51.868 6.251-6.251 12.934-7.673 22.588-4.806 6.118 1.817 6.056 1.857 9.394-6.076 2.921-6.943 2.67-7.48-4.622-9.907-5.506-1.833-17.028-1.978-20.749-.262m73.034-.64c-14.442 2.417-28.549 11.781-35.306 23.434-8.482 14.629-8.439 39.435.097 55.204 17.636 32.586 81.28 31.855 98.105-1.126 8.446-16.555 7.3-42.03-2.559-56.883-10.682-16.093-35.91-24.718-60.337-20.629m159 .844c-24.615 6.707-38.093 24.312-38.145 49.826-.068 33.505 20.022 51.952 56.645 52.013 23.092.039 39.461-7.913 48.408-23.515 4.065-7.088 3.954-7.569-1.908-8.265-2.75-.327-7.168-.85-9.817-1.163l-4.817-.568-1.839 4.077c-8.462 18.765-39.544 22.56-56.149 6.856-5.835-5.518-9.276-12.409-10.079-20.182l-.528-5.114 44.493.27c51.404.312 46.125 1.695 44.628-11.693-2.263-20.221-14.104-35.136-32.737-41.233-8.719-2.853-29.828-3.577-38.155-1.309m-158.77 13.294c-15.248 5.432-23.056 19.711-21.968 40.17.897 16.863 6.536 26.161 19.586 32.297 19.284 9.066 42.866-.634 48.893-20.112 2.649-8.561 2.321-25.812-.636-33.405-6.357-16.33-28.063-25.296-45.875-18.95m164.056-.433c-12.825 4.176-22.253 15.328-22.28 26.354L418 350h68.176l-.695-4.25c-1.745-10.677-7.728-18.743-16.981-22.895-6.24-2.799-21.651-3.597-28.214-1.459" fill-rule="evenodd"/>
<path fill="#e3fafb" stroke="#e3fafb" d="M652.898 245.287c-10.455 7.035-4.357 22.633 8.385 21.446C676.684 265.298 675.479 243 660 243c-2.202 0-5.083.928-7.102 2.287m2.459.653c-8.095 3.46-6.662 16.44 2.057 18.628 9.454 2.373 16.618-8.77 10.334-16.074-2.476-2.88-8.651-4.152-12.391-2.554m-510.867 1.076c-22.091 4.393-40.402 20.716-47.657 42.484-3.283 9.85-3.682 109.632-.48 120 5.823 18.855 20.638 34.155 40.058 41.367l7.089 2.633h472l7.5-2.866c19.649-7.508 33.582-22.311 39.66-42.134 2.81-9.164 2.81-107.836 0-117-6.683-21.796-23.491-37.958-45.269-43.528-7.571-1.936-11.888-1.97-238.301-1.862-126.824.06-232.395.468-234.6.906m511.177 1.651c-.367.366-.667 3.291-.667 6.5 0 5.166.229 5.833 2 5.833 1.226 0 2.012-.677 2.032-1.75.03-1.667.095-1.667 1.36 0 .731.962 2.343 1.75 3.583 1.75 2.163 0 2.189-.1.651-2.448-.983-1.501-1.221-2.684-.615-3.059 2.081-1.286 1.058-5.516-1.576-6.518-2.977-1.132-5.816-1.261-6.768-.308m3.333 3.774c0 .857.45 1.559 1 1.559s1-.423 1-.941-.45-1.219-1-1.559c-.55-.34-1 .084-1 .941m-514.218 5.112c-17.897 4.339-32.909 18.646-38.17 36.379-2.402 8.095-2.416 103.967-.017 112.136 5.203 17.712 19.804 31.675 38.108 36.443 8.475 2.207 459.542 2.227 468.898.02 6.97-1.643 11.399-3.468 11.399-4.695 0-.464-11.812-18.504-26.25-40.09-14.437-21.585-26.393-39.795-26.568-40.466-.174-.671 2.314-4.721 5.53-9 3.217-4.279 6.51-8.756 7.318-9.948.809-1.192 5.849-8.055 11.201-15.25L605.963 310H586.098l-6.547 9.25c-10.05 14.2-16.536 23.135-17.476 24.075-.471.471-5.883-6.807-12.075-16.236L538.779 310h-9.889c-5.44 0-9.883.337-9.874.75.009.413 5.46 8.4 12.114 17.75 6.653 9.35 14.056 19.76 16.451 23.133l4.353 6.133-3.78 5.367c-8.92 12.665-31.526 44.472-32.421 45.617-.768.982 1.183 1.25 9.098 1.25h10.077l13.143-19.5c7.228-10.725 13.514-19.5 13.967-19.5.454 0 9.195 12.488 19.425 27.75l18.601 27.75-222.047.252c-221.165.251-222.071.244-228.101-1.787-13.866-4.671-23.943-14.725-27.937-27.874-1.965-6.469-2.046-8.757-1.759-49.71l.3-42.928 3.399-6.902c5.431-11.027 14.046-18.49 25.991-22.514 5.926-1.996 8.075-2.037 107.578-2.037H359v136.075l9.25-.287 9.25-.288.257-67.766.257-67.767 115.243.267 115.243.266 5.844 2.357c11.421 4.606 21.459 15.278 25.255 26.847 1.746 5.324 1.901 9.214 1.896 47.796-.006 47.045.066 46.522-7.952 58.436l-3.302 4.907 4.751 7.146 4.752 7.145 3.025-3.67c4.405-5.343 7.951-12.291 9.698-18.999 2.271-8.718 2.271-102.212 0-110.93-4.547-17.456-20.468-32.73-38.56-36.995-9.242-2.179-460.137-2.166-469.125.013m61.909 49.415c-5.081.982-11.404 5.55-15.691 11.333l-3.5 4.721-.294-7.011-.294-7.011H170V409.075l9.25-.287 9.25-.288.557-33c.58-34.326.926-37.212 5.233-43.602 4.906-7.281 16.36-10.05 26.612-6.433l4.154 1.466 2.5-5.654c4.337-9.807 4.338-9.803-1.723-12.038-6.439-2.374-13.983-3.269-19.142-2.271m73.809-.01c-29.451 3.726-46.465 22.599-46.465 51.542 0 33.551 23.867 54.459 59.543 52.161 32.979-2.125 51.449-21.228 51.397-53.161-.054-33.31-27.934-55.165-64.475-50.542m162.5-.006c-32.62 4.641-50.606 28.657-46.096 61.548 3.47 25.304 22.442 40.497 52.596 42.121 24.922 1.342 44.374-7.65 53.471-24.718 1.772-3.324 3.016-6.25 2.764-6.501-.456-.457-15.889-2.405-18.735-2.366-.825.011-3.009 2.514-4.854 5.562-6.017 9.939-15.05 14.402-29.149 14.402-19.176 0-33.19-11.537-35.629-29.331l-.64-4.669H507.295l-.646-8.407c-1.532-19.928-10.036-33.687-25.729-41.627-10.284-5.203-26.047-7.703-37.92-6.014m-163.266 14.136c-18.234 4.296-28.259 22.38-24.959 45.024 2.847 19.532 13.428 29.732 31.845 30.699 24.508 1.286 37.921-12.699 37.704-39.311-.217-26.619-19.459-42.333-44.59-36.412m162.649-.195C429.655 324.16 418 336.966 418 347.682c0 1.065 6.528 1.318 34.019 1.318h34.019l-.608-2.75c-3.776-17.087-13.825-25.368-31.43-25.9-4.675-.142-9.903.103-11.617.543" fill-rule="evenodd"/>
<path fill="#b3dff5" stroke="#b3dff5" d="M654.198 244.673c-5.764 2.84-7.868 10.196-4.681 16.36 2.958 5.719 11.323 7.708 16.916 4.021 12.886-8.495 1.645-27.222-12.235-20.381m-.081 1.958c-1.281.897-2.962 3.147-3.736 5-3.96 9.476 8.378 17.65 16.424 10.88 7.178-6.04 2.72-17.511-6.805-17.511-1.955 0-4.603.734-5.883 1.631m-511.109.982c-21.989 4.826-40.116 21.924-46.594 43.95-2.203 7.489-3.348 93.831-1.435 108.205 2.804 21.071 15.226 38.272 34.521 47.802 13.975 6.903-3.203 6.483 253.246 6.193L614.5 453.5l7.335-2.679c19.61-7.164 33.819-21.504 39.676-40.044l2.489-7.88V297.103l-2.489-7.88c-5.824-18.435-19.977-32.696-39.713-40.016L614.5 246.5l-232.5-.156c-197.92-.133-233.466.056-238.992 1.269M656 255c0 4.667.333 6 1.5 6 .883 0 1.5-.914 1.5-2.223v-2.222l1.557 2.222c.856 1.223 2.456 2.223 3.556 2.223 1.849 0 1.886-.164.491-2.155-1.101-1.572-1.237-2.663-.501-4.037 1.861-3.478.188-5.808-4.17-5.808H656v6m3-2.5c0 .917.484 1.505 1.075 1.308.591-.197 1.075-.786 1.075-1.308s-.484-1.111-1.075-1.308c-.591-.197-1.075.391-1.075 1.308m-515 4.946c-17.768 5.001-30.9 17.241-37.193 34.667-3.469 9.604-3.624 105.556-.187 115.558 4.399 12.8 14.806 24.941 26.451 30.859 11.519 5.853-4.574 5.515 249.114 5.23l232.315-.26 5.5-2.334c3.025-1.283 5.62-2.453 5.766-2.6.147-.146-11.897-18.441-26.764-40.656-14.868-22.215-26.828-40.92-26.58-41.568.249-.648 7.586-10.778 16.305-22.51 8.719-11.733 16.199-21.894 16.622-22.582.597-.97-1.54-1.239-9.54-1.2l-10.309.049-11.941 16.96c-6.567 9.328-12.236 16.618-12.599 16.2-.362-.417-5.436-8.071-11.276-17.009L539.066 310h-21.202l1.91 2.75c1.05 1.512 8.506 12.047 16.568 23.41C544.404 347.522 551 357.259 551 357.796c0 .537-7.822 12.01-17.382 25.494-9.559 13.485-17.686 25.011-18.059 25.614-.475.768 2.404 1.087 9.632 1.067l10.309-.029 12.941-19.471c7.118-10.709 13.2-19.471 13.515-19.471.316 0 8.98 12.488 19.254 27.75l18.679 27.75-220.195.26c-154.097.183-221.761-.062-225.413-.814-16.306-3.358-30.313-17.296-33.321-33.157-1.269-6.692-1.202-81.03.079-86.58 3.368-14.601 14.887-26.595 30.086-31.325 5.76-1.793 10.923-1.884 106.464-1.884H358v136h20V272.959l115.25.271 115.25.27 7.747 3.699c9.786 4.673 16.759 11.48 21.06 20.56l3.193 6.741.29 43.355c.341 50.934.316 51.099-10.153 64.612-.699.903 3.031 7.291 8.992 15.398 1.365 1.858 10.927-14.518 12.981-22.233 2.473-9.29 1.968-104.574-.598-112.777-5.479-17.512-21.287-32.071-38.811-35.744-8.171-1.713-463.081-1.388-469.201.335m60.838 49.679c-4.289 1.209-10.911 6.612-14.97 12.216L187 323.3v-15.378l-8.75.289-8.75.289-.259 50.25-.259 50.25H189l.015-30.25c.016-32.863.831-39.86 5.46-46.879 4.708-7.139 15.754-9.807 26.085-6.299 2.546.864 4.73 1.427 4.854 1.25.93-1.336 5.586-13.226 5.586-14.265 0-3.747-18.507-7.59-26.162-5.432m72.919-.16c-28.68 5.243-43.727 22.978-43.727 51.535 0 32.776 20.629 52.465 54.97 52.465 28.656 0 49.613-14.486 54.531-37.695 7.984-37.677-13.154-65.342-51.031-66.79-5.5-.21-12.134.008-14.743.485m164.743-.318c-31.248 5.028-48.294 26.192-46.19 57.35 2.085 30.88 25.082 48.438 61.19 46.719 22.278-1.061 38.405-9.972 45.957-25.396 3.353-6.849 3.247-6.945-8.642-7.8l-9.684-.697-2.016 3.951c-10.615 20.807-46.249 21.888-59.851 1.816-3.152-4.649-4.435-8.146-5.814-15.84l-.673-3.75H507l-.017-5.75c-.073-23.904-14.308-42.632-37.114-48.827-5.622-1.527-22.222-2.604-27.369-1.776m-161.754 14.375c-21.461 5.421-31.24 26.927-24.072 52.939 4.06 14.736 15.168 22.472 32.326 22.514 12.3.029 16.897-1.586 24.58-8.636 13.194-12.108 14.483-42.397 2.389-56.137-7.781-8.84-23.564-13.625-35.223-10.68m162.598-.044c-12.515 2.666-22.376 12.497-24.848 24.772l-.655 3.25H485v-2.462c0-16.756-21.386-29.878-41.656-25.56" fill-rule="evenodd"/>
<path fill="#0672b8" stroke="#0672b8" d="M655.415 244.421c-7.929 3.453-9.914 12.28-4.074 18.12 5.843 5.843 11.516 5.802 17.445-.127 8.696-8.696-1.918-22.979-13.371-17.993m-2.265 3.106c-7.415 6.239-2.965 17.806 6.85 17.806 9.487 0 14.148-10.385 7.6-16.933-4.379-4.379-9.887-4.712-14.45-.873m-506.385-.443c-23.07 3.38-44.229 22.621-50.195 45.647-2.316 8.937-2.338 105.899-.027 114.774 5.809 22.303 24.807 40.181 47.727 44.916 11.245 2.322 457.132 2.415 469.392.097 23.646-4.47 45.253-25.228 49.344-47.404 1.75-9.487 1.288-104.564-.542-111.591-6.196-23.79-25.385-41.828-48.965-46.028-9.117-1.624-455.769-2.017-466.734-.411M656 254.983c0 4.682.333 6.017 1.5 6.017.873 0 1.522-.94 1.552-2.25l.053-2.25 1.569 2.25c1.543 2.211 4.326 3.094 4.326 1.372 0-.482-.686-1.447-1.525-2.143-1.36-1.129-1.338-1.473.208-3.181 2.442-2.699.629-5.194-4.034-5.552l-3.649-.28v6.017m3-2.483c0 .917.484 1.505 1.075 1.308.591-.197 1.075-.786 1.075-1.308s-.484-1.111-1.075-1.308c-.591-.197-1.075.391-1.075 1.308m-508.5 3.533c-22.027 2.932-40.582 19.702-45.031 40.697-2.083 9.829-2.083 96.711 0 106.54 4.587 21.647 22.214 37.447 45.458 40.748 11.836 1.68 458.229.888 463.573-.823 5.105-1.634 11.5-4.372 11.5-4.923 0-.234-12.17-18.627-27.044-40.875l-27.044-40.449 7.794-10.545c4.287-5.8 11.957-16.127 17.044-22.949 5.087-6.823 9.25-12.866 9.25-13.429 0-.63-3.767-1.025-9.774-1.025h-9.773l-6.76 9.25a1888.109 1888.109 0 0 0-12.656 17.565c-5.691 8.025-5.939 8.235-7.108 6-.667-1.273-5.701-9.178-11.187-17.565L538.767 309H528.55c-5.619 0-10.482.265-10.807.59-.324.324 1.331 3.137 3.679 6.25s8.537 11.735 13.755 19.16a9382.107 9382.107 0 0 0 12.771 18.141l3.284 4.642-4.737 6.858a701.741 701.741 0 0 1-9.129 12.859C530.194 387.3 515 409.076 515 409.555c0 .245 4.649.445 10.332.445h10.332l12.918-19.461c7.105-10.704 13.143-19.455 13.418-19.448.275.007 5 6.849 10.5 15.205s13.517 20.297 17.815 26.535c4.298 6.238 8.058 11.978 8.357 12.755.704 1.836-433.266 2.155-443.238.326-17.049-3.126-31.276-17.096-34.42-33.798-1.689-8.974-1.285-78.34.501-85.914 3.346-14.193 12.281-24.19 27.485-30.751 4.343-1.874 8.067-1.952 106.75-2.223l102.25-.28V409h20.5l-.264-68.024-.264-68.025 114.764.275 114.764.274 6.814 2.882c11.751 4.97 20.598 14.484 24.649 26.508 1.918 5.694 2.037 8.443 2.037 47.074 0 45.976-.249 47.875-7.631 58.288-1.853 2.614-3.369 4.982-3.369 5.262 0 1.526 9.499 14.486 10.397 14.187 2.347-.782 9.704-13.207 11.836-19.991 3.562-11.329 3.536-105.539-.032-115.863-5.65-16.348-18.447-28.545-36.201-34.502-5.277-1.77-14.689-1.85-232.5-1.978-124.85-.073-229.7.227-233 .666m52.1 51.722c-3.909 1.302-5.931 2.893-10 7.871l-5.1 6.239-.294-6.933-.294-6.932H169v101h19.853l.386-32.25c.326-27.25.656-33.073 2.129-37.557 4.06-12.36 15.853-18.088 28.132-13.664 5.864 2.112 5.836 2.131 9.319-6.212 3.66-8.77 3.886-8.32-5.674-11.322-7.584-2.381-13.895-2.454-20.545-.24m71.472-.202c-26.215 5.685-40.261 23.477-40.218 50.947.027 17.888 3.821 28.07 14.114 37.889 25.731 24.542 79.284 17.239 92.443-12.608 6.684-15.159 6.259-37.631-.98-51.917-9.8-19.34-38.704-30.092-65.359-24.311M439 307.04c-27.137 4.855-42.939 24.154-42.985 52.5-.053 32.316 21.155 51.46 57.007 51.46 24.663 0 43.028-9.17 50.498-25.214 3.513-7.548 3.577-7.464-6.27-8.231-4.812-.375-9.436-.877-10.275-1.114-.978-.278-2.233.91-3.5 3.313-3.197 6.063-9.145 11.852-14.748 14.353-8.201 3.661-22.941 3.415-31.518-.527-6.782-3.116-16.752-12.723-15.794-15.219.287-.749.145-1.361-.316-1.361-.766 0-2.069-4.116-3.562-11.25l-.575-2.75H507l-.036-6.75c-.18-34.175-30.261-55.954-67.964-49.21m5.92 13.97c-12.9 2.184-23.788 12.33-25.956 24.189l-.695 3.801h33.365c37.924 0 34.861.858 31.715-8.881-4.568-14.145-20.614-22.124-38.429-19.109m-169.42 2.021c-16.717 6.441-24.916 27.791-19.085 49.694 7.62 28.625 49.592 33.161 63.449 6.857 8.419-15.981 4.145-42.466-8.364-51.821-9.391-7.024-24.795-9.048-36-4.73" fill-rule="evenodd"/>
</svg>