<!DOCTYPE svg PUBLIC "-//W3C//DTD SVG 1.1//EN" "http://www.w3.org/Graphics/SVG/1.1/DTD/svg11.dtd">
<svg xmlns="http://www.w3.org/2000/svg" viewBox="0 0 750 725">
<path fill="#1f1e1e" d="M326.206 33.476C221.231 60.246 164.24 137.948 166.159 251.685l.341 20.185-12.161 5.16C93.722 302.748 50.315 355.743 36.585 420.792c-8.52 40.37-5.108 85.668 8.567 113.714 3.973 8.149 4.356 7.763 2.42-2.44-4.356-22.963-4.219-49.33.365-70.066 13.489-61.019 65.857-106.505 131.739-114.427 6.515-.783 6.401-1.091 4.235 11.427-16.149 93.326 22.427 168.747 114.839 224.526 10.257 6.191 13.014 8.474 10.232 8.474-.561 0-3.166-1.123-5.791-2.495-13.125-6.863-31.659-4.569-38.57 4.775-5.506 7.444-.518 21.154 9.928 27.287 1.595.936 1.093 1.502-4.116 4.639-57.015 34.339-121.549 28.581-176.48-15.747-10.442-8.426-10.749-8.518-6.203-1.85 17.151 25.155 52.218 49.106 90.749 61.981 51.132 17.086 102.818 14.468 149.099-7.551l12.098-5.756 4.902 4.377c10.199 9.106 21.203 11.617 29.476 6.728l3.573-2.112 3.927 2.061c8.963 4.707 19.424 1.857 29.575-8.057l5.649-5.517 13.851 5.582c73.877 29.772 141.885 21.211 203.807-25.657 8.547-6.469 30.631-27.503 35.895-34.188l3.149-3.999-5 3.703c-59.103 43.782-109.677 54.387-160.484 33.652-7.561-3.086-23.695-11.481-25.951-13.503-.239-.214 1.204-2.069 3.207-4.121 6.608-6.771 8.605-17.151 4.478-23.275-5.855-8.688-24.807-11.623-36.846-5.707-6.115 3.004-6.904 3.212-6.904 1.817 0-.513 3.842-3.253 8.538-6.09 57.845-34.94 97.152-82.854 110.528-134.731 6.198-24.041 7.652-59.074 3.476-83.746-.838-4.95-1.82-10.953-2.181-13.34l-.658-4.341 5.899.658c61.258 6.83 112.047 46.278 129.816 100.828 7.419 22.775 9.288 54.542 4.709 80.044-1.17 6.518-2.122 12.143-2.115 12.5.029 1.544 4.911-8.113 7.302-14.441 18.627-49.298 10.436-119.027-19.934-169.687-21.223-35.403-60.143-67.841-98.663-82.231-2.63-.983-5.042-2.208-5.36-2.722-.318-.514-.506-10.248-.418-21.631.579-74.545-21.515-129.321-68.939-170.915-25.916-22.73-69.241-43-104-48.657-3.261-.531-3.329-.49-1 .592 32.017 14.879 43.359 21.426 59.225 34.191 21.976 17.682 38.032 40.27 46.159 64.942 10 30.356 8.281 70.895-4.506 106.232-3.219 8.899-4.35 9.855-7.473 6.323C502.228 238.12 477.21 221 474.482 221c-.367 0 1.216 2.25 3.518 5 5.151 6.153 4.795 6.177-4.82.328-57.255-34.827-139.232-34.102-197.807 1.749-7.93 4.854-8.474 4.653-3.837-1.42 1.956-2.561 3.317-4.657 3.025-4.657-2.019 0-23.638 14.969-29.204 20.22l-3.144 2.966-2.174-5.811c-24.244-64.797-11.368-128.534 34.022-168.411 17.292-15.192 43.434-31.105 63.189-38.466 2.613-.973 4.75-1.934 4.75-2.134 0-.75-2.851-.188-15.794 3.112M495 239.757c0 .519 1.438 2.923 3.196 5.343 40.504 55.76 54.075 127.823 35.478 188.4-18.643 60.726-66.598 112.078-134.941 144.5-7.536 3.575-13.709 6.806-13.717 7.18-.009.374 2.345 1.561 5.23 2.637l5.247 1.957 7.674-3.858c44.918-22.584 86.636-58.328 110.872-94.995 11.256-17.028 22.066-41.355 26.961-60.671 1.066-4.207 2.237-5.02 4.847-3.366 1.108.702.969 2.23-.784 8.617-15.847 57.766-58.641 108.578-124.855 148.251-7.861 4.71-13.936 8.882-13.5 9.272.435.39 3.78 1.497 7.431 2.461l6.64 1.752 10.36-5.762C549.686 525.548 590.002 438.062 554.397 324c-7.061-22.621-9.045-26.843-12.957-27.577-3.891-.73-3.851-.644-2.284-4.978 1.337-3.697 1.223-3.897-10.95-19.287C517.821 259.03 495 236.762 495 239.757m-255.29 14.341c-12.341 12.416-26.035 29.133-28.754 35.099-.919 2.017-.835 3.136.418 5.559l1.568 3.032-3.371.633c-4.34.814-4.785 1.432-8.344 11.579-45.831 130.671 3.972 229.783 148.273 295.073 39.748 17.984 51.844 21.857 54.735 17.527 1.44-2.156.699-2.6-4.342-2.6-4.143 0-4.992-.283-4.5-1.5.334-.825.853-2.105 1.154-2.844.387-.95-2.922-2.76-11.25-6.155-95.76-39.047-160.873-101.21-178.24-170.168-2.579-10.238-2.575-10.333.424-10.333 1.896 0 2.621.649 3.075 2.75 7.415 34.321 23.048 62.107 50.709 90.133 32.284 32.709 82.845 63.791 134.735 82.828 17.601 6.457 17.904 6.514 22.657 4.213 8.627-4.176 8.226-5.739-2.157-8.407-46.237-11.881-92.944-35.062-127-63.032-89.059-73.145-105.703-187.423-41.622-285.774 3.508-5.384 6.102-10.064 5.765-10.401-.337-.337-6.607 5.418-13.933 12.788m14.424-3.942c-2.274 3.386-4.134 6.937-4.134 7.89 0 5.591 32.508 40.081 37.634 39.928.476-.014 2.391-2.273 4.254-5.02 9.729-14.341 33.332-30.031 52.612-34.973 9.255-2.372 33.148-2.806 50.211-.912 25.069 2.784 32.505 6.314 51.29 24.349 5.775 5.545 12.382 11.831 14.682 13.969l4.183 3.888 4.317-3.348c11.721-9.09 32.817-32.262 32.817-36.048 0-1.444-7.536-13.249-9.496-14.876-1.05-.871-4.134 2.502-14.581 15.946-7.287 9.378-13.622 17.051-14.078 17.051-.455 0-2.893-1.576-5.416-3.503-33.85-25.838-82.251-32.878-126.684-18.428-10.78 3.505-30.881 13.038-38.66 18.332-2.979 2.028-5.954 3.48-6.612 3.227-.658-.252-6.95-7.922-13.983-17.044-7.033-9.121-13.11-16.584-13.504-16.584-.395 0-2.579 2.77-4.852 6.156m90.083 12.324c-20.975 6.393-42.874 22.271-52.023 37.72-4.003 6.758-18.194 44.039-18.194 47.795 0 1.474.672 7.14 1.494 12.592.822 5.452 1.499 12.388 1.506 15.413.016 7.935 1.65 12.702 5.923 17.284 5.317 5.7 6.023 4.64 5.356-8.045-1.086-20.632-.902-21.445 6.031-26.621 2.657-1.984 2.702-1.984 4.156-.062 1.937 2.561 1.912 8.201-.053 11.944-1.193 2.272-1.417 4.499-.922 9.181.403 3.809.237 6.959-.432 8.209-.763 1.425-.781 3.388-.062 6.598 1.363 6.082-.23 9.056-7.405 13.819-10.054 6.676-8.316 16.037 4.574 24.645 7.094 4.737 6.763 4.678 10.374 1.838 8.206-6.455 22.257 2.146 26.54 16.248 1.929 6.349 2.519 7.227 6.077 9.042 4.992 2.547 5.537 4.055 3.275 9.07-4.656 10.325-.236 16.921 7.719 11.522l3.431-2.328 1.723 2.285c4.122 5.464 15.695 4.89 15.695-.78v-3.056l3.535 3.103c4.335 3.807 8.231 4.013 12.232.647l2.92-2.457 2.186 2.957c4.221 5.708 11.235 2.192 12.68-6.356l.708-4.187 2.127 4.5c2.274 4.814 6.948 6.626 10.177 3.946 2.485-2.062 1.845-9.661-1.038-12.333l-2.472-2.291 2.972-2.848c3.057-2.929 3.822-5.831 1.858-7.045-1.946-1.203-.318-8.916 3.676-17.429 5.919-12.612 9.524-13.443 22.344-5.145 11.137 7.208 16.827 5.336 22.75-7.484 4.328-9.368 4.365-9.146-2.666-16.006-7.267-7.092-9.348-13.539-7.144-22.138.85-3.316 1.028-8.166.564-15.351-.727-11.237.122-14.876 3.471-14.876 6.38 0 9.967 16.624 7.769 36-1.134 9.996.406 8.031 3.135-4 3.187-14.047 3.536-16.684 2.306-17.444-1.615-.999-1.322-6.936.578-11.684 1.397-3.491 1.478-4.877.5-8.534-.642-2.402-1.168-6.128-1.168-8.28 0-2.548-1.247-6.292-3.574-10.735-2.546-4.859-3.946-9.278-4.864-15.353-1.759-11.642-3.142-13.797-18.062-28.129-24.634-23.664-31.753-26.332-73-27.362-20.364-.508-21.251-.448-29.283 2.001m15.486 23.72c-5.182 1.393-4.184 3.022 2.698 4.4 7.224 1.447 7.716 1.962 6.586 6.901-.502 2.199-.642 8.523-.31 14.053.778 12.974.092 14.446-6.737 14.446-4.472 0-5.094.274-5.993 2.639-.552 1.451-.878 2.74-.725 2.864 3.375 2.742 29.616 2.088 32.514-.811 2.584-2.584.863-4.38-4.712-4.916-6.964-.669-6.781-.257-7.862-17.776-1.065-17.258-1.134-17.023 5.235-17.741 4.278-.483 7.634-2.561 6.295-3.9-1.072-1.072-23.109-1.202-26.989-.159m-39.328 11.721c-3.492 1.516-6.194 13.837-3.411 15.556 1.62 1.002 5.342-3.403 4.12-4.876-1.593-1.92.849-4.571 5.091-5.528 4.755-1.072 6.286-.062 5.412 3.571-.378 1.571-.636 9.269-.574 17.106l.114 14.25h-3.372c-4.183 0-7.091 2.011-6.602 4.566.687 3.585 26.847 3.071 26.847-.528 0-1.301-7.007-4.249-8.624-3.629-1.701.653-3.44-1.687-2.448-3.293.448-.724.409-3.122-.087-5.328-.565-2.514-.538-4.448.072-5.183.545-.656.605-1.767.137-2.524-1.357-2.195-1.203-15.507.2-17.266 2.81-3.525 11.489-2.438 9.265 1.161-.964 1.559 1.418 8.024 2.956 8.024 3.434 0 3.671-12.218.279-14.403-2.709-1.746-26.136-3.082-29.375-1.676m100.593-.14c-1.419.261-7.025 13.076-6.985 15.969.022 1.643-2.133 1.592-4.454-.105-1.081-.791-1.604-2.007-1.255-2.918.33-.86-.001-1.792-.737-2.075-.736-.282-1.647-2.345-2.026-4.586-.726-4.296-.649-4.248-8.805-5.562-4.104-.661-7.706.07-7.706 1.563 0 .513.884.933 1.965.933 3.431 0 4.084 3.245 3.97 19.725-.119 17.088-.389 19.275-2.38 19.275-1.345 0-4.151 2.768-3.448 3.401.216.194 3.369.662 7.007 1.041 8.92.928 11.42-1.002 7.145-5.516-2.546-2.689-4.727-10.125-3.368-11.484.291-.291.547-3.281.569-6.645.022-3.363.49-6.265 1.04-6.448 1.445-.48 5.5 7.068 5.5 10.239 0 2.55 2.312 5.311 4.506 5.38 1.229.039 3.208-4.261 4.131-8.976.919-4.691 3.181-7.992 5.478-7.992 1.84 0 2.56 1.992 1.208 3.344-.373.373-.565 5.582-.426 11.577l.251 10.899-2.75 1.34c-6.399 3.118-1.926 5.283 8.634 4.179 6.631-.693 7.469-1.978 2.962-4.542-2.923-1.663-2.994-1.89-2.999-9.5-.003-4.289-.292-12.125-.642-17.414l-.637-9.618 3.791-2.576c3.654-2.483 3.705-2.594 1.392-3.07-2.342-.482-7.87-.4-10.931.162M214.636 354.64c-1.544 11.261-1.061 13.348 3.114 13.468 2.063.059 6.553.622 9.979 1.25l6.229 1.142.389 18.5c1.284 60.918 32.034 110.656 81.653 132.072 7.566 3.265 7.475 2.221 1.45 16.601-2.447 5.842-4.45 10.974-4.45 11.404 0 .935 14.221 9.923 15.7 9.923 1.115 0 5.197-10.679 7.929-20.744l1.695-6.243-4.912-5.614c-2.702-3.088-8.027-7.509-11.835-9.824-8.97-5.454-9.511-6.414-10.546-18.714-.479-5.699-1.771-12.911-2.869-16.028-1.099-3.117-2.316-8.292-2.706-11.5-.39-3.208-1.777-9.552-3.082-14.098-1.306-4.546-2.398-9.721-2.428-11.5-.048-2.912-.79-3.702-7.443-7.922-14.265-9.046-18.31-23.881-8.267-30.313 3.454-2.212 4.721-4.5 2.492-4.5-2.284 0-11.306-10.191-12.663-14.304-.679-2.057-1.534-6.751-1.9-10.432l-.665-6.693-9-4.775c-11.12-5.899-21.812-10.115-33.808-13.328-12.99-3.481-13.288-3.435-14.056 2.172m308.902-2.036c-12.261 3.362-26.384 9.181-36.449 15.018l-8.412 4.878-1.916 9c-1.055 4.95-2.312 11.179-2.794 13.843-1.085 5.998-2.404 7.657-6.089 7.657-3.794 0-3.631 1.196.635 4.653 5.401 4.377 5.786 7.429 2.12 16.816-3.419 8.754-7.782 13.966-12.574 15.018-2.658.584-3.059 1.104-3.059 3.97 0 1.814-.628 4.816-1.396 6.671-.768 1.855-1.391 5.651-1.384 8.436.007 3.28-.773 6.6-2.216 9.429-1.886 3.696-2.136 5.372-1.634 10.936 1.196 13.265-.95 19.332-9.747 27.55-4.193 3.916-7.623 7.713-7.623 8.436 0 .723-3.446 4.856-7.659 9.185l-7.658 7.869 2.126 7.318c2.529 8.703 6.821 18.713 8.023 18.713 1.833 0 13.168-8.032 13.168-9.33 0-.756-2.038-6.239-4.529-12.185-2.491-5.946-4.404-11.135-4.25-11.532.153-.397 5.162-3.242 11.129-6.321 49.469-25.529 76.952-73.112 76.982-133.286l.008-15.153 7.371-1.097c4.054-.603 8.252-1.096 9.33-1.096 2.123 0 2.679-6.014 1.317-14.25-.736-4.453-.753-4.455-12.82-1.146M417.135 359.5c-1.85.825-5.675 1.507-8.5 1.515-6.254.019-6.587.22-11.673 7.035-4.043 5.418-4.063 5.489-3.387 11.95 1.248 11.934 8.215 21.187 16.912 22.462 2.743.403 6.833 1.813 9.088 3.135 4.988 2.923 6.392 2.971 11.449.391 2.723-1.39 4.125-2.86 4.528-4.75.322-1.506 1.436-4.551 2.477-6.768 1.528-3.256 1.778-5.382 1.301-11.073-.383-4.573-.178-7.812.585-9.239 1.83-3.419-.541-7.021-7.47-11.348-7.263-4.537-10.828-5.307-15.31-3.31m-83.635 2.835c-11.156 1.657-15.811 4.915-21.79 15.255-.346.599.306 2.835 1.449 4.968 1.939 3.617 1.993 4.337.801 10.656-1.478 7.831-.895 8.982 6.854 13.523 7.932 4.648 19.331 1.534 24.837-6.786 1.384-2.091 4.036-4.524 5.894-5.405 3.496-1.659 5.437-5.841 5.449-11.739.003-1.481.938-4.271 2.076-6.201 5.75-9.745-7.238-16.994-25.57-14.271m38.303 32.915c-.869.688-1.887 2.995-2.261 5.128-.374 2.134-1.775 6.352-3.111 9.375-1.337 3.023-2.431 6.333-2.431 7.357 0 1.023-1.395 4.523-3.101 7.777-3.494 6.666-3.367 10.971.403 13.612 3.273 2.293 4.348 1.864 6.893-2.749 1.944-3.524 2.853-4.25 5.323-4.25 2.991 0 3.373.483 7.461 9.433 2.081 4.556 5.865 3.81 9.771-1.925 2.798-4.108 2.91-9.529.327-15.823-1.057-2.577-2.207-6.396-2.555-8.488-.348-2.091-1.255-4.041-2.016-4.333-.761-.292-1.693-1.939-2.071-3.659-.952-4.336-5.015-10.193-8.02-11.562-3.06-1.394-2.705-1.402-4.612.107m70.287 49.506c-1.785 1.785-3.008 4.34-3.469 7.25-.392 2.472-1.759 6.069-3.037 7.994-2.713 4.085-5.172 14.27-6.102 25.278-.95 11.238-4.973 15.125-17.819 17.22-3.376.55-3.775.408-3.325-1.186 2.445-8.644 1.27-11.024-4.872-9.872-4.037.758-5.466 3.259-5.466 9.566 0 4.468-.061 4.525-5.858 5.485l-4.358.721 2.608-3.838c1.496-2.201 2.608-5.232 2.608-7.106V493h-5.465c-6.473 0-7.535 1.243-7.535 8.818 0 5.24-.969 6.133-6.699 6.168-2.122.014-2.148-.108-.75-3.454 1.861-4.453 1.889-10.426.054-11.13-.768-.295-3.301-.022-5.629.605l-4.234 1.14.499 6.979.499 6.979-3.425-.302-3.426-.303-.33-6.93c-.391-8.208-1.624-9.57-8.667-9.57-5.551 0-5.759.356-5.105 8.75.557 7.155.162 7.394-5.435 3.278-5.664-4.166-9.251-9.778-10.302-16.12-1.536-9.266-2.999-14.823-5.569-21.148-1.365-3.358-2.481-7.167-2.481-8.465 0-6.681-5.464-12.295-11.968-12.295-2.562 0-2.57 1.679-.049 9.972 1.082 3.559 2.272 9.184 2.644 12.5.372 3.315 1.757 9.178 3.079 13.028 1.473 4.29 2.628 10.484 2.984 16 .709 10.987 1.087 11.771 7.057 14.643 2.728 1.312 8.161 5.748 12.753 10.413 10.415 10.58 9.383 10.331 42.864 10.319 29.407-.011 31.625-.306 35.01-4.647 1.169-1.501 4.308-4.748 6.974-7.217 2.666-2.469 5.521-5.844 6.343-7.5.821-1.656 4.786-6.161 8.809-10.011 8.194-7.842 9.553-12.117 8.029-25.251-.572-4.928-.301-6.538 1.892-11.25 1.574-3.383 2.563-7.279 2.569-10.123.006-2.544.647-6.429 1.425-8.635 2.305-6.532-2.156-8.654-7.325-3.485M387 469c0 .55.45 1 1 1s1-.45 1-1-.45-1-1-1-1 .45-1 1m-36 2c0 1.1.209 2 .465 2 .255 0 .946-.9 1.535-2 .854-1.596.76-2-.465-2-.868 0-1.535.869-1.535 2m17.5-1c.34.55.816 1 1.059 1s.441-.45.441-1-.477-1-1.059-1-.781.45-.441 1m90 119.761c-10.42 3.799-26.224 17.699-40.062 35.239-15.913 20.168-21.07 24.811-26.149 23.537-2.225-.559-2.426-.995-1.857-4.028.688-3.664-1.094-5.509-5.319-5.509-12.278 0-13.624 19.733-1.732 25.377 12.839 6.092 22.945-1.556 52.933-40.059 9.862-12.661 15.076-17.538 21.293-19.912 5.15-1.967 9.795-1.253 8.966 1.377-.888 2.817.861 7.452 3.577 9.479 8.1 6.048 20.696-8.514 16.354-18.907-2.809-6.721-17.904-10.276-28.004-6.594m-176 .323c-11.28 1.481-16.124 5.684-15.272 13.249 1.783 15.812 20.772 20.869 20.772 5.532 0-3.832.034-3.865 3.935-3.865 2.164 0 5.124.452 6.578 1.005 2.887 1.098 15.048 12.885 20.538 19.907 13.86 17.731 30.029 34.985 35.449 37.83 6.389 3.354 13.558 3.47 18.491.301 1.305-.84 1.273-1.325-.258-3.918-2.662-4.507-3.223-11.015-1.339-15.526 2.165-5.181 2.066-5.599-1.323-5.599-3.925 0-6.252 2.431-5.437 5.68.415 1.652.154 2.84-.749 3.412-4.427 2.804-9.577-.955-22.738-16.592-29.229-34.728-41.826-43.624-58.647-41.416m47.5 13.742c0 2.535 7.584 7.181 11.684 7.159 6.056-.033 5.889-1.667-.498-4.891-5.849-2.953-11.186-4.035-11.186-2.268m28 11.24c0 .586.466 1.936 1.035 3 .96 1.793.668 1.934-4 1.934-5.544 0-6.491 1.373-3.077 4.462 1.881 1.702 2.255 1.663 9.531-.99 9.627-3.512 9.802-3.926 2.939-6.961-6.513-2.881-6.428-2.862-6.428-1.445m93.384 6.87c-1.164.495-3.823 3.075-5.91 5.732-2.086 2.658-5.164 6.067-6.839 7.576-3.61 3.253-2.827 4.652 3.044 5.44 3.887.521 3.969.462 9.069-6.528 3.124-4.282 6.602-7.801 8.849-8.954 2.036-1.044 3.255-2.176 2.707-2.514-1.895-1.172-8.814-1.648-10.92-.752m-157.377 3.134-2.493 1.045 3.493 2.007c1.921 1.104 5.934 5.128 8.917 8.942 6.052 7.738 9.608 8.792 14.884 4.409.169-.14-1.495-2.217-3.698-4.614a456.402 456.402 0 0 1-7.309-8.171c-3.627-4.186-9.049-5.608-13.794-3.618m167.38 6.18c-1.652 1.788-4.308 5.05-5.901 7.25s-3.704 4.588-4.691 5.307c-2.679 1.95-2.192 3.028 1.698 3.758 6.118 1.147 8.203-.07 13.04-7.616 2.468-3.85 5.608-7.512 6.977-8.136 4.43-2.018 2.362-3.813-4.396-3.813-2.916 0-4.372.704-6.727 3.25m-180.79 1.055c-1.811 1.325-1.758 1.443 1.088 2.435 2.061.719 4.445 3.25 7.664 8.135 5.02 7.621 7.087 8.829 13.158 7.69 4.236-.795 4.263-1.034.569-4.959-1.607-1.708-4.894-5.581-7.302-8.606-4.795-6.023-10.817-7.886-15.177-4.695m194.723 7.282a860.61 860.61 0 0 1-7.173 8.485l-3.354 3.899 2.788 1.06c4.855 1.846 6.616.83 11.891-6.862 2.765-4.032 5.825-7.772 6.799-8.311 2.668-1.477 1.093-2.858-3.26-2.858-3.377 0-4.359.585-7.691 4.587m-207.753-.696c-.302.49 1.134 2.627 3.191 4.75 2.058 2.122 5.195 5.997 6.971 8.609 3.398 4.997 6.131 5.966 10.394 3.684 1.915-1.024 1.864-1.21-1.316-4.835-1.819-2.073-5.017-5.869-7.107-8.434-3.764-4.622-10.344-6.668-12.133-3.774m224.761 5.035c-7.398 3.381-9.833 9.883-6.513 17.389 6.072 13.726 26.518 9.923 26.518-4.932 0-9.888-10.848-16.643-20.005-12.457m-242.207 3.784c-8.971 4.419-9.696 19.356-1.154 23.773 6.383 3.301 15.709.994 19.524-4.829 7.848-11.977-5.2-25.432-18.37-18.944" fill-rule="evenodd"/>
</svg>