<!DOCTYPE svg PUBLIC "-//W3C//DTD SVG 1.1//EN" "http://www.w3.org/Graphics/SVG/1.1/DTD/svg11.dtd">
<svg xmlns="http://www.w3.org/2000/svg" viewBox="0 0 1080 668">
<path fill="#fbfbfb" stroke="#fbfbfb" d="M519.829 174.012c-.185.557-3.002 1.447-6.259 1.977-3.258.53-6.383 1.424-6.946 1.987-.563.563-2.229 1.024-3.702 1.024-1.472 0-3.201.631-3.841 1.402-.639.771-2.27 1.679-3.622 2.019-1.352.339-2.459 1.059-2.459 1.598 0 .54-1.125.981-2.5.981s-2.5.441-2.5.981c0 .539-1.135 1.266-2.523 1.614-1.388.349-3.076 1.406-3.75 2.349-.675.944-2.577 2.569-4.227 3.612-1.65 1.043-3.36 2.469-3.8 3.17-.44.701-1.28 1.274-1.867 1.274-1.168 0-7.03 5.837-10.576 10.531-7.886 10.441-6.98 10.258-14.206 2.867-5.005-5.119-5.556-5.428-6.75-3.794-.716.978-1.301 2.142-1.301 2.587 0 1.362-2.68.899-4-.691-.685-.825-2.258-1.5-3.497-1.5-1.238 0-4.16-.673-6.492-1.496-2.333-.823-6.221-1.571-8.641-1.663-4.467-.169-16.37 3.037-16.37 4.409 0 .412-.9.75-2 .75s-2 .399-2 .886-1.462 1.591-3.25 2.453c-1.788.862-4.468 2.713-5.956 4.114-1.489 1.401-3.079 2.547-3.534 2.547-.985 0-19.566 19.122-23.536 24.222-1.527 1.961-5.239 5.058-8.25 6.883-3.011 1.825-5.474 3.672-5.474 4.106 0 .434-.499.789-1.108.789-1.51 0-13.647 9.654-17.584 13.987-2.558 2.814-3.443 3.264-4.45 2.263-.692-.687-2.013-1.25-2.936-1.25-.922 0-2.237-.675-2.922-1.5s-2.104-1.5-3.154-1.5c-1.05 0-2.168-.675-2.484-1.5-.317-.825-1.007-1.5-1.533-1.5s-3.291-1.066-6.143-2.368c-4.936-2.255-9.817-4.291-20.436-8.527-9.715-3.875-23.293-3.594-27.144.56-3.493 3.77-4.889 9.42-4.351 17.609.423 6.427.214 8.103-1.205 9.67-.943 1.043-2.691 3.653-3.883 5.8-4.134 7.447-5.257 8.546-7.506 7.342-3.715-1.988-15.545-1.358-18.526.987-2.636 2.073-3.479 5.287-1.679 6.4 1.386.856.1 3.527-1.697 3.527-2.953 0-9.259 2.329-9.228 3.408.149 5.166 15.5 6.965 24.208 2.838 2.607-1.235 5.18-2.246 5.719-2.246 1.007 0 .23 3.106-1 4-1.965 1.428-1.944 4.896.038 6.285 2.058 1.441 8.782 1.555 12.988.22 2.569-.815 2.824 3.333.43 6.986-2.26 3.449-1.059 4.509 5.111 4.509 13.251 0 19.943-8.736 21.45-28 1.819-23.247 10.33-29.666 32.025-24.152l6.5 1.652-.172 4.5c-.702 18.425-1.348 21.277-5.711 25.236-2.264 2.055-4.389 3.742-4.721 3.75-.668.015-4.666 3.442-9.63 8.251-3.014 2.921-4.277 5.559-5.635 11.773-.302 1.381-1.805 3.272-3.34 4.203-1.535.931-4.504 3.289-6.597 5.24-2.093 1.951-4.001 3.547-4.241 3.547-2.475 0-6.453 6.797-6.453 11.026 0 5.96 1.532 7.364 7.226 6.623 9.083-1.182 11.687-1.919 13.829-3.915 1.746-1.626 3.347-2.02 7.535-1.85 6.596.267 9.335-1.123 16.376-8.307 3.006-3.067 6.044-5.577 6.75-5.577.706 0 1.284-.413 1.284-.918 0-1.793 6.662-4.974 18.835-8.993 11.662-3.851 16.025-6.05 20.665-10.416 6.892-6.485 9.316-6.019 9.045 1.738-.215 6.119-1.166 8.018-2.67 5.331-2.76-4.934-20.883 2.498-20.871 8.559.012 6.034 8.776 14.986 13.081 13.361 2.119-.8 3.43-.725 5.36.309 3.889 2.081 8.896-.938 14.344-8.649 1.305-1.848 3.807-3.678 5.978-4.374 5.457-1.748 9.929-5.464 11.37-9.45 1.581-4.372 2.906-4.371 10.163.005 3.19 1.923 6.228 3.497 6.75 3.497 1.311 0 1.19 1.36-.25 2.8-1.674 1.674-4.815 1.496-6.899-.39-2.015-1.823-3.168-1.364-8.062 3.211-9.841 9.199-9.784 14.306.216 19.407 4.623 2.359 6.516 2.444 10.309.466 1.576-.822 3.782-1.494 4.904-1.494 2.175 0 9.732-7.467 9.732-9.615 0-1.489 5.534-5.86 8.588-6.785 2.613-.791 8.412-5.895 8.412-7.404 0-1.603 3.143-3.018 5.5-2.477 1.1.253 2.934.563 4.076.689 2.519.279 7.097 3.737 17.808 13.455 7.75 7.032 20.4 16.137 22.419 16.137.524 0 1.512.675 2.197 1.5s2.215 1.5 3.4 1.5 3.066.638 4.179 1.417c1.113.78 3.688 1.73 5.722 2.112 2.034.381 3.699 1.094 3.699 1.582 0 .489 1.688.896 3.75.904 2.063.008 5.55.664 7.75 1.456 5.716 2.059 30.938 2.08 35.846.029 1.974-.825 5.179-1.5 7.122-1.5 1.943 0 3.532-.45 3.532-1s.918-1 2.04-1c1.122 0 3.822-.909 6-2.02 2.178-1.112 3.96-1.786 3.96-1.498 0 2.755 29.859-18.141 33.811-23.662.721-1.007 2.59-2.493 4.155-3.302 1.564-.809 3.642-2.269 4.617-3.245.976-.975 2.706-1.877 3.845-2.004 1.14-.127 3.681-.505 5.649-.839 3.156-.537 3.787-.275 5.375 2.231 2.342 3.697 5.099 5.93 10.173 8.239 2.708 1.232 5.25 3.548 7.396 6.739 3.801 5.65 6.753 8.307 9.264 8.339.982.012 2.904.755 4.271 1.651 6.109 4.002 17.444-2.225 17.444-9.584 0-6.629-10.595-15.67-15.369-13.115-2.633 1.409-5.772 1.152-6.328-.519-.5-1.501 10.306-8.521 13.448-8.736 2.042-.14 2.718.415 3.366 2.764 1.045 3.785 4.492 6.945 9.447 8.658 3.806 1.316 9.436 5.955 9.436 7.775 0 .49 1.66 2.157 3.689 3.704 5.591 4.265 17.565 4.434 21.424.303 6.956-7.446 7.377-12.65 1.393-17.219-7.138-5.45-16.506-5.926-16.506-.838 0 4.213-1.813-1.05-2.287-6.637-.44-5.197-.251-6.425 1.066-6.93.881-.338 1.778-.084 1.994.565.217.649.919 1.184 1.56 1.189.642.004 2.824 1.579 4.85 3.5 2.026 1.92 4.164 3.491 4.75 3.491.587 0 1.067.411 1.067.913 0 .896 11.691 5.087 14.19 5.087 1.181 0 9.656 3.066 14.357 5.194 1.126.51 6.301 4.953 11.5 9.875l9.453 8.948 6.667-.238c5.427-.194 7.069.124 8.824 1.713 4.354 3.94 19.196 6.069 20.402 2.926 2.131-5.552-2.7-17.274-7.188-17.445-.388-.014-2.656-1.814-5.041-4-2.384-2.185-4.747-3.973-5.25-3.973-.503 0-.914-.675-.914-1.5s-.45-1.5-1-1.5-1.014-1.687-1.032-3.75c-.041-4.86-3.57-8.624-20.192-21.535-3.558-2.763-3.589-2.854-4.124-12-.297-5.068-.831-10.833-1.187-12.809-.64-3.554-.598-3.608 3.694-4.769C778.564 277.783 789 277.035 789 279.5c0 .825.605 1.5 1.344 1.5 1.704 0 5.932 3.738 7.917 7 1.735 2.85 2.759 9.049 3.253 19.7.791 17.057 12.248 27.42 26.182 23.684l2.197-.589-2.541-3.84c-3.576-5.403-2.659-6.137 6.717-5.379 9.132.738 10.294-.184 7.541-5.985-2.734-5.761-2.402-6.332 2.31-3.981 9.027 4.503 18.455 4.691 23.986.479 3.576-2.724 2.149-4.756-3.926-5.592-5.132-.706-5.159-.728-4.605-3.853 1.227-6.915-9.484-11.214-18.961-7.611-3.246 1.234-5.765-.679-8.862-6.728-1.071-2.093-2.823-4.803-3.893-6.022-1.619-1.845-1.848-3.164-1.363-7.863 1.465-14.193-2.368-21.604-11.717-22.658-5.209-.587-19.294 1.553-20.92 3.179-.583.583-1.875 1.059-2.873 1.059-.997 0-2.595.426-3.55.947-6.924 3.778-32.664 16.053-33.661 16.053-.68 0-1.798-1.012-2.483-2.25-1.313-2.37-8.236-7.929-20.236-16.25-3.966-2.75-9.719-7.61-12.784-10.799-3.064-3.19-9.401-9.774-14.08-14.631-8.914-9.251-25.533-21.07-29.63-21.07-1.207 0-2.353-.472-2.545-1.048-.655-1.965-11.334-2.34-16.697-.586-2.748.899-5.824 1.634-6.835 1.634-1.012 0-2.902.744-4.2 1.653-2.204 1.544-2.579 1.536-5.653-.12l-3.293-1.773-4.655 4.37c-6.64 6.233-7.264 6.46-8.725 3.169-2.082-4.69-16.357-19.422-21.645-22.336-1.533-.845-4.614-2.983-6.845-4.75s-4.544-3.213-5.14-3.213c-.596 0-3.579-1.35-6.629-3-3.05-1.65-6.622-3-7.939-3-1.317 0-2.553-.475-2.746-1.055-.193-.58-2.948-1.407-6.121-1.838-3.173-.43-6.293-1.306-6.932-1.945-1.504-1.504-37.434-1.646-37.933-.15m-255.352 88.627c-3.953 3.636-6.071 11.263-2.727 9.82 5.727-2.471 16.751-4.432 25.25-4.492l9.5-.067-4-1.785c-11.362-5.07-24.516-6.701-28.023-3.476m529.023.958c-3.85 1.381-7.788 2.765-8.75 3.074-3.853 1.238-1.252 1.835 8.505 1.952 9.203.111 11.986.594 22.495 3.902 1.979.623 2.246.362 2.218-2.158-.097-8.795-10.672-11.721-24.468-6.77m-525.633 17.265c-6.456 3.02-6.582 3.271-5.676 11.355.863 7.71.17 17.442-1.308 18.355-2.579 1.594-.78 3.289 2.367 2.231 5.327-1.792 5.745-2.522 5.823-10.175.079-7.694 1.091-15.203 2.747-20.378 1.178-3.68 1.045-3.727-3.953-1.388m538.447 1.388c.301 1.238 1.017 4.05 1.593 6.25.575 2.2 1.062 7.375 1.083 11.5.052 10.412.598 12 4.127 12 1.585 0 2.883.45 2.883 1s.45 1 1 1c1.436 0 1.233-2.326-.494-5.636-2.212-4.241-1.872-12.455.869-20.994.579-1.806-.079-2.529-4.327-4.75-6.173-3.228-7.446-3.298-6.734-.37m-553.969 12.293c-.326.849-.331 1.804-.012 2.124 1.009 1.009 3.667-.539 3.667-2.136 0-1.996-2.888-1.986-3.655.012m570.905.707c.228.688 1.164 1.395 2.079 1.573 1.16.225 1.481-.154 1.061-1.25-.71-1.849-3.753-2.162-3.14-.323m-391 95.97c-2.228 1.075-2.25 1.294-2.25 22.133 0 16.37-.267 20.78-1.2 19.847-.66-.66-2.123-1.214-3.25-1.232-1.128-.017-2.924-.692-3.991-1.5-2.672-2.021-17.026-1.994-20.923.038-1.576.822-3.457 1.494-4.181 1.494-3.413 0-14.455 10.575-14.455 13.844 0 .51-.672 2.216-1.494 3.792-.997 1.913-1.496 5.827-1.5 11.785-.009 13.87 6.256 24.748 16.86 29.273 1.999.853 4.415 1.945 5.37 2.428 3.904 1.973 16.807 1.003 22.505-1.693 4.813-2.277 5.568-2.395 6.597-1.031 1.653 2.191 17.381 2.66 18.71.559.529-.836.928-22.168.937-50.046l.015-48.59-2.547-1.16c-3.152-1.437-12.175-1.401-15.203.059m-191.181 2.945c-2.85 1.062-3.069 4.69-3.069 50.769 0 35.054.266 44.048 1.347 45.527 1.714 2.343 19.326 2.662 20.775.375.779-1.228 1.491-26.373.944-33.336-.205-2.614.35-2.099 4.311 4 2.501 3.85 5.014 7.544 5.585 8.208.571.664 1.038 1.476 1.038 1.805 0 .328 1.8 3.247 4 6.487s4.018 6.252 4.041 6.695c.022.443 1.388 2.38 3.036 4.305l2.995 3.5h8.714c4.793 0 9.502-.353 10.464-.785 2.144-.962 2.295-5.018.25-6.715-.825-.685-1.5-1.817-1.5-2.515 0-.699-.578-1.493-1.283-1.764-.706-.27-2.169-2.338-3.25-4.595-1.082-2.257-2.25-4.108-2.596-4.115-.345-.006-1.188-1.361-1.871-3.011-.683-1.65-1.638-3-2.121-3-.484 0-.879-.468-.879-1.04 0-1.184-4.111-7.287-5.25-7.793-2.084-.926-.57-4.253 2.186-4.804 1.615-.323 3.176-1.212 3.469-1.975.293-.763 1.025-1.388 1.628-1.388 1.627 0 7.705-7.527 9.287-11.5 3.765-9.461 3.633-14.873-.661-27-1.163-3.283-8.814-11.097-11.791-12.042-1.027-.326-1.868-.965-1.868-1.42 0-1.859-43.637-4.474-47.931-2.873m234.172 1.821c-1.681 2.692-1.637 15.441.059 16.848.715.593 5.012 1.211 9.55 1.372l8.25.294-.048 37c-.028 21.998.342 37.608.912 38.5 1.13 1.767 18.739 3.189 20.786 1.678.962-.71 1.25-9.757 1.25-39.3V414h8.929c11.075 0 12.071-.745 12.071-9.024 0-3.235-.522-7.028-1.161-8.429l-1.16-2.547H505.58c-27.95 0-29.148.078-30.339 1.986m-214.025 28.761.284 10.747 7.5-.306c9.588-.391 10.223-.602 12.284-4.091 3.056-5.173.822-15.097-3.398-15.097-1.037 0-1.886-.45-1.886-1 0-.578-3.178-1-7.534-1h-7.534l.284 10.747m67.325 4.245c-2.177.418-4.127 1.267-4.333 1.885-.206.617-1.031 1.123-1.834 1.123-1.578 0-2.342.569-8.385 6.249-2.194 2.062-3.989 4.199-3.989 4.75 0 .551-.367 1.001-.815 1.001-1.469 0-5.205 12.392-5.195 17.229.011 5.023 3.706 17.771 5.151 17.771.472 0 .859.495.859 1.1 0 1.403 6.456 7.9 7.85 7.9.578 0 1.41.563 1.85 1.25 2.172 3.395 30.3 7.048 30.3 3.936 0-.515 1.296-1.195 2.879-1.512 1.584-.317 3.577-1.273 4.429-2.125.852-.852 2.052-1.549 2.666-1.549 2.638 0 10.199-10.347 9.318-12.75-.687-1.874-17.239-1.68-20.928.245-6.062 3.163-15.174 2.66-19.022-1.051-1.434-1.383-3.455-8.451-2.745-9.6.286-.464 10.589-.844 22.895-.844 21.751 0 22.392-.058 23.031-2.071.823-2.596-.431-13.929-1.542-13.929-.452 0-1.125-1.38-1.496-3.068-.37-1.687-1.306-3.31-2.079-3.607-.773-.296-1.406-1.166-1.406-1.932s-.337-1.4-.75-1.409c-.413-.009-2.273-1.359-4.136-3-1.862-1.641-4.187-2.984-5.166-2.984-.98 0-1.954-.519-2.166-1.154-.75-2.251-16.98-3.444-25.241-1.854m380.209.211c-2.062.547-3.75 1.401-3.75 1.896 0 .496-.638.901-1.417.901s-1.645.563-1.924 1.25c-.502 1.239-2.09-.218-2.967-2.722-.403-1.153-14.589-2.022-18.203-1.114l-2.518.631.265 30.728.264 30.727 8.362.861c13.14 1.354 13.383 1.029 13.195-17.584-.143-14.212.978-22.777 2.982-22.777.528 0 .961-.645.961-1.433s.9-1.718 2-2.067c1.1-.349 2-1.054 2-1.567 0-.513 3.359-.933 7.465-.933 8.861 0 9.535-.695 9.535-9.836 0-5.795-.091-6-3.149-7.066-3.725-1.299-7.944-1.265-13.101.105m38.5-.155c-1.788.555-3.25 1.446-3.25 1.981 0 .534-.743.971-1.652.971-1.787 0-10.266 5.993-10.317 7.292-.017.435-.931 1.758-2.031 2.938-1.1 1.181-2 2.925-2 3.875 0 .951-.562 1.916-1.25 2.145-1.914.638-1.656 23.443.304 26.75 4.708 7.949 9.178 12.905 11.696 12.968.688.018 1.25.447 1.25.954 0 .508 1.688 1.462 3.75 2.121 2.063.659 4.178 1.594 4.7 2.078 1.311 1.213 20.174 1.111 22.314-.121.955-.549 2.861-1.448 4.236-1.997 15.197-6.067 23.342-26.287 16.867-41.87-1.174-2.823-2.524-5.133-3-5.133-.477 0-.867-.837-.867-1.859 0-2.166-6.735-8.188-12.5-11.177-4.647-2.409-22.712-3.634-28.25-1.916m-201 .658c-1.237.238-2.25.852-2.25 1.364 0 .511-.9.93-2 .93-2.558 0-14 11.374-14 13.917 0 1.054-.525 2.091-1.167 2.305-.792.264-1.194 4.067-1.25 11.834-.09 12.428 1.254 17.007 6.852 23.35 1.411 1.598 2.565 3.285 2.565 3.75 0 .464.638.844 1.417.844s1.566.337 1.75.75c.183.413 2.817 1.762 5.852 3 9.817 4.002 26.74 2.275 30.162-3.078.422-.661 1.42-.151 2.629 1.342 1.759 2.172 2.619 2.383 8.819 2.168 11.489-.399 10.371 3.011 10.371-31.642 0-34.606.972-31.54-10-31.54-8.131 0-10 .581-10 3.107 0 1.041-.45 1.893-1 1.893s-1-.45-1-1-1.07-1-2.378-1c-1.307 0-2.937-.675-3.622-1.5-1.212-1.461-15.567-1.985-21.75-.794m62.75.088c-4.3.505-5 3.851-5 23.905 0 11.534.37 18.301 1 18.301.55 0 1 1.324 1 2.943 0 3.075 3.54 10.057 5.099 10.057.495 0 .901.675.901 1.5s.862 1.5 1.917 1.5c1.054 0 2.066.354 2.25.788 2.686 6.348 37.533 6.611 39.637.299.2-.598 1.179-1.087 2.176-1.087 2.132 0 8.332-6.687 7.479-8.067-.322-.521.118-1.217.978-1.547 2.041-.783 2.383-46.166.363-48.186-1.553-1.553-14.868-1.582-18.253-.039l-2.547 1.16-.006 17.59c-.006 19.975-.739 24.019-4.683 25.839-3.253 1.501-7.311 1.639-7.311.25 0-.55-.884-1-1.965-1-3.994 0-4.665-3.93-5.348-31.32-.224-8.974-.644-12.042-1.741-12.741-1.305-.832-9.47-.906-15.946-.145m207.643.706c-.825.825-2.452 1.5-3.615 1.5-2.453 0-9.586 6.257-11.629 10.2-2.194 4.235-1.835 14.416.601 17.03 1.1 1.181 2 2.737 2 3.459 0 .721 1.077 1.311 2.393 1.311 1.316 0 2.645.657 2.953 1.459.334.869 2.601 1.73 5.607 2.129 2.776.368 5.047 1.062 5.047 1.541 0 .479 1.281.871 2.847.871 3.578 0 5.312 3.213 3.911 7.25-.907 2.614-1.27 2.75-7.356 2.75-3.521 0-6.402-.378-6.402-.84 0-1.348-7.518-3.448-9.778-2.73-2.32.736-6.44 7.853-5.675 9.803.273.697 2.399 2.13 4.725 3.185a2082.17 2082.17 0 0 1 7.132 3.25c4.64 2.129 20.029 1.737 26.368-.673 20.767-7.893 18.154-35.217-3.772-39.438-5.94-1.143-8-2.613-8-5.707 0-3.533 2.593-4.326 11.273-3.449 7.106.718 7.582.494 9.994-4.72 2.121-4.585 1.859-5.118-3.773-7.684-5.64-2.569-22.443-2.905-24.851-.497m-484.625 13.179c-2.578 1.117-3.892 2.972-4.21 5.941l-.308 2.88 11.249.283c12.498.314 13.387-.348 8.546-6.365-2.132-2.649-11.577-4.343-15.277-2.739m77.489 4.627c-8.957 6.567-10.381 14.507-3.891 21.691 8.6 9.519 24.384 2.756 24.384-10.447 0-1.953-.42-3.55-.933-3.55-.513 0-1.218-.9-1.567-2s-1.306-2-2.126-2c-.821 0-1.242-.405-.936-.9.729-1.179-6.858-5.116-9.719-5.044-1.22.03-3.566 1.043-5.212 2.25m145.236.223c-6.152 4.18-8.73 12.851-5.586 18.787 5.067 9.564 21.954 9.057 24.412-.734.356-1.42 1.049-2.582 1.539-2.582 1.837 0 .794-5.163-1.924-9.53-5.006-8.043-12.022-10.303-18.441-5.941m199.464-.512c-9.086 4.89-11.41 15.722-4.861 22.663 4.928 5.223 15.39 5.299 19.831.144 5.052-5.865 5.449-12.251 1.073-17.263-1.237-1.417-2.25-2.987-2.25-3.489 0-.502-1.345-1.208-2.989-1.569-1.643-.361-3.245-1.072-3.559-1.58-.825-1.335-3.475-.935-7.245 1.094M0 667.003c0 1.387 1080.204.884 1080.667-.503.222-.666-180.166-.916-540.167-.748-359.169.167-540.5.587-540.5 1.251" fill-rule="evenodd"/>
<path fill="#ef9930" stroke="#ef9930" d="M407.776 207.982c-5.021 1.577-13.267 5.743-16.26 8.216-.559.462-1.996 1.618-3.194 2.571-7.88 6.264-14.557 12.453-18.388 17.043-8.826 10.574-11.576 13.167-19.934 18.796-4.675 3.149-8.65 6.1-8.833 6.558-.184.459-.758.834-1.277.834-1.802 0-17.89 15.199-17.89 16.901 0 .604-.34 1.099-.756 1.099-2.272 0-5.228 13.054-5.238 23.131-.006 5.338-.202 5.779-3.756 8.447-2.062 1.549-3.975 3.071-4.25 3.382-.275.311-3.538 3.002-7.252 5.979-6.549 5.25-8.724 8.788-8.742 14.215-.003.91-4.513 5.41-10.021 10L271.97 353.5l.265 5c.297 5.613.157 5.558 10.221 3.959 3.589-.57 5.696-1.596 7.635-3.72 2.262-2.476 2.998-2.762 4.728-1.836 4.976 2.663 10.32.759 17.458-6.221 7.494-7.33 14.401-12.682 16.364-12.682 1.232 0 2.519-.45 2.859-1 .34-.55 1.431-1 2.426-1 .994 0 4.005-.852 6.691-1.893 2.685-1.042 6.688-2.377 8.894-2.969 2.427-.65 6.124-3.029 9.365-6.023 4.983-4.605 5.764-4.972 11.241-5.282 4.221-.239 5.886.021 5.885.917-.001.688-.38 1.25-.841 1.25-1.563 0-3.117 4.972-2.507 8.022.77 3.847-1.837 6.978-5.809 6.978-2.166 0-2.845-.471-2.845-1.975 0-3.808-13.254 1.014-14.354 5.221-1.553 5.939 8.685 16.546 10.757 11.146.567-1.478.817-1.478 3.072 0 1.35.884 3.493 1.608 4.762 1.608 2.373 0 9.763-5.385 9.763-7.115 0-1.747 3.418-4.455 8-6.338 5.067-2.082 10-6.689 10-9.34 0-3.223 3.007-6.566 4.347-4.834.634.818 4.815 3.694 9.291 6.389l8.137 4.901-1.566 2.581c-1.87 3.082-6.916 4.227-9.319 2.115-2.218-1.95-5.689-.491-9.702 4.08-4.286 4.881-4.265 8.638.066 11.941 6.096 4.65 8.25 4.93 10.954 1.425 2.145-2.782 2.582-2.953 4.498-1.757 1.916 1.197 2.467.979 5.707-2.261 1.973-1.973 3.588-3.969 3.588-4.437.003-1.672 4.577-5.892 8.999-8.302 5.064-2.76 8.004-5.873 7.294-7.723-.278-.727.599-1.466 2.115-1.783 1.425-.298 3.607-.748 4.849-1 1.242-.253 2.906-.059 3.696.43.813.502 2.138.514 3.047.027 1.205-.645 2.307.014 4.389 2.623 2.999 3.759 5.062 3.43 5.914-.945.318-1.636.461-1.431.575.823.504 9.979 13.894 6.22 16.627-4.667.903-3.6 5.975-8.833 8.56-8.833 1.85 0 1.986.233.899 1.542-3.942 4.75 10.078 5.71 14.723 1.009 1.547-1.566 2.362-3.027 1.812-3.248-4.923-1.977-13.044-7.173-13.302-8.512-.477-2.481 2.841-7.152 4.151-5.842 1.97 1.97 2.743 1.057 2.083-2.46-.41-2.187-.207-4.055.539-4.953 1.195-1.441.97-9.73-.527-19.401-1.209-7.808 7.126-12.747 20.105-11.914 4.098.263 7.451.096 7.451-.371 0-.468-.45-.85-1-.85s-1-.689-1-1.531c0-.843-.788-1.822-1.75-2.177-.962-.356-1.975-.959-2.25-1.341-1.574-2.187-10.425-4.951-15.856-4.951-5.939 0-17.144 3.359-17.144 5.139 0 .473-.48.861-1.067.861-.607 0-.798-.85-.443-1.969.403-1.27-1.003-5.361-3.963-11.528-2.524-5.258-4.858-10.907-5.187-12.552-.658-3.289-1.855-4.545-2.83-2.967-1.056 1.708-2.851 1.149-6.51-2.028-1.925-1.671-4.777-4.033-6.337-5.247-1.56-1.215-5.835-4.985-9.5-8.378l-6.663-6.169-3 1.773c-3.455 2.041-11.488 1.714-12.782-.521-.516-.891-1.786-1.15-3.729-.762-2.517.504-3.092.207-3.943-2.031-.603-1.587-1.763-2.621-2.939-2.621-1.069 0-2.543-.183-3.275-.408-.733-.224-3.908.402-7.056 1.39m250.867.518c-1.357 1.357-1.589 2.677-1.073 6.115.421 2.814.281 4.385-.393 4.385-.578 0-1.191-1.417-1.364-3.149-.393-3.949-3.445-6.185-4.916-3.601-.712 1.25-2.252 1.75-5.388 1.75-2.415 0-4.669.45-5.009 1-.904 1.462-2.5 1.221-2.5-.378 0-4.162-4.347-3.52-9 1.33-.825.86-4.874 4.485-8.999 8.056-4.124 3.57-8.116 7.077-8.87 7.791-.755.715-2.714 1.568-4.355 1.896-3.099.62-6.765 5.251-6.772 8.555-.002.963-.454 1.75-1.004 1.75s-1.008.787-1.018 1.75c-.01.963-1.36 4.184-3 7.16-1.64 2.975-2.982 6.161-2.982 7.079 0 1.427-.834 1.262-5.75-1.137-10.375-5.065-26.55-2.148-31.703 5.716-2.363 3.608-1.385 4.174 5.296 3.07 7.024-1.162 13.885.847 18.25 5.344 2.78 2.864 2.771 2.246.243 16.881-.32 1.85-.009 5.098.691 7.218 1.01 3.062 1.018 4.16.036 5.343-.679.819-.928 1.985-.553 2.592.453.733 1.143.495 2.054-.706 1.297-1.711 1.374-1.691 1.404.373.018 1.221.842 2.439 1.872 2.766 5.122 1.626 4.331 9.613-.819 8.267-1.115-.292-2.619.287-3.619 1.392-.942 1.041-2.516 1.892-3.498 1.892-4.803 0-2.477 5.473 3.148 7.407 4.714 1.621 9.061.36 12.005-3.481l2.375-3.099 1.117 3.337c.85 2.539 1.768 3.413 3.846 3.658 2.145.254 2.493.608 1.624 1.655-1.875 2.26.022 6.541 4.262 9.611 4.922 3.566 7.536 3.662 11.313.413 1.599-1.374 3.645-2.499 4.549-2.5 1.973-.001 2.811-1.914 2.993-6.833.103-2.762.25-3.051.596-1.168.72 3.917 2.051 4.909 5.774 4.305 4.787-.777 10.494.461 10.494 2.275 0 2.852 2.963 5.978 8.324 8.783 3.686 1.929 6.265 4.2 8.145 7.174 4.301 6.804 6.082 8.071 9.523 6.772 3.196-1.206 4.008-.843 4.008 1.79 0 2.931 3.651 3.28 7.765.743 9.004-5.552 9.307-7.581 2.223-14.855-5.448-5.592-7.203-5.9-8.015-1.405-.418 2.312-.672 2.554-1.219 1.168-.38-.962-1.44-1.75-2.355-1.75-2.535 0-8.359-3.942-7.831-5.3.256-.66 2.371-2.271 4.699-3.58 2.328-1.31 6.776-4.095 9.883-6.19l5.65-3.809.686 3.656c1.059 5.646 4.151 9.08 11.004 12.218 4.336 1.987 6.906 3.91 8.354 6.253 4.298 6.953 9.947 9.061 14.133 5.273 1.588-1.437 1.839-1.444 2.368-.064 1.736 4.523 11.697-3.503 11.64-9.378-.052-5.31-12.747-10.481-16.027-6.528-.716.862-2.434 1.417-3.872 1.25-2.402-.28-2.607-.706-2.884-5.992-.236-4.496-.81-6.177-2.733-8-2.411-2.287-2.432-2.472-2.228-19.309l.207-17 .3 16.75c.221 12.335.623 16.772 1.526 16.835.674.047 3.545.017 6.379-.068 4.716-.14 5.301.097 6.892 2.789 1.787 3.025 10.88 9.194 13.552 9.194.824 0 5.302 1.341 9.951 2.98 4.649 1.639 9.127 2.992 9.952 3.005.825.014 3.117 1.485 5.093 3.27a404.648 404.648 0 0 0 6.511 5.745c1.605 1.375 5.114 4.413 7.798 6.75 5.091 4.434 11.599 5.849 14.332 3.116.845-.845 1.851-.368 3.95 1.875 2.212 2.363 4.262 3.274 9.555 4.245 8.341 1.53 9.782 1.054 9.691-3.205-.109-5.086-.875-6.158-9.43-13.201-8.351-6.875-11.482-10.708-11.5-14.08-.017-3.257-3.092-7.117-10-12.554-13.637-10.733-14-11.212-14-18.437 0-7.45-1.664-16.155-3.629-18.982-1.985-2.855-1.769-3.334 2.268-5.021 2.82-1.178 3.959-1.255 5.059-.341 1.094.907 2.958.867 8.111-.178 13.586-2.753 32.602-1.013 39.556 3.62 1.025.683 2.482 1.005 3.236.716 3.027-1.162 4.377 7.575 1.903 12.313-1.351 2.587-1.335 2.983.169 4.098 1.549 1.148 1.542 1.371-.102 3.187-1.546 1.709-1.613 2.431-.53 5.766 2.746 8.467 9.067 13.313 17.36 13.313 5.168 0 6.36-1.179 4.343-4.294-.785-1.213-1.722-3.402-2.082-4.863-.359-1.462-.93-3.379-1.269-4.261-.591-1.541 2.194-1.275 3.607.345 2.753 3.155 16.154 7.454 20.622 6.616 3.982-.747 4.581-4.5.878-5.502-4.988-1.349-6.044-2.656-4.49-5.559 2.1-3.925-1.253-6.482-8.499-6.482-7.568 0-12.507 2.272-12.526 5.763-.009 1.506-.346 2.287-.75 1.737-1.392-1.895-5.29-3.546-9.845-4.17-5.592-.767-5.917-1.507-3.441-7.83 1.076-2.75 1.978-4.429 2.004-3.731.068 1.828 7.323 11.106 8.738 11.174 2.465.118 2.243-1.94-.676-6.266-1.658-2.457-3.015-4.909-3.015-5.45 0-1.666-2.737-3.461-3.47-2.276-1.661 2.687-2.69.774-2.127-3.951.329-2.75.86-7.173 1.182-9.828 1.666-13.749-6.592-20.756-20.335-17.255-2.337.596-6.065 1.539-8.284 2.096-2.218.557-4.806 1.441-5.75 1.965-.944.523-3.966 1.901-6.716 3.061-9.234 3.894-23.645 11.441-26.074 13.655l-2.408 2.194-5.122-4.989c-5.165-5.031-19.965-16.423-27.436-21.119-2.221-1.397-5.335-4.281-6.92-6.41-4.377-5.881-22.424-23.556-27.805-27.232-12.333-8.424-25.42-12.31-29.092-8.638M411 216.851c0 .468 2.247.806 4.994.75 6.519-.132 6.525-1.601.006-1.601-2.75 0-5 .383-5 .851m252.521 1.173c1.399 1.545 2.023 1.723 2.64.75 1.362-2.146.95-2.774-1.816-2.774-2.602 0-2.618.04-.824 2.024m6.292 7.659c.721.289 1.584.253 1.916-.079.332-.332-.258-.568-1.312-.525-1.165.048-1.402.285-.604.604m7 6c.721.289 1.584.253 1.916-.079.332-.332-.258-.568-1.312-.525-1.165.048-1.402.285-.604.604m9.382 11.817c.02 1.65.244 2.204.498 1.231.254-.973.237-2.323-.037-3-.274-.677-.481.119-.461 1.769m3.037 9.5c0 1.925.206 2.713.457 1.75.252-.963.252-2.537 0-3.5-.251-.963-.457-.175-.457 1.75m-428.844.98c-5.416 2.188-6.638 5.649-6.164 17.448l.44 10.928-3.332 2.926c-1.833 1.609-3.332 3.338-3.332 3.841 0 .504-1.157 2.75-2.572 4.991-1.415 2.241-2.408 4.24-2.207 4.441.645.644 4.779-.757 4.779-1.62 0-.458 1.012-1.931 2.25-3.274 8.195-8.894 8.003-8.518 7.954-15.543-.088-12.492 2.544-17.153 10.724-18.991 6.025-1.353 21.261 2.704 30.072 8.008.825.496 2.801 1.51 4.392 2.253 4.101 1.915 2.112 2.202-10.138 1.463-18.344-1.108-32.358 1.865-33.089 7.018-.575 4.063 1.152 4.334 7.405 1.163 3.529-1.789 7.347-2.965 9.43-2.903 1.925.057 2.702.311 1.727.565-3.934 1.025-6.811 9.599-6.743 20.101.034 5.338-.061 10.605-.211 11.705-.168 1.232.303 2 1.227 2 1.175 0 1.655-2.021 2.217-9.324.781-10.161 3.466-17.267 7.529-19.929 1.24-.813 2.254-2.084 2.254-2.827 0-2.657 3.863-3.569 12.076-2.853 4.382.382 8.21 1.086 8.505 1.564.789 1.276 5.829 1.059 7.199-.311.906-.906 1.748-.875 3.632.133 1.349.722 3.156 1.043 4.014.714 2.498-.959-.074-5.431-3.564-6.197-1.574-.346-2.862-.994-2.862-1.441 0-.447-1.233-1.122-2.74-1.5-1.507-.378-2.969-.989-3.25-1.358-.28-.369-2.76-1.729-5.51-3.022-2.75-1.293-5.781-2.755-6.736-3.25-.955-.494-2.305-.898-3-.896-.695.001-3.064-.867-5.264-1.929-9.308-4.494-21.547-6.342-27.112-4.094M387 265.45c0 6.709-.379 9.683-1.308 10.25-1.032.631-.926 1.169.5 2.55 1.741 1.685 1.808 1.303 1.808-10.25 0-6.6-.225-12-.5-12s-.5 4.253-.5 9.45m413-5.773c-3.325.538-14.251 4.412-15.45 5.478-.522.465-1.705.845-2.628.845-.922 0-2.215.648-2.872 1.44-.657.792-2.08 1.579-3.162 1.75-6.269.988.828 1.951 15.612 2.118 16.07.181 17.285.333 22.207 2.775 6.911 3.429 8.507.121 4.216-8.741-2.709-5.597-8.003-7.27-17.923-5.665M476 267l-2.5.801 2.75.099c1.512.055 2.75-.35 2.75-.9s-.113-.955-.25-.9c-.137.055-1.375.46-2.75.9m-8.187 3.683c.721.289 1.584.253 1.916-.079.332-.332-.258-.568-1.312-.525-1.165.048-1.402.285-.604.604m139.937-.021c.688.278 1.813.278 2.5 0 .688-.277.125-.504-1.25-.504s-1.937.227-1.25.504m160 3c.688.278 1.813.278 2.5 0 .688-.277.125-.504-1.25-.504s-1.937.227-1.25.504m-77.185 2.233c-.305.493.006 1.101.691 1.353 1.753.644 3.868-.239 3.191-1.333-.724-1.172-3.162-1.184-3.882-.02m-231.486 2.688c.048 1.165.285 1.402.604.605.289-.722.253-1.585-.079-1.917-.332-.332-.568.258-.525 1.312m333.921-.55c0 .569 1.556 2.589 3.457 4.491 1.901 1.901 4.002 5.373 4.669 7.716.666 2.343 1.585 4.688 2.043 5.21.457.522.831 4.208.831 8.191 0 3.983.457 7.524 1.016 7.869.559.346.74 1.076.401 1.624-1.968 3.184 3.644 12.687 9.27 15.698 5.51 2.949 11.626.582 9.357-3.622-.508-.94-1.16-2.85-1.448-4.244-.552-2.664-6.147-6.05-12.189-7.377l-3.092-.679-.2-10.163C806.758 284.6 803.748 277 796.918 277c-2.155 0-3.918.465-3.918 1.033M689.195 282.5c.02 1.65.244 2.204.498 1.231.254-.973.237-2.323-.037-3-.274-.677-.481.119-.461 1.769m-215.115 1c-.138 5.334 4.033 8.929 10.36 8.929 4.988 0 8.56-1.482 8.56-3.551 0-1.211-3.739-1.109-4.5.122-1.982 3.208-11.886-1.819-13.791-7-.303-.825-.586-.15-.629 1.5m145.999.083c.048 1.165.285 1.402.604.605.289-.722.253-1.585-.079-1.917-.332-.332-.568.258-.525 1.312m-18.079.759c0 1.697-6.261 5.658-8.943 5.658-1.006 0-3.085-.652-4.621-1.449-3.702-1.921-5.179-.849-2.509 1.82 3.188 3.189 11.962 3.021 15.492-.295 2.643-2.483 3.362-5.475 1.581-6.576-.55-.34-1 .039-1 .842M456.252 287.5c.011 2.2.216 2.982.455 1.738.239-1.244.23-3.044-.02-4s-.446.062-.435 2.262M258 292.981c0 4.634-.191 5.019-2.75 5.528-1.512.302-4.1 1.024-5.75 1.605-5.79 2.041-6.832 2.232-6.15 1.129.364-.59-.803-1.962-2.594-3.05-9.026-5.482-22.706-2.566-19.63 4.184 1.43 3.138.544 4.205-4.376 5.275-1.512.329-2.75 1.162-2.75 1.851 0 4.942 10.775 4.453 20.578-.935 7.428-4.083 7.422-4.082 7.422-2.054 0 1.526-.29 2.25-3.335 8.325-2.102 4.192-1.496 5.175 3.144 5.107 12.254-.181 19.142-8.01 18.714-21.272C260.18 288.055 260.172 288 259 288c-.55 0-1 2.241-1 4.981m428.079-3.398c.048 1.165.285 1.402.604.605.289-.722.253-1.585-.079-1.917-.332-.332-.568.258-.525 1.312M623.15 301.25c-.11 3.489-.548 4.75-1.65 4.75-1.057 0-1.5 1.069-1.5 3.622 0 3.053.228 3.433 1.451 2.419 1.67-1.387 2.921-8.289 2.284-12.6-.303-2.049-.481-1.501-.585 1.809m36.663 2.433c.721.289 1.584.253 1.916-.079.332-.332-.258-.568-1.312-.525-1.165.048-1.402.285-.604.604m-203.063.894c-.413.416-.693 4.169-.624 8.34l.127 7.583.898-7c.951-7.419.828-10.162-.401-8.923m199.445 2.923c.02 1.65.244 2.204.498 1.231.254-.973.237-2.323-.037-3-.274-.677-.481.119-.461 1.769M482 309c0 .55.45 1 1 1s1-.45 1-1-.45-1-1-1-1 .45-1 1m-213.789 4.042c-7.364 1.615-15.079 7.423-12.838 9.665.306.306-.09 1.478-.88 2.606-3.192 4.557 4.262 6.483 9.965 2.575 4.154-2.846 8.542-9.133 8.542-12.239 0-3.152-.662-3.512-4.789-2.607m85.602-.359c.721.289 1.584.253 1.916-.079.332-.332-.258-.568-1.312-.525-1.165.048-1.402.285-.604.604M489.5 313c.34.55.816 1 1.059 1s.441-.45.441-1-.477-1-1.059-1-.781.45-.441 1m-140.806 1.639c-.933.934.194 2.361 1.865 2.361.793 0 1.441-.675 1.441-1.5 0-1.506-2.111-2.056-3.306-.861m74.621 1.32c.13 1.725.931 2.632 2.685 3.04 2.077.483 2.601 1.335 3.1 5.041l.6 4.46.15-5.125c.144-4.908.027-5.15-2.769-5.709-1.605-.321-3.151-1.39-3.434-2.375-.322-1.116-.447-.864-.332.668M676 314.941c0 .518.45 1.219 1 1.559.55.34 1-.084 1-.941s-.45-1.559-1-1.559-1 .423-1 .941m50 .476c0 .779-.562 1.611-1.25 1.849-.687.238.606.439 2.873.447 3.928.014 4.048-.074 2.528-1.849-1.888-2.205-4.151-2.449-4.151-.447M399 317.5c0 1.375.173 2.5.383 2.5.211 0 .599-1.125.862-2.5s.09-2.5-.384-2.5c-.473 0-.861 1.125-.861 2.5m86.71.5c-.287 1.1-.115 2 .384 2 .498 0 .906-.9.906-2s-.173-2-.383-2c-.211 0-.619.9-.907 2m164.04-.311c-.962.252-1.75.797-1.75 1.211 0 1.013 5.879.104 6.571-1.015.563-.91-1.73-1.003-4.821-.196m-293 .973c.688.278 1.813.278 2.5 0 .688-.277.125-.504-1.25-.504s-1.937.227-1.25.504m107.982 7.423c.369 1.411.785 1.696 1.289.882.408-.662 1.359-1.593 2.111-2.07.972-.615.599-.871-1.288-.882-2.203-.012-2.564.341-2.112 2.07m8.693-1.206c.299.484 1.477 1.124 2.617 1.422 1.701.445 1.861.287.893-.88-1.265-1.523-4.417-2.01-3.51-.542m129.844-.186c.973.254 2.323.237 3-.037.677-.274-.119-.481-1.769-.461-1.65.02-2.204.244-1.231.498m5.731-.31c0 .211 1.125.599 2.5.862s2.5.09 2.5-.384c0-.473-1.125-.861-2.5-.861s-2.5.173-2.5.383M430 329.8c0 .44.559 1.359 1.242 2.042 1.23 1.23.377 2.322-2.742 3.505-2.056.78.507 1.868 2.953 1.254 4.105-1.03 3.21-7.601-1.035-7.601-.23 0-.418.36-.418.8m215.5 1.2c.34.55 1.041 1 1.559 1s.941-.45.941-1-.702-1-1.559-1-1.281.45-.941 1M323 333l-2.5.801 2.75.099c1.512.055 2.75-.35 2.75-.9s-.113-.955-.25-.9c-.137.055-1.375.46-2.75.9m429 0c0 .55.702 1 1.559 1s1.281-.45.941-1c-.34-.55-1.041-1-1.559-1s-.941.45-.941 1m-107.003 1.197c-3.141 1.162-1.233 3.058 2.642 2.626 2.646-.296 2.757-.458 1.293-1.907-1.156-1.144-2.247-1.344-3.935-.719M360 343.059c0 .582.45.781 1 .441s1-.816 1-1.059-.45-.441-1-.441-1 .477-1 1.059M405.158 347c0 1.375.227 1.938.504 1.25.278-.687.278-1.812 0-2.5-.277-.687-.504-.125-.504 1.25M294.5 355c.34.55.816 1 1.059 1s.441-.45.441-1-.477-1-1.059-1-.781.45-.441 1m139.353 37.67c-2.516.668-2.825 3.286-2.839 24.08-.014 19.94-.284 21.126-4.03 17.736-2.064-1.869-11.815-4.486-16.712-4.486-33.392 0-41.951 50.566-10.272 60.692 7.944 2.539 22.396 1.627 25-1.577 2.093-2.576 4.586-2.754 6.702-.481 2.748 2.952 13.06 3.461 15.744.778 2.346-2.347 2.31-91.888-.04-95.242-1.487-2.124-8.348-2.883-13.553-1.5m-193.766 5.168c-1.617 3.021-1.51 90.339.113 91.962.723.723 4.222 1.2 8.8 1.2 10.409 0 10 .866 10-21.169 0-21.586.127-21.778 6.988-10.556 2.43 3.974 4.664 7.45 4.965 7.725.301.275 1.086 1.4 1.745 2.5 7.456 12.445 9.768 16.05 10.472 16.333.457.184.83.982.83 1.775 0 2.201 4.368 3.392 12.443 3.392 10.498 0 10.738-.769 3.517-11.312-3.278-4.787-5.96-8.972-5.96-9.302 0-.329-1.35-2.303-3-4.386s-3-4.102-3-4.486c0-.384-.9-1.843-2-3.241-2.427-3.085-2.614-6.273-.368-6.273 4.195 0 11.65-6.541 15.809-13.872 3.41-6.009 2.926-22.12-.842-28.021-3.461-5.421-6.54-8.326-11.934-11.258-6.247-3.396-46.849-4.241-48.578-1.011M476.2 397.2c-1.566 1.566-1.566 13.034 0 14.6.761.761 4.6 1.2 10.5 1.2h9.3v76.962l2.271.57c1.249.313 5.411.434 9.25.269l6.979-.301.5-38.5.5-38.5 6.5-.246c3.575-.135 7.962-.493 9.75-.795l3.25-.55v-6.754c0-3.921-.504-7.259-1.2-7.955-1.711-1.711-55.889-1.711-57.6 0M259 424.465c0 14.399 2.516 16.239 16.432 12.017 7.04-2.135 8.568-4.154 8.568-11.322 0-9.558-3.358-12.16-15.69-12.16H259v11.465m64.443 8.391c-25.148 13.462-22.683 49.662 3.985 58.509 8.369 2.776 22.305 1.307 29.449-3.105 4.008-2.476 9.123-7.497 9.123-8.956 0-.717.45-1.304 1-1.304s1-.623 1-1.383c0-3.066-13.278-3.707-17.115-.827-9.681 7.265-21.842 4.39-25.818-6.105-2.239-5.907-3.089-5.685 21.733-5.685 16.4 0 23.137-.337 24-1.2 4.038-4.038-4.011-23.728-11.283-27.6-9.013-4.8-10.641-5.2-20.85-5.126-9.061.066-10.717.369-15.224 2.782m223.918-1.353c-6.798 2.144-15.361 8.379-15.361 11.184 0 .722-.389 1.313-.865 1.313-1.513 0-5.135 12.446-5.135 17.642 0 5.148 2.347 13.706 4.486 16.358.666.825 1.482 2.267 1.813 3.205 1.182 3.338 9.976 8.665 16.954 10.268 7.885 1.812 18.476.28 23.68-3.425 3.44-2.45 4.067-2.53 4.067-.523 0 3.058 11.615 4.822 16.066 2.44 2.547-1.363 3.038-54.073.535-57.496-2.699-3.691-15.037-2.852-16.026 1.09-.708 2.819-2.191 3.098-4.65.873-4.093-3.704-18.04-5.302-25.564-2.929m160.139.167c-1.65.899-4.43 2.72-6.177 4.046l-3.178 2.411-.322-2.814-.323-2.813-8.915-.291c-6.458-.211-9.142.064-9.735 1-1.378 2.172-1.05 55.191.35 56.591 1.249 1.249 14.335 1.699 17.218.593 1.35-.518 1.582-2.919 1.582-16.378 0-23.532 4.351-29.986 20.231-30.009 4.298-.007 5.117-1.631 4.585-9.086l-.316-4.42-6-.233c-4.042-.157-6.979.301-9 1.403m40.048-.747c-.314.508-1.937 1.223-3.607 1.59-4.792 1.052-13.14 9.981-15.731 16.826-9.797 25.882 14.725 50.444 41.925 41.994 27.29-8.477 30.016-46.655 4.203-58.866-5.472-2.589-25.434-3.739-26.79-1.544m69.342.952c-20.809 7.336-20.735 30.863.11 34.604 17.836 3.201 16.903 16.49-.99 14.117-2.685-.356-6.064-1.261-7.51-2.012-3.649-1.893-5.924-1.015-7.852 3.028-2.076 4.354-2.205 3.864 1.602 6.097 13.766 8.073 35.636 6.001 42.472-4.024 7.847-11.507 2.658-24.937-11.222-29.045-11.216-3.319-12.322-4.227-11.098-9.106.619-2.466 7.427-5.376 9.532-4.075.488.302 2.79.623 5.116.714 4.809.189 6.95-1.75 6.95-6.293 0-5.203-16.711-7.671-27.11-4.005m-210.468 2.579c-.349 1.391-.473 11.195-.277 21.787l.358 19.259 3.021 4.477c12.388 18.357 46.905 16.527 56.172-2.977 1.748-3.68 3.222-37.206 1.872-42.586-.616-2.454-.753-2.484-9.846-2.201l-9.222.287-.561 18.5c-.624 20.626-.892 21.95-4.915 24.326-4.671 2.76-10.347 2.197-13.926-1.382l-3.055-3.055-.272-19.195-.271-19.194-9.222-.287c-9.13-.284-9.228-.262-9.856 2.241m-272.652 7.26c-3.31.503-8.946 6.954-8.55 9.786.458 3.271 26.78 3.638 26.78.373 0-3.503-4.613-8.671-8.769-9.826-3.778-1.049-4.564-1.077-9.461-.333m71.575 7.644c-11.933 12.399-.269 31.062 16.047 25.677 5.961-1.967 9.108-7.088 9.108-14.821 0-6.351-.062-6.498-4.379-10.328-6.19-5.494-15.763-5.737-20.776-.528m146.885-.759c-16.023 12.628 1.82 36.356 18.472 24.565 3.395-2.404 6.619-9.802 5.981-13.728-.671-4.138-5.263-11.436-7.196-11.436-.818 0-1.487-.45-1.487-1 0-2.341-12.361-1.087-15.77 1.599m196.903 1.16c-8.254 7.852-6.365 20.021 3.922 25.269 17.266 8.808 30.4-17.607 13.614-27.38-5.404-3.146-12.967-2.235-17.536 2.111" fill-rule="evenodd"/>
<path fill="#d41f39" stroke="#d41f39" d="M405.636 210.482c-1.576.835-3.224 1.518-3.663 1.518-4.147 0-24.752 17.544-35.251 30.013a3525.642 3525.642 0 0 1-5.5 6.521c-.947 1.119-4.197 3.573-7.222 5.453-9.331 5.801-17.179 12.086-25.009 20.028-9.035 9.163-10.991 13.998-10.991 27.163 0 8.5-.001 8.503-3.353 10.912-3.805 2.735-11.218 8.799-16.843 13.776-3.116 2.758-3.804 4.037-3.804 7.075 0 2.23-.698 4.374-1.75 5.377-4.152 3.958-8.13 7.495-13.558 12.056-5.073 4.262-5.762 5.265-5.496 8l.304 3.126 5.5-.352c6.264-.401 9.618-2.043 12.52-6.128 5.239-7.376 18.611-20.82 21.219-21.333 5.359-1.054 11.807-3.006 15.761-4.771 3.882-1.734 5.548-3.01 14.029-10.743 7.928-7.229 16.174-11.719 19.552-10.647 2.932.93 1.931 2.685-2.84 4.974-5.575 2.675-5.401 2.92 3.009 4.236 3.988.623 8.262 1.44 9.5 1.815l2.25.682.016-16.866c.019-18.835 1.093-22.62 7.622-26.867 3.039-1.977 3.086-2.139 4.064-14 .955-11.591 1.802-15.225 5.204-22.33 1.716-3.586 6.298-9.17 7.523-9.17.779 0 5.145-3.739 9.222-7.896 1.389-1.417 2.349-3.597 2.349-5.336 0-2.845.138-2.929 4.25-2.604 3.956.313 4.25.163 4.25-2.164 0-3.131-8.033-4.079-12.864-1.518m253.516-.597c-2.909 1.843-.809 4.629 3.298 4.376 4.515-.278 6.549 1.026 5.838 3.744-.568 2.174 2.677 5.814 10.384 11.647 2.655 2.01 5.175 4.238 5.6 4.952.425.713 1.325 1.882 2 2.597 1.164 1.231 2.481 5.071 6.135 17.887.876 3.073 1.593 8.406 1.593 11.85 0 6.057.144 6.409 4.394 10.72l4.395 4.457.712 10.896c.391 5.992.398 14.014.015 17.827-.874 8.702-.696 8.813 10.54 6.541 7.879-1.592 11.796-3.379 7.409-3.379-2.25 0-6.465-3.009-6.465-4.615 0-5.208 12.338.918 24.022 11.928 6.776 6.384 11.677 9.144 18.239 10.269 2.069.355 4.008 1.044 4.309 1.531.301.488 1.762.887 3.247.887 2.822 0 7.542 4.433 20.922 19.648 5.978 6.798 6.46 7.118 11.5 7.63 11.348 1.154 10.444-4.751-2.258-14.739-9.005-7.082-10.981-9.634-10.981-14.186 0-2.701-2.537-5.55-11.894-13.354-13.155-10.971-11.731-8.567-12.382-20.904-.543-10.293-.786-11.288-3.982-16.279-5.017-7.835-23.185-23.549-33.742-29.184-1.925-1.028-5.525-4.339-8-7.358C704.672 233.896 687.818 218 685.082 218c-.595 0-1.085-.338-1.088-.75-.032-3.812-20.754-9.956-24.842-7.365m-217.104 5.957c-2.388 2.431-2.529 2.432-10.906.082-4.303-1.207-4.39-1.182-6.875 1.994-2.291 2.927-2.864 3.157-6.392 2.561-3.047-.515-3.875-.339-3.875.823 0 1.289-4.124 5.319-14.244 13.919-3.54 3.009-6.673 9.143-7.434 14.556-.331 2.353-.988 4.517-1.462 4.809-3.005 1.857-.256 29.4 3.405 34.124 5.334 6.882 8.542 9.01 14.624 9.698 10.872 1.23 16.075 5.384 16.126 12.876.022 3.137 1.107 4.461 3.985 4.865 2.262.318 2.529.857 2.804 5.656.527 9.195 5.542 11.856 13.885 7.367 1.43-.769 2.405-.83 2.809-.175.341.552 1.219 1.003 1.952 1.003 2.467 0 3.084-7.835 2.378-30.25-.363-11.532 4.452-26.537 9.033-28.153.902-.318 3.557-1.673 5.901-3.011s5.665-2.741 7.38-3.117c5.37-1.18 12.249-9.469 7.858-9.469-.55 0-1-.555-1-1.234 0-.678-1.307-3.94-2.904-7.25-1.597-3.309-3.181-7.254-3.519-8.766-.44-1.966-1.234-2.75-2.784-2.75-2.118 0-10.902-6.314-17.302-12.437-1.761-1.685-4.988-4.638-7.172-6.563l-3.97-3.5-2.301 2.342m187.208 2.408c-2.585 2.338-5.29 4.7-6.01 5.25-.72.55-2.611 2.238-4.201 3.75-1.59 1.512-3.166 2.75-3.502 2.75-.336 0-1.893 1.312-3.46 2.915-1.567 1.604-3.834 3.066-5.038 3.25-1.203.184-2.777 1.46-3.497 2.835-2.701 5.16-5.548 11.759-5.548 12.86 0 .627-.45 1.14-1 1.14s-1 .81-1 1.8-.562 2.369-1.25 3.064c-1.597 1.614 5.107 8.136 8.363 8.136 3.864 0 14.268 5.867 16.502 9.305 4.7 7.233 5.806 13.827 5.847 34.858.039 20.052.344 22.073 3.001 19.868.866-.719 2.264-.94 3.274-.518 9.295 3.887 14.263 1.243 14.263-7.59 0-4.685.168-5.007 2.893-5.552 2.559-.511 3.142-1.366 5.038-7.372 2.369-7.506 4.334-8.763 16.336-10.455 5.597-.789 12.004-6.273 15.569-13.325 2.662-5.265 3.229-29.654.799-34.312-.745-1.426-1.662-4.239-2.04-6.25-.377-2.011-1.115-3.657-1.64-3.657-.525 0-.955-.594-.955-1.32 0-1.406-2.738-4.03-10-9.583-5.093-3.895-6.663-5.629-8.006-8.838-.821-1.962-1.246-2.101-3.402-1.119-3.338 1.521-5.276.576-6.051-2.953-.639-2.908-.703-2.934-4.844-1.929-2.308.56-4.625 1.406-5.147 1.88-1.923 1.744-7.38.973-8.05-1.138-.907-2.859-1.955-2.533-7.244 2.25m-368.787 37.533c-4.021 3.4-5.471 6.538-5.399 11.69.111 7.953 1.496 10.025 2.192 3.28.895-8.675 4.98-12.785 14.238-14.326 3.306-.551 3.653-.807 2-1.476-3.597-1.457-10.872-.992-13.031.832m546.031-.827c-1.8.733-1.7.89 1 1.57 6.429 1.618 12.382 6.022 12.467 9.224.018.688.435 1.25.926 1.25 1.449 0 1.85-2.287.963-5.5-1.508-5.468-9.569-8.903-15.356-6.544M499 257.682c-1.375.281-2.95.854-3.5 1.276-.55.421-2.125 1.048-3.5 1.393s-4.525 2.425-7 4.622c-2.475 2.198-5.201 4.003-6.059 4.011-.857.009-2.432.677-3.5 1.484-1.067.808-3.115 1.483-4.551 1.5-3.287.04-8.597 5.327-10.666 10.62-2.316 5.927-2.821 17.498-.812 18.622 1.99 1.114 2.019 4.317.088 9.79-1.663 4.714-2.104 22.509-.581 23.45 1.506.93 3.529-6.578 3.191-11.841l-.315-4.891 3.088 2.199c2.257 1.607 3.546 1.942 4.788 1.247 1.838-1.028 5.513.123 8.585 2.69 2.1 1.754 1.944 1.895 4.743-4.306 1.229-2.724 3.99-6.774 6.135-9 2.145-2.226 4.166-5.06 4.491-6.298.326-1.238.922-2.25 1.325-2.25.976 0 3.05-7.049 3.05-10.366 0-2.918-2.65-3.709-3.655-1.091-.325.848-2.398 2.464-4.605 3.59-8.725 4.451-19.713-4.826-17.013-14.364 1.027-3.629 2.631-3.915 3.263-.582 1.399 7.374 9.481 10.157 16.642 5.731 3-1.854 3.368-2.563 3.368-6.492 0-7.254 7.194-12.439 18-12.972 3.575-.176 6.872-.35 7.327-.387 1.661-.134-5.174-5.067-7.021-5.067-1.048 0-2.352-.446-2.896-.99-1.202-1.202-8.956-2.031-12.41-1.328m72 .042c-1.375.245-2.928.857-3.45 1.361-.522.503-1.778.915-2.79.915-2.291 0-7.868 4.017-7.162 5.159.286.463 3.349.841 6.807.841 7.271 0 10.944 1.539 15.423 6.461 3.159 3.471 4.075 6.863 2.172 8.039-1.986 1.227-1.012 3.5 1.5 3.5 1.375 0 2.5.398 2.5.883 0 .838 2.308 1.834 6.298 2.72 3.09.686 7.456-2.329 8.661-5.98 1.803-5.462 6.041-5.754 6.041-.416 0 6.868-7.587 14.793-14.163 14.793-3.21 0-8.767-3.872-9.447-6.583-.874-3.483-2.038-2.974-2.713 1.188-.723 4.453.115 8.978 1.944 10.495.758.63 1.379 1.665 1.379 2.3 0 .635 1.43 2.717 3.177 4.627 4.246 4.641 8.823 11.954 8.823 14.095 0 2.342 3.073 2.887 5.357.952 1.198-1.016 3.562-1.522 6.66-1.426 4.029.124 4.887-.174 5.326-1.851.9-3.443 2.652-.893 2.757 4.012.145 6.842 1.158 9.691 3.445 9.691 2.252 0 2.257-.434.175-16-.736-5.5-1.893-11.019-2.572-12.265-1.031-1.891-.98-2.345.309-2.75.849-.267 2.268-.715 3.155-.997 1.168-.37 1.456-1.266 1.045-3.25-2.391-11.566-3.114-14.244-4.873-18.057-1.097-2.376-3.071-4.81-4.389-5.411-1.317-.6-2.395-1.469-2.395-1.931 0-.461-1.068-.839-2.373-.839-3.184 0-10.679-3.393-13.731-6.216-3.747-3.466-7.619-5.784-9.661-5.784-1.009 0-2.263-.395-2.785-.879-1.247-1.153-7.287-1.96-10.45-1.397m-289.25.938c.688.278 1.813.278 2.5 0 .688-.277.125-.504-1.25-.504s-1.937.227-1.25.504m513.519.031c.973.254 2.323.237 3-.037.677-.274-.119-.481-1.769-.461-1.65.02-2.204.244-1.231.498m-497.456 5.99c.721.289 1.584.253 1.916-.079.332-.332-.258-.568-1.312-.525-1.165.048-1.402.285-.604.604M303.5 267c-.34.55-.141 1 .441 1s1.059-.45 1.059-1-.198-1-.441-1-.719.45-1.059 1m6.313 3.683c.721.289 1.584.253 1.916-.079.332-.332-.258-.568-1.312-.525-1.165.048-1.402.285-.604.604M272 273c-1.06.685.261.969 4.5.969s5.56-.284 4.5-.969c-.825-.533-2.85-.969-4.5-.969s-3.675.436-4.5.969m23 0c-1.841.59-.919.801 3.5.801 4.419 0 5.341-.211 3.5-.801-1.375-.44-2.95-.801-3.5-.801-.55 0-2.125.361-3.5.801m467.5 0c-.34.55.084 1 .941 1s1.559-.45 1.559-1-.423-1-.941-1-1.219.45-1.559 1m15.724.18c-.948.374 4.988.711 13.193.75 8.204.038 14.577-.267 14.163-.68-.939-.936-25.005-.997-27.356-.07m-463.411.503c.721.289 1.584.253 1.916-.079.332-.332-.258-.568-1.312-.525-1.165.048-1.402.285-.604.604m-52.242 2.888c-1.982 1.983-2.012 3.429-.071 3.429.825 0 1.5-.394 1.5-.875s1.35-1.145 3-1.475c1.65-.33 3-1.061 3-1.625 0-1.614-5.687-1.196-7.429.546m545.429-.79c0 .429 1.462 1.407 3.25 2.172 1.788.766 3.587 1.577 4 1.803.413.226.75-.479.75-1.566 0-1.087-.712-2.249-1.582-2.583-2.252-.864-6.418-.752-6.418.174m-530.008 4.024c-1.219.987-2.053 2.567-1.854 3.511.302 1.43.823 1.226 3.13-1.23 3.113-3.311 2.141-5.048-1.276-2.281m104.692.42c-2.743 2.881-3.957 12.764-3.319 27.024l.57 12.749-2.931 2.998c-2.414 2.469-2.915 3.799-2.84 7.532.103 5.134-2.129 8.472-5.664 8.472-4.932 0-7.537 6.778-4.052 10.539 3.652 3.94 5.886 3.002 12.282-5.157 2.049-2.613 5.106-4.926 8.364-6.327 6.21-2.671 9.82-6.516 9.91-10.555.037-1.65.71-4.125 1.496-5.5s1.445-4.139 1.465-6.143c.037-3.832 1.21-4.857 5.558-4.857 3.964 0 4.417 4.259.559 5.268-5.139 1.344-2.933 9.344 3.398 12.315 1.661.779 5.045 2.574 7.52 3.988 3.564 2.036 5.312 2.444 8.405 1.963 5.535-.861 5.844-1.279 3.392-4.594-1.691-2.288-1.914-3.223-.99-4.147 2.257-2.257 1.459-5.793-1.307-5.793-1.735 0-2.5-.547-2.5-1.788 0-.984-.862-4.247-1.916-7.25l-1.917-5.462-5.509-1c-3.03-.55-5.842-1.337-6.25-1.75-.408-.413-1.81-.75-3.117-.75-2.511 0-3.462-.609-8.812-5.648-3.653-3.442-8.479-12.126-8.479-15.26 0-2.78-1.197-3.093-3.316-.867m413.899-1.359c-.295.477.416 1.714 1.579 2.75s2.824 3.459 3.692 5.384l1.579 3.5.358-2.838c.198-1.562-.281-3.587-1.064-4.5-.783-.914-1.702-2.45-2.044-3.412-.649-1.83-3.179-2.375-4.1-.884m-105.147 3.884c-1.585 7.232-11.227 19.25-15.444 19.25-1.031 0-2.125.406-2.431.902-.307.495-3.272 1.216-6.589 1.601-7.496.87-8.972 2.26-8.972 8.446 0 4.92-1.015 6.56-4.454 7.198-1.683.312-1.917 1.076-1.681 5.506.152 2.872-.199 5.436-.796 5.805-1.978 1.222-1.092 2.218 3.085 3.47 4.182 1.253 6.996.603 10.503-2.428.637-.55 3.686-2.558 6.776-4.462 3.585-2.209 5.428-3.957 5.093-4.832-.289-.753-.526-2.427-.526-3.72 0-1.473-.747-2.588-2-2.986-2.719-.863-2.788-5.5-.082-5.5 5.138 0 8.082 4.114 8.082 11.293 0 4.616 3.411 12.421 6.035 13.806 3.965 2.094 8.409 3.901 9.593 3.901.726 0 1.975 1.238 2.775 2.75 4.359 8.243 9.623 10.98 13.395 6.965 3.052-3.249 1.25-9.707-2.716-9.73-4.419-.027-7.082-3.987-7.082-10.532 0-2.18-.778-4.231-2.111-5.564-1.977-1.977-2.121-3.237-2.254-19.751-.136-16.715-.265-17.809-2.457-20.888-2.83-3.974-4.941-4.157-5.742-.5m-417.888 5.5c-.419.962-.419 2.538 0 3.5.958 2.202 1.886-.548 1.18-3.5-.399-1.667-.455-1.667-1.18 0M826 288c0 .55.477 1 1.059 1s.781-.45.441-1-.816-1-1.059-1-.441.45-.441 1m-599.5 9.724c-3.566.876-4.478 2.202-3.424 4.975 1.054 2.773-.233 5.301-2.698 5.301-.758 0-1.378.738-1.378 1.639 0 3.282 10.366.696 18.75-4.678 6.398-4.101-2.008-9.509-11.25-7.237m615.75.578c-6.976 1.612-5.786 5.185 3.25 9.759 7.119 3.604 18.168 3.508 11.429-.099-1.693-.906-2.044-1.848-1.721-4.618.582-4.985-4.555-6.984-12.958-5.042m-592.75 3.414c-3.12.755-6.5 4.392-6.5 6.993 0 1.299-.724 3.467-1.61 4.818-2.882 4.398-1.326 5.64 4.813 3.842 6.263-1.834 9.969-5.034 12.094-10.442 2.079-5.294-.975-7.103-8.797-5.211m571.506.233c-6.126 3.98 6.271 17.051 16.172 17.051 1.962 0 2.453-1.492.822-2.5-.55-.34-1-1.349-1-2.243 0-2.048-3.701-9.774-5.3-11.063-1.853-1.495-9.024-2.33-10.694-1.245m-339.971 5.734c-2.496 3.173-2.298 5.71.475 6.088 1.981.271 6.99-6.938 5.711-8.217-1.341-1.34-4.243-.342-6.186 2.129m110.85-2.006c-.464 3.315 2.55 8.323 5.008 8.323 1.95 0 2.125-3.5.297-5.951-1.885-2.526-5.084-3.957-5.305-2.372m-328.044 10.667c-4.241 1.885-6.679 4.561-6.116 6.713.28 1.069.006 1.943-.608 1.943-.615 0-1.117.675-1.117 1.5 0 3.175 6.317 1.785 10.23-2.25 6.898-7.115 5.588-11.451-2.389-7.906m544.826-.677c-2.872 2.872 4.731 12.333 9.911 12.333 3.294 0 4.785-2.04 2.516-3.442-.498-.308-.684-1.408-.413-2.445.619-2.367-10.258-8.203-12.014-6.446m-314.631 3.738c-.502 1.321-1.39 2.696-1.974 3.057-2.217 1.37-.916 2.538 2.827 2.538 2.275 0 4.825-.757 6.143-1.825l2.253-1.824-4.168-2.173-4.169-2.173-.912 2.4m86.373-1.028c-.343.893-1.7 1.623-3.016 1.623-2.862 0-3.047 1.098-.564 3.345 1.614 1.461 11.171 2.51 11.171 1.226 0-.236-1.568-2.091-3.484-4.123-2.842-3.013-3.599-3.395-4.107-2.071m-232.353 1.438c-.695.231-2.504 1.718-4.018 3.303-1.515 1.585-3.156 2.901-3.646 2.924-.491.024-1.996 1.374-3.345 3-1.349 1.627-3.037 2.958-3.75 2.958-.713 0-1.297.45-1.297 1 0 1.236 5.674 1.336 6.43.113.301-.487 2.24-1.196 4.309-1.575 4.577-.838 15.816-6.936 16.613-9.014.385-1.001-.162-1.656-1.637-1.96-4.085-.841-8.384-1.174-9.659-.749m372.611.852c-1.358 1.357-.601 3.895 1.583 5.307 5.193 3.357 8.5 4.808 12.5 5.484 2.332.394 4.493 1.127 4.804 1.629.766 1.239 5.446 1.165 5.446-.087 0-.55-.343-1-.763-1-.419 0-3.53-2.7-6.913-6-5.83-5.687-6.407-6-11.071-6-2.706 0-5.22.3-5.586.667m-253 6c-.367.366-.667 1.523-.667 2.571 0 1.048-.697 2.602-1.55 3.455-2.574 2.574-1.374 4.794 2.654 4.911 3.991.117 5.618-.844 8.16-4.819 2.981-4.661 1.762-5.219-2.59-1.184-3.415 3.167-4.398 2.558-2.385-1.479.824-1.651 1.246-3.254.938-3.562-.774-.773-3.75-.704-4.56.107m137.876.264c-.317.512-.118 1.213.441 1.559 1.252.774 1.354 4.51.123 4.51-.491 0-1.152-.675-1.469-1.5-.88-2.295-2.819-1.783-2.458.65.768 5.164 10.089 8.35 10.633 3.634.654-5.674-4.988-12.545-7.27-8.853M320.5 336.536c-1.65.756-4.013 1.394-5.251 1.419-2.21.044-5.88 3.347-13.53 12.174-3.607 4.163-3.688 4.406-1.744 5.273 1.54.687 2.852.322 5.378-1.497 3.977-2.863 15.333-12.677 17.536-15.155.855-.962 2.58-1.75 3.833-1.75 1.253 0 2.278-.45 2.278-1 0-1.409-4.932-1.098-8.5.536m35.59.482c-4.775 2.664-5.428 3.512-4.741 6.159.819 3.162 6.231 9.312 7.041 8.001.353-.572.185-1.322-.374-1.668-1.309-.809-1.321-5.204-.016-6.01.55-.34 1-1.436 1-2.437 0-1 .67-2.374 1.489-3.054 3.518-2.92.341-3.636-4.399-.991M749.5 336c.34.55 1.379 1.013 2.309 1.029.93.016 3.973 2.153 6.761 4.75C771.499 353.817 774.353 356 777.169 356c4.153 0 3.622-1.098-4.818-9.964-5.388-5.66-8.353-8.036-10.032-8.036-1.311 0-3.999-.675-5.973-1.5-4.1-1.713-7.761-1.98-6.846-.5m-31.465 1.75c.02.962.679 2.875 1.465 4.25 1.651 2.888 1.971 8 .5 8-.55 0-1 .45-1 1 0 1.597 2.154 1.157 3.674-.75 5.401-6.779 5.445-10.046.172-12.677-4.028-2.009-4.854-1.979-4.811.177m-291.984 1.846c-2.997.806-5.993 1.257-6.656 1.002-.664-.255-1.994.407-2.956 1.469-.962 1.063-3.003 1.933-4.535 1.933-3.053 0-3.335.273-4.251 4.114-.708 2.971 1.555 6.223 4.926 7.08 2.51.639 4.225-.568 7.385-5.194 3.438-5.033 8.982-10 11.162-10 1.031 0 1.874-.45 1.874-1 0-1.232-.214-1.214-6.949.596M644 339c0 .55.45 1 1 1s1-.45 1-1-.45-1-1-1-1 .45-1 1m5.533 1.947c-.406.657.546 1.533 2.351 2.162 1.669.582 3.308 1.921 3.643 2.975.334 1.054 1.027 1.916 1.54 1.916.513 0 .949.563.969 1.25.086 3.004 4.578 6.885 7.205 6.226 2.676-.672 7.94-5.476 6-5.476-.61 0-1.251-1.238-1.425-2.75-.256-2.226-.888-2.814-3.316-3.084-1.65-.183-3.675-.922-4.5-1.642-2.066-1.803-11.584-3.007-12.467-1.577m24.898 3.628c1.929 7.724 1.842 10.209-.399 11.408-3.596 1.924-.845 4.269 2.848 2.427 7.374-3.679 7.391-9.232.044-14.464l-3.224-2.296.731 2.925m-275.298 1.444c-5.502 5.757-4.127 10.452 3.69 12.597 3.231.887 5.024-1.092 2.307-2.546-3.559-1.905-4.346-4.532-2.382-7.953 2.761-4.811.327-6.224-3.615-2.098m35.294 49.099c-.38.615-.623 9.952-.541 20.75.083 10.798-.26 20.255-.761 21.017-1.097 1.669-5.239.859-7.58-1.483-3.918-3.918-24.087-3.651-30.437.402-15.976 10.198-18.017 34.661-4.038 48.389 8.006 7.862 27.365 8.183 38.044.63 2.064-1.46 5.278-.288 4.533 1.653-.308.803-.109 1.739.443 2.079 1.486.919 9.506 1.313 10.774.529 1.171-.724 1.77-92.249.616-94.117-.832-1.345-10.207-1.217-11.053.151m42.434 3.548c-.531.641-.83 3.791-.663 7l.302 5.834 10.238.285 10.239.285.261 38.715.262 38.715 8-.156 8-.156.5-38.344.5-38.344 9-.5 9-.5.295-6.719.295-6.719-27.631-.281c-20.121-.205-27.894.036-28.598.885m-236.194.001c-1.341 1.341-.77 90.082.583 90.572 1.426.516 15.009-.165 15.629-.784.223-.224.501-9.081.617-19.681.116-10.601.276-19.611.357-20.024.348-1.777 2.811-.489 4.79 2.507 5.151 7.794 13.091 20.327 13.457 21.243.22.55 2.65 4.487 5.4 8.748l5 7.748 8.75.002c9.145.002 9.882-.373 6.992-3.559-2.688-2.964-7.376-10.214-9.174-14.189-.56-1.238-1.48-2.25-2.043-2.25-.564 0-1.025-.675-1.025-1.5s-.42-1.5-.933-1.5c-.513 0-1.252-1.012-1.643-2.25-.392-1.238-1.772-3.642-3.068-5.344-2.655-3.487-3.124-7.406-.887-7.406 4.752 0 13.15-6.868 16.549-13.535 2.757-5.408 2.801-19.394.079-25.027-2.081-4.306-7.849-9.943-12.985-12.688-3.354-1.793-44.77-2.759-46.445-1.083m17.263 13.583c-.488 1.734-.075 24.707.46 25.572.46.745 3.666 1.178 8.719 1.178 14.431 0 20.138-5.712 17.906-17.92-1.311-7.167-4.728-9.011-16.765-9.048-5.637-.018-10.282.081-10.32.218M329 432.16c-7.224 2.961-9.833 4.593-13.249 8.286-2.061 2.23-3.749 4.469-3.75 4.975 0 .507-.789 1.792-1.751 2.855-1.449 1.602-1.75 3.875-1.75 13.224s.301 11.622 1.75 13.224c.962 1.063 1.75 2.452 1.75 3.087 0 1.313 5.736 7.433 8 8.537.825.402 2.602 1.362 3.95 2.133 5.738 3.286 27.113 2.582 31.098-1.024.885-.801 1.982-1.457 2.437-1.457 1.209 0 8.515-7.654 8.515-8.921 0-2.566-12.376-1.442-16.742 1.52-10.119 6.868-26.258-.47-26.258-11.939 0-4.501.926-4.66 27.125-4.66H371l-.035-2.75c-.02-1.512-.679-3.875-1.465-5.25s-1.445-3.726-1.465-5.225c-.053-4.136-10.086-13.781-16.669-16.025-5.69-1.939-18.265-2.271-22.366-.59m379.94.646c-1.958.932-5.034 2.935-6.835 4.451-3.756 3.162-4.61 2.969-5.451-1.236L696.05 433H680v56.081l8.25-.291 8.25-.29.202-16.911c.111-9.302.561-17.177 1-17.5.439-.324 1.473-1.907 2.298-3.518 1.824-3.561 9.711-7.764 16-8.526l4.5-.545v-10l-4-.194c-2.2-.106-5.602.569-7.56 1.5m40.608-.883c-.314.508-1.991 1.235-3.726 1.616-1.735.381-3.772 1.203-4.526 1.827-4.191 3.465-8.296 7.46-8.296 8.074 0 .386-.675 1.378-1.5 2.203s-1.5 2.316-1.5 3.314c0 .998-.672 3.103-1.494 4.679-.821 1.575-1.494 4.889-1.494 7.364 0 2.475.673 5.789 1.494 7.364.822 1.576 1.494 3.504 1.494 4.285 0 3.698 7.545 12.092 13.338 14.841 4.661 2.212 16.86 4.344 19.318 3.376 1.014-.399 3.145-.757 4.734-.796 5.936-.144 18.61-8.501 18.61-12.27 0-.77.563-1.962 1.25-2.649 3.559-3.556 3.654-24.201.131-28.23-.76-.868-1.381-2.064-1.381-2.657 0-2.133-9.815-9.8-14.74-11.514-5.403-1.88-20.701-2.463-21.712-.827M549 433.171c-6.371 1.189-16 7.607-16 10.665 0 .505-.628 1.44-1.395 2.077-.767.636-1.629 2.604-1.917 4.372-.287 1.768-1.102 5.128-1.812 7.466-3.163 10.426 8.279 29.874 18.732 31.835 8.33 1.563 21.734.017 25.632-2.955 4.239-3.234 7.38-3.162 7.022.16-.16 1.478.337 2.259 1.5 2.361.956.084 2.413.208 3.238.277.825.068 2.991-.113 4.814-.403l3.315-.526-.095-27.394c-.051-15.066-.268-27.675-.48-28.019-.212-.343-3.011-.391-6.22-.106-5.27.469-5.812.731-5.606 2.709.357 3.44-3.293 4.018-6.311 1-3.624-3.624-15.043-5.27-24.417-3.519m269.25-.041c-2.888.563-5.25 1.438-5.25 1.946s-.591.924-1.313.924c-2.1 0-6.338 5.164-7.68 9.358-3.347 10.467 3.25 18.819 16.061 20.337 2.713.321 4.932.941 4.932 1.377 0 .436.788 1.06 1.75 1.386 6.727 2.277 5.615 10.917-1.779 13.821-4.093 1.608-11.728.532-17.751-2.501-2.543-1.281-4.521.038-5.581 3.722-1.767 6.146 25.291 9.672 35.416 4.615 6.846-3.419 8.945-7.201 8.945-16.119 0-7.347-.018-7.397-4.084-11.188-2.336-2.179-5.092-3.808-6.441-3.808-1.296 0-2.598-.389-2.892-.865-.294-.476-2.185-1.133-4.202-1.461-6.561-1.064-10.306-6.703-7.099-10.688 3.842-4.774 7.485-5.545 16.124-3.411 4.844 1.196 8.121-5.635 3.344-6.971-4.34-1.213-17.301-1.486-22.5-.474m-209.583.537c-1.666 1.666-.709 40.093 1.083 43.46 5.337 10.031 11.617 13.058 27.092 13.058 24.343 0 29.158-6.378 29.158-38.623V433h-8c-4.4 0-8.019.337-8.041.75-.023.413-.136 8.851-.25 18.752l-.209 18.002-3.411 3.748c-4.662 5.124-12.985 5.516-17.983.847L625 472.198v-18.017c0-9.91-.273-18.729-.607-19.599-.626-1.633-14.218-2.424-15.726-.915m-277.131 7.174c-5.785 3.237-9.181 8.454-8.157 12.532l.659 2.627h13.781c17.231 0 19.581-1.676 13.512-9.633-5.106-6.694-13.513-9.041-19.795-5.526m78.918 3.838c-5.033 1-12.454 10.629-12.454 16.159 0 5.611 6.699 15.162 10.635 15.162.751 0 1.365.45 1.365 1 0 1.653 10.579 1.212 12-.5.685-.825 1.79-1.5 2.457-1.5 2.201 0 6.508-5.888 7.484-10.231 2.946-13.101-7.502-22.87-21.487-20.09m146.056.318c-9.621 1.848-15.355 14.305-10.76 23.375 8.176 16.138 32.223 10.375 32.243-7.728.014-11.741-8.717-18.1-21.483-15.647m198.508-.245c-3.43.619-9.598 5.699-11.466 9.445-1.743 3.494-2.078 10.36-.552 11.303.55.34 1.014 1.379 1.032 2.309.087 4.674 8.182 10.191 14.953 10.191 13.981 0 21.765-14.888 14.015-26.807-3.054-4.696-11.295-7.648-17.982-6.441" fill-rule="evenodd"/>
</svg>