<!DOCTYPE svg PUBLIC "-//W3C//DTD SVG 1.1//EN" "http://www.w3.org/Graphics/SVG/1.1/DTD/svg11.dtd">
<svg xmlns="http://www.w3.org/2000/svg" viewBox="0 0 630 284">
<path fill="#fbfbfb" stroke="#fbfbfb" d="M384 40.229c-.275.274-14 .81-30.5 1.191s-32.025.886-34.5 1.122c-2.475.237-6.797.644-9.603.907-2.807.262-7.224.952-9.815 1.533-2.592.58-5.144.789-5.672.462-.528-.326-.836-.019-.685.683.151.701-1.268 1.796-3.154 2.432-1.886.637-4.698 2.578-6.25 4.315-1.551 1.737-2.823 2.813-2.825 2.392-.002-.421-.958.809-2.126 2.734-1.167 1.925-2.403 3.725-2.746 4-1.426 1.142-3.912 6.754-4.54 10.25-.371 2.063-1.008 3.75-1.415 3.75-.407 0-.784.787-.837 1.75-.054.963-.571 4.225-1.15 7.25-3.801 19.857-4.683 79.995-1.636 111.5 2.426 25.083 2.553 25.954 3.55 24.379.638-1.008.877-.728.889 1.041.021 3.32 6.059 16.171 7.251 15.434.53-.327.414.471-.259 1.775-.974 1.891-.969 2.133.023 1.198.962-.906 1.758-.678 3.497 1 4.473 4.316 6.201 5.342 12.207 7.242 3.357 1.062 5.895 2.269 5.641 2.681-.255.413 1.956.75 4.912.75 2.957 0 7.821.425 10.809.944 21.534 3.741 195.456 3.352 215.934-.484 4.419-.828 11.886-3.455 14.5-5.102 1.1-.693 2.225-1.216 2.5-1.162 1.367.267 4.964-1.445 4.526-2.155-.277-.448.166-1.37.985-2.05.819-.68 1.489-.921 1.489-.537 0 .753 3.691-3.7 5.77-6.962 1.924-3.017 4.623-8.903 4.437-9.677-.09-.377.526-2.627 1.369-5 6.569-18.489 7.018-128.157.576-140.586-.493-.951-1.202-3.835-1.575-6.409-.373-2.573-1.556-5.794-2.628-7.157C561.877 64.3 561 62.692 561 62.09c0-.601-1.737-2.78-3.861-4.842-2.123-2.061-4.131-4.528-4.462-5.481-.366-1.055-1.203-1.502-2.139-1.143-.846.324-1.538.202-1.538-.273 0-.81-1.301-1.447-10-4.894-4.314-1.71-21.183-3.245-43-3.914-28.079-.861-111.472-1.839-112-1.314M69.378 75.745l-11.122.318 1.501 4.219c1.96 5.509 8.67 26.685 17.338 54.718l6.957 22.5-.276 28.24c-.223 22.788-.019 28.338 1.056 28.75.732.28 5.57.51 10.75.51 9.091 0 9.419-.078 9.449-2.25.017-1.238.01-13.725-.016-27.75l-.048-25.5 12.989-41.444c7.144-22.794 12.878-41.555 12.743-41.691-.136-.135-5.144-.33-11.13-.433l-10.884-.187-2.201 8.378c-1.211 4.607-4.132 15.802-6.492 24.877-2.359 9.075-4.57 16.824-4.912 17.221-.342.396-3.722-10.966-7.511-25.25s-6.93-25.875-6.979-25.757c-.05.117-5.095.357-11.212.531M343.81 78.11c-1.847.698-2.787 1.858-3 3.703-.67 5.802.766 64.801 1.621 66.601.666 1.403.588 1.716-.293 1.171-.869-.537-1.1.19-.832 2.621.833 7.558-.875 7.445-3.869-.256-1.593-4.098-3.243-7.6-3.667-7.783-.423-.184-.77-1.37-.77-2.636 0-2.979-2.457-7.718-3.508-6.766-.446.404-.522-.068-.169-1.05.353-.984-.511-4.797-1.927-8.5-1.412-3.693-3.172-8.29-3.911-10.215-.738-1.925-2.114-6.2-3.057-9.5-.943-3.3-2.354-7.041-3.136-8.314-.782-1.272-1.566-3.522-1.743-5a457.476 457.476 0 0 0-.435-3.558c-.063-.48-.902-.255-1.864.5-1.527 1.197-1.6 1.179-.575-.14.89-1.146.898-2.545.034-5.785-1.295-4.849-2.628-5.499-10.275-5.015l-4.934.312v133h15l.212-38.5c.116-21.175.243-39.85.283-41.5l.072-3 1.966 2.361c1.082 1.298 1.967 2.986 1.967 3.75 0 .764.354 1.389.786 1.389.432 0 .825.787.874 1.75.049.963 1.27 5.004 2.714 8.981 1.444 3.977 2.626 8.215 2.626 9.417s.317 1.868.704 1.481c.665-.664 5.13 11.425 9.232 24.995 1.018 3.369 2.554 7.644 3.413 9.5 2.021 4.368 4.665 11.696 5.367 14.876 1.04 4.706 6.581 6.504 13.034 4.227 2.269-.801 1.775-131.938-.5-132.606-4.218-1.239-8.952-1.451-11.44-.511M501 77.913l-5.5.587v65c0 35.75.155 65.748.344 66.663.353 1.706 11.16 3.243 11.157 1.587 0-.412.701-.75 1.558-.75.857 0 1.351-.337 1.097-.75-.255-.412.056-1.964.691-3.449l1.153-2.699 3.169 2.863c1.744 1.575 2.882 3.15 2.531 3.502-.352.351.089.359.979.018.89-.342 1.959-.071 2.374.601.515.834.339.965-.553.414-.866-.535-1.068-.418-.595.345 1.06 1.716 9.111 1.443 10.606-.358.691-.832 1.758-1.436 2.372-1.342 1.83.28 4.649-1.285 4.052-2.25-.304-.492-.114-.895.423-.895s1.801-2.137 2.809-4.75c3.021-7.828 2.763-69.802-.316-76.25-3.325-6.962-9.632-11.513-13.851-9.996-1.1.396-2.566.507-3.258.248-1.499-.563-6.507 2.51-5.843 3.584.254.412-.512.822-1.703.912-1.192.09-2.324.636-2.517 1.214-1.436 4.308-2.179-3.223-2.179-22.08 0-14.412-.345-21.787-1-21.382-.55.34-1 .141-1-.441s-.337-.986-.75-.896c-.413.09-3.225.427-6.25.75m-357.874 33.238c-5.297 1.524-12.775 9.902-14.864 16.653-2.629 8.497-2.644 64.746-.019 70.552.959 2.121 1.45 4.371 1.09 5-.359.629-.325.85.076.491.401-.358 2.54 1.312 4.754 3.714 13.249 14.374 39.196 9.248 45.57-9.003 2.64-7.557 2.647-63.539.009-71.09-4.918-14.077-20.407-20.98-36.616-16.317m52.855-.25c-.011.33-.002 21.254.019 46.498.036 42.764.167 46.19 1.926 50.166 4.755 10.75 16.689 11.102 28.062.827l3.897-3.521.308 4.815.307 4.814h19.522l.024-52 .025-52H230.5l-.5 40.328-.5 40.327-3.802 3.484c-2.753 2.522-4.547 3.398-6.5 3.172l-2.698-.311-.5-43.5-.5-43.5-9.75-.099c-5.363-.054-9.759.171-9.769.5m195.732 5.53c-2.633.703-5.108 1.349-5.5 1.436-2.928.645-4.194 1.497-4.729 3.184-.34 1.072-1.038 1.949-1.551 1.949-.513 0-.933.675-.933 1.5s-.432 1.5-.96 1.5-1.47 1.912-2.093 4.25c-.624 2.338-1.542 5.031-2.041 5.986-1.547 2.965-1.122 50.495.508 56.78.778 2.999 1.219 5.769.979 6.157-.239.387.306 1.119 1.211 1.625.905.507 1.646 2.101 1.646 3.543 0 1.443.347 2.408.77 2.147.424-.262 1.028.196 1.344 1.018.315.822 1.337 1.494 2.271 1.494.934 0 1.394.304 1.023.676-1.207 1.206 6.675 3.255 13.342 3.468 10.355.33 16.769-4.321 20.256-14.687 4.276-12.713 3.352-64.985-1.263-71.467-1.096-1.539-2.007-3.179-2.024-3.644-.056-1.492-4.946-4.478-6.132-3.745-.69.426-.873.267-.461-.4.613-.992-1.177-1.696-9.376-3.684-.825-.2-3.654.212-6.287.914m54.83 1.541c-1.408.923-2.3 1.937-1.984 2.253.316.316-.2.508-1.147.425-1.116-.097-2.986 1.96-5.317 5.85l-3.595 6-.305 29c-.308 29.293.719 40.423 3.67 39.762.585-.131.81.422.5 1.228-.875 2.281 6.924 9.815 8.529 8.238.99-.973 1.182-.917.927.272-.543 2.536 15.005 2.64 19.919.133 4.71-2.403 9.333-7.778 8.518-9.903-.387-1.008-.195-1.309.543-.853.713.441 1.37-.341 1.753-2.086.337-1.535.823-3.449 1.08-4.254.732-2.293.283-55.011-.511-60.037-.453-2.869-1.175-4.4-1.991-4.225-.704.151-1.018-.15-.697-.67.321-.519-.099-1.626-.933-2.461-.998-.997-1.155-1.74-.46-2.17.647-.4.166-1.386-1.242-2.545a1490.528 1490.528 0 0 1-3.356-2.769c-4.059-3.37-19.412-4.133-23.901-1.188m9-.041c-.317.512-.193 1.167.274 1.456.467.289.85-.13.85-.931 0-1.686-.316-1.833-1.124-.525M395 127.03c0 .414-1.075 1.023-2.39 1.353-3.796.953-4 2.512-4.396 33.512-.404 31.684.228 36.666 4.978 39.208 2.861 1.531 8.804.252 8.823-1.898.012-1.324.206-1.405.866-.363 1.614 2.546 1.999-4.033 2.029-34.698l.029-30.357-2.504-3.284c-2.249-2.947-7.435-5.37-7.435-3.473m58.243 1.193c-3.699 1.784-4.261 6.702-4.508 39.443-.203 26.993-.043 31.01 1.202 30 1.186-.962 1.308-.821.697.804-.407 1.083-.437 1.667-.068 1.297.37-.369 1.326-.018 2.124.781 3.39 3.389 10.734 1.055 11.706-3.72 1.418-6.969.674-62.793-.877-65.791-2.111-4.082-5.641-5.048-10.276-2.814m61.55.127c-.855.855-1.833 1.351-2.174 1.102-.34-.248-.418-.176-.172.161.245.338-.191 2.25-.969 4.25-1.056 2.713-1.487 10.045-1.697 28.858-.154 13.872.002 24.447.348 23.5.345-.947.881 1.429 1.19 5.279.706 8.802.782 9.14 2.098 9.293.596.07 2.313.421 3.816.78 1.504.36 3.529.31 4.5-.111.972-.42 2.388-.89 3.148-1.044.759-.154 1.884-.816 2.5-1.471.795-.847.396-.825-1.381.076-2.465 1.251-2.475 1.24-.688-.775 1.659-1.87 1.828-4.708 2-33.549.103-17.329-.143-30.988-.547-30.353-.42.661-.741.03-.75-1.474-.027-4.641-7.922-7.822-11.222-4.522m-365.057.9c-3.278 2.489-3.736 6.671-3.734 34.065.001 23.878.214 27.611 1.75 30.685 2.836 5.677 9.852 5.461 12.629-.39 2.478-5.221 2.415-58.002-.073-61.637-2.906-4.247-7.132-5.335-10.572-2.723m313.077 82.433c.721.289 1.584.253 1.916-.079.332-.332-.258-.568-1.312-.525-1.165.048-1.402.285-.604.604" fill-rule="evenodd"/>
<path fill="#f9d5d4" stroke="#f9d5d4" d="M352 42.026c-45.974 1.627-54.518 2.892-64.563 9.559-16.984 11.274-21.37 31.146-21.387 96.915-.022 81.64 7.161 97.997 45.199 102.931 34.984 4.537 190.657 4.171 220.751-.52 17.972-2.801 29.103-13.847 34.054-33.795 6.43-25.905 6.471-113.104.066-138.148-5.19-20.291-15.888-30.927-34.12-33.918-18.017-2.956-129.161-4.824-180-3.024M59 76.352c0 .194 2.205 7.281 4.901 15.75 2.695 8.469 8.32 26.483 12.5 40.031L84 156.765V214h21v-55.5l9.582-30.5c5.27-16.775 11.059-35.225 12.863-41l3.281-10.5-10.494-.285c-5.772-.157-10.725-.056-11.005.225-.281.281-3.318 11.021-6.748 23.867-3.431 12.846-6.584 24.445-7.007 25.775-.836 2.627-.282 4.411-10.039-32.332L80.72 76H69.86c-5.973 0-10.86.158-10.86.352m239.764.335-2.736.443-.264 66.26c-.145 36.443-.119 67.014.059 67.935.274 1.418 1.7 1.675 9.31 1.675h8.987l-.31-41.918c-.171-23.055-.185-41.792-.032-41.638.373.374 27.137 76.168 28.357 80.306l.959 3.25H358V77.233l-2.25-.414c-1.238-.228-5.175-.393-8.75-.367l-6.5.048.008 40.193c.004 22.106-.347 39.559-.78 38.786-.433-.774-3.663-9.636-7.179-19.693-10.256-29.344-20.489-58.061-20.78-58.32-.66-.588-10.537-1.179-13.005-.779M494 145v68h17l.027-3.75.027-3.75 2.723 3.149c7.797 9.017 20.655 6.982 26.223-4.15l2.5-4.999v-70l-2.5-4.948c-5.248-10.386-18.237-13.406-25.673-5.97-1.33 1.33-2.622 2.418-2.872 2.418S511 111.1 511 99V77h-17v68m-350.825-33.313c-14.231 5.033-17.637 16.439-16.93 56.699.514 29.262 1.141 32.095 8.799 39.754 15.892 15.891 41.452 7.161 45.948-15.695 2.261-11.491.896-58.734-1.901-65.806-5.456-13.796-20.947-20.245-35.916-14.952m53.038 46.563c.276 45.37.368 47.389 2.315 50.75 4.977 8.591 14.456 8.96 25.007.974L230 205.08V214h20V111h-20v79.558l-3.664 3.772c-2.926 3.013-4.285 3.712-6.75 3.471l-3.086-.301-.261-43.25-.26-43.25H195.926l.287 47.25M392 114.683c-10.709 1.757-16.775 8.619-19.021 21.517-1.856 10.659-.81 56.894 1.443 63.8 4.327 13.259 19.363 18.614 34.036 12.121 10.025-4.436 12.5-13.762 12.525-47.187.027-37.367-3.234-46.34-18.086-49.768-5.092-1.176-6.341-1.231-10.897-.483m60.203.341c-7.374 1.07-12.529 4.904-15.942 11.855L433.5 132.5v64l2.629 5.607c3.24 6.909 7.82 10.555 14.959 11.911 14.284 2.712 24.698-3.012 28.507-15.668 2.152-7.15 2.116-59.751-.046-66.938-3.874-12.879-13.164-18.446-27.346-16.388m-303.342 14.888-2.361 1.911v30.984c0 35.175.004 35.193 7.582 35.193 7.856 0 8.043-.866 7.709-35.776l-.291-30.403-2.361-1.91a8.128 8.128 0 0 0-10.278.001m243.221.006c-2.8 2.8-3.283 9.279-2.912 39.082.354 28.416.699 30.427 5.433 31.615 4.498 1.129 7.083-.926 8.3-6.599 1.296-6.043 1.416-52.411.153-58.957-1.309-6.779-6.775-9.34-10.974-5.141m61.654-.668c-3.305 2.51-3.736 6.647-3.736 35.865 0 31.451.422 34.2 5.446 35.461 8.069 2.025 8.751-1.092 8.366-38.223-.29-27.993-.448-30.296-2.217-32.25-2.143-2.366-5.4-2.72-7.859-.853m60.807 1.116c-3.317 3.317-3.807 8.939-3.394 38.95.331 24.113.469 25.697 2.457 28.362 3.933 5.27 9.757 4.401 11.4-1.701 2.064-7.665.871-63.354-1.411-65.874-2.509-2.77-6.123-2.666-9.052.263" fill-rule="evenodd"/>
<path fill="#c72521" stroke="#c72521" d="M375 42.042c-61.007 1.231-73.398 2.437-84.268 8.199C271.215 60.585 266.5 79.607 266.5 148c0 87.675 6.887 100.404 56.272 104.003 38.08 2.774 149.913 2.765 192.131-.016 47.922-3.157 55.367-17.16 55.291-103.987-.051-59.155-3.723-79.71-16.44-92.044C542.903 45.432 533.33 43.758 477 42.536c-53.976-1.172-65.643-1.228-102-.494M59.966 78.75c.455 1.513 3.321 10.625 6.368 20.25a6033.542 6033.542 0 0 1 12.104 38.837L85 159.174V214h20V157.897l12.5-40.056c6.875-22.03 12.5-40.457 12.5-40.948 0-.491-4.708-.893-10.461-.893h-10.462l-.963 3.75c-5.109 19.902-12.438 46.99-12.973 47.953-.367.662-3.535-9.688-7.039-23-3.505-13.312-6.75-25.216-7.212-26.453-.798-2.136-1.369-2.25-11.295-2.25H59.14l.826 2.75M295 145v69h20.298l-.511-41.25c-.28-22.687-.275-40.575.011-39.75.287.825 6.75 19.23 14.362 40.9 7.612 21.67 13.84 39.558 13.84 39.75 0 .193 3.375.35 7.5.35 6.476 0 7.5-.239 7.502-1.75.016-19.202.032-134.104.018-135-.015-.912-2.629-1.25-9.679-1.25h-9.659l.558 39.25c.551 38.706.533 39.181-1.25 34.25-.994-2.75-4.343-12.2-7.443-21-3.099-8.8-8.595-24.213-12.212-34.25L311.758 76H295v69m199 0v69h18V207.793l3.426 3.008c9.27 8.139 22.07 3.817 26.112-8.817 2.242-7.006 3.344-55.237 1.532-67.067-2.049-13.384-6.739-19.675-15.396-20.65-5.85-.66-8.785.114-12.597 3.322L512 120.178V76h-18v69m-347.5-34.065c-8.556 2.083-15.345 8.887-17.879 17.919-2.263 8.067-2.381 60.224-.153 67.727 7.647 25.751 43.903 25.267 51.697-.69 2.331-7.761 1.851-59.815-.62-67.357-4.501-13.737-18.432-21.156-33.045-17.599m49.704 46.815c.327 51.593.35 51.783 6.716 55.544 6.656 3.932 14.857 1.801 23.237-6.038l4.843-4.53V214h19V111h-19V189.133l-2.664 3.493c-4.878 6.395-11.403 7.981-12.714 3.091-.327-1.219-.601-20.779-.608-43.467L215 111h-19.092l.296 46.75M388 115.115c-5.616 1.692-10.039 5.739-12.871 11.778L372.5 132.5v32c0 31.877.01 32.023 2.5 37.962 3.784 9.025 9.147 12.038 21.422 12.038 12.039 0 17.03-2.641 21.255-11.249l2.823-5.751.316-30.267c.342-32.698-.149-36.978-5.078-44.296-4.749-7.05-17.946-10.772-27.738-7.822m59.53.479c-12.667 4.637-15.515 13.615-15.515 48.906 0 39.986 4.041 49.098 22.294 50.269 13.727.881 21.398-3.64 25.33-14.928 2.477-7.108 2.809-61.075.427-69.286-3.787-13.054-18.839-19.975-32.536-14.961m-299.457 15.041c-1.992 2.532-2.073 3.799-2.073 32.577v29.942l2.923 2.923c4.151 4.151 9.648 3.354 11.967-1.734 1.566-3.437 1.53-59.676-.04-62.659-2.484-4.72-9.441-5.291-12.777-1.049m246.125-1.513c-3.947 1.461-4.293 4.678-3.988 37.138l.29 30.919 2.389 1.934c2.545 2.059 5.436 1.79 8.111-.755 2.263-2.152 2.787-61.935.581-66.202-1.688-3.263-4.092-4.251-7.383-3.034m57.673 3.128c-1.524 3.613-2.045 57.839-.605 62.987 2.001 7.151 9.799 6.951 11.751-.302 1.625-6.033.937-60.641-.802-63.685-2.175-3.808-8.576-3.189-10.344 1m61.655-.3c-2.192 4.24-2.258 59.362-.077 64.582 1.987 4.755 8.825 5.209 10.826.718 1.788-4.014 1.735-62.858-.06-66-2.073-3.629-8.674-3.196-10.689.7" fill-rule="evenodd"/>
<path fill="#050505" stroke="#050505" d="M60.553 76.914c-.335.542.265 3.595 1.332 6.785 1.068 3.191 6.705 21.139 12.528 39.885L85 157.669V214h20v-57.154l11.553-37.173c6.354-20.445 11.979-38.478 12.5-40.072.521-1.595.947-3.057.947-3.25 0-.58-16.336-.368-18.608.242-2.325.624-1.857-.808-10.43 31.907-2.883 11-5.572 20.371-5.976 20.824-.404.453-1.534-2.439-2.511-6.427-.978-3.989-4.128-16.06-7-26.825L80.252 76.5l-9.545-.285c-5.512-.165-9.803.131-10.154.699m87.637 34.181c-10.305 1.963-16.858 8.544-19.751 19.837-2.736 10.679-1.717 61.88 1.365 68.568 10.169 22.072 42.116 20.384 49.545-2.619 1.991-6.164 2.428-57.158.565-65.848-3.033-14.143-16.781-22.783-31.724-19.938m47.997 46.155c.348 51.402.384 51.689 7.003 55.724 6.388 3.895 17.184.92 23.735-6.541 3.931-4.477 4.075-4.404 4.075 2.067v5.5h19V111h-19v79.263l-4.368 4.369c-4.456 4.455-8.053 5.547-10.432 3.168-.896-.896-1.2-12.044-1.2-44V111h-19.126l.313 46.25m-47.732-27.795c-1.35 1.35-2.475 3.262-2.499 4.25-.104 4.249-.161 56.008-.063 58.09.294 6.3 8.667 9.207 13.801 4.793l2.806-2.412.312-27.838c.172-15.311.03-29.351-.316-31.2-1.4-7.488-9.114-10.611-14.041-5.683" fill-rule="evenodd"/>
</svg>