<!DOCTYPE svg PUBLIC "-//W3C//DTD SVG 1.1//EN" "http://www.w3.org/Graphics/SVG/1.1/DTD/svg11.dtd">
<svg xmlns="http://www.w3.org/2000/svg" viewBox="0 0 235 160">
<path d="M136.027 46.525C110.576 49.412 84.301 55.158 62 62.713c-12.339 4.18-11.977 3.965-8.724 5.202 2.609.992 4.349 4.265 3.23 6.076C55.507 75.607 51 75.205 51 73.5c0-.825-.675-1.5-1.5-1.5-2.751 0-1.546 1.936 2.484 3.992 9.959 5.081 3.946 16.93-6.398 12.608-4.875-2.037-5.28-6.6-.586-6.6 2 0 3 .5 3 1.5 0 .825.675 1.5 1.5 1.5 2.735 0 1.554-2.516-2.106-4.487-3.628-1.954-5.912-5.72-4.966-8.185.694-1.81.276-1.716-5.711 1.295-21.554 10.838-27.094 25.042-12.644 32.414 9.026 4.605 15.748 5.422 44.427 5.403 42.116-.029 83.06-7.222 112.5-19.764l7.5-3.195.29-7.613c.264-6.949.111-7.661-1.75-8.147-1.234-.323-2.04-1.361-2.04-2.627 0-1.91.57-2.094 6.5-2.094 6.267 0 6.5.09 6.5 2.5 0 1.556-.567 2.5-1.5 2.5-1.167 0-1.5 1.333-1.5 6 0 7.189-.175 7.16 8.547 1.439 22.454-14.728 21.437-26.885-2.766-33.047-8.876-2.259-47.876-2.782-64.754-.867M134 68.249c-4.738 2.466-3.881 9.483 1.469 12.035C138.691 81.82 140.398 85 138 85c-.55 0-1-.675-1-1.5 0-1.048-1.056-1.5-3.5-1.5-4.031 0-4.509 1.532-1.6 5.125 2.155 2.661 8.865 3.145 11.642.84 3.116-2.586 1.515-9.168-2.789-11.465-2.061-1.1-3.749-2.562-3.75-3.25-.004-1.743 1.662-1.566 2.359.25 1.003 2.616 5.638 1.895 5.638-.878 0-4.317-6.297-6.82-11-4.373M64.043 75.75c-.677 4.263-1.47 8.987-1.762 10.5-.484 2.507-.266 2.75 2.469 2.75 3.182 0 4.25-2.279 4.25-9.066 0-5.618 1.787-3.748 2.464 2.578.687 6.413.73 6.488 3.743 6.488 3.419 0 3.37 1.102.657-14.75L74.795 68h-9.521l-1.231 7.75M84 78.5V89h2.5c2.431 0 2.502-.2 2.563-7.25.07-7.944 1.168-7.008 2.412 2.056.716 5.219.779 5.301 3.877 5 3.041-.296 3.186-.526 4.276-6.806l1.128-6.5.122 6.75L101 89h3c2.992 0 3-.016 3-5.86 0-3.224-.286-7.949-.636-10.5l-.636-4.64h-8.575l-.91 5.25-.909 5.25-.745-4c-1.205-6.474-1.23-6.5-6.058-6.5H84v10.5m29-.05V89h6.07c5.722 0 6.051-.129 5.75-2.25-.234-1.643-.995-2.254-2.82-2.265-1.82-.012-2.587-.624-2.82-2.25-.259-1.816.162-2.235 2.25-2.235 1.903 0 2.57-.519 2.57-2 0-1.467-.667-2-2.5-2-3.47 0-3.251-2.781.25-3.184 1.978-.227 2.75-.878 2.75-2.316 0-1.733-.767-2.04-5.75-2.3l-5.75-.3v10.55m37.814.052-.314 10.502 3.25-.002C156.935 89 157 88.91 157 84.5c0-2.475.45-4.5 1-4.5s1 2.025 1 4.5c0 4.411.064 4.5 3.25 4.498l3.25-.003V68.5h-3c-2.654 0-3.036.375-3.313 3.25-.421 4.363-2.187 4.161-2.187-.25 0-3.205-.247-3.5-2.936-3.5h-2.935l-.315 10.502m21.853-9.835c-.367.366-.667 5.091-.667 10.5V89h7V68h-2.833c-1.559 0-3.134.3-3.5.667" fill-rule="evenodd"/>
</svg>