<!DOCTYPE svg PUBLIC "-//W3C//DTD SVG 1.1//EN" "http://www.w3.org/Graphics/SVG/1.1/DTD/svg11.dtd">
<svg xmlns="http://www.w3.org/2000/svg" viewBox="0 0 765 704">
<path fill="#fbfbfb" stroke="#fbfbfb" d="M547 56.431c-1.375.744-5.318 1.626-8.763 1.96-3.445.335-7.045 1.038-8 1.563C526.9 61.788 518.735 65 517.408 65c-2.163 0-12.2 5.839-26.916 15.658-4.345 2.899-7.971 6.517-16.992 16.954-2.589 2.995-9.9 16.808-11.446 21.624-1.616 5.033-1.544 5.015-12.73 3.176-9.643-1.586-26.063-1.499-37.074.197-3.412.525-4.25.357-4.25-.855 0-.83-.686-2.078-1.524-2.774-.838-.696-1.306-1.483-1.04-1.75.868-.867-5.06-8.61-11.067-14.455-9.623-9.364-12.557-11.654-19.156-14.948-3.458-1.726-6.527-3.525-6.819-3.999-.293-.473-1.001-.571-1.575-.216-.573.354-1.33.219-1.681-.3-.966-1.43-11.279-6.312-13.334-6.312-.992 0-1.804-.354-1.804-.786 0-.432-.788-.849-1.75-.928-.962-.078-5.35-1.074-9.75-2.213-14.756-3.819-48.373-2.779-57.291 1.773-.94.48-3.205 1.156-5.034 1.503-1.829.347-6.697 2.231-10.818 4.187-4.882 2.316-8.253 3.343-9.675 2.944-1.341-.375-1.713-.282-.965.243.841.59-.165 1.61-3.25 3.295C249.01 88.36 247 89.805 247 90.229c0 .424-.621.771-1.38.771-.758 0-3.097 2.097-5.197 4.659-3.7 4.516-5.122 8.341-3.101 8.341.543 0 .18.893-.808 1.985-1.181 1.304-2.852 1.904-4.876 1.75-2.855-.218-3.419.332-7.698 7.509-2.54 4.259-4.988 7.409-5.44 7-.451-.409-.517-.215-.147.432.785 1.371-3.04 12.154-5.011 14.124-.738.739-1.342 2.634-1.342 4.212 0 1.579-.481 3.167-1.068 3.53-.588.363-.816 1.318-.507 2.122.308.805-.144 2.826-1.006 4.492-.861 1.667-1.324 3.272-1.028 3.568.296.297.02 1.492-.614 2.657-1.335 2.452-1.914 30.821-.613 30.018.46-.285.836 1.452.836 3.858 0 12.552 12.26 41.719 20.208 48.077 1.26 1.008 5.143 4.586 8.627 7.95 7.228 6.978 8.596 7.873 19.813 12.969 1.182.537 5.569.803 9.75.592l7.602-.384v5.058c0 6.901 2.605 27.335 3.926 30.796.59 1.548 1.074 3.895 1.074 5.215 0 1.32.692 4.439 1.538 6.93 1.679 4.946.404 10.482-1.711 7.425-.683-.987-.776-.737-.324.87.422 1.497-.044 3.117-1.384 4.821-2.201 2.797-8.371 18.226-10.168 25.424-1.042 4.171-5.832 9-8.928 9-1.933 0-10.254-10.713-13.094-16.859-7.263-15.716-8.637-22.331-6.988-33.641 1.673-11.472 2.564-14.626 6.401-22.654 6.82-14.27 4.75-17.414-10.718-16.278-6.861.503-13.415.202-23.431-1.079l-13.905-1.777-2.144 2.144c-1.179 1.179-2.863 2.144-3.742 2.144-.878 0-5.266 1.753-9.75 3.897-4.483 2.143-10.696 5.023-13.806 6.4-8.475 3.754-23.464 15.94-38.846 31.583-14.19 14.431-24.091 27.176-31.916 41.083-7.749 13.771-13.785 25.352-14.604 28.02-.42 1.365-2.324 5.863-4.232 9.994-1.908 4.131-4.332 9.764-5.386 12.517-1.055 2.753-2.323 5.906-2.819 7.006-1.349 2.992-5.055 13.515-6.164 17.5-.535 1.925-1.346 4.4-1.801 5.5C58.666 437.329 50 464.747 50 466.549c0 2.393 3.113-.579 4.503-4.299 2.35-6.29 14.409-31.342 16.005-33.25.69-.825 2.756-4.425 4.59-8 2.882-5.617 6.654-11.318 11.263-17.023.676-.837 2.647-3.581 4.378-6.098 3.637-5.286 13.136-14.246 17.49-16.497 6.897-3.567 8.843-.451 9.384 15.03.307 8.803 1.658 12.909 2.962 9.005 4.289-12.839 11.253-21.164 20.331-24.305 7.868-2.723 9.048-2.667 13.358.638 5.207 3.993 8.136 12.878 6.881 20.877-1.362 8.688.356 11.246 3.441 5.123 9.897-19.64 30.92-16.404 44.498 6.85 7.132 12.215 8.148 13.824 11.486 18.196 3.308 4.331 4.609 8.051 2.323 6.638-.735-.455-.893-.011-.471 1.32.35 1.103-.021 3.971-.824 6.375-1.523 4.561-4.546 15.92-5.155 19.371-.686 3.887-4.302 27.055-4.84 31-.299 2.2-1.24 15.22-2.09 28.933-.85 13.713-1.764 25.151-2.03 25.417-.265.266-.483-1.017-.483-2.85 0-4.378-.589-3.564-1.267 1.75-.31 2.425-.154 4.01.362 3.691 1.513-.935 1.01 1.227-.595 2.559-.825.685-1.5 1.788-1.5 2.451 0 1.148-5.719 10.496-7.066 11.549-2.053 1.605-5.098 13.923-6.144 24.849-1.265 13.215-1.782 14.151-7.818 14.151-6.481 0-22.972-10.527-22.972-14.664 0-.813-.643-2.122-1.429-2.908-4.282-4.282-6.08-22.915-3.067-31.787 2.668-7.859 8.023-13.433 14.562-15.158 8.052-2.125 16.934 1.737 16.934 7.363 0 2.728 3.7 7.179 4.284 5.154.239-.825 1.023-3.3 1.743-5.5 5.041-15.401 2.26-34.307-6.209-42.215-6.555-6.121-31.191-4.286-39.416 2.935-1.838 1.614-3.817 2.642-4.397 2.283-.58-.358-.931-.224-.78.299.151.522-1.31 2.693-3.246 4.824C135 525.003 127 536.516 127 537.864c0 .488-1.066 3.306-2.369 6.262-10.805 24.507-6.811 63.1 8.498 82.106 17.33 21.516 40.543 27.576 62.801 16.397l5.248-2.636 9.165 6.754c5.04 3.714 10.063 7.245 11.161 7.847 7.298 3.999 20.315 10.142 24.996 11.796 13.426 4.745 20.178 8.031 22.678 11.038 2.052 2.468 4.041 3.524 8.5 4.514 5.894 1.308 10.86 3.378 11.482 4.787.187.424 2.134 2.112 4.326 3.752 5.601 4.189 15.221 4.805 22.019 1.41l4.658-2.327 1.668 2.106c5.796 7.313 20.226 10.96 26.666 6.74 2.296-1.504 2.53-1.503 3.114.019 1.612 4.201 10.233 6.03 14.683 3.114 5.84-3.826 7.206-7.843 7.206-21.189 0-10.478.206-12.039 1.5-11.363 8.477 4.429 45.553 6.24 54.876 2.68 6.131-2.341 6.231-2.297 10.043 4.359 1.88 3.283 3.761 5.97 4.178 5.97.418 0 1.355.579 2.082 1.286 3.741 3.642 14.085 4.636 17.821 1.714 1.375-1.076 3.988-1.966 5.808-1.978 1.819-.012 5.404-1.192 7.966-2.623 3-1.675 4.794-2.196 5.038-1.463 1.856 5.569 8.753 9.802 17.351 10.65 10.07.994 12.89.713 15.27-1.523 1.208-1.135 2.924-2.063 3.813-2.063 1.779 0 5.076-4.163 6.225-7.858 1.489-4.794-.331-12.441-3.85-16.171-5.098-5.403-6.069-7.694-3.594-8.48 4.28-1.358 5.269-4.721 4.76-16.183-.453-10.174-.597-10.745-3.239-12.852l-2.766-2.205.977-7.875c.536-4.332 3.243-21.151 6.015-37.376 2.771-16.225 5.796-34.45 6.722-40.5.925-6.05 2.346-14.6 3.156-19 .811-4.4 1.857-11.244 2.326-15.208.902-7.633 1.477-9.292 3.221-9.292.594 0 1.58-.608 2.191-1.352 2.106-2.564 20.601-16.675 24.56-18.739 16.468-8.584 30.02-2.724 33.554 14.51 1.726 8.421 3.3 6.875 6.02-5.914.351-1.648 2.212-4.917 4.136-7.266 7.701-9.398 14.477-9.387 24.536.039 4.283 4.014 7.436 13.682 7.981 24.472.215 4.277 2.823 6.355 2.823 2.25 0-1.1.357-2 .793-2 .436 0 1.652-2.588 2.702-5.75 2.158-6.5 6.013-13.25 7.567-13.25 6.444 0 11.821 9.901 20.995 38.661 2.499 7.835 7.943 48.894 7.943 59.909 0 5.087 1.61 6.697 2.721 2.721 1.729-6.194.893-87.923-1.053-102.791-2.157-16.485-7.963-42.347-11.225-50-.703-1.65-2.997-7.275-5.098-12.5-2.1-5.225-5.231-12.2-6.956-15.5-6.411-12.26-7.901-15.012-8.396-15.5-.279-.275-2.684-4.069-5.345-8.431-2.661-4.362-5.905-8.77-7.208-9.795-1.304-1.026-7.674-7.187-14.155-13.692-11.559-11.6-11.89-11.841-17.285-12.557-6.086-.808-25.287-6.696-31.438-9.64-10.493-5.023-13.052-2.439-12.277 12.399.809 15.489-1.717 28.171-7.656 38.438-1.136 1.963-1.309 1.306-1.479-5.622-.106-4.315-.862-10.414-1.68-13.554-.818-3.14-1.189-6.192-.824-6.782.365-.59.211-.793-.342-.452-.554.342-2.187-2.117-3.636-5.475l-2.63-6.097 3.205-4.12c1.763-2.266 3.443-4.345 3.734-4.62 7.536-7.128 13.657-29.32 12.542-45.475-.418-6.064-.819-11.995-.89-13.18-.071-1.184-.372-2.004-.668-1.821-.297.183-1.002-1.659-1.567-4.095-1.064-4.587-.162-5.797 2.406-3.229.66.66 1.2.83 1.2.378 0-.453.617-.311 1.371.315 1.756 1.457 17.962 5.057 22.895 5.085 15.869.092 24.975-13.8 20.143-30.728-.604-2.116-.348-2.25 4.283-2.25 2.783 0 5.77-.639 6.867-1.468 1.067-.808 3.066-1.49 4.441-1.517 1.375-.027 3.56-1.167 4.855-2.532 1.295-1.366 2.885-2.483 3.532-2.483 1.338 0 9.476-8.281 14.74-15 4.834-6.17 12.426-21.643 13.941-28.415.688-3.072 1.572-5.585 1.965-5.585.394 0 .736-1.912.761-4.25.024-2.338.233-8.75.463-14.25.476-11.362-.682-24.865-2.701-31.5-1.865-6.13-10.209-24.93-11.54-26-.342-.275-1.673-2.3-2.959-4.5-8.799-15.059-12.744-19.342-17.43-18.921-3.792.34-6.2-1.922-5.099-4.792.48-1.249-1.122-3.37-4.938-6.537-.828-.687-1.781-1.25-2.118-1.25-.336 0-2.493-1.246-4.792-2.769-4.051-2.684-9.606-5.174-12.68-5.684-7.165-1.189-9.109-1.868-7.849-2.742.917-.636.588-.721-1.026-.263-1.398.395-2.663.205-3.077-.464-.386-.624-2.242-1.314-4.125-1.533-25.433-2.953-37.906-3.285-41.923-1.114m28.75 88.261c-2.062.236-3.75.852-3.75 1.368 0 .517-1.462.933-3.25.925-2.466-.012-2.888-.249-1.75-.985 1.294-.836 1.269-.971-.183-.985-.925-.008-1.968.885-2.317 1.986-.534 1.68-3.705 4.269-5.5 4.49-4.186.514-18.976 18.451-15.274 18.524.426.009.156.407-.6.886-1.004.636 1.14 2.548 7.981 7.117 5.145 3.436 12.739 9.144 16.874 12.685 4.135 3.54 9.459 8.093 11.83 10.117a830.672 830.672 0 0 1 4.575 3.921c.145.133.297-1.217.337-3 .101-4.417.859-8.091 2.175-10.551.606-1.132 1.102-3.002 1.102-4.156 0-1.153.675-2.356 1.5-2.672.825-.317 1.5-1.428 1.5-2.469s.45-1.893 1-1.893 1-.587 1-1.304c0-2.512 6.372-7.524 10-7.866l3.5-.33.1 8c.11 8.735 1.131 14.5 2.569 14.5.505 0 .786.787.625 1.75-.164.978.258 1.64.956 1.5.688-.138 1.25.172 1.25.688s.869.872 1.931.792c1.062-.08 1.759-.423 1.549-.762-.21-.34.309-3.263 1.154-6.497.844-3.233 1.316-7.7 1.049-9.925-.759-6.318-3.504-15.986-4.648-16.368-.569-.189-1.035-.809-1.035-1.377 0-2.169-7.463-11.07-11.392-13.587-2.37-1.518-6.435-2.945-9.608-3.372-3.025-.406-6.85-.928-8.5-1.159-1.65-.231-4.687-.226-6.75.009m-267.447 16.656c.412 1.073-.836 1.256-6.127.898-6.723-.454-20.005 1.237-23.676 3.015-3.022 1.463-12.466 12.002-12.484 13.93-.009.93-.454 1.962-.989 2.292-1.83 1.131-3.154 8.698-3.036 17.359.065 4.762.098 9.67.075 10.908-.024 1.238.401 2.25.945 2.25.544 0 .989.624.989 1.386 0 .762.616 2.573 1.369 4.024l1.369 2.639 1.837-2.775c1.387-2.093 1.994-5.571 2.474-14.172.731-13.106 1.678-14.778 7.282-12.853 4.446 1.527 7.853 5.533 12.007 14.119l2.838 5.866 6.162-6.073c3.389-3.34 7.962-7.72 10.162-9.732 4.165-3.81 16.66-10.429 19.687-10.429 1.991 0 4.499-3.923 3.118-4.877-.496-.343-1.927-2.091-3.18-3.885-1.253-1.794-2.763-2.962-3.356-2.595-.593.366-.807.227-.475-.31 1.028-1.663-6.985-6.779-11.794-7.532-1.1-.172-2.444-1.323-2.987-2.557-1.043-2.371-3.095-3.203-2.21-.896M411 166.5c0 .825.177 1.5.393 1.5.216 0 .652-.675.969-1.5.316-.825.139-1.5-.393-1.5-.533 0-.969.675-.969 1.5m132.433 12.391c.713 1.154 4.567 3.483 4.567 2.759 0-.231-1.18-1.193-2.623-2.139-1.443-.945-2.318-1.224-1.944-.62m5.609 3.85c.054.968 6.962 5.407 6.946 4.463-.007-.387-1.582-1.721-3.5-2.963-1.919-1.243-3.469-1.918-3.446-1.5m7.958 5.598c0 .261 2.362 2.408 5.25 4.772 3.254 2.663 4.299 3.232 2.75 1.495-2.55-2.857-8-7.127-8-6.267m-225.25 1.323c.688.278 1.813.278 2.5 0 .688-.277.125-.504-1.25-.504s-1.937.227-1.25.504M322 191c-.901.582-1.025.975-.309.985.655.008 1.469-.435 1.809-.985.767-1.242.421-1.242-1.5 0m-3.493 2.989c-.35.566.051.734.941.393 1.732-.665 2.049-1.382.611-1.382-.518 0-1.216.445-1.552.989m-6 4c-.35.566.051.734.941.393 1.732-.665 2.049-1.382.611-1.382-.518 0-1.216.445-1.552.989m257.215 1.061c1.222 1.287 2.416 2.139 2.652 1.894.237-.244-.763-1.296-2.222-2.338l-2.652-1.894 2.222 2.338m6.159 5.67c2.296 3.342 3.951 4.781 4.671 4.062.23-.23-1.225-1.963-3.233-3.85l-3.65-3.432 2.212 3.22M313.2 229.46c-.618 1.358-.743 2.704-.277 2.993.467.288 1.085-.709 1.374-2.215.686-3.571.3-3.844-1.097-.778m237.879 5.123c.048 1.165.285 1.402.604.605.289-.722.253-1.585-.079-1.917-.332-.332-.568.258-.525 1.312m2.139-.083c.01 1.1.362 3.35.782 5 .686 2.695.765 2.746.782.5.01-1.375-.342-3.625-.782-5-.627-1.959-.797-2.067-.782-.5m-242.139 4.083c.048 1.165.285 1.402.604.605.289-.722.253-1.585-.079-1.917-.332-.332-.568.258-.525 1.312m240 3c.048 1.165.285 1.402.604.605.289-.722.253-1.585-.079-1.917-.332-.332-.568.258-.525 1.312M310.158 243c0 1.375.227 1.938.504 1.25.278-.687.278-1.812 0-2.5-.277-.687-.504-.125-.504 1.25m299.342 8.5c0 2.92.337 5.1.75 4.845.962-.594.95-7.482-.015-9-.404-.634-.735 1.235-.735 4.155m-54.421-1.917c.048 1.165.285 1.402.604.605.289-.722.253-1.585-.079-1.917-.332-.332-.568.258-.525 1.312m52 2c.048 1.165.285 1.402.604.605.289-.722.253-1.585-.079-1.917-.332-.332-.568.258-.525 1.312m-304 9c.048 1.165.285 1.402.604.605.289-.722.253-1.585-.079-1.917-.332-.332-.568.258-.525 1.312m255.079.417c0 1.375.227 1.938.504 1.25.278-.687.278-1.812 0-2.5-.277-.687-.504-.125-.504 1.25m-280.906 2.5c.011 2.2.216 2.982.455 1.738.239-1.244.23-3.044-.02-4s-.446.062-.435 2.262m292.561-2.817c.721.289 1.584.253 1.916-.079.332-.332-.258-.568-1.312-.525-1.165.048-1.402.285-.604.604m9.937 2.023c1.237.238 3.263.238 4.5 0 1.237-.239.225-.434-2.25-.434s-3.487.195-2.25.434M305 264.918c0 1.055-.301 2.704-.67 3.664-.423 1.103-.281 1.506.385 1.094 1.288-.796 2.267-6.676 1.112-6.676-.455 0-.827.863-.827 1.918M301.5 266c-.34.55-.141 1 .441 1s1.059-.45 1.059-1-.198-1-.441-1-.719.45-1.059 1m257.5-.059c0 .518.445 1.216.989 1.552.566.35.734-.051.393-.941-.665-1.732-1.382-2.049-1.382-.611m22 1.013c.825.559 2.362 1.022 3.417 1.031 2.558.02 1.76-.552-1.917-1.375-2.191-.49-2.595-.397-1.5.344m20 .046c-.901.582-1.025.975-.309.985.655.008 1.469-.435 1.809-.985.767-1.242.421-1.242-1.5 0m-35 1.477c0 .838.702 1.523 1.559 1.523s1.284.445.948.989c-.35.566.051.734.941.393 2.022-.776 1.993-.863-.948-2.79-2.189-1.434-2.5-1.448-2.5-.115M278.232 271c0 1.925.206 2.712.457 1.75.252-.962.252-2.538 0-3.5-.251-.962-.457-.175-.457 1.75m3 0c0 1.925.206 2.712.457 1.75.252-.962.252-2.538 0-3.5-.251-.962-.457-.175-.457 1.75m308.581-2.317c.721.289 1.584.253 1.916-.079.332-.332-.258-.568-1.312-.525-1.165.048-1.402.285-.604.604m3.937-.021c.688.278 1.813.278 2.5 0 .688-.277.125-.504-1.25-.504s-1.937.227-1.25.504m-292.114 2.844c-.315.822-.17 1.494.322 1.494s1.101.788 1.353 1.75c.287 1.101.5.752.573-.941.131-3.037-1.374-4.58-2.248-2.303m280.114 2.156c.688.278 1.813.278 2.5 0 .688-.277.125-.504-1.25-.504s-1.937.227-1.25.504M278.5 276c.34.55.816 1 1.059 1s.441-.45.441-1-.477-1-1.059-1-.781.45-.441 1m1.257 8.25c.255 2.887.857 6.825 1.338 8.75.764 3.057.813 2.882.39-1.39-.267-2.689-.485-6.626-.485-8.75 0-2.123-.384-3.86-.853-3.86s-.645 2.363-.39 5.25m284.322-.667c.048 1.165.285 1.402.604.605.289-.722.253-1.585-.079-1.917-.332-.332-.568.258-.525 1.312m-149.695 6.859c-1.601 4.171 2.395 8.207 5.275 5.328 1.399-1.4 1.494-2.139.54-4.233-1.269-2.785-4.904-3.47-5.815-1.095m131.971.075c-.768 2.003.251 4.394 2.19 5.138 2.391.918 3.857-1.035 2.575-3.43-1.413-2.642-4.045-3.585-4.765-1.708M284.086 292c-.031.825.381 2.175.914 3 1.181 1.828 1.181.249 0-2.5-.567-1.319-.878-1.489-.914-.5m13.538.539c-.965 2.514-.681 3.163.498 1.136.584-1.004.851-2.036.593-2.293-.257-.258-.749.263-1.091 1.157M547 291.893c0 .491.652 1.143 1.449 1.449.969.372 1.265.076.893-.893-.607-1.582-2.342-1.994-2.342-.556m13.195 1.607c.02 1.65.244 2.204.498 1.231.254-.973.237-2.323-.037-3-.274-.677-.481.119-.461 1.769M439 293.759c0 .418.9 1.322 2 2.009 2.326 1.452 2.636.725.571-1.339-1.576-1.577-2.571-1.836-2.571-.67m.51 3.225c-.345.559-.096 1.016.553 1.016.834 0 .778.499-.191 1.692-1.183 1.459-1.165 1.573.128.828.937-.54.786-.049-.405 1.308-2.372 2.704-1.101 2.778 3.155.183 3.181-1.939 4.24-3.887 2.25-4.136-1.978-.247-2.518-.417-3.681-1.157-.649-.413-1.463-.293-1.809.266M282 299.941c0 1.618.356 3.161.791 3.43.435.269.611-1.055.391-2.941-.491-4.203-1.182-4.489-1.182-.489m278.195-.441c.02 1.65.244 2.204.498 1.231.254-.973.237-2.323-.037-3-.274-.677-.481.119-.461 1.769m-6.736 29.567c-.363.586-.445 1.281-.183 1.543s.743-.218 1.069-1.067c.676-1.762.1-2.072-.886-.476m-8.428 16.433c0 .55.436 1.675.969 2.5.533.825.969 1.05.969.5s-.436-1.675-.969-2.5c-.533-.825-.969-1.05-.969-.5m-272.952 4.083c.048 1.165.285 1.402.604.605.289-.722.253-1.585-.079-1.917-.332-.332-.568.258-.525 1.312m282 31c.048 1.165.285 1.402.604.605.289-.722.253-1.585-.079-1.917-.332-.332-.568.258-.525 1.312M328.232 383c.687 1.1 1.661 2 2.164 2 .502 0 .099-.9-.896-2s-1.969-2-2.163-2c-.195 0 .208.9.895 2m6.768 6.35c0 .231 1.18 1.193 2.623 2.139 1.443.945 2.318 1.224 1.944.62-.713-1.154-4.567-3.483-4.567-2.759M277 401c0 .55.477 1 1.059 1s.781-.45.441-1-.816-1-1.059-1-.441.45-.441 1m-5.937 2.01c-.034.831 1.1 2.764 2.521 4.297 2.227 2.402 2.399 3.021 1.25 4.49-1.213 1.549-1.169 1.573.492.267 1.587-1.247 1.945-1.247 2.735 0 .5.79.915.958.924.373.008-.585-1.382-2.385-3.089-4-1.707-1.615-3.479-3.837-3.937-4.937-.554-1.332-.853-1.495-.896-.49m5.447 1.006c.346.559 1.047.758 1.559.441 1.387-.857 1.129-1.457-.628-1.457-.857 0-1.276.457-.931 1.016M362 405.5c3.287 1.879 4.911 1.9 2.441.032-1.067-.808-2.616-1.467-3.441-1.465-.87.002-.45.604 1 1.433m5.5-.5c.34.55 1.068 1 1.618 1s.722-.45.382-1c-.34-.55-1.068-1-1.618-1s-.722.45-.382 1m5.5-.607c0 .216.698.661 1.552.989.89.341 1.291.173.941-.393-.587-.951-2.493-1.406-2.493-.596m-93 3.016c0 .19.675.906 1.5 1.591.865.718 1.5.815 1.5.229 0-.558-.675-1.274-1.5-1.591-.825-.316-1.5-.419-1.5-.229m91.774 2.514c3.775 2.395 4.969 2.677 3.001.709-.753-.753-2.472-1.687-3.822-2.077-1.98-.573-1.822-.31.821 1.368M272 410c0 .55.477 1 1.059 1s.781-.45.441-1-.816-1-1.059-1-.441.45-.441 1m87 0c.825.533 2.175.945 3 .914.989-.036.819-.347-.5-.914-2.749-1.181-4.328-1.181-2.5 0m-75 1.378c0 .207.788.995 1.75 1.75 1.586 1.243 1.621 1.208.378-.378-1.307-1.666-2.128-2.195-2.128-1.372m95.118.528c-.975.618.307 1.366 4.357 2.544 3.157.918 5.959 1.45 6.226 1.182.534-.534-6.3-2.608-8.701-2.642-1.333-.018-1.333-.128 0-.99.825-.533 1.05-.969.5-.969s-1.622.394-2.382.875m41.882-.528c0 .207.788.995 1.75 1.75 1.586 1.243 1.621 1.208.378-.378-1.307-1.666-2.128-2.195-2.128-1.372M367 413c.825.533 1.95.969 2.5.969s.325-.436-.5-.969c-.825-.533-1.95-.969-2.5-.969s-.325.436.5.969m-96.667 1.456c0 .801.383 1.22.85.931.467-.289.591-.944.274-1.456-.808-1.308-1.124-1.161-1.124.525M281.5 415c.995 1.1 2.035 2 2.31 2 .275 0-.315-.9-1.31-2-.995-1.1-2.035-2-2.31-2-.275 0 .315.9 1.31 2m-4 0c.34.55.816 1 1.059 1s.441-.45.441-1-.477-1-1.059-1-.781.45-.441 1m114.233.124c.679.684 1.486.991 1.793.683.308-.308-.247-.867-1.233-1.243-1.425-.542-1.54-.428-.56.56m33.35-.759c.23.2 1.542.9 2.917 1.555 2.357 1.122 2.389 1.102.559-.365-1.593-1.276-4.848-2.391-3.476-1.19m-152.567 2.61c-.808 1.307 1.493 2.416 2.638 1.271.64-.64.448-1.185-.555-1.57-.844-.324-1.782-.189-2.083.299m10.476 1.971c1.92 1.707 3.645 2.642 3.833 2.079.558-1.674 2.288-1.164 1.969.58-.162.882.831 2.287 2.206 3.122l2.5 1.519-2.5-2.186c-2.433-2.127-2.44-2.168-.25-1.555 1.322.37 2.25.189 2.25-.438 0-.587-.493-1.067-1.096-1.067-.602 0-2.515-.995-4.25-2.211-2.174-1.524-2.728-1.679-1.782-.5 1.844 2.298.614 2.157-3.218-.368-3.074-2.026-3.065-2 .338 1.025m97.758-1.284c.688.278 1.813.278 2.5 0 .688-.277.125-.504-1.25-.504s-1.937.227-1.25.504m44.063.021c.721.289 1.584.253 1.916-.079.332-.332-.258-.568-1.312-.525-1.165.048-1.402.285-.604.604m96 1c.721.289 1.584.253 1.916-.079.332-.332-.258-.568-1.312-.525-1.165.048-1.402.285-.604.604m3.713 2.452c.622 3.232 1.474 3.539 1.474.532 0-1.467-.424-2.667-.943-2.667-.518 0-.757.961-.531 2.135M281 423.049c3.469 2.354 5.444 3.039 3 1.04-1.375-1.124-2.95-2.048-3.5-2.051-.55-.004-.325.451.5 1.011m-1.344 2.496c.304.794.956 1.195 1.449.89 1.24-.766 1.126-1.132-.554-1.777-.967-.371-1.265-.076-.895.887M526.115 428c-.057 1.375.3 4.075.793 6 1.845 7.202 2.11 14 .545 14-.799 0-1.453.45-1.453 1 0 1.347 1.139 1.211 3.246-.389 1.465-1.112 1.608-2.07.885-5.937-.473-2.536-.633-4.839-.353-5.118.279-.279-.022-1.146-.669-1.925-.647-.78-1.562-3.378-2.033-5.774-.522-2.655-.897-3.381-.961-1.857M289.5 429c.34.55.816 1 1.059 1s.441-.45.441-1-.477-1-1.059-1-.781.45-.441 1m8.5 2.059c0 .582.45.781 1 .441s1-.816 1-1.059-.45-.441-1-.441-1 .477-1 1.059m231.729 22.033c-.974.567-1.497 1.475-1.161 2.018.388.628 1.124.561 2.021-.184 1.116-.926 1.411-.832 1.411.452 0 .892.45 1.622 1 1.622 1.141 0 1.271-1.13.393-3.418-.703-1.832-1.237-1.903-3.664-.49m-7.229 2.621c-1.1.265-2.42.88-2.933 1.367-.512.487.564.456 2.393-.068 1.829-.525 3.711-.716 4.182-.424.472.292.858.053.858-.529 0-1.094-1.055-1.175-4.5-.346m6.057 2.869c-1.066.78-1.516 1.411-.998 1.403 1.382-.023 3.961-1.799 3.41-2.349-.259-.26-1.345.166-2.412.946m-8.807 2.107c-.962.252-1.75.851-1.75 1.332 0 .781 1.345.519 7-1.364 1.869-.622-2.856-.593-5.25.032m6.294 3.282c-4.582 1.814-5.962 3.343-4.072 4.512.593.366.954.145.803-.491-.151-.636 1.6-1.907 3.892-2.824 4.044-1.619 6.611-3.275 4.75-3.064-.504.057-2.922.897-5.373 1.867m6.154 1.083c-.893 1.431-1.953 1.889-3.49 1.509-1.214-.299-1.643-.285-.952.032.691.317.962 1.052.602 1.634-.36.583.763.222 2.494-.801 1.731-1.022 3.148-2.437 3.148-3.144 0-1.754-.307-1.623-1.802.77m-7.738 3.882c.311.502-.229 1.119-1.198 1.372-1.375.359-1.281.485.429.576 2.666.141 3.892-1.446 1.751-2.268-.85-.326-1.292-.182-.982.32m9.159-.129c-.634 1.027-.224 3.921.685 4.831.383.382.696-.73.696-2.471 0-3.155-.433-3.894-1.381-2.36m-20.35.886c.973.254 2.323.237 3-.037.677-.274-.119-.481-1.769-.461-1.65.02-2.204.244-1.231.498m3.481 1.969c.688.278 1.813.278 2.5 0 .688-.277.125-.504-1.25-.504s-1.937.227-1.25.504M530 472c-.901.582-1.025.975-.309.985.655.008 1.469-.435 1.809-.985.767-1.242.421-1.242-1.5 0m-6.5 2c-1.261.542-1.445.859-.5.859.825 0 2.4-.386 3.5-.859 1.261-.542 1.445-.859.5-.859-.825 0-2.4.386-3.5.859m-10.25 1.689c.962.252 2.538.252 3.5 0 .962-.251.175-.457-1.75-.457s-2.712.206-1.75.457m20.64-.439c-.109.249-.312 3.081-1.154 16.115-.244 3.775-.118 6.25.28 5.5.883-1.664 2.296-21.865 1.53-21.865-.3 0-.595.113-.656.25m-3.811 16.333c.048 1.165.285 1.402.604.605.289-.722.253-1.585-.079-1.917-.332-.332-.568.258-.525 1.312m-2.064 8.167c.009.413.439 1.419.956 2.237.739 1.169.904 1.009.772-.75-.149-1.982-1.766-3.374-1.728-1.487m2.985 2.625c0 1.856-.29 4.894-.644 6.75-.354 1.856-.308 3.067.102 2.69 1.076-.989 2.33-12.815 1.358-12.815-.449 0-.816 1.519-.816 3.375m-207.362.125c.317.825.753 1.5.969 1.5.216 0 .393-.675.393-1.5s-.436-1.5-.969-1.5c-.532 0-.709.675-.393 1.5m-169.825 5.183c.721.289 1.584.253 1.916-.079.332-.332-.258-.568-1.312-.525-1.165.048-1.402.285-.604.604m374.266 3.9c.048 1.165.285 1.402.604.605.289-.722.253-1.585-.079-1.917-.332-.332-.568.258-.525 1.312m1.057 5.085c-.075 1.193-.395 2.993-.712 4-.544 1.734-.514 1.737.566.053.628-.978.948-2.778.712-4-.429-2.219-.43-2.219-.566-.053M207.195 525.5c.02 1.65.244 2.204.498 1.231.254-.973.237-2.323-.037-3-.274-.677-.481.119-.461 1.769m-67.081 2.082c-2.166 2.754-2.907 6.026-1.114 4.918.55-.34 1-1.329 1-2.199 0-.869.787-2.156 1.748-2.859.962-.703 1.463-1.564 1.114-1.913s-1.585.575-2.748 2.053m386.527 1.628c-.338 1.26-.571 3.415-.518 4.79.057 1.473.454.678.966-1.937.919-4.684.595-6.746-.448-2.853M148 531c-.901.582-1.025.975-.309.985.655.008 1.469-.435 1.809-.985.767-1.242.421-1.242-1.5 0m-12 3.5c0 .825.436 1.5.969 1.5.532 0 .709-.675.393-1.5-.317-.825-.753-1.5-.969-1.5-.216 0-.393.675-.393 1.5m7.74 1.04c-1.507 1.398-2.74 2.764-2.74 3.036 0 1.124 4.035-1.772 5.012-3.599 1.383-2.584 1.026-2.495-2.272.563m23.26 3.491c0 .533.675.969 1.5.969s1.5-.177 1.5-.393c0-.216-.675-.652-1.5-.969-.825-.316-1.5-.139-1.5.393m358.136.137c-.075.918-.427 2.493-.783 3.5-.5 1.414-.366 1.573.584.697.678-.624 1.031-2.199.784-3.5-.247-1.301-.51-1.614-.585-.697m-364.386 2.2c-1.512 1.3-2.75 2.629-2.75 2.952 0 .857 6.907-3.681 6.958-4.57.076-1.357-1.416-.784-4.208 1.618m-26.126 1.171c-.965 2.514-.681 3.163.498 1.136.584-1.004.851-2.036.593-2.293-.257-.258-.749.263-1.091 1.157m3.517 2.098c-1.201 2.68-1.175 2.757.404 1.211.928-.908 1.505-2.197 1.283-2.863-.222-.667-.981.077-1.687 1.652m15.965 1.248c-1.399 1.076-2.09 2.331-1.664 3.022.402.649.017 2.27-.856 3.602-.872 1.331-1.566 3.449-1.542 4.706.033 1.698.388 1.32 1.385-1.474.738-2.068 1.899-4.431 2.579-5.25.858-1.035.893-1.491.114-1.491a1.118 1.118 0 0 1-1.122-1.107c0-.609.698-.839 1.552-.511 1.014.389 1.304.193.836-.563-.474-.767-.17-.949.897-.54 1.133.435 1.448.188 1.057-.83-.67-1.746-.34-1.791-3.236.436m367.962 10.023c-.744 5.027-1.137 9.356-.873 9.621.665.664 3.179-15.908 2.653-17.486-.234-.701-1.035 2.838-1.78 7.865m-372.609-4.841c-.363.586-.445 1.281-.183 1.543s.743-.218 1.069-1.067c.676-1.762.1-2.072-.886-.476m-14.835 2.472c-.343.893-.595 2.15-.561 2.793.035.642.495.09 1.022-1.227.527-1.318.779-2.574.56-2.793-.219-.219-.679.333-1.021 1.227m1.501 3.086c-.66 1.448-.971 2.863-.69 3.143.28.28.984-.74 1.565-2.268 1.372-3.608.684-4.296-.875-.875M147.5 555c.34.55.816 1 1.059 1s.441-.45.441-1-.477-1-1.059-1-.781.45-.441 1m188.579.583c.048 1.165.285 1.402.604.605.289-.722.253-1.585-.079-1.917-.332-.332-.568.258-.525 1.312M519 556.5c0 1.375.173 2.5.383 2.5.211 0 .599-1.125.862-2.5s.09-2.5-.384-2.5c-.473 0-.861 1.125-.861 2.5M145.5 558c-.375 1.183-.458 2.376-.183 2.651.275.275.808-.468 1.183-1.651s.458-2.376.183-2.651c-.275-.275-.808.468-1.183 1.651m-3.744.825c-.313 1.198-.161 1.926.337 1.617.499-.308.983 1.379 1.075 3.749.158 4.042.192 4.09.548.775.494-4.608-1.075-9.525-1.96-6.141m5.922 1.572c-.994 2.589-.801 3.318.424 1.603.849-1.189.961-1.004.541.894-.39 1.756-.235 2.098.58 1.283.765-.765.803-1.804.122-3.329-.889-1.994-1.058-2.039-1.667-.451M517.5 561c.34.55.816 1 1.059 1s.441-.45.441-1-.477-1-1.059-1-.781.45-.441 1m-377.357 1.89c-.834.529-.971 1.098-.355 1.479.552.341 1.26-.053 1.576-.875.662-1.727.6-1.757-1.221-.604m199.052 1.61c.02 1.65.244 2.204.498 1.231.254-.973.237-2.323-.037-3-.274-.677-.481.119-.461 1.769M139.1 569.75c-.055 1.788.302 3.25.793 3.25 1.067 0 2.378-3.063 1.631-3.81-.288-.288-.569.114-.624.893-.055.779-.46.292-.9-1.083-.759-2.369-.806-2.329-.9.75m5.979-1.167c.048 1.165.285 1.402.604.605.289-.722.253-1.585-.079-1.917-.332-.332-.568.258-.525 1.312m375.116.917c.02 1.65.244 2.204.498 1.231.254-.973.237-2.323-.037-3-.274-.677-.481.119-.461 1.769m-386.116.083c.048 1.165.285 1.402.604.605.289-.722.253-1.585-.079-1.917-.332-.332-.568.258-.525 1.312M148.232 573c0 1.925.206 2.712.457 1.75.252-.962.252-2.538 0-3.5-.251-.962-.457-.175-.457 1.75m-13.162 1.691c.039.445.457 1.709.93 2.809.829 1.928.862 1.921.93-.191.038-1.205-.38-2.469-.93-2.809-.55-.34-.968-.254-.93.191m9.125 1.809c.02 1.65.244 2.204.498 1.231.254-.973.237-2.323-.037-3-.274-.677-.481.119-.461 1.769m375 0c.02 1.65.244 2.204.498 1.231.254-.973.237-2.323-.037-3-.274-.677-.481.119-.461 1.769m-381.116.083c.048 1.165.285 1.402.604.605.289-.722.253-1.585-.079-1.917-.332-.332-.568.258-.525 1.312m2.079.417c0 1.375.227 1.938.504 1.25.278-.687.278-1.812 0-2.5-.277-.687-.504-.125-.504 1.25m5.921.583c.048 1.165.285 1.402.604.605.289-.722.253-1.585-.079-1.917-.332-.332-.568.258-.525 1.312m372.116 4.917c.02 1.65.244 2.204.498 1.231.254-.973.237-2.323-.037-3-.274-.677-.481.119-.461 1.769m-368.116 3.083c.048 1.165.285 1.402.604.605.289-.722.253-1.585-.079-1.917-.332-.332-.568.258-.525 1.312m367 3c.048 1.165.285 1.402.604.605.289-.722.253-1.585-.079-1.917-.332-.332-.568.258-.525 1.312M151.04 590.75c-.022 1.237.41 2.25.96 2.25s1.036.788 1.079 1.75c.043.962.297 1.214.563.56.267-.655-.201-2.455-1.039-4-1.422-2.623-1.526-2.66-1.563-.56m364.627.917c-.367.366-.621 2.054-.565 3.75l.103 3.083.821-3.493c.855-3.64.766-4.466-.359-3.34M149 595c0 .55.45 1 1 1s1-.45 1-1-.45-1-1-1-1 .45-1 1m5.263 3.839c.106 1.408.498 1.8 1.149 1.149s.596-1.38-.161-2.137c-.866-.866-1.109-.622-.988.988m186.816-.256c.048 1.165.285 1.402.604.605.289-.722.253-1.585-.079-1.917-.332-.332-.568.258-.525 1.312m170.305.859c-.304.792-.377 2.255-.161 3.25.244 1.129.586.587.911-1.442.544-3.406.191-4.259-.75-1.808m2.695 2.141c.048 1.165.285 1.402.604.605.289-.722.253-1.585-.079-1.917-.332-.332-.568.258-.525 1.312M158 602.338c0 .97 6.095 6.901 6.586 6.409.211-.211-1.184-1.904-3.101-3.762-1.917-1.857-3.485-3.049-3.485-2.647M513.232 607c0 1.925.206 2.712.457 1.75.252-.962.252-2.538 0-3.5-.251-.962-.457-.175-.457 1.75m-344.238 4.493c1.369 1.649 8.478 3.86 10.33 3.213.647-.226-.711-.737-3.016-1.136-2.306-.4-4.724-1.366-5.373-2.148s-1.63-1.422-2.18-1.422c-.56 0-.455.657.239 1.493m343.085 1.09c.048 1.165.285 1.402.604.605.289-.722.253-1.585-.079-1.917-.332-.332-.568.258-.525 1.312m-345.015 1.378c-.844.521-.51.951 1.058 1.361 2.777.726 3.061.532 1.426-.973-.688-.633-1.806-.808-2.484-.388m17.936.789c0 .413 1.35.75 3 .75s3-.337 3-.75-1.35-.75-3-.75-3 .337-3 .75m-13 1.338c0 .502.975.912 2.167.912 1.191 0 1.853-.313 1.471-.696-1.081-1.08-3.638-1.232-3.638-.216M189.5 618c.34.55.816 1 1.059 1s.441-.45.441-1-.477-1-1.059-1-.781.45-.441 1m-20.687.683c.721.289 1.584.253 1.916-.079.332-.332-.258-.568-1.312-.525-1.165.048-1.402.285-.604.604m171.318.317c-.152 2.269 1.469 4.456 2.303 3.107.376-.609.24-1.107-.302-1.107s-1.191-.788-1.443-1.75c-.324-1.24-.486-1.313-.558-.25m171.579 1c-.287 1.1-.115 2 .384 2 .498 0 .906-.9.906-2s-.173-2-.383-2c-.211 0-.619.9-.907 2m-324.21 0c.34.55.816 1 1.059 1s.441-.45.441-1-.477-1-1.059-1-.781.45-.441 1m2.704 3.045c-.773 1.238-.839 1.955-.181 1.955.572 0 1.306-.694 1.632-1.543.9-2.346-.072-2.621-1.451-.412M348.71 624c-.287 1.1-.115 2 .384 2 .498 0 .906-.9.906-2s-.173-2-.383-2c-.211 0-.619.9-.907 2m160.928 2.5c-.316.825-.187 1.5.286 1.5.474 0 1.121-.675 1.438-1.5.316-.825.187-1.5-.286-1.5-.474 0-1.121.675-1.438 1.5M350 627c-1.207.78-1.049.972.809.985 1.288.008 2.036-.427 1.691-.985-.743-1.202-.639-1.202-2.5 0m159.433 2.954c-.513.506-2.958 1.095-5.433 1.308l-4.5.389 5.191.174c2.855.096 5.488-.305 5.85-.892.88-1.423.069-2.14-1.108-.979M273 630.786c0 .497.965 1.761 2.146 2.809 2.13 1.892 2.137 1.89.994-.289-1.275-2.431-3.14-3.928-3.14-2.52m5.079 7.797c.048 1.165.285 1.402.604.605.289-.722.253-1.585-.079-1.917-.332-.332-.568.258-.525 1.312m-132.346 3.541c.679.684 1.486.991 1.793.683.308-.308-.247-.867-1.233-1.243-1.425-.542-1.54-.428-.56.56M274 644.171c0 .644-.615 1.882-1.366 2.75-.751.869-1.639 2.929-1.973 4.579-.592 2.92-.577 2.933.541.5.632-1.375 2.007-3.962 3.055-5.75 1.068-1.822 1.431-3.25.825-3.25-.595 0-1.082.527-1.082 1.171m201 4.594c0 .473 1.338 1.848 2.972 3.056 1.635 1.209 2.741 1.631 2.458.938-.663-1.62-5.43-5.127-5.43-3.994M339 652.5c0 .825.177 1.5.393 1.5.216 0 .652-.675.969-1.5.316-.825.139-1.5-.393-1.5-.533 0-.969.675-.969 1.5m128.11.224-2.39.452 2.39 1.22c1.314.672 2.328 1.977 2.253 2.902-.075.924.262 1.434.75 1.132.488-.301.887-.071.887.511s.471 1.059 1.048 1.059c.576 0 2.151 1.191 3.5 2.646 1.348 1.455 2.452 2.22 2.452 1.699 0-.521-2.081-2.931-4.624-5.355-2.626-2.502-4.104-4.581-3.42-4.809.663-.221 2.519.858 4.124 2.396 1.606 1.538 2.92 2.463 2.92 2.054 0-.894-6.222-6.689-6.973-6.495-.29.075-1.603.34-2.917.588m-123.86.921c.962.276 1.753.806 1.756 1.178.003.372 1.915.741 4.25.819 4.924.164 2.62-1.019-3.756-1.928-2.2-.314-3.212-.345-2.25-.069m-45.07 1.638c-1.171 1.411-3.351 6.717-2.76 6.717.204 0 1.262-1.8 2.35-4 2.078-4.2 2.175-4.844.41-2.717m186.82.276c0 .857.457 1.276 1.016.931.559-.346.758-1.047.441-1.559-.857-1.387-1.457-1.129-1.457.628m-22.306 2.973c-1.543 1.357-2.367 2.468-1.832 2.468.536 0 1.652.26 2.48.578.924.354 1.959-.271 2.681-1.621.795-1.486.82-1.978.077-1.519-.605.374-1.1.241-1.1-.296 0-.536.563-1.202 1.25-1.48.688-.277.8-.525.25-.551-.55-.026-2.263 1.063-3.806 2.421m44.068-1.825c1.244.239 3.044.23 4-.02s-.062-.446-2.262-.435c-2.2.011-2.982.216-1.738.455m-9.012.955c.688.278 1.813.278 2.5 0 .688-.277.125-.504-1.25-.504s-1.937.227-1.25.504m-198.474 2.318c-.082 1.089.177 2.182.575 2.428.399.246.815-.645.926-1.98.11-1.335-.149-2.428-.575-2.428-.427 0-.844.891-.926 1.98M511 659c0 .55.45 1 1 1s1-.45 1-1-.45-1-1-1-1 .45-1 1m-48 1c0 .55.45 1 1 1s1-.45 1-1-.45-1-1-1-1 .45-1 1m15.035.059c-.019.857.626 2.432 1.433 3.5 1.88 2.486 1.902.713.032-2.559-.916-1.602-1.442-1.94-1.465-.941M506.5 661c.34.55.816 1 1.059 1s.441-.45.441-1-.477-1-1.059-1-.781.45-.441 1m4.04.935c-.362.586.058 1.065.932 1.065.875 0 1.85.675 2.166 1.5.775 2.02 2.362 1.908 2.362-.167 0-.916-.301-1.365-.669-.997-.368.367-1.448-.037-2.401-.899-1.148-1.039-1.953-1.208-2.39-.502m-52.067 1.109c-.325.526.471.956 1.768.956 1.297 0 2.848.489 3.446 1.087.783.783 1.304.713 1.86-.25.426-.735.405-1.003-.045-.596-.45.408-1.309.365-1.91-.094-1.996-1.528-4.52-2.072-5.119-1.103M466.5 663c.34.55.816 1 1.059 1s.441-.45.441-1-.477-1-1.059-1-.781.45-.441 1m-173.041 1.067c-.363.586-.445 1.281-.183 1.543s.743-.218 1.069-1.067c.676-1.762.1-2.072-.886-.476m16.805-.349c1.52.229 3.77.223 5-.014 1.23-.237-.014-.425-2.764-.418-2.75.008-3.756.202-2.236.432m141.052-.144c.449.491 2.699 1.439 5 2.107 3.712 1.078 3.965 1.052 2.243-.233-1.068-.796-2.493-1.448-3.168-1.448-.675 0-2.052-.297-3.059-.659-1.052-.379-1.484-.28-1.016.233m50.684-.196c0 .207.788.995 1.75 1.75 1.586 1.243 1.621 1.208.378-.378-1.307-1.666-2.128-2.195-2.128-1.372M303 665c-1.828 1.181-.249 1.181 2.5 0 1.319-.567 1.489-.878.5-.914-.825-.031-2.175.381-3 .914m20.459.067c-.363.586-.445 1.281-.183 1.543s.743-.218 1.069-1.067c.676-1.762.1-2.072-.886-.476m8.178 1.971c-.963 1.629-2.175 2.962-2.694 2.962-.518 0-.925.563-.902 1.25.022.688 1.303-.225 2.846-2.028 2.069-2.417 3.305-3.097 4.709-2.59 1.987.717 1.917.569-.653-1.377-1.284-.973-1.863-.661-3.306 1.783m113.183-1.649c-1.15.842-1.39 1.678-.763 2.669.762 1.205.915 1.168.928-.225.008-.916.578-1.867 1.265-2.113.688-.245 1.024-.696.748-1.001-.275-.306-1.256-.004-2.178.67m25.465.923c1.133 1.729 1.339 2.802.623 3.245-.589.364-.8 1.737-.47 3.052.339 1.35.156 2.391-.419 2.391-.56 0-1.019.546-1.019 1.214 0 3.022 2.852-2.069 3.259-5.816.362-3.344.065-4.339-1.611-5.386-2.015-1.258-2.022-1.232-.363 1.3m-22.682.521c-.283.459.12.834.897.834s1.18-.375.897-.834c-.283-.458-.687-.833-.897-.833-.21 0-.614.375-.897.833m19.158-.256c-.321.52.051 1.814.828 2.875 1.515 2.072 1.74 1.246.513-1.886-.416-1.063-1.02-1.508-1.341-.989M502 667c0 .55.477 1 1.059 1s.781-.45.441-1-.816-1-1.059-1-.441.45-.441 1m4.721.715c.412 1.074.228 1.372-.551.89-1.945-1.202-1.312.829.83 2.663 1.283 1.099 2.042 3.059 2.118 5.472.116 3.684.133 3.7.813.76.492-2.124.178-3.757-1.075-5.593-1.207-1.77-1.444-2.919-.745-3.618.698-.698.542-1.208-.493-1.605-1.087-.417-1.341-.126-.897 1.031m9.716-.613c-.497.805-.324.946.52.424.734-.453 1.672-.203 2.231.596.806 1.151.9 1.142.576-.059-.519-1.92-2.399-2.463-3.327-.961M310 668c-.901.582-1.025.975-.309.985.655.008 1.469-.435 1.809-.985.767-1.242.421-1.242-1.5 0m114.813-.317c.721.289 1.584.253 1.916-.079.332-.332-.258-.568-1.312-.525-1.165.048-1.402.285-.604.604m16.097 1.149c1.272 2.376 4.09 4.717 4.09 3.397 0-.558-.675-1.274-1.5-1.591-.825-.316-1.5-1.264-1.5-2.107 0-.842-.466-1.531-1.035-1.531-.694 0-.712.604-.055 1.832m21.949-.686c.668.906 2.057 3.38 3.087 5.498 1.555 3.197 1.846 3.427 1.714 1.353-.088-1.373-1.477-3.847-3.087-5.497-1.611-1.65-2.382-2.259-1.714-1.354m17.336 1.354c.02 1.65.244 2.204.498 1.231.254-.973.237-2.323-.037-3-.274-.677-.481.119-.461 1.769m5.273.843c.412 3.628 5.135 11.387 6.252 10.27.285-.285-.098-1.199-.851-2.031-3.319-3.667-3.942-4.731-4.862-8.299l-.976-3.783.437 3.843M304 669c-1.293.835-1.266.971.191.985.93.008 1.969-.435 2.309-.985.782-1.266-.542-1.266-2.5 0m10.429.945c0 1.462.316 1.682 1.274.886.701-.582 1.028-1.457.727-1.944-.944-1.528-2.001-.97-2.001 1.058m97.384-1.262c.721.289 1.584.253 1.916-.079.332-.332-.258-.568-1.312-.525-1.165.048-1.402.285-.604.604M318 669.786c0 .668.388 1.214.861 1.214.474 0 .689 1.237.479 2.75-.382 2.744-.38 2.745.673.32.823-1.894.717-2.768-.479-3.964-1.027-1.028-1.534-1.134-1.534-.32m14.494 1.22c-.998 1.104-1.518 2.304-1.155 2.667.364.363.661.135.661-.506 0-.642.498-1.167 1.107-1.167.616 0 .827.729.477 1.641-.471 1.228-.309 1.388.643.635.7-.554 2.623-1.519 4.273-2.143 2.905-1.1 2.875-1.118-.94-.554-3.509.519-3.796.41-2.627-.998 1.926-2.32-.306-1.931-2.439.425m122.347.994c2.278 1.65 4.426 3 4.773 3 1.254 0-2.032-3.165-4.742-4.566-4.47-2.312-4.483-1.659-.031 1.566M307 671c0 .55.45 1 1 1s1-.45 1-1-.45-1-1-1-1 .45-1 1m140.5 0c.34.55.816 1 1.059 1s.441-.45.441-1-.477-1-1.059-1-.781.45-.441 1m26.65 1.628c-.096 1.995-.965 3.697-2.4 4.698-1.238.863-1.757 1.593-1.155 1.622 2.172.104 4.562-3.722 4.13-6.61l-.425-2.838-.15 3.128M520.031 671c0 .825.436 2.175.969 3 .862 1.333.969 1.333.969 0 0-.825-.436-2.175-.969-3-.862-1.333-.969-1.333-.969 0m-69.531 1c-.34.55-.141 1 .441 1s1.059-.45 1.059-1-.198-1-.441-1-.719.45-1.059 1m62.231 2.08c.354 1.352.807 1.806 1.057 1.057.24-.722-.038-1.787-.62-2.369-.742-.742-.872-.351-.437 1.312m-197.344.083c.311 1.585 2.613 2.345 2.613.861 0-.628-.412-.888-.915-.577-.503.311-1.144.101-1.425-.466-.28-.567-.403-.485-.273.182m11.646 1.298c-.667.803-1.338 3.166-1.491 5.25-.154 2.088-.079 2.472.167.855.328-2.161.674-2.564 1.314-1.529.477.773 1.182 1.091 1.565.708s.087-1.431-.658-2.329c-1.16-1.398-1.081-1.832.549-3.024 1.047-.766 1.422-1.392.835-1.392-.588 0-1.615.657-2.281 1.461m118.7-.337c.679.684 1.486.991 1.793.683.308-.308-.247-.867-1.233-1.243-1.425-.542-1.54-.428-.56.56m4.866.274c.297.773 1.408 1.632 2.47 1.91 2.568.671 2.434.252-.539-1.696-1.934-1.267-2.353-1.314-1.931-.214m-144.786.285c.721.289 1.584.253 1.916-.079.332-.332-.258-.568-1.312-.525-1.165.048-1.402.285-.604.604m155.273-.183c.104 1.894 1.77 5.084 1.828 3.5.031-.825-.381-2.175-.914-3-.533-.825-.945-1.05-.914-.5m-131.576 1.516c.346.559 1.047.758 1.559.441 1.387-.857 1.129-1.457-.628-1.457-.857 0-1.276.457-.931 1.016m173.222.899c-.299 1.147-.163 2.085.303 2.085 1.362 0 1.898-1.49 1.038-2.882-.58-.939-.943-.722-1.341.797M336.658 680c-1.471 1.65-2.332 2.993-1.916 2.985 1.072-.022 2.462-1.136 4.663-3.735 2.875-3.396.327-2.7-2.747.75m176.656-.68c.309 1.998-.111 3.161-1.439 3.99-2.477 1.547-2.426 3.055.057 1.726 2.512-1.344 3.485-4.529 2.068-6.766-.953-1.504-1.056-1.346-.686 1.05m6.25-.613c-.542 1.425-.428 1.54.56.56.684-.679.991-1.486.683-1.793-.308-.308-.867.247-1.243 1.233m-70.481-.342c.23.2 1.542.949 2.917 1.663 2.287 1.189 2.383 1.158 1.128-.364-.755-.915-2.068-1.664-2.917-1.664-.849 0-1.357.164-1.128.365M467 679c0 .55.477 1 1.059 1s.781-.45.441-1-.816-1-1.059-1-.441.45-.441 1m-154.187.683c.721.289 1.584.253 1.916-.079.332-.332-.258-.568-1.312-.525-1.165.048-1.402.285-.604.604m4.424 1.557c.694 1.482 1.428 2.215 1.629 1.629.201-.586-.367-1.799-1.263-2.695-1.506-1.506-1.534-1.425-.366 1.066m23.347.401c-.527 1.373-.38 1.435.893.378 1.735-1.44 1.916-2.019.63-2.019-.491 0-1.176.739-1.523 1.641M455 681c0 .55.45 1 1 1s1-.45 1-1-.45-1-1-1-1 .45-1 1m4 0c-.901.582-1.025.975-.309.985.655.008 1.469-.435 1.809-.985.767-1.242.421-1.242-1.5 0m-131.921 2.583c.048 1.165.285 1.402.604.605.289-.722.253-1.585-.079-1.917-.332-.332-.568.258-.525 1.312m40 2c.048 1.165.285 1.402.604.605.289-.722.253-1.585-.079-1.917-.332-.332-.568.258-.525 1.312M333.158 687c0 1.375.227 1.938.504 1.25.278-.687.278-1.812 0-2.5-.277-.687-.504-.125-.504 1.25m173.352-.984c.346.559 1.047.758 1.559.441 1.387-.857 1.129-1.457-.628-1.457-.857 0-1.276.457-.931 1.016m-161.812 6.093c-1.021.594-3.625.769-6 .404l-4.198-.644 2.944 1.607c2.95 1.61 7.661.782 9.136-1.606.682-1.103.354-1.062-1.882.239m15.302 3.95c0 .582.45.781 1 .441s1-.816 1-1.059-.45-.441-1-.441-1 .477-1 1.059" fill-rule="evenodd"/>
<path fill="#302825" stroke="#302825" d="M551.674 58.124c-29.485 2.331-61.91 20.774-78.898 44.876-6.059 8.597-10.776 17.31-10.776 19.905 0 2.474.763 2.432-10.5.581-10.48-1.722-27.239-1.919-36.426-.428-7.337 1.19-6.305 1.85-15.744-10.058-8.366-10.555-27.656-27-31.671-27-.541 0-3.048-1.302-5.571-2.893-5.612-3.539-17.755-7.757-27.949-9.707-7.263-1.39-34.178-2.036-38.639-.928-1.1.274-4.925 1.207-8.5 2.074-9.644 2.339-19.266 5.966-30.75 11.588-11.771 5.764-15.896 9.357-16.824 14.655-1.049 5.984-3.117 8.523-6.407 7.865-6.087-1.218-13.671 14.08-22.98 46.352-3.406 11.808-3.648 16.386-1.59 29.994 4.108 27.163 12.665 46.191 26.56 59.064 14.993 13.889 19.765 16.293 31.343 15.79l8.148-.354.219 6c.447 12.275 4.491 37.526 6.986 43.62 1.465 3.58 1.429 3.713-3.183 11.842-4.086 7.201-11.522 26.843-11.522 30.435 0 .705-1.012 1.797-2.25 2.427-1.238.63-3.255 1.877-4.483 2.772-5.405 3.935-19.72-18.551-22.667-35.605-2.062-11.932-.12-26.219 5.017-36.92 7.129-14.849 5.712-17.698-8.352-16.787-9.131.591-28.842-.724-33.395-2.227-1.816-.6-3.053-.469-4 .423-.753.711-8.795 4.576-17.87 8.589-16.991 7.514-22.583 11.11-36.5 23.474-24.365 21.647-37.333 38.516-55.702 72.457-6.871 12.697-17.054 38.788-28.437 72.862-7.575 22.674-8.982 28.683-3.84 16.4 18.433-44.033 47.04-82.494 59.348-79.791 3.552.78 4.099 2.467 4.117 12.697.019 10.324 1.863 14.613 3.476 8.082 2.851-11.54 15.255-21.25 27.147-21.25 8.74 0 14.521 9.862 13.652 23.291l-.467 7.209 2.998-4.619c4.816-7.421 9.06-10.066 17.069-10.639 12.563-.899 21.444 6.863 34.047 29.758 1.06 1.925 3.746 5.92 5.97 8.877 3.825 5.088 3.967 5.522 2.642 8.085-.771 1.49-2.564 7.395-3.985 13.123-1.421 5.728-3.001 11.99-3.511 13.915-2.712 10.231-5.427 34.937-7.073 64.35-1.193 21.329-2.34 25.738-8.968 34.453-5.628 7.401-8.881 17.709-9.767 30.949-.673 10.051-.866 10.774-3.216 12.01-7.923 4.171-24.486-4.851-30.376-16.545-12.054-23.933-.227-52.262 20.663-49.492 4.4.584 9.705 5.274 9.728 8.602.016 2.2 1.593 5.51 2.213 4.644 4.409-6.161 5.49-29.676 1.727-37.526-6.481-13.517-19.597-15.967-40.439-7.553-8.958 3.616-21.519 19.932-26.904 34.946-21.391 59.636 23.085 118.612 71.416 94.698l5.527-2.735 9.137 6.85c12.842 9.628 36.452 21.205 53.899 26.43 1.731.518 3.582 2.002 4.207 3.374 1.368 3.004 5.013 4.944 12.106 6.446 3.775.799 6.595 2.221 9.36 4.719 7.572 6.841 16.731 8.464 24.732 4.382 4.223-2.154 9.004-1.53 9.004 1.175 0 .462 1.8 1.559 4 2.44 2.2.88 4 1.957 4 2.394 0 2.913 10.15 3.624 14.985 1.05l3.485-1.855 3.3 2.897c5.809 5.101 11.459 3.759 16.297-3.87 2.813-4.436 2.933-5.102 2.933-16.324V667.21l6.038 1.879c13.593 4.231 39.136 4.979 50.462 1.478 6.094-1.883 8.5-1.969 8.5-.304 0 .695 1.607 3.65 3.571 6.566 5.506 8.177 17.453 12.117 21.886 7.218 1.223-1.351 2.579-1.792 4.405-1.432 1.784.352 4.494-.474 8.369-2.547 6.973-3.732 6.969-3.732 8.569-.318 2.138 4.562 6.659 7.364 13.48 8.354 3.421.497 7.57 1.161 9.22 1.476 2.222.424 3.983-.096 6.794-2.004 2.087-1.417 4.185-2.576 4.662-2.576.476 0 2.085-1.448 3.574-3.218 4.277-5.083 3.206-12.698-2.934-20.866-4.922-6.547-5.457-7.916-3.096-7.916 4.106 0 5.5-3.569 5.5-14.077 0-9.942-.042-10.118-3.11-13.187l-3.109-3.109 2.046-13.564c1.126-7.46 3.618-22.788 5.538-34.063 1.921-11.275 3.708-22.075 3.971-24 .263-1.925 2.061-13.175 3.994-25 1.933-11.825 3.828-24.1 4.211-27.278.52-4.318 1.205-6.051 2.708-6.855 1.107-.593 6.791-4.879 12.632-9.527 16.949-13.485 26.008-16.85 35.65-13.243 8 2.994 14.469 12.286 14.469 20.785 0 3.094 1.81-.493 2.913-5.776 1.391-6.653 6.752-14.245 11.729-16.606 12.138-5.76 27.289 10.237 27.346 28.872.015 4.721 2.532 3.517 3.603-1.722 1.3-6.365 6.697-15.125 9.519-15.453 12.597-1.462 28.093 49.27 30.026 98.303.522 13.22 1.619-12.356 1.738-40.5.308-73.068-9.209-112.926-37.552-157.26-2.377-3.718-4.322-7.044-4.322-7.391 0-.346-2.362-2.847-5.25-5.556-2.888-2.71-9.75-9.308-15.25-14.662-9.925-9.662-10.052-9.745-17-11.061-8.816-1.669-20.892-5.413-27.733-8.598-11.468-5.34-12.838-3.856-12.586 13.638.224 15.592-1.93 26.213-7.18 35.388-1.731 3.026-3.227 5.501-3.324 5.499-.098-.002-.254-4.434-.348-9.85-.193-11.106-1.141-15.44-5.376-24.591-4.064-8.78-3.853-9.983 3.207-18.288 7.355-8.653 12.84-25.998 12.84-40.608 0-8.267-2.272-22.351-4.194-25.996-1.508-2.859-.408-3.007 5.869-.791 13.639 4.814 24.743 6.225 31.426 3.991 10.35-3.459 15.613-16.587 11.37-28.364-.792-2.2-1.448-4.28-1.456-4.622-.008-.341 3.495-.824 7.786-1.073 15.139-.876 25.393-8.808 37.796-29.236 7.625-12.56 12.403-32.583 12.403-51.977 0-16.285-7.578-36.932-21.163-57.661-7.665-11.694-10.281-14.126-14.375-13.358-3.544.665-4.358-.042-4.692-4.079-.393-4.748-8.548-9.916-25.111-15.911-16.623-6.017-32.548-7.996-51.985-6.459m-136.363 66.789c-6.708.816-6.863 1.05-4.395 6.631 2.646 5.981 2.855 20.405.438 30.25-1.99 8.106-2.764 9.206-6.476 9.206-2.718 0-2.879.237-2.888 4.25-.027 11.793-8.775 20.75-20.266 20.75-2.083 0-5.456.697-7.495 1.549-2.038.851-4.705 1.297-5.927.991-1.551-.39-2.532.022-3.249 1.362-2 3.736-7.678 6.317-13.075 5.943l-4.979-.345v7.809c.001 8.635-1.424 9.909-1.786 1.597-.885-20.358-12.857-21.529-19.881-1.944-1.633 4.551-1.192 4.744 2.469 1.083 6.739-6.739 12.458-3.523 13.703 7.705.756 6.826-.87 9.013-1.761 2.368-1.538-11.463-6.066-12.454-14.852-3.25-6.48 6.789-9.023 12.994-11.36 27.719-.778 4.902-1.719 10.038-2.091 11.413-.575 2.124-.17 1.902 2.692-1.47 1.852-2.184 4.216-4.659 5.252-5.5 2.641-2.145 6.806-6.31 8.809-8.808 1.932-2.409 5.807-14.267 5.807-17.768 0-1.285.45-2.614 1-2.954 1.466-.906 1.23 9.049-.356 15-2.087 7.833-4.082 10.85-11.586 17.519-8.355 7.425-14.846 19.062-20.07 35.981-5.452 17.66-8.822 23-14.51 23-8.299 0-19.439 31.659-19.569 55.614-.053 9.944.67 12.418 6.574 22.492 4.054 6.917 3.775 9.127-.508 4.019-4.337-5.174-8.967-14.522-9.045-18.265-.212-10.138-3.911-6.386-13.677 13.871-2.59 5.373-5.036 10.008-5.436 10.3-.4.293-1.82 2.993-3.156 6-5.736 12.916-14.016 31.7-15.194 34.469-7.069 16.619-14.458 65.101-14.477 95-.01 14.603-2.36 22.562-9.715 32.898-5.767 8.106-7.44 14.305-7.992 29.602-.517 14.361 1.442 23.007 7.433 32.795 5.08 8.299 31.183 23.132 58.585 33.29l4.8 1.779.95-2.497c.522-1.373.949-3.126.949-3.895 0-2.946 4.302-12.697 8.134-18.435l4.002-5.992-2.454-3.273c-1.349-1.799-3.709-5.972-5.245-9.272-6.386-13.72-14.491-23.592-23.551-28.684-2.137-1.202-3.886-2.578-3.886-3.059 0-.481.513-.558 1.14-.171.626.388 4.759.856 9.183 1.04 4.424.184 11.549 1.244 15.834 2.355 4.284 1.11 8.702 2.019 9.817 2.019 1.114 0 2.026.45 2.026 1 0 1.51-4.008 1.213-13.5-1-4.718-1.1-9.946-2-11.619-2h-3.042l5.742 5.248c6.502 5.942 14.563 8.632 26.11 8.71 3.405.023 6.469.492 6.809 1.042.951 1.538-14.429 1.227-19.841-.402-5.255-1.582-5.298-1.55-2.962 2.187a1411 1411 0 0 1 1.879 3.01c.435.709 17.386 4.362 21.924 4.725 6.541.524 6.582.548 2.549 1.497-3.847.906-11.397-.105-17.709-2.371-5.46-1.96-5.632-1.568-2.263 5.158 3.971 7.931 5.175 9.196 8.749 9.196 2.015 0 4.127.965 6.016 2.75 1.602 1.513 4.545 4.009 6.542 5.548 2.861 2.206 3.508 3.286 3.052 5.1-.766 3.054 3.302 4.784 10.66 4.532 7.586-.259 12.181.845 15.21 3.653 3.285 3.046 3.279 3.046 4.596-.732 1.912-5.485 1.342-8.13-2.341-10.851-5.949-4.396-6.594-9.711-2.338-19.25 2.433-5.454 3.288-5.858 4.235-2 .639 2.606 8.102 11.25 9.713 11.25.415 0-1.238-2.05-3.673-4.556-4.947-5.089-6.431-9.777-4.542-14.339 2.658-6.416.127-47.158-4.449-71.605-1.338-7.15-2.719-14.659-3.069-16.686-.766-4.439-6.243-11.132-11.29-13.798-2.465-1.303-3.038-1.942-1.766-1.972 1.959-.046 8.603 3.592 9.814 5.374 1.753 2.581 1.77-.699.023-4.585-2.406-5.352-7.985-10.973-13.246-13.345-2.185-.986-3.973-2.2-3.973-2.699 0-.499.337-.731.75-.516.413.215 2.55 1.196 4.75 2.18 2.2.985 5.238 2.944 6.75 4.356 1.512 1.411 2.75 2.341 2.75 2.066 0-.914-4.232-9.338-5.966-11.875-2.717-3.976-3.54-7.098-1.054-4 8.655 10.787 13.094 21.601 15.467 37.677.878 5.953 2.237 13.973 3.019 17.823 2.75 13.541 4.559 30.205 5.482 50.5 1.446 31.805.41 27.929 8.552 32 6.533 3.267 7.637 3.5 16.544 3.5 14.107 0 14.591-.583 22.002-26.5 2.321-8.114 2.145-7.68 10.46-25.864 6.336-13.858 9.572-19.469 17.093-29.636 11.567-15.637 16.821-17.582 36.168-13.392 27.527 5.962 33.456 17.418 35.62 68.828l1.113 26.436 5 1.295c5.533 1.433 18.293 1.751 20.254.506.757-.481 2.04-6.917 3.235-16.235 1.089-8.491 2.641-18.181 3.448-21.533.807-3.352 3.737-20.002 6.51-37 2.773-16.998 5.295-32.255 5.605-33.905 4.101-21.88 4.741-27.464 5.182-45.262l.479-19.262-5.002 2.512c-2.956 1.485-6.578 2.475-8.856 2.423l-3.855-.09 4.5-1.267c11.155-3.14 12.996-4.519 12.282-9.203l-.479-3.15-5.366 2.457c-2.952 1.351-7.07 2.684-9.152 2.962-3.271.436-2.902.136 2.715-2.212 3.575-1.495 6.65-3.098 6.833-3.563.184-.465 1.004-.845 1.822-.845 1.896 0 1.067-8.468-1.749-17.855-3.025-10.087-2.61-15.45 1.594-20.58 1.925-2.349 3.5-4.585 3.5-4.969 0-1.098-6.656-3.596-9.584-3.596-1.456 0-4.794-.762-7.417-1.694-4.332-1.539-5.672-1.565-14.634-.288-22.255 3.171-52.056-1.352-62.792-9.53-2.482-1.89-1.411-3.007 1.428-1.488 14.231 7.617 41.479 10.857 64.199 7.634 13.949-1.978 16.33-6.168 8.214-14.453-2.523-2.574-5.734-6.925-7.137-9.667-1.402-2.742-3.613-6.671-4.913-8.73-3.037-4.81-2.984-5.628.698-10.711 4.411-6.09 9.024-7.835 15.072-5.705 2.549.898 6.501 1.632 8.782 1.632 6.404 0 10.661 2.25 13.025 6.885 2.855 5.595 2.623 12.115-.431 12.115-1.869 0-2.535 3.734-.907 5.086 1.911 1.586 1.754 4.301-.353 6.091-2.053 1.745-8.553 4.823-10.184 4.823-2.994 0-10.976 10.718-9.619 12.915.254.41 3.003 1.315 6.109 2.01 3.106.695 7.514 2.112 9.796 3.148 6.051 2.747 6.732 2.535 13.896-4.323 6.238-5.971 6.585-6.554 7.764-13.056 1.824-10.049-.491-27.043-4.045-29.694-.368-.275-1.638-3.108-2.821-6.295-2.526-6.804-2.297-7.514 5.561-17.267 12.719-15.785 15.918-39.364 8.47-62.438-1.686-5.225-4.233-16.475-5.66-25-2.805-16.767-4.516-23.307-10.724-41-5.32-15.163-5.803-15.831-8.651-11.978-2.545 3.442-5.526 3.813-9.999 1.245-2.943-1.689-3.081-1.673-5.504.603-3.518 3.304-18.754 2.903-23.516-.62-1.673-1.238-3.89-2.25-4.928-2.25-2.072 0-5.195-2.943-5.195-4.896 0-.783-.735-1.006-1.996-.605-3.198 1.015-9.761-3.402-14.578-9.81-4.892-6.507-6.263-10.465-6.658-19.223-.184-4.092-.823-6.513-2.041-7.734-1.346-1.35-1.53-2.232-.763-3.665.725-1.354.608-2.663-.412-4.629-.933-1.799-1.232-4.345-.869-7.406l.552-4.665-9.425-1.684c-9.408-1.68-26.119-2.033-36.499-.77m154.083 18.819c-4.2.298-5.34.798-6.419 2.815-.722 1.349-1.718 2.453-2.214 2.453-5.47 0-21.091 18.092-19.408 22.478.292.761 3.987 3.715 8.211 6.565 4.225 2.851 8.638 5.989 9.809 6.974 1.17.985 6.402 5.372 11.627 9.748 5.225 4.376 10.357 8.919 11.405 10.096 2.846 3.195 3.284 2.751 4.552-4.611 2.018-11.72 4.905-18.745 10.165-24.737 5.332-6.072 7.256-4.399 8.172 7.103 1.057 13.266 8.044 23.326 11.553 16.634 4.218-8.043 3.317-23.064-2.02-33.683-9.727-19.351-18.823-23.723-45.433-21.835M288.5 159.936c-23.9 5.826-35.757 32-25.401 56.072 4.034 9.377 7.733 4.394 8.806-11.862.725-10.986 1.293-13.146 3.457-13.146 2.003 0 9.522 8.011 13.37 14.245 1.954 3.165 3.826 5.747 4.16 5.738.334-.01 5.021-4.236 10.415-9.392 9.981-9.539 18.289-14.915 25.302-16.372 8.826-1.834 6.019-9.644-6.368-17.719-13.63-8.885-12.641-8.509-22.06-8.398-4.775.057-10.031.432-11.681.834M540 177.525c0 .838 1.071 1.932 2.379 2.429 3.006 1.143 18.554 12.929 25.024 18.969 2.697 2.517 8.039 7.635 11.872 11.372s7.18 6.583 7.438 6.325c1.72-1.719-6.608-11.524-16.665-19.62a572.83 572.83 0 0 1-7.448-6.105c-5.26-4.42-20.402-14.895-21.531-14.895-.588 0-1.069.686-1.069 1.525m-5.805 4.975c.02 1.65.244 2.204.498 1.231.254-.973.237-2.323-.037-3-.274-.677-.481.119-.461 1.769m7.902 3.459c1.224 2.178 2.535 3.769 2.913 3.535.378-.234 1.655.477 2.839 1.58 1.183 1.102 2.151 1.729 2.151 1.394 0-.336.618-.016 1.374.711.755.726 3.531 3.121 6.168 5.321 8.062 6.726 18.739 17.883 23.063 24.099 4.738 6.811 8.788 14.41 7.665 14.381-.657-.016-9.407-13-12.894-19.13-.618-1.087-1.416-1.835-1.775-1.663-.358.172-3.902-2.86-7.876-6.738-3.974-3.878-9.25-8.735-11.725-10.793-2.475-2.058-5.499-4.711-6.72-5.896-1.221-1.184-2.445-1.929-2.719-1.654-.702.702 5.768 19.713 6.714 19.73.426.008 1.101.199 1.5.425.399.226.108.253-.646.06-.902-.231-1.192.252-.849 1.414 4.449 15.084 5.821 20.829 7.704 32.265 2.772 16.825 4.201 18.473 19.612 22.617 20.108 5.406 32.909-.806 32.9-15.965-.003-5.913-4.073-15.941-6.281-15.479-.393.083-2.015-.385-3.604-1.039-3.822-1.574-4.036-1.152-2.183 4.306 4.262 12.552-.956 20.045-14.653 21.042-5.101.371-5.538.299-2.337-.386 4.058-.868 7.55-4.074 7.577-6.957.009-.901.458-2.314.999-3.139.692-1.056.795-.465.347 2-.349 1.925-1.361 4.347-2.248 5.383-1.53 1.786-1.485 1.843.887 1.106 16.079-4.998 10.502-23.145-14.923-48.563-6.367-6.366-14.277-13.592-17.577-16.059-3.3-2.466-8.172-6.145-10.827-8.176-6.185-4.73-7.347-4.662-4.576.268M324.5 189.244c-7.023 2.542-19.314 12.583-26.856 21.939-3.576 4.437-3.719 4.884-2.715 8.5 3.956 14.247-3.514 32.488-14.936 36.469-3.503 1.222-3.89 5.884-1.938 23.384 4.285 38.435 13.192 44.776 21.334 15.188.79-2.873 2.576-9.049 3.967-13.724 2.663-8.946 4.778-18.224 7.182-31.5 1.466-8.094 1.868-9.512 7.489-26.429 5.72-17.214 13.542-30.427 19.113-32.284.668-.223.883-.941.478-1.596-.905-1.465-9.016-1.432-13.118.053m17.233 1.88c.679.684 1.486.991 1.793.683.308-.308-.247-.867-1.233-1.243-1.425-.542-1.54-.428-.56.56m-5.464 3.569c.973.254 2.323.237 3-.037.677-.274-.119-.481-1.769-.461-1.65.02-2.204.244-1.231.498m6.731.748c0 .281.898 1.984 1.996 3.785l1.997 3.274.003-2.715c.003-1.694-.748-3.117-1.996-3.785-1.1-.589-2-.84-2-.559m213.824 20.309c1.078 1.512 2.999 3.65 4.268 4.75 1.27 1.1.589-.137-1.512-2.75-4.145-5.153-5.924-6.444-2.756-2M591 218.694c0 1.839 5.418 9.468 8.061 11.35 4.808 3.423 4.543 1.619-.718-4.887-4.442-5.493-7.343-8.047-7.343-6.463m-25.956 6.434c-.093 1.322 3.099 8.063 3.587 7.574.282-.282-.399-2.243-1.515-4.358-1.115-2.114-2.047-3.561-2.072-3.216M589.683 243c.328 2.475.758 4.688.956 4.917.752.868.181-5.507-.665-7.417-.591-1.335-.688-.505-.291 2.5m-24.224 12.067c-1.026 1.66-.105 1.89 1.33.332.71-.769.849-1.399.309-1.399-.539 0-1.277.48-1.639 1.067M438 280.505c0 .175 2.47 2.848 5.489 5.94 3.02 3.093 5.768 6.733 6.109 8.089.34 1.356.999 2.466 1.463 2.466 2.194 0-2.191-9.675-5.754-12.694-3.215-2.724-7.307-4.853-7.307-3.801M546.5 282c-1.65 1.093-2.576 1.99-2.059 1.993.518.004.202.57-.701 1.257-2.478 1.886-4.517 17.93-2.708 21.31 3.02 5.642 12.824 8.441 16.543 4.722 2.579-2.579 5.394-9.39 5.283-12.782-.086-2.639-.221-2.489-1.12 1.25-1.535 6.383-2.237 5.174-2.427-4.185-.094-4.64-.669-9.365-1.276-10.5-.787-1.469-.793-2.065-.022-2.065.596 0 1.759 1.462 2.585 3.25l1.501 3.25-.629-2.99c-1.09-5.182-3.757-5.712-10.801-2.146-5.483 2.776-5.707 2.584-1.635-1.398 3.45-3.372 1.958-3.941-2.534-.966m-137.75.658c-4.036 1.674-5.308 4.083-1.5 2.841 4.037-1.317 17.476-1.754 19.407-.631 1.442.838.349 1.078-5.022 1.102-5.656.025-8.122.619-14 3.373-11.399 5.341-11.562 6.071-3.274 14.615 9.697 9.996 20.782 10.642 36.458 2.123 8.743-4.751 9.125-5.862 4.044-11.768-9.507-11.052-25.288-16.144-36.113-11.655m6 6.422c-3.4 1.981-1.389 8.92 2.585 8.92 4.571 0 6.332-5.182 2.836-8.345-2.099-1.9-2.985-1.994-5.421-.575m130.917.587c-1.189 1.188-.706 5.056.785 6.293 3.5 2.905 7.462-1.949 4.502-5.515-1.249-1.505-4.136-1.93-5.287-.778m-107.848 8.083c.509 8.31.291 8.105 5.17 4.876 3.847-2.546 3.962-2.771 2.537-4.947-1.285-1.96-6.783-6.679-7.783-6.679-.186 0-.152 3.038.076 6.75M397 299.791c0 10.59 18.591 21.55 30.922 18.23 5.765-1.552 4.442-2.404-3.3-2.123-9.714.352-17.262-3.617-24.229-12.742-1.866-2.444-3.393-3.958-3.393-3.365M542.148 312c1.833 2.944 7.472 7 9.732 7 .871 0-.208-1.189-2.398-2.642-2.19-1.454-5.086-3.591-6.436-4.75l-2.455-2.108 1.557 2.5m-221.13 64.326c-.103 4.665 20.842 23.072 33.496 29.439 8.125 4.088 24.071 9.957 28.986 10.668 3.357.486 2.955.194-2.5-1.818-27.328-10.082-46.031-21.751-57.232-35.711-1.502-1.872-2.74-3.032-2.75-2.578m-35.883 8.424c3.956 6.454 19.576 22.488 29.865 30.658 7.948 6.31 6.561 3.839-2.603-4.638-11.24-10.398-19.491-18.943-24.159-25.02-4.346-5.658-6.354-6.305-3.103-1M309 393.378c0 .207.788.995 1.75 1.75 1.586 1.243 1.621 1.208.378-.378-1.307-1.666-2.128-2.195-2.128-1.372m9.054 9.187c8.746 9.047 29.047 23.335 41.789 29.41 8.937 4.262 10.03 3.717 1.657-.825-7.593-4.119-20.694-12.068-21.5-13.044-.275-.333-2.75-2.162-5.5-4.064-2.75-1.901-8.049-6.064-11.776-9.25-7.631-6.524-9.844-7.579-4.67-2.227m-46.445-1.315c3.129 5.382 15.905 17.75 18.334 17.75.418 0-3.508-4.275-8.725-9.5-9.183-9.199-11.135-10.874-9.609-8.25m-1.793 9.363c1.352 2.579 6.894 7.525 12.51 11.164 2.296 1.487 4.399 2.979 4.674 3.314.275.335 1.551 1.163 2.836 1.84 4.78 2.519 2.815.346-4.726-5.225-4.275-3.159-8.655-6.523-9.732-7.475a360.935 360.935 0 0 0-4.314-3.731l-2.355-2 1.107 2.113M420 409.458c0 .987 16.591 8.593 22.457 10.296 6.878 1.996 42.479 2.854 55.351 1.334 16.192-1.912 23.571-3.253 26.192-4.761 2.462-1.416 2.446-1.428-1-.806-3.737.675-15.348 1.782-36.75 3.503-24.924 2.004-44.609-.89-64.5-9.482-.962-.416-1.75-.454-1.75-.084m14 29.583c2.691 1.177 13.829 3.526 20.775 4.381 5.442.67 23.799-1.05 26.031-2.439 1.207-.751-2.472-.872-12.806-.42-13.053.57-18.919.205-33-2.055-3.192-.512-3.28-.465-1 .533m95.701 29.818c-1.539 1.015-5.364 2.412-8.5 3.106-9.236 2.042-11.463 3.088-5.201 2.442 8.144-.839 12.152-2.096 15.5-4.859 3.508-2.896 2.268-3.371-1.799-.689m-380.646 49.254c-18.535 14.935-26.842 35.592-25.774 64.093.547 14.619 1.343 18.45 6.02 28.969 12.532 28.191 39.83 40.126 64.334 28.127 6.046-2.96 6.061-2.995 3.502-8.092-1.849-3.682-4.43-11.298-5.536-16.333-.549-2.504-.773-2.587-4.906-1.815-25.459 4.757-46.935-35.501-32.279-60.509 4.313-7.36 11.924-12.522 18.501-12.547 2.373-.01.458-1.132-3.426-2.008-6.31-1.423-15.889 4.624-21.667 13.679-3.836 6.012-4.006 6.066-2.842.904.708-3.139.634-3.602-.392-2.472-2.581 2.842-6.591 14.117-6.653 18.707-.056 4.118-.183 4.385-1.052 2.209-1.131-2.837-.769-5.705 1.962-15.525 3.988-14.339 8.088-21.541 15.403-27.056 2.063-1.555 3.75-3.663 3.75-4.684 0-4.101-15.837 9.599-19.151 16.566-1.661 3.493-1.886 3.684-1.38 1.174 1.713-8.485 14.886-26.5 19.377-26.5.57 0 1.314-.45 1.654-1 1.745-2.823-3.874-.377-9.445 4.113m14.445 3.461c-2.2.768-4.113 1.403-4.25 1.411-.137.008-.25.429-.25.935 0 .738 7.291-1.395 8.917-2.609 1.429-1.067-1.023-.92-4.417.263m.823 7.066c-1.198.264-2.699 1.108-3.335 1.875-.973 1.172-.629 1.242 2.171.439 5.618-1.611 13.018-1.143 16.615 1.05 3.625 2.21 4.226 2.378 4.226 1.181 0-2.68-13.742-5.855-19.677-4.545m263.92 9.201c-5.259 2.135-9.308 5.843-7.176 6.57 3.392 1.156 28.071 5.491 34.933 6.136 12.226 1.149 12.789 2.559.761 1.905-5.907-.322-17.147-1.879-24.979-3.462-15.77-3.186-14.887-3.337-19.229 3.288l-1.786 2.727 3.497 1.461c1.923.804 9.273 2.908 16.333 4.675 7.059 1.768 12.283 3.399 11.608 3.624-1.781.594-26.171-4.639-29.676-6.367-3.316-1.635-5.351-.04-7.439 5.83-.957 2.691-.88 2.757 5.582 4.753 3.605 1.113 11.79 2.988 18.191 4.166 6.4 1.178 12.065 2.527 12.587 2.997 2.435 2.193-14.616-.242-26.336-3.761-4.738-1.422-9.549-2.803-10.692-3.068-2.221-.516-11.155 19.978-16.429 37.685-1.228 4.125-3.074 9.889-4.101 12.808l-1.868 5.308 2.601 2.238 2.602 2.238-1.713 7.699c-1.724 7.751-2.62 9.079-9.242 13.709-1.587 1.109-2.322 2.994-2.822 7.232-.8 6.783-.959 6.675 14.41 9.84 24.106 4.965 48.047.858 64.018-10.981 3.718-2.757 9.733-6.346 13.366-7.976 7.767-3.485 8.93-5.192 9.957-14.615 1.231-11.29 2.147-14.096 4.832-14.798 1.608-.421 1.967-1.382 1.967-5.275 0-2.618-.18-4.573-.4-4.344-.221.229-2.217 2.842-4.438 5.807-7.201 9.615-17.98 16.965-27.162 18.521-3.216.545-3.297.502-1-.536 16.853-7.617 23.844-13.603 29.879-25.585 2.969-5.893 2.609-21.881-.85-37.79l-1.087-5-12.221.353c-14.846.429-15.062-.429-.418-1.656 12.643-1.059 12.098-.72 10.618-6.597-2.77-11.001-10.079-16.015-28.544-19.578-12.425-2.398-12.671-2.4-18.134-.181M468 552.059c0 .582.45.781 1 .441s1-.816 1-1.059-.45-.441-1-.441-1 .477-1 1.059m10.195 76.441c.02 1.65.244 2.204.498 1.231.254-.973.237-2.323-.037-3-.274-.677-.481.119-.461 1.769M334 635.5c0 .825.45 1.5 1 1.5s1-.675 1-1.5-.45-1.5-1-1.5-1 .675-1 1.5m151.288.485c3.985 2.211 16.445 4.256 17.319 2.842.281-.455-1.878-.847-4.798-.871-2.92-.024-6.884-.638-8.809-1.365-6.844-2.583-7.454-2.683-3.712-.606M344.5 636c.34.55 1.379.993 2.309.985 1.457-.014 1.484-.15.191-.985-1.958-1.266-3.282-1.266-2.5 0m35 0c-.34.55-.168 1 .382 1s1.278-.45 1.618-1c.34-.55.168-1-.382-1s-1.278.45-1.618 1m-27.75 2.662c.688.278 1.813.278 2.5 0 .688-.277.125-.504-1.25-.504s-1.937.227-1.25.504m17.25.165c0 .455 1.35.628 3 .386s3-.614 3-.826c0-.213-1.35-.387-3-.387s-3 .372-3 .827m-25.531 1.223c-.95 1.538.351 2.53 1.635 1.246.718-.718.735-1.277.052-1.699-.56-.346-1.319-.142-1.687.453m15.281-.344c1.238.238 3.262.238 4.5 0 1.238-.239.225-.434-2.25-.434s-3.488.195-2.25.434M516 641c0 .55.45 1 1 1s1-.45 1-1-.45-1-1-1-1 .45-1 1m-29.808 1.075c.197.591.786 1.075 1.308 1.075s1.111-.484 1.308-1.075c.197-.591-.391-1.075-1.308-1.075s-1.505.484-1.308 1.075m21.475.592c-.956.955-.822 2.333.226 2.333.491 0 1.152-.675 1.469-1.5.585-1.524-.481-2.048-1.695-.833M283 644c0 .55.675 1 1.5 1s1.5-.45 1.5-1-.675-1-1.5-1-1.5.45-1.5 1m52 .059c0 .582.45.781 1 .441s1-.816 1-1.059-.45-.441-1-.441-1 .477-1 1.059m19 .5c0 .857.45 1.281 1 .941.55-.34 1-1.041 1-1.559s-.45-.941-1-.941-1 .702-1 1.559m11.543-.628c-.317.512-.118 1.213.441 1.559.559.345 1.016-.074 1.016-.931 0-1.757-.6-2.015-1.457-.628M497 644.5c0 .825.45 1.5 1 1.5s1-.675 1-1.5-.45-1.5-1-1.5-1 .675-1 1.5m-18 1.5c0 .55.45 1 1 1s1-.45 1-1-.45-1-1-1-1 .45-1 1m-91 .551c0 1.509 8.24 3.659 15.93 4.157 9.388.609 26.07-1.273 26.07-2.94 0-.641-1.779-.8-4.75-.423-13.827 1.754-18.143 1.796-27 .259-10.496-1.82-10.25-1.795-10.25-1.053m-41.457 1.38c-.317.512-.118 1.213.441 1.559.559.345 1.016-.074 1.016-.931 0-1.757-.6-2.015-1.457-.628M373 648c0 .55.45 1 1 1s1-.45 1-1-.45-1-1-1-1 .45-1 1m101.006.75c.005 1.431 3.276 4.167 7.244 6.059 1.863.888.471-2.242-2.173-4.886-3.32-3.32-5.08-3.727-5.071-1.173m16.994.809c0 .857.45 1.281 1 .941.55-.34 1-1.041 1-1.559s-.45-.941-1-.941-1 .702-1 1.559m22-.559c0 .55.477 1 1.059 1s.781-.45.441-1-.816-1-1.059-1-.441.45-.441 1m-10 1c0 .55.45 1 1 1s1-.45 1-1-.45-1-1-1-1 .45-1 1m-224.5 1c-.34.55.084 1 .941 1s1.559-.45 1.559-1-.423-1-.941-1-1.219.45-1.559 1m10.018 2.566c-1.496 1.961-2.562 3.723-2.369 3.916.193.193 1.618-1.412 3.166-3.566 3.519-4.896 2.883-5.176-.797-.35m48.955-.387c-1.048 4.854-4.233 10.829-7.901 14.821-4.083 4.444-6.136 12.083-4.505 16.761 1.213 3.48 2.931 4.351 2.937 1.489.008-3.915 4.727-9.778 10.339-12.844 4.281-2.339 4.53-.75.414 2.643-9.321 7.683-8.707 18.957 1.032 18.947 5.851-.006 10.211-3.2 10.211-7.481 0-6.691 3.807-4.458 4.404 2.583.595 7.021 5.63 9.777 9.957 5.45 3.716-3.716 4.471-7.612 4.851-25.048l.349-16-8.53-.075c-7.413-.065-15.575-1.56-21.186-3.881-1.284-.532-1.816.06-2.372 2.635M358 651c0 .55.45 1 1 1s1-.45 1-1-.45-1-1-1-1 .45-1 1m84.115 1.548c-8.569 3.719-23.057 5.68-38.068 5.153-10.68-.375-13.948-.225-12.516.576 7.228 4.045 40.166 1.039 51.132-4.667 5.26-2.737 4.903-3.429-.548-1.062m18.385 1.639c-3.3 1.7-8.475 4.989-11.5 7.31-3.025 2.321-6.512 4.539-7.75 4.929-2.949.929-2.89 1.208 1.513 7.074 6.098 8.125 15.814 11.834 19.714 7.526 2.845-3.144.602-6.953-6.592-11.197-7.312-4.312-5.677-6.025 2.067-2.165 5.139 2.56 8.048 6.279 8.048 10.286 0 1.575.644 2.05 2.777 2.05 8.631 0 9.887-9.417 2.17-16.268-4.698-4.171-4.758-5.72-.128-3.326 4.24 2.193 6.801 5.831 7.611 10.809.652 4.01.789 4.16 2.133 2.344 3.804-5.139 1.12-13.749-6.207-19.914-4.008-3.371-6.444-3.276-13.856.542m-163.283.063c-2.348 2.854-9.217 20.753-9.217 24.016 0 1.422 6.632 8.489 9.329 9.942 8.031 4.326 20.645.4 21.803-6.786.348-2.157 1.234-5.383 1.968-7.168 2.106-5.12-.225-6.754-9.632-6.754-4.105 0-7.464-.285-7.466-.633-.008-2.171 14.703-2.538 17.557-.439 3.741 2.754 8.119-3.642 5.155-7.532-1.801-2.366-5.328-3.187-12.876-2.996-4.158.105-8.141-.418-10.409-1.365-4.445-1.857-4.902-1.878-6.212-.285m187.365-.498c-1.001 1.001-.624 14.554.522 18.748 2.453 8.98 10.274 14.907 15.86 12.019 5.998-3.102 5.267-10.244-1.466-14.329-4.66-2.827-5.592-4.19-2.866-4.19 7.563 0 13.482 10.422 9.862 17.364-1.955 3.748-2.012 3.636 1.851 3.636 4.71 0 6.655-2.541 6.655-8.694 0-5.903-1.829-8.716-8.774-13.494-5.186-3.568-4.314-4.867 1.479-2.203 6.776 3.116 10.444 8.284 10.543 14.852.083 5.48 1.201 5.793 3.242.909 1.932-4.623.71-9.732-3.465-14.488-1.632-1.86-3.49-4.63-4.128-6.155l-1.159-2.773-10.119.648c-7.978.511-10.895.322-13.787-.892-2.018-.847-3.931-1.278-4.25-.958M274 660.559c0 .857.45 1.281 1 .941.55-.34 1-1.041 1-1.559s-.45-.941-1-.941-1 .702-1 1.559m9.624 2.98c-.965 2.514-.681 3.163.498 1.136.584-1.004.851-2.036.593-2.293-.257-.258-.749.263-1.091 1.157M271.5 669c.34.55.816 1 1.059 1s.441-.45.441-1-.477-1-1.059-1-.781.45-.441 1m10.579.583c.048 1.165.285 1.402.604.605.289-.722.253-1.585-.079-1.917-.332-.332-.568.258-.525 1.312m23.645 7.629c-1.518 1.11-.755 1.298 5.249 1.293 4.232-.003 6.894-.403 6.697-1.005-.507-1.549-9.911-1.776-11.946-.288" fill-rule="evenodd"/>
</svg>