<!DOCTYPE svg PUBLIC "-//W3C//DTD SVG 1.1//EN" "http://www.w3.org/Graphics/SVG/1.1/DTD/svg11.dtd">
<svg xmlns="http://www.w3.org/2000/svg" viewBox="0 0 421 592">
<path fill="#fbfaf9" stroke="#fbfaf9" d="M204.513 45.622c-.832 1.992-1.513 3.79-1.513 3.995 0 1.626-13.328 17.249-17.217 20.183-4.857 3.663-10.691 8.437-20.193 16.522-6.923 5.891-15.363 14.477-18.852 19.178-3.234 4.357-3.237 4.411.446-7.221 1.833-5.788 1.809-8.279-.08-8.279C145.433 90 133 103.314 133 105.103c0 .493-.417.897-.927.897-1.489 0-12.968 14.678-16.305 20.848-1.681 3.109-3.392 6.102-3.803 6.652-.412.55-2.097 5.275-3.745 10.5-1.648 5.225-3.782 11.975-4.741 15a496.255 496.255 0 0 0-3.044 10l-1.3 4.5-.068-6.308c-.076-7.171 1.714-20.166 2.997-21.746.471-.58.986-3.038 1.146-5.463.425-6.455-2.22-6.589-5.759-.292A770.619 770.619 0 0 1 92.12 149c-1.446 2.475-3.712 6.975-5.035 10-1.324 3.025-3.2 7.3-4.17 9.5-6.533 14.821-9.216 60.418-4.045 68.75 2.898 4.67 2.628 4.659-6.371-.251C66.312 233.624 62 232.655 62 234.64c0 1.498 9.196 17.66 11.016 19.36.295.275 2.083 2.525 3.974 5 4.212 5.512 6.343 7.601 12.004 11.765 2.923 2.148 3.83 3.277 2.703 3.36-.933.069-2.147.238-2.697.375-.55.137-2.575.306-4.5.375-8.911.318.865 7.829 15.319 11.769 5.239 1.428 6.582 2.246 7.86 4.789.848 1.687 3.158 4.755 5.134 6.817 1.976 2.063 3.038 3.75 2.359 3.75-2.279 0-10.733 10.884-15.863 20.425-1.764 3.28-2.202 5.8-2.25 12.921-.059 8.852-.969 11.505-5.583 16.283-3.997 4.137-11.633 22.774-13.787 33.644l-2.295 11.588 2.692 5.646c3.242 6.802 8.681 12.032 14.282 13.736 10.05 3.057 35.857-.3 43.117-5.608 1.707-1.249 2.103-1.221 3.2.22 2.091 2.748 1.537 4.49-4.211 13.236-3.781 5.754-6.327 11.093-8.062 16.909-3.724 12.48-6.442 19.13-9.168 22.432-1.925 2.331-2.302 3.662-1.842 6.5.319 1.962.863 6.718 1.209 10.568.808 8.981 5.608 13.882 15.637 15.966 1.787.372 3.71 2.05 5.5 4.803 1.514 2.327 3.09 4.381 3.502 4.564 1.2.534.865 2.167-.445 2.167-2.274 0-6.805 5.321-6.805 7.991 0 2.522 4.261 7.552 8.155 9.627.91.485 3.385 2.422 5.5 4.305l3.845 3.424-2.889 3.076c-4.572 4.87-9.611 12.849-9.611 15.22 0 4.72 17.43 3.618 28.21-1.784 2.041-1.022 4.366-1.859 5.167-1.859.801 0 1.606-.386 1.79-.857.183-.472 3.216-2.442 6.74-4.378l6.408-3.519-.225-7.698c-.145-4.946-.916-9.308-2.157-12.205-1.063-2.48-1.933-6.722-1.933-9.426V505h8c6.265 0 8 .31 8 1.428 0 3.151 25.241 3.407 28.822.292 1.01-.878 4.818-1.683 9.567-2.023l7.89-.564-.564 6.684c-.311 3.675-1.271 8.033-2.134 9.683-.863 1.65-1.571 4.632-1.575 6.628-.003 1.997-.68 4.186-1.506 4.872-.825.685-1.5 2.167-1.5 3.294 0 1.127-.728 2.853-1.619 3.837-3.148 3.479.107 10.878 4.265 9.695.47-.133 3.554.803 6.854 2.08 13.317 5.154 27.129 7.238 34.5 5.205 5.394-1.488 3.128-10.268-4.922-19.071-5.034-5.506-5.114-4.742 1.172-11.265 7.72-8.012 13.114-16.274 12.402-18.996-.36-1.379.383-4.15 1.947-7.255 5.049-10.028 6.731-12.319 9.942-13.54 2.304-.876 2.144-6.568-.518-18.399-.816-3.63-.811-5.098.022-5.613.62-.383.976-1.589.791-2.681-.185-1.091.257-2.698.981-3.571 1.116-1.344.848-2.431-1.75-7.099-1.687-3.032-3.067-6.149-3.067-6.927 0-.778-1.125-3.073-2.5-5.099-1.915-2.822-2.5-4.967-2.5-9.172 0-3.018-.706-7.16-1.57-9.205-.863-2.045-2.444-9.793-3.512-17.218-1.068-7.425-3.025-17.1-4.348-21.5-5.391-17.926-5.424-34.648-.077-39.248 3.966-3.411 6.507-3.001 6.507 1.048 0 4.589 1.544 5.698 7.95 5.711 6.687.012 10.489 3.211 14.442 12.149 4.871 11.013 9.256 15.73 14.694 15.805l2.585.035-.085 13.25-.086 13.25 4.5 1.542c2.475.848 5.863 2.27 7.528 3.161 6.699 3.582 17.472 1.554 17.472-3.289 0-.482 1.137-1.161 2.526-1.51 1.39-.349 2.987-1.495 3.551-2.547.563-1.052 1.382-1.691 1.82-1.421.926.573 5.344-3.934 6.981-7.12 2.992-5.824.532-24.753-4.589-35.316-2.875-5.93-3.581-8.489-3.372-12.227.458-8.223-7.109-27.773-10.75-27.773-.415 0-4.11-3.21-8.211-7.134-8.15-7.797-16.356-14.391-21.292-17.108C317.893 285.93 302.955 280 299.563 280h-3.726l1.988-3.25c1.265-2.068 2.247-6.073 2.7-11.012.707-7.7 1.932-10.328 7.803-16.738.756-.825 3.392-5.325 5.858-10 2.466-4.675 4.986-9.4 5.598-10.5.613-1.1 2.987-5.825 5.277-10.5 2.289-4.675 4.948-9.625 5.908-11s1.547-3.062 1.305-3.75c-.479-1.36-2.902-1.712-3.441-.5-.183.412-2.446 2.447-5.028 4.522-2.582 2.074-6.086 5.162-7.786 6.863l-3.091 3.091.613-3.863c1.531-9.654 1.612-13.334.48-21.804-1.268-9.488-4.319-21.963-5.849-23.915-.493-.629-1.209-2.494-1.59-4.144-.563-2.432-13.97-31.127-15.111-32.341-1.617-1.722-4.471 1.411-4.471 4.908 0 6.611-1.479 4.415-3.742-5.558-2.035-8.965-9.788-27.177-13.626-32.009-.874-1.1-3.511-4.529-5.86-7.619a656.818 656.818 0 0 0-8.272-10.616c-2.2-2.749-4.479-5.813-5.064-6.81-2.458-4.187-4.433-.986-4.481 7.264-.04 6.919-.179 7.481-1.25 5.077-1.376-3.087-4.407-6.833-17.553-21.69C216.059 51.568 211.568 46 212.551 46c.395 0-.425-.9-1.824-2-3.534-2.78-4.477-2.534-6.214 1.622m28.923 143.685c-1.065.601-3.699 1.116-5.854 1.143-3.645.047-4.115.4-6.718 5.05-3.486 6.229-3.486 6.245.047 5.726 3.841-.563 5.386 2.298 5.216 9.659-.159 6.919-.836 9.115-2.81 9.115-1.292 0-1.434-.906-.862-5.49.914-7.314.136-9.51-3.368-9.51-2.642 0-2.91.452-5.482 9.25-1.487 5.088-3.116 10.15-3.62 11.25-1.3 2.838-3.7 13.086-4.478 19.124-.541 4.197-1.122 5.335-3.213 6.288-1.404.639-2.609 1.034-2.678.875-2.894-6.651-8.837-17.787-9.492-17.787-.49 0-1.155-.787-1.479-1.75-1.662-4.946-11.348-16.551-12.975-15.546-.544.336-.662.092-.265-.549.392-.635.236-1.155-.346-1.155s-1.006-.338-.941-.75c.3-1.9-.372-3.122-3.868-7.035-2.062-2.308-4.819-5.578-6.125-7.265-1.404-1.813-2.958-2.844-3.802-2.52-.785.301-1.181.149-.881-.337.682-1.103-1.782-2.093-5.212-2.093-3.117 0-8.999 3.777-9.815 6.302-.321.991-2.045 3.133-3.832 4.759-1.787 1.626-4.337 5.315-5.666 8.198-1.329 2.883-2.727 5.382-3.106 5.554-1.743.791-4.988 13.269-3.818 14.678.648.782.961 1.779.694 2.215-.267.437-.798 5.519-1.18 11.293-.399 6.031-1.179 10.798-1.832 11.202-1.519.938 2.543 6.345 4.637 6.173.913-.075 1.317.429 1.002 1.25-.29.757-.062 1.376.508 1.376 1.653 0 4.413 10.934 3.708 14.691-.345 1.839-.268 3.898.171 4.576.44.678.799 2.317.799 3.641 0 1.325.675 2.636 1.5 2.913 1.255.422 1.288.247.201-1.069-1-1.213-1.022-1.744-.095-2.317.735-.455.942-.322.532.341-.369.597-.206 1.373.362 1.724s.818.986.556 1.41c-.729 1.179 5.329 5.279 6.62 4.481.648-.401.859-.257.492.337-.767 1.241 2.974 6.272 4.665 6.272 4.286 0 8.471 8.796 5.567 11.7-1.061 1.061-.837 1.445 3.75 6.422.467.508 2.126 2.052 3.687 3.433l2.836 2.51-.533-2.782c-1.435-7.482-1.747-13.631-.816-16.083.563-1.485 1.301-4.373 1.64-6.418.338-2.045 1.325-4.429 2.194-5.297.869-.869 1.265-1.896.879-2.281-1.121-1.121-3.335 2.642-4.053 6.888-.862 5.103-3.484 5.373-3.484.358 0-4.315 2.338-9.133 4.736-9.758.97-.253-3.974-.512-10.986-.576-8.234-.075-12.75-.491-12.75-1.175 0-.582-.359-.837-.798-.566-.439.271-1.451.073-2.25-.441-2.569-1.652.942-2.893 8.548-3.021 6.407-.108 6.703-.202 3.5-1.109-1.925-.545-4.7-.97-6.166-.944-1.467.025-3.21-.608-3.873-1.407-.663-.799-1.826-1.453-2.583-1.453-.758 0-1.265-.562-1.128-1.25.138-.687-.238-1.163-.833-1.056-1.17.21-1.19.139-2.045-6.944-.396-3.283-.213-4.75.595-4.75.72 0 .92-.781.521-2.036-1.365-4.304-.647-17.565 1.258-23.207 1.047-3.102 1.645-5.571 1.329-5.486-.316.085-1.528-.376-2.694-1.023-1.165-.648-2.474-.856-2.91-.463-.435.393-.487.184-.115-.466.372-.649.247-1.446-.277-1.77-.525-.324-.763-2.718-.53-5.319.638-7.125.827-8.116 1.468-7.719.324.2 1.665-1.379 2.981-3.508 2.46-3.98 6.381-6.308 5.287-3.14-.31.9-1.263 2.2-2.116 2.887-1.321 1.064-1.087 1.25 1.572 1.25 2.369 0 3.291.544 3.814 2.25.379 1.238 2.209 4.126 4.067 6.418 1.858 2.293 3.378 4.478 3.378 4.857 0 1.359 8.254 10.969 9.191 10.7.527-.151.683.17.347.714-.336.543.275 1.874 1.359 2.958 1.083 1.083 2.73 3.13 3.659 4.548.929 1.418 2.663 2.823 3.853 3.122 1.19.298 2.614 1.53 3.164 2.738.55 1.207 1.58 2.071 2.288 1.92.708-.151 1.059.096.779.548-.772 1.25.479 2.596 4.667 5.022 4.493 2.602 5.098 2.702 4.336.717-.323-.841-.063-1.384.598-1.25.642.131 1.195-.212 1.229-.762.033-.55.417-1.562.853-2.248.943-1.485-1.628-5.579-2.823-4.496-.451.409-.542.254-.201-.345s-.124-3.415-1.033-6.257c-1.319-4.127-1.401-5.418-.405-6.411 1.607-1.602 4.207 1.64 7.222 9.007 1.182 2.887 2.772 5.25 3.533 5.25a1.39 1.39 0 0 1 1.384 1.389c0 .764.762 1.326 1.694 1.25 1.23-.101 1.931 1.026 2.559 4.111 1.061 5.216 4.027 6.162 3.135 1-.308-1.788-.719-3.775-.911-4.417-.193-.642.25-1.398.983-1.679.929-.357 1.526.756 1.966 3.667 1.038 6.859 2.228 7.787 4.056 3.163 2.37-5.993 6.645-15.787 7.631-17.484.48-.825 2.75-5.325 5.046-10 2.295-4.675 5.223-9.892 6.507-11.594 2.839-3.765 2.903-4.401.392-3.917-1.44.277-1.807-.061-1.419-1.308.442-1.418.287-1.391-.991.169-1.571 1.919-3.648 1.49-3.648-.754 0-3.907 6.834-6.185 8.537-2.846 1.134 2.223 1.171 2.207 3.033-1.25 1.037-1.925 2.232-3.5 2.657-3.5.425 0 .773-.454.773-1.009 0-.554 1.35-2.872 3-5.15 1.65-2.277 3-4.833 3-5.68 0-1.18.468-1.036 2.007.616 1.104 1.185 2.667 1.902 3.474 1.592 1.845-.708-.262-3.79-5.097-7.454-1.754-1.328-3.01-2.704-2.793-3.058.217-.354-.745-.93-2.139-1.28-1.394-.349-2.305-1.007-2.024-1.46.948-1.535-3.892-2.997-5.992-1.81m-4.769 6.36c-.367.366-.667 3.011-.667 5.877 0 5.914 1.432 7.771 5.612 7.278 3.602-.424 4.427-2.822.971-2.822-2.464 0-2.583-.253-2.583-5.5 0-5.221-1.202-6.964-3.333-4.833m22.348 11.5c.008.183.681 2.133 1.496 4.333l1.48 4-.245-3.923c-.135-2.157-.808-4.107-1.496-4.333-.687-.226-1.243-.261-1.235-.077m6.636 4.921c.366 1.877 1.045 3.562 1.508 3.745.462.184.841.982.841 1.775 0 .793 1.125 1.869 2.5 2.392 1.734.659 2.5 1.706 2.5 3.416 0 1.356.45 2.744 1 3.084.55.34 1 1.754 1 3.142 0 3.689-2.141 2.496-4.597-2.562-1.559-3.21-2.258-3.9-2.722-2.69-.344.896-.975 1.571-1.403 1.501-2.767-.454-4.45.198-3.505 1.359 5.422 6.659 6.687 11.041 6.998 24.25.316 13.473-.002 15.062-3.139 15.65-1.739.326-1.884-.579-2.11-13.15-.33-18.35-3.225-26-9.84-26-4.214 0-13.827 12.197-21.28 27-1.8 3.575-4.155 7.79-5.234 9.367-1.963 2.87-1.473 4.98 2.433 10.47.274.385 10.397-1.555 14.899-2.856 13.806-3.989 16.275-4.269 18.593-2.109l2.213 2.061-2.718 1.034c-1.495.568-3.476 1.036-4.403 1.039-3.145.01-9.513 2.173-8.408 2.856.604.373 5.727.368 11.385-.012 5.657-.38 10.635-.475 11.062-.212 1.997 1.234.283 2.159-5.134 2.772-3.251.368-6.456 1.326-7.123 2.13-.666.803-2.03 1.46-3.03 1.46-2.786 0-3.105 1.5-.868 4.079a7.114 7.114 0 0 1 1.729 5.379c-.41 4.187-2.709 3.842-4.249-.637-.696-2.024-2.004-4.419-2.907-5.322-2.009-2.008-2.008-1.99-.071-3.928 1.377-1.376 1.384-1.571.059-1.571-.831 0-1.79.45-2.13 1-.34.55-1.641 1-2.892 1s-2.572.297-2.935.66c-1.029 1.03 3.177 3.544 4.579 2.738.686-.395.91-.346.496.111-.414.456-.165 1.54.554 2.41 3.267 3.955 8.494 24.837 6.92 27.649-1.019 1.821-.429 6.432.823 6.432 1.391 0 4.003-3.114 3.412-4.069-.308-.5.025-.689.741-.421 1.725.645 6.961-4.532 12.45-12.31 4.427-6.27 4.449-6.345 4.934-16.5.267-5.61 1.13-12.666 1.917-15.68 1.251-4.791 1.247-5.583-.034-6.299-.806-.451-1.501-1.586-1.544-2.521-.048-1.042-.274-1.216-.583-.45-.278.688-2.101 1.25-4.052 1.25h-3.548l.651-3.75c.358-2.062.932-6.562 1.275-10 .911-9.107 3.349-8.31 5.355 1.75l.697 3.5.142-3.168c.177-3.946 1.104-6.474 2.14-5.833 1.054.651 2.249-4.291 1.378-5.699-.388-.628-.233-.83.356-.466.572.354 1.248-.148 1.501-1.116.674-2.578-5.78-16.218-7.674-16.218-.857 0-1.559-.748-1.559-1.662 0-1.977-5.188-10.293-8.019-12.855-1.964-1.778-1.985-1.753-1.33 1.605m-100.984 1.579c-.367.366-.667 1.626-.667 2.8 0 4.953 7.432 6.645 8.608 1.96.91-3.628-1.244-5.603-3.207-2.942-1.447 1.961-1.473 1.958-2.05-.25-.592-2.265-1.473-2.78-2.684-1.568M252 222.941c0 .518.45 1.219 1 1.559.55.34 1-.084 1-.941s-.45-1.559-1-1.559-1 .423-1 .941m-81.292 10.816c-1.126.255-1.608 1.025-1.297 2.074.272.918.792 2.918 1.157 4.445 1.389 5.823 8.432 5.135 8.432-.824 0-3.151-2.843-3.999-3.975-1.185-.816 2.027-.904 1.939-.962-.958-.069-3.514-.677-4.158-3.355-3.552m96.826 2.188c-.965 1.561.305 3.055 2.598 3.055 1.375 0 1.908-.552 1.68-1.739-.384-1.992-3.305-2.891-4.278-1.316m-143.472 5.776c-.667 2.629-1.537 5.454-1.933 6.279-1.3 2.711-1.362 9-.089 9 .736 0 1.009-.966.711-2.524-.266-1.388-.024-2.808.538-3.154.584-.362.715-.138.306.523-.392.635-.299 1.155.208 1.155.906 0 2.695-14.835 1.887-15.643-.228-.228-.96 1.736-1.628 4.364m162.658 1.867c-1.528.829-2.534 1.905-2.233 2.39.3.486.019 1.209-.625 1.607-.731.452-.903.291-.457-.43.392-.635.236-1.155-.346-1.155s-1.059.969-1.059 2.154c0 1.184-1.152 4.589-2.561 7.566-1.408 2.977-2.379 6.17-2.157 7.096.308 1.286.666 1.047 1.516-1.014C281.907 254.264 292 247.535 292 253c0 1.277-.667 2-1.845 2-1.015 0-2.66.9-3.655 2-1.774 1.96-1.747 2 1.37 2 3.981 0 5.316 2.852 5.5 11.748.072 3.436.23 6.248.352 6.25 2.653.029 4.701-28.483 2.161-30.091-.76-.482-.976-.883-.478-.892.498-.008.09-.915-.905-2.015-2.138-2.363-4.002-2.461-7.78-.412m-141.14 2.282c-5.103 8.258-3.622 28.519 2.514 34.387 1.011.967 1.58 2.429 1.265 3.25-1.008 2.626 12.221 1.236 24.871-2.613 7.537-2.294 9.962-2.21 10.337.356.183 1.254-.428 1.75-2.155 1.75-1.327 0-2.412.405-2.412.901s-4.747 1.464-10.549 2.151c-5.802.688-10.189 1.601-9.75 2.03.44.428 3.724.424 7.299-.01s7.063-.58 7.75-.323c1.761.655 1.561 3.251-.25 3.251-.825 0-1.5.45-1.5 1s-.713 1-1.583 1c-.871 0-1.385.563-1.143 1.25.243.688 1.293 1.057 2.334.82 1.56-.354 16.55-.896 28.701-1.037 1.545-.018 2.603-.37 2.351-.783-.252-.413 1.141-.835 3.095-.94 1.954-.104 3.821-.554 4.149-1 .848-1.153 7.886-4.31 9.609-4.31 3.674 0 14.54-4.347 13.49-5.397-.782-.782-1.317-.714-1.908.243-.926 1.498-5.656 1.2-5.483-.346.062-.55 1.187-1.547 2.499-2.216 2.113-1.077 1.711-1.197-3.49-1.048-5.242.15-6.126-.121-8.187-2.517-2.186-2.542-2.344-2.579-2.939-.703-.667 2.101-2.957 2.663-3.997.981-.403-.652-1.248-.666-2.417-.041-.988.529-3.445 1.073-5.46 1.209-2.806.189-4.459 1.134-7.069 4.041-3.605 4.016-4.22 4.29-6.46 2.872-1.11-.703-.582-1.663 2.5-4.546 3.637-3.401 3.735-3.631 1.408-3.319-1.375.184-2.397.859-2.27 1.5.273 1.388-3.262 2.694-4.77 1.763-.738-.457-.741-1.035-.008-1.919 2.553-3.075.806-6.561-4.173-8.329-2.629-.934-4.779-2.042-4.779-2.463 0-.421-.522-.765-1.16-.765-1.418 0-16.481-10.783-23.323-16.695-5.172-4.468-6.034-4.895-6.937-3.435m82.087 13.797c-1.07 1.069-.768 7.153.39 7.868.581.359 2.156.377 3.5.04 2.857-.717 3.698-6.575.943-6.575-.825 0-1.5-.45-1.5-1 0-1.125-2.311-1.356-3.333-.333m-114.876 12.717c-5.872 5.444-6.35 12.572-1.288 19.209 2.409 3.158 6.629 5.047 4.851 2.171-.42-.679-.643-2.63-.496-4.336.227-2.634-.066-3.087-1.944-3.014-3.308.129-3.317-1.745-.019-3.693 5.015-2.962 11.072-1.73 15.491 3.153 1.035 1.143 2.293 1.824 2.796 1.513 1.295-.8-1.152-3.492-2.545-2.802-.625.31-.256-.151.821-1.023 1.91-1.547 1.913-1.664.132-4.679-2.166-3.667-7.43-8.877-8.988-8.897-.606-.007-2.002-.245-3.102-.527-1.356-.348-3.194.593-5.709 2.925m59.167-1.306c-1.593 2.976-.468 4.922 2.844 4.922 3.78 0 4.23-.609 3.019-4.085-1.206-3.459-4.229-3.89-5.863-.837M265 272c0 .55.45 1 1 1s1-.45 1-1-.45-1-1-1-1 .45-1 1m-50.5 7c.34.55.816 1 1.059 1s.441-.45.441-1-.477-1-1.059-1-.781.45-.441 1m78.043 6.548c-1.25 1.349-2.982 2.452-3.849 2.452s-1.897.52-2.289 1.155c-.473.763-.271.88.595.345.951-.588 1.069-.425.433.595-2.88 4.621-2.204 4.905 11.705 4.905h13.126l3.227 3.422c1.775 1.882 3.521 4.89 3.88 6.685.924 4.62 3.337 6.893 7.316 6.893 1.858 0 4.938.652 6.845 1.449l3.468 1.449v-4.449c0-3.402.375-4.449 1.592-4.449 1.263 0 1.546.98 1.371 4.75-.294 6.321-.154 7.25 1.096 7.25.582 0 .778-.454.435-1.009-.922-1.492.48-5.125 1.69-4.377.627.387.798 2.477.43 5.264l-.61 4.622 4.748 2.5c3.32 1.748 5.277 3.628 6.506 6.25.967 2.063 2.196 3.75 2.731 3.75.535 0 2.085 2.137 3.445 4.75l2.473 4.75.046-3.997c.055-4.687-4.421-18.817-6.51-20.55-1.156-.96-1.443-.876-1.443.425 0 3.021-2.774 1.644-4.285-2.128-1.597-3.985-7.715-10.803-14.134-15.75a959.407 959.407 0 0 1-6.487-5.042c-3.387-2.667-19.608-10.905-24.094-12.236-7.957-2.362-11.035-2.288-13.457.326m-95.421 2.292c-.978 1.907-.419 4.16 1.033 4.16 1.262 0 3.845-2.561 3.845-3.812 0-1.796-3.989-2.08-4.878-.348m27.889.647c-.732.882-1.931 1.374-2.664 1.093-.733-.282-2.13.344-3.105 1.39-3.727 4.001-18.123 7.047-30.069 6.364-7.385-.423-11.461-.25-12.952.547l-2.175 1.165 2.097 2.097c1.939 1.939 3.283 2.108 17.728 2.228l15.629.129 11-4.324c18.897-7.429 18.138-6.994 15.911-9.141-2.763-2.666-9.691-3.607-11.4-1.548m-94.335 8.965c-2.104.75-4.129 1.702-4.5 2.115-.372.413.129.463 1.112.109 1.116-.401 1.999-.09 2.351.827.677 1.763 14.383 9.497 16.83 9.497.947 0 3.029.931 4.627 2.068 2.329 1.659 2.904 1.771 2.904.568 0-.825-1.463-2.52-3.25-3.767-1.787-1.247-5.95-4.65-9.25-7.563-3.3-2.914-6.225-5.279-6.5-5.258-.275.022-2.221.654-4.324 1.404m-12.112 7.273c-3.764.959-11.259 10.342-9.951 12.458.416.674.248.849-.42.436-1.274-.787-5.193 6.199-5.193 9.258 0 1.076-.511 2.127-1.136 2.335-1.415.472-1.288 12.146.137 12.621.549.184.999.884.999 1.556s1.013 2.556 2.25 4.185c2.819 3.711 7.032 2.709 6.538-1.555-.199-1.713.255-2.588 1.462-2.824 1.022-.199 1.75.264 1.75 1.115 0 .801.9 1.692 2 1.98 1.536.402 2 1.364 2 4.151v3.628l5.217-.692c5.9-.783 7.383-2.118 11.222-10.102 1.381-2.874 3.31-6.03 4.286-7.012.976-.983 3.542-4.031 5.701-6.775 2.159-2.743 4.795-5.774 5.858-6.736 2.02-1.827 1.645-5.444-.431-4.161-.692.427-.893.283-.498-.356 1.383-2.238-2.487-4.469-6.609-3.81-5.188.829-18.175 7.811-23.05 12.391-2.43 2.283-4.696 2.87-4.696 1.217 0-2.16 7.157-7.892 14.858-11.898 9.219-4.797 9.229-4.855 1.445-9.07-5.315-2.879-9.095-3.523-13.739-2.34M251 312.5c0 .825.177 1.5.393 1.5.216 0 .652-.675.969-1.5.316-.825.139-1.5-.393-1.5-.533 0-.969.675-.969 1.5m-15 8.134c0 2.285 2.514 8.361 3.345 8.084 3.884-1.294 3.148-8.718-.864-8.718-1.365 0-2.481.285-2.481.634m-76.153 8.276c-.874.325-2.826 2.069-4.337 3.876-1.512 1.807-3.932 3.899-5.379 4.649-3.259 1.689-9.295 7.208-6.881 6.292.963-.365 1.735-.341 1.717.054-.103 2.276-3.952 11.592-5.075 12.286-3.093 1.911.215 1.669 7.961-.583 11.162-3.245 21.147-9.492 21.147-13.23 0-.755.45-1.094 1-.754 1.69 1.045 1.118-1.217-1.488-5.885-1.574-2.82-2.078-4.593-1.371-4.829.614-.204-.419-.843-2.295-1.418-1.875-.576-4.125-.782-4.999-.458m14.988-.237c-5.466 1.448-1.797 8.329 4.438 8.323l4.227-.003-3.347-2.041c-2.762-1.684-3.24-2.471-2.731-4.496.62-2.473.453-2.588-2.587-1.783M101 348.741c0 1.178-.45 2.419-1 2.759-.55.34-1 1.491-1 2.559 0 2.414-1.976 2.597-2.063.191-.049-1.341-.275-1.224-.968.5-.498 1.238-1.59 2.25-2.427 2.25-1.639 0-6.861 10.521-8.811 17.75-.63 2.337-1.502 4.25-1.938 4.25-.436 0-.793.962-.793 2.137 0 2.166.605 1.73 12.126-8.748 1.626-1.478 2.842-6.433 2.863-11.664.012-2.991 2.821-4.725 7.658-4.725h2.516l-2.241-3.75c-3.174-5.309-3.922-5.978-3.922-3.509m260.673 7.998c-4.181 7.492-17.45 17.261-23.446 17.261-3.447 0-4.026 2.097-3.865 14l.156 11.5 2.801.322c3.388.39 5.539-1.241 7.349-5.572.844-2.019 2.065-3.25 3.223-3.25 1.026 0 2.482-.929 3.237-2.065 2.273-3.422 11.003-1.526 12.374 2.686 1.325 4.072 4.755 2.755 7.661-2.94 3.181-6.235.732-24.016-4.52-32.823l-2.313-3.88-2.657 4.761M151.5 512.84c-3.3.947-7.35 1.602-9 1.457-7.359-.647-6.698 2.147 1.875 7.93 3.369 2.273 6.853 4.951 7.742 5.952.89 1.002 2.127 1.821 2.75 1.821.623 0 1.133 1.038 1.133 2.307 0 1.607 1.4 3.295 4.608 5.556 2.535 1.787 4.837 4.123 5.117 5.193.621 2.375 1.116 2.393 6.505.231l4.27-1.714-4-1.093c-3.265-.892-4.413-1.901-6.245-5.488-1.235-2.417-3.176-5.466-4.314-6.775-1.739-2-2.033-3.526-1.837-9.549.271-8.342.239-8.364-8.604-5.828m106.856 5.492-7.525 7.154 3.335.882c1.834.485 6.311 1.085 9.949 1.334l6.616.452 6.134-6.022c3.374-3.312 6.135-6.42 6.135-6.908 0-1.614-4.414-3.067-10.81-3.56l-6.31-.485-7.524 7.153m-11.467 10.33c-1.911.511-3.889 4.479-3.889 7.802 0 1.43-1.09 3.167-2.75 4.381-2.585 1.891-2.63 2.05-.75 2.633 1.1.342 3.664 1.499 5.698 2.572 4.553 2.401 4.802 2.405 4.802.086 0-2.839 4.781-7.007 9.384-8.18 2.264-.577 5.326-1.522 6.806-2.099 1.479-.577 3.17-.753 3.757-.39.734.454.722-.099-.038-1.767-1.001-2.198-1.864-2.48-9.121-2.977-4.408-.302-8.503-1.038-9.101-1.636-1.11-1.11-1.955-1.184-4.798-.425M144 550.094c0 .498.9.906 2 .906s2-.173 2-.383c0-.211-.9-.619-2-.907-1.1-.287-2-.115-2 .384m127.75 2.568c.688.278 1.813.278 2.5 0 .688-.277.125-.504-1.25-.504s-1.937.227-1.25.504m6.063.021c.721.289 1.584.253 1.916-.079.332-.332-.258-.568-1.312-.525-1.165.048-1.402.285-.604.604" fill-rule="evenodd"/>
<path fill="#292b26" stroke="#292b26" d="M204.975 45.565c-.536 1.411-.985 2.873-.998 3.25-.076 2.248-13.004 17.473-18.705 22.031-6.999 5.594-11.617 9.426-19.154 15.893-6.453 5.538-16.871 16.273-19.406 19.998-3.455 5.076-3.756 3.903-1.15-4.487 4.539-14.609 3.04-14.759-9.262-.927-17.943 20.171-24.126 30.523-29.702 49.727-1.988 6.847-4.071 13.247-4.628 14.222-.558.974-1.29 3.787-1.628 6.25-.338 2.463-1.07 4.478-1.629 4.478-1.423 0-.147-18.832 1.831-27 2.843-11.746 2.942-13.24.853-12.838-1.087.209-3.373 3.226-5.567 7.347-2.048 3.845-5.093 9.558-6.768 12.696-13.729 25.72-17.492 72.765-6.763 84.545 2.059 2.26.412 3.474-1.849 1.363C78.556 240.346 66.158 234 64.599 234c-6.062 0 11.257 25.728 23.898 35.5l6.468 5-3.732.257C84.989 275.186 81 276.044 81 276.96c0 2.229 17.611 10.04 22.636 10.04 1.675 0 2.863 1.047 4.255 3.75 1.062 2.063 3.294 5.263 4.959 7.112l3.028 3.362-2.82 2.638c-2.885 2.698-10.945 14.085-13.587 19.193-.98 1.897-1.471 5.898-1.471 12.001 0 9.631.222 9.017-6.032 16.67-2.694 3.296-11.945 23.916-12.801 28.53-2.169 11.701-2.806 16.849-2.133 17.265.389.24.995 1.872 1.345 3.625 1.458 7.287 8.517 13.318 17.839 15.241 10.233 2.11 36.05-2.39 39.828-6.942 1.129-1.361 1.519-1.181 3.205 1.483 2.17 3.427 2.76 1.918-6.938 17.741-2.641 4.308-5.151 10.34-6.798 16.331-3.006 10.938-4.941 15.597-7.771 18.705-1.716 1.885-1.902 2.972-1.279 7.5.401 2.912.855 7.951 1.008 11.197.299 6.317 1.069 7.371 8.238 11.266 3.948 2.145 5.726.857 2.287-1.658-6.015-4.398-7.149-5.738-5.415-6.404 1.008-.386 1.387-1.243.998-2.255-.344-.898.095-2.733.976-4.079 1.862-2.841 1.133-4.184-1.41-2.596-1.466.916-2.131.561-3.964-2.114-2.825-4.123-2.065-8.85 1.894-11.777 1.539-1.138 3.316-3.319 3.949-4.848.634-1.529 2.799-4.397 4.813-6.374 2.013-1.976 5.686-5.993 8.161-8.925 6.026-7.14 8.088-8.482 9.46-6.157 3.368 5.703 5.32 8.046 6.969 8.363 2.089.402-.55-4.885-4.815-9.647-1.735-1.937-1.833-2.444-.617-3.195.795-.491 1.207-1.132.915-1.423-.774-.775-10.17 6.506-13.944 10.805-4.926 5.61-6.949 6.404-5.965 2.342 1.756-7.247 5.595-16.505 8.699-20.978 2.734-3.939 3.298-5.674 3.298-10.136 0-2.961.672-6.672 1.494-8.248.821-1.575 1.496-3.835 1.5-5.022.006-2.285 9.74-15.319 11.482-15.375 1.697-.055 4.946-3.291 6.262-6.237 1.755-3.928 5.946-5.381 9.593-3.326 3.349 1.888 6.807 2.058 8.449.416.906-.906 1.798-.848 3.85.25 1.469.787 5.076 1.43 8.017 1.43h5.347l.003 3.25c.002 2.406-.452 3.266-1.747 3.313-1.376.05-1.283.252.435.944 3.308 1.333 4.388 4.066 2.77 7.009-.948 1.724-1.199 4.474-.823 8.984.299 3.575-.151 12.336-.999 19.469-.893 7.509-1.164 13.203-.643 13.525.53.327.469 6.501-.149 15.031-1.225 16.922-1.498 43.63-.508 49.725l.691 4.25-13.262-.001c-7.442-.001-16.992-.667-21.762-1.518-4.675-.834-9.975-1.715-11.777-1.957-1.802-.241-3.602-.639-4-.883-.398-.244-2.446-.716-4.552-1.049-2.106-.334-4.694-1.069-5.75-1.634-1.32-.707-1.921-.704-1.921.007 0 .569.41 1.035.911 1.035.501 0 1.891 2.025 3.089 4.5s2.588 4.5 3.089 4.5c1.888 0 .813 2.715-1.582 3.996-6.665 3.567-6.528 9.974.303 14.195 1.966 1.216 5.653 4.056 8.194 6.312l4.619 4.103-2.3 1.735c-3.164 2.387-10.274 13.048-10.576 15.858-.506 4.713 17.594 3.096 29.136-2.602 18.498-9.132 18.537-9.17 17.758-17.553-.361-3.883-1.321-8.969-2.134-11.302s-1.484-6.829-1.492-9.992L183 504h7.965c6.941 0 8.102.257 9.035 2 1.392 2.601 22.339 3.021 26.846.537 2.731-1.505 16.999-3.665 18.489-2.799 1.266.736-.329 12.132-2.456 17.549-1.033 2.633-1.893 6.008-1.911 7.5-.017 1.492-.692 3.587-1.5 4.654-.807 1.068-1.468 2.755-1.468 3.75 0 .995-.441 1.809-.981 1.809-.539 0-1.257 1.101-1.595 2.446-.839 3.345 1.887 7.016 5.345 7.197 1.502.079 5.431 1.132 8.731 2.341 13.913 5.098 31.698 6.892 34.527 3.484 1.934-2.331-.6-8.811-5.822-14.891-6.763-7.872-6.745-7.732-1.609-12.698 2.491-2.409 5.942-6.404 7.669-8.879 1.727-2.475 3.764-5.135 4.527-5.911.842-.857 1.199-2.626.908-4.5-.802-5.161 7.329-19.873 11.963-21.646 1.862-.712 2.101-1.426 1.722-5.135-.781-7.654-2.543-18.251-3.398-20.435-.887-2.268.419-4.373 2.713-4.373.715 0 1.3-.618 1.3-1.374 0-1.932-4.979-10.626-6.085-10.626-1.56 0-1.019 1.953 1.606 5.803l2.521 3.697-4.225 1.246c-3.164.932-4.488.958-5.271.103-.747-.816-.689-.941.204-.437 2.931 1.655.933-.445-2.36-2.48-1.985-1.227-4.797-3.335-6.25-4.684-1.452-1.35-4.44-3.368-6.64-4.485-2.2-1.118-5.553-3.387-7.451-5.044-2.446-2.134-3.581-2.622-3.897-1.676-.494 1.483 3.323 4.948 15.592 14.155 4.534 3.402 8.501 7 8.817 7.994.646 2.036 3.431 2.486 3.454.558.03-2.42 1.971 1.691 3.896 8.25 1.956 6.664 3.307 18.253 2.036 17.468-.39-.242-2.324.845-4.298 2.414-5.774 4.588-42.829 13.916-62.421 15.714-4 .367-7.514 1.058-7.809 1.535-.295.478-5.376.869-11.29.869h-10.753l-2.292-3.1c-3.265-4.417-4.18-14.626-1.487-16.593 1.047-.765 3.703-3.071 5.903-5.126 7.291-6.808 15.199-13.181 16.358-13.181.628 0 1.142-.434 1.142-.965 0-.531 1.41-2.571 3.133-4.534 3.477-3.96 3.353-5.98-.142-2.317l-2.211 2.316.409-3.75c.286-2.619.018-3.75-.89-3.75-.714 0-1.33.788-1.368 1.75-.212 5.38-1.108 7.984-3.44 10-1.431 1.238-2.271 2.25-1.865 2.25.406 0-1.221 1.463-3.615 3.25-2.394 1.788-6.39 5.134-8.881 7.436-2.491 2.302-4.889 3.963-5.329 3.691-.441-.272-.777-7.781-.747-16.686.048-14.534.684-23.188 2.576-35.056.373-2.345.191-4.128-.464-4.532-.761-.471-.632-3.166.437-9.135 1.011-5.642 1.311-11.138.9-16.468-.436-5.651-.209-9.175.772-12 .764-2.2 1.196-5.872.961-8.159l-.429-4.159 5.847-1.164c3.215-.641 7.298-1.542 9.072-2.004 3.572-.93 7.274-.318 7.274 1.203 0 1.453-6.037 6.997-10.027 9.208-2.532 1.404-3.021 2.029-1.805 2.308.917.21 3.954-1.261 6.75-3.269l5.082-3.652.015 10.844c.011 7.371.326 10.364.985 9.344.533-.825.981-4.65.996-8.5.043-11.592.816-14.391 4.392-15.914 1.712-.73 6.604-4.647 10.871-8.706 4.268-4.059 9.347-8.676 11.287-10.26 4.374-3.572 3.795-4.698-.73-1.42-1.824 1.321-4.554 3.017-6.066 3.77-1.512.752-2.75 1.68-2.75 2.062 0 3.659-45.452 15.916-48.333 13.035-.587-.587-2.505-1.067-4.263-1.067-2.741 0-3.653-.712-6.413-5.013-1.769-2.758-3.739-5.345-4.378-5.75-2.334-1.481-4.478-6.062-5.667-12.108-1.376-6.992-1.202-7.394 3.307-7.662 4.736-.281 20.349-2.334 35.247-4.634 7.15-1.104 14.763-2.187 16.919-2.406 8.167-.832 21.441-7.105 25.321-11.968 1.518-1.902 3.321-3.459 4.007-3.459 2.427 0 9.605-7.568 11.856-12.5l2.282-5 .057 4.185c.079 5.722-2.459 17.302-4.816 21.969-3.132 6.204-3.531 8.346-1.554 8.346.939 0 2.263-.76 2.943-1.689 1.773-2.426 4.226 8.534 5.636 25.189.747 8.815 1.551 13.363 2.498 14.127 1.729 1.395 4.351 11.171 4.351 16.222 0 2.063.499 4.25 1.109 4.86.611.611 1.461 5.313 1.889 10.45.534 6.392 1.446 10.592 2.891 13.302 1.212 2.275 2.111 5.804 2.111 8.287v4.325l-5.953-4.954c-7.949-6.616-9.819-7.142-12.669-3.568-2.295 2.878-3.705 6.459-2.534 6.437.361-.007 1.673-1.582 2.915-3.5 1.243-1.919 2.681-3.488 3.197-3.488 1.92 0 16.256 13.637 18.135 17.25 1.072 2.063 2.316 3.75 2.763 3.75 2.055 0 1.95-1.659-.356-5.593-1.643-2.805-2.498-5.774-2.498-8.679 0-2.428-.96-7.073-2.133-10.321-2.247-6.22-3.328-11.758-4.863-24.907-.513-4.4-2.097-11.6-3.52-16-4.491-13.893-4.605-33.446-.22-37.532 1.204-1.121 3.513-1.968 5.364-1.968 3.035 0 3.272.249 3.562 3.75l.31 3.75 6.399.706c7.781.858 10.681 3.238 14.609 11.991 3.159 7.039 8.21 14.803 9.63 14.803 1.207 0 .14-3.893-1.645-6-1.47-1.734-8.494-15.571-8.491-16.725.001-.426 1.913-1.988 4.25-3.47 4.831-3.065 12.245-9.805 10.785-9.805-.532 0-2.446 1.253-4.252 2.783-8.022 6.798-11.553 8.415-14.358 6.577-1.407-.922-5.342-1.943-8.743-2.268-6.071-.581-6.19-.65-6.492-3.768-.504-5.203-3.742-6.017-11.373-2.859-1.341.555-1.763.022-2.09-2.635-.336-2.734-.438-2.503-.569 1.295-.196 5.674-1.185 10.875-2.066 10.875-.361 0-1.709-4.19-2.994-9.311l-2.338-9.311 2.119-8.379c1.253-4.955 2.119-11.538 2.119-16.108 0-4.25.273-8.439.607-9.309.87-2.266 3.393-1.955 3.393.418 0 1.1.337 2.015.75 2.032 10.3.445 30.779.282 29.85-.237-.694-.388-7.413-.771-14.931-.851-9.544-.102-13.668-.493-13.665-1.295.008-2.468 4.035-7.649 5.946-7.649 1.089 0 2.433-.847 2.987-1.882 1.468-2.742 2.873-2.969 9.68-1.562 17.262 3.568 44.683 22.796 50.114 35.14 1.454 3.307 1.721 3.51 2.04 1.554.419-2.562 1.474-2.865 3.111-.893 2.073 2.498 7.118 17.905 7.118 21.738 0 5.015-1.341 5.632-3.008 1.384-1.234-3.144-7.992-10.857-7.992-9.12 0 .413 1.8 3.735 4 7.383 2.2 3.647 3.998 7.785 3.996 9.195-.012 8.705-15.545 20.642-29.496 22.668-3.741.544-4.424.874-2.711 1.311 2.676.683 3.843 12.674 2.052 21.077-1.085 5.087 1.034 8.007 5.81 8.007 1.337 0 3.664.912 5.173 2.028 5.82 4.303 13.982 3.802 16.838-1.034.973-1.647 2.556-2.994 3.518-2.994.962 0 2.206-.853 2.764-1.895.557-1.042 2.311-2.347 3.897-2.9 8.85-3.085 9.214-24.889.696-41.705-2.879-5.684-3.545-8.115-3.541-12.932.007-9.969-5.581-23.941-10.661-26.653-1.458-.778-5.803-4.546-9.655-8.373-10.908-10.839-16.2-14.4-30.973-20.838-7.542-3.287-12.135-4.704-15.25-4.704-5.118 0-5.048.113-2.616-4.22 1.013-1.804 2.452-7.043 3.199-11.642 1.309-8.065 2.752-11.055 8.276-17.138.749-.825 3.122-4.875 5.273-9s4.235-7.743 4.631-8.041c.397-.297 2.074-3.821 3.727-7.83s4.591-9.9 6.529-13.09c5.511-9.072 4.691-10.392-2.476-3.986-10.958 9.795-14.39 12.431-13.597 10.447 3.327-8.334.759-36.496-4.379-48-.982-2.2-2.111-5.125-2.509-6.5-.398-1.375-3.711-8.687-7.361-16.25-7.782-16.122-9.548-17.363-10.667-7.5-.785 6.915-2.405 11.196-2.457 6.492-.043-3.949-4.772-23.449-6.449-26.592-.777-1.458-2.677-5.69-4.222-9.407-1.546-3.716-4.057-8.216-5.582-10-1.525-1.783-2.773-3.551-2.775-3.927-.001-.376-3.152-4.506-7.002-9.178-3.85-4.671-7-8.906-7-9.411 0-.504-.891-1.723-1.979-2.708-2.586-2.341-2.908-1.401-3.252 9.481l-.269 8.5-2.149-4.649c-1.182-2.557-3.044-5.544-4.137-6.637-1.094-1.094-2.377-2.656-2.851-3.472-.832-1.429-11.474-13.637-16.121-18.49-1.242-1.297-4.164-4.922-6.494-8.055-6.119-8.228-8.056-9.146-9.773-4.632M232 189.012c0 .617-1.529.767-3.915.386-3.776-.604-4.014-.471-6.677 3.738-4.44 7.017-12.943 31.83-15.817 46.154-2.793 13.919-3.909 14.479-8.894 4.46-3.614-7.264-10.828-18.055-16.651-24.905-1.709-2.011-4.271-5.386-5.695-7.5-1.423-2.115-3.191-4.52-3.927-5.345a616.037 616.037 0 0 1-5-5.752c-5.585-6.487-15.421-7.533-19.693-2.093a521.749 521.749 0 0 1-5.501 6.792c-5.027 6.11-10.396 16.938-14.226 28.688-1.769 5.426-3.618 10.646-4.11 11.601-1.101 2.138-1.192 12.764-.11 12.764.432 0 1.517 1.238 2.413 2.75.895 1.512 3.432 4.645 5.638 6.961 3.934 4.131 5.304 8.578 5.173 16.789-.104 6.502 1.181 9.221 5.708 12.082 2.491 1.575 5.165 3.833 5.941 5.017.776 1.185 3.421 3.424 5.877 4.977 4.68 2.958 6.102 7.388 3.278 10.212-.917.917-.746 1.649.75 3.212 2.827 2.953 3.616 3.684 6.938 6.429l3 2.479-3.599-.56c-3.222-.502-4.078-.105-8.189 3.796-6.804 6.457-12.308 10.856-13.584 10.856-2.479 0-.891-2.649 3.124-5.21 5.721-3.649 13.211-10.867 12.094-11.655-.496-.349-1.759-2.58-2.808-4.958-3.983-9.027-7.57-9.672-19.763-3.552-7.582 3.805-8.598 4.071-6.669 1.747.743-.895 3.935-2.748 7.094-4.118 7.016-3.043 6.718-4.277-2.182-9.038-12.188-6.52-19.656-1.776-29.405 18.677-4.975 10.437-1.988 21.065 8.637 30.738 2.338 2.128 5.462 5.493 6.944 7.478 1.481 1.985 4.294 4.369 6.25 5.297 1.956.928 3.556 2.082 3.556 2.563 0 1.547 6.922 3.219 10.771 2.602 2.051-.329 5.079-.181 6.729.329 3.408 1.054-.055 1.4-16.327 1.63l-8.326.118-4.912-5.511c-2.702-3.031-5.689-7.564-6.639-10.074-2.052-5.421-7.242-14.063-8.445-14.063-.468 0-.858 1.238-.866 2.75-.021 3.756-1.915 6.758-2.051 3.25-.09-2.323-.201-2.262-1.562.856-.805 1.845-2.268 3.565-3.25 3.822-1.79.468-3.777 4.381-9.265 18.241-4.014 10.137-3.386 11.849 2.141 5.831 2.399-2.613 4.768-4.75 5.263-4.75.829 0-1.928 3.279-8.261 9.826-6.813 7.043-1.029 22.68 9.96 26.921 6.686 2.582 19.355 2.365 21.907-.374 1.04-1.117 3.409-2.606 5.262-3.309 8.398-3.184 20.277-11.997 16.009-11.877-16.266.46-33.634-8.041-36.302-17.767-1.02-3.721.352-2.862 3.762 2.356 4.555 6.971 10.625 9.93 23.162 11.294 12.127 1.32 12.803 1.059 23.376-9.029 4.05-3.864 7.816-6.86 8.369-6.658.553.201 1.543-.209 2.2-.913.96-1.027.223-1.286-3.741-1.317-7.083-.055-9.555-1.687-3.85-2.543 3.272-.491 5.868-1.922 10.217-5.634 3.207-2.737 6.132-4.981 6.5-4.987 1.939-.034 4.119-7.629 3.248-11.318-1.324-5.608-1.464-5.581-8.682 1.673-5.899 5.928-9.376 8.111-9.408 5.906-.006-.413 3.925-4.422 8.735-8.91l8.746-8.159-2.147-3.841c-2.462-4.403-4.875-21.463-3.853-27.234 2.411-13.61 4.608-14.957 25.03-15.336 14.503-.27 15.215-.383 21.5-3.423 6.944-3.358 11.357-4.733 10.442-3.254-.308.499-1.286.907-2.172.907-.887 0-2.371.686-3.298 1.525-4.67 4.227-12.926 5.982-26.889 5.718-10.673-.202-13.894.058-15.75 1.274-2.608 1.709-3.075 3.483-.916 3.483.779 0 1.603.563 1.832 1.25.539 1.622 19.633 2.677 29.251 1.616 4.35-.479 10.153-2.115 15.329-4.319 4.581-1.951 9.012-3.547 9.846-3.547 2.158 0 7.325-3.217 7.325-4.561 0-1.713-3.411-4.437-5.579-4.454-3.443-.028-4.911-1.658-1.995-2.216 8.775-1.677 16.966 13.093 17.04 30.731.024 5.583.4 8 1.247 8 2.01 0 11.322-8.633 15.639-14.5 2.226-3.025 4.562-6.024 5.19-6.664.628-.64 1.422-6.055 1.764-12.034.839-14.656 2.263-20.741 5.794-24.763 1.595-1.817 2.9-3.704 2.9-4.193 0-3.278 9.135-10.555 10.492-8.359.272.44-.572 1.067-1.876 1.395-2.606.654-4.689 3.38-6.401 8.375-1.085 3.168-1.048 3.239 1.375 2.631 5.766-1.447 9.647 10.809 4.324 13.658-2.52 1.349-3.438.671-2.374-1.753.433-.986.77-2.355.749-3.043-.196-6.346-.219-6.391-2.997-6.066-2.296.268-2.873.999-3.796 4.811-.695 2.867-1.706 4.614-2.793 4.824-1.322.254-1.703 1.401-1.703 5.12v4.792l3.75-.74c5.922-1.169 7.475-2.03 11.953-6.62 9.777-10.022 10.056-39.397.373-39.366-3.917.013-9.408 4.712-10.664 9.124-2.424 8.52-4.628 13.757-6.508 15.458-1.856 1.68-1.904 1.531-1.904-5.901 0-6.391.244-7.529 1.511-7.043 1.071.411 1.336.121.908-.994-.333-.866.164-3.89 1.104-6.719 1.701-5.121 1.697-5.176-1.005-12.063-1.493-3.805-3.581-7.919-4.639-9.142-1.059-1.224-3.494-4.7-5.411-7.725-1.917-3.025-4.044-5.95-4.726-6.5-.683-.55-2.771-2.8-4.639-5C245.141 192.769 232 183.959 232 189.012m-3 12.881c0 4.994.957 6.191 4.832 6.044 1.18-.045 1.01-.328-.582-.968-2.252-.905-2.62-2.072-2.281-7.219.1-1.512-.302-2.75-.894-2.75-.62 0-1.075 2.069-1.075 4.893m-8 1.024c0 .504.563 1.106 1.25 1.337.863.291 1.207 2.639 1.111 7.574-.077 3.956.258 6.907.75 6.603 1.233-.762 1.119-12.133-.146-14.497-1.066-1.992-2.965-2.643-2.965-1.017m19.998 9.166c-3.394 5.082-6.537 10.18-6.984 11.329-.448 1.148-1.939 3.729-3.313 5.734-1.375 2.005-3.959 6.73-5.744 10.5-1.784 3.77-4.009 7.979-4.945 9.354-.936 1.375-3.426 6.898-5.535 12.274-4.162 10.611-5.275 11.347-7.184 4.755-.687-2.376-1.541-4.592-1.896-4.924-.355-.333-.383.295-.062 1.395.744 2.552 1.643 11.418.989 9.75-.27-.687-1.13-1.25-1.911-1.25-.839 0-1.914-1.843-2.624-4.5-.715-2.672-1.784-4.5-2.632-4.5-1.797 0-.829 8.955 1.101 10.18.76.484.031.795-1.883.805-3.383.016-4.375-2.15-4.375-9.551 0-3.917-1.942-5.738-2.125-1.993-.233 4.774-.373 5.059-2.646 5.381-3.453.49-9.511-2.859-12.792-7.072-1.615-2.075-3.877-4.329-5.026-5.011-2.925-1.735-18.411-20.474-18.411-22.278 0-.37-1.257-2.313-2.794-4.317-1.537-2.004-3.327-4.882-3.978-6.394-1.971-4.573-6.378-2.915-8.881 3.342-.879 2.195-1.827 3.762-2.107 3.482-.772-.772 1.819-6.635 4.673-10.574 2.506-3.458 2.508-3.476.167-1.5-2.843 2.401-7.708 12.791-6.222 13.286.567.189.775 1.006.465 1.816-.724 1.886 2.118 5.041 5.251 5.827 2.214.556 3.553 3.571 1.586 3.571-2.992 0-4.579 20.036-2.24 28.279 1.427 5.027.805 7.717-.835 3.616-.934-2.334-.96-2.319-1.015.605-.098 5.166 5.94 12.201 9.349 10.893 1.802-.692 2.101-2.953.519-3.931-5.061-3.128-6.685-25.248-2.455-33.429 2.029-3.924 1.982-3.936 9.017 2.265 3.3 2.909 9.391 7.52 13.535 10.246 10.322 6.79 10.887 7.126 15.715 9.369 4.237 1.968 4.842 3.162 4.284 8.448-.122 1.154.308 1.694 1.134 1.423.733-.241 1.471-1.842 1.641-3.557.317-3.198 3.191-3.685 3.191-.541 0 1.217 1.344 1.377 7.75.922 10.596-.752 12.562-1.019 13.932-1.89.698-.444 1.796.126 2.686 1.397.952 1.359 2.101 1.919 3.129 1.524 1.609-.617-.276-5.863-2.772-7.713-.426-.316.432-2.341 1.907-4.5s4.127-7.085 5.894-10.945c1.767-3.861 3.947-7.629 4.844-8.373.896-.744 1.63-1.796 1.63-2.337 0-2.293 14.407-18.771 16.412-18.771.561 0 .496.492-.152 1.14-.853.853-.344 1.677 2.028 3.275 5.109 3.443 6.907 9.757 7.072 24.832.121 11.04.357 12.747 1.765 12.75 2.36.005 3.014-4.817 2.252-16.605-.724-11.196-4.486-20.679-9.109-22.958-2.014-.993-2.09-1.288-.782-3.017 2.564-3.389.872-15.878-2.573-18.996-1.625-1.47-2.166-.946-7.915 7.662m12.568-5.583c.467 1.1 1.015 5.488 1.218 9.75.264 5.557.741 7.75 1.685 7.75 1.616 0 2.793-2.767 1.836-4.315-.385-.624-1.032-3.575-1.437-6.558-.406-2.996-1.5-6.14-2.444-7.025-1.581-1.483-1.645-1.453-.858.398M157.221 217c.229 2.049.82 2.5 3.279 2.5s3.05-.451 3.279-2.5c.257-2.295.166-2.356-1.11-.75-.764.963-1.74 1.75-2.169 1.75-.429 0-1.405-.787-2.169-1.75-1.276-1.606-1.367-1.545-1.11.75m73.336 2.418c2.095 1.532 3.044 1.364 1.984-.351-.362-.587-1.393-1.067-2.291-1.067-1.365 0-1.315.232.307 1.418m32.611 6.633c.585 1.678 1.258 2.856 1.496 2.618.703-.703-.804-5.669-1.72-5.669-.462 0-.361 1.373.224 3.051m-121.001 18.213-1.07 4.236 1.929-2.5c2.099-2.72 2.472-4.574 1.092-5.427-.485-.3-1.363 1.361-1.951 3.691M173 242.167c0 .458.675.833 1.5.833s1.5-.375 1.5-.833c0-.459-.675-.834-1.5-.834s-1.5.375-1.5.834m104 6.392c0 .857.45 1.281 1 .941.55-.34 1-1.041 1-1.559s-.45-.941-1-.941-1 .702-1 1.559m-11 4.639c0 1.823-.442 4.857-.983 6.742-1.042 3.635-.626 5.069.999 3.444 1.317-1.317 2.083-12.205.91-12.93-.509-.314-.926.92-.926 2.744m-141.457.733c-.317.512-.118 1.213.441 1.559.559.345 1.016-.074 1.016-.931 0-1.757-.6-2.015-1.457-.628m102.819 8.569c-.876 2.281.349 4.5 2.484 4.5 2.887 0 4.719-2.614 3.154-4.5-.685-.825-2.104-1.5-3.154-1.5-1.05 0-2.168.675-2.484 1.5m-115.684 10.042c-6.232 7.503-5.562 14.95 1.96 21.796 2.399 2.183 4.362 4.575 4.362 5.316 0 .74.45 1.346 1 1.346s1-.388 1-.863c0-.474 2.925-2.302 6.5-4.062 5.934-2.922 8.218-5.075 5.382-5.075-.615 0-2.656-1.35-4.535-3-2.815-2.472-4.291-3-8.382-3-5.673 0-6.643-1.595-1.552-2.55 4.415-.828 6.915.021 11.235 3.814 2.84 2.494 3.685 2.815 4.393 1.67.515-.833.481-1.812-.083-2.376-.527-.527-.958-1.975-.958-3.217 0-3.031-3.189-9.286-4.75-9.316-.687-.014-1.25-.431-1.25-.927 0-1.2-5.635-3.116-8.899-3.026-1.682.047-3.598 1.273-5.423 3.47M251 270c-1.282.828-1.246.972.25.985.963.008 1.75-.435 1.75-.985 0-1.22-.113-1.22-2 0m-78.299.632c-1.436 1.437-.631 4.255 1.4 4.9 2.83.898 4.717-1.011 3.269-3.31-1.187-1.885-3.564-2.695-4.669-1.59m73.806 1.357c-.35.566.051.734.941.393 1.732-.665 2.049-1.382.611-1.382-.518 0-1.216.445-1.552.989m-17.878 3.802c-.269.435 1.055.611 2.941.391 1.887-.221 3.43-.577 3.43-.791 0-.753-5.887-.383-6.371.4m-3.816.892c.721.289 1.584.253 1.916-.079.332-.332-.258-.568-1.312-.525-1.165.048-1.402.285-.604.604m-31.448 2.681c-1.576 1.356-2.514 2.818-2.085 3.248.429.43 1.981-.418 3.447-1.885 3.467-3.466 2.364-4.57-1.362-1.363m67.077-1.458c.308.498 1.46.671 2.559.383 2.752-.719 2.504-1.289-.56-1.289-1.407 0-2.307.408-1.999.906M245 279c0 .55.702 1 1.559 1s1.3.419.984.931c-1.253 2.027 1.198 1.776 4.975-.51l3.982-2.411-5.75-.005c-3.17-.003-5.75.444-5.75.995m-69.5 2.92c-1.1.436-5.825 1.366-10.5 2.066-9.526 1.428-14.692 3.492-6.5 2.597 10.437-1.14 18.933-2.665 19.457-3.493.298-.472 1.443-1.083 2.543-1.358 1.631-.408 1.538-.51-.5-.553-1.375-.029-3.4.305-4.5.741m69.5 3.781c0 .65.392 1.423.871 1.719.479.296 1.143 1.898 1.475 3.559.332 1.662 1.065 3.021 1.629 3.021 1.92 0 1.033-4.079-1.475-6.783-1.375-1.483-2.5-2.165-2.5-1.516M197.5 289c-.34.55-.141 1 .441 1s1.059-.45 1.059-1-.198-1-.441-1-.719.45-1.059 1m-52.273 1.993c.876 1.402 1.841 1.793 3.259 1.32 1.108-.37 4.873-.602 8.368-.515 5.503.137 6.19-.04 5.128-1.32-.904-1.089-3.434-1.478-9.613-1.478-8.125 0-8.347.062-7.142 1.993M164 289.869c0 1.158 7.267 2.301 7.959 1.252.298-.452 1.216-1.078 2.041-1.392.825-.314-1.088-.607-4.25-.65-3.162-.043-5.75.312-5.75.79m-35.5 8.076c-3.092 1.463-3.5 1.911-1.8 1.974 1.21.045 2.56.698 3 1.452.794 1.361 15.914 9.629 17.608 9.629.486 0 2.129.887 3.651 1.97 1.521 1.084 3.053 1.684 3.404 1.334 1.622-1.622.204-3.606-4.92-6.884-3.057-1.955-5.79-4.162-6.075-4.904-.634-1.652-7.841-6.526-9.597-6.49-.699.015-3.071.878-5.271 1.919m36.124 1.594c-.343.893-.585 2.375-.538 3.293.047.917.482.341.967-1.282.943-3.156.609-4.718-.429-2.011m151.262 4.858c2.264 7.318 4.455 9.603 9.204 9.603 4.879 0 8.279 1.332 13.054 5.114 4.144 3.282 5.329 2.619 1.592-.892-3.176-2.984-8.983-5.222-13.549-5.222-4.073 0-7.187-2.283-7.187-5.27 0-.886-.45-1.89-1-2.23-.55-.34-1-1.436-1-2.437 0-1-.632-2.343-1.405-2.984-1.12-.93-1.061-.052.291 4.318m-50.542 7.112c-.637 1.371-.751 2.243-.256 1.937 1.319-.816 3.117-4.447 2.197-4.438-.432.004-1.305 1.13-1.941 2.501M279.35 316c-.605 1.375-1.428 4.525-1.829 7l-.729 4.5 2.158-2.266c1.719-1.805 2.091-3.23 1.829-7-.305-4.395-.407-4.555-1.429-2.234m-80.806 2.607c-3.275.792-6.2 1.81-6.5 2.263-.299.452-1.725 1.111-3.168 1.463-7.84 1.917-9.698 8.706-3.376 12.337 7.808 4.484 39.632 1.066 46.25-4.967 9.471-8.634-12.722-16.05-33.206-11.096m36.5 1.643c1.314 7.445 2.599 9.612 4.99 8.421 2.379-1.186 3.367-4.464 2.234-7.415-.381-.992-7.394-1.969-7.224-1.006m-112.97 2.05c-2.461 1.252-5.963 5.72-4.446 5.673 1.337-.041 7.931-5.748 7.332-6.346-.29-.29-1.588.013-2.886.673M350.5 329c.995 1.1 2.035 2 2.31 2 .275 0-.315-.9-1.31-2-.995-1.1-2.035-2-2.31-2-.275 0 .315.9 1.31 2m-177.466.459c-.735.886-.951 2.641-.55 4.468.728 3.316 4.012 4.526 10.583 3.9l3.433-.327-4.25-2.434c-3.076-1.762-4.25-3.074-4.25-4.75 0-2.685-3.017-3.206-4.966-.857M336 334c-.639 1.194-.937 2.396-.662 2.671.275.275 1.023-.477 1.662-1.671s.937-2.396.662-2.671c-.275-.275-1.023.477-1.662 1.671m-222.985 14.75c-.008 2.887.435 5.25.985 5.25 1.279 0 1.279-7.021 0-9-.694-1.074-.974-.008-.985 3.75m85.315-3.838c-3.943.323-7.467.886-7.829 1.25-.703.707 8.431.104 17.499-1.155 6.843-.949 1.397-1.003-9.67-.095m-58.156 1.838c-1.264 2.469-2.202 9.25-1.28 9.25.851 0 2.254-2.81 3.87-7.75 1.188-3.636-.882-4.835-2.59-1.5m45.231 4.596c.888 4.733 4.233 11.301 6.126 12.027 1.871.719 1.172-2.791-1.071-5.373-.716-.825-1.898-3.413-2.625-5.75-1.568-5.04-3.329-5.695-2.43-.904m-68.636-.39c-.691 2.461-.278 3.886.812 2.797.319-.32.423-1.632.229-2.917l-.351-2.336-.69 2.456m143.556.294c-3.244 6.35-4.361 9.303-4.05 10.704.199.898 1.23-.353 2.461-2.989 3.208-6.867 4.594-13.598 1.589-7.715m102.052 3.392C358.89 362.037 343.013 374 336.686 374c-2.548 0-2.902 1.584-3.062 13.7-.163 12.4.512 13.841 6.005 12.806a66.753 66.753 0 0 1 2.469-.429c.329-.043 1.41-1.877 2.402-4.077 1.13-2.507 2.472-4 3.595-4 .985 0 2.429-.91 3.208-2.022 1.209-1.726 1.59-1.812 2.607-.586.968 1.166.62 1.773-1.859 3.237C348.533 394.707 348.13 396 351 396c1.1 0 2 .45 2 1s-1.462 1.014-3.25 1.031c-4.426.043-7.887 4.29-4.83 5.926 5.002 2.677 11.199.342 13.273-5 .311-.802 2.888-2.351 5.727-3.443 7.818-3.008 9.499-6.473 8.738-18.014-.666-10.1-2.54-17.152-6.073-22.858l-2.389-3.857-1.819 3.857m-262.98 3.123c-1.524 1.016-2.725 10.914-1.422 11.72.648.4 1.025-1.208 1.025-4.367 0-4.838.836-6.31 3.842-6.765.738-.112 1.6-.462 1.916-.778.846-.846-4.067-.671-5.361.19m74.146 4.394c-1.891 5.781-1.754 6.013 4.713 8.005 5.155 1.587 5.502.696 1.867-4.792-1.718-2.593-3.123-5.286-3.123-5.984 0-3.384-1.957-1.815-3.457 2.771M112 359.698c0 1.339 2.749 4.887 3.332 4.3.273-.274-.365-1.56-1.418-2.859-1.053-1.298-1.914-1.947-1.914-1.441m34.861 5.269c-1.319 1.099-1.788 1.981-1.061 2 1.45.037 7.2-2.752 7.2-3.493 0-1.24-4.037-.259-6.139 1.493m67.639.7c-2.846.807-7.908 1.278-11.75 1.093-6.687-.322-8.838.447-4.5 1.61 5.292 1.418 22.829-1.07 24.298-3.448.761-1.231-1.976-.978-8.048.745m47.382 8.016c-.066 3.749-.066 7.154 0 7.567.405 2.568-1.777-.082-3.89-4.723-3.083-6.77-3.38-6.786-5.219-.277-1.416 5.014-1.629 5.243-4.737 5.091-4.01-.197-5.955-1.822-4.236-3.541 1.382-1.382 1.62-4.8.335-4.8-1.66 0-6.187 4.199-7.718 7.16-1.648 3.188-.647 5.84 2.205 5.84 1.8 0 1.76.238-.746 4.486-1.168 1.979-1.858 3.866-1.532 4.191.955.956 6.268-1.635 8.732-4.257 2.704-2.879 3.758-3.006 5.532-.67.731.962 1.343 1.232 1.36.599.066-2.368 7.197-5.599 9.563-4.333 1.786.956 3.028.748 7.019-1.177 5.696-2.747 6.316-3.955 3.417-6.655-1.737-1.618-1.936-2.374-1.057-4.016 1.482-2.769.465-4.864-2.732-5.625-1.473-.351-3.466-.872-4.428-1.158-1.539-.457-1.764.303-1.868 6.298m-31.132-4.967c-1.908.289-2.75 1.009-2.75 2.35 0 2.586 1.317 2.436 4.694-.534 1.543-1.358 2.356-2.416 1.806-2.351-.55.065-2.238.306-3.75.535m-64.083.951c-.367.366-.667 1.131-.667 1.7 0 .626.466.567 1.183-.15.651-.651.951-1.416.667-1.7-.284-.284-.817-.217-1.183.15M264 377c0 7.522.029 7.573 3.316 5.865 3.221-1.675 3.219-1.666.69-4.358-2.233-2.378-2.259-2.57-.588-4.417 1.669-1.844 1.657-1.979-.269-3.01-3.093-1.655-3.149-1.549-3.149 5.92m-9.385 1.536c-.391 1.63-.958 3.796-1.261 4.813-.48 1.608 2.554 1.738 4.4.189.14-.117-.35-1.957-1.088-4.089l-1.342-3.876-.709 2.963m-15.456 2.705c-.814.814-.303 1.602 1.915 2.95 1.664 1.012 2.751 2.283 2.416 2.824-.907 1.468.1 1.205 3.651-.955l3.189-1.939-2.915-.679c-1.603-.374-3.867-1.272-5.03-1.996-1.551-.964-2.412-1.019-3.226-.205M136.3 403.354c-.44.745-2.712 2.551-5.05 4.013-5.671 3.547-5.399 4.144.5 1.096 7.466-3.859 10.206-6.463 6.8-6.463-.798 0-1.81.61-2.25 1.354m12.7 46.782c-8.978 7.895-19.368 18.343-20.612 20.728-2.093 4.01-1.662 5.754.685 2.771 2.019-2.567 4.754-3.783 3.332-1.48-.433.699-.276.883.397.467.611-.377.872-1.308.58-2.069-.715-1.862 6.539-9.797 8.328-9.111.857.329 1.126.102.699-.589-.667-1.079 7.016-8.853 8.749-8.853 1.111 0 4.842-3.254 4.842-4.222 0-1.772-3.733-.515-7 2.358m73.404 27.633c-.019 3.702-.409 10.894-.867 15.981-.561 6.228-.496 9.25.199 9.25.596 0 1.325-4.323 1.728-10.25 1.096-16.132 1.096-19.59-.001-20.687-.7-.7-1.036 1.11-1.059 5.706m-78.591 23.914c.721.289 1.584.253 1.916-.079.332-.332-.258-.568-1.312-.525-1.165.048-1.402.285-.604.604m1.187 1.71c0 .216.698.661 1.552.989.89.341 1.291.173.941-.393-.587-.951-2.493-1.406-2.493-.596m106.283.308c-2.299.445-2.441.882-3.833 11.799-.35 2.75-1.066 5.521-1.589 6.157-.524.637-1.404 3.562-1.957 6.5a736.37 736.37 0 0 1-1.578 8.162c-.315 1.55-1.418 3.346-2.45 3.99-2.692 1.681-2.313 3.549.874 4.306 1.512.36 3.425 1.228 4.25 1.929 2.713 2.307 5.469 2.176 5.817-.277.505-3.551 6.98-8.267 11.352-8.267 2.042 0 3.991-.45 4.331-1 .34-.55 1.806-1 3.259-1 2.054 0 2.374-.267 1.441-1.2-.66-.66-1.2-2.01-1.2-3 0-1.522-.964-1.827-6.25-1.977l-6.25-.176 6.628-.574c6.003-.519 7.039-.955 11-4.628 4.487-4.162 11.205-12.387 9.01-11.03-.674.416-1.768.33-2.432-.193-.663-.522-3.906-1.243-7.206-1.601-7.553-.82-14.998-3.426-18.161-6.358-1.343-1.245-2.531-2.202-2.641-2.127-.109.075-1.196.329-2.415.565m-82.49 2.769c-6.179 3.174-24.078 7.862-27.887 7.303-5.775-.848-4.921 3.831 1.39 7.604 7.128 4.263 12.704 9.638 12.704 12.248 0 1.306.46 2.375 1.021 2.375 2.548 0 9.13 5.505 9.642 8.063l.543 2.718 7.712-3.86c4.617-2.311 8.241-4.85 9.033-6.329 1.812-3.386.566-14.12-2.021-17.408-1.448-1.84-1.93-4.045-1.93-8.819 0-7.543-1.783-8.223-10.207-3.895M148 506c-1.282.828-1.246.972.25.985.963.008 1.75-.435 1.75-.985 0-1.22-.113-1.22-2 0m3 2.213c0 1.043 1.159.972 2.987-.184 1.169-.739 1.009-.904-.75-.772-1.23.093-2.237.523-2.237.956m128.789-.044c-.859.557-.547.733.935.526 1.224-.17 2.461-.547 2.75-.836.861-.861-2.287-.596-3.685.31m-111.064 11.763c-5.474 3.116-7.36 4.767-6.466 5.66.344.345 2.114-.358 3.933-1.562l3.308-2.188-3.25 2.902c-1.787 1.596-3.25 3.206-3.25 3.579 0 1.381 2.746.615 4.417-1.232.95-1.049 2.977-2.426 4.505-3.059 2.108-.873 2.797-1.858 2.861-4.091.099-3.488.056-3.488-6.058-.009M150.75 539.08c-2.51 1.462-2.162 2.586 1 3.233 4.368.894 7.032 3.267 5.458 4.861-.905.918-1.503.983-2 .217-2.766-4.265-8.422-4.262-10.457.005l-1.62 3.397 4.418.662c2.515.377 5.18.219 6.185-.366 1.552-.903 1.463-1.034-.734-1.072-3.691-.065-7-1.115-7-2.222 0-1.17 7.941-.02 9.709 1.407 2.154 1.737 7.029-.053 7.549-2.772.856-4.48-8.249-9.83-12.508-7.35m107.646 1.953c-3.902 1.932-7.023 6.143-5.9 7.961.921 1.489 10.74 3.17 11.877 2.033.565-.565 1.725-1.03 2.577-1.033 2.885-.01 9.05-2.082 9.05-3.041 0-1.514-4.304-1.115-11.161 1.034-7.28 2.282-7.839 2.358-7.839 1.06 0-2.746 17.104-6.941 19.718-4.836.67.54 1.12 1.343 1 1.785-.12.442.232.849.782.904 2.329.233.708-2.505-3-5.068-4.965-3.433-11.195-3.724-17.104-.799m21.048 7.862c-.519.486-3.644 1.553-6.944 2.371l-6 1.487 4.658.723c5.344.83 10.849-.088 10.827-1.805-.027-2.051-1.544-3.709-2.541-2.776" fill-rule="evenodd"/>
</svg>