<!DOCTYPE svg PUBLIC "-//W3C//DTD SVG 1.1//EN" "http://www.w3.org/Graphics/SVG/1.1/DTD/svg11.dtd">
<svg xmlns="http://www.w3.org/2000/svg" viewBox="0 0 236 314">
<path fill="#fafbfb" stroke="#fafbfb" d="M100.5 40.109c-19.016 2.74-45.248 14.306-57 25.131-1.65 1.52-3.586 2.543-4.302 2.273-.716-.269-1.075-.124-.798.325.276.448-2.021 3.48-5.107 6.738-46.818 49.443-43.895 128.308 6.335 170.922 70.188 59.544 174.2 24.749 194.502-65.066 2.222-9.833 3.994-40.889 2.232-39.127-.409.408-1.577-3.387-2.597-8.434-12.22-60.489-71.394-101.678-133.265-92.762m2.972 4.862C20.209 56.838-22.073 149.562 23.887 219.5c35.655 54.255 112.653 66.634 163.772 26.329 66.236-52.224 54.472-154.638-21.916-190.809-18.271-8.651-43.506-12.723-62.271-10.049M99 48.512c-41.747 7.276-76.556 39.09-87.768 80.214-4.007 14.697-3.991 42.128.034 56.612 23.772 85.556 131.658 110.193 190.218 43.439 27.122-30.918 34.416-77.209 18.098-114.864C199.28 67.066 149.003 39.797 99 48.512m6.412 6.074c-.772.336-.711 2.419.213 7.193 2.061 10.647 1.825 14.865-.875 15.599-3.553.966-5.294-2.221-6.745-12.344-1.028-7.172-1.616-9.014-2.739-8.583-.786.302-2.293.549-3.348.549-2.354 0-2.379 1.012-.305 12.31C93.758 81 96.118 84 103.166 84c10.02 0 12.408-5.652 9.505-22.5-1.226-7.115-2.969-8.775-7.259-6.914m18.594 6.566a898.481 898.481 0 0 1-2.436 14.007l-1.227 6.66 2.799.559c10.895 2.179 15.455 1.949 17.69-.892 2.711-3.446 2.78-7.622.166-9.988-1.999-1.809-1.999-1.813.171-2.905 3.211-1.615 4.402-6.073 2.428-9.086-1.624-2.477-5.347-3.843-13.74-5.04l-4.643-.662-1.208 7.347m6.707.469c-2.291 2.29-.652 5.379 2.853 5.379 3.301 0 3.543-.205 3.25-2.75-.313-2.727-4.292-4.441-6.103-2.629M68.25 66.577c-8.964 4.933-8.973 4.945-6.699 8.192l1.55 2.213 5.092-2.58 5.091-2.58-.601 3.839c-3.254 20.781-2.272 22.4 9.643 15.905l8.649-4.714-1.513-2.926c-1.833-3.543-1.573-3.531-7.034-.331L78 86.19l.02-2.845c.011-1.565.457-5.869.992-9.566.909-6.29.005-11.821-1.923-11.761-.324.011-4.302 2.062-8.839 4.559m87.978-1.327c-10.355 17.387-10.796 22.819-2.217 27.256 7.43 3.842 11.768 1.138 18.783-11.709 4.959-9.081 4.966-9.13 1.577-10.674-3.187-1.452-2.626-2.001-8.261 8.093-3.778 6.769-5.06 8.284-7.008 8.284-5.029 0-4.974-2.863.245-12.598 2.666-4.973 4.691-9.174 4.5-9.336-.666-.566-4.719-2.566-5.2-2.566-.266 0-1.355 1.462-2.419 3.25m-27.675 8.395c-.835 3.328.406 4.602 4.075 4.183 4.019-.459 4.613-4.406.876-5.826-3.787-1.44-4.213-1.299-4.951 1.643m-82.126 8.438c-1.926 2.13-1.925 2.133 3.837 7.274 3.17 2.829 5.757 5.447 5.75 5.819-.008.372-3.951-.384-8.764-1.68L38.5 91.14l-2.322 2.464c-3.071 3.259-3.175 3.092 8.33 13.355l9.992 8.915 2.344-2.187 2.343-2.187-6.343-5.734c-3.489-3.153-5.99-5.741-5.558-5.75.433-.009 4.615.944 9.293 2.118l8.508 2.133 2.456-2.308c3.365-3.16 3.655-2.681-7.625-12.596-11.837-10.407-11.049-9.981-13.491-7.28M181.5 86.569c-11.115 5.769-13.579 16.513-5.469 23.84 4.815 4.35 5.077 4.371 7.308.594 1.753-2.967 1.746-3.007-.674-4.11-5.34-2.433-5.391-8.604-.105-12.762 4.517-3.553 9.747-1.711 11.689 4.117.281.842 1.23.796 3.567-.172 3.748-1.552 3.761-1.617 1.189-5.835-3.959-6.493-11.324-8.88-17.505-5.672m-78 4.073c-41.888 8.848-65.278 55.782-47.167 94.64 21.022 45.102 81.445 53.351 113.475 15.492 41.614-49.188-3.116-123.481-66.308-110.132m3 3.405c-46.982 9.73-67.871 63.049-39.662 101.234 32.345 43.783 102.374 28.166 113.783-25.375 9.233-43.331-31.229-84.741-74.121-75.859m89.189 17.764c-12.304 5.349-12.785 5.671-12.179 8.129.965 3.911 1.641 4.12 6.41 1.984 6.216-2.783 6.563-2.152 2.06 3.744-3.914 5.127-3.934 5.197-2.45 8.75 1.882 4.503 1.328 4.765 6.852-3.246l4.708-6.829 6.205.814c3.413.448 6.992 1.003 7.955 1.235 2.116.509 2.122.434.301-3.924-1.388-3.323-1.671-3.471-6.75-3.538-8.869-.118-9.776-1.158-3.337-3.827 4.867-2.017 5.516-2.602 4.948-4.462-1.389-4.547-1.615-4.529-14.723 1.17m-172.512 4.254C21.43 120.021 20 123.787 20 124.433c0 .924 13.96 7.34 24.105 11.078 1.58.583 2.135-.39 7.516-13.172 1.297-3.08 1.254-3.187-1.712-4.221-3.002-1.046-3.072-.992-5.11 3.911-2.058 4.952-3.094 5.704-5.639 4.091-1.086-.688-.951-1.609.716-4.877 1.899-3.723 1.925-4.065.339-4.522a37.623 37.623 0 0 1-3.297-1.15c-1.179-.489-1.985.373-3.169 3.387-1.625 4.136-2.299 4.614-4.518 3.206-.992-.63-.798-1.94.893-6.008 2.401-5.777 2.409-5.733-1.199-6.639-2.402-.602-2.779-.172-5.748 6.548m59.367 3.109c-2.176 1.147-7.102 3.155-10.946 4.463-6.507 2.213-8.545 3.575-8.583 5.735-.008.48.671.304 1.509-.392.838-.696 1.79-.999 2.116-.674.581.582-4.536 5.601-5.773 5.662-.349.018-.877.961-1.174 2.097-.515 1.969-.428 1.991 1.884.477 3.506-2.298 2.985-.079-.577 2.458-4.018 2.861-3.78 3.913.75 3.315 3.653-.482 3.962-.26 12 8.632 4.537 5.019 8.25 9.655 8.25 10.302 0 .646-1.357-.383-3.015-2.287L75.97 155.5l2.765 4.645c1.521 2.554 2.962 4.458 3.202 4.229.24-.228 2.181 1.282 4.312 3.356 3.776 3.673 3.848 3.697 2.806.936-.588-1.559-.843-3.2-.566-3.648.277-.448-2.42-7.176-5.993-14.951-7.163-15.588-7.179-15.647-4.892-18.912 1.483-2.117 1.196-2.059-3.831.778-2.989 1.687-5.961 3.067-6.604 3.067-1.937 0-1.315-1.819.858-2.509 1.115-.353 4.057-2.4 6.537-4.547 2.481-2.147 6.519-5.081 8.974-6.519 6.92-4.056 6.072-5.976-.994-2.251m11.988 17.083c-1.585 2.264-2.019 11.657-.692 15.011.595 1.505 1.42 1.037 5.528-3.134 5.342-5.424 5.259-6.62-.828-11.913l-2.475-2.151-1.533 2.187m43.07 4.706-4.897 4.787 3.315 4.125c1.823 2.269 3.678 4.125 4.122 4.125 1.656 0 4.201-6.662 4.278-11.199.119-6.993-1.185-7.345-6.818-1.838m-121.395-.306C12.488 150.163 15.588 157 23.616 157c4.599 0 6.874-1.941 9.386-8.005.804-1.94 1.877-2.974 2.888-2.781 2.331.444 2.449 3.738.287 7.958-1.872 3.653-1.871 3.675.221 4.236 5.488 1.474 7.602-1.261 7.602-9.835 0-11.057-12.262-13.262-17.203-3.093-3.714 7.645-7.569 5.697-4.284-2.166 1.749-4.186 1.786-4.104-2.176-4.897-2.638-.527-3.157-.246-4.13 2.24m191.045-1.121c-1.206.845-2.735 3.433-3.398 5.75-1.621 5.674-2.732 7.06-4.487 5.604-1.593-1.323-1.765-4.713-.418-8.257.861-2.263.667-2.558-2.071-3.16-3.621-.795-3.828-.627-4.86 3.948-1.785 7.913 2.043 14.779 8.239 14.779 6.174 0 8.398-2.283 10.181-10.45.646-2.962 3.252-3.722 4.209-1.227.322.838.124 3.337-.439 5.555l-1.023 4.032 3.622-.305c3.247-.273 3.698-.667 4.355-3.805 2.121-10.122-6.38-17.739-13.91-12.464M112 141.577c-7.611 2.298-19.738 14.548-21.551 21.769-1.204 4.798.262 7.639 5.03 9.748 4.401 1.947 4.406 1.947 7.712-.156l3.309-2.103-5 .624c-3.565.444-4.57.329-3.5-.402.825-.565 2.513-1.033 3.75-1.042 1.237-.008 2.25-.394 2.25-.856 0-.463-2.138-.512-4.75-.108-2.612.403-4.938.557-5.167.341-1.081-1.018 1.501-1.804 7.188-2.188 3.426-.232 6.656-.823 7.179-1.313 1.594-1.495 2.878-.991 1.55.609-.685.825-.852 1.532-.372 1.57.479.039-.028.457-1.128.93l-2 .859 2 .086c1.649.071 1.738.251.508 1.029-2.565 1.622.395 3.623 3.655 2.471 3.213-1.136 3.986-5.104 1.169-5.998-2.225-.707-2.371-2.755-.317-4.459 1.889-1.568-4.111-7.988-7.465-7.988-1.128 0-2.05-.45-2.05-1 0-4.537 11.068 2.563 11.342 7.276.087 1.497.608 2.723 1.158 2.723.55 0 1.071-1.226 1.158-2.723C117.932 156.563 129 149.463 129 154c0 .55-.912 1-2.027 1-1.115 0-3.541 1.44-5.391 3.201-3.134 2.982-3.265 3.354-1.905 5.428 1.329 2.029 1.275 2.326-.609 3.335-2.812 1.505-2.752 5.624.094 6.368 2.902.759 6.684-1.182 4.723-2.424-1.151-.729-1.132-.883.115-.908.883-.018 1.089-.333.5-.765-1.234-.907-1.586-4.235-.448-4.235.457 0 1.074.395 1.373.879.299.483 3.241 1.073 6.538 1.312 5.488.397 8.02 1.198 6.954 2.201-.229.216-2.571.06-5.203-.347-2.632-.406-5.003-.387-5.269.043-.265.431.953.924 2.709 1.097 1.756.173 3.378.881 3.605 1.573.316.962-.21 1.021-2.238.25-3.713-1.412-6.78-1.239-3.771.212 1.238.597 2.25 1.467 2.25 1.933 0 1.119-.718 1.068-3.13-.222-1.456-.78-2.389-.745-3.442.129-.859.712-2.873.967-4.962.628-2.066-.335-4.846.008-6.741.832-3.216 1.398-3.207 1.402 3.083 1.441 12.09.075 22.193-2.105 25.614-5.526 3.994-3.994-.555-15.694-9.279-23.865-3.02-2.829-3.068-3-1.385-5 1.727-2.052 1.723-2.054-.417-.247-1.94 1.637-2.448 1.677-5 .393-4.495-2.263-8.489-2.604-13.341-1.139m-39 .346c0 .508 1.619 3.045 3.598 5.638 1.979 2.592 4.453 6.114 5.496 7.826 2.327 3.815 2.532 1.735.265-2.687C78.304 144.79 73 138.682 73 141.923M.4 156.5c.001 8.25.156 11.492.344 7.204.188-4.287.187-11.037-.002-15-.19-3.962-.343-.454-.342 7.796m168.482-.119c-8.541 3.052-15.968 9.837-21.086 19.265-2.629 4.841-2.63 4.861-.691 7.246 1.07 1.315 2.046 2.215 2.17 2 .124-.216 1.27-2.472 2.547-5.015 5.998-11.945 16.836-18.391 24.339-14.476 3.067 1.6 3.8.325 3.825-6.651.014-3.677-.059-3.749-3.736-3.706-2.062.024-5.378.626-7.368 1.337M83.782 169c7.752 13.883 8.497 14.945 10.494 14.985 1.239.024-2.205-6.093-6.151-10.925-6.008-7.357-6.376-7.702-4.343-4.06m-54.775 3.75c-1 2.702-1.722 3.25-4.279 3.25h-3.077l2.162 2.301c1.81 1.927 2.011 2.824 1.237 5.523l-.924 3.222 2.961-2.108 2.96-2.108 3.35 1.977 3.349 1.976-1.029-3.355c-.917-2.986-.766-3.574 1.377-5.358l2.406-2.003-3.247-.034c-2.696-.027-3.485-.585-4.646-3.283l-1.398-3.25-1.202 3.25m174.865 0c-1.12 2.777-1.808 3.25-4.726 3.25h-3.416l2.696 2.12c1.483 1.167 2.505 2.629 2.272 3.25-.233.622-.762 2.21-1.176 3.53l-.752 2.4 3.149-2.243c2.95-2.1 3.304-2.141 5.58-.65 3.32 2.176 3.543 2.055 2.825-1.539-.51-2.55-.181-3.474 1.775-4.977l2.401-1.847-3.247-.022c-2.698-.018-3.486-.572-4.659-3.272l-1.412-3.25-1.31 3.25M93.297 175c.848 1.375 2.022 2.39 2.608 2.255.586-.135 2.178 1.949 3.537 4.63 1.723 3.4 3.262 5.075 5.086 5.533 2.273.57 2.532 1.031 1.984 3.526-.92 4.191 11.957 27.975 15.173 28.023 4.147.062 16.105-2.899 21.701-5.374 5.219-2.308 5.614-2.721 5.614-5.856 0-7.46-4.77-18.874-11.166-26.718l-2.838-3.48-14.748.291c-10.81.213-16.016-.1-19.498-1.172-3.41-1.05-4.756-1.137-4.772-.31-.012.634-.968.027-2.123-1.348l-2.101-2.5 1.543 2.5m9.203 0c-.371.601.903.994 3.191.985 2.828-.012 3.422-.265 2.309-.985-1.956-1.264-4.719-1.264-5.5 0m-20.89 4.19c-6.467 6.467-4.101 14.315 5.018 16.647 10.318 2.639 14.435 2.936 13.82.999-.433-1.364-.182-1.671.998-1.218 1.149.441 1.409.168.958-1.007-.34-.886-.134-1.611.458-1.611.591 0 .831-.636.533-1.413-.322-.839.181-1.551 1.24-1.755 2.079-.401-14.077-5.842-17.326-5.836-2.897.005-3.824-1.628-1.298-2.289 2.347-.613 2.492-1.637.599-4.226-1.33-1.819-1.546-1.745-5 1.709m56.796.06c7.183 9.792 11.579 19.083 11.609 24.538.012 2.063.238 2.36.946 1.241.512-.809 1.275-1.126 1.697-.705.421.422.217 1.646-.454 2.721-.708 1.134-.805 1.955-.232 1.955 1.529 0 2.345-4.67 1.673-9.574-.856-6.248-4.056-11.982-9.818-17.594-5.141-5.008-8.305-6.515-5.421-2.582m-35.314 17.904c-1.216 2.747-1.123 3.452.948 7.196 6.26 11.315 8.57 14.184 11.55 14.344 1.6.087 2.342-.073 1.648-.356-.694-.282-2.694-2.593-4.443-5.136-1.75-2.543-4.74-6.349-6.644-8.457-2.726-3.017-3.202-4.09-2.236-5.039 1.244-1.223 2.151-.463 5.877 4.925.914 1.322-3.546-7.476-5.235-10.327-.064-.108-.723 1.174-1.465 2.85m-23.539 1.417c-.369 1.964-.89 4.144-1.159 4.845-1.165 3.035 17.341 12.672 27.16 14.144 5.461.819 5.501 1.357-.665-8.959-4.648-7.778-5.44-8.605-8.75-9.137-7.382-1.186-13.16-2.689-13.701-3.564-1.129-1.827-2.233-.804-2.885 2.671m-24.17 9.513c-4.387 1.273-11.093 8.851-11.97 13.529-.893 4.759 1.622 9.842 6.485 13.106 4.347 2.918 4.742 2.878 6.576-.669 1.876-3.627 1.89-4.05.137-4.05-5.635 0-7.507-7.411-3.049-12.065 4.274-4.461 9.194-3.767 12.272 1.732 1.022 1.826 6.166-.79 6.166-3.136 0-2.008-4.725-6.518-8.467-8.082-3.879-1.62-3.828-1.618-8.15-.365M170 213.063c-3.575 2.775-6.5 5.454-6.5 5.954 0 1.806 16.029 21.881 17.167 21.5 1.799-.602 13.333-9.743 13.333-10.567 0-.4-.787-1.68-1.75-2.843l-1.75-2.115-4.468 3.565c-4.205 3.355-4.547 3.459-5.796 1.754-1.173-1.601-.911-2.145 2.266-4.696l3.593-2.885-2.214-2.357-2.214-2.356-3.426 2.613c-3.163 2.412-3.551 2.488-5.051.988s-1.451-1.747.647-3.216c6.552-4.589 7.348-5.74 5.641-8.152-2.1-2.969-1.983-3.004-9.478 2.813m-95.611 9.842c-12.126 7.393-10.966 25.374 1.728 26.805 8.112.914 13.799-3.859 16.01-13.44 2.502-10.838-8.406-19.056-17.738-13.365M151 224.189c-4.125 1.719-7.69 3.282-7.923 3.474-.462.382 8.788 24.366 9.872 25.596.487.552 14.446-4.241 16.806-5.77.139-.09-.231-1.557-.825-3.259l-1.079-3.095-4.601 1.972c-2.53 1.085-5.197 1.744-5.925 1.464-2.599-.997-1.277-3.607 2.615-5.164 3.928-1.571 4.177-2.798 1.466-7.216-.105-.169-1.868.393-3.92 1.25-4.754 1.987-5.147 1.962-5.757-.37-.409-1.564.502-2.338 4.802-4.084 5.202-2.111 5.287-2.211 4.29-5.07-1.232-3.534-.648-3.55-9.821.272m-75.411 6.888c-5.799 6.892-1.499 16.215 5.19 11.251 3.443-2.555 5.527-8.394 4.22-11.829-1.408-3.706-6.046-3.421-9.41.578m23.994.049C98.759 234.91 96 253.576 96 255.369c0 1.197.931 1.631 3.5 1.631 2.959 0 3.502-.348 3.514-2.25.034-5.616.975-6.75 5.603-6.75 4.174 0 4.383-.139 4.383-2.912 0-2.625-.4-2.98-4.057-3.598-3.416-.577-4.008-1.025-3.75-2.837.28-1.96.811-2.123 5.931-1.815 5.576.334 5.627.312 6.064-2.663.495-3.375.302-3.459-10.888-4.722-5.966-.674-6.219-.611-6.717 1.673m28.018-1.021c-3.245.473-6.008.981-6.139 1.128-.132.147.486 6.455 1.373 14.017l1.613 13.75h6.832l-.557-5.399-.558-5.399 4.497-.674c3.446-.517 4.361-1.027 3.917-2.183-.318-.83-.579-2.181-.579-3.003 0-1.14-1.009-1.422-4.25-1.188-3.94.284-4.25.126-4.25-2.174 0-2.243.478-2.528 5-2.98 3.148-.315 4.963-.963 4.9-1.75-.055-.687-.167-2.15-.25-3.25-.168-2.24-1.583-2.35-11.549-.895m70.909 37.911c.346.559 1.047.758 1.559.441 1.387-.857 1.129-1.457-.628-1.457-.857 0-1.276.457-.931 1.016" fill-rule="evenodd"/>
<path fill="#bcc5c0" stroke="#bcc5c0" d="M108 39.569c-1.375.24-5.875.933-10 1.539-43.421 6.376-82.838 42.296-93.978 85.642-25.402 98.834 76.337 180.828 167.502 134.994 32.758-16.47 57.27-49.615 62.519-84.54.637-4.237 1.563-8.485 2.057-9.44 1.15-2.22 1.187-23.059.04-22.35-.474.292-1.135-2.044-1.471-5.191-4.396-41.209-38.291-81.659-79.669-95.074-13.433-4.355-37.601-7.224-47-5.58m-9.322 5.887C30.45 57.477-11.364 127.438 10.5 192.99c21.479 64.396 95.965 95.496 157 65.551 56.979-27.956 79.858-95.072 51.84-152.075-14.48-29.459-41.162-50.677-74.84-59.512-10.402-2.729-34.387-3.513-45.822-1.498m2.721 3C55.708 55.554 20.382 89.151 9.875 135.5c-2.495 11.003-1.69 37.115 1.51 49 24.613 91.428 145.435 111.915 197.997 33.573 19.291-28.753 23.906-66.98 11.948-98.975-18.282-48.919-68.679-78.603-119.931-70.642m5.76 5.274c-2.843.349-3.264.735-2.829 2.59 1.435 6.113 2.854 17.758 2.33 19.125-.329.855-1.701 1.555-3.051 1.555-2.857 0-3.793-2.297-5.647-13.863l-1.181-7.363-3.514.57c-4.562.74-4.361-.294-2.221 11.397C93.537 81.354 96.059 85 102.982 85c9.909 0 12.946-6.177 10.436-21.225-.989-5.926-2.05-10.703-2.358-10.615-.308.088-2.063.345-3.901.57m17.821-.336c-1.554 8.035-4.691 28.215-4.429 28.483 2.455 2.504 17.974 2.598 20.449.123 2.369-2.369 2.736-9.144.592-10.924-1.186-.984-1.027-1.55 1-3.577 3.559-3.559 2.868-9.319-1.314-10.962-1.529-.6-16.241-3.437-16.298-3.143m-55.307 12.09c-9.869 5.384-10.057 5.579-8.56 8.864 1.449 3.18 1.856 3.218 6.887.652 2.156-1.1 4.089-2 4.295-2 .206 0 .028 2.588-.394 5.75-1.559 11.663-1.577 12.804-.249 15.457l1.355 2.707 7.746-4.106c10.276-5.446 10.653-5.823 9.139-9.146-1.459-3.202-1.848-3.235-7.029-.592-5.09 2.597-4.857 3.084-3.651-7.658.819-7.285.75-9.596-.345-11.644L77.5 61.213l-7.827 4.271m60.992-2.31c-.757 2.895-.045 3.826 2.925 3.826 2.896 0 4.164-2.386 2.399-4.513-1.81-2.181-4.671-1.812-5.324.687m22.933 6.109c-7.745 14.233-7.945 16.449-1.958 21.706 2.507 2.201 4.437 3.011 7.172 3.011 6.084 0 7.94-1.87 16.019-16.144l3.194-5.644-3.346-1.974-3.346-1.974-4.896 8.849c-4.925 8.902-6.243 10.282-8.86 9.278-2.99-1.147-2.492-3.869 2.354-12.858l4.966-9.212-3.414-1.628-3.414-1.628-4.471 8.218m-24.826 5.13c-.376 1.965.021 2.509 2.133 2.928 3.032.602 5.646-1.464 4.763-3.763-1.031-2.687-6.346-2.043-6.896.835M46.428 81.81l-2.072 2.501 5.813 5.345C53.367 92.595 55.724 95 55.408 95c-.316 0-4.212-.929-8.658-2.064l-8.084-2.064-2.942 2.943-2.943 2.942 4.36 3.951c2.397 2.173 7.223 6.554 10.723 9.734l6.365 5.784 2.493-2.493 2.493-2.494-4.717-4.369c-2.594-2.404-5.117-4.52-5.607-4.703-.49-.184-.891-.699-.891-1.145 0-.447 4.035.215 8.968 1.47l8.967 2.282 2.388-3.137L70.71 98.5 61.182 90c-12.941-11.545-12.279-11.178-14.754-8.19M180.5 86.837c-11.59 7.068-12.683 19.81-2.231 26.007 2.704 1.604 2.823 1.574 5.11-1.295l2.342-2.937-3.111-2.088c-4.276-2.871-4.648-6.831-1-10.638 4.194-4.378 8.75-3.898 11.495 1.212 1.329 2.476 1.548 2.535 4.645 1.247 3.836-1.594 3.993-2.637 1.046-6.938-4.348-6.346-12.178-8.301-18.296-4.57m-76.099 3.137c-23.292 4.946-42.84 22.195-51.213 45.191-3.969 10.901-3.969 32.769 0 43.67C60.462 198.812 75.194 213.73 95 221.176c12.326 4.634 30.962 4.811 44.355.422 53.74-17.614 63.573-89.9 16.487-121.203-13.911-9.248-35.944-13.712-51.441-10.421m5.099 3.976c-55.465 8.917-74.574 76.322-31.799 112.171 40.889 34.268 103.996 4.06 103.66-49.621-.238-38.097-35.118-68.457-71.861-62.55m85.5 17.706c-14.819 6.547-13.22 5.302-11.763 9.16 1.419 3.759 1.3 3.74 7.263 1.184 2.566-1.1 4.892-2 5.168-2 .276 0-1.336 2.309-3.583 5.131-4.593 5.769-4.67 6.12-2.293 10.56l1.708 3.191 4.974-7.04 4.974-7.04 5.026.634c2.764.348 6.471.89 8.236 1.203l3.211.569-1.566-3.985-1.565-3.985-7.145-.742-7.145-.742 5.643-2.627 5.642-2.627-1.574-3.25c-1.91-3.943-.24-4.207-15.211 2.406m-172.01 4.161c-1.778 4.226-3.43 8.192-3.672 8.814-.242.622.825 1.588 2.371 2.147 1.546.558 7.623 3.048 13.503 5.533l10.693 4.517 3.118-7.489c1.714-4.119 3.333-8.05 3.596-8.736.429-1.119-3.393-3.603-5.546-3.603-.469 0-1.661 2.25-2.65 5-1.728 4.805-3.915 6.434-4.966 3.697-.275-.716.175-2.918 1-4.892 1.498-3.586 1.497-3.59-1.501-4.831-3.438-1.425-3.106-1.618-5.563 3.238-1.428 2.823-2.229 3.495-3.347 2.804-1.265-.782-1.173-1.607.665-5.957 2.223-5.263 2.187-5.395-1.936-6.962-2.444-.929-2.648-.692-5.765 6.72m60.483 2.563c-1.085.759-5.573 2.62-9.973 4.135-7.327 2.524-11.5 5.289-11.5 7.619 0 .502 1.237.163 2.75-.753 1.95-1.18 1.513-.471-1.5 2.437-4.638 4.476-6.298 9.246-1.952 5.606 1.347-1.127 1.21-.854-.329.659C58.1 140.904 56.532 144 57.972 144c.501 0 1.188-.45 1.528-1 1.642-2.658 5.835-.878 10.862 4.61 2.826 3.085 5.138 5.981 5.138 6.435 0 1.669 16.042 29.226 17.293 29.706 3.967 1.522 2.072-2.62-5.428-11.862-7.152-8.814-6.799-9.495.743-1.433 3.359 3.591 6.49 6.293 6.957 6.004.467-.289 1.566.952 2.441 2.757 1.385 2.859 1.391 3.032.042 1.342-.851-1.068-1.548-2.38-1.548-2.917 0-.536-.256-.719-.57-.406-.631.631 3.264 8.764 4.197 8.764.323 0 .295-.761-.062-1.691-.423-1.102.173-.84 1.707.75 1.296 1.342 3.194 2.919 4.218 3.503 1.929 1.101 1.358 3.502-.799 3.359-.859-.057-.842-.22.059-.583 2.368-.956 1.237-2.142-3.75-3.935-2.75-.989-5-2.145-5-2.569 0-.424-.562-.556-1.25-.293-.687.264-3.275-.194-5.75-1.015-2.475-.822-3.263-1.268-1.75-.991 1.53.28 2.75.051 2.75-.516 0-.56-.401-1.019-.892-1.019-.49 0-1.174-1.125-1.519-2.5-.89-3.549-2.804-3.112-7.075 1.616-6.679 7.393-2.539 14.856 9.358 16.867 3.943.666 4.143.799 1.346.899-1.805.065-4.898-.557-6.872-1.382-1.975-.825-3.707-1.5-3.849-1.5-1.559 0-2.365 9.489-.94 11.063 2.311 2.554 16.048 9.431 21.443 10.736 11.715 2.833 11.283 3.111 6.582-4.239-3.757-5.872-6.84-11.56-6.267-11.56.202 0 2.797 4.07 5.767 9.045l5.399 9.045 9.51-.451c10.119-.479 17.613-2.576 26.509-7.418 4.991-2.716 5.001-2.731 5.294-8.285.483-9.125-6.584-21.19-14.942-25.513-4.262-2.204-4.266-1.779-.031 3.327 2.167 2.613 4.453 5.875 5.08 7.25.968 2.123.948 2.216-.131.616-5.763-8.545-8.923-11.619-12.043-11.716l-3.227-.101 3.782-.891c14.696-3.46 15.017-12.39.971-27.036l-4.438-4.629 3.342-2.467c1.839-1.357 4.456-3.212 5.816-4.122 1.359-.91 2.138-1.654 1.73-1.654-1.195 0-8.11 4.581-9.568 6.338-1.17 1.409-1.671 1.436-4.02.221-4.333-2.24-9.68-2.858-13.586-1.569-3.348 1.105-3.739 1.012-5.581-1.329-2.154-2.739-7.968-6.661-9.872-6.661-2.248 0-5.325 8.856-4.643 13.363 1.102 7.287 1.871 7.537 6.985 2.275 5.51-5.67 5.505-5.611.966-10.635-4.146-4.589-3.486-5.116 1.859-1.484 5.394 3.666 6.318 5.884 3.278 7.875-13.228 8.668-19.205 23.232-11.623 28.324 1.869 1.255 2.793 2.282 2.055 2.282-2.63 0-6.953-5.245-6.954-8.437 0-1.685-1.378-5.975-3.062-9.534-1.683-3.559-4.653-10.176-6.599-14.706l-3.537-8.234 2.167-3.045c2.403-3.374 1.356-4.164-1.434-1.082-1.916 2.118-8.287 4.618-9.268 3.638-.329-.33-.098-.6.515-.6.614 0 3.75-2.193 6.97-4.872 3.22-2.68 7.214-5.575 8.875-6.434 4.285-2.216 6.248-4.694 3.719-4.694-1.045 0-2.788.621-3.872 1.38m57.897 17.187c.287.587-1.479 3.006-3.924 5.376-5.305 5.141-5.239 4.535-1.068 9.781 3.138 3.947 3.461 4.111 4.921 2.498 4.061-4.487 4.873-12.668 1.625-16.361-1.142-1.299-1.841-1.881-1.554-1.294m69.13 2.223c-3.334.683-6.243 4.132-7.416 8.792-1.817 7.213-4.514 6.095-3.818-1.582l.544-6h-3.43c-3.748 0-5.38 2.401-5.38 7.916 0 14.055 15.463 16.589 19.285 3.16 1.936-6.803 4.095-6.676 3.525.207l-.46 5.539 3.422.4c3.802.443 5.228-1.553 5.228-7.319 0-2.597-2.365-9.903-3.206-9.903-.169 0-1.654-.365-3.301-.81-1.646-.446-3.893-.626-4.993-.4m-194.376 1.978c-3.374 6.305-2.426 13.467 2.153 16.259 5.884 3.588 10.873 1.52 14.771-6.122 1.096-2.148 2.434-3.905 2.972-3.905 1.502 0 1.164 5.743-.53 9.019-1.497 2.896-1.484 2.926 1.75 3.803 4.111 1.114 5.196.263 6.754-5.3 4.202-15.009-11.348-20.731-18.403-6.772-.903 1.787-2.081 3.25-2.617 3.25-1.465 0-1.171-4.719.495-7.941 1.389-2.684 1.347-2.875-.75-3.437-3.775-1.012-5.611-.693-6.595 1.146m57.898 2.301c-.012.864 1.666 3.861 3.728 6.661 2.063 2.8 4.327 5.919 5.033 6.93.705 1.012-.096-.86-1.78-4.16-3.76-7.369-6.949-11.677-6.981-9.431M.378 157c0 6.325.163 8.912.361 5.75.198-3.162.198-8.338 0-11.5-.198-3.162-.361-.575-.361 5.75m104.122-3c.34.55 1.301 1 2.136 1 .835 0 2.888 1.37 4.563 3.045 1.674 1.675 3.251 2.838 3.504 2.586.959-.96-1.882-4.672-4.683-6.121-3.319-1.716-6.444-2.005-5.52-.51m18.275.559c-2.564 1.391-4.816 4.3-4.742 6.125.019.449.886-.206 1.927-1.454 1.042-1.249 3.502-2.943 5.467-3.764 1.965-.821 3.573-1.712 3.573-1.979 0-.982-3.575-.366-6.225 1.072m-45.967 1.082c.554 1.035 2.034 2.776 3.288 3.87l2.282 1.989-2.235-3.22c-2.606-3.753-4.905-5.572-3.335-2.639m92.134.307c-9.037 2.742-25.836 20.934-23.356 25.291 2.821 4.955 3.611 4.929 5.986-.196 4.938-10.66 15.715-18.58 22.126-16.261 1.541.557 3.589 1.333 4.552 1.723 1.553.629 1.75.022 1.75-5.398V155l-4.25.086c-2.338.047-5.401.435-6.808.862m-55.92 8.01c-.846 1.581-.66 2.166.965 3.035 2.585 1.383 6.438-.444 5.591-2.651-.318-.828-.578-1.694-.578-1.924 0-.23-.477-.418-1.059-.418s-.781.45-.441 1-.11 1-1 1-1.34-.45-1-1c.34-.55.157-1-.406-1-.563 0-1.495.881-2.072 1.958M108.5 166c-.34.55-2.054 1.005-3.809 1.011-4.8.017-10.691 1.146-10.691 2.05 0 .44 1.46.381 3.243-.131 4.262-1.222 8.757-1.186 8.757.07 0 .55-1.237 1.007-2.75 1.015-1.513.009-3.402.428-4.198.932-.936.592.126.712 3 .339l4.448-.576-2.5 2.201c-2.474 2.179-2.475 2.19-.143 1.053 1.705-.831 2.66-.847 3.45-.057.601.601 1.485 1.093 1.964 1.093.48 0 .131-.74-.773-1.645-1.329-1.329-1.391-1.807-.322-2.485 1.095-.694 1.096-.842.003-.855-.992-.011-.93-.407.25-1.586.864-.865 1.571-1.99 1.571-2.5 0-1.218-.725-1.184-1.5.071m6.25-.338c.688.278 1.813.278 2.5 0 .688-.277.125-.504-1.25-.504s-1.937.227-1.25.504m9.865 1.523c.276.448-.086.847-.806.885-.72.039-.409.457.691.93l2 .859-2 .086c-1.444.062-1.639.314-.703.909 2.106 1.336-1.271 3.495-4.284 2.739-1.714-.431-2.533-1.34-2.576-2.862l-.064-2.231-.913 2.274c-.502 1.25-1.936 2.684-3.186 3.186-1.38.554-1.664.938-.724.977.852.034 2.022-.409 2.598-.985.73-.73 1.837-.688 3.655.14 2.024.922 3.268.914 5.561-.036 2.21-.915 3.482-.941 5.045-.105 3.112 1.666 2.531.367-.659-1.473-2.735-1.577-2.722-1.584 2.25-1.095 3.309.325 4.324.198 3-.376-1.1-.476-3.012-.898-4.25-.937-1.238-.038-2.25-.572-2.25-1.185 0-.774 1.762-.897 5.75-.404 3.162.392 5.478.434 5.145.094-.937-.958-13.849-2.309-13.28-1.39m-96.002 5.198c-1.441 3.451-1.914 3.8-4.61 3.404-3.648-.535-3.845.431-.53 2.603 2.113 1.385 2.332 1.994 1.5 4.181-1.597 4.2-1.142 4.732 2.225 2.6l3.199-2.025 2.859 2.036c3.467 2.469 4.15 2.017 2.704-1.787-.973-2.558-.807-3.129 1.472-5.09 3.256-2.801 3.22-3.054-.356-2.53-2.556.376-3.17-.052-4.89-3.404l-1.966-3.833-1.607 3.845m174.912-.028c-1.46 3.433-1.962 3.808-4.582 3.423-3.465-.508-3.788.517-.819 2.596 1.773 1.242 2.011 2.095 1.437 5.151l-.687 3.662 3.01-1.778c2.665-1.574 3.333-1.617 5.813-.376 1.542.772 3.129 1.563 3.527 1.76.398.196.215-1.103-.406-2.886-1.035-2.969-.902-3.438 1.582-5.574l2.712-2.333h-3.449c-3.048 0-3.626-.436-4.974-3.75l-1.524-3.75-1.64 3.855M99.5 175.974c1.91.846 8.285 1.417 7.417.665-.229-.198-2.442-.628-4.917-.956-3.005-.397-3.835-.3-2.5.291m13.25 1.763c2.888.202 7.612.202 10.5 0s.525-.367-5.25-.367-8.138.165-5.25.367M102.638 194.5c.317.825.078 1.5-.531 1.5s-1.107.675-1.107 1.5-.525 1.5-1.167 1.5c-.641 0-.862.305-.489.677.759.76 4.086-2.483 4.847-4.723.317-.934 1.265.052 2.651 2.756 2.631 5.134 2.751 6.619.273 3.396-1.012-1.316-2.341-2.085-2.952-1.707-.705.436 1.306 3.867 5.509 9.394 6.606 8.688 8.328 10.39 8.328 8.231 0-.628-.526-.817-1.17-.419-.785.485-.961.179-.536-.929.366-.954.174-1.551-.455-1.414-.599.131-1.316-.387-1.594-1.151-.326-.897-.075-1.124.708-.64.741.458.581-.471-.413-2.394-.894-1.728-2.033-2.89-2.532-2.582-.499.309-1.38-.322-1.958-1.401-1.328-2.482-1.337-3.389-.024-2.578.564.349-.205-1.875-1.708-4.941-1.776-3.62-3.352-5.575-4.495-5.575-1.154 0-1.562.517-1.185 1.5m43.519-1c-.003.55.602 2.575 1.343 4.5.741 1.925 1.362 2.825 1.379 2 .017-.825-.587-2.85-1.343-4.5-.755-1.65-1.376-2.55-1.379-2m-50.344 5.183c.721.289 1.584.253 1.916-.079.332-.332-.258-.568-1.312-.525-1.165.048-1.402.285-.604.604M149.158 204c0 1.375.227 1.938.504 1.25.278-.687.278-1.812 0-2.5-.277-.687-.504-.125-.504 1.25m2.921 1.25c-.043.963-.529 1.75-1.079 1.75-.55 0-1 .546-1 1.214 0 .787.569.645 1.616-.401.889-.889 1.374-2.223 1.079-2.965-.368-.923-.562-.796-.616.402m-98.853 3.409c-8.871 4.373-12.914 15.993-7.714 22.172 4.6 5.468 8.411 6.912 10.629 4.029 2.151-2.797 2.377-4.86.533-4.86-2.066 0-5.674-4.382-5.674-6.891 0-1.245 1.346-3.609 2.99-5.253 3.841-3.841 7.615-3.592 10.492.692l2.046 3.048 3.265-1.907 3.264-1.906-1.833-3.138c-3.989-6.831-11.33-9.272-17.998-5.986m58.805-.159c0 .55.436 1.675.969 2.5.533.825.969 1.05.969.5s-.436-1.675-.969-2.5c-.533-.825-.969-1.05-.969-.5m57.219 4.66c-3.437 2.764-6.25 5.432-6.25 5.93 0 .497 3.858 5.848 8.574 11.89l8.574 10.987 7.176-5.654c3.947-3.11 7.377-5.816 7.623-6.014.246-.198-.67-1.477-2.036-2.842l-2.482-2.483-4.238 3.117c-3.579 2.632-4.48 2.914-5.804 1.815-1.682-1.396-1.777-1.265 3.949-5.392 1.74-1.254 1.747-1.457.135-3.918-2.119-3.235-2.921-3.237-6.744-.02-2.821 2.374-3.139 2.439-4.041.828-.982-1.755.012-2.967 5.713-6.968 1.796-1.261 1.808-1.471.227-3.884-2.253-3.439-3.129-3.219-10.376 2.608m-95.466 9.394c-6.256 3.396-10.154 14.757-7.199 20.984 4.962 10.456 19.215 8.715 24.535-2.997 5.817-12.804-5.415-24.457-17.336-17.987M150 224.189c-4.125 1.719-7.614 3.206-7.753 3.305-.228.161 9.769 25.448 10.439 26.406.154.219 4.142-1.094 8.863-2.919 8.18-3.162 8.553-3.44 7.946-5.9-.997-4.044-1.835-4.293-6.998-2.08-3.824 1.639-5.004 1.803-5.65.786-1.313-2.07-1.056-2.401 3.132-4.047 3.871-1.52 3.95-1.646 2.902-4.651-1.236-3.546-1.424-3.596-6.132-1.629-1.922.804-3.777 1.179-4.122.834-1.595-1.595-.229-3.219 4.373-5.199 5.619-2.417 5.406-2.109 3.839-5.548-1.448-3.18-1.703-3.165-10.839.642m-73.901 6.412c-2.649 3.368-3.718 8.948-2.09 10.91 3.705 4.464 10.978-.872 10.987-8.061.007-5.77-5.27-7.459-8.897-2.849m23.417-1.367c-.239.696-1.27 7.189-2.292 14.428l-1.858 13.161 2.942.589c1.618.323 3.294.588 3.723.588.43 0 1.097-2.294 1.482-5.097l.701-5.098 4.393.659c3.289.493 4.396.329 4.407-.653.007-.721.277-2.295.6-3.497.509-1.9.082-2.277-3.264-2.881-4.986-.901-5.253-1.087-4.682-3.273.424-1.622 1.083-1.743 5.602-1.028 6.004.949 5.595 1.165 5.949-3.148.279-3.38.238-3.416-4.719-4.129-2.75-.396-6.699-.983-8.775-1.303-2.587-.4-3.912-.185-4.209.682m30.484.25-8.5 1.016.087 4c.048 2.2.661 8.613 1.363 14.25l1.275 10.25h7.63l-.567-5.5-.568-5.5h4.14c3.712 0 4.14-.25 4.14-2.418 0-4.607-.84-5.413-5.049-4.849-3.057.41-4.055.159-4.556-1.147-.878-2.287-.423-2.559 5.469-3.256 4.72-.559 5.135-.82 5.121-3.219-.026-4.45-.789-4.727-9.985-3.627" fill-rule="evenodd"/>
<path fill="#0c5530" stroke="#0c5530" d="M98.5 41.02C20.768 54.941-22.067 138.327 12.466 208.5c25.477 51.771 83.417 77.057 139.434 60.852 43.762-12.66 78.733-54.115 82.714-98.052.367-4.045 1.054-7.595 1.526-7.887.473-.292.86-3.681.86-7.531 0-3.85-.385-6.762-.856-6.471-.471.291-1.139-2.72-1.485-6.691-3.962-45.459-40.47-86.999-87.365-99.404-10.754-2.844-38.452-4.148-48.794-2.296m9 3.011c-79.058 7.358-126.377 91.528-91.463 162.692 40.886 83.337 159.915 84.904 202.699 2.668 41.344-79.47-22.02-173.665-111.236-165.36M95 49.959C31.727 63.491-6.218 129.076 13.686 190.5c25.327 78.159 124.12 101.625 182.417 43.328 33.572-33.572 41.103-85.911 18.482-128.436C191.91 62.769 142.404 39.82 95 49.959m10.75 3.73c-2.121.554-2.123.677-.25 11.311 1.905 10.813 1.909 10.735-.674 11.555-3.072.975-4.458-1.379-5.825-9.893-1.768-11.013-1.658-10.815-5.836-10.467L89.5 56.5l.293 4.5c1.142 17.57 5.456 24.615 14.54 23.742 10.08-.969 12.146-6.208 9.065-22.992-1.703-9.277-1.959-9.547-7.648-8.061m16.453 13.361c-1.242 7.728-2.027 14.426-1.744 14.884.283.457 4.191 1.37 8.685 2.027 7.575 1.107 8.359 1.054 10.755-.735 3.634-2.713 4.841-7.448 2.723-10.681-1.558-2.377-1.538-2.629.364-4.531 2.579-2.579 2.666-8.114.164-10.379C141.708 56.33 128.77 53 125.143 53c-.375 0-1.698 6.323-2.94 14.05m-54.447-.933-8.744 5.005 1.621 3.189c.892 1.754 1.769 3.356 1.949 3.56.18.205 2.373-.827 4.873-2.292L72 72.916l-.02 2.292c-.011 1.261-.468 5.397-1.017 9.192-.938 6.49.084 12.6 2.108 12.6.782 0 17.197-8.868 18.116-9.787.399-.399-.206-2.195-1.344-3.991l-2.068-3.267-4.513 2.522C80.779 83.865 78.664 85 78.561 85c-.103 0 .344-4.162.993-9.25.979-7.665.942-9.721-.212-12-1.753-3.459-1.216-3.569-11.586 2.367M131 63.326c0 3.036 2.796 4.306 4.885 2.218 1.711-1.711.909-2.928-2.635-3.999-1.908-.576-2.25-.306-2.25 1.781m21.25 7.552c-7.277 13.678-6.534 18.939 3.2 22.656 7.129 2.723 10.618.417 17.273-11.418 6.256-11.125 6.139-10.335 1.832-12.388l-3.444-1.643-4.829 8.708c-4.037 7.278-5.233 8.707-7.292 8.707-3.898 0-3.554-2.793 1.494-12.129 2.552-4.719 4.499-8.683 4.328-8.807-6.732-4.896-6.549-4.988-12.562 6.314M129 74.5c0 2.1.471 2.5 2.941 2.5 3.67 0 4.96-1.868 2.521-3.652C131.438 71.137 129 71.651 129 74.5m-83.058 7.077L43.5 84.192l6 5.38 6 5.38-8.768-2.386-8.767-2.387-2.483 3.255C34.117 95.224 33 96.897 33 97.151c0 .255 4.919 4.823 10.93 10.152l10.93 9.69 2.07-2.631c2.791-3.548 2.778-3.583-2.97-8.396-2.772-2.32-4.893-4.366-4.714-4.545.179-.18 3.858.578 8.175 1.684l7.849 2.011 2.865-2.745c3.78-3.622 4.306-2.704-7.691-13.432-12.476-11.157-11.446-10.634-14.502-7.362m137.088 3.489C176.227 87.909 170 95.673 170 101.312c0 3.191 3.759 8.609 7.919 11.412l3.371 2.272 2.355-3.192c2.679-3.631 2.93-4.804 1.029-4.804-1.87 0-5.674-4.284-5.674-6.391 0-2.588 5.456-7.609 8.268-7.609 2.452 0 5.732 2.729 5.732 4.77 0 2.116 1.952 2.302 5.43.518l3.492-1.791-2.211-3.905c-3.868-6.83-10.83-9.971-16.681-7.526m-73.869 3.972c-56.05 7.604-79.77 76.486-39.881 115.815 41.025 40.449 107.949 18.114 116.808-38.982 6.67-42.988-33.161-82.77-76.927-76.833M104.5 95.02c-39.913 7.99-61.222 53.277-42.807 90.979 8.955 18.335 33.076 34.429 50.767 33.874 3.264-.102 2.822-.285-2.304-.949-8.976-1.165-18.047-4.408-25.127-8.984-7.27-4.699-7.875-5.935-5.768-11.793 1.535-4.268 1.519-4.611-.323-6.953-3.384-4.302-.991-11.846 4.56-14.375 3.347-1.525 3.392-1.36-3.748-13.962-9.596-16.938-15.031-22.382-19.798-19.831-2.838 1.519-3.079 1.056-1.867-3.582.634-2.425 2.453-5.226 4.723-7.273 2.257-2.035 2.817-2.896 1.442-2.215-2.561 1.268-2.67 1.06-1.167-2.239.803-1.762 2.937-2.97 8.25-4.671 3.942-1.261 8.837-3.138 10.877-4.17 7.912-4.001 8.774-.894.982 3.538C78.755 124.939 67.265 134 68.502 134c1.322 0 8.231-3.973 9.437-5.427 2.621-3.157 3.086-1.472.522 1.89l-2.642 3.463 5.613 12.64c6.654 14.986 8.473 18.487 8.528 16.406.022-.841 1.086-3.055 2.364-4.92 2.117-3.09 2.21-3.709 1.044-6.972-2.383-6.664-.726-16.238 3.061-17.691 1.755-.673 7.04 2.353 10.449 5.982 1.93 2.053 2.779 2.33 4.798 1.562 4.317-1.641 8.974-1.01 14.671 1.987l5.551 2.919 4.419-4.419c2.431-2.431 4.232-4.42 4.002-4.42-1.227 0-6.075 3.073-7.726 4.898-1.047 1.156-2.367 2.102-2.935 2.102-1.978 0 4.518-5.775 8.53-7.585 3.933-1.773 4.078-1.771 5.427.073 2.207 3.018 1.695 10.428-1.053 15.234l-2.414 4.221 2.122 5.022c2.55 6.037 1.765 9.488-2.847 12.51l-3.034 1.988 4.012 2.695 4.012 2.695 3.044-5.423c7.179-12.791 17.536-20.43 27.703-20.43H180v6.5c0 6.555-.717 7.75-3 5-3.614-4.355-15.513-.247-20.74 7.161-5.843 8.28-7.193 12.579-5.183 16.498 2.509 4.891 3.926 11.575 3.212 15.148-1.117 5.584-15.389 12.168-29.624 13.667-6.537.688-6.723.766-2.125.89 18.684.504 42.356-14.996 51.72-33.864 23.827-48.007-17.192-101.503-69.76-90.98m90.031 16.489c-13.167 5.836-13.349 6.008-11.061 10.433 1.519 2.938 1.715 3.015 4.311 1.694 6.99-3.555 7.825-3.212 3.884 1.597-4.186 5.108-4.259 5.495-2.011 10.549 1.041 2.342 1.565 5.803 1.414 9.353-.383 9.044 3.07 13.865 9.932 13.865 4.94 0 6.742-1.586 9.076-7.989 1.198-3.284 2.613-5.703 3.145-5.375.884.547.718 5.716-.302 9.364-.308 1.103.556 1.581 3.266 1.806 4.797.399 6.21-2.035 5.581-9.619-1.116-13.457-15.462-13.859-19.266-.539-.55 1.926-1.45 3.482-2 3.458-1.442-.063-1.815-4.765-.643-8.125 1-2.868.989-2.878-3.471-3.179l-4.474-.302 4.69-6.5c2.579-3.575 4.779-6.617 4.888-6.761.109-.143 3.639.274 7.843.928 8.935 1.389 9.293 1.214 7.071-3.446-1.767-3.706-3.954-4.637-11.279-4.803l-3.625-.082 5.25-2.398c5.916-2.703 5.793-2.488 3.724-6.488-1.927-3.726-1.67-3.767-15.943 2.559M23.874 112.75c-4.023 9.301-5.118 12.34-4.625 12.833 1.46 1.46 26.245 11.315 26.844 10.674.898-.962 6.907-15.174 6.907-16.336 0-.745-5.115-3.921-6.314-3.921-.228 0-1.21 2.138-2.182 4.75-2.137 5.744-2.654 6.393-4.285 5.385-1.005-.621-.952-1.529.258-4.426 2.078-4.974 2.003-5.226-1.914-6.428-3.387-1.04-3.459-.999-4.992 2.832-.855 2.138-2.233 3.887-3.063 3.887-1.871 0-1.908-1.314-.135-4.8 2.991-5.881 2.93-6.899-.49-8.091-1.75-.61-3.355-1.109-3.568-1.109-.212 0-1.311 2.138-2.441 4.75m75.978 24.5c1.723 1.787 3.699 4.029 4.39 4.981.804 1.106 1.735 1.43 2.579.898.977-.618.096-1.913-3.391-4.982-5.588-4.918-8.049-5.536-3.578-.897m-84.194 3.341c-2.784 5.839-2.218 11.76 1.419 14.82 5.731 4.822 12.065 3.037 15.39-4.338 1.923-4.264 4.533-5.477 4.533-2.107 0 1.081-.756 3.551-1.679 5.488-1.96 4.109-1.932 4.16 2.787 5.041 3.498.654 3.657.55 5.25-3.431 2.414-6.034 2.134-11.241-.773-14.378-5.394-5.82-11.584-4.651-16.196 3.059-4.016 6.715-6.501 4.829-2.854-2.166 1.73-3.316 1.243-4.077-3.127-4.89-2.775-.517-3.261-.219-4.75 2.902M74 142.262c0 .938 1.404 3.176 3.119 4.972l3.119 3.266-1.772-3C74.84 141.362 74 140.377 74 142.262M.336 157c0 4.125.177 5.813.392 3.75.216-2.062.216-5.437 0-7.5-.215-2.062-.392-.375-.392 3.75m105.098-3.107c.376.609 1.279 1.107 2.006 1.107.728 0 2.726 1.435 4.441 3.19 1.716 1.754 3.119 2.738 3.119 2.187 0-1.527-5.195-6.06-7.875-6.872-1.627-.493-2.16-.371-1.691.388m17.895.565c-1.744.758-3.657 2.286-4.25 3.395-1.826 3.412-1.209 3.498 1.822.253 1.596-1.708 3.594-3.106 4.441-3.106s1.818-.45 2.158-1c.825-1.334-.347-1.206-4.171.458m-10.25 10.855c-.094 2.165 6.09 2.081 6.519-.088.139-.701.023-.814-.256-.25-.719 1.449-5.074 1.277-5.68-.225-.292-.724-.537-.486-.583.563M85.884 169.5c1.784 2.2 5.065 6.813 7.291 10.25 2.227 3.438 4.476 6.25 4.999 6.25 1.973 0-4.575-9.958-9.943-15.123-4.633-4.456-5.035-4.692-2.347-1.377M106 169c-.591 1.105-.659 2-.152 2 .505 0 1.154-.9 1.442-2 .287-1.1.356-2 .152-2-.205 0-.853.9-1.442 2m-76.861 1.315c-.626 1.548-1.139 3.236-1.139 3.75 0 .514-1.8.935-4 .935-4.707 0-4.857.359-1.395 3.337 2.385 2.051 2.518 2.557 1.575 5.974l-1.031 3.733 3.834-2.155 3.835-2.155 3.091 2.201c3.354 2.388 4.041 1.291 2.15-3.435-.62-1.552-.101-2.607 2.321-4.709l3.12-2.71-4.114-.04c-3.808-.038-4.226-.32-5.611-3.791l-1.496-3.75-1.14 2.815m174.576.935c-1.431 3.327-2.014 3.75-5.164 3.75-4.253 0-4.359.401-.895 3.381 2.446 2.104 2.565 2.547 1.496 5.614-1.499 4.3-.981 4.678 2.691 1.963l3-2.218 3.579 2.212c3.757 2.322 4.107 1.927 2.613-2.952-.629-2.055-.211-2.985 2.35-5.223l3.115-2.723-4.114-.027c-3.817-.025-4.221-.298-5.587-3.777l-1.472-3.75-1.612 3.75m-99.17 28.678c-.316.51 1.737 3.998 4.561 7.75 6.156 8.179 6.891 8.936 4.199 4.322a1610.535 1610.535 0 0 1-4.768-8.25c-2.91-5.069-3.106-5.256-3.992-3.822M52.5 208.871c-12.492 7.758-13.233 21.144-1.501 27.129l3.831 1.954 2.125-3.603c1.17-1.982 1.995-3.68 1.836-3.775-.16-.094-1.535-.706-3.056-1.359-4.023-1.728-5.468-5.45-3.363-8.662 4.043-6.171 9.398-6.835 12.153-1.507l1.503 2.906 3.486-1.662c4.543-2.167 4.397-3.644-.882-8.924-5.052-5.051-10.63-5.914-16.132-2.497m119.098 2.192c-2.697 2.196-6.047 4.826-7.447 5.845l-2.543 1.853 8.874 11.37c4.88 6.253 9.003 11.541 9.161 11.751.332.44 15.357-10.925 15.357-11.616 0-.252-.933-1.767-2.073-3.369l-2.073-2.911-4.471 3.663c-3.479 2.851-4.737 3.397-5.671 2.463-.935-.935-.375-1.912 2.524-4.407l3.725-3.205-2.478-2.803-2.478-2.803-3.459 2.639c-3.12 2.38-5.546 2.632-5.546.578 0-.425 2.02-2.223 4.49-3.996l4.489-3.224-2.178-2.946c-2.689-3.638-2.297-3.691-8.203 1.118M75.5 221.412c-8.63 3.835-13.051 15.892-8.54 23.289C74.688 257.377 93 249.132 93 232.978c0-9.389-9.007-15.341-17.5-11.566m75.031 2.21c-4.383 1.915-8.15 3.664-8.372 3.886-.305.305 9.402 25.763 10.404 27.287.166.252 17.513-6.643 18.17-7.222.695-.613-2.359-6.573-3.369-6.573-.659 0-3.224.869-5.701 1.93-4.303 1.844-5.663 1.519-5.663-1.353 0-.143 1.8-.8 4-1.459 4.402-1.319 4.473-1.462 2.927-5.899l-1.074-3.079-4.033 1.423c-3.912 1.381-5.82 1.21-5.82-.522 0-.462 2.25-1.649 5-2.638 5.259-1.891 5.723-2.721 3.839-6.856-1.403-3.081-.61-3.164-10.308 1.075m-72.7 5.413c-2.748 1.604-5.247 9.32-3.858 11.915 1.737 3.245 5.917 2.362 8.745-1.848 4.445-6.618 1.08-13.549-4.887-10.067m19.712 10.324c-2.699 17.852-2.682 18.08 1.352 18.465 4.017.384 5.068-.874 5.09-6.086l.015-3.762 4.102.656c4.594.735 5.857-.301 5.883-4.822.013-2.388-.404-2.724-3.727-3-2.629-.218-3.841-.835-4.076-2.076-.293-1.547.386-1.733 5.492-1.5l5.826.266.301-3.591.301-3.592-8.301-1.16c-4.566-.638-8.805-1.159-9.421-1.158-.66 0-1.825 4.666-2.837 11.36M128 229.367l-7.5 1.133.301 3c.836 8.336 3.237 25.871 3.591 26.225.222.222 2.059.093 4.082-.286l3.679-.69-.665-4.833c-.714-5.191-.837-5.061 5.815-6.127.991-.159 1.779-.627 1.75-1.039-.029-.412-.053-2.161-.053-3.886v-3.136l-4.5.617c-3.936.539-4.5.384-4.5-1.235 0-1.468 1.039-1.99 5-2.516l5-.663v-3.965c0-4.55.375-4.469-12-2.599" fill-rule="evenodd"/>
<path fill="#050505" stroke="#050505" d="M102.162 96.032c-14.304 3.747-31.388 15.906-37.382 26.605l-1.72 3.07 6.72-2.226c3.696-1.224 9.35-3.441 12.564-4.926 3.215-1.485 6.083-2.462 6.374-2.171 1.167 1.168-.825 3.63-4.421 5.464-4.993 2.548-14.368 10.994-9.724 8.761 1.69-.812 3.657-2.182 4.372-3.043 2.802-3.376 2.898-1.333.119 2.505l-2.949 4.07 3.489 7.68a4688.86 4688.86 0 0 0 6.629 14.511l3.139 6.833 1.805-3.518c.992-1.934 2.257-3.797 2.81-4.139.642-.396.464-1.669-.491-3.515-3.361-6.5-.591-18.993 4.212-18.993 1.327 0 4.167 1.687 6.572 3.904 4.184 3.857 4.315 3.899 10.728 3.437 5.005-.36 7.283-.052 9.945 1.346 3.442 1.807 3.461 1.805 6.101-.7 4.451-4.221 9.703-6.629 11.711-5.368 3.035 1.905 2.906 12.113-.21 16.705l-2.531 3.729 1.988 3.709c3.598 6.712.844 15.123-5.002 15.278-.83.022-.16.753 1.49 1.625s3.69 2.186 4.533 2.919c1.331 1.157 1.855.658 3.957-3.771 5.677-11.956 17.616-20.834 28.441-21.151 6.485-.189 6.836-1.242 4.059-12.202-8.715-34.4-43.504-55.288-77.328-46.428m-40.703 32.035c-.363.586-.445 1.281-.183 1.543s.743-.218 1.069-1.067c.676-1.762.1-2.072-.886-.476m.35 2.611c-1.677.442-5.58 8.884-4.573 9.891.288.288.835-.734 1.215-2.272.381-1.539 1.869-4.035 3.307-5.547 1.439-1.512 2.419-2.698 2.179-2.634l-2.128.562m40.42 8.649c1.925 2.602 3.656 4.066 4.208 3.56.998-.917-2.609-5.355-5.708-7.025-1.116-.602-.561.681 1.5 3.465m33.021.607c-4.55 3.296-5.678 4.684-4.432 5.454.468.289 2.819-1.48 5.225-3.931 5.09-5.187 4.864-5.621-.793-1.523M55.715 145.5c-2.256 13.025.153 28.607 6.223 40.245 4.586 8.793 14.589 20.683 15.358 18.255 2.57-8.11 2.77-10.068 1.249-12.239-2.96-4.226-2.006-8.662 2.867-13.331l4.411-4.227-4.928-8.791c-2.711-4.835-5.665-9.606-6.567-10.602-.901-.995-1.301-1.81-.89-1.81 1.456 0-7.456-9.771-9.368-10.271-1.068-.28-3.07.077-4.45.793-2.179 1.131-2.554 1.084-2.86-.361-.194-.913-.664.139-1.045 2.339m19.636-.787c.835 1.613 2.256 3.546 3.159 4.295 1.175.975 1.023.315-.535-2.326-2.65-4.491-4.738-6.058-2.624-1.969m34.288 11.209c1.727 1.053 3.379 2.513 3.671 3.246.338.847.561.903.611.155.09-1.346-4.627-5.325-6.306-5.319-.613.002.298.865 2.024 1.918m11.579.828c-1.548 1.512-1.893 2.024-.766 1.137 1.126-.888 2.948-2.112 4.048-2.72 1.1-.608 1.445-1.12.766-1.137-.679-.016-2.501 1.208-4.048 2.72m58.977 7.75c.02 1.65.244 2.204.498 1.231.254-.973.237-2.323-.037-3-.274-.677-.481.119-.461 1.769m-14.778 1.785c-10.857 6.33-17.026 17.76-13.508 25.027 3.072 6.346 3.752 13.03 1.652 16.235-1.698 2.592-1.696 2.596.618 1.362C163.82 203.768 180 179.047 180 169.457c0-3.273-10.494-5.556-14.583-3.172m-76.934 6.144c2.562 3.26 5.558 7.691 6.658 9.846 1.099 2.156 2.231 3.687 2.514 3.403 1.126-1.126-3.319-8.287-8.43-13.583l-5.4-5.595 4.658 5.929m15.56 28.321c.023.412 1.858 2.775 4.077 5.25l4.035 4.5-3.163-5.25c-2.789-4.628-5.075-6.707-4.949-4.5m6.77 18.933c.721.289 1.584.253 1.916-.079.332-.332-.258-.568-1.312-.525-1.165.048-1.402.285-.604.604" fill-rule="evenodd"/>
</svg>