<!DOCTYPE svg PUBLIC "-//W3C//DTD SVG 1.1//EN" "http://www.w3.org/Graphics/SVG/1.1/DTD/svg11.dtd">
<svg xmlns="http://www.w3.org/2000/svg" viewBox="0 0 735 671">
<path fill="#fbfbfb" stroke="#fbfbfb" d="M124.422 148.126c-.854 1.384-6.191 27.426-5.764 28.124.253.412 7.214.75 15.468.75 13.819 0 14.969.139 14.506 1.75-.276.963-3.266 15.025-6.643 31.25s-6.763 32.181-7.524 35.457c-.761 3.276-1.274 6.068-1.138 6.203.475.476 30.816.53 31.29.056.666-.665 4.216-16.695 10.347-46.716 2.864-14.025 5.38-26.062 5.591-26.75.284-.93 4.359-1.25 15.914-1.25 8.542 0 15.531-.137 15.531-.305 0-.168 1.361-6.532 3.024-14.142 1.664-7.611 2.881-13.981 2.706-14.157-.62-.619-92.928-.887-93.308-.27m139.078.024c-25.138 3.042-48.339 23.263-54.548 47.539-12.2 47.701 39.766 74.688 82.263 42.72 22.409-16.857 31.672-45.912 21.215-66.548-6.183-12.201-19.893-22.19-32.129-23.409-3.19-.318-6.701-.707-7.801-.864-1.1-.156-5.15.097-9 .562m139-.002c-3.3.374-8.341 1.604-11.202 2.732l-5.202 2.053-5.629-2.577c-12.74-5.832-32.106-1.863-44.186 9.057-8.11 7.33-10.285 12.988-16.755 43.587-3.082 14.575-6.687 31.437-8.011 37.47-1.325 6.034-2.303 11.075-2.175 11.203.128.128 7.176.299 15.662.379 14.156.134 15.491-.006 16.165-1.703.404-1.017 3.91-16.924 7.791-35.349 3.881-18.425 7.488-34.5 8.015-35.722 1.087-2.518 5.633-4.072 7.233-2.472.999.999-2.911 21.261-12.147 62.944L349.344 252h15.328c8.43 0 15.649.021 16.042.046.691.044 2.254-6.897 11.685-51.889 4.658-22.225 5.439-24.055 10.292-24.125 4.129-.06 4.103.123-8.269 57.276-1.882 8.694-3.422 16.569-3.422 17.5 0 1.526 1.533 1.672 15.618 1.491 8.589-.111 15.732-.336 15.872-.5 1.203-1.41 15.892-74.497 15.865-78.935-.1-16.385-15.526-27.019-35.855-24.716m80.237-.122c-12.512 1.547-27.216 12.152-32.232 23.247-1.326 2.932-5.298 19.058-9.047 36.727-3.676 17.325-7.261 34.2-7.965 37.5-.704 3.3-1.107 6.185-.893 6.41.481.51 30.736.088 31.259-.436.21-.209 1.213-4.339 2.23-9.177 13.769-65.503 13.963-66.172 19.192-66.265 3.182-.057 2.907 2.161-4.808 38.9-4.188 19.943-7.393 36.481-7.123 36.751.464.464 30.804.496 31.267.033.119-.119 3.567-16.312 7.661-35.984 7.761-37.291 8.585-39.732 13.408-39.732 3.354 0 3.758 2.027 1.943 9.751-4.233 18.013-13.672 63.779-13.418 65.053.238 1.187 3.04 1.428 15.789 1.362l15.5-.081 1.318-5.793c11.258-49.48 15.465-72.45 14.257-77.846-4-17.875-26.305-26.02-47.216-17.242-4.624 1.941-4.654 1.941-8.658-.101-2.21-1.128-5.971-2.315-8.359-2.639-2.388-.325-5.242-.716-6.342-.871-1.1-.154-4.594.041-7.763.433m104.013-.248c-12.237.248-13.75.468-13.75 2.001 0 .947-1.575 9.083-3.5 18.079-3.936 18.396-4.107 20.736-2.023 27.754 2.644 8.901 10.742 16.213 19.85 17.921 2.825.531 3.613 1.098 3.239 2.334-.785 2.594-7.564 34.525-7.564 35.633 0 .63 5.832.953 15.749.874l15.749-.127 3.556-16.373c5.129-23.618 4.273-21.521 9.047-22.161 10.817-1.451 25.033-12.203 30.032-22.713 2.009-4.226 8.49-30.845 10.169-41.772.165-1.073-19.045-1.871-31.054-1.289-.687.034-1.25.976-1.25 2.095 0 5.873-6.372 31.575-8.235 33.216-2.107 1.856-24.801 2.65-27.458.961-1.11-.706.429-9.633 5.492-31.866 1.157-5.081 1.618-4.965-18.049-4.567m-330.591 30.914c-6.225 2.202-15.37 11.475-17.49 17.736-8.184 24.17 19.375 36.303 39.153 17.238 19.113-18.425 3.379-43.827-21.663-34.974M116.37 267.21c-.241.391-1.573 6.016-2.959 12.5-5.468 25.584-8.609 40.182-10.497 48.79a7317.648 7317.648 0 0 0-5.927 27.5 19522.658 19522.658 0 0 1-6.002 28 8259.933 8259.933 0 0 0-5.12 24c-1.689 7.975-3.498 16.3-4.02 18.5-.522 2.2-1.206 6.363-1.521 9.25l-.572 5.25h215.124c119.096 0 215.124-.383 215.124-.858 0-.473-2.587-2.575-5.75-4.672-9.464-6.276-27.351-25.57-26.5-28.585.137-.487-.153-.885-.645-.885-1.069 0-8.245-14.533-10.489-21.239-6.201-18.538-6.353-40.699-.421-61.261 2.074-7.189 9.354-22.738 10.925-23.333.484-.184.884-.859.89-1.5.015-1.855 6.634-9.682 7.515-8.886.437.395.504.208.148-.416-.803-1.405 12.188-13.89 19.244-18.495 2.841-1.853 4.584-3.489 3.874-3.635-3.109-.638-392.027-.662-392.421-.025M552 269.518c-21.421 3.274-39.718 13.858-54.521 31.54-5.373 6.418-11.441 18.419-14.558 28.792-1.563 5.2-.58 6.291 8.831 9.812 15.782 5.905 37.185 5.655 57.748-.673 3.85-1.185 8.35-2.513 10-2.953 1.65-.439 5.025-1.471 7.5-2.293 4.304-1.43 7.813-2.333 18.193-4.681 7.437-1.683 30.023-1.341 36.653.554 7.17 2.05 18.066 7.454 25.123 12.46 7.187 5.099 7.818 4.203 5.058-7.187-5.92-24.432-22.186-45.43-43.527-56.188-20.019-10.091-34.818-12.496-56.5-9.183m49.46 90.505c-3.872.485-14.222 2.99-23 5.566-30.344 8.906-29.362 8.726-47.96 8.822-19.504.102-28.949-2.243-41.846-10.388-7.738-4.887-7.444-4.875-7.064-.273 1.652 20.041 16.741 44.061 36.003 57.314 24.212 16.658 60.252 19.555 87.085 7 21.679-10.145 39.28-30.448 44.814-51.695 1.982-7.611 2.199-6.985-3.403-9.824-11.334-5.743-29.57-8.408-44.629-6.522M74.671 463.75c-.978 4.813-4.23 20.168-7.225 34.123C64.451 511.829 62 523.866 62 524.623c0 1.071 2.076 1.377 9.336 1.377h9.336l2.883-13.5 2.884-13.5h12.848c11.77 0 12.804.147 12.322 1.75-.578 1.925-5.609 24.276-5.609 24.921 0 .221 4.348.273 9.663.115l9.662-.286 7.277-32.938c4.001-18.117 7.537-33.979 7.856-35.25.577-2.298.521-2.312-9.22-2.312h-9.799l-2.884 13.5-2.883 13.5h-12.904c-11.824 0-12.858-.146-12.371-1.75.293-.962 1.451-6.025 2.574-11.25a1777.224 1777.224 0 0 1 2.555-11.75c.504-2.215.36-2.25-9.282-2.25h-9.793l-1.78 8.75m76.467 11.002-7.75 35.095c-1.863 8.441-3.388 15.529-3.388 15.75 0 1.138 19.092.306 19.446-.847.21-.687 3.642-15.875 7.627-33.75s7.451-33.288 7.703-34.25c.413-1.579-.504-1.75-9.409-1.748l-9.867.001-4.362 19.749m32.057 8.503c-7.422 33.247-7.392 32.783-2.412 37.764 4.803 4.802 7.677 5.187 35.712 4.783l20.996-.302 1.674-6c.921-3.3 1.711-7.237 1.755-8.75L241 508h-21.417c-24.261 0-22.983.521-20.854-8.5 1.527-6.469 3.805-16.435 7.201-31.5 1.177-5.225 2.38-10.288 2.673-11.25.481-1.584-.399-1.75-9.286-1.745l-9.817.005-6.305 28.245m92.973-25.652c-8.825 4.398-9.438 5.764-17.075 38.045-3.754 15.868-6.508 29.208-6.118 29.643.389.435 4.661.66 9.494.5l8.786-.291 3.152-13 3.152-13 22.408-.5 22.408-.5 1.789-7c.985-3.85 1.801-7.562 1.813-8.25.018-.962-4.938-1.25-21.508-1.25-23.64 0-24.018-.104-21.078-5.789 2.152-4.162 2.443-4.211 25.069-4.211h20.297l1.665-6.75c.916-3.712 1.901-7.538 2.189-8.5.489-1.635-1.175-1.75-25.347-1.75-25.866 0-25.872.001-31.096 2.603m71.315-1.353C346.71 458.381 331 523.872 331 524.967c0 .637 3.596 1.033 9.386 1.033h9.387l8.193-33.75c4.507-18.562 8.413-34.538 8.681-35.5.62-2.226-18.357-2.721-19.164-.5m43.561.327c-10.444 4.531-11.455 6.377-17.931 32.725-6.722 27.348-6.685 29.314.624 33.859 3.687 2.292 4.273 2.339 29.167 2.339h25.404l5.294-20.5c2.911-11.275 5.317-21.062 5.346-21.75.04-.956-4.179-1.25-17.909-1.25h-17.962l-1.05 4.25a411.454 411.454 0 0 1-2.039 7.866c-.543 1.989-.988 3.901-.988 4.25 0 .349 3.789.634 8.419.634h8.42l-1.024 3.75c-1.575 5.772-1.634 5.794-13.976 5.25-13.743-.606-13.176.635-8.436-18.488 4.646-18.74 2.641-17.512 28.586-17.512h20.768l1.61-6.25c.885-3.437 1.892-7.262 2.238-8.5l.628-2.25-25.866.039c-20.717.031-26.555.338-29.323 1.538m77.176 1.001c-6.516 3.247-9.814 7.143-11.629 13.739-11.146 40.495-11.776 45.215-6.69 50.088 4.191 4.015 8.096 4.545 33.725 4.571l23.127.024 2.059-8.2c1.132-4.51 1.837-8.56 1.565-9-.272-.44-9.638-.8-20.814-.8-22.284 0-23.134-.218-21.706-5.56l.786-2.94 22.561-.268 22.562-.269 1.661-6.731c.913-3.703 1.896-7.52 2.184-8.482.488-1.63-1.018-1.75-22.044-1.75-12.412 0-22.567-.239-22.567-.532 0-1.991 3.183-7.496 4.85-8.388 1.256-.672 9.702-1.08 22.363-1.08h20.344l1.859-7.25c1.022-3.988 2.07-7.812 2.328-8.5.368-.98-5.128-1.25-25.441-1.25-25.842 0-25.924.007-31.083 2.578m71.451-1.828c-.245.413-1.836 6.15-3.535 12.75s-5.727 21.9-8.95 34c-3.224 12.1-5.556 22.356-5.183 22.791.374.435 4.666.66 9.539.5l8.859-.291 3.549-13.248 3.55-13.249 11.128-.001c14.658-.003 14.448-.287 10.425 14.122-1.795 6.431-2.753 11.576-2.249 12.08.483.483 4.855.747 9.716.587l8.837-.291 3.375-13c2.92-11.248 3.239-13.606 2.367-17.5-.872-3.891-.745-4.838.942-7 10.47-13.42 7.781-28.178-5.822-31.956-4.235-1.176-45.866-1.439-46.548-.294m13.882 19.821c-.369 1.964-.917 4.214-1.219 5-.454 1.185 1.324 1.429 10.424 1.429 11.671 0 16.242-1.653 16.242-5.873 0-3.489-2.101-4.127-13.589-4.127h-11.188l-.67 3.571" fill-rule="evenodd"/>
<path fill="#9bb1cd" stroke="#9bb1cd" d="M121.67 160.906c-1.468 7.098-2.67 13.398-2.67 14 0 .743 4.806 1.094 15 1.094 13.084 0 15 .204 15 1.6 0 .88-3.375 17.5-7.5 36.933s-7.5 35.824-7.5 36.426c0 .755 4.712 1.008 15.245.817l15.246-.276 4.796-22.5c2.637-12.375 6.244-29.25 8.014-37.5l3.22-15 15.6-.275 15.6-.274 1.744-8.226c.959-4.524 2.331-10.813 3.05-13.975l1.308-5.75h-93.482l-2.671 12.906m136.539-11.381c-30.944 6.719-55.415 39.269-50.305 66.911 7.16 38.736 55.9 47.838 88.512 16.529 40.068-38.467 14.259-94.833-38.207-83.44m97.042-.038c-7.46 2.092-12.094 4.667-18.079 10.048-8.394 7.547-10.331 11.577-14.216 29.576-5.31 24.601-12.956 61.187-12.956 61.99 0 .495 6.887.899 15.304.899h15.304l2.809-13.25c1.545-7.287 3.427-15.95 4.182-19.25.755-3.3 2.954-13.499 4.885-22.664 4.18-19.832 3.99-19.275 7.059-20.674 2.64-1.202 5.033-.708 5.761 1.189.396 1.03-2.8 16.878-12.332 61.149-1.184 5.5-2.368 10.787-2.63 11.75-.439 1.612.75 1.75 15.091 1.75 8.562 0 15.567-.169 15.567-.375s2.449-11.794 5.442-25.75c2.994-13.956 6.395-30.1 7.559-35.875 2.614-12.961 6.818-18.039 11.259-13.597 1.204 1.204.295 6.558-6.409 37.75-4.296 19.991-7.821 36.696-7.831 37.122-.011.427 7.036.652 15.659.5l15.68-.275 2.712-13c1.492-7.15 5.011-23.938 7.82-37.306 6.634-31.564 6.499-34.985-1.752-44.383-7.529-8.575-25.505-11.19-38.848-5.653l-6.209 2.577-5.128-2.538c-6.386-3.161-17.82-3.921-25.703-1.71m122.773.057c-10.579 2.957-21.448 11.304-26.277 20.182-2.093 3.849-18.747 76.284-18.747 81.54 0 .404 6.893.734 15.318.734h15.318l7.324-34.223c9.014-42.116 8.48-40.201 11.6-41.622 3.539-1.613 6.833.144 6.058 3.231-.307 1.221-3.73 17.272-7.607 35.667-3.878 18.396-7.297 34.234-7.598 35.197-.506 1.615.651 1.75 15.001 1.75 15.305 0 15.556-.035 16.061-2.25.282-1.238 3.778-17.727 7.769-36.643 6.74-31.946 7.443-34.533 9.886-36.356 3.37-2.514 6.87-1.613 6.87 1.77 0 1.312-3.375 18.207-7.5 37.545s-7.5 35.345-7.5 35.572c0 .227 7.058.289 15.684.137l15.684-.275 4.779-22.5c12.569-59.164 12.332-57.331 8.47-65.5-6.89-14.573-28.803-20.078-45.67-11.473-3.589 1.831-3.622 1.828-8.862-.765-6.6-3.266-17.862-4.009-26.061-1.718m92.944 13.706c-5.815 26.696-5.262 33.442 3.473 42.342 3.714 3.784 6.522 5.623 10.559 6.916 3.025.969 5.617 1.855 5.76 1.97.25.2-1.569 9.277-5.583 27.855-1.396 6.464-1.597 8.952-.747 9.279.639.245 7.638.32 15.552.167l14.39-.279 1.715-8c.943-4.4 2.705-12.776 3.915-18.614l2.201-10.613 5.649-1.256c11.807-2.626 24.122-12.034 28.982-22.142 1.801-3.746 10.166-38.21 10.166-41.883 0-.613-5.862-.992-15.329-.992h-15.328l-2.236 10.75c-6.035 29.012-4.584 27.25-22.435 27.25-15.294 0-14.701 1.155-10.259-19.996 1.973-9.395 3.587-17.289 3.587-17.543 0-.254-6.91-.461-15.355-.461h-15.354l-3.323 15.25M258 177.545c-11.735 3.665-21.241 15.83-21.398 27.383-.26 19.1 23.862 25.392 40.326 10.518 20.501-18.521 6.808-45.939-18.928-37.901m-148.917 124.71c-4.08 19.385-12.288 57.97-18.241 85.745-5.953 27.775-10.828 50.837-10.833 51.25-.005.413 96.555.75 214.578.75h214.586l-7.84-5.813c-41.698-30.918-52.528-91.946-24.11-135.863 6.029-9.317 14.748-18.536 24.114-25.499l7.836-5.825-196.336.005-196.337.006-7.417 35.244M562 268.721c-31.018 2.008-58.441 19.249-71.875 45.19-3.677 7.1-7.125 16.695-7.125 19.826 0 4.259 20.246 9.272 37.338 9.246 13.051-.021 19.426-1.233 38.853-7.386 40.274-12.758 61.75-11.656 85.809 4.403 8.818 5.886 9.06 5.636 6.061-6.245-8.608-34.094-39.72-61.436-73.171-64.304a1435.3 1435.3 0 0 1-8.89-.785c-1.375-.13-4.525-.105-7 .055m-80 93.445c0 4.267 3.895 18.012 6.961 24.564 27.877 59.574 114.615 65.924 150.139 10.99 4.498-6.955 9.576-18.844 10.49-24.558l.665-4.156-5.716-2.617c-19.477-8.916-38.287-8.483-72.917 1.68-17.942 5.266-32.032 7.916-42.122 7.924-15.822.012-36.558-6.555-45.25-14.329l-2.25-2.013v2.515M76.657 457.25c-.307 1.238-3.507 15.9-7.11 32.584-3.603 16.683-6.824 31.421-7.157 32.75L61.783 525h9.359l9.358-.001 2.874-13.499 2.874-13.5h12.876c10.215 0 12.876.282 12.876 1.366 0 .751-1.125 6.349-2.5 12.44-1.375 6.091-2.5 11.552-2.5 12.134 0 .668 3.324 1.06 8.981 1.06 8.491 0 9.01-.123 9.506-2.25C128.953 507.893 140 457.334 140 456.329c0-2.267-17.704-1.861-18.397.421-.293.962-1.451 6.025-2.574 11.25a1777.224 1777.224 0 0 1-2.555 11.75c-.499 2.191-.85 2.25-13.493 2.25-7.14 0-12.981-.382-12.981-.849 0-.466 1.125-5.934 2.5-12.151 3.387-15.313 3.986-14-6.392-14-8.388 0-8.923.127-9.451 2.25m77.956 4.5C151.749 473.816 141 522.964 141 523.996c0 .597 3.608 1.004 8.892 1.004 8.46 0 8.919-.112 9.472-2.315 1.272-5.067 14.636-66.143 14.636-66.888 0-.438-4.002-.797-8.892-.797h-8.893l-1.602 6.75m34.498-3c-.531 2.063-3.567 15.38-6.745 29.595l-5.78 25.845 1.957 3.655c3.635 6.788 5.672 7.204 33.859 6.913l24.902-.258 1.806-7.5c.993-4.125 1.825-7.613 1.848-7.75.023-.137-9.353-.25-20.836-.25-17.277 0-21.09-.257-22.114-1.49-1.263-1.523-1.002-2.882 7.565-39.34 3.36-14.301 3.921-13.17-6.534-13.17h-8.962l-.966 3.75m91.831-2.802c-5.533 1.679-11.889 6.296-13.987 10.16-.853 1.57-13.955 55.933-13.955 57.9 0 .582 3.701.992 8.961.992h8.962l.988-3.75c.543-2.062 1.986-8.138 3.207-13.5l2.218-9.75h44.587l1.098-4.25c1.824-7.061 2.118-8.178 2.626-10 .454-1.629-1.071-1.75-22.147-1.75h-22.635l.672-2.25c2.425-8.127 4.412-8.75 27.92-8.75h19.326l1.608-7.123c.885-3.917 1.609-7.517 1.609-8 0-1.077-47.493-1.011-51.058.071m65.591 5.802c-.941 3.712-4.593 18.65-8.117 33.196-3.523 14.545-6.663 27.257-6.978 28.25-.524 1.651.221 1.804 8.806 1.804h9.378l8.217-34.25c4.519-18.837 8.204-34.587 8.189-35-.016-.413-4.023-.75-8.906-.75h-8.879l-1.71 6.75m47.461-5.816c-6.964 2.118-14.354 8.482-15.486 13.334-.286 1.228-2.768 11.352-5.514 22.499-5.698 23.127-5.645 22.653-3.034 26.934 3.653 5.992 5.26 6.299 32.952 6.299h25.011l.988-3.75c3.237-12.276 9.089-36.641 9.089-37.837 0-1.163-3.066-1.413-17.317-1.413h-17.317l-1.696 7.25c-.933 3.988-1.69 7.587-1.683 8 .007.413 3.613.75 8.013.75 8.742 0 8.573-.161 6.881 6.557L413.763 509h-11.31c-11.922 0-15.153-1.119-14.024-4.855.273-.905 1.649-6.595 3.056-12.645 5.042-21.674 3.465-20.627 30.802-20.455l19.17.121 1.749-6.833c.961-3.758 1.759-7.395 1.771-8.083.026-1.418-46.415-1.705-50.983-.316m79 0c-4.701 1.43-8.694 3.96-11.757 7.449-3.582 4.079-2.857 1.976-9.206 26.733-8.944 34.873-8.934 34.885 29.62 34.883l24.849-.001 1.764-7.249c.971-3.987 1.758-7.586 1.75-7.999-.008-.413-9.184-.75-20.392-.75-23.146 0-23.676-.163-22.036-6.8l.914-3.7 22.41-.5 22.41-.5 1.836-6.5c1.01-3.575 1.838-7.062 1.84-7.75.003-.962-5.061-1.25-21.996-1.25-12.1 0-22-.383-22-.851 0-2.537 2.49-7.352 4.355-8.42 1.415-.811 9.121-1.399 22.642-1.729l20.496-.5 1.674-6c2.918-10.465 5.188-9.512-22.417-9.414-13.337.047-25.378.429-26.756.848m66.109 2.816c-.536 2.063-4.604 17.558-9.039 34.435-4.435 16.877-8.064 30.957-8.064 31.288 0 .331 4.134.473 9.187.315l9.188-.288 3.47-13.25 3.47-13.25h9.778c16.293 0 16.486.248 12.407 16-1.353 5.225-2.469 9.837-2.48 10.25-.011.413 3.972.75 8.852.75h8.871l3.129-11.823c3.236-12.23 3.826-18.004 2.16-21.117-.735-1.374-.469-2.259 1.108-3.684 8.053-7.277 9.129-20.936 2.163-27.435-5.709-5.325-9.018-5.929-32.514-5.935L540.077 455l-.974 3.75m14.799 15c-.576 1.512-1.296 3.988-1.6 5.5l-.552 2.75h11.436c12.622 0 15.814-1.325 15.814-6.564 0-3.463-3.199-4.436-14.59-4.436-9.399 0-9.466.018-10.508 2.75" fill-rule="evenodd"/>
<path fill="#285594" stroke="#285594" d="M124.603 149.75c-.293.963-1.462 6.25-2.6 11.75-1.137 5.5-2.286 11.012-2.554 12.25l-.487 2.25H150.217l-.552 2.25c-.646 2.63-15.665 72.621-15.665 72.997.001.139 6.733.253 14.961.253h14.96l1.038-4.5c1.366-5.923 15.041-70.131 15.041-70.621 0-.208 6.958-.379 15.461-.379h15.462l.962-3.75c.529-2.062 1.696-7.35 2.594-11.75.898-4.4 1.841-9.012 2.096-10.25l.463-2.25h-45.952c-42.894 0-45.987.116-46.483 1.75m137.944-.656c-24.55 3.649-48.818 25.625-53.569 48.51-10.612 51.122 50.067 73.258 89.723 32.732 35.314-36.088 12.032-88.405-36.154-81.242m96.627-.058c-11.752 1.686-26.258 12.079-30.957 22.179-1.207 2.593-3.801 12.718-5.765 22.5a3403.496 3403.496 0 0 1-7.512 36.145c-2.167 10.099-3.94 19.099-3.94 20-.001 1.453 1.666 1.621 14.584 1.472 8.022-.093 14.699-.318 14.838-.5.307-.404 3.913-17.603 10.131-48.332 4.889-24.163 6.27-27.5 11.38-27.5 4.746 0 4.635 1.283-3.331 38.73-4.185 19.673-7.607 36.22-7.605 36.77.002.772 24.403 1.27 29.174.595.368-.052.922-1.333 1.231-2.845C395.334 179.9 396.745 175 402.488 175c5.283 0 5.215.494-9.039 66-2.478 11.389-3.577 10.503 12.993 10.478 7.939-.012 14.673-.259 14.963-.55 1.091-1.091 15.884-72.62 15.931-77.03.216-20.343-23.942-31.712-46.677-21.966l-4.614 1.978-5.273-2.345c-6.072-2.702-13.959-3.625-21.598-2.529m122.42-.013c-11.912 2.078-25.82 12.415-30.291 22.514-2.299 5.195-17.748 76.862-16.992 78.83.395 1.032 28.28 1.495 29.107.484.312-.381 7.033-31.78 11.666-54.494C479.072 176.802 479.99 175 485.966 175c3.694 0 3.418 2.464-4.341 38.802-4.194 19.64-7.625 36.156-7.625 36.703 0 .615 5.688.995 14.909.995h14.91l.529-3c.453-2.568 10.165-48.216 13.692-64.355 1.317-6.026 3.82-9.145 7.338-9.145 4.722 0 4.881 1.717 1.586 17.125-1.691 7.906-3.697 17.525-4.457 21.375-.761 3.85-2.761 13.466-4.445 21.369-1.684 7.903-3.062 14.878-3.062 15.5 0 1.201 28.475 1.489 29.664.3.335-.335 1.925-7.035 3.533-14.889 1.608-7.854 4.94-23.723 7.404-35.265 2.464-11.541 4.527-23.695 4.583-27.008.343-20.105-22.293-30.784-45.983-21.695l-5.298 2.033-5.202-2.335c-6.01-2.697-15.062-3.716-22.107-2.487m92.995.727c-1.489 4.773-7.588 35.135-7.583 37.749.021 11.754 9.46 23.433 20.344 25.173l3.877.62-.519 4.104c-.286 2.257-1.912 10.626-3.614 18.597-1.702 7.972-3.094 14.722-3.094 15-.001.679 29.031.309 29.718-.378.297-.297 2.048-7.869 3.891-16.827 1.843-8.958 3.578-17.237 3.855-18.397.401-1.681 1.504-2.227 5.435-2.693 10.467-1.239 23.658-10.875 29.313-21.413 1.605-2.991 3.925-11.157 6.188-21.785 1.991-9.35 3.849-18.012 4.129-19.25l.509-2.25h-14.952c-13.378 0-15.005.184-15.462 1.75-.281.963-1.93 8.5-3.664 16.75-4.226 20.106-3.723 19.65-21.299 19.278L598.5 185.5l-.297-2.547c-.24-2.06 2.123-14.284 6.322-32.703l.513-2.25h-14.952c-13.365 0-15.009.186-15.497 1.75m-321.205 29.757c-16.679 8.495-22.61 27.323-12.073 38.321 14.644 15.285 45.689.211 45.689-22.184 0-17.139-16.293-24.961-33.616-16.137M117 267.503c0 1.239-35.677 167.634-36.61 170.747-.499 1.663 10.144 1.75 213.723 1.75h214.248l-5.094-3.801c-50.532-37.702-56.861-109.856-13.494-153.83 3.777-3.83 9.7-8.855 13.161-11.166l6.294-4.203H313.114c-107.863 0-196.114.226-196.114.503m438 2.095c-30.97 5.705-52.858 21.329-65.778 46.954-2.861 5.676-6.823 17.319-6.065 17.825 16.252 10.842 42.832 11.389 73.843 1.52 42.564-13.547 62.74-12.692 88.281 3.74 3.73 2.4 6.934 4.363 7.121 4.363.187 0-.056-2.137-.54-4.75-5.947-32.091-29.904-58.133-61.862-67.248-7.317-2.086-28.736-3.557-35-2.404m50 91.096c-7.31.782-19.629 3.61-29.909 6.865-38.762 12.274-62.943 11.689-85.876-2.076l-7.285-4.373.606 3.695C494.451 437.483 592.23 460.462 636.553 401c5.083-6.819 13.447-25.808 13.447-30.529 0-2.723-15.014-7.975-26.974-9.436-8.365-1.022-11.164-1.075-18.026-.341m-448.575 95.422c-.349.57-15.425 67.463-15.425 68.444 0 .242 3.807.44 8.46.44h8.46l1.074-3.75c.591-2.062 4.132-17.557 7.869-34.431l6.795-30.682-8.428-.318c-4.635-.176-8.597-.042-8.805.297m33.602 1.384c-.401 1.1-1.479 5.375-2.394 9.5a10929.93 10929.93 0 0 1-4.701 21c-5.222 23.225-5.683 27.508-3.309 30.746 4.271 5.825 6.519 6.251 33.018 6.252l24.142.002 1.608-7.123c.885-3.917 1.609-7.405 1.61-7.75.001-.345-9.148-.488-20.329-.319-25.191.382-23.939 1.17-20.874-13.139 2.914-13.605 8.148-36.759 8.781-38.844.852-2.808-16.53-3.13-17.552-.325M418 456c-36.343.713-35.475.068-43.634 32.426-9.188 36.436-9.076 36.576 29.352 36.57l23.782-.003 4.924-19.747c2.708-10.86 5.093-20.421 5.3-21.246.35-1.393-9.966-1.722-32.815-1.047-1.09.032-1.963 1.701-2.772 5.297-.649 2.887-1.449 6.262-1.776 7.5-.581 2.199-.409 2.25 7.65 2.25h8.245l-.66 4.125c-1.208 7.555-1.331 7.629-12.913 7.799-8.916.13-10.704-.12-12.766-1.791l-2.399-1.942 3.85-15.608c5.16-20.923 3.16-19.583 29.228-19.583h20.327l1.102-4.25c.607-2.337 1.487-5.709 1.956-7.492.47-1.783.553-3.358.186-3.5-.367-.142-12.142-.033-26.167.242m79 0c-26.889.527-28.606.82-34.352 5.868-1.951 1.714-4.538 6.194-5.184 8.98-1.66 7.156-6.637 27.331-7.438 30.152-2.842 10.001-3.128 12.162-2.044 15.444 1.316 3.99 4.424 7.041 6.109 5.999.73-.45.96-.335.575.289-1.152 1.863 3.464 2.24 27.545 2.254l23.712.014 1.098-4.25a520.36 520.36 0 0 0 1.459-5.75c.199-.825.617-2.4.93-3.5.556-1.957.168-1.993-18.025-1.668-24.472.438-25.527.067-23.935-8.419l.641-3.413h44.832l1.102-4.25c.607-2.337 1.486-5.704 1.953-7.481l.85-3.231-22.164-.269c-24.633-.299-23.302.152-20.525-6.954 1.619-4.142 5.318-4.815 26.472-4.815h19.312l1.087-4.25c.598-2.337 1.522-5.572 2.052-7.187.53-1.615.621-3.19.201-3.5-.42-.31-12.238-.338-26.263-.063m-420.967 5.25c-.611 2.887-3.927 18.3-7.371 34.25l-6.26 29 8.425.291c4.633.16 8.597.118 8.808-.093.211-.211 1.51-5.742 2.886-12.291 1.375-6.549 2.707-12.469 2.959-13.157.457-1.249 27.52-1.951 27.52-.713 0 .745-5.029 23.677-5.53 25.213-.305.936 1.806 1.25 8.411 1.25h8.819l7.302-33.25c4.016-18.288 7.507-33.812 7.757-34.5.343-.941-1.77-1.25-8.552-1.25h-9.006l-1.578 7.25c-.868 3.988-2.16 9.95-2.872 13.25l-1.295 6-13.195.209c-7.256.115-13.401-.126-13.654-.536-.254-.41.785-6.467 2.308-13.459L94.685 456H77.142l-1.109 5.25m200.05-2.701c-7.342 4.197-9.42 7.524-12.146 19.451-8.153 35.669-9.97 43.484-10.524 45.25-.494 1.577.335 1.75 8.379 1.75h8.927l2.716-11.75c1.493-6.462 2.937-12.538 3.208-13.5.45-1.6 2.41-1.75 22.844-1.75h22.353l1.62-7.126c.892-3.919 1.428-7.319 1.192-7.555-.236-.236-10.041-.517-21.79-.624L281.5 482.5l.284-3.5c.577-7.094 1.677-7.439 25.491-8l21.225-.5 1.219-5 1.769-7.25.55-2.25-25.769.012c-25.711.012-25.779.018-30.186 2.537m68.423 12.701a14839.1 14839.1 0 0 1-8.106 33.123c-5.617 22.818-6.04 20.627 3.983 20.627 7.844 0 8.424-.145 9.003-2.25.341-1.237 4-16.2 8.132-33.25s7.717-31.562 7.966-32.25c.341-.94-1.744-1.25-8.409-1.25h-8.862l-3.707 15.25M540 456.397c0 .218-2.059 8.206-4.575 17.75a8166.393 8166.393 0 0 0-8.896 34.103L522.207 525h8.877c8.859 0 8.879-.006 9.536-2.75.361-1.513 1.874-7.475 3.361-13.25l2.704-10.5 10.407-.292c11.735-.328 14.423.086 15.295 2.359.497 1.293-3.283 18.376-5.138 23.224-.386 1.007 1.454 1.227 8.378 1l8.873-.291 3.185-11.5c3.485-12.582 3.91-16.6 2.162-20.436-1.015-2.229-.825-2.859 1.593-5.277 9.468-9.467 8.019-24.449-2.841-29.382-3.599-1.634-6.815-1.864-26.349-1.883-12.237-.012-22.25.157-22.25.375m13.523 15.853c-1.42 4.286-2.372 9.185-1.926 9.906.716 1.16 18.138 1.067 22.272-.118 5.905-1.694 7.949-6.651 3.908-9.481-2.886-2.022-23.599-2.284-24.254-.307" fill-rule="evenodd"/>
<path fill="#cb1c2b" stroke="#cb1c2b" d="M147.75 148.749c12.788.158 33.713.158 46.5 0 12.788-.158 2.325-.288-23.25-.288s-36.037.13-23.25.288m218.063-.066c.721.289 1.584.253 1.916-.079.332-.332-.258-.568-1.312-.525-1.165.048-1.402.285-.604.604M575 148.75c-.001.845 28.936.647 29.787-.203.3-.301-6.279-.547-14.62-.547-8.342 0-15.167.338-15.167.75m61.998 0c-.001.412 4.611.631 10.25.486 18.636-.48 20.461-.864 5.002-1.051-8.388-.102-15.251.153-15.252.565m-374.236.957c1.244.239 3.044.23 4-.02s-.062-.446-2.262-.435c-2.2.011-2.982.216-1.738.455m95.051-.024c.721.289 1.584.253 1.916-.079.332-.332-.258-.568-1.312-.525-1.165.048-1.402.285-.604.604m42.456.01c.973.254 2.323.237 3-.037.677-.274-.119-.481-1.769-.461-1.65.02-2.204.244-1.231.498m82.481-.031c.688.278 1.813.278 2.5 0 .688-.277.125-.504-1.25-.504s-1.937.227-1.25.504m41.519.031c.973.254 2.323.237 3-.037.677-.274-.119-.481-1.769-.461-1.65.02-2.204.244-1.231.498m-240.456.99c.721.289 1.584.253 1.916-.079.332-.332-.258-.568-1.312-.525-1.165.048-1.402.285-.604.604m112 0c.721.289 1.584.253 1.916-.079.332-.332-.258-.568-1.312-.525-1.165.048-1.402.285-.604.604m146 0c.721.289 1.584.253 1.916-.079.332-.332-.258-.568-1.312-.525-1.165.048-1.402.285-.604.604M574.158 153c0 1.375.227 1.938.504 1.25.278-.687.278-1.812 0-2.5-.277-.687-.504-.125-.504 1.25m61.842-.5c0 .825.177 1.5.393 1.5.216 0 .652-.675.969-1.5.316-.825.139-1.5-.393-1.5-.533 0-.969.675-.969 1.5m-289 .5c-.901.582-1.025.975-.309.985.655.008 1.469-.435 1.809-.985.767-1.242.421-1.242-1.5 0m158.398.505c.122.834.848 2.073 1.614 2.755 1.161 1.035 1.194.977.198-.352-.656-.876-.942-1.843-.635-2.15.307-.307.118-.83-.421-1.163-.538-.332-.878.077-.756.91M547 152.378c0 .207.788.995 1.75 1.75 1.586 1.243 1.621 1.208.378-.378-1.307-1.666-2.128-2.195-2.128-1.372m-162.267 1.746c.679.684 1.486.991 1.793.683.308-.308-.247-.867-1.233-1.243-1.425-.542-1.54-.428-.56.56m85.646.255c.127.86.509 1.842.85 2.184.342.341.518-.083.392-.942-.127-.86-.509-1.842-.85-2.184-.342-.341-.518.083-.392.942m-45.337 1.172c.517.623.607 1.501.199 1.951-.407.45-.171.49.525.089.697-.401.972-1.206.611-1.79-.381-.616-.073-.849.734-.556.764.278 1.265 1.045 1.114 1.704-.151.66.208.901.799.536 1.575-.973-.708-3.384-3.04-3.209-1.282.097-1.582.503-.942 1.275M243 156c-.901.582-1.025.975-.309.985.655.008 1.469-.435 1.809-.985.767-1.242.421-1.242-1.5 0m309.835 1.324c1.201 1.278 1.842 2.701 1.424 3.161-.417.459-.163.491.566.07 1.215-.702-1.995-5.555-3.674-5.555-.275 0 .483 1.046 1.684 2.324m-210.102-.2c.679.684 1.486.991 1.793.683.308-.308-.247-.867-1.233-1.243-1.425-.542-1.54-.428-.56.56m161.6.332c0 .801.383 1.22.85.931.467-.289.591-.944.274-1.456-.808-1.308-1.124-1.161-1.124.525m130.746.127c.048 1.165.285 1.402.604.605.289-.722.253-1.585-.079-1.917-.332-.332-.568.258-.525 1.312m-296.207 1.167c-1.243 1.586-1.208 1.621.378.378.962-.755 1.75-1.543 1.75-1.75 0-.823-.821-.294-2.128 1.372m122.533.392c-1.898 2.134-1.897 2.136.345.759 1.238-.76 2.25-1.724 2.25-2.142 0-1.205-.557-.909-2.595 1.383m-29.841.151c.376.986.935 1.541 1.243 1.233.308-.307.001-1.114-.683-1.793-.988-.98-1.102-.865-.56.56m-222.485 1.29c.048 1.165.285 1.402.604.605.289-.722.253-1.585-.079-1.917-.332-.332-.568.258-.525 1.312m3.38-.516c-.363.586-.445 1.281-.183 1.543s.743-.218 1.069-1.067c.676-1.762.1-2.072-.886-.476m24.173-.281c-.267.432.349.785 1.368.785 1.019 0 1.635-.353 1.368-.785-.268-.432-.883-.786-1.368-.786-.485 0-1.1.354-1.368.786m335.447 1.797c.048 1.165.285 1.402.604.605.289-.722.253-1.585-.079-1.917-.332-.332-.568.258-.525 1.312m62 0c.048 1.165.285 1.402.604.605.289-.722.253-1.585-.079-1.917-.332-.332-.568.258-.525 1.312m-397.572 1.406c-.35.566.051.734.941.393 1.732-.665 2.049-1.382.611-1.382-.518 0-1.216.445-1.552.989m97.493-.048c0 .518.445 1.216.989 1.552.566.35.734-.051.393-.941-.665-1.732-1.382-2.049-1.382-.611m100.157-.441c-.003.55.602 2.575 1.343 4.5.741 1.925 1.362 2.825 1.379 2 .017-.825-.587-2.85-1.343-4.5-.755-1.65-1.376-2.55-1.379-2m122.874 0c0 .55.436 1.675.969 2.5.533.825.969 1.05.969.5s-.436-1.675-.969-2.5c-.533-.825-.969-1.05-.969-.5m-327.806 3.25c-1.544 1.512-2.361 2.412-1.816 2 1.519-1.15 2.796-.891 1.996.405-.446.721-.274.882.457.43.644-.398.893-1.172.554-1.721-.339-.548.216-1.628 1.234-2.399 1.017-.771 1.52-1.416 1.116-1.433-.404-.018-1.997 1.206-3.541 2.718m428.854-1.167c.048 1.165.285 1.402.604.605.289-.722.253-1.585-.079-1.917-.332-.332-.568.258-.525 1.312m-203.68 1.667c-.396.688-.351.916.099.509.45-.408 1.534-.183 2.41.5 1.409 1.098 1.434 1.039.22-.509-1.636-2.086-1.8-2.116-2.729-.5m116.68.333c.048 1.165.285 1.402.604.605.289-.722.253-1.585-.079-1.917-.332-.332-.568.258-.525 1.312M559.272 172c0 2.475.195 3.488.434 2.25.238-1.238.238-3.262 0-4.5-.239-1.238-.434-.225-.434 2.25m-336.4-.25c-1.269 1.619-1.222 1.64.628.283 1.1-.807 2.188-1.594 2.417-1.75.229-.156-.054-.283-.628-.283s-1.662.787-2.417 1.75m229.692-.457c.376.986.935 1.541 1.243 1.233.308-.307.001-1.114-.683-1.793-.988-.98-1.102-.865-.56.56m117.515.29c.048 1.165.285 1.402.604.605.289-.722.253-1.585-.079-1.917-.332-.332-.568.258-.525 1.312m62 0c.048 1.165.285 1.402.604.605.289-.722.253-1.585-.079-1.917-.332-.332-.568.258-.525 1.312m-267.266 1.1c.721.289 1.584.253 1.916-.079.332-.332-.258-.568-1.312-.525-1.165.048-1.402.285-.604.604m156 0c.721.289 1.584.253 1.916-.079.332-.332-.258-.568-1.312-.525-1.165.048-1.402.285-.604.604m-297.804 1.806c-.68.819-1.604 1.262-2.053.984-.45-.278-1.054-.123-1.343.344-1.024 1.656 2.404.821 4.038-.984.912-1.008 1.419-1.833 1.126-1.833-.292 0-1.088.67-1.768 1.489m227.712-.203c-.292.759.256 1.285 1.337 1.285 1.379 0 1.568-.317.764-1.285-.587-.707-1.189-1.286-1.337-1.286-.149 0-.493.579-.764 1.286m-89.971.376c.688.278 1.813.278 2.5 0 .688-.277.125-.504-1.25-.504s-1.937.227-1.25.504m40.519.031c.973.254 2.323.237 3-.037.677-.274-.119-.481-1.769-.461-1.65.02-2.204.244-1.231.498m83 0c.973.254 2.323.237 3-.037.677-.274-.119-.481-1.769-.461-1.65.02-2.204.244-1.231.498m40 0c.973.254 2.323.237 3-.037.677-.274-.119-.481-1.769-.461-1.65.02-2.204.244-1.231.498m-262.519.969c.688.278 1.813.278 2.5 0 .688-.277.125-.504-1.25-.504s-1.937.227-1.25.504m8.063.021c.721.289 1.584.253 1.916-.079.332-.332-.258-.568-1.312-.525-1.165.048-1.402.285-.604.604m85.694 1.306c-.35.566.051.734.941.393 1.732-.665 2.049-1.382.611-1.382-.518 0-1.216.445-1.552.989m51.057.304c.376.986.935 1.541 1.243 1.233.308-.307.001-1.114-.683-1.793-.988-.98-1.102-.865-.56.56M436.158 179c0 1.375.227 1.938.504 1.25.278-.687.278-1.812 0-2.5-.277-.687-.504-.125-.504 1.25m122.921-.417c.048 1.165.285 1.402.604.605.289-.722.253-1.585-.079-1.917-.332-.332-.568.258-.525 1.312m9.545-.044c-.343.893-.585 2.375-.538 3.293.047.917.482.341.967-1.282.943-3.156.609-4.718-.429-2.011m-351.752 1.211c-1.243 1.586-1.208 1.621.378.378 1.666-1.307 2.195-2.128 1.372-2.128-.207 0-.995.787-1.75 1.75m149.207-.167c.048 1.165.285 1.402.604.605.289-.722.253-1.585-.079-1.917-.332-.332-.568.258-.525 1.312m82.921-.524c0 .582.45.781 1 .441s1-.816 1-1.059-.45-.441-1-.441-1 .477-1 1.059m40.079.524c.048 1.165.285 1.402.604.605.289-.722.253-1.585-.079-1.917-.332-.332-.568.258-.525 1.312M249 180.5c-1.375.786-2.024 1.445-1.441 1.465.582.019 1.932-.626 3-1.433 2.469-1.868 1.68-1.884-1.559-.032m-70.921 1.083c.048 1.165.285 1.402.604.605.289-.722.253-1.585-.079-1.917-.332-.332-.568.258-.525 1.312M282 181c0 .55.477 1 1.059 1s.781-.45.441-1-.816-1-1.059-1-.441.45-.441 1m-61.5 1c.34.55.816 1 1.059 1s.441-.45.441-1-.477-1-1.059-1-.781.45-.441 1m93.579.583c.048 1.165.285 1.402.604.605.289-.722.253-1.585-.079-1.917-.332-.332-.568.258-.525 1.312m244 0c.048 1.165.285 1.402.604.605.289-.722.253-1.585-.079-1.917-.332-.332-.568.258-.525 1.312m-70 1c.048 1.165.285 1.402.604.605.289-.722.253-1.585-.079-1.917-.332-.332-.568.258-.525 1.312m-135 1c.048 1.165.285 1.402.604.605.289-.722.253-1.585-.079-1.917-.332-.332-.568.258-.525 1.312m12 0c.048 1.165.285 1.402.604.605.289-.722.253-1.585-.079-1.917-.332-.332-.568.258-.525 1.312m151.559-.083c.317.825.753 1.5.969 1.5.216 0 .393-.675.393-1.5s-.436-1.5-.969-1.5c-.532 0-.709.675-.393 1.5m-368.559 1.083c.048 1.165.285 1.402.604.605.289-.722.253-1.585-.079-1.917-.332-.332-.568.258-.525 1.312m29 0c.048 1.165.285 1.402.604.605.289-.722.253-1.585-.079-1.917-.332-.332-.568.258-.525 1.312m64.38-.516c-.363.586-.389 1.336-.059 1.666.33.33.6.049.6-.625s.52-.905 1.155-.513c.715.443.883.275.44-.44-.884-1.431-1.296-1.448-2.136-.088m325.736 2.433c.02 1.65.244 2.204.498 1.231.254-.973.237-2.323-.037-3-.274-.677-.481.119-.461 1.769m-10.116.083c.048 1.165.285 1.402.604.605.289-.722.253-1.585-.079-1.917-.332-.332-.568.258-.525 1.312M315.252 190.5c.011 2.2.216 2.982.455 1.738.239-1.244.23-3.044-.02-4s-.446.062-.435 2.262m48.827-1.917c.048 1.165.285 1.402.604.605.289-.722.253-1.585-.079-1.917-.332-.332-.568.258-.525 1.312m70 0c.048 1.165.285 1.402.604.605.289-.722.253-1.585-.079-1.917-.332-.332-.568.258-.525 1.312m13 0c.048 1.165.285 1.402.604.605.289-.722.253-1.585-.079-1.917-.332-.332-.568.258-.525 1.312m40 0c.048 1.165.285 1.402.604.605.289-.722.253-1.585-.079-1.917-.332-.332-.568.258-.525 1.312m29 0c.048 1.165.285 1.402.604.605.289-.722.253-1.585-.079-1.917-.332-.332-.568.258-.525 1.312m-340 2c.048 1.165.285 1.402.604.605.289-.722.253-1.585-.079-1.917-.332-.332-.568.258-.525 1.312m149.921.358c0 .518.445 1.216.989 1.552.566.35.734-.051.393-.941-.665-1.732-1.382-2.049-1.382-.611M351.158 194c0 1.375.227 1.938.504 1.25.278-.687.278-1.812 0-2.5-.277-.687-.504-.125-.504 1.25m94.398 1.556c-.377 2.006-.485 3.848-.241 4.093.245.244.753-1.198 1.129-3.205.377-2.006.485-3.848.241-4.093-.245-.244-.753 1.198-1.129 3.205m69.523-1.973c.048 1.165.285 1.402.604.605.289-.722.253-1.585-.079-1.917-.332-.332-.568.258-.525 1.312m138.485.124c-.542 1.425-.428 1.54.56.56.684-.679.991-1.486.683-1.793-.308-.308-.867.247-1.243 1.233m-478.485 1.876c.048 1.165.285 1.402.604.605.289-.722.253-1.585-.079-1.917-.332-.332-.568.258-.525 1.312m147 2c.048 1.165.285 1.402.604.605.289-.722.253-1.585-.079-1.917-.332-.332-.568.258-.525 1.312M554 197c0 .55.477 1 1.059 1s.781-.45.441-1-.816-1-1.059-1-.441.45-.441 1m15.035-.7c-.143 3.238 5.306 9.575 6.53 7.594.443-.716.322-.942-.297-.56-1.323.818-3.416-1.637-2.949-3.457.194-.757.142-.971-.117-.476-.258.496-1.068-.179-1.8-1.5-.732-1.32-1.347-2.041-1.367-1.601m-359.956 2.283c.048 1.165.285 1.402.604.605.289-.722.253-1.585-.079-1.917-.332-.332-.568.258-.525 1.312m105.079.417c0 1.375.227 1.938.504 1.25.278-.687.278-1.812 0-2.5-.277-.687-.504-.125-.504 1.25m47.921-.417c.048 1.165.285 1.402.604.605.289-.722.253-1.585-.079-1.917-.332-.332-.568.258-.525 1.312m123 0c.048 1.165.285 1.402.604.605.289-.722.253-1.585-.079-1.917-.332-.332-.568.258-.525 1.312m29 0c.048 1.165.285 1.402.604.605.289-.722.253-1.585-.079-1.917-.332-.332-.568.258-.525 1.312M174.158 200c0 1.375.227 1.938.504 1.25.278-.687.278-1.812 0-2.5-.277-.687-.504-.125-.504 1.25m175.48-.5c-.316.825-.139 1.5.393 1.5.533 0 .969-.675.969-1.5s-.177-1.5-.393-1.5c-.216 0-.652.675-.969 1.5m224.695.956c0 .801.383 1.22.85.931.467-.289.591-.944.274-1.456-.808-1.308-1.124-1.161-1.124.525m-404.254 2.127c.048 1.165.285 1.402.604.605.289-.722.253-1.585-.079-1.917-.332-.332-.568.258-.525 1.312m65.207 2.917c.008 2.75.202 3.756.432 2.236.229-1.52.223-3.77-.014-5-.237-1.23-.425.014-.418 2.764m125.793-2.917c.048 1.165.285 1.402.604.605.289-.722.253-1.585-.079-1.917-.332-.332-.568.258-.525 1.312m70 0c.048 1.165.285 1.402.604.605.289-.722.253-1.585-.079-1.917-.332-.332-.568.258-.525 1.312m13.079.417c0 1.375.227 1.938.504 1.25.278-.687.278-1.812 0-2.5-.277-.687-.504-.125-.504 1.25m68.921-.417c.048 1.165.285 1.402.604.605.289-.722.253-1.585-.079-1.917-.332-.332-.568.258-.525 1.312m130.654-.459c.679.684 1.486.991 1.793.683.308-.308-.247-.867-1.233-1.243-1.425-.542-1.54-.428-.56.56m-470.654 2.459c.048 1.165.285 1.402.604.605.289-.722.253-1.585-.079-1.917-.332-.332-.568.258-.525 1.312m469.654-.459c.679.684 1.486.991 1.793.683.308-.308-.247-.867-1.233-1.243-1.425-.542-1.54-.428-.56.56M430.158 207c0 1.375.227 1.938.504 1.25.278-.687.278-1.812 0-2.5-.277-.687-.504-.125-.504 1.25m-41.079.583c.048 1.165.285 1.402.604.605.289-.722.253-1.585-.079-1.917-.332-.332-.568.258-.525 1.312m-217.455 1.956c-.343.893-.578 2.6-.522 3.793.065 1.37.405.883.924-1.325.873-3.717.636-5.174-.402-2.468m408.883-.55c-.35.566.051.734.941.393 1.732-.665 2.049-1.382.611-1.382-.518 0-1.216.445-1.552.989M552.158 211c0 1.375.227 1.938.504 1.25.278-.687.278-1.812 0-2.5-.277-.687-.504-.125-.504 1.25m-272.618 2.822-2.96 3.678 2.87-2.5c2.253-1.963 2.731-2.113 2.222-.698-.411 1.139-.261 1.562.408 1.149.581-.359.836-1.228.566-1.93-.269-.703.015-1.782.632-2.399s.694-1.09.172-1.05c-.522.04-2.282 1.727-3.91 3.75m39.539-2.239c.048 1.165.285 1.402.604.605.289-.722.253-1.585-.079-1.917-.332-.332-.568.258-.525 1.312m303.902-.923c.567.281.777.922.466 1.425s-.051.915.577.915c1.484 0 .724-2.302-.861-2.613-.667-.13-.749-.007-.182.273m-263.902 1.923c.048 1.165.285 1.402.604.605.289-.722.253-1.585-.079-1.917-.332-.332-.568.258-.525 1.312m123 0c.048 1.165.285 1.402.604.605.289-.722.253-1.585-.079-1.917-.332-.332-.568.258-.525 1.312m29 0c.048 1.165.285 1.402.604.605.289-.722.253-1.585-.079-1.917-.332-.332-.568.258-.525 1.312m76.921-1.19c0 .216.675.652 1.5.969.825.316 1.5.139 1.5-.393 0-.533-.675-.969-1.5-.969s-1.5.177-1.5.393m40.813.29c.721.289 1.584.253 1.916-.079.332-.332-.258-.568-1.312-.525-1.165.048-1.402.285-.604.604M318.158 216c0 1.375.227 1.938.504 1.25.278-.687.278-1.812 0-2.5-.277-.687-.504-.125-.504 1.25m301.921-.417c.048 1.165.285 1.402.604.605.289-.722.253-1.585-.079-1.917-.332-.332-.568.258-.525 1.312M358.158 217c0 1.375.227 1.938.504 1.25.278-.687.278-1.812 0-2.5-.277-.687-.504-.125-.504 1.25m69.921-.417c.048 1.165.285 1.402.604.605.289-.722.253-1.585-.079-1.917-.332-.332-.568.258-.525 1.312m13 0c.048 1.165.285 1.402.604.605.289-.722.253-1.585-.079-1.917-.332-.332-.568.258-.525 1.312m40 0c.048 1.165.285 1.402.604.605.289-.722.253-1.585-.079-1.917-.332-.332-.568.258-.525 1.312M208 217.059c0 .582.45.781 1 .441s1-.816 1-1.059-.45-.441-1-.441-1 .477-1 1.059m97.459.008c-.363.586-.445 1.281-.183 1.543s.743-.218 1.069-1.067c.676-1.762.1-2.072-.886-.476M386.5 217c.34.55.816 1 1.059 1s.441-.45.441-1-.477-1-1.059-1-.781.45-.441 1m82.959.067c-.363.586-.445 1.281-.183 1.543s.743-.218 1.069-1.067c.676-1.762.1-2.072-.886-.476m-299.38 1.516c.048 1.165.285 1.402.604.605.289-.722.253-1.585-.079-1.917-.332-.332-.568.258-.525 1.312M270 221c-1.925 1.054-3.14 1.935-2.7 1.958 1.059.056 6.7-2.877 6.7-3.484 0-.654-.059-.632-4 1.526m47.079-.417c.048 1.165.285 1.402.604.605.289-.722.253-1.585-.079-1.917-.332-.332-.568.258-.525 1.312m109.562.627c-.338 1.26-.575 3.19-.527 4.29.048 1.1.499.245 1.002-1.901.975-4.155.558-6.248-.475-2.389m13.517-.21c0 1.375.227 1.938.504 1.25.278-.687.278-1.812 0-2.5-.277-.687-.504-.125-.504 1.25m69 0c0 1.375.227 1.938.504 1.25.278-.687.278-1.812 0-2.5-.277-.687-.504-.125-.504 1.25m40.921-.417c.048 1.165.285 1.402.604.605.289-.722.253-1.585-.079-1.917-.332-.332-.568.258-.525 1.312m69 0c.048 1.165.285 1.402.604.605.289-.722.253-1.585-.079-1.917-.332-.332-.568.258-.525 1.312M169.158 223c0 1.375.227 1.938.504 1.25.278-.687.278-1.812 0-2.5-.277-.687-.504-.125-.504 1.25m187.413.571c-.367 1.466-.475 2.858-.24 3.094.236.235.73-.771 1.098-2.236.367-1.466.475-2.858.24-3.094-.236-.235-.73.771-1.098 2.236m164.508-.988c.048 1.165.285 1.402.604.605.289-.722.253-1.585-.079-1.917-.332-.332-.568.258-.525 1.312m-267.311 2.142c1.797.222 4.497.218 6-.01 1.503-.229.032-.411-3.268-.405-3.3.005-4.529.192-2.732.415m44.565.731c0 .801.383 1.22.85.931.467-.289.591-.944.274-1.456-.808-1.308-1.124-1.161-1.124.525m3.181-.609c.283.283-.697 1.778-2.177 3.323s-2.499 2.961-2.264 3.146c.235.186 1.874-1.309 3.642-3.322 2.126-2.42 2.719-3.661 1.75-3.661-.806 0-1.234.232-.951.514M316.158 226c0 1.375.227 1.938.504 1.25.278-.687.278-1.812 0-2.5-.277-.687-.504-.125-.504 1.25m122.921-.417c.048 1.165.285 1.402.604.605.289-.722.253-1.585-.079-1.917-.332-.332-.568.258-.525 1.312m40.079.417c0 1.375.227 1.938.504 1.25.278-.687.278-1.812 0-2.5-.277-.687-.504-.125-.504 1.25m29 0c0 1.375.227 1.938.504 1.25.278-.687.278-1.812 0-2.5-.277-.687-.504-.125-.504 1.25m81.921-.417c.048 1.165.285 1.402.604.605.289-.722.253-1.585-.079-1.917-.332-.332-.568.258-.525 1.312m-205 1c.048 1.165.285 1.402.604.605.289-.722.253-1.585-.079-1.917-.332-.332-.568.258-.525 1.312m-27 1c.048 1.165.285 1.402.604.605.289-.722.253-1.585-.079-1.917-.332-.332-.568.258-.525 1.312m-190 1c.048 1.165.285 1.402.604.605.289-.722.253-1.585-.079-1.917-.332-.332-.568.258-.525 1.312m147 2c.048 1.165.285 1.402.604.605.289-.722.253-1.585-.079-1.917-.332-.332-.568.258-.525 1.312m110 0c.048 1.165.285 1.402.604.605.289-.722.253-1.585-.079-1.917-.332-.332-.568.258-.525 1.312m82 0c.048 1.165.285 1.402.604.605.289-.722.253-1.585-.079-1.917-.332-.332-.568.258-.525 1.312m81.39 1.467c-.368.596-.399 1.353-.069 1.683.33.33.607-.037.615-.816.013-1.167.187-1.152.985.083.582.901.975 1.025.985.309.021-1.684-1.716-2.553-2.516-1.259m-296.597 3.7c-1.243 1.586-1.208 1.621.378.378 1.666-1.307 2.195-2.128 1.372-2.128-.207 0-.995.787-1.75 1.75m22.207-.167c.048 1.165.285 1.402.604.605.289-.722.253-1.585-.079-1.917-.332-.332-.568.258-.525 1.312m40 0c.048 1.165.285 1.402.604.605.289-.722.253-1.585-.079-1.917-.332-.332-.568.258-.525 1.312m29 0c.048 1.165.285 1.402.604.605.289-.722.253-1.585-.079-1.917-.332-.332-.568.258-.525 1.312m94 0c.048 1.165.285 1.402.604.605.289-.722.253-1.585-.079-1.917-.332-.332-.568.258-.525 1.312M505.5 237c-.38 1.729-.482 3.351-.227 3.606.255.255.751-.974 1.102-2.731.834-4.168.026-4.976-.875-.875m-339.421.583c.048 1.165.285 1.402.604.605.289-.722.253-1.585-.079-1.917-.332-.332-.568.258-.525 1.312m256.559 1.917c-.316.825-.139 1.5.393 1.5.533 0 .969-.675.969-1.5s-.177-1.5-.393-1.5c-.216 0-.652.675-.969 1.5m13.52.5c0 1.375.227 1.938.504 1.25.278-.687.278-1.812 0-2.5-.277-.687-.504-.125-.504 1.25m108.921-.417c.048 1.165.285 1.402.604.605.289-.722.253-1.585-.079-1.917-.332-.332-.568.258-.525 1.312m-322.695 1.143c1.662 1.966 3.616 2.262 3.616.548 0-.334-.301-.306-.669.062-.368.367-1.605-.12-2.75-1.084-2.076-1.747-2.076-1.746-.197.474m159.695-.143c.048 1.165.285 1.402.604.605.289-.722.253-1.585-.079-1.917-.332-.332-.568.258-.525 1.312m-217 1c.048 1.165.285 1.402.604.605.289-.722.253-1.585-.079-1.917-.332-.332-.568.258-.525 1.312M283 241.5c-1.375.786-2.024 1.445-1.441 1.465.582.019 1.932-.626 3-1.433 2.469-1.868 1.68-1.884-1.559-.032m-9.986.914c.648.648 1.324.648 1.972 0 .647-.647.309-.985-.986-.985s-1.633.338-.986.985m-46.471.517c-.317.512-.049 1.256.595 1.654.698.432.904.292.51-.345-.363-.588-.095-1.297.596-1.576.899-.362.917-.529.065-.585-.655-.043-1.45.34-1.766.852m49.964.058c-.35.566.051.734.941.393 1.732-.665 2.049-1.382.611-1.382-.518 0-1.216.445-1.552.989m309.572.594c.048 1.165.285 1.402.604.605.289-.722.253-1.585-.079-1.917-.332-.332-.568.258-.525 1.312m-274 1c.048 1.165.285 1.402.604.605.289-.722.253-1.585-.079-1.917-.332-.332-.568.258-.525 1.312m123 0c.048 1.165.285 1.402.604.605.289-.722.253-1.585-.079-1.917-.332-.332-.568.258-.525 1.312m69 0c.048 1.165.285 1.402.604.605.289-.722.253-1.585-.079-1.917-.332-.332-.568.258-.525 1.312m11.951 1.085c-.016 1.193-.31 2.993-.653 4-.467 1.372-.202 1.268 1.053-.412 1.241-1.663 1.411-2.7.653-4-.923-1.586-1.025-1.546-1.053.412m-352.459 1.903c-.367 1.466-.475 2.858-.24 3.094.236.235.73-.771 1.098-2.236.367-1.466.475-2.858.24-3.094-.236-.235-.73.771-1.098 2.236M275 246c-.825.533-1.05.969-.5.969s1.675-.436 2.5-.969c.825-.533 1.05-.969.5-.969s-1.675.436-2.5.969m159.158 3c0 1.375.227 1.938.504 1.25.278-.687.278-1.812 0-2.5-.277-.687-.504-.125-.504 1.25m-83.079.583c.048 1.165.285 1.402.604.605.289-.722.253-1.585-.079-1.917-.332-.332-.568.258-.525 1.312m29 0c.048 1.165.285 1.402.604.605.289-.722.253-1.585-.079-1.917-.332-.332-.568.258-.525 1.312m40.485.124c-.542 1.425-.428 1.54.56.56.684-.679.991-1.486.683-1.793-.308-.308-.867.247-1.243 1.233m82.515-.124c.048 1.165.285 1.402.604.605.289-.722.253-1.585-.079-1.917-.332-.332-.568.258-.525 1.312m-259.329 1.079c.688.278 1.813.278 2.5 0 .688-.277.125-.504-1.25-.504s-1.937.227-1.25.504m15 0c.688.278 1.813.278 2.5 0 .688-.277.125-.504-1.25-.504s-1.937.227-1.25.504M118 267.833c-1.416.472-1.242 2.903.25 3.505.747.301.545.536-.5.583-.963.043-1.75.761-1.75 1.593 0 .833-2.264 11.746-5.03 24.25-2.767 12.505-4.81 23.861-4.54 25.236.27 1.375.202 1.825-.15 1s-2.071 5.25-3.82 13.5a7181.143 7181.143 0 0 1-7.828 36.248c-2.557 11.687-4.811 22.487-5.009 24-.198 1.514-.695 3.546-1.104 4.517-.41.971-.511 2.659-.225 3.751.286 1.093.171 1.772-.254 1.509-1.147-.709-2.695 9.066-2.571 16.232.091 5.193-.083 5.898-1.021 4.146-1.007-1.882-1.256-1.484-2.289 3.659-1.297 6.457-1.378 9.245-.159 5.438.768-2.398.805-2.409.9-.25L83 439h207.059c165.381 0 206.908-.252 206.308-1.25-.487-.811-.141-.755.983.158 1.314 1.066 2.016 1.126 2.892.25.637-.637 1.631-1.151 2.208-1.143.578.009.375.493-.45 1.076-1.333.943-1.333 1.012 0 .62.825-.242 2.4-.012 3.5.513 1.125.537.688-.164-1-1.603-1.65-1.406-3.586-2.351-4.302-2.1-.716.251-1.069.079-.784-.382.667-1.079-4.231-5.37-5.345-4.682-.463.287-1.456-.262-2.206-1.218-1.257-1.604-1.208-1.626.637-.286 1.1.799.232-.428-1.928-2.725-3.249-3.455-4.185-3.965-5.414-2.953-1.288 1.062-1.325.924-.279-1.039.664-1.246.85-2.205.414-2.132-2.369.397-4.154-.301-4.745-1.854-.534-1.403-.417-1.502.593-.5.692.688 1.732 1.243 2.309 1.235.649-.01.611-.297-.097-.75-1.471-.942-11.353-16.851-11.353-18.276 0-.593-.445-.802-.989-.466-.587.363-.721-.086-.33-1.105.444-1.157.281-1.483-.5-1-.739.457-.957.191-.601-.735.306-.798.076-1.748-.512-2.111-.587-.363-1.068-1.533-1.068-2.601s-.477-1.941-1.059-1.941-.781-.45-.441-1 .184-1-.347-1c-.531 0-.73-.9-.443-2 .288-1.1.133-2.001-.343-2.002-.477-.001-.968-1.43-1.09-3.175-.123-1.744-.573-3.431-1-3.748-.841-.623-.895-.966-1.142-7.325-.117-2.993-.436-3.823-1.078-2.807-.572.903-.751-2.087-.48-8 .831-18.122 1.378-23.622 3.033-30.509.917-3.814 1.632-7.722 1.59-8.684-.041-.962.373-1.75.921-1.75s.719-.45.379-1c-.34-.55-.093-1 .548-1s.907-.675.59-1.5c-.316-.825-.145-1.5.38-1.5 1.318 0 4.119-6.969 3.321-8.261-.372-.602-.169-.752.477-.353.681.421 1.377-.308 1.763-1.845.351-1.398 1.066-2.541 1.588-2.541.523 0 .673-.45.333-1s-.243-1 .215-1c.458 0 2.82-2.728 5.247-6.061 4.866-6.681 14.986-16.552 21.157-20.636 4.315-2.856 3.739-4.431-1.246-3.411-1.634.335-88.224.383-192.422.108s-189.902-.35-190.451-.167m437.975 2.337c-1.884.368-3.844.411-4.355.095-.538-.332-.584-.016-.11.75.597.968.36 1.149-.881.673-2.581-.991-12.233 1.295-10.509 2.488 1.005.695.812.797-.709.373-2.397-.667-9.411 1.958-9.411 3.523 0 .576-.455.765-1.012.421-1.139-.704-10.318 4.284-13.696 7.443-1.215 1.135-2.589 2.064-3.055 2.064-1.665 0-11.316 11.063-10.625 12.181.395.639.252.853-.329.494-1.362-.842-6.471 5.392-5.817 7.097.316.823.068 1.058-.647.616-.801-.495-.936-.134-.436 1.167.397 1.036.403 1.564.012 1.173-1.161-1.161-3.328 1.284-2.666 3.009.385 1.004.207 1.342-.482.916-.683-.422-2.247 2.317-4.17 7.303C483.756 330.569 483.46 332 485 332c.55 0 1 .498 1 1.107s-.698.839-1.552.511c-3.29-1.262-.258 1.251 3.789 3.14 9.678 4.519 43.964 7.632 47.313 4.296.522-.521 2.836-1.057 5.14-1.192 3.954-.232 5.144-1.771 1.501-1.941-.949-.044-1.166-.292-.496-.565.657-.267 2.031-.038 3.054.509 1.348.722 3.493.438 7.805-1.033 3.27-1.116 7.296-2.395 8.946-2.844 1.65-.448 5.7-1.539 9-2.423 3.3-.885 6.675-1.884 7.5-2.221.825-.336 3.075-.787 5-1.001 1.925-.214 4.14-.62 4.921-.901.782-.281 5.507-.766 10.5-1.078 4.994-.313 9.304-.594 9.579-.625.275-.031 1.295.291 2.267.716.971.424 2.884.558 4.25.297 1.366-.261 2.483-.087 2.483.387 0 .473.843.861 1.874.861 1.031 0 3.749.661 6.041 1.47 2.291.808 3.896 1.033 3.566.5-.843-1.364.123-1.207 1.716.28 2.616 2.441 7.824 4.855 8.96 4.153.635-.393.883-.277.552.259-.33.534.613 1.688 2.095 2.563 2.807 1.658 4.895 1.871 4.421.451-.151-.454.194-.535.767-.181.572.354.822.997.555 1.429-.267.432.626 1.829 1.984 3.105l2.469 2.32v-3.175c0-2.35-.454-3.178-1.75-3.189-1.364-.012-1.45-.205-.393-.876 1.584-1.003-.231-8.376-4.359-17.71-2.259-5.108-4.09-7.434-2.872-3.649.445 1.386.354 1.457-.439.341-.551-.775-.742-2.087-.425-2.914.374-.973.168-1.252-.581-.789-.727.449-.96.2-.626-.671.293-.763-.425-2.474-1.595-3.802-1.582-1.796-1.981-1.953-1.555-.613.348 1.095.168 1.552-.457 1.166-.566-.35-.781-1.418-.478-2.372.379-1.195-1.368-3.744-5.595-8.166-3.38-3.537-5.522-5.551-4.76-4.477 1.374 1.938 1.364 1.938-1.272 0-1.462-1.074-2.257-2.101-1.766-2.281.49-.18-.339-1.316-1.843-2.524-3.735-2.999-6.26-4.544-3.92-2.398 1.049.962 1.421 1.75.827 1.75-.595 0-2.048-1.307-3.229-2.905-1.182-1.598-4.458-4.105-7.28-5.571-2.823-1.466-4.258-1.959-3.191-1.095 1.068.864 1.471 1.571.896 1.571-.575 0-2.241-1.109-3.703-2.464-1.654-1.532-3.283-2.224-4.311-1.83-1.108.425-1.413.249-.928-.536.633-1.024-.488-1.425-3.033-1.085-.351.047-.96-.434-1.353-1.07-.393-.636-2.764-1.236-5.268-1.333-2.505-.096-4.312-.568-4.016-1.046.296-.479-1.283-.697-3.509-.485-2.226.212-3.847.06-3.601-.338.585-.945-5.928-.356-7.62.69-.843.521-1.061.413-.618-.304.748-1.21-5.282-1.226-11.402-.029m-59.416 3.362c-1.068.807-1.46 1.468-.873 1.468.588 0 1.629-.675 2.314-1.5 1.557-1.876 1.067-1.866-1.441.032m-5.635 4.218-2.424 2.75 2.75-2.424c2.57-2.266 3.209-3.076 2.424-3.076-.179 0-1.416 1.238-2.75 2.75m33.242 3.126c-1.067.677-1.007.971.302 1.473 1.087.417 1.396.239.92-.53-.483-.781-.157-.944 1-.5 1.019.391 1.468.257 1.105-.33-.741-1.2-1.569-1.227-3.327-.113m84.167 4.624c0 .72.6 1.079 1.334.798.733-.282 1.333-.641 1.333-.798 0-.157-.6-.516-1.333-.798-.734-.281-1.334.078-1.334.798m19.746 12.083c.048 1.165.285 1.402.604.605.289-.722.253-1.585-.079-1.917-.332-.332-.568.258-.525 1.312m3.921 3.191c0 .61.457 1.391 1.016 1.736.559.346.715 1.117.346 1.714-.41.663-.203.796.532.341.931-.575.917-1.119-.062-2.404a84.02 84.02 0 0 1-1.549-2.078c-.156-.229-.283.082-.283.691m-138.657 13.987c-.136 2.287-.016 2.406.853.853.559-.998.629-2.188.158-2.659-.472-.471-.924.338-1.011 1.806m102.47 7.922c.721.289 1.584.253 1.916-.079.332-.332-.258-.568-1.312-.525-1.165.048-1.402.285-.604.604m48.811.856c-.965 2.514-.681 3.163.498 1.136.584-1.004.851-2.036.593-2.293-.257-.258-.749.263-1.091 1.157m-183.545 8.044c.048 1.165.285 1.402.604.605.289-.722.253-1.585-.079-1.917-.332-.332-.568.258-.525 1.312m-1.254 6.091c.426 2.093.678 2.345.969.97.217-1.021-.043-2.293-.576-2.826-.626-.626-.766.031-.393 1.856M482 361.734c0 .459 1.358 1.637 3.018 2.617 1.659.981 2.761 2.198 2.448 2.705-.314.506.148.646 1.025.309.877-.337 1.463-.687 1.302-.779-.161-.092-1.98-1.409-4.043-2.927-2.062-1.519-3.75-2.385-3.75-1.925m119.762-.027c1.244.239 3.044.23 4-.02s-.062-.446-2.262-.435c-2.2.011-2.982.216-1.738.455m19.488-.018c.962.252 2.538.252 3.5 0 .962-.251.175-.457-1.75-.457s-2.712.206-1.75.457m-25.5.973c.688.278 1.813.278 2.5 0 .688-.277.125-.504-1.25-.504s-1.937.227-1.25.504m32.519.031c.973.254 2.323.237 3-.037.677-.274-.119-.481-1.769-.461-1.65.02-2.204.244-1.231.498m-40.019 1.013c-1.237.238-2.25.828-2.25 1.312 0 .785 1.336.525 7-1.361 1.843-.613-1.489-.579-4.75.049m44.257.283c-.35.566.051.734.941.393 1.732-.665 2.049-1.382.611-1.382-.518 0-1.216.445-1.552.989M483.158 367c0 1.375.227 1.938.504 1.25.278-.687.278-1.812 0-2.5-.277-.687-.504-.125-.504 1.25m96.655-.317c.721.289 1.584.253 1.916-.079.332-.332-.258-.568-1.312-.525-1.165.048-1.402.285-.604.604m-88.08 1.441c.679.684 1.486.991 1.793.683.308-.308-.247-.867-1.233-1.243-1.425-.542-1.54-.428-.56.56M574.5 368c-1.319.567-1.489.878-.5.914.825.031 2.175-.381 3-.914 1.828-1.181.249-1.181-2.5 0m-114.421 2.583c.048 1.165.285 1.402.604.605.289-.722.253-1.585-.079-1.917-.332-.332-.568.258-.525 1.312m47.734 4.1c.721.289 1.584.253 1.916-.079.332-.332-.258-.568-1.312-.525-1.165.048-1.402.285-.604.604m-412.734 1.9c.048 1.165.285 1.402.604.605.289-.722.253-1.585-.079-1.917-.332-.332-.568.258-.525 1.312m416.734-.9c.721.289 1.584.253 1.916-.079.332-.332-.258-.568-1.312-.525-1.165.048-1.402.285-.604.604m35 0c.721.289 1.584.253 1.916-.079.332-.332-.258-.568-1.312-.525-1.165.048-1.402.285-.604.604m-29.563 1.006c.962.252 2.538.252 3.5 0 .962-.251.175-.457-1.75-.457s-2.712.206-1.75.457m21 0c.962.252 2.538.252 3.5 0 .962-.251.175-.457-1.75-.457s-2.712.206-1.75.457m-444.171 4.894c.048 1.165.285 1.402.604.605.289-.722.253-1.585-.079-1.917-.332-.332-.568.258-.525 1.312M646 380.211c0 .3-.681 2.175-1.513 4.167-.833 1.992-1.26 3.622-.949 3.622.874 0 3.651-7.145 3.021-7.775-.308-.307-.559-.313-.559-.014M93.086 385c-.031.825.381 2.175.914 3 1.181 1.828 1.181.249 0-2.5-.567-1.319-.878-1.489-.914-.5m398.478 3.707c-.542 1.425-.428 1.54.56.56.684-.679.991-1.486.683-1.793-.308-.308-.867.247-1.243 1.233M92.158 390c0 1.375.227 1.938.504 1.25.278-.687.278-1.812 0-2.5-.277-.687-.504-.125-.504 1.25m545.406 3.707c-.542 1.425-.428 1.54.56.56.684-.679.991-1.486.683-1.793-.308-.308-.867.247-1.243 1.233m-546 6c-.542 1.425-.428 1.54.56.56.684-.679.991-1.486.683-1.793-.308-.308-.867.247-1.243 1.233m542.308 3.043c-1.243 1.586-1.208 1.621.378.378 1.666-1.307 2.195-2.128 1.372-2.128-.207 0-.995.788-1.75 1.75M89 404.059c0 .582.45.781 1 .441s1-.816 1-1.059-.45-.441-1-.441-1 .477-1 1.059m411.613.124c.289.467.944.591 1.456.274 1.308-.808 1.161-1.124-.525-1.124-.801 0-1.22.383-.931.85m4.305 5.208c2.197 2.663 4.841 3.807 5.676 2.457.427-.691.278-.887-.37-.486-.597.369-1.367.216-1.711-.34-.343-.556-1.612-1.537-2.819-2.18-2.008-1.07-2.074-1.023-.776.549m122.006 1.359-2.424 2.75 2.75-2.424c1.513-1.334 2.75-2.571 2.75-2.75 0-.785-.81-.146-3.076 2.424m-10.603 7.394c.099.393-.721 1.446-1.821 2.341l-2 1.625 2-.982c4.324-2.122 5.875-3.699 3.639-3.699-1.098 0-1.916.321-1.818.715M84.158 422c0 1.375.227 1.938.504 1.25.278-.687.278-1.812 0-2.5-.277-.687-.504-.125-.504 1.25m434.925-1.635c.23.2 1.542.9 2.917 1.555 2.357 1.122 2.389 1.102.559-.365-1.593-1.276-4.848-2.391-3.476-1.19m90.65 1.759c.679.684 1.486.991 1.793.683.308-.308-.247-.867-1.233-1.243-1.425-.542-1.54-.428-.56.56M526 424.577c0 .675 5.195 2.562 5.69 2.067.227-.227-.961-.891-2.639-1.476s-3.051-.851-3.051-.591m-37.667 1.756a1.33 1.33 0 0 0 1.318 1.334c.984 0 1.038-.337.211-1.334-.609-.733-1.202-1.333-1.318-1.333-.116 0-.211.6-.211 1.333M603 426.5c-1.375.786-2.05 1.429-1.5 1.429.55 0 2.125-.643 3.5-1.429s2.05-1.429 1.5-1.429c-.55 0-2.125.643-3.5 1.429m-114 2.878c0 .207.788.995 1.75 1.75 1.586 1.243 1.621 1.208.378-.378-1.307-1.666-2.128-2.195-2.128-1.372M83.158 432c0 1.375.227 1.938.504 1.25.278-.687.278-1.812 0-2.5-.277-.687-.504-.125-.504 1.25m460.655-.317c.721.289 1.584.253 1.916-.079.332-.332-.258-.568-1.312-.525-1.165.048-1.402.285-.604.604m4 1c.721.289 1.584.253 1.916-.079.332-.332-.258-.568-1.312-.525-1.165.048-1.402.285-.604.604m38 0c.721.289 1.584.253 1.916-.079.332-.332-.258-.568-1.312-.525-1.165.048-1.402.285-.604.604m-33.063.979c.688.278 1.813.278 2.5 0 .688-.277.125-.504-1.25-.504s-1.937.227-1.25.504m26 0c.688.278 1.813.278 2.5 0 .688-.277.125-.504-1.25-.504s-1.937.227-1.25.504m-14.974 1.071c2.352.212 5.952.209 8-.006s.124-.388-4.276-.384c-4.4.003-6.076.179-3.724.39M79 456.799c0 .44 1.688.639 3.75.443 6.431-.612 6.955-1.005 1.5-1.126-2.888-.064-5.25.244-5.25.683M92.71 458c.288 1.1.696 2 .907 2 .21 0 .383-.9.383-2s-.408-2-.906-2c-.499 0-.671.9-.384 2m31.103-1.317c.721.289 1.584.253 1.916-.079.332-.332-.258-.568-1.312-.525-1.165.048-1.402.285-.604.604m5.451.035c1.52.229 3.77.223 5-.014 1.23-.237-.014-.425-2.764-.418-2.75.008-3.756.202-2.236.432m8.549-.035c.721.289 1.584.253 1.916-.079.332-.332-.258-.568-1.312-.525-1.165.048-1.402.285-.604.604m18.266.9c.048 1.165.285 1.402.604.605.289-.722.253-1.585-.079-1.917-.332-.332-.568.258-.525 1.312m6.185-.865c1.52.229 3.77.223 5-.014 1.23-.237-.014-.425-2.764-.418-2.75.008-3.756.202-2.236.432m8.549-.035c.721.289 1.584.253 1.916-.079.332-.332-.258-.568-1.312-.525-1.165.048-1.402.285-.604.604m19.794.899c-.334.87-.575 2.107-.537 2.75.039.642.419.268.845-.832.612-1.58 2.017-2.122 6.68-2.582l5.905-.582-6.143-.168c-4.786-.131-6.277.181-6.75 1.414m14.206-.899c.721.289 1.584.253 1.916-.079.332-.332-.258-.568-1.312-.525-1.165.048-1.402.285-.604.604m90.937.064c6.738.173 17.762.173 24.5 0 6.738-.173 1.225-.315-12.25-.315s-18.988.142-12.25.315m57.018-.022c1.797.222 4.497.218 6-.01 1.503-.229.032-.411-3.268-.405-3.3.005-4.529.192-2.732.415m9.832.04c.605.404 1.357 1.41 1.671 2.235.382 1.002.597.753.65-.75.053-1.512-.495-2.245-1.671-2.235-1.079.01-1.328.297-.65.75m46.65-.018c6.462.174 17.038.174 23.5 0s1.175-.317-11.75-.317-18.212.143-11.75.317m78 0c6.462.174 17.038.174 23.5 0s1.175-.317-11.75-.317-18.212.143-11.75.317m64-.001c5.362.179 14.138.179 19.5 0 5.362-.18.975-.327-9.75-.327s-15.112.147-9.75.327m-29.171 2.837c.048 1.165.285 1.402.604.605.289-.722.253-1.585-.079-1.917-.332-.332-.568.258-.525 1.312m69.254 1.75a1.33 1.33 0 0 0 1.318 1.334c.984 0 1.038-.337.211-1.334-.609-.733-1.202-1.333-1.318-1.333-.116 0-.211.6-.211 1.333m-436.762 2.238c-.367 1.466-.475 2.858-.24 3.094.236.235.73-.771 1.098-2.236.367-1.466.475-2.858.24-3.094-.236-.235-.73.771-1.098 2.236m16.587-.571c0 1.375.227 1.938.504 1.25.278-.687.278-1.812 0-2.5-.277-.687-.504-.125-.504 1.25m191.921-.417c.048 1.165.285 1.402.604.605.289-.722.253-1.585-.079-1.917-.332-.332-.568.258-.525 1.312m79 0c.048 1.165.285 1.402.604.605.289-.722.253-1.585-.079-1.917-.332-.332-.568.258-.525 1.312m-171.62.484c-.363.586-.445 1.281-.183 1.543s.743-.218 1.069-1.067c.676-1.762.1-2.072-.886-.476m112.413.683c-1.243 1.586-1.208 1.621.378.378.962-.755 1.75-1.543 1.75-1.75 0-.823-.821-.294-2.128 1.372m79 0c-1.243 1.586-1.208 1.621.378.378.962-.755 1.75-1.543 1.75-1.75 0-.823-.821-.294-2.128 1.372m-370.793 3.833c.048 1.165.285 1.402.604.605.289-.722.253-1.585-.079-1.917-.332-.332-.568.258-.525 1.312m79 0c.048 1.165.285 1.402.604.605.289-.722.253-1.585-.079-1.917-.332-.332-.568.258-.525 1.312m18 0c.048 1.165.285 1.402.604.605.289-.722.253-1.585-.079-1.917-.332-.332-.568.258-.525 1.312m192.266-.04c-.326.849-.369 1.767-.096 2.04.274.273.737-.422 1.03-1.543.624-2.383-.069-2.751-.934-.497m-227.266 3.04c.048 1.165.285 1.402.604.605.289-.722.253-1.585-.079-1.917-.332-.332-.568.258-.525 1.312M267 469.378c0 .207.788.995 1.75 1.75 1.586 1.243 1.621 1.208.378-.378-1.307-1.666-2.128-2.195-2.128-1.372m-176.921 2.205c.048 1.165.285 1.402.604.605.289-.722.253-1.585-.079-1.917-.332-.332-.568.258-.525 1.312m79.079.417c0 1.375.227 1.938.504 1.25.278-.687.278-1.812 0-2.5-.277-.687-.504-.125-.504 1.25m383 0c0 1.375.227 1.938.504 1.25.278-.687.278-1.812 0-2.5-.277-.687-.504-.125-.504 1.25m-192.079 2.583c.048 1.165.285 1.402.604.605.289-.722.253-1.585-.079-1.917-.332-.332-.568.258-.525 1.312m-287 1c.048 1.165.285 1.402.604.605.289-.722.253-1.585-.079-1.917-.332-.332-.568.258-.525 1.312m305 0c.048 1.165.285 1.402.604.605.289-.722.253-1.585-.079-1.917-.332-.332-.568.258-.525 1.312m-289 1c.048 1.165.285 1.402.604.605.289-.722.253-1.585-.079-1.917-.332-.332-.568.258-.525 1.312m79 0c.048 1.165.285 1.402.604.605.289-.722.253-1.585-.079-1.917-.332-.332-.568.258-.525 1.312m18 0c.048 1.165.285 1.402.604.605.289-.722.253-1.585-.079-1.917-.332-.332-.568.258-.525 1.312M343.158 478c0 1.375.227 1.938.504 1.25.278-.687.278-1.812 0-2.5-.277-.687-.504-.125-.504 1.25m-255.079 2.583c.048 1.165.285 1.402.604.605.289-.722.253-1.585-.079-1.917-.332-.332-.568.258-.525 1.312m97 1c.048 1.165.285 1.402.604.605.289-.722.253-1.585-.079-1.917-.332-.332-.568.258-.525 1.312m-35 3c.048 1.165.285 1.402.604.605.289-.722.253-1.585-.079-1.917-.332-.332-.568.258-.525 1.312m173.559-.083c-.316.825-.139 1.5.393 1.5.533 0 .969-.675.969-1.5s-.177-1.5-.393-1.5c-.216 0-.652.675-.969 1.5m-157.559 1.083c.048 1.165.285 1.402.604.605.289-.722.253-1.585-.079-1.917-.332-.332-.568.258-.525 1.312m17.546 1.542c-.834 4.168-.026 4.976.875.875.38-1.729.482-3.351.227-3.606-.255-.255-.751.974-1.102 2.731m251.946.446c-.367 1.466-.475 2.858-.24 3.094.236.235.73-.771 1.098-2.236.367-1.466.475-2.858.24-3.094-.236-.235-.73.771-1.098 2.236m79.508-.988c.048 1.165.285 1.402.604.605.289-.722.253-1.585-.079-1.917-.332-.332-.568.258-.525 1.312m-110 1c.048 1.165.285 1.402.604.605.289-.722.253-1.585-.079-1.917-.332-.332-.568.258-.525 1.312m-30.382 2.167c-.775 1.381-1.867 6.754-1.247 6.134.743-.743 2.562-6.884 2.039-6.884-.204 0-.56.337-.792.75m10.382 3.833c.048 1.165.285 1.402.604.605.289-.722.253-1.585-.079-1.917-.332-.332-.568.258-.525 1.312m128 0c.048 1.165.285 1.402.604.605.289-.722.253-1.585-.079-1.917-.332-.332-.568.258-.525 1.312m-349 1c.048 1.165.285 1.402.604.605.289-.722.253-1.585-.079-1.917-.332-.332-.568.258-.525 1.312m270 0c.048 1.165.285 1.402.604.605.289-.722.253-1.585-.079-1.917-.332-.332-.568.258-.525 1.312M197 496c0 .55.477 1 1.059 1s.781-.45.441-1-.816-1-1.059-1-.441.45-.441 1m-127.436 1.293c.376.986.935 1.541 1.243 1.233.308-.307.001-1.114-.683-1.793-.988-.98-1.102-.865-.56.56m77.515.29c.048 1.165.285 1.402.604.605.289-.722.253-1.585-.079-1.917-.332-.332-.568.258-.525 1.312m113.116.917c.02 1.65.244 2.204.498 1.231.254-.973.237-2.323-.037-3-.274-.677-.481.119-.461 1.769m14.536.42c-.435 1.663-.305 2.054.437 1.312.582-.582.86-1.647.62-2.369-.25-.749-.703-.295-1.057 1.057m97.348-.337c.048 1.165.285 1.402.604.605.289-.722.253-1.585-.079-1.917-.332-.332-.568.258-.525 1.312m61 0c.048 1.165.285 1.402.604.605.289-.722.253-1.585-.079-1.917-.332-.332-.568.258-.525 1.312m18 0c.048 1.165.285 1.402.604.605.289-.722.253-1.585-.079-1.917-.332-.332-.568.258-.525 1.312m139.079.417c0 1.375.227 1.938.504 1.25.278-.687.278-1.812 0-2.5-.277-.687-.504-.125-.504 1.25m-236.079.583c.048 1.165.285 1.402.604.605.289-.722.253-1.585-.079-1.917-.332-.332-.568.258-.525 1.312m-241 1c.048 1.165.285 1.402.604.605.289-.722.253-1.585-.079-1.917-.332-.332-.568.258-.525 1.312m459.746 1.091c.426 2.093.678 2.345.969.97.217-1.021-.043-2.293-.576-2.826-.626-.626-.766.031-.393 1.856m-392.746.909c.048 1.165.285 1.402.604.605.289-.722.253-1.585-.079-1.917-.332-.332-.568.258-.525 1.312m-18 1c.048 1.165.285 1.402.604.605.289-.722.253-1.585-.079-1.917-.332-.332-.568.258-.525 1.312m225 0c.048 1.165.285 1.402.604.605.289-.722.253-1.585-.079-1.917-.332-.332-.568.258-.525 1.312m157 0c.048 1.165.285 1.402.604.605.289-.722.253-1.585-.079-1.917-.332-.332-.568.258-.525 1.312m45 0c.048 1.165.285 1.402.604.605.289-.722.253-1.585-.079-1.917-.332-.332-.568.258-.525 1.312m-444 3c.048 1.165.285 1.402.604.605.289-.722.253-1.585-.079-1.917-.332-.332-.568.258-.525 1.312m304 0c.048 1.165.285 1.402.604.605.289-.722.253-1.585-.079-1.917-.332-.332-.568.258-.525 1.312m-270 1c.048 1.165.285 1.402.604.605.289-.722.253-1.585-.079-1.917-.332-.332-.568.258-.525 1.312m-68 1c.048 1.165.285 1.402.604.605.289-.722.253-1.585-.079-1.917-.332-.332-.568.258-.525 1.312M81.5 509c.34.55.816 1 1.059 1s.441-.45.441-1-.477-1-1.059-1-.781.45-.441 1m115.929 1c0 1.295.338 1.633.985.986.648-.648.648-1.324 0-1.972-.647-.647-.985-.309-.985.986m191.304-.876c.679.684 1.486.991 1.793.683.308-.308-.247-.867-1.233-1.243-1.425-.542-1.54-.428-.56.56m-131.654 1.459c.048 1.165.285 1.402.604.605.289-.722.253-1.585-.079-1.917-.332-.332-.568.258-.525 1.312m173 0c.048 1.165.285 1.402.604.605.289-.722.253-1.585-.079-1.917-.332-.332-.568.258-.525 1.312m18 0c.048 1.165.285 1.402.604.605.289-.722.253-1.585-.079-1.917-.332-.332-.568.258-.525 1.312m20.654-.459c.679.684 1.486.991 1.793.683.308-.308-.247-.867-1.233-1.243-1.425-.542-1.54-.428-.56.56M571 510.5c0 .825.177 1.5.393 1.5.216 0 .652-.675.969-1.5.316-.825.139-1.5-.393-1.5-.533 0-.969.675-.969 1.5m-410.921 1.083c.048 1.165.285 1.402.604.605.289-.722.253-1.585-.079-1.917-.332-.332-.568.258-.525 1.312m45.171-.855c2.063.216 5.438.216 7.5 0 2.063-.215.375-.392-3.75-.392s-5.812.177-3.75.392m33.25.272c.34.55.816 1 1.059 1s.441-.45.441-1-.477-1-1.059-1-.781.45-.441 1m130.732 2c0 1.925.206 2.712.457 1.75.252-.962.252-2.538 0-3.5-.251-.962-.457-.175-.457 1.75M408 510.383c0 .211.9.619 2 .907 1.1.287 2 .115 2-.384 0-.498-.9-.906-2-.906s-2 .173-2 .383M178.158 513c0 1.375.227 1.938.504 1.25.278-.687.278-1.812 0-2.5-.277-.687-.504-.125-.504 1.25m-68.079.583c.048 1.165.285 1.402.604.605.289-.722.253-1.585-.079-1.917-.332-.332-.568.258-.525 1.312m128 1c.048 1.165.285 1.402.604.605.289-.722.253-1.585-.079-1.917-.332-.332-.568.258-.525 1.312m348 1c.048 1.165.285 1.402.604.605.289-.722.253-1.585-.079-1.917-.332-.332-.568.258-.525 1.312m-427 1c.048 1.165.285 1.402.604.605.289-.722.253-1.585-.079-1.917-.332-.332-.568.258-.525 1.312m348 0c.048 1.165.285 1.402.604.605.289-.722.253-1.585-.079-1.917-.332-.332-.568.258-.525 1.312M237.158 519c0 1.375.227 1.938.504 1.25.278-.687.278-1.812 0-2.5-.277-.687-.504-.125-.504 1.25m190.921-.417c.048 1.165.285 1.402.604.605.289-.722.253-1.585-.079-1.917-.332-.332-.568.258-.525 1.312m140.492.988c-.367 1.466-.475 2.858-.24 3.094.236.235.73-.771 1.098-2.236.367-1.466.475-2.858.24-3.094-.236-.235-.73.771-1.098 2.236M108.158 523c0 1.375.227 1.938.504 1.25.278-.687.278-1.812 0-2.5-.277-.687-.504-.125-.504 1.25m346.175-.544c0 .801.383 1.22.85.931.467-.289.591-.944.274-1.456-.808-1.308-1.124-1.161-1.124.525m-218.254 1.127c.048 1.165.285 1.402.604.605.289-.722.253-1.585-.079-1.917-.332-.332-.568.258-.525 1.312m97.734-.9c.721.289 1.584.253 1.916-.079.332-.332-.258-.568-1.312-.525-1.165.048-1.402.285-.604.604m250.187.15c0 .785-2.866 1.234-8.75 1.371l-8.75.203 8.407.34c7.772.313 11.559-.615 9.776-2.397-.375-.376-.683-.158-.683.483m-442.097 1.474c.446.444 3.238.663 6.204.486l5.393-.321-6.204-.486c-3.412-.267-5.839-.123-5.393.321M265 524.25c0 .413 1.125.75 2.5.75s2.5-.337 2.5-.75-1.125-.75-2.5-.75-2.5.337-2.5.75m82-.191c0 .582.45.781 1 .441s1-.816 1-1.059-.45-.441-1-.441-1 .477-1 1.059M523 524c0 .55.477 1 1.059 1s.781-.45.441-1-.816-1-1.059-1-.441.45-.441 1m-455.72.736c2.629.207 6.679.204 9-.005 2.321-.21.17-.379-4.78-.376-4.95.003-6.849.175-4.22.381m45.47-.013c1.787.222 4.713.222 6.5 0 1.787-.221.325-.403-3.25-.403s-5.037.182-3.25.403m42-.061c.688.278 1.813.278 2.5 0 .688-.277.125-.504-1.25-.504s-1.937.227-1.25.504m45.5.085c6.462.174 17.037.174 23.5 0 6.463-.174 1.175-.317-11.75-.317s-18.213.143-11.75.317m56-.031c1.512.229 3.988.229 5.5 0s.275-.416-2.75-.416-4.262.187-2.75.416m79 .012c2.063.216 5.438.216 7.5 0 2.063-.215.375-.392-3.75-.392s-5.812.177-3.75.392m55 .019c6.462.174 17.038.174 23.5 0s1.175-.317-11.75-.317-18.212.143-11.75.317m80.557 0c6.769.174 17.569.173 24-.001 6.431-.174.893-.315-12.307-.315-13.2.001-18.462.143-11.693.316m57.921-.025c1.775.221 4.925.224 7 .008 2.074-.217.622-.397-3.228-.402-3.85-.004-5.548.173-3.772.394" fill-rule="evenodd"/>
</svg>