<!DOCTYPE svg PUBLIC "-//W3C//DTD SVG 1.1//EN" "http://www.w3.org/Graphics/SVG/1.1/DTD/svg11.dtd">
<svg xmlns="http://www.w3.org/2000/svg" viewBox="0 0 550 550">
<path fill="#fbfbfb" stroke="#fbfbfb" d="m104.5 186-2.534 5H72.095l-5.157 10.75c-6.834 14.247-40.136 84.536-47.29 99.811-3.106 6.634-5.648 12.596-5.648 13.25 0 .864 3.981 1.189 14.567 1.189 14.04 0 14.545.071 13.942 1.97-.68 2.143-20.863 45.424-22.514 48.28-1.526 2.639.156 2.294 14.061-2.883 70.412-26.218 183.997-47.15 259.444-47.813 13.612-.12 21.998-.604 23.838-1.378 6.824-2.87 124.307-4.01 159.308-1.546l8.854.624 2.69-6.877c1.48-3.782 7.167-17.452 12.639-30.377l22.56-53.277c6.936-16.377 12.611-30.214 12.611-30.75 0-.627-64.991-.973-183-.973-104.362 0-183-.377-183-.878 0-.483.657-2.451 1.46-4.373.804-1.922 1.179-3.777.834-4.122-.345-.345-15.17-.627-32.944-.627h-32.316l-2.534 5m-.95 16.25C89.294 231.972 66 282.105 66 283.062c0 .61 9.752.872 26.25.705l26.25-.267 4.216-8c5.906-11.208 6.594-10.5-10.216-10.5-16.882 0-16.095.958-9.677-11.784l4.677-9.283 14.315-.365c7.874-.201 14.45-.524 14.614-.717 1.383-1.631 7.6-17.156 7.079-17.677-.371-.371-6.374-.83-13.341-1.022-6.967-.191-12.801-.474-12.964-.63-.163-.155 1.495-4.161 3.685-8.902l3.983-8.62H155.684l3.908-8.669c2.149-4.768 4.058-9.043 4.241-9.5.184-.457-11.659-.831-26.317-.831h-26.651l-7.315 15.25m85.131 9.18c-2.65.713-6.202 2.318-7.892 3.568l-3.074 2.272.504-2.635.504-2.635h-18.452l-3.739 7.75C149.467 234.395 127 282.828 127 283.414c0 1.229 18.743.6 19.792-.664.57-.687 6.192-12.275 12.492-25.75 12.516-26.767 16.303-32.406 21.377-31.825 4.927.564 4.135 3.517-8.212 30.627-6.437 14.134-11.919 26.261-12.183 26.948-.363.946 1.84 1.25 9.068 1.25 6.549 0 9.797-.393 10.341-1.25 1.185-1.866 12.634-26.282 19.922-42.486 8.802-19.571 8.473-26.484-1.392-29.224-4.331-1.203-3.465-1.238-9.524.39m120.236-.499c-1.971.385-5.174 1.683-7.118 2.885-4.391 2.713-5.169 2.743-3.779.147 1.066-1.992.877-2.03-8.543-1.75l-9.633.287-16.359 35-16.359 35 3.187.752c1.753.413 6.278.475 10.055.136l6.869-.615 4.758-10.136c16.165-34.435 16.691-35.397 21.078-38.575 3.002-2.174 5.362-3.062 8.14-3.062h3.914l4.436-9.366c4.362-9.206 5.175-11.747 3.687-11.519-.413.063-2.363.43-4.333.816m22.766.168c-9.695 2.28-16.085 9.34-25.265 27.917-14.988 30.326-15.247 41.984-.93 41.984 4.007 0 7.006-.723 10.645-2.567 6.625-3.357 6.711-3.068 1.931 6.44-4.617 9.183-7.196 11.398-12.738 10.942-3.759-.31-3.821-.38-3.533-4.065l.294-3.75h-9.068c-10.188 0-11.024.669-11.015 8.815.009 9.578 7.248 13.758 22.447 12.963 16.905-.884 23.694-6.024 32.725-24.778C345.019 268.712 371 213.004 371 212.474c0-.261-4.06-.474-9.021-.474-8.653 0-9.068.102-10.161 2.5-1.389 3.049-2.467 3.181-3.347.409-1.29-4.063-8.63-5.729-16.788-3.81M234 212.428c-12.653 3.511-17.829 9.159-28.475 31.072-11.952 24.601-13.732 32.457-8.595 37.925 7.375 7.851 32.156 5.647 41.893-3.726C241.859 274.776 251 261.24 251 259.666c0-.366-4.387-.658-9.75-.648l-9.75.017-3.04 5.233c-3.297 5.673-7.209 8.263-11.034 7.303-3.454-.867-3.166-4.583 1.035-13.349l3.461-7.222h32.6l4.109-9.25c6.86-15.443 6.336-23.752-1.813-28.72-3.897-2.375-15.34-2.678-22.818-.602m159.746-.342c-15.231 3.589-22.792 13.145-37.391 47.253-7.803 18.231-3.278 26.64 14.346 26.655 17.045.016 25.977-5.075 34.538-19.685 4.155-7.09 14.286-30.539 15.811-36.593 3.55-14.1-8.706-22.014-27.304-17.63m71.139.24c-1.988.74-5.094 2.399-6.903 3.687l-3.288 2.341.672-2.677.672-2.677h-18.155l-5.552 11.75C422.711 245.108 405 283.274 405 283.645c0 .195 4.415.355 9.812.355h9.812l11.703-24.759c6.436-13.618 12.576-26.196 13.643-27.952 4.269-7.019 12.983-7.804 11.632-1.048-.336 1.681-5.605 13.902-11.709 27.158-6.103 13.255-11.324 24.664-11.602 25.351-.384.95 1.861 1.248 9.352 1.242l9.857-.008 5.426-11.742c23.628-51.136 23.678-51.296 18.265-57.355-3.314-3.709-10.283-4.804-16.306-2.561m-229.287 12.986c-1.34 1.339-3.605 4.742-5.034 7.562L227.966 238h13.146l2.007-4.536c2.88-6.511 2.273-9.878-1.852-10.276-2.366-.229-3.887.341-5.669 2.124m158.07-.116C390.897 227.68 373 264.455 373 267.665c0 4.589 4.992 5.703 9.536 2.128 2.348-1.847 9.407-15.276 16.449-31.293.484-1.1 1.619-3.65 2.522-5.667 3.674-8.204-1.541-13.285-7.839-7.637m-61.664 3.961c-3.539 3.874-16.217 31.349-15.803 34.247.53 3.716 5.968 3.366 9.335-.601 5.006-5.897 16.863-32.6 15.756-35.484-.976-2.543-6.238-1.502-9.288 1.838" fill-rule="evenodd"/>
<path fill="#aa3942" stroke="#aa3942" d="m104.788 186.5-2.187 4.5H88.883c-17.024 0-16.061-.434-20.75 9.349-9.269 19.34-27.542 57.639-30.13 63.151-1.55 3.3-7.337 15.588-12.861 27.307-5.524 11.719-10.317 22.17-10.652 23.224-.578 1.822.128 1.93 14.395 2.193l15.003.276L32.377 341c-6.332 13.475-11.785 25.141-12.118 25.924-.458 1.076-.137 1.233 1.317.646C62.36 351.081 117.604 336.519 175 327.128c36.15-5.915 96.181-12.347 111.628-11.96 16.614.416 25.212.081 28.481-1.109 7.41-2.699 114.856-4.191 154.391-2.144 10.561.546 15.212.452 15.717-.32.394-.602 5.443-12.345 11.219-26.095 5.777-13.75 16.977-40.3 24.889-59l14.385-34-9.605-.633c-5.283-.347-87.792-.685-183.355-.75-95.562-.064-173.75-.287-173.75-.495 0-.208.675-1.993 1.5-3.968.825-1.974 1.5-3.829 1.5-4.122 0-.293-14.631-.532-32.513-.532h-32.513l-2.186 4.5m-1.288 14.75C92.921 223.414 65 283.126 65 283.587c0 .227 12.165.413 27.033.413h27.034l4.444-9.132c2.444-5.022 4.231-9.476 3.97-9.898-.26-.422-6.646-.833-14.189-.914-7.544-.081-13.913-.344-14.154-.585-.241-.24 1.542-4.703 3.962-9.917l4.4-9.479 14.439-.288 14.438-.287 3.676-7.5c2.022-4.125 3.993-8.512 4.379-9.75l.703-2.25h-13.568c-7.847 0-13.567-.398-13.567-.945 0-.519 1.549-4.344 3.443-8.5l3.443-7.555 14.307-.118c7.869-.066 14.64-.067 15.047-.004.77.12 7.97-13.684 9.196-17.628l.699-2.25h-53.833l-6.802 14.25m80.125 11.684c-5.468 2.876-5.574 2.891-5.352.75.216-2.074-.199-2.197-8.273-2.439-4.675-.14-8.995.085-9.6.5-.909.624-20.703 42.109-31.509 66.039l-2.837 6.283 10.649-.283 10.649-.284 11.083-23.5c14.663-31.091 14.565-30.918 18.806-33.372 3.441-1.99 3.788-2.02 5.358-.453 2.066 2.06 2.361 1.259-12.14 32.867C164.707 271.581 160 282.326 160 282.92c0 .7 3.463 1.08 9.849 1.08h9.849l6.668-14.014c11.986-25.19 19.873-43.418 20.368-47.073 1.501-11.084-10.86-16.422-23.109-9.979M238 211.078c-14.899 2.593-22.101 9.576-32.742 31.745-11.51 23.982-13.206 30.51-9.692 37.305 5.389 10.422 33.319 8.27 44.703-3.444C243.912 272.936 251 261.658 251 259.61c0-.335-4.457-.61-9.905-.61h-9.905l-2.491 4.251c-3.293 5.619-6.054 7.999-9.28 7.999-5.04 0-5.161-2.326-.657-12.55 3.097-7.028 4.844-8.09 12.133-7.378 3.083.301 9.842.24 15.021-.137l9.417-.685 4.315-10c9.594-22.229 1.355-33.426-21.648-29.422m67.03.505c-1.909.828-4.305 2.261-5.325 3.184-1.772 1.604-1.824 1.555-1.162-1.082l.693-2.76-9.703.287-9.703.288-16.388 35c-9.012 19.25-16.399 35.563-16.414 36.25-.021.919 2.637 1.25 10.037 1.25h10.065l4.932-10.534c18.431-39.372 19.643-41.115 29.339-42.208l4.423-.498 4.588-9.886c2.523-5.436 4.588-10.107 4.588-10.379 0-1.066-6.686-.336-9.97 1.088m22.47.804c-9.469 4.485-14.346 10.874-23.881 31.284-10.925 23.386-11.984 33.607-3.835 37.012 4.455 1.861 10.536 1.215 16.316-1.734 5.436-2.773 5.584-2.31 1.765 5.522-3.963 8.128-7.887 11.757-12.255 11.332-2.911-.284-3.11-.559-3.11-4.303v-4l-8.641-.287c-9.945-.331-11.28.399-12.354 6.759-2.002 11.846 9.693 18.836 26.871 16.06 17.1-2.762 20.589-6.344 34.128-35.032 9.83-20.829 29.496-63.299 29.496-63.698 0-.166-4.263-.302-9.474-.302h-9.475l-1.669 3.228c-1.573 3.042-1.714 3.106-2.454 1.107-2.136-5.776-12.458-7.196-21.428-2.948m63.5.019c-1.925.725-4.767 1.83-6.315 2.456-8.392 3.392-17.651 17.735-29.27 45.341C347.774 278.356 352.457 286 371.22 286c22.387 0 30.129-7.039 44.153-40.143 8.826-20.833 8.823-27.133-.014-32.959-3.479-2.294-18.756-2.602-24.359-.492m72.03.177c-1.909.828-4.339 2.273-5.4 3.211-1.862 1.646-1.906 1.608-1.252-1.081l.678-2.786-9.759.286-9.759.287L420.93 248l-16.608 35.5 2.589.765c1.424.42 6.135.469 10.47.109l7.88-.655 4.001-8.61C449.107 232.401 452.877 226 458.187 226c4.678 0 4.194 3.061-2.924 18.5-14.053 30.479-17.282 38.007-16.821 39.209.982 2.559 18.238 1.728 19.92-.959 5.307-8.477 25.971-56.482 25.971-60.332 0-9.859-10.292-14.61-21.303-9.835m-226.428 12.516c-2.215 1.742-7.602 10.506-7.602 12.368 0 .293 2.645.533 5.877.533h5.877l2.123-4.935c3.882-9.024.511-13.304-6.275-7.966m157.956.034c-4.307 3.388-22.155 41.148-20.943 44.307 1.599 4.167 8.538 1.861 11.956-3.972 3.69-6.296 17.416-36.641 17.423-38.518.016-4.113-4.328-5.048-8.436-1.817m-61.031 3.025c-2.668 2.098-10.664 17.512-15.669 30.204-3.265 8.281 1.462 10.587 7.424 3.622 4.021-4.698 15.947-30.382 15.514-33.411-.415-2.906-3.853-3.103-7.269-.415m5.834 71.477c-2.727.413-10.266 6.833-9.203 7.837.188.178 13.617-.027 29.842-.454 30.849-.813 76.481-.574 105.613.552l17.112.662.686-2.734c.378-1.504.552-2.862.388-3.018-1.782-1.695-134.729-4.313-144.438-2.845m-77.861 3.426c-64.361 5.657-99.546 10.349-143 19.071-19.519 3.917-51.45 11.833-68.585 17.002l-13.585 4.099-4.158 8.383c-2.286 4.611-3.749 8.384-3.25 8.384.498 0 4.883-1.509 9.742-3.352 53.443-20.277 143.332-38.001 226.836-44.727 8.25-.664 15.146-1.327 15.325-1.473.179-.145-.894-2.106-2.383-4.356-2.999-4.532-1.964-4.347-16.942-3.031" fill-rule="evenodd"/>
<path fill="#262424" stroke="#262424" d="m104.905 187-2.151 5H72.376l-29.023 61.25-29.024 61.25 14.836.276c9.97.186 14.835.637 14.835 1.378 0 .606-5.177 12.142-11.505 25.636-6.328 13.493-11.313 24.725-11.079 24.959.234.235 4.399-1.135 9.255-3.042 31.766-12.479 79.652-25.405 124.329-33.56 50.324-9.186 118.512-16.573 142.524-15.441 9.38.443 13.234.215 17.53-1.033 11.453-3.33 108.461-4.58 157.496-2.03l12.049.627 4.818-11.385c2.649-6.262 6.07-14.31 7.602-17.885 5.986-13.973 28.059-66.151 32.938-77.863 2.833-6.799 4.981-12.532 4.774-12.74-.208-.207-82.516-.391-182.908-.407-100.392-.017-182.802-.303-183.134-.634-.332-.332.277-2.33 1.354-4.44 1.076-2.11 1.957-4.079 1.957-4.376 0-.297-14.612-.54-32.472-.54h-32.472l-2.151 5m6.052-.35c-.849.229-2.038 1.639-2.642 3.134-.605 1.494-10.597 22.895-22.207 47.557C74.499 262.004 65 282.774 65 283.496c0 1.405 47.086 2.274 52.3.965 2.305-.579 10.7-15.786 10.7-19.382 0-.722-4.795-1.079-14.5-1.079-7.975 0-14.5-.171-14.5-.379 0-1.726 5.361-11.516 6.067-11.08.5.31.658-.095.349-.899-.308-.804.158-2.852 1.037-4.552l1.598-3.09H136.668l4.166-8.766c5.608-11.8 5.895-11.217-5.584-11.328-19.324-.187-18.09.773-13.036-10.131l3.117-6.726 15.373-.274 15.373-.275 4.369-9.494c2.404-5.222 4.16-9.835 3.903-10.25-.475-.77-50.573-.869-53.392-.106m198.163 23.43c-2.409.473-5.43 1.549-6.715 2.39-2.926 1.918-3.493 1.924-2.767.03.49-1.275-.975-1.494-9.781-1.459l-10.357.041-7.965 17.209A4818.427 4818.427 0 0 1 257.181 259C250.357 273.417 246 283.013 246 283.624c0 .207 4.842.376 10.76.376h10.761l6.966-14.75c16.372-34.669 17.447-36.191 26.277-37.206l4.736-.544 4.683-9.5c4.44-9.008 5.742-13.135 4.067-12.89-.413.06-2.721.496-5.13.97m22.831.282c-11.17 3.012-16.511 8.866-26.573 29.123-8.24 16.59-11.378 25.47-11.378 32.197 0 9.73 9.941 13.353 21.662 7.895l5.163-2.404-1.701 3.664c-4.117 8.868-6.328 12.217-8.962 13.579-5.158 2.667-8.27 1.027-7.465-3.934l.565-3.482h-20.066l-1.098 3.149c-4.637 13.3 2.45 20.363 20.402 20.332 20.381-.035 26.078-4.823 39.239-32.981 3.342-7.15 8.379-17.855 11.192-23.789C363.594 231.225 372 212.802 372 211.918c0-.505-4.428-.918-9.839-.918-9.763 0-9.85.022-11.092 2.749l-1.253 2.748-1.384-2.642c-2.354-4.493-8.188-5.73-16.481-3.493m-148.31 2.017c-4.375 2.214-4.657 2.246-4.091.464.575-1.813.064-1.9-9.676-1.629l-10.284.286-8.545 18.028c-4.7 9.915-10.207 21.615-12.238 26-2.031 4.384-5.747 12.398-8.257 17.807-2.51 5.409-4.309 10.246-3.998 10.75.67 1.083 18.459 1.216 20.032.15 1.069-.725 2.515-3.613 15.132-30.235a11812.54 11812.54 0 0 1 8.545-18c3.097-6.494 6.578-10 9.926-10 4.548 0 3.719 2.797-9.183 30.991-6.597 14.417-11.746 26.618-11.441 27.111.631 1.021 14.705 1.2 18.318.234 3.736-1 29.119-55.186 29.119-62.163 0-11.283-11.168-15.966-23.359-9.794m49.163-.45c-13.036 4.168-18.803 11.01-30.405 36.07-7.811 16.869-9.724 23.806-8.196 29.706 3.515 13.564 34.345 12.489 47.049-1.64C244.966 271.934 252 260.51 252 258.61c0-.335-4.682-.61-10.405-.61h-10.404l-3.079 5.456c-3.291 5.831-5.886 7.859-9.414 7.357-3.348-.477-3.235-3.988.379-11.828l3.219-6.985h32.414l4.103-8.83c6.798-14.631 7.284-22.038 1.841-28.049-4.845-5.35-16.811-6.722-27.85-3.192M393 211.374c-14.196 3.908-20.132 10.344-31.009 33.626-11.562 24.745-12.824 31.32-7.113 37.032 1.583 1.583 2.747 3.011 2.586 3.173-.7.708 6.809 1.251 16.064 1.161 20.728-.201 27.987-7.094 41.939-39.826 7.765-18.215 8.538-24.223 3.901-30.302-4.604-6.036-15.086-7.97-26.368-4.864m73.589-.266c-2.151.51-5.374 1.832-7.163 2.938l-3.254 2.011.531-2.029c.507-1.937.084-2.028-9.438-2.028h-9.969l-3.328 7.25a2348.114 2348.114 0 0 1-8.765 18.75C412.955 263.907 404 283.412 404 284.182c0 .45 4.754.818 10.565.818h10.565l4.078-8.75C449.966 231.713 453.246 226 458.06 226c4.41 0 3.777 3.756-3.104 18.415-9.34 19.896-17.956 38.965-17.956 39.74 0 .465 4.656.845 10.347.845h10.346l6.05-12.75c13.889-29.271 20.561-44.769 21.018-48.818.531-4.718-2.348-10.859-5.561-11.857-3.721-1.156-8.896-1.347-12.611-.467m-70.297 13.365c-3.861 1.679-21.432 36.172-21.664 42.527-.193 5.271 5.003 5.661 8.816.663 2.522-3.307 16.08-31.679 18.349-38.399.936-2.77-.368-6.608-2.114-6.225-.099.022-1.623.667-3.387 1.434m-160.251 1.486c-1.776 1.776-6.041 9.189-6.041 10.501 0 .297 2.426.54 5.391.54 5.362 0 5.401-.023 7-4.02 2.586-6.462 2.196-8.98-1.391-8.98-1.65 0-3.881.881-4.959 1.959m97.846 2.789c-3.043 2.561-12.295 20.228-15.908 30.376-2.342 6.579 1.031 8.696 6.384 4.008 1.878-1.646 12.716-23.307 15.27-30.523 2.313-6.531-.403-8.356-5.746-3.861M272.341 286l-1.772 3h-16.392c-14.543 0-16.322-.179-15.783-1.584.334-.871.27-1.409-.143-1.197-14.119 7.265-35.988 7.854-43.376 1.168-2.071-1.874-10.437-.972-11.276 1.216-.434 1.13-4.259 1.397-19.976 1.397-11.06 0-24.544.633-31.281 1.469-6.513.808-17.692 2.175-24.842 3.038-13.2 1.592-27.937 3.755-37 5.431-2.75.508-7.179 1.214-9.842 1.568l-4.842.644-9.03 18.675c-4.966 10.271-9.107 19.192-9.202 19.824-.094.632-.662 1.757-1.262 2.5C34.687 345.174 28 358.781 28 360.082c0 .686.69.848 1.75.412 54.234-22.324 153.556-42.032 246.022-48.818 6.822-.5 6.942-.708 3.302-5.733-3.524-4.865-4.074-11.424-1.545-18.443.792-2.2 1.448-4.113 1.456-4.25.111-1.844-5.238.37-6.644 2.75m73.633 3.796c-4.206.274-4.688.6-6.817 4.613-1.259 2.375-4.041 6.253-6.182 8.618-2.14 2.365-3.729 4.564-3.531 4.887.199.322 8.167.298 17.708-.054 25.421-.937 91.275-.883 114.348.094 21.489.909 22.282.77 22.923-4.041.177-1.327 1.08-4.149 2.008-6.271.927-2.122 1.544-4.001 1.369-4.175-2.216-2.216-118.156-5.218-141.826-3.671" fill-rule="evenodd"/>
</svg>