<!DOCTYPE svg PUBLIC "-//W3C//DTD SVG 1.1//EN" "http://www.w3.org/Graphics/SVG/1.1/DTD/svg11.dtd">
<svg xmlns="http://www.w3.org/2000/svg" viewBox="0 0 508 903">
<path fill="#fcf404" stroke="#fcf404" d="M228 225.058c-66.369 8.161-125.506 44.236-162.657 99.226-3.635 5.38-6.338 10.055-6.006 10.387.333.332 14.005-1.536 30.384-4.15 16.378-2.615 31.579-4.925 33.779-5.135 2.2-.21 23.979-3.57 48.398-7.467 45.871-7.321 49.301-7.568 52.715-3.792 3.532 3.907 2.396 10.344-6.156 34.873-10.535 30.215-9.292 28.959-32.167 32.509l-4.211.653 2.529 3.822c4.81 7.269 6.591 17.349 4.409 24.956-.54 1.885-.774 3.636-.519 3.891.255.255 13.41-1.187 29.233-3.206 37.353-4.764 38.133-4.729 45.395 2.058l2.626 2.454 2.182-3.531c11.464-18.548 67.957-29.842 84.845-16.961 1.847 1.409 4.629 4.316 6.183 6.461l2.825 3.901 3.162-4.927c8.785-13.691 18.616-18.938 41.464-22.129 7.652-1.069 13.982-2.058 14.065-2.197.084-.14 3.498-11.712 7.587-25.717 4.089-14.004 8.404-26.897 9.587-28.65l2.152-3.188-6.52-8.349c-34.344-43.976-84.663-73.979-140.784-83.943-13.619-2.418-51.125-3.493-64.5-1.849m-95 108.605c-95.127 15.139-87.121 13.671-90.492 16.594-2.469 2.14-17.503 46.081-16.209 47.375.247.248 13.831-1.843 30.187-4.646 16.355-2.803 29.956-4.877 30.225-4.608.269.268-13.077 44.223-29.656 97.677-16.58 53.454-29.972 97.361-29.761 97.573.556.556 43.937-6.549 45.631-7.474.835-.456 13.908-41.352 31.556-98.716l30.13-97.938 32.242-5.083c21.014-3.313 32.689-5.576 33.528-6.5 1.502-1.654 16.947-45.522 16.453-46.728-.184-.448-37.909 5.165-83.834 12.474m328.55-8.544c-8.773 1.621-16.063 3.061-16.202 3.199-.138.139-4.049 13.045-8.69 28.68-4.641 15.636-8.825 28.545-9.298 28.687-.473.142-8.014 1.175-16.758 2.297-32.567 4.176-38.968 11.336-52.761 59.018-9.203 31.813-9.229 31.927-8.427 37.272 1.303 8.691 9.853 16.728 17.796 16.728 4.739 0 61.177-8.07 61.875-8.848.322-.359 12.198-38.227 26.392-84.152 14.194-45.925 26.016-84.062 26.272-84.75.653-1.756-1.818-1.527-20.199 1.869M147.463 382.53c-25.052 9.274-18.749 42.927 8.037 42.914 24.847-.012 33.776-30.59 12.154-41.621-5.258-2.682-14.789-3.292-20.191-1.293m323.713 8.571c-.592 1.869-8.103 26.094-16.69 53.833-16.379 52.91-16.373 52.893-19.075 55.148-1.658 1.384-62.441 11.019-68.911 10.923-7.814-.115-18.861-6.706-22.435-13.384-1.883-3.518-2.182-3.359-5.002 2.67-6.922 14.799-19.607 21.265-49.364 25.163-31.158 4.082-42.435.897-49.341-13.933-3.11-6.677-2.986-12.034.658-28.506 1.641-7.417 2.984-13.743 2.984-14.058 0-.315-6.863.261-15.25 1.281-13.457 1.637-15.611 1.685-18.317.412l-3.066-1.443-3.617 11.147c-1.989 6.13-7.062 21.893-11.274 35.028-5.685 17.728-8.286 24.464-10.093 26.139-2.566 2.378-3.782 2.61-31.383 5.98-7.425.907-14.85 2.037-16.5 2.511-1.65.474-8.175 1.575-14.5 2.446-6.325.87-13.3 2.044-15.5 2.608-2.2.564-6.237 1.15-8.971 1.301l-4.971.276-3.668 11.685c-4.472 14.243-5.727 16.282-10.887 17.671-2.202.593-4.003 1.406-4.003 1.807s4.434 5.925 9.854 12.276c79.31 92.933 219.782 105.497 315.646 28.233 66.884-53.908 97.559-141.95 78.852-226.315-3.135-14.137-3.743-15.418-5.176-10.899m-419.91 12.698c-15.551 2.707-20.35 3.891-20.74 5.119-3.331 10.496-4.854 50.58-2.605 68.582 1.78 14.247 7.581 41.331 8.628 40.284C36.879 517.455 73 401.17 73 400.439c0-.241-.338-.377-.75-.3-.412.076-9.855 1.723-20.984 3.66m261.234-2.252c-15.452 2.876-25.881 7.1-32.706 13.246-11.594 10.44-34.223 74.47-31.264 88.462 2.418 11.437 7.708 14.193 25.82 13.452 27.114-1.109 42.229-5.185 50.675-13.664C328.998 499.054 341 474.394 341 470.22c0-.447-7.974.558-17.721 2.234l-17.72 3.046-2.164 3.862c-4.503 8.037-12.901 12.348-16.233 8.333-1.168-1.407 1.443-15.634 3.19-17.381.282-.281 12.232-2.631 26.556-5.222 14.325-2.591 26.204-4.909 26.398-5.152.194-.242 2.728-9.343 5.632-20.224 5.788-21.691 5.997-25.512 1.749-31.893-4.744-7.124-20.085-9.645-38.187-6.276m99.329 13.755c-8.005 1.273-8.592 2.236-17.202 28.198-8.135 24.533-8.656 27.039-5.811 27.942 1.53.485 12.269-.956 12.659-1.699.431-.821 16.4-55.18 16.232-55.253-.114-.049-2.759.316-5.878.812M208.5 422.697c-18.7 2.457-34.308 4.768-34.685 5.135-.737.718-35.903 111.413-35.517 111.799.944.944 37.162-5.434 37.869-6.668.46-.805 6.479-19.238 13.374-40.963 13.947-43.946 13.462-43 22.07-43 6.075 0 5.945-.235 3.821 6.917-.862 2.904-1.425 5.423-1.25 5.596.175.174 8.309-.632 18.076-1.791l17.759-2.108 4.491-14.194c5.328-16.835 5.452-18.614 1.569-22.497-3.851-3.851-5.138-3.803-47.577 1.774m-62.956 8.441c-8.775 1.617-16.041 3.035-16.147 3.151-.526.579-35.491 111.942-35.216 112.166 1.179.962 35.078-5.154 35.774-6.455.596-1.115 31.464-99.276 34.669-110.25.652-2.234.533-2.226-19.08 1.388m156.118 2.854c-3.296 2.894-7.327 10.766-6.52 12.734.197.48 4.062.224 8.589-.569 9.104-1.595 9.918-2.599 9.096-11.224-.476-4.998-6.013-5.465-11.165-.941" fill-rule="evenodd"/>
<path fill="#f6f5f5" stroke="#f6f5f5" d="M230.907 271.515c-35.677 4.87-66.966 18.708-94.65 41.86-9.136 7.64-13.155 11.625-11.726 11.625.463 0 20.569-3.15 44.681-7 24.111-3.85 45.662-7 47.89-7 5.738 0 9.898 4.201 9.898 9.995v4.149l5.75-.822c13.242-1.893 42.011-.816 52.471 1.964 34.209 9.093 61.064 28.812 79.229 58.175l5.925 9.578 3.563-3.364c7.648-7.224 14.805-9.867 33.042-12.202 6.863-.88 12.646-1.766 12.85-1.97.81-.81-10.312-20.559-16.617-29.503-8.668-12.297-30.873-34.511-43.213-43.229-37.104-26.213-85.241-38.241-129.093-32.256M130 334.187c-81.37 12.937-86.347 13.95-88.96 18.105-1.318 2.096-15.253 44.838-14.77 45.302.127.122 14.067-2.146 30.98-5.038 16.912-2.893 30.736-5.214 30.719-5.158L57.627 485c-16.67 53.625-30.179 97.757-30.019 98.072.48.946 45.569-6.737 46.256-7.883.35-.583 14.101-44.892 30.559-98.465l29.924-97.404 30.076-4.72c16.542-2.596 31.486-5.16 33.208-5.698 3.026-.946 3.392-1.724 10.902-23.19 4.273-12.217 7.975-22.774 8.225-23.462.712-1.953-.107-1.84-86.758 11.937m345-11.122c-2.475.464-10.055 1.848-16.844 3.073-11.407 2.06-12.419 2.424-13.321 4.795-.537 1.412-4.364 14.042-8.505 28.067-4.14 14.025-7.84 25.834-8.221 26.242-.382.409-7.875 1.695-16.651 2.858-33.838 4.485-39.569 10.848-53.498 59.4-9.047 31.537-9.219 32.28-8.438 36.5 1.469 7.933 8.066 15.168 15.115 16.577 3.938.788 62.487-7.381 63.968-8.925.844-.879 28.793-89.915 51.451-163.902 1.214-3.966 1.401-5.716.602-5.64-.637.06-3.183.49-5.658.955m-324.668 58.839c-18.338 4.686-24.694 26.181-11.126 37.622 13.38 11.281 35.236 5.252 39.779-10.974 4.359-15.566-12.104-30.876-28.653-26.648m165.067 19.487c-17.2 2.811-31.728 8.802-37.622 15.515-8.106 9.233-22.484 46.544-27.101 70.329-3.285 16.924-2.183 21.669 6.416 27.626 3.273 2.266 3.924 2.338 16.408 1.81 30.036-1.271 46.929-6.468 53.948-16.596 2.856-4.121 13.823-29.138 13.093-29.867-.415-.415-29.737 4.307-33.812 5.445-.973.272-2.888 2.701-4.255 5.398-1.47 2.901-3.687 5.525-5.43 6.426-3.846 1.989-9.923 2.002-10.683.022-.724-1.886 2.494-15.613 4.012-17.114.62-.613 11.927-2.996 25.127-5.295s24.9-4.553 26-5.008c2.626-1.087 12.071-35.946 11.767-43.43-.55-13.534-14.367-19.103-37.868-15.261m95.197 14.043c-7.706 1.652-7.415 1.142-16.202 28.362-9.088 28.152-9.083 27.791-.439 27.449 3.551-.141 6.77-.591 7.154-1 .65-.693 16.891-54.143 16.891-55.589 0-.801-.08-.793-7.404.778m-201.504 7.437-35.408 4.629-17.47 55.289c-9.608 30.409-17.182 55.576-16.832 55.926.548.548 28.005-2.981 34.331-4.412 1.851-.419 2.87-2.572 6.224-13.152 24.363-76.842 22.09-71.582 31.313-72.459 6.59-.627 6.708-.419 4.287 7.558l-1.441 4.75 3.702-.085c2.036-.046 10.002-.834 17.702-1.75l14-1.665 4.855-14.763c5.235-15.917 5.349-18.124 1.15-22.323-3.17-3.17-3.522-3.151-46.413 2.457M147 431.163c-9.075 1.632-16.802 3.275-17.17 3.652-2.234 2.283-35.371 110.705-33.911 110.952 1.739.293 32.882-4.233 33.515-4.87.216-.218 8.11-25.069 17.541-55.224 9.431-30.154 17.392-55.467 17.693-56.25.3-.783.16-1.379-.311-1.325-.471.053-8.282 1.433-17.357 3.065m157.149.533c-4.042 1.992-8.013 7.694-8.82 12.664-.325 2.002-.419 3.64-.21 3.64 2.925-.001 16.473-3.339 16.997-4.188 1.846-2.987 2.025-9.999.304-11.901-2.104-2.325-3.894-2.371-8.271-.215m92.351 75.48c-14.85 2.177-27.142 4.352-27.314 4.834-1.703 4.747-16.205 24.085-23.618 31.494-47.353 47.325-124.319 50.536-174.807 7.294l-5.738-4.915-13.702 2c-7.536 1.1-14.085 1.763-14.555 1.472-.469-.29-1.399-.074-2.066.479-.667.554-7.735 1.97-15.707 3.147-7.971 1.176-14.872 2.239-15.336 2.36-3.196.838 23.722 30.172 37.622 40.999 101.701 79.222 250.962 32.041 288.176-91.09.904-2.991.397-2.962-32.955 1.926" fill-rule="evenodd"/>
<path fill="#f45b23" stroke="#f45b23" d="M226.658 272.516c-31.959 5.164-62.51 18.705-87.116 38.611-7.969 6.447-15.801 14.246-13.542 13.485.825-.278 21.92-3.735 46.878-7.683 43.372-6.861 45.524-7.108 48.704-5.591 3.958 1.887 6.771 6.804 6.183 10.807-.332 2.267-.086 2.781 1.156 2.41 16.931-5.047 51.335-2.005 72.579 6.418 26.841 10.642 51.337 31.773 65.472 56.477l3.18 5.559 4.231-3.466c7.91-6.483 15.736-9.333 30.882-11.25 7.554-.955 13.735-2.131 13.735-2.612 0-1.898-8.44-16.947-14.305-25.506-27.06-39.494-68.211-66.707-115.316-76.259-14.076-2.854-48.912-3.632-62.721-1.4M132 334.171c-96.442 15.335-85.368 13.268-88.947 16.6-2.987 2.781-17.234 44.381-15.718 45.897.341.341 14.005-1.669 30.365-4.468s29.885-4.949 30.055-4.778c.171.17-13.247 44.052-29.818 97.515-16.57 53.463-29.877 97.457-29.57 97.764.478.478 44.632-6.329 45.215-6.971.115-.126 13.765-44.301 30.333-98.166 16.568-53.865 30.264-98.076 30.435-98.247.171-.172 14.66-2.589 32.197-5.371 17.537-2.783 32.43-5.512 33.096-6.065.666-.553 1.873-2.89 2.682-5.193 14.217-40.482 14.591-41.688 12.883-41.582-.939.058-38.383 5.937-83.208 13.065m331.297-8.714c-9.461 1.713-17.394 3.324-17.629 3.579-.235.255-4.13 13.064-8.656 28.464-4.527 15.4-8.363 28.144-8.525 28.321-.162.176-8.232 1.397-17.932 2.713-33.029 4.481-38.069 10.144-52.25 58.726-10.239 35.078-10.515 40.704-2.36 48.071 6.898 6.232 7.826 6.263 41.781 1.389 16.625-2.387 30.48-4.592 30.789-4.902.819-.818 52.585-168.051 52.259-168.825-.151-.358-8.015.751-17.477 2.464M145.5 383.866c-16.999 7.741-17.91 30.096-1.564 38.384 18.373 9.317 39.483-5.633 34.59-24.496-3.298-12.715-20.093-19.778-33.026-13.888m175.143 17.229c-16.159 1.705-32.073 6.91-39.77 13.005-8.496 6.729-24.617 45.992-29.876 72.762-3.31 16.849-2.12 22.315 6.095 27.994 4.119 2.848 19.814 2.482 39.908-.932 24.053-4.086 28.969-7.944 38.124-29.924 3.093-7.425 5.537-13.606 5.43-13.736-.22-.27-34.814 5.642-35.112 6.001-.108.129-1.104 2.035-2.213 4.235-2.637 5.232-5.241 7.488-9.841 8.525-7.506 1.693-8.574-.712-5.554-12.513l1.787-6.988 26.404-4.81c14.522-2.645 26.558-4.964 26.747-5.153 1.241-1.241 10.211-37.978 10.219-41.851.011-5.89-2.767-11.607-6.779-13.948-2.395-1.397-15.16-4.074-17.212-3.609-.275.062-4.036.486-8.357.942m89.402 13.997c-6.616 1.297-7.165 2.297-16.034 29.207-9.475 28.744-9.481 28.349.417 27.314 3.291-.344 6.325-.966 6.742-1.383.417-.417 4.523-13.239 9.125-28.494 9.347-30.981 9.37-28.529-.25-26.644m-199.314 7.843c-19.672 2.586-36.157 5.121-36.632 5.634-1.137 1.225-35.271 109.592-34.7 110.163.368.368 35.827-4.599 36.236-5.075.074-.086 6.024-18.604 13.221-41.149 7.563-23.69 13.76-41.485 14.683-42.16 1.565-1.145 13.2-2.943 13.982-2.161.218.219-.286 3.015-1.121 6.213s-1.311 6.023-1.056 6.277c.41.411 23.263-1.939 31.236-3.212 3.012-.481 3.187-.824 7.798-15.289 5.18-16.249 5.185-18.015.062-22.045-3.377-2.656-1.041-2.806-43.709 2.804m-66.615 8.952-14.385 2.64-17.473 55.296c-9.61 30.413-17.266 55.502-17.014 55.754.679.679 32.945-4.361 33.839-5.286.64-.662 32.816-102.175 34.562-109.041.735-2.891-.542-2.849-19.529.637m159.125.108c-4.503 2.745-10.662 13.917-8.735 15.844.744.744 15.38-2.035 17.015-3.231.833-.609 1.784-3.386 2.114-6.17.95-8.026-3.388-10.715-10.394-6.443m95.034 75.368L370.05 511.5l-4.467 7.25c-42.782 69.444-136.275 84.195-196.97 31.076l-3.886-3.401-15.114 2.217c-23.466 3.443-42.981 6.491-44.429 6.939-2.87.888 14.94 22.081 28.586 34.016 46.666 40.817 110.743 55.201 170.789 38.341C358.45 612.806 405.106 569.978 424.328 518c4.681-12.66 5.243-15.03 3.53-14.887-.747.063-14.059 1.975-29.583 4.25" fill-rule="evenodd"/>
<path fill="#042b93" stroke="#042b93" d="M135.5 334.081c-44 6.993-82.146 13.015-84.769 13.381-8.193 1.144-9.041 2.505-16.795 26.948-3.822 12.05-6.784 22.075-6.581 22.278.203.203 13.736-1.939 30.074-4.759 16.337-2.821 29.974-4.86 30.302-4.531.329.329-12.96 44.34-29.531 97.802-16.571 53.462-30.005 97.328-29.854 97.479.151.151 10.352-1.402 22.669-3.452l22.394-3.727 30.118-97.931c24.289-78.978 30.491-98.081 32.045-98.706 1.061-.426 15.203-2.834 31.428-5.352 16.225-2.517 30.4-4.958 31.5-5.423 1.833-.775 18.593-45.541 17.385-46.437-.212-.157-36.385 5.436-80.385 12.43m326.125-8.049c-8.182 1.55-15.201 3.19-15.598 3.643-.398.454-4.228 12.75-8.512 27.325-4.284 14.575-8.144 27.197-8.579 28.048-.593 1.162-5.064 2.097-17.919 3.747-33.038 4.241-38.255 10.119-52.642 59.315-8.174 27.948-9.257 33.688-7.411 39.28 2.438 7.387 9.411 12.61 16.835 12.61 3.263 0 60.456-7.836 60.824-8.333.1-.136 46.429-149.552 50.98-164.417 1.591-5.196 2.637-5.125-17.978-1.218m-313.866 57.391c-16.083 5.74-20.597 23.27-8.909 34.596 17.916 17.359 48.336-1.398 38.257-23.59-4.569-10.06-17.944-15.076-29.348-11.006m164.401 19.075c-15.111 2.88-27.55 8.064-32.78 13.663-9.132 9.775-22.106 42.399-27.917 70.2-6.13 29.326 3.229 34.791 46.498 27.152 17.161-3.03 24.375-6.518 29.48-14.255 1.961-2.974 12.559-27.021 12.559-28.499 0-.401-31.834 4.967-33.705 5.683-.662.253-2.112 2.24-3.222 4.415-3.8 7.448-12.268 11.392-16.142 7.518-1.843-1.843-1.84-2.062.152-10.51l2.033-8.628 8.594-1.578c4.726-.868 16.771-3.023 26.766-4.789l18.174-3.21 5.323-19.744c6.857-25.434 6.41-30.849-2.999-36.358-4.312-2.525-22.112-3.1-32.814-1.06m97.049 12.486c-5.77 1.368-6.811 3.322-15.239 28.606-9.867 29.602-9.787 30.655 2.149 28.307l5.837-1.148 2.455-8.125c1.35-4.468 5.018-16.674 8.151-27.124 3.132-10.45 5.911-19.562 6.174-20.25.543-1.419-4.112-1.548-9.527-.266M247 418.634c-.825.193-17.445 2.387-36.934 4.876-19.488 2.488-35.593 4.684-35.789 4.879-.469.469-35.149 110.054-34.908 110.305.102.107 8.246-1.018 18.097-2.5l17.912-2.694 13.061-40.738c7.184-22.406 13.843-41.509 14.799-42.452 1.855-1.83 14.772-3.298 14.75-1.676-.006.476-.665 3.32-1.463 6.319-.798 3-1.353 5.552-1.233 5.672.502.502 33.25-3.77 33.857-4.417 1.256-1.337 8.851-26.463 8.851-29.28 0-4.95-5.991-9.467-11-8.294m-101.305 13.34c-8.143 1.505-15.162 3.139-15.598 3.631-.805.909-35.242 109.629-34.825 109.946.216.163 28.74-4.005 32.273-4.716 1.261-.254 36.2-107.239 36.441-111.585.029-.52-3.929.069-18.291 2.724m155.683 1.267c-5.404 4.745-10.235 17.069-6.064 15.469.723-.278 4.81-1.069 9.082-1.758 8.722-1.407 9.604-2.354 9.604-10.317 0-7.576-6.017-9.193-12.622-3.394" fill-rule="evenodd"/>
</svg>