<!DOCTYPE svg PUBLIC "-//W3C//DTD SVG 1.1//EN" "http://www.w3.org/Graphics/SVG/1.1/DTD/svg11.dtd">
<svg xmlns="http://www.w3.org/2000/svg" viewBox="0 0 804 1011">
<path fill="#050404" d="M130.116 35.75c11.655 15.152 25.961 32.898 42.971 53.304 19.011 22.806 19.565 23.921 13.898 27.957-2.645 1.883-5.985 6.654-5.985 8.548 0 .362 1.013.424 2.25.139 9.526-2.198 9.617-2.111 2.75 2.591-7.786 5.332-9.772 7.428-10.96 11.573-1.118 3.898-1.086 3.896 6.627-.343 3.483-1.915 6.328-3.377 6.322-3.25-.006.127-.681 2.44-1.5 5.14-2.632 8.676-1.556 9.596 5.361 4.585l4.15-3.007v2.418c0 4.176-3.654 14.378-7.108 19.843-3.234 5.119-6.768 9.896-19.686 26.607-7.671 9.924-9.641 14.817-8.167 20.291 2.671 9.917 17.813 19.577 33.961 21.667l5.5.711v4.251c0 3.407.298 4.118 1.5 3.585 4.401-1.952 6.504-1 6.386 2.89-.1 3.271.177 3.75 2.167 3.75 1.254 0 2.478-.563 2.719-1.25.288-.821 1.123-.418 2.435 1.177l1.997 2.426 1.153-7.752c.634-4.263 1.623-8.629 2.196-9.7.865-1.616.522-2.388-2.005-4.514-6.157-5.181-1.155-13.947 11.235-19.692 9.133-4.235 34.717-7.513 34.717-4.448 0 2.158-11.443 17.092-24.331 31.753-20.061 22.821-29.832 37.531-35.272 53.102-2.838 8.124-5.907 12.698-17.634 26.287-4.325 5.011-10.364 12.833-13.42 17.383-7.919 11.789-10.812 12.533-23.669 6.083-5.637-2.828-10.61-6.097-39.674-26.08C96.848 304.044 88.72 300 83.318 300c-22.146 0-28.614 31.157-19.202 92.5 1.097 7.15 2.424 18.82 2.95 25.933 1.535 20.773 2.974 23.705 14.657 29.863 7.834 4.129 12.081 8.323 18.711 18.475 11.943 18.289 22.133 10.72 27.168-20.182 1.691-10.379 1.82-10.7 4.072-10.135 3.251.816 2.903-.502-1.174-4.454-3.949-3.827-4.159-4.614-1.903-7.107 1.494-1.651 1.319-1.835-2.75-2.882-2.391-.615-4.724-1.22-5.186-1.344-3.118-.84 3.525-5.018 8.654-5.443 7.136-.592 6.633-1.934-2.901-7.741-8.806-5.364-9.753-6.874-6.231-9.938 1.475-1.283 3.275-2.572 4-2.863 1.046-.421 1.008-.752-.183-1.609-1.476-1.063-2.693-1.458-14.362-4.668-13.45-3.699-20.709-19.108-16.355-34.713l.784-2.807 4.216 3.307c10.8 8.472 49.022 48.393 53.88 56.276 3.978 6.455 5.034 12.504 5.763 33.032.983 27.632 4.367 33.571 24.663 43.277 4.901 2.344 9.586 4.705 10.411 5.248 5.319 3.495 9.958 5.202 12.443 4.579 10.787-2.708 4.175-38.407-9.902-53.456-2.846-3.044-4.357-5.464-3.997-6.403.319-.831-.598-4.31-2.038-7.732-2.829-6.721-2.977-11.312-.381-11.804 1.159-.219 1.625.431 1.625 2.267 0 5.635 14.807 23.96 36.396 45.041 20.336 19.858 37.883 28.656 69.854 35.023 34.718 6.915 37.537 10.294 30.005 35.96-7.224 24.613-3.682 50.902 11.089 82.297 23.606 50.174 18.307 62.841-40.887 97.746C282.068 724.469 274 733.66 274 741.978c0 2.243-2.005 6.915-6.078 14.161-9.093 16.178-7.317 18.314 14.578 17.524 17.831-.642 22.898-2.146 28-8.31 12.448-15.037 18.5-19.415 18.5-13.384 0 1.117.417 2.031.927 2.031 1.279 0 5.073-4.962 5.073-6.635 0-2.162 1.805-1.592 3.592 1.135 2.377 3.628 3.079 3.162 4.894-3.25.895-3.163 1.865-6.561 2.155-7.553.418-1.429.82-1.559 1.943-.627.779.646 1.416.876 1.416.51 0-2.057 3.338-16.355 4.217-18.06 2.113-4.102 4.146-5.835 4.768-4.064.415 1.183 1.479.35 4.186-3.275 6.558-8.785 21.978-18.721 30.913-19.919l4.209-.565-.707 2.902c-1.35 5.534-5.605 10.342-17.786 20.097-12.253 9.812-16.432 14.449-17.345 19.245-1.415 7.437-2.846 12.112-5.661 18.498-7.549 17.125-5.784 19.127 16.683 18.925 14.079-.126 15.488-.313 20.143-2.671 7.582-3.842 15.722-10.955 20.183-17.636 3.156-4.727 4.149-5.633 4.683-4.278.811 2.063 3.802-3.098 4.991-8.612l.718-3.332 2.403 2.257 2.402 2.257v-9.175c0-9.56.629-10.733 3.677-6.856 1.785 2.27 1.823 1.989 1.823-13.42 0-18.779.065-18.919 12.105-26.121 14.157-8.469 14.871-10.934 8.221-28.348-7.217-18.897-5.436-28.991 8.192-46.429 23.01-29.444 25.233-34.314 31.492-68.999 3.575-19.808 5.586-23.791 15.891-31.465 17.418-12.971 33.603-13.098 40.214-.314 2.19 4.235 4.361 11.772 4.374 15.183.011 2.836.058 2.862 2 1.105 5.772-5.224 8.011-10.771 8.011-19.848 0-9.879 1.027-11.691 7.77-13.711 7.988-2.394 18.478 1.69 43.019 16.746 25.295 15.519 36.245 17.945 44.995 9.972l2.284-2.082-6.075-1.239C645.754 512.259 631 504.081 631 500.494c0-3.949 14.948.063 23.857 6.403 4.051 2.883 14.691 8.103 16.517 8.103 1.282 0 1.626-1.045 1.626-4.935 0-10.023 1.892-12.022 15.291-16.15 13.182-4.062 17.994-6.558 29.643-15.378 13.504-10.225 17.026-12.386 24.223-14.863 11.717-4.033 12.398-5.598 3.542-8.14-8.708-2.5-22.768-3.665-30.395-2.518-12.042 1.812-42.221 2.322-47.205.799-9.993-3.055-8.345-5.583 9.25-14.194 7.233-3.539 14.242-7.602 15.575-9.028l2.425-2.593-2.925-.149c-6.122-.311-13.417.285-27.924 2.284-14.895 2.052-15.133 2.054-34 .216-59.123-5.759-70.883-2.182-122.111 37.149-6.787 5.211-11.89 8.496-12.121 7.804-1.138-3.413-9.121-14.31-13.904-18.98-10.771-10.516-20.95-16.372-52.739-30.346-25.175-11.065-45.145-24.34-61.418-40.824-15.884-16.091-16.123-26.792-.676-30.248 4.414-.988 5.422-1.568 4.913-2.825-4.201-10.366 1.66-15.416 10.547-9.088l2.972 2.117 1.929-3.173c1.061-1.745 2.233-4.792 2.605-6.77 1.073-5.723 3.255-9 7.4-11.115 4.718-2.407 5.381-3.977 4.536-10.743-.874-6.991.831-7.747 8.398-3.729 3.026 1.606 5.876 3.07 6.335 3.253 3 1.199-.984-16.858-5.663-25.67-1.888-3.557-3.198-6.848-2.909-7.315.928-1.502 6.949-.91 16.809 1.652 5.292 1.375 9.841 2.5 10.11 2.5.985 0 .412-9.692-.956-16.144-1.714-8.085-4.016-12.656-10.003-19.856-7.366-8.86-7.212-10.643 1.025-11.821l4.853-.694-2.466-1.999c-7.043-5.709-6.353-8.055 4.145-14.11 8.532-4.922 12.889-9.849 12.889-14.577v-2.737l-11.874.084c-13.845.098-17.437-1.013-17.956-5.549-.209-1.822.482-3.988 1.872-5.868 1.863-2.52 2.108-3.793 1.586-8.237-.754-6.419.04-7.264 7.773-8.263 5.551-.717 5.621-.766 4.122-2.899-1.913-2.723-8.336-4.852-20.523-6.804-16.747-2.682-19.891-3.533-21.492-5.819-2.199-3.138-1.851-9.349.992-17.707 1.375-4.043 2.5-7.946 2.5-8.675 0-2.312-2.738-1.432-5.161 1.659a1446.52 1446.52 0 0 0-4.756 6.109c-2.161 2.796-2.832 3.07-6.361 2.597-7.593-1.019-10.461-5.575-12.711-20.19-.592-3.85-1.571-8.536-2.175-10.413l-1.099-3.413-1.885 3.875c-5.246 10.785-15.134 14.207-26.065 9.02-6.983-3.314-5.611-7.376 4.051-11.993 9.518-4.547 2.404-8.615-11.541-6.598-10.272 1.485-9.787 1.692-12.835-5.478-3.274-7.705-3.661-7.782-10.597-2.122-6.662 5.438-8.77 6.106-13.292 4.217-3.529-1.475-3.573-1.566-3.573-7.433 0-6.607.521-7.464 8.25-13.553 6.139-4.837 6.083-5.992-.263-5.382-6.777.651-17.271 6.004-30.014 15.31C249.874 97.372 244.517 100 238.606 100c-8.239 0-10.752-5.663-6.064-13.662 2.277-3.886 2.356-4.336.75-4.316-3.327.041-9.769 3.752-13.671 7.877-7.945 8.398-7.205 8.867-77.457-49.149C131.675 32.087 122.812 25 122.47 25c-.342 0 3.099 4.837 7.646 10.75M16 829.986V841h15.94l.28 59.902.28 59.903 3.107 4.289c1.733 2.392 5.492 5.641 8.5 7.347L49.5 975.5h36c40.321 0 40.561-.039 47.026-7.706 6.167-7.314 5.945-4.898 6.283-68.544l.308-58.25h129.951l-.284-10.75-.284-10.75-90.25-.255-90.25-.256V841h16v54.929c0 48.601-.181 55.109-1.571 56.5-1.297 1.296-4.351 1.571-17.477 1.571-15.569 0-15.938-.05-17.438-2.338-1.336-2.039-1.499-9.22-1.273-56.25L66.5 841.5l7.783-.293 7.784-.292-.284-10.708L81.5 819.5l-32.75-.264-32.75-.263v11.013m277.402-9.989c-19.556 2.867-24.74 13.158-9.643 19.141 6.758 2.679 28.473 3.353 35.84 1.113 25.894-7.874 4.129-24.701-26.197-20.254m48.072 1.253c-.31 1.237-.431 6.075-.269 10.75l.295 8.5 222.75.252 222.75.252V819H342.038l-.564 2.25m-188.26 46.5.286 9.75 5.25.302 5.25.303V954h-11v22h54v-22h-11v-53.82l3.837-4.84c8.005-10.098 18.271-17.364 20.207-14.303.533.842.932 21.311.941 48.237l.015 46.774 16.75-.274 16.75-.274V924c0-48.499-.11-51.722-1.891-55.306-7.065-14.225-27.328-13.951-48.991.663-3.786 2.554-7.048 4.643-7.25 4.643-.203 0-.368-3.6-.368-8v-8h-43.072l.286 9.75m122.218-8.433c-1.074 2.799.033 18.18 1.318 18.308.688.069 3.275.181 5.75.25l4.5.125v75.9l-5.75.3-5.75.3-.284 10.75-.284 10.75h56.136l-.284-10.75-.284-10.75-5.25-.302-5.25-.303v-75.79l5.25-.303 5.25-.302v-19l-27.275-.266c-22.157-.216-27.373-.013-27.793 1.083m84.834.183c-11.046 3.062-16.727 9.187-18.382 19.817-1.726 11.087-.737 77.391 1.218 81.683 2.349 5.155 6.605 9.796 11.274 12.294 5.732 3.066 59.32 3.964 67.834 1.136 11.513-3.824 15.954-10.698 16.59-25.68l.457-10.75H405v9.878c0 12.812.229 12.622-15.234 12.622-10.653 0-12.079-.207-13.347-1.941-1.168-1.599-1.419-8.88-1.419-41.25 0-47.52-1.481-43.316 15.25-43.294 14.588.02 14.14-.35 14.75 12.195l.5 10.29h33l.297-7.416c.602-15.013-3.09-23.116-12.676-27.823L420.5 858.5l-27.5-.225c-21.512-.177-28.64.09-32.734 1.225m108.88.031c-8.145 2.254-13.748 6.878-16.598 13.701-1.311 3.136-1.547 9.874-1.538 43.986l.01 40.282 2.416 5.19c2.719 5.839 8.5 10.677 14.78 12.368 2.447.659 14.819.938 33.096.747l29.188-.305 5.5-3.106c3.824-2.16 6.414-4.573 8.5-7.92l3-4.813.323-39.081c.416-50.216-.408-54.01-12.953-59.641-6.882-3.089-55.858-4.138-65.724-1.408m92.068 8.219.286 9.75 5.25.302 5.25.303V954h-11v22h54v-22h-11v-54.82l3.849-4.84c5.758-7.241 13.96-14.523 15.93-14.145 1.551.298 1.748 2.377 1.991 21.092l.271 20.761 16.729-.274 16.73-.274.275-21.5c.386-30.223-.978-34.915-11.564-39.761-10.139-4.642-25.252-.675-38.461 10.096l-5.75 4.688V858h-43.072l.286 9.75m110-.02.286 9.77 5.25.302 5.25.303V954h-11v22h54v-22h-10v-56.04l7.25-7.342c7.471-7.565 12.877-11.167 15.34-10.222 1.186.455 1.41 8.097 1.41 48.073V976h34.068l-.284-52.25c-.319-58.697.029-55.976-7.881-61.705-9.996-7.242-28.269-3.756-45.108 8.605l-4.709 3.457-.293-7.803-.293-7.804-21.786-.27-21.787-.269.287 9.769m-184.773 7.689c-2.625 1.918-3.61 79.6-1.054 83.096 2.085 2.851 24.51 3.016 27.327.2 1.638-1.637 1.811-4.823 2.086-38.5.313-38.33.106-42.166-2.411-44.683-2.121-2.121-23.075-2.213-25.948-.113" fill-rule="evenodd"/>
</svg>