<!DOCTYPE svg PUBLIC "-//W3C//DTD SVG 1.1//EN" "http://www.w3.org/Graphics/SVG/1.1/DTD/svg11.dtd">
<svg xmlns="http://www.w3.org/2000/svg" viewBox="0 0 1557 1383">
<path fill="#040404" d="M666.337 103.25c-11.37 11.715-34.154 39.39-38.837 47.171-1.1 1.828-4.991 7.544-8.647 12.702-19.742 27.849-39.307 64.817-55.507 104.877-13.014 32.182-22.7 75.717-23.361 105l-.057 2.5-2.496-3c-1.373-1.65-9.647-12.45-18.388-24-23.125-30.556-34.019-42.825-31.019-34.935.536 1.411.975 5.174.975 8.363 0 11.804 9.481 55.371 17.207 79.072 11.975 36.734 48.189 103.824 58.551 108.47 2.63 1.18 4.896 7.185 9.632 25.53 5.904 22.869 18.316 56.555 23.555 63.928 1.005 1.414 3.214 5.497 4.91 9.072 2.689 5.671 9.097 15.563 20.949 32.34 3.502 4.957 3.467 6.66-.136 6.66-6.164 0-28.859 18.039-30.162 23.975-.544 2.476 1.29 11.026 5.192 24.199 1.363 4.603-19.425 2.701-34.55-3.161-14.161-5.488-34.858-20.538-41.494-30.17l-3.847-5.583 4.087-5.988c2.248-3.293 6.678-11.339 9.844-17.88 7.73-15.97 7.697-17.474-.71-32.545-13.812-24.758-14.871-25.316-29.063-15.322-7.206 5.074-7.953 5.251-10.465 2.475-2.462-2.721-6.578-2.526-13.646.646-3.242 1.455-6.135 2.407-6.427 2.114-.293-.292-.983-4.97-1.533-10.396-2.778-27.359-7.654-37.471-17.189-35.648-4.611.881-10.381 10.16-13.84 22.255-2.302 8.05-2.333 11.701-.214 25.071 2.009 12.676 1.556 15.075-3.399 18.029-27.554 16.426-16.197 53.49 20.919 68.272 6.602 2.63 13.514 3.574 12.347 1.686-.33-.533-4.218-2.852-8.639-5.153-28.573-14.865-40.782-46.994-21.644-56.957 6.825-3.553 7.308-5.194 6.941-23.614-.199-10.003.136-18.5.867-22.042 1.943-9.404 7.67-19.072 9.876-16.671 1.992 2.169 5.301 15.134 6.148 24.093 1.1 11.623 2.735 21.077 4.081 23.592.915 1.71 1.109 1.665 2.954-.679 1.086-1.381 4.935-3.968 8.555-5.75l6.581-3.24 5.131 2.626c8.731 4.468 13.219 4.62 13.824.467.33-2.27 8.023-8.701 10.409-8.701 1.716 0 15.398 27.114 15.398 30.515 0 1.252-2.239 7.073-4.976 12.934-10.221 21.889-10.54 26.002-2.896 37.386 17.483 26.036 54.198 43.03 74.573 34.516 4.779-1.996 4.614-2.1 12.639 7.98 4.085 5.132 12.719 14.818 19.185 21.525 6.467 6.707 11.569 12.383 11.338 12.614-3.872 3.872-30.969 13.637-46.677 16.822-14.616 2.963-39.04 2.912-50.186-.104-26.326-7.123-43.681-24.248-65.561-64.688-6.062-11.205-6.794-9.13-1.626 4.612 13.106 34.846 30.315 55.167 54.854 64.771 25.983 10.169 75.019 5.338 106.563-10.5 4.802-2.411 9.639-4.383 10.75-4.383 3.366 0 2.33-1.879-4.594-8.329-14.178-13.207-41.799-55.217-43.897-66.763-.58-3.192-.297-3.892 2.532-6.273 6.375-5.363 27.366-16.635 30.98-16.635.622 0 6.078 4.388 12.125 9.75 25.693 22.785 56.275 37.911 82.502 40.805 8.992.992 9.203 1.251 6.636 8.137-6.622 17.764-9.543 28.267-8.281 29.787 1.972 2.377 4.023 1.821 7.861-2.13 4.883-5.028 13.127-8.518 34.97-14.805 10.277-2.959 20.861-6.316 23.519-7.462 6.919-2.981 9.434-2.651 19.683 2.588 13.368 6.833 15.405 9.013 14.578 15.598-1.201 9.551-1.856 26.554-1.134 29.413l.712 2.819 1.44-2.739c2.101-3.995 8.388-29.203 8.388-33.63 0-4.386-2.644-7.432-8.043-9.264-1.901-.645-4.619-1.981-6.039-2.968-3.477-2.419-12.469-5.901-15.205-5.89C804.391 713.019 781 702.095 781 701c0-.347 2.587-1.687 5.75-2.975 3.163-1.289 10.635-4.775 16.605-7.746 5.971-2.971 11.057-5.201 11.302-4.956.245.246-1.921 5.205-4.813 11.021-2.893 5.816-4.963 10.87-4.602 11.231.778.778 7.873-.844 28.224-6.451 16.297-4.491 23.736-5.1 36.5-2.993 11.702 1.933 15.845-.76 12.053-7.835-1.111-2.072-2.019-4.575-2.019-5.563 0-.988-.882-4.415-1.961-7.616-1.078-3.201-3.133-15-4.567-26.219-2.851-22.304-2.441-29.929 1.838-34.208 1.079-1.079 4.526-7.413 7.66-14.076 5.044-10.726 7.289-16.096 11.331-27.114.606-1.65 5.173-7.066 10.15-12.036 8.801-8.79 9.459-9.224 24.049-15.864 18.068-8.223 36.484-14.477 46-15.619 3.85-.463 8.307-1.163 9.905-1.557 3.314-.817 3.362-1.447-.757 10.076-7.722 21.603-8.624 48.379-2.477 73.5 3.476 14.208 10.644 27.849 9.326 17.75-.825-6.324.677-6.29 13.523.309 16.484 8.468 26.238 20.899 30.997 39.509 1.091 4.264 1.99 8.917 1.998 10.342.017 2.903 1.925 6.826 1.989 4.09.02-.825.48-4.572 1.023-8.327 3.659-25.314-13.86-48.121-42.311-55.081l-9.216-2.254-1.255-4.919c-1.95-7.642-2.668-36.007-1.319-52.141 1.712-20.498 5.368-33.23 7.558-26.328.36 1.134 1.7 3.303 2.977 4.822l2.323 2.76-3.892-.371c-2.141-.204-3.892.072-3.892.613 0 1.229 3.302 2.521 13.5 5.281 37.127 10.047 75.037 35.536 85.441 57.445 9.249 19.478 8.189 66.567-2.443 108.51-1.426 5.625-2.39 10.431-2.142 10.679.458.458 6.644-8.053 6.644-9.141 0-.325 1.528-4.519 3.395-9.32 2.973-7.643 5.851-19.022 8.656-34.228 1.952-10.583.242-49.247-2.609-59-3.504-11.984-13.973-27.897-24.693-37.536-14.08-12.659-48.77-28.687-67.105-31.005-6.108-.772-12.45-6.256-15.54-13.438-2.601-6.046-4.577-6.608-19.771-5.626-23.568 1.524-47.133 10.568-65.263 25.047-5.187 4.142-9.605 7.356-9.82 7.141-.214-.214.33-4.56 1.209-9.657 1.097-6.354 1.276-9.591.57-10.297-.705-.705-1.029-.112-1.029 1.889 0 6.669-16.098 47.171-24.636 61.982-44.024 76.376-104.896 107.096-169.485 85.534-57.623-19.236-102.673-76.194-125.483-158.652-8.414-30.418-8.36-28.703-1.912-60.882 7.221-36.035 16.152-60.019 25.812-69.323l3.45-3.323 2.34 3.823c7.305 11.94 30.265 31.242 63.414 53.313 9.35 6.225 18.294 12.392 19.876 13.705 3.753 3.116 3.139 3.619 12.454-10.195 4.45-6.6 12.176-17.175 17.169-23.5 4.994-6.325 11.768-15.009 15.054-19.298C751.726 396.858 785.798 362 789.567 362c3.037 0 21.767 10.629 33.433 18.973 34.569 24.725 68.806 58.557 51.244 50.637-2.756-1.243-5.857-1.623-11.486-1.406l-7.71.296 8.995 7.933c16.249 14.33 23.236 18.476 22.225 13.19-.267-1.397 1.019-5.726 3.121-10.507 1.966-4.472 4.055-11.165 4.642-14.874 2.093-13.222 14.073-31.161 24.35-36.459 19.433-10.018 38.689 10.2 41.226 43.285 1.232 16.076-3.448 43.358-9.276 54.066C943.7 499.316 919.164 513 903.951 513c-1.623 0-2.951.501-2.951 1.113 0 2.254 26.535.432 35-2.404 4.235-1.418 14.465-3.429 23.5-4.619 8.8-1.159 22.075-3.002 29.5-4.094 14.566-2.144 30.439-2.591 35.94-1.013 1.885.54 3.591.819 3.791.62 1.733-1.734-28.069-18.154-34.943-19.253-2.083-.333-3.788-.837-3.788-1.119 0-.282 9.844-10.237 21.876-22.122 12.032-11.885 25.224-25.884 29.316-31.109 11.996-15.317 29.662-42.48 28.429-43.712-.785-.786-11.978 5.982-35.121 21.237-27.155 17.9-28.535 18.575-21.47 10.51 13.571-15.49 27.149-38.683 33.686-57.535 17.374-50.109 21.178-83.668 19.949-176-.505-37.911-2.744-80.913-4.294-82.462-.857-.857-2.34 2.391-2.356 5.161-.011 1.953-1.052 3.462-3.765 5.456-2.062 1.517-6.469 5.383-9.793 8.593-26.144 25.247-98.825 61.881-153.957 77.6-37.604 10.722-36.259 10.486-33.209 5.83 1.99-3.036 17.01-16.855 31.209-28.713 21.379-17.853 32.129-25.3 62.25-43.119 5.638-3.335 10.25-6.515 10.25-7.067 0-1.847-40.323.863-64 4.302-73.323 10.649-141.393 35.493-183.879 67.112-10.065 7.49-29.187 26.001-32.621 31.579-2.896 4.704-23.49 34.411-25.288 36.478-3.317 3.814-3.532 2.049-2.871-23.5 1.025-39.551 3.619-60.586 13.789-111.828 3.228-16.267 5.87-29.88 5.87-30.25 0-1.959-3.138-.085-7.663 4.578m254.775 306.465c-7.828 3.856-13.405 11.98-19.313 28.133-3.406 9.311-3.766 11.092-2.858 14.152.571 1.925 1.155 4.85 1.299 6.5.407 4.693 1.98 3.541 3.873-2.836 2.17-7.308 4.233-9.664 8.464-9.664 2.81 0 3.411.455 4.291 3.25.921 2.926 3.132 22.073 3.132 27.124 0 3.251 1.66.668 3.409-5.306 2.029-6.926 2.13-22.843.175-27.522-1.863-4.458-5.729-6.967-9.557-6.201-4.344.868-4.516-.647-.853-7.521 12.583-23.606 22.326-14.558 24.903 23.125 1.021 14.938 1.153 15.645 2.733 14.668 4.682-2.893 5.094-34.134.618-46.82-3.537-10.025-12.518-14.924-20.316-11.082m-102.173 29.4c-.623 1.162-1.705 1.805-2.516 1.494-2.215-.85-1.674 1.816.827 4.074 2.957 2.67 9.984 7.317 11.066 7.317.469 0-.591-1.823-2.356-4.05l-3.207-4.05 2.788.7 2.789.7-2.717-3.563c-3.437-4.506-5.279-5.23-6.674-2.622m-14.925 6.102c-1.076 1.77-2.209 5.258-2.518 7.75-.309 2.493-1.404 6.333-2.435 8.533-1.03 2.2-2.133 5.481-2.451 7.292-.317 1.81-1.994 6.76-3.727 11A920.846 920.846 0 0 0 786.484 496c-9.148 23.934-19.313 41.225-27.345 46.515-4.277 2.817-13.846 5.485-19.672 5.485-3.555 0-4.839-.678-9.462-4.995-5.929-5.538-7.278-5.798-4.189-.808 2.534 4.095 6.742 8.079 10.684 10.115l3 1.549-10 4.601c-17.768 8.173-16.948 7.574-9.5 6.953l6.5-.542-9.924 5.313c-12.567 6.729-13.393 8.512-2.389 5.154 12.897-3.935 31.464-14.34 25.59-14.34-.843 0-2.182.977-2.974 2.171-.88 1.324-1.921 1.874-2.671 1.411-3.787-2.341 7.371-8.328 17.973-9.644 5.83-.724 9.464-1.755 11.895-3.375 1.925-1.283 4.644-2.595 6.043-2.915 5.546-1.27 27.513-24.978 32.866-35.47 1.032-2.023 3.387-6.033 5.234-8.912 1.846-2.879 4.896-7.942 6.776-11.25 5.485-9.652 7.595-8.394 11.195 6.679 5.396 22.587.796 38.117-15.783 53.294-9.244 8.463-16.65 11.429-28.094 11.253-9.028-.139-9.319-.074-8.682 1.932.405 1.277.143 2.395-.682 2.904-2.211 1.367 5.761 4.104 14.127 4.851l7.5.669-4 1.195c-2.2.658-5.376 1.198-7.059 1.201-1.682.003-3.923.638-4.979 1.41-1.771 1.295-1.54 1.462 2.956 2.136 4.771.715 4.825.763 2.48 2.155-4.147 2.461 5.872.789 13.453-2.246 6.289-2.518 18.236-10.185 14.149-9.08-11.244 3.039-17.187 3.306-11 .494 3.108-1.412 3.487-1.721 14.864-12.1 16.339-14.907 22.65-30.306 20.618-50.305-1.158-11.398-4.243-18.868-10.179-24.65l-4.895-4.768 5.046-9.36c2.775-5.148 5.019-9.769 4.987-10.27-.129-1.997-21.197-18.41-23.632-18.41-.736 0-2.219 1.448-3.295 3.217M915.2 477.259c-1.613 1.944-3.274 6.741-2.333 6.741 1.097 0 4.697-6.769 3.982-7.485-.31-.31-1.052.025-1.649.744m-335.655 19.87c.98 8.146 5.416 27.691 7.624 33.593 3.151 8.423 4.946 7.789 2.901-1.024-1.062-4.574.618-4.642 2.909-.118 3.108 6.139 10.07 17.216 11.636 18.516 1.488 1.234 1.572.972.923-2.869-.476-2.817-.351-4.227.374-4.227 2.576 0 5.048 4.463 8.443 15.242 8.422 26.74 25.815 38.869 56.145 39.154l10 .093-5.692 2.945c-6.379 3.301-6.577 4.566-.716 4.566 4.603 0 12.453-3.681 18.626-8.735 2.32-1.899 4.764-3.271 5.431-3.049 1.27.424-10.016 9.867-16.287 13.627-5.13 3.076-6.561 4.952-4.407 5.778.924.355 2.662.164 3.862-.424 1.201-.587 4.427-2.019 7.171-3.181 6.729-2.852 8.718-4.937 12.463-13.06 4.045-8.776 2.219-11.735-4.517-7.321-3.903 2.558-4.151.699-.419-3.15 1.857-1.917 3.055-3.485 2.661-3.485-.394 0 .192-1.782 1.304-3.96 3.264-6.398 2.396-6.534-4.2-.659-12.048 10.732-22.004 13.507-38.364 10.692-14.278-2.456-28.858-13.597-36.086-27.573-5.846-11.305-5.864-11.288 5.698-5.486 20.361 10.217 39.533 14.851 53.545 12.941 13.749-1.874 27.006-7.59 25.028-10.791-.395-.64-1.255-1.191-1.91-1.225-.655-.033-2.85-3.52-4.877-7.75-3.73-7.783-9.406-15.365-12.902-17.236-3.203-1.714-2.162.45 3.118 6.484 4.737 5.413 8.832 12.225 10.408 17.313.664 2.144.439 2.25-4.765 2.25-13.243 0-24.779-5.556-62.88-30.286-2.361-1.533-12.168-8.399-21.793-15.258-17.364-12.375-22.911-15.71-28.301-17.018l-2.8-.68.646 5.371M710.472 512c.765 8.645 4.438 19.424 6.064 17.797.803-.803-2.753-15.069-4.935-19.797l-1.615-3.5.486 5.5m8.417.25c-.238 4.83.257 16.347.779 18.132 1.734 5.927 3.137-7.879 1.69-16.632-.678-4.105-2.292-5.086-2.469-1.5m8.75-.752c-.952 2.481-.772 8.502.254 8.502 1.951 0 2.83-6.311 1.231-8.834-.675-1.064-.975-.997-1.485.332m12.48 2.66c-1.861 5.668-2.872 12.624-2.033 13.981 1.048 1.696 2.597-2.338 3.817-9.938 1.037-6.462-.125-9.096-1.784-4.043m9.356 1.269c-1.941 5.081-1.562 8.472.514 4.594 1.747-3.264 3.016-9.021 1.988-9.021-.446 0-1.572 1.992-2.502 4.427m-45.474.823c.001 2.513 4.877 13.16 7.442 16.25l1.661 2-.473-2c-1.164-4.93-2.001-7.371-4.371-12.75-2.644-6.002-4.261-7.33-4.259-3.5m29.607.575c-.943 1.526-2.097 12.175-1.319 12.175.782 0 2.956-10.764 2.47-12.224-.295-.885-.581-.873-1.151.049M686 519.371c0 .755 1.821 3.342 4.047 5.75l4.046 4.379-3.688-5.75c-3.896-6.074-4.405-6.58-4.405-4.379m12.963 4.556c3.223 6.384 5.037 8.303 5.037 5.328 0-2.295-5.567-11.255-6.992-11.255-.57 0 .31 2.667 1.955 5.927M678 531.884c0 1.306 8.077 8.372 8.774 7.675.328-.327-1.154-2.387-3.292-4.577-3.818-3.91-5.482-4.851-5.482-3.098m224 2.175c0 1.132.45 1.781 1 1.441.55-.34 1-1.266 1-2.059 0-.793-.45-1.441-1-1.441s-1 .927-1 2.059m-205 1.745c0 1.606 5.828 9.779 9.37 13.142 4.452 4.226 4.662 2.472.521-4.335-4.735-7.784-9.891-12.374-9.891-8.807m21 10.054c0 1.028 3.029 2.446 3.729 1.747.243-.244-.496-.945-1.643-1.559-1.148-.614-2.086-.699-2.086-.188m414 37.596V618h28v-14h28v-13h-27.905l-.297 6.25-.298 6.25-6.75.296-6.75.295v-28l6.75-.295 6.75-.296.298-6.25.297-6.25H1202v-14h-42v5.8c0 6.995-1.027 8.205-6.95 8.185-6.261-.021-6.893-.676-7.243-7.509l-.307-5.976-6.75-.296-6.75-.295v34.545M722.244 552.25c.225.688 1.922 1.397 3.77 1.577 2.961.289 3.204.141 2.05-1.25-1.571-1.893-6.424-2.166-5.82-.327m-5.055.433c-1.01.404-.898.981.487 2.511 1.73 1.912 1.73 2.036.001 3.3-2.414 1.765-.917 2.413 3.073 1.331 3.69-1.001 4.004-2.342 1.306-5.575-1.911-2.291-2.547-2.496-4.867-1.567m575.061 9.985-7.25.42v12.711l-12.25.67c-6.737.369-16.075.527-20.75.351l-8.5-.32-.263 34.75-.263 34.75h-12.669l-.663 12.392c-.9 16.838-1.988 15.608 13.813 15.608h13.241l.652-10.656c.359-5.86.652-18.46.652-28V618h12.968l.266 27.75.266 27.75 6.5.5 6.5.5.5 6.5.5 6.5 20.75.27 20.75.271v-5.898c0-7.818.378-8.027 15.064-8.361l12.436-.282.261-41.25.261-41.25H1341l-.005 17.75c-.003 9.763-.296 22.138-.651 27.5l-.646 9.75h-5.149c-6.334 0-7.549-1.127-7.549-7 0-5.978-1.197-7-8.2-7h-5.8v-12.941c0-14.621.503-13.676-7.785-14.614l-6.215-.703v28.167l6.75.295 6.75.296.5 6.5.5 6.5 6.75.296 6.75.295v26.652l-12.953.717c-15.238.842-15.047.916-15.047-5.819 0-6.65-1.065-7.641-8.213-7.641h-5.813l.263-34.75.263-34.75 5.976-.307c6.952-.356 7.488-.923 7.509-7.943L1299 577h28v5.965c0 6.815 1.179 8.046 7.684 8.02 6.417-.026 6.523-.273 6.151-14.266-.184-6.907-.613-12.835-.953-13.173-.769-.766-37.791-1.448-47.632-.878M827.5 564.69c-1.65.886-5.475 3.565-8.5 5.954-33.62 26.553-61.206 45.594-83.482 57.623-31.191 16.843-40.86 22.84-31.653 19.63 2.565-.894 5.253-.514 15.862 2.245 27.258 7.089 46.82 2.712 73.364-16.414 22.083-15.912 30.626-28.904 38.532-58.602 3.265-12.262 2.568-14.027-4.123-10.436m624.5 46.764v48.455l-6.75.295-6.75.296-.5 6.5-.5 6.5-5.331.305c-6.768.387-8.169-.766-8.169-6.727 0-6.059-1.18-7.078-8.2-7.078h-5.8v-69h-12.698l-.646 9.75c-.836 12.618-.839 48.94-.007 62.551l.65 10.611 6.1.294 6.101.294.296 6.75.295 6.75H1438v-14h28v-56h14v-55h-28v48.454m-721.587-37.005c-10.769 3.963-17.413 7.225-17.413 8.548 0 2.759 9.96 6.111 12.325 4.148.731-.607 4.22-2.005 7.752-3.108 8.482-2.646 12.923-5.443 12.923-8.139 0-1.733-.42-2.012-2.25-1.491-1.237.353-3.6.901-5.25 1.219l-3 .578 3-2.566c3.886-3.324 2.872-3.222-8.087.811m-529.758 1.669c-.339 1.86-1.29 10.813-2.113 19.896-1.568 17.312-2.948 23.619-6.475 29.597-3.723 6.309-14.671 19.644-22.357 27.229l-7.438 7.34-.611-8.84c-.335-4.862-1.32-22.79-2.187-39.84-.867-17.05-1.821-32.575-2.121-34.5l-.544-3.5-1.879 3.653c-2.574 5.005-3.79 10.966-5.472 26.814-2.511 23.654-1.977 39.025 2.67 76.83 2.4 19.533 2.436 19.387-5.128 20.789-4.163.771-19.676 7.811-22.153 10.052C121.706 714.481 101.652 726 99.844 726c-3.053 0-5.879-14.369-8.885-45.17-2.512-25.74-2.928-24.318 8.832-30.228 4.79-2.408 12.534-6.744 17.209-9.635 4.675-2.892 10.075-6.183 12-7.315 5.267-3.096 13.245-9.095 15.5-11.655l2-2.27-5 .734c-11.715 1.718-34.245 10.532-45.246 17.699-7.283 4.745-7.683 4.589-9.173-3.594-2.566-14.087-1.681-15.702 12.552-22.889C111.586 605.641 137 586.763 137 583.92c0-5.523-45.636 15.734-58.055 27.043-9.17 8.35-11.669 14.428-5.695 13.851l3.25-.314-.021 11.541c-.013 7.064-.555 13.16-1.399 15.717-1.124 3.404-1.142 4.463-.097 5.722.859 1.035 1.566 7.556 2.143 19.782 2.269 48.041 3.974 56.244 13.111 63.066 5.694 4.251 18.632 2.797 25.169-2.828 1.598-1.375 3.521-2.5 4.274-2.5.753 0 1.79-1.107 2.304-2.459.515-1.353 2.672-3.345 4.795-4.428 5.074-2.589 13.145-8.921 21.374-16.768 3.659-3.49 7.086-6.345 7.615-6.345.529 0 2.451 3.416 4.272 7.591 3.278 7.52 8.67 16.032 9.579 15.124.259-.26-.023-2.439-.627-4.843-1.826-7.273-6.603-47.692-5.87-49.673.376-1.016 4.787-4.658 9.802-8.092 5.015-3.435 11.654-8.465 14.753-11.176 3.099-2.712 5.972-4.931 6.385-4.931.413 0 1.043 4.388 1.399 9.75 1.963 29.541 3.158 39.684 6.2 52.627 1.376 5.852 1.783 6.598 2.728 5 1.515-2.559 1.347-107.936-.202-126.674-1.22-14.758-2.453-19.501-3.532-13.585m90.8-.032c-10.223 19.77-4.184 131.333 7.981 147.428 1.344 1.779 1.504-1.361 1.532-30.189l.032-32.176 8.141-6.134c4.892-3.687 8.503-5.771 9.05-5.224.501.501 1.568 6.94 2.372 14.31 1.659 15.207 3.74 28.102 6.192 38.366l1.68 7.033.798-14.5c2.329-42.355-1.03-122-5.145-122-2.2 0-3.837 10.875-5.514 36.641l-1.314 20.174-4.38 5.418c-4.129 5.107-6.859 8.635-10.266 13.267-1.211 1.646-1.565 1.735-2.004.5-1.132-3.188-2.606-21.518-3.619-45-1.411-32.707-1.867-35.008-5.536-27.914m519.432 11.536c-24.241 19.581-59.577 41.941-81.148 51.349-5.369 2.341-9.994 4.633-10.278 5.092-1.678 2.715 27.423 2.246 37.964-.611 20.944-5.676 56.1-33.595 65.013-51.628 3.719-7.527 5.728-15.824 3.831-15.824-.547 0-7.469 5.23-15.382 11.622m-445.387-4.07c-4.4 1.345-9.35 2.727-11 3.071-3.617.755-12.116 5.935-12.842 7.827-.287.746.109 2.187.879 3.203 1.988 2.624 1.79 6.905-.787 17.018-2.06 8.083-2.25 11.112-2.25 35.829 0 37.122.864 41.459 9.406 47.216 10.116 6.817 16.475 5.16 38.541-10.041 9.321-6.421 17.957-11.675 19.191-11.675 3.503 0 3.729-1.759.444-3.457-7.329-3.79-19.317-1.451-36.357 7.095-11.496 5.765-11.926 5.807-14.211 1.388-3.488-6.744-6.768-51.094-3.986-53.89.347-.35 5.506-.862 11.462-1.139 10.663-.495 10.921-.565 16.658-4.508 10.09-6.935 9.299-7.489-10.704-7.489h-17.202l.687-5.173c1.035-7.803 1.663-8.464 9.299-9.789 7.751-1.345 13.311-3.593 19.612-7.928 12.043-8.286 1.307-13.104-16.84-7.558m353.244-1.388c-1.516.554-2.502 1.418-2.191 1.921.549.889 5.447 1.335 5.447.497 0-.23.273-1.13.607-2 .685-1.787.068-1.853-3.863-.418m24.486 1.896c-10.366 2.965-23.23 8.23-23.23 9.506 0 1.417 10.685-.793 16.981-3.513 3.585-1.549 8.094-3.329 10.019-3.955 3.489-1.136 9.4-5.088 7.5-5.015-.55.021-5.621 1.361-11.27 2.977m-505.632 7.373c-2.147 2.626-6.963 6.737-10.703 9.134-11.215 7.189-12.33 10.762-3.823 12.252l4.428.776-.311 5.749c-.171 3.162-.958 7.584-1.75 9.828-.791 2.244-1.448 5.935-1.459 8.204-.011 2.268-1.161 11.774-2.555 21.124-3.14 21.057-4.314 49.963-2.273 55.963 2.821 8.296 13.861 11.29 22.348 6.063 2.2-1.355 4.713-2.478 5.585-2.495 3.34-.066 32.751-16.324 39.242-21.693l2.826-2.338h-8.618c-10.697 0-21.887 2.231-31.035 6.188-13.879 6.003-14.586 6.17-16.793 3.963-1.852-1.851-1.896-2.557-.83-13.303.619-6.241 1.577-18.548 2.13-27.348 1.565-24.893.973-23.803 15.493-28.532 8.085-2.634 13.455-5.723 18.75-10.787 5.24-5.012 4.827-5.261-4.315-2.603-8.577 2.493-23.343 4.863-25.395 4.076-1.165-.447-.876-4.347 1.066-14.413.265-1.369 3.286-4.365 7.672-7.609 7.24-5.354 15.311-13.377 14.386-14.301-.684-.684-12.932 2.537-14.105 3.71-2.452 2.452-5.431 1.046-5.749-2.713l-.31-3.671-3.902 4.776m956.652-.448c-1.729.73-2.25 1.768-2.25 4.483 0 3.875 1.108 4.351 5.48 2.359 4.265-1.943 4.591-.275 2.477 12.68-2.324 14.243-2.404 19.892-.521 36.493.78 6.875 1.726 16.681 2.101 21.791l.682 9.291 5.7 2.877c3.135 1.583 6.252 3.542 6.926 4.355 1.552 1.869 7.433 3.003 11.239 2.168 2.852-.627 2.916-.782 2.916-7.061V674h-3.889c-6.991 0-8.188-1.941-9.141-14.824-.802-10.843-.944-11.349-3.961-14.167-4.157-3.883-4.108-10.732.091-12.734 3.016-1.439 3.883-8.011 3.894-29.525L1216 591l-6.25-.011c-3.437-.006-7.825-.223-9.75-.483-1.925-.26-4.513-.044-5.75.479M903 601.508c0 1.199 5.467 11.316 9.481 17.544 12.762 19.803 32.383 35.786 46.148 37.592l4.871.639-5.5-3.738c-13.018-8.847-36.243-30.391-48.854-45.321-3.38-4.001-6.146-7.024-6.146-6.716m243.237 65.242.263 34.75 6.75.296 6.75.295V632h-14.026l.263 34.75m-285.879-26.68c-2.278 2.986-7.844 9.48-12.37 14.43-9.322 10.196-16.251 19.253-23.925 31.27-2.904 4.548-6.244 8.96-7.422 9.805-2.93 2.103.432 1.288 13.859-3.356 9.264-3.205 11.128-3.496 25.327-3.963l15.328-.503-.718-2.627c-.395-1.444-1.07-4.426-1.502-6.626-.431-2.2-1.257-5.8-1.836-8-.578-2.2-1.101-8.95-1.163-15-.061-6.05-.409-13.219-.774-15.93l-.662-4.93-4.142 5.43m99.892 4.636c-2.98.574-2.844 1.702.383 3.172 3.5 1.596 27.848 2.77 28.704 1.385 1.011-1.635-4.056-3.107-14.548-4.227-9.944-1.061-10.661-1.077-14.539-.33m-48.389 6.327c2.567 2.139 4.139 2.52 4.139 1.002 0-1.138-3.301-3.049-5.184-3.002-.753.019-.305.875 1.045 2m6.33 2.058c.702 2.129 7.438 5.573 14.242 7.281 5.655 1.419 22.467 3.26 18.067 1.978-3.233-.942-29.599-9.451-31.257-10.087-1.004-.385-1.359-.106-1.052.828m50.02 4.909c-.512 1.375-1.241 7.675-1.621 14-.38 6.325-1.997 24.55-3.592 40.5s-3.375 36.2-3.954 45c-.579 8.8-1.21 18.139-1.402 20.754-.347 4.723-.317 4.774 4.445 7.704 5.639 3.47 7.286 6.069 6.4 10.101-.355 1.617-.34 4.332.033 6.033l.679 3.091 2.782-2.665c8.415-8.062 7.411-15.397-3.103-22.661-2.857-1.975-2.959-10.316-.422-34.857 4.571-44.221 4.415-99.526-.245-87m50.123 31.546c-16.763 9.304-25.552 21.841-27.351 39.018-1.447 13.819-.14 19.37 6.675 28.33 2.832 3.723 3.342 5.216 3.342 9.782 0 14.875 8.965 18.312 26.297 10.081l7.671-3.643 5.117 3.443c5.883 3.959 7.755 4.152 13.774 1.421 2.871-1.303 6.519-1.978 10.685-1.978 7.846 0 10.494-.983 16.216-6.02 2.486-2.188 6.166-4.421 8.177-4.963 7.71-2.076 12.244-9.869 12.86-22.102.428-8.5.4-8.621-2.786-12.25-4.691-5.343-5.011-4.832-5.011 7.99v11.655l-3.99 3.795c-2.194 2.087-5.644 4.252-7.666 4.811-2.023.558-5.122 2.415-6.889 4.127-3.684 3.571-8.318 4.899-17.212 4.933-5.411.021-6.55.362-8.43 2.524-2.899 3.334-3.112 3.276-9.266-2.544l-5.333-5.044-9.357 4.973c-18.01 9.572-20.492 8.282-19.568-10.168l.563-11.217-2.051 4.75c-3.303 7.652-4.685 6.336-5.91-5.629-2.498-24.407 2.593-34.578 24.915-49.78 11.163-7.602 12.644-10.135 6.186-10.584-2.571-.178-5.646.953-11.658 4.289m-263.559 15.6c-11.85 1.357-12.34 1.679-14.719 9.666-2.565 8.614-2.624 10.499-.306 9.781 16.672-5.162 22.872-6.75 33.219-8.507 6.755-1.147 13.8-2.086 15.656-2.086 4.078 0 4.402-1.632.625-3.143-1.513-.604-5.711-2.395-9.33-3.978-7.121-3.116-10.832-3.372-25.145-1.733m-76.304 3.678c.913 6.85 8.529 22.166 8.529 17.152 0-1.512-5.523-15.262-7.528-18.74l-1.577-2.736.576 4.324m19.168 26.477c-.774 3.085-4.718 5.905-21.139 15.117-13.905 7.8-16.116 9.299-15.144 10.271 2.473 2.473 22.573-5.613 31.507-12.675 5.583-4.413 7.13-4.903 7.15-2.264.055 7.437 16.992 47.548 26.821 63.518 5.074 8.242 5.121 9.464.594 15.394-4.309 5.645-8.592 13.935-13.068 25.296-1.833 4.652-4.945 11.071-6.917 14.265-4.99 8.085-4.552 9.159 3.988 9.777 3.802.275 7.072.985 7.266 1.577.195.592-4.495 5.473-10.421 10.845-66.702 60.461-68.626 72.695-23.452 149.078 5.529 9.35 10.685 17.9 11.457 19 6.113 8.713 20.719 30.602 20.719 31.052 0 2.512-19.031 6.824-20.394 4.62-1.11-1.796 2.936-3.172 9.328-3.172 3.336 0 6.066-.43 6.066-.955 0-.858-1.766-1.299-10-2.499-6.533-.952-11.96 4.26-10.073 9.674.59 1.693 1.073 3.405 1.073 3.805 0 .399-6.862 4.61-15.25 9.356-40.498 22.917-38.228 27.464 13.75 27.546 40.408.064 61.137-1.646 83.5-6.886 6.875-1.611 13.618-3.067 14.985-3.235 6.693-.824 10.115-20.72 5.63-32.735-1.891-5.067-1.243-6.03 4.076-6.056 1.755-.008 3.424-.393 3.71-.855.285-.461-17.702-1.118-39.971-1.459-29.986-.459-41.195-.956-43.21-1.915-2-.953-4.507-4.716-9.471-14.217-3.713-7.107-10.65-19.93-15.416-28.495-31.734-57.039-36.918-71.981-30.604-88.215 5.307-13.642 10.375-19.83 39.947-48.761l27.568-26.972 10.628.477c20.583.924 37.782 2.574 52.445 5.033 19.945 3.344 19.31 3.492 24.217-5.672 2.219-4.144 6.397-11.067 9.283-15.383 2.887-4.316 5.051-8.046 4.809-8.288-1.815-1.815-15.891 9.519-20.212 16.274-3.834 5.993-4.695 6.27-14.028 4.513-8.443-1.589-35.094-4.005-55.886-5.066-24.649-1.257-24.889-1.311-24.078-5.406.339-1.709 4.207-10.994 8.597-20.633 4.389-9.639 7.981-17.893 7.981-18.342 0-1.021-33.573-80.887-35.958-85.54l-1.746-3.407-.657 2.615m111.243 1.581c-4.671 4.671-4.957 7.713-1.077 11.431 3.239 3.104 4.894 3.297 7.726.904C821.11 744.5 822.56 738.56 819 735c-2.972-2.972-5.787-2.449-10.118 1.882m385.618 41.167c-9.886 3.845-24.5 16.955-24.5 21.979 0 .95-.7 2.308-1.555 3.017-2.98 2.474-3.642 4.836-2.009 7.167 1.014 1.447 1.334 3.373.956 5.741-1.536 9.604 21.208 23.376 31.135 18.853 1.984-.904 3.069-.915 4.462-.045 1.434.895 2.097.84 3.002-.25.639-.77 2.814-1.537 4.835-1.705 3.485-.29 3.892-.718 7.913-8.306 5.545-10.464 5.344-12.186-1.859-15.891-6.048-3.111-11.88-2.385-11.88 1.48 0 5.831-13.647 7.656-18.003 2.408-3.966-4.779 9.675-17.497 18.766-17.497 5.014 0 19.645 6.995 21.289 10.179.659 1.276 2.062 3.271 3.118 4.433 1.18 1.298 2.312 4.767 2.938 9 .56 3.788 1.486 8.383 2.056 10.209.851 2.723.677 4.075-.964 7.5-1.101 2.299-2.705 5.846-3.563 7.884-2.188 5.191-6.176 6.917-19.58 8.474-6.955.808-13.06 2.112-15.566 3.325-2.267 1.098-5.474 1.996-7.125 1.996-10.513 0-27.79 10.654-34.866 21.5-5.489 8.415-6.746 12.272-6.322 19.397.613 10.275 3.427 9.439 14.807-4.397 9.348-11.365 27.325-19.331 55.456-24.574 14.03-2.614 23.293-6.844 25.576-11.678.842-1.784 2.533-3.945 3.757-4.802 1.224-.858 2.226-2.59 2.226-3.85 0-1.259.947-3.371 2.105-4.693 2.916-3.328 1.819-18.552-2.767-38.403-2.145-9.29-3.672-12.072-7.323-13.345-2.27-.791-3.207-1.867-3.678-4.221-.706-3.528-4.904-5.934-10.353-5.934-2 0-3.891-.876-5.396-2.5-1.982-2.138-3.197-2.5-8.394-2.5-3.342 0-6.354-.45-6.694-1-.968-1.567-6.523-1.081-12 1.049m-373.737 19.516c-5.314 2.883-5.024 9.075.552 11.798 4.841 2.365 8.685-.307 8.685-6.037 0-5.966-4.122-8.536-9.237-5.761M973.02 823.75c.011.962 1.361 5.553 3 10.202s2.98 8.533 2.98 8.631c0 .099-2.025.689-4.5 1.313-2.475.623-10.012 3.537-16.75 6.475-21.218 9.252-31.218 12.267-69.992 21.103-6.457 1.471-13.794 3.767-16.302 5.101-5.909 3.141-5.481 3.243-11.109-2.657-2.666-2.794-7.997-7.451-11.847-10.347-14.604-10.987-16.254-10.056-5.354 3.02 4.595 5.513 10.483 12.799 13.084 16.192 5.948 7.756 8.376 8.535 14.083 4.519 5.948-4.185 7.601-4.703 32.896-10.308 24.128-5.347 35.824-9.006 54.005-16.895 6.207-2.693 12.948-5.349 14.979-5.902l3.693-1.004 20.893 21.153c50.666 51.297 59.169 61.39 65.768 78.063 10.517 26.576 5.702 47.197-18.557 79.474-5.532 7.361-11.845 16.39-14.028 20.064-2.182 3.674-5.994 9.053-8.47 11.954-4.359 5.107-4.908 7.099-1.955 7.099 1.887 0 10.917-9.112 16.937-17.091 2.66-3.525 6.525-8.209 8.588-10.409 8.575-9.141 22.922-31.495 26.706-41.61 6.886-18.404 3.49-46.641-7.869-65.42-10.321-17.064-48.201-55.658-78.79-80.276-5.078-4.087-5.143-5.524-.359-7.862 4.907-2.397 5.094-4.258 1.201-11.928-5.342-10.525-12.992-18.01-12.931-12.654m-445.078 31.198c-6.663 2.022-17.214 10.525-18.837 15.181-.579 1.661-2.258 4.449-3.731 6.196-7.855 9.312-12.531 25.239-8.842 30.116.892 1.179 1.468 4.177 1.468 7.637 0 4.767.53 6.485 3.25 10.534 6.229 9.274 21.326 16.892 25.675 12.956 1.625-1.471 1.893-1.483 2.42-.111.464 1.209 2.286 1.543 8.406 1.543 9.577 0 16.923 1.809 22.202 5.468 2.353 1.63 5.883 2.985 8.568 3.287 3.762.424 4.829 1.021 6.052 3.385.816 1.579 3.159 3.94 5.205 5.246 2.047 1.306 5.471 3.779 7.61 5.495 4.573 3.67 6.137 3.875 7.673 1.005 6.568-12.273-26.579-43.216-46.159-43.09-3.521.023-7.527.142-8.902.265-4.582.411-19.009-1.824-20.674-3.202-7.881-6.521-6.993-26.695 1.443-32.807 2.327-1.685 4.231-3.472 4.231-3.969 0-.498 1.942-1.845 4.316-2.994 8.587-4.157 23.186-2.137 29.554 4.089 8.324 8.137 2.898 14.774-6.455 7.896-7.359-5.412-13.093-4.915-16.102 1.396-1.624 3.405-1.607 3.588.533 5.866 1.215 1.293 2.409 3.392 2.654 4.664.636 3.303 4.068 6.606 9.866 9.495 9.444 4.706 14.72 2.889 27.884-9.607 6.432-6.106 6.75-6.625 6.75-11.022 0-9.762-4.614-17.756-12.363-21.42-2.825-1.336-7.113-4.029-9.528-5.986-3.6-2.916-4.922-3.44-7.332-2.911-2.194.482-3.491.13-5.109-1.385-4.18-3.916-14.423-5.432-21.726-3.216M818 916.032c-31.495 2.56-46.951 13.922-51.951 38.19-2.281 11.071.005 10.242 6.765-2.452C785.957 927.087 794.43 924 849.025 924c30.818 0 36.975.526 36.975 3.161 0 .461.744.839 1.654.839.909 0 8.027 3.128 15.817 6.952 27.684 13.588 44.918 27.204 51.955 41.048 9.976 19.624.485 52.983-24.557 86.312-3.228 4.296-5.869 8.414-5.869 9.152 0 2.001 5.491 3.536 12.649 3.536 3.493 0 6.351.112 6.351.25s-.675 3.777-1.5 8.088c-1.463 7.645-2.037 28.06-.907 32.268 1.025 3.818 4.883 4.05 54.407 3.269 58.147-.917 79.173-2.894 80.739-7.592 1.131-3.394-17.263-17.803-33.704-26.402-3.556-1.859-8.49-5.347-10.964-7.75l-4.499-4.368-7.367.667c-6.771.614-7.408.51-7.878-1.289-.282-1.076-1.483-2.226-2.669-2.557-5.063-1.41-28.795-2.56-49.952-2.421-13.446.088-23.188-.245-23.754-.811-1.513-1.513 2.192-7.979 9.658-16.852 28.968-34.43 30.371-69.128 3.848-95.148-11.724-11.502-21.378-16.869-44.958-24.993-31.5-10.852-61.008-15.399-86.5-13.327m432.75 13.218c-1.368 2.059-2.267 2.25-10.603 2.25-8.312 0-9.246.197-10.684 2.25-.867 1.237-2.159 2.25-2.871 2.25-.713 0-2.708 1.35-4.435 3-2.473 2.364-4.042 3.003-7.398 3.015-5.335.019-5.639.238-10.089 7.245-2.648 4.169-4.865 6.346-8.027 7.883-2.402 1.167-5.053 3.3-5.889 4.74-3.622 6.234-5.041 23.831-2.222 27.558.807 1.068 1.468 2.765 1.468 3.772 0 1.008 1.704 3.734 3.786 6.059 2.082 2.326 5.002 5.879 6.488 7.896 1.665 2.259 3.874 3.925 5.753 4.338 1.678.368 4.945 2.113 7.262 3.876 5.905 4.495 5.979 4.531 11.641 5.605 2.797.53 6.343 1.894 7.881 3.031 3.612 2.671 14.59 5.268 19.576 4.632 2.138-.273 5.032-.061 6.432.471 1.945.74 3.668.485 7.299-1.076 2.614-1.125 6.046-2.045 7.626-2.045 3.692 0 5.38-1.371 9.17-7.446 3.733-5.983 3.785-7.134.586-13.15-1.375-2.586-2.5-6.122-2.5-7.857 0-7.091-7.526-14.784-12.819-13.105-1.079.343-3.923-.052-6.318-.877-5.419-1.867-6.183-1.191-7.722 6.826-1.944 10.127-3.882 10.63-18.852 4.9-11.956-4.576-18.289-9.912-18.289-15.408 0-5.018 3.882-12.026 7.967-14.383 1.907-1.1 5.605-4.173 8.217-6.829 2.613-2.656 5.196-4.554 5.741-4.217.544.336 3.92.071 7.501-.588 5.209-.96 7.608-.937 11.986.113 4.446 1.067 6.32 1.076 9.987.049 5.118-1.433 3.897-1.963 19.491 8.472 5.676 3.798 8.992 6.675 9.038 7.84.04 1.012 1.422 3.025 3.072 4.473 1.65 1.448 3 3.196 3 3.884 0 .688 1.35 1.95 3 2.803 2.217 1.146 3.001 2.262 3.004 4.276.003 1.498 1.118 5.874 2.479 9.724 3.725 10.537 3.409 16.376-1.398 25.833-2.153 4.236-4.21 9.448-4.571 11.584-.665 3.938-1.8 5.475-6.792 9.199-2.429 1.813-2.694 2.518-2.111 5.621.644 3.438.583 3.529-1.953 2.892-2.106-.528-3.143-.067-5.303 2.357-1.477 1.658-3.411 3.014-4.297 3.014-.887 0-4.035 1.82-6.996 4.045-3.556 2.673-5.923 3.807-6.973 3.341-.874-.387-5.276-1.489-9.781-2.448-10.56-2.249-14.859-3.692-16.35-5.489-.662-.797-2.055-1.449-3.096-1.449s-4.248-1.554-7.127-3.453c-2.879-1.9-7.485-3.988-10.235-4.64-2.75-.652-6.35-1.766-8-2.475-5.839-2.508-24.725-3.783-29.08-1.963-2.114.883-6.561 1.889-9.882 2.235-4.967.517-6.532 1.157-8.824 3.607-2.481 2.651-3.063 2.851-5.317 1.824-2.027-.923-2.962-.852-4.687.356-1.185.83-3.164 1.509-4.398 1.509-1.233 0-3.721 1.275-5.527 2.833-1.807 1.559-5.089 3.831-7.295 5.05-2.205 1.218-4.756 3.515-5.668 5.104-.911 1.589-3.382 3.769-5.49 4.844-11.323 5.78-23.789 34.761-15.813 36.763 3.458.868 7.153-.855 16.763-7.817 4.52-3.274 9.43-6.587 10.912-7.362 1.481-.774 3.281-2.604 4-4.065.887-1.805 2.657-3.052 5.52-3.887 2.318-.677 6.223-2.408 8.678-3.847 2.455-1.439 5.123-2.616 5.929-2.616s1.691-.59 1.968-1.311c.736-1.919 7.048-3.535 20.156-5.161 6.382-.792 12.033-1.705 12.558-2.03.525-.324 2.241.362 3.815 1.525 3.042 2.249 8.781 3.914 13.628 3.953 1.621.013 4.652 1.206 6.737 2.651 2.084 1.444 5.853 3.012 8.376 3.483 2.522.471 7.332 2.552 10.688 4.623l6.103 3.767h12.744c11.919 0 12.903-.149 15.191-2.298 2.375-2.231 2.547-2.25 5.935-.634 4.792 2.285 8.538.415 19.138-9.559 4.478-4.213 8.929-7.949 9.892-8.303.963-.354 1.75-1.534 1.75-2.624 0-1.089 1.575-3.182 3.5-4.65 3.078-2.348 3.5-3.207 3.5-7.131 0-4.277.166-4.527 4-6.033 3.781-1.485 4-1.801 4-5.765 0-2.965.604-4.739 2.062-6.059 1.184-1.072 1.859-2.638 1.586-3.681-.261-1.001.537-3.038 1.779-4.539 4.112-4.971 5.705-12.439 3.429-16.083-.928-1.485-.706-2.425 1.171-4.964 1.988-2.689 2.15-3.494 1.144-5.701-.644-1.414-1.171-4.781-1.171-7.484 0-3.717-.516-5.395-2.117-6.886-1.164-1.085-2.481-3.915-2.928-6.289-1.333-7.093-7.799-17.619-12.955-21.089-6.429-4.326-9-6.831-9-8.767 0-6.552-22.867-18.961-34.941-18.961-1.604 0-3.591-.675-4.416-1.5-1.893-1.893-3.003-1.882-6.769.065-2.746 1.42-3.248 1.42-5.415 0-3.613-2.367-8.907-2.028-10.709.685M769.433 972c2.103 30.29 17.205 74.839 34.522 101.835 9.802 15.28 9.974 14.117 1.194-8.044-15.029-37.934-15.863-40.325-25.701-73.707-2.013-6.829-5.191-15.604-7.063-19.5l-3.403-7.084.451 6.5m-294.427 3.988c-1.504 2.811-5.498 3.575-8.478 1.622-4.095-2.683-7.265-2.264-20.48 2.706-5.378 2.023-6.626 2.94-7.5 5.511-1.32 3.884-1.988 4.453-7.705 6.555-7.553 2.777-19.036 16.558-20.452 24.545-.349 1.965-1.529 5.056-2.622 6.868-1.598 2.649-1.865 4.318-1.361 8.5.511 4.245.255 5.758-1.384 8.205-2.912 4.345-2.749 16.084.402 29 1.342 5.5 2.702 11.229 3.022 12.732.344 1.616 1.72 3.321 3.372 4.175 1.535.794 3.319 2.602 3.964 4.018.701 1.539 1.992 2.575 3.209 2.575 2.17 0 5.997 5.23 6.003 8.203.003 1.04 1.66 2.437 4.254 3.588 2.337 1.036 4.868 2.632 5.622 3.546 1.603 1.941 4.388 2.142 7.009.505 2.765-1.726 4.786-.433 5.531 3.54.586 3.124 1.102 3.621 4.376 4.217 2.042.371 5.866 1.513 8.499 2.538 2.633 1.025 6.36 1.863 8.282 1.863 1.922 0 5.168.702 7.213 1.559 2.248.943 4.985 1.324 6.923.963 1.855-.345 4.04-.074 5.188.643 3.102 1.937 11.606-1.208 17.982-6.651 2.909-2.483 5.364-4.52 5.457-4.526 6.227-.457 32.569-2.944 33.227-3.137.518-.152 1.963.291 3.212.983s2.739.969 3.311.615c.572-.353 3.15.262 5.729 1.368 10.683 4.581 30.47 6.759 33.537 3.692 4.472-4.472 4.563-12.499.154-13.671-1.648-.439-4.69-2.63-6.758-4.87-6.398-6.93-15.159-9.661-20.744-6.468-3.793 2.168-5.449 1.797-6.694-1.5-.623-1.65-1.824-3-2.669-3-.846 0-1.967-.767-2.491-1.704-.821-1.467-1.335-1.531-3.69-.458-2.395 1.091-3.008.992-4.911-.796-1.872-1.758-3.485-2.042-11.616-2.042-11.162 0-14.548.827-19.635 4.794-4.245 3.31-9.155 5.206-13.484 5.206-1.59 0-4.154.934-5.697 2.075-4.33 3.201-10.215 3.595-15.166 1.015-2.373-1.237-4.967-1.901-6.065-1.553-1.253.398-2.981-.284-4.977-1.964-3.321-2.794-4.161-2.919-10.891-1.621-5.87 1.133-7.813.018-8.204-4.705-.247-2.99-.757-3.811-2.526-4.062-7.309-1.039-15.123-20.434-13.284-32.969 1.278-8.703 5.729-24.259 7.503-26.219.868-.959 2.797-4.13 4.287-7.047 2.347-4.593 3.33-5.515 7.335-6.877 2.544-.865 5.29-2.135 6.102-2.823.813-.687 4.357-1.546 7.875-1.907 3.519-.361 7.418-1.318 8.664-2.125 2.955-1.916 9.107-.963 14.611 2.262 2.267 1.329 6.148 2.705 8.623 3.058 6.174.88 11 2.433 11 3.54 0 .507 1.341.922 2.981.922 2.406 0 3.124.531 3.722 2.75 1.212 4.5.937 12.537-.444 12.997-.683.228-1.99 1.99-2.904 3.917-3.935 8.294-18.26 15.9-27.982 14.859-8.942-.957-8.603-5.022.743-8.927 1.949-.814 4.12-2.176 4.825-3.025 3.892-4.689-6.905-16.599-13.823-15.248-7.424 1.45-15.657 5.34-16.94 8.005-.727 1.51-2.19 3.287-3.25 3.949-2.49 1.555-2.434 2.438.563 8.874 1.988 4.269 2.369 6.285 1.886 9.988-1.07 8.204 3.316 15.861 9.086 15.861 1.207 0 4.281 1.382 6.832 3.072l4.638 3.072 15.18-1.12c17.512-1.291 20.811-2.359 24.28-7.855 1.665-2.638 3.705-4.376 6.037-5.146 9.962-3.288 22.233-27.216 18.245-35.578-.948-1.988-2-6.389-2.339-9.78-.338-3.391-1.213-7.352-1.943-8.803-1.484-2.948-13.058-14.862-14.438-14.862-.487 0-2.477-1.398-4.423-3.106-4.532-3.979-8.236-4.889-23.433-5.755-11.282-.644-12.533-.907-13.872-2.923-1.825-2.748-3.825-2.836-5.221-.228m473.601 101.594c-.334.87-.607 8.223-.607 16.339v14.758l2.547 1.16c2.821 1.286 28.175 1.585 43.299.511 9.031-.641 9.154-.684 9.154-3.256 0-4.303 1.782-9.201 5.594-15.378 4.425-7.168 4.019-7.83-1.987-3.246-12.225 9.332-22.607 10.443-22.607 2.419 0-3.294 3.865-6.783 12.149-10.964 3.218-1.625 5.851-3.172 5.851-3.439 0-1.51-52.809-.426-53.393 1.096m53.292 3.359c-2.42 2.187-3.949 3.989-3.399 4.003 1.474.039 9.102-6.654 8.399-7.369-.331-.336-2.581 1.179-5 3.366m-271.611 14.956c.744 8.873.227 10.601-3.895 13.034-4.059 2.394-4.164 3.613-.876 10.102 2.503 4.94 2.543 4.967 7.427 4.967 7.093 0 18.281-1.587 36.914-5.235 19.155-3.751 17.779-2.374 18.776-18.787l.667-10.978H729.71l.578 6.897m291.2-5.512c-1.68 1.229-1.762 1.816-.724 5.199 1.517 4.94.657 5.667-2.312 1.952l-2.368-2.964-2.639 2.464c-3.189 2.977-6.769 9.676-6.102 11.416.831 2.165 7.288 2.505 29.066 1.529 23.702-1.062 32.128-1.876 30.916-2.987-2.102-1.928-34.837-17.994-36.662-17.994-1.605 0-1.796.267-.863 1.2 2.279 2.279 1.192 2.939-1.435.873-3.098-2.438-4.317-2.559-6.877-.688M722.232 1097c0 1.925.206 2.713.457 1.75.252-.963.252-2.537 0-3.5-.251-.963-.457-.175-.457 1.75M712 1100.878c0 2.43 2.612 4.78 3.24 2.914.698-2.075-.355-4.792-1.857-4.792-.76 0-1.383.845-1.383 1.878m-17 4.797c-4.125 2.54-12.225 7.203-18 10.362-11.101 6.072-12.589 7.954-7.165 9.063 4.181.855 49.165-.147 49.165-1.095 0-1.43-3.098-6.841-4.657-8.135-.888-.737-2.684-3.035-3.992-5.105-1.405-2.227-3.163-3.765-4.302-3.765-1.462 0-1.88-.635-1.737-2.641.281-3.944-1.082-3.751-9.312 1.316M890.2 1348.2c-2.736 2.736-.359 7.8 3.663 7.8 1.451 0 4.137-2.922 4.137-4.5 0-3.498-5.342-5.758-7.8-3.3" fill-rule="evenodd"/>
</svg>