<!DOCTYPE svg PUBLIC "-//W3C//DTD SVG 1.1//EN" "http://www.w3.org/Graphics/SVG/1.1/DTD/svg11.dtd">
<svg xmlns="http://www.w3.org/2000/svg" viewBox="0 0 431 431">
<path fill="#d4d4fc" d="M7.213 175.75c2.345 4.262 9.682 17.65 16.304 29.75l12.04 22 12.008.279 12.007.279 16.214-29.415C84.704 182.465 92 168.952 92 168.614c0-.338-4.462-.614-9.916-.614h-9.915l-11.835 22.477c-6.509 12.363-12.084 22.488-12.39 22.5-.306.013-5.931-10.095-12.5-22.462L23.5 168.03l-10.276-.015L2.948 168l4.265 7.75m95.91-6.784c-10.018 2.472-11.09 5.344-11.108 29.749L92 218.93l3.05 3.474c4.989 5.682 7.463 6.096 36.45 6.096 39.08 0 38.5.464 38.5-30.815 0-29.994 1.12-29.105-37-29.369-14.575-.101-28.02.192-29.877.65m74.615-.37c-.406.405-.738 13.937-.738 30.071V228l32.25-.006c34.846-.006 37.809-.359 42.307-5.051l2.943-3.07.279-20.186c.445-32.245 2.1-31.055-43.791-31.508-17.882-.177-32.845.011-33.25.417m84.929.071c-.367.366-.667 13.866-.667 30V228h19v-60h-8.833c-4.859 0-9.134.3-9.5.667M298 182.101c-8.525 7.706-15.63 14.377-15.79 14.825-.159.447 7.195 7.622 16.343 15.943L315.186 228h43.815l2.749-4.986 2.75-4.985 18.733-.015 18.733-.014 2.534 5 2.534 5h9.983c5.491 0 9.97-.338 9.954-.75-.016-.412-7.154-13.8-15.863-29.75l-15.832-29-11.888-.262-11.888-.262-15.844 29.013c-10.4 19.042-16.242 28.772-17 28.312-3.69-2.235-34.683-27.695-34.444-28.295.158-.397 7.601-6.883 16.538-14.411 8.938-7.529 16.25-13.893 16.25-14.142 0-.249-5.288-.433-11.75-.408l-11.75.045-15.5 14.011m-188.429 1.47c-2.009 2.01-2.33 27.27-.371 29.229 1.697 1.697 41.903 1.697 43.6 0 1.669-1.669 1.669-27.931 0-29.6-2.001-2.001-41.193-1.665-43.229.371m85.096-.904c-.367.366-.667 7.575-.667 16.019v15.352l22.25-.269 22.25-.269.277-14.765.277-14.764-2.592-.986c-2.869-1.09-40.735-1.379-41.795-.318m182.583 11.26c-2.887 5.442-5.25 10.16-5.25 10.484 0 .324 5.164.589 11.476.589h11.476l-5.434-10.236c-2.989-5.63-5.79-10.347-6.226-10.483-.436-.136-3.155 4.205-6.042 9.646M61.27 236.429c-9.751 4.402-9.896 20.093-.231 25.091 4.663 2.411 14.24 1.073 16.312-2.279.328-.53-1.236-.057-3.475 1.05-8.217 4.066-15.88-1.336-15.872-11.189.01-12.226 11.429-17.389 17.849-8.07l2.389 3.468-.71-4c-.866-4.878.046-4.238-7.038-4.938-4.207-.415-6.957-.157-9.224.867M276.5 249v13l2.5.002c2.427.002 2.49-.174 2.161-6l-.339-6.002h4.635c8.305 0 12.614-7.439 6.908-11.927-2.062-1.623-4.072-2.073-9.25-2.073H276.5v13m4.5-6v6h3c3.439 0 7-3.052 7-6s-3.561-6-7-6h-3v6m-193.643-.008c-5.39 2.175-7.231 11.356-3.284 16.373 2.508 3.189 4.681 3.55 2.484.412-4.097-5.848-.775-16.72 5.12-16.762 8.539-.06 8.118 17.969-.449 19.271-2.454.373-2.394.429.599.564 9.462.426 12.842-14.867 4.266-19.302-3.313-1.713-5.521-1.854-8.736-.556m160.951.018c-8.858 3.568-6.752 18.45 2.746 19.395 1.895.189 2.546.135 1.446-.119-8.58-1.98-9.7-16.179-1.496-18.98 2.015-.687 2.649-1.19 1.496-1.186-1.1.004-2.986.404-4.192.89m9.377-.154c-1.716.677-1.703.818.25 2.585 2.037 1.844 2.065 1.834 2.065-.786 0-1.46-.113-2.623-.25-2.585-.137.039-1.067.393-2.065.786m64.614.647c-6.148 4.306-4.117 18.597 2.625 18.467 1.37-.027 1.357-.158-.099-1.008-6.29-3.67-3.764-17.962 3.175-17.962 6.842 0 9.377 14.343 3.175 17.962-1.456.85-1.469.981-.099 1.008.866.016 2.52-.982 3.676-2.22C341.068 252.983 336.89 242 328 242c-1.955 0-4.521.676-5.701 1.503m-216.48 8.995c.175 5.226.625 9.503 1 9.504.374.002.533-3.373.352-7.5-.181-4.126.044-7.486.5-7.466.456.02 3.529 3.438 6.829 7.596 6.75 8.505 6.159 8.935 6.724-4.884.152-3.714-.041-6.751-.428-6.75-.388.001-.838 3.039-1 6.752l-.296 6.75-5.429-6.75c-7.63-9.486-8.651-9.146-8.252 2.748m22.681.002c0 11.346 1.292 12.737 1.708 1.838l.292-7.662 6.75 8.307 6.75 8.307v-10.145c0-5.58-.338-10.145-.75-10.146-.412 0-.598 2.189-.413 4.865.698 10.063.254 10.231-6.13 2.317-7.674-9.512-8.207-9.361-8.207 2.319m23 0c0 7.777.272 9.5 1.5 9.501 1.228.001 1.463-1.488 1.299-8.206-.115-4.687.259-8.762.872-9.501.827-.997.529-1.294-1.299-1.294-2.33 0-2.372.17-2.372 9.5m11.072-8.75c.497.412 1.241 1.2 1.651 1.75.426.571.753.249.762-.75.008-.973-.725-1.75-1.652-1.75-.916 0-1.259.338-.761.75m9.351 2.173c-8.365 8.365 3.451 22.88 12.636 15.522 1.875-1.502 1.867-1.519-.243-.5-6.255 3.021-12.316-.734-12.316-7.63 0-4.196 2.367-9.005 4.736-9.623 1.633-.426 1.628-.469-.063-.576-1.005-.064-3.142 1.199-4.75 2.807m9.158-2.665c.23.145 1.431 1.116 2.669 2.158 2.211 1.861 2.25 1.86 2.25-.043 0-1.377-.772-2.001-2.669-2.158-1.469-.121-2.481-.102-2.25.043m8.934 1.492c.009.999.336 1.321.762.75.41-.55 1.154-1.338 1.651-1.75.498-.412.155-.75-.761-.75-.927 0-1.66.777-1.652 1.75M197 252.5c0 7.778.272 9.5 1.5 9.5s1.5-1.722 1.5-9.5c0-7.778-.272-9.5-1.5-9.5s-1.5 1.722-1.5 9.5m7.572-8.75c.497.412 1.241 1.2 1.651 1.75.426.571.753.249.762-.75.008-.973-.725-1.75-1.652-1.75-.916 0-1.259.338-.761.75M212 252.5c0 7.575.29 9.5 1.431 9.5 1.119 0 1.501-2.073 1.75-9.502.286-8.505.135-9.502-1.431-9.5-1.544.002-1.75 1.122-1.75 9.502m10.819-.002c.175 5.226.625 9.503 1 9.504.374.002.555-3.486.401-7.75l-.279-7.752 3.279 3.529c1.804 1.941 4.926 5.541 6.938 8l3.659 4.471.341-9.752c.188-5.364.024-9.751-.364-9.75-.389.001-.839 3.168-1 7.038l-.294 7.035-5.479-7.035c-7.605-9.767-8.602-9.468-8.202 2.462m76.681.002c0 8.233.224 9.5 1.681 9.5 1.435 0 1.728-1.393 2-9.502.3-8.943.201-9.502-1.681-9.5-1.859.002-2 .669-2 9.502m11.072-8.75c.497.412 1.241 1.2 1.651 1.75.426.571.753.249.762-.75.008-.973-.725-1.75-1.652-1.75-.916 0-1.259.338-.761.75M343 252.5c0 7.575.29 9.5 1.431 9.5 1.119 0 1.501-2.073 1.75-9.502.286-8.505.135-9.502-1.431-9.5-1.544.002-1.75 1.122-1.75 9.502m7.75-8.28c3.334 1.608 3.054 6.249-.5 8.312-1.512.877-1.926 1.342-.918 1.032 1.007-.31 2.213-.564 2.678-.564 1.518 0 3.99-3.098 3.99-5 0-2.533-2.677-5.014-5.321-4.932l-2.179.067 2.25 1.085m8.75 8.28c0 8.833.141 9.5 2 9.502 1.882.002 1.981-.557 1.681-9.5-.272-8.109-.565-9.502-2-9.502-1.457 0-1.681 1.267-1.681 9.5m20 0c0 8.233.224 9.5 1.681 9.5 1.435 0 1.728-1.393 2-9.502.3-8.943.201-9.502-1.681-9.5-1.859.002-2 .669-2 9.502m11.072-8.75c.497.412 1.241 1.2 1.651 1.75.426.571.753.249.762-.75.008-.973-.725-1.75-1.652-1.75-.916 0-1.259.338-.761.75m-229.475 7.633c-.885 1.067-.799 1.517.377 1.969 1.049.402 1.526-.03 1.526-1.383 0-2.332-.362-2.443-1.903-.586m148 0c-.885 1.067-.799 1.517.377 1.969 1.049.402 1.526-.03 1.526-1.383 0-2.332-.362-2.443-1.903-.586m80 0c-.885 1.067-.799 1.517.377 1.969 1.049.402 1.526-.03 1.526-1.383 0-2.332-.362-2.443-1.903-.586M257.5 257c0 7.497 1.74 6.734 2.852-1.25.426-3.058.211-3.75-1.165-3.75-1.358 0-1.687.976-1.687 5m-93.943 3.582c-1.622 1.186-1.672 1.418-.307 1.418.898 0 1.929-.48 2.291-1.067 1.06-1.715.111-1.883-1.984-.351m148.002-.05c-1.897 1.435-1.891 1.468.25 1.468 1.281 0 2.191-.623 2.191-1.5 0-1.81-.007-1.809-2.441.032m60 0c-1.897 1.435-1.891 1.468.25 1.468 1.281 0 2.191-.623 2.191-1.5 0-1.81-.007-1.809-2.441.032m20 0c-1.897 1.435-1.891 1.468.25 1.468 1.281 0 2.191-.623 2.191-1.5 0-1.81-.007-1.809-2.441.032" fill-rule="evenodd"/>
</svg>