<svg width="18" height="18" viewBox="0 0 18 18" fill="none" xmlns="http://www.w3.org/2000/svg">
<path d="M16.9648 15.1789C17.4579 15.672 17.4579 16.4715 16.9648 16.9646C16.4717 17.4578 15.6721 17.4578 15.179 16.9646L0.893013 2.67863C0.399891 2.18551 0.399891 1.386 0.893013 0.892876C1.38613 0.399754 2.18564 0.399754 2.67876 0.892876L16.9648 15.1789Z" fill="#7E7E7E"/>
<path d="M15.1789 0.893041C15.672 0.399919 16.4715 0.399919 16.9646 0.893041C17.4578 1.38616 17.4578 2.18567 16.9646 2.67879L2.67863 16.9648C2.18551 17.4579 1.386 17.4579 0.892876 16.9648C0.399754 16.4717 0.399754 15.6722 0.892876 15.1791L15.1789 0.893041Z" fill="#7E7E7E"/>
</svg>
