<svg width="135" height="42" viewBox="0 0 135 42" fill="none" xmlns="http://www.w3.org/2000/svg">
<rect x="1" y="1" width="128" height="40" rx="5" fill="white"/>
<path d="M9.40101 10.3401C9.14897 10.6036 9 11.0124 9 11.5418V30.4577C9 30.9879 9.14897 31.3959 9.40101 31.6594L9.46511 31.7209L20.1955 21.1246V20.9998V20.8749L9.46511 10.2777L9.40101 10.3401Z" fill="url(#paint0_linear_1338_2752)"/>
<path d="M23.7725 24.6587L20.1963 21.1255V21.0006V20.8757L23.7734 17.3433L23.8539 17.3887L28.0918 19.7664C29.3027 20.4455 29.3027 21.5565 28.0918 22.2365L23.8539 24.6142L23.7725 24.6587Z" fill="url(#paint1_linear_1338_2752)"/>
<path d="M23.8543 24.6125L20.1967 20.9998L9.40137 31.6594C9.80065 32.0768 10.4589 32.1281 11.2012 31.7115L23.8543 24.6125Z" fill="url(#paint2_linear_1338_2752)"/>
<path d="M23.8544 17.387L11.2021 10.288C10.4599 9.87143 9.80162 9.9236 9.40234 10.3401L20.1968 20.9997L23.8544 17.387Z" fill="url(#paint3_linear_1338_2752)"/>
<path opacity="0.2" d="M23.7738 24.533L11.202 31.5866C10.4987 31.9809 9.86994 31.9553 9.46633 31.596L9.40137 31.6602L9.46546 31.7218C9.86907 32.081 10.4979 32.1075 11.2012 31.7124L23.8534 24.6134L23.7738 24.533Z" fill="black"/>
<path opacity="0.12" d="M9.40101 31.5345C9.14897 31.271 9 30.8622 9 30.3328V30.4576C9 30.9871 9.14897 31.3959 9.40101 31.6593L9.46597 31.5952L9.40101 31.5345Z" fill="black"/>
<path opacity="0.12" d="M28.0919 22.1099L23.7734 24.533L23.854 24.6125L28.0919 22.2348C28.6973 21.8953 28.9996 21.4479 28.9996 21.0006C28.9485 21.4052 28.6402 21.802 28.0919 22.1099Z" fill="black"/>
<path opacity="0.25" d="M11.2008 10.4128L28.091 19.8896C28.6401 20.1975 28.9476 20.5943 28.9987 20.9997C28.9987 20.5524 28.6964 20.1042 28.091 19.7647L11.2008 10.288C9.98997 9.60885 9 10.1725 9 11.5418V11.6676C9 10.2982 9.99084 9.73372 11.2008 10.4128Z" fill="white"/>
<path d="M65.0852 22.705C62.768 22.705 60.8794 24.493 60.8794 26.958C60.8794 29.407 62.768 31.211 65.0852 31.211C67.4023 31.211 69.2909 29.407 69.2909 26.958C69.2909 24.493 67.4023 22.705 65.0852 22.705ZM65.0852 29.536C63.8153 29.536 62.7198 28.473 62.7198 26.958C62.7198 25.427 63.8153 24.38 65.0852 24.38C66.3551 24.38 67.4496 25.427 67.4496 26.958C67.4496 28.472 66.3551 29.536 65.0852 29.536ZM55.9092 22.705C53.592 22.705 51.7034 24.493 51.7034 26.958C51.7034 29.407 53.592 31.211 55.9092 31.211C58.2263 31.211 60.1149 29.407 60.1149 26.958C60.1159 24.493 58.2263 22.705 55.9092 22.705ZM55.9092 29.536C54.6393 29.536 53.5447 28.473 53.5447 26.958C53.5447 25.427 54.6403 24.38 55.9092 24.38C57.1791 24.38 58.2736 25.427 58.2736 26.958C58.2746 28.472 57.1791 29.536 55.9092 29.536ZM44.9953 24.01V25.814H49.2493C49.1222 26.829 48.7892 27.57 48.2809 28.086C47.6622 28.714 46.6937 29.407 44.9953 29.407C42.3767 29.407 40.3295 27.264 40.3295 24.606C40.3295 21.948 42.3767 19.805 44.9953 19.805C46.408 19.805 47.4395 20.369 48.2011 21.094L49.4552 19.821C48.3922 18.79 46.9795 18 44.9953 18C41.4082 18 38.3926 20.964 38.3926 24.605C38.3926 28.246 41.4082 31.21 44.9953 31.21C46.9312 31.21 48.3922 30.566 49.535 29.357C50.7094 28.165 51.0749 26.489 51.0749 25.136C51.0749 24.717 51.0433 24.33 50.9793 24.008H44.9953V24.01ZM89.6321 25.411C89.2833 24.46 88.2193 22.704 86.045 22.704C83.8865 22.704 82.0934 24.428 82.0934 26.957C82.0934 29.341 83.8707 31.21 86.2519 31.21C88.172 31.21 89.2833 30.018 89.7434 29.325L88.3149 28.358C87.839 29.067 87.1878 29.534 86.2519 29.534C85.315 29.534 84.649 29.099 84.2204 28.245L89.8232 25.893L89.6321 25.411ZM83.918 26.829C83.8707 25.186 85.1721 24.348 86.108 24.348C86.8381 24.348 87.4568 24.718 87.6637 25.25L83.918 26.829ZM79.3625 30.953H81.2038V18.452H79.3625V30.953ZM76.3468 23.655H76.2838C75.871 23.156 75.0779 22.704 74.078 22.704C71.9825 22.704 70.0623 24.573 70.0623 26.973C70.0623 29.357 71.9825 31.21 74.078 31.21C75.0779 31.21 75.871 30.759 76.2838 30.243H76.3468V30.855C76.3468 32.482 75.4897 33.352 74.1085 33.352C72.9814 33.352 72.2829 32.53 71.9972 31.838L70.3943 32.515C70.8544 33.643 72.077 35.028 74.1085 35.028C76.267 35.028 78.0926 33.739 78.0926 30.598V22.962H76.3468V23.655ZM74.2366 29.536C72.9667 29.536 71.9036 28.457 71.9036 26.974C71.9036 25.476 72.9667 24.38 74.2366 24.38C75.4907 24.38 76.4739 25.475 76.4739 26.974C76.4739 28.456 75.4907 29.536 74.2366 29.536ZM98.2564 18.452H93.8516V30.953H95.689V26.217H98.2554C100.293 26.217 102.296 24.72 102.296 22.335C102.296 19.95 100.294 18.452 98.2564 18.452ZM98.3037 24.477H95.689V20.192H98.3037C99.678 20.192 100.458 21.347 100.458 22.335C100.458 23.303 99.678 24.477 98.3037 24.477ZM109.665 22.682C108.334 22.682 106.956 23.277 106.385 24.596L108.018 25.288C108.366 24.596 109.016 24.371 109.697 24.371C110.648 24.371 111.614 24.95 111.63 25.979V26.108C111.297 25.915 110.584 25.625 109.713 25.625C107.955 25.625 106.163 26.606 106.163 28.44C106.163 30.113 107.606 31.19 109.221 31.19C110.458 31.19 111.139 30.627 111.566 29.968H111.629V30.933H113.404V26.14C113.404 23.92 111.772 22.682 109.665 22.682ZM109.442 29.533C108.84 29.533 108 29.227 108 28.472C108 27.507 109.046 27.137 109.949 27.137C110.756 27.137 111.137 27.314 111.628 27.555C111.486 28.713 110.504 29.533 109.442 29.533ZM119.868 22.955L117.761 28.375H117.698L115.512 22.955H113.532L116.811 30.53L114.941 34.744H116.859L121.914 22.955H119.868ZM103.31 30.953H105.149V18.452H103.31V30.953Z" fill="black"/>
<path fill-rule="evenodd" clip-rule="evenodd" d="M70.5184 13.224C69.9371 13.831 69.215 14.133 68.351 14.133C67.487 14.133 66.7648 13.83 66.1845 13.224C65.6033 12.618 65.3136 11.876 65.3136 10.999C65.3136 10.122 65.6033 9.38001 66.1845 8.77401C66.7648 8.16701 67.487 7.86401 68.351 7.86401C69.21 7.86401 69.9312 8.16901 70.5144 8.77801C71.0977 9.38701 71.3893 10.127 71.3893 10.999C71.3893 11.877 71.0987 12.619 70.5184 13.224ZM66.7451 12.722C67.1825 13.172 67.7175 13.396 68.351 13.396C68.9844 13.396 69.5194 13.171 69.9568 12.722C70.3942 12.272 70.6139 11.698 70.6139 11C70.6139 10.302 70.3942 9.72701 69.9568 9.27801C69.5204 8.82801 68.9844 8.60401 68.351 8.60401C67.7175 8.60401 67.1825 8.82901 66.7451 9.27801C66.3087 9.72801 66.089 10.302 66.089 11C66.089 11.698 66.3087 12.272 66.7451 12.722Z" fill="black"/>
<path d="M44.7154 11.243C44.7154 12.081 44.4711 12.748 43.9814 13.246C43.4258 13.838 42.7007 14.134 41.8101 14.134C40.9569 14.134 40.2308 13.834 39.6348 13.234C39.0378 12.633 38.7393 11.889 38.7393 11.001C38.7393 10.112 39.0378 9.36801 39.6348 8.76801C40.2308 8.16701 40.9569 7.86701 41.8101 7.86701C42.2337 7.86701 42.6386 7.95101 43.0228 8.11801C43.408 8.28601 43.7164 8.50901 43.9469 8.78801L43.4278 9.31601C43.0366 8.84101 42.4977 8.60401 41.8091 8.60401C41.1865 8.60401 40.6485 8.82601 40.1944 9.27001C39.7412 9.71401 39.5146 10.29 39.5146 11C39.5146 11.71 39.7412 12.286 40.1954 12.731C40.6495 13.175 41.1874 13.397 41.8101 13.397C42.4702 13.397 43.0209 13.174 43.4612 12.727C43.747 12.436 43.9125 12.031 43.9568 11.512H41.8101V10.79H44.674C44.7026 10.947 44.7154 11.098 44.7154 11.243Z" fill="black"/>
<path d="M49.2571 8.73702H46.5656V10.639H48.9931V11.36H46.5656V13.262H49.2571V14H45.806V8.00002H49.2571V8.73702Z" fill="black"/>
<path d="M51.6994 14H52.4589V8.73702H54.1101V8.00002H50.0482V8.73702H51.6994V14Z" fill="black"/>
<path d="M57.0499 14V8.00002H57.8095V14H57.0499Z" fill="black"/>
<path d="M60.4173 14H61.1769V8.73702H62.828V8.00002H58.7661V8.73702H60.4173V14Z" fill="black"/>
<path d="M72.4552 8.00002V14H73.2129V10.262L73.1803 9.10602H73.2129L76.2186 14H77.0117V8.00002H76.2521V11.512L76.2847 12.668H76.2521L73.3793 8.00002H72.4552Z" fill="black"/>
<path fill-rule="evenodd" clip-rule="evenodd" d="M70.5184 13.224C69.9371 13.831 69.215 14.133 68.351 14.133C67.487 14.133 66.7648 13.83 66.1845 13.224C65.6033 12.618 65.3136 11.876 65.3136 10.999C65.3136 10.122 65.6033 9.38001 66.1845 8.77401C66.7648 8.16701 67.487 7.86401 68.351 7.86401C69.21 7.86401 69.9312 8.16901 70.5144 8.77801C71.0977 9.38701 71.3893 10.127 71.3893 10.999C71.3893 11.877 71.0987 12.619 70.5184 13.224ZM66.7451 12.722C67.1825 13.172 67.7175 13.396 68.351 13.396C68.9844 13.396 69.5194 13.171 69.9568 12.722C70.3942 12.272 70.6139 11.698 70.6139 11C70.6139 10.302 70.3942 9.72701 69.9568 9.27801C69.5204 8.82801 68.9844 8.60401 68.351 8.60401C67.7175 8.60401 67.1825 8.82901 66.7451 9.27801C66.3087 9.72801 66.089 10.302 66.089 11C66.089 11.698 66.3087 12.272 66.7451 12.722Z" stroke="black" stroke-width="0.2" stroke-miterlimit="10"/>
<path d="M44.7154 11.243C44.7154 12.081 44.4711 12.748 43.9814 13.246C43.4258 13.838 42.7007 14.134 41.8101 14.134C40.9569 14.134 40.2308 13.834 39.6348 13.234C39.0378 12.633 38.7393 11.889 38.7393 11.001C38.7393 10.112 39.0378 9.36801 39.6348 8.76801C40.2308 8.16701 40.9569 7.86701 41.8101 7.86701C42.2337 7.86701 42.6386 7.95101 43.0228 8.11801C43.408 8.28601 43.7164 8.50901 43.9469 8.78801L43.4278 9.31601C43.0366 8.84101 42.4977 8.60401 41.8091 8.60401C41.1865 8.60401 40.6485 8.82601 40.1944 9.27001C39.7412 9.71401 39.5146 10.29 39.5146 11C39.5146 11.71 39.7412 12.286 40.1954 12.731C40.6495 13.175 41.1874 13.397 41.8101 13.397C42.4702 13.397 43.0209 13.174 43.4612 12.727C43.747 12.436 43.9125 12.031 43.9568 11.512H41.8101V10.79H44.674C44.7026 10.947 44.7154 11.098 44.7154 11.243Z" stroke="black" stroke-width="0.2" stroke-miterlimit="10"/>
<path d="M49.2571 8.73702H46.5656V10.639H48.9931V11.36H46.5656V13.262H49.2571V14H45.806V8.00002H49.2571V8.73702Z" stroke="black" stroke-width="0.2" stroke-miterlimit="10"/>
<path d="M51.6994 14H52.4589V8.73702H54.1101V8.00002H50.0482V8.73702H51.6994V14Z" stroke="black" stroke-width="0.2" stroke-miterlimit="10"/>
<path d="M57.0499 14V8.00002H57.8095V14H57.0499Z" stroke="black" stroke-width="0.2" stroke-miterlimit="10"/>
<path d="M60.4173 14H61.1769V8.73702H62.828V8.00002H58.7661V8.73702H60.4173V14Z" stroke="black" stroke-width="0.2" stroke-miterlimit="10"/>
<path d="M72.4552 8.00002V14H73.2129V10.262L73.1803 9.10602H73.2129L76.2186 14H77.0117V8.00002H76.2521V11.512L76.2847 12.668H76.2521L73.3793 8.00002H72.4552Z" stroke="black" stroke-width="0.2" stroke-miterlimit="10"/>
<path d="M127.096 1H7.90426C4.09114 1 1 4.16087 1 8.06V33.94C1 37.8391 4.09114 41 7.90426 41H127.096C130.909 41 134 37.8391 134 33.94V8.06C134 4.16087 130.909 1 127.096 1Z" stroke="black" stroke-width="0.8" stroke-miterlimit="10"/>
<defs>
<linearGradient id="paint0_linear_1338_2752" x1="19.2441" y1="11.3424" x2="4.89126" y2="25.8768" gradientUnits="userSpaceOnUse">
<stop stop-color="#00A0FF"/>
<stop offset="0.0066" stop-color="#00A1FF"/>
<stop offset="0.2601" stop-color="#00BEFF"/>
<stop offset="0.5122" stop-color="#00D2FF"/>
<stop offset="0.7604" stop-color="#00DFFF"/>
<stop offset="1" stop-color="#00E3FF"/>
</linearGradient>
<linearGradient id="paint1_linear_1338_2752" x1="29.6676" y1="21.0002" x2="8.71016" y2="21.0002" gradientUnits="userSpaceOnUse">
<stop stop-color="#FFE000"/>
<stop offset="0.4087" stop-color="#FFBD00"/>
<stop offset="0.7754" stop-color="#FFA500"/>
<stop offset="1" stop-color="#FF9C00"/>
</linearGradient>
<linearGradient id="paint2_linear_1338_2752" x1="21.8665" y1="22.9628" x2="2.40283" y2="42.6727" gradientUnits="userSpaceOnUse">
<stop stop-color="#FF3A44"/>
<stop offset="1" stop-color="#C31162"/>
</linearGradient>
<linearGradient id="paint3_linear_1338_2752" x1="6.68377" y1="4.04367" x2="15.3752" y2="12.8449" gradientUnits="userSpaceOnUse">
<stop stop-color="#32A071"/>
<stop offset="0.0685" stop-color="#2DA771"/>
<stop offset="0.4762" stop-color="#15CF74"/>
<stop offset="0.8009" stop-color="#06E775"/>
<stop offset="1" stop-color="#00F076"/>
</linearGradient>
</defs>
</svg>
