<?xml version="1.0" encoding="UTF-8"?>
<!DOCTYPE svg PUBLIC "-//W3C//DTD SVG 1.1//EN" "http://www.w3.org/Graphics/SVG/1.1/DTD/svg11.dtd">
<!-- Creator: CorelDRAW X7 -->
<svg xmlns="http://www.w3.org/2000/svg" xml:space="preserve" width="57.5732mm" height="55.1178mm" version="1.1" style="shape-rendering:geometricPrecision; text-rendering:geometricPrecision; image-rendering:optimizeQuality; fill-rule:evenodd; clip-rule:evenodd"
viewBox="0 0 5757 5512"
 xmlns:xlink="http://www.w3.org/1999/xlink">
 <defs>
  <style type="text/css">
   <![CDATA[
    .fil4 {fill:#0D0D0D}
    .fil1 {fill:#323232}
    .fil8 {fill:#546572}
    .fil9 {fill:#7A7979}
    .fil3 {fill:#999999}
    .fil11 {fill:#A8B3BB}
    .fil5 {fill:#CB9CA2}
    .fil2 {fill:#CCCCCC}
    .fil10 {fill:#D1E3EF}
    .fil7 {fill:#FDDBE1}
    .fil6 {fill:#FEB9C3}
    .fil0 {fill:#FEFEFE}
   ]]>
  </style>
 </defs>
 <g id="Capa_x0020_1">
  <metadata id="CorelCorpID_0Corel-Layer"/>
  <path class="fil0" d="M2964 5178c1,2 3,2 4,5l31 128c20,-47 1,-71 15,-104 8,16 34,107 -19,127 -14,-13 -15,22 -21,-71 -3,-31 -9,-56 -10,-85zm635 -438c-11,18 28,7 -25,18l25 -18zm0 0c7,-12 -4,-1 10,-14l49 -35c27,-24 22,-33 59,-56l-2 -80c1,3 8,16 9,19 29,72 -20,88 -66,134 -16,14 -34,28 -59,32zm-279 -213c-10,31 -27,39 -43,59 5,-13 7,-18 15,-31 19,-33 13,-20 28,-28zm0 0c3,-11 -8,2 5,-17 11,-16 4,-10 20,-16 -6,16 5,2 -7,20 -17,24 -4,10 -18,13zm571 -243l-86 46c-26,103 -8,155 -104,192 24,-42 88,-43 83,-198l107 -47 45 -29c-21,26 -14,25 -45,36zm-550 17c-75,-84 -7,-236 77,-202 38,16 39,76 28,125 -14,60 -37,82 -105,77zm-812 -238c2,61 5,97 16,153 9,50 4,107 10,157 27,-25 19,-68 21,-109 2,4 4,1 9,20 1,7 2,15 3,22 5,50 3,90 -56,88 -10,-72 -18,-265 -3,-331zm1035 146c185,20 175,88 285,-148l16 -26c-5,48 -62,164 -85,185 -48,45 -168,20 -216,-11zm263 -250c15,10 10,-25 17,25l-17 -25zm-1125 4l-57 -1c30,-30 -13,-11 24,-13 14,-1 13,4 34,-2l12 -43c17,33 -1,45 -13,59zm22 -75c6,-38 5,-18 11,-19 2,0 -1,16 28,-13 -8,35 1,31 -39,32zm1149 -281c17,42 1,87 25,114l16 -101c9,40 12,90 -11,119 -62,-17 -36,-75 -30,-132zm-805 188l20 -46c9,-22 6,-13 11,-20 -1,82 -10,81 -49,87 -10,-59 0,-118 32,-158 -7,42 -32,94 -14,137zm759 164l-30 -27c-12,-14 -17,-21 -28,-39 -55,-86 -110,-142 -112,-288 5,6 6,5 10,19 5,18 4,43 19,82 12,31 26,68 42,93 18,29 31,47 50,77 15,26 43,58 49,83zm158 -343c29,14 14,11 43,-1 -32,62 -94,-6 -35,-31 -7,11 -12,16 -8,32zm-261 -64c19,-27 31,-26 80,-36 115,-25 204,-10 310,23 -46,27 -60,-24 -185,-17 -85,4 -128,17 -205,30zm-379 942c14,-62 108,-103 146,-276 43,-201 37,-359 -73,-516 -107,-154 -192,-192 -446,-184 -57,2 -234,28 -271,56 -80,60 -161,73 -224,291 -71,244 -93,483 -45,741 23,-11 12,-8 33,-23l-63 105c-20,31 -48,61 -66,95 -128,230 -75,513 116,707 18,18 7,7 16,22l1526 0c-20,-56 -69,-134 -102,-183 -18,-26 -23,-39 -41,-61 -78,-95 -73,-115 -204,-186 -72,-39 -323,-141 -415,-170 -50,-15 -66,-106 -40,-132 12,24 2,64 23,100l274 111c50,1 294,-147 374,-214 16,-13 15,-18 33,-32 3,-443 71,-353 131,-566 8,-29 21,-185 20,-221 -42,10 -72,32 -115,30l112 -44c51,-346 142,-376 150,-433l-7 -5c-79,-22 -152,-73 -237,-99 -97,-30 -288,-46 -432,-75 -35,-7 -35,3 -77,-8 -128,-33 -231,-72 -366,-35 82,45 141,93 157,207 -66,-56 -14,-128 -174,-195 -88,-37 -205,-73 -314,-57 -94,14 -233,101 -285,180 -15,23 -26,25 -42,51l-21 3c-77,37 -146,86 -199,150 -23,26 -40,40 -32,68 100,15 70,4 154,47 162,84 160,26 177,-2 45,-77 156,-175 262,-204 197,-55 264,-42 459,-12 79,-51 124,-55 232,-40 65,8 163,35 208,60 -96,-12 -335,-108 -412,-14 49,30 101,41 155,121 37,54 78,107 97,166 16,48 31,87 33,144 9,201 -41,369 -164,513 -3,4 -8,9 -12,13l-9 6z"/>
  <path class="fil1" d="M820 3927c0,33 -34,83 -55,90 4,-41 17,-83 34,-116l-30 34c-1,1 -9,14 -11,16 -9,15 -21,41 -28,62 -79,225 64,318 70,428 -12,-19 -30,-38 -43,-60 -73,-134 -101,-288 -22,-428 23,-39 71,-106 114,-112l-44 94c5,-31 -3,-1 15,-8zm-522 -238l-13 -30 -20 -63c-19,105 4,354 62,457 3,7 9,16 11,20 1,2 3,4 4,5 57,86 140,172 217,240l71 62c-39,-12 -46,-15 -79,-37 -133,-86 -70,-10 -142,-36 -43,-7 -112,31 -166,30 -59,-1 -104,-26 -160,-37 19,32 35,36 75,56l79 32c-197,-15 -151,-28 -237,-64l0 459c18,14 60,30 76,60 11,-9 21,-5 -17,-17 -19,-6 -38,-11 -58,-17l12 17c21,23 78,57 106,62l31 -4c34,28 83,44 130,58 80,25 81,17 161,1 45,-9 280,-80 291,-77 -45,33 -120,55 -182,71 -152,40 -127,14 -170,74 -10,14 -49,52 -65,62 -189,117 -101,52 -283,90 25,0 60,28 150,4 120,-33 65,-23 106,-38 45,-18 25,0 30,2 -21,20 -39,29 -65,51 -21,18 -37,24 -66,35 -92,35 -99,16 -187,13l0 206c21,21 8,7 31,21 15,9 15,12 29,21 14,8 43,23 62,34l636 0 43 -37c27,-25 34,-44 53,-66 55,-65 134,-219 131,-278 -1,-24 -25,-23 -47,-64 30,8 172,141 375,105 63,-11 126,-31 179,-66 15,-10 5,-4 19,-14l128 -91c-26,52 -56,100 -84,159 -57,121 -33,64 -72,109 -33,37 -129,91 -179,116 -56,28 -120,43 -173,69 125,-5 472,-18 555,-119l62 -64c35,-41 83,-124 119,-150 -17,73 -96,201 -128,241 -44,54 -148,118 -207,150l144 0c30,-26 111,-52 155,-83 85,-61 113,-96 164,-183 47,-82 72,-214 108,-239 4,115 -39,237 -85,325 5,-18 49,-74 84,-180 147,-452 -58,-477 -97,-582 56,14 134,128 152,183 18,55 26,192 5,253 -4,10 -3,-2 -11,24 18,24 7,25 17,52l0 -73c38,69 13,201 -9,276l35 -52c57,-106 55,-100 57,-187 4,-277 71,-188 54,-309 -4,-27 -19,-32 7,-32 -16,-52 -29,-57 -55,-96 -21,-31 -12,-14 -37,-38 -23,-22 -7,-17 -40,-32 -8,27 -4,14 -54,-19 -16,-10 -36,-14 -60,-28 -1,3 -2,5 -2,7l-16 36c-8,-30 -27,-69 3,-95 28,-23 57,-38 91,-38l8 -13c-15,-20 -4,-14 -32,-24 -49,12 -69,-5 -124,21 14,57 5,122 -21,168 -20,34 -47,88 -74,114 -83,75 -239,143 -361,77 -19,-10 -31,-35 -40,-56 -28,-64 9,-125 42,-177 8,-11 15,-17 23,-27 48,-64 57,-152 23,-213 3,49 -47,121 -67,151 -11,18 -14,36 -19,56 -36,140 -89,157 -100,207 -12,-17 -13,6 -8,-24 6,-42 130,-138 91,-330 -5,-22 -17,-49 8,-49l-18 -23c-22,24 -27,55 -40,87 -5,14 -12,28 -19,40l-27 29c-6,1 -13,-6 -24,4 14,32 -13,59 39,16 -19,15 -19,14 -35,31 -30,33 -86,64 -127,76 21,-34 8,-17 36,-33 35,-21 71,-36 76,-80 -31,15 -66,40 -99,60 -2,-4 -5,-10 -6,-12 -10,-17 -6,-10 -13,-18 1,21 1,13 -3,22 -29,-103 -59,-147 -37,-264 7,-34 50,-119 77,-152l33 -52c-18,3 -39,3 -47,20l-95 58c-9,5 -8,5 -14,10 -19,15 -11,12 -38,22 -22,49 -25,30 -54,57 -60,58 -9,46 -55,53 7,-33 30,-56 48,-87 -19,12 -10,3 -26,25 -11,15 -9,17 -20,31 -18,21 -29,34 -40,60 -13,28 -18,48 -25,77 -9,44 -7,57 -24,81 -17,-39 12,-129 32,-171 44,-89 55,-36 41,-160 -8,-74 -1,-172 37,-230l67 -92 -220 109c-20,16 -10,11 -21,29 -30,44 -6,17 -30,21 8,-88 124,-93 186,-142 -32,-58 -37,-24 -54,-19 -82,-62 -154,-153 -174,-261 -13,-66 -16,-320 38,-388l-7 30 15 -23c-17,-14 -19,-6 -5,-60 6,-24 7,-32 11,-56l-136 116c-81,63 -48,45 -82,79 -41,41 -75,70 -111,119 -15,22 -25,20 -41,42 -51,67 -102,180 -114,273 -6,38 -12,99 -33,122 -5,-8 -41,-70 -15,-70z"/>
  <path class="fil0" d="M4420 4727l13 -69c26,115 2,95 -30,100 -8,-43 8,-214 24,-255 8,82 -8,146 -7,224zm130 -397c26,51 57,180 48,244l-11 -27c-1,-8 -2,-21 -3,-30 -8,-48 -37,-161 -34,-187zm227 -657l29 -74c1,60 -6,72 -17,91 -53,-5 -29,-60 -19,-104 8,-32 25,-94 37,-122 4,79 -35,136 -30,209zm-20 -1200c9,-15 -21,-12 8,-15l16 -1c-3,4 1,3 -11,11 -21,16 20,-5 -13,5zm24 -16c4,-19 -18,-17 5,-17 21,-14 59,-38 95,-43l-26 20c-7,4 -13,8 -21,13 -22,15 -28,19 -53,27zm-402 -120l-11 22c-8,-11 -9,-10 0,-25 24,-90 91,-173 176,-212 3,-1 18,-7 18,-7 37,-21 5,-1 22,-18 -164,-6 -400,-56 -430,217 -17,150 -46,50 -153,180 -68,83 -32,184 71,197l108 -116 -63 -32c-1,-125 146,-116 187,-52 -2,0 -174,-86 -169,46 63,31 63,41 131,25 90,-21 38,-32 91,-79 -18,138 -106,53 -159,140 -18,29 -14,62 0,72 25,6 82,-3 113,-9 40,-8 53,-42 75,-70 -6,-42 -72,-178 93,-151 14,25 27,50 29,87 -27,-29 -18,-35 -43,-74 -35,-5 -49,-2 -76,14 -9,36 2,78 13,108 15,41 31,34 77,47 3,-52 12,-71 42,-99 31,-28 42,-52 102,-49 -21,15 -41,15 -61,31 -126,95 -34,178 9,159 26,-12 105,-182 186,-216l-6 9c-40,40 -18,7 -72,80 -25,35 -46,72 -70,106 11,62 26,73 16,152 -14,108 -33,169 -91,257l-216 310c-174,234 -188,217 -252,535 -4,20 5,144 -19,243 -54,224 -110,165 -127,399 -2,25 -3,50 -4,76 -1,10 -3,32 -2,42 2,21 3,16 17,34 -63,108 145,205 228,235 180,67 223,9 354,-63 -10,23 4,2 -11,23l168 -29c7,-374 -47,-444 98,-851 44,-124 102,-218 166,-317l163 -192c24,-24 47,-37 66,-59 -42,-35 -151,-67 -205,-98 -60,-35 -143,-91 -95,-187 36,-1 242,39 285,64 24,14 50,33 72,42 -60,-86 -87,-50 -257,-101 -32,-10 -109,-32 -125,-54 -3,-4 -53,-112 40,-122 -37,-62 -43,-126 57,-130l6 -54 269 -88c78,-207 15,-184 20,-373 3,-99 77,-288 40,-369 -42,102 -60,135 -120,198 152,-249 122,-231 16,-305 -35,-24 -62,-47 -107,-61 -103,-33 -212,25 -259,71 -63,63 -74,129 -158,183l143 -5c-62,33 -134,3 -259,73 -53,30 -127,123 -147,190z"/>
  <path class="fil2" d="M4030 3217c-19,28 2,11 -23,23 4,-22 -14,-5 23,-23zm-242 -19c2,-50 20,-63 70,-77 49,-13 95,0 105,46 -30,69 -115,76 -175,31zm394 -141c66,62 23,184 -5,254 -7,-11 -9,0 -6,-20l28 -100c20,-79 -13,-69 -17,-134zm-119 24c-6,-16 -6,-112 -7,-145 21,31 21,53 26,98l13 -35c0,20 2,33 -3,53 -10,40 3,21 -29,29zm102 -75c-7,33 -49,116 -73,146 -16,21 -17,27 -38,42 30,-56 43,-47 82,-142l16 -35c1,-1 3,-3 4,-4l9 -7zm0 0c7,-23 -11,5 7,-20 15,-22 5,-9 18,-13 -5,13 5,0 -7,16 -18,27 -5,8 -18,17zm25 -33c15,-40 16,-35 36,-47 -3,6 -11,22 -13,25 -17,25 -8,13 -23,22zm-869 -558c129,-89 372,-86 441,-186 29,-42 58,-47 104,-100 -23,34 -68,77 -99,114 -44,55 -60,57 -140,80 -57,17 -117,28 -172,48 -52,19 -110,46 -154,60l20 -16zm-9 -256c1,67 -9,196 -23,259 -15,-64 8,-190 6,-267 -2,-92 -18,-160 -28,-248l16 30c15,48 28,180 29,226zm-31 -417c19,4 20,2 33,15 20,20 9,7 17,32 -44,5 -72,1 -113,-10 -35,-10 -52,-18 -68,-45l-26 -13c-14,21 -74,138 -141,61 36,159 89,87 11,263 -75,168 -20,123 11,276 -22,-20 -19,-24 -32,-52 16,120 148,77 226,103 33,11 32,26 51,56 -47,-21 -16,-40 -84,-46 17,20 54,42 68,64 -134,-77 -53,-61 -161,-72 -79,-8 -77,-59 -178,-63 -36,153 -116,466 -43,611 34,68 105,147 167,189 135,90 176,15 282,38l-36 20c27,10 50,35 81,55 117,74 162,97 317,116 -40,-72 -86,-40 -213,-110 -34,-18 -64,-37 -96,-56 -108,-64 -159,-441 -105,-640 6,142 -39,340 47,520 27,59 32,84 86,117 243,145 316,148 610,67 -111,50 -195,70 -339,68 59,54 102,39 223,65 126,27 102,49 227,-6 -38,27 -30,30 -89,48 50,30 141,48 173,93l7 5c48,-23 292,-371 320,-438 -24,-17 -38,-31 -55,-56 -10,-15 -14,-21 -26,-33l-81 -88c-41,-45 -45,-9 -73,-26 31,-22 63,-10 81,9l55 63c25,29 77,101 115,114 58,-103 101,-226 69,-364 -50,16 -60,26 -100,-11 -40,-36 -34,-13 -105,-48 -24,22 -48,60 -77,66 -31,8 -104,15 -135,10 -32,-73 3,-81 25,-125 -42,6 -47,30 -84,74 -12,15 -15,25 -25,35 -58,58 -282,-91 -41,-270 25,-19 49,-20 70,-42 5,-8 11,-185 94,-251 76,-60 182,-53 291,-56 -63,-68 -173,-133 -310,-113 -208,29 -96,0 -320,-77 -109,-38 -224,-74 -343,-97 -71,-14 -101,-34 -155,-66 -19,-11 -52,-30 -74,-33 -56,-9 -46,-15 -89,-28 15,73 21,36 60,82z"/>
  <path class="fil0" d="M815 2736c10,-21 0,-5 17,-25 18,0 21,6 47,0 2,-1 10,-3 12,-4 24,10 16,5 35,36 -10,1 -19,2 -28,0 -28,-7 2,6 -15,-9l-33 6c-32,1 -33,-3 -35,-4zm-401 -1c12,-59 26,-8 68,-28l0 35c-21,-10 -2,-7 -31,-4 -14,2 -15,13 -37,-3zm91 9c-27,-29 1,-26 2,-26 16,-13 -23,-9 24,-12l48 5c15,1 8,-5 22,-6 17,0 11,5 26,7l83 -3 -1 32 -204 3zm310 -8l-18 6c-3,0 -9,-12 -28,-16 6,-5 2,-4 15,-12l10 -5c30,-13 19,-4 26,0 -4,16 -2,5 -5,27zm-54 6l-32 -1 1 -32 37 -6 -6 39zm-75 -156c62,4 14,14 76,3l68 -2c21,6 10,4 21,12 -1,9 1,22 -15,26l-103 -3c-17,-5 -10,12 -13,-20l-22 10 -12 -26zm-135 40l-23 -7c-1,0 -4,-2 -6,-3l0 -28 28 4 75 3c24,-2 8,-8 46,-7 -7,16 -8,16 -11,38l-16 -13c-4,-1 -24,20 -93,13zm230 -121c-33,-3 -16,9 -27,-8 8,-11 8,-12 16,-24l68 0 -8 21c1,34 3,11 -9,22 -13,0 -2,6 -24,-1 -20,-7 -5,-1 -16,-10zm66 -4c3,-51 2,-21 22,-33 -15,39 -19,26 -22,33zm-93 -4c-4,5 -14,12 -17,15 -29,-4 -31,-14 -59,-3l22 -27c1,0 4,0 5,-1l56 -7c-9,16 -2,0 -7,23zm-99 15c5,-52 -9,-36 35,-40 -10,15 -1,5 -17,22 -10,11 -10,9 -18,18zm-31 -14c-9,16 -1,12 -22,13 -62,6 -55,3 -63,-22 -17,50 -15,20 -26,0l17 -12c43,-17 27,7 63,-9 1,2 3,3 3,6 2,14 10,11 28,24zm34 -128l28 -7c59,-15 38,-22 48,8 4,-3 7,-11 21,-14l75 -3c5,6 6,-4 10,14 1,-1 3,-2 4,-3l15 -8c0,-3 3,-3 4,-3l9 25c-13,12 18,9 -21,11 -6,3 -6,4 -21,7 -2,0 -15,-1 -19,-2l4 -24c-2,2 -4,4 -5,5l-8 9c-1,1 -5,7 -6,9l-84 -2c-46,-10 24,-14 -18,-3 -1,0 -5,5 -6,3 0,-2 -4,3 -7,5l-9 -26c-10,10 11,13 -12,8l-25 17c-20,-22 -14,-6 -14,-34 42,-16 25,-6 37,8zm-71 1c-28,29 -71,30 -91,14l33 -28c1,1 4,2 5,2 1,0 4,1 5,1l48 11zm0 0l22 -17c-6,21 -15,32 -33,41l11 -24zm183 -96c-58,1 -35,-4 -47,-15l17 -21c16,6 24,23 30,36zm-211 -23c15,-12 26,-11 51,-16 1,1 3,4 3,4l39 -1c21,-2 46,-1 69,-2l-21 26c-1,-1 -4,-1 -4,-4 -1,-3 -4,-3 -4,-4l-6 21c-33,4 -92,7 -122,-7l-5 -17zm458 -102c6,-9 -8,0 15,-18 18,-13 2,-1 24,-12l-8 41 -31 -11zm0 0l-22 9c-27,2 -32,-13 -62,-1 7,-13 11,-19 17,-32 12,6 21,12 31,10l25 -11c1,-4 6,-3 9,-4l2 29zm-259 -28c2,1 14,5 16,5 2,1 5,2 7,2 18,4 15,-4 32,13 -10,14 -5,10 -15,13l-15 0c-21,2 -30,1 -51,2 9,-11 18,-16 26,-35zm92 6c3,0 11,1 14,1l9 1c26,2 14,1 43,-9l-6 30c-10,5 -6,5 -21,7 -32,4 -17,-10 -57,-2l18 -28zm-218 32c9,-16 19,-28 26,-36l13 6c17,7 22,7 51,-6l-17 30c-13,1 -45,1 -73,6zm-111 -38c34,13 80,12 100,4l-16 30c-43,-4 -91,5 -109,-1l25 -33zm-143 23c16,-13 24,-24 55,-23 33,2 18,16 52,2l-29 30c-2,0 -4,0 -5,1l-124 2c-11,-2 -7,-2 -10,-3l24 -33 37 24zm417 -512c8,-6 8,9 12,-8 1,-3 6,-2 9,-3 -11,19 -12,26 -29,39 10,-16 5,-8 8,-28zm0 0c-9,9 -5,8 -19,16 -23,15 -44,16 -74,12 3,-10 -1,-24 20,-31 0,0 3,1 4,1 1,0 4,3 5,3 39,-2 -34,12 15,-7 14,-5 19,-5 33,-8l16 14zm-202 18c12,-12 22,-36 44,-24 1,0 3,1 4,2 1,0 2,3 3,3l3 9c11,-17 3,-19 40,-17l-18 34c-19,3 -37,0 -49,-1 -68,-5 16,21 -27,-6zm-241 0c20,-44 24,-27 71,-28l4 13c7,25 -13,-11 5,12 26,-22 15,0 20,-20 1,-3 4,-3 5,-5 6,15 0,19 -2,21 27,6 6,6 19,-1l17 -18c48,2 34,-2 86,-6 -7,28 -2,44 -42,43l-183 -11zm178 -53l-30 5 -3 -39 31 4 0 21c52,-29 29,-29 38,-4 14,0 8,3 7,-16l62 15c12,13 5,8 5,9 -16,22 14,15 -26,13 -29,-2 3,1 -20,-7 -2,-1 -6,-2 -7,-3l-57 2zm-107 -23c20,-29 21,11 58,-8l2 33c-30,-13 -23,3 -67,0 -3,-47 -1,-16 7,-25zm316 -14c11,17 17,24 12,42 -20,-1 -39,-7 -42,-19 -1,-2 -3,-3 -8,-5l-5 23c-14,-18 -5,22 -13,-24l-13 19c0,-2 -3,3 -4,5l-2 -38c49,-3 48,10 75,-3zm-8 -74c-3,-25 -2,-22 7,-38 19,5 10,3 15,6 1,1 1,3 1,5 20,-5 33,-21 45,-3 6,34 -37,28 -68,30zm-113 -29l2 -4c18,-10 -24,-10 26,-9l14 30c48,-1 31,0 42,8 -45,-4 -62,5 -111,2 -1,0 -5,1 -5,-1 -1,-2 -4,-2 -6,-2 0,0 -8,-7 5,-34 67,-2 -16,9 33,10zm-224 -2c26,-13 63,-10 97,-9l10 16c8,7 0,2 15,9 16,-25 2,-10 26,-28l8 10c0,0 2,2 2,3 1,1 4,4 4,5 10,42 -108,23 -136,19 -29,-5 -20,21 -26,-25zm-80 32c6,-26 11,-12 -1,-40l61 -2 -9 39c-2,-2 -3,-5 -4,-6l-22 -22c-16,29 23,23 -25,31zm256 -147c40,3 15,2 55,-14 -13,22 -6,13 -23,28 23,-6 22,-12 34,-25 8,0 26,3 26,3 27,0 -7,-3 24,-2 22,0 36,6 42,26l48 1c-12,5 -69,11 -92,12l-88 3 -26 -32zm-35 14c5,-27 6,-22 34,-27 -25,46 -12,10 -3,42 -37,-1 -11,10 -31,-15zm-122 -10c-14,23 5,4 -21,24l-10 -32c63,2 58,-24 84,14l15 -15c20,-12 18,-5 34,-4 0,19 0,25 -7,36 -19,-4 -70,-2 -87,2l-8 -25zm429 -120c-16,37 -6,19 -18,23 0,0 -46,5 -65,-5l28 -25c3,1 6,2 7,2l48 5zm-228 2l29 -14 -9 40 -27 -10c-13,22 -9,8 -26,8l-18 -4c0,-2 -2,-2 -3,-2 18,-34 6,-21 22,-26 14,-4 30,7 32,8zm-191 18c11,-23 17,-24 32,-23l14 2c1,-1 4,-1 5,-1 0,0 16,-8 18,-9l13 17c0,-2 2,3 2,2l35 -20c-9,39 10,46 -97,35l-22 -3zm236 7c11,-20 18,-28 39,-40l9 23c24,-29 5,-3 41,-19l-19 32c-11,-1 -45,-2 -70,4zm-292 -19c8,-18 6,-15 20,-15 2,0 7,3 8,3l-74 31c8,-16 17,-26 24,-34 30,5 13,-22 22,15zm170 -428l6 -2c2,-2 -9,-8 16,-6 21,2 8,-7 14,12 36,-6 7,-15 25,4 -16,28 -11,38 -44,15l-20 2 -22 7c-29,-3 -13,4 -29,-15 -17,8 -37,9 -39,9 -91,17 -20,-11 -113,7 2,-42 -7,-4 10,-38l99 -4c54,0 97,-9 97,9zm158 -105c3,-28 5,-23 25,-39l10 25 -35 14zm-440 -14c5,8 4,5 10,17 -22,-1 -19,3 -36,-16l-25 13 1 -38c26,-1 21,-7 39,9l11 15zm281 -21c24,26 -3,7 25,0 25,-6 51,3 84,-1 18,-1 30,-2 49,-2 -15,44 1,24 -31,35l-110 1c-1,-1 -4,-1 -5,-1l-13 -2 1 -30zm-75 -5l22 -2c1,2 3,4 4,6 21,29 17,13 21,41l-52 -4 -117 5c-9,-11 -11,-3 -11,-22l-32 17 -4 -32c20,-10 23,-23 48,6 1,1 3,8 3,6 1,-1 3,5 4,7l26 -27c21,7 12,3 21,21 25,-29 27,-15 27,-15 33,1 -40,10 31,-7l9 0zm76 -118c1,2 3,6 3,7 1,2 3,6 4,7l6 14c51,-1 30,-1 43,11 -20,8 -47,6 -67,2l-95 2c-61,2 -8,3 -32,-9 6,-35 -25,-33 66,-31 24,0 48,2 72,-3zm-204 46c2,-29 -5,-40 27,-43l42 5 1 36c-64,-5 -2,-20 -70,2zm313 -146l29 -14 -15 37c-75,12 -17,-10 -73,5l20 -33c2,0 4,-1 4,-1 1,0 4,0 5,0l30 6zm-74 -14l-5 40c-30,-6 -26,-1 -59,-2 -36,-2 -32,-9 -57,-1 11,-31 11,-29 41,-28l80 -9zm-279 38c-5,0 -16,0 -22,-1 -24,-6 -3,1 -19,-10 49,-35 37,-26 47,-11 0,0 1,-5 12,-8 15,-4 5,3 31,-7l-15 34 -34 3zm101 -36c0,2 -11,-1 2,5l44 -2 -16 35c-21,-10 -22,-6 -75,-2 7,-8 11,-15 19,-21 16,-14 5,-6 26,-15zm152 -78c7,-25 -3,-18 21,-40l26 35 -47 5zm-139 -20c-3,24 6,7 -13,21l-8 -36c14,9 9,-7 21,15zm-111 16c2,-65 39,-10 67,-35l2 38c-37,-22 -16,2 -69,-3zm111 -16c6,-35 4,-16 59,-18 26,-1 55,-4 82,0l-5 35 -22 -19c-1,-3 -4,-3 -6,-4 -4,29 7,10 -8,27l-90 0 -10 -21zm87 612c458,-117 438,-573 286,-759 -40,-49 -181,-119 -280,-122 -140,-5 -208,58 -270,133 -163,194 -189,377 -61,600 48,84 118,138 255,152l14 93 -117 76c-26,26 -48,65 -70,107 -46,88 -78,175 -70,291 18,239 270,271 426,299l15 85c-86,2 -190,24 -249,66 -245,178 -327,849 272,934 226,32 363,-27 437,-172 42,8 68,28 76,67 -28,75 -205,147 -170,223 29,40 71,-26 189,-1 7,75 -140,194 -42,259 67,10 94,-33 118,-66 41,-54 63,-76 110,-60 3,84 -162,161 -69,254 78,12 78,-57 130,-91 97,-62 112,31 121,58 6,-83 -21,-124 -112,-107 -70,12 -81,65 -117,96 -6,-60 45,-102 71,-152 36,-69 -5,-118 -83,-108 -69,39 -81,120 -153,134 -22,-88 77,-145 78,-227 -41,-70 -118,-40 -187,-31 19,-44 39,-46 71,-75 25,-22 65,-46 80,-64 78,-91 -68,-174 -72,-177 12,-44 33,-78 45,-121 49,-170 14,-398 -137,-494 -46,-29 -45,-48 -91,-78 -68,-45 -171,-47 -258,-70l-6 -84c45,-32 130,-19 235,-176 133,-198 123,-465 -60,-563 -131,-71 -193,-7 -348,-35l-7 -94z"/>
  <path class="fil2" d="M5285 4892c-2,5 -9,25 -11,27 -13,19 4,0 -17,14l22 -37c1,-3 4,-2 6,-4zm413 -1472c-9,37 -5,18 -20,29l15 -26c0,-3 3,-2 5,-3zm47 1422c-6,-21 -10,-16 12,-16l0 -274c-42,28 -71,59 -115,91 -130,93 -233,93 -311,197 -11,15 -10,14 -23,29l-23 23c7,-27 70,-105 89,-119 40,-30 89,-48 139,-73 47,-23 98,-51 133,-78 47,-36 68,-61 111,-88l0 -1098 -26 -49c-7,9 -6,9 -14,19 -21,23 -2,5 -19,14 9,-39 23,-27 19,-72 -17,12 -8,-14 -24,27 3,-61 15,-44 -29,-89 -24,-25 -40,-51 -68,-68 -19,26 -7,26 -33,43l20 -54c-21,-23 -43,-45 -80,-56l-31 36c-17,8 -13,6 -15,5l19 -66c-69,48 -60,164 -60,164 -5,22 -17,25 -29,44l66 -33c26,0 6,0 17,9 -85,45 -73,13 -176,80l-268 230c-192,216 -338,582 -349,893 -4,84 8,156 9,236 1,39 -10,179 13,203l111 85 219 86c159,15 37,-74 377,-122 75,-11 137,-25 200,-55l139 -104z"/>
  <path class="fil1" d="M3587 1068l50 142 -148 2c12,-25 29,-36 51,-69 14,-22 32,-58 47,-75zm-89 -120c-11,15 -11,14 -28,28 7,-14 -1,-8 10,-19 15,-14 0,-2 18,-9zm0 0l6 -17c2,2 4,3 4,5 -2,24 2,6 -10,12zm-166 -329l-12 11c-117,-26 -395,-44 -526,-55 58,-42 431,36 524,42 29,-38 34,-99 30,-155l-52 41c-70,33 -297,-5 -383,-17l-121 -17c-27,-3 -25,-2 -47,-10l33 0c-7,-4 2,-1 -18,-9 0,0 -16,-3 -18,-4 -9,10 10,20 -67,12 -28,-3 -47,-4 -76,-3 -47,2 -95,5 -142,9 -101,9 -99,13 -152,54 -19,14 -29,14 -46,31 -14,16 -13,26 -29,39 -30,23 -12,-2 -40,36l-78 99c-210,303 -265,463 -72,812l81 137c16,24 18,25 41,42 -1,-98 127,-517 211,-627 5,-5 11,-13 15,-20 9,-14 5,-12 16,-27 21,-31 33,-58 80,-73 34,-10 107,-21 141,-18 -38,26 -107,34 -153,50 47,29 117,65 149,105 10,13 9,10 22,22 15,14 18,21 30,36 11,14 24,27 34,42 65,99 57,121 -24,138 19,58 40,27 69,114l-44 -18c21,1 95,115 101,123 -1,-28 -63,-234 72,-283 115,-42 201,125 201,125 26,21 -14,-6 11,4 57,24 62,149 62,151 -23,36 -19,16 -19,67 0,31 -3,49 -6,77l20 32c16,27 33,35 68,45 41,11 69,15 113,10 -8,-25 3,-12 -17,-32 -13,-13 -14,-11 -33,-15 -34,9 -13,8 -22,-7 -45,-37 -70,-63 -65,-161 19,27 8,50 33,67 42,29 89,20 133,2 30,-26 56,-45 98,-72 18,-12 31,-23 50,-35 32,-19 34,-8 57,-40l155 -91c-38,6 -55,16 -90,26 -40,12 -55,31 -89,11l-142 73c22,-18 18,-27 49,-48 14,-10 18,-11 30,-21 38,-35 112,-83 160,-102l2 38c33,0 4,-10 8,-28 6,-31 -14,-13 10,-25 26,-2 106,-40 183,-59 39,-9 48,-4 61,-25 -29,-21 -208,-32 -254,-31 0,-46 -13,-82 -31,-122 -26,-56 -17,-42 0,-100 16,-52 61,-207 55,-256l-146 182c-6,-39 4,-7 18,-72 -18,-28 15,-97 24,-130 12,-46 32,-93 39,-140l-57 62c-4,6 -9,16 -16,25 -8,11 -54,63 -79,74 15,-42 30,-69 44,-117 12,-42 24,-95 38,-132l-2 25c19,-21 25,-66 27,-98 -28,13 -75,84 -94,116l-54 55c-18,18 -47,28 -82,33z"/>
  <path class="fil3" d="M4043 5512l1714 0 0 -686c-22,0 -18,-5 -12,16 -4,8 0,3 -8,14 -28,40 -38,38 -64,64 -121,122 -379,74 -496,165 -146,113 -203,30 -297,1 -114,-35 -71,-37 -128,-76 -47,-31 -85,-44 -81,-106 -281,12 -268,128 -442,86 -84,-19 -184,-59 -248,-106 -28,-20 -10,-15 -30,-38 -10,-11 -27,-18 -36,-32 -11,-17 -7,-26 -20,-44 -24,18 -21,22 -37,36 -71,60 -264,167 -345,190 40,39 123,54 176,86 113,70 305,320 354,430z"/>
  <path class="fil2" d="M2830 2145c10,12 7,-8 19,28 6,18 2,13 3,34l16 -40c5,21 11,34 2,59 -43,-6 -39,-39 -40,-81zm-236 165c-16,-3 -10,-18 -13,7 2,29 3,11 -7,17 -7,-2 -17,-3 -25,-8 -45,-26 -7,-12 -1,-16l0 -5 -46 -1c27,-20 29,-11 54,-18 29,-8 18,-16 54,-23 17,7 15,12 15,-2 18,0 2,2 2,-15l60 -84 -54 114c-22,47 0,36 -39,34zm-511 -551c3,2 5,3 6,6 3,16 7,9 10,8l24 -19 -32 38 -8 -33zm602 36c8,-17 -9,-2 9,-15 5,-4 20,-8 27,-11 -14,25 0,19 -36,26zm-442 55c2,-40 14,-109 41,-142 22,-28 -1,-4 20,-17 -17,48 -29,59 -41,114 -1,6 -3,17 -4,21 -15,38 -1,7 -16,24zm-245 -225l29 133 9 -69c5,36 21,40 7,85 -54,11 -46,-107 -45,-149zm763 11c-20,-9 -141,-80 -152,-97 34,3 62,22 88,39 29,19 52,31 64,58zm-340 -198c-33,-11 -30,-27 -28,-66 1,-25 4,-60 7,-83 3,40 3,89 19,117l5 -82c9,45 27,84 -3,114zm109 -74c63,163 49,82 75,131 -63,-16 -67,-68 -88,-126 -16,-41 -60,-109 -59,-146 22,18 59,106 72,141zm-201 625l-9 -14c-28,-34 -46,-42 -65,-86l39 32c30,-26 69,-99 92,-113l196 -258c39,9 73,26 93,54 32,17 81,44 92,81 -145,-1 -122,-13 -196,57l-94 92c-11,16 -12,22 -25,35 51,-37 105,-96 165,-124 8,-18 -19,-4 16,-15 14,26 0,75 -32,108 -17,17 -17,16 -28,35 41,-25 71,-66 112,-78 -6,17 2,9 -13,22 -7,6 -17,10 -24,13l5 1 93 -59c6,-8 1,-45 65,-10l20 13c4,4 11,11 12,11 2,59 6,111 -20,149l-16 17c-42,49 -52,45 -57,77l-37 5 -8 37c-56,10 -24,14 -90,44 -22,9 -3,8 -41,10 -2,30 3,29 -19,39 -13,7 -42,10 -60,10 23,16 18,-4 26,27 11,43 -13,42 -13,43l-4 22c-32,-1 -23,-5 -48,9l42 42c30,6 22,4 35,32 74,54 99,-6 134,-23 -19,40 -29,54 -80,59 28,50 25,69 97,69 53,-1 87,-14 122,-38 74,-50 74,-94 115,-215 30,-90 56,-148 92,-230 27,-64 -62,-173 -65,-241 29,31 39,43 83,59 66,2 130,-188 68,-202 -20,30 4,35 -5,69 -9,35 -4,10 -14,22 4,-62 -31,-198 -66,-230 -64,-26 -95,42 -110,93 29,35 88,47 51,145 -28,-45 32,-57 -38,-107 -75,-54 -40,-204 -26,-220 34,-37 87,-13 111,11 -62,0 -126,-50 -116,104l12 42c24,-62 50,-109 133,-79l34 -20c-19,-49 -43,-75 -74,-98 -41,-29 -93,-42 -129,-6 -112,108 -10,200 -43,271 -20,-10 -158,-173 -179,-215 43,15 25,22 60,35 -16,-24 -30,-35 -35,-66l69 -35c-5,-31 -26,-70 -42,-92 -54,-72 -150,-166 -237,-194 -115,90 -190,368 -236,524 -20,67 -21,154 -52,212 -1,-1 -4,-5 -5,-4 0,2 -4,-3 -4,-4 -120,-124 -194,-339 -211,-362 -22,63 8,280 27,360 31,139 8,100 192,158 0,1 2,-3 3,-2l17 -20c11,25 30,49 46,71 20,30 19,56 66,44 -19,-32 -43,-44 -65,-84 35,19 62,43 74,75l22 4z"/>
  <path class="fil0" d="M1246 4314c25,37 7,36 23,86l9 -45c0,4 7,43 7,46 -12,46 -2,12 -32,26 -16,-46 -13,-58 -7,-113zm405 393l32 7c-21,18 -28,17 -46,-1 -120,-2 -89,-127 -4,-194 106,-83 105,59 200,-145 2,24 -23,93 -36,107 -49,51 -152,-18 -135,81 12,69 123,45 169,29 57,-21 53,-35 58,-95 2,-24 5,-44 7,-68 4,-35 1,-38 19,-61 1,48 -6,99 -10,146 -5,57 -17,74 -69,92 -78,26 -207,43 -188,-75 -63,41 -134,165 3,177zm-205 -492c-17,9 -33,13 -58,18 -30,6 -34,8 -52,0l110 -18zm-128 6c27,-24 123,-36 136,-32 -38,18 -86,26 -136,32zm584 -116c10,47 17,51 -1,84 -32,2 -29,12 -29,-30 0,-26 10,-41 14,-47l6 60 10 -67zm-634 -220c42,17 29,14 40,29l-40 -29zm639 -14c-35,-7 -20,-110 -17,-147 20,37 12,106 17,147zm-553 -277c17,-18 1,15 17,-19 11,36 43,59 77,83 45,30 27,30 51,50l181 175 33 121c1,44 2,49 -14,66 -66,71 -89,41 -99,52l19 30c-45,-14 -36,-24 -69,-45 -7,6 -8,10 -9,8 -1,-3 -6,1 -9,3 -15,-2 -11,2 -11,-13 -14,-21 -48,-44 -71,-77 -13,-19 -36,-66 -53,-85l-5 2 14 62c-35,-29 -36,-101 -134,-145l-4 23c-21,11 -105,72 -119,89l-6 10 20 11 94 39c8,-17 29,-17 47,-20 36,-26 35,1 35,1l-39 41c15,18 69,51 90,65l66 36c-13,10 14,-1 -21,12 -3,1 -17,4 -21,5 -14,4 -26,6 -40,9 -78,12 -62,21 -129,-30 -82,110 -9,260 -11,307 7,8 3,1 13,18 1,2 4,8 6,12 33,-20 68,-45 99,-60 5,-15 27,-60 45,-76 9,21 -3,39 -10,62l27 -29c7,-12 14,-26 19,-40 13,-32 18,-63 40,-87l18 23 19 128c43,-53 49,-144 73,-174 33,40 49,101 38,162 -10,56 -47,94 -74,136 -128,200 86,283 278,160 205,-130 175,-377 97,-410 -59,-11 -73,10 -114,29 12,-17 2,-6 15,-19l183 -146c2,-81 -13,-156 -17,-237 -7,-163 38,-364 -39,-452 -68,-78 -110,-14 -155,18 -48,-6 -15,-25 -87,-14 -41,73 -33,105 -141,112 -128,8 -92,-53 -204,-45l-9 63z"/>
  <path class="fil4" d="M2064 3717c-20,28 -26,29 -60,47 13,-29 -4,-5 12,-21l48 -26zm19 -1l-19 1c12,-14 -18,-4 11,-15l8 14zm-873 -152c-3,-21 45,-6 63,-2 29,6 39,9 69,10l-7 49c-44,-4 -78,-43 -125,-57zm1480 -586c121,43 71,10 172,-7 78,81 24,63 181,175 103,75 144,-36 267,72l140 87c-94,-2 -155,-72 -343,-38 -143,25 -97,-43 -348,-40 -26,-85 -53,-149 -69,-249zm-31 -505c194,-22 91,-19 190,-65l-13 95c-38,-5 -96,-10 -124,12l120 1 -19 127c-43,19 -81,-9 -115,21l112 5 2 126c0,7 -1,15 -2,23l-6 12c-37,14 -90,-18 -134,-24 17,21 -7,2 17,18 3,2 15,6 19,8 68,22 68,30 110,16 9,59 18,62 34,109 -52,12 -84,41 -138,13 -97,-52 -49,-26 -102,-74 2,-52 27,-66 11,-124 -21,-71 -13,-35 12,-98 33,-85 -65,-99 26,-201zm-174 -235c3,-17 7,-9 14,-15l-10 30c-11,-16 -9,8 -4,-15zm-226 -224c-45,-26 -35,-12 -74,7l-14 -14c21,-21 42,-18 73,-16l15 23zm-138 -20l52 -16 -33 38 -19 -22zm9 -85c52,13 60,20 84,56l-172 -12c-18,-25 -28,-39 -44,-82 46,13 87,27 132,38zm920 -465c27,2 7,-24 26,19l16 107c-19,-4 -23,-32 -32,-58 -32,-90 -22,-54 -10,-68zm71 114l-15 -1 -2 -20c3,-49 -54,-68 -22,-113 40,7 42,51 57,128l-18 6zm-1198 -179l0 63c12,45 -3,150 27,291 9,41 31,86 36,123 11,82 14,64 48,116l44 0c26,46 66,40 91,92 113,242 123,136 165,199 29,43 30,61 104,26 34,18 28,37 60,28l-42 -42c25,-14 16,-10 48,-9l4 -22 0 -43c-16,-4 4,-7 -14,4 -4,1 -3,3 -17,11 -5,24 -22,44 -48,60 -28,18 -50,23 -67,1 -19,-15 -12,14 -15,-31l6 -104c0,-64 -8,-72 -39,-104 7,44 23,20 24,87 1,35 0,75 -2,110 -85,-23 -138,-103 -144,-170 29,-1 69,-1 90,-20l-98 15c-23,-28 -13,-8 -27,-39 21,11 33,21 60,18 43,-3 42,-25 42,-25 47,5 33,-1 71,-12 21,-26 2,30 5,-8 0,-3 -4,-3 -6,-5l-22 -4c-12,-32 -39,-56 -74,-75 22,40 46,52 65,84 -47,12 -46,-14 -66,-44 -16,-22 -35,-46 -46,-71l-17 20c-1,-1 -3,3 -3,2 -184,-58 -161,-19 -192,-158 -19,-80 -49,-297 -27,-360 17,23 91,238 211,362 0,1 4,6 4,4 1,-1 4,3 5,4 31,-58 32,-145 52,-212 46,-156 121,-434 236,-524 87,28 183,122 237,194 16,22 37,61 42,92l-69 35c5,31 19,42 35,66 -35,-13 -17,-20 -60,-35 21,42 159,205 179,215 33,-71 -69,-163 43,-271 36,-36 88,-23 129,6 31,23 55,49 74,98l-34 20c-83,-30 -109,17 -133,79l-12 -42c-10,-154 54,-104 116,-104 -24,-24 -77,-48 -111,-11 -14,16 -49,166 26,220 70,50 10,62 38,107 37,-98 -22,-110 -51,-145 15,-51 46,-119 110,-93 35,32 70,168 66,230 10,-12 5,13 14,-22 9,-34 -15,-39 5,-69 62,14 -2,204 -68,202 -44,-16 -54,-28 -83,-59 3,68 92,177 65,241 -36,82 -62,140 -92,230 -41,121 -41,165 -115,215 -35,24 -69,37 -122,38 -72,0 -69,-19 -97,-69 51,-5 61,-19 80,-59 -35,17 -60,77 -134,23 14,28 5,12 27,28 52,38 4,46 75,95 -74,127 19,114 -23,208 -34,74 -18,39 -2,103 25,97 -79,68 47,174 26,21 20,47 30,88 16,71 37,121 60,186 -100,12 -198,75 -262,143 -117,125 -142,101 -234,173 -56,44 -84,98 -117,148 -200,-14 -77,-93 -162,-240 -38,-64 -143,-61 -175,9 -140,-58 -91,33 -163,86 -45,16 -116,20 -159,-5 -65,-36 -39,-37 -129,-22l-17 37c-99,-22 -152,-44 -204,21 13,56 78,101 63,221 -43,71 -48,71 -125,107 -17,8 -33,20 -51,30 20,-139 126,-99 158,-138 -39,-3 -71,10 -100,24 17,-39 43,-53 56,-86l-110 42c-55,-57 -77,-95 -112,-173 -38,-83 -41,-138 -46,-233 -10,10 -17,1 -22,49 20,114 61,239 124,319l-35 -37c-126,-130 -74,-184 -81,-235 -8,-54 4,-10 -16,-31l-4 138c-81,-82 -13,-371 -15,-431l7 -30c-54,68 -51,322 -38,388 20,108 92,199 174,261 17,-5 22,-39 54,19 -62,49 -178,54 -186,142 24,-4 0,23 30,-21 11,-18 1,-13 21,-29l220 -109 -67 92c-38,58 -45,156 -37,230 14,124 3,71 -41,160 -20,42 -49,132 -32,171 17,-24 15,-37 24,-81 7,-29 12,-49 25,-77 11,-26 22,-39 40,-60 11,-14 9,-16 20,-31 16,-22 7,-13 26,-25 -18,31 -41,54 -48,87 46,-7 -5,5 55,-53 29,-27 32,-8 54,-57l-17 -5c25,-21 11,-3 23,-32 -50,15 -69,52 -104,67l-12 -141 23 -11 67 -33c-44,-1 -58,6 -86,23 -5,-87 172,-47 203,-206l-14 -111c-2,-3 -48,-87 -51,-94 12,-9 21,-17 35,-26l33 9c22,17 72,37 85,59l51 10c3,-24 4,-15 8,-39l9 -63c112,-8 76,53 204,45 108,-7 100,-39 141,-112 72,-11 39,8 87,14 45,-32 87,-96 155,-18 77,88 32,289 39,452 4,81 19,156 17,237l-183 146c-13,13 -3,2 -15,19 41,-19 55,-40 114,-29 78,33 108,280 -97,410 -192,123 -406,40 -278,-160 27,-42 64,-80 74,-136 11,-61 -5,-122 -38,-162 -24,30 -30,121 -73,174l-19 -128c-25,0 -13,27 -8,49 39,192 -85,288 -91,330 -5,30 -4,7 8,24 11,-50 64,-67 100,-207 5,-20 8,-38 19,-56 20,-30 70,-102 67,-151 34,61 25,149 -23,213 -8,10 -15,16 -23,27 -33,52 -70,113 -42,177 9,21 21,46 40,56 122,66 278,-2 361,-77 27,-26 54,-80 74,-114 26,-46 35,-111 21,-168 55,-26 75,-9 124,-21 -53,-27 -72,-8 -130,0 -12,-65 -30,-100 -102,-99 61,-55 132,-85 136,-143 5,-87 -27,-175 -16,-271l131 -104c1,0 2,-2 3,-3 -33,5 -97,65 -136,87 17,-37 47,-49 92,-84 37,-29 18,-8 33,-36 -51,24 -79,63 -126,84 24,-49 59,-35 80,-80 152,-42 236,76 385,90 -30,70 -92,120 -127,161 -20,24 -32,26 -56,45 -71,61 -146,107 -224,159 73,-19 263,-161 316,-219 24,-26 63,-68 83,-97 -38,268 -71,179 -146,274 35,-19 57,-44 97,-62 -14,142 -41,238 -26,395 4,41 40,146 29,170l-90 124 -12 -51c-26,0 -11,5 -7,32 17,121 -50,32 -54,309 -2,87 0,81 -57,187l-35 52c22,-75 47,-207 9,-276l0 73c-10,46 -2,98 -13,147 -9,42 -28,86 -39,126 39,-14 61,-55 81,-93 24,-43 38,-65 57,-114 20,47 10,82 68,200 17,34 35,58 53,83 23,33 46,54 63,81l30 0c-9,-15 2,-4 -16,-22 -191,-194 -244,-477 -116,-707 18,-34 46,-64 66,-95l63 -105c-21,15 -10,12 -33,23 -48,-258 -26,-497 45,-741 63,-218 144,-231 224,-291 37,-28 214,-54 271,-56 254,-8 339,30 446,184 110,157 116,315 73,516 -38,173 -132,214 -146,276l9 -6c4,-4 9,-9 12,-13 123,-144 173,-312 164,-513 -2,-57 -17,-96 -33,-144 -19,-59 -60,-112 -97,-166 -54,-80 -106,-91 -155,-121 77,-94 316,2 412,14 -45,-25 -143,-52 -208,-60 -108,-15 -153,-11 -232,40 -195,-30 -262,-43 -459,12 -106,29 -217,127 -262,204 -17,28 -15,86 -177,2 -84,-43 -54,-32 -154,-47 -8,-28 9,-42 32,-68 53,-64 122,-113 199,-150l21 -3c16,-26 27,-28 42,-51 52,-79 191,-166 285,-180 109,-16 226,20 314,57 160,67 108,139 174,195 -16,-114 -75,-162 -157,-207 135,-37 238,2 366,35 42,11 42,1 77,8 144,29 335,45 432,75 85,26 158,77 237,99 -32,-45 -123,-63 -173,-93 59,-18 51,-21 89,-48 -125,55 -101,33 -227,6 -121,-26 -164,-11 -223,-65 144,2 228,-18 339,-68 -294,81 -367,78 -610,-67 -54,-33 -59,-58 -86,-117 -86,-180 -41,-378 -47,-520 -54,199 -3,576 105,640 32,19 62,38 96,56 127,70 173,38 213,110 -155,-19 -200,-42 -317,-116 -31,-20 -54,-45 -81,-55l36 -20c-106,-23 -147,52 -282,-38 -62,-42 -133,-121 -167,-189 -73,-145 7,-458 43,-611 101,4 99,55 178,63 108,11 27,-5 161,72 -14,-22 -51,-44 -68,-64 68,6 37,25 84,46 -19,-30 -18,-45 -51,-56 -78,-26 -210,17 -226,-103 13,28 10,32 32,52 -31,-153 -86,-108 -11,-276 78,-176 25,-104 -11,-263 67,77 127,-40 141,-61l26 13 -20 -32c3,-28 6,-46 6,-77 0,-51 -4,-31 19,-67 0,-2 -5,-127 -62,-151 -25,-10 15,17 -11,-4 0,0 -86,-167 -201,-125 -135,49 -73,255 -72,283 -6,-8 -80,-122 -101,-123l44 18c-29,-87 -50,-56 -69,-114 81,-17 89,-39 24,-138 -10,-15 -23,-28 -34,-42 -12,-15 -15,-22 -30,-36 -13,-12 -12,-9 -22,-22 -32,-40 -102,-76 -149,-105 46,-16 115,-24 153,-50 -34,-3 -107,8 -141,18 -47,15 -59,42 -80,73 -11,15 -7,13 -16,27 -4,7 -10,15 -15,20 -84,110 -212,529 -211,627 -23,-17 -25,-18 -41,-42l-81 -137c-193,-349 -138,-509 72,-812l78 -99c28,-38 10,-13 40,-36 16,-13 15,-23 29,-39 17,-17 27,-17 46,-31 53,-41 51,-45 152,-54 47,-4 95,-7 142,-9 29,-1 48,0 76,3 77,8 58,-2 67,-12 -14,0 -69,0 -66,-14l-1 -11c-95,52 -265,-12 -370,73 -33,27 -47,32 -89,79 -10,11 -13,19 -22,29 -16,17 -20,12 -34,26l-153 228c-45,93 -117,225 -109,329 11,144 58,134 25,194z"/>
  <path class="fil4" d="M5631 3210l27 -47c17,19 19,13 38,39 14,20 13,22 40,39l-29 64c-26,-26 -67,-68 -76,-95zm0 0c-29,-7 -32,-2 -21,-38 5,-15 14,-30 20,-38 30,26 10,29 1,76zm-165 -19c7,-28 4,-37 26,-49 -2,8 -2,15 -6,23 -14,30 -8,14 -20,26zm71 -133c33,13 53,36 79,58l-22 66c-29,-14 -50,-32 -84,-49l27 -75zm119 23c20,33 12,32 -13,47 -3,-12 -8,-11 -4,-28 7,-34 8,-13 17,-19zm-474 368c-96,-46 -362,-125 -305,-252 26,0 226,42 248,51 70,30 118,88 187,110l-30 -29c-17,-15 -10,-10 -24,-28 -16,-21 -30,-41 -44,-57 -73,-84 -455,-47 -358,-217 66,-5 313,6 354,44 19,18 29,31 51,49 104,84 56,59 102,102 58,56 37,57 -9,118l-172 109zm431 -419c9,30 11,24 23,35l-14 29c-12,-11 -59,-43 -80,-52l21 -44c28,13 25,19 50,32zm-94 -17c22,-31 -4,-9 30,-32 -6,29 -2,30 -21,47l-9 -15zm-150 -34c27,38 51,63 80,104l-56 144c-45,-54 -170,-185 -229,-197 -215,-45 -318,28 -280,-127 30,-17 305,1 357,8 94,13 84,8 128,68zm-413 -103c2,-41 -2,-34 32,-47 255,-93 231,-96 407,41l-5 107c-51,-69 -63,-76 -176,-89 -87,-10 -172,-4 -258,-12zm329 -326c20,-10 46,1 55,18 28,52 -30,89 -16,218 -43,-5 -24,-18 -94,-42 12,-46 38,-103 44,-145 5,-26 0,-30 11,-49zm-528 -77c-81,34 -160,204 -186,216 -43,19 -135,-64 -9,-159 20,-16 40,-16 61,-31 -60,-3 -71,21 -102,49 -30,28 -39,47 -42,99 -46,-13 -62,-6 -77,-47 -11,-30 -22,-72 -13,-108 27,-16 41,-19 76,-14 25,39 16,45 43,74 -2,-37 -15,-62 -29,-87 -165,-27 -99,109 -93,151 -22,28 -35,62 -75,70 -31,6 -88,15 -113,9 -14,-10 -18,-43 0,-72 53,-87 141,-2 159,-140 -53,47 -1,58 -91,79 -68,16 -68,6 -131,-25 -5,-132 167,-46 169,-46 -41,-64 -188,-73 -187,52l63 32 -108 116c-103,-13 -139,-114 -71,-197 107,-130 136,-30 153,-180 30,-273 266,-223 430,-217 -17,17 15,-3 -22,18 0,0 -15,6 -18,7 -85,39 -152,122 -176,212l11 3c20,-67 94,-160 147,-190 125,-70 197,-40 259,-73l-143 5c84,-54 95,-120 158,-183 47,-46 156,-104 259,-71 45,14 72,37 107,61 106,74 136,56 -16,305 60,-63 78,-96 120,-198 37,81 -37,270 -40,369 -5,189 58,166 -20,373l-269 88 -6 54c-100,4 -94,68 -57,130 -93,10 -43,118 -40,122 16,22 93,44 125,54 170,51 197,15 257,101 -22,-9 -48,-28 -72,-42 -43,-25 -249,-65 -285,-64 -48,96 35,152 95,187 54,31 163,63 205,98 -19,22 -42,35 -66,59l-163 192c-64,99 -122,193 -166,317 -145,407 -91,477 -98,851l-168 29c15,-21 1,0 11,-23 -131,72 -174,130 -354,63 -83,-30 -291,-127 -228,-235 -14,-18 -15,-13 -17,-34 -1,-10 1,-32 2,-42 1,-26 2,-51 4,-76 17,-234 73,-175 127,-399 24,-99 15,-223 19,-243 64,-318 78,-301 252,-535l216 -310c58,-88 77,-149 91,-257 10,-79 -5,-90 -16,-152 24,-34 45,-71 70,-106 54,-73 32,-40 72,-80l6 -9zm-1117 -1091l2 27 -101 33c34,20 49,1 89,-11 35,-10 52,-20 90,-26l-155 91 74 -31c2,119 -30,209 -47,316 -56,-9 -91,-16 -135,-40 -41,-22 -73,-44 -119,-56l22 -42c-44,18 -91,27 -133,-2 -25,-17 -14,-40 -33,-67 -5,98 20,124 65,161 9,15 -12,16 22,7 -39,-46 -45,-9 -60,-82 43,13 33,19 89,28 22,3 55,22 74,33 54,32 84,52 155,66 119,23 234,59 343,97 224,77 112,106 320,77 137,-20 247,45 310,113 -109,3 -215,-4 -291,56 -83,66 -89,243 -94,251 -21,22 -45,23 -70,42 -241,179 -17,328 41,270 10,-10 13,-20 25,-35 37,-44 42,-68 84,-74 -22,44 -57,52 -25,125 31,5 104,-2 135,-10 29,-6 53,-44 77,-66 71,35 65,12 105,48 40,37 50,27 100,11 32,138 -11,261 -69,364 -38,-13 -90,-85 -115,-114l-55 -63c-18,-19 -50,-31 -81,-9 28,17 32,-19 73,26l81 88c12,12 16,18 26,33 17,25 31,39 55,56 -28,67 -272,415 -320,438 -8,57 -99,87 -150,433l-112 44c43,2 73,-20 115,-30 1,36 -12,192 -20,221 -60,213 -128,123 -131,566 -18,14 -17,19 -33,32 -80,67 -324,215 -374,214l-274 -111c-21,-36 -11,-76 -23,-100 -26,26 -10,117 40,132 92,29 343,131 415,170 131,71 126,91 204,186 18,22 23,35 41,61 33,49 82,127 102,183l15 0c-12,-36 -35,-65 -44,-99 16,32 50,60 62,99l16 0c-49,-110 -241,-360 -354,-430 -53,-32 -136,-47 -176,-86 81,-23 274,-130 345,-190 16,-14 13,-18 37,-36 13,18 9,27 20,44 9,14 26,21 36,32 20,23 2,18 30,38 64,47 164,87 248,106 174,42 161,-74 442,-86 -4,62 34,75 81,106 57,39 14,41 128,76 94,29 151,112 297,-1 117,-91 375,-43 496,-165 26,-26 36,-24 64,-64 8,-11 4,-6 8,-14l-139 104c-63,30 -125,44 -200,55 -340,48 -218,137 -377,122l-219 -86 -111 -85c-23,-24 -12,-164 -13,-203 -1,-80 -13,-152 -9,-236 11,-311 157,-677 349,-893l268 -230c103,-67 91,-35 176,-80 -11,-9 9,-9 -17,-9l-66 33c12,-19 24,-22 29,-44 0,0 -9,-116 60,-164l-19 66c2,1 -2,3 15,-5l31 -36c37,11 59,33 80,56l-20 54c26,-17 14,-17 33,-43 28,17 44,43 68,68 44,45 32,28 29,89 16,-41 7,-15 24,-27 4,45 -10,33 -19,72 17,-9 -2,9 19,-14 8,-10 7,-10 14,-19l26 49 0 -44 -13 -31 13 -17 0 -26 -25 26c-24,-28 -5,-44 11,-82l14 5 0 -68 -17 23c-29,-26 -57,-54 -73,-91l14 -20c40,22 32,34 55,60 16,17 5,6 21,15l0 -19c-22,-16 -38,-43 -69,-65 4,-38 48,-145 69,-169l0 -32 -8 10c-6,8 0,0 -7,12l-32 70c-31,68 -9,67 -47,83 -13,-39 79,-239 94,-255l0 -31c-27,26 -96,211 -113,258l-31 -18c-12,-39 -20,-15 -47,-50 9,-44 37,-89 39,-135 -20,18 -18,32 -29,64 -27,84 -19,53 -36,66l60 -186c27,-73 16,-47 4,-56l-12 50c-25,50 -70,179 -73,230l-78 -28c13,23 -3,4 13,19l52 25c-4,30 -13,64 -28,83 -23,-27 -5,-62 -70,-105l8 -144c-65,-51 -85,-25 -84,-120 0,-71 34,-102 28,-181 -27,-22 -41,-36 -88,-35 -10,-137 -30,-164 1,-312l13 -40c19,-134 39,-203 -57,-276 -56,-44 -159,-114 -259,-97 -46,8 -103,21 -135,44l-50 43c-56,57 -72,108 -116,146 -119,101 -138,19 -207,-28 -174,-119 -305,-28 -380,-61 -22,-10 -31,-20 -54,-31l-422 -130c14,-107 51,-208 45,-328 44,-17 90,-43 141,-61 48,-16 113,-30 151,-53 -39,-12 -234,49 -290,61l5 -75c-24,12 -4,-6 -10,25 -4,18 25,28 -8,28z"/>
  <path class="fil0" d="M2140 3745c8,-18 -23,-15 27,-18l-27 18zm-57 -29c-21,45 -56,31 -80,80 47,-21 75,-60 126,-84 -15,28 4,7 -33,36 -45,35 -75,47 -92,84 39,-22 103,-82 136,-87 -1,1 -2,3 -3,3l-131 104c-11,96 21,184 16,271 -4,58 -75,88 -136,143 72,-1 90,34 102,99 58,-8 77,-27 130,0 28,10 17,4 32,24 29,4 36,9 59,31 -43,23 -52,-31 -130,22 -30,20 -13,2 -22,25 60,1 144,33 179,65l-142 -50c24,10 73,35 86,57 33,15 17,10 40,32 25,24 16,7 37,38 26,39 39,44 55,96l12 51 90 -124c11,-24 -25,-129 -29,-170 -15,-157 12,-253 26,-395 -40,18 -62,43 -97,62 75,-95 108,-6 146,-274 -20,29 -59,71 -83,97 -53,58 -243,200 -316,219 78,-52 153,-98 224,-159 24,-19 36,-21 56,-45 35,-41 97,-91 127,-161 -149,-14 -233,-132 -385,-90z"/>
  <path class="fil0" d="M2719 417l-43 15c-3,14 52,14 66,14 2,1 18,4 18,4 20,8 11,5 18,9 59,-12 358,37 450,39l-82 -249c-25,-83 -60,-168 -80,-249l-567 0c15,52 36,79 46,141 9,60 8,113 12,173 88,-5 429,-30 491,-9 -22,45 -167,22 -329,112z"/>
  <path class="fil3" d="M888 5512l614 0c45,-44 106,-31 241,-188 29,-35 29,-41 48,-81 -19,36 -94,114 -131,135 -153,84 -610,126 -678,77 42,-8 78,-3 117,-13 109,-27 346,-129 402,-216 28,-44 63,-113 83,-163 -28,12 -32,23 -60,43 -20,14 -35,22 -58,34 -216,119 -377,12 -454,-5 3,76 -4,158 -29,225l-68 119c-23,25 -11,0 -27,33z"/>
  <path class="fil5" d="M2746 1772l-66 63c-19,10 -27,34 -27,-4l-5 -1 -176 143c17,-27 29,-24 49,-45 26,-28 7,-24 47,-39 -12,-14 17,-17 -19,-10 -7,18 10,2 -15,20 -20,14 -3,1 -19,6 -8,15 3,2 -10,16 -3,3 -9,8 -14,11 -25,16 -13,8 -30,11l-13 15 -17 4c-18,-3 -29,1 -23,-21 -27,18 -27,28 -55,46l-33 -12 9 14c2,2 6,2 6,5 -3,38 16,-18 -5,8 -38,11 -24,17 -71,12 0,0 1,22 -42,25 -27,3 -39,-7 -60,-18 14,31 4,11 27,39l98 -15c-21,19 -61,19 -90,20 6,67 59,147 144,170 2,-35 3,-75 2,-110 -1,-67 -17,-43 -24,-87 31,32 39,40 39,104l-6 104c3,45 -4,16 15,31l-2 -31c24,25 57,-6 81,-18 31,-15 11,13 25,-23l11 11c14,-8 13,-10 17,-11 18,-11 -2,-8 14,-4l0 43c0,-1 24,0 13,-43 -8,-31 -3,-11 -26,-27 18,0 47,-3 60,-10 22,-10 17,-9 19,-39 38,-2 19,-1 41,-10 66,-30 34,-34 90,-44l8 -37 37 -5c5,-32 15,-28 57,-77l16 -17c26,-38 22,-90 20,-149 -1,0 -8,-7 -12,-11l-20 -13c-64,-35 -59,2 -65,10z"/>
  <path class="fil2" d="M5312 3358c-69,-22 -117,-80 -187,-110 -22,-9 -222,-51 -248,-51 -57,127 209,206 305,252l172 -109c46,-61 67,-62 9,-118 -46,-43 2,-18 -102,-102 -22,-18 -32,-31 -51,-49 -41,-38 -288,-49 -354,-44 -97,170 285,133 358,217 14,16 28,36 44,57 14,18 7,13 24,28l30 29z"/>
  <path class="fil1" d="M1923 1379c33,-60 -14,-50 -25,-194 -8,-104 64,-236 109,-329l153 -228c14,-14 18,-9 34,-26 9,-10 12,-18 22,-29 42,-47 56,-52 89,-79 105,-85 275,-21 370,-73l1 11 43 -15 -3 -18c35,-13 20,-20 58,-32l209 -50c-100,-12 -437,8 -537,32 -73,17 -142,47 -188,89 -16,15 -23,15 -39,28l-115 106c-12,12 -20,23 -31,37l-33 34c-15,17 -7,21 -27,41 -54,56 -107,155 -139,224 -52,110 -22,124 -2,236 9,54 53,192 51,235z"/>
  <path class="fil3" d="M1716 5512l722 0c-17,-27 -40,-48 -63,-81 -18,-25 -36,-49 -53,-83 -58,-118 -48,-153 -68,-200 -19,49 -33,71 -57,114 -20,38 -42,79 -81,93 11,-40 30,-84 39,-126 11,-49 3,-101 13,-147 -10,-27 1,-28 -17,-52 -9,124 -123,380 -229,424 7,-17 62,-88 97,-168 20,-48 57,-139 60,-196 -31,92 -81,195 -133,259 -82,103 -123,100 -230,163z"/>
  <path class="fil0" d="M2690 2978c16,100 43,164 69,249 251,-3 205,65 348,40 188,-34 249,36 343,38l-140 -87c-123,-108 -164,3 -267,-72 -157,-112 -103,-94 -181,-175 -101,17 -51,50 -172,7z"/>
  <path class="fil2" d="M2659 2473c-91,102 7,116 -26,201 -25,63 -33,27 -12,98 16,58 -9,72 -11,124 53,48 5,22 102,74 54,28 86,-1 138,-13 -16,-47 -25,-50 -34,-109 -42,14 -42,6 -110,-16 -4,-2 -16,-6 -19,-8 -24,-16 0,3 -17,-18 44,6 97,38 134,24l6 -12c1,-8 2,-16 2,-23l-2 -126 -112 -5c34,-30 72,-2 115,-21l19 -127 -120 -1c28,-22 86,-17 124,-12l13 -95c-99,46 4,43 -190,65z"/>
  <path class="fil6" d="M1193 3675l14 111 23 23c0,0 28,11 30,11l-10 2c17,22 61,32 83,52 42,40 29,46 59,71l5 -2c8,-21 2,-25 67,71 15,22 17,33 36,49 53,44 23,41 21,42 0,15 -4,11 11,13 3,-2 8,-6 9,-3 1,2 2,-2 9,-8 -11,-13 -13,-13 -25,-28 -2,-3 -9,-12 -11,-16 -8,-22 -13,-5 4,-17 9,-4 96,-10 104,-37 0,-3 3,-3 5,-4l-2 -68 -101 -127c-20,-23 -20,-7 -43,-34 -74,-87 -23,-13 -103,-83 -1,-1 -3,-3 -4,-4 -44,-40 0,-32 -55,-40 52,0 10,4 27,-16l-51 -10c0,1 5,40 -50,-8 -8,7 10,7 -21,15 -26,6 -1,3 -22,-5 7,18 5,14 15,23 -30,24 -1,12 -24,27z"/>
  <path class="fil2" d="M4884 2903c-38,155 65,82 280,127 59,12 184,143 229,197l56 -144c-29,-41 -53,-66 -80,-104 -44,-60 -34,-55 -128,-68 -52,-7 -327,-25 -357,-8z"/>
  <path class="fil4" d="M1912 1430c4,-46 -72,-190 -103,-275 -51,-141 -61,-148 -11,-299 36,-110 103,-258 177,-346l108 -135c-45,110 -108,183 -160,346 -14,44 -22,86 -42,128 -50,102 -69,153 -38,271 14,57 54,228 80,259 2,-43 -42,-181 -51,-235 -20,-112 -50,-126 2,-236 32,-69 85,-168 139,-224 20,-20 12,-24 27,-41l33 -34c11,-14 19,-25 31,-37l115 -106c16,-13 23,-13 39,-28 46,-42 115,-72 188,-89 100,-24 437,-44 537,-32l-209 50c-38,12 -23,19 -58,32l3 18c162,-90 307,-67 329,-112 -62,-21 -403,4 -491,9 -4,-60 -3,-113 -12,-173 -10,-62 -31,-89 -46,-141l-23 0c50,97 57,198 65,316 -98,8 -230,44 -298,107l-144 135c-43,53 -41,33 -65,70 -30,44 -69,84 -117,157 63,-228 163,-340 222,-480 -117,66 -289,343 -343,501 -50,147 -69,182 -12,331 27,68 94,246 128,293z"/>
  <path class="fil3" d="M0 5143c85,0 165,-7 235,-40 47,-23 123,-95 145,-130 -74,4 -219,-46 -261,-85 -28,-5 -85,-39 -106,-62l-12 -17c20,6 39,11 58,17 38,12 28,8 17,17 -16,-30 -58,-46 -76,-60l0 360z"/>
  <path class="fil4" d="M758 5512l26 0c22,-41 164,-129 211,-347 6,96 -20,203 -73,278 -19,27 -39,42 -52,69l18 0c16,-33 4,-8 27,-33l68 -119c25,-67 32,-149 29,-225 77,17 238,124 454,5 23,-12 38,-20 58,-34 28,-20 32,-31 60,-43 -20,50 -55,119 -83,163 -56,87 -293,189 -402,216 -39,10 -75,5 -117,13 68,49 525,7 678,-77 37,-21 112,-99 131,-135 -19,40 -19,46 -48,81 -135,157 -196,144 -241,188l30 0c59,-32 163,-96 207,-150 32,-40 111,-168 128,-241 -36,26 -84,109 -119,150l-62 64c-83,101 -430,114 -555,119 53,-26 117,-41 173,-69 50,-25 146,-79 179,-116 39,-45 15,12 72,-109 28,-59 58,-107 84,-159l-128 91c-14,10 -4,4 -19,14 -53,35 -116,55 -179,66 -203,36 -345,-97 -375,-105 22,41 46,40 47,64 3,59 -76,213 -131,278 -19,22 -26,41 -53,66l-43 37z"/>
  <path class="fil0" d="M3565 1496c-23,32 -25,21 -57,40 -19,12 -32,23 -50,35 -42,27 -68,46 -98,72l-22 42c46,12 78,34 119,56 44,24 79,31 135,40 17,-107 49,-197 47,-316l-74 31z"/>
  <path class="fil1" d="M1912 1430c-1,15 -5,12 11,12l0 -63c-26,-31 -66,-202 -80,-259 -31,-118 -12,-169 38,-271 20,-42 28,-84 42,-128 52,-163 115,-236 160,-346l-108 135c-74,88 -141,236 -177,346 -50,151 -40,158 11,299 31,85 107,229 103,275z"/>
  <path class="fil7" d="M1354 3594c-4,24 -5,15 -8,39 -17,20 25,16 -27,16 55,8 11,0 55,40 1,1 3,3 4,4 80,70 29,-4 103,83 23,27 23,11 43,34l101 127 2 68c-2,1 -5,1 -5,4 -8,27 -95,33 -104,37 29,40 42,47 82,76 10,-11 33,19 99,-52 16,-17 15,-22 14,-66l-33 -121 -181 -175c-24,-20 -6,-20 -51,-50 -34,-24 -66,-47 -77,-83 -16,34 0,1 -17,19z"/>
  <path class="fil3" d="M5690 2656l-17 19c3,25 5,9 -10,18 -2,28 -34,129 -58,152 -2,46 -30,91 -39,135 27,35 35,11 47,50l31 18c17,-47 86,-232 113,-258l0 -204c-16,-12 -17,-12 -31,-31l-19 -26c-1,-2 -5,-3 -6,-7 -1,-4 -4,-4 -5,-7l16 85 -38 -5c8,19 15,32 26,47l-10 14z"/>
  <path class="fil1" d="M2386 1808c26,6 21,5 -3,32l-55 65c-14,17 -11,17 -21,34 13,8 32,24 49,31l146 -188c27,-32 63,-53 89,-81 50,-54 49,-22 139,-41 -19,2 3,11 -24,-12 -20,-18 -8,-11 -30,-23l-1 -21c-20,-28 -54,-45 -93,-54l-196 258z"/>
  <path class="fil2" d="M4956 2876c86,8 171,2 258,12 113,13 125,20 176,89l5 -107c-176,-137 -152,-134 -407,-41 -34,13 -30,6 -32,47z"/>
  <path class="fil4" d="M1676 5512l40 0c107,-63 148,-60 230,-163 52,-64 102,-167 133,-259 -3,57 -40,148 -60,196 -35,80 -90,151 -97,168 106,-44 220,-300 229,-424 8,-26 7,-14 11,-24 21,-61 13,-198 -5,-253 -18,-55 -96,-169 -152,-183 39,105 244,130 97,582 -35,106 -79,162 -84,180 46,-88 89,-210 85,-325 -36,25 -61,157 -108,239 -51,87 -79,122 -164,183 -44,31 -125,57 -155,83z"/>
  <path class="fil4" d="M409 4307c72,26 9,-50 142,36 33,22 40,25 79,37l-71 -62c-77,-68 -160,-154 -217,-240 -1,-1 -3,-3 -4,-5 -2,-4 -8,-13 -11,-20 -58,-103 -81,-352 -62,-457l20 63c9,-68 -10,-121 8,-261l6 -67c0,-3 -1,-4 -2,-6 -53,196 -70,363 -36,570 21,126 41,167 112,253l127 142 -73 -52c-32,-33 -41,-30 -69,-58 -184,-178 -176,-266 -227,-521 -4,121 41,296 92,385 34,57 191,216 245,238 -27,21 -24,8 -59,25z"/>
  <path class="fil4" d="M119 4888c42,39 187,89 261,85 -22,35 -98,107 -145,130 -70,33 -150,40 -235,40l0 21c99,44 108,29 212,17 -62,49 -131,39 -212,32l0 17c88,3 95,22 187,-13 29,-11 45,-17 66,-35 26,-22 44,-31 65,-51 -5,-2 15,-20 -30,-2 -41,15 14,5 -106,38 -90,24 -125,-4 -150,-4 182,-38 94,27 283,-90 16,-10 55,-48 65,-62 43,-60 18,-34 170,-74 62,-16 137,-38 182,-71 -11,-3 -246,68 -291,77 -80,16 -81,24 -161,-1 -47,-14 -96,-30 -130,-58l-31 4z"/>
  <path class="fil4" d="M2778 459l-33 0c22,8 20,7 47,10l121 17c86,12 313,50 383,17l52 -41c4,56 -1,117 -30,155 -93,-6 -466,-84 -524,-42 131,11 409,29 526,55l12 -11c43,-82 34,-118 22,-212l-7 10c-4,9 -4,11 -7,19 -16,34 -46,56 -89,62 -32,-44 -154,-426 -169,-498l-16 0c20,81 55,166 80,249l82 249c-92,-2 -391,-51 -450,-39z"/>
  <path class="fil4" d="M298 3689c-26,0 10,62 15,70 21,-23 27,-84 33,-122 12,-93 63,-206 114,-273 16,-22 26,-20 41,-42 36,-49 70,-78 111,-119 34,-34 1,-16 82,-79l136 -116c-4,24 -5,32 -11,56 -14,54 -12,46 5,60l21 -136c-59,19 -172,134 -227,178 -42,34 -77,84 -114,124 -168,178 -139,234 -195,444l-11 -45z"/>
  <path class="fil4" d="M2386 1808c-23,14 -62,87 -92,113l-39 -32c19,44 37,52 65,86l33 12c28,-18 28,-28 55,-46 24,-41 87,-82 103,-99l106 -97c-60,28 -114,87 -165,124 13,-13 14,-19 25,-35l94 -92c74,-70 51,-58 196,-57 -11,-37 -60,-64 -92,-81l1 21c22,12 10,5 30,23 27,23 5,14 24,12 -90,19 -89,-13 -139,41 -26,28 -62,49 -89,81l-146 188c-17,-7 -36,-23 -49,-31 10,-17 7,-17 21,-34l55 -65c24,-27 29,-26 3,-32z"/>
  <path class="fil4" d="M820 3927c-18,7 -10,-23 -15,8l44 -94c-43,6 -91,73 -114,112 -79,140 -51,294 22,428 13,22 31,41 43,60 -6,-110 -149,-203 -70,-428 7,-21 19,-47 28,-62 2,-2 10,-15 11,-16l30 -34c-17,33 -30,75 -34,116 21,-7 55,-57 55,-90z"/>
  <path class="fil2" d="M5285 2550c-11,19 -6,23 -11,49 -6,42 -32,99 -44,145 70,24 51,37 94,42 -14,-129 44,-166 16,-218 -9,-17 -35,-28 -55,-18z"/>
  <path class="fil3" d="M784 5512l86 0c13,-27 33,-42 52,-69 53,-75 79,-182 73,-278 -47,218 -189,306 -211,347z"/>
  <path class="fil4" d="M1637 4713l14 -6c-137,-12 -66,-136 -3,-177 -19,118 110,101 188,75 52,-18 64,-35 69,-92 4,-47 11,-98 10,-146 -18,23 -15,26 -19,61 -2,24 -5,44 -7,68 -5,60 -1,74 -58,95 -46,16 -157,40 -169,-29 -17,-99 86,-30 135,-81 13,-14 38,-83 36,-107 -95,204 -94,62 -200,145 -85,67 -116,192 4,194z"/>
  <path class="fil2" d="M3435 4140l-37 -32c-64,21 -100,144 -58,172 47,30 106,-30 95,-140z"/>
  <path class="fil0" d="M1090 3969c30,8 33,7 59,-2 14,-35 60,-63 113,-104l-25 -20c-25,-16 -13,-1 -24,-23l37 2 10 -2c-2,0 -30,-11 -30,-11l-23 -23c-31,159 -208,119 -203,206 28,-17 42,-24 86,-23z"/>
  <path class="fil4" d="M1304 4014l-33 52c-27,33 -70,118 -77,152 -22,117 8,161 37,264 4,-9 4,-1 3,-22 2,-47 -71,-197 11,-307 67,51 51,42 129,30 -34,-41 -29,43 -124,-51 17,-23 13,-30 37,-57l42 24c12,8 21,13 31,27l30 -5c-21,-14 -75,-47 -90,-65l39 -41c0,0 1,-27 -35,-1z"/>
  <path class="fil1" d="M1374 4183c14,-3 26,-5 40,-9 4,-1 18,-4 21,-5 35,-13 8,-2 21,-12l-66 -36 -30 5c-10,-14 -19,-19 -31,-27l-42 -24c-24,27 -20,34 -37,57 95,94 90,10 124,51z"/>
  <path class="fil1" d="M1090 3969l-67 33 11 10c1,1 13,9 15,11 25,17 11,10 36,19l74 32c25,-12 47,-25 67,-37 -35,-25 -54,-21 -64,-28 -26,-17 -15,2 1,-14l-20 -11 6 -10 0 -7c-26,9 -29,10 -59,2z"/>
  <path class="fil0" d="M1110 4124c5,-26 -38,4 35,-32 -12,-18 5,-3 -18,-21 -6,-4 -10,-5 -16,-9 -13,-9 -16,-13 -26,-20 -25,-9 -11,-2 -36,-19 -2,-2 -14,-10 -15,-11l-11 -10 -23 11 12 141c35,-15 54,-52 104,-67 -12,29 2,11 -23,32l17 5z"/>
  <path class="fil4" d="M3544 846l92 -316c-23,11 -5,-5 -26,16l-46 55c-28,31 -5,19 -67,75 9,-56 39,-103 38,-163l2 -25c-14,37 -26,90 -38,132 -14,48 -29,75 -44,117 25,-11 71,-63 79,-74 7,-9 12,-19 16,-25l57 -62c-7,47 -27,94 -39,140 -9,33 -42,102 -24,130z"/>
  <path class="fil0" d="M2408 1941c-6,22 5,18 23,21 -6,-27 -4,-47 19,-55 39,-15 16,15 65,-2 5,-8 -1,-5 11,-14 6,-4 16,-9 23,-12 18,-39 93,-74 68,-134l-106 97c-16,17 -79,58 -103,99z"/>
  <path class="fil1" d="M2042 1953l172 12c-24,-36 -32,-43 -84,-56 -45,-11 -86,-25 -132,-38 16,43 26,57 44,82z"/>
  <path class="fil0" d="M5454 2236c44,33 22,39 5,51l-5 -51zm-27 131c-52,-38 -4,-60 -55,-62l22 48 -62 31c11,-35 15,-31 28,-58 -29,15 -42,38 -42,77 37,-4 34,-22 73,-29 2,59 -27,42 -51,84 66,-19 37,-47 84,-74 46,-26 20,-34 63,-105 22,13 11,16 37,20l-30 -46c-12,-18 -27,-30 -50,-35 -24,60 34,92 -17,149z"/>
  <path class="fil4" d="M2180 4539c-13,-22 -62,-47 -86,-57l142 50c-35,-32 -119,-64 -179,-65 9,-23 -8,-5 22,-25 78,-53 87,1 130,-22 -23,-22 -30,-27 -59,-31l-8 13c-34,0 -63,15 -91,38 -30,26 -11,65 -3,95l16 -36c0,-2 1,-4 2,-7 24,14 44,18 60,28 50,33 46,46 54,19z"/>
  <path class="fil0" d="M3541 1442l101 -33 -2 -27 -2 -38c-48,19 -122,67 -160,102 -12,10 -16,11 -30,21 -31,21 -27,30 -49,48l142 -73z"/>
  <path class="fil3" d="M5757 3167l0 -234c-21,24 -65,131 -69,169 31,22 47,49 69,65z"/>
  <path class="fil3" d="M3806 3204c27,6 62,13 95,3 36,-12 43,-23 47,-62 -50,-18 -149,-21 -142,59z"/>
  <path class="fil1" d="M3435 4140c11,110 -48,170 -95,140 -42,-28 -6,-151 58,-172l37 32zm-94 161c68,5 91,-17 105,-77 11,-49 10,-109 -28,-125 -84,-34 -152,118 -77,202z"/>
  <path class="fil4" d="M3301 2431c44,-14 102,-41 154,-60 55,-20 115,-31 172,-48 80,-23 96,-25 140,-80 31,-37 76,-80 99,-114 -46,53 -75,58 -104,100 -69,100 -312,97 -441,186l-20 16z"/>
  <path class="fil1" d="M1188 3802l-18 -1c-32,39 -138,-1 -158,138 18,-10 34,-22 51,-30 77,-36 82,-36 125,-107z"/>
  <path class="fil3" d="M2585 4284c-5,-19 -7,-16 -9,-20 -2,41 6,84 -21,109 -6,-50 -1,-107 -10,-157 -11,-56 -14,-92 -16,-153 -15,66 -7,259 3,331 59,2 61,-38 56,-88 -1,-7 -2,-15 -3,-22z"/>
  <path class="fil7" d="M1193 3675c23,-15 -6,-3 24,-27 -10,-9 -8,-5 -15,-23 21,8 -4,11 22,5 31,-8 13,-8 21,-15 55,48 50,9 50,8 -13,-22 -63,-42 -85,-59l-33 -9c-14,9 -23,17 -35,26 3,7 49,91 51,94z"/>
  <path class="fil4" d="M5285 4892l23 -23c13,-15 12,-14 23,-29 78,-104 181,-104 311,-197 44,-32 73,-63 115,-91l0 -18c-43,27 -64,52 -111,88 -35,27 -86,55 -133,78 -50,25 -99,43 -139,73 -19,14 -82,92 -89,119z"/>
  <path class="fil1" d="M3289 2418c14,-63 24,-192 23,-259 -1,-46 -14,-178 -29,-226l-16 -30c10,88 26,156 28,248 2,77 -21,203 -6,267z"/>
  <path class="fil4" d="M1149 3967l0 7c14,-17 98,-78 119,-89l4 -23c98,44 99,116 134,145l-14 -62c-30,-25 -17,-31 -59,-71 -22,-20 -66,-30 -83,-52l-37 -2c11,22 -1,7 24,23l25 20c-53,41 -99,69 -113,104z"/>
  <path class="fil3" d="M5510 3133c34,17 55,35 84,49l22 -66c-26,-22 -46,-45 -79,-58l-27 75z"/>
  <path class="fil3" d="M5757 2901l0 -80c-15,16 -107,216 -94,255 38,-16 16,-15 47,-83l32 -70c7,-12 1,-4 7,-12l8 -10z"/>
  <path class="fil3" d="M5631 3210c9,27 50,69 76,95l29 -64c-27,-17 -26,-19 -40,-39 -19,-26 -21,-20 -38,-39l-27 47z"/>
  <path class="fil4" d="M3724 3552c77,-13 120,-26 205,-30 125,-7 139,44 185,17 -106,-33 -195,-48 -310,-23 -49,10 -61,9 -80,36z"/>
  <path class="fil1" d="M3827 3959c-6,-25 -34,-57 -49,-83 -19,-30 -32,-48 -50,-77 -16,-25 -30,-62 -42,-93 -15,-39 -14,-64 -19,-82 -4,-14 -5,-13 -10,-19 2,146 57,202 112,288 11,18 16,25 28,39l30 27z"/>
  <path class="fil4" d="M3806 3204c-7,-80 92,-77 142,-59 -4,39 -11,50 -47,62 -33,10 -68,3 -95,-3zm-18 -6c60,45 145,38 175,-31 -10,-46 -56,-59 -105,-46 -50,14 -68,27 -70,77z"/>
  <path class="fil8" d="M4420 4727c-1,-78 15,-142 7,-224 -16,41 -32,212 -24,255 32,-5 56,15 30,-100l-13 69z"/>
  <path class="fil3" d="M5604 2733c12,9 23,-17 -4,56l-60 186c17,-13 9,18 36,-66 11,-32 9,-46 29,-64 3,-36 37,-128 58,-152l-24 -23c-28,24 -20,26 -6,56l-29 7z"/>
  <path class="fil4" d="M3564 4209c48,31 168,56 216,11 23,-21 80,-137 85,-185l-16 26c-110,236 -100,168 -285,148z"/>
  <path class="fil1" d="M828 3440c20,21 8,-23 16,31 7,51 -45,105 81,235l35 37c-63,-80 -104,-205 -124,-319l-8 16z"/>
  <path class="fil3" d="M0 5213c81,7 150,17 212,-32 -104,12 -113,27 -212,-17l0 49z"/>
  <path class="fil4" d="M2617 1745c25,60 -50,95 -68,134 36,-7 7,-4 19,10 -40,15 -21,11 -47,39 -20,21 -32,18 -49,45l176 -143c7,-3 17,-7 24,-13 15,-13 7,-5 13,-22 -41,12 -71,53 -112,78 11,-19 11,-18 28,-35 32,-33 46,-82 32,-108 -35,11 -8,-3 -16,15z"/>
  <path class="fil4" d="M2605 1495c-26,-49 -12,32 -75,-131 -13,-35 -50,-123 -72,-141 -1,37 43,105 59,146 21,58 25,110 88,126z"/>
  <path class="fil8" d="M4777 3673c-5,-73 34,-130 30,-209 -12,28 -29,90 -37,122 -10,44 -34,99 19,104 11,-19 18,-31 17,-91l-29 74z"/>
  <path class="fil4" d="M1352 4430c-5,44 -41,59 -76,80 -28,16 -15,-1 -36,33 41,-12 97,-43 127,-76 16,-17 16,-16 35,-31 -52,43 -25,16 -39,-16 11,-10 18,-3 24,-4 7,-23 19,-41 10,-62 -18,16 -40,61 -45,76z"/>
  <path class="fil3" d="M0 5512l122 0c-19,-11 -48,-26 -62,-34 -14,-9 -14,-12 -29,-21 -23,-14 -10,0 -31,-21l0 76z"/>
  <path class="fil7" d="M1210 3564c47,14 81,53 125,57l7 -49c-30,-1 -40,-4 -69,-10 -18,-4 -66,-19 -63,2z"/>
  <path class="fil3" d="M3104 1537l23 1 -6 20 18 -6c-15,-77 -17,-121 -57,-128 -32,45 25,64 22,113z"/>
  <path class="fil4" d="M3891 4284l0 -7 -107 47c5,155 -59,156 -83,198 96,-37 78,-89 104,-192l86 -46z"/>
  <path class="fil2" d="M2362 2277c17,22 39,17 67,-1 26,-16 43,-36 48,-60l-11 -11c-14,36 6,8 -25,23 -24,12 -57,43 -81,18l2 31z"/>
  <path class="fil3" d="M5613 3030c-25,-13 -22,-19 -50,-32l-21 44c21,9 68,41 80,52l14 -29c-12,-11 -14,-5 -23,-35z"/>
  <path class="fil3" d="M5757 3199l0 -13c-16,-9 -5,2 -21,-15 -23,-26 -15,-38 -55,-60l-14 20c16,37 44,65 73,91l17 -23z"/>
  <path class="fil4" d="M1085 4042c10,7 13,11 26,20 6,4 10,5 16,9 23,18 6,3 18,21 -73,36 -30,6 -35,32 27,-10 19,-7 38,-22 6,-5 5,-5 14,-10l95 -58 -94 -39c-16,16 -27,-3 -1,14 10,7 29,3 64,28 -20,12 -42,25 -67,37l-74 -32z"/>
  <path class="fil0" d="M5286 2175l-13 40c55,-2 40,-29 93,-28 -16,50 -45,37 -63,78 40,-12 66,-43 82,-88 -43,-11 -54,4 -92,22 4,-31 4,-22 26,-47l15 -21c-30,7 -20,-3 -44,38 -1,1 -3,4 -4,6z"/>
  <path class="fil8" d="M2968 5183c-1,-3 -3,-3 -4,-5 1,29 7,54 10,85 6,93 7,58 21,71 53,-20 27,-111 19,-127 -14,33 5,57 -15,104l-31 -128z"/>
  <path class="fil9" d="M3873 3607c-6,57 -32,115 30,132 23,-29 20,-79 11,-119l-16 101c-24,-27 -8,-72 -25,-114z"/>
  <path class="fil1" d="M4177 3311c28,-70 71,-192 5,-254 4,65 37,55 17,134l-28 100c-3,20 -1,9 6,20z"/>
  <path class="fil8" d="M3068 3795c-18,-43 7,-95 14,-137 -32,40 -42,99 -32,158 39,-6 48,-5 49,-87 -5,7 -2,-2 -11,20l-20 46z"/>
  <path class="fil1" d="M1521 4105c2,-1 32,2 -21,-42 -19,-16 -21,-27 -36,-49 -65,-96 -59,-92 -67,-71 17,19 40,66 53,85 23,33 57,56 71,77z"/>
  <path class="fil7" d="M4063 3081c32,-8 19,11 29,-29 5,-20 3,-33 3,-53l-13 35c-5,-45 -5,-67 -26,-98 1,33 1,129 7,145z"/>
  <path class="fil1" d="M4598 4574c9,-64 -22,-193 -48,-244 -3,26 26,139 34,187 1,9 2,22 3,30l11 27z"/>
  <path class="fil0" d="M2421 1438c30,-30 12,-69 3,-114l-5 82c-16,-28 -16,-77 -19,-117 -3,23 -6,58 -7,83 -2,39 -5,55 28,66z"/>
  <path class="fil4" d="M3599 4740c25,-4 43,-18 59,-32 46,-46 95,-62 66,-134 -1,-3 -8,-16 -9,-19l2 80c-37,23 -32,32 -59,56l-49 35c-14,13 -3,2 -10,14z"/>
  <path class="fil0" d="M1998 1625c-1,42 -9,160 45,149 14,-45 -2,-49 -7,-85l-9 69 -29 -133z"/>
  <path class="fil3" d="M3092 1570l-16 -107c-19,-43 1,-17 -26,-19 -12,14 -22,-22 10,68 9,26 13,54 32,58z"/>
  <path class="fil3" d="M1253 4427c30,-14 20,20 32,-26 0,-3 -7,-42 -7,-46l-9 45c-16,-50 2,-49 -23,-86 -6,55 -9,67 7,113z"/>
  <path class="fil4" d="M2761 1636c-12,-27 -35,-39 -64,-58 -26,-17 -54,-36 -88,-39 11,17 132,88 152,97z"/>
  <path class="fil1" d="M2243 1850c15,-17 1,14 16,-24 1,-4 3,-15 4,-21 12,-55 24,-66 41,-114 -21,13 2,-11 -20,17 -27,33 -39,102 -41,142z"/>
  <path class="fil9" d="M1907 3871c-5,-41 3,-110 -17,-147 -3,37 -18,140 17,147z"/>
  <path class="fil1" d="M1550 4107c33,21 24,31 69,45l-19 -30c-40,-29 -53,-36 -82,-76 -17,12 -12,-5 -4,17 2,4 9,13 11,16 12,15 14,15 25,28z"/>
  <path class="fil8" d="M1892 4172l-6 -60c-4,6 -14,21 -14,47 0,42 -3,32 29,30 18,-33 11,-37 1,-84l-10 67z"/>
  <path class="fil4" d="M2431 1962l17 -4 -9 -28 40 -17c-1,4 -5,4 -6,10 -1,3 -10,11 -11,12 -14,23 -14,-16 -1,8 17,-3 5,5 30,-11 5,-3 11,-8 14,-11 13,-14 2,-1 10,-16 -49,17 -26,-13 -65,2 -23,8 -25,28 -19,55z"/>
  <path class="fil3" d="M5757 3318l0 -51 -14 -5c-16,38 -35,54 -11,82l25 -26z"/>
  <path class="fil1" d="M2627 2246l4 13c-23,22 -18,25 -37,51 39,2 17,13 39,-34l54 -114 -60 84z"/>
  <path class="fil7" d="M2852 2207c-1,-21 3,-16 -3,-34 -12,-36 -9,-16 -19,-28 1,42 -3,75 40,81 9,-25 3,-38 -2,-59l-16 40z"/>
  <path class="fil4" d="M4165 3006l-9 7c-1,1 -3,3 -4,4l-16 35c-39,95 -52,86 -82,142 21,-15 22,-21 38,-42 24,-30 66,-113 73,-146z"/>
  <path class="fil3" d="M5631 3210c9,-47 29,-50 -1,-76 -6,8 -15,23 -20,38 -11,36 -8,31 21,38z"/>
  <path class="fil8" d="M4781 2457c25,-8 31,-12 53,-27 8,-5 14,-9 21,-13l26 -20c-36,5 -74,29 -95,43 -23,0 -1,-2 -5,17z"/>
  <path class="fil0" d="M2610 2263c-21,21 -34,25 -62,42l0 5 33 7c3,-25 -3,-10 13,-7 19,-26 14,-29 37,-51l-4 -13c0,17 16,15 -2,15 0,14 2,9 -15,2z"/>
  <path class="fil4" d="M1318 4221c50,-6 98,-14 136,-32 -13,-4 -109,8 -136,32z"/>
  <path class="fil4" d="M2653 1831c0,38 8,14 27,4l66 -63 -93 59z"/>
  <path class="fil2" d="M2259 2014l-15 -23c-31,-2 -52,-5 -73,16l14 14c39,-19 29,-33 74,-7z"/>
  <path class="fil8" d="M2702 3963c12,-14 30,-26 13,-59l-12 43c-21,6 -20,1 -34,2 -37,2 6,-17 -24,13l57 1z"/>
  <path class="fil1" d="M2548 2305c28,-17 41,-21 62,-42 -36,7 -25,15 -54,23 -25,7 -27,-2 -54,18l46 1z"/>
  <path class="fil9" d="M3985 3616c-4,-16 1,-21 8,-32 -59,25 3,93 35,31 -29,12 -14,15 -43,1z"/>
  <path class="fil2" d="M4009 5512l18 0c-12,-39 -46,-67 -62,-99 9,34 32,63 44,99z"/>
  <path class="fil3" d="M5643 3128c25,-15 33,-14 13,-47 -9,6 -10,-15 -17,19 -4,17 1,16 4,28z"/>
  <path class="fil1" d="M2581 2317l-33 -7c-6,4 -44,-10 1,16 8,5 18,6 25,8 10,-6 9,12 7,-17z"/>
  <polygon class="fil2" points="2140,2016 2173,1978 2121,1994 "/>
  <path class="fil1" d="M1336 4233c18,8 22,6 52,0 25,-5 41,-9 58,-18l-110 18z"/>
  <path class="fil1" d="M2448 1958l13 -15c-13,-24 -13,15 1,-8 1,-1 10,-9 11,-12 1,-6 5,-6 6,-10l-40 17 9 28z"/>
  <path class="fil10" d="M2064 3717l-48 26c-16,16 1,-8 -12,21 34,-18 40,-19 60,-47z"/>
  <path class="fil9" d="M5519 3013l9 15c19,-17 15,-18 21,-47 -34,23 -8,1 -30,32z"/>
  <path class="fil8" d="M2763 3856c-29,29 -26,13 -28,13 -6,1 -5,-19 -11,19 40,-1 31,3 39,-32z"/>
  <path class="fil8" d="M3320 4527c-15,8 -9,-5 -28,28 -8,13 -10,18 -15,31 16,-20 33,-28 43,-59z"/>
  <path class="fil9" d="M1637 4713c18,18 25,19 46,1l-32 -7 -14 6z"/>
  <path class="fil1" d="M4190 2973c15,-9 6,3 23,-22 2,-3 10,-19 13,-25 -20,12 -21,7 -36,47z"/>
  <path class="fil2" d="M5466 3191c12,-12 6,4 20,-26 4,-8 4,-15 6,-23 -22,12 -19,21 -26,49z"/>
  <path class="fil4" d="M2685 1795c36,-7 22,-1 36,-26 -7,3 -22,7 -27,11 -18,13 -1,-2 -9,15z"/>
  <path class="fil1" d="M3320 4527c14,-3 1,11 18,-13 12,-18 1,-4 7,-20 -16,6 -9,0 -20,16 -13,19 -2,6 -5,17z"/>
  <polygon class="fil10" points="3121,1558 3127,1538 3104,1537 3106,1557 "/>
  <path class="fil3" d="M3891 4277l0 7c31,-11 24,-10 45,-36l-45 29z"/>
  <path class="fil4" d="M4165 3006c13,-9 0,10 18,-17 12,-16 2,-3 7,-16 -13,4 -3,-9 -18,13 -18,25 0,-3 -7,20z"/>
  <path class="fil4" d="M2515 1905c16,-5 -1,8 19,-6 25,-18 8,-2 15,-20 -7,3 -17,8 -23,12 -12,9 -6,6 -11,14z"/>
  <polygon class="fil3" points="5757,3392 5757,3344 5744,3361 "/>
  <path class="fil7" d="M2089 1765c-1,-3 -3,-4 -6,-6l8 33 32 -38 -24 19c-3,1 -7,8 -10,-8z"/>
  <path class="fil1" d="M5285 4892c-2,2 -5,1 -6,4l-22 37c21,-14 4,5 17,-14 2,-2 9,-22 11,-27z"/>
  <path class="fil3" d="M4379 2337l-11 -3c-9,15 -8,14 0,25l11 -22z"/>
  <path class="fil8" d="M4030 3217c-37,18 -19,1 -23,23 25,-12 4,5 23,-23z"/>
  <path class="fil11" d="M2489 2253l10 -30c-7,6 -11,-2 -14,15 -5,23 -7,-1 4,15z"/>
  <path class="fil1" d="M4757 2473c33,-10 -8,11 13,-5 12,-8 8,-7 11,-11l-16 1c-29,3 1,0 -8,15z"/>
  <path class="fil8" d="M2140 3745l27 -18c-50,3 -19,0 -27,18z"/>
  <path class="fil4" d="M5698 3420c-2,1 -5,0 -5,3l-15 26c15,-11 11,8 20,-29z"/>
  <path class="fil1" d="M1268 3885l40 29c-11,-15 2,-12 -40,-29z"/>
  <path class="fil2" d="M2064 3717l19 -1 -8 -14c-29,11 1,1 -11,15z"/>
  <path class="fil8" d="M3827 3959l17 25c-7,-50 -2,-15 -17,-25z"/>
  <path class="fil1" d="M3599 4740l-25 18c53,-11 14,0 25,-18z"/>
 </g>
</svg>
