<?xml version="1.0" encoding="UTF-8"?>
<svg version="1.1" viewBox="0 0 512 512" xmlns="http://www.w3.org/2000/svg" xmlns:xlink="http://www.w3.org/1999/xlink">
    <!--Generated by IJSVG (https://github.com/iconjar/IJSVG)-->
    <path d="M256,64c-106,0 -192,86 -192,192c0,106.1 86,192 192,192c106,0 192,-85.9 192,-192c0,-106 -86,-192 -192,-192Zm121.9,88.5c21.6,25.4 35.3,57.6 37.7,92.9c-34.6,-1.8 -76,-1.8 -109.2,1.3c-4.2,-10.6 -8.5,-21 -13.2,-31c38.3,-16.6 67.8,-38.4 84.7,-63.2Zm-121.9,-56.5c38.8,0 74.4,13.8 102.1,36.8c-17.4,22 -44.7,41.1 -78.7,55.6c-18.6,-34.4 -40,-64 -62.8,-87.3c12.7,-3.2 25.8,-5.1 39.4,-5.1Zm-72.4,17.5c23.1,23 44.8,52.3 63.8,86.6c-36.1,11 -77.5,17.3 -121.7,17.3c-8.4,0 -16.6,-0.3 -24.7,-0.8c11.5,-45.1 42,-82.5 82.6,-103.1Zm-87.3,134.9c9.1,0.4 18.3,0.6 27.6,0.5c50.4,-0.6 97.3,-8.5 137.6,-21.4c3.8,7.9 7.4,16 10.8,24.3c-5.5,1.3 -10.4,2.7 -14.3,4.3c-55.1,23.1 -98.5,60.4 -122,105.5c-24.8,-28.2 -40,-65.1 -40,-105.6c0,-2.6 0.1,-5.1 0.3,-7.6Zm159.7,167.6c-37,0 -71,-12.6 -98.1,-33.7c21.3,-42.2 59.3,-77.1 107.2,-98.8c4.5,-2.1 10.5,-3.8 17.4,-5.3c5.7,15.8 10.8,32.2 15.3,49.2c6.9,26.5 11.8,52.7 14.8,78.1c-17.6,6.7 -36.6,10.5 -56.6,10.5Zm86.5,-25.5c-3,-25.7 -7.9,-52.1 -14.9,-78.9c-3.4,-13 -7.3,-25.6 -11.5,-37.9c31.4,-2.6 69,-2.2 98.9,0c-5.4,49.1 -33,91.3 -72.5,116.8Z" fill="#8539BE"></path>
</svg>