<?xml version="1.0" encoding="UTF-8"?>
<svg version="1.1" viewBox="0 0 24 24" xmlns="http://www.w3.org/2000/svg" xmlns:xlink="http://www.w3.org/1999/xlink">
    <!--Generated by IJSVG (https://github.com/iconjar/IJSVG)-->
    <g fill="#8539BE">
        <path opacity="0" d="M0,0h24v24h-24Z" transform="matrix(6.12323e-17,1,-1,6.12323e-17,24,-7.34788e-16)"></path>
        <path d="M19,11h-11.86l3.63,-4.36l5.48864e-09,-6.60352e-09c0.353462,-0.425259 0.295259,-1.05654 -0.13,-1.41c-0.425259,-0.353462 -1.05654,-0.295259 -1.41,0.13c-6.35783e-09,7.64926e-09 -1.27157e-08,1.52985e-08 -1.90735e-08,2.29478e-08l-5,6l-1.27366e-08,1.80695e-08c-0.0336393,0.0477243 -0.0637206,0.0978597 -0.09,0.15c0,0.05 0,0.08 -0.07,0.13l5.70073e-08,-1.44207e-07c-0.0453265,0.114659 -0.0690589,0.236711 -0.07,0.36l1.32145e-08,1.73093e-06c0.000941335,0.123289 0.0246739,0.245341 0.0700006,0.36c0,0.05 0,0.08 0.07,0.13l1.58126e-10,3.13735e-10c0.0262794,0.0521403 0.0563607,0.102276 0.09,0.15l5,6l6.23011e-09,7.47977e-09c0.190357,0.228539 0.472568,0.360482 0.769999,0.359999l4.74208e-08,9.26512e-11c0.233652,0.000456502 0.460088,-0.0809189 0.64,-0.23l4.1939e-08,-3.47699e-08c0.42517,-0.35249 0.484088,-0.982908 0.131598,-1.40808c-0.000531867,-0.000641532 -0.00106454,-0.0012824 -0.00159801,-0.0019226l-3.63,-4.36h11.86l-4.37114e-08,-1.77636e-15c0.552285,2.41411e-08 1,-0.447715 1,-1c2.41411e-08,-0.552285 -0.447715,-1 -1,-1Z"></path>
    </g>
</svg>