<!DOCTYPE svg PUBLIC "-//W3C//DTD SVG 1.1//EN" "http://www.w3.org/Graphics/SVG/1.1/DTD/svg11.dtd">
<svg xmlns="http://www.w3.org/2000/svg" viewBox="0 0 736 500">
<path fill="#f7d50e" stroke="#f7d50e" d="M589.452 31.325c-1.624.528-4.146 1.796-5.606 2.818-1.46 1.021-3.823 1.857-5.25 1.857-1.428 0-2.596.354-2.596.787 0 .433-1.004.863-2.231.955-1.227.093-2.855.976-3.618 1.963-1.26 1.629-1.329 1.539-.747-.971.543-2.34.243-2.918-1.946-3.75-2.986-1.135-6.458.232-6.458 2.543 0 .801-.934 2.022-2.076 2.715-1.142.692-2.857 2.833-3.811 4.758C551.67 51.95 547 58.342 547 56.107c0-2.061-3.323-2.04-5.12.031-1.481 1.709-1.903 3.884-1.991 10.265-.149 10.931.007 12.719 1.345 15.388.932 1.86.802 2.878-.687 5.398-1.117 1.892-1.321 2.789-.521 2.295.918-.567 1.142-.365.744.674-.33.858.264 2.007 1.406 2.72 1.6.999 1.744 1.513.758 2.702-.671.808-1.442 1.245-1.715.972-.273-.273-1.819.616-3.435 1.976-1.615 1.36-3.79 2.472-4.832 2.472-1.042 0-4.283 1.056-7.203 2.347-2.919 1.291-6.932 2.652-8.917 3.025-4.372.82-5.42 3.046-6.248 13.272-.478 5.911-.309 7.248.982 7.743.859.329 1.281 1.052.938 1.606-.342.554-.242 1.007.221 1.007.464 0 1.625 1.323 2.58 2.939.955 1.617 2.718 3.251 3.919 3.632 1.2.381 2.798 1.308 3.551 2.061.752.752 1.9 1.368 2.55 1.368 3.101 0 15.312-4.177 16.358-5.596 2.108-2.857 3.146-.609 2.583 5.596-.357 3.939-.176 6 .528 6 .589 0 1.322.787 1.628 1.75.306.963 1.63 2.908 2.943 4.323 3.118 3.36 4.254 6.926 2.544 7.983-.922.57-.513 1.005 1.393 1.484 3.472.871 3.481 3.256.034 8.73-3.43 5.447-4.516 6.224-12.336 8.831-3.575 1.192-6.95 2.432-7.5 2.756-.55.325-1.45.626-2 .67-2.58.206-7.148 1.896-8.5 3.145-3.361 3.105-10.639 7.293-12.703 7.31-5.558.046-8.824 2.683-9.806 7.917-.364 1.941-2.424 5.742-4.577 8.446-4.309 5.412-4.751 8.032-2.453 14.543.803 2.277 1.43 4.246 1.394 4.376-.037.13.493 2.261 1.176 4.736.684 2.475 1.257 5.063 1.273 5.75.016.688.404 1.25.863 1.25.458 0 .833.654.833 1.453 0 2.23 13.79 7.949 16.582 6.877.741-.284 2.6.366 4.133 1.445 4.323 3.046 6.96 3.493 12.393 2.101 5.168-1.325 7.415-.403 6.273 2.574-.565 1.472 4.15 15.905 6.237 19.089 2.341 3.573 6.787 3.31 10.456-.618 3.581-3.834 4.896-8.435 4.98-17.421.036-3.85.437-9.25.891-12 .619-3.747.436-5.978-.73-8.903-1.684-4.227-1.65-4.29 4.41-8.355 8.076-5.416 12.488-6.268 14.359-2.772.727 1.358 3.053 3.67 5.169 5.136 2.116 1.466 3.847 3.478 3.847 4.471 0 .993.468 2.094 1.041 2.448.572.354.767 1.505.432 2.559-.334 1.054-.167 1.916.372 1.916.538 0 1.3 1.913 1.692 4.25.712 4.249 5.933 10.125 10.633 11.968 1.006.395 1.83 1.674 1.83 2.842 0 1.169.9 3.269 2 4.667 1.1 1.399 2.004 3.27 2.01 4.158.005.888 1.58 3.591 3.5 6.006 2.446 3.077 3.49 5.411 3.49 7.799 0 3.465 2.408 9.31 3.835 9.31.43 0 1.656.667 2.724 1.483 1.728 1.321-1.621 1.489-30.559 1.536-32.19.052-43 .547-43 1.972 0 .405-1.753 1.952-3.896 3.437-5.495 3.808-5.426 2.729-5.238 81.572.151 63.735.304 69.604 1.841 70.75 1.217.908 7.486 1.25 22.927 1.25 20.66 0 21.295-.06 22.769-2.165 1.317-1.88 1.519-10.532 1.531-65.554.007-34.863.277-63.813.599-64.334.862-1.395 4.462-1.153 4.5.303.018.688.04 28.475.048 61.75.014 56.175.418 66.955 2.591 69.038 1.047 1.003 40.072 1.436 43.009.477 1.199-.392 2.506-1.455 2.903-2.364 1.289-2.947 1.426-136.224.144-140.151-.629-1.925-1.184-3.725-1.235-4-.49-2.674-2.129-5.705-3.872-7.161-1.835-1.533-1.888-1.777-.394-1.806.95-.018 2.514 1.205 3.477 2.717.962 1.512 2.136 3.025 2.608 3.362.472.336.781.936.686 1.333-.293 1.223 9.052 10.555 10.57 10.555.788 0 1.432.81 1.432 1.8s.563 2.363 1.25 3.05c.688.687 1.257 1.565 1.265 1.95.008.385 1.133 1.912 2.5 3.393 5.852 6.343 6.985 7.805 6.991 9.021.006 1.195 2.732 3.241 8.934 6.706 4.758 2.658 11.552 2.644 13.423-.028 2.599-3.711 1.772-15.759-1.227-17.872-.406-.286-1.524-2.614-2.483-5.173-.96-2.56-2.849-5.845-4.199-7.302-2.233-2.41-2.625-3.267-2.369-5.183.047-.351-.31-.914-.794-1.25-1.673-1.163-4.998-7.739-5.649-11.169-.359-1.894-1.359-4.793-2.221-6.443-2.271-4.342-3.073-12.312-1.308-12.993 1.719-.663 1.758-8.76.062-12.822-.646-1.548-1.175-3.49-1.175-4.316 0-3.528-5.166-9.493-13.968-16.126-5.071-3.822-5.751-4.997-7.083-12.243-1.167-6.352-4.673-12-7.449-12-2.86 0-11.485-12.841-11.496-17.115-.002-.888-.904-2.759-2.004-4.158-1.1-1.398-2-3.526-2-4.728 0-1.309-.765-2.386-1.905-2.684-1.121-.294-2.759-2.554-3.981-5.496-1.288-3.098-2.844-5.197-4.095-5.524-1.111-.291-2.019-.857-2.019-1.259 0-.401-.9-1.768-2-3.036-1.738-2.004-2.155-3.444-1.955-6.75.025-.412.99-.598 2.144-.413 1.932.311 8.229-1.791 11.811-3.941 4.384-2.632 6.25-2.881 11.329-1.513 11.607 3.126 16.587 3.931 17.886 2.891.707-.566 2.41-1.374 3.785-1.795 1.375-.421 4.346-2.276 6.603-4.122 4.72-3.862 5.256-3.925 14.43-1.711 5.83 1.407 7.012 1.443 8.154.25 1.389-1.451 4.562-7.962 3.242-6.652-.412.409-1.378-.154-2.146-1.25-.813-1.161-2.533-1.994-4.117-1.994-1.497 0-3.609-.608-4.693-1.351-1.085-.743-3.266-1.665-4.846-2.05-2.721-.662-2.774-.774-1-2.117 1.03-.78 2.886-1.433 4.123-1.45 1.237-.018 2.25-.469 2.25-1.003 0-.535 1.452-1.348 3.228-1.808 4.232-1.097 7.438-6.182 5.676-9.004-2.324-3.72-4.507-4.352-9.14-2.648-2.345.862-5.614 1.916-7.264 2.341-1.65.425-4.377 1.486-6.059 2.358-1.873.971-3.592 1.256-4.434.736-1.437-.888-.31-2.885 6.999-12.403 1.647-2.144 2.994-4.761 2.994-5.815 0-1.055.483-2.82 1.073-3.923 1.042-1.947-2.836-6.858-5.419-6.862-1.405-.002-6.654 3.369-6.654 4.274 0 .463-.52.522-1.155.13-.686-.425-.884-.277-.487.366.865 1.4-1.332 6.229-2.834 6.229-.636 0-2.167 1.8-3.404 4-4.148 7.38-6.334 5.22-6.775-6.693-.382-10.32-2.033-13.458-6.908-13.13-1.817.123-3.238.47-3.158.773.08.302-.394 1.522-1.053 2.71-.66 1.188-1.387 4.563-1.617 7.5-.485 6.213-2.63 7.283-3.738 1.864-.391-1.912-1.759-4.28-3.041-5.264a1568.12 1568.12 0 0 0-4.283-3.274c-1.075-.817-3.662-1.486-5.75-1.486-4.958 0-4.818-.664 1.611-7.627 3.385-3.665 5.601-7.039 5.921-9.014.282-1.736 1.965-6.167 3.74-9.847 2.916-6.047 3.131-7.108 2.238-11.011-.543-2.376-.625-4.967-.182-5.759.88-1.573 2.937-14.798 2.899-18.632-.052-5.085-5.772-6.162-11.024-2.074-3.384 2.634-9.008 5.077-10.113 4.394-.496-.306-1.171.147-1.501 1.007-.33.859-1.591 1.563-2.801 1.563-1.937 0-2.177-.483-1.997-4.007.177-3.472-.115-4.087-2.185-4.607-1.314-.329-2.207-.895-1.984-1.255.628-1.016-5.666-.879-8.967.194M57.761 295.514c-4.347 1.597-7.896 4.885-10.742 9.952-2.513 4.475-3.179 74.141-.752 78.67 6.2 11.566 7.997 12.286 31.733 12.714 11.233.203 20.03.785 20.75 1.374 2.036 1.663 1.746 27.649-.317 28.44-2.62 1.005-3.697-1.222-3.966-8.197-.14-3.66-.775-7.176-1.409-7.811-1.637-1.64-40.366-2.185-44.142-.621-3.927 1.626-4.589 4.764-3.896 18.465.7 13.847 1.8 16.717 8.073 21.066l4.233 2.934 37.351.285c41.519.316 42.82.165 49.13-5.719l4.27-3.981.928-10.293c2.311-25.632.88-49.392-3.242-53.816-6.289-6.751-8.804-7.429-28.763-7.755-10.175-.166-19.402-.751-20.504-1.299-1.929-.959-1.997-1.874-1.801-24.108.119-13.532.611-23.52 1.187-24.096 2.712-2.712 5.078 1.953 5.15 10.157.063 7.197.216 7.243 23.614 7.068 23.907-.179 24.354-.296 24.354-6.419 0-4.516 1.251-6.544 2.645-4.29.431.696.8 28.415.819 61.596.035 58.545.093 60.372 1.977 61.75 1.529 1.118 6.333 1.42 22.597 1.42 26.693 0 25.04 1.156 24.419-17.08-.539-15.852.115-19.363 3.608-19.367l2.435-.002.5 17.296c.437 15.106.721 17.42 2.248 18.273 3.451 1.929 40.654 1.618 43.918-.367l2.885-1.754-.276-72.435-.275-72.434-3-3.135c-7.436-7.771-5.55-7.47-48.362-7.708-36.515-.203-38.549-.118-42.25 1.77-6.384 3.257-9.187 8.802-9.7 19.193-.324 6.557-.778 8.75-1.81 8.75-.924 0-1.38-1.235-1.386-3.75-.028-13.937-3.082-19.884-12.492-24.32-5.235-2.468-73.187-2.822-79.739-.416m207.411.541L263 298.078v75.89c0 64.021.221 76.11 1.412 77.301 1.62 1.62 33.756 3.097 41.588 1.912 4.016-.608 4.629-1.058 5.697-4.181 1.5-4.386.937-150.044-.591-152.776-1.613-2.885-42.856-3.037-45.934-.169m58.135-1.357c-4.028.783-4.304 4.371-3.947 51.302.373 49.045.301 48.457 6.739 55.074 3.63 3.731 5.691 4.436 15.761 5.397 2.398.229 4.514.57 4.702.758.189.188.477 9.82.64 21.404.227 16.031.626 21.456 1.67 22.714 2.174 2.617 44.07 2.48 46.452-.153 1.383-1.527 1.676-5.028 1.905-22.746l.271-20.94 4.5-.783c13.989-2.435 18.791-5.503 20.894-13.352.799-2.979 1.753-79.576 1.184-95.002-.143-3.885-4.233-4.55-25.818-4.197-14.994.245-20.366.665-21.598 1.689-1.463 1.217-1.668 5.795-1.901 42.5-.261 41.108-.262 41.137-2.389 41.441-3.07.438-3.304-2.7-3.265-43.804.019-19.525.002-36.045-.036-36.711-.039-.666-1.056-2.129-2.26-3.25-2.059-1.919-3.344-2.031-21.75-1.903-10.758.075-20.548.328-21.754.562m120.693.043c-2.716.237-5.362 1.2-6.676 2.43-1.197 1.121-2.659 1.74-3.25 1.375-.591-.365-1.074-.018-1.074.773 0 .79-.639 1.966-1.419 2.614-3.29 2.73-3.734 13.333-3.405 81.282.303 62.425.439 66.829 2.107 68.497 2.244 2.243 41.7 2.161 45.141-.094 1.738-1.139 1.966-2.851 2.356-17.69.439-16.725 1.076-19.215 4.132-16.159 1.289 1.289 1.626 4.408 1.79 16.584.271 20.052-1.729 18.518 24.51 18.801 18.643.202 20.909.046 22.679-1.555 3.081-2.788 3.272-139.82.203-146.169-1.971-4.078-7.136-8.396-12.409-10.374-2.67-1.001-63.839-1.259-74.685-.315m-241.468 25.615c-1.372 1.005-1.529 5.331-1.297 35.644l.265 34.5 3.25.313c2.571.248 3.262-.065 3.308-1.5.3-9.317.391-61.137.114-64.619-.386-4.859-2.603-6.564-5.64-4.338m275.923.901c-.265.691-.364 16.547-.219 35.236.251 32.351.354 33.998 2.144 34.342 1.034.199 2.265-.245 2.735-.987 1.257-1.984 1.117-65.546-.15-67.914-1.169-2.184-3.781-2.576-4.51-.677" fill-rule="evenodd"/>
<path fill="#2b444c" stroke="#2b444c" d="M589.452 31.325c-1.624.528-4.146 1.796-5.606 2.818-1.46 1.021-3.823 1.857-5.25 1.857-1.428 0-2.596.354-2.596.787 0 .433-1.004.863-2.231.955-1.227.093-2.855.976-3.618 1.963-1.26 1.629-1.329 1.539-.747-.971.543-2.34.243-2.918-1.946-3.75-2.986-1.135-6.458.232-6.458 2.543 0 .801-.934 2.022-2.076 2.715-1.142.692-2.857 2.833-3.811 4.758C551.67 51.95 547 58.342 547 56.107c0-1.005-3.043-2.397-3.733-1.708-.593.594 5.984 10.601 6.967 10.601.421 0 .766-1.372.766-3.05 0-3.679 1.547-6.783 8.888-17.829l5.612-8.444.299 6.213.299 6.214 4.957-4.15c3.134-2.624 4.698-3.471 4.251-2.302-.679 1.775-.61 1.779 1.744.097C580.575 39.23 592.737 33 594.13 33c.772 0 .649.606-.354 1.75-.844.962-2.322 3.302-3.284 5.199l-1.75 3.45 2.854-1.87c3.653-2.394 5.829-4.518 7.199-7.029.849-1.555.962-.721.508 3.75L598.72 44h3.195c3.595 0 14.65-4.437 20.929-8.402L627 32.975l-.007 2.262c-.024 7.516-2.995 21.168-5.398 24.798-3.314 5.009-3.263 5.362.498 3.417 1.701-.88 3.316-1.376 3.589-1.103.587.587-7.265 14.275-8.697 15.16-1.863 1.152-1.002 2.631 1.136 1.953 3.052-.969-2.484 6.927-8.682 12.383-2.538 2.234-4.364 4.467-4.058 4.962.306.495-.667 1.449-2.162 2.119-6.335 2.84-7.578 4.09-5.553 5.581 1.588 1.169 2.137 1.066 4.097-.765 1.721-1.608 2.543-1.836 3.426-.953.685.685 1.605.805 2.237.291 1.673-1.359 8.22-2.923 9.273-2.215.521.349 1.237 1.423 1.593 2.385.355.963 1.559 1.75 2.677 1.75 2.161 0 2.199.064 2.455 4.146.206 3.289 4.361 7.814 7.195 7.837 2.33.019 3.349-3.549 3.37-11.799.013-4.904 1.416-8.184 3.501-8.184 1.971 0 2.858 5.679 2.284 14.624-.452 7.035-.337 7.575 2.008 9.419 5.002 3.935 6.135 3.195 15.839-10.346 3.671-5.124 6.152-7.695 7.224-7.488 3.083.593 2.736 6.694-.587 10.311-1 1.089-2.705 3.387-3.788 5.106-1.084 1.719-3.301 5.032-4.927 7.362-2.858 4.094-2.893 4.283-1.059 5.624 2.744 2.007 3.952 1.813 16.051-2.579 10.922-3.965 13.231-4.021 12.048-.294-.661 2.083-.996 2.283-12.991 7.771-9.844 4.503-9.041 6.107 4.908 9.801 6.052 1.603 9.101 2.897 9.307 3.951.318 1.623-3.089 3.3-4.691 2.31-.496-.307-3.859-1.178-7.472-1.935-6.136-1.286-6.681-1.254-8.262.493-.93 1.028-2.26 1.87-2.954 1.87-.693 0-2.163 1.237-3.266 2.75-2.532 3.474-13.206 3.977-22.069 1.041-7.252-2.402-8.543-2.293-14.845 1.264-6.352 3.585-12.748 3.863-12.748.554 0-1.04.9-2.38 2-2.978 6.893-3.745 6.856-3.705 5.066-5.48-1.55-1.537-1.98-1.305-6.218 3.349-4.423 4.858-4.535 5.142-3.959 10 .327 2.75.598 5.748.602 6.661.005.914 2.503 4.216 5.552 7.339 3.294 3.374 5.789 6.912 6.151 8.722.358 1.79 1.376 3.245 2.469 3.531 1.022.267 2.145 1.67 2.494 3.116.35 1.447 3.003 7.356 5.897 13.131 4.778 9.537 5.683 10.719 9.857 12.891 4.762 2.477 6.215 5.268 8.17 15.69.498 2.656 2.065 4.557 6.981 8.468 11.876 9.45 17.314 20.194 13.883 27.426-3.501 7.378 2.523 28.303 12.099 42.025 8.203 11.756 12.397 26.157 8.098 27.807-1.737.667-8.78-1.512-12.26-3.793-2.893-1.895-14.043-15.736-16.025-19.891-.872-1.83-2.897-4.102-4.499-5.048-1.603-.946-5.863-5.74-9.468-10.651-5.195-7.078-6.884-8.747-8.138-8.045-1.798 1.006-4.515.362-11.907-2.823-5.536-2.385-6.308-3.68-6.331-10.618-.011-3.258-.558-4.468-2.764-6.115-1.805-1.347-3.899-4.951-6.095-10.49-3.08-7.769-3.705-8.628-7.89-10.849-5.14-2.726-6.369-5.002-8.264-15.308-1.232-6.698-1.356-6.891-6.648-10.405-3.535-2.347-5.59-4.474-5.966-6.176-1.442-6.531-1.222-6.394-5.212-3.236-2.021 1.6-5.281 3.579-7.245 4.398-11.107 4.636-15.13 9.773-11.052 14.113 1.967 2.094 2.041 2.695 1.016 8.195-.609 3.264-.836 8.574-.504 11.799.628 6.102-1.369 12.745-5.054 16.817-3.809 4.209-8.873-3.995-10.107-16.373l-.729-7.308-4 .069c-2.2.038-6.362.433-9.25.879-4.82.743-5.25.649-5.25-1.146 0-1.628-1.134-2.162-6.75-3.179-14.993-2.717-13.733-1.689-17.726-14.477-4.273-13.689-4.304-14.688-.582-18.927 1.618-1.843 3.904-5.792 5.08-8.776 2.429-6.162 3.244-6.906 7.588-6.928 1.711-.008 4.783-1.15 6.828-2.537 7.824-5.31 24.887-12.478 29.702-12.478.984 0 2.271-.9 2.86-2s1.681-2 2.427-2 2.042-1.687 2.881-3.75c.839-2.062 2.463-4.533 3.609-5.49 2.715-2.268 2.627-3.351-.508-6.256-1.425-1.321-2.317-2.844-1.983-3.384.334-.541-1.65-4.004-4.409-7.695-4.85-6.487-5.017-6.934-5.017-13.377 0-7.256-1.587-10.804-4.355-9.742-.905.347-1.651 1.433-1.657 2.413-.017 2.447-6.725 6.744-8.382 5.369-.873-.724-1.884-.582-3.399.479-3.199 2.242-8.196-.629-13.626-7.829-2.654-3.52-2.791-4.163-2.132-9.99.848-7.497 1.744-8.748 6.266-8.748 1.908 0 4.566-.863 5.907-1.917 1.34-1.054 4.221-2.219 6.402-2.587 2.181-.369 4.219-1.081 4.53-1.583.31-.502 1.359-.913 2.331-.913.971 0 2.823-1.125 4.115-2.5 1.477-1.573 3.445-2.5 5.303-2.5h2.954l-4.378-4.062c-4.188-3.885-4.259-4.044-1.629-3.639 3.362.518 3.374.239.26-6.45-2.165-4.65-2.492-6.755-2.5-16.099-.009-9.847-.871-13.161-2.391-9.198-1.231 3.208-.827 22.142.519 24.297 1.126 1.803 1.046 2.57-.554 5.278-1.12 1.896-1.344 2.843-.558 2.357.918-.567 1.142-.365.744.674-.33.858.264 2.007 1.406 2.72 1.6.999 1.744 1.513.758 2.702-.671.808-1.442 1.245-1.715.972-.273-.273-1.819.616-3.435 1.976-1.615 1.36-3.79 2.472-4.832 2.472-1.042 0-4.283 1.056-7.203 2.347-2.919 1.291-6.932 2.652-8.917 3.025-4.372.82-5.42 3.046-6.248 13.272-.478 5.911-.309 7.248.982 7.743.859.329 1.281 1.052.938 1.606-.342.554-.242 1.007.221 1.007.464 0 1.625 1.323 2.58 2.939.955 1.617 2.718 3.251 3.919 3.632 1.2.381 2.798 1.308 3.551 2.061.752.752 1.9 1.368 2.55 1.368 3.101 0 15.312-4.177 16.358-5.596 2.108-2.857 3.146-.609 2.583 5.596-.357 3.939-.176 6 .528 6 .589 0 1.322.787 1.628 1.75.306.963 1.63 2.908 2.943 4.323 3.118 3.36 4.254 6.926 2.544 7.983-.922.57-.513 1.005 1.393 1.484 3.472.871 3.481 3.256.034 8.73-3.43 5.447-4.516 6.224-12.336 8.831-3.575 1.192-6.95 2.432-7.5 2.756-.55.325-1.45.626-2 .67-2.58.206-7.148 1.896-8.5 3.145-3.361 3.105-10.639 7.293-12.703 7.31-5.558.046-8.824 2.683-9.806 7.917-.364 1.941-2.424 5.742-4.577 8.446-4.309 5.412-4.751 8.032-2.453 14.543.803 2.277 1.43 4.246 1.394 4.376-.037.13.493 2.261 1.176 4.736.684 2.475 1.257 5.063 1.273 5.75.016.688.404 1.25.863 1.25.458 0 .833.654.833 1.453 0 2.23 13.79 7.949 16.582 6.877.741-.284 2.6.366 4.133 1.445 4.323 3.046 6.96 3.493 12.393 2.101 5.168-1.325 7.415-.403 6.273 2.574-.565 1.472 4.15 15.905 6.237 19.089 2.341 3.573 6.787 3.31 10.456-.618 3.581-3.834 4.896-8.435 4.98-17.421.036-3.85.437-9.25.891-12 .619-3.747.436-5.978-.73-8.903-1.684-4.227-1.65-4.29 4.41-8.355 8.076-5.416 12.488-6.268 14.359-2.772.727 1.358 3.053 3.67 5.169 5.136 2.116 1.466 3.847 3.478 3.847 4.471 0 .993.468 2.094 1.041 2.448.572.354.767 1.505.432 2.559-.334 1.054-.167 1.916.372 1.916.538 0 1.3 1.913 1.692 4.25.712 4.249 5.933 10.125 10.633 11.968 1.006.395 1.83 1.674 1.83 2.842 0 1.169.9 3.269 2 4.667 1.1 1.399 2.004 3.27 2.01 4.158.005.888 1.58 3.591 3.5 6.006 2.446 3.077 3.49 5.411 3.49 7.799 0 3.465 2.408 9.31 3.835 9.31.43 0 1.656.667 2.724 1.483 1.728 1.321-1.621 1.489-30.559 1.536-32.19.052-43 .547-43 1.972 0 .405-1.753 1.952-3.896 3.437-5.495 3.808-5.426 2.729-5.238 81.572.151 63.735.304 69.604 1.841 70.75 1.217.908 7.486 1.25 22.927 1.25 20.66 0 21.295-.06 22.769-2.165 1.317-1.88 1.519-10.532 1.531-65.554.007-34.863.277-63.813.599-64.334.862-1.395 4.462-1.153 4.5.303.018.688.04 28.475.048 61.75.014 56.175.418 66.955 2.591 69.038 1.047 1.003 40.072 1.436 43.009.477 1.199-.392 2.506-1.455 2.903-2.364 1.289-2.947 1.426-136.224.144-140.151-.629-1.925-1.184-3.725-1.235-4-.49-2.674-2.129-5.705-3.872-7.161-1.835-1.533-1.888-1.777-.394-1.806.95-.018 2.514 1.205 3.477 2.717.962 1.512 2.136 3.025 2.608 3.362.472.336.781.936.686 1.333-.293 1.223 9.052 10.555 10.57 10.555.788 0 1.432.81 1.432 1.8s.563 2.363 1.25 3.05c.688.687 1.257 1.565 1.265 1.95.008.385 1.133 1.912 2.5 3.393 5.852 6.343 6.985 7.805 6.991 9.021.006 1.195 2.732 3.241 8.934 6.706 4.758 2.658 11.552 2.644 13.423-.028 2.599-3.711 1.772-15.759-1.227-17.872-.406-.286-1.524-2.614-2.483-5.173-.96-2.56-2.849-5.845-4.199-7.302-2.233-2.41-2.625-3.267-2.369-5.183.047-.351-.31-.914-.794-1.25-1.673-1.163-4.998-7.739-5.649-11.169-.359-1.894-1.359-4.793-2.221-6.443-2.271-4.342-3.073-12.312-1.308-12.993 1.719-.663 1.758-8.76.062-12.822-.646-1.548-1.175-3.49-1.175-4.316 0-3.528-5.166-9.493-13.968-16.126-5.071-3.822-5.751-4.997-7.083-12.243-1.167-6.352-4.673-12-7.449-12-2.86 0-11.485-12.841-11.496-17.115-.002-.888-.904-2.759-2.004-4.158-1.1-1.398-2-3.526-2-4.728 0-1.309-.765-2.386-1.905-2.684-1.121-.294-2.759-2.554-3.981-5.496-1.288-3.098-2.844-5.197-4.095-5.524-1.111-.291-2.019-.857-2.019-1.259 0-.401-.9-1.768-2-3.036-1.738-2.004-2.155-3.444-1.955-6.75.025-.412.99-.598 2.144-.413 1.932.311 8.229-1.791 11.811-3.941 4.384-2.632 6.25-2.881 11.329-1.513 11.607 3.126 16.587 3.931 17.886 2.891.707-.566 2.41-1.374 3.785-1.795 1.375-.421 4.346-2.276 6.603-4.122 4.72-3.862 5.256-3.925 14.43-1.711 5.83 1.407 7.012 1.443 8.154.25 1.389-1.451 4.562-7.962 3.242-6.652-.412.409-1.378-.154-2.146-1.25-.813-1.161-2.533-1.994-4.117-1.994-1.497 0-3.609-.608-4.693-1.351-1.085-.743-3.266-1.665-4.846-2.05-2.721-.662-2.774-.774-1-2.117 1.03-.78 2.886-1.433 4.123-1.45 1.237-.018 2.25-.469 2.25-1.003 0-.535 1.452-1.348 3.228-1.808 4.232-1.097 7.438-6.182 5.676-9.004-2.324-3.72-4.507-4.352-9.14-2.648-2.345.862-5.614 1.916-7.264 2.341-1.65.425-4.377 1.486-6.059 2.358-1.873.971-3.592 1.256-4.434.736-1.437-.888-.31-2.885 6.999-12.403 1.647-2.144 2.994-4.761 2.994-5.815 0-1.055.483-2.82 1.073-3.923 1.042-1.947-2.836-6.858-5.419-6.862-1.405-.002-6.654 3.369-6.654 4.274 0 .463-.52.522-1.155.13-.686-.425-.884-.277-.487.366.865 1.4-1.332 6.229-2.834 6.229-.636 0-2.167 1.8-3.404 4-4.148 7.38-6.334 5.22-6.775-6.693-.382-10.32-2.033-13.458-6.908-13.13-1.817.123-3.238.47-3.158.773.08.302-.394 1.522-1.053 2.71-.66 1.188-1.387 4.563-1.617 7.5-.485 6.213-2.63 7.283-3.738 1.864-.391-1.912-1.759-4.28-3.041-5.264a1568.12 1568.12 0 0 0-4.283-3.274c-1.075-.817-3.662-1.486-5.75-1.486-4.958 0-4.818-.664 1.611-7.627 3.385-3.665 5.601-7.039 5.921-9.014.282-1.736 1.965-6.167 3.74-9.847 2.916-6.047 3.131-7.108 2.238-11.011-.543-2.376-.625-4.967-.182-5.759.88-1.573 2.937-14.798 2.899-18.632-.052-5.085-5.772-6.162-11.024-2.074-3.384 2.634-9.008 5.077-10.113 4.394-.496-.306-1.171.147-1.501 1.007-.33.859-1.591 1.563-2.801 1.563-1.937 0-2.177-.483-1.997-4.007.177-3.472-.115-4.087-2.185-4.607-1.314-.329-2.207-.895-1.984-1.255.628-1.016-5.666-.879-8.967.194M57.761 295.514c-4.347 1.597-7.896 4.885-10.742 9.952-2.513 4.475-3.179 74.141-.752 78.67 6.2 11.566 7.997 12.286 31.733 12.714 11.233.203 20.03.785 20.75 1.374 2.036 1.663 1.746 27.649-.317 28.44-2.62 1.005-3.697-1.222-3.966-8.197-.14-3.66-.775-7.176-1.409-7.811-1.637-1.64-40.366-2.185-44.142-.621-3.927 1.626-4.589 4.764-3.896 18.465.7 13.847 1.8 16.717 8.073 21.066l4.233 2.934 37.351.285c41.519.316 42.82.165 49.13-5.719l4.27-3.981.928-10.293c2.311-25.632.88-49.392-3.242-53.816-6.289-6.751-8.804-7.429-28.763-7.755-10.175-.166-19.402-.751-20.504-1.299-1.929-.959-1.997-1.874-1.801-24.108.119-13.532.611-23.52 1.187-24.096 2.712-2.712 5.078 1.953 5.15 10.157.063 7.197.216 7.243 23.614 7.068 23.907-.179 24.354-.296 24.354-6.419 0-4.516 1.251-6.544 2.645-4.29.431.696.8 28.415.819 61.596.035 58.545.093 60.372 1.977 61.75 1.529 1.118 6.333 1.42 22.597 1.42 26.693 0 25.04 1.156 24.419-17.08-.539-15.852.115-19.363 3.608-19.367l2.435-.002.5 17.296c.437 15.106.721 17.42 2.248 18.273 3.451 1.929 40.654 1.618 43.918-.367l2.885-1.754-.276-72.435-.275-72.434-3-3.135c-7.436-7.771-5.55-7.47-48.362-7.708-36.515-.203-38.549-.118-42.25 1.77-6.384 3.257-9.187 8.802-9.7 19.193-.324 6.557-.778 8.75-1.81 8.75-.924 0-1.38-1.235-1.386-3.75-.028-13.937-3.082-19.884-12.492-24.32-5.235-2.468-73.187-2.822-79.739-.416m207.411.541L263 298.078v75.89c0 64.021.221 76.11 1.412 77.301 1.62 1.62 33.756 3.097 41.588 1.912 4.016-.608 4.629-1.058 5.697-4.181 1.5-4.386.937-150.044-.591-152.776-1.613-2.885-42.856-3.037-45.934-.169m58.135-1.357c-4.028.783-4.304 4.371-3.947 51.302.373 49.045.301 48.457 6.739 55.074 3.63 3.731 5.691 4.436 15.761 5.397 2.398.229 4.514.57 4.702.758.189.188.477 9.82.64 21.404.227 16.031.626 21.456 1.67 22.714 2.174 2.617 44.07 2.48 46.452-.153 1.383-1.527 1.676-5.028 1.905-22.746l.271-20.94 4.5-.783c13.989-2.435 18.791-5.503 20.894-13.352.799-2.979 1.753-79.576 1.184-95.002-.143-3.885-4.233-4.55-25.818-4.197-14.994.245-20.366.665-21.598 1.689-1.463 1.217-1.668 5.795-1.901 42.5-.261 41.108-.262 41.137-2.389 41.441-3.07.438-3.304-2.7-3.265-43.804.019-19.525.002-36.045-.036-36.711-.039-.666-1.056-2.129-2.26-3.25-2.059-1.919-3.344-2.031-21.75-1.903-10.758.075-20.548.328-21.754.562m120.693.043c-2.716.237-5.362 1.2-6.676 2.43-1.197 1.121-2.659 1.74-3.25 1.375-.591-.365-1.074-.018-1.074.773 0 .79-.639 1.966-1.419 2.614-3.29 2.73-3.734 13.333-3.405 81.282.303 62.425.439 66.829 2.107 68.497 2.244 2.243 41.7 2.161 45.141-.094 1.738-1.139 1.966-2.851 2.356-17.69.439-16.725 1.076-19.215 4.132-16.159 1.289 1.289 1.626 4.408 1.79 16.584.271 20.052-1.729 18.518 24.51 18.801 18.643.202 20.909.046 22.679-1.555 3.081-2.788 3.272-139.82.203-146.169-1.971-4.078-7.136-8.396-12.409-10.374-2.67-1.001-63.839-1.259-74.685-.315m-385.519 3.653c-3.558 1.55-9.217 7.7-10.008 10.874-.305 1.228-.424 18.432-.264 38.232.325 40.195-.004 38.335 7.714 43.645 3.252 2.238 4.444 2.38 24 2.855 11.317.275 21.14.864 21.827 1.309.916.593 1.25 5.176 1.25 17.152v16.343l-3.037 1.059c-6.607 2.303-8.963-.98-8.963-12.488V412H48l.004 13.25c.004 14.813.786 17.2 7.255 22.134l3.43 2.616h77.241l3.586-3.148C145.935 441.216 146 440.866 146 412c0-29.052-.125-29.703-6.668-34.698l-3.67-2.802-21.053-.5-21.054-.5-1.279-2.5c-1.748-3.415-1.693-47.525.063-51.067.844-1.702 2.195-2.529 4.499-2.751 5.225-.505 6.162 1.006 6.162 9.94V335l8.75.176c4.813.096 14.484.209 21.493.25l12.744.074.006-13.602c.008-15.817-1.129-18.691-8.963-22.648-4.375-2.21-5.085-2.249-39.992-2.211-27.103.03-36.254.351-38.557 1.355m108.138-.378c-1.584.485-3.989 1.917-5.345 3.182-5.473 5.112-5.274 2.156-5.274 78.252V450h43v-35.815l5.585-.342c3.073-.189 5.773-.156 6 .074.228.229.415 8.441.415 18.25V450h43V308.296l-2.263-3.398c-4.791-7.194-5.905-7.376-46.237-7.58-19.8-.1-37.296.214-38.881.698M266 373.417c0 49.54.348 76.534.99 76.75.545.183 10.22.203 21.5.044l20.51-.29V297h-43v76.417m57-29.065v47.352l2.274 3.374c4.11 6.1 7.991 7.922 16.874 7.922H350v47h44v-47h7.614c9.152 0 14.044-2.268 17.268-8.004 2.074-3.69 2.118-4.747 2.118-50.882V297h-43v41.8c0 45.687.202 44.2-6 44.2s-6 1.487-6-44.2V297h-43v47.352m119.469-46.313c-3.642 1.087-9.312 6.4-9.973 9.344-.617 2.75-1.305 138.568-.713 140.867.411 1.596 2.283 1.75 21.334 1.75H474l.128-3.25c.07-1.788.183-9.978.25-18.202l.122-14.952 5.5.128c3.025.071 5.837.161 6.25.202.413.041.75 8.174.75 18.074v18h43v-70.032c0-78.34.321-74.741-7.096-79.652l-4.254-2.816-36.575-.183c-20.116-.101-37.939.224-39.606.722m109.012.336c-1.66.734-4.472 2.99-6.25 5.014L542 307.07V450h42v-64.809c0-72.557-.416-68.54 7.036-68.009l4.464.318.257 66.25.257 66.25H639.039l-.27-71.427c-.3-79.745.268-73.468-7.153-79.011-3.523-2.632-74.485-3.683-80.135-1.187m-351.814 19.292c-.367.366-.667 17.691-.667 38.5V394h12v-37.3c0-27.678-.31-37.61-1.2-38.5-1.265-1.265-8.995-1.672-10.133-.533m275.625 1.014c-.354.924-.678 18.136-.718 38.25L474.5 393.5l6.25.298 6.25.297v-37.347c0-27.715-.31-37.658-1.2-38.548-1.895-1.895-9.734-1.537-10.508.481m-272.76 1.675c-1.372 1.005-1.529 5.331-1.297 35.644l.265 34.5 3.25.313c2.571.248 3.262-.065 3.308-1.5.3-9.317.391-61.137.114-64.619-.386-4.859-2.603-6.564-5.64-4.338m275.923.901c-.265.691-.364 16.547-.219 35.236.251 32.351.354 33.998 2.144 34.342 1.034.199 2.265-.245 2.735-.987 1.257-1.984 1.117-65.546-.15-67.914-1.169-2.184-3.781-2.576-4.51-.677" fill-rule="evenodd"/>
</svg>