<!DOCTYPE svg PUBLIC "-//W3C//DTD SVG 1.1//EN" "http://www.w3.org/Graphics/SVG/1.1/DTD/svg11.dtd">
<svg xmlns="http://www.w3.org/2000/svg" viewBox="0 0 736 820">
<path fill="#d7261d" d="M344 177.982c-8.759.864-29.194 4.467-34.5 6.084-30.886 9.413-45.055 15.46-64.713 27.62C174.631 255.083 133.84 326.903 133.573 407.5c-.045 13.423-.463 22.286-1.073 22.735-.55.404-20.237.741-43.75.75L46 431v146h79.345c78.548 0 79.364.02 81.188 2.036 1.014 1.12 7.046 6.237 13.405 11.37 36.47 29.438 76.632 46.138 123.062 51.174 70.192 7.612 137.647-13.514 187.827-58.824l6.361-5.744 78.656-.256 78.656-.256.257-72.739.256-72.74-43.256-.26-43.257-.261-.661-26c-.727-28.582-2.591-41.505-8.94-61.967-23.62-76.132-84.665-135.271-162.183-157.119-24.836-7-64.685-10.194-92.716-7.432m8 9.987C244.396 198.533 162.454 275.085 145.913 380.5c-2.196 13.998-3.18 45.641-1.503 48.354.518.839 15.671 1.146 56.567 1.146h55.86l2.307-3.732c1.268-2.053 6.819-8.466 12.334-14.25 5.516-5.785 12.193-13.334 14.839-16.776 6.423-8.353 8.317-9.204 26.679-11.988 1.923-.292 4.545-1.217 5.827-2.057 3.113-2.04 8.668-2.698 17.85-2.114 3.478.221 14.002-10.667 14.87-15.384l.699-3.802-16.393.692c-16.322.69-30.306-.041-29.383-1.535.267-.431 3.154-1.309 6.415-1.951 6.318-1.243 17.958-5.588 19.619-7.323.691-.722-.08-.839-2.5-.38-4.059.771-49.189 2.745-49.757 2.176-.21-.209 2.238-1.336 5.438-2.504 3.2-1.168 6.719-2.526 7.819-3.018 1.1-.492 4.7-2.079 8-3.526 6.229-2.731 20.464-11.541 20.487-12.678.007-.357-5.725-.813-12.737-1.013-11.952-.341-13.063-.547-17.75-3.284-6.222-3.635-26.5-18.705-26.5-19.694 0-.401 3.952-.473 8.783-.16 10.788.699 16.417-.759 31.001-8.028 8.309-4.141 10.39-5.616 10.794-7.651 1.533-7.718 3.803-15.137 6.069-19.834l2.563-5.314-2.355-4.472c-6.189-11.754-12.74-16.862-30.765-23.991l-12.41-4.909 5.91-.651c28.17-3.105 38.12-2.119 47.645 4.724l4.964 3.567-.674-4.32c-.983-6.291-2.74-8.211-18.118-19.796-8.403-6.33-13.275-10.602-12.311-10.794 5.371-1.067 53.029 6.194 67.442 10.276 5.398 1.529 10.107 5.88 24.88 22.994 11.427 13.237 11.476 13.256 14.779 5.787l1.97-4.454-4.888-7.667c-2.688-4.216-5.703-8.904-6.698-10.416-.996-1.512-1.555-2.75-1.243-2.75 1.158 0 5.662 2.343 5.662 2.945 0 .343 1.462 1.472 3.25 2.51 7.211 4.184 22.784 15.74 23.82 17.676 2.038 3.807 10.01 28.177 10.581 32.342.516 3.76.215 4.503-3.456 8.559-5.603 6.19-5.266 6.345 7.493 3.456 1.309-.296 3.879-3.111 6.4-7.008 5.279-8.163 5.551-7.85 2.269 2.603-3.255 10.367-4.511 11.752-13.612 15.014-4.961 1.778-7.124 3.039-6.861 4 .211.772.586 4.778.834 8.903l.449 7.5-7.083 6.344c-8.292 7.425-8.801 9.441-3.549 14.052 1.944 1.707 3.969 3.104 4.5 3.104 1.815 0 .968 3.093-1.45 5.298-2.741 2.499-6.585 12.734-6.585 17.533 0 4.21-4.837 7.514-9.891 6.757-4.677-.701-7.109.82-7.109 4.447 0 2.739.925 3.53 3.5 2.994.55-.115 6.307.108 12.794.494l11.794.703 8.026 5.737c4.414 3.155 8.952 7.267 10.085 9.137 1.133 1.87 4.766 6.297 8.072 9.837 6.761 7.241 10.517 14.481 11.406 21.986l.602 5.077h122.598l.686-4.571c.921-6.141-.055-37.67-1.36-43.929a637.075 637.075 0 0 1-2.244-11.5c-11.114-60.112-48.187-114.221-100.7-146.973-21.303-13.287-33.86-18.659-67.759-28.988-1.65-.503-7.275-1.631-12.5-2.508s-11.975-2.051-15-2.61c-7.524-1.39-35.616-1.972-46-.952m111.621 250.835c-.347.562-.134 9.948.473 20.859.737 13.23.83 31.827.28 55.837-1.259 54.934-1.434 50.679 2.126 51.757 14.74 4.462 34.227-1.35 42.268-12.606 10.236-14.329 9.4-39.601-1.618-48.871-3.693-3.108-3.791-3.818-1.192-8.644 8.628-16.024 5.351-38.819-7.103-49.413-8.57-7.289-13.257-9.118-24.479-9.55-6.241-.241-10.366.001-10.755.631m-400.458 2.074c-2.359 1.495-1.988 123.081.379 124.405 2.522 1.412 20.254.247 24.734-1.625 22.577-9.433 33.803-45.206 26.225-83.571-1.732-8.769-3.232-13.614-5.11-16.5-8.884-13.658-15.637-19.635-24.912-22.051-6.339-1.651-19.127-2.045-21.316-.658m58.587-.055c-1.645.304-1.75 4.113-1.75 63.311v62.987l9.75-.681c5.363-.374 10.123-1.022 10.579-1.439 1.699-1.555 1.834-8.817.277-14.893-1.951-7.615-2.026-11.151-.289-13.527 1.18-1.614 1.535-1.14 3.408 4.559 3.601 10.959 9.413 27.332 9.861 27.779.235.236 2.337-.493 4.671-1.619 12.87-6.21 11.743-5.845 11.743-3.8 0 2.829 18.802 2.121 19.915-.75.95-2.453 3.085-17.712 3.085-22.052 0-2.688.028-2.698 7.404-2.698h7.404l.642 10.75c.353 5.913.734 12.1.846 13.75l.204 3 10.816-.047c10.561-.047 13.697-1.005 12.042-3.683-1.238-2.003-5.424-28.409-10.364-65.378-1.036-7.759-2.13-15.184-2.429-16.5-.3-1.316-1.228-9.142-2.062-17.392-.835-8.25-1.789-16.462-2.121-18.25l-.605-3.25h-13.829c-9.97 0-14.054.349-14.632 1.25-.44.688-1.551 7.55-2.468 15.25-2.352 19.753-4.544 36.83-5.778 45-3.344 22.154-6.983 50.198-7.039 54.25-.096 6.928-2.453.23-8.183-23.25-2.966-12.157-3.923-20.759-2.491-22.389 15.521-17.669 9.796-57.143-9.969-68.729-3.897-2.284-19.974-3.159-28.638-1.559m141.05 1.107c-21.342 6.824-33.498 36.29-29.869 72.403 2.033 20.233 6.919 31.641 17.984 41.991 7.792 7.288 9.952 8.058 23.835 8.496l12.25.386v-65.168l-2.25-.564c-1.238-.31-6.075-.431-10.75-.269l-8.5.295-.5 17.319-.5 17.318-2.686-2.818c-8.913-9.355-10.943-34.379-4.011-49.456 5.148-11.197 10.698-14.314 22.697-12.746 2.75.36 5.308.368 5.684.019 1.468-1.365 1.217-27.269-.274-28.213-2.48-1.57-17.033-.936-23.11 1.007m56.013-.345c-22.447 7.161-34.152 55.595-22.644 93.705 6.42 21.26 16.146 30.21 32.831 30.21 11.169 0 15.123-1.514 21.763-8.333 21.14-21.708 21.402-86.45.438-107.876-8.182-8.361-20.869-11.38-32.388-7.706m52.715-.335c-.225.688-.561 29.038-.745 63l-.336 61.75h21.799l-.658-28.75-.658-28.75 6.865 16.528c8.299 19.98 11.782 29.899 12.729 36.254l.713 4.781 11.131-.281 11.132-.282-.5-15.5c-.275-8.525-.421-36.493-.324-62.152l.176-46.652-4.176-.432c-2.297-.238-6.876-.395-10.176-.348l-6 .084.399 32.401c.298 24.231.109 32.222-.75 31.691-.632-.391-1.149-1.202-1.149-1.804 0-.975-7.711-21.2-10.022-26.288-2.755-6.064-8.978-28.818-8.978-32.827 0-2.242-.441-2.417-7.651-3.026-10.673-.902-12.354-.823-12.821.603m158.06 4.5c-.377 2.613-1.592 11.725-2.702 20.25-2.811 21.602-6.484 48.959-11.343 84.5-2.199 16.083-3.064 14.5 7.922 14.5 11.494 0 11.034.561 12.653-15.415l1.183-11.667 7.1.291 7.099.291.704 7.5c.387 4.125.992 10.37 1.343 13.877l.639 6.377 10.657-.814c5.861-.447 22.132-.86 36.157-.918l25.5-.104V536.5l-3.5.19c-1.925.105-8.738.506-15.139.892l-11.64.702-.748-3.392c-.411-1.866-.573-23.192-.36-47.392l.387-44-10.411-.287-10.411-.287.642 23.522c.575 21.061-.183 88.552-.966 86.052-1.35-4.307-12.621-85.8-13.831-100-1.074-12.609.464-11.5-15.954-11.5h-14.297l-.684 4.75m103.184 57c-.267 32.862-.213 60.048.121 60.412.334.365 12.082.813 26.107.997l25.5.334V536.5l-3.5.219c-1.925.121-9.013.519-15.75.885l-12.25.666V443h-19.741l-.487 59.75m-311.307-46.798c-1.119.453-2.694 1.662-3.5 2.686-1.311 1.666-1.3 1.734.104.64.863-.672 3.113-1.892 5-2.711 3.525-1.53 2.049-2.096-1.604-.615m18.969 4.421c4.576 4.315 9.023 14.141 10.962 24.216 2.259 11.74 2.557 12.575 1.933 5.411-.584-6.695-3.45-17.36-5.997-22.31-1.78-3.461-8.218-10.69-9.52-10.69-.525 0 .655 1.518 2.622 3.373M483 475.848c0 11.539.102 12.168 1.832 11.242 6.929-3.708 7.548-14.477 1.184-20.575L483 463.626v12.222m-343.964 8.728.036 17.924 2.279-2.784c7.439-9.089 7.557-23.809.244-30.64L139 466.651l.036 17.925M84 503.083c0 33.734.027 33.873 5.18 26.337 8.246-12.063 8.05-40.895-.363-53.17-1.602-2.337-3.341-4.25-3.865-4.25-.582 0-.952 12.074-.952 31.083m242.314-29.573c-14.874 6.254-17.204 41.533-3.639 55.098 8.719 8.72 18.14-.243 20.294-19.306 1.717-15.201-.319-25.363-6.439-32.137-4.184-4.632-6.188-5.349-10.216-3.655m-127.658 14.715c-2.353 11.967-3.16 22.345-1.804 23.184.613.378 2.734.384 4.714.013l3.601-.676-.654-6.123c-.727-6.81-3.497-23.941-3.943-24.387-.158-.157-1.019 3.438-1.914 7.989m344.443-1.451c-2.502 12.48-2.98 15.71-3.039 20.565l-.06 4.839 4.16-.582c5.488-.768 5.231.421 3.294-15.261-2.092-16.934-2.637-18.131-4.355-9.561m-62.599 15.69-3 1.374 3.643.081c2.373.053 3.844-.442 4.219-1.419.706-1.841-.895-1.852-4.862-.036m20.601 13.148c1.869 2.811 3.545 4.991 3.723 4.843.659-.548-2.693-6.026-4.871-7.957-1.646-1.461-1.337-.624 1.148 3.114M353.158 514c0 1.375.227 1.938.504 1.25.278-.687.278-1.812 0-2.5-.277-.687-.504-.125-.504 1.25m-49.079 2.583c.048 1.165.285 1.402.604.605.289-.722.253-1.585-.079-1.917-.332-.332-.568.258-.525 1.312M485.066 529c-.164 13.636.287 14.263 6.399 8.896 5.405-4.745 5.201-11.621-.507-17.051-2.223-2.115-4.426-3.845-4.895-3.845-.469 0-.918 5.4-.997 12m-132.871-8.5c.02 1.65.244 2.204.498 1.231.254-.973.237-2.323-.037-3-.274-.677-.481.119-.461 1.769m-1.079 4.668c-.064.918-.375 2.493-.692 3.5-.545 1.736-.515 1.739.568.051.628-.98.939-2.555.691-3.5-.406-1.549-.462-1.554-.567-.051M307.046 530c-.005 4.391 7.304 16.127 11.245 18.054 2.195 1.074 2.197 1.069.204-.737-4.376-3.968-6.728-7.338-9.035-12.949-1.327-3.228-2.413-5.193-2.414-4.368m38.995 8.628c-1.319 2.487-4.231 6.119-6.47 8.07-2.239 1.951-3.132 3.065-1.985 2.477 2.884-1.479 9.296-8.734 10.487-11.866 1.605-4.223.542-3.532-2.032 1.319m75.038 11.955c.048 1.165.285 1.402.604.605.289-.722.253-1.585-.079-1.917-.332-.332-.568.258-.525 1.312m-89.266.1c.721.289 1.584.253 1.916-.079.332-.332-.258-.568-1.312-.525-1.165.048-1.402.285-.604.604M216 575.763c0 2.963 28.353 21.325 47.5 30.763 20.08 9.897 57.607 22.758 60.75 20.819 1.145-.707.893-4.139-.362-4.914-.72-.445-.884-2.402-.465-5.559.412-3.106.271-4.872-.389-4.872-1.712 0-1.18-1.673 1.572-4.943 2.04-2.425 2.355-3.399 1.452-4.487-1.221-1.472 1.941-4.57 4.665-4.57.702 0 1.277-.817 1.277-1.816 0-2.11 8.811-6.184 13.376-6.184 2.112 0 2.691-.384 2.262-1.5-.719-1.874 1.183-1.951 3.283-.133 1.541 1.335 10.079 3.156 10.079 2.15 0-.279-1.913-1.345-4.25-2.37-2.337-1.025-5.6-2.47-7.25-3.211l-3-1.348 2.913-.376 2.914-.376-2.914-2.382c-2.098-1.716-2.454-2.392-1.272-2.418 3.31-.073 10.082 3.801 11.915 6.816 1.106 1.818 3.029 3.343 4.663 3.696 1.53.331 4.467 1.496 6.527 2.589 2.06 1.092 4.163 1.728 4.673 1.413.511-.315 1.881.765 3.046 2.401 2.662 3.738 7.758 4.932 11.26 2.637 1.339-.877 2.672-1.358 2.962-1.067 1.101 1.1 3.011-2.594 2.466-4.768-.792-3.156-5.167-5.47-12.603-6.668-8.377-1.349-9.24-2.535-1.207-1.657 13.422 1.465 19.507 8.005 12.544 13.482-1.985 1.562-2.468 2.632-2.009 4.458.751 2.993-1.629 5.198-5.267 4.879-2.408-.211-2.446-.158-.486.683 1.387.596 2.125 1.815 2.125 3.51 0 3.448-.668 3.705-5.316 2.049-5.805-2.068-10.783-1.866-12.947.525-2.618 2.894-8.953.848-13.359-4.315l-2.391-2.8-2.353 2.21c-2.225 2.09-4.253 8.355-3.083 9.525 2.605 2.606 12.662 2.032 20.291-1.158 6.325-2.644 14.09-2.938 15.352-.58.647 1.209 2.112 2.104 3.442 2.104 3.513 0 8.844 2.033 11.4 4.347 2.282 2.065 2.293 2.066 5.922.111 4.918-2.649 11.697-2.534 17.069.29l4.276 2.248 7.486-2.006c18.334-4.914 50.501-19.341 67.009-30.055C513.425 585.227 525 576.789 525 575.839c0-.461-35.334-.839-78.519-.839h-78.519l.525 2.75.525 2.75-1.089-2.75-1.09-2.75h-75.416c-41.479 0-75.417.343-75.417.763M373 600c0 .55.873 1 1.941 1s2.219-.45 2.559-1c.351-.567-.49-1-1.941-1-1.407 0-2.559.45-2.559 1" fill-rule="evenodd"/>
</svg>