<!DOCTYPE svg PUBLIC "-//W3C//DTD SVG 1.1//EN" "http://www.w3.org/Graphics/SVG/1.1/DTD/svg11.dtd">
<svg xmlns="http://www.w3.org/2000/svg" viewBox="0 0 600 138">
<path fill="#cc2f3e" d="M.473 69c0 38.225.125 53.862.277 34.75.152-19.113.152-50.388 0-69.5C.598 15.137.473 30.775.473 69m599 0c0 38.225.125 53.862.277 34.75.152-19.113.152-50.388 0-69.5-.152-19.113-.277-3.475-.277 34.75M98.678 26.568C75.343 32.253 60 51.267 60 74.5c0 23.168 14.843 41.766 38 47.612 9.731 2.456 397.432 2.026 405.457-.45 18.826-5.809 31.713-19.429 35.446-37.461 5.121-24.739-8.965-47.819-34.804-57.026-6.544-2.332-395.948-2.915-405.421-.607m1.822 11.841c-10.92 2.706-19.945 9.785-25.182 19.753-4.064 7.737-4.154 23.488-.183 31.958 4.978 10.615 13.195 17.263 25.365 20.519 7.403 1.98 391.586 1.982 399 .002 38.101-10.178 37.954-62.177-.204-72.064-8.135-2.108-390.318-2.269-398.796-.168M98 71.481v20.481l2.507.629c3.331.836 9.47-.372 9.584-1.886.05-.663.038-5.48-.028-10.705s.247-10.79.695-12.366c.813-2.86.822-2.853 4.674 3.5 6.237 10.286 12.823 20.323 13.733 20.928.735.489 5.327.519 11.085.074 1.605-.125 1.75-1.83 1.75-20.636V51h-13v13.5c0 7.425-.402 13.5-.894 13.5-.491 0-4.639-6.075-9.216-13.5L110.567 51H98v20.481M214.851 55.25c-.193 2.337-.126 11.616.149 20.619l.5 16.369 5.5.101 5.5.101.264-9.97c.28-10.605 1.631-13.47 6.347-13.47 4.414 0 5.889 3.353 5.889 13.392 0 10.47.072 10.561 8 10.116l3.5-.196.254-9.406c.277-10.266-.537-12.938-4.93-16.199-3.682-2.734-11.606-3.388-15.658-1.293L227 67.051V51h-11.799l-.35 4.25M259 55v4h12v-8h-12v4m190 3.607c0 6.842-.176 7.537-1.75 6.915-10.919-4.318-20.75 2.03-20.75 13.4 0 11.025 5.181 14.192 22.5 13.752l11.5-.293.27-20.69.271-20.691H449v7.607m-258.179-.905c-.269 2.345-.848 2.849-3.571 3.111-4.882.471-4.66 4.187.25 4.187h3.5v13.392c0 15.65-.56 14.969 11.25 13.689.412-.044.75-6.156.75-13.581V65h3.5c4.881 0 5.138-3.713.289-4.187-2.479-.242-3.343-.883-3.791-2.813-.953-4.109-11.71-4.372-12.177-.298m174.995.048c-.263 2.291-.858 2.802-3.566 3.063-2.399.232-3.25.804-3.25 2.187 0 1.383.851 1.955 3.25 2.187l3.25.313.5 13.408.5 13.409 3.5-.034c8.842-.085 8 1.359 8-13.72V65.127l3.242-.314c4.872-.471 5.163-3.813.331-3.813-3.303 0-3.573-.226-3.573-3 0-2.996-.007-3-5.934-3-5.729 0-5.944.095-6.25 2.75m138.312-.406c-1.25 1.507-.881 2.091 1.122 1.774.413-.065.75.364.75.953 0 .59.675.397 1.5-.428 1.904-1.904 1.971-3.278.084-1.712-1.122.931-1.486.82-1.75-.534-.31-1.586-.432-1.59-1.706-.053m-6.049 1.239c.048 1.165.285 1.402.604.605.289-.722.253-1.585-.079-1.917-.332-.332-.568.258-.525 1.312M160.5 63.878C140.877 68.944 145.056 94 165.523 94c13.993 0 23.027-12.873 16.214-23.102-3.795-5.698-13.689-8.968-21.237-7.02m237 0c-9.372 2.419-14.626 10.228-12.412 18.449 4.954 18.396 38.138 13.307 35.621-5.463-1.24-9.244-12.752-15.685-23.209-12.986m78.886.928C469.07 67.819 466 71.956 466 78.802c0 14.408 22.227 20.45 32.834 8.927 11.405-12.392-5.673-29.831-22.448-22.923m-182.577.735c-1.707.927-2.916 1.095-3.309.46-.34-.551-3.291-1.001-6.559-1.001H278v26.822l6.087.339c3.347.187 6.272.152 6.5-.078.227-.229.413-4.816.413-10.193 0-8.969.184-9.905 2.223-11.333 6.231-4.365 9.777.041 9.777 12.149 0 10.105.014 10.122 8 9.894l3.5-.1.273-9c.321-10.574-1.365-14.936-6.858-17.748-4.121-2.11-10.434-2.204-14.106-.211m36.81-.538c-3.443 1.068-7.282 4.484-9.214 8.197-5.942 11.421 7.267 24.252 19.845 19.278 2.566-1.015 2.394 4.107-.184 5.487-3.038 1.626-10.162 1.175-14.816-.938L322 95.098v3.315c0 8.739 25.499 9.851 31.439 1.37 1.26-1.798 1.561-5.381 1.561-18.58V64.852l-7.25.251c-3.988.138-8.825-.029-10.75-.371-1.925-.342-4.796-.22-6.381.271M259 78.918v13.919l3.75-.315c2.063-.174 4.762-.362 6-.419 2.217-.101 2.25-.3 2.25-13.603V65h-12v13.918m-95.687-12.132c-4.85 3.083-4.231 22.153.771 23.741 5.393 1.711 6.882-1.043 6.902-12.777.017-9.505-3.058-13.899-7.673-10.964m236.128.633C394.563 70.987 396.754 91 402.023 91c4.372 0 5.977-3.357 5.977-12.5 0-10.995-3.131-15.049-8.559-11.081m81.782.138c-2.028 1.42-2.223 2.377-2.223 10.928C479 88.389 480.043 91 484 91c3.946 0 5-2.616 5-12.416 0-11.657-2.275-14.882-7.777-11.027m-40.568 2.272c-1.916 2.117-2.344 14.016-.62 17.237 1.173 2.192 5.864 2.635 7.765.734 1.876-1.876 1.582-16.275-.371-18.229-2.088-2.087-4.743-1.987-6.774.258m-106.62 1.105c-1.125 2.103-1.416 12.91-.417 15.512 1.526 3.977 8.602 3.743 9.621-.318.794-3.163-.125-14.286-1.296-15.697-1.758-2.118-6.673-1.805-7.908.503" fill-rule="evenodd"/>
</svg>