<!DOCTYPE svg PUBLIC "-//W3C//DTD SVG 1.1//EN" "http://www.w3.org/Graphics/SVG/1.1/DTD/svg11.dtd">
<svg xmlns="http://www.w3.org/2000/svg" viewBox="0 0 735 741">
<path fill="#fbfbfb" stroke="#fbfbfb" d="M467 4.934a198.19 198.19 0 0 1-9 1.368c-8.044.994-38.561 8.001-64.5 14.811-4.4 1.155-14.3 3.613-22 5.462-7.7 1.85-20.295 4.92-27.989 6.822-7.693 1.903-14.177 3.271-14.408 3.04-.23-.231-.948.019-1.595.556-.95.789-21.454 6.208-32.508 8.592-1.375.297-5.772 1.636-9.771 2.977-3.999 1.341-8.499 2.438-10 2.439-4.391.001-12.027 3.372-15.507 6.845-10.991 10.968-15.03 14.622-15.894 14.379-.537-.151-.728.129-.423.621.304.493-.337 1.923-1.426 3.178-1.088 1.255-1.979 2.64-1.979 3.077 0 1.494-4.697 5.869-5.51 5.133-.446-.404-.508-.206-.139.439.37.646-.278 2.783-1.438 4.75-2.415 4.092-3.324 4.589-2.433 1.327.533-1.95.468-2.015-.486-.492-.606.967-.859 2.151-.562 2.632.297.48-3.488 8.914-8.411 18.742-4.922 9.827-10.53 21.468-12.461 25.868-1.931 4.4-3.955 7.893-4.499 7.762-.544-.131-.761.356-.482 1.083.639 1.666-8.486 8.905-10.333 8.196-.742-.285-1.087-.092-.765.428.321.52-.738 1.629-2.354 2.465-1.615.836-3.543 2.122-4.282 2.859-.74.737-7.42 4.527-14.845 8.423-7.425 3.896-15.672 8.259-18.326 9.696-2.654 1.437-5.311 2.312-5.904 1.946-.691-.427-.785-.191-.26.657.613.993.346 1.144-1.065.602-1.036-.397-1.559-.398-1.162-.001.396.397-1.042 1.723-3.197 2.947-10.221 5.806-17.087 9.274-17.101 8.637-.009-.385-.346-.215-.75.378-.404.592-5.814 4.133-12.023 7.867-6.208 3.735-17.633 11.013-25.389 16.173-7.756 5.16-14.452 9.382-14.879 9.382-.428 0-.927.354-1.111.787-.183.433-3.933 3.312-8.333 6.397-4.4 3.086-9.187 6.67-10.637 7.964-8.631 7.698-12.993 10.889-14.02 10.255-.683-.422-.881-.274-.487.363.365.592-2.153 4.268-5.596 8.169-3.443 3.901-7.889 9.771-9.879 13.043-1.99 3.273-3.806 5.763-4.036 5.534-.229-.229-.473.349-.543 1.286-.069.936-1.003 4.177-2.075 7.202-5.464 15.415-2.523 33.175 7.288 44.016.939 1.038 1.349 2.396.928 3.075-.439.711-.335.96.249.599 1.298-.802 6.577 4.683 5.572 5.79-.42.462-.229.534.426.159.654-.376 3.129.675 5.5 2.335 6.674 4.673 16.736 6.814 26.953 5.735 4.597-.485 9.37-.956 10.607-1.046 1.237-.09 2.25-.5 2.25-.913 0-.413 1.125-.75 2.5-.75s2.503.563 2.507 1.25c.028 5.427 4.372 28.631 5.984 31.968 2.574 5.328 2.635 4.901-1.644 11.58C77.27 401.285 68.26 418.357 63.185 430 59.529 438.389 52 457.925 52 459.025c0 .601-.445.818-.989.482-.543-.336-.747.017-.453.784s-.808 5.628-2.45 10.802c-1.642 5.174-3.927 13.682-5.078 18.907-1.151 5.225-2.503 11.075-3.004 13-1.778 6.821-4.026 21.625-4.669 30.75-.359 5.087-.923 9.249-1.255 9.248-1.637-.004.69 28.702 2.808 34.627 5.554 15.538 17.557 27.991 30.301 31.437 10.118 2.736 30.483.309 38.222-4.554 1.137-.715 3.166-1.629 4.509-2.032 6.11-1.833 16.844-12.244 25.992-25.21l5.81-8.234 2.364 6.234c1.301 3.429 2.311 6.779 2.246 7.445-.065.666.166 1.123.514 1.015.347-.107 3.036 2.361 5.975 5.484l5.342 5.679.24 20.306c.218 18.52.465 21.052 2.803 28.805 4.492 14.891 7.244 19.566 16.53 28.077 3.158 2.894 5.635 5.62 5.504 6.057-.131.437.505.509 1.414.16 1.197-.459 1.427-.269.834.691-.556.898-.434 1.086.379.583.66-.407 2.241-.057 3.515.777 1.274.835 4.854 2.256 7.956 3.157 4.939 1.436 5.64 1.955 5.64 4.175 0 1.394.724 5.299 1.609 8.679.885 3.379 1.683 6.594 1.774 7.144.354 2.154 7.635 13.158 10.545 15.939 2.304 2.202 2.762 3.167 1.824 3.845-.898.649-.791.759.376.388.896-.283 2.021-.136 2.5.328 3.535 3.421 29.627 10.088 42.04 10.743 10.892.574 15.097-.112 26.832-4.377 13.941-5.067 18.504-6.928 49.5-20.185 40.262-17.221 64.539-27.462 68-28.685.275-.097 2.3-.961 4.5-1.919 2.2-.958 7.825-3.343 12.5-5.3 4.675-1.957 13.063-5.52 18.641-7.918 5.577-2.397 10.603-4.359 11.168-4.359.564 0 3.201-1.086 5.859-2.413 4.353-2.173 23.674-10.185 46.165-19.142 4.582-1.825 8.857-3.196 9.5-3.046.642.15.768.064.281-.192-.487-.255 4.013-2.374 10-4.709 5.987-2.334 14.036-5.606 17.886-7.271 3.85-1.665 12.625-5.08 19.5-7.59 6.875-2.509 16.775-6.195 22-8.19a1442.81 1442.81 0 0 1 20-7.422c28.384-10.259 47.375-17.974 53.02-21.537 2.167-1.369 4.239-2.488 4.604-2.488.365 0 2.171-1.687 4.014-3.75 2.13-2.385 3.112-3.022 2.696-1.75-.359 1.1-.322 1.704.082 1.342.404-.362.83-1.314.948-2.116.118-.801 1.686-4.22 3.486-7.597 5.324-9.988 5.864-24.825 1.259-34.621-1.16-2.467-2.109-4.723-2.109-5.013 0-.964-9.064-13-9.572-12.709-.7.4-3.434-2.447-2.88-3 .248-.249-.11-.507-.798-.573-.687-.066-3.725-.905-6.75-1.864-7.599-2.411-44.99-2.443-62.942-.055-14.494 1.928-15.336 1.77-6.841-1.284a850.205 850.205 0 0 0 12.283-4.542c3.3-1.256 7.913-2.846 10.25-3.534 2.337-.688 4.25-1.539 4.25-1.891 0-.353 1.688-1.241 3.75-1.974 7.851-2.792 26.876-12.588 30.127-15.514 11.356-10.219 17.315-18.9 18.935-27.585 1.888-10.125-2.36-27.908-8.839-37.008-1.16-1.629-1.804-2.962-1.43-2.962.373 0-.384-.892-1.682-1.982l-2.361-1.983 3.543.41c1.948.226 8.449 2.018 14.446 3.983 12.894 4.224 18.751 4.503 30.101 1.432 4.351-1.177 8.885-2.19 10.077-2.25 1.191-.061 2.091-.432 2-.825-.092-.394 1.891-2.194 4.407-4 2.516-1.807 4.673-3.614 4.794-4.017.12-.402.981-2.427 1.913-4.5 3.493-7.772.259-27.316-5.793-35.011-1.907-2.424-1.906-2.497.051-6.334 11.027-21.613 11.297-47.627.554-53.33-3.388-1.799-3.596-2.199-3.651-7-.031-2.801-.955-8.243-2.052-12.093-1.098-3.85-2.068-7.754-2.157-8.677-.089-.922-.515-1.458-.947-1.191-.432.268-.786-.046-.786-.696 0-2.219-8.947-13.726-13.228-17.013-5.173-3.971-6.869-5.537-4.772-4.409.875.47 1.158.432.679-.091-.451-.494-1.351-.919-2-.946-.648-.027-2.827-.885-4.842-1.907-3.199-1.622-3.535-2.124-2.654-3.964 1.197-2.497 13.643-13.217 14.927-12.856.49.138.778-.114.64-.559-.407-1.315 6.51-8.149 7.579-7.488.539.333.7.152.357-.402-.343-.555.937-2.762 2.845-4.905 1.907-2.143 3.468-4.201 3.468-4.575.001-.373.564-1.273 1.252-2 2.218-2.343 6.515-11.17 8.154-16.753 4.222-14.378-1.413-32.849-12.739-41.759-1.429-1.124-2.276-2.366-1.882-2.76.394-.393.266-.6-.284-.459-.55.141-5.491-1.893-10.98-4.522-5.489-2.628-12.014-5.6-14.5-6.605-2.486-1.005-9.695-4.15-16.02-6.989-6.325-2.839-12.282-5.396-13.239-5.682-.956-.286-1.449-.988-1.095-1.56.366-.593.161-.743-.477-.349-.616.381-5.073-.956-9.905-2.97-18.437-7.688-26.341-10.824-43.784-17.369-9.9-3.715-21.825-7.98-26.5-9.478-4.675-1.498-10.525-3.764-13-5.037-2.475-1.273-5.916-2.613-7.646-2.978-4.075-.86-5.573-2.647-8.847-10.551-1.481-3.575-3.101-6.927-3.6-7.45-.499-.523-.907-1.578-.907-2.346 0-.767-.928-2.699-2.063-4.293-1.135-1.593-1.74-3.42-1.346-4.059.446-.722.281-.891-.436-.447-.635.392-1.155.247-1.155-.323 0-.57-2.812-5.558-6.25-11.083-3.437-5.525-6.845-11.178-7.573-12.562-.728-1.383-5.694-6.96-11.035-12.391C489.616 6.292 480.53 2.492 467 4.934M568.199 256.05c-2.619 1.051-7.259 10.555-11.603 23.769-1.504 4.575-5.683 14.475-9.287 22-3.605 7.524-7.358 15.536-8.341 17.804-1.629 3.756-2.195 4.184-6.363 4.809-13.125 1.968-20.815 17.627-10.83 22.055 2.771 1.229 2.791 3.708.077 9.513-1.157 2.475-2.479 6.075-2.937 8l-2.969 12.5c-2.979 12.55-3.398 41.598-.659 45.631 2.078 3.06 6.355 3.37 9.067.658.93-.931 3.467-7.001 5.636-13.491 2.17-6.489 6.454-18.998 9.521-27.798 7.187-20.621 7.382-21.242 6.898-21.925-.225-.316-.101-.342.276-.056.377.285 1.653-1.771 2.836-4.57 2.667-6.307 3.519-6.349 5.24-.258 3.598 12.735 9.754 30.385 12.478 35.783 14.278 28.285 38.269 46.551 33.031 25.151-2.517-10.287-7.433-27.056-8.499-28.991-.646-1.174-1.255-2.598-1.352-3.166-.71-4.122-4.771-17.234-6.137-19.811-.92-1.736-1.769-3.607-1.886-4.157-.289-1.352-7.022-15.075-9.722-19.815l-2.174-3.816 3-2.489c1.65-1.37 4.8-3.425 7-4.569 2.2-1.144 4.275-2.508 4.612-3.031.336-.523.899-.912 1.25-.865 1.942.259 2.695-.014 2.208-.802-.302-.488.234-.825 1.191-.75.962.076 1.616-.455 1.464-1.187-.151-.729.174-1.048.722-.709.548.339 2.175-.156 3.615-1.099a118.91 118.91 0 0 1 5.398-3.292c19.862-11.26 23.04-13.482 23.04-16.107 0-2.927-3.57-5.296-6.064-4.025-.79.403-4.136 1.292-7.436 1.977s-9.15 2.504-13 4.043c-3.85 1.539-9.025 3.347-11.5 4.018-2.475.671-7.809 2.742-11.854 4.602l-7.354 3.382.681-2.714c.375-1.493.759-3.173.854-3.733.095-.561.407-1.244.693-1.519 1.322-1.27 2.936-6.262 2.338-7.229-.367-.594-.254-.825.25-.513.504.311 2.449-3.332 4.322-8.096 1.873-4.764 4.723-11.587 6.332-15.162 6.56-14.57-.943-25.214-14.063-19.95M661 310.439c-8.644 1.939-22.163 6.289-28.348 9.12-5.46 2.5-7.503 3.974-3.902 2.815 1.427-.459 1.482-.373.298.466-.799.565-1.811.806-2.25.535-1.707-1.055-2.904.792-1.597 2.464 1.161 1.484 1.114 1.516-.442.296-1.975-1.549-12.232 5.189-11.36 7.463.244.634-.309 1.097-1.228 1.028-1.209-.091-1.601.565-1.418 2.374.173 1.705-.021 2.077-.61 1.168-.924-1.428-7.501 5.444-6.602 6.898.246.399-.178.964-.943 1.258-1.766.678-4.964 10.168-4.292 12.738.303 1.16.099 1.689-.506 1.314-.655-.405-.777.567-.344 2.749 1.078 5.436 2.696 8.899 3.83 8.198.639-.395.82-.043.461.894-.968 2.521 3.825 8.398 8.823 10.817 8.675 4.199 31.658.443 45.564-7.446l4.634-2.629 2.366 4.77c1.301 2.624 2.929 4.658 3.616 4.521.688-.138 1.138.312 1 1-.137.687.533 1.188 1.489 1.113.957-.075 1.52.218 1.251.652-.677 1.096 4.847 2.89 11.197 3.636 3.592.422 5.313.266 5.313-.482 0-.608.664-.852 1.475-.54 1.563.6 8.448-3.155 8.636-4.711.061-.505.111-1.818.111-2.918s-.05-2.441-.111-2.98c-.158-1.39-7.703-5.079-8.648-4.227-.431.389-.491.195-.134-.43.624-1.092-1.585-3.773-2.421-2.938-.53.528-1.137-3.97-1.137-8.425 0-4.509.609-8.951 1.153-8.408.539.537 6.29-9.682 6.358-11.298.028-.663.426-.974.885-.691.458.283.889.038.958-.544.069-.582.182-1.396.252-1.809.069-.413 1.166-2.208 2.436-3.99 6.151-8.63 1.61-19.73-9.703-23.721-5.205-1.837-18.148-1.886-26.11-.1m-349.271 6.653c-.974.567-1.467 1.523-1.096 2.124.406.656.214.807-.48.378-.693-.427-1.52.213-2.062 1.596-.498 1.27-3.41 5.635-6.471 9.699-3.061 4.065-5.319 7.788-5.019 8.275.301.487.053.762-.552.611-.605-.151-1.876 1.069-2.824 2.712-.949 1.643-2.383 3.507-3.187 4.142-1.283 1.013-1.283 1.382 0 3.013 1.316 1.672 1.301 1.733-.144.605-1.383-1.079-2.115-.488-5.261 4.25-2.009 3.027-3.406 5.503-3.104 5.503.302 0-.38.997-1.515 2.215-1.134 1.218-1.832 2.816-1.55 3.552.317.827.071 1.064-.645.621-.772-.477-.947-.165-.525.936.391 1.019.169 1.561-.58 1.414-.668-.131-1.152.545-1.077 1.501.075.957-.211 1.524-.636 1.261-1.211-.748-7.669 13.2-9.945 21.48-2.302 8.376-2.628 15.497-.9 19.705.636 1.548 1.198 3.274 1.25 3.836.241 2.616 3.985 9.355 4.888 8.797.558-.345.72-.15.36.433-1.124 1.818 5.845 9.332 7.359 7.933 1.013-.936 1.153-.818.666.566-.339.962-.293 1.795.102 1.849 7.384 1.019 8.826-.288 10.093-9.151.815-5.703 10.397-32.649 12.072-33.948.354-.275 2.154-3.425 4-7 14.398-27.89 15.468-31.357 15.516-50.286.031-12.084-.236-14.959-1.462-15.735-.825-.521-1.05-.97-.5-.995 1.33-.063-2.58-2.993-3.941-2.954-.583.017-1.856.495-2.83 1.062m75.271-.461c-5.719 1.067-12.04 3.823-11.571 5.044.266.694-.016 1.57-.627 1.947-.648.401-.831.234-.44-.398.369-.597.289-1.321-.177-1.609-1.247-.771-11.35 6.309-10.641 7.457.333.537.029.854-.674.703-.704-.151-1.31.4-1.347 1.225-.038.83-.816 1.374-1.743 1.218-.922-.155-2.165.633-2.763 1.75-2.203 4.117-3.725 2.384-3.315-3.777.394-5.922-2.405-12.11-4.807-10.626-.519.321-.821-.012-.67-.741.52-2.502-6.191-1.231-9.319 1.766-2.846 2.727-7.009 14.075-9.871 26.91-.613 2.75-3.604 12.753-6.647 22.229-3.043 9.476-5.205 17.758-4.805 18.405.433.7.296.909-.339.517-.647-.4-2.352 2.587-4.336 7.595-6.022 15.204-3.65 24.754 6.148 24.754 2.593 0 4.544-.65 5.694-1.899 6.657-7.222 6.548-7.033 5.114-8.861-1.214-1.548-1.184-1.599.271-.463 1.411 1.102 1.945.76 3.894-2.5 1.243-2.077 2.269-4.339 2.282-5.027.012-.687.424-1.25.915-1.25.491 0 3.428-5.288 6.527-11.75 3.1-6.462 7.147-14.342 8.995-17.509 1.847-3.168 3.04-6.275 2.651-6.905-.39-.63-.27-.874.266-.543 1.826 1.128 7.561-10.302 6.105-12.167-1.083-1.387-1.049-1.455.23-.464 1.225.948 2.51.168 7-4.25 6.217-6.117 9.463-6.955 11.025-2.847 1.578 4.152 1.123 19.992-1.016 35.373-2.005 14.415-1.832 22.592.461 21.712.658-.253 1.197.153 1.197.901 0 .749-.488 1.078-1.084.733-.595-.345-.183.398.917 1.652 2.623 2.99 9.968 6.65 15.045 7.496 4.723.788 9.942-.792 8.855-2.68-.396-.689-.352-.918.098-.511 1.328 1.204 3.502-1.282 3.502-4.005 0-1.427-1.193-3.692-2.75-5.223-9.281-9.123-8.091-17.668 6.261-44.946 6.658-12.656 7.16-17.433 2.739-26.1-4.496-8.816-16.644-14.316-27.25-12.336m-214.5 3.359c-3.85.429-9.025 1.352-11.5 2.051-2.475.7-5.175 1.345-6 1.433-4.458.48-26 9.451-26 10.828 0 .567-.282.749-.627.405-1.644-1.645-10.351 5.27-9.59 7.617.146.454-.145.57-.649.259-1.256-.776-4.385 4.201-3.521 5.6.4.647.25.85-.354.477-2.56-1.582-3.05 6.707-.613 10.367 3.555 5.339 11.43 6.956 15.697 3.223 1.101-.962 1.642-1.139 1.204-.393-.844 1.437-.377 1.373 7.733-1.062 2.987-.897 4.036-.859 5 .182.893.963.901 1.137.03.648-1.534-.862-7.166 4.092-10.896 9.585-1.603 2.359-3.481 4.889-4.173 5.621-.693.731-.961 1.813-.596 2.404s.227.804-.307.474c-.534-.33-1.791.838-2.793 2.595-1.002 1.758-3.36 5.56-5.24 8.45-1.88 2.89-3.098 5.772-2.707 6.405.472.764.266.875-.613.331-.993-.613-1.144-.346-.602 1.065.397 1.036.408 1.569.023 1.184-1.009-1.009-6.632 10.086-5.797 11.438.389.629.257.858-.295.517-.547-.338-2.473 2.63-4.28 6.596-15.319 33.631-25.69 65.256-39.585 120.71-3.494 13.945-.84 28.754 6.223 34.731 5.148 4.356 7.264 4.147 12.201-1.209 3.801-4.124 4.607-5.622 4.221-7.846-.079-.454.245-.585.72-.291 1.219.754 5.462-7.13 4.593-8.535-.477-.773-.275-.886.608-.34.97.599 1.149.358.666-.898-.362-.944-.287-1.487.166-1.207 1.132.7 4.348-6.28 3.515-7.628-.369-.597-.231-.814.306-.482.539.333 3.342-5.309 6.255-12.596 5.266-13.167 6.585-16.418 8.197-20.199.947-2.221 10.359-28.721 12.43-35 .726-2.2 3.395-8.95 5.931-15 10.305-24.584 22.884-60.106 22.052-62.275-.281-.731-.129-1.094.336-.806 2.251 1.391 7.646-26.846 8.115-42.466.051-1.714 23.193 2.147 29.445 4.913 2.64 1.167 4.83 1.569 5.751 1.053 1.007-.563 1.487-.376 1.487.581 0 .776-.445 1.137-.988.802-.553-.342-.674-.102-.274.543.392.635 1.197 1.155 1.788 1.155 1.771 0 10.283 9.257 11.711 12.737.73 1.781 1.629 3.051 1.998 2.824.9-.557 1.304 2.625 1.326 10.439.029 10.78-4.915 20.705-15.694 31.5-3.295 3.3-5.877 6.371-5.738 6.824.14.454-.227.527-.815.164-1.715-1.06-4.392 1.608-2.778 2.768.93.669.787.768-.505.35-2.176-.704-6.944 2.186-6.035 3.658.357.578.169.75-.421.386-.587-.363-5.595 1.591-11.129 4.342-5.534 2.751-12.211 5.558-14.837 6.238-2.627.68-5.051 1.62-5.388 2.089-.336.468-.899.813-1.25.766-1.991-.266-2.687.027-2.145.904.336.543.025.776-.691.517-2.049-.741-6.217 2.969-5.484 4.881 2.118 5.518 26.708 4.694 43.182-1.447 3.3-1.231 6.225-2.508 6.5-2.839.275-.33 1.175-.739 2-.908 8.344-1.705 39.02-23.582 37.301-26.601-.342-.601-.253-.758.197-.351 1.039.942 3.666-1.167 2.932-2.354-.301-.488-.102-.887.443-.887s2.01-1.431 3.256-3.181c1.263-1.775 1.625-2.814.818-2.352-.796.455-.435-.156.802-1.358 5.84-5.674 11.305-21.572 11.897-34.609.476-10.471-3.497-26.376-6.435-25.762-.632.132-.885-.423-.569-1.247 1.807-4.709-19.723-26.413-23.739-23.931-.827.511-.952.328-.393-.575.599-.97.358-1.149-.898-.666-.944.362-1.47.26-1.169-.226.715-1.157-10.427-5.575-17.443-6.917-8.215-1.571-19.624-2.063-27.5-1.186m300 4.53c-3.3.743-6.589 1.38-7.309 1.416-.729.036-.993.576-.596 1.219.456.736.273.882-.504.401-1.805-1.115-13.587 3.492-11.911 4.657.905.63.646.73-.825.319-1.179-.33-2.765-.022-3.523.684-.759.706-2.044 1.432-2.856 1.613-.812.181-2.188.969-3.057 1.752-.87.783-1.818 1.187-2.108.897-.289-.289-1.153.246-1.918 1.19-1.193 1.469-1.191 1.594.012.869.953-.574 1.175-.475.69.308-.392.635-1.388 1.155-2.213 1.155-.879 0-1.205.478-.787 1.155.452.73.274.882-.484.413-1.419-.876-4.34 1.253-3.526 2.57.31.501.019.788-.647.637-4.292-.975-18.85 22.165-19.676 31.274-.76 8.38 7.851 24.622 10.652 20.091.634-1.026.943-.955 1.435.328.367.956.217 1.382-.36 1.025-.544-.336-.989-.155-.989.403 0 2.867 16.243 2.581 21.983-.387 2.597-1.343 3.008-1.918 1.913-2.675-1.004-.694-.766-.788.85-.333 2.53.711 10.54-3.229 9.613-4.729-.308-.498.263-.763 1.268-.589 1.006.174 1.838-.208 1.851-.85.012-.641.432-1.541.932-2 .529-.484.609-.309.191.417-1.216 2.114.727 1.316 4.361-1.791 4.033-3.446 5.038-3.662 5.038-1.081 0 2.168 2.331 4.458 3.425 3.363.408-.407.592-.066.408.759-.183.825.23 1.387.917 1.25.688-.138 1.138.312 1 1-.502 2.512 17.904 2.078 24.25-.573 3.086-1.289 5.379-2.852 5.225-3.561-.151-.696.164-.994.7-.662.536.331 1.441-.269 2.01-1.333 1.557-2.909-1.265-5.515-9.435-8.71-3.85-1.506-7.596-3.452-8.324-4.324-.79-.947-1.031-1.021-.596-.182.442.851.325 1.154-.297.77-1.864-1.152.332-11.579 3.449-16.373.787-1.209 1.517-2.794 1.624-3.522.107-.728 1.421-2.931 2.919-4.896 1.499-1.965 2.725-3.9 2.725-4.3 0-.4.701-1.428 1.558-2.284.856-.857 1.311-2.198 1.011-2.981-.303-.788-.105-1.15.442-.812.577.357.989-.794.989-2.761 0-8.975-15.181-13.904-31.5-10.226m191.145 7.714c.26.422-.791.77-2.336.776-3.699.013-11.748 3.823-19.383 9.175-3.385 2.373-7.253 4.914-8.596 5.646-9.173 5.002-2.676 15.851 8.837 14.756 11.296-1.075 17.239-4.948 28.082-18.304 2.776-3.42 5.318-6.052 5.649-5.85.331.202.626-1.461.656-3.696.03-2.235-.085-3.643-.257-3.128-.176.527-3.11.7-6.718.398-3.524-.296-6.194-.194-5.934.227m-202.442 15.884c.91.569-3.042 2.054-4.227 1.588-.289-.113-1.804.8-3.368 2.03-1.564 1.23-3.31 1.948-3.88 1.596-.601-.371-.737-.155-.323.513.392.635.236 1.155-.346 1.155s-1.274.01-1.536.023c-.263.012-1.617 1.161-3.009 2.554-1.392 1.392-2.988 2.248-3.547 1.903-.559-.346-.893-.218-.742.285.151.502-1.206 2.166-3.016 3.698-1.81 1.531-3.16 2.391-3 1.911.16-.481-.046-.987-.459-1.124-.748-.249-.882.083-.602 1.5.285 1.443.557 3.769.704 6.015.609 9.323 22.406 7.021 32.31-3.413a1187.04 1187.04 0 0 1 5.928-6.211c.874-.903 1.884-2.457 2.243-3.454.359-.998 1.117-1.527 1.685-1.176.567.351.92.267.784-.187-.136-.453.566-2.039 1.559-3.525 3.672-5.494 1.772-6.91-8.832-6.585-5.122.157-8.869.564-8.326.904m141.226.882c0 1.295.338 1.633.985.986.648-.648.648-1.324 0-1.972-.647-.647-.985-.309-.985.986M133.5 372c.34.55.816 1 1.059 1s.441-.45.441-1-.477-1-1.059-1-.781.45-.441 1m22.579 12.583c.048 1.165.285 1.402.604.605.289-.722.253-1.585-.079-1.917-.332-.332-.568.258-.525 1.312m257.654.541c.679.684 1.486.991 1.793.683.308-.308-.247-.867-1.233-1.243-1.425-.542-1.54-.428-.56.56m166.87 22.709c-.283.459.12.834.897.834s1.18-.375.897-.834c-.283-.458-.687-.833-.897-.833-.21 0-.614.375-.897.833m-21.063 9.102c-.373.604-1.117.827-1.653.495-1.372-.848-4.08 1.624-3.483 3.179.295.771-.042 1.084-.837.778-3.312-1.27-23.339 31.962-21.859 36.271.219.637-.146 1.494-.81 1.905-.834.516-.952.312-.381-.658.455-.773-.194-.509-1.441.587-2.085 1.831-3.725 1.993-20.267 2l-17.998.008-2.297 2.881c-3.63 4.551-3.112 10.886 1.199 14.672 3.3 2.897 3.551 2.947 14.853 2.947 12.843 0 13.872.572 11.495 6.397-.696 1.707-1.373 3.778-1.505 4.603-.131.825-.932 3.075-1.779 5-10.616 24.119-16.827 77.996-9.848 85.424 2.855 3.039 7.039 3.374 9.41.753 2.538-2.803 4.671-10.745 3.29-12.245-.767-.833-.777-1.029-.03-.613.674.376 1.129-.455 1.177-2.152.043-1.52.751-4.542 1.572-6.715 3.43-9.081 7.757-24.473 7.153-25.45-.357-.578-.092-.928.59-.777 1.43.317 8.185-17.969 7.217-19.536-.348-.562-.113-.687.537-.284.742.458 1.175-.114 1.211-1.596.113-4.616 11.497-36.979 13.379-38.032 1.867-1.046 14.355-5.581 36.565-13.28 18.739-6.496 24.01-8.465 27.933-10.432 1.962-.984 6.659-2.806 10.439-4.049 6.512-2.142 10.628-4.845 10.628-6.981 0-1.97-3.669-2.991-7.122-1.981-5.289 1.546-16.748 3.962-23.861 5.03-3.566.536-10.19 1.87-14.721 2.965-4.53 1.095-11.835 2.5-16.232 3.122-4.398.622-7.81 1.432-7.583 1.799.228.367-.932.471-2.577.229-1.645-.241-2.859-.722-2.697-1.069.161-.346 2.88-5.729 6.043-11.962 5.285-10.415 7.736-19.514 4.761-17.675-.556.344-.74-.035-.421-.867 1.014-2.642-8.556-7.109-10.05-4.691m29.775 1.315c-.061 1.238.106 1.685.372.994.266-.691 1.008-.942 1.648-.558.641.384.547-.063-.207-.994-1.722-2.123-1.681-2.136-1.813.558m-389.725 5.651c-1.293 1.428-1.417 2.088-.501 2.654.732.452.962.337.577-.287-.801-1.296 1.717-3.524 2.836-2.509.45.407.495.179.099-.509-.926-1.609-.975-1.599-3.011.651m5.41 17.492c0 .216.698.661 1.552.989.89.341 1.291.173.941-.393-.587-.951-2.493-1.406-2.493-.596m138.574 7.727c-1.736 1.366-2.477 2.69-2.082 3.72.338.879.293 1.278-.099.886-.79-.79-2.302 1.147-7.142 9.145-3.551 5.867-3.831 6.605-2.096 5.534.721-.446.882-.274.43.457-.398.644-1.078.951-1.511.684-1.862-1.151-15.608 30.305-14.722 33.691.254.971.076 1.528-.395 1.237-.471-.291-1.139 1.17-1.486 3.248-.347 2.078-1.269 5.475-2.051 7.548-.781 2.074-1.42 4.592-1.42 5.595 0 4.186-4.744 5.855-27.5 9.68-4.4.74-11.6 2.007-16 2.816-9.386 1.727-10.589 1.146-8.163-3.941 3.92-8.221 8.672-21.597 8.037-22.625-.376-.608-.231-.825.323-.482.579.358 1.743-2.018 2.742-5.596.955-3.419 3.272-11.173 5.149-17.229 5.979-19.296 4.474-34.409-3.162-31.755-1.609.559-2.819 1.507-2.688 2.106.131.599-.319.877-1 .618s-1.913.598-2.738 1.904-3.856 5.471-6.735 9.256c-2.879 3.786-5.242 7.633-5.25 8.55-.008.916-.387 1.816-.842 2-2.329.939-17.608 28.576-23.127 41.833-.573 1.375-1.449 3.175-1.947 4-2.295 3.802-7.16 15.054-7.721 17.858-.683 3.416-4.469 5.125-11.38 5.136-5.43.009-23.141 3.63-27.183 5.557-5.883 2.806-7.579 9.91-3.228 13.521 1.212 1.006 1.343.891.777-.681-.376-1.04-.352-1.595.052-1.233.631.566 1.23 2.56 1.507 5.019.235 2.081 11.96 6.139 17.994 6.229 7.686.114 7.926.522 5.197 8.841-3.655 11.145-8.956 35.041-9.646 43.49-1.108 13.547 2.021 21.463 9.772 24.722 5.108 2.148 17.885-1.679 16.091-4.818-.358-.628-.275-.799.184-.382.864.784 5.485-2.96 5.485-4.444 0-.46.874-2.744 1.941-5.076 1.894-4.136 3.481-9.395 8.069-26.739 1.237-4.675 3.245-11.65 4.463-15.5 1.218-3.85 2.814-10.15 3.547-14 1.288-6.763 2.458-9.602 3.826-9.284 2.089.487 12.093-2.506 11.513-3.444-.389-.629-.203-.793.446-.393.612.379 1.919.245 2.904-.297.985-.542 3.591-1.742 5.791-2.666 2.2-.925 5.8-2.47 8-3.434s6.339-2.56 9.198-3.546c2.86-.987 4.927-2.233 4.596-2.769-.337-.545-.087-.657.564-.255.642.397 2.581.017 4.308-.845 5.824-2.906 6.078-1.808 2.182 9.433-4.297 12.399-4.48 42.054-.243 39.435.479-.296.617.126.305.939-1.23 3.204 9.97 7.216 13.038 4.669.805-.668 1.869-.965 2.363-.66 2.324 1.436 10.505-9.219 9.422-12.272-.272-.768-.041-1.11.517-.765 1.118.69 7.217-17.566 9.637-28.846 1.428-6.654 2.94-12.25 7.537-27.887 1.114-3.787 1.739-7.387 1.39-8-.349-.612-.28-.793.152-.403.433.391 2.081.042 3.661-.776 2.51-1.298 3.247-2.373 3.063-4.47-.026-.294.788-.535 1.808-.535s1.6.413 1.287.919c-.312.505 2.185-.951 5.55-3.236 12.777-8.677 10.372-13.003-4.835-8.694-6.534 1.851-8.357 1.969-7.437.48.804-1.301 5.324-26.359 5.949-32.98.238-2.52 1.114-7.47 1.946-11 3.997-16.959-.127-25.686-8.884-18.798m93.176 32.019c-2.062.583-3.75 1.492-3.75 2.019 0 .528-.5.651-1.111.273-1.385-.855-16.481 6.708-20.116 10.079-1.477 1.369-3.043 2.501-3.479 2.515-.723.022-7.662 6.572-16.088 15.186-1.812 1.852-2.937 3.759-2.5 4.239.441.484.209.533-.523.11-.873-.504-1.503-.052-1.867 1.339-.302 1.156-.914 2.101-1.36 2.101-1.427 0-8.116 11.933-7.367 13.144.43.696.286.897-.358.499-1.573-.972-4.86 8.568-6.266 18.184-2.396 16.384 1.354 28.923 11.232 37.564 5.028 4.398 6.191 4.917 14.803 6.592 8.25 1.605 30.311-4.053 28.326-7.265-.352-.569-.149-.727.455-.353 2.074 1.281 15.719-7.747 14.555-9.631-.372-.601-.163-.745.494-.339 1.052.65 3.732-1.661 10.067-8.68 1.849-2.049 2.138-2.968 1.266-4.019-.866-1.043-.793-1.363.309-1.363.792 0 1.202.488.912 1.084-.291.596.602-.241 1.984-1.859 1.382-1.618 2.288-3.305 2.013-3.75-.274-.444.026-.808.667-.808.643 0 .899-.696.57-1.552-.327-.854-.197-1.306.289-1.006.73.452 1.954-1.197 2.554-3.442.073-.275 1.364-2.875 2.868-5.779 1.503-2.903 4.107-10.639 5.785-17.19l3.051-11.913-2.546-5.067c-1.4-2.787-3.687-6.209-5.082-7.605-3.439-3.439-3.191-5.71.972-8.885 3.888-2.966 4.165-6.419.773-9.627-4.563-4.314-23.205-7.149-31.532-4.795m-77.207 32.792c-.317.512-.193 1.167.274 1.456.467.289.85-.13.85-.931 0-1.686-.316-1.833-1.124-.525m75.339 1.023c-.066.3-.062.893.007 1.318.11.674-4.199 2.911-6.056 3.144-.366.046-1.041.494-1.5.994-.49.535-.215.608.667.176.825-.404.16.312-1.479 1.59-1.638 1.278-3.083 2.229-3.211 2.112-.128-.116-1.537 1.009-3.131 2.5-6.454 6.039-8.557 7.699-9.421 7.437-.499-.151-.659.126-.356.617.805 1.302-2.608 3.957-4.657 3.621-.965-.158-1.496.13-1.181.641.316.511 1.106.604 1.755.207.65-.397-.129.833-1.73 2.734-1.601 1.9-3.289 3.342-3.75 3.205-.461-.138-.768.087-.68.5.29 1.372-1.356 4.246-2.151 3.755-.43-.266-.72.299-.645 1.256.075.956-.313 1.664-.863 1.573-1.213-.202-1.775 3.142-1.903 11.321-.054 3.392-.503 5.904-1.002 5.596-.497-.308-.578-.033-.18.611.398.644 1.095.941 1.549.66.455-.281 1.085.163 1.4.985 1.145 2.982 6.994 4.804 13.011 4.052 3.084-.385 5.852-.653 6.152-.594.299.058 1.236-.585 2.08-1.429.845-.845 2.179-1.536 2.964-1.536.786 0 1.429-.477 1.429-1.059s.52-.738 1.155-.346c.67.415.884.277.511-.327-.737-1.192 1.84-3.691 3.04-2.95.437.27.794-4.529.794-10.664s.408-12.054.908-13.154c.499-1.1.818-2.557.708-3.239-.109-.681.362-2.256 1.047-3.5.684-1.243 1.291-2.711 1.348-3.261.225-2.173 1.881-5.089 3.884-6.837 1.158-1.01 1.498-1.518.755-1.129-1.088.57-1.13.297-.215-1.413.625-1.167 1.57-2.121 2.1-2.121.531 0 .869-.337.753-.75-.117-.413.369-1.801 1.081-3.086.711-1.284.994-2.634.629-3-.804-.804-5.45-.979-5.616-.21m-16.339 9.977c-.317.512-.193 1.167.274 1.456.467.289.85-.13.85-.931 0-1.686-.316-1.833-1.124-.525M389 579c0 .55.477 1 1.059 1s.781-.45.441-1-.816-1-1.059-1-.441.45-.441 1m45.543 1.931c-.317.512-.193 1.167.274 1.456.467.289.85-.13.85-.931 0-1.686-.316-1.833-1.124-.525m-121.036 21.058c-.35.566.051.734.941.393 1.732-.665 2.049-1.382.611-1.382-.518 0-1.216.445-1.552.989m-13.964.942c-.317.512-.049 1.256.595 1.654.698.432.904.292.51-.345-.363-.588-.095-1.297.596-1.576.899-.362.917-.529.065-.585-.655-.043-1.45.34-1.766.852m-78.671 38.819c-1.243 1.586-1.208 1.621.378.378 1.666-1.307 2.195-2.128 1.372-2.128-.207 0-.995.788-1.75 1.75" fill-rule="evenodd"/>
<path fill="#5abe4f" stroke="#5abe4f" d="M466.5 5.647c-19.282 2.977-37.79 7.187-102.912 23.407-41.848 10.423-77.733 19.604-79.744 20.403-2.011.798-6.619 1.968-10.239 2.598-18.852 3.283-45.449 38.905-65.663 87.945-4.279 10.38-12.379 16.209-51.442 37.015-43.037 22.923-84.308 48.47-102.869 63.677a4361.643 4361.643 0 0 0-11.94 9.825c-7.287 6.022-18.28 19.351-22.478 27.255-11.943 22.486-9.376 42.23 7.709 59.301 12.922 12.912 30.992 16.554 48.36 9.748 3.679-1.442 3.619-1.556 5.233 9.948 1.712 12.202 4.257 22.957 6.155 26.012 1.317 2.121 1 2.966-4.516 12.046C57.299 435.739 40.422 487.146 35.479 537c-2.646 26.684-1.337 36.758 6.571 50.586 8.898 15.558 19.965 21.942 37.898 21.863 23.198-.103 40.927-10.602 56.052-33.195 6.216-9.284 6.539-9.503 7.398-5.004 1.142 5.981 5.453 13.68 10.3 18.391l4.802 4.668.141 18.096c.304 39.019 11.276 60.633 35.086 69.112 10.921 3.889 9.932 2.932 10.618 10.272 1.551 16.617 12.793 31.108 28.047 36.153 33.177 10.973 41.966 9.881 91.608-11.381 32.821-14.058 46.604-19.926 61-25.967 7.425-3.117 15.975-6.76 19-8.098 15.652-6.919 67.322-28.285 105.5-43.623 16.5-6.63 31.8-12.867 34-13.86 2.2-.993 18.85-7.302 37-14.02 80.134-29.658 86.672-32.934 94.006-47.104 9.693-18.726.521-48.039-17.45-55.769-11.087-4.77-40.636-5.055-69.556-.672-15.626 2.369-13.81.886 9.25-7.552 52.547-19.229 71.257-37.464 66.244-64.561-1.763-9.53-4.375-16.12-9.015-22.744-6.168-8.805-5.958-8.939 7.397-4.684 20.397 6.497 19.153 6.265 27.413 5.116 31.672-4.405 41.601-22.27 27.178-48.901l-2.943-5.433 3.399-8.595c9.061-22.905 8.745-42.413-.766-47.466-3.358-1.783-3.554-2.184-4.154-8.5-1.906-20.025-13.358-38.017-29.102-45.72-6.138-3.003-6.109-3.879.311-9.379 33.559-28.751 43.758-52.358 32.082-74.264-5.249-9.848-12.223-15.329-28.842-22.667-7.949-3.51-16.702-7.398-19.452-8.64-29.815-13.465-90.578-37.202-107.5-41.995-1.375-.389-2.986-1.095-3.581-1.568-.595-.473-3.959-1.942-7.477-3.264-3.518-1.323-6.721-3.018-7.118-3.768-.396-.75-4.272-8.563-8.612-17.363C509.559 19.572 490.246 1.98 466.5 5.647m99.299 252.18c-1.309 1.555-3.877 6.843-5.706 11.75-6.633 17.787-8.012 21.12-13.623 32.923-3.137 6.6-6.508 13.848-7.49 16.107-1.571 3.612-2.36 4.251-6.547 5.306-5.622 1.415-12.725 6.238-14.309 9.715-2.409 5.285-.314 13.372 3.464 13.372 2.631 0 2.632 2.758.004 8.689-6.652 15.015-11.262 53.691-7.69 64.515 2.41 7.3 9.375 7.261 12.397-.07 2.787-6.76 10.904-29.585 13.384-37.634 3.133-10.17 11.416-31.443 12.504-32.116.455-.281 1.017.08 1.25.803.232.722 2.538 8.288 5.124 16.813 5.288 17.436 7.656 22.62 16.213 35.5 13.671 20.576 26.937 28.715 26.512 16.266-.155-4.517-7.731-30.576-15.382-52.909-1.984-5.789-8.386-19.442-12.239-26.096-2.701-4.664-1.95-6.144 5.206-10.261 15.121-8.698 41.918-24.56 43.879-25.972 2.736-1.971 2.832-3.587.395-6.597l-1.855-2.291-8.395 2.227c-4.617 1.225-9.745 2.717-11.395 3.316-1.65.598-7.275 2.55-12.5 4.337-5.225 1.786-11.525 4.191-14 5.342-7.164 3.333-8.472 2.99-6.141-1.612 1.044-2.062 3.943-8.925 6.442-15.25 2.499-6.325 5.699-13.975 7.111-17 3.54-7.581 3.54-14.716-.001-18.923-3.737-4.442-12.968-4.58-16.612-.25m101.566 51.186c-45.398 6.222-79.733 38.498-67.007 62.987 5.714 10.995 9.024 13 21.462 13 10.16 0 25.011-3.811 33.634-8.63 2.706-1.512 5.068-2.327 5.25-1.81 3.572 10.15 15.668 16.281 27.675 14.029 8.38-1.572 12.552-9.469 7.022-13.292-8.651-5.981-10.402-8.288-10.375-13.663.027-5.269.234-5.736 11.31-25.634 4.494-8.073 4.669-12.024.802-18.122-4.744-7.479-15.821-10.778-29.773-8.865m-358.162 10.096c-.936 1.71-5.267 7.898-9.623 13.75-18.088 24.302-33.025 50.013-35.522 61.141-2.752 12.269-.458 23.496 7.048 34.497 8.331 12.209 17.894 11.46 17.894-1.401 0-4.731 8.11-25.451 15.499-39.596 9.993-19.13 10.217-19.612 13.007-27.923 4.54-13.524 5.042-37.104.887-41.695-2.749-3.038-7.177-2.447-9.19 1.227m69.622-.666c-6.705 2.786-12.418 6.588-19.592 13.037L354 336.185v-5.944c0-11.959-7.797-17.105-15.216-10.044-3.697 3.519-5.747 9.034-10.335 27.803-2.577 10.542-9.576 32.039-15.55 47.759-5.567 14.649-5.27 21.447 1.081 24.731 8.861 4.582 16.51-3.367 30.207-31.39 16.701-34.171 29.431-50.923 34.687-45.649 2.192 2.2 2.05 24.423-.237 37.049-2.975 16.42-1.845 22.81 4.835 27.357 9.635 6.556 19.123 6.676 24.278.306 1.928-2.384 1.57-3.5-2.946-9.172-7.74-9.72-6.756-16.691 5.774-40.9 5.856-11.316 6.42-12.946 6.4-18.5-.067-18.585-19.028-29.095-38.153-21.148M171.5 319.606c-40.498 5.974-69.426 27.258-56.581 41.628 3.487 3.901 9.408 4.165 19.931.89 3.382-1.053 6.15-1.763 6.15-1.577 0 .185-2.299 2.95-5.108 6.145-22.01 25.026-45.38 77.197-61.508 137.308-3.025 11.275-6.373 23.49-7.439 27.146-6.185 21.198-4.066 37.344 5.798 44.177 3.914 2.711 4.194 2.761 7.108 1.254 8.006-4.14 24.252-36.473 37.472-74.577 6.246-18.003 11.024-30.91 14.622-39.5 17.076-40.758 28.508-77.483 29.886-96 .798-10.728.72-10.688 15.553-8.017 17.648 3.178 30.813 12.41 35.478 24.879 7.33 19.59-13.261 46.258-46.92 60.769-4.928 2.125-10.653 4.243-12.721 4.708-4.63 1.04-12.221 5.71-12.221 7.519 0 7.384 27.258 6.466 47.335-1.596 39.148-15.718 62.165-43.955 62.165-76.262 0-23.543-10.884-40.519-33-51.471-12.244-6.063-32.768-9.375-46-7.423m297.273 5.329c-22.161 5.977-37.665 16.246-49.438 32.745-9.721 13.622-10.826 22.84-4.058 33.857 5.107 8.313 7.8 9.902 16.845 9.937 7.395.029 19.665-5.437 30.705-13.678 2.929-2.187 5.437-3.823 5.573-3.636.136.187 1.262 1.809 2.503 3.605 4.947 7.163 18.148 8.443 30.342 2.941 10.514-4.743 10.329-9.56-.526-13.7-7.539-2.875-11.719-6.096-11.719-9.03 0-3.285 4.828-13.819 10.105-22.044 5.512-8.594 6.483-14.185 3.007-17.33-6.053-5.478-20.666-7.086-33.339-3.667m193.46 8.176c-7.802 1.3-18.741 7.304-29.96 16.445-6.152 5.012-1.228 12.444 8.245 12.444 10.954 0 18.123-4.037 27.325-15.386 11.425-14.092 10.551-16.195-5.61-13.503M468 347.982c-11.603 1.246-32.338 13.975-33.584 20.616-1.662 8.857 11.112 11.386 24.271 4.806 6.463-3.231 20.311-18.944 20.312-23.047.001-1.91-2.015-3.601-3.831-3.215-.367.078-3.593.456-7.168.84m87.5 69.889c-5.507 3.42-16.188 19.755-23.721 36.277-3.15 6.91-4.442 7.339-20.779 6.904-6.325-.169-13.201-.339-15.281-.379-8.958-.173-13.385 11.815-6.796 18.404 2.891 2.89 3.051 2.923 14.378 2.923 13.687 0 14.595.533 12.155 7.142-10.726 29.051-15.456 52-15.456 74.994v11.787l-4.25 1.131c-22.659 6.028-52.28 15.888-82.879 27.588-9.145 3.497-16.875 6.358-17.177 6.358-.52 0-26.592 10.214-67.694 26.519-42.077 16.692-80.581 33.122-83.823 35.767-6.948 5.671-6.607 18.334.701 26.007 9.305 9.771 27.514 8.807 52.622-2.785 8.8-4.063 28.6-13.08 44-20.038 27.663-12.499 30.75-13.884 43.5-19.518 3.575-1.58 16.175-7.195 28-12.477 11.825-5.283 24.2-10.678 27.5-11.989 13.612-5.407 35.634-13.977 45-17.511 5.5-2.075 16.75-6.329 25-9.452 13.156-4.981 36.653-13.227 60.5-21.231 4.125-1.384 12.45-4.015 18.5-5.846 6.05-1.831 14.375-4.44 18.5-5.797 4.125-1.358 14.25-4.586 22.5-7.173 19.11-5.993 25.5-9.279 25.5-13.112 0-6.663-52.404-1.443-107.991 10.757-20.835 4.573-28.549 6.477-30.085 7.426-2.339 1.446 2.458-14.656 12.827-43.047 2.209-6.05 5.21-15.05 6.667-20 5.979-20.298 9.687-29.504 12.454-30.915 2.335-1.19 9.175-3.599 38.628-13.606 7.034-2.39 21.316-7.865 37-14.184 5.948-2.397 8.5-4.463 8.5-6.883 0-2.951-3.117-3.051-14.57-.468-6.012 1.356-14.305 2.972-18.43 3.592-4.125.62-9.75 1.756-12.5 2.525-2.75.769-9.554 2.074-15.12 2.9-5.566.826-10.853 1.783-11.75 2.127-2.42.929-2.131.058 3.87-11.675 6.79-13.274 7.325-18.2 2.423-22.324-3.681-3.097-8.174-3.357-12.423-.718m-211.945 31.215c-1.933 1.697-6.077 7.434-9.209 12.75-3.132 5.315-6.164 10.278-6.737 11.028-3.059 4.001-10.486 23.982-15.106 40.636-1.525 5.5-3.11 10.374-3.52 10.832-1.613 1.797-49.347 10.638-50.611 9.373-.319-.319.173-2.071 1.093-3.893 3.355-6.639 10.765-26.502 12.614-33.812 1.044-4.125 3.066-10.875 4.495-15 2.834-8.185 3.65-23.845 1.456-27.944-1.083-2.024-4.284-2.663-7.381-1.475-2.066.793-12.755 13.883-15.857 19.419-1.386 2.475-4.803 8.24-7.592 12.81-6.726 11.02-22.098 42.488-28.021 57.361-.935 2.347-1.769 2.744-6.872 3.272-29.613 3.067-38.743 7.063-36.222 15.854 2.129 7.423 12.85 13.703 23.393 13.703 6.729 0 6.944.371 4.396 7.611-4.87 13.841-9.879 38.771-9.824 48.889.107 19.727 13.6 27.813 26.723 16.014 6.038-5.429 8.739-11.561 14.238-32.336 2.231-8.426 5.153-18.681 6.493-22.787 1.34-4.106 2.735-9.811 3.1-12.678.844-6.646 1.405-7.283 7.696-8.749 2.86-.667 10.15-3.344 16.2-5.95 26.561-11.438 32.217-13.326 31.084-10.372-5.552 14.468-7.881 40.098-4.272 47.02 2.568 4.926 6.306 7.338 11.373 7.338 12.459 0 17.705-9.07 26.893-46.5 1.89-7.7 4.294-16.7 5.341-20 1.048-3.3 2.178-7.237 2.511-8.748.394-1.782 2.094-3.692 4.839-5.433 13.171-8.355 17.84-11.907 18.356-13.959 1.206-4.807-1.273-5.364-11.831-2.658-7.846 2.01-7.968 1.952-6.792-3.234 2.303-10.148 4.998-25.7 4.998-28.837 0-1.91.945-7.446 2.099-12.302 4.098-17.23-.369-25.299-9.544-17.243M432.5 482.39c-18.088 5.946-39.55 23.705-51.178 42.348-22.816 36.583-6.438 76.607 28.774 70.314 29.648-5.298 56.492-36.081 62.95-72.185 1.338-7.479.287-10.886-5.494-17.804-4.009-4.799-4.189-5.461-1.98-7.274 6.252-5.129 7.005-7.959 3.096-11.631-6.628-6.227-23.378-7.972-36.168-3.768m-3.088 38.451c-23.376 17.154-35.332 31.655-35.39 42.924-.066 12.824 16.455 15.709 29.303 5.118 3.641-3.001 3.732-3.236 3.183-8.236-1.24-11.289 4.059-30.146 11.044-39.305 2.452-3.214 3.109-5.815 1.691-6.692-.416-.257-4.84 2.529-9.831 6.191" fill-rule="evenodd"/>
<path fill="#fa0404" stroke="#fa0404" d="M464 6.66c-22.182 3.441-23.024 3.637-124.303 28.904-29.592 7.382-54.614 13.856-55.605 14.387-.991.53-4.856 1.452-8.588 2.048-8.811 1.408-9.681 1.917-20.8 12.183-14.633 13.509-32.547 42.799-45.76 74.818-4.675 11.33-12.328 17.304-42.944 33.519-54.129 28.668-86.643 48.733-114.938 70.933-33.115 25.98-46.244 55.375-34.848 78.023 11.769 23.39 30.85 32.366 54.786 25.774 4.125-1.136 7.785-1.77 8.134-1.407.348.362 1.381 5.928 2.295 12.37 1.806 12.74 4.126 22.739 5.623 24.238 1.681 1.684 1.049 3.437-4.623 12.827-26.814 44.391-43.907 100.314-47.385 155.03l-.979 15.399 3.298 9.473c5.058 14.524 12.797 24.801 22.348 29.673 17.379 8.866 44.851 3.455 61.992-12.212 5.263-4.81 19.297-23.411 19.297-25.576 0-2.677 1.851-.672 2.479 2.686 1.506 8.044 9.842 21.265 14.299 22.679 1.557.494 1.722 2.541 1.722 21.309 0 22.74 1.812 32.492 8.315 44.762 5.621 10.605 19.645 21.573 31.356 24.521l4.399 1.108 1.222 7.685c1.66 10.433 6.738 20.847 13.423 27.53 8.862 8.859 32.396 15.349 52.431 14.459 12.602-.559 14.628-1.302 81.354-29.814 15.709-6.713 47.824-20.315 70-29.648 75.799-31.902 126.858-52.401 170-68.252 68.736-25.253 75.636-28.924 82.875-44.089 4.171-8.74 3.895-24.819-.59-34.288-4.816-10.167-12.71-17.973-20.571-20.34-8.787-2.647-44.04-2.473-64.435.317-19.936 2.727-18.518 1.17 7.575-8.321 53.036-19.291 71.309-38.18 65.236-67.435-1.216-5.857-6.633-17.286-10.791-22.768-4.098-5.401-1.909-5.614 11.771-1.144 15.244 4.982 19.754 5.595 29.673 4.037 27.547-4.326 35.788-21.978 22.576-48.36l-2.405-4.802 3.94-11.221c8.259-23.518 7.742-40.039-1.388-44.392-2.757-1.315-3.543-2.354-3.947-5.213-1.607-11.373-3.97-21.135-6.299-26.014-3.453-7.235-15.881-19.708-22.97-23.052-6.755-3.186-6.624-4.177 1.5-11.412 28.296-25.197 38.152-43.063 34.268-62.113-2.387-11.704-11.258-23.358-21.191-27.84-55.901-25.221-96.454-41.767-130.827-53.381-5.775-1.952-11.4-4.107-12.5-4.79-1.1-.683-4.41-2.019-7.356-2.97-5.055-1.632-5.494-2.046-7.802-7.364-15.961-36.777-37.819-66.049-53.621-71.808-3.05-1.112-15.308-1.506-20.721-.666M342.938 237.311c-26.382 13.29-43.139 31.397-43.369 46.866-.14 9.465 7.781 14.655 17.626 11.55 6.375-2.011 9.694-4.991 16.305-14.637 2.75-4.013 6.614-9.162 8.586-11.443 6.487-7.501 17.914-26.366 17.914-29.575 0-6.45-7.37-7.643-17.062-2.761m224.722 18.251c-3.082 1.732-5.845 7.18-10.872 21.438-3.056 8.67-16.806 39.681-19.394 43.741-.929 1.458-2.851 2.468-5.501 2.892-4.75.76-13.497 7.196-14.941 10.993-1.765 4.642-1.094 7.432 2.699 11.224l3.652 3.65-1.755 4.5c-9.501 24.36-12.65 62.537-5.794 70.25 2.079 2.338 6.512 2.219 8.733-.235 1.734-1.917 8.552-20.154 16.455-44.015 4.132-12.476 9.772-27.05 10.933-28.25.399-.413 3.105 6.729 6.013 15.87 7.693 24.178 17.155 40.744 29.987 52.502 6.776 6.21 9.666 7.148 12.47 4.049 2.316-2.559 2.122-4.532-1.812-18.426-8.469-29.917-17.73-54.908-23.064-62.245-5.007-6.887-3.932-9.156 6.966-14.697 3.264-1.66 9.789-5.359 14.5-8.219 4.711-2.86 12.953-7.812 18.315-11.003 7.993-4.757 9.75-6.233 9.75-8.192 0-3.097-3.61-6.753-5.827-5.9-.92.353-5.048 1.567-9.173 2.696-4.125 1.13-9.525 2.901-12 3.936-2.475 1.036-7.487 2.785-11.139 3.887-3.651 1.102-9.219 3.145-12.374 4.54-3.155 1.395-5.894 2.379-6.087 2.185-.347-.347 5.792-15.628 11.744-29.233 6.744-15.415 7.242-20.615 2.503-26.124-2.871-3.337-10.611-4.274-14.987-1.814M666 308.698c-38.053 6.482-66.602 27.79-68.734 51.302-.583 6.433 4.425 18.039 9.511 22.039 8.103 6.374 30.247 4.035 48.357-5.106l5.667-2.861.599 2.387c3.722 14.826 36.6 18.036 36.6 3.573 0-3.498-.429-4.099-5.042-7.059-10.961-7.034-10.439-12.497 3.468-36.282 4.148-7.096 4.841-11.298 2.672-16.202-4.287-9.692-17.593-14.432-33.098-11.791m-355.452 7.897c-.877.877-2.324 3.005-3.215 4.728-.891 1.723-4.877 7.418-8.857 12.655-32.516 42.787-41.642 67.816-31.955 87.647 9.037 18.5 20.843 21.764 22.891 6.328 1.057-7.972 7.634-25.187 15.072-39.453 10.012-19.203 10.036-19.255 13.507-29 8.12-22.8 2.848-53.196-7.443-42.905m75.93-.531C378.064 317.173 356 330.199 356 334.057c0 .519-.341.943-.757.943-.417 0-.598-1.999-.404-4.443.626-7.866-5.946-15.927-11.537-14.153-6.38 2.025-9.936 9.359-15.319 31.596-2.587 10.686-12.427 40.703-15.736 48-1.671 3.687-2.656 7.993-2.988 13.062-.492 7.521-.477 7.577 2.7 10.25 9.755 8.208 19.03-1.227 35.7-36.312 9.645-20.3 23.692-40 28.522-40 4.202 0 5.726 15.864 2.928 30.5-1.767 9.25-2.48 25.593-1.252 28.717 2.481 6.309 17.041 13.06 23.392 10.846 8.369-2.917 9.642-7.756 3.814-14.49-7.69-8.885-6.326-17.801 6.231-40.738 5.956-10.878 6.206-11.62 6.206-18.414 0-15.783-13.183-25.708-31.022-23.357M174 319.117c-23.195 2.653-48.568 12.787-56.826 22.697-5.033 6.04-5.749 8.185-5.274 15.785.206 3.286 6.029 7.402 10.456 7.389 3.867-.011 11.541-1.71 16.144-3.574 1.303-.527.477.916-2.367 4.138C113.771 390.886 90.191 443.701 73.43 506c-3.034 11.275-6.509 23.875-7.723 28-3.394 11.533-3.162 26.576.524 34 3.122 6.287 8.553 10.522 12.291 9.584 9.161-2.3 24.388-33.662 46.164-95.084 1.365-3.85 4.294-11.5 6.508-17C151.682 414.624 163 377.774 163 361.949V358h4.058c26.802 0 48.395 16.539 46.606 35.698-1.199 12.834-9.464 25.481-23.629 36.155-8.984 6.77-25.044 15.184-33.754 17.685-7.591 2.18-13.686 5.279-15.224 7.742-4.507 7.217 19.522 8.967 38.917 2.834 37.367-11.815 64.155-37.878 70.52-68.614 5.719-27.619-11.126-55.589-39.683-65.89-6.18-2.229-25.051-5.878-28.311-5.474-.55.068-4.375.509-8.5.981m301.075 4.048c-25.849 3.694-51.55 22.156-61.697 44.32-4.935 10.78-2.194 23.444 6.695 30.923 8.36 7.034 27.165 2.516 43.475-10.446 4.652-3.697 4.692-3.694 7.555.483 3.183 4.646 5.614 5.555 14.855 5.555 13.247 0 23.463-5.052 22.849-11.298-.284-2.882-.87-3.33-7.807-5.971-9.481-3.609-12.3-6.087-11.431-10.047 1.048-4.77 5.273-13.589 10.041-20.96 6.955-10.751 6.862-15.912-.351-19.592-3.466-1.768-14.063-4.313-16.693-4.009-.586.068-3.957.537-7.491 1.042m181.676 11.88c-8.952 3.08-26.751 15.344-26.751 18.431 0 10.528 18.19 11.115 30.238.977C665.16 350.311 675 337.42 675 335.112c0-2.871-9.991-2.908-18.249-.067m-193.47 13.904c-8.623 2.105-26.54 13.971-28.372 18.791-4.216 11.089 18.014 12.188 29.469 1.456 5.143-4.818 14.706-17.522 14.4-19.13-.341-1.793-9.905-2.483-15.497-1.117m94.219 67.477c-6.329 2.844-20.842 23.815-25.613 37.011-2.494 6.895-3.037 7.063-22.841 7.063-19.153 0-19.783.157-22.612 5.628-1.847 3.571-1.819 7.226.083 10.905 2.495 4.825 6.023 5.967 18.433 5.967 12.726 0 12.638-.091 8.96 9.213-8.559 21.654-15.24 54.506-14.791 72.733l.257 10.446-13.438 3.865c-25.675 7.385-68.259 22.497-113.438 40.256-108.201 42.534-128.386 51.34-131.378 57.317-5.599 11.181-1.262 22.85 10.25 27.579 8.909 3.66 27.022 1.49 40.628-4.868 17.762-8.3 67.401-30.717 97.5-44.032 16.5-7.298 33.6-14.941 38-16.983 4.4-2.042 10.925-4.84 14.5-6.219 3.575-1.379 13.25-5.139 21.5-8.357 21.043-8.209 54.516-21.003 57.5-21.978 1.375-.45 11.725-4.023 23-7.941s24.1-8.258 28.5-9.644c75.286-23.714 77.576-24.503 81.75-28.163 2.425-2.126 2.255-5.929-.302-6.74-3.399-1.079-18.835-.837-28.948.454-42.95 5.483-83.814 13.049-106.194 19.661-1.57.464-1.56.043.139-5.8 2.56-8.803 7.186-22.361 12.043-35.299 2.271-6.05 4.381-11.9 4.688-13 2.287-8.19 7.556-25.131 9.487-30.5 2.815-7.83 2.344-7.553 27.355-16.058 36.686-12.474 59.161-21.523 61.205-24.642 1.452-2.216 1.448-2.558-.054-4.06-1.52-1.52-2.282-1.511-10.405.125-4.82.97-13.489 2.602-19.264 3.625-5.775 1.024-13.166 2.565-16.424 3.426-3.259.861-9.334 2-13.5 2.532-4.167.532-8.969 1.254-10.672 1.604l-3.095.636 5.845-11.663c7.731-15.424 7.568-20.654-.753-24.131-4.005-1.673-4.106-1.673-7.901.032m-215.93 33.945c-2.239 2.405-6.32 8.297-9.07 13.094-2.75 4.797-5.69 9.917-6.533 11.378-2.182 3.783-9.448 22.554-11.48 29.657-.944 3.3-2.34 8.11-3.102 10.688-.762 2.578-1.385 5.336-1.385 6.127 0 3.392-8.806 5.73-40.5 10.753-3.3.522-7.012 1.18-8.25 1.46-2.635.597-2.815-.496-.803-4.877 3.666-7.981 8.562-20.822 10.543-27.651 1.197-4.125 3.758-12.608 5.692-18.852 4.296-13.874 4.575-26.337.677-30.234-3.109-3.108-8.367-1.213-12.249 4.416-1.583 2.293-3.878 5.07-5.102 6.17-1.223 1.1-3.351 4.25-4.728 7-1.377 2.75-3.493 6.35-4.703 8-6.816 9.298-31.577 59-31.577 63.382 0 1.933-3.532 2.966-14.049 4.111-18.427 2.005-26.126 4.512-28.61 9.315-4.437 8.579 7.8 19.692 21.683 19.692 7.537 0 7.545.022 4.083 12.188-11.018 38.718-11.367 56.202-1.261 63.205 6.677 4.628 14.597 3.156 22.378-4.157 3.698-3.476 7.958-14.11 12.258-30.596 1.972-7.562 4.675-17.212 6.007-21.445 1.333-4.232 2.997-10.74 3.698-14.462 1.303-6.912 3.25-8.698 9.515-8.727.66-.003 4.935-1.656 9.5-3.673 13.363-5.906 34.177-14.287 34.551-13.914.189.19-.846 4.56-2.301 9.713-3.092 10.955-4.481 30.235-2.588 35.933 2.699 8.125 9.422 11.98 17.255 9.893 9.888-2.635 13.879-10.878 23.945-49.458 8.107-31.071 6.044-27.023 17.683-34.715 10.393-6.868 13.753-10.318 12.707-13.046-.955-2.488-3.964-2.666-11.654-.688-3.973 1.022-7.327 1.755-7.453 1.629-.126-.126.659-5.393 1.743-11.704 1.085-6.312 2.412-15.183 2.95-19.713.538-4.53 1.649-10.812 2.469-13.96 4.625-17.755-2.005-26.602-11.939-15.932m95.848 30.059c-21.846 4.943-49.759 29.097-60.853 52.659-9.493 20.16-8.078 40.094 3.804 53.593 19.774 22.464 64.217 3.251 83.692-36.182 4.996-10.115 9.932-26.192 9.936-32.365.003-3.858-4.518-12.808-7.194-14.241-2.796-1.496-2.142-4.709 1.697-8.329 4.033-3.804 4.282-5.301 1.477-8.867-4.468-5.68-21.05-8.872-32.559-6.268m-9.918 42.19c-28.822 21.741-39.168 39.458-28.981 49.63 4.842 4.835 15.917 3.493 23.296-2.824 4.156-3.557 4.185-3.63 4.185-10.416 0-13.65 3.23-25.042 10.487-36.989 5.814-9.571 4.368-9.475-8.987.599" fill-rule="evenodd"/>
<path fill="#050404" stroke="#050404" d="M467 6.601c-1.375.244-6.55 1.128-11.5 1.964-14.499 2.448-20.128 3.784-96.883 23.002-88.036 22.043-80.673 20.174-88.681 22.512-8.862 2.588-22.302 15.383-32.479 30.921-6.495 9.916-24.948 45.732-29.064 56.411-3.653 9.478-11.999 15.522-47.393 34.321-43.997 23.369-55.032 29.907-86.398 51.194C30.484 256.866 13.106 278.902 13.03 305c-.024 8.338 1.087 12.186 5.714 19.792 12.918 21.234 28.874 28.002 52.142 22.118 4.546-1.15 8.483-1.875 8.747-1.61.264.264 1.123 5.142 1.909 10.84 1.799 13.037 3.176 19.112 5.682 25.062 1.975 4.687 1.975 4.71-.004 7.5C64.532 420.682 42.038 484.574 37.121 531c-3.314 31.286-2.595 39.194 4.914 54.068 13.07 25.894 43.568 31.439 71.609 13.022 9.077-5.961 27.356-27.43 27.356-32.129 0-2.165 2.005-.762 2.556 1.789 1.98 9.171 5.017 14.915 11.192 21.168 4.407 4.464 6.135 6.9 5.672 8-3.316 7.893-.671 38.883 4.598 53.875 5.259 14.961 20.733 28.866 36.275 32.596 3.14.754 3.075.61 4.496 9.876 2.622 17.106 12.645 29.351 28.211 34.467 21.751 7.148 36.936 8.083 51.381 3.161 7.91-2.694 30.564-11.881 44.619-18.093 2.475-1.094 13.05-5.606 23.5-10.028 10.45-4.421 23.5-9.957 29-12.301 22.977-9.792 51.618-21.826 69-28.99 4.4-1.814 12.5-5.177 18-7.473 5.5-2.297 23.725-9.726 40.5-16.51 16.775-6.784 33.2-13.449 36.5-14.812 3.3-1.363 19.05-7.287 35-13.164 68.129-25.104 77.125-29.036 85.494-37.364 17.627-17.544 11.824-53.389-10.222-63.141-10.939-4.839-66.019-3.813-80.612 1.501-.737.269-1.733.246-2.214-.051-1.1-.68 2.107-3.955 4.646-4.743 4.203-1.304 26.611-9.732 27.721-10.426.653-.408 1.669-.815 2.257-.905 3.363-.513 31.334-14.941 35.72-18.426 21.749-17.276 24.48-41.57 7.352-65.393-5.511-7.665-4.382-7.962 11.858-3.121 4.95 1.475 10.088 3.215 11.419 3.865 3.429 1.676 15.291 1.081 23.931-1.201 21.84-5.767 27.699-21.616 16.519-44.681l-3.423-7.064 2.393-5.436c9.738-22.119 10.324-42.678 1.386-48.67-3.844-2.577-4.294-3.325-4.993-8.299-1.839-13.085-3.113-17.872-6.458-24.25-4.284-8.172-12.883-16.891-21.418-21.72-8.027-4.541-8.073-4.979-1.181-11.21 28.723-25.966 36.989-39.239 36.151-58.048-.776-17.445-8.602-27.218-28.985-36.195a3767.683 3767.683 0 0 1-18.611-8.248c-30.78-13.856-76.614-32.119-101.426-40.414-6.433-2.151-13.93-5.032-16.659-6.403-2.729-1.371-6.325-2.765-7.991-3.098-2.475-.495-3.522-1.638-5.721-6.244-24.429-51.159-42.8-72.881-62.333-73.703-3.63-.153-7.725-.078-9.1.167M451.5 34.49c-6.714 2.229-23.47 7.059-33 9.513-18.724 4.82-48.012 11.182-59.5 12.923-4.125.625-9.075 1.571-11 2.102-16.266 4.483-29.491 8.571-40.5 12.517-7.15 2.563-16.573 5.851-20.939 7.308-9.555 3.186-14.452 7.733-21.956 20.391-2.692 4.541-5.63 9.381-6.528 10.756-.898 1.375-3.378 6.325-5.511 11-2.132 4.675-5.199 11.2-6.814 14.5-7.523 15.372-10.457 25.5-7.387 25.5 2.013 0 6.473-3.786 8.054-6.838 2.533-4.89 9.581-11.191 9.581-8.567 0 .328-2.475 4.189-5.5 8.58-3.025 4.392-5.5 8.204-5.5 8.471 0 3.023-5.956 7.58-12.376 9.47-25.336 7.459-64.486 24.49-86.624 37.682-1.925 1.147-6.682 3.879-10.572 6.072-10.303 5.807-38.766 25.006-46.428 31.317-1.925 1.585-3.95 3.208-4.5 3.606C69.744 261.471 43.38 287.384 41.558 293c-3.303 10.18-2.751 17.756 1.456 20.008 4.313 2.308 17.454.345 25.637-3.83 3.887-1.983 18.335-6.924 27.899-9.542 2.723-.745 14.4-4.076 25.95-7.401 41.014-11.809 64.772-17.929 90-23.184 8.25-1.719 17.025-3.574 19.5-4.123 16.596-3.682 38.042-7.045 57-8.937 13.582-1.356 13.503-1.325 19.962-7.732 3.028-3.004 7.988-7.052 11.022-8.995 3.034-1.944 6.655-4.313 8.047-5.266 8.36-5.726 20.189-9.478 27.326-8.667 4.504.511 5.666 1.155 9.352 5.178l4.209 4.594 26.291-2.023c14.46-1.112 34.166-2.492 43.791-3.065 9.625-.574 20.425-1.251 24-1.504 3.575-.253 12.575-.717 20-1.031 12.874-.544 35.445-3.288 61.5-7.477 6.6-1.061 16.95-2.637 23-3.503 6.05-.866 15.05-2.212 20-2.991 4.95-.779 15.75-2.314 24-3.411 51.291-6.819 51.862-6.923 55.293-10.12 4.959-4.62 1.942-10.498-9.626-18.753-7.583-5.411-6.355-7.168 1.591-2.279 2.73 1.68 5.238 3.054 5.573 3.054.335 0 3.069 1.125 6.075 2.5 17.574 8.038 29.874-4.872 13.895-14.584-2.091-1.271-4.026-2.604-4.301-2.964-1.123-1.467-31.111-15.128-43-19.589l-16-5.998c-13.157-4.931-49.197-17.127-69-23.35a5816.075 5816.075 0 0 1-29.458-9.35l-12.959-4.165-1.412-5c-.777-2.75-1.761-5.9-2.188-7-.427-1.1-2.011-5.6-3.519-10-8.035-23.436-17.792-44.784-20.717-45.324-2.803-.518-3.181 2.535-1.3 10.512.965 4.094 1.537 7.661 1.271 7.928-.266.266-3.808-3.476-7.871-8.316-9.064-10.798-16.158-14.865-22.347-12.81m-104.625 200.3c-2.544.941-5.244 2.196-6 2.789-.756.594-3.809 2.323-6.784 3.843-25.299 12.926-42.272 39.179-32.972 51.002 5.405 6.872 15.806 6.655 24.881-.518 2.75-2.174 5-4.447 5-5.052 0-1.277 8.173-12.957 12.143-17.354 5.624-6.228 17.857-26.313 17.857-29.317 0-5.632-6.631-8.163-14.125-5.393m219.782 21.265c-2.923 2.299-5.349 7.215-10.089 20.445-1.774 4.95-6.963 17.212-11.532 27.248l-8.306 18.248-4.115 1.061a330.402 330.402 0 0 0-5.628 1.495c-.833.238-3.645 2.389-6.25 4.781-4.362 4.004-4.737 4.722-4.737 9.053 0 4.72 2.374 8.572 6.036 9.793 1.156.385.914 1.769-1.293 7.397-10.819 27.595-12.116 68.357-2.254 70.832 5.542 1.391 7.331-1.172 13.545-19.408a4920.282 4920.282 0 0 1 8.639-25 5174.45 5174.45 0 0 0 6.247-18c1.767-5.221 5.92-13.43 5.998-11.858.143 2.871 10.241 33.173 12.615 37.858 8.141 16.061 25.952 37 31.472 37 7.176 0 6.156-10.45-4.001-41-1.554-4.675-3.796-11.65-4.981-15.5-2.382-7.741-9.768-23.929-12.969-28.424-3.906-5.485-2.621-7.814 6.946-12.598 6.945-3.473 39.91-23.164 42.25-25.237 2.34-2.074 2.206-3.599-.604-6.866l-2.353-2.736-8.397 2.246c-4.618 1.235-10.646 3.157-13.396 4.272-2.75 1.114-7.025 2.594-9.5 3.289-2.475.695-8.051 2.69-12.391 4.435-4.339 1.744-8.024 3.038-8.187 2.875-.404-.405 7.826-21.261 12.648-32.049 5.497-12.298 5.23-19.491-.907-24.457-2.553-2.065-11.487-1.569-14.506.805m97.843 52.621c-36.068 8.016-56.402 21.023-65.692 42.025-5.311 12.007 1.256 29.984 12.507 34.235 8.17 3.087 30.937-.763 43.239-7.311 5.625-2.995 6.446-3.157 6.446-1.275 0 3.961 5.908 9.456 12.537 11.662 18.511 6.16 34.156-6.237 19.526-15.472-10.793-6.814-10.496-9.276 4.522-37.445 5.165-9.689 3.814-16.398-4.545-22.565-5.501-4.059-19.258-5.916-28.54-3.854m-355.427 8.959c-1.14 1.449-2.073 2.966-2.073 3.372 0 .405-2.812 4.513-6.25 9.129-38.23 51.337-45.976 74.647-31.964 96.188 10.091 15.512 19.029 15.935 21.186 1.002 1.102-7.629 8.971-29.611 12.108-33.826 1.671-2.244 10.399-19.501 13.424-26.539 7.501-17.455 9.037-44.278 2.887-50.427-2.445-2.445-6.948-1.912-9.318 1.101m70.111-.157c-7.17 2.815-10.281 4.799-18.434 11.754l-5.75 4.905v-5.497c0-10.297-7.586-15.324-15.257-10.111-5.156 3.503-7.588 9.459-12.239 29.971-2.019 8.908-10.7 35.421-15.224 46.5-5.174 12.67-5.57 19.992-1.298 23.983 10.105 9.44 18.005 2.225 35.021-31.983 13.204-26.546 25.303-44 30.499-44 3.896 0 4.497 11.248 1.754 32.798-3.135 24.623-2.03 29.496 7.861 34.668 14.842 7.761 29.739-.44 19.921-10.966-8.997-9.646-7.548-17.238 9.34-48.919 4.355-8.172 2.965-21.75-2.709-26.444-.906-.75-1.393-1.774-1.084-2.275.31-.501.193-.8-.261-.665-.453.136-3.074-1.089-5.824-2.723-7.031-4.178-17.232-4.564-26.316-.996m-211.435 2.009c-18.029 2.948-42.232 12.764-48.904 19.834-8.642 9.158-10.058 16.293-4.448 22.416 3.861 4.212 7.686 4.609 18.129 1.882 5.173-1.35 5.39-1.331 4.467.394-.533.997-1.337 1.964-1.785 2.15-4.693 1.943-24.837 36.78-35.466 61.337-12.822 29.622-22.145 58.797-35.31 110.5-5.645 22.167 5.458 46.77 17.348 38.442 8.959-6.276 29.215-50.99 45.726-100.942.727-2.2 2.754-7.375 4.503-11.5 16.793-39.597 29.575-80.259 30.729-97.75l.544-8.25 3.609.02c14.582.079 30.005 5.967 38.307 14.624 10.933 11.401 11.162 24.864.688 40.462-4.566 6.799-16.711 18.175-18.622 17.442-.752-.289-1.103-.096-.779.428 1.437 2.325-23.785 14.977-34.818 17.465-1.558.351-4.708 1.842-7 3.314-2.292 1.471-4.458 2.593-4.814 2.494-1.591-.444.641 3.995 2.905 5.775 3.515 2.765 20.367 2.771 31.877.012 23.119-5.543 52.106-24.228 63.167-40.716 16.781-25.014 18.572-46.866 5.723-69.842-12.71-22.727-44.136-35.165-75.776-29.991m303.751 3.928c-25.932 5.982-47.186 21.568-58.07 42.585-7.659 14.79.378 34.245 15.057 36.446 7.936 1.19 21.437-4.165 34.143-13.543l5.129-3.786 3.141 3.908c5.424 6.75 17.445 7.805 29.779 2.613 9.455-3.979 12.324-10.88 5.584-13.43a668.118 668.118 0 0 0-7.441-2.735c-6.71-2.424-9.162-4.993-8.523-8.931.66-4.067 5.485-14.238 10.66-22.473 4.275-6.804 5.182-11.984 2.675-15.284-4.008-5.275-20.556-8.04-32.134-5.37m190.899 10.582c-7.985 1.171-30.04 14.02-31.761 18.503-1.776 4.628 2.917 8.932 9.723 8.917 11.233-.024 19.096-4.847 29.016-17.8 8.062-10.524 7.209-11.7-6.978-9.62M466.5 349.004c-8.429 1.273-27.271 11.895-30.721 17.32-3.106 4.882 1.029 10.067 8.012 10.047 11.478-.033 19.635-4.932 29.112-17.483 8.113-10.745 7.328-11.956-6.403-9.884m88.801 67.954c-5.562 3.392-17.709 21.836-23.363 35.477-1.424 3.436-3.22 6.097-4.419 6.545-4.066 1.521-15.233 2.032-23.377 1.07-6.536-.772-9.06-.693-11.582.36-8.183 3.42-10.276 13.074-4.16 19.19l3.4 3.4h11.541c6.348 0 11.805.427 12.127.948.322.522-.367 3.559-1.532 6.75-9.477 25.962-13.902 46.756-14.832 69.7l-.604 14.898-5 1.36c-24.541 6.672-44.73 13.532-88.5 30.069-3.575 1.351-7.625 2.813-9 3.248-2.808.89-12.073 4.505-59.5 23.217-18.15 7.161-34.361 13.621-36.025 14.355-1.664.735-6.614 2.752-11 4.484-7.244 2.86-13.152 5.435-30.975 13.5-3.3 1.493-7.86 3.522-10.134 4.508-17.228 7.471-11.385 33.278 8.249 36.432 7.366 1.183 23.558-1.222 31.099-4.619 3.732-1.682 9.036-4.076 11.786-5.321 2.75-1.244 11.75-5.301 20-9.016s17.475-7.887 20.5-9.272c25.469-11.657 31.888-14.538 34.5-15.485 1.65-.598 3.9-1.646 5-2.33 1.1-.684 8.525-4.033 16.5-7.443 16.401-7.012 18.932-8.138 31.5-14.012 4.95-2.314 13.5-5.9 19-7.97 5.5-2.07 15.4-5.875 22-8.454 42.986-16.802 55.817-21.478 97.5-35.532 1.925-.649 4.4-1.572 5.5-2.05 1.1-.479 5.375-1.817 9.5-2.973s12.9-3.867 19.5-6.024 18.75-6.005 27-8.551c21.401-6.605 29.38-10.842 29.468-15.648.116-6.302-50.897-2.191-96.968 7.815-6.325 1.373-15.775 3.421-21 4.549-5.225 1.129-11.896 2.727-14.824 3.552-2.928.825-5.557 1.267-5.841.983-.519-.519 5.38-18.854 13.888-43.168 2.502-7.15 6.888-20.318 9.746-29.262 5.901-18.463 5.913-18.481 14.326-21.166 3.413-1.089 10.705-3.607 16.205-5.596 5.5-1.99 12.7-4.504 16-5.588 16.622-5.458 44.531-17.078 45.538-18.958 3.419-6.389-.571-7.693-13.855-4.526-5.876 1.401-14.058 3.019-18.183 3.597-4.125.577-10.65 1.925-14.5 2.995-3.85 1.071-10.95 2.39-15.778 2.933-4.828.543-9.274 1.294-9.88 1.668-1.311.811-1.593 1.473 4.893-11.483 2.881-5.755 5.295-12.001 5.414-14.009.522-8.855-8.919-13.981-16.848-9.147M341.518 450.26c-4.369 4.512-8.8 11.404-16.748 26.052-2.755 5.079-8.892 21.473-11.3 30.188a3432.07 3432.07 0 0 1-3.54 12.719c-1.567 5.565-.79 5.193-17.357 8.328a8298.564 8298.564 0 0 0-18.073 3.437c-8.868 1.708-15.82 2.349-15.348 1.415 4.157-8.233 8.534-19.439 11.873-30.399a2888.96 2888.96 0 0 1 6.088-19.693c6.334-20.167 2.685-36.551-6.99-31.373-2.389 1.279-13.421 14.762-15.6 19.066-.974 1.925-3.748 6.496-6.163 10.159-6.147 9.319-29.36 56.09-29.36 59.156 0 2.626-2.744 3.781-11.166 4.701-25.778 2.818-34.031 6.791-32.38 15.589 1.531 8.161 13.053 15.395 24.521 15.395 2.764 0 5.025.128 5.025.285 0 .156-.914 2.886-2.032 6.065-1.78 5.065-6.639 24.465-9.054 36.15-4.56 22.061 4.235 38.063 18.975 34.527 8.819-2.116 15.798-11.31 19.989-26.33A8093.286 8093.286 0 0 1 239.564 602c2.574-9.075 5.197-19.421 5.829-22.991l1.149-6.49 6.207-1.675c3.414-.922 7.679-2.417 9.479-3.322 1.8-.906 7.772-3.455 13.272-5.663 5.5-2.209 12.617-5.105 15.816-6.437 3.199-1.332 6.171-2.422 6.606-2.422.435 0-.481 4.527-2.034 10.061-3.412 12.155-4.263 32.392-1.579 37.553 5.756 11.067 19.854 11.156 26.977.171 3.811-5.878 8.362-19.086 12.845-37.285 2.168-8.8 4.575-18.025 5.35-20.5a210.562 210.562 0 0 0 2.476-8.653c.986-3.835 1.841-4.636 11.188-10.487 10.259-6.422 13.289-9.396 12.688-12.454-.702-3.566-3.33-3.946-11.827-1.708-8.778 2.311-8.218 2.582-6.607-3.198.306-1.1.994-4.925 1.528-8.5s1.244-7.625 1.578-9c.335-1.375.976-5.875 1.426-10 .45-4.125 1.606-11.177 2.57-15.67 2.009-9.37 1.466-14.539-1.763-16.801-3.618-2.534-5.881-1.781-11.22 3.731m92.982 30.616c-11.104 3.208-20.693 8.932-33.141 19.783-3.928 3.424-7.488 5.913-7.911 5.533-.423-.381-.407-.068.035.695.521.897.096 1.957-1.203 3-7.456 5.99-17.237 22.713-20.308 34.722-4.614 18.039-1.078 33.456 10.166 44.333 17.963 17.375 56.021 3.386 76.615-28.162 8.286-12.692 17.159-38.121 15.589-44.671-1.001-4.174-3.938-9.413-6.745-12.033-3.392-3.167-3.284-4.1.903-7.807 11.775-10.424-12.757-21.531-34-15.393m.989 36.412c-33.678 23.789-47.187 43.187-37.57 53.946 4.841 5.416 16.761 4.133 24.831-2.671 3.21-2.707 3.25-2.848 3.25-11.492 0-14.022 4.255-27.127 12.572-38.726 2.157-3.007.487-3.579-3.083-1.057" fill-rule="evenodd"/>
</svg>