<?xml version="1.0" encoding="UTF-8" standalone="no"?>
<svg
   xmlns:dc="http://purl.org/dc/elements/1.1/"
   xmlns:cc="http://creativecommons.org/ns#"
   xmlns:rdf="http://www.w3.org/1999/02/22-rdf-syntax-ns#"
   xmlns:svg="http://www.w3.org/2000/svg"
   xmlns="http://www.w3.org/2000/svg"
   viewBox="0 0 47.999901 47.999901"
   id="svg2"
   height="47.999901"
   width="47.999901"
   version="1.1">
  <metadata
     id="metadata24">
    <rdf:RDF>
      <cc:Work
         rdf:about="">
        <dc:format>image/svg+xml</dc:format>
        <dc:type
           rdf:resource="http://purl.org/dc/dcmitype/StillImage" />
      </cc:Work>
    </rdf:RDF>
  </metadata>
  <defs
     id="defs22" />
  <path
     id="path4"
     style="fill:#faae25;fill-rule:evenodd"
     d="m 28.3574,15.225 c -1.7725,-0.0932 -3.5929,-0.3393 -5.2121,0.0457 -2.2501,0.5349 -1.7864,1.002 -3.4305,-1.0421 C 14.9146,8.5582 14.0821,7.4431 7.3283,4.1849 c 0.648,7.7879 5.3322,9.7866 11.0401,13.4935 -0.5284,0.9984 -1.3303,1.7107 -1.7337,2.823 l -0.8949,3.661 c 2.734,0.2273 0.8447,4.6051 1.0077,5.1647 0.3827,1.3124 3.8041,2.1815 4.9504,2.5458 l 0,1.7524 4.381,-0.701 0,1.4023 c 0.6551,-0.0547 6.3459,-2.126 6.6934,-2.9447 L 34.14,23.1107 c 0.2226,-2.7076 -1.7458,-4.7619 -1.6659,-5.3713 0.2415,-1.8426 2.6924,-2.3055 3.4348,-10.9097 L 36.4183,0.1543 C 35.5647,0.2255 35.2286,0.795 34.6905,1.2301 30.9616,4.247 28.464,10.4183 28.3574,15.225 Z m -8.587,21.7301 c 2.9228,-0.8994 1.582,-1.0306 5.6078,0.8762 l 0,-4.206 c -3.981,0.5972 -2.6312,0.7007 -6.1336,0 0,0.9229 0.14,0.9657 0.1706,1.7577 0.0201,0.5287 -0.1579,1.5721 0.3552,1.5721 z m 6.3085,-0.5258 6.4842,-1.7524 0,-1.0516 c -2.0574,0 -3.4755,0.8529 -5.5233,1.311 -1.2262,0.2747 -0.9609,0.0337 -0.9609,1.493 z" />
  <path
     id="path6"
     style="fill:#b7271a;fill-rule:evenodd"
     d="m 15.074,26.7582 c 0.6474,0.9176 0.6424,1.5718 1.6279,2.431 0.4319,-1.7223 1.1597,-3.0854 -0.1325,-4.9654 l -0.8203,-0.0696 0.0149,-0.3467 c -0.7447,0.7781 -0.6356,1.9262 -0.69,2.9507 z" />
  <path
     id="path8"
     style="fill:#b3290a;fill-rule:evenodd"
     d="m 28.3283,25.8434 0.4293,-0.9525 c 1.1906,1.7583 1.0175,1.4563 0.0458,4.3683 l -1.5422,-1.9498 c 0.3945,-1.8001 0.1113,-1.2435 1.2874,-2.4098 0.0892,0.6134 0.161,0.3868 -0.2203,0.9438 z m 0.5901,3.9129 c 1.4164,-1.0941 1.4764,-4.0268 0.1743,-5.2581 -1.6701,-0.2372 -2.1501,0.9476 -2.1669,2.4598 -0.0151,1.3876 0.332,2.9716 1.9926,2.7983 z m -0.5901,-3.9129 c 0.3813,-0.557 0.3095,-0.3304 0.2203,-0.9438 -1.1761,1.1663 -0.8929,0.6097 -1.2874,2.4098 l 1.5422,1.9498 c 0.9717,-2.912 1.1448,-2.61 -0.0458,-4.3683 l -0.4293,0.9525 z" />
  <path
     id="path10"
     style="fill:#2b1d0b;fill-rule:evenodd"
     d="m 26.3157,20.3224 0.4826,-0.0039 c 0.0623,-0.0077 0.1257,-0.0116 0.1901,-0.0116 0.0556,0 0.1107,0.0031 0.1647,0.0089 l 0.0188,-2e-4 0.0023,0.0024 c 0.645,0.0772 1.1678,0.5521 1.3162,1.1722 0.041,0.0643 0.0843,0.138 0.1337,0.2239 -0.0314,0.0545 -0.0619,0.1089 -0.0915,0.1629 -0.0101,0.6176 -0.3831,1.1473 -0.9148,1.3849 -0.1155,0.0752 -0.2447,0.1168 -0.3945,0.1159 -0.0766,0.0118 -0.155,0.0178 -0.2349,0.0178 -0.853,0 -1.5443,-0.6915 -1.5443,-1.5445 0,-0.5087 0.2461,-0.9601 0.6257,-1.2414 l 0.2459,-0.2873 0,0 z m -4.4199,3.7977 -0.067,-0.2254 c -0.6796,-0.1834 -0.9474,-0.2716 -1.5507,0.0273 0.1233,0.6708 -0.1809,0.3051 0.5607,0.7631 0.7306,-0.1544 0.4475,-0.2289 1.057,-0.565 z m -3.6447,-3.2937 0.9755,-0.0387 0.0317,1.2067 -0.9985,0.1235 -0.0087,-1.2915 z m -0.5599,2.7756 c 2.5815,0.4415 2.3486,-2.6405 1.3576,-3.0861 -1.5298,-0.6878 -3.0078,1.565 -1.3576,3.0861 z" />
  <path
     id="path12"
     style="fill:#ffffff;fill-rule:evenodd;stroke:#ffffff;stroke-width:0.56690001;stroke-linecap:butt;stroke-linejoin:miter;stroke-dasharray:none"
     d="m 26.6019,20.4818 a 0.8463,0.8463 0 0 1 0.8463,0.8463 0.8463,0.8463 0 1 1 -0.8463,-0.8463 z" />
  <path
     id="path14"
     style="fill:#ffffff;fill-rule:evenodd;stroke:#ffffff;stroke-width:0.56690001;stroke-linecap:butt;stroke-linejoin:miter;stroke-dasharray:none"
     d="m 18.7913,20.8625 a 0.7736,0.7736 0 0 1 0.7736,0.7736 0.7736,0.7736 0 1 1 -0.7736,-0.7736 z" />
  <path
     id="path16"
     style="fill:#e6e6e6;fill-rule:evenodd"
     d="m 5.7786,45.0364 -0.254,0.2404 C 5.3412,45.0971 5.1411,44.961 4.9236,44.8683 4.7062,44.7754 4.4939,44.7291 4.2878,44.7291 c -0.2571,0 -0.502,0.0633 -0.7347,0.1894 -0.2319,0.1261 -0.4122,0.2974 -0.54,0.5134 -0.1276,0.216 -0.1916,0.4447 -0.1916,0.6851 0,0.2466 0.0663,0.4807 0.1987,0.7027 0.1321,0.2222 0.3146,0.3971 0.5473,0.5241 0.2336,0.127 0.489,0.1902 0.7668,0.1902 0.3376,0 0.6228,-0.0952 0.8555,-0.2851 0.2336,-0.1902 0.3711,-0.4366 0.4144,-0.7393 l -1.0448,0 0,-0.3164 1.4131,0 c -0.0032,0.5063 -0.1537,0.908 -0.4519,1.2062 -0.2973,0.2982 -0.6959,0.4464 -1.1954,0.4464 -0.6054,0 -1.0853,-0.206 -1.4391,-0.619 -0.2721,-0.3181 -0.4076,-0.6855 -0.4076,-1.103 0,-0.3101 0.0776,-0.5992 0.2335,-0.8668 0.156,-0.2671 0.3705,-0.4763 0.6418,-0.6276 0.2724,-0.1505 0.5797,-0.2257 0.9227,-0.2257 0.2775,0 0.5391,0.0502 0.7841,0.1506 0.2457,0.1003 0.4844,0.2607 0.718,0.4821 z m 1.9134,0.2404 c 0.3724,0 0.6814,0.1352 0.9269,0.4059 0.2228,0.2466 0.3339,0.5386 0.3339,0.8754 0,0.3384 -0.1179,0.6352 -0.3529,0.8883 -0.2356,0.2535 -0.5383,0.3796 -0.9079,0.3796 -0.3714,0 -0.6747,-0.1261 -0.9105,-0.3796 -0.2359,-0.2531 -0.3529,-0.5499 -0.3529,-0.8883 0,-0.3354 0.1111,-0.6265 0.3339,-0.8731 0.2449,-0.2721 0.5553,-0.4082 0.9295,-0.4082 z m 0,0.3056 c -0.2586,0 -0.4808,0.0958 -0.6665,0.2874 -0.1854,0.1916 -0.2783,0.4229 -0.2783,0.6953 0,0.1749 0.0419,0.3385 0.1272,0.4896 0.0842,0.1522 0.1985,0.2687 0.343,0.3515 0.1437,0.0822 0.3019,0.1233 0.4746,0.1233 0.1717,0 0.3299,-0.0411 0.4745,-0.1233 0.1437,-0.0828 0.2585,-0.1993 0.343,-0.3515 0.0844,-0.1511 0.127,-0.3147 0.127,-0.4896 0,-0.2724 -0.0936,-0.5037 -0.2798,-0.6953 C 8.1702,45.6782 7.9491,45.5824 7.692,45.5824 Z m 2.112,-1.143 0.315,0 0,0.8998 0.4943,0 0,0.2676 -0.4943,0 0,2.1568 -0.315,0 0,-2.1568 -0.4251,0 0,-0.2676 0.4251,0 0,-0.8998 z m 1.5463,0 0.315,0 0,0.8998 0.4943,0 0,0.2676 -0.4943,0 0,2.1568 -0.315,0 0,-2.1568 -0.4252,0 0,-0.2676 0.4252,0 0,-0.8998 z m 3.6902,0.8998 0,2.4244 -0.3073,0 0,-0.4167 c -0.1307,0.1588 -0.2775,0.2784 -0.4402,0.3589 -0.1627,0.0799 -0.3407,0.1202 -0.5341,0.1202 -0.3429,0 -0.6358,-0.1247 -0.879,-0.3733 -0.2426,-0.2489 -0.3642,-0.5516 -0.3642,-0.9082 0,-0.349 0.123,-0.6472 0.3679,-0.8952 0.2449,-0.2478 0.54,-0.3725 0.8847,-0.3725 0.1993,0 0.3793,0.0425 0.54,0.127 0.161,0.085 0.3025,0.212 0.4249,0.381 l 0,-0.4456 0.3073,0 z m -1.2478,0.2386 c -0.1735,0 -0.3339,0.0426 -0.4816,0.1279 -0.1469,0.0859 -0.2639,0.2052 -0.3507,0.3606 -0.0867,0.1542 -0.1298,0.3177 -0.1298,0.4895 0,0.1712 0.0431,0.3348 0.1307,0.4907 0.0881,0.1559 0.2052,0.2769 0.3537,0.3642 0.1474,0.0868 0.3065,0.1301 0.4751,0.1301 0.1712,0 0.3334,-0.0433 0.4862,-0.1292 0.1528,-0.0859 0.2707,-0.2024 0.3529,-0.3498 0.0828,-0.1469 0.1239,-0.3127 0.1239,-0.4967 0,-0.2806 -0.0927,-0.5156 -0.2776,-0.7044 -0.1848,-0.1885 -0.4121,-0.2829 -0.6828,-0.2829 z m 5.5661,0.2654 -0.2472,0.1536 c -0.2143,-0.2835 -0.5057,-0.4258 -0.8759,-0.4258 -0.2951,0 -0.5408,0.095 -0.7364,0.2852 -0.1953,0.1902 -0.2929,0.4212 -0.2929,0.6928 0,0.1772 0.0451,0.343 0.1347,0.4997 0.0898,0.1559 0.2132,0.277 0.3696,0.3629 0.1568,0.0859 0.3325,0.1292 0.5273,0.1292 0.3566,0 0.648,-0.1414 0.8736,-0.426 l 0.2472,0.163 c -0.1162,0.174 -0.2713,0.3087 -0.4669,0.4045 -0.1956,0.0958 -0.4175,0.1437 -0.667,0.1437 -0.3832,0 -0.7013,-0.1216 -0.9538,-0.3651 -0.2523,-0.2441 -0.3787,-0.54 -0.3787,-0.8889 0,-0.235 0.0586,-0.4533 0.1774,-0.6543 0.1176,-0.2015 0.2798,-0.358 0.4867,-0.4714 0.2061,-0.1125 0.4371,-0.1695 0.6928,-0.1695 0.1604,0 0.3149,0.0249 0.4646,0.0737 0.1491,0.0493 0.2752,0.1134 0.3796,0.1916 0.1043,0.0791 0.1924,0.1786 0.2653,0.3011 z m 3.0146,-0.504 0,2.4244 -0.3072,0 0,-0.4167 c -0.1307,0.1588 -0.2776,0.2784 -0.4403,0.3589 -0.1627,0.0799 -0.3407,0.1202 -0.534,0.1202 -0.343,0 -0.6358,-0.1247 -0.879,-0.3733 -0.2427,-0.2489 -0.3643,-0.5516 -0.3643,-0.9082 0,-0.349 0.123,-0.6472 0.368,-0.8952 0.2449,-0.2478 0.54,-0.3725 0.8846,-0.3725 0.1993,0 0.3793,0.0425 0.54,0.127 0.1611,0.085 0.3025,0.212 0.425,0.381 l 0,-0.4456 0.3072,0 z m -1.2478,0.2386 c -0.1735,0 -0.3339,0.0426 -0.4816,0.1279 -0.1468,0.0859 -0.2639,0.2052 -0.3506,0.3606 -0.0868,0.1542 -0.1299,0.3177 -0.1299,0.4895 0,0.1712 0.0431,0.3348 0.1307,0.4907 0.0882,0.1559 0.2052,0.2769 0.3538,0.3642 0.1474,0.0868 0.3064,0.1301 0.4751,0.1301 0.1712,0 0.3333,-0.0433 0.4861,-0.1292 0.1528,-0.0859 0.2707,-0.2024 0.3529,-0.3498 0.0828,-0.1469 0.1239,-0.3127 0.1239,-0.4967 0,-0.2806 -0.0927,-0.5156 -0.2775,-0.7044 -0.1848,-0.1885 -0.4122,-0.2829 -0.6829,-0.2829 z m 2.2215,-1.1384 0.315,0 0,0.8998 0.4943,0 0,0.2676 -0.4943,0 0,2.1568 -0.315,0 0,-2.1568 -0.4252,0 0,-0.2676 0.4252,0 0,-0.8998 z m 3.6278,1.4038 -0.2472,0.1536 C 26.5134,45.7133 26.222,45.571 25.8518,45.571 c -0.2951,0 -0.5408,0.095 -0.7364,0.2852 -0.1953,0.1902 -0.2928,0.4212 -0.2928,0.6928 0,0.1772 0.045,0.343 0.1346,0.4997 0.0899,0.1559 0.2132,0.277 0.3697,0.3629 0.1567,0.0859 0.3325,0.1292 0.5272,0.1292 0.3566,0 0.648,-0.1414 0.8736,-0.426 l 0.2472,0.163 c -0.1162,0.174 -0.2713,0.3087 -0.4669,0.4045 -0.1955,0.0958 -0.4175,0.1437 -0.6669,0.1437 -0.3833,0 -0.7013,-0.1216 -0.9539,-0.3651 -0.2523,-0.2441 -0.3787,-0.54 -0.3787,-0.8889 0,-0.235 0.0587,-0.4533 0.1774,-0.6543 0.1177,-0.2015 0.2798,-0.358 0.4867,-0.4714 0.2061,-0.1125 0.4371,-0.1695 0.6928,-0.1695 0.1605,0 0.315,0.0249 0.4646,0.0737 0.1491,0.0493 0.2753,0.1134 0.3796,0.1916 0.1043,0.0791 0.1925,0.1786 0.2653,0.3011 z m 0.5993,-1.4395 0.3118,0 0,1.3703 c 0.1264,-0.1664 0.2656,-0.2911 0.4167,-0.3733 0.1513,-0.0822 0.3157,-0.1239 0.4929,-0.1239 0.1811,0 0.3416,0.0462 0.4822,0.1383 0.14,0.0922 0.244,0.216 0.3104,0.3711 0.0669,0.1553 0.1003,0.3985 0.1003,0.7293 l 0,1.2481 -0.3118,0 0,-1.1568 c 0,-0.2792 -0.0108,-0.4654 -0.0334,-0.559 -0.0389,-0.1604 -0.1089,-0.2806 -0.2107,-0.362 -0.1012,-0.0805 -0.2349,-0.1216 -0.4002,-0.1216 -0.1885,0 -0.3575,0.0624 -0.5066,0.1871 -0.1488,0.1253 -0.2477,0.2798 -0.295,0.4638 -0.0295,0.1187 -0.0448,0.3384 -0.0448,0.6596 l 0,0.8889 -0.3118,0 0,-3.3599 z m 3.4421,-0.2009 0.4793,0 -0.6573,0.6868 -0.307,0 0.485,-0.6868 z m 3.0931,2.7561 0.2625,0.1386 c -0.0859,0.1695 -0.1856,0.3056 -0.2982,0.4099 -0.1134,0.104 -0.2404,0.1831 -0.381,0.2372 -0.1414,0.0539 -0.301,0.0814 -0.479,0.0814 -0.3954,0 -0.7044,-0.1293 -0.9272,-0.3886 -0.2228,-0.2594 -0.3339,-0.5522 -0.3339,-0.8793 0,-0.307 0.0943,-0.5817 0.2828,-0.8221 0.239,-0.3056 0.559,-0.4592 0.9599,-0.4592 0.413,0 0.7432,0.1573 0.9895,0.4706 0.1758,0.2213 0.2648,0.4974 0.2676,0.8282 l -2.1787,0 c 0.0051,0.2829 0.0958,0.5142 0.269,0.6945 0.1744,0.1803 0.3887,0.2707 0.6443,0.2707 0.1231,0 0.2433,-0.0212 0.3598,-0.0646 0.1162,-0.0434 0.216,-0.1003 0.2973,-0.1721 0.0814,-0.0705 0.1704,-0.1862 0.2653,-0.3452 z m 0,-0.6526 c -0.0416,-0.1663 -0.1026,-0.2996 -0.1817,-0.3985 -0.0799,-0.0995 -0.1848,-0.18 -0.3155,-0.2409 -0.1309,-0.061 -0.2678,-0.0913 -0.4124,-0.0913 -0.2373,0 -0.4416,0.0768 -0.612,0.2296 -0.1247,0.1111 -0.2191,0.2783 -0.2829,0.5011 l 1.8045,0 z m 0.9219,-0.9671 0.3095,0 0,0.4189 c 0.1089,-0.1545 0.2197,-0.267 0.3348,-0.3384 0.1573,-0.095 0.3231,-0.1429 0.4966,-0.1429 0.1171,0 0.2288,0.0235 0.3345,0.0692 0.1049,0.0462 0.1916,0.1071 0.2579,0.1839 0.0669,0.0769 0.1248,0.1863 0.1741,0.3286 0.1043,-0.1902 0.2341,-0.3345 0.39,-0.4334 0.1559,-0.099 0.3235,-0.1483 0.5038,-0.1483 0.1672,0 0.3155,0.0425 0.4439,0.127 0.1287,0.085 0.2245,0.203 0.2868,0.3543 0.0624,0.1514 0.0936,0.3787 0.0936,0.6823 l 0,1.3232 -0.3186,0 0,-1.3232 c 0,-0.2602 -0.019,-0.4391 -0.0556,-0.5363 -0.0374,-0.0972 -0.1012,-0.1757 -0.1911,-0.235 -0.0895,-0.0592 -0.1967,-0.089 -0.3214,-0.089 -0.1522,0 -0.2906,0.0442 -0.4161,0.1338 -0.1256,0.089 -0.2169,0.2078 -0.2753,0.356 -0.0578,0.1491 -0.0867,0.3969 -0.0867,0.7447 l 0,0.949 -0.3096,0 0,-1.2413 c 0,-0.2928 -0.0184,-0.4912 -0.0547,-0.5961 -0.0365,-0.1043 -0.0997,-0.1888 -0.1902,-0.2517 -0.0904,-0.0632 -0.1984,-0.0944 -0.3231,-0.0944 -0.1446,0 -0.2792,0.0434 -0.4048,0.1301 -0.1253,0.0873 -0.2183,0.2038 -0.2784,0.3512 -0.0601,0.1469 -0.0904,0.3719 -0.0904,0.6747 l 0,1.0275 -0.3095,0 0,-2.4244 z m 7.9611,0 0,2.4244 -0.3073,0 0,-0.4167 c -0.1307,0.1588 -0.2775,0.2784 -0.4402,0.3589 -0.1627,0.0799 -0.3408,0.1202 -0.5341,0.1202 -0.343,0 -0.6358,-0.1247 -0.879,-0.3733 -0.2427,-0.2489 -0.3643,-0.5516 -0.3643,-0.9082 0,-0.349 0.1231,-0.6472 0.368,-0.8952 0.2449,-0.2478 0.54,-0.3725 0.8847,-0.3725 0.1992,0 0.3792,0.0425 0.54,0.127 0.161,0.085 0.3024,0.212 0.4249,0.381 l 0,-0.4456 0.3073,0 z m -1.2478,0.2386 c -0.1735,0 -0.334,0.0426 -0.4817,0.1279 -0.1468,0.0859 -0.2639,0.2052 -0.3506,0.3606 -0.0867,0.1542 -0.1298,0.3177 -0.1298,0.4895 0,0.1712 0.0431,0.3348 0.1306,0.4907 0.0882,0.1559 0.2053,0.2769 0.3538,0.3642 0.1474,0.0868 0.3064,0.1301 0.4751,0.1301 0.1712,0 0.3334,-0.0433 0.4861,-0.1292 0.1528,-0.0859 0.2708,-0.2024 0.353,-0.3498 0.0827,-0.1469 0.1238,-0.3127 0.1238,-0.4967 0,-0.2806 -0.0927,-0.5156 -0.2775,-0.7044 -0.1848,-0.1885 -0.4121,-0.2829 -0.6828,-0.2829 z m 1.9034,-1.1741 0.3118,0 0,3.3599 -0.3118,0 0,-3.3599 z m 0.9133,0 0.3118,0 0,3.3599 -0.3118,0 0,-3.3599 z m 1.4437,0 0,2.5402 -0.3234,0 0,-2.5402 0.3234,0 z m -0.1584,2.8693 c 0.0754,0 0.14,0.0275 0.1941,0.0807 0.053,0.0533 0.0797,0.1185 0.0797,0.1962 0,0.0754 -0.0267,0.1406 -0.0797,0.1947 -0.0541,0.0539 -0.1187,0.0814 -0.1941,0.0814 -0.076,0 -0.1406,-0.0275 -0.1939,-0.0814 -0.0533,-0.0541 -0.0805,-0.1193 -0.0805,-0.1947 0,-0.0777 0.0272,-0.1429 0.0805,-0.1962 0.0533,-0.0532 0.1179,-0.0807 0.1939,-0.0807 z" />
  <path
     id="path18"
     style="fill:#e6e6e6;fill-rule:evenodd"
     d="m 1.6831,41.1768 c 0.0606,0.0054 0.1142,0.0096 0.1627,0.0124 0.0476,0.0026 0.0915,0.0034 0.1309,0.0034 0.2472,0 0.44,-0.0632 0.576,-0.189 0.1364,-0.1267 0.205,-0.3042 0.205,-0.5329 0,-0.1987 -0.0641,-0.3572 -0.1916,-0.474 -0.1284,-0.1171 -0.3016,-0.1752 -0.5199,-0.1752 -0.0561,0 -0.1151,0.0029 -0.1749,0.008 -0.0598,0.0054 -0.1213,0.0124 -0.1828,0.0229 -0.0037,0.1749 -0.0054,0.3572 -0.0063,0.5451 -8e-4,0.1882 -8e-4,0.4479 9e-4,0.7793 z m -1.546,1.5259 c 0.0141,0.0017 0.0306,0.0025 0.0501,0.0036 0.0202,9e-4 0.0474,0.0017 0.0834,0.0017 0.146,0 0.2471,-0.0343 0.3036,-0.1029 0.0552,-0.0694 0.0836,-0.1961 0.0836,-0.3818 l 0,-0.8302 0,-1.2496 c 0,-0.189 -0.0292,-0.3174 -0.0882,-0.3852 -0.0578,-0.0677 -0.1661,-0.102 -0.3245,-0.102 l -0.0851,0 0,-0.3141 c 0.2716,0.0108 0.4606,0.0167 0.5681,0.0204 0.108,0.0034 0.1933,0.0051 0.2568,0.0051 0.1531,0 0.3685,-0.0079 0.6454,-0.0244 0.277,-0.0159 0.4757,-0.0238 0.5936,-0.0238 0.4915,0 0.8751,0.0984 1.1495,0.2962 0.2752,0.1979 0.4124,0.4697 0.4124,0.8173 0,0.3753 -0.1434,0.6692 -0.43,0.881 -0.2874,0.2111 -0.6885,0.3166 -1.2039,0.3166 -0.0686,0 -0.1417,-0.0017 -0.2191,-0.0062 C 1.8554,41.6201 1.7746,41.613 1.6885,41.6051 l -0.0029,0.4484 c 0,0.2815 0.0275,0.4609 0.0828,0.5383 0.0544,0.0774 0.161,0.1162 0.3192,0.1162 0.0105,0 0.0263,-8e-4 0.0476,-0.0028 0.021,-0.0017 0.0385,-0.0025 0.0527,-0.0025 l 0,0.3061 C 1.9135,42.9955 1.6972,42.9858 1.5416,42.9805 1.3849,42.9754 1.2505,42.9728 1.1368,42.9728 c -0.0878,0 -0.2145,0.0034 -0.3798,0.0113 -0.1661,0.008 -0.3728,0.0193 -0.6199,0.0352 l 0,-0.3166 z m 3.9917,-3.3605 c 0.0615,0.002 0.1502,0.0054 0.2656,0.0108 0.3402,0.013 0.5689,0.0201 0.6877,0.0201 0.1749,0 0.4731,-0.0088 0.8935,-0.0255 0.0703,-0.0034 0.123,-0.0054 0.1573,-0.0054 l 0,0.3246 C 6.1173,39.6651 6.1023,39.6634 6.0864,39.6625 c -0.015,-8e-4 -0.0385,-8e-4 -0.0694,-8e-4 -0.146,0 -0.2447,0.0377 -0.2965,0.1133 -0.0519,0.0757 -0.0774,0.2401 -0.0774,0.4941 0,0.0434 8e-4,0.1233 0.0028,0.2384 0.0017,0.1162 0.0026,0.2112 0.0026,0.2849 l 0,1.6886 c 0.079,0.0079 0.1706,0.015 0.2744,0.0196 0.1037,0.0042 0.2338,0.0059 0.3903,0.0059 0.2956,0 0.5077,-0.0473 0.6361,-0.1414 0.1292,-0.095 0.2381,-0.2727 0.3279,-0.5338 l 0.3447,0.1054 C 7.5604,42.1258 7.5057,42.3103 7.4592,42.4898 7.4136,42.6692 7.3739,42.8461 7.3413,43.0193 6.7917,43 6.388,42.9875 6.1303,42.9816 5.8727,42.9754 5.6502,42.9728 5.4628,42.9728 c -0.1715,0 -0.3623,0.0034 -0.5715,0.0105 -0.2095,0.0071 -0.4847,0.0184 -0.8268,0.036 l 0,-0.3166 0.1003,0 c 0.1205,0 0.2075,-0.0131 0.2614,-0.0386 C 4.4806,42.6386 4.52,42.591 4.5455,42.5224 4.5651,42.4688 4.5781,42.3721 4.586,42.2313 4.594,42.0898 4.5974,41.7774 4.5974,41.293 l 0,-0.3325 c 0,-0.0808 0.0011,-0.1857 0.0028,-0.313 0.0017,-0.1284 0.0026,-0.2157 0.0026,-0.2622 0,-0.3053 -0.0247,-0.5048 -0.074,-0.5961 -0.0482,-0.0924 -0.1415,-0.1383 -0.2787,-0.1383 -0.0326,0 -0.0572,0.0011 -0.074,0.002 -0.0155,8e-4 -0.0314,0.0017 -0.0473,0.0034 l 0,-0.3141 z m 5.6441,0.7917 -0.5049,1.2285 c 0.0573,0.0017 0.1296,0.0043 0.2183,0.0071 0.0879,0.0026 0.1434,0.0034 0.1661,0.0034 0.087,0 0.2401,-0.0025 0.4584,-0.0079 0.043,-0.0017 0.0745,-0.0026 0.0958,-0.0026 L 9.7729,40.1339 Z m -0.1846,-0.8348 0.94,0 c 0.2296,0.6307 0.4496,1.218 0.6596,1.7626 0.2095,0.5442 0.3799,0.9734 0.5128,1.2883 0.0598,0.1523 0.123,0.2498 0.1908,0.2911 0.0669,0.0414 0.1732,0.0616 0.3192,0.0616 l 0.0283,0 -0.0028,0.3166 c -0.2109,-0.0122 -0.4054,-0.021 -0.5831,-0.0272 -0.1783,-0.0063 -0.3314,-0.0088 -0.4598,-0.0088 -0.1293,0 -0.2823,0.0025 -0.4601,0.0088 -0.1774,0.0062 -0.3727,0.015 -0.5839,0.0272 l 0,-0.3166 0.036,0 c 0.148,0 0.2517,-0.0185 0.3124,-0.0553 0.0598,-0.0371 0.0896,-0.0995 0.0896,-0.1874 0,-0.0255 -0.0051,-0.0581 -0.0151,-0.0978 -0.0105,-0.0394 -0.0255,-0.0825 -0.0439,-0.1292 L 10.392,41.8803 c -0.0913,-0.0017 -0.19,-0.0034 -0.2963,-0.0042 -0.1066,-9e-4 -0.2664,-9e-4 -0.4793,-9e-4 -0.0791,0 -0.1644,0 -0.2551,9e-4 -0.0913,8e-4 -0.1874,0.0025 -0.2883,0.0042 -0.0088,0.0168 -0.0204,0.0414 -0.0335,0.0723 -0.1116,0.2469 -0.1681,0.4079 -0.1681,0.4819 0,0.095 0.0292,0.1619 0.0879,0.2013 0.0581,0.0396 0.1639,0.0615 0.3167,0.0669 l 0,0.3166 C 9.0078,43.0034 8.8233,42.9938 8.7221,42.9895 8.6209,42.985 8.5364,42.9833 8.4695,42.9833 c -0.0754,0 -0.167,0.0017 -0.2752,0.0062 -0.108,0.0043 -0.2841,0.0139 -0.5259,0.0298 l 0,-0.3166 c 0.2665,0 0.4626,-0.1347 0.5902,-0.4045 C 8.277,42.2585 8.292,42.2287 8.3025,42.2083 8.5285,41.7335 8.7484,41.257 8.9622,40.776 9.175,40.2946 9.3834,39.8023 9.5883,39.2991 Z m 2.3131,0.0431 c 0.1769,0.0108 0.3492,0.0176 0.5179,0.0229 0.1681,0.0054 0.3316,0.008 0.4898,0.008 0.1233,0 0.271,-0.0026 0.4434,-0.008 0.1715,-0.0053 0.3719,-0.0121 0.6023,-0.0229 l 0,0.3141 c -0.1264,0 -0.2188,0.0158 -0.2752,0.0465 -0.057,0.0309 -0.0853,0.0793 -0.0853,0.1442 0,0.0273 0.0079,0.0616 0.0246,0.1029 0.0159,0.0414 0.0493,0.1075 0.0995,0.1987 l 0.4635,0.8655 c 0.0632,-0.1248 0.1502,-0.2903 0.2602,-0.4941 0.2024,-0.3818 0.3044,-0.6044 0.3044,-0.6676 0,-0.0703 -0.0255,-0.1213 -0.0748,-0.1513 -0.0502,-0.0298 -0.138,-0.0448 -0.2631,-0.0448 l 0,-0.3141 c 0.0431,0.002 0.1038,0.0045 0.1832,0.0079 0.269,0.015 0.4546,0.023 0.5556,0.023 0.0969,0 0.2814,-0.008 0.5541,-0.023 0.0808,-0.0034 0.1435,-0.0059 0.1882,-0.0079 l 0,0.3141 c -0.0087,-0.0017 -0.0184,-0.0026 -0.0308,-0.0034 -0.0122,-9e-4 -0.0273,-0.002 -0.0465,-0.002 -0.1681,0 -0.3447,0.1567 -0.5304,0.4697 -0.0326,0.0547 -0.059,0.0978 -0.0774,0.1284 l -0.7704,1.2937 0,0.6806 c 0,0.1891 0.0272,0.3167 0.0827,0.3844 0.0545,0.0669 0.1574,0.1003 0.3087,0.1003 0.0326,0 0.0581,-8e-4 0.0749,-0.0017 0.0175,-0.0011 0.0331,-0.0019 0.049,-0.0036 l 0.0028,0.3166 c -0.2559,-0.0159 -0.4671,-0.0264 -0.6324,-0.0326 -0.1661,-0.0062 -0.3007,-0.0088 -0.4036,-0.0088 -0.1083,0 -0.2464,0.0026 -0.4133,0.0088 -0.1681,0.0062 -0.3861,0.0167 -0.6562,0.0326 l 0,-0.3166 c 0.0175,0.0017 0.036,0.0025 0.0555,0.0036 0.0201,9e-4 0.0465,0.0017 0.0808,0.0017 0.1531,0 0.2577,-0.0334 0.3121,-0.1003 0.0556,-0.0677 0.0828,-0.1953 0.0828,-0.3844 l 0,-0.65 -0.9077,-1.4896 c -0.0113,-0.0184 -0.028,-0.0456 -0.0482,-0.0819 -0.1409,-0.2304 -0.2948,-0.3455 -0.4617,-0.3455 l -0.059,0 0,-0.3141 z m 5.6707,1.8346 c 0.0607,0.0054 0.1142,0.0096 0.1627,0.0124 0.0476,0.0026 0.0916,0.0034 0.131,0.0034 0.2472,0 0.4399,-0.0632 0.576,-0.189 0.1363,-0.1267 0.2049,-0.3042 0.2049,-0.5329 0,-0.1987 -0.064,-0.3572 -0.1916,-0.474 -0.1284,-0.1171 -0.3016,-0.1752 -0.5199,-0.1752 -0.0561,0 -0.1151,0.0029 -0.1749,0.008 -0.0598,0.0054 -0.1213,0.0124 -0.1828,0.0229 -0.0037,0.1749 -0.0054,0.3572 -0.0062,0.5451 -9e-4,0.1882 -9e-4,0.4479 8e-4,0.7793 z m -1.546,1.5259 c 0.0142,0.0017 0.0306,0.0025 0.0502,0.0036 0.0201,9e-4 0.0473,0.0017 0.0833,0.0017 0.146,0 0.2472,-0.0343 0.3036,-0.1029 0.0553,-0.0694 0.0836,-0.1961 0.0836,-0.3818 l 0,-0.8302 0,-1.2496 c 0,-0.189 -0.0292,-0.3174 -0.0881,-0.3852 -0.0579,-0.0677 -0.1661,-0.102 -0.3246,-0.102 l -0.085,0 0,-0.3141 c 0.2715,0.0108 0.4606,0.0167 0.568,0.0204 0.108,0.0034 0.1933,0.0051 0.2568,0.0051 0.1531,0 0.3685,-0.0079 0.6455,-0.0244 0.2769,-0.0159 0.4756,-0.0238 0.5936,-0.0238 0.4915,0 0.875,0.0984 1.1494,0.2962 0.2753,0.1979 0.4125,0.4697 0.4125,0.8173 0,0.3753 -0.1435,0.6692 -0.4301,0.881 -0.2874,0.2111 -0.6885,0.3166 -1.2038,0.3166 -0.0686,0 -0.1418,-0.0017 -0.2192,-0.0062 -0.0773,-0.0043 -0.1581,-0.0114 -0.2443,-0.0193 l -0.0028,0.4484 c 0,0.2815 0.0275,0.4609 0.0827,0.5383 0.0545,0.0774 0.161,0.1162 0.3192,0.1162 0.0105,0 0.0264,-8e-4 0.0476,-0.0028 0.021,-0.0017 0.0386,-0.0025 0.0528,-0.0025 l 0,0.3061 c -0.2744,-0.0133 -0.4907,-0.023 -0.6463,-0.0283 -0.1568,-0.0051 -0.2912,-0.0077 -0.4048,-0.0077 -0.0879,0 -0.2146,0.0034 -0.3799,0.0113 -0.1661,0.008 -0.3727,0.0193 -0.6199,0.0352 l 0,-0.3166 z m 6.1815,-2.9302 c -0.3192,0 -0.5664,0.1185 -0.7404,0.3552 -0.1743,0.2375 -0.2614,0.5734 -0.2614,1.0077 0,0.4654 0.0862,0.8206 0.2586,1.0641 0.1726,0.2438 0.4257,0.366 0.7591,0.366 0.307,0 0.5425,-0.116 0.7078,-0.3481 0.1647,-0.2313 0.2472,-0.5638 0.2472,-0.9967 0,-0.4626 -0.0854,-0.8195 -0.2549,-1.0709 -0.1698,-0.2517 -0.4082,-0.3773 -0.716,-0.3773 z m -2.1898,1.4201 c 0,-0.5601 0.2121,-1.0264 0.635,-1.3983 0.4238,-0.3719 0.955,-0.5576 1.5962,-0.5576 0.6199,0 1.1273,0.1829 1.5222,0.5497 0.3949,0.3668 0.5927,0.8373 0.5927,1.4116 0,0.5593 -0.2058,1.0211 -0.6174,1.3833 -0.4104,0.3623 -0.9365,0.5434 -1.5774,0.5434 -0.6475,0 -1.1682,-0.1766 -1.5611,-0.5312 -0.3931,-0.3535 -0.5902,-0.8203 -0.5902,-1.4009 z m 7.2009,-1.8504 c 0.256,0.0142 0.4459,0.0229 0.5689,0.0283 0.1222,0.0051 0.2251,0.008 0.3078,0.008 0.0808,0 0.1803,-0.0029 0.3,-0.008 0.1196,-0.0054 0.3016,-0.0141 0.5453,-0.0283 l 0,0.3141 c -0.0107,-0.0017 -0.0204,-0.0026 -0.0309,-0.0034 -0.0104,-9e-4 -0.0263,-0.002 -0.0493,-0.002 -0.1168,0 -0.2321,0.0334 -0.3464,0.0995 -0.1142,0.066 -0.2911,0.2146 -0.5295,0.4442 l -0.701,0.6885 1.0721,1.2084 c 0.0414,0.0465 0.0978,0.1125 0.1698,0.1987 0.2338,0.2789 0.4354,0.4178 0.6052,0.4178 0.0246,0 0.0422,-8e-4 0.0544,-0.0017 0.0122,-0.0011 0.0229,-0.0019 0.0334,-0.0036 l 0,0.3166 c -0.2233,-0.0105 -0.3994,-0.0176 -0.5286,-0.021 -0.1284,-0.0028 -0.2364,-0.0045 -0.3243,-0.0045 -0.0618,0 -0.148,0.0017 -0.258,0.0045 -0.1097,0.0034 -0.2803,0.0105 -0.5125,0.021 0.0034,-0.0088 0.006,-0.0167 0.008,-0.0247 0.0017,-0.0079 0.0025,-0.0209 0.0025,-0.0394 0,-0.1224 -0.2489,-0.4663 -0.7475,-1.0309 -0.2559,-0.2883 -0.4609,-0.5233 -0.6157,-0.7036 l 0.8864,-0.9048 c 0.1593,-0.161 0.2631,-0.2753 0.3107,-0.3413 0.0474,-0.066 0.0712,-0.1205 0.0712,-0.1636 0,-0.0518 -0.0238,-0.0904 -0.0712,-0.1159 -0.0476,-0.0255 -0.1205,-0.0388 -0.2208,-0.0388 l 0,-0.3141 z m -2.4678,0 c 0.2057,0.0125 0.3906,0.0212 0.5541,0.0275 0.1627,0.0059 0.2937,0.0088 0.394,0.0088 0.1548,0 0.3167,-0.0029 0.4862,-0.0088 0.1706,-0.0063 0.3467,-0.015 0.5286,-0.0275 l 0,0.3141 -0.0748,0 c -0.1565,0 -0.2611,0.0388 -0.3155,0.1162 -0.0538,0.0774 -0.0811,0.29 -0.0811,0.6392 l 0,0.0431 0,1.5778 c 0,0.3041 0.0264,0.4923 0.08,0.5655 0.053,0.0728 0.1559,0.1099 0.3061,0.1099 0.0309,0 0.0556,-8e-4 0.074,-0.0017 0.0176,-0.0011 0.0335,-0.0011 0.0473,-0.0011 l 0,0.3087 C 26.4754,43 26.2626,42.9912 26.1123,42.9858 c -0.1505,-0.0053 -0.2789,-0.0079 -0.3852,-0.0079 -0.0896,0 -0.2137,0.0026 -0.3739,0.0088 -0.159,0.0062 -0.3773,0.0167 -0.6514,0.0326 l 0,-0.3166 c 0.0139,0 0.0315,8e-4 0.0527,0.0025 0.021,0.002 0.0377,0.0028 0.0474,0.0028 0.1601,0 0.2664,-0.0343 0.3211,-0.1029 0.0545,-0.0694 0.0808,-0.2128 0.0808,-0.4311 0,-0.0343 0.0017,-0.146 0.0046,-0.3359 0.0025,-0.1899 0.0042,-0.3569 0.0059,-0.5012 l 0.0054,-0.371 0,-0.243 c 0,-0.0632 9e-4,-0.1468 0.0026,-0.2497 0.0017,-0.1029 0.0025,-0.174 0.0025,-0.2137 0,-0.254 -0.0272,-0.4184 -0.0816,-0.4924 -0.0536,-0.074 -0.1574,-0.1108 -0.3104,-0.1108 l -0.0819,0 0,-0.3141 z m 4.632,0 c 0.2849,0.0142 0.5576,0.0238 0.817,0.0309 0.2594,0.0071 0.4952,0.0105 0.7061,0.0105 0.256,0 0.5287,-0.0026 0.8181,-0.0088 0.2891,-0.006 0.6174,-0.015 0.983,-0.0272 0,0.1627 0.0063,0.3271 0.0193,0.4935 0.0133,0.1652 0.0326,0.3331 0.0581,0.5029 l -0.3095,0.0518 c -0.0377,-0.2197 -0.1179,-0.3702 -0.2418,-0.4518 -0.1239,-0.0819 -0.3484,-0.1225 -0.6727,-0.1225 -0.1136,0 -0.2234,0.002 -0.3308,0.0054 -0.1071,0.0034 -0.2129,0.0088 -0.3158,0.015 -0.0034,0.0695 -0.0059,0.1415 -0.007,0.218 -9e-4,0.0766 -9e-4,0.1865 -9e-4,0.3308 l 0,0.2812 0,0.2685 0.1443,0 c 0.074,0 0.1681,8e-4 0.2832,0.0025 0.1153,0.0017 0.1927,0.0026 0.2321,0.0026 0.2384,0 0.394,-0.0247 0.4652,-0.0746 0.0714,-0.0502 0.1083,-0.1443 0.1117,-0.2832 l 0.2939,0.036 c -0.0133,0.1661 -0.0229,0.2991 -0.0283,0.3966 -0.0051,0.0975 -0.008,0.1837 -0.008,0.2577 0,0.0564 0.0029,0.1698 0.008,0.3396 0.002,0.0569 0.0028,0.1 0.0028,0.1292 l -0.2965,0.0335 0,-0.0443 c 0,-0.1493 -0.0377,-0.2497 -0.1134,-0.3016 -0.0757,-0.0518 -0.2446,-0.0773 -0.5074,-0.0773 -0.0414,0 -0.117,8e-4 -0.227,0.0028 -0.1097,0.0017 -0.1996,0.0025 -0.2699,0.0025 l -0.0907,0 0,0.2778 0,0.3924 c 0,0.072 0,0.1468 9e-4,0.225 0.0011,0.0783 0.0028,0.161 0.0045,0.2489 0.1284,0.0125 0.248,0.0204 0.3572,0.0255 0.1088,0.0054 0.2091,0.008 0.3024,0.008 0.402,0 0.6727,-0.0448 0.8116,-0.1336 0.1391,-0.0898 0.2542,-0.2647 0.3458,-0.5261 l 0.3217,0.1004 c -0.0598,0.1873 -0.1134,0.3676 -0.1581,0.54 -0.046,0.1723 -0.0854,0.3384 -0.118,0.4986 -0.5337,-0.0159 -0.955,-0.0264 -1.2637,-0.0326 -0.3086,-0.0062 -0.5524,-0.0088 -0.7307,-0.0088 -0.1803,0 -0.3872,0.0037 -0.6211,0.0105 -0.2339,0.0071 -0.5048,0.0167 -0.8144,0.0309 l 0,-0.3175 c 0.0142,0 0.0326,9e-4 0.0556,0.0026 0.0226,0.0019 0.0394,0.0028 0.0501,0.0028 0.0842,0 0.1511,-0.0079 0.2013,-0.0247 0.0502,-0.0158 0.0899,-0.0431 0.1213,-0.081 0.038,-0.0448 0.0635,-0.1168 0.0783,-0.2163 0.015,-0.0992 0.0221,-0.2928 0.0221,-0.5794 l 0,-0.1471 0,-0.2603 0,-0.358 c 0,-0.1221 0.0017,-0.2497 0.0051,-0.3832 0,-0.0301 0,-0.0476 0,-0.0547 0,-0.0615 0.0011,-0.1415 0.0028,-0.2381 0.0017,-0.097 0.0026,-0.1639 0.0026,-0.1999 0,-0.2146 -0.0281,-0.3535 -0.0845,-0.4175 -0.0553,-0.0635 -0.1599,-0.095 -0.313,-0.095 -0.0087,0 -0.0246,9e-4 -0.0484,0.0026 -0.0247,0.0017 -0.0423,0.0025 -0.0545,0.0025 l 0,-0.3149 z m 1.2858,-0.4765 0.6928,-1.0817 0.665,0.3325 -1.0306,0.8759 -0.3272,-0.1267 z m 5.2512,2.6127 0.5434,-1.2495 c 0.0105,-0.0247 0.0255,-0.0598 0.0465,-0.1058 0.1593,-0.3656 0.241,-0.6261 0.2446,-0.7809 0.2217,0.0088 0.3958,0.015 0.5216,0.0195 0.1264,0.0043 0.2276,0.006 0.305,0.006 0.0828,0 0.1882,-0.0017 0.3158,-0.006 0.1284,-0.0045 0.3078,-0.0107 0.54,-0.0195 l 0,0.3195 c -0.1996,0 -0.3288,0.0226 -0.3886,0.0686 -0.0607,0.0447 -0.0907,0.1318 -0.0907,0.2585 0,0.0326 0.0045,0.1275 0.0141,0.284 0.0097,0.1556 0.0219,0.3288 0.0377,0.5179 l 0.0389,0.4609 c 0.0079,0.1083 0.0184,0.2543 0.0306,0.438 0.038,0.5057 0.0782,0.801 0.1213,0.8864 0.0238,0.045 0.0607,0.0782 0.1108,0.0994 0.0494,0.0219 0.1154,0.0326 0.1954,0.0326 0.0104,0 0.0255,-8e-4 0.0456,-0.0028 0.0195,-0.0017 0.0343,-0.0025 0.0451,-0.0025 l -0.0029,0.3166 c -0.2092,-0.0122 -0.4019,-0.021 -0.5768,-0.0272 -0.1758,-0.0063 -0.3271,-0.0088 -0.4564,-0.0088 -0.1134,0 -0.2534,0.0025 -0.4187,0.0088 -0.1661,0.0062 -0.3509,0.015 -0.5559,0.0272 l -0.0017,-0.3166 0.0749,0 c 0.1661,0 0.2795,-0.0247 0.3413,-0.074 0.0606,-0.0482 0.0912,-0.1381 0.0912,-0.269 0,-0.0632 -8e-4,-0.1109 -0.0017,-0.1415 -8e-4,-0.0309 -0.0017,-0.0589 -0.0034,-0.0853 l -0.1216,-1.7836 -0.8759,1.9953 c -0.0791,0.1803 -0.1372,0.3212 -0.174,0.4224 -0.0369,0.1009 -0.0624,0.1854 -0.0757,0.2523 l -0.466,0 c -0.0142,-0.0774 -0.0343,-0.161 -0.0598,-0.2497 -0.0255,-0.0899 -0.0678,-0.2121 -0.1259,-0.3685 l -0.794,-2.1053 c -0.0581,0.5459 -0.1029,0.9997 -0.1355,1.3603 -0.0317,0.3606 -0.0476,0.5936 -0.0476,0.6985 0,0.1326 0.0292,0.2233 0.0865,0.2732 0.0578,0.0502 0.1661,0.0749 0.3262,0.0749 l 0.0307,0 0,0.3166 c -0.2331,-0.0159 -0.4054,-0.0255 -0.5162,-0.0298 -0.1109,-0.0045 -0.2041,-0.0062 -0.2798,-0.0062 -0.0904,0 -0.3025,0.0105 -0.633,0.0306 l -0.0907,0.0054 0,-0.3166 c 0.0105,0 0.0264,8e-4 0.0476,0.0025 0.0218,0.002 0.0377,0.0028 0.0474,0.0028 0.1082,0 0.1899,-0.0167 0.2435,-0.0501 0.0547,-0.0335 0.0941,-0.0924 0.1196,-0.1769 0.0195,-0.057 0.053,-0.2866 0.1003,-0.6902 0.023,-0.184 0.0406,-0.3308 0.0544,-0.4388 l 0.0723,-0.6027 c 0.0272,-0.218 0.0474,-0.3929 0.0607,-0.525 0.0122,-0.1309 0.0193,-0.2216 0.0193,-0.2715 0,-0.11 -0.0255,-0.1865 -0.0749,-0.2305 -0.0499,-0.0439 -0.1406,-0.066 -0.2732,-0.066 -0.0099,0 -0.0264,8e-4 -0.0485,0.0025 -0.023,0.002 -0.0397,0.0029 -0.0519,0.0029 l 0,-0.3141 c 0.1602,0.0071 0.3079,0.0113 0.4434,0.015 0.1352,0.0034 0.2548,0.0051 0.3577,0.0051 0.1046,0 0.2279,-0.0026 0.3685,-0.0088 0.1409,-0.0059 0.3246,-0.0156 0.5513,-0.0298 l 0,0.0239 c 0,0.1176 0.112,0.4634 0.3354,1.0357 0.1732,0.4417 0.3104,0.8048 0.4124,1.0897 z m 5.063,-1.7059 c -0.3192,0 -0.5664,0.1185 -0.7404,0.3552 -0.1744,0.2375 -0.2614,0.5734 -0.2614,1.0077 0,0.4654 0.0862,0.8206 0.2585,1.0641 0.1727,0.2438 0.4258,0.366 0.7592,0.366 0.3069,0 0.5425,-0.116 0.7078,-0.3481 0.1647,-0.2313 0.2471,-0.5638 0.2471,-0.9967 0,-0.4626 -0.0853,-0.8195 -0.2548,-1.0709 -0.1698,-0.2517 -0.4082,-0.3773 -0.716,-0.3773 z m -2.1898,1.4201 c 0,-0.5601 0.212,-1.0264 0.635,-1.3983 0.4238,-0.3719 0.955,-0.5576 1.5962,-0.5576 0.6199,0 1.1273,0.1829 1.5222,0.5497 0.3948,0.3668 0.5927,0.8373 0.5927,1.4116 0,0.5593 -0.2058,1.0211 -0.6174,1.3833 -0.4104,0.3623 -0.9366,0.5434 -1.5775,0.5434 -0.6474,0 -1.1681,-0.1766 -1.561,-0.5312 -0.3932,-0.3535 -0.5902,-0.8203 -0.5902,-1.4009 z m 4.6075,-1.8504 c 0.2347,0.0142 0.4141,0.0229 0.5363,0.0283 0.123,0.0051 0.227,0.008 0.3104,0.008 0.1099,0 0.235,-0.0029 0.373,-0.0088 0.138,-0.0063 0.2866,-0.015 0.4467,-0.0275 0.0193,0.0686 0.0519,0.1409 0.0993,0.2146 0.0476,0.0748 0.1371,0.1919 0.2692,0.3492 l 1.5038,1.7739 c 0.0017,-0.1652 0.0034,-0.322 0.0046,-0.4697 8e-4,-0.1477 8e-4,-0.2866 8e-4,-0.4178 0,-0.0666 9e-4,-0.1536 0.0026,-0.2611 0.0017,-0.1071 0.0025,-0.1811 0.0025,-0.2208 0,-0.2761 -0.0272,-0.4555 -0.0808,-0.5372 -0.0547,-0.081 -0.1576,-0.1224 -0.3104,-0.1224 -0.0275,0 -0.0493,0.0011 -0.0643,0.002 -0.0159,8e-4 -0.0306,0.0017 -0.0465,0.0034 l 0,-0.3141 c 0.1256,0.0125 0.2506,0.0212 0.3745,0.0275 0.125,0.0059 0.2588,0.0088 0.4011,0.0088 0.1355,0 0.2664,-0.0029 0.3931,-0.0088 0.1259,-0.0063 0.2532,-0.015 0.3827,-0.0275 l 0,0.3141 c -0.1548,0 -0.2597,0.0122 -0.3149,0.0368 -0.0545,0.0255 -0.0941,0.0715 -0.118,0.1381 -0.0175,0.0555 -0.0306,0.161 -0.0385,0.3174 -0.0088,0.1568 -0.015,0.4734 -0.0187,0.9508 l -0.0051,0.343 c -0.0037,0.263 -0.0063,0.5102 -0.008,0.7407 -0.0017,0.231 -0.0025,0.4255 -0.0025,0.5839 0,0.0255 0.0017,0.0624 0.0051,0.1106 0.0037,0.0484 0.0088,0.102 0.0159,0.1618 l -0.8609,0 C 46.6315,42.9938 46.6009,42.9428 46.5612,42.8866 46.5215,42.8311 46.4566,42.7511 46.365,42.6465 l -1.8467,-2.1549 c -0.0037,0.1489 -0.0063,0.2974 -0.008,0.4442 -0.0017,0.1469 -0.0025,0.3246 -0.0025,0.5321 l 0,0.4898 c 0,0.3263 0.0263,0.5338 0.0799,0.6228 0.0527,0.0879 0.1565,0.1326 0.3095,0.1326 0.0239,0 0.0616,-0.0025 0.1134,-0.0079 0.008,0 0.0159,-8e-4 0.023,-0.0025 l 0,0.3166 c -0.1857,-0.0105 -0.3492,-0.0176 -0.4907,-0.023 -0.1417,-0.0051 -0.2596,-0.0079 -0.3518,-0.0079 -0.0844,0 -0.1936,0.0028 -0.3291,0.0079 -0.1343,0.0054 -0.2945,0.0125 -0.4802,0.023 l 0,-0.3166 c 0.0159,0 0.0363,8e-4 0.0635,0.0025 0.0264,0.002 0.044,0.0028 0.0528,0.0028 0.1063,0 0.1865,-0.0141 0.2409,-0.0413 0.0536,-0.0273 0.095,-0.0757 0.125,-0.1443 0.036,-0.0916 0.0598,-0.4167 0.072,-0.9771 0.0034,-0.108 0.0054,-0.1908 0.0071,-0.2472 l 0.0105,-0.3175 c 0.0017,-0.0853 0.0034,-0.1837 0.0045,-0.2945 9e-4,-0.1108 9e-4,-0.292 9e-4,-0.5426 0,-0.1944 -0.0301,-0.3245 -0.089,-0.3923 -0.059,-0.0669 -0.1724,-0.1003 -0.3385,-0.1003 -0.0343,0 -0.0606,0.0011 -0.0782,0.002 -0.0184,8e-4 -0.036,0.0017 -0.0527,0.0034 l 0,-0.3141 z" />
</svg>
