<!DOCTYPE svg PUBLIC "-//W3C//DTD SVG 1.1//EN" "http://www.w3.org/Graphics/SVG/1.1/DTD/svg11.dtd">
<svg xmlns="http://www.w3.org/2000/svg" viewBox="0 0 735 671">
<path fill="#fbfbfb" stroke="#fbfbfb" d="M367.585 123.718c-5.773 17.762-6.4 19.583-8.361 24.282-.573 1.375-1.294 3.287-1.602 4.25-.513 1.605-2.631 1.75-25.591 1.75-13.767 0-25.031.365-25.031.812 0 .993.993 1.733 21.25 15.845 2.887 2.012 5.475 3.928 5.75 4.259.275.331 2.184 1.723 4.243 3.093 2.059 1.37 3.746 2.829 3.75 3.241.004.412.627.75 1.385.75 3.875 0 3.773 4.547-.348 15.5-1.722 4.575-3.03 9.248-3.03 10.821 0 .923-.354 1.679-.787 1.679-.433 0-.863 1.005-.956 2.232-.092 1.228-.606 3.141-1.141 4.25-1.01 2.095-5.116 14.15-5.116 15.022 0 .8 3.801.568 4.167-.254.451-1.016 6.95-5.953 14.833-11.269 3.575-2.411 6.95-4.751 7.5-5.199 9.959-8.124 17.442-12.407 17.527-10.032.015.412 1.815 1.853 4 3.201s3.973 2.811 3.973 3.25c0 .439.59.799 1.311.799.722 0 2.184.787 3.25 1.75 1.067.963 3.623 2.875 5.682 4.25s3.746 2.838 3.75 3.25c.004.412.597.75 1.318.75.722 0 2.195.787 3.274 1.75 6.523 5.818 14.271 9.941 13.154 7-.261-.687-2.161-6.65-4.222-13.25-2.06-6.6-4.115-12.9-4.566-14-.45-1.1-1.363-3.8-2.028-6s-1.82-5.697-2.566-7.77c-1.928-5.357-1.992-5.228 4.893-9.868 3.438-2.316 6.475-4.492 6.75-4.835.275-.343 2.075-1.714 4-3.048 1.925-1.334 3.95-2.799 4.5-3.256 3.632-3.02 16.503-11.56 16.515-10.959.02.941 1.949-2.012 1.97-3.014.008-.412-11.46-.75-25.485-.75-22.102 0-25.5-.202-25.5-1.514 0-.832-.398-2.295-.885-3.25-.486-.955-1.859-4.886-3.051-8.736-1.192-3.85-2.536-7.9-2.988-9-.452-1.1-2.298-6.725-4.102-12.5-4.906-15.708-4.727-15.782-11.389 4.718M139.214 251.917c-21.057 4.265-38.681 8.166-39.166 8.669-.484.503-3.442 9.58-6.573 20.172l-5.692 19.259 3.723 4.121c12.383 13.707 12.19 36.381-.423 49.796l-3.229 3.433 5.823 19.82c3.78 12.866 6.349 19.99 7.323 20.304 1.539.495 81.075 16.51 81.991 16.508.28 0 .509-4.613.509-10.25V393.5l190.75-.237 190.75-.238v10.596c0 10.48.025 10.59 2.25 10.06 1.237-.295 19.8-4.01 41.25-8.256 21.45-4.245 39.339-8.015 39.754-8.376.414-.361 3.317-9.514 6.451-20.339l5.696-19.681-2.575-2.765c-13.423-14.405-13.9-35.303-1.146-50.203l3.567-4.167-4.753-16.197c-2.614-8.908-5.191-17.851-5.726-19.872-.878-3.317-1.426-3.779-5.621-4.743-9.383-2.157-75.702-15.079-77.397-15.08C565.2 244 565 245.142 565 254v10H182.883l.202-9.75.203-9.75-2.894-.169c-1.592-.092-20.123 3.321-41.18 7.586m7.286 6.046-28 5.537 27.901.266c15.345.146 28.081.085 28.303-.137.221-.221.266-2.832.099-5.802l-.303-5.401-28 5.537m426.5.018V264l28.75-.098 28.75-.097-26.077-5.251c-14.342-2.888-27.28-5.552-28.75-5.921l-2.673-.671v6.019M104 271.25c0 .139-1.795 6.533-3.988 14.209l-3.989 13.956 2.417 2.542c11.928 12.55 12.437 37.44 1.069 52.327l-3.42 4.479 2.364 7.869c1.3 4.327 3.093 10.456 3.984 13.62l1.62 5.752 270.177-.252 270.177-.252 3.855-13.402 3.855-13.401-2.926-4.099c-11.644-16.306-11.88-36.246-.603-51.014l3.521-4.611-3.903-13.737-3.902-13.736-270.154-.252C225.569 271.11 104 271.11 104 271.25m501.5 9.695c-8.322 3.407-8.529 16.653-.336 21.493 6.312 3.728 15.553-.478 17.423-7.93 2.257-8.991-8.125-17.231-17.087-13.563m8.335 4.314c1.882.905 2.247 1.717 1.879 4.182-.251 1.682-.018 4.184.518 5.559l.974 2.5.935-2.439c1.762-4.6-1.636-11.255-5.614-10.993-.565.037.024.573 1.308 1.191m-10.948 3.491c-2.344 6.064 3.145 12.082 9.773 10.714 2.391-.493 3.158-.951 2.033-1.212-.994-.231-2.22-1.508-2.725-2.836-1.198-3.152-2.968-3.102-2.968.084 0 1.556-.567 2.5-1.5 2.5-1.167 0-1.5-1.333-1.5-6 0-6.416-1.345-7.821-3.113-3.25m6.113.219c0 .532.675.709 1.5.393.825-.317 1.5-.753 1.5-.969 0-.216-.675-.393-1.5-.393s-1.5.436-1.5.969m-463.5 1.653c-25.291 6.298-33.179 47.145-13.047 67.565 2.465 2.5 4.308 4.718 4.097 4.929-.211.211.592.434 1.783.496 1.192.062 4.562.619 7.49 1.238 11.982 2.534 23.252-3.731 28.637-15.919l1.516-3.431-.595 4.122c-1.875 12.978 13.795 20.177 25.956 11.924 3.189-2.164 3.668-2.245 4.851-.819 3.662 4.416 12.232 4.849 18.228.92 2.21-1.448 2.41-1.42 2.886.399.631 2.414 25.887 3.064 27.36.704 2.166-3.47.148-8.75-3.344-8.75-1.11 0-1.352-3.046-1.266-15.942l.107-15.943 2.31 1.053c1.509.687 3.598 3.878 6.019 9.192 2.039 4.477 6.221 13.448 9.293 19.934l5.585 11.795 5.567-.295 5.567-.294 8-19.908c6.172-15.359 8.491-20.084 10.148-20.68 1.181-.424 2.427-1.224 2.768-1.777.364-.589 1.649-.052 3.103 1.295 3.715 3.443 3.918 32.227.231 32.75-1.87.266-2.302 1.037-2.557 4.57l-.308 4.25h13.358c9.055 0 13.743-.386 14.557-1.2.933-.933 1.2-.933 1.2 0 0 .876 3.778 1.2 14 1.2h14v-4.43c0-3.834-.303-4.474-2.25-4.75-2.167-.308-2.259-.743-2.502-11.82-.304-13.901.607-16.5 5.782-16.5h3.47l.5 16.34c.5 16.326.502 16.341 3.254 18.705 5.259 4.518 15.176 4.13 19.744-.773 3.512-3.77 1.514-8.704-2.95-7.287-2 .635-2.048.309-2.048-13.95 0-16.63-.974-20.329-6.19-23.509-3.995-2.436-10.8-2.646-16.825-.521-2.804.99-4.667 1.174-5.433.538-1.991-1.652-19.575-1.618-20.624.04-1.533 2.42-1.019 5.843 1.072 7.149 1.853 1.157 2 2.332 2 15.935v14.687l-3 1.496c-1.65.823-3 1.112-3 .643 0-.47-1.012-.998-2.25-1.173-2.236-.318-2.252-.443-2.521-20.07-.202-14.735-.583-19.777-1.5-19.855-1.042-.089-15.617-.036-19.479.071-.687.018-1.25.795-1.25 1.725 0 1.574-.087 1.576-1.25.027-1.306-1.74-15.264-3.181-19.662-2.031-2.951.772-2.951 6.781 0 8.36 2.399 1.284 2.279 2.192-1.835 13.837l-2.608 7.385-2.314-5.244c-1.273-2.884-2.066-5.644-1.764-6.134.303-.49.147-.891-.347-.891-2.703 0-4.014-7.77-1.47-8.708 3.597-1.328 4.833-8.224 1.5-8.368-8.842-.382-25.234-.052-26.171.527-.878.543-1.135-2.06-1.013-10.272.09-6.049-.14-11.489-.51-12.089-1.123-1.816-20.485-1.44-21.195.412-.956 2.49.601 6.675 2.685 7.22 1.876.491 1.954 1.552 1.946 26.645l-.008 26.133-2.443 1.133c-2.03.941-2.726.82-4.118-.718-1.228-1.357-2.143-1.6-3.431-.91-1.624.868-1.79-.026-2.183-11.783-.518-15.494-2.317-20.544-8.86-24.875-10.581-7.001-31.372-2.377-33.24 7.394-.95 4.968.632 6.415 8.545 7.818 3.569.632 3.826.495 5.192-2.777 2.689-6.434 8.761-7.792 10.147-2.269 1.023 4.076.064 4.862-9.426 7.735-7.051 2.134-9.969 3.595-13.066 6.541-3.793 3.609-4.015 3.688-4.534 1.622-.522-2.081-3.099-3.368-6.8-3.397-1.069-.009-2.66 1.807-4.151 4.736-2.973 5.843-6.658 9.145-10.533 9.44-3.705.283-8.331-2.1-7.629-3.93.326-.851.087-1.094-.635-.648-.781.483-.944.157-.5-1 .362-.944.247-1.462-.257-1.15-3.666 2.265-3.912-29.492-.291-37.677 4.757-10.754 13.271-10.205 18.725 1.207 3.068 6.418 7.39 8.26 10.524 4.484 1.385-1.669.203-11.606-2.275-19.125l-1.269-3.851-5.988-.085c-3.293-.047-8.463-.356-11.488-.688-3.025-.332-6.4-.379-7.5-.105m293.5.26c-3.193.564-3.527.948-3.811 4.376-.222 2.69.133 3.928 1.25 4.357 2.424.93 1.971 1.978-4.189 9.688-8.879 11.113-8.25 11.053-8.25.787 0-8.83.062-9.067 2.509-9.682 2.566-.644 3.975-3.651 3.317-7.079-.485-2.526-26.738-3.345-28.769-.897-1.845 2.223-.402 7.09 2.492 8.408l2.451 1.117v51.093l-2.558.972c-2.269.863-2.523 1.451-2.25 5.225l.308 4.253 12.861.281c13.973.305 15.639-.196 15.639-4.703 0-3.104-1.633-5.078-4.2-5.078-1.621 0-1.8-1.062-1.8-10.667 0-5.866.178-10.479.395-10.25.218.229 4.318 6.942 9.113 14.917s9.229 14.831 9.855 15.235c1.94 1.253 19.114.888 20.437-.435 2.436-2.436 1.12-8.8-1.82-8.8-1.737 0-21.48-30.373-22.649-34.844-.559-2.135 11.749-17.729 14.742-18.679 4.238-1.345 4.672-8.774.578-9.873-2.633-.706-10.913-.559-15.651.278m-124 1.76c-5.9 1.612-7.393 12.33-2.278 16.354 2.257 1.775 13.453 2.846 11.729 1.122-.212-.212.5-1.511 1.582-2.887 5.85-7.437-1.524-17.188-11.033-14.589m153.667.025c-1.843 1.843-.621 7.4 1.833 8.333l2.5.95-.015 24.775c-.016 25.856-.112 26.577-3.684 27.691-2.757.86-3.652 3.531-2.34 6.981l1.012 2.661 13.263-.279 13.264-.279.312-3.78c.284-3.439.033-3.878-2.777-4.857l-3.088-1.077.082-29.898c.046-16.443-.193-30.345-.532-30.893-.678-1.096-18.763-1.396-19.83-.328m76.221.783c-5.51 3.099-6.155 11.622-1.176 15.538 8.703 6.846 20.289-5.12 13.038-13.466-2.762-3.178-8.204-4.129-11.862-2.072m-36.129 20.912c-16.481 6.151-22.052 25.942-11.621 41.288 7.432 10.935 27.591 12.828 38.112 3.579 1.622-1.426 1.75-1.308 1.75 1.616V364h13.378c14.892 0 16.318-.555 15.144-5.898-.448-2.042-1.342-3.078-2.838-3.291-2.149-.306-2.188-.623-2.456-19.766-.159-11.317-.683-19.708-1.253-20.06-1.333-.824-19.411-.452-20.836.429-2.272 1.404-1.33 6.563 1.387 7.596l2.526.96-.276 15.183c-.201 11.055-.616 15.296-1.526 15.598-.783.26-1.25-.542-1.25-2.149 0-4.012-4.097-4.528-8.611-1.085-6.716 5.123-14.481 4.916-17.359-.462-1.702-3.18-1.225-3.929 3.22-5.052 8.812-2.227 22.293-7.199 23.403-8.632 1.932-2.493-1.464-12.204-6.02-17.218-5.288-5.819-17.303-8.617-24.874-5.791M577.5 315l-7 .5-.31 3.204c-.229 2.368.228 3.54 1.75 4.491 3.35 2.092 3.176 31.507-.19 31.985-1.87.266-2.302 1.037-2.557 4.57l-.308 4.25H597v-4.025c0-3.373-.405-4.178-2.5-4.975-2.472-.94-2.5-1.082-2.5-12.787 0-13.358 1.406-16.65 6.843-16.02l2.657.307.5 15.5c.555 17.19 1.211 19.355 6.548 21.585 6.712 2.804 16.766-.003 18.028-5.033.857-3.413-1.19-5.866-4.252-5.097l-2.324.583v-14.551c0-16.579-.977-20.283-6.19-23.461-4.068-2.481-10.676-2.632-17.242-.395-3.045 1.038-5.021 1.27-5.428.639-.912-1.415-5.557-1.847-13.64-1.27m-64.889 9.532c-1.73 1.73-2.953 7.017-2.448 10.587.734 5.187 12.119 1.637 12.656-3.947.637-6.632-5.938-10.91-10.208-6.64M198.5 341.167c-4.067 2.249-6.5 5.222-6.5 7.94 0 6.712 10.275 5.272 11.569-1.621 1.178-6.28-.763-8.7-5.069-6.319m-81.75 52.495c.688.278 1.813.278 2.5 0 .688-.277.125-.504-1.25-.504s-1.937.227-1.25.504m4.25.237c0 .508 24.414 5.651 51.75 10.902 2.133.41 2.25.118 2.25-5.624v-6.056l-27 .063c-14.85.035-27 .357-27 .715m452.653-.219c-1.181 1.181-.731 11.32.502 11.32 1.101 0 55.255-10.763 57.345-11.398.55-.166-12.094-.364-28.097-.439-16.003-.075-29.391.158-29.75.517m-203.121 34.57c-.87 1.238-1.854 3.947-2.188 6.022-.82 5.101-1.267 5.209-9.391 2.279-9.115-3.288-12.941-3.3-15.766-.051-1.196 1.375-2.843 2.5-3.66 2.5-4.34 0-9.527 3.241-9.527 5.954 0 1.505-.887 3.538-1.97 4.519-1.665 1.507-1.921 2.837-1.649 8.577.293 6.196.136 6.844-1.78 7.359-9.227 2.477-14.885-5.52-6.772-9.571 5.766-2.88 8.911-10.836 5.092-12.88-1.143-.612-2.523-2.387-3.066-3.944-1.222-3.505-4.053-4.304-10.755-3.033-2.808.532-6.466.696-8.129.363-3.705-.741-6.521 1.498-8.687 6.906-.825 2.063-1.831 3.75-2.234 3.75-.404 0-1.246-1.687-1.873-3.75-1.546-5.085-6-7.829-14.177-8.737-11.183-1.241-13.268-.773-11.212 2.519.667 1.067 1.212 3.017 1.212 4.332 0 1.339.991 3.099 2.25 3.997 2.248 1.603 2.248 1.603-.438.67-1.478-.514-4.853-2.026-7.5-3.361-9.524-4.803-40.306-1.323-36.909 4.173.316.512 2.109 1.218 3.985 1.57 3.815.716 8.612 4.06 8.612 6.005 0 1.784 3.311 4.582 5.422 4.582.971 0 2.002.905 2.291 2.011.736 2.815 4.409 3.449 11.4 1.965 4.509-.957 6.276-.987 7.139-.124 2.34 2.34-.92 3.425-10.025 3.339-8.672-.082-9.059.016-15.312 3.862-10.703 6.583-15.737 5.321-15.65-3.924.056-5.942-4.06-15.122-6.783-15.127-.56-.001-2.639-1.103-4.62-2.45-1.981-1.346-4.448-2.406-5.482-2.356-1.034.05-3.516-.238-5.515-.642-2.31-.466-3.882-.336-4.309.356-.371.6-1.805 1.09-3.186 1.09-1.382 0-3.188.675-4.013 1.5-.825.825-2.384 1.5-3.464 1.5-2.155 0-2.241 6.651-.155 12 .536 1.375.805 2.978.598 3.563-.208.584.969 2.384 2.615 4 1.647 1.615 3.006 3.431 3.021 4.035.016.604 1.828 1.91 4.028 2.902 2.2.992 4 2.134 4 2.538 0 3.339 13.759 1.3 18.171-2.693 1.591-1.44 2.121-1.422 6.047.202 4.108 1.699 4.288 1.948 3.949 5.496-.705 7.398 8.339 13.052 16.095 10.062 3.957-1.525 5.483-5.319 3.413-8.479-2.618-3.994-9.156-1.182-7.953 3.42.732 2.799-4.012 2.632-6.683-.235-3.545-3.805-2.73-7.548 1.916-8.799 2.175-.585 5.212-2.114 6.75-3.398 5.238-4.371 9.288-5.938 12.07-4.671l2.497 1.138-2.274 2.421-2.274 2.42 3.138 3.574c1.726 1.965 3.138 4.203 3.138 4.971 0 1.813 1.775 2.285 11.663 3.102l8.163.674 5.064-4.737c4.6-4.302 8.11-5.468 8.11-2.692 0 1.542-3.43 4.043-6.242 4.553-3.988.724-4.468 1.246-4.011 4.361.287 1.955-.223 3.393-1.667 4.7-3.164 2.863-2.782 6.572.677 6.572 1.516 0 4.328.453 6.25 1.007 2.97.856 4.206.637 8.261-1.462 2.623-1.357 5.5-2.188 6.394-1.845 1.091.419 2.513-.463 4.327-2.687 1.655-2.028 3.78-3.425 5.484-3.607 4.899-.522 10.299-7.348 11.982-15.144.819-3.797 4.776-7.262 8.293-7.262 2.174 0 2.426-.362 2.048-2.937l-.431-2.937 3.44 1.437c5.1 2.131 7.704 1.772 11.356-1.563 3.46-3.16 4.388-3.539 5.248-2.147 1.116 1.805-2.214 4.324-8.924 6.752-8.197 2.966-12.485 6.58-12.485 10.523 0 1.515.45 3.032 1 3.372.55.34 1 2.391 1 4.559 0 3.417.299 3.942 2.25 3.952 1.238.006 3.887.282 5.887.613 2.919.482 4.074.165 5.843-1.604 1.276-1.276 2.976-2.003 4.035-1.726 1.146.299 2.862-.6 4.594-2.408 1.521-1.587 3.618-2.886 4.661-2.886 2.923 0 1.514 2.219-2.844 4.479-3.407 1.768-4 2.593-4.488 6.242-.722 5.397.924 10.41 3.905 11.892 1.289.64 3.204 2.58 4.256 4.309 1.052 1.73 2.666 3.434 3.587 3.788.921.353 3.484 2.398 5.696 4.545 8.34 8.093 11.726 8.073 17.136-.103 1.383-2.09 3.813-4.76 5.398-5.932 4.023-2.974 9.084-13.456 9.084-18.814 0-3.899-.366-4.521-4.173-7.09-4.755-3.208-5.946-5.316-3.003-5.316 1.153 0 3.686 2.026 6.025 4.819 3.979 4.753 4.121 4.822 10.252 4.991 3.419.094 6.707-.234 7.308-.729.6-.495 2.666-1.305 4.591-1.799 9.109-2.337 2.475-20.223-8.129-21.919-5.12-.818-7.809-2.784-6.134-4.482.989-1.004 1.723-.797 3.672 1.033 2.841 2.67 8.926 2.254 12.788-.872 2.117-1.715 2.136-1.884.503-4.378-1.04-1.586-1.7-4.579-1.7-7.706 0-5.396.227-5.062-8.908-13.09-2.436-2.141-11.459-2.342-16.342-.363-1.235.5-1.75.236-1.75-.898 0-3.065-8.201-1.25-11 2.435-.57.751-4.599 2.958-5.399 2.958-3.11 0-2.501-8.243.857-11.601 2.401-2.401 1.842-3.399-1.901-3.399-2.436 0-3.906.658-5.025 2.25m105.133 6.749c-1.559.48-3.44.641-4.18.357-3.676-1.411-10.628 4.382-12.048 10.04-.936 3.728-1.923 3.238-3.9-1.938-2.087-5.465-5.235-7.884-8.652-6.649-1.312.475-3.51.532-4.885.127-6.796-2.002-14-.334-14 3.242 0 .569-1.125 1.919-2.5 3.001-2.822 2.22-3.226 4.974-1 6.821.825.685 1.5 2.022 1.5 2.971 0 1.085 1.485 2.309 4 3.297 3.411 1.34 4 2.007 4 4.529 0 4.931-2.762 6.02-12.5 4.927-3.886-.436-3.13 3.935.809 4.674 4.277.803 6.038 2.77 8.149 9.102 2.86 8.579 6.997 13.406 11.542 13.467 1.622.021 3.457 1.232 5.223 3.446 1.852 2.321 3.318 3.258 4.581 2.928 1.021-.267 3.632.439 5.801 1.57 3.32 1.731 5.022 1.955 10.76 1.419 8.062-.753 8.94-1.93 5.146-6.904-1.61-2.111-2.509-4.326-2.214-5.453.594-2.271-.577-3.32-5.459-4.891-3.074-.99-4.838-2.69-4.838-4.664 0-1.921 5.217.36 8.748 3.825 3.897 3.825 4.79 4.236 9.038 4.161 9.69-.17 14.57-1.659 16.119-4.915.781-1.644 2.247-3.577 3.258-4.296 2.461-1.75 2.316-3.742-.413-5.664-1.91-1.346-2.023-1.73-.75-2.542 2.959-1.887 6.603-.893 12.928 3.524 3.535 2.469 7.232 4.489 8.215 4.489 2.663 0 3.972 3.136 2.523 6.044-2.388 4.788-9.237 6.081-8.095 1.528 1.203-4.792-5.957-6.214-8.231-1.635-3.721 7.491 10.644 11.534 17.306 4.871 1.794-1.794 2.442-3.572 2.509-6.883.084-4.177.331-4.568 3.841-6.067 3.684-1.573 3.831-1.549 8.029 1.27 4.336 2.913 15.975 4.311 15.975 1.919 0-.524 1.491-1.661 3.314-2.526 5.784-2.744 12.655-14.093 12.425-20.521-.029-.825.273-2.512.671-3.75.506-1.57.322-2.25-.607-2.25-.733 0-3.126-.985-5.318-2.189-6.326-3.476-15.44-3.265-22.754.525-7.579 3.928-10.07 7.912-10.731 17.164l-.5 7-3.648.901c-3.003.743-4.241.528-7-1.211-9.367-5.904-11.115-6.482-20.117-6.653-8.899-.17-12.276-1.396-10.029-3.643.808-.808 2.993-.62 8.109.698 7.286 1.877 10.185 1.255 10.185-2.186 0-.742 1.462-1.724 3.25-2.183 2.366-.608 3.724-1.832 4.994-4.499 1.492-3.135 2.547-3.898 7.306-5.282 10.651-3.096 4.086-7.516-11.876-7.995-4.854-.146-9.091-.531-9.416-.856-1.223-1.222-4.029-.488-11.118 2.909-8.097 3.881-10.535 4.45-7.084 1.656 1.253-1.015 2.391-2.927 2.53-4.25.138-1.323.401-3.306.583-4.406.381-2.304-4.431-3.064-9.504-1.501m-106.748 14.222c-1.554 2.106-1.769 2.122-11.5.838-5.454-.72-10.817-1.08-11.917-.8-1.107.282-.184.561 2.068.625 2.238.064 6.447.822 9.353 1.685 2.906.863 6.937 1.45 8.959 1.304 7.944-.574 8.141 3.08.539 10.027-3.069 2.805-6.069 5.1-6.666 5.1-.598 0-.828.258-.513.574.778.777 5.817-1.909 9.682-5.162 1.74-1.464 3.413-2.41 3.72-2.103.925.925.631 6.817-.67 13.431-1.436 7.296-.923 14.342 1.402 19.26.911 1.925 1.385 2.6 1.055 1.5-2.908-9.686-2.633-16.563 1.175-29.335.3-1.006 1.523-.706 4.965 1.218 2.511 1.403 6.223 2.809 8.249 3.123 3.338.517 3.122.3-2.318-2.333-7.08-3.426-11.218-7.513-12.107-11.959-.634-3.171-.592-3.215 3.232-3.256 2.131-.023 5.45-.951 7.375-2.061 1.925-1.111 2.6-1.708 1.5-1.328-5.576 1.929-12.311 1.706-13.659-.452-1.624-2.6-1.936-2.592-3.924.104m20.896-.538c.721.289 1.584.253 1.916-.079.332-.332-.258-.568-1.312-.525-1.165.048-1.402.285-.604.604m-193.798 1.098c.039 1.823 1.651 2.887 3.419 2.255 1.937-.692 1.582-1.188-1.684-2.35-.963-.343-1.743-.3-1.735.095m-4.872 1.126c-1.006.625-1.053 1.03-.183 1.568 1.372.848 2.402.097 1.894-1.38-.208-.606-.914-.683-1.711-.188m110.984 3.571c-2.654 2.88-4.127 5.415-4.127 7.107 0 1.713-.435 2.448-1.25 2.11-10.932-4.536-11.95-5.171-13.775-8.602l-1.912-3.593.584 3.201.583 3.201-3.365-.865c-4.191-1.077-15.543-2.405-14.865-1.738.275.27 3.764.993 7.754 1.606 3.99.613 9.104 1.855 11.365 2.759l4.111 1.645-3.473 1.69c-4.059 1.974-10.757 7.143-10.757 8.302 0 .44 1.462-.572 3.25-2.248 6.365-5.972 14.998-6.564 22.574-1.551 3.727 2.467 4.056 2.98 2.816 4.395-.772.882-1.733 2.728-2.135 4.103-.598 2.045-.293 1.863 1.678-1 1.932-2.807 3.081-3.511 5.798-3.553 4.984-.079 4.716-1.846-.49-3.238-7.554-2.02-8.477-7.738-2.373-14.691 4.472-5.093 2.882-4.326-1.991.96m142.303-.151c5.357 7.242 4.482 12.786-2.25 14.255-4.611 1.007-5.325 1.374-4.684 2.411.342.554 2.101 1.007 3.908 1.007 3.63 0 5.768 1.881 7.387 6.5.578 1.65 1.087 2.318 1.13 1.485.043-.833-.843-3.235-1.97-5.338-2.45-4.571-1.995-5.348 5.067-8.655 6.175-2.893 11.905-1.894 18.482 3.222l4 3.111-3.455-3.672c-1.901-2.02-4.938-4.208-6.75-4.863-1.812-.656-3.295-1.507-3.295-1.893 0-1.031 5.598-2.961 13-4.482l6.5-1.336-6 .52c-3.3.286-6.849.768-7.886 1.071-1.634.478-1.796.169-1.208-2.309.677-2.855.674-2.853-1.389.455-1.368 2.194-3.931 4.141-7.571 5.75-6.876 3.041-7.446 3.032-7.446-.124 0-1.687-1.557-4.157-4.57-7.25l-4.57-4.692 3.57 4.827m104.82-3.665c-1.69.682-1.589 2.338.143 2.338.766 0 1.652-.675 1.969-1.5.588-1.533.096-1.729-2.112-.838M556 452c0 .55.45 1 1 1s1-.45 1-1-.45-1-1-1-1 .45-1 1m-351 .43c0 .275.9.981 2 1.57 1.1.589 2 .845 2 .57s-.9-.981-2-1.57c-1.1-.589-2-.845-2-.57M185 454c0 .55.45 1 1 1s1-.45 1-1-.45-1-1-1-1 .45-1 1m355 0c-.825.533-1.05.969-.5.969s1.675-.436 2.5-.969c.825-.533 1.05-.969.5-.969s-1.675.436-2.5.969m-340.664 3.432c.365.952.664 2.054.664 2.449s1.617.529 3.594.298c4.187-.489 3.11-2.506-2.008-3.763-2.498-.613-2.82-.468-2.25 1.016m-8.336.377c0 .445.645 1.682 1.433 2.75 1.677 2.273 4.257.682 3.231-1.992-.609-1.588-4.664-2.247-4.664-.758m20.593.809c-.724 1.887-.824 1.731 2.059 3.229 1.89.982 2.09.881 1.642-.832-.791-3.024-2.929-4.409-3.701-2.397m322.516 1.043c-.651 1.428-.953 2.828-.671 3.111.777.776 3.562-1.832 3.562-3.335 0-2.5-1.71-2.368-2.891.224m8.891-1.459-2.5 1.075 3.336 1.031c2.633.813 3.526.731 4.235-.389 1.958-3.094-.183-3.819-5.071-1.717m9.711.797c-.715 2.734 1.284 3.728 2.941 1.463 1.839-2.516 1.693-3.462-.535-3.462-1.042 0-2.117.893-2.406 1.999m-367.523 1.064c.24.721 1.028 1.509 1.75 1.75.75.25 1.125-.125.875-.875-.241-.722-1.029-1.51-1.75-1.75-.75-.25-1.125.125-.875.875m375.46.411c-.308.804-.177 1.699.291 1.988.468.29 1.104-.131 1.413-.936.308-.804.177-1.699-.291-1.988-.468-.29-1.104.131-1.413.936m-363.932 4.435c-1.67.6-1.652.783.289 2.866 2.509 2.693 4.457 2.986 3.165.475-.495-.962-1.073-2.252-1.285-2.866-.212-.614-1.188-.827-2.169-.475m6.284-.132c0 3.432 6.619 7.796 10.132 6.681 2.625-.833 2.323-2.955-.767-5.385-2.527-1.988-9.365-2.934-9.365-1.296m332.857 2.212c-3.224 3.224-3.053 5.011.48 5.011 2.201 0 6.487-2.411 7.898-4.442 3.123-4.497-3.968-4.979-8.378-.569m-347.287-1.102c-.606.981 2.182 3.695 2.978 2.899.706-.707-.592-3.786-1.596-3.786-.459 0-1.081.399-1.382.887M548.65 468c-.823 1.65-1.16 3-.748 3 1.299 0 5.148-4.616 4.44-5.324-1.264-1.265-2.193-.68-3.692 2.324m8.35 0c-.688 1.286-.714 2-.07 2 .55 0 1.481-.9 2.07-2 .688-1.286.714-2 .07-2-.55 0-1.481.9-2.07 2m-361.573 5.521c2.055 1.555 3.203 1.308 2.114-.454-.362-.587-1.42-1.053-2.35-1.035-1.485.028-1.456.209.236 1.489m355.445.166c-1.208 1.485-1.153 1.605.46 1 1.007-.378 2.271-.687 2.809-.687.537 0 .699-.45.359-1-.898-1.453-2.067-1.231-3.628.687M202 475.5c-1.409 1.697 1.75 2.044 5.446.598 1.803-.706 1.766-.81-.5-1.416-3.377-.904-3.539-.877-4.946.818m339.738-.808c-2.701.704-1.004 2.308 2.443 2.308 2.61 0 2.879-.222 1.819-1.5-.685-.825-1.527-1.448-1.872-1.384-.346.064-1.421.323-2.39.576M317.5 487.147c-3.785 2.132-6.703 5.364-9.107 10.086-2.768 5.438-4.627 6.221-12.842 5.415-7.349-.722-10.991.652-13.011 4.91-2.101 4.426-.825 6.978 4.648 9.303l4.039 1.715-2.64 3.139c-4.247 5.046-13.044 5.723-12.386.952.221-1.6-.224-2.167-1.701-2.167-2.8 0-3.137 3.863-.561 6.439 4.172 4.172 14.248 1.798 18.244-4.298 1.559-2.377 3.319-3.7 5.457-4.101 8.007-1.502 11.651-9.674 4.617-10.353-2.675-.258-3.849.348-6.7 3.46l-3.456 3.772-3.55-1.693c-7.849-3.743-3.328-8.106 7.427-7.168 9.33.814 10.631.239 16.052-7.099 2.348-3.178 5.608-6.214 7.759-7.228 2.455-1.155 3.711-2.421 3.711-3.739 0-2.343-3.025-3.021-6-1.345m107.149 1.326c-.58 1.511 2.766 4.527 5.023 4.527.674 0 2.46 1.688 3.968 3.75 7.332 10.026 7.872 10.339 17.589 10.162 9.148-.167 11.771.746 11.771 4.097 0 1.022-1.429 2.441-3.401 3.377-4.391 2.083-4.096 2.164-6.535-1.782-3.212-5.198-11.064-5.726-11.064-.743 0 3.236 7.031 8.005 10.75 7.291.688-.132 1.25.42 1.25 1.226s1.881 3.076 4.18 5.044c7.314 6.26 17.82 4.934 17.82-2.249 0-1.636-1.753-3.173-3.62-3.173-.25 0-.326 1.237-.168 2.75.273 2.605.051 2.763-4.212 2.995-4.536.247-5.906-.407-9.369-4.472-1.867-2.191-1.863-2.196 2.328-3.873 11.391-4.558 5.466-15.128-7.943-14.169-8.544.611-10.405-.289-13.848-6.699-3.99-7.431-12.869-12.359-14.519-8.059M342 493.5c-1.467 2.741-1.629 2.775-7.665 1.606-6.409-1.241-19.329 4.862-17.942 8.476.593 1.545-1.75 3.697-2.895 2.659-.45-.407-.503-.191-.117.481.386.672-.002 2.296-.862 3.609-.86 1.313-1.299 3.078-.975 3.923.324.845.072 3.457-.559 5.803-.791 2.937-.834 4.918-.139 6.355.555 1.148 1.28 3.732 1.609 5.741.33 2.01 1.227 3.895 1.995 4.189.767.295 1.542 1.576 1.722 2.847.657 4.63 18.661 2.218 24.376-3.265 1.676-1.608 3.52-2.924 4.098-2.924.578 0 1.892-1.866 2.92-4.147 1.028-2.28 2.486-4.762 3.239-5.515 3.854-3.854.879-17.82-4.825-22.645-2.03-1.717-2.054-1.932-.482-4.331 1.787-2.726 1.394-5.362-.798-5.362-.749 0-1.964 1.125-2.7 2.5m59-.465c0 .57.741 2.167 1.648 3.55 1.594 2.433 1.547 2.619-1.439 5.715-12.678 13.145-.223 37.723 19.904 39.278 3.513.272 7.239.59 8.279.708 1.307.148 2.204-.715 2.897-2.786.552-1.65 1.613-3.36 2.358-3.8.744-.44 1.353-2.297 1.353-4.127 0-1.831.642-3.861 1.428-4.513 1.235-1.025 1.226-1.862-.069-6.223-.823-2.77-1.227-5.738-.899-6.594.329-.857-.54-3.277-1.931-5.379-1.391-2.101-2.529-4.421-2.529-5.155 0-.733-1.238-2.248-2.75-3.366-7.063-5.222-12.203-6.452-17.904-4.284-2.459.934-3.003.759-4.649-1.5-1.833-2.517-5.697-3.55-5.697-1.524m-75.28 7.553c-1.528.829-2.514 1.936-2.191 2.459 1.063 1.72 4.079.999 6.471-1.547 2.846-3.03.534-3.523-4.28-.912m92.356 1.162c1.333 1.512 2.444 2.845 2.468 2.96.125.605 4.456-1.06 4.456-1.713 0-.909-6.238-3.997-8.075-3.997-.752 0-.281 1.126 1.151 2.75m-83.96 1.83c-1.418 1.802-2.116 4.124-2.116 7.039v4.349l3.422-1.632c3.756-1.791 7.018-6.799 6.433-9.875-.603-3.175-5.204-3.104-7.739.119m72.916-1.119c-1.915 2.308.524 8.297 4.321 10.613 4.377 2.668 4.647 2.516 4.647-2.619 0-6.825-5.712-11.916-8.968-7.994m-87.734 5.765c-1.82 2.349-2.423 3.774-1.598 3.774.993 0 3.613-4.021 3.012-4.622-.235-.234-.871.147-1.414.848m25.48 2.113c-1.552 3.255-1.545 3.562.114 5.063 2.551 2.309 3.117 2.001 3.038-1.652-.132-6.081-1.284-7.328-3.152-3.411m82.276-2.839c.013 1.323 2.802 4.978 3.367 4.412.243-.243-.417-1.56-1.467-2.927s-1.905-2.035-1.9-1.485m-25.992 2.384c-.65 1.215-1.042 3.517-.872 5.116.305 2.862.346 2.88 2.602 1.168 2.159-1.639 2.21-1.935.872-5.116-1.392-3.311-1.443-3.334-2.602-1.168m-76.862.316c-.66.66-1.2 2.895-1.2 4.968 0 3.487.168 3.706 2.25 2.937 2.499-.923 3.234-3.04 2.32-6.684-.675-2.688-1.576-3.015-3.37-1.221m96.46 3.509c-.6 3.695.306 5.242 3.09 5.276 1.618.02 1.658-6.177.05-7.785-1.912-1.912-2.499-1.444-3.14 2.509m-121.217-1.291c-1.067.78-1.642 1.717-1.277 2.081.843.843 4.834-1.25 4.834-2.534 0-1.364-1.299-1.198-3.557.453m146.1-.488c-.584.945 1.059 2.439 3.73 3.392 1.476.527 1.606.321.778-1.227-1.151-2.15-3.747-3.396-4.508-2.165m-128.989 5.348c-.305.947-.765 2.397-1.023 3.222-.307.984.209 1.5 1.5 1.5 2.117 0 2.611-2.437 1.007-4.972-.796-1.259-1.011-1.222-1.484.25m19.196 1.027c-2.09.822-2.75 1.755-2.75 3.888 0 3.575 2.214 3.684 5.619.279 3.92-3.92 2.34-6.214-2.869-4.167m72.513-.449c-1.546.985.277 4.796 3.214 6.721 2.993 1.961 3.509 1.687 3.806-2.02.227-2.831-4.736-6.155-7.02-4.701m21.391 1.358c-.547 2.093.973 4.135 2.414 3.244.879-.543-.083-5.458-1.068-5.458-.422 0-1.027.996-1.346 2.214m-86.456 4.25c-1.359 2.984.234 4.466 1.752 1.63.577-1.079 1.05-2.442 1.05-3.028 0-1.937-1.66-1.108-2.802 1.398m59.398-1.62c-.802 1.298 1.023 5.156 2.439 5.156 1.28 0 1.169-1.003-.428-3.885-.835-1.506-1.576-1.974-2.011-1.271m-77.846 1.236c-1.785 1.04-2.421 5.387-.924 6.313 1.632 1.008 5.174-.654 5.174-2.428 0-4.412-1.302-5.602-4.25-3.885m94.634 2.527c-.698 2.781.687 4.35 3.866 4.378 2.305.02 2.451-5.502.168-6.378-2.687-1.031-3.357-.699-4.034 2m-102.735 1.151c-.939 1.521.316 4.242 1.958 4.242 1.755 0 1.769-1.103.046-3.46-.849-1.161-1.591-1.45-2.004-.782M429 529c0 1.111.667 2 1.5 2s1.5-.889 1.5-2-.667-2-1.5-2-1.5.889-1.5 2m-94.323.703c-1.126.292-1.605 1.043-1.25 1.966.315.822.573 1.683.573 1.913 0 1.138 2.887.2 4.345-1.411 2.762-3.052 1.604-3.831-3.668-2.468m73.913.152c-.291.47.606 1.92 1.993 3.223 2.129 2 2.668 2.14 3.454.896 1.439-2.275 1.17-2.945-1.602-3.999-3.119-1.186-3.186-1.188-3.845-.12m-82.144 4.232c-1.03 1.668 1.287 3.58 2.667 2.2 1.154-1.154.432-3.287-1.113-3.287-.485 0-1.184.489-1.554 1.087m92.137.558c-.854 2.224-.775 2.355 1.417 2.355 1.1 0 2-.627 2-1.393 0-2-2.725-2.767-3.417-.962M319 536c0 .55.675 1 1.5 1s1.5-.45 1.5-1-.675-1-1.5-1-1.5.45-1.5 1m107.597-.156c-.346.56-.142 1.319.453 1.687 1.538.95 2.53-.351 1.246-1.635-.718-.718-1.277-.735-1.699-.052" fill-rule="evenodd"/>
<path fill="#e3ebe6" stroke="#e3ebe6" d="m365.843 130.75-7.454 22.75-25.194.267c-13.857.147-25.188.597-25.179 1 .008.403 9.008 7.188 20 15.078 10.991 7.89 19.984 14.56 19.984 14.823 0 .263-3.424 10.822-7.608 23.464-4.185 12.642-7.447 23.13-7.25 23.306.197.177 5.308-3.242 11.358-7.597 6.05-4.355 13.7-9.788 17-12.074 3.3-2.287 6.598-4.747 7.328-5.469 4.455-4.4 3.998-4.631 34.672 17.508 6.05 4.366 11.12 7.434 11.267 6.817.147-.618-3.114-11.233-7.247-23.59-5.96-17.818-7.257-22.712-6.267-23.65.686-.651 3.272-2.591 5.747-4.311 4.345-3.019 11.293-7.965 20.903-14.879a561.68 561.68 0 0 1 8.347-5.883c2.063-1.417 3.75-2.958 3.75-3.426 0-.467-11.3-.97-25.112-1.117l-25.112-.267-1.813-5c-.997-2.75-4.386-12.988-7.531-22.75-3.144-9.763-6.036-17.75-6.426-17.75-.39 0-4.064 10.237-8.163 22.75M140.126 252.04c-21.655 4.331-39.571 8.072-39.813 8.313-.241.242-3.023 9.149-6.181 19.793L88.391 299.5l4.198 5.159c11.618 14.275 11.239 35.564-.872 48.97l-3.514 3.888 5.758 19.268c3.167 10.597 6.046 19.555 6.397 19.907.352.351 18.023 4.13 39.27 8.398 21.247 4.267 39.697 8.026 41.001 8.353l2.371.595V393h382v9.833c0 5.409.232 10.066.516 10.35.606.606 79.321-14.878 81.386-16.009.771-.423 4-9.504 7.176-20.181l5.775-19.413-3.277-3.627c-12.366-13.688-12.659-36.228-.641-49.266l4.031-4.374-4.855-16.439c-2.671-9.041-5.173-17.881-5.561-19.644-.387-1.764-1.107-3.456-1.599-3.76-.973-.602-79.651-16.457-81.701-16.465-.917-.004-1.25 2.659-1.25 9.995v10H183v-10c0-8.889-.194-9.991-1.75-9.917-.963.046-19.468 3.626-41.124 7.957m6.374 5.483c-14.3 2.945-26.9 5.546-28 5.78-1.1.233 11.162.486 27.25.561L175 264v-6c0-4.178-.38-5.974-1.25-5.916-.687.047-12.95 2.494-27.25 5.439M573 258v6l29.25-.079c16.087-.043 28.8-.243 28.25-.444-1.111-.405-56.034-11.477-56.933-11.477-.312 0-.567 2.7-.567 6m-469.493 14.25c-.237.688-2.041 6.941-4.01 13.896l-3.58 12.646 4.076 5.819c10.214 14.581 9.936 35.159-.664 49.045l-3.501 4.587 3.965 14.129 3.965 14.128H644.409l3.77-13c4.584-15.806 4.557-14.47.41-20.248-5.87-8.18-7.089-12.434-7.089-24.752 0-11.671 2.363-18.979 8.642-26.723l2.208-2.723-3.914-14.027L644.523 271H374.23c-215.338 0-270.38.254-270.723 1.25m503.169 9.202c-2.104.75-3.941 1.518-4.082 1.706-6.903 9.187-2.816 20.009 7.557 20.009 12.817 0 16.838-16.931 5.177-21.803-3.905-1.632-3.829-1.633-8.652.088m1.324 2.523c-1.136.753-.62.998 2.128 1.01 4.631.019 5.568 1.302 5.673 7.765.091 5.598-1.503 7.073-3.314 3.065-1.461-3.234-3.487-3.465-3.487-.398 0 1.629-.554 2.583-1.5 2.583-1.182 0-1.507-1.431-1.533-6.75l-.034-6.75-1.966 2.361c-6.476 7.772 4.327 17.415 12.398 11.066 6.627-5.213-1.387-18.58-8.365-13.952m1 5.025c0 .55.675 1 1.5 1s1.5-.45 1.5-1-.675-1-1.5-1-1.5.45-1.5 1m-469 4.031c-21.249 9.882-25.163 49.332-6.522 65.74 10.31 9.076 25.754 8.384 34.715-1.555 6.846-7.593 9.069-14.219 5.589-16.656-3.971-2.781-6.481-2.003-8.675 2.69-4.726 10.108-11.823 13.523-17.388 8.365-8.115-7.52-7.767-41.19.498-48.144 6.141-5.168 11.086-2.919 16.245 7.389 2.56 5.113 2.829 5.332 5.83 4.732 4.891-.979 5.037-1.63 2.841-12.647-2.207-11.073-3.031-12.306-7.633-11.433-3.464.658-3.557.657-13.5-.044-6.248-.441-8.251-.18-12 1.563m264.25-1.218c-4.374.422-4.939 6.594-.75 8.187l2.5.95v53.012l-2.552.64c-2.289.575-2.52 1.065-2.25 4.769l.302 4.129 6.5.324c3.575.178 9.762.027 13.75-.335l7.25-.66v-3.436c0-2.695-.539-3.682-2.5-4.575-2.448-1.116-2.5-1.368-2.494-12.229l.005-11.089 8.98 15c4.938 8.25 9.747 15.563 10.685 16.25 1.76 1.29 15.802 1.771 18.742.643 2.593-.995 2.112-7.683-.641-8.906-1.901-.844-14.44-19.646-21.614-32.41l-2.149-3.824 5.944-7.538c3.27-4.147 7.565-8.775 9.545-10.285 2.967-2.263 3.547-3.29 3.299-5.838l-.302-3.092-9.917-.288c-10.501-.305-11.537.096-11.568 4.481-.008 1.207.957 2.874 2.144 3.706 1.574 1.102 1.881 1.863 1.134 2.807-.564.712-4.011 5.018-7.659 9.57L424 320.051v-9.55c0-9.267.074-9.579 2.5-10.501 3.143-1.195 3.775-7.97.75-8.041l-10.75-.25c-4.95-.115-10.462-.068-12.25.104m-174.272 1.02c-1.825.622-1.069 6.093 1.022 7.399 1.918 1.198 2 2.332 2 27.533v26.285l-2.685 1.02c-2.161.822-2.862.703-3.597-.609-.604-1.08-1.677-1.437-3.18-1.06-2.247.564-2.274.449-2.773-11.666-.881-21.366-6.849-28.733-23.265-28.72-16.367.014-26.292 16.014-11.003 17.738 4.399.495 4.53.427 6.027-3.157 3.045-7.287 11.006-6.626 10.275.853-.284 2.895-.761 3.204-9.343 6.051-14.194 4.708-17.795 8.247-17.613 17.312.223 11.124 13.15 16.473 24.203 10.015l4.454-2.602 3.472 2.387c4.73 3.254 10.563 3.193 15.506-.161 2.066-1.403 4.004-2.303 4.306-2 .302.302.234.549-.153.549-.386 0-.213.913.385 2.029 1.017 1.9 1.897 2.012 13.785 1.75l12.699-.279.31-3.752c.269-3.241-.037-3.884-2.25-4.725l-2.56-.973v-33.186l2.941 2.094c1.617 1.152 3.237 3.027 3.599 4.167.647 2.04 11.736 26.03 15.195 32.875 1.694 3.352 1.998 3.5 7.194 3.5h5.424l7.584-19.467c6.37-16.354 8.027-19.713 10.357-21 2.216-1.225 2.717-2.137 2.49-4.533-.275-2.904-.476-3.016-6.284-3.5-13.382-1.115-18.259 1.959-12.127 7.645l2.55 2.364-3.123 8.746c-4.152 11.626-3.986 11.588-8.157 1.878-4.352-10.13-4.378-10.472-.991-13.172 2.129-1.698 2.519-2.642 1.981-4.788l-.671-2.673h-13.481c-10.011 0-13.533.322-13.682 1.25-.111.688-.448-4.15-.75-10.75l-.549-12-9.272-.5c-5.099-.275-9.712-.35-10.25-.167m239.032 0c-2.191.723-1.085 6.176 1.49 7.349l2.5 1.139-.015 25.59c-.016 26.493-.153 27.605-3.485 28.237-1.602.304-2 1.173-2 4.366v3.986l12.359.282c8.497.193 12.81-.093 13.801-.915 2.29-1.9 1.227-6.168-1.91-7.664l-2.75-1.312v-30.446c0-28.277-.125-30.455-1.75-30.581-4.067-.315-17.311-.337-18.24-.031m-156.375 2.24c-3.63 2.855-3.746 9.535-.223 12.844 7.795 7.324 19.051-1.319 14.125-10.845-2.407-4.654-9.272-5.641-13.902-1.999m230.339.454c-7.139 7.6 2.812 19.111 11.722 13.56 5.246-3.269 5.448-10.922.391-14.805-2.914-2.237-9.475-1.563-12.113 1.245m-180.192 20.356c-3.998 1.61-4.894 1.687-5.872.508-.836-1.007-3.743-1.391-10.532-1.391H337v3.759c0 2.616.58 4.122 1.907 4.951 1.724 1.076 1.919 2.592 2.037 15.813l.131 14.622-3.084 1.164c-2.739 1.034-3.05 1.557-2.787 4.678l.296 3.513h27v-4c0-3.387-.345-4.049-2.25-4.32-3.637-.516-3.463-24.057.205-27.725 5.869-5.87 7.328-2.991 7.719 15.243.326 15.162.329 15.179 3.199 18.172 5.221 5.444 17.269 4.405 20.577-1.776 1.498-2.799-.358-6.539-2.777-5.597-.92.358-2.123.73-2.673.827-.618.109-1.191-6.222-1.5-16.558l-.5-16.734-3.181-3.178c-4.092-4.088-11.359-4.86-18.537-1.971m143.118.056c-14.145 7.679-18.046 28.018-7.755 40.44 8.224 9.927 25.406 11.639 35.663 3.552l2.692-2.121.51 2.845.51 2.845h26.98v-4c0-3.376-.348-4.049-2.229-4.317-2.209-.314-2.232-.498-2.5-20L559.5 315.5l-10.75-.284-10.75-.284v3.628c0 2.786.464 3.748 2 4.15 1.1.288 2.047 1.258 2.105 2.157.396 6.176.531 26.955.185 28.383-.57 2.348-3.29 2.243-3.29-.128 0-1.032-.688-2.448-1.53-3.147-1.661-1.379-2.311-1.148-9.97 3.542-5.46 3.344-9.424 3.215-12.905-.418-4.289-4.476-3.252-5.992 5.905-8.633 16.051-4.629 19.5-6.288 19.5-9.378 0-4.797-5.597-14.536-10.179-17.713-5.512-3.821-18.131-4.579-23.921-1.436m91.346-.059c-4.376 1.512-5.441 1.59-6.372.468-2.014-2.426-19.507-1.86-20.164.652-.738 2.824.271 6 1.907 6 1.12 0 1.383 3.041 1.383 15.981v15.981l-2.553.641c-2.231.56-2.515 1.098-2.25 4.269l.303 3.628h27v-4c0-3.387-.345-4.049-2.25-4.32-3.795-.539-3.459-25.084.385-28.107 6.588-5.183 8.365-1.58 8.365 16.962v14.591l2.75 2.582c5.006 4.699 13.539 4.473 19-.505 3.771-3.439 1.36-9.243-2.777-6.686-2.505 1.548-2.98-1.108-2.889-16.15.1-16.633-.738-19.526-6.441-22.232-4.416-2.096-8.823-2.026-15.397.245M307 318.498c0 2.482.531 3.761 1.75 4.21 2.877 1.062 3.055 2.007 3.197 16.985l.137 14.382-3.096 1.079c-2.789.972-3.065 1.438-2.791 4.712l.303 3.634h27v-4c0-3.376-.348-4.049-2.229-4.317-2.209-.314-2.232-.498-2.5-20L328.5 315.5l-10.75-.284-10.75-.284v3.566m205.754 5.252c-4.368 4.914-4.299 14.265.104 14.228 2.98-.025 11.145-3.455 11.136-4.679-.058-8.325-7.048-14.264-11.24-9.549M197.5 341.373c-7.513 3.306-7.933 12.627-.569 12.627 4.736 0 6.465-2.15 6.52-8.107.055-5.999-.915-6.736-5.951-4.52m-81 52.344c1.1.267 14.713 3.08 30.25 6.251l28.25 5.765V393l-30.25.116c-16.637.064-29.35.334-28.25.601m456.5 5.64v6.356l29.25-5.861c16.087-3.223 29.7-6.048 30.25-6.277.55-.23-12.612-.453-29.25-.496L573 393v6.357m-201.513 28.299c-.816.816-1.71 2.577-1.985 3.914l-1.021 4.93c-.64 3.084-2.657 3.19-9.481.5-6.722-2.649-14.998-2.724-15.673-.141-.341 1.301-2.09 2.217-5.829 3.054-5.901 1.321-7.968 3.032-7.071 5.856.385 1.213-.231 2.638-1.762 4.076-1.941 1.824-2.327 3.127-2.202 7.433.149 5.114.243 5.268 4.557 7.472 5.757 2.941 7.234 2.843 11.327-.75 3.488-3.062 6.653-3.932 6.653-1.829 0 2.356-3.482 4.913-8.788 6.456-8.84 2.569-16.472 11.24-12.212 13.873.55.34 1 2.089 1 3.887 0 4.604 8.64 6.994 13.172 3.644 1.511-1.117 3.763-2.031 5.006-2.031 1.242 0 3.173-1.044 4.29-2.319 2.485-2.837 4.775-3.767 6.558-2.665 1.914 1.183-.248 3.572-4.501 4.976-5.962 1.967-6.153 16.857-.218 17.046.656.021 2.438 1.838 3.961 4.038 1.522 2.2 3.384 4.237 4.138 4.526.753.289 3.444 2.513 5.979 4.942 7.677 7.356 11.116 6.813 17.197-2.715 1.289-2.019 3.204-3.944 4.256-4.278 2.576-.817 8.025-11.269 8.791-16.864l.619-4.512-5.125-3.682c-5.276-3.79-5.78-5.493-1.626-5.493 1.664 0 3.324 1.316 5.524 4.38 4.027 5.607 11.639 7.11 18.44 3.641 2.179-1.112 4.489-2.021 5.134-2.021 1.854 0 2.399-3.929 1.273-9.182-1.373-6.399-5.333-10.361-11.243-11.247-5.025-.754-7.657-2.939-5.789-4.807.867-.867 1.876-.614 4.099 1.03 5.017 3.709 15.36.435 12.882-4.078-.669-1.219-1.52-5.039-1.89-8.489-.628-5.85-3.168-10.227-5.934-10.227-.386 0-1.915-1.125-3.398-2.5-2.998-2.778-5.515-3.053-12.301-1.344-3.98 1.002-4.754.936-5.803-.5-1.754-2.398-3.223-2.084-9.062 1.938-6.43 4.428-8.815 4.243-9.231-.714-.228-2.719.345-4.372 2.339-6.741 1.715-2.039 2.172-3.166 1.302-3.216-.736-.042-2.133-.228-3.104-.413-.971-.186-2.432.33-3.248 1.146m-108.059 8.436c.41 1.324.721 3.308.691 4.408-.029 1.1.938 2.757 2.149 3.682 4.217 3.22.832 2.975-6.942-.503l-7.826-3.501-11 .839c-13.297 1.015-18.753 2.433-18.305 4.757.174.906 1.664 1.924 3.311 2.263 4.893 1.006 7.579 2.922 9.057 6.459 1.013 2.426 2.234 3.52 4.475 4.012 1.97.433 3.412 1.546 3.997 3.085 1.063 2.796 3.126 3.004 10.465 1.057 5.813-1.543 7.5-1.22 7.5 1.433 0 2.058-.501 2.142-14 2.36-5.594.091-7.152.555-11.174 3.327-6.764 4.662-9.471 5.502-13.47 4.182-3.33-1.099-3.356-1.155-3.356-7.334 0-6.273-4.187-15.618-6.998-15.618-.573 0-2.72-1.04-4.772-2.311-8.398-5.204-28.002-.939-26.701 5.809 1.747 9.064 3.194 13.065 5.694 15.741 1.527 1.635 2.777 3.292 2.777 3.682 0 .39 1.575 1.46 3.5 2.378 1.925.918 3.5 2.126 3.5 2.685 0 2.215 11.068 1.104 16.06-1.613 6.711-3.653 12.637-1.758 12.129 3.879-.777 8.618 11.513 14.727 18.061 8.977 3.857-3.387 1.069-9.026-3.852-7.791-2.264.568-2.55 1.055-2.059 3.507 1.049 5.248-5.448 4.873-8.981-.519-2.022-3.086-.528-7.424 2.557-7.424 1.077 0 4.916-2.025 8.532-4.5 6.866-4.701 9.901-5.428 13.05-3.126 1.82 1.331 1.81 1.417-.309 2.741-2.833 1.769-2.761 3.221.312 6.294 1.375 1.375 2.5 3.207 2.5 4.07 0 1.99 2.915 3.091 10.502 3.967 7.176.828 10.292-.176 15.316-4.938 4.118-3.904 7.182-4.572 7.182-1.567 0 2.263-1.195 3.176-6 4.585-3.07.901-3.537 1.471-3.804 4.644-.168 1.995-1.177 4.408-2.25 5.379-3.937 3.563-2.57 5.106 5.159 5.824 6.197.576 7.544.389 10.54-1.462 1.899-1.175 4.323-1.891 5.421-1.604 1.421.371 2.764-.454 4.711-2.894 1.897-2.377 3.547-3.413 5.439-3.413 4.116 0 8.183-4.685 10.741-12.371 2.288-6.875 4.45-9.246 9.077-9.952 4.868-.743 3.149-4.229-1.897-3.847-2.399.182-5.424.064-6.721-.262-5.434-1.364-5.081-8.443.518-10.395 1.693-.59 3.524-2.108 4.069-3.373.546-1.265 1.545-3.074 2.22-4.02 1.039-1.454.731-2.232-1.997-5.047-1.774-1.831-3.226-3.861-3.226-4.512 0-1.76-4.523-2.568-9.821-1.756-5.926.91-6.34.915-8.289.101-2.259-.943-7.589 3.788-8.393 7.45-1.001 4.556-2.2 4.444-4.346-.408-2.298-5.195-6.061-7.992-11.07-8.228-1.969-.093-6.015-.513-8.989-.933-5.384-.76-5.405-.753-4.664 1.645m215.072-.953c-2.2.41-5.653.772-7.673.803-4.59.072-9.251 3.783-10.855 8.643-1.347 4.083-2.951 4.028-4.287-.147-1.652-5.166-4.714-7.688-8.574-7.065-1.864.3-5.628.066-8.366-.521-5.212-1.118-9.745-.074-9.745 2.245 0 .626-1.375 2.705-3.056 4.62-2.883 3.283-2.966 3.603-1.464 5.632.877 1.183 1.855 2.939 2.173 3.901.319.962 1.178 1.75 1.908 1.75s2.546 1.048 4.035 2.329c5.702 4.905.227 10.885-8.045 8.785-4.54-1.152-4.251-1.234-4.706 1.327-.271 1.524.467 2.137 3.434 2.856 4.102.994 5.16 2.455 8.778 12.127 2.371 6.335 7.517 11.163 10.793 10.124 1.486-.472 2.471.235 4.179 2.999 1.681 2.719 2.732 3.487 4.235 3.094 1.1-.287 4.078.532 6.618 1.82 8.735 4.43 21.035.394 15.118-4.961-1.232-1.115-2-3.08-2-5.116 0-2.995-.366-3.405-3.884-4.353-4.408-1.187-6.611-3.298-5.759-5.518.896-2.335 2.33-1.842 6.915 2.376 5.011 4.61 11.38 6.903 14.515 5.225 1.145-.613 3.922-1.114 6.172-1.114 3.546 0 4.228-.366 5.122-2.75.567-1.512 2.164-3.811 3.548-5.108l2.517-2.358-2.26-2.405c-5.57-5.929 3.439-6.405 11.533-.609 3.152 2.257 7.047 4.393 8.657 4.747 5.586 1.227 4.391 9.575-1.586 11.075-3.714.932-5.316-.051-4.767-2.925.611-3.197-2.671-5.3-5.723-3.667-2.842 1.521-2.529 5.439.635 7.927 6.78 5.333 18.219-.52 17.115-8.757-.497-3.701-.421-3.804 3.956-5.378 4.451-1.601 4.475-1.597 9.352 1.435 4.886 3.037 12.976 3.655 14.816 1.132.344-.472 2.314-1.717 4.376-2.766 2.063-1.05 3.75-2.375 3.75-2.946 0-.571 1.034-2.187 2.297-3.592 2.591-2.882 4.22-7.37 5.159-14.215.627-4.57.581-4.673-2.408-5.33-1.676-.368-3.048-.998-3.048-1.4 0-1.508-9.439-3.158-12.675-2.217-1.746.508-3.387.712-3.647.452-.259-.26-2.806.749-5.659 2.24-7.14 3.733-10.317 8.73-10.847 17.06-.624 9.798-5.686 11.018-16.346 3.94-4.967-3.298-5.962-3.575-12.855-3.58-10.816-.008-12.471-.352-12.471-2.588 0-2.088.766-2.143 11.75-.848 5.379.635 5.75.544 5.75-1.407 0-1.586.956-2.342 4-3.162 2.2-.592 4-1.674 4-2.404 0-2.766 4.247-6.608 8.76-7.923 12.155-3.545 1.086-6.992-24.518-7.637-1.241-.032-4.941 1.298-8.221 2.953-6.994 3.531-10.914 4.106-7.271 1.067 1.246-1.039 2.25-3.006 2.25-4.407 0-1.392.45-2.809 1-3.149 3.253-2.01-.693-3.443-6.5-2.361m-109.075 12.519c-.84 2.972-2.964 3.298-12.068 1.849-7.495-1.192-13.917-1.029-14.785.377-.222.359 1.246.496 3.262.304s7.041.531 11.166 1.606c4.125 1.075 8.962 1.735 10.75 1.467 7.924-1.189 1.011 9.786-9.529 15.127-2.665 1.351-5.493 3.279-6.284 4.284-1.296 1.649-1.276 1.702.207.543.904-.706 4.504-2.669 8-4.361 3.496-1.693 7.619-3.976 9.164-5.075 4.045-2.878 4.233-2.009 2.265 10.477l-1.771 11.244 3.065 9c3.077 9.035 4.412 8.287 1.622-.909-1.941-6.398-1.899-12.446.145-21.189l1.66-7.097 4.135 2.311c4.064 2.272 14.257 5.031 15.179 4.109.258-.258-1.91-1.235-4.819-2.172-12.77-4.109-21.509-15.291-12.591-16.109 2.034-.186 5.184-1.108 7-2.048 1.816-.941 5.777-2.03 8.802-2.422l5.5-.712-5.624-.131c-3.094-.072-7.594.571-10 1.429-5.258 1.875-9.371 1.254-11.941-1.802l-1.9-2.258-.61 2.158m-66.675 4.935c-2.939 3.36-4.75 6.379-4.75 7.919 0 5.043-11.705-.053-15.012-6.536-2.283-4.474-3.859-4.982-1.863-.601 1.605 3.523 1.122 3.774-5.206 2.7-2.98-.506-7.645-1.134-10.365-1.396-7.337-.708-3.184 1.097 5.29 2.299 3.886.551 8.914 1.742 11.174 2.646l4.109 1.644-4.26 2.419C277.465 466.188 268.393 474 269.892 474c.466 0 3.09-1.786 5.832-3.97 8.589-6.838 12.913-7.546 20.784-3.402 2.746 1.446 5.141 2.758 5.323 2.915.182.157-.248 1.337-.956 2.621-1.903 3.454-4.668 11.826-3.709 11.234.455-.282 1.792-2.754 2.971-5.495 2.417-5.619 4.164-6.95 8.124-6.194 3.795.726 3.785-2.428-.011-3.309-8.157-1.892-9.59-7.173-3.956-14.573 6.671-8.762 5.712-9.528-1.544-1.234m137.288-4.071c-.021.562 1.343 2.697 3.03 4.745 6.291 7.631 5.628 13.66-1.691 15.391-4.887 1.156-5.673 3.337-1.21 3.357 4.475.021 5.404.76 7.823 6.229 1.137 2.57 2.438 4.902 2.891 5.182 1.256.777-1.982-8.69-3.631-10.613-1.88-2.193-1.341-2.913 4.27-5.716 7.779-3.885 12.93-3.061 20.98 3.356 6.782 5.406 7.296 4.959 1.055-.916-3.269-3.078-6.982-5.857-8.25-6.175-5.445-1.367 1.082-4.243 14.51-6.393 10.017-1.604 8.455-2.25-2.425-1.004-12.407 1.422-11.656 1.608-9.954-2.465 1.993-4.771 1.174-4.398-1.914.873-2.021 3.448-3.801 4.928-8.417 7-7.241 3.249-7.105 3.255-7.105-.303 0-2.794-9.862-15.216-9.962-12.548m-243.879 2.082c.452 2.372 4.841 3.247 4.841.966 0-.864-.413-1.57-.918-1.57-.505 0-1.676-.291-2.602-.646-1.268-.487-1.594-.179-1.321 1.25M190 451.5c0 .825.675 1.5 1.5 1.5s1.5-.675 1.5-1.5-.675-1.5-1.5-1.5-1.5.675-1.5 1.5m357.667-.833c-1.36 1.359-.595 2.333 1.833 2.333 1.556 0 2.5-.567 2.5-1.5 0-1.5-3.075-2.091-4.333-.833m7.742.709c-.847 2.208.28 3.335 1.808 1.807.902-.902.905-1.461.016-2.35-.89-.89-1.324-.761-1.824.543M205 452.465c0 .844.188 1.535.418 1.535.23 0 1.13.273 2 .607 2.299.882 1.942-1.344-.418-2.607-1.596-.854-2-.76-2 .465m334.98 1.059c-1.976 2.382-.527 2.745 2.128.534 1.85-1.54 2.023-1.999.764-2.025-.895-.018-2.196.653-2.892 1.491M184 454c0 .55.675 1 1.5 1s1.5-.45 1.5-1-.675-1-1.5-1-1.5.45-1.5 1m377.192.075c.197.591.785 1.075 1.308 1.075s1.111-.484 1.308-1.075c.197-.591-.391-1.075-1.308-1.075s-1.505.484-1.308 1.075m-368.442 2.674c-2.128.483-2.274 2.572-.294 4.215 1.807 1.499 3.544.536 3.544-1.964 0-2.211-.846-2.797-3.25-2.251m6.265.376c.033 2.928 1.528 3.823 5.348 3.204 3.153-.512 3.559-.836 2.445-1.949-2.029-2.03-7.812-2.961-7.793-1.255m12.435 1.032c-.507 1.598-.07 2.623 1.683 3.951 2.93 2.22 3.492 1.002 1.402-3.04-1.886-3.647-2.188-3.736-3.085-.911m332.05-.258-4 1.847 2.671.716c3.974 1.064 6.29.29 6.649-2.222.384-2.693-.15-2.728-5.32-.341m-9.964 2.351c-1.633 3.882-1.406 4.31 1.367 2.579 2.14-1.337 2.949-5.829 1.049-5.829-.577 0-1.664 1.462-2.416 3.25m19.071-1.668c-1.589 4.141 2.351 5.001 4.211.918 1.041-2.284.934-2.5-1.232-2.5-1.305 0-2.645.712-2.979 1.582m-367.43 1.971c.452 2.172 2.227 2.305 2.633.197.21-1.095-.28-1.75-1.31-1.75-.961 0-1.512.647-1.323 1.553m375.49-.886c-.367.366-.667 1.266-.667 2 0 1.77 2.639 1.715 3.324-.069.808-2.106-1.098-3.491-2.657-1.931m-356.417 3.974c-2.106.885-1.403 3.053 1.89 5.823 3.847 3.237 8.2 3.161 8.671-.151.467-3.277-6.876-7.22-10.561-5.672m-8.25 1.392c-1.265.846-1.052 1.399 1.365 3.536 3.458 3.057 3.994 2.76 2.542-1.407-1.193-3.421-1.623-3.655-3.907-2.129m339.381 1.495c-3.148 3.149-2.671 4.879 1.459 5.286 3.193.315 9.16-4.073 9.16-6.737 0-2.275-7.984-1.184-10.619 1.451m-346.645-.93c-.974.973.363 3.402 1.871 3.402 1.572 0 1.637-.2.786-2.418-.63-1.643-1.629-2.013-2.657-.984M548.15 468c-1.178 3.379-.594 3.7 2.627 1.443 2.723-1.906 2.906-4.443.321-4.443-1.215 0-2.28 1.085-2.948 3m8.862-1.022c-1.515 2.83-.453 3.892 1.719 1.72 1.237-1.238 1.388-1.979.569-2.798-.82-.82-1.426-.534-2.288 1.078m-363.481 4.972c-.615.994 2.457 3.05 4.558 3.05.765 0 .545-.747-.589-2-1.994-2.203-3.079-2.49-3.969-1.05m357.498 1.011c-.809.512-1.181 1.221-.825 1.576.874.874 4.796-.438 4.796-1.604 0-1.19-2.068-1.176-3.971.028M202 475c-.952 1.779-.762 1.998 1.715 1.985 4.416-.025 5.799-1.43 2.766-2.812-3.308-1.507-3.224-1.523-4.481.827m338.5-.04c-1.858.762-1.801.898.815 1.93 4.053 1.598 6.019 1.423 5.292-.472-.334-.87-.607-1.77-.607-2 0-.675-3.332-.346-5.5.542m-225.298 14.186c-1.815 1.161-4.367 4.22-5.672 6.796-3.735 7.369-4.888 7.856-16.712 7.056-5.553-.376-9.465 1.747-10.449 5.669-.89 3.547.431 5.428 5.568 7.931l4.306 2.099-2.872 3.213c-4.891 5.474-15.053 5.414-13.616-.081.644-2.465-1.502-2.177-3.142.422-.767 1.216-.575 2.134.753 3.601 4.39 4.851 12.511 3.367 18.443-3.373 2.169-2.463 4.696-4.479 5.617-4.479 4.193 0 7.703-2.998 7.383-6.306-.48-4.963-4.017-4.885-8.703.191l-3.734 4.045-3.433-1.715c-3.723-1.86-4.819-4.45-2.874-6.793.937-1.129 3.277-1.437 9.839-1.292 10.105.223 11.264-.32 16.411-7.685 2.495-3.571 4.873-5.745 7.205-6.588 2.217-.802 3.48-1.911 3.48-3.058 0-2.472-3.649-2.31-7.798.347m110.465-1.479c-1.448 1.448-.514 3.036 2.685 4.561 1.844.879 4.431 3.036 5.75 4.792 1.319 1.757 3.876 4.782 5.683 6.722l3.284 3.527 8.417-.683c7.742-.628 8.588-.512 10.539 1.439 2.599 2.599 1.076 5.775-3.501 7.3-2.52.84-3.123.558-5.928-2.784-3.937-4.689-8.884-4.875-9.406-.354-.357 3.088 2.38 5.377 7.699 6.441 2.028.405 3.676 1.518 4.31 2.91 2.698 5.92 13.226 9.379 18.343 6.027 2.983-1.955 3.051-5.836.111-6.397-1.455-.277-1.71.078-1.202 1.679 1.523 4.798-6.955 5.124-12.475.479-3.936-3.312-3.72-4.439 1.31-6.826 5.037-2.39 6.146-6.515 2.846-10.577-1.848-2.273-2.509-2.406-10.701-2.154-9.985.307-10.887-.162-15.059-7.827-3.078-5.655-10.495-10.486-12.705-8.275m-84.222 6.914c-1.727 2.29-2.261 2.459-4.76 1.5-3.654-1.403-8.253-1.376-11.001.064-3.345 1.753-9.667 6.903-9.418 7.671.122.376-.832 2.383-2.119 4.459-1.288 2.077-2.12 4.352-1.85 5.057.271.705-.082 3.506-.784 6.225-.702 2.719-.938 5.393-.525 5.943.413.55 1.072 2.776 1.464 4.947.392 2.171 1.575 5.044 2.63 6.385 1.055 1.341 1.918 3.072 1.918 3.848 0 1.026.885 1.276 3.25.915 1.788-.272 5.69-.769 8.673-1.103 7.247-.811 15.825-6.696 18.986-13.024 1.227-2.457 2.65-4.468 3.161-4.468 1.316 0 1.159-12.685-.19-15.316-.616-1.201-2.51-3.652-4.208-5.446-3.034-3.206-3.059-3.313-1.407-6.11 2.727-4.616-.516-5.93-3.82-1.547M402 493.453c0 .799.546 2.652 1.214 4.117 1.098 2.411.951 2.892-1.548 5.041-11.626 10-2.731 32.96 14.599 37.682 9.552 2.603 14.674 2.18 15.891-1.312.572-1.64 1.425-2.981 1.897-2.981.471 0 1.126-1.687 1.456-3.75.33-2.062.992-4.477 1.47-5.365.509-.946.432-3.431-.186-6-.58-2.412-.997-5.442-.927-6.735.071-1.292-.813-3.671-1.963-5.286-1.15-1.615-2.193-3.707-2.319-4.65-.125-.943-2.445-3.227-5.156-5.076-4.753-3.242-5.18-3.34-12.029-2.775-6.841.565-7.142.496-8.229-1.888-1.217-2.673-4.17-3.397-4.17-1.022m-77.448 7.503-2.947 1.943 2.762 1.051c1.52.577 2.874 1.05 3.01 1.05.136 0 1.245-1.35 2.465-3l2.218-3-2.28.007c-1.254.003-3.606.881-5.228 1.949M416 499.448c0 2.095 5.243 5.708 7.472 5.148 3.438-.863 3.175-2.061-.873-3.982-3.237-1.536-6.599-2.13-6.599-1.166m-81.04 2.592c-2.826 2.826-4.019 6.415-3.31 9.96.697 3.487.584 3.447 4.339 1.506 3.665-1.896 6.011-5.224 6.011-8.529 0-4.903-3.58-6.397-7.04-2.937m71.469 1.386c-.767 3.056 1.275 7.305 4.743 9.871 3.613 2.673 5.828 1.652 5.828-2.689 0-7.05-9.059-13.204-10.571-7.182m-88.258 5.671c-1.696 2.716-.45 4.005 1.411 1.46.78-1.066 1.418-2.303 1.418-2.748 0-1.508-1.513-.819-2.829 1.288m26.515.831c-2.066 4.141-2.108 3.601.465 5.998 3.726 3.472 5.145-.176 2.49-6.402l-1.269-2.976-1.686 3.38m56.45-1.182c-1.32 2.466-1.533 9.254-.291 9.254 2.896 0 4.394-3.936 2.913-7.651-1.415-3.547-1.541-3.623-2.622-1.603m25.897-1.543c-.066 1.397 2.308 5.797 3.128 5.797.461 0 .839-.4.839-.889 0-1.068-3.919-5.917-3.967-4.908m-102.361 2.606c-4.249 4.696-2.672 10.867 2.122 8.301 1.657-.887 1.838-1.654 1.205-5.116-.933-5.104-1.285-5.44-3.327-3.185m95.958 1.441c-1.48 5.525-.308 7.75 4.083 7.75 1.219 0 1.425-.764.966-3.589-.955-5.889-3.929-8.339-5.049-4.161m-122.164 1.786c-3.171 3.309-3.085 3.424 1.385 1.866 1.732-.604 3.149-1.702 3.149-2.441 0-2.583-1.717-2.366-4.534.575M445 512.525c0 .838 1.154 1.963 2.565 2.5 4.188 1.592 4.928 1.128 2.435-1.525-2.64-2.81-5-3.271-5-.975m-129.393 5.057c-1.162 3.029-.622 4.418 1.72 4.418 2.016 0 2.268-.4 1.886-3-.469-3.201-2.6-4.039-3.606-1.418m114.06-.915c-1.648 1.647-.661 6.333 1.333 6.333 2.046 0 2.618-2.226 1.393-5.418-.644-1.679-1.631-2.01-2.726-.915m-95.417 1.364c-2.344.942-2.63 1.951-1.62 5.719.772 2.878 1.528 2.829 5.293-.339 5.499-4.627 3.121-8.111-3.673-5.38m73.188.069c-.754 1.22 2.203 5.647 4.891 7.323 2.017 1.257 3.631-.542 3.656-4.075.021-2.976-7.053-5.664-8.547-3.248m-64.28 5.018c-.879 1.408-.988 2.452-.325 3.115.662.662 1.537-.048 2.608-2.118 1.904-3.682-.068-4.543-2.283-.997m58.877-.868c.08 2.797 2.778 6.358 3.47 4.578.716-1.845-1.019-5.828-2.54-5.828-.531 0-.949.563-.93 1.25m-78.658.773c-1.619 1.619-.432 6.977 1.545 6.977 3.46 0 5.288-2.319 4.162-5.28-1.058-2.782-3.805-3.599-5.707-1.697m96.241.529c-1.521 3.964.756 7.448 4.868 7.448.855 0 1.633-6.275.865-6.986-1.951-1.809-5.118-2.064-5.733-.462M316 528.5c0 1.833.533 2.5 2 2.5 2.091 0 2.407-.775 1.393-3.418-.97-2.529-3.393-1.874-3.393.918m112.707.513c-.348 1.33-.01 2.317.914 2.672 1.763.676 2.086.403 2.534-2.149.484-2.757-2.736-3.246-3.448-.523m-92.994.208c-2.248.783-2.659 1.387-2.126 3.125.996 3.244 1.255 3.267 4.157.365 3.174-3.175 2.144-4.945-2.031-3.49m72.287.74c0 1.437 4.252 5.121 5.455 4.726 2.189-.72 1.712-4.41-.653-5.043-3.299-.884-4.802-.785-4.802.317m-81.333 3.706c-1.327 1.327-.625 3.333 1.166 3.333 2.36 0 3.165-.841 2.491-2.598-.565-1.473-2.525-1.867-3.657-.735m91.656.934c-.543 1.415 1.057 3.341 2.81 3.384 1.418.034 1.572-3.884.175-4.42-2.109-.81-2.303-.742-2.985 1.036m-98.914.775c-.847 2.208.28 3.335 1.808 1.807.902-.902.905-1.461.016-2.35-.89-.89-1.324-.761-1.824.543M426 536.5c0 .825.675 1.5 1.5 1.5s1.5-.675 1.5-1.5-.675-1.5-1.5-1.5-1.5.675-1.5 1.5" fill-rule="evenodd"/>
<path fill="#d45e67" stroke="#d45e67" d="M366.055 132.02 358.609 155h-49.844l10.368 7.629a7728.154 7728.154 0 0 1 14.577 10.75 477.966 477.966 0 0 0 9.227 6.621c2.76 1.925 5.028 4.186 5.041 5.025.012.839-3.332 11.564-7.431 23.834-8.077 24.177-8.076 23.985-.047 17.182 4.519-3.83 32.344-23.041 33.371-23.041.917 0 15.27 9.875 36.559 25.154 2.161 1.551 4.042 2.707 4.18 2.569.138-.137-3.077-10.144-7.143-22.237-4.067-12.092-7.407-22.661-7.421-23.486-.015-.825 8.736-7.8 19.445-15.5l19.471-14-24.731-.273-24.731-.272-7.463-22.978c-4.104-12.637-7.704-22.968-8-22.957-.295.012-3.887 10.362-7.982 23M140.47 252.256l-40.031 8.05-5.846 19.8-5.846 19.8 4.093 4.65c11.431 12.985 11.642 32.418.518 47.53l-4.482 6.088 5.697 19.163c3.133 10.54 5.791 19.281 5.907 19.425.298.371 79.676 16.238 81.235 16.238.961 0 1.285-2.52 1.285-10v-10h383v10c0 7.337.333 9.998 1.25 9.993 2.074-.013 79.903-15.813 80.416-16.325.261-.262 1.771-4.907 3.354-10.322a2549.624 2549.624 0 0 1 5.807-19.518l2.929-9.673-3.252-3.151c-12.806-12.413-12.666-38.894.272-51.289l2.887-2.766-4.806-16.021c-2.643-8.812-5.267-17.735-5.831-19.831l-1.026-3.81-39.25-7.703c-21.587-4.236-40.021-7.926-40.964-8.199-1.528-.443-1.746.623-2 9.809L565.5 264.5l-191.215.253-191.215.252-.285-10.171c-.16-5.722-.722-10.272-1.285-10.4-.55-.126-19.014 3.394-41.03 7.822m2.53 5.66c-15.125 3.15-28.175 6.001-29 6.334-.825.334 12.675.527 30 .429l31.5-.179.298-6.25.297-6.25-2.797.095c-1.539.052-15.173 2.672-30.298 5.821m429.739-5.166c-.209.412-.348 3.225-.309 6.25l.07 5.5 31.431.265c17.287.145 31.185.017 30.883-.284-.596-.596-58.023-12.481-60.305-12.481-.765 0-1.562.338-1.77.75m-469.261 18.5c-.253.688-2.181 7.168-4.285 14.402l-3.825 13.151 2.933 3.849c11.521 15.117 11.469 37.296-.121 52.184l-2.853 3.664 4.088 14 4.087 14 270.568.252 270.568.252 3.989-14.156 3.989-14.155-4.279-6.381c-10.026-14.952-9.515-34.755 1.261-48.873l3.185-4.172-3.869-13.692c-2.128-7.531-4.13-14.116-4.45-14.634-.963-1.558-540.413-1.25-540.986.309m499.633 12.31c-8.543 7.188-2.002 20.627 9.302 19.112 7.697-1.033 11.744-8.844 8.392-16.2-2.634-5.781-12.379-7.385-17.694-2.912m1.966 2.029c-8.065 6.786.417 18.827 9.832 13.958 3.956-2.046 5.716-6.624 4.071-10.594-2.446-5.907-8.997-7.492-13.903-3.364M606 291c0 4.667.333 6 1.5 6 .833 0 1.5-.889 1.5-2 0-2.877 2.868-2.478 4.023.56 1.498 3.94 2.794 2.026 2.486-3.672-.306-5.686-1.366-6.85-6.259-6.873L606 285v6m3-2.5c0 .825.648 1.5 1.441 1.5 2.116 0 2.802-1.693.971-2.395-2.228-.855-2.412-.787-2.412.895m-466.287 3.867c-19.945 5.593-27.855 40.578-13.795 61.015 11.287 16.404 34.726 15.014 43.494-2.581 3.297-6.617 3.307-9.152.041-10.64-3.796-1.73-4.011-1.605-7.299 4.221-7.635 13.527-18.873 12.979-21.994-1.074-7.029-31.647 8.455-57.393 20.7-34.419 2.868 5.38 3.613 6.111 6.23 6.111 3.966 0 4.408-1.615 2.937-10.73-1.905-11.811-2.314-12.364-8.95-12.112-3.067.116-8.052-.091-11.077-.461-3.543-.433-7.203-.194-10.287.67m295.537-.661c-2.711.522-3.314 6.672-.75 7.656.825.316 1.5 1.078 1.5 1.692 0 1.25-13.666 18.258-15.089 18.779-1.08.396-1.216-16.83-.146-18.433.404-.605 1.747-1.634 2.985-2.285 1.568-.826 2.25-2.092 2.25-4.178v-2.993l-13.75.278-13.75.278-.313 3.251c-.262 2.709.113 3.412 2.25 4.225l2.563.974v53.1l-2.563.974c-2.137.813-2.512 1.516-2.25 4.225l.313 3.251h27l.307-3.168c.256-2.633-.167-3.395-2.5-4.511-2.789-1.335-2.809-1.413-3.091-12.082-.156-5.907.069-10.739.5-10.739s5.045 6.975 10.252 15.5l9.468 15.5H464v-3.521c0-2.712-.533-3.765-2.318-4.578-1.947-.887-21.422-30.453-23.324-35.411-.731-1.904 10.982-16.919 15.261-19.563 3.533-2.184 4.456-5.452 2.181-7.727-1.155-1.155-12.468-1.473-17.55-.494M229 296.025c0 2.311.593 3.25 2.516 3.981l2.517.957-.267 26.686-.266 26.685-2.808.936c-2.13.709-3.222.561-4.523-.617-1.119-1.012-2.211-1.245-3.144-.668-2.592 1.602-3.025.013-3.025-11.101 0-14.294-1.258-19.166-6.181-23.944-8.487-8.236-25.622-7.363-32.724 1.667-4.238 5.387-2.367 8.983 5.212 10.022l4.605.631 1.638-4.092c2.431-6.076 8.459-6.904 10.534-1.447 1.646 4.33-.761 6.459-10.701 9.467-11.279 3.414-15.422 7.159-16.136 14.59-1.178 12.26 11.342 18.38 23.767 11.618l4.785-2.604 3.186 2.354c4.244 3.136 11.77 3.15 15.99.031 3.603-2.664 4.025-2.692 4.025-.259 0 2.193 7.883 3.014 20 2.082 6.429-.495 6.503-.534 6.805-3.633.264-2.721-.105-3.276-2.803-4.216l-3.107-1.083.108-29.284c.059-16.106.082-29.846.052-30.534-.04-.913-2.751-1.25-10.055-1.25h-10v3.025m85.5-1.87c-7.865 4.302-4.928 15.845 4.031 15.845 4.49 0 9.469-4.47 9.469-8.5 0-5.911-8.082-10.308-13.5-7.345m154.05-.236c-1.08 1.747.557 5.876 2.535 6.393 1.826.478 1.915 1.735 1.915 27.146v26.646l-3.055 1.065c-2.64.92-3.013 1.488-2.75 4.186.386 3.955 4.141 4.798 17.555 3.941l9.25-.591v-3.334c0-2.716-.46-3.448-2.486-3.957l-2.485-.624-.265-30.645-.264-30.645-9.669-.285c-5.622-.166-9.925.129-10.281.704m74.905 1.536c-7.797 7.796 3.102 19.401 11.798 12.561 3.343-2.63 4.171-6.296 2.258-9.995-2.885-5.58-9.784-6.839-14.056-2.566M367.5 314.62c-1.1.261-3.697 1.201-5.772 2.089-3.507 1.501-3.859 1.495-5.017-.09-1.044-1.428-2.7-1.656-10.229-1.411l-8.982.292-.303 3.62c-.246 2.948.078 3.719 1.75 4.156 1.959.512 2.053 1.245 2.053 16.033v15.495l-3 1.046c-2.996 1.045-3.735 3.072-2.393 6.568.508 1.325 2.624 1.582 13.025 1.582 12.314 0 12.425-.021 13.365-2.491 1.228-3.231.501-4.961-2.699-6.419-2.587-1.179-2.59-1.193-1.945-10.289.356-5.01.647-10.614.647-12.455 0-5.875 5.785-9.419 9.429-5.775 1.287 1.288 1.571 4.257 1.571 16.445 0 18.956.858 20.484 11.495 20.484 6.294 0 6.836-.187 9.644-3.329 3.58-4.007 2.475-6.744-2.333-5.782l-2.806.561-.004-15.725c-.004-16.769-.948-20.523-5.817-23.129-2.386-1.277-8.993-2.112-11.679-1.476m138.985 1.485c-20.529 10.846-17.471 42.621 4.612 47.918 8.475 2.033 17.944-.094 23.653-5.314l2.25-2.058v3.035c0 2.915.208 3.06 5.25 3.666 7.78.934 17.271.781 20.185-.327 3.634-1.382 3.679-6.529.065-7.436l-2.5-.627-.014-17.731c-.018-24.218.941-22.359-11.361-22.015l-10.125.284-.3 3.067c-.241 2.467.199 3.294 2.25 4.228l2.55 1.162v14.822c0 14.897-.508 17.221-3.767 17.221-.871 0-1.156-.666-.786-1.832.346-1.091-.135-2.481-1.189-3.435-1.64-1.483-2.174-1.348-7.218 1.832-6.607 4.166-11.694 4.557-15.403 1.185-3.012-2.738-4.338-6.596-2.456-7.145 28.27-8.251 28.821-8.584 26.472-16.036-4.392-13.935-19.938-20.925-32.168-14.464m91.16-.024c-5.313 1.828-5.963 1.867-7.018.424-.943-1.29-2.855-1.535-10.145-1.297l-8.982.292-.303 3.62c-.246 2.948.078 3.719 1.75 4.156 1.96.512 2.053 1.245 2.053 16.111v15.575l-2.509.63c-2.952.74-4.336 4.685-2.443 6.965 1.698 2.047 23.303 1.949 25.366-.114 1.9-1.9.806-6.022-1.93-7.268-2.194-1-2.329-1.601-2.347-10.412-.03-14.334 1.861-19.633 7.042-19.731 4.164-.079 4.821 2.37 4.821 17.984 0 14.134.116 15.007 2.331 17.582 3.421 3.978 12.232 4.644 17.119 1.296 5.616-3.848 5.038-8.807-.854-7.329l-2.596.652v-16.474c0-18.436-.658-20.449-7.636-23.364-4.366-1.825-6.725-1.704-13.719.702m-345.978-.414c-1.529 1.528-.612 6.292 1.42 7.38 1.927 1.031 3.898 4.843 16.391 31.703 2.674 5.748 4.396 8.288 5.68 8.375 1.013.069 2.854.211 4.092.316 4.311.367 5.436-1.437 12.753-20.449 6.382-16.581 7.747-19.328 10.241-20.618 2.261-1.169 2.811-2.066 2.567-4.181-.31-2.688-.33-2.694-9.727-2.983-11.673-.359-14.214 1.807-8.422 7.178l2.663 2.469-3.29 9.321c-1.81 5.127-3.618 9.684-4.017 10.126-.399.442-2.638-3.805-4.976-9.438-4.01-9.663-4.149-10.315-2.455-11.553.987-.722 2.159-1.313 2.604-1.313.445 0 .809-1.575.809-3.5V315h-12.833c-7.059 0-13.134.3-13.5.667m56 0c-1.703 1.702-.589 6.048 1.833 7.151l2.5 1.139v30.847l-3 1.046c-3.258 1.136-4.179 4.927-1.697 6.986 1.274 1.058 21.176 1.375 24.914.397 3.009-.787 2.438-7.031-.717-7.822l-2.5-.628v-18.31c0-10.07-.273-19.021-.607-19.891-.629-1.639-19.183-2.458-20.726-.915m205.622 7.133c-1.731 1.1-4.292 7.642-4.274 10.918.028 5.116 1.079 5.692 7.11 3.898 7.746-2.303 8.27-2.796 7.568-7.122-1.156-7.12-5.848-10.589-10.404-7.694m-315.201 18.001c-8.568 4.268-9.432 12.416-1.378 13.004 5.425.396 7.55-2.415 7.098-9.39-.356-5.497-1.054-5.938-5.72-3.614m-83.588 52.75c.904.355 60.305 12.449 61.145 12.449.195 0 .355-2.925.355-6.5V393l-31.25.079c-17.187.043-30.8.256-30.25.472m458.073 5.699c.124 5.972.236 6.238 2.528 5.986 3.844-.422 58.356-11.391 58.816-11.834.229-.221-13.509-.402-30.529-.402h-30.945l.13 6.25m-202.124 31.218c-.797 1.907-1.449 4.621-1.449 6.031 0 3.755-2.006 3.965-10.354 1.083-9.264-3.197-11.845-3.229-15.127-.187-1.421 1.317-4.257 2.707-6.302 3.089-4.853.907-6.217 2.139-6.217 5.615 0 1.865-.788 3.371-2.27 4.342-2.992 1.96-3.043 10.951-.074 13.031 4.566 3.197 13.344 3.461 13.344.401 0-1.788 5.734-3.898 6.871-2.529 2.008 2.42-1.527 5.494-8.893 7.731-9.023 2.741-15.256 9.194-12.049 12.475.51.522 1.073 2.525 1.25 4.45.446 4.859 9.222 6.851 13.301 3.019 1.488-1.398 3.056-2.027 4.076-1.636 1.064.408 2.909-.462 5.148-2.428 3.628-3.185 6.558-3.551 7.072-.881.191.995-1.226 2.244-3.962 3.488-3.488 1.587-4.391 2.572-4.985 5.438-.963 4.654.778 11.085 3.172 11.711 1.025.268 3.026 2.242 4.446 4.388s3.251 3.901 4.07 3.901c.818 0 3.141 1.829 5.16 4.065 7.526 8.329 11.183 8.379 16.355.224 1.594-2.513 3.91-5.074 5.147-5.691 3.927-1.958 8.155-10.072 8.624-16.549l.419-5.796-4.065-2.285c-4.281-2.406-5.846-4.679-4.29-6.235 1.625-1.625 4.982.247 8.804 4.91 3.034 3.702 4.164 4.431 6.255 4.031 1.404-.269 3.426-.021 4.492.55 1.442.771 2.729.626 5.011-.566 1.689-.883 4.309-2.056 5.821-2.607 2.238-.815 2.749-1.611 2.744-4.276-.015-9.234-3.518-13.891-11.994-15.943-4.449-1.077-5.561-1.762-5.82-3.582-.415-2.925 2.607-3.037 5.859-.217 1.38 1.197 2.985 1.762 3.903 1.372.857-.364 2.557-.879 3.777-1.144 3.604-.783 4.916-3.026 3.27-5.592-.765-1.193-1.477-4.625-1.582-7.627-.195-5.597-3.262-10.042-6.928-10.042-.775 0-1.89-.9-2.479-2-1.251-2.337-7.555-2.748-13.004-.849-2.791.973-3.489.896-4.509-.5-1.795-2.454-3.977-2.035-9.623 1.849-5.803 3.992-6.149 4.072-8.293 1.929-2.256-2.257-1.942-5.419.965-9.697l2.536-3.732h-3.087c-2.577 0-3.326.573-4.536 3.468M263 435.823c0 .582.489 1.361 1.087 1.731.598.369.867 1.515.597 2.546-.324 1.238.411 2.535 2.163 3.82 5.308 3.893 1.13 4.335-6.485.686-6.855-3.285-7.344-3.369-17.457-3.011-10.898.386-13.625.77-18.155 2.561-2.95 1.165-3.699 2.844-1.27 2.844 4.112 0 9.683 3.399 11.541 7.042 1.386 2.715 2.79 3.977 4.956 4.453 1.663.365 3.023 1.287 3.023 2.049 0 2.824 3.478 3.454 9.97 1.807 5.571-1.414 6.389-1.42 7.748-.062 3.15 3.15-2.184 5.062-13.378 4.795-5.598-.133-6.74.221-12.5 3.875-10.787 6.843-16.048 5.228-16.261-4.991-.137-6.582-4.327-15.274-7.082-14.692-.552.117-2.352-.732-4-1.885-2.719-1.903-6.513-2.649-13.497-2.654-1.375-.002-4.865 1.043-7.755 2.32l-5.256 2.322.436 4.793c.239 2.636.717 5.249 1.062 5.807.344.557.803 1.929 1.018 3.048.592 3.074 6.938 9.996 11.58 12.633 6.309 3.584 13.589 2.854 18.631-1.869l2.216-2.076 4.766 2.064c4.517 1.955 4.75 2.245 4.463 5.575-.787 9.129 11.785 14.66 17.092 7.521 3.35-4.507-.787-9.198-4.68-5.306-1.175 1.176-1.313 2.048-.549 3.476 1.308 2.444-2.913 3.782-6.612 2.097-5.487-2.5-5.77-10.42-.412-11.492 1.665-.333 5.424-2.415 8.354-4.628 8.023-6.057 19.888-5.111 12.396.989l-2.25 1.832 2.75 2.883c1.512 1.586 2.75 3.366 2.75 3.956 0 1.876 2.377 3.123 6.5 3.411 2.2.154 4.528.672 5.174 1.153 2.208 1.642 8.251-.428 12.711-4.354 4.235-3.728 7.861-4.921 9.059-2.982 1.052 1.702-.58 3.904-3.766 5.081-5.368 1.983-6.19 2.671-5.861 4.905.181 1.226-.79 3.471-2.25 5.206-3.542 4.21-3.432 4.356 4.148 5.499 6.131.924 7.08.818 10.917-1.222 2.312-1.229 5.06-2.011 6.108-1.737 1.37.359 2.588-.512 4.333-3.099 1.938-2.871 2.894-3.483 4.742-3.035 3.453.839 8.519-4.721 10.751-11.799 2.113-6.703 4.46-9.564 8.511-10.374 1.996-.4 2.923-1.186 2.923-2.479 0-1.564-.476-1.775-2.732-1.208-10.731 2.693-17.065-5.321-8.021-10.148 2.061-1.1 3.749-2.507 3.75-3.128.002-.62.678-1.687 1.503-2.372 2.134-1.771 1.855-5.297-.537-6.791-1.12-.699-2.464-2.396-2.986-3.771-.933-2.451-1.135-2.494-10.714-2.283-11.737.259-12.855.728-15.293 6.415-2.38 5.552-3.379 5.555-5.83.014-1.074-2.428-3.008-5.09-4.296-5.915-2.88-1.842-19.844-3.42-19.844-1.846m212.5.258c-1.65.5-3.604.685-4.341.411-2.966-1.103-8.13 2.661-10.38 7.565-2.479 5.403-3.863 5.247-5.811-.654-1.289-3.906-5.398-6.536-8.468-5.421-1.1.4-3.347.343-4.993-.127-6.338-1.81-10.326-1.106-11.992 2.115-.844 1.634-2.431 3.45-3.525 4.036-2.355 1.26-2.599 4.244-.49 5.994.825.685 1.5 1.828 1.5 2.54s1.688 2.12 3.75 3.128c8.476 4.141 4.197 12.246-5.768 10.924-4.56-.605-4.982-.489-4.982 1.374 0 1.472.653 2.034 2.365 2.034 4.021 0 7.33 3.574 9.586 10.351 2.413 7.253 6.769 12.217 9.983 11.376 1.524-.398 2.824.442 5.066 3.273 2.184 2.758 3.56 3.666 4.987 3.293 1.084-.283 3.596.443 5.581 1.615 3.091 1.823 4.536 2.035 10.049 1.47 7.22-.74 8.376-1.623 5.823-4.444-.966-1.067-2.022-3.567-2.348-5.554-.522-3.185-1.126-3.811-5.092-5.27-3.651-1.343-4.56-2.17-4.816-4.383-.453-3.899 3.512-3.705 7.379.362 4.844 5.095 7.827 6.178 14.802 5.372 8.138-.94 10.635-1.976 10.635-4.413 0-1.101 1.125-2.739 2.5-3.64 3.083-2.02 3.13-3.053.25-5.497-2.212-1.878-2.218-1.935-.309-3.41 3.559-2.752 5.923-2.089 15.164 4.249 2.606 1.788 5.738 3.25 6.959 3.25 4.021 0 4.753 6.415 1.122 9.826-1.378 1.294-3.606 2.174-5.504 2.174-2.984 0-3.173-.21-2.936-3.249.217-2.772-.105-3.301-2.19-3.595-4.649-.658-6.192 5.63-1.941 7.906 7.636 4.086 17.738-1.875 16.387-9.669-.504-2.905-.26-3.214 3.763-4.75 5.487-2.096 5.398-2.104 8.917.857 2.355 1.981 4.076 2.5 8.293 2.5 11.506 0 20.38-9.169 21.974-22.705.208-1.763.628-3.61.933-4.104 1.107-1.791-12.537-6.329-17.686-5.883-12.106 1.049-20.106 8.803-20.006 19.391.099 10.517-6.458 11.505-19.158 2.887-3.123-2.119-4.618-2.387-13.139-2.359-9.266.032-11.318-.592-11.378-3.458-.031-1.48 5.152-1.964 9.448-.883 6.609 1.664 8.47 1.42 9.484-1.245.566-1.49 1.992-2.579 3.871-2.955 2.17-.434 3.474-1.619 4.828-4.39 1.512-3.097 2.769-4.099 6.82-5.443 2.731-.905 5.121-2.114 5.312-2.686.58-1.74-6.789-3.437-16.09-3.704-4.847-.14-9.085-.526-9.417-.859-1.236-1.236-4.019-.512-11.131 2.896-4.016 1.925-7.941 3.5-8.721 3.5-2.173 0-1.691-1.592 1.02-3.368 1.342-.879 2.428-2.393 2.414-3.365-.014-.972.291-2.779.677-4.017.791-2.529-2.945-3.013-9.03-1.169M368.875 446.5c-.069.275-.181 1.056-.25 1.736-.193 1.911-3.411 2.117-12.125.778-5.192-.798-9.205-.913-11.432-.326-5.45 1.436-4.668 2.849 1.369 2.473 3.122-.195 7.863.366 11.13 1.316 3.13.909 7.315 1.514 9.299 1.343 2.854-.246 3.682.074 3.963 1.53.47 2.439-8.388 10.963-14.261 13.723-3.741 1.759-7.852 4.927-6.392 4.927 1.397 0 17.734-8.589 19.706-10.36l2.383-2.14-.638 6.5c-.351 3.575-.924 9.176-1.273 12.447-.627 5.877 3.784 23.482 5.896 23.534 1.121.028.947-1.394-1.323-10.784-1.821-7.533-1.929-9.315-.887-14.637.652-3.333 1.409-7.522 1.682-9.31.587-3.843.292-3.764 4.599-1.223 1.889 1.114 6.302 2.639 9.807 3.388 3.504.75 7.722 1.674 9.372 2.055 5.092 1.174.744-1.19-6.5-3.535-10.38-3.36-16.178-7.72-17.534-13.185-.585-2.354-.376-2.75 1.451-2.75 1.173 0 4.694-.9 7.823-2 3.13-1.1 7.592-2 9.916-2 5.913 0 6.319-1.68.595-2.458-3.219-.438-6.162-.146-9.127.906-6.298 2.234-11.789 2.046-13.124-.448-.95-1.776-3.797-2.811-4.125-1.5m-65.688 4.909c-2.373 2.351-4.87 5.892-5.549 7.868l-1.236 3.594-5.475-2.477c-4.392-1.987-5.942-3.358-7.84-6.935-2.251-4.243-5.099-6.398-3.581-2.709 2.536 6.159 3.929 5.822-15.006 3.626-3.788-.439-4.73-.297-3.887.585.612.641 4.437 1.599 8.5 2.129s9.37 1.691 11.795 2.58l4.407 1.616-3.012 1.607C278.732 464.798 267.167 475 268.578 475c1.12 0 4.998-2.579 7.909-5.26 5.181-4.772 11.908-6.437 17.159-4.245 6.917 2.886 8.676 4.412 7.171 6.221-1.823 2.19-5.76 13.284-4.714 13.284 1.186 0 3.632-3.972 4.419-7.176.901-3.665 3.322-5.606 7.478-5.996 5.099-.478 4.598-3.048-.803-4.116-7.476-1.478-8.119-7.025-1.704-14.704 5.963-7.137 4.385-8.23-2.306-1.599M439 447.965c0 .531 1.284 2.444 2.853 4.25 6.425 7.397 7.031 12.663 1.746 15.171-1.871.888-4.094 1.614-4.941 1.614-2.158 0-3.191 2.053-1.544 3.07.753.466 2.391.59 3.641.277 3.014-.757 4.894.966 7.393 6.776 2.059 4.786 6.177 9.779 4.435 5.377-.435-1.1-1.138-3.151-1.562-4.558-.425-1.408-1.503-3.973-2.396-5.701-2.112-4.083-2.289-3.662 2.803-6.646 7.417-4.346 13.464-3.233 22.002 4.052 2.161 1.844 4.529 3.353 5.261 3.353 1.771 0-8.717-9.443-12.9-11.614l-3.291-1.708 5.5-1.712c3.025-.941 8.579-2.185 12.343-2.765 6.47-.996 8.525-1.699 7.574-2.592-.229-.215-4.917.193-10.417.907-11.44 1.485-11.185 1.553-9.5-2.516 2.001-4.832.51-4.546-2.426.465-2.051 3.499-4.049 5.251-8.622 7.559L451 464.029v-2.38c0-2.509-1.515-4.764-7.318-10.899-3.643-3.851-4.682-4.469-4.682-2.785m-248.34 2.285c-1.684 1.24-1.703 1.469-.226 2.695 1.968 1.634 2.838.94 2.397-1.912-.293-1.891-.544-1.982-2.171-.783m5.52 1c.231 1.621.879 2.157 2.32 1.916 3.02-.503 4.251-2.08 2.492-3.192-2.815-1.78-5.157-1.158-4.812 1.276m352.57-1.554c-2.407.62-2.202 3.026.325 3.828 2.403.763 2.616.63 3.08-1.92.373-2.049-.646-2.62-3.405-1.908M555 452c0 1.506.522 2.046 1.75 1.81.962-.186 1.75-1 1.75-1.81s-.788-1.624-1.75-1.81c-1.228-.236-1.75.304-1.75 1.81m-351-.057c0 1.359 4.159 4.077 5.228 3.416 1.152-.712-2.098-4.359-3.883-4.359-.74 0-1.345.424-1.345.943m336.75.449c-1.648 1.251-2.422 3.608-1.184 3.608 1.605 0 4.434-2.255 4.434-3.535 0-1.795-.953-1.817-3.25-.073M184.5 453c-.816 1.32.38 3.192 1.569 2.457 1.215-.75 1.207-3.457-.01-3.457-.518 0-1.219.45-1.559 1m376.5 1.5c0 .825.675 1.5 1.5 1.5s1.5-.675 1.5-1.5-.675-1.5-1.5-1.5-1.5.675-1.5 1.5m-370.293 2.127c-.345.345.045 1.927.867 3.517 1.925 3.722 5.464 2.506 4.678-1.609-.465-2.43-3.856-3.597-5.545-1.908m8.161 1.489c.737 1.948 1.57 2.363 4.551 2.267 6.747-.217 5.808-3.14-1.315-4.096-4.026-.54-4.114-.49-3.236 1.829m12.301-.116c-.929 2.386 1.47 5.9 4.081 5.978 1.461.043.723-3.79-1.178-6.117l-1.929-2.361-.974 2.5m322.547.904c-2.783 4.71-2.354 6.541 1.034 4.422 1.513-.947 2.884-1.804 3.049-1.905.565-.35-1.017-5.421-1.692-5.421-.372 0-1.448 1.307-2.391 2.904m9.034-1.332c-3.747 2.033-3.453 3.118 1 3.697 2.658.345 4.114.03 5-1.082 3.16-3.967-.538-5.578-6-2.615m9.25 1.959c0 3.234 2.646 4.315 4.516 1.844C558.769 458.4 558.284 457 555 457c-2.543 0-3 .385-3 2.531m-367.559-.435c-.993 1.606 2.272 4.591 3.585 3.278.572-.572.752-1.79.4-2.707-.726-1.891-2.97-2.213-3.985-.571m375.183 1.442c-.644 1.678 1.631 3.04 3.328 1.992.576-.357 1.048-1.296 1.048-2.089 0-1.929-3.629-1.849-4.376.097m-356.917 3.089c-.955.954 2.06 6.178 4.238 7.343 2.94 1.574 7.752 1.262 8.447-.548 1.496-3.9-9.624-9.857-12.685-6.795m336.314.488c-5.955 2.378-8.073 7.332-3.614 8.451 2.734.686 6.186-.874 8.768-3.963 1.912-2.287 2.369-4.603.907-4.603-.505 0-1.518-.197-2.25-.437-.733-.241-2.448.008-3.811.552m-350.895 1.233c-.853 1.027-.659 1.765.815 3.098 2.632 2.383 4.317 1.215 2.861-1.982-1.276-2.8-2.077-3.043-3.676-1.116m7.387-.369c-.916 1.482 1.216 4.8 3.561 5.545 2.755.874 2.882.55 1.281-3.274-1.326-3.167-3.623-4.244-4.842-2.271m352.597 2.593c-1.727 4.776-.97 5.169 3.044 1.582 3.535-3.159 3.56-3.534.298-4.533-1.675-.513-2.283.024-3.342 2.951m7.946-.677c-1.588 2.968 1.106 4.688 3.39 2.164.963-1.063 1.454-2.411 1.093-2.996-1.036-1.676-3.372-1.243-4.483.832m-362.625 5.217c-.797 1.289 1.279 2.85 3.819 2.873 2.332.02 2.227-1.66-.184-2.95-2.432-1.301-2.788-1.294-3.635.077m357.819.163c-2.387 1.093-3.107 3.749-1 3.69.688-.02 2.293-.615 3.568-1.322 3.169-1.759.824-3.921-2.568-2.368m-349.047 1.922c-1.613 1.613-1.527 3.803.148 3.803 2.988 0 7.906-2.277 6.523-3.02-3.037-1.631-5.53-1.924-6.671-.783m339.547.137c-3.687 1.411-3.464 2.441.696 3.222 4.942.927 6.084.283 3.893-2.195-1.552-1.755-2.268-1.915-4.589-1.027m-225.796 14.918c-1.895 1.277-4.594 4.495-5.998 7.151-3.833 7.25-5.093 7.886-14.306 7.215-7.665-.557-7.92-.502-10.75 2.329-4.481 4.48-3.326 7.723 3.81 10.705 4.081 1.705 4.084 2.206.04 6.025-5.161 4.874-13.218 5.197-13.278.532-.038-2.881-1.874-2.925-2.317-.055-1.189 7.697 15.237 5.79 19.395-2.251.973-1.881 2.284-2.904 3.726-2.907 3.814-.006 8.9-3.741 8.54-6.272-.555-3.907-5.05-3.477-8.594.823-3.497 4.243-8.021 4.215-10.827-.067-3.456-5.274 1.121-8.033 11.582-6.982 8.323.836 9.72.18 15.081-7.076 2.242-3.035 5.629-6.259 7.528-7.164 3.453-1.647 4.042-3.507 1.281-4.043-.807-.157-3.018.76-4.913 2.037M425 489.051c0 .578 1.53 1.69 3.401 2.472 1.87.781 4.458 2.8 5.75 4.486a289.533 289.533 0 0 0 5.258 6.591l2.909 3.527 8.091-.233c11.721-.337 15.471 1.724 12.668 6.963-2.387 4.46-6.846 4.471-11.072.027-4.047-4.253-6.48-4.709-8.398-1.573-1.427 2.334 3.185 6.659 7.199 6.75 1.977.045 3.501 1.175 5.728 4.25 4.8 6.625 13.431 8.581 17.946 4.066 1.965-1.965 1.61-4.736-.663-5.174-1.26-.242-1.524.202-1.095 1.841 1.551 5.933-9.228 5.244-14.436-.922-2.81-3.327-2.805-3.775.052-4.492 6.819-1.711 9.16-6.456 5.488-11.124-2.125-2.702-2.346-2.751-9.75-2.149-9.503.773-11.687-.247-15.432-7.207-1.57-2.92-4.27-6.171-6-7.225-3.409-2.079-7.644-2.563-7.644-.874m-82.578 5.428c-1.546 2.359-1.969 2.451-8.773 1.904-6.836-.549-7.359-.433-11.955 2.653-2.795 1.876-4.599 3.77-4.31 4.523.273.712-.181 1.857-1.009 2.545-2.102 1.744-4.191 6.143-3.645 7.675.251.703-.09 3.552-.756 6.33-.894 3.727-.919 5.346-.093 6.172.615.615 1.119 2.318 1.119 3.784 0 1.466.846 3.74 1.879 5.055 1.034 1.314 2.073 3.287 2.31 4.384.244 1.134 1.052 1.832 1.87 1.617.793-.208 3.466-.524 5.941-.702 2.475-.179 5.625-.533 7-.788 1.375-.256 2.733-.502 3.018-.548.285-.045 2.754-1.93 5.486-4.188 11.824-9.77 14.501-24.6 5.883-32.587-1.775-1.645-2.404-3.022-1.991-4.357l1.221-3.951c.871-2.828-1.235-2.512-3.195.479m60.084.271c1.786 4.336 1.586 5.325-1.898 9.395-3.423 3.999-3.608 4.586-3.608 11.452 0 3.98.337 7.386.75 7.57.413.183 1.866 2.471 3.229 5.083 1.364 2.612 2.867 4.75 3.341 4.75.474 0 2.647 1.528 4.828 3.395 3.963 3.392 7.59 4.447 17.523 5.098 3.72.244 4.239.002 4.799-2.231.346-1.377 1.282-3.156 2.079-3.954 1.291-1.291 1.97-4.238 1.534-6.663-.084-.471.36-1.474.987-2.229.854-1.029.841-2.62-.054-6.347-.656-2.736-.912-5.429-.568-5.984.343-.556-.517-2.818-1.912-5.028-1.395-2.209-2.546-4.589-2.557-5.287-.073-4.314-11.931-8.711-18.538-6.874-3.664 1.019-4.07.921-5.774-1.4-2.145-2.92-5.287-3.483-4.161-.746m-77.256 5.239c-4.433 2.703-3.797 5.011 1.38 5.011 1.437 0 6.276-4.772 6.338-6.25.062-1.453-4.506-.72-7.718 1.239m90.419-1.263c-.274.444.754 2.341 2.284 4.217 2.665 3.265 2.915 3.354 5.902 2.117 3.464-1.435 3.317-2.414-.668-4.44-4.055-2.062-6.961-2.794-7.518-1.894m-81.652 3.907c-4.099 4.669-4.237 14.099-.184 12.641 5.974-2.148 10.979-10.386 8.284-13.634-2.402-2.893-4.963-2.579-8.1.993M407.2 501.2c-2.559 2.559-.777 9.756 3.005 12.144 5.697 3.595 6.795 3.244 6.795-2.171 0-7.318-6.173-13.6-9.8-9.973m-88.643 7.023c-1.718 2.452-2.045 4.777-.672 4.777 1.038 0 4.115-4.46 4.115-5.965 0-1.766-1.812-1.141-3.443 1.188m26.443-.414c0 .995-.643 2.682-1.428 3.75-1.27 1.725-1.195 2.191.674 4.191 4.26 4.559 6.277.918 3.656-6.601-1.198-3.436-2.902-4.223-2.902-1.34m55.619 1.409c-3.253 7.47-1.638 11.423 3.026 7.411 2.352-2.023 2.588-2.643 1.503-3.951-.708-.852-1.652-2.816-2.099-4.364l-.812-2.814-1.618 3.718M426 507.535c0 1.441 3.398 5.465 4.615 5.465 1.777 0 1.743-.524-.23-3.535-1.405-2.144-4.385-3.455-4.385-1.93m-102.443 2.688c-1.522 2.172-2.135 7.866-.972 9.029.322.321 1.941.112 3.599-.466 2.673-.932 2.946-1.388 2.415-4.043-.33-1.646-.599-3.837-.599-4.868 0-2.562-2.545-2.362-4.443.348m96.983-.956c-2.283 7.326-1.047 10.733 3.894 10.733 1.813 0 2.207-5.935.594-8.948-1.235-2.308-3.984-3.401-4.488-1.785m-122.366 3.047c-2.668 2.841-2.734 3.686-.285 3.686 2.589 0 6.601-3.399 5.711-4.838-1.11-1.796-3.041-1.386-5.426 1.152m146.81-.794c-.933 1.123-.502 1.803 2.177 3.437 5.09 3.103 5.984 2.72 3.279-1.408-2.004-3.059-3.989-3.797-5.456-2.029m-129.377 5.062c-1.297 3.379-.665 6.418 1.334 6.418 2.59 0 3.174-1.177 2.43-4.897-.661-3.302-2.756-4.148-3.764-1.521m19.643.909c-3.225 1.402-3.992 3.412-2.643 6.927.781 2.036 2.363 1.959 4.996-.243 6.44-5.383 4.876-9.826-2.353-6.684m93.38.759c-1.086 4.055-.723 4.75 2.487 4.75 2.744 0 3.044-.269 2.513-2.25-.331-1.237-.609-2.812-.616-3.5-.025-2.22-3.748-1.371-4.384 1m-21.63.827c0 2.469 5.474 8.262 7.255 7.677 2.682-.881 2.093-7.671-.76-8.756-4.267-1.622-6.495-1.252-6.495 1.079m-64.023 3.979c-1.862 4.496.291 6.259 2.479 2.03 1.548-2.994 1.386-5.086-.394-5.086-.451 0-1.389 1.375-2.085 3.056M325 521.966c-2.131.566-2.483 1.213-2.383 4.383.148 4.714.374 4.899 4.319 3.523 5.158-1.798 3.321-9.301-1.936-7.906m76.707-.339c-.785.784 2.032 6.373 3.212 6.373 1.663 0 1.919-2.786.449-4.885-1.519-2.169-2.559-2.591-3.661-1.488m17.328 2.307c-2.158 4.032.217 7.066 5.53 7.066 2.098 0 1.965-7.582-.147-8.393-2.747-1.054-4.315-.667-5.383 1.327M315 528.371c0 2.91 1.138 3.897 3.463 3.005 2.433-.934 1.529-4.806-1.213-5.196-1.821-.258-2.25.16-2.25 2.191m113.701-1.739c-1.882 1.882-.67 5.368 1.865 5.368 2.208 0 2.523-.383 2.25-2.741-.302-2.621-2.633-4.109-4.115-2.627m-93.899 2.513c-2.422.886-2.585 1.237-1.59 3.421 1.374 3.017 1.986 3.028 5.392.098 4.235-3.643 2.054-5.661-3.802-3.519m73.231.315c-.831 1.002-.329 1.954 2.11 4.007l3.201 2.693 1.24-2.317c1.515-2.83 1.226-3.365-2.521-4.671-2.22-.774-3.207-.703-4.03.288m-81.201 3.614c-2.074 1.161-1.26 5.304.881 4.483.798-.307 1.864-.557 2.369-.557 1.351 0 1.117-2.59-.343-3.801-.797-.662-1.865-.708-2.907-.125m90.741 1.596c-.652 1.699.885 3.287 3.208 3.315 1.893.022 2.733-3.046 1.115-4.071-2.129-1.348-3.615-1.088-4.323.756M319 536c0 1.1.6 2 1.333 2 1.881 0 2.619-.962 1.991-2.598-.816-2.127-3.324-1.676-3.324.598m107 .5c0 .833.889 1.5 2 1.5s2-.667 2-1.5-.889-1.5-2-1.5-2 .667-2 1.5" fill-rule="evenodd"/>
<path fill="#1b191d" stroke="#1b191d" d="M161.5 248.685c-9.35 1.905-26.841 5.342-38.87 7.639l-21.87 4.176-5.358 17.991c-2.947 9.895-5.464 18.67-5.593 19.5-.129.83 1.806 4.262 4.299 7.626 10.991 14.828 10.546 33.677-1.122 47.515l-3.906 4.632 5.589 18.868c3.073 10.377 5.896 19.211 6.272 19.63.478.533 78.351 16.664 80.774 16.732.118.003.343-4.607.5-10.244l.285-10.25h383l.286 10.349c.28 10.113.337 10.338 2.5 9.823 1.218-.29 19.568-3.984 40.778-8.21l38.564-7.683 5.762-19.378 5.762-19.379-3.456-4.261c-12.329-15.204-12.533-35.576-.495-49.252l4.134-4.697-5.917-19.638-5.918-19.639-14-2.738C607.404 252.694 567.172 245 566.585 245c-.322 0-.585 4.5-.585 10v10H182v-10c0-8.899-.193-9.988-1.75-9.889-.963.061-9.4 1.67-18.75 3.574m-17.805 8.798c-16.943 3.462-31.081 6.569-31.417 6.906-.336.336 13.864.611 31.555.611H176v-7c0-3.85-.338-6.958-.75-6.906-.412.052-14.612 2.927-31.555 6.389m428.305.409V265l32.25-.068c19.82-.041 31.479-.412 30.25-.961-1.1-.491-14.6-3.406-30-6.477s-29.013-5.837-30.25-6.147c-2.175-.545-2.25-.327-2.25 6.545m-470.036 16.356c-.612 2.339-2.445 8.872-4.073 14.518l-2.959 10.265 3.499 4.582c9.192 12.038 10.925 29.012 4.33 42.388-2.034 4.125-4.623 8.633-5.753 10.019l-2.054 2.519 4.08 13.955c2.244 7.674 4.214 14.087 4.377 14.25.685.685 541.043.193 541.642-.492.36-.414 2.367-6.902 4.46-14.419l3.804-13.667-2.816-3.333c-11.286-13.358-11.689-36.272-.897-50.975l3.617-4.927-3.989-14.216-3.99-14.215-271.082-.252-271.082-.252-1.114 4.252m503.277 8.077c-11.581 6.432-3.355 23.838 9.294 19.663 4.393-1.449 6.418-4.427 6.627-9.743.341-8.723-8.338-14.131-15.921-9.92m.415 1.808c-1.014.589-2.482 2.6-3.263 4.469-3.961 9.479 8.419 17.163 15.018 9.321 6.725-7.992-2.702-19.053-11.755-13.79m1.011 1.534c-1.452 1.451-.725 11.333.833 11.333.946 0 1.5-.954 1.5-2.583 0-3.067 2.026-2.836 3.487.398 1.466 3.245 3.733 2.895 2.487-.384-.538-1.414-.712-3.627-.388-4.918.814-3.244-5.469-6.296-7.919-3.846M609 289c0 2.171.738 2.452 2.878 1.096 1.614-1.021.651-3.096-1.437-3.096-.793 0-1.441.9-1.441 2m-469.5 4.907c-16.624 7.685-22.946 37.825-11.89 56.69 11.341 19.353 38.006 17.687 45.854-2.864 1.933-5.06 1.346-7.026-2.386-8.002-2.376-.622-3.156-.012-5.467 4.269-11.64 21.563-26.114 9.324-24.244-20.5 1.515-24.16 14.732-32.018 23.325-13.868 2.581 5.45 4.758 6.636 8.192 4.461 1.393-.882.661-7.655-1.959-18.123l-.883-3.529-13.271-.192c-11.077-.16-13.932.114-17.271 1.658m262.167-1.24c-1.757 1.756-.615 6.129 1.756 6.724l2.423.608.331 25.251c.376 28.752.392 28.583-2.877 29.826-1.992.757-2.371 1.505-2.113 4.173l.313 3.251 11.467.1c13.08.113 14.682-.143 15.278-2.442.665-2.566-.233-4.203-2.85-5.198-2.326-.884-2.395-1.228-2.395-11.876 0-6.031.353-11.184.783-11.45.431-.266 5.044 6.569 10.25 15.191L443.5 362.5h20l.313-3.251c.259-2.681-.118-3.415-2.156-4.189-2.639-1.004-23.657-33.515-23.657-36.595 0-2.213 11.718-16.398 15.177-18.372 3.209-1.831 4.121-3.58 3.267-6.269-1.046-3.297-19.809-2.278-20.287 1.102-.23 1.63.41 2.993 1.95 4.155l2.293 1.729-7.797 9.595c-4.288 5.277-8.203 9.595-8.7 9.595-.497 0-.903-4.491-.903-9.981 0-9.812.042-9.991 2.5-10.608 2.052-.515 2.5-1.236 2.5-4.019V292h-12.833c-7.059 0-13.134.3-13.5.667M230 296.056c0 2.29.537 3.272 2 3.654 1.938.507 2 1.364 2 27.687v27.165l-3.214 1.213c-2.718 1.026-3.348.973-4.084-.342-.611-1.093-1.697-1.373-3.654-.944l-2.784.612-.502-13.301c-.524-13.858-1.423-17.694-5.079-21.682-9.308-10.155-34.683-6.745-34.683 4.661 0 3.677 1.794 5.249 6.744 5.913 3.706.498 3.882.38 5.789-3.839 2.52-5.576 7.232-6.668 10.071-2.334 3.197 4.878 1.125 7.569-7.718 10.026-13.018 3.616-18.103 8.377-18.242 17.079-.173 10.903 14.425 16.203 24.386 8.854l3.195-2.357 3.929 2.6c2.541 1.681 5.164 2.553 7.425 2.468 3.8-.142 10.421-2.876 10.421-4.303 0-1.924 1.88-.748 2.18 1.364.313 2.202.6 2.25 13.32 2.25h13l.319-2.778c.267-2.323-.18-2.952-2.736-3.843l-3.054-1.065-.265-30.657-.264-30.657-9.25-.288-9.25-.287v3.131m85.465-2.104c-8.004 3.244-5.247 16.048 3.456 16.048 8.441 0 11.455-11.686 4.007-15.537-3.149-1.629-4.481-1.72-7.463-.511M469 295.933c0 2.054.599 3.122 2 3.567 1.935.614 2 1.513 2 27.848v27.214l-3.072 1.159c-2.568.969-3.019 1.621-2.75 3.969l.322 2.81h26l.311-2.693c.248-2.146-.31-3.014-2.75-4.276L488 353.949V293h-19v2.933m78-2.227c-5.183 1.895-7.699 8.498-4.718 12.381 3.449 4.492 11.248 4.85 14.189.651 4.696-6.705-1.911-15.795-9.471-13.032m-36.77 21.219c-17.885 4.541-23.173 31.89-8.509 44.003 4.879 4.03 10.159 5.409 18.454 4.822 10.394-.735 21.209-8.173 17.821-12.255-1.817-2.19-3.412-1.865-8.516 1.732-6.366 4.488-11.563 4.482-15.582-.016-3.027-3.387-3.855-7.211-1.563-7.211 2.963 0 24.284-7.282 25.9-8.847 3.716-3.595-3.001-16.409-10.506-20.042-5.101-2.47-12.662-3.414-17.499-2.186m-222.48.748c-3.388.567-3.873 4.656-.75 6.327 1.1.589 2 1.776 2 2.64 0 2.826-6.461 20.361-7.493 20.336-.554-.013-2.779-4.578-4.944-10.145l-3.938-10.12 2.688-2.143c1.478-1.179 2.687-3.139 2.687-4.356 0-2.174-.235-2.212-13.5-2.212H251v2.831c0 1.965.734 3.224 2.4 4.115 1.735.929 4.689 6.303 10.675 19.419 9.982 21.873 9.089 20.635 14.892 20.635h4.722l7.289-18.75c7.27-18.701 9.132-22.25 11.677-22.25.828 0 1.345-1.154 1.345-3 0-2.716-.308-3.001-3.25-3.011-1.788-.006-4.825-.183-6.75-.393-1.925-.21-4.738-.175-6.25.077m21.962.15c-2.56.484-2.31 5.853.312 6.685 3.327 1.056 2.588 32.834-.774 33.312-1.838.261-2.25.952-2.25 3.779v3.459l13.25-.279 13.25-.279.313-3.25c.257-2.658-.04-3.25-1.627-3.25-3.7 0-4.133-2.109-4.413-21.482l-.273-18.832-8.038-.093c-4.42-.051-8.808.052-9.75.23m55.23.125c-1.408.427-3.498 1.279-4.645 1.893-1.635.875-2.353.797-3.314-.362-.924-1.113-3.549-1.479-10.605-1.479H337v3.094c0 2.265.542 3.235 2.024 3.623 3.33.87 2.588 32.625-.774 33.103-1.834.26-2.25.953-2.25 3.75V363h26v-3.43c0-2.797-.416-3.49-2.25-3.75-2.18-.31-2.259-.712-2.529-12.899-.315-14.24 1.051-17.921 6.652-17.921 4.755 0 5.127 1.248 5.127 17.184v14.784l2.886 3.231c5.327 5.961 19.614 3.553 19.614-3.307 0-2.07-.426-2.359-3.164-2.15l-3.164.242-.336-16.242c-.283-13.678-.623-16.664-2.152-18.917-2.906-4.281-10.758-5.996-17.742-3.877m182.308-.192-9.25.319v2.854c0 2.218.563 2.995 2.525 3.488l2.524.633-.274 16.225c-.267 15.755-.337 16.234-2.431 16.532-2.174.31-3.991 4.337-2.816 6.239.325.526 6.398.954 13.531.954H564v-3.392c0-2.776-.45-3.504-2.479-4.013l-2.479-.623-.271-19.653c-.168-12.157-.652-19.697-1.271-19.768-.55-.063-5.163.03-10.25.205m51.692.192c-1.408.427-3.552 1.308-4.765 1.957-1.809.969-2.313.903-2.799-.362-.682-1.778-18.783-2.315-19.85-.589-.973 1.575.583 6.046 2.105 6.046 1.175 0 1.37 2.769 1.142 16.25-.271 15.995-.31 16.255-2.525 16.57-1.834.26-2.25.953-2.25 3.75V363h26v-3.43c0-2.797-.416-3.49-2.25-3.75-2.203-.313-2.25-.594-2.25-13.468 0-14.56 1.039-17.352 6.455-17.352 4.677 0 5.045 1.277 5.045 17.513v15.113l3.028 2.901c5.78 5.537 19.472 2.981 19.472-3.635 0-2.084-.418-2.359-3.25-2.138l-3.25.254v-15.103c0-16.771-.881-20.222-5.92-23.199-2.995-1.769-9.634-2.125-14.138-.758m-84.64 6.064c-4.541 1.829-7.619 15.162-3.835 16.614 2.997 1.15 13.004-3.084 13.38-5.66.793-5.442-3.79-13.059-7.162-11.903-.102.035-1.174.462-2.383.949m-317.786 19.264c-6.658 3.793-7.233 11.753-.963 13.327 4.914 1.233 7.947-2.277 7.947-9.197 0-6.936-1.011-7.534-6.984-4.13m-85.003 51.549c.811.738 61.183 13.218 63.783 13.185.437-.005.662-3.048.5-6.76l-.296-6.75-32.487-.287c-19.245-.169-32.084.08-31.5.612m461.102-.106c-.886.885-.76 13.276.135 13.304 2.388.075 62.919-12.449 63.725-13.184.571-.521-12.33-.857-31.135-.812-17.661.042-32.387.353-32.725.692" fill-rule="evenodd"/>
</svg>