<!DOCTYPE svg PUBLIC "-//W3C//DTD SVG 1.1//EN" "http://www.w3.org/Graphics/SVG/1.1/DTD/svg11.dtd">
<svg xmlns="http://www.w3.org/2000/svg" viewBox="0 0 746 681">
<path fill="#fbfbfb" stroke="#fbfbfb" d="M444.771 72.537c-.401.415-6.251 1.104-13 1.531-8.964.567-14.158 1.443-19.271 3.249-3.85 1.359-24.325 6.629-45.5 11.711-59.06 14.173-75.262 19.121-83.714 25.567-1.814 1.384-3.815 2.196-4.446 1.806-.705-.436-.876-.269-.443.432.388.627-.26 2.159-1.441 3.404-4.571 4.821-23.098 35.591-29.361 48.763-2.503 5.265-2.972 5.663-10.972 9.321-38.496 17.602-108.772 66.232-122.957 85.084-16.357 21.739-15.433 48.131 2.292 65.475l5.841 5.715-2.503 8.953c-1.377 4.923-3.77 12.777-5.317 17.452-4.711 14.237-5.466 19.371-5.367 36.5.17 29.368 9.495 52.832 28.051 70.584 21.734 20.791 53.066 24.066 77.436 8.095 7.681-5.033 19.673-16.904 22.395-22.168l1.566-3.027 3.046 2.252c2.551 1.887 2.951 2.731 2.458 5.195-10.595 52.975 14.926 99.31 51.024 92.637 6.989-1.292 6.552-1.782 4.851 5.44-4.616 19.596 8.95 34.515 31.349 34.477 15.594-.026 25.992-3.343 57.212-18.25 78.677-37.566 164.344-72.389 190.1-77.275 16.373-3.106 25.553-8.372 29.546-16.948 5.435-11.67.883-24.393-10.848-30.32-10.19-5.148-17.014-5.807-36.544-3.529l-5.246.611 1.162-3.387c1.799-5.247 3.648-7.573 7.129-8.967 14.917-5.977 24.716-18.448 24.685-31.42-.039-16.874-6.959-28.747-20.984-36.004-2.941-1.522-3.98-2.499-3-2.821 18.217-5.981 24.721-9.685 29.576-16.845l3.077-4.536 5.692 2.879c16.473 8.329 35.823 8.146 48.655-.462 2.475-1.66 5.043-3.024 5.706-3.031.663-.008.998-.35.743-.762-.254-.412.675-2.1 2.064-3.751 9.018-10.717 9.28-29.344.566-40.21-2.729-3.403-2.803-3.779-1.877-9.5 2.471-15.27-3.029-32.064-14.007-42.771l-3.911-3.814 2.557-6.186c6.881-16.65.39-39.135-15.49-53.648-5.339-4.88-19.177-12.31-36.53-19.613a536.387 536.387 0 0 1-12.104-5.317c-11.505-5.253-40.902-16.166-56.551-20.993l-15.527-4.789-4.335-13.135c-9.764-29.59-24.012-42.873-47.15-43.957-5.31-.248-9.982-.112-10.383.303m43.592 190.953c-1.66.698-4.618 2.673-6.573 4.389-1.955 1.717-4.17 3.126-4.922 3.132-.752.006-5.643 1.351-10.868 2.989-5.225 1.638-9.651 2.983-9.836 2.989-.185.006-.185-1.848 0-4.121.285-3.502-.065-4.432-2.294-6.106-5.521-4.143-10.573-.58-14.516 10.238-2.071 5.68-4.04 7.413-11.52 10.141-9.084 3.312-11.44 8.848-5.61 13.184 2.337 1.739 3.224 1.873 6.25.944 4.122-1.265 4.117-1.285 1.897 7.087-4.259 16.061-1.646 45.644 4.032 45.644 4.773 0 10.292-6.366 11.034-12.727 2.095-17.979 7.808-47.853 9.384-49.069 7.973-6.152 21.179-13.753 21.179-12.19 0 3.675 8.65 3.993 12.834.472 2.923-2.459 6.166-9.783 6.166-13.924 0-3.213-3-4.602-6.637-3.072m126.599.433c-7.255 1.421-13.41 5.402-22.059 14.266-9.661 9.902-9.903 10.04-9.903 5.649 0-7.063-7.16-14.529-13.109-13.67-2.193.317-2.306.751-2.435 9.332-.075 4.95-1.068 13.5-2.206 19-1.139 5.5-2.368 12.586-2.732 15.747-.633 5.505-.753 5.7-2.84 4.628-7.913-4.066-9.216-9.671-6.608-28.426 1.65-11.859-1.706-17.24-7.775-12.467-2.407 1.894-3.501 2.051-10.245 1.473-24.016-2.06-48.992 26.408-42.782 48.765 1.585 5.708 7.215 8.838 18.52 10.296 6.769.873 13.539-2.218 20.616-9.412l4.904-4.985 4.173 3.419c8.087 6.627 17.656 7.694 25.123 2.802 1.26-.826 2.539-1.465 2.843-1.42.304.044.914.08 1.355.08.441 0 3.46-4.163 6.708-9.25 12.156-19.038 28.428-35.761 32.405-33.302.471.291.633 3.347.359 6.79-1.14 14.36 6.381 24.336 19.749 26.194 7.311 1.016 13.194-3.645 7.739-6.131-8.923-4.065-10.54-8.957-7.539-22.801 2.969-13.699 1.281-21.999-5.263-25.864-2.953-1.745-3.507-1.789-8.998-.713m-251.076 21.934c-12.369 7.845-13.73 18.143-2.398 18.143 6.274 0 14.608-14.915 10.757-19.25-2.097-2.36-3.102-2.226-8.359 1.107m111.687 6.393C470.632 299.796 463 321.321 463 327.709c0 9.404 10.472 20.644 17.572 18.862 2.229-.559 2.428-1.095 2.428-6.539 0-3.261.731-11.24 1.624-17.731 2.666-19.375 2.184-23.529-3.433-29.551-3.109-3.333-3.727-3.388-5.618-.5m48.927 3.895c-6.91 4.205-9.462 6.701-11.61 11.355-3.932 8.52-.836 16.263 6 15.007 9.665-1.777 16.337-11.409 17.321-25.007.284-3.928.226-4.004-3.211-4.199-2.394-.136-5.08.762-8.5 2.844m-279.145-.153c-2.659 1.073-6.298 5.844-9.82 12.876-2.362 4.716-2.851 7.452-4.027 22.5-.736 9.423-2.302 24.032-3.479 32.466-2.277 16.315-2.358 22.832-.279 22.416.687-.137 1.137.286 1 .941-.138.654.491 1.353 1.396 1.553 1.155.255 4.184-3.304 10.162-11.941C253.639 357.544 265.011 345 269.138 345c.462 0 .792 4.485.735 9.966-.159 15.182 4.891 21.5 18.879 23.618 7.63 1.155 11.961-3.55 6.33-6.876-8.313-4.911-9.139-8.726-5.122-23.65 7.775-28.879-12.931-35.057-34.742-10.366-3.06 3.463-5.685 6.174-5.834 6.025-.149-.149.6-6.109 1.665-13.244 4.03-26.998 2.264-37.692-5.694-34.481M394 302.872c-15.952 5.225-24 12.822-24 22.655 0 8.219 3.074 10.151 22.25 13.981 12.624 2.521 11.072 6.491-4.834 12.365-9.147 3.378-12.608 5.756-12.232 8.403.973 6.844 38.424-4.606 45.821-14.009 3.874-4.925 1.004-12.471-5.735-15.08-1.523-.59-5.92-2.277-9.77-3.749-8.691-3.325-10.361-4.695-8.481-6.961 2.681-3.23 8.775-5.413 17.035-6.102 12.335-1.029 15.447-5.03 7.831-10.07-5.408-3.579-19.175-4.287-27.885-1.433m-199.67 3.039c-21.478 5.448-42.413 35.382-53.564 76.589-2.613 9.658-3.14 32.298-.908 39 4.561 13.689 15.103 28.399 23.379 32.621 8.845 4.512 21.798 3.243 31.597-3.095 8.439-5.459 24.148-23.628 22.598-26.136-.43-.695-.319-.938.264-.578 1.408.87 3.534-6.124 3.135-10.315-.53-5.572-2.869-4.875-11.387 3.398-8.252 8.015-18.554 14.014-25.944 15.106-5.207.771-9.911-1.634-14.148-7.23-15.381-20.316 4.677-82.52 28.448-88.223 6.75-1.619 7.747-.787 8.645 7.219 1.157 10.323 6.196 13.692 11.019 7.369 10.585-13.878 9.687-35.875-1.774-43.46-4.319-2.858-14.688-3.958-21.36-2.265m137.17 5.325c-4.795 1.724-10.639 5.642-15.658 10.499l-4.657 4.508-3.343-2.496c-5.494-4.103-7.624-4.879-11.435-4.164-5.323.999-6.218 3.881-3.113 10.018 3.995 7.893 4.812 12.031 5.542 28.059.805 17.677 1.632 19.601 8 18.624 7.317-1.123 10.3-5.299 11.635-16.284 2.427-19.977 9.586-32.739 21.359-38.077 7.347-3.331 8.061-4.04 7.425-7.37-.796-4.162-8.747-5.836-15.755-3.317m21.914 2.255c-7.132 10.885-16.109 41.911-11.259 38.914.742-.459.881-.273.39.523-.966 1.563 5.615 11.285 8.79 12.984 1.275.682 3.859 1.094 5.742.914l3.423-.326.729-9.5c.4-5.225 1.43-14.272 2.288-20.104 1.89-12.855 1.123-17.609-3.634-22.517-3.917-4.041-4.363-4.102-6.469-.888M545 388.943c-6.4 1.303-16.165 7.12-22.765 13.56l-6.496 6.337-4.966-3.925c-5.808-4.591-8.222-5.374-12.863-4.171-6.314 1.636-6.916 4.769-2.674 13.911 4.285 9.232 7.309 24.093 6.424 31.564-.8 6.755 1.144 20.809 3.2 23.139 1.335 1.512 2.548 1.751 6.516 1.282 9.511-1.123 11.767-4.453 14.191-20.938 3.682-25.049 11.333-40.278 22.585-44.954 2.701-1.122 4.532-2.45 4.175-3.028-.35-.566-.156-.733.43-.37 2.074 1.281 7.23-2.657 7.237-5.529.014-5.906-6.068-8.696-14.994-6.878m-229.367 2.61c-21.978 4.367-54.693 23.654-54.618 32.2.054 6.153 7.636 4.989 21.67-3.328 1.752-1.038 3.467-1.606 3.811-1.263.344.344-.964 7.761-2.907 16.482-3.576 16.059-5.882 30.121-7.027 42.856-.906 10.07 2.299 30.322 4.575 28.915.462-.285.626.067.363.783-.672 1.837 3.483 8.731 6.701 11.117 3.851 2.855 8.466 1.413 10.98-3.432 3.476-6.697 8.505-69.208 7.527-93.542l-.57-14.16 6.263-1.09c17.597-3.065 24.185-.355 30.786 12.664 6.828 13.466 5.684 26.192-4.022 44.745-4.797 9.169-17.825 25.468-23.292 29.14-3.802 2.553-8.873 8.449-8.873 10.317 0 1.937 2.948 4.16 6.221 4.691 10.397 1.688 29.667-10.381 43.874-27.479 23.405-28.165 26.331-55.806 8.494-80.226-3.054-4.182-3.979-4.736-11.209-6.714-14.558-3.984-27.625-4.887-38.747-2.676m140.899 15.577c-17.148 4.016-38.122 23.805-40.864 38.556-.813 4.374 1.623 16.434 4.137 20.483 7.242 11.66 19.458 16.959 34.116 14.799 24.958-3.678 38.998-21.748 39.062-50.273.043-19.545-14.226-28.77-36.451-23.565m-58.41 15.223C393.806 427.554 383 459.928 383 467.659c0 9.347 11.066 22.348 19 22.322 5.346-.018 5.737-.683 5.861-9.981.062-4.675 1.003-15.664 2.092-24.419 2.223-17.881 1.806-22.383-2.681-28.891-3.749-5.437-6.97-6.964-9.15-4.337m57.626 1.691C451.026 427.171 443 435.454 443 437.2c0 .505-.52.597-1.155.205-.673-.417-.884-.277-.506.334.356.577-.024 2.657-.846 4.623-1.986 4.753-1.988 16-.003 17.985 6.654 6.654 18.079.244 24.677-13.847 8.195-17.502 2.739-30.51-9.419-22.456" fill-rule="evenodd"/>
<path fill="#eeeeef" stroke="#eeeeef" d="M446.735 72.598c-.328.329-6.366.959-13.416 1.4-8.922.559-14.491 1.433-18.319 2.877-3.025 1.14-15.85 4.581-28.5 7.646-88.294 21.394-96.608 24.007-107.062 33.643-5.73 5.282-20.524 29.065-30.739 49.417-3.394 6.763-3.837 7.206-9.876 9.879-31.385 13.891-97.721 58.192-118.343 79.033-23.198 23.442-24.434 53.625-3.005 73.377l4.691 4.324-2.652 9.653c-1.458 5.309-3.693 12.578-4.967 16.153-6.104 17.132-7.822 41.427-4.127 58.389 6.885 31.611 24.924 54.706 50.338 64.45 9.943 3.812 29.541 3.812 39.484 0 13.634-5.227 25.279-14.105 33.366-25.439l4.573-6.407 3.003 2.138c2.557 1.821 2.916 2.602 2.417 5.254-1.388 7.375-1.862 36.617-.693 42.793 4.282 22.623 14.741 39.621 28.511 46.336 6.667 3.251 19.968 4.578 26.848 2.678 2.053-.567 3.726-.955 3.718-.861-.008.093-.664 1.969-1.456 4.169-6.66 18.487 6.057 35.947 27.14 37.262 15.049.939 26.426-2.463 58.331-17.44 88.593-41.591 164.123-72.423 190.5-77.766 24.542-4.972 35.349-14.737 33.077-29.888-2.499-16.67-21.616-24.721-49.327-20.774-5.955.848-6.109.594-3.347-5.487 1.496-3.294 3.171-4.814 8.589-7.792 17.874-9.825 24.256-20.68 21.725-36.956-2.151-13.837-8.643-23.143-19.995-28.659-5.371-2.61-6.532-4-3.341-4 2.166 0 13.543-4.156 19.002-6.94 3.56-1.816 10.753-8.801 12.764-12.393.883-1.579 1.455-1.473 6.908 1.286 29.09 14.716 61.593 1.372 63.219-25.953.544-9.143-.744-14.278-5.208-20.768-3.368-4.895-3.397-5.032-2.534-11.842 1.836-14.503-3.471-30.924-13.109-40.563l-4.845-4.844 1.985-4.629c7.819-18.242 1.133-41.135-16.433-56.262-12.341-10.628-81.039-39.27-115.194-48.027-3.832-.982-4.164-1.37-5.826-6.803-9.9-32.354-19.774-44.971-39.466-50.432-6.333-1.756-17.16-2.481-18.409-1.232M487.5 263.659c-1.65.868-4.125 2.591-5.5 3.829-2.235 2.012-21.119 8.512-24.729 8.512-1.077 0-1.263-.761-.753-3.082.532-2.421.19-3.6-1.595-5.5-5.06-5.387-12.118-1.446-15.397 8.596-2.351 7.201-2.519 7.372-10.327 10.486-8.378 3.342-10.199 4.956-10.199 9.04 0 4.422 3.757 6.914 9.129 6.055 2.129-.34 3.866-.501 3.859-.357-.006.144-.716 2.737-1.576 5.762-4.069 14.307-2.544 44.861 2.332 46.732 5.728 2.198 11.725-4.636 13.223-15.067 1.554-10.828 6.955-42.746 7.569-44.737.267-.865 2.393-2.632 4.725-3.927 2.331-1.295 7.163-4.303 10.737-6.684 4.3-2.865 6.634-3.904 6.9-3.073.641 2.003 2.33 2.724 6.418 2.741 5.088.02 7.303-1.315 9.569-5.768 5.87-11.536 3.82-17.876-4.385-13.558m125.639.417c-6.243 1.228-13.013 5.948-21.558 15.031-7.601 8.08-8.365 8.419-8.343 3.699.035-7.791-11.222-16.679-15.592-12.309-1.284 1.284-1.405 2.084-.557 3.669 1.272 2.377.562 10.13-2.157 23.534-1.026 5.059-2.167 12.136-2.535 15.726l-.668 6.527-2.969-1.727c-7.118-4.139-7.831-7.565-5.595-26.892 1.628-14.081-1.447-18.833-8.566-13.233-2.43 1.911-3.201 2.007-8.567 1.061-20.027-3.527-44.588 19.319-44.499 41.393.039 9.749 1.568 12.718 8.025 15.574 11.663 5.159 21.336 3.167 32.243-6.64l5.211-4.685 3.671 3.223c7.504 6.588 12.18 7.122 24.923 2.848 4.91-1.646 6.406-2.667 7.636-5.211 5.049-10.442 22.961-32.379 29.884-36.599 5.392-3.288 5.647-2.976 6.027 7.351.316 8.57.618 9.802 3.356 13.696 5.329 7.578 18.335 12.186 23.971 8.493 3.556-2.33 3.162-3.697-2.003-6.96-7.066-4.464-7.836-7.728-4.994-21.145 1.976-9.333 1.862-15.144-.397-20.117-3.172-6.986-6.266-8.21-15.947-6.307m-249.91 21.674c-6.466 4.366-10.267 9.777-9.543 13.585.769 4.046.475 3.816 5.618 4.396 5.502.62 8.164-.768 10.588-5.52 6.622-12.98 3.301-19.19-6.663-12.461m113.053 5.054c-2.982 1.895-11.595 24.064-13.163 33.88-.849 5.318-.706 6.228 1.664 10.62C471.572 347.88 483 351.46 483 341.009c0-2.627.913-11.619 2.029-19.981 2.538-19.022 1.92-23.271-4.211-28.983-2.431-2.264-2.776-2.359-4.536-1.241m50.986 4.161c-13.153 5.971-20.64 21.469-12.839 26.58 7.758 5.084 19.982-7.953 21.323-22.742.614-6.774-.704-7.37-8.484-3.838m-284.834 3.227c-7.483 6.57-10.002 14.281-11.371 34.808-.496 7.425-1.803 20.25-2.905 28.5-3.26 24.407-3.219 23.439-1.074 25.584 3.474 3.474 5.1 2.311 12.916-9.24C251.429 360.952 265.499 345 268.968 345c.429 0 .724 4.613.656 10.25-.145 12.026 1.127 15.305 7.5 19.328 12.485 7.882 28.005 3.832 16.471-4.298-6.202-4.372-7.267-8.452-4.511-17.283 10.06-32.232-9.018-41.855-32.819-16.554-4.151 4.413-7.28 7.131-6.953 6.04 1.471-4.9 3.778-24.634 3.869-33.093.153-14.192-3.272-17.761-10.747-11.198m159.066 2.952c-23.187 2.658-39.576 20.817-28.872 31.99 3.009 3.14 5.315 3.944 18.372 6.405 13.696 2.581 13.042 4.615-3.846 11.972-13.791 6.009-15.89 8.419-10.054 11.543 5.254 2.812 37.434-9.146 43.267-16.078 4.776-5.676 1.764-14.294-5.796-16.581-9.073-2.746-17.57-6.722-17.559-8.218.025-3.276 6.81-6.408 15.878-7.327 9.54-.967 13.11-2.697 13.11-6.353 0-5.016-12.405-8.739-24.5-7.353M193 305.889c-16.203 5.248-37.206 30.468-45.943 55.168-11.269 31.86-12.007 52.595-2.55 71.693 10.079 20.355 23.186 27.636 41.143 22.855 15.773-4.2 37.917-30.957 35.61-43.027-.83-4.341-3.976-3.115-12.224 4.765-23.251 22.214-42.262 18.655-44.57-8.343-2.377-27.81 16.165-68.2 32.953-71.78 7.422-1.583 7.445-1.56 9.096 9.415 1.531 10.178 8.174 11.147 13.431 1.959 8.399-14.679 6.867-32.293-3.495-40.201-4.021-3.068-17.324-4.489-23.451-2.504M327.316 313c-3.302 1.65-8.337 5.237-11.189 7.971l-5.185 4.972-4.548-3.472c-5.335-4.072-10.252-4.613-13.394-1.471-2.522 2.522-2.515 2.633.53 9.285 3.477 7.594 5.34 18.32 5.262 30.293-.089 13.733 1.03 16.016 7.683 15.661 7.968-.425 10.723-4.326 12.604-17.849 2.711-19.494 8.762-30.063 20.692-36.145 8.474-4.319 9.879-6.595 6.29-10.184-3.226-3.226-11.21-2.826-18.745.939m23.129 5.412C345.48 329.16 341 343.159 341 347.931c0 10.036 10.155 21.502 17.427 19.677 2.105-.529 2.337-1.297 2.974-9.841.38-5.097 1.373-13.767 2.206-19.267 1.954-12.889 1.253-19.001-2.731-23.834-4.614-5.598-6.412-4.953-10.431 3.746M543.5 388.935c-6.533 1.59-15.81 7.549-22.497 14.449-5.382 5.553-4.372 5.506-11.019.512-5.003-3.759-5.866-4.066-10.258-3.644-8.246.793-9.344 4.065-4.698 13.993 4.185 8.945 6.77 23.039 6.198 33.795-.939 17.636 2.514 24.614 11.274 22.787 9.042-1.886 11.389-5.996 13.978-24.479 3.357-23.963 9.79-35.185 24.539-42.803 8.692-4.489 8.983-4.752 8.983-8.107 0-5.927-7.203-8.766-16.5-6.503m-231.132 3c-11.013 2.585-21.567 7.122-32.405 13.931-15.457 9.71-22 17.697-17.876 21.821 1.961 1.961 12.929-1.802 20.24-6.944 4.349-3.059 4.758-1.15 2.088 9.757-9.398 38.387-10.361 64.017-3.009 80.076 5.353 11.693 13.609 14.098 18.162 5.292 3.198-6.185 7.707-61.362 7.258-88.825l-.302-18.458 6.488-1.354c17.072-3.565 27.128 2.029 32.6 18.131 6.124 18.022-8.329 50.766-29.912 67.766-8.764 6.903-11.2 13.701-5.461 15.239 19.955 5.347 58.884-30.92 65.813-61.314 3.668-16.089-1.007-35.608-11.395-47.57-6.509-7.495-34.994-11.607-52.289-7.548M454.5 407.406c-16.471 5.236-33.729 21.127-38.139 35.116-3.65 11.58 2.199 26.846 13.045 34.047 16.101 10.691 44.415 3.937 55.335-13.199 9.538-14.967 11.281-39.643 3.533-50.013-4.965-6.646-22.096-9.664-33.774-5.951m-56.118 14.461c-4.506 5.262-14.265 32.548-15.081 42.166-1.172 13.809 12.269 29.773 21.949 26.069 2.674-1.023 2.75-1.267 2.75-8.827 0-4.276.929-15.328 2.064-24.559 2.561-20.828 1.929-25.599-4.289-32.344-4.54-4.925-5.145-5.13-7.393-2.505m56.518 3.238c-10.614 7.49-15.4 15.795-15.4 26.726 0 22.485 26.331 7.278 29.19-16.858 1.439-12.154-4.514-16.414-13.79-9.868M569 462.659c-50.368 7.79-117.592 30.683-205 69.813-10.725 4.802-21.768 9.582-24.541 10.623-13.4 5.031-19.707 20.145-9.548 22.881 8.664 2.333 21.074-1.334 49.089-14.504 94.057-44.22 167.836-74.089 198.955-80.549 8.399-1.743 14.045-3.953 14.045-5.497 0-2.489-13.949-4.167-23-2.767" fill-rule="evenodd"/>
<path fill="#e31d25" stroke="#e31d25" d="M449.917 72.416c-.307.307-6.601.993-13.987 1.524-9.908.713-15.921 1.732-22.93 3.886-5.225 1.605-20.3 5.493-33.5 8.64-85.671 20.426-96.167 24.313-106.408 39.402-4.858 7.159-20.913 35.213-24.628 43.035-2.633 5.544-3.244 6.128-8.933 8.546-6.114 2.599-30.902 16.019-42.736 23.138-20.731 12.471-65.879 45.425-75.937 55.427-22.548 22.422-24.405 52.476-4.474 72.407l6.156 6.156-2.299 7.961c-1.264 4.379-3.642 12.012-5.284 16.962-13.086 39.44-5.191 80.192 20.543 106.04 21.291 21.386 47.045 26.06 73.177 13.281 6.788-3.32 21.506-16.58 27.458-24.738l2.494-3.417 2.966 2.193 2.966 2.193-1.214 9.224c-6.342 48.188 11.594 84.72 42.474 86.507 4.23.245 9.463-.044 11.629-.642 4.893-1.351 4.771-1.525 3.013 4.315-5.532 18.381 6.189 34.541 26.274 36.225 12.771 1.071 28.515-3.191 50.787-13.749 90.383-42.845 175.193-77.472 201.803-82.393 20.121-3.721 29.838-11.989 29.919-25.458.116-19.185-23.055-29.739-51.496-23.455-3.306.73-3.534-.625-1.12-6.658 1.399-3.498 2.622-4.573 8.656-7.612 8.756-4.409 16.867-11.953 19.522-18.154 7.552-17.644-1.715-40.62-19.301-47.851-4.768-1.962-5.812-3.351-2.516-3.351 8.437 0 26.274-10.188 30.962-17.686l2.453-3.922 6.547 3.329c23.372 11.884 50.269 5.781 59.767-13.56 5.265-10.721 3.128-29.062-4.082-35.046-1.25-1.038-1.415-3.065-.937-11.516.922-16.282-3.102-28.18-12.95-38.284l-5.054-5.184 2.401-5.316c4.423-9.792 3.596-25.055-1.966-36.28-6.539-13.196-15.207-21.524-29.632-28.469-32.322-15.562-77.828-33.269-98.5-38.329l-5.5-1.346-4.551-13.446C493.183 91.048 483.406 79.419 466 74.189c-4.371-1.313-15.334-2.522-16.083-1.773M486 264.109c-1.925 1.155-4.4 2.883-5.5 3.839-1.608 1.398-20.522 8.052-22.886 8.052-.338 0-.614-1.769-.614-3.932 0-3.906-3.761-8.252-6.5-7.513-.55.149-2.16.524-3.578.833-2.697.59-6.554 6.578-8.827 13.703-1.165 3.654-2.972 4.83-14.298 9.305-4.107 1.622-6.336 6.468-4.572 9.935 1.382 2.715 6.67 4.659 9.62 3.538 3.264-1.241 3.328-1.038 1.481 4.678-2.93 9.072-3.026 37.859-.144 43.453 2.606 5.059 4.93 5.481 10.061 1.827 4.127-2.939 4.684-4.583 7.331-21.642 3.478-22.417 6.525-38.185 7.378-38.185.405 0 5.112-2.744 10.46-6.098 8.747-5.484 9.847-5.93 10.943-4.432 2.37 3.242 10.34 2.554 13.676-1.179 2.54-2.842 5.969-11.423 5.969-14.937 0-3.436-5.26-4.091-10-1.245m125.707-.015c-5.276 1.242-9.882 4.583-19.457 14.116-6.948 6.917-8.25 7.846-8.25 5.887 0-3.977-4.959-11.85-8.532-13.545-6.08-2.885-10.461-1.078-8.851 3.65 1.132 3.322.47 11.968-1.706 22.298-1.043 4.95-2.189 12.038-2.547 15.75-.738 7.653-.597 7.527-5.048 4.5-4.993-3.396-5.735-6.9-4.335-20.478.655-6.357 1.379-12.057 1.607-12.665.229-.609-.478-2.569-1.571-4.357-2.314-3.784-4.887-4.146-8.817-1.24-2.441 1.805-3.305 1.903-8.433.955-31.248-5.777-62.916 49.786-33.376 58.559 11.671 3.465 19.627 1.355 29.27-7.765l5.308-5.02 4.068 3.675c6.639 5.999 14.634 7.072 23.369 3.138 1.702-.766 3.994-1.688 5.094-2.048 1.1-.36 5.375-5.818 9.5-12.128C589.638 301.103 603.041 287 607.868 287c.754 0 1.132 2.85 1.132 8.54 0 12.6 4.946 20.33 14.922 23.319 11.573 3.467 20.118-1.581 11.594-6.849-7.601-4.698-8.813-8.843-5.996-20.51 3.989-16.52-.261-28.639-9.959-28.4-2.233.056-5.768.503-7.854.994m-248.16 21.154c-5.885 3.369-10.878 10.348-10.119 14.144.769 3.842 2.002 4.574 7.733 4.593 5.783.019 8.995-3.273 11.456-11.74 2.546-8.756-1.093-11.563-9.07-6.997m112.074 5.464c-2.829 2.829-11.7 26.289-13.108 34.664-1.537 9.15 7.91 21.624 16.378 21.624 3.857 0 4.474-1.141 4.721-8.736.113-3.447.976-12.091 1.918-19.208.971-7.331 1.43-14.836 1.059-17.311-1.054-7.026-7.994-14.007-10.968-11.033m51.814 4.666C517.296 300.099 512 306.59 512 314.295c0 5.758 2.483 8.213 7.487 7.401 7.301-1.185 12.296-6.926 14.976-17.214 3.12-11.978 2.069-13.34-7.028-9.104m-285.202 2.372c-6.844 5.897-11.167 19.163-11.213 34.407-.011 3.662-1.105 14.237-2.431 23.5-3.963 27.676-4.059 29.166-2.039 31.399 3.34 3.69 5.783 2.508 10.964-5.306 11.15-16.816 24.391-32.615 29.586-35.302l2.627-1.358-.491 6.861c-1.057 14.774 2.1 21.16 12.362 25 7.867 2.943 13.889 2.762 16.015-.483 1.561-2.382 1.768-2.433 3.497-.868 1.398 1.264 2.835 1.504 5.99 1 8.244-1.318 9.926-3.884 12.328-18.807 3.3-20.513 8.665-29.447 21.631-36.025 7.32-3.714 8.778-6.797 4.881-10.32-5.416-4.897-18.989-.807-29.669 8.941l-5.356 4.889-4.59-3.296c-10.005-7.186-18.466-2.06-13.304 8.059 3.607 7.07 5.123 15.457 5.338 29.533.113 7.384-.083 13.426-.436 13.426s-2.701-1.813-5.219-4.029c-5.59-4.921-5.931-6.928-2.957-17.42 5.456-19.247 1.375-30.384-10.731-29.286-7.766.704-12.894 3.727-21.937 12.933-3.894 3.964-7.071 6.778-7.062 6.254.01-.524.649-4.801 1.42-9.505 5.049-30.789 1.621-43.525-9.204-34.197M401 300.646c-17.599 3.453-30.394 12.418-31.708 22.217-1.199 8.936 3.262 13.35 15.868 15.699 11.587 2.159 15.84 3.357 15.84 4.464 0 1.52-7.472 5.817-15.802 9.087-10.128 3.977-11.608 5.117-10.804 8.321.992 3.951 4.55 4.203 15.637 1.107 34.09-9.521 44.218-24.12 22.258-32.082-9.644-3.497-15.289-6.382-15.289-7.814 0-2.841 9.767-6.645 17.061-6.645 8.04 0 12.254-2.464 11.744-6.866-.591-5.099-14.925-9.426-24.805-7.488m-204.95 4.446c-18.478 3.622-40.36 29.63-50.513 60.038-10.408 31.169-10.84 48.32-1.689 67.135 11.425 23.489 30.63 31.436 49.395 20.438 10.555-6.185 25.59-24.266 27.967-33.632 2.5-9.849-2.936-12.481-9.517-4.608-7.6 9.092-22.284 17.545-30.454 17.53-18.548-.032-22.25-38.403-6.706-69.493 7.586-15.171 16.572-24.307 24.826-25.237 5.183-.584 5.424-.299 6.755 7.967 1.208 7.497 3.112 9.982 7.332 9.569 6.079-.596 13.328-17.117 12.209-27.823-1.813-17.346-12.491-25.24-29.605-21.884m157.289 7.158c-4.537 7.279-11.345 25.598-12.808 34.464-1.315 7.975 8.597 21.286 15.849 21.286 4.381 0 5.304-1.353 5.352-7.853.022-2.944.829-11.527 1.794-19.074 1.071-8.383 1.479-15.557 1.046-18.439-1.139-7.601-8.644-14.538-11.233-10.384m85.161 58.299c-.55.158-2.615.556-4.588.884-7.188 1.196-29.373 16.691-32.469 22.678-3.004 5.808-1.087 12.87 4.59 16.912 6.113 4.353 12.207.643 19.478-11.858 2.026-3.484 6.565-9.388 10.086-13.12 7.071-7.497 8.721-11.58 5.733-14.187-1.007-.879-2.28-1.468-2.83-1.309m102 19.254c-6.696 2.326-15.612 8.381-20.472 13.903l-3.969 4.509-3.78-2.971c-8.912-7.004-16.003-7.593-19.492-1.619-1.814 3.106-1.812 3.114 1.705 10.52 4.529 9.537 6.667 20.614 6.545 33.918-.174 19.071 2.264 24.523 10.408 23.279 9.692-1.482 12.646-5.711 14.557-20.842 3.223-25.519 10.951-40.014 24.786-46.488 8.694-4.068 10.336-5.592 9.597-8.902-1.522-6.81-9.461-8.929-19.885-5.307m-229.206 2.155c-19.096 4.462-46.454 20.771-50.261 29.962-1.355 3.271-.033 7.08 2.457 7.08 2.68 0 14.012-4.58 17.927-7.245 2.154-1.467 4.219-2.48 4.588-2.252.369.228-.833 6.846-2.671 14.706-9.745 41.668-9.425 68.315.986 81.999 5.782 7.6 14.216 5.944 16.699-3.279 2.981-11.071 7.319-79.274 6.006-94.429-.429-4.95-.615-9.182-.414-9.404.899-.997 13.406-2.739 18.137-2.526 15.815.71 25.878 20.576 20.755 40.97-3.341 13.3-18.368 36.778-28.325 44.255-13.76 10.333-13.858 18.001-.219 17.014 22.733-1.644 54.771-36.869 60.16-66.143 2.646-14.377-2.699-32.752-12.569-43.203-7.693-8.145-34.405-11.91-53.256-7.505m147.728 14.128c-17.571 3.09-39.072 21.591-43.18 37.155-1.61 6.097.156 17.373 3.655 23.343 13.852 23.637 54.435 19.191 67.931-7.442 8.187-16.157 7.909-40.075-.556-47.844-5.383-4.941-17.015-7.118-27.85-5.212m-62.045 17.164c-4.787 7.807-12.241 29.198-13.958 40.057-1.058 6.696-1.022 6.907 2.203 12.987 5.859 11.045 12.992 16.124 20.129 14.333 2.258-.567 2.388-1.078 2.902-11.36.296-5.922 1.326-17.292 2.289-25.267 2.197-18.199 1.345-23.932-4.467-30.041-4.573-4.809-6.492-4.958-9.098-.709M455 425.355c-11.724 8.612-17.546 20.487-15.27 31.145 1.595 7.469 9.905 8.046 17.129 1.189 16.921-16.063 15.262-44.91-1.859-32.334m119.5 36.34c-47.215 4.717-124.825 31.607-236.497 81.943-6.536 2.946-9.532 5.563-12.1 10.572-4.345 8.472-1.388 12.306 9.455 12.259 10.236-.044 18.192-2.828 49.142-17.195 95.779-44.46 159.17-70.159 190.813-77.356 7.046-1.603 13.711-3.396 14.81-3.984 5.814-3.112-4.739-7.326-15.623-6.239" fill-rule="evenodd"/>
<path fill="#1c151b" stroke="#1c151b" d="M444.818 73.515c-.283.284-5.196.702-10.917.93-5.723.228-12.874 1.176-15.901 2.108-7.213 2.221-39.722 10.542-73.753 18.878-44.836 10.982-55.459 14.873-64.845 23.751-5.34 5.05-16.914 23.468-28.618 45.541l-5.421 10.223-12.931 6.388c-36.784 18.171-94.711 57.56-112.932 76.791-21.254 22.433-22.26 51.442-2.453 70.762l5.846 5.703-2.481 8.455c-1.365 4.65-3.804 12.505-5.42 17.455-8.493 26.014-7.888 53.435 1.69 76.5 22.977 55.336 83.256 65.363 116.963 19.456l4.65-6.333 3.4 2.594c1.87 1.426 3.184 3.156 2.92 3.844-.264.688-1.017 6.806-1.674 13.595-5.141 53.149 19.658 87.511 57.185 79.237l2.626-.579-1.978 5.843c-5.841 17.247 5.965 33.764 25.638 35.87 10.773 1.154 28.896-3.322 45.588-11.259 13.566-6.45 24.94-11.749 37-17.235 30.824-14.025 51.92-23.433 64-28.543 7.425-3.141 18.225-7.717 24-10.171 33.983-14.436 64.855-25.346 81.464-28.791C599.983 490.066 609 482.472 609 468.811c0-18.318-18.186-27.179-48.202-23.487l-6.701.825.833-2.825c1.995-6.763 3.425-8.339 11.86-13.071 14.302-8.025 20.21-16.713 20.21-29.721 0-16.475-7.553-28.63-21.557-34.691-5.485-2.374-6.873-3.825-3.693-3.861 8.567-.096 26.828-10.005 31.377-17.027l3.141-4.847 5.668 2.862c15.909 8.031 30.847 8.837 44.65 2.41 18.364-8.551 24.975-32.26 13.435-48.19-3.017-4.165-3.028-4.231-2.398-13.936 1.027-15.813-3.086-27.66-13.123-37.806l-5-5.054 2.465-5.946c6.958-16.787 1.374-37.233-14.496-53.074-9.813-9.796-73.385-37.563-108.469-47.377-13.473-3.769-12.833-3.157-16.978-16.234-7.936-25.033-18.175-37.639-34.723-42.75-6.025-1.861-21.112-2.865-22.481-1.496m7.493 41.978c-.868.943-.941 3.01-.27 7.65 1.307 9.041 1.137 9.874-1.097 5.394-5.387-10.797-16.935-15.577-25.618-10.603-1.004.575-10.376 3.098-20.826 5.605-39.883 9.57-79.888 19.694-87.521 22.148l-7.943 2.554-4.741 8.129c-2.608 4.472-5.246 9.03-5.862 10.13-.616 1.1-2.177 3.8-3.469 6-9.56 16.277-14.987 30.204-10.277 26.372 1.501-1.22 1.6-1.151.898.628a218.36 218.36 0 0 0-1.785 4.75c-.576 1.59-1.743 2.75-2.766 2.75-7.127 0-47.739 19.545-64.714 31.144-2.299 1.571-4.423 2.856-4.72 2.856-.571 0-15.745 10.059-16.6 11.004-.275.304-5 3.795-10.5 7.757-31.918 22.993-39.5 30.027-39.5 36.642 0 5.867 13.649 5.958 24.87.167 9.217-4.757 45.895-14.24 87.13-22.526 8.525-1.714 17.3-3.526 19.5-4.028 2.2-.502 9.4-1.892 16-3.088 9.057-1.641 14.208-3.221 21-6.44 25.261-11.974 35.199-14.788 37.438-10.604.836 1.562.84 2.662.016 4.202-1.638 3.061-.613 3.404 6.31 2.112 6.937-1.293 38.703-5.334 60.236-7.663 7.7-.832 18.05-1.967 23-2.522 18.9-2.117 62.859-5.647 87.315-7.01 9.524-.531 17.753-1.236 18.287-1.566.534-.33 7.623-.973 15.752-1.429 20.604-1.155 25.53-3.587 25.394-12.54l-.068-4.525 3.66.746c10.618 2.166 13.869-.316 8.607-6.57-2.345-2.786-11.853-8.119-14.477-8.119-.533 0-.97-.36-.97-.799 0-.44-1.687-1.404-3.75-2.142-2.062-.739-6-2.358-8.75-3.599s-7.925-3.456-11.5-4.922c-3.575-1.466-8.408-3.537-10.739-4.602-2.332-1.065-4.829-1.936-5.55-1.936-.721 0-1.738-.389-2.261-.863-3.176-2.887-32.814-12.384-48.708-15.609-15.189-3.082-23.742-8.767-23.742-15.781 0-1.796-8.722-28.444-11.435-34.938-1.904-4.555-3.686-6.02-5.254-4.316m33.662 148.16c-1.36.91-3.598 2.629-4.973 3.82-1.375 1.191-6.58 3.355-11.566 4.807-4.986 1.453-9.796 2.922-10.688 3.264-1.315.504-1.682-.182-1.934-3.611-.92-12.496-15.476-8.197-18.368 5.425-.961 4.528-2.8 6.166-9.761 8.693-10.82 3.927-13.585 9.985-6.702 14.684 3.319 2.267 4.389 2.372 8.177.807 1.512-.625 1.536-.333.274 3.332-4.82 13.988-3.352 47.408 2.175 49.529 3.986 1.529 13.393-6.066 13.393-10.815 0-2.054 6.025-39.633 7.587-47.325.562-2.763 1.922-3.992 9.285-8.384 4.746-2.83 9.375-5.793 10.287-6.585 1.451-1.259 1.772-1.239 2.554.157.546.976 2.816 1.817 5.84 2.165 5.995.688 10.166-2.85 12.851-10.901 3.218-9.648-.914-14.089-8.431-9.062m125.195.34c-5.052 1.195-13.58 7.542-20.729 15.428-6.283 6.932-6.417 7.015-6.428 4.025-.013-3.547-4.912-11.788-7.986-13.433-1.16-.621-3.778-.99-5.817-.821l-3.708.308.323 7.5c.224 5.213-.462 11.35-2.25 20.126-1.415 6.944-2.573 14.706-2.573 17.25 0 5.489-.375 5.588-5.414 1.434l-3.87-3.189.761-13.561c1.087-19.39 1.069-19.799-.956-22.037-2.39-2.641-4.139-2.552-8.017.406-2.874 2.192-3.617 2.331-7.595 1.419-19.6-4.496-46.532 19.405-46.355 41.139.103 12.731 5.607 18.16 19.113 18.854 9.598.494 13.282-.926 20.914-8.065l6.437-6.022 2.086 2.651c4.411 5.608 13.732 8.07 21.403 5.651 10.113-3.188 10.159-3.227 18.605-15.624 9.981-14.652 17.941-23.875 23.818-27.603 6.092-3.863 6.324-3.718 5.555 3.464-1.618 15.116 8.058 26.605 22.688 26.938 6.539.149 10.6-3.441 7.015-6.201-1.094-.841-3.554-2.743-5.467-4.226-4.779-3.704-5.265-7.319-2.687-19.973 4.31-21.15-2.022-29.822-18.866-25.838m-245.93 20.118c-8.525 4.22-13.958 12.807-11.274 17.821 1.46 2.729 8.45 3.527 12.083 1.381 5.478-3.236 9.64-15.791 6.417-19.353-2.186-2.415-2.035-2.418-7.226.151m111.634 5.6c-3.485.832-14.887 30.484-14.863 38.651.026 8.429 9.617 18.908 16.876 18.437l4.615-.299.679-11c.373-6.05 1.33-15.275 2.126-20.5 1.193-7.821 1.226-10.36.188-14.367-1.39-5.366-6.864-11.58-9.621-10.922m53.602 4.471c-13.015 4.208-22.141 18.137-16.841 25.705 3.447 4.921 13.712.103 17.868-8.387 3.975-8.12 5.584-18.764 2.78-18.398-.429.056-2.143.542-3.807 1.08m-288.453 3.454c-6.834 5.75-10.03 14.817-10.997 31.199-.476 8.066-1.777 20.74-2.89 28.165-3.746 24.981-3.821 28.314-.693 30.775 3.672 2.888 4.885 2.14 10.789-6.654 11.941-17.785 26.767-35.117 30.045-35.123.902-.002 1.142 2.48.908 9.42-.43 12.791 1.85 17.253 10.809 21.159 9.089 3.963 17.175 3.624 18.572-.778.643-2.025.654-2.025 2.619-.06 2.481 2.48 9.933 1.44 13.467-1.88 2.251-2.115 2.646-3.504 5.876-20.683 3.127-16.631 8.864-25.436 20.025-30.732 7.538-3.577 7.56-3.599 7.255-7.243-.853-10.188-18.953-7.095-31.887 5.448l-4.581 4.443-5.366-3.611c-3.541-2.383-6.065-3.424-7.419-3.06-1.129.304-2.826.558-3.771.565-4.011.032-4.734 4.842-1.725 11.479 3.638 8.025 5.021 16.063 5.253 30.536l.19 11.818-2.852-1.659c-7.792-4.535-8.774-8.092-5.489-19.899 8.55-30.729-9.518-40.096-32.56-16.879-6.807 6.857-7.8 7.556-7.168 5.039 1.451-5.779 3.53-24.068 3.549-31.221.034-12.647-4.609-16.749-11.959-10.564M395 301.892c-15.688 4.278-26.022 13.348-25.985 22.808.034 8.742 3.961 11.735 19.43 14.81 6.451 1.282 12.021 2.622 12.377 2.979.891.891-3.408 3.999-8.822 6.377-17.514 7.693-18 7.973-18 10.381 0 5.62 4.395 6.047 18.62 1.811 20.856-6.21 30.835-12.659 30.835-19.927 0-6.044-3.722-9.28-15.978-13.894-6.413-2.414-9.977-4.281-9.977-5.227 0-2.821 7.997-6.128 16.255-6.722 8.993-.648 10.977-1.452 12.325-5 3.014-7.927-14.975-12.786-31.08-8.396m-201.071 3.416c-18.924 5.349-39.858 31.858-49.903 63.192-8.792 27.423-9.063 44.922-.968 62.312 14.678 31.526 39.891 36.006 63.254 11.24 10.485-11.114 15.706-20.217 15.673-27.322-.038-7.992-3.493-7.314-14.077 2.762-12.874 12.256-25.832 17.115-32.877 12.327-7.681-5.219-9.539-10.369-9.469-26.245.13-29.661 15.277-61.222 31.474-65.584 6.978-1.879 8.911.298 8.953 10.086.015 3.621 4.334 7.395 8.482 7.411 1.836.007 3.111-.353 2.835-.8-.276-.447.196-1.584 1.049-2.527 10.778-11.91 9.328-37.047-2.592-44.936-4.553-3.012-14.78-3.91-21.834-1.916m159.781 6.125c-4.013 4.012-13.71 31.296-13.71 38.572 0 2.761 6.263 13.352 9.437 15.958 1.034.849 3.939 1.479 6.922 1.5l5.141.037.661-10.5c.363-5.775 1.342-15.05 2.176-20.611 1.987-13.262.53-19.541-5.712-24.617-2.605-2.118-3.102-2.152-4.915-.339m71.907 62.923c-13.448 6.919-23.998 15.845-25.786 21.815-2.436 8.128 3.361 16.829 11.211 16.829 5.063 0 9.37-3.733 14.562-12.62 2.143-3.668 6.735-9.737 10.205-13.487 13.984-15.112 8.329-22.068-10.192-12.537m110.517 17.204c-4.375 2.194-10.062 6.237-14.003 9.955l-6.637 6.261-3.497-2.961c-7.891-6.681-15.069-7.277-19.305-1.604l-2.006 2.686 3.186 7.124c4.894 10.945 6.226 17.903 7.03 36.722.898 21.022 1.8 22.874 10.58 21.724 9.782-1.281 12.46-5.266 14.943-22.229 2.106-14.398 4.768-23.093 9.561-31.238 4.875-8.285 6.784-9.978 16.324-14.47 4.295-2.023 8.038-4.272 8.317-4.999.759-1.98-1.429-9.164-2.871-9.424-9.63-1.735-14.335-1.201-21.622 2.453m-223.937-.088c-12.24 2.765-22.509 7.391-35.771 16.112-14.117 9.285-19.638 17.39-14.174 20.811 2.101 1.316 12.63-2.033 18.964-6.032 2.185-1.379 4.192-2.288 4.46-2.021.267.268-.884 6.488-2.559 13.823-9.153 40.077-9.454 62.172-1.076 78.879 5.301 10.572 13.988 11.666 18.138 2.285 3.679-8.318 9.103-82.177 7.171-97.644-1.226-9.816-.903-10.054 13.719-10.13 13.001-.068 15.572 1.428 21.345 12.414 4.569 8.694 5.349 14.779 3.197 24.937-3.126 14.76-16.456 36.78-27.903 46.094-13.86 11.278-14.804 18.123-2.507 18.194 20.943.12 53.868-33.017 61.26-61.654 2.904-11.248.992-28.654-4.108-37.409-3.808-6.536-9.35-14.518-9.368-13.493-.009.474-.346.371-.75-.23-3.128-4.647-36.67-7.956-50.038-4.936M458 406.082c-14.872 2.854-33.033 17.115-40.116 31.503-7.068 14.356-.935 32.421 13.982 41.191 4.286 2.519 5.46 2.724 15.634 2.724 26.465 0 41.956-13.943 45.557-41.004 3.639-27.345-8.711-39.468-35.057-34.414m-60.427 16.168c-5.079 7.756-12.79 28.864-14.702 40.246-1.415 8.419-.573 11.241 6.053 20.287 7.711 10.529 21.497 11.571 19.477 1.473-.32-1.6.425-11.649 1.654-22.332 3.117-27.087 2.752-30.811-3.725-37.981-4.036-4.467-6.614-4.965-8.757-1.693m58.092 2.848c-8.719 5.776-15.251 15.371-15.679 23.032-.643 11.506.654 13.87 7.611 13.87 12.727 0 26.958-29.445 18.378-38.025-2.719-2.719-4.862-2.485-10.31 1.123M571.5 461.693c-45.788 5.999-130.608 34.574-206.5 69.566-3.575 1.649-12.123 5.433-18.995 8.41-19.236 8.334-27.024 18.312-19.874 25.462 4.522 4.522 25.587.607 42.369-7.875 6.491-3.28 33.403-15.716 59-27.262l21-9.475c4.934-2.228 20.765-9.024 41.76-17.927 38.938-16.511 70.595-27.644 88.621-31.166 20.595-4.024 14.129-12.552-7.381-9.733" fill-rule="evenodd"/>
</svg>