<!DOCTYPE svg PUBLIC "-//W3C//DTD SVG 1.1//EN" "http://www.w3.org/Graphics/SVG/1.1/DTD/svg11.dtd">
<svg xmlns="http://www.w3.org/2000/svg" viewBox="0 0 1920 1146">
<path fill="#e24a80" d="M271 213.975c-26.847 6.505-42.899 24.422-44.725 49.925-.473 6.603 2.135 17.495 5.531 23.1 4.35 7.18 7.318 11.349 14.238 20 15.093 18.87 19.772 28.246 18.611 37.296-2.02 15.749-2.029 15.328.387 17.021 4.852 3.399 8.753-2.573 9.679-14.817 1.188-15.704-4.484-28.246-21.721-48.03-18.579-21.324-20.985-32.764-10.826-51.47 11.479-21.138 44.793-30.463 60.243-16.864 15.223 13.4 14.779 37.46-.911 49.428-6.782 5.172-18.041 3.812-21.227-2.564-4.127-8.259.269-14.988 9.797-14.996 5.817-.005 9.534-3.276 8.071-7.103-3.688-9.648-21.315-7.195-28.871 4.018-4.689 6.958-2.343 21.703 4.511 28.346 16.467 15.961 41.468 5.996 50.138-19.983 6.434-19.281-3.877-42.29-22.871-51.039-6.039-2.781-22.735-4.042-30.054-2.268m-98.296 86.409c-23.093 8.937-40.603 35.834-35.403 54.383.884 3.153 1.84 6.858 2.125 8.233 1.418 6.848 10.372 16.232 21.574 22.609 6.45 3.672 24.611 3.122 32.692-.99C217.556 372.478 211.756 333 186.108 333c-11.78 0-19.682 8.116-12.911 13.262 2.597 1.973 2.86 1.988 7.034.394 7.855-3 13.364-.954 16.29 6.049 6.523 15.61-11.927 28.954-30.001 21.7-19.254-7.728-24.702-26.595-12.677-43.905 4.668-6.72 16.247-17.487 18.825-17.506.458-.004 2.182-.762 3.832-1.687 4.509-2.525 15.556-2.244 22.747.578 17.449 6.85 28.415 27.999 24.178 46.632-2.475 10.884-1.724 14.483 3.023 14.483 7.4 0 11.577-19.235 7.578-34.897-3.644-14.274-11.178-25.34-22.416-32.924-10.753-7.257-27.28-9.294-38.906-4.795m187.241 50.599c-4.705.379-11.455 1.395-15 2.257-3.545.862-10.945 2.565-16.445 3.785-5.5 1.219-12.025 2.86-14.5 3.645-2.475.786-6.75 2.053-9.5 2.816-5.161 1.431-14.27 4.225-23 7.053-5.425 1.758-12.622 4.613-19.11 7.581-2.26 1.034-4.507 1.88-4.994 1.88-.487 0-5.838 2.439-11.891 5.421-6.053 2.981-13.354 6.308-16.224 7.392-5.665 2.14-28.02 14.557-35.281 19.597-2.475 1.718-5.635 3.622-7.022 4.232-4.046 1.777-17.961 12.662-24.478 19.149-13.755 13.69-15.102 18.706-8.936 33.283 1.96 4.634 4.686 11.126 6.057 14.426 1.371 3.3 3.142 7.194 3.936 8.654s1.443 3.172 1.443 3.805.857 3.039 1.905 5.346c2.718 5.985 9.13 21.452 17.285 41.695 3.878 9.625 7.391 17.95 7.808 18.5.416.55 1.086 2.125 1.487 3.5 2.978 10.194 9.855 17 17.178 17 1.464 0 5.121.775 8.127 1.723 7.053 2.223 4.652-1.592 33.206 52.777 3.466 6.6 7.972 14.925 10.013 18.5 4.534 7.94 10.375 18.818 18.212 33.913 3.258 6.277 7.901 14.896 10.316 19.152 2.415 4.256 5.889 10.82 7.719 14.587 1.83 3.766 5.512 10.898 8.181 15.848 7.627 14.146 11.429 21.276 16.798 31.5 7.462 14.211 17.438 22.692 33.162 28.194 7.741 2.708 50.149 2.297 59.603-.578 16.425-4.995 19.89-6.178 24-8.189 2.475-1.212 6.975-3.407 10-4.879 3.025-1.471 6.374-3.209 7.442-3.862 1.067-.652 4.442-2.725 7.5-4.607 24.269-14.935 36.57-46.196 28.167-71.579-4.015-12.128-4.239-12.848-6.225-20-3.427-12.35-5.599-19.831-7.835-27a411.595 411.595 0 0 1-4.042-14c-1.023-3.85-2.324-8.35-2.893-10-2.354-6.835-4.322-13.32-5.614-18.5-1.311-5.255-3.371-12.029-5.627-18.5-1.013-2.906-2.922-9.561-6.312-22-.899-3.3-2.049-6.9-2.556-8-.507-1.1-1.418-4.025-2.024-6.5-.607-2.475-1.721-6.3-2.476-8.5-.755-2.2-2.565-8.05-4.023-13-1.458-4.95-3.238-10.575-3.955-12.5-8.404-22.541-8.777-26.785-3.12-35.485 6.446-9.915 7.182-17.709 2.529-26.796-1.065-2.079-1.95-4.329-1.967-5-.017-.67-1.138-3.469-2.491-6.219-1.353-2.75-2.464-5.526-2.469-6.169-.005-.643-.666-2.443-1.469-4-2.798-5.422-6.54-14.215-6.54-15.365 0-.636-.655-2.352-1.454-3.812-1.529-2.789-5.666-12.538-9.614-22.654-1.288-3.3-2.648-6.45-3.024-7-.375-.55-1.917-4.15-3.425-8-1.508-3.85-3.543-8.8-4.522-11-.979-2.2-2.1-5.8-2.492-8-2.311-12.975-14.022-17.573-39.524-15.517m61.378.827c-4.348.619-4.704 2.577-1.796 9.896 1.484 3.737 3.117 7.313 3.628 7.947.511.634 1.329 2.434 1.818 4 1.318 4.218 5.515 14.006 6.656 15.525.547.727 2.289 4.697 3.871 8.822 1.582 4.125 3.183 7.95 3.558 8.5.375.55 1.2 2.612 1.834 4.582.634 1.97 2.042 5.327 3.13 7.461 1.088 2.134 1.978 4.63 1.978 5.546 0 .916.646 2.202 1.436 2.858.789.655 1.715 2.466 2.058 4.024.342 1.559 1.496 4.548 2.564 6.643 1.068 2.095 1.942 4.39 1.942 5.101 0 .711.9 2.971 2 5.024 1.1 2.052 2 4.425 2 5.274 0 .848.689 2.526 1.532 3.729 3.824 5.46 5.34 16.12 3.55 24.964-.914 4.514-1.949 8.495-2.301 8.847-.353.352-1.843 3.098-3.313 6.103-3.283 6.71-2.656 11.71 3.118 24.844.726 1.65 1.824 4.972 2.441 7.382.617 2.411 1.497 5.111 1.956 6 .46.89 2.058 5.668 3.553 10.618 1.494 4.95 3.503 11.025 4.464 13.5.96 2.475 2.048 6.503 2.417 8.95.369 2.448 1.042 4.923 1.496 5.5.454.578 1.374 3.525 2.044 6.55.67 3.025 1.808 6.85 2.527 8.5.72 1.65 1.624 5.025 2.009 7.5.384 2.475 1.263 5.4 1.952 6.5.689 1.1 1.56 3.8 1.936 6 .375 2.2 1.297 5.575 2.049 7.5.752 1.925 2.514 7.325 3.915 12 1.401 4.675 3.275 10.75 4.164 13.5.89 2.75 2.057 7.025 2.595 9.5.537 2.475 1.442 5.335 2.011 6.355.568 1.021 1.669 4.621 2.445 8 .776 3.38 2.313 9.295 3.416 13.145 7.697 26.867 10.354 44.54 8.043 53.5a159.16 159.16 0 0 0-1.996 9.04c-.729 3.956-3.205 10.073-6.058 14.96-.481.825-2.223 3.815-3.869 6.645-2.969 5.101-23.22 26.355-25.112 26.355-.541 0-.984.386-.984.858 0 3.098 27.127 1.158 30.464-2.18.924-.923 2.252-1.678 2.952-1.678.701 0 2.089-.9 3.084-2 .995-1.1 2.211-2 2.702-2 1.183 0 9.862-8.592 11.455-11.339.689-1.189 2.511-4.636 4.048-7.661l2.795-5.5-.051-31.5c-.029-17.325-.603-66.825-1.277-110-.673-43.175-1.468-98.525-1.765-123-.298-24.475-.898-58.731-1.334-76.123l-.793-31.624-2.89-5.867c-1.589-3.226-3.34-6.521-3.89-7.322-2.189-3.185-14.649-15.064-15.801-15.064-.676 0-2.797-.822-4.714-1.828-6.56-3.439-16.011-4.206-48.485-3.933-17.05.144-31.98.401-33.177.571M363 361.96c-6.325.398-14.425 1.437-18 2.309a907.003 907.003 0 0 1-11 2.61c-2.475.564-7.65 1.931-11.5 3.038-3.85 1.108-9.7 2.726-13 3.597-3.3.871-6.9 1.991-8 2.488-1.1.498-6.275 2.324-11.5 4.058-13.402 4.448-30.871 11.373-42 16.65a13469.4 13469.4 0 0 0-16 7.598c-5.326 2.535-15.189 7.961-25.797 14.192-19.876 11.674-42.223 30.761-43.656 37.288-.939 4.271-.348 4.923 6.182 6.822 10.807 3.141 19.094.89 32.771-8.904 15.13-10.833 59.278-35.201 70.233-38.765 2.072-.674 4.655-1.837 5.74-2.583 1.084-.747 2.659-1.361 3.5-1.364.84-.004 2.721-.629 4.18-1.391 1.46-.761 4.316-1.933 6.347-2.603 2.031-.67 4.887-1.842 6.347-2.603 1.459-.762 3.47-1.387 4.468-1.391.998-.003 3.923-.864 6.5-1.913 9.957-4.053 33.015-10.078 55.284-14.447 7.72-1.515 10.786-3.494 18.338-11.84C393.573 362.5 390.169 360.25 363 361.96m15.331 36.313c-7.135 5.706-15.416 11.835-18.402 13.619-2.986 1.784-8.579 5.2-12.429 7.592-9.669 6.007-48.859 25.5-51.309 25.522-.38.004-2.041.712-3.691 1.575s-6.6 2.922-11 4.577c-4.4 1.654-9.35 3.602-11 4.329-1.65.727-7.05 2.515-12 3.975-4.95 1.459-10.417 3.273-12.149 4.031-1.732.758-4.882 1.674-7 2.035-2.118.362-6.776 1.492-10.351 2.512-13.999 3.996-25.111 6.067-39.41 7.345-19.072 1.705-19.965 2.504-15.009 13.427C176 491.94 177.539 495.4 178 496.5c.461 1.1 2 4.56 3.419 7.688 1.42 3.129 2.581 5.986 2.581 6.349 0 .363.653 2.079 1.452 3.812.799 1.733 2.817 6.635 4.486 10.893 1.669 4.258 3.473 8.533 4.009 9.5.536.967 2.356 5.133 4.045 9.258 1.689 4.125 3.697 8.85 4.464 10.5.766 1.65 1.919 4.709 2.562 6.798 2.323 7.547 6.841 9.242 23.914 8.971 8.012-.128 16.818-.655 19.568-1.171 15.479-2.909 22.371-4.424 25.5-5.603 1.925-.726 6.425-2.042 10-2.926 12.303-3.041 25.186-7.086 30.5-9.577 1.1-.516 3.8-1.578 6-2.36 9.205-3.273 14.921-5.653 15.879-6.611.562-.562 1.598-1.021 2.304-1.021 1.184 0 18.894-7.956 22.317-10.026.825-.498 3.975-2.213 7-3.81s7.75-4.304 10.5-6.016c2.75-1.711 5.9-3.517 7-4.012 1.1-.495 5.15-2.988 9-5.539 3.85-2.551 7.857-5.191 8.904-5.868 10.811-6.981 26.192-22.514 27.648-27.921 1.024-3.805-.644-12.109-3.077-15.308-.418-.55-3.319-7.476-6.447-15.39-3.127-7.915-6.068-15.115-6.535-16-1.743-3.303-4.833-10.733-5.967-14.346-.644-2.055-1.589-3.994-2.099-4.309-.51-.315-.927-1.27-.927-2.122 0-1.66-2.916-8.609-7.046-16.79-3.961-7.848-5.272-7.548-20.623 4.73m37.825 112.526c-1.737.936-7.545 4.683-12.907 8.327-7.928 5.389-19.173 12.426-30.249 18.929-.825.484-4.425 2.251-8 3.926-3.575 1.676-7.175 3.458-8 3.962-1.708 1.042-7.548 3.634-17 7.544-3.575 1.479-8.425 3.549-10.777 4.601-2.352 1.052-4.827 1.927-5.5 1.946-.673.019-3.023.903-5.223 1.966-2.2 1.063-4.675 1.963-5.5 2-.825.037-3.3.937-5.5 2s-4.786 1.947-5.746 1.966c-.96.019-4.335.885-7.5 1.924-6.497 2.135-16.63 4.702-26.259 6.654-3.577.726-7.657 1.757-9.065 2.292-1.408.536-5.231 1.279-8.495 1.651-9.408 1.073-9.435 1.09-9.435 6.021 0 2.406.444 4.648.987 4.984.543.335 2.585 3.849 4.539 7.809 1.954 3.959 3.954 7.874 4.445 8.699.491.825 2.321 4.425 4.067 8 5.806 11.891 20.81 40.257 25.654 48.5 1.616 2.75 4.681 8.375 6.812 12.5 4.29 8.308 6.546 12.534 9.876 18.5 1.229 2.2 4.575 8.364 7.436 13.698 2.862 5.333 8.474 15.458 12.472 22.5 3.997 7.041 7.873 14.264 8.611 16.052.739 1.788 1.709 3.25 2.155 3.25.446 0 1.127 1.013 1.512 2.25 1.448 4.648 9.892 18.409 13.837 22.55 15.422 16.185 46.98 18.535 83.532 6.222 44.094-14.854 66.188-45.708 55.793-77.912-3.44-10.655-7.615-24.616-16.93-56.61-1.121-3.85-2.853-9.475-3.849-12.5-.996-3.025-2.105-7.284-2.465-9.465-.361-2.181-1.292-5.197-2.07-6.701-.778-1.504-1.434-3.77-1.458-5.034-.024-1.265-.73-4.1-1.568-6.3-.839-2.2-1.95-5.8-2.471-8-.52-2.2-1.576-5.575-2.347-7.5-.771-1.925-2.603-7.55-4.071-12.5-1.468-4.95-3.599-11.925-4.736-15.5a46479.77 46479.77 0 0 1-3.814-12c-9.455-29.764-12.435-38.689-13.287-39.805-2.084-2.725-4.279-3.134-7.506-1.396M1639.5 569.046c-2.75.428-7.032.818-9.515.866-2.483.049-6.194.988-8.246 2.088-2.053 1.1-4.245 2-4.873 2-1.19 0-14.257 8.271-16.866 10.676-.825.76-2.963 2.723-4.75 4.362-1.787 1.639-3.25 3.403-3.25 3.921 0 .518-.564 1.301-1.253 1.741-1.876 1.198-6.747 8.693-6.747 10.381 0 .811-.748 2.542-1.662 3.846-3.098 4.424-6.155 23.751-4.519 28.573.56 1.65 1.541 6.238 2.18 10.195.64 3.957 1.773 7.701 2.518 8.319.745.618 1.639 2.42 1.987 4.004 1.307 5.949 18.802 22.876 23.79 23.016.663.019 3.006.903 5.206 1.966 2.2 1.063 4.675 1.95 5.5 1.973.825.022 2.85.934 4.5 2.027s4.362 1.99 6.027 1.993c1.666.004 3.916.625 5 1.379 1.085.755 3.51 1.707 5.387 2.116 6.816 1.484 15.434 6.91 18.201 11.461 2.479 4.076 2.379 6.142-.575 11.973-3.603 7.11-11.976 9.315-19.54 5.146-1.925-1.061-4.513-2.399-5.75-2.974-1.237-.574-2.25-1.506-2.25-2.069 0-.564-.498-1.025-1.106-1.025-.958 0-3.345-1.678-8.743-6.147-8.329-6.895-23.21-8.641-32.85-3.853-5.522 2.742-11.489 12.727-12.856 21.514-.953 6.118 5.842 23.582 9.858 25.337.442.193 2.427 2.106 4.411 4.25 1.984 2.144 4.155 3.899 4.824 3.899.669 0 1.795.696 2.501 1.547 1.253 1.509 10.758 6.419 12.557 6.487.497.019 2.704.903 4.904 1.966 2.2 1.063 6.25 1.967 9 2.01 2.75.043 6.8.726 9 1.519 4.817 1.735 23.841 1.975 31.674.399 6.582-1.324 17.996-4.92 19.276-6.073.523-.47 1.538-.855 2.257-.855 4.008 0 26.293-18.106 26.293-21.362 0-.766.663-1.943 1.474-2.616.81-.673 1.757-2.737 2.104-4.587.347-1.85 1.224-3.856 1.948-4.457.725-.601 1.629-2.98 2.009-5.286.38-2.305 1.203-4.824 1.828-5.597 2.19-2.705 1.3-23.675-1.341-31.595-5.141-15.418-16.413-30.268-25.057-33.011-1.074-.341-2.518-1.176-3.209-1.856-1.435-1.413-9.038-5.094-12.756-6.175-1.375-.4-3.388-1.342-4.473-2.093-1.084-.751-2.815-1.365-3.845-1.365-1.03 0-3.068-.669-4.528-1.486-2.649-1.484-8.548-3.7-15.138-5.687-1.917-.578-4.565-1.9-5.885-2.939-1.32-1.038-2.903-1.888-3.516-1.888-1.992 0-6.616-6.797-6.596-9.697.01-1.541 1.361-4.941 3.002-7.553l2.983-4.75 6.748.019c7.026.02 6.891-.038 19.167 8.216 2.937 1.974 6.787 3.765 8.096 3.765.487 0 1.245.626 1.685 1.392 1.152 2.006 14.501 3.535 20.225 2.317 12.33-2.623 18.821-18.061 13.543-32.209-2.152-5.771-2.58-6.409-7.987-11.911-3.861-3.929-17.535-12.589-19.878-12.589-.623 0-2.701-.835-4.618-1.856-2.314-1.232-7.569-2.24-15.642-3-13.245-1.246-14.436-1.252-21.843-.098m-181.5 7.93c-35.061.691-40.473 1.717-47.776 9.052-5.909 5.934-9.909 22.887-6.435 27.272.523.66 1.46 2.775 2.083 4.7 1.244 3.846 10.038 11.005 14.901 12.132 1.5.347 8.127.686 14.727.753 12.845.131 16.992 1.429 19.492 6.101.79 1.475 1.097 17.983 1.043 55.978-.065 45.563.156 54.553 1.429 58.211.829 2.379 1.513 5.303 1.521 6.498.008 1.196 1.14 3.511 2.515 5.145 1.375 1.634 2.5 3.468 2.5 4.076 0 .608.418 1.106.929 1.106.51 0 1.523.578 2.25 1.284 5.406 5.252 10.736 6.902 21.18 6.555l10.201-.339 4.97-4c2.733-2.2 5.137-4.389 5.341-4.864.204-.474 1.217-1.587 2.25-2.472 1.034-.885 1.879-2.533 1.879-3.664 0-1.13.67-3.011 1.488-4.18 2.048-2.923 2.136-8.012 1.18-68.119-.659-41.408-.571-52.613.42-53.808 2.38-2.866 8.028-4.393 16.284-4.401 10.203-.009 20.403-1.624 22.311-3.532.803-.803 1.863-1.46 2.356-1.46.493 0 2.784-2.812 5.091-6.25 10.418-15.523 4.416-35.383-12.506-41.377-4.175-1.479-30.811-1.595-91.624-.397m-214.938 2.076c-4.039.545-6.759 1.442-7.3 2.408-.474.847-1.451 1.54-2.171 1.54-1.862 0-8.639 8.231-10.472 12.718-3.274 8.013-2.085 111.013 1.434 124.282 3.055 11.517 10.795 25.882 17.878 33.176 1.963 2.022 3.569 4.16 3.569 4.75 0 .591.368 1.074.818 1.074.45 0 2.583 1.57 4.739 3.488 2.157 1.919 6.454 4.838 9.55 6.488 3.096 1.65 6.193 3.681 6.883 4.512.69.832 2.043 1.512 3.005 1.512.963 0 3.787.901 6.276 2.002 6.911 3.057 20.183 5.256 28.229 4.677 9.194-.661 24.851-4.111 27.694-6.102 1.238-.867 3.431-1.577 4.874-1.577 1.442 0 3.39-.848 4.328-1.885.938-1.037 2.921-2.142 4.405-2.455 2.555-.539 10.59-7.042 18.021-14.585 3.322-3.372 7.417-9.17 9.941-14.075a694.615 694.615 0 0 1 4.245-8c1.627-3.025 2.966-6.637 2.975-8.027.009-1.391.701-3.505 1.537-4.699 3.682-5.256 3.986-25.405 1.475-97.668-.844-24.296-.931-25.035-3.645-30.75-1.53-3.221-3.344-5.856-4.031-5.856-.687 0-1.692-.829-2.235-1.842-2.933-5.482-25.292-8.499-30.811-4.158-1.399 1.1-3.061 2-3.695 2-1.731 0-10.242 8.367-11.027 10.841-.377 1.187-1.116 2.159-1.642 2.159-.598 0-.926 20.647-.875 55.078.049 32.483-.299 55.558-.846 56.25-.51.644-1.466 2.846-2.125 4.891-1.119 3.476-7.464 9.781-9.842 9.781-.545 0-3.302.746-6.126 1.658-3.918 1.266-5.663 1.401-7.365.572-1.226-.597-3.819-1.345-5.761-1.662-3.556-.581-5.53-2.283-9.721-8.385-3.686-5.366-5.008-18.059-5.28-50.683-.132-15.95-.34-34.85-.462-42-.223-13.132-2.219-25.244-4.641-28.162-.708-.853-1.761-2.502-2.341-3.665-.579-1.162-2.622-3.138-4.539-4.39-1.917-1.252-4.364-2.953-5.438-3.78-1.075-.827-3.156-1.503-4.625-1.503-1.47 0-3.966-.183-5.547-.408-1.581-.224-5.772-.017-9.313.46m-855.845.953c-2.356.496-5.454 1.823-6.885 2.949-1.431 1.125-3.386 2.046-4.344 2.046-.959 0-2.293.663-2.966 1.474-.673.81-2.66 1.743-4.417 2.072-1.756.33-3.623 1.389-4.149 2.354-4.088 7.506-4.022 7.062-1.666 11.156 1.216 2.112 2.21 4.731 2.21 5.821 0 1.089.682 2.662 1.515 3.495.834.834 1.962 3.872 2.509 6.752.546 2.88 1.614 5.943 2.373 6.806.759.864 1.684 3.001 2.056 4.751.372 1.749 1.293 3.693 2.047 4.319.754.626 1.647 2.395 1.985 3.931 1.672 7.615 16.931 4.004 28.878-6.834 12.902-11.702 13.111-40.245.358-48.842-3.864-2.605-12.881-3.645-19.504-2.25m483.783.962c-9.077 1.714-14.937 3.486-21.5 6.501-1.65.758-4.219 1.682-5.709 2.053-1.49.371-3.233 1.306-3.872 2.077-.64.771-1.625 1.402-2.188 1.402-5.581 0-34.864 27.382-37.164 34.75-.386 1.237-1.091 2.25-1.567 2.25s-1.167 1.013-1.536 2.25-1.49 4.05-2.49 6.25c-8.276 18.199-11.108 35.37-9.243 56.044.644 7.138 1.764 13.512 2.687 15.297.87 1.683 1.589 4.095 1.597 5.359.008 1.265.664 3.425 1.457 4.8s1.925 3.625 2.515 5c1.549 3.611 1.799 4.083 4.494 8.5 1.342 2.2 2.952 5.237 3.577 6.75.626 1.513 1.513 2.75 1.972 2.75.46 0 1.103.843 1.43 1.874.618 1.948 17.919 20.126 19.155 20.126.387 0 2.994 1.718 5.794 3.817 4.573 3.43 7.581 5.168 16.921 9.783 21.889 10.816 61.189 10.487 82.868-.693 2.034-1.049 4.456-1.907 5.382-1.907 1.728 0 5.055-1.807 14.069-7.64 6.109-3.954 19.362-16.747 21.256-20.519.734-1.462 2.631-4.077 4.215-5.811 1.584-1.735 2.88-3.653 2.88-4.263 0-.61.618-1.82 1.374-2.688 2.316-2.661 9.656-20.197 11.335-27.079 3.033-12.432 2.903-37.382-.26-49.877-1.479-5.843-3.026-11.073-3.439-11.623-.412-.55-1.322-2.8-2.022-5-.7-2.2-1.884-4.888-2.63-5.973-.747-1.084-1.358-2.772-1.358-3.75 0-.977-.9-2.677-2-3.777s-2-2.597-2-3.326c0-.729-1.125-2.382-2.5-3.674-1.375-1.292-2.5-2.723-2.5-3.181 0-1.53-15.112-15.738-18.889-17.759-1.244-.666-3.024-1.973-3.956-2.905-2.557-2.557-24.839-13.155-27.659-13.155-.895 0-2.61-.553-3.812-1.229-6.399-3.599-31.947-4.587-46.684-1.804m285-.082c-3.762.356-7.891 1.458-9.803 2.615-13.527 8.192-16.749 17.815-15.87 47.407.708 23.846-.664 31.462-5.105 28.335-.947-.666-3.183-1.87-4.97-2.675-1.786-.805-3.811-2.707-4.5-4.227-.688-1.519-2.716-4.355-4.504-6.302-1.789-1.946-3.505-4.318-3.812-5.271-.308-.953-2.314-3.653-4.458-6-5.101-5.584-5.636-6.216-11.238-13.272-2.618-3.297-6.259-7.57-8.091-9.495-1.832-1.925-6.411-7.325-10.176-12-8.611-10.691-10.497-12.47-16.598-15.661-13.249-6.927-35.404 1.322-39.375 14.661-.41 1.375-1.252 3.132-1.872 3.905-1.172 1.46-1.174.735.211 105.64.572 43.319.875 50.375 2.253 52.5.875 1.35 1.887 3.657 2.249 5.125.816 3.316 8.462 11.092 12.587 12.8 1.689.7 3.072 1.668 3.072 2.151 0 1.973 18.585.994 21.273-1.121 1.398-1.1 2.969-2 3.49-2 .855 0 8.056-6.803 10.866-10.265 2.931-3.612 4.628-17.069 3.481-27.613-1.778-16.338-.629-35.936 2.276-38.842 2.355-2.354 9.638 2.124 15.114 9.295a114.86 114.86 0 0 0 4.25 5.168c1.237 1.402 2.25 2.868 2.25 3.257 0 .389 1.013 1.82 2.25 3.179 3.655 4.014 8.437 9.917 13.221 16.321 2.466 3.3 5.506 7.257 6.756 8.794 1.25 1.537 2.446 3.294 2.658 3.905.212.611 1.899 2.5 3.75 4.199 1.851 1.698 3.365 3.47 3.365 3.937 0 2.351 13.24 16.303 16.375 17.256 1.169.355 2.889 1.316 3.823 2.135 2.904 2.548 16.408 2.233 21.287-.497 2.192-1.226 4.562-2.229 5.266-2.229 1.198 0 3.411-2.123 8.245-7.907 4.978-5.958 5.042-7.819 3.733-107.862-.73-55.753-.997-58.736-6.026-67.231-2.259-3.816-7.474-9-9.054-9-.546 0-1.714-.654-2.596-1.452-2.044-1.85-7.785-2.444-16.053-1.663m-544 8.106c-11.981 1.519-19.634 8.556-22.579 20.763-2.5 10.363-.759 150.814 1.93 155.746.9 1.65 1.639 3.629 1.643 4.397.012 2.653 7.104 10.047 12.296 12.821l5.21 2.782 28.5-.031c28.694-.031 49.793-1.497 57.5-3.994 2.2-.713 5.887-1.597 8.192-1.964 2.306-.367 4.685-1.26 5.286-1.985.601-.724 2.609-1.601 4.461-1.949 1.852-.347 3.6-1.236 3.884-1.976.283-.739 1.786-1.662 3.338-2.052 1.552-.39 3.501-1.356 4.331-2.147.829-.792 4.208-3.57 7.508-6.175 10.682-8.432 22.724-22.887 26.013-31.227.326-.825 1.434-3.3 2.463-5.5 1.03-2.2 2.162-5.125 2.517-6.5.354-1.375 1.248-3.85 1.987-5.5 3.585-8.014 5.376-31.299 3.104-40.356-.779-3.104-1.735-8.108-2.125-11.12-.39-3.011-1.283-6.386-1.986-7.5-.702-1.113-1.6-3.569-1.994-5.457-.731-3.495-6.891-15.67-10.829-21.403-6.469-9.417-23.491-24.475-32.65-28.881-1.375-.662-3.573-2.009-4.885-2.993-1.312-.985-3.394-1.79-4.627-1.79-1.234 0-2.785-.653-3.447-1.451-.663-.798-3.305-1.741-5.873-2.095-2.567-.354-6.887-1.276-9.6-2.049-5.301-1.51-68.332-1.838-79.568-.414m-227.741 4.714c-5.236 1.009-7.157 10.91-3.259 16.795 1.093 1.65 1.99 3.847 1.993 4.882.016 4.456 3.939 8.618 8.124 8.618 7.951 0 13.197-6.475 13.312-16.432.128-11.072-7.491-16.309-20.17-13.863m495.997 45.214c-1.784.454-3.809 1.271-4.5 1.816-.691.544-2.482 1.282-3.98 1.64-4.564 1.089-17.776 11.201-17.776 13.604 0 .445-1.286 2.186-2.857 3.868-1.571 1.682-3.393 5.217-4.048 7.855-.656 2.639-1.62 6.18-2.143 7.869-4.891 15.782 7.899 40.302 25.548 48.979 9.468 4.655 31.041 4.484 40.25-.319 3.438-1.793 6.25-3.703 6.25-4.245 0-.542.586-.986 1.301-.986 3.122 0 13.688-13.867 13.705-17.985.004-.833.78-2.865 1.726-4.515 1.313-2.292 1.716-5.359 1.708-13-.011-10.251-.41-11.741-6.251-23.36-1.979-3.938-11.837-14.14-13.663-14.14-.691 0-2.4-.9-3.799-2-1.398-1.1-3.146-2.003-3.885-2.006-.738-.004-2.692-.744-4.342-1.645-3.41-1.863-18.017-2.762-23.244-1.43m-226.588 2.744c-5.272.904-6.021 4.899-5.309 28.337.342 11.275.626 28.508.632 38.295.012 23.528-.27 23.155 16.784 22.167 6.489-.376 12.625-1.243 13.74-1.94 1.108-.693 3.519-1.59 5.357-1.994 6.762-1.485 22.128-15.696 22.128-20.464 0-.89.788-2.732 1.75-4.091 1.452-2.052 1.748-4.685 1.736-15.473-.014-12.727-.083-13.131-3.284-19.262-4.146-7.941-12.499-16.196-19.929-19.696-3.175-1.495-7.123-3.415-8.773-4.266-3.038-1.566-19.04-2.605-24.832-1.613" fill-rule="evenodd"/>
</svg>