<!DOCTYPE svg PUBLIC "-//W3C//DTD SVG 1.1//EN" "http://www.w3.org/Graphics/SVG/1.1/DTD/svg11.dtd">
<svg xmlns="http://www.w3.org/2000/svg" viewBox="0 0 216 301">
<path fill="#0c0c0c" d="M94.23 13.115c-5.267 2.607-10.528 8.598-12.069 13.743C81.367 29.508 81 42.943 81 69.385v38.653l-2.75-.769c-8.908-2.491-19.761.601-24.661 7.026-4.721 6.188-5.589 9.759-5.589 22.978v12.338l-12.572 9.886c-20.36 16.01-23.365 19.97-23.406 30.841-.025 6.683-.751 4.903 21.816 53.504 15.992 34.439 17.258 36.749 24.614 44.908l4.733 5.25h104.399l4.066-4.25c8.983-9.388 15.916-23.214 18.73-37.351 3.563-17.902 4.634-91.363 1.534-105.262-2.954-13.244-17.629-21.226-29.776-16.194-2.814 1.165-3.13 1.021-7.044-3.225-5.199-5.641-12.649-8.281-20.697-7.335l-5.397.634-.022-46.258c-.024-51.604.097-50.625-7.106-57.458-6.93-6.576-19.093-8.417-27.642-4.186m5.968 11.518c-6.384 3.224-6.196 1.201-6.213 67.067-.009 32.89-.346 60.295-.75 60.9-2.776 4.157-9.497 3.471-11.253-1.147-.54-1.421-.982-7.533-.982-13.584 0-6.132-.494-11.967-1.117-13.185-3.631-7.1-12.298-7.459-17.601-.73-.901 1.144-1.231 10.393-1.265 35.546-.052 37.792-.198 38.772-5.883 39.32-6.399.618-7.134-1.182-7.134-17.475 0-7.89-.236-14.345-.523-14.345-1.092 0-19.432 15.098-20.919 17.221-3.412 4.871-2.302 8.213 15.62 47.052 16.172 35.048 23.609 48.664 27.368 50.106.89.342 22.044.621 47.01.621h45.392l4.998-7.117c9.496-13.521 11.507-22.343 13.213-57.946.896-18.705.952-31.419.207-47.399l-1.018-21.838-3.19-2.85c-3.64-3.252-6.629-3.592-10.185-1.158-3.772 2.581-3.941 3.138-3.958 13.019-.016 10.08-1.635 13.289-6.704 13.289-5.172 0-6.311-2.897-6.311-16.05 0-16.099-2.567-20.95-11.088-20.95-7.296 0-8.912 2.614-8.912 14.418 0 8.681-.283 10.528-1.829 11.927-2.756 2.495-6.699 2.07-9.098-.98-2.046-2.601-2.073-3.428-2.073-64.435 0-36.855-.386-62.814-.955-64.313-1.987-5.224-9.426-7.722-14.847-4.984" fill-rule="evenodd"/>
</svg>