<!DOCTYPE svg PUBLIC "-//W3C//DTD SVG 1.1//EN" "http://www.w3.org/Graphics/SVG/1.1/DTD/svg11.dtd">
<svg xmlns="http://www.w3.org/2000/svg" viewBox="0 0 236 351">
<path fill="#fbfbfb" stroke="#fbfbfb" d="M105.75 33.255c-1.999 3.055-2.184 5.767-.734 10.752 2.738 9.413 2.799 13.909.249 18.288-1.928 3.311-5.986 4.851-6.652 2.525-.207-.726-.949-3.345-1.648-5.82-1.164-4.121-4.055-8-5.961-8-.426 0-.581 2.587-.344 5.75.693 9.253-.681 14.75-3.688 14.75-1.359 0-2.479-.45-2.487-1-.121-7.876-12.264-.642-13.224 7.878-.502 4.457-1.141 5.409-2.629 3.921-1.416-1.417-8.667-1.121-10.204.416-1.37 1.37-1.316 1.675.522 2.963 2.774 1.943 2.578 3.76-.561 5.191-2.04.929-2.508 1.729-2.14 3.654.377 1.971-.39 3.171-3.822 5.984l-4.294 3.518.067-2.763c.038-1.519-.796-4.296-1.852-6.172C44.16 91.203 41 90.059 41 93.154c0 3.32-1.743 5.532-4.198 5.328-2.689-.224-2.683-1.099.056-8.305C38.815 85.028 38.806 82 36.834 82c-.524 0-.674.45-.334 1s.236 1-.23 1c-.467 0-1.932 2.461-3.257 5.469-1.324 3.009-2.623 5.254-2.886 4.991-.773-.772-3.333 6.682-3.843 11.189-.371 3.278.208 5.51 2.753 10.624 2.8 5.626 3.104 6.972 2.321 10.281-.975 4.125-6.133 8.233-7.593 6.047-.976-1.463-.974-4.848.003-4.244 1.148.709.178-7.646-1.066-9.183-1.106-1.366-4.564 3.584-4.66 6.672-.023.74-1.054 2.759-2.292 4.487-4.302 6.007-5.984 10.906-5.81 16.926.154 5.364 3.073 14.395 4.266 13.202.872-.872 1.74 5.103 1.189 8.181-.282 1.572-.936 3.008-1.454 3.191-.517.184-.941 2.085-.941 4.226s-.869 5.322-1.931 7.068c-1.732 2.848-1.792 3.548-.584 6.775.741 1.979 1.634 6.743 1.984 10.588.378 4.158 1.169 7.288 1.953 7.726.968.542 1.1 1.739.497 4.511l-1.908 8.773c-2.191 10.078-1.66 30.714.896 34.85 1.241 2.008 2.782 3.644 3.425 3.636 2.873-.033 5.637-1.337 6.028-2.844 3.002-11.564 2.877-11.299 5.04-10.772 1.155.282 2.974-.136 4.041-.929 2.759-2.048 3.559-1.801 3.559 1.1 0 4.955 4.866 18.934 6.609 18.985 1.702.05 4.106 1.987 5.309 4.278l1.21 2.303 1.936-2.461c1.065-1.354 1.936-3.1 1.936-3.879 0-1.562 4.08-5.777 5.564-5.75.515.01 2.012 1.152 3.328 2.539 2.459 2.592 2.562 5.749.621 19.15-.958 6.622 4.219 3.862 8.87-4.728 2.448-4.521 4.356-5.978 7.829-5.978h2.831l-.145 7.498c-.091 4.683.318 8.057 1.089 8.987.981 1.182.97 2.825-.056 7.987-1.29 6.488-1.026 8.322 1.017 7.06 1.647-1.018 4.802-7.682 5.567-11.759 1.812-9.658 11.137-1.051 9.785 9.03-.31 2.308-.879 4.197-1.265 4.197-.821 0-.948.624-1.67 8.196-.463 4.849-.233 6.029 1.546 7.938l2.089 2.243v-3.75c0-4.247 3.707-12.698 7.469-17.026 2.561-2.947 4.515-8.28 4.525-12.351.004-1.539.604-2.25 1.9-2.25 2.071 0 1.437-5.895-1.064-9.901-2.171-3.477-.385-5.099 5.614-5.099h5.506l-.691 3.25c-1.012 4.762-.902 9.019.241 9.343 1.022.29 8.5-8.864 8.5-10.405 0-.843 2.889-2.492 6.25-3.566 1.464-.468 1.75.081 1.75 3.362 0 4.108 1.723 9.016 3.165 9.016.464 0 1.826-2.25 3.027-5 2.319-5.312 4.244-6.352 5.344-2.886.445 1.402-.038 3.073-1.432 4.96-1.157 1.565-2.104 3.313-2.104 3.886 0 .572-.45 1.04-1 1.04-1.104 0-1.295 3.297-.388 6.681.717 2.672 2.992 2.033 3.768-1.058.308-1.228 2.568-4.269 5.021-6.758 4.013-4.07 4.531-5.144 5.159-10.695.579-5.113 1.019-6.17 2.569-6.17 1.46 0 1.871-.745 1.871-3.393 0-2.179.569-3.611 1.59-4.003 2.476-.95 3.664.376 3.057 3.413-.681 3.405.296 9.983 1.484 9.983.478 0 .869-.9.869-2s.45-2 1-2 1-1.312 1-2.917c0-1.604.501-3.083 1.114-3.288.613-.204 1.26-1.695 1.437-3.312.178-1.618.801-3.1 1.386-3.295.585-.195 1.075-1.105 1.091-2.021.026-1.564 1.356-3.032 8.289-9.154l2.817-2.487 1.958 2.487c4 5.081 7.285 13.348 7.212 18.153-.054 3.549.258 4.556 1.286 4.161 1.213-.465 1.71-2.247 2.823-10.114.178-1.258-.34-5.083-1.15-8.5-2.784-11.736-2.74-15.044.272-20.183 2.679-4.57 2.743-4.608 4.551-2.668 1.008 1.082 2.141 3.243 2.517 4.803.835 3.465 5.02 11.984 6.265 12.753.498.308 1.431-.074 2.074-.848.907-1.093.844-1.595-.281-2.239-2.031-1.164-2.427-9.473-.83-17.389 1.21-5.996 1.152-7.064-.674-12.473-1.796-5.319-1.854-6.258-.577-9.314.781-1.87 1.42-4.754 1.42-6.409 0-2.242 1.17-4.179 4.588-7.597 7.414-7.414 8.489-11.502 6.451-24.532a475.65 475.65 0 0 1-1.591-11.117c-.617-4.851-2.448-8.742-2.448-5.2 0 .935-.45 1.7-1 1.7s-1 1.069-1 2.375c0 4.289-1.245 8.71-2.349 8.342-.596-.199-1.931-3.239-2.967-6.755l-1.883-6.394 2.655-2.284c1.461-1.256 3.488-2.284 4.506-2.284 1.388 0 1.713-.525 1.301-2.102-.302-1.157.007-2.447.687-2.867 2.26-1.397 1.193-22.164-1.46-28.398-1.287-3.027-3.365 1.877-2.747 6.485.636 4.745-.368 8.882-2.155 8.882-1.666 0-2.588-2.168-2.588-6.082 0-2.226-.462-2.918-1.949-2.918-2.173 0-7.051 5.773-7.051 8.344 0 .911-.499 1.656-1.109 1.656-1.348 0-.704-4.914 1.354-10.335 1.614-4.251.892-11.344-1.292-12.694-1.803-1.114-3.953-.061-3.953 1.936 0 2.677-2.017 4.154-4.13 3.023-3.478-1.861-4.147-4.638-2.29-9.502 2.222-5.816 1.445-17.026-1.529-22.065-1.128-1.913-2.051-5.027-2.051-6.92 0-2.21-.48-3.443-1.339-3.443-2.296 0-3.802 4.88-3.051 9.887.765 5.097.732 5.606-.36 5.628-.412.009-1.25.334-1.861.723-1.78 1.134-2.389-.244-2.389-5.405 0-4.742-.474-5.346-3.838-4.888-.899.123-1.145-.494-.75-1.881l1.195-4.189c.404-1.414.237-1.897-.5-1.441-.676.417-1.107-.137-1.107-1.425 0-3.038-2.312-7.012-6.324-10.867-2.05-1.97-3.757-4.76-4.13-6.75-.877-4.676-3.334-4.441-3.752.358-.357 4.095 1.291 8.494 4.494 11.996 1.805 1.975 1.895 2.544.742 4.697-1.686 3.152-3.944 4.016-4.675 1.79-.313-.953-1.196-3.151-1.962-4.884-.766-1.733-1.393-3.844-1.393-4.691s-.562-1.864-1.25-2.259c-.687-.396-.943-.378-.568.04.376.417-.237 2.523-1.36 4.679-2.4 4.604-1.902 11.063 1.251 16.234 3.054 5.008 2.616 7.051-1.323 6.176-1.787-.397-3.817-.754-4.511-.792-1.309-.072-4.559-9.409-3.738-10.738.544-.88-2.347-7.034-3.992-8.498-.618-.55-2.342-2.913-3.831-5.25-1.488-2.337-3.19-4.25-3.781-4.25-1.076 0-.768 7.473.621 15.02.89 4.839-1.631 6.989-8.934 7.622-5.415.469-7.791-1.16-4.584-3.142 1.842-1.139 1.025-2.5-1.5-2.5-2.255 0-2.5-.397-2.5-4.05 0-4.485-1.716-8.478-4.872-11.335-2.817-2.549-6.437-10.243-7.091-15.074l-.537-3.96-1.75 2.674m-3.697 48.273C93.941 82.996 80 87.721 80 89.002c0 1.195 6.358.372 9.633-1.248 4.779-2.363 19.187-4.259 31.617-4.161 8.662.068 11.75-.23 11.75-1.134 0-2.773-17.807-3.309-30.947-.931m-52.576 29.578c-11.105 12.128-18.585 26.768-22.019 43.094-1.785 8.485-1.794 8.014.146 7.623 1.111-.224 2.312-3.125 3.904-9.43 3.685-14.596 10.976-28.829 19.22-37.523 2.298-2.422 3.331-4.382 3.107-5.893-.31-2.094-.638-1.934-4.358 2.129m74.707-.365c.384 3.329 2.665 3.959 7.982 2.204 6.655-2.196 4.534-4.945-3.814-4.945-4.299 0-4.472.113-4.168 2.741M127 111c0 1.333.667 2 2 2s2-.667 2-2-.667-2-2-2-2 .667-2 2m18.638-.5c-1.448 3.773 2.002 6.5 8.225 6.5 6.574 0 9.791-5.532 4.132-7.106-4.795-1.335-11.743-.994-12.357.606M151 113c0 1.333.667 2 2 2s2-.667 2-2-.667-2-2-2-2 .667-2 2m38.043.856c-.024 1.296 1.237 3.996 2.802 6 1.564 2.004 4.528 6.681 6.586 10.394 3.265 5.891 6.569 8.783 6.569 5.75 0-1.972-8.361-15.901-12.1-20.157-3.466-3.946-3.819-4.128-3.857-1.987M164 130.441c0 .793.403 1.69.895 1.994 1.03.636 2.271-1.936 1.369-2.837-1.073-1.073-2.264-.63-2.264.843m-4.75 1.221c-1.453.586-1.666 2.963-.34 3.782 1.73 1.07 3.879-.533 3.363-2.509-.521-1.99-.875-2.139-3.023-1.273m31.917-.162c-1.118 6.61-6.26 35.612-6.648 37.5-.283 1.375.381-.2 1.474-3.5 2.803-8.457 6.19-26.986 5.73-31.34-.213-2.013-.463-3.21-.556-2.66m-38.045 3.404c-1.788 1.132-.559 3.096 1.937 3.096 2.141 0 2.212-.13 1.334-2.418-.688-1.794-1.307-1.923-3.271-.678M146.5 138c.34.55 1.266 1 2.059 1 .793 0 1.441-.45 1.441-1s-.927-1-2.059-1c-1.132 0-1.781.45-1.441 1m20.19 19.35c-1.501 2.291-1.479 2.472.356 2.952 2.425.634 2.607 2.626.204 2.239-2.657-.428-3.365.376-2.218 2.52 2.595 4.848 7.326.767 6.776-5.845-.375-4.499-2.81-5.387-5.118-1.866m-14.002-.704c-1.491 1.49-.636 3.153 1.353 2.633 1.122-.293 1.882-1.011 1.687-1.594-.45-1.352-2.148-1.932-3.04-1.039M158.5 160c-.34.55-.34 1.45 0 2 1.044 1.689 3.238 1.11 3.79-1 .56-2.142-2.573-2.969-3.79-1m-121.75 2.662c.688.278 1.813.278 2.5 0 .688-.277.125-.504-1.25-.504s-1.937.227-1.25.504m5.042.014c1.055.424 1.055.821 0 2.171-1.154 1.477-1.106 1.507.458.281.962-.755 1.75-1.768 1.75-2.25 0-.483-.788-.842-1.75-.799-1.113.05-1.28.268-.458.597M26.5 165c-1.319.567-1.489.878-.5.914.825.031 2.175-.381 3-.914 1.828-1.181.249-1.181-2.5 0m3.5 5c-.825.533-1.05.969-.5.969s1.675-.436 2.5-.969c.825-.533 1.05-.969.5-.969s-1.675.436-2.5.969m11.459 3.067c-.363.586-.445 1.281-.183 1.543s.743-.218 1.069-1.067c.676-1.762.1-2.072-.886-.476m140.808 3.215c-.623 2.32-1.453 5.118-1.846 6.218-.477 1.333-.382 1.667.284 1 1.165-1.165 3.78-10.348 3.132-10.997-.242-.241-.948 1.459-1.57 3.779m-164.188-.699c.048 1.165.285 1.402.604.605.289-.722.253-1.585-.079-1.917-.332-.332-.568.258-.525 1.312m95.952.917c0 .55.436 1.675.969 2.5.533.825.969 1.05.969.5s-.436-1.675-.969-2.5c-.533-.825-.969-1.05-.969-.5m-56.107 3.25L55.5 182.5l2.75-2.424c2.57-2.266 3.209-3.076 2.424-3.076-.179 0-1.416 1.238-2.75 2.75m38.676-2.076c.605.454 1.385 1.501 1.732 2.326.445 1.054.564.93.4-.417-.127-1.055-.907-2.101-1.732-2.326-.965-.263-1.107-.114-.4.417m5.4-.191c0 .33.956 1.594 2.123 2.809l2.124 2.208-1.129-2.194c-1.117-2.172-3.118-3.983-3.118-2.823m32.5.517c-.34.55-.141 1 .441 1s1.059-.45 1.059-1-.198-1-.441-1-.719.45-1.059 1m-45.342 2c0 1.375.227 1.938.504 1.25.278-.687.278-1.812 0-2.5-.277-.687-.504-.125-.504 1.25m23.921.583c.048 1.165.285 1.402.604.605.289-.722.253-1.585-.079-1.917-.332-.332-.568.258-.525 1.312m13.432 1.04c-.945 1.443-1.224 2.318-.62 1.944 1.154-.713 3.483-4.567 2.759-4.567-.231 0-1.193 1.18-2.139 2.623m-83.887-.084c-.965 2.514-.681 3.163.498 1.136.584-1.004.851-2.036.593-2.293-.257-.258-.749.263-1.091 1.157m15.883.45c-.35.566.051.734.941.393 1.732-.665 2.049-1.382.611-1.382-.518 0-1.216.445-1.552.989m42.688 2.511c.02 1.65.244 2.204.498 1.231.254-.973.237-2.323-.037-3-.274-.677-.481.119-.461 1.769M16 184.5c-.718.865-.815 1.5-.229 1.5.558 0 1.274-.675 1.591-1.5.316-.825.419-1.5.229-1.5-.19 0-.906.675-1.591 1.5m19.624 1.039c-.965 2.514-.681 3.163.498 1.136.584-1.004.851-2.036.593-2.293-.257-.258-.749.263-1.091 1.157M80 185c-.901.582-1.025.975-.309.985.655.008 1.469-.435 1.809-.985.767-1.242.421-1.242-1.5 0m50.065.421c-.968 1.167-.81 1.325.878.884 1.131-.296 2.057-.936 2.057-1.422 0-1.348-1.614-1.053-2.935.538m-67.623.673c-.372.602-1.735.892-3.029.645-1.294-.248-2.115-.065-1.824.405.847 1.371 4.056.989 5.411-.644.685-.825.991-1.5.681-1.5-.309 0-.867.492-1.239 1.094m19.942 1.18L80.5 189.5l2.146-1.811c1.657-1.398 2.266-1.512 2.671-.5.352.88.551.919.604.12.149-2.244-1.654-2.262-3.537-.035m37.778.269c-1.675 3.677-1.355 4.462.456 1.119.846-1.562 1.351-3.026 1.123-3.255-.229-.228-.939.733-1.579 2.136m4.033-.043c.02 1.65.244 2.204.498 1.231.254-.973.237-2.323-.037-3-.274-.677-.481.119-.461 1.769m-49.805-.073c-.302.785-.349 2.473-.105 3.75.397 2.082.457 2.037.579-.427.075-1.512.586-2.75 1.136-2.75.55 0 1-.45 1-1 0-1.519-1.988-1.194-2.61.427m37.689.156c.048 1.165.285 1.402.604.605.289-.722.253-1.585-.079-1.917-.332-.332-.568.258-.525 1.312M66.252 190.5c.011 2.2.216 2.982.455 1.738.239-1.244.23-3.044-.02-4s-.446.062-.435 2.262m48.943-1c.02 1.65.244 2.204.498 1.231.254-.973.237-2.323-.037-3-.274-.677-.481.119-.461 1.769m-74.1 1.75c-2.159 2.084-3.143 2.604-2.742 1.448.37-1.068.221-1.553-.364-1.191-1.082.668-1.373 3.493-.36 3.493.346 0 2.372-1.575 4.503-3.5 2.13-1.925 3.526-3.5 3.102-3.5-.425 0-2.287 1.463-4.139 3.25m29.984-1.667c.048 1.165.285 1.402.604.605.289-.722.253-1.585-.079-1.917-.332-.332-.568.258-.525 1.312m37.921.448c0 .533.675.969 1.5.969s1.5-.177 1.5-.393c0-.216-.675-.652-1.5-.969-.825-.316-1.5-.139-1.5.393m39.155 13.219c-1.8 7.838-3.404 14.925-3.564 15.75-.161.825.541 2.088 1.559 2.807 3.664 2.587 1.873 8.206-3.938 12.358-2.969 2.122-4.608 9.984-2.436 11.684 2.627 2.056 9.134 4.707 14.972 6.099 2.886.687 4.997 1.656 4.691 2.151-.875 1.415-3.94 1.071-10.416-1.17-6.971-2.413-7.809-2.122-8.626 2.99-.925 5.782-1.39 6.086-11.227 7.328-17.605 2.222-36.639-1.472-52.964-10.277-4.783-2.58-7.868-3.708-8.476-3.1-1.529 1.529-.351 2.491 8.459 6.906 48.109 24.11 105.084 4.464 127.832-44.08 2.188-4.67 3.979-8.987 3.979-9.593 0-2.547-5.233-.998-8.564 2.533-5.718 6.063-12.055 4.354-26.197-7.064-6.334-5.114-8.873-6.573-11.44-6.578-1.814-.004-4.588-.679-6.163-1.5-1.576-.822-3.167-1.494-3.536-1.494-.37 0-2.145 6.412-3.945 14.25m-69.283-11.5c-1.243 1.586-1.208 1.621.378.378.963-.755 1.75-1.543 1.75-1.75 0-.823-.821-.294-2.128 1.372m25.512-.308c-.304.792-.342 2.255-.085 3.25.372 1.432.493 1.34.585-.442.064-1.238.566-2.25 1.116-2.25.55 0 1-.45 1-1 0-1.526-1.99-1.191-2.616.442m31.716.853c-1.265 2.107-1.243 2.128.479.479.991-.95 1.587-1.942 1.324-2.205-.263-.263-1.074.514-1.803 1.726m-93.392 4.316c-2.086 2.964-3.587 5.389-3.336 5.389.701 0 7.919-10.047 7.498-10.436-.204-.189-2.077 2.082-4.162 5.047m44.371-4.028c.048 1.165.285 1.402.604.605.289-.722.253-1.585-.079-1.917-.332-.332-.568.258-.525 1.312M125 191.378c0 .207.787.995 1.75 1.75 1.586 1.243 1.621 1.208.378-.378-1.307-1.666-2.128-2.195-2.128-1.372m-28.921 3.205c.048 1.165.285 1.402.604.605.289-.722.253-1.585-.079-1.917-.332-.332-.568.258-.525 1.312m11.891.361c.573 1.07 1.535 2.25 2.139 2.623.604.374.325-.501-.62-1.944-2.002-3.055-3.038-3.518-1.519-.679m12.03-.003c0 .518.445 1.216.989 1.552.566.35.734-.051.393-.941-.665-1.732-1.382-2.049-1.382-.611M70.158 198c0 1.375.227 1.938.504 1.25.278-.687.278-1.812 0-2.5-.277-.687-.504-.125-.504 1.25m15.301-.933c-.363.586-.445 1.281-.183 1.543s.743-.218 1.069-1.067c.676-1.762.1-2.072-.886-.476m-64.38 1.516c.048 1.165.285 1.402.604.605.289-.722.253-1.585-.079-1.917-.332-.332-.568.258-.525 1.312m-5 1c.048 1.165.285 1.402.604.605.289-.722.253-1.585-.079-1.917-.332-.332-.568.258-.525 1.312M65 199.25c0 .871-.562 1.81-1.25 2.088-.979.395-.972.521.031.583 1.426.088 2.818-2.655 1.843-3.631-.343-.343-.624.089-.624.96m27.07-.167c-.038.871.226 1.88.588 2.242.839.839 3.352-1.208 3.312-2.697-.017-.621-.541-.248-1.165.828-1.126 1.941-1.14 1.941-1.899 0-.564-1.44-.784-1.539-.836-.373m33.199-.39c.973.254 2.323.237 3-.037.677-.274-.119-.481-1.769-.461-1.65.02-2.204.244-1.231.498m-93.19 1.89c.048 1.165.285 1.402.604.605.289-.722.253-1.585-.079-1.917-.332-.332-.568.258-.525 1.312M48 202.941c0 .518.445 1.216.989 1.552.566.35.734-.051.393-.941-.665-1.732-1.382-2.049-1.382-.611m-16 1.5c0 .793.408 1.693.907 2.001.498.309.671-.34.383-1.441-.611-2.335-1.29-2.63-1.29-.56m3.872.309c-1.243 1.586-1.208 1.621.378.378 1.666-1.307 2.195-2.128 1.372-2.128-.207 0-.995.787-1.75 1.75m72.473-.207c-.326.849-.369 1.767-.096 2.04.274.273.737-.422 1.03-1.543.624-2.383-.069-2.751-.934-.497m30.405-.881c.688.278 1.813.278 2.5 0 .688-.277.125-.504-1.25-.504s-1.937.227-1.25.504M26 206c.589 1.1 1.295 2 1.57 2 .275 0 .019-.9-.57-2s-1.295-2-1.57-2c-.275 0-.019.9.57 2m108-1c-.901.582-1.025.975-.309.985.655.008 1.469-.435 1.809-.985.767-1.242.421-1.242-1.5 0m-94.595 1.155c-.452.73-.274.882.484.413.659-.407 1.966-.139 2.905.596 1.537 1.203 1.57 1.162.334-.414-1.596-2.035-2.723-2.215-3.723-.595m-17.946 1.912c-.363.586-.445 1.281-.183 1.543s.743-.218 1.069-1.067c.676-1.762.1-2.072-.886-.476m103.791.922c-4.515 2.753-4.093 3.426.5.797 4.62-2.645 4.806-2.787 3.667-2.782-.505.002-2.38.895-4.167 1.985M133 211c-1.925 1.054-3.14 1.935-2.7 1.958 1.059.056 6.7-2.877 6.7-3.484 0-.654-.059-.632-4 1.526m-97.046 1.086c-.614 1.147-.928 2.274-.697 2.504.23.23.932-.708 1.559-2.086 1.378-3.024.707-3.35-.862-.418m52.859.597c.721.289 1.584.253 1.916-.079.332-.332-.258-.568-1.312-.525-1.165.048-1.402.285-.604.604m29.51 1.567c-1.114 1.238-2.383 2.925-2.821 3.75-.844 1.591-.614 1.374 3.437-3.25 1.325-1.512 2.185-2.75 1.91-2.75-.275 0-1.412 1.012-2.526 2.25m-35.741.066c-1.075.787-1.601 2.094-1.307 3.25.443 1.739.505 1.715.609-.233.075-1.396 1.094-2.524 2.866-3.171 1.513-.552 2.049-1.04 1.191-1.083-.857-.043-2.369.513-3.359 1.237m-63.503 1.267c.048 1.165.285 1.402.604.605.289-.722.253-1.585-.079-1.917-.332-.332-.568.258-.525 1.312m26.079.417c0 1.375.227 1.938.504 1.25.278-.687.278-1.812 0-2.5-.277-.687-.504-.125-.504 1.25m-16.079.583c.048 1.165.285 1.402.604.605.289-.722.253-1.585-.079-1.917-.332-.332-.568.258-.525 1.312m29.199.667c-1.499 1.938-2.442 3.75-1.952 3.75.244 0 1.181-1.125 2.082-2.5 1.686-2.573 1.592-3.476-.13-1.25m66.752.378c-.044 1.65 2.696 3.644 4.186 3.045.827-.332.679-.543-.416-.594-.935-.043-2.159-.866-2.72-1.829-.561-.963-1.033-1.243-1.05-.622M18.158 220c0 1.375.227 1.938.504 1.25.278-.687.278-1.812 0-2.5-.277-.687-.504-.125-.504 1.25M33 219.762c0 .602-.707 1.802-1.571 2.667-.865.864-1.106 1.571-.536 1.571 1.266 0 3.497-3.944 2.688-4.752-.32-.32-.581-.088-.581.514m47.079 2.821c.048 1.165.285 1.402.604.605.289-.722.253-1.585-.079-1.917-.332-.332-.568.258-.525 1.312m54.19-.89c.973.254 2.323.237 3-.037.677-.274-.119-.481-1.769-.461-1.65.02-2.204.244-1.231.498m-68.237.866c.017.517.692 1.815 1.5 2.882.807 1.068 1.454 1.518 1.436 1-.017-.517-.692-1.815-1.5-2.882-.807-1.068-1.454-1.518-1.436-1m75.468.596c1.1.601 2.563 1.799 3.25 2.66.688.862 1.25 1.057 1.25.433 0-1.271-3.885-4.265-5.473-4.218-.565.017-.127.523.973 1.125m-40.263 2.605c-1.168 2.491-1.14 2.572.366 1.066.896-.896 1.464-2.109 1.263-2.695-.201-.586-.935.147-1.629 1.629m-84.079.24c0 1.375.227 1.938.504 1.25.278-.687.278-1.812 0-2.5-.277-.687-.504-.125-.504 1.25m72.592-1.338c.688.278 1.813.278 2.5 0 .688-.277.125-.504-1.25-.504s-1.937.227-1.25.504M23 226.476c0 .903.412 1.388.915 1.077.503-.311 1.17 0 1.482.691.312.691.463.393.335-.661-.288-2.376-2.732-3.366-2.732-1.107m13.658.973c-.372.969-.076 1.265.893.893 1.582-.607 1.994-2.342.556-2.342-.491 0-1.143.652-1.449 1.449m93.698 3.14c-.079 1.319.259 2.149.75 1.845 1.086-.671 1.18-3.139.144-3.779-.412-.255-.815.616-.894 1.934m-95.792 1.118c-.542 1.425-.428 1.54.56.56.684-.679.991-1.486.683-1.793-.308-.308-.867.247-1.243 1.233m38.515-.124c.048 1.165.285 1.402.604.605.289-.722.253-1.585-.079-1.917-.332-.332-.568.258-.525 1.312M16.158 233c0 1.375.227 1.938.504 1.25.278-.687.278-1.812 0-2.5-.277-.687-.504-.125-.504 1.25m121.342.588-3 2.577 3.5-2.259c4.49-2.897 4.501-2.907 3.417-2.901-.505.003-2.267 1.165-3.917 2.583M22.252 235.5c.011 2.2.216 2.982.455 1.738.239-1.244.23-3.044-.02-4s-.446.062-.435 2.262m28.827-1.917c.048 1.165.285 1.402.604.605.289-.722.253-1.585-.079-1.917-.332-.332-.568.258-.525 1.312m55.021 2.712c-1.265 2.107-1.243 2.128.479.479.991-.95 1.587-1.942 1.324-2.205-.263-.263-1.074.514-1.803 1.726m-60.021 1.288c.048 1.165.285 1.402.604.605.289-.722.253-1.585-.079-1.917-.332-.332-.568.258-.525 1.312m31 0c.048 1.165.285 1.402.604.605.289-.722.253-1.585-.079-1.917-.332-.332-.568.258-.525 1.312m20.734-.9c.721.289 1.584.253 1.916-.079.332-.332-.258-.568-1.312-.525-1.165.048-1.402.285-.604.604M121 237c-.825.533-1.05.969-.5.969s1.675-.436 2.5-.969c.825-.533 1.05-.969.5-.969s-1.675.436-2.5.969m9.861 1.059-2.361 2.06 2.75-1.675c1.512-.921 2.75-1.847 2.75-2.059 0-.781-.835-.335-3.139 1.674M85.257 238c.225.825 1.271 1.605 2.326 1.732 1.347.164 1.471.045.417-.4-.825-.347-1.872-1.127-2.326-1.732-.531-.707-.68-.565-.417.4m-21.385 1.75c-1.243 1.586-1.208 1.621.378.378 1.666-1.307 2.195-2.128 1.372-2.128-.207 0-.995.787-1.75 1.75m-34 1c-1.243 1.586-1.208 1.621.378.378.962-.755 1.75-1.543 1.75-1.75 0-.823-.821-.294-2.128 1.372M46.158 242c0 1.375.227 1.938.504 1.25.278-.687.278-1.812 0-2.5-.277-.687-.504-.125-.504 1.25m77.092 1.099c-2.338 1.656-4.25 3.233-4.25 3.504 0 .271 2.025-.9 4.5-2.603 2.475-1.703 4.5-3.299 4.5-3.548 0-.688-.19-.583-4.75 2.647m-12.845.151-1.905 2.25 2.25-1.905c2.114-1.79 2.705-2.595 1.905-2.595-.19 0-1.202 1.012-2.25 2.25M68.1 244.295c-1.265 2.107-1.243 2.128.479.479.991-.95 1.587-1.942 1.324-2.205-.263-.263-1.074.514-1.803 1.726m8.095.205c.02 1.65.244 2.204.498 1.231.254-.973.237-2.323-.037-3-.274-.677-.481.119-.461 1.769M96 244c-.901.582-1.025.975-.309.985.655.008 1.469-.435 1.809-.985.767-1.242.421-1.242-1.5 0m-74.842 2c0 1.375.227 1.938.504 1.25.278-.687.278-1.812 0-2.5-.277-.687-.504-.125-.504 1.25m19 0c0 1.375.227 1.938.504 1.25.278-.687.278-1.812 0-2.5-.277-.687-.504-.125-.504 1.25M114 249c-.901.582-1.025.975-.309.985.655.008 1.469-.435 1.809-.985.767-1.242.421-1.242-1.5 0m-72.921 1.583c.048 1.165.285 1.402.604.605.289-.722.253-1.585-.079-1.917-.332-.332-.568.258-.525 1.312m4 6c.048 1.165.285 1.402.604.605.289-.722.253-1.585-.079-1.917-.332-.332-.568.258-.525 1.312" fill-rule="evenodd"/>
<path fill="#ef8a0d" stroke="#ef8a0d" d="M105.46 34.314c-1.841 3.712-1.843 3.991-.072 10.5 2.454 9.021 2.681 11.119 1.628 15.019-.824 3.051-4.297 7.167-6.047 7.167-1.832 0-5.779-9.744-5.062-12.5.143-.55-.059-.682-.448-.293-.389.39-1.513-.285-2.497-1.5-2.254-2.779-3.18-1.955-2.089 1.859C92.61 60.638 90.456 72 87.568 72c-1.192 0-2.736.563-3.431 1.25-1.016 1.006-1.066.728-.254-1.423 1.673-4.432-1.009-5.512-6.456-2.601-4.386 2.344-5.538 4.091-5.92 8.971-.364 4.66-.343 4.65-7.729 3.573-5.038-.735-6.918 1.358-4.052 4.509 1.892 2.081 2.101 5.35.269 4.218-1.431-.884-3.877 2.401-3.542 4.757.23 1.618-.906 3.33-4.067 6.126L48 105.26l-.004-3.38c-.004-3.949-3.294-9.88-5.481-9.88-.929 0-1.515.921-1.515 2.378 0 2.845-2.217 4.928-4.702 4.419-2.125-.435-2.002-4.534.267-8.924.789-1.525 1.433-4.034 1.431-5.573l-.003-2.8-1.953 3.203c-10.832 17.765-12.25 25.608-5.897 32.628 1.654 1.828 3.059 8.669 1.781 8.669-.371 0-.945 1.357-1.277 3.017-.405 2.023-1.461 3.342-3.209 4.007-3.894 1.48-4.587.439-3.9-5.858.47-4.307.247-6.146-.928-7.666-.86-1.112-1.561-1.445-1.578-.75-.018.688.072 1.362.2 1.5.127.138-.548 1.363-1.5 2.723-.953 1.359-1.732 3.124-1.732 3.921 0 .797-.634 2.159-1.409 3.027-7.263 8.138-8.336 17.902-3.13 28.502l3.399 6.924-1.866 4.911c-1.026 2.701-1.63 5.528-1.341 6.281.29.754-.474 3.149-1.695 5.322-2.073 3.688-2.202 10.024-.179 8.776.397-.244.739 3.085.76 7.398.031 6.109.438 8.282 1.839 9.831 1.735 1.917 1.72 2.332-.422 11.604-2.484 10.748-2.447 31.413.065 36.761 2.674 5.693 8.248 4.302 10.005-2.498.601-2.328 1.322-5.02 1.601-5.983.331-1.14 1.504-1.75 3.368-1.75 1.852 0 3.546-.872 4.807-2.476 1.94-2.465 1.948-2.466 1.955-.25.004 1.224 1.028 6.376 2.276 11.448 2.133 8.669 2.457 9.285 5.401 10.256 2.142.707 3.516 2.052 4.347 4.253l1.215 3.219 1.729-2.468c.951-1.358 1.816-3.057 1.921-3.777.427-2.907 3.49-6.205 5.762-6.205 5.065 0 6.991 7.961 4.719 19.5-1.723 8.752 1.058 7.94 7.547-2.204 6.058-9.471 12.402-10.139 11.544-1.217-.27 2.813.083 7.508.785 10.434 1.002 4.178 1.022 6.33.092 10.025-1.047 4.157-.538 7.97.627 4.706.247-.691.806-1.036 1.243-.766.437.27 1.808-2.662 3.047-6.516 2.493-7.752 3.054-8.413 6.418-7.569 4.677 1.174 6.543 12.89 3.11 19.529-2.031 3.929-1.952 9.416.193 13.378l1.733 3.2.537-5.5c.411-4.212 1.469-6.886 4.517-11.416 6.036-8.972 6.401-9.729 7.077-14.711.52-3.834.94-4.545 2.447-4.151 1.73.452 1.743.237.266-4.373-.854-2.667-1.775-6.087-2.045-7.599l-.492-2.75h13.177l-.975 2.565c-1.148 3.019-1.308 10.443-.225 10.418.412-.009 3-3.233 5.75-7.163 2.75-3.931 5.732-7.25 6.626-7.377.895-.126 2.639-.551 3.876-.944 1.507-.478 2.027-.356 1.579.37-2.06 3.333-.945 13.131 1.493 13.131.76 0 2.211-2.803 4.54-8.77.834-2.136 1.019-2.177 3.136-.693 2.919 2.046 2.878 2.328-1.222 8.422-3.06 4.547-3.376 5.597-2.664 8.85l.808 3.691 1.57-3.648c.864-2.006 2.199-4.031 2.966-4.5 3.983-2.432 7.922-9.212 8.477-14.589.501-4.857.801-5.449 2.532-4.996 1.66.434 1.916.067 1.66-2.377-.384-3.663.678-5.39 3.313-5.39 1.809 0 2 .443 1.504 3.5-.615 3.79.164 10.5 1.219 10.5.357 0 1.264-2.137 2.014-4.75.75-2.613 1.67-5.2 2.043-5.75.374-.55 1.246-2.977 1.938-5.392.908-3.172 2.833-5.878 6.925-9.736 6.465-6.096 6.674-6.175 8.282-3.122.651 1.238 1.48 2.475 1.84 2.75 2.144 1.634 5.313 11.057 5.322 15.821.008 4.889.139 5.191 1.616 3.712 1.987-1.99 2.226-18.814.295-20.745-2.979-2.979-.628-17.518 3.369-20.835 2.081-1.728 5.443 1.787 5.443 5.691 0 2.536 4.273 11.789 5.912 12.802 1.461.902 2.399-1.366 1.175-2.841-1.965-2.368-2.346-9.873-.801-15.779 1.484-5.672 1.223-9.539-1.187-17.616-.724-2.423-.603-4.366.459-7.376.793-2.247 1.442-5.106 1.442-6.354 0-1.248 1.237-3.601 2.75-5.229 9.309-10.021 10.541-14.311 7.826-27.251-.866-4.125-1.575-9.187-1.575-11.25-.001-2.062-.258-3.75-.572-3.75-1.623 0-3.164 3.05-3.768 7.455-.922 6.731-2.796 7.686-4.46 2.272-2.659-8.657-2.173-11.997 2.049-14.059 2.331-1.139 3.75-2.536 3.75-3.691 0-1.023.387-2.098.86-2.391 1.484-.917 2.13-9.265 1.145-14.79-.52-2.913-1.154-6.537-1.41-8.055-1.51-8.944-3.545-7.948-3.595 1.759-.037 7.201-1.129 9.514-3.722 7.878-1.293-.817-1.688-2.112-1.45-4.75.614-6.788-5.003-4.24-8.358 3.79-2.743 6.566-3.734 2.795-1.349-5.136 2.264-7.533 2.047-13.068-.6-15.264-1.165-.967-1.698-.53-2.922 2.399-1.816 4.345-4.785 4.754-7.247.998-1.593-2.432-1.59-2.983.055-9.327 1.967-7.584 1.627-11.033-2.056-20.861-1.293-3.45-2.351-7.162-2.351-8.25 0-1.087-.441-1.977-.981-1.977-1.495 0-2.277 4.395-1.786 10.035.46 5.291-.689 6.965-4.782 6.965-1.455 0-1.589-.742-.994-5.5.662-5.304.603-5.5-1.667-5.5-2.172 0-2.36-.418-2.432-5.399-.084-5.77-1.697-8.896-8.013-15.531-1.796-1.886-3.544-4.698-3.884-6.25-1.02-4.643-2.577-3.188-2.332 2.18.126 2.75.673 5 1.216 5 .544 0 .708.281.365.623-.343.343.482 2.073 1.833 3.845 2.963 3.884 3.079 5.659.52 7.975-2.064 1.868-4.063 1.375-4.063-1.002 0-.793-.375-1.441-.832-1.441-.458 0-1.246-2.127-1.75-4.727l-.918-4.727-1.985 2.977c-2.647 3.969-2.536 10.701.275 16.672 3.782 8.036 2.424 9.968-4.924 7.005-2.249-.907-2.874-2.138-4.27-8.413-.97-4.359-2.543-8.36-3.866-9.831-1.226-1.365-3.13-4.122-4.23-6.125-1.1-2.004-2.45-3.798-3-3.987-1.686-.58-1.727 6.04-.069 10.908 2.154 6.321 2.032 6.995-1.681 9.259-4.681 2.854-13.787 2.846-13.04-.011.288-1.1.947-2 1.466-2 .518 0 .653-.468.299-1.041-.354-.572-1.446-.786-2.426-.474-1.726.547-2.33-1.355-3.252-10.235-.072-.687-.58-1.25-1.13-1.25-.55 0-.716-.285-.368-.633.348-.348-.45-1.485-1.774-2.526-1.324-1.041-2.712-2.894-3.084-4.117-.373-1.223-1.291-2.925-2.04-3.781-.749-.857-1.742-4.007-2.206-7l-.843-5.443-1.892 3.814m6.163 28.145c2.779 7.242-9.772 16.449-14.066 10.318L96 70.555l.015 2.472c.03 4.844.853 5.151 10.062 3.752 8.22-1.248 8.431-1.349 8.756-4.198.384-3.375-1.693-11.581-2.932-11.581-.461 0-.586.656-.278 1.459m54.928 10.009c.797 1.907 1.449 4.555 1.449 5.883 0 3.63 4.615 4.32 5.493.822.438-1.746.151-2.793-.93-3.398-.866-.485-1.563-2.189-1.563-3.825 0-2.6-.35-2.95-2.949-2.95h-2.949l1.449 3.468m-23.968.175c-.346.904-.424 1.849-.173 2.1.795.795 2.59-.801 2.59-2.302 0-1.962-1.639-1.824-2.417.202m-66.356 3.53c-.71.71-.92 2.785-.554 5.46.843 6.145-2.176 10.102-9.877 12.947-1.275.471-1.558 1.358-1.125 3.525.73 3.649-.165 3.71-2.099.145-1.485-2.737-1.492-2.738-1.532-.344-.022 1.323-1.165 3.88-2.54 5.683-4.379 5.741-2.859 8.028 7.5 11.282 18.423 5.788 24.408 4.718 22.203-3.97-.738-2.907-.759-4.862-.067-6.156.917-1.712.806-1.784-1.139-.743-1.185.634-2.617 2.478-3.181 4.097-.977 2.802-3.44 4.901-5.75 4.901-1.855 0-1.151-1.744.922-2.287 1.093-.286 2.469-1.786 3.058-3.333.588-1.548 1.576-3.424 2.194-4.169.937-1.129 5.74-12.004 5.755-13.029.02-1.339-6.348 4.616-7.127 6.665-1.094 2.877-2.582 4.132-4.868 4.104-1.074-.012-.861-.551.75-1.895 1.237-1.032 2.25-2.647 2.25-3.589 0-1.408-.266-1.491-1.5-.467-.825.685-1.527 1.077-1.56.872-1.463-9.041-.66-12.421 3.923-16.521 1.746-1.563 2.033-2.149.85-1.734-1.024.358-2.546-.061-3.564-.982-1.335-1.208-2.061-1.323-2.922-.462m25.273 4.973c-5.402.997-19.136 5.338-21.378 6.758-1.977 1.252-.417 3.315 1.689 2.234.929-.477 2.221-.676 2.871-.442.65.234 2.591-.303 4.314-1.194 4.75-2.456 19.148-4.465 32.147-4.485 11.164-.016 14.565-.976 12.121-3.419-.923-.924-26.144-.489-31.764.548m-35.619 8.635c-.329 1.988-.183 2.921.372 2.366.504-.504.749-1.981.544-3.282-.315-2.001-.455-1.861-.916.916M186.5 88.378c-1.1.617-2.119 1.166-2.265 1.221-.146.054.381 1.629 1.172 3.5l1.438 3.401 1.123-2.934c1.675-4.378 1.047-6.6-1.468-5.188M69.564 89.707c-.542 1.425-.428 1.54.56.56.684-.679.991-1.486.683-1.793-.308-.308-.867.247-1.243 1.233m64.591 3.965c-2.982 2.012-3.069 2.221-1.173 2.822 3.682 1.169 1.22 2.187-4.2 1.738-4.285-.356-5.782-.048-7.793 1.601-4.103 3.365-1.789 5.607 6.115 5.923 9.497.38 10.896.867 10.896 3.795 0 3.831 4.291 5.164 5.069 1.574.312-1.444.123-3.213-.42-3.932-1.018-1.346 11.403-.788 17.351.78 5.596 1.475 2.564 11.027-3.5 11.027-1.375 0-2.5.47-2.5 1.045 0 .65 1.421.816 3.75.438 3.523-.57 3.633-.513 1.809.955-2.046 1.646-4.582 1.931-8.309.932-2.683-.719-2.943-2.073-.5-2.604 1.028-.223.41-.594-1.5-.9-2.155-.345-3.25-.114-3.25.685 0 .662-.75 1.822-1.666 2.577-1.505 1.239-1.597 1.097-.957-1.474.888-3.565-.556-5.409-4.872-6.219-4.302-.807-7.505.943-7.505 4.1 0 3.079-1.748 3.26-2.18.225-.323-2.26-3.82-3.88-3.82-1.769 0 .626-1.37 2.291-3.044 3.699-5.993 5.043-8.863 14.482-5.302 17.438 4.166 3.456 24.366-.253 39.234-7.206 9.373-4.382 10.329-4.571 12.137-2.392 3.443 4.148-8.597 12.434-18.352 12.63-5.891.118-5.691 1.804.387 3.27 3.88.935 4.819 1.727 7.44 6.274 3.828 6.641 5.223 7.203 7.046 2.841.789-1.889 2.045-3.797 2.791-4.24 6.207-3.684 12.98-19.153 9.911-22.636-1.693-1.921-1.671-1.964.7-1.368 2.934.737 5.052-.778 5.052-3.615 0-1.972-.063-1.983-1.337-.24-.736 1.006-1.93 1.632-2.654 1.39-1.479-.493-5.341 2.995-6.438 5.814-.617 1.584-.918 1.383-2.097-1.4-1.192-2.812-1.864-3.25-4.985-3.25-2.15 0-3.357-.404-2.989-1 .34-.55 2.229-1 4.198-1h3.581l-.631-5.25c-.347-2.888-.635-8.429-.639-12.315L169 97.37l-3.534-1.685C163.522 94.758 160.343 94 158.4 94c-1.942 0-4.443-.488-5.557-1.084-3.928-2.102-15.121-1.649-18.688.756m11.199 1.999c-2.464.506-5.996 4.02-5.021 4.996.36.36 1.541-.148 2.625-1.129 1.571-1.421 3.197-1.695 8.006-1.347 5.363.388 7.479-.219 5.286-1.517-1.321-.781-8.676-1.458-10.896-1.003M30 106.618c0 2.891.808 4.426 4.026 7.643l4.026 4.026 2.946-3.894c2.078-2.745 2.955-5.05 2.974-7.817l.028-3.925-2.25 2.026c-4.171 3.755-9.75 3.633-9.75-.212 0-.806-.45-1.465-1-1.465s-1 1.628-1 3.618m19.042 4.018c-5.662 6.361-12.52 16.936-16.092 24.814-4.714 10.397-8.584 27.583-6.2 27.535 2.031-.042 3.1-2.209 5.141-10.421 3.512-14.133 9.514-25.868 19.287-37.71 3.063-3.711 3.669-5.093 3.014-6.865-.781-2.109-1.033-1.979-5.15 2.647m75.073-2.729c-2.247 1.424-.574 5.761 2.521 6.538 1.468.368 3.125.194 3.709-.39.58-.58 1.81-1.055 2.733-1.055 2.12 0 4.028-2.227 3.115-3.636-.927-1.431-10.33-2.564-12.078-1.457m21.265 2.717c-1.343 5.349 6.2 9.117 12.364 6.176 3.729-1.779 4.432-6.515 1.069-7.205-9.645-1.978-12.738-1.741-13.433 1.029m-17.934-.537c-1.03 1.668 1.287 3.58 2.667 2.2 1.154-1.154.432-3.287-1.113-3.287-.485 0-1.184.489-1.554 1.087m24 2c-1.03 1.668 1.287 3.58 2.667 2.2 1.154-1.154.432-3.287-1.113-3.287-.485 0-1.184.489-1.554 1.087m37.374 1.148c-.204 1.424 1.533 5.102 4.678 9.907 2.751 4.203 5.773 9.048 6.715 10.767 1.674 3.053 4.317 4.894 5.429 3.782 1.288-1.288-12.331-24.145-15.586-26.156-.502-.311-1.059.455-1.236 1.7m-11.448 3.238c-.83 2.162-.373 2.447 2.92 1.814 3.197-.614 3.117-2.63-.125-3.107-1.302-.192-2.425.328-2.795 1.293m-44.903 2.577c-.95 1.538.351 2.53 1.635 1.246.718-.718.735-1.277.052-1.699-.56-.346-1.319-.142-1.687.453M138 120.5c0 .825.45 1.5 1 1.5s1-.675 1-1.5-.45-1.5-1-1.5-1 .675-1 1.5m-89.169 5.75c-.853.688-1.859 2.125-2.234 3.194-.628 1.786-.538 1.819 1.11.402.986-.848 2.581-1.821 3.543-2.163 2.038-.722 2.36-2.683.441-2.683-.72 0-2.007.563-2.86 1.25m159.774.338c-1.362 3.549 1.221 14.192 3.175 13.085.396-.224 2.345-1.164 4.331-2.089 3.555-1.654 5.92-5.038 5.857-8.381-.029-1.541-.147-1.552-1.25-.115-2.473 3.223-9.718 2.064-9.718-1.555 0-2.095-1.697-2.765-2.395-.945M164 131.083c0 2.437 2.337 2.093 2.823-.416.192-.987-.318-1.667-1.25-1.667-.927 0-1.573.855-1.573 2.083m-115.826 1.231c-2.693 2.868-2.801 4.092-.24 2.721 1.064-.569 2.816-1.035 3.893-1.035 1.078 0 2.201-.631 2.497-1.402 1.278-3.331-3.098-3.532-6.15-.284m142.431.337c-.328 1.567-1.711 9.374-3.073 17.349-1.363 7.975-3.396 17.875-4.519 22-3.016 11.081-3.36 13-2.331 13 .512 0 1.692-3.037 2.622-6.75.93-3.713 2.791-10.863 4.136-15.889 3.198-11.956 5.939-30.382 4.703-31.618-.587-.587-1.165.129-1.538 1.908m-32.458-.777c-1.059.682-1.104 1.338-.208 3.012 1.372 2.564 5.409 1.159 4.86-1.692-.372-1.929-2.687-2.586-4.652-1.32m-78.42 3.061c-.278 1.065.179 2.914 1.016 4.109.953 1.36 1.149 2.414.525 2.815-.549.352-1.332 1.71-1.74 3.016-1.141 3.651 1.141 1.694 3.566-3.059 2.379-4.663 1.91-8.816-.996-8.816-1.026 0-2.092.871-2.371 1.935m72.523-.125c-.997.645-.992 1.16.026 2.553 1.541 2.107 4.974 1.173 4.512-1.227-.355-1.84-2.688-2.521-4.538-1.326m-135.826 6.803c-1.845 6.346-1.231 10.036 2.725 16.387l2.181 3.5 1.729-7.81 1.73-7.81-2.394-2.395c-1.317-1.317-2.395-3.288-2.395-4.381 0-4.292-2.008-2.883-3.576 2.509M48 138c-2.204 2.204-2.811 9.381-.893 10.566.745.46.887-.009.435-1.433-.518-1.632-.109-2.373 1.783-3.235 1.351-.616 3.008-2.151 3.683-3.413 2.303-4.302-1.369-6.124-5.008-2.485m98.653-1.133c-1.67.658-1.695.853-.263 2.042 1.996 1.657 4.781.699 3.986-1.371-.646-1.685-.989-1.746-3.723-.671M80.633 148.2c-2.127 2.145-3.702 4.056-3.5 4.246.382.361 29.358 3.999 41.09 5.16 6.448.637 6.76.567 7.617-1.721 2.627-7.016 3.067-6.529-6.569-7.262-4.824-.366-14.396-1.551-21.271-2.632-14.726-2.315-12.616-2.584-17.367 2.209m62.027.55c-1.564 2.558-1.052 6.765.856 7.039 2.057.295 5.058-5.051 3.893-6.936-.65-1.052-4.123-1.128-4.749-.103m25.011 7.294c-3.259 2.563-3.346 3.495-.421 4.48 2.17.731 2.152.773-.5 1.184-3.261.504-3.524 2.282-.715 4.824 2.965 2.683 6.42-.82 6.42-6.51 0-5.433-1.426-6.619-4.784-3.978m-15.636.89c-1.474 2.755-1.331 3.066 1.406 3.066 3 0 4.138-1.598 2.523-3.544-1.629-1.962-2.692-1.832-3.929.478m-15.785 1.6c-1.289.905-2.25 2.623-2.25 4.023 0 2.849.683 3.04 3.089.863.96-.87 2.796-1.399 4.079-1.176 2.205.382 2.223.445.332 1.152-4.237 1.585-5.01 2.414-5.321 5.705-.259 2.74-.075 3.157.95 2.149.699-.687 2.147-1.25 3.217-1.25 1.738 0 1.663.262-.7 2.452-3.134 2.904-3.244 3.697-.817 5.893 2.017 1.825 5.171 2.225 5.171.655 0-.55-.99-1-2.2-1-1.709 0-1.933-.267-1.002-1.198.931-.931 2.258-.818 5.95.505 2.614.936 6.161 1.701 7.883 1.698 2.354-.004 3.756.802 5.647 3.245 8.235 10.642 21.134 21.212 28.519 23.371 8.242 2.409 10.306.374 12.581-12.403.621-3.487.044-3.977-6.56-5.574-3.114-.752-4.882 2.369-2.778 4.904 2.133 2.57-.825 1.694-5.86-1.737-9.726-6.627-17.93-13.195-25.348-20.293-11.708-11.203-19.961-15.227-24.582-11.984m23 .133c-1.766.706-1.556 4.278.293 4.988 1.921.737 2.343.327 2.685-2.607.28-2.398-.792-3.256-2.978-2.381m-122.903 3.509c-6.973 1.055-16.154 4.593-17.248 6.647-.491.923-1.218 4.722-1.614 8.443-.493 4.625-1.238 7.073-2.353 7.732-1.148.679-1.294 1.193-.491 1.734.657.442 1.293 4.461 1.5 9.468.614 14.868 4.166 13.317 7.296-3.184.874-4.606 1.696-8.464 1.826-8.573.13-.108 2.15-1.162 4.487-2.34 5.717-2.884 5.579-6.319-.166-4.135-2.461.936-2.584.822-2.584-2.377 0-3.256.222-3.442 7.25-6.047 13.346-4.946 14.572-9.254 2.097-7.368m184.137 4.153c-2.069 3.344-3.744 15.927-2.045 15.359 2.456-.821 4.762-5.81 5.268-11.398.638-7.035-.475-8.403-3.223-3.961M38.603 178.241C32.286 191.889 29.674 207 33.632 207c1.887 0 7.049-5.223 11.372-11.505 5.134-7.463 3.255-11.476-2.587-5.523-4.393 4.476-4.423 3.748-.192-4.671 4.196-8.349 4.614-12.628 1.275-13.06-1.572-.204-2.62 1.081-4.897 6m34.473-2.382c-1.886 3.523-3.905 25.038-2.462 26.235 1.722 1.43 3.328-1.806 4.09-8.245l.603-5.093 1.847 2.372L79 193.5l1.978-2.5c1.088-1.375 1.988-2.838 2-3.25.012-.412.495-.75 1.073-.75.683 0 .839 2.063.446 5.908-1.275 12.459 2.718 7.123 4.646-6.208 1.804-12.478-1.059-15.814-5.955-6.939-2.953 5.354-3.505 5.308-5.289-.436-1.628-5.245-3.249-6.409-4.823-3.466m56.021.223c-8.703 5.306-12.89 16.125-8.097 20.918 5.269 5.269 18-1.4 18-9.43 0-4.537-6.96-5.763-10.209-1.798-1.12 1.366-.992 1.498.959.995 2.35-.606 2.978 1.172 1.643 4.651-1.474 3.841-6.393.55-6.393-4.276 0-4.472 7.046-10.07 8.362-6.642 1.416 3.69 3.766.62 2.918-3.813-.622-3.257-2.565-3.42-7.183-.605m-16.011 2.548c-.591 2.129-1.077 5.258-1.08 6.953-.01 5.177-1.204 4.708-4.531-1.78-5.16-10.061-6.169-9.117-7.135 6.676-.637 10.402.1 13.106 2.713 9.958.703-.848 1.549-3.204 1.879-5.236l.601-3.693 2.315 3.746c4.829 7.813 8.215 3.777 8.404-10.019.13-9.539-1.441-12.818-3.166-6.605m-55.533.49C52.896 184.654 48 196.498 48 202.23c0 4.701 3.115 3.067 6.156-3.23 4.544-9.41 6.169-9.989 7.278-2.594.692 4.618 2.833 7.589 4.05 5.62 1.385-2.242 2.638-20.576 1.593-23.323-1.494-3.931-6.034-3.732-9.524.417m38.005-1.953c-1.81 5.447-4.207 22.581-3.379 24.148 2.481 4.687 5.958-5.167 6.189-17.539.123-6.604-1.524-10.479-2.81-6.609M59.2 183.2c-1.417 1.417-1.593 3.8-.282 3.8 2.279 0 4.082-1.372 4.082-3.107 0-2.136-1.994-2.499-3.8-.693m91.8 5.482c0 .375-1.611 7.62-3.581 16.099l-3.581 15.417 2.081 2.216c3.082 3.281 2.571 5.489-2.325 10.05-3.587 3.34-4.538 4.98-5.114 8.824l-.708 4.721 5.757 2.546c3.166 1.4 7.953 3.053 10.637 3.673 2.684.619 4.5 1.506 4.035 1.971-.465.465-3.963-.16-7.773-1.39-9.12-2.942-8.609-3.097-10.417 3.153-1.997 6.902-3.664 7.37-24.011 6.752-17.968-.545-34.199-5.308-44.5-13.057-1.789-1.346-2.189-1.333-3.796.116-2.1 1.894.436 3.833 12.296 9.401 48.542 22.788 109.731-2.811 127.57-53.371l1.341-3.803h-3.888c-3.067 0-4.028.442-4.552 2.091-2.547 8.026-16.288 4.285-29.971-8.16-3.035-2.76-5.191-3.796-8.935-4.291-2.714-.359-5.961-1.325-7.215-2.146-2.506-1.642-3.35-1.847-3.35-.812m-41.25 13.71c-3.216 2.441-1.799 11.608 1.593 10.307 2.355-.904 4.289-8.232 2.683-10.167-1.53-1.844-2.011-1.86-4.276-.14m19.646 4.178c-16.97 8.227-19.283 17.199-5.353 20.76 8.119 2.076 7.685 3.781-2.228 8.751-12.389 6.211-13.984 7.531-13.62 11.277.562 5.785 3.732 4.785 20.305-6.403 8.25-5.57 15.563-10.849 16.25-11.732 3.539-4.544-.374-7.515-11.565-8.782-10.027-1.134-9.13-3.76 3.4-9.951 5.36-2.648 7.415-4.194 7.415-5.577 0-3.061-6.361-2.339-14.604 1.657m-106.149-1.32c-4.8 6.016-7.625 20.836-7.053 37.005.68 19.228 4.332 17.489 6.835-3.255l1.267-10.5 2.102 6.439c2.775 8.498 3.818 8.513 7.81.112l3.357-7.066 1.23 10.257c1.869 15.591 4.673 24.624 6.938 22.358.422-.422.767-11.867.767-25.434 0-22.421-.17-24.916-1.865-27.416-3.695-5.448-5.292-3.934-11.813 11.195l-1.485 3.444-1.213-6.444c-2.063-10.964-4.115-14.155-6.877-10.695m73.253 4.444c-1.1.254-4.973 1.327-8.608 2.384L81.285 214l-2.643 13.25C74.544 247.791 75.07 251 82.532 251c3.482 0 17.933-7.54 22.718-11.852 6.558-5.912 4.95-6.4-9.057-2.751-5.061 1.319-9.372 2.106-9.58 1.75-1.162-1.989 1.659-4.823 6.485-6.514 7.437-2.606 9.902-4.425 9.902-7.309 0-2.469-3.901-2.702-11.25-.673-3.891 1.075-1.5-2.744 3.214-5.133 5.12-2.594 7.597-5.613 6.644-8.096-.551-1.437-1.471-1.568-5.108-.728m112.019 3.246c-.601 1.894 2.212 7.663 3.236 6.638.73-.73-.701-7.427-1.722-8.057-.489-.303-1.17.336-1.514 1.419m-149.215 2.832c-2.81 2.212-8.046 13.327-8.872 18.835-1.76 11.731 8.879 20.904 15.824 13.643 3.387-3.54 7.416-12.48 8.259-18.324 1.644-11.403-7.68-20.08-15.211-14.154m.731 8.686c-1.878 2.262-3.65 15.327-2.267 16.71 2.837 2.837 10.222-5.985 10.228-12.218.006-5.462-4.872-8.214-7.961-4.492m8.691 38.792c.626 7.599.732 7.691 3.236 2.806l2.277-4.444-2.23-1.806c-3.349-2.712-3.755-2.285-3.283 3.444m82.776 3.125c-1.767 1.292-1.718 1.375.809 1.375 1.615 0 2.689-.549 2.689-1.375 0-.756-.364-1.375-.809-1.375-.445 0-1.655.619-2.689 1.375m-60.916 5.889C89.164 274.69 88 277.649 88 278.838V281l2.087-2.087c5-5 15.891 4.77 13.183 11.826-.371.967-.2 1.336.437.942 3.091-1.91 3.82-18.241.916-20.533-.617-.488-2.842-1.197-4.944-1.576s-4.426-.921-5.164-1.205c-.826-.317-2.34 1.185-3.929 3.897" fill-rule="evenodd"/>
<path fill="#c85513" stroke="#c85513" d="M105.975 34.565c-1.395 3.671-1.209 7.392.643 12.827 3.311 9.718.419 19.608-5.734 19.608-2.515 0-2.966-.536-4.342-5.171C94.884 56.246 92.506 52 91.036 52c-.504 0-.272 1.237.517 2.75 3.002 5.754.376 17.345-4.159 18.357-1.592.355-3.737.996-4.768 1.424-1.799.747-1.806.673-.164-1.832 3.753-5.729-.758-6.24-6.539-.74-3.498 3.327-4.09 4.447-3.713 7.019.594 4.047-1.346 5.737-4.787 4.169-5.383-2.453-10.188-.054-6.528 3.258 2.397 2.169 1.711 5.566-.981 4.862-1.602-.419-1.918.048-1.937 2.866-.02 2.831-.951 4.192-5.847 8.549l-5.823 5.183.46-4.794c.739-7.693-3.596-13.165-5.404-6.821-.767 2.691-1.48 3.304-4.145 3.563-3.991.389-4.28-2.044-1.18-9.911 3.399-8.621 1.714-7.548-3.334 2.124-6.407 12.276-6.881 16.173-2.828 23.258 5.205 9.097 2.94 19.212-4.149 18.528L22.5 133.5l.339-6.75c.221-4.408-.039-6.75-.75-6.75-.599 0-1.089.795-1.089 1.766s-1.69 4.684-3.756 8.25c-7.788 13.446-8.228 18.032-2.742 28.557 2.285 4.384 3.178 7.108 2.569 7.841-.512.618-1.467 4.265-2.121 8.105-.653 3.839-1.81 7.691-2.569 8.56-1.722 1.968-1.8 5.824-.131 6.461.864.33 1.145 2.338.91 6.498-.258 4.553.156 7.024 1.7 10.144 1.975 3.991 1.987 4.335.389 10.721-2.735 10.928-2.449 37.34.436 40.226 3.428 3.429 6.776.7 8.407-6.851 1.516-7.021 1.273-6.688 3.866-5.3 1.834.981 2.521.721 4.94-1.868l2.809-3.008 1.698 8.699c2.117 10.85 4.312 15.588 7.427 16.029 1.488.211 2.799 1.442 3.623 3.401l1.291 3.07 1.278-3.901c2.031-6.194 3.874-8.4 7.018-8.4 6.433 0 8.572 9.353 5.373 23.5l-.678 3 3.013-2.823c1.657-1.553 3.786-4.539 4.731-6.635 2.285-5.067 7.792-7.409 12.855-5.467 1.328.51 1.324.994-.04 4.25-1.395 3.334-1.383 4.334.132 10.77 1.478 6.281 1.505 7.571.238 11.25-.788 2.285-1.118 4.155-.733 4.155 1.013 0 4.688-6.99 5.519-10.494 1.426-6.023 4.637-7.169 8.517-3.039 3.098 3.298 3.818 10.774 1.651 17.135-1.746 5.123-2.109 12.078-.745 14.231.557.877 1.07-.362 1.504-3.63.362-2.729 1.662-6.371 2.889-8.092 1.228-1.722 3.547-4.95 5.154-7.173 2.123-2.936 3.046-5.54 3.376-9.517.411-4.956.647-5.415 2.479-4.833 1.682.534 1.895.326 1.254-1.223-1.388-3.356-3.531-10.653-3.531-12.024 0-1.004 1.913-1.341 7.607-1.341 6.855 0 7.535.173 6.879 1.75-.401.962-.945 4-1.209 6.75l-.482 5 3.353-4.901c1.843-2.696 3.997-5.901 4.786-7.124.869-1.346 3.153-2.616 5.792-3.22l4.358-.997-.615 4.121c-.353 2.364-.108 5.4.575 7.121l1.191 3 1.718-5c1.783-5.187 3.952-6.654 6.595-4.46 2.008 1.666 1.816 5.228-.436 8.091-1.729 2.198-4.149 8.964-4.066 11.369.019.55.742-.35 1.607-2 .866-1.65 3.27-4.8 5.344-7 5.083-5.394 6.003-7.471 6.003-13.551 0-4.775.165-5.139 2.104-4.632 1.8.471 2.035.19 1.627-1.944-.543-2.841 3.138-6.021 5.791-5.003 1.265.486 1.419 1.746.87 7.11-.471 4.599-.333 6.52.47 6.52.626 0 1.138-.914 1.138-2.03 0-1.117 1.125-4.703 2.5-7.97 1.375-3.267 2.5-6.762 2.5-7.766 0-1.005 3.077-4.581 6.838-7.949l6.838-6.122 3.412 5.576c4.455 7.28 5.728 10.785 5.906 16.261.113 3.472.343 4.043 1.006 2.5 1.4-3.258 1.115-11.296-.61-17.232-3.198-10.999-.299-22.336 5.901-23.079 2.293-.275 2.728.187 3.771 4 2.4 8.781 3.025 10.366 5.052 12.811 1.682 2.029 1.94 2.123 1.371.5-2.566-7.313-2.664-9.012-.972-16.842 1.636-7.573 1.632-8.224-.083-13.888-1.52-5.023-1.616-6.627-.614-10.37.651-2.436 1.184-5.66 1.185-7.164.001-1.888 1.269-3.966 4.09-6.703 7.852-7.617 9.472-14.43 6.429-27.033-.797-3.3-1.481-7.575-1.52-9.5l-.071-3.5-1.429 2.5c-.786 1.375-1.445 3.701-1.465 5.168-.081 6.119-4.432 8.524-5.574 3.082-.317-1.512-1-4.637-1.519-6.943-.518-2.306-.942-4.418-.942-4.694 0-.276 2.207-2.675 4.905-5.33 6.35-6.251 7.067-10.162 4.285-23.362l-1.985-9.421-.102 6.668c-.121 7.869-.722 9.832-3.01 9.832-2.606 0-4.093-2.07-4.093-5.7 0-1.815-.338-3.29-.75-3.278-2.366.07-5.617 4.206-6.72 8.548l-1.241 4.889-1.653-3.196c-1.562-3.02-1.542-3.489.355-8.48 2.359-6.206 2.578-11.627.58-14.342-1.41-1.916-1.436-1.916-2.072.059-1.926 5.985-5.102 7.091-8.384 2.92-2.509-3.191-2.621-4.965-.615-9.766 2.151-5.147 1.859-10.541-1-18.465-1.375-3.812-2.5-8.114-2.5-9.56 0-1.446-.45-2.629-1-2.629-1.122 0-1.346 2.111-1.033 9.73.194 4.722-.03 5.342-2.312 6.381-4.442 2.024-6.012.55-5.352-5.023.529-4.462.415-4.827-1.363-4.362-1.731.453-1.94-.037-1.94-4.544 0-6.609-1.24-9.634-6.119-14.927-2.213-2.401-4.649-5.803-5.413-7.56l-1.39-3.195-.039 3.269c-.021 1.798 1.317 5.809 2.974 8.914 3.407 6.385 2.69 9.524-2.313 10.127-2.676.323-4.68-3.758-4.694-9.56-.009-3.542-1.807-2.629-2.953 1.5-1.473 5.301-1.359 6.392 1.447 13.846 3.343 8.883 3.273 9.409-1.25 9.382-5.459-.033-7.774-2.439-9.123-9.478-.733-3.83-2.246-7.447-4.182-10-1.669-2.2-3.791-5.575-4.717-7.5l-1.683-3.5-.353 3.489c-.195 1.919.444 5.838 1.42 8.708 1.704 5.014 1.703 5.298-.032 7.215-3.023 3.34-17.438 5.527-16.904 2.564.097-.537.518-1.876.937-2.976.649-1.704.535-1.816-.768-.759-2.072 1.683-2.845.639-2.845-3.843 0-5.12-1.351-8.297-6.025-14.167-4.181-5.251-6.495-11.517-5.459-14.78.918-2.895-.408-2.366-1.541.614M111 63.262c0 8.802-8.569 14.458-13.215 8.721-2.364-2.919-3.2-2.01-2.345 2.55l.681 3.626 7.689-.659c10.039-.86 11-1.18 11.401-3.797.512-3.34-.98-10.535-2.69-12.977-1.453-2.074-1.521-1.961-1.521 2.536m54.524 7.238c.338 1.1 1.173 4.025 1.855 6.5 1.016 3.686 1.704 4.555 3.804 4.804 3.021.359 4.842-4.625 2.23-6.104-.781-.442-1.413-2.311-1.413-4.179 0-3.237-.149-3.371-3.546-3.2-3.051.154-3.46.458-2.93 2.179m-23.342 2c-1.006 2.208-.908 2.5.839 2.5 1.444 0 1.979-.676 1.979-2.5 0-1.375-.378-2.5-.839-2.5-.462 0-1.353 1.125-1.979 2.5m-66.153 2.965c-.785.946-.98 2.865-.55 5.41.732 4.334-1.204 9.422-3.994 10.492-1.096.421-1.349.226-.815-.628 1.12-1.793 1.286-3.739.319-3.739-.459 0-1.354 1.575-1.989 3.5-.712 2.158-1.796 3.494-2.828 3.485-1.06-.01-1.264-.285-.557-.75 2.042-1.345 2.453-4.768.815-6.787-1.531-1.89-1.563-1.876-1.057.46.287 1.324-.076 3.838-.806 5.587-.907 2.17-1.02 3.731-.356 4.917.535.956.741 1.969.459 2.251-.282.283-1.206-.763-2.052-2.325-1.347-2.485-1.543-2.576-1.578-.728-.022 1.161-1.165 3.769-2.54 5.795-3.124 4.603-3.211 8.095-.25 9.984 3.477 2.218 15.112 5.49 22.054 6.201 7.992.819 9.251-.351 8.277-7.688-.443-3.344-.274-5.567.495-6.493.92-1.109.838-1.409-.382-1.409-2.076 0-4.553 2.591-5.292 5.534-.577 2.3-3.917 4.285-5.144 3.057-.325-.325.153-.591 1.062-.591s2.342-1.463 3.184-3.25c.842-1.787 2.162-4.375 2.932-5.75 2.92-5.213 6.445-13 5.884-13-2.097 0-7.782 4.862-8.948 7.652-.769 1.842-1.933 3.348-2.585 3.348-.908 0-.905-.282.013-1.2 1.757-1.757 1.627-6.4-.138-4.934-1.082.898-1.372.219-1.515-3.545-.244-6.452.355-7.773 5.155-11.375 3.221-2.417 3.616-2.983 1.698-2.433-1.375.395-2.725.719-3 .721-2.209.014-3-.443-3-1.734 0-1.909-1.402-1.925-2.971-.035m61.019 5.333c-1.677 1.677-3.048 3.727-3.048 4.558 0 .83-.926 1.803-2.058 2.163-1.399.443-1.96 1.347-1.75 2.817.404 2.837 3.04 2.776 4.301-.1.684-1.559 1.462-2.031 2.5-1.516.829.412 4.207.791 7.507.843 3.3.052 7.072.669 8.383 1.372 1.438.771 3.871 1.04 6.133.678 2.689-.43 4.103-.174 4.997.903.686.826 2.988 1.78 5.117 2.121 3.307.529 5.619 2.363 2.979 2.363-.788 0-.839 4.303-.262 22.25.225 7.004 2.942 6.598 3.351-.5.293-5.086.401-5.26 3.46-5.557 2.234-.216 3.756.335 5.198 1.883l2.039 2.189.711-2.83c.456-1.819.299-2.967-.44-3.213-.828-.276-.856-.932-.1-2.345 1.786-3.338.752-9.237-1.816-10.364-1.536-.674-2.25-1.846-2.25-3.693 0-3.089-3.183-5.82-6.782-5.82-1.285 0-2.07-.43-1.745-.956.984-1.592-4.222-4.325-7.166-3.762-1.54.294-3.676-.133-5-1-1.359-.891-3.443-1.294-5.059-.978-1.922.375-3.406-.076-4.936-1.5-3.886-3.616-10.651-3.619-14.264-.006m-32.015-.696c-9.69 1.486-25.467 7.038-25.846 9.095-.389 2.11 4.479 1.903 9.813-.416 6.277-2.729 24.562-5.101 34.671-4.498 8.612.514 9.29.415 9.879-1.441.348-1.096.413-2.213.144-2.481-1.016-1.016-22.464-1.21-28.661-.259m82.095 7.242c-.755.911-1.926 1.656-2.601 1.656-.946 0-.977.805-.133 3.5 1.391 4.446 3.329 4.493 4.153.1.964-5.138.354-7.395-1.419-5.256m-53.508 6.142c-3.076 2.453-3.249 3.21-.87 3.804.963.24-1.015.403-4.394.363-6.803-.082-9.356 1.258-9.356 4.91 0 3.212 1.626 3.942 8 3.591 7.228-.397 11 1.044 11 4.205 0 1.652.706 2.597 2.25 3.011 3.408.913 3.412.909 3.328-3.326-.068-3.444.181-3.904 1.922-3.552 1.1.223 5.065.692 8.811 1.043 5.881.55 6.958.961 7.892 3.01 2.391 5.249-3.352 9.255-11.638 8.119-3.735-.512-4.443-.301-5.45 1.624-1.112 2.127-1.137 2.111-.645-.424.597-3.081-.859-4.592-5.279-5.476-4.976-.995-8.191.234-8.191 3.131 0 1.365-.45 2.481-1 2.481s-1-.9-1-2c0-1.467-.667-2-2.5-2-1.375 0-2.5.498-2.5 1.106 0 .608-1.14 2.003-2.533 3.099-2.883 2.268-7.467 10.716-7.467 13.762 0 3.9 3.469 6.033 9.812 6.033 9.256 0 19.659-3.096 38.878-11.57 2.814-1.241 3.38-1.218 4.795.198 3.866 3.866-7.883 11.762-17.606 11.832-4.139.029-5.493.377-5.133 1.318.664 1.734 3.628 3.221 6.438 3.229 2.412.007 5.772 4.022 7.733 9.243 1.265 3.365 4.643 3.711 5.638.576.38-1.196 2.641-4.259 5.024-6.807 6.871-7.346 12.06-20.769 8.171-21.137-.687-.065.09-.406 1.728-.756 5.711-1.223 6.273-11.126.632-11.126-2.668 0-2.895.324-3.516 5-.461 3.479-1.118 5-2.161 5-.823 0-1.904 1.013-2.402 2.25-.647 1.61-.922 1.772-.968.571-.105-2.801-3.076-5.034-5.791-4.353-1.682.422-2.222.26-1.737-.524.386-.625 1.979-.949 3.541-.72l2.839.417-.22-12.749c-.121-7.013-.439-12.894-.707-13.071-3.163-2.082-8.304-3.703-11.732-3.7-2.334.003-4.809-.361-5.5-.808-2.827-1.83-15.39-1.017-18.136 1.173m9.13 3.594c-.963.561-1.75 1.758-1.75 2.661 0 1.381.225 1.334 1.421-.3 1.14-1.556 2.612-1.934 7.426-1.907 3.302.018 5.786-.319 5.519-.75-.702-1.136-10.554-.905-12.616.296m-112.618 6.302c-1.585 3.862-.689 6.318 4.126 11.31l4.044 4.191 2.849-3.933c2.18-3.009 2.849-5.048 2.849-8.681v-4.749l-2.54 2.74c-3.959 4.269-8.524 3.441-9.695-1.76-.394-1.751-.597-1.641-1.633.882m19.177 6.872c-11.816 12.522-20.684 30.807-23.765 48.996-.551 3.253-.38 3.75 1.288 3.75 2.717 0 3.615-1.596 5.063-9 2.404-12.286 10.15-27.854 18.918-38.017 3.428-3.974 4.248-5.639 4-8.115l-.313-3.115-5.191 5.501m74.358-2.587c-1.576 1.576-.576 5.418 1.678 6.444 2.949 1.344 10.996-1.113 11.478-3.504.538-2.669-10.876-5.22-13.156-2.94m22.083.891c-1.203 1.244-.864 6.102.506 7.239 5.946 4.935 19.704-.266 14.491-5.478-1.521-1.521-13.831-2.966-14.997-1.761M128 110.441c0 .857.45 1.559 1 1.559s1-.423 1-.941-.45-1.219-1-1.559c-.55-.34-1 .084-1 .941m60.393 2.784c.068 2.069 1.62 5.485 4.216 9.275 2.26 3.3 5.093 7.935 6.296 10.299 2.004 3.942 5.523 6.597 7.333 5.532 1.761-1.036-10.8-21.954-15.976-26.606-1.927-1.732-1.973-1.696-1.869 1.5M152 112.441c0 .857.45 1.559 1 1.559s1-.423 1-.941-.45-1.219-1-1.559c-.55-.34-1 .084-1 .941m-96.514 3.809c-.733 2.989-.766 6.679-.143 16.044.497 7.459.399 7.931-2.288 11-1.942 2.218-3.029 4.827-3.527 8.467l-.719 5.261 3.828 1.6c2.105.879 7.213 1.831 11.351 2.115l7.523.515 3.661-10.282c2.865-8.049 3.456-10.819 2.719-12.758-1.253-3.295-.239-6.129 2.577-7.2 1.49-.566 2.829-2.436 3.812-5.322l1.516-4.448-7.148-1.16c-3.931-.637-10.298-2.264-14.148-3.616-8.526-2.993-8.334-2.988-9.014-.216m123.07 2.66c-1.412 2.285.598 4.26 2.544 2.5 1.019-.923 1.612-2.067 1.317-2.544-.703-1.138-3.148-1.111-3.861.044m-28.553 2.34c-.002.412 2.247.75 4.997.75s5-.341 5-.757c0-.417-2.249-.755-4.997-.75-2.748.004-4.998.345-5 .757m-101.829 5.064c-2.26 2.406-2.86 4.686-1.233 4.686.518 0 1.236-.478 1.597-1.062.361-.584 1.729-1.469 3.04-1.968 1.57-.597 2.183-1.429 1.796-2.438-.835-2.176-2.681-1.899-5.2.782m134.662.042c-.915 1.261-2.172 4.178-2.793 6.483-1.354 5.029-4.437 10.637-7.959 14.48-2.385 2.601-2.448 2.894-.822 3.806.969.543 3.034 3.215 4.588 5.936l2.827 4.949 2.564-4.755c5.314-9.854 8.758-25.428 6.715-30.361-1.437-3.469-2.883-3.621-5.12-.538m25.126 1.394c-1.684 5.649 1.895 13.911 5.271 12.169 6.392-3.299 8.768-5.948 8.715-9.72-.052-3.654-.072-3.671-1.622-1.449-2.555 3.662-9.326 1.625-9.326-2.807 0-3.267-1.854-2.164-3.038 1.807m-160.507 4.72c-3.206 4.203-2.847 5.167 1.16 3.112 1.587-.814 3.706-1.726 4.709-2.028 2.464-.74 1.731-3.972-.99-4.361-1.492-.214-2.977.783-4.879 3.277m116.102-1.22c1.004 3.266 1.446 3.466 2.993 1.351 1.665-2.278 1.05-3.601-1.676-3.601-1.621 0-1.875.434-1.317 2.25m-4.057-.033c-1.1.593-2.149 1.198-2.331 1.345-.556.448 1.849 4.438 2.675 4.438.426 0 1.512-.562 2.415-1.25 2.56-1.95.063-6.054-2.759-4.533m28.615 13.533c-1.919 12.123-4.06 22.01-8.257 38.125-.197.756.121 1.553.706 1.771 2.466.919 13.815-48.61 12.139-52.977-1.417-3.694-2.356-1.017-4.588 13.081M79.429 134.428c-.335 1.335-.172 3.208.362 4.162.669 1.196.523 2.808-.469 5.181-1.974 4.725-1.167 4.956 2.545.728 2.142-2.44 3.133-4.601 3.133-6.834 0-5.395-4.389-7.946-5.571-3.237m73.012.011c-1.799 1.334-1.821 1.56-.303 3.103 2.615 2.655 6.105 1.085 4.656-2.095-1.297-2.846-1.736-2.948-4.353-1.008m41.545 2.311c-.007 2.063-.287 4.773-.622 6.023-.516 1.924-.049 1.712 3.055-1.392l3.664-3.664-2.216-2.358c-3.059-3.257-3.865-2.968-3.881 1.391m-176.558.75c-3.021 6.449-2.598 14.975 1.016 20.5l2.944 4.5.783-3c3.539-13.573 3.671-14.728 1.75-15.231-1.668-.436-3.095-3.411-4.205-8.769-.334-1.609-.781-1.218-2.288 2m30.597.321c-3.233 3.233-3.659 5.382-1.955 9.864.95 2.498 1.181 2.617 2.054 1.057.542-.967.753-2.133.469-2.591-.283-.458.818-1.818 2.446-3.022 3.222-2.382 3.807-5.182 1.486-7.108-1.208-1.003-2.023-.677-4.5 1.8m98.097-.932c-1.958 1.26-.464 3.111 2.51 3.111 1.85 0 2.426-.459 2.18-1.739-.385-1.997-2.677-2.667-4.69-1.372m54.378 3.327c-5.373 3.102-8.155 9.772-14.975 35.906l-2.251 8.623 4.9.11c6.179.139 15.083 2.636 20.514 5.753 2.405 1.38 4.441 1.993 4.783 1.44.832-1.348.859-31.891.031-35.548-1.817-8.021-3.862-12.625-6.649-14.97-3.402-2.863-3.6-2.904-6.353-1.314m-120.25 7.87c-2.338 2.235-4.25 4.481-4.25 4.989 0 .509 1.912.926 4.25.927 2.338.001 11.225.875 19.75 1.941 8.525 1.067 17.75 2.079 20.499 2.248l4.999.309 1.457-4.211c1.864-5.389 2.08-5.252-10.106-6.396-5.692-.534-14.399-1.626-19.349-2.428-12.315-1.994-12.445-1.974-17.25 2.621m49.75.096c0 2.805-4.016 13.484-6.924 18.414-2.321 3.933-2.093 4.149 5.289 5.017 6.326.744 6.759.137 4.452-6.243-1.483-4.1.051-8.048 3.459-8.903 1.718-.431 2.641-1.703 3.459-4.769 1.337-5.007 1.839-4.42-4.503-5.262-5.069-.672-5.232-.618-5.232 1.746m19-1.39c0 .435 2.025 2.779 4.5 5.208 4.557 4.472 5.416 4.646 3.375.684-2.428-4.714-7.875-8.79-7.875-5.892m-6.023 2.231c-2.737 2.737-2.594 6.578.273 7.347 3.14.841 3.408.794 3.486-.62.038-.687.382-2.648.763-4.356.887-3.972-1.611-5.282-4.522-2.371m5.501 5.076c-.947 4.312.9 5.818 2.474 2.017 1.209-2.918.808-5.116-.932-5.116-.473 0-1.167 1.394-1.542 3.099m18.522-1.13c0 .532.675.709 1.5.393.825-.317 1.5-.753 1.5-.969 0-.216-.675-.393-1.5-.393s-1.5.436-1.5.969m-.932 3.935c-2.585 3.631-2.576 3.859.182 4.39l2.25.434-2.25.136c-2.615.158-2.934 2.309-.679 4.565 4.566 4.565 9.83-4.074 6.394-10.495-1.464-2.736-3.496-2.401-5.897.97m-14.057-.417c-1.899 2.288-.584 4.345 2.41 3.773 2.77-.53 3.312-2.127 1.379-4.06-1.569-1.569-2.295-1.514-3.789.287m31.989-.804c0 .559-1.405 2.957-3.123 5.328l-3.122 4.311-1.329-3.161c-.731-1.739-1.603-3.161-1.937-3.161-.334 0-.338.435-.01.966.851 1.378-3.07 8.663-5.077 9.433-1.5.576-2.834-.069-7.994-3.864-2.752-2.023-2.629.626.165 3.568 3.742 3.939 14.931 12.897 16.11 12.897.815 0 3.86-9.811 4.965-16 .245-1.375.905-4.233 1.465-6.351.56-2.118.764-4.105.453-4.417-.311-.311-.566-.108-.566.451m-48.256 3.047c-3.417 3.776-2.056 7.577 1.697 4.738 1.068-.807 2.643-1.466 3.5-1.464.861.002.144.866-1.602 1.931-4.855 2.96-5.98 9.549-1.193 6.987 1.114-.596 2.25-.859 2.525-.584.275.275-.438 1.002-1.585 1.616-1.147.614-2.122 1.888-2.165 2.831-.048 1.043-.277 1.225-.583.465-1.405-3.48-9.95.567-14.054 6.656-9.34 13.86 2.129 24.549 13.619 12.694 6.89-7.109 2.542-14.467-5.953-10.074-3.688 1.907-3.935 3.938-.37 3.043 2.327-.584 2.512-.423 1.887 1.642-1.836 6.073-6.09 3.541-5.585-3.325.249-3.403 7.118-8.601 7.118-5.386 0 2.296 2.96 1.783 3.868-.671.532-1.438 1.047-1.776 1.526-1 .855 1.383 6.606 1.593 6.606.241 0-.512-.787-1.128-1.75-1.368-3.244-.811 3.203.168 8.736 1.326 5.028 1.053 6.104 1.813 12.868 9.094 11.988 12.904 23.91 20.158 30.436 18.52 3.021-.758 5.331-5.306 6.262-12.324l.685-5.159-3.869-1.074c-6.804-1.889-7.709-1.576-7.058 2.437.417 2.573.251 3.328-.619 2.801-6.131-3.715-22.666-16.485-28.233-21.803-13.256-12.664-22.725-17.198-26.714-12.79m22.572.354c-1.786 1.786-.351 5.063 2.064 4.718 2.874-.41 3.698-5.802.886-5.802-1.026 0-2.354.488-2.95 1.084m-38.381 3.587c-1.784 4.693-.564 6.215 1.868 2.329 2.595-4.148 2.709-5 .672-5-.838 0-1.982 1.202-2.54 2.671M35.5 161.68c-6.055 1.355-14.477 4.637-15.881 6.188-.914 1.011-1.9 4.527-2.275 8.117-.432 4.126-1.304 6.975-2.503 8.174-2.233 2.233-2.306 2.841-.341 2.841 1.209 0 1.5 1.563 1.5 8.066C16 202.83 17.046 207 18.995 207c1.172 0 4.548-10.889 5.461-17.614.67-4.938.865-5.195 5.642-7.432 5.671-2.656 5.887-4.559.479-4.226-3.48.213-3.686.063-3.391-2.464.272-2.334 1.366-3.124 8.241-5.955 12.862-5.296 12.912-10.503.073-7.629m118.688.383c.24.721 1.028 1.509 1.75 1.75.75.25 1.125-.125.875-.875-.241-.722-1.029-1.51-1.75-1.75-.75-.25-1.125.125-.875.875m67.35 1.818c-.329 1.035-1.484 2.904-2.568 4.153-1.82 2.099-3.103 15.966-1.476 15.966 2.711 0 6.506-8.838 6.506-15.15 0-6.552-1.195-8.963-2.462-4.969M38.652 177.75c-7.683 15.377-9.999 32.647-3.943 29.406 4.771-2.553 15.16-16.942 13.809-19.126-1.03-1.668-3.169-1.194-6.228 1.379l-2.862 2.409 3.286-6.529c4.369-8.682 4.258-14.289-.283-14.289-.223 0-1.924 3.037-3.779 6.75m33.432 0c-1.272 4.804-3.152 23.331-2.478 24.421 1.651 2.671 5.394-2.964 5.394-8.121 0-3.34 1.385-4.067 2.476-1.3.593 1.505 1.098 1.266 3.607-1.712L84 187.576v6.212c0 10.968 3.008 7.507 5.404-6.217 2.287-13.103-.737-16.845-6.399-7.918-2.502 3.945-3.053 4.363-3.625 2.75-3.391-9.559-5.62-10.981-7.296-4.653m-11.038-1.479c-6.76 3.421-16.4 24.803-12.804 28.399 2.327 2.328 4.1.607 6.953-6.751 2.743-7.075 5.805-8.316 5.805-2.353 0 6.398 4.009 10.269 5.368 5.184 1.749-6.542 1.904-20.686.253-23.205-1.902-2.903-2.214-2.974-5.575-1.274m51.929 1.294c-.536 1.411-1.007 3.773-1.045 5.25-.162 6.196-1.395 6.597-3.892 1.266-2.823-6.027-5.709-9.109-6.524-6.967-.748 1.964-2.364 23.231-1.835 24.136 1.534 2.621 3.84.344 5.792-5.719.58-1.801.851-1.694 3.154 1.25 4.591 5.865 6.764 3.636 7.975-8.177 1.081-10.56-1.184-17.459-3.625-11.039m-17.403-.681c-1.205 1.949-4.627 22.367-4.053 24.177 1.024 3.225 3.222 2.189 4.906-2.311 1.662-4.442 3.617-19.339 2.821-21.5-.53-1.439-2.867-1.672-3.674-.366m56.138 6.117c-.85 3.251 6.261 7.807 10.671 6.838 1.179-.26.71-1.335-2.003-4.589-3.92-4.701-7.766-5.699-8.668-2.249m-92.72 1.018c-1.031 1.927-.913 2.108 1.182 1.811 1.28-.182 2.328-.967 2.328-1.747 0-2.324-2.278-2.366-3.51-.064M185 186.971c0 1.575 3.771 3.208 4.539 1.965.364-.588.38-1.351.035-1.695-1.072-1.072-4.574-1.279-4.574-.27m-34.416.779c-.321.321-.586 1.521-.589 2.667-.003 1.146-1.51 8.536-3.349 16.422-2.714 11.638-3.085 14.439-1.967 14.868 4.362 1.674 3.089 8.473-2.106 11.254-2.815 1.506-4.999 6.981-4.42 11.079.396 2.799 4.757 5.249 14.347 8.059 3.3.967 5.057 1.791 3.905 1.83-1.152.039-4.752-.818-8-1.904-3.248-1.087-6.201-1.987-6.563-2-.361-.014-1.243 2.259-1.958 5.051-1.824 7.117-2.725 7.434-20.884 7.364-18.156-.07-27.264-2.25-41.929-10.036-7.706-4.091-8.564-4.337-10-2.878-2.051 2.084-.657 3.191 11.429 9.079 46.634 22.719 103.856 2.326 126.03-44.914 5.466-11.645 5.559-12.978.846-12.137-2.524.45-4.686 1.695-6.198 3.569-4.306 5.334-14.466 2.696-24.909-6.468-7.475-6.561-8.038-6.893-12.531-7.378-2.331-.252-5.663-1.28-7.404-2.285-1.742-1.004-3.429-1.563-3.75-1.242m52.939 4.736c-1.703 8.193-1.908 7.514 2.267 7.514 5.848 0 8.291-2.148 5.699-5.012-1.091-1.206-3.213-2.828-4.714-3.604-2.597-1.343-2.755-1.29-3.252 1.102m-94.065 9.921c-2.299 1.681-2.188 8.199.18 10.593 1.87 1.89 3.998-.541 4.959-5.666 1.102-5.872-1.04-7.925-5.139-4.927m21.599 3.187c-20.101 9.353-22.368 18.277-5.708 22.472 6.835 1.721 5.601 3.863-4.883 8.48-9.187 4.046-12.466 6.912-12.466 10.898 0 6.586 4.39 5.253 21-6.377 5.225-3.659 10.731-7.427 12.236-8.374 9.797-6.163 5.257-11.638-10.736-12.947-5.71-.468-3.847-3.687 4.802-8.294 9.909-5.278 10.799-6.143 8.257-8.019-2.713-2.003-4.051-1.772-12.502 2.161m-108.442-.406c-4.583 7.006-7.045 19.43-6.998 35.312.066 22.245 5.689 19.899 7.944-3.314l.71-7.314 2.115 6.176c2.714 7.928 3.353 7.884 7.832-.548l3.719-7 .031 4.074c.045 5.73 2.968 22.258 4.661 26.353 3.084 7.459 3.871 2.485 3.871-24.454v-25.428l-2.812-2.772-2.813-2.773-2.187 2.711c-1.204 1.492-3.287 5.542-4.63 9l-2.443 6.289-1.295-6.338c-2.232-10.919-4.861-14.322-7.705-9.974m66.885 5.943c-8.876 2.521-8.215 1.618-10.956 14.978-4.926 24.009-4.464 25.942 5.956 24.926 5.432-.529 24.5-13.167 24.5-16.238 0-1.459-5.681-.824-13.887 1.553L87 238.7v-2.212c0-1.817 1.192-2.648 6.688-4.661 12.062-4.419 13.823-10.543 2.689-9.351-7.805.836-8.401-.55-1.511-3.514 5.021-2.16 7.85-5.653 6.798-8.395-.774-2.018-3.524-1.891-12.164.564m118.767 1.543c-.581 1.675-.615 3.233-.083 3.826.494.55 1.583 1.9 2.42 3 1.416 1.86 1.491 1.662 1.072-2.837-.566-6.083-2.07-7.843-3.409-3.989m-147.79 2.177c-4.396 2.681-9.747 13.73-10.291 21.25-.5 6.92 2.431 12.669 7.539 14.785 10.191 4.221 21.37-18.795 15.26-31.416-3.006-6.21-7.299-7.795-12.508-4.619m-.357 9.925C57.507 229.658 56.685 242 58.972 242c3.29 0 9.028-8.473 9.028-13.33 0-4.825-5.838-7.71-7.88-3.894m7.618 34c.419 1.498.759 4.861.755 7.474-.005 2.613.325 4.75.733 4.75.768 0 6.151-10.03 5.591-10.419-.174-.121-2.01-1.189-4.079-2.374l-3.763-2.154.763 2.723m84.614 6.217c-3.78 1.526-3.737 3.007.089 3.007 2.892 0 3.559-.375 3.559-2 0-2.185-.432-2.304-3.648-1.007m-62.602 7.844c-3.641 6.563-3.624 12.995.018 7.163 3.792-6.072 12.673.532 13.446 10 .274 3.356.338 3.409 1.55 1.29 1.787-3.126 2.607-10.332 1.792-15.763-.765-5.107-1.794-5.853-9.647-7.002l-4.409-.645-2.75 4.957" fill-rule="evenodd"/>
<path fill="#bf0e07" stroke="#bf0e07" d="M105.702 37.063c-.592 2.368-.015 5.737 2.215 12.93 2.324 7.496-.103 15.599-5.22 17.429-3.542 1.267-5.257-.398-7.164-6.955-1.922-6.611-3.201-7.67-2.681-2.22.214 2.244-.178 6.443-.871 9.333-1.22 5.085-1.404 5.289-5.742 6.381-4.755 1.198-6.368.768-4.422-1.178C83.458 71.142 83.298 69 81.535 69 78.121 69 73 75.041 73 79.068c0 4.267-3.116 7.216-5.307 5.025-1.433-1.433-6.381-1.407-7.274.039-.385.622.038 1.544.941 2.049C64.179 87.759 63.468 92 60.383 92c-2.179 0-2.523.357-2.058 2.135.426 1.628-.771 3.529-5.035 8-6.705 7.029-7.566 7.209-6.966 1.451.553-5.312-3.392-13.513-4.131-8.586-.765 5.101-6 7.955-8.008 4.366-.852-1.523-.379-5.142 1.292-9.866.388-1.1-.994.915-3.072 4.478-5.277 9.048-5.644 14.527-1.497 22.374 3.624 6.858 3.755 8.428 1.135 13.565-4.412 8.648-12.5 6.207-10.015-3.022 1.832-6.801.45-5.522-5.175 4.791-6.693 12.271-7 16.51-1.939 26.791 2.839 5.766 3.15 7.087 2.173 9.231-.627 1.376-1.415 5.141-1.753 8.368-.403 3.855-1.251 6.444-2.473 7.55-2.247 2.033-2.404 4.228-.359 5.013 1.159.445 1.477 2.23 1.392 7.834-.1 6.649 1.05 11.134 3.222 12.565.449.296.179 2.653-.599 5.238C11.859 229.753 12.742 258 17.884 258c2.872 0 5.024-3.21 6.253-9.327 1.097-5.464 2.053-6.792 3.363-4.673 1.05 1.699 2.581 1.125 5.592-2.099 1.941-2.078 3.016-2.654 3.262-1.75.201.742 1.133 5.399 2.071 10.349 1.891 9.989 3.62 13.5 6.646 13.5 1.31 0 2.478 1.075 3.306 3.044l1.28 3.045 1.155-3.854c3.62-12.084 14.418-9.79 14.611 3.103.042 2.839-.31 7.131-.782 9.539-1.096 5.581.247 4.901 5.005-2.537 4.03-6.3 6.728-7.868 11.877-6.902 3.248.61 3.587.945 2.906 2.876-.424 1.202-.701 4.549-.617 7.436.612 20.84.81 21.444 3.769 11.497 1.746-5.869 4.225-7.956 7.419-6.247 5.405 2.893 6.868 11.927 3.53 21.798-1.4 4.14-1.567 5.998-.763 8.5l1.029 3.202.124-3c.161-3.896 3.169-10.015 7.296-14.841 2.73-3.194 3.368-4.88 3.784-10 .421-5.18.789-6.135 2.319-6.009 1.328.11 1.63-.295 1.12-1.5-1.568-3.706-3.202-12.178-2.439-12.65.941-.582 14.128-.408 15.241.201.408.223.07 2.012-.75 3.975-.82 1.962-1.491 4.726-1.491 6.142 0 2.336.269 2.163 2.909-1.872 5.107-7.807 7.298-9.746 11.804-10.45l4.212-.659-.594 5.017c-.918 7.754.454 9.759 2.498 3.65 1.853-5.541 4.115-6.77 7.245-3.937 2.328 2.107 2.442 4.251.383 7.19-.848 1.212-2.247 3.89-3.109 5.953l-1.567 3.75 4.86-5.346c5.462-6.008 7.361-9.452 7.234-13.114-.216-6.221.067-7.153 1.991-6.543 1.545.491 1.786.171 1.398-1.854-.372-1.948.154-2.768 2.585-4.025 4.844-2.505 5.307-2.129 5.14 4.172-.084 3.163-.093 6.2-.02 6.75.073.55 1.572-3.312 3.332-8.581 2.975-8.91 3.629-9.978 9.333-15.25 3.373-3.118 6.523-5.653 7-5.632 2.548.107 8.418 12.339 9.341 19.463l.647 5 .839-3.955c.623-2.941.312-5.954-1.214-11.751-2.991-11.357-1.818-20.586 3.139-24.699 3.656-3.034 6.086-.32 9.064 10.121.897 3.144 2.045 5.972 2.55 6.284.506.313.433-.827-.161-2.532-.598-1.715-.803-5.305-.46-8.034.342-2.714.904-7.195 1.25-9.958.435-3.469.106-6.69-1.065-10.411-1.557-4.952-1.568-5.813-.129-10.658.861-2.898 1.565-6.201 1.565-7.339 0-1.152 1.5-3.265 3.387-4.77 4.006-3.197 8.624-11.931 8.587-16.244-.026-3.16-3.439-19.352-4.249-20.162-.252-.253-.755 1.78-1.118 4.516-.505 3.801-1.143 5.127-2.709 5.624-2.79.886-3.098.406-5.035-7.839l-1.69-7.193 5.413-5.676 5.414-5.676-.1-6.824c-.098-6.744-1.574-14.628-1.8-9.621-.164 3.622-2.298 7.297-4.237 7.297-2.353 0-5.246-4.429-4.573-7.002 1.421-5.434-4.683.243-6.391 5.945-1.452 4.846-2.242 5.057-3.906 1.041-1.074-2.595-.952-3.833.879-8.853 2.42-6.638 2.539-7.92 1.087-11.739l-1.041-2.739-1.709 3.421c-3.551 7.107-10.923 2.673-9.767-5.875 1.851-13.696 1.752-15.425-1.411-24.699l-3.07-9 .47 6.626c.589 8.299-2.754 12.822-7.346 9.94-1.407-.883-1.77-7.149-.53-9.155.38-.615-.369-.745-1.971-.343l-2.584.649v-7.019c0-6.773-.148-7.2-4.25-12.227-2.338-2.865-5.056-6.393-6.041-7.84l-1.79-2.631.682 3c.375 1.65 1.744 4.84 3.041 7.088 3.018 5.232 2.982 7.957-.134 9.999-4.106 2.69-6.324.734-8.017-7.073-.588-2.709-.745-2.811-1.706-1.095-1.649 2.947-1.191 8.648 1.09 13.581 3.473 7.51 2.955 11.008-1.625 10.964-5.705-.055-8.898-3.269-9.463-9.526-.342-3.783-1.471-6.562-4.47-11-2.207-3.266-4.299-6.613-4.649-7.438-.35-.825-.402.75-.117 3.5 1.308 12.586 1.264 12.843-2.551 14.748-5.179 2.588-15.42 2.467-14.73-.173.33-1.263.076-1.761-.74-1.448-.874.335-1.407-1.339-1.798-5.643-.547-6.033-1.447-7.869-7.916-16.151-1.146-1.468-2.628-4.814-3.294-7.437-1.042-4.105-1.296-4.43-1.82-2.333m4.805 23.959C112.115 66.089 107.175 74 102.404 74c-1.278 0-3.466-1.233-4.864-2.74L95 68.52v3.549c0 6.415 1.193 6.993 11.5 5.574l9-1.24-.179-6.268c-.107-3.779-.811-7.234-1.773-8.701-1.939-2.96-3.935-3.23-3.041-.412m56.743 6.701c-3.613.449-3.695.576-2.19 3.389.583 1.09 1.378 3.842 1.766 6.117.997 5.838 5.514 7.292 7.59 2.442 1.226-2.862 1.174-3.305-.529-4.543-1.206-.877-1.887-2.591-1.887-4.75 0-1.858-.338-3.306-.75-3.218-.412.088-2.213.342-4 .563m-25.275 3.842c-1.406 3.7-1.222 4.46.999 4.121 2.803-.428 3.211-1.1 2.466-4.068-.834-3.323-2.214-3.344-3.465-.053M75.62 75.133c-1.042 1.487-1.329 3.532-.947 6.753.437 3.687.139 5.124-1.471 7.113l-2.019 2.493.57-2.996c.513-2.702.406-2.861-1.092-1.624-.913.755-1.702 2.105-1.751 3-.05.896-.513.165-1.029-1.622-1.208-4.183-4.085-4.518-3.257-.379.345 1.726-.048 4.021-.985 5.75-.857 1.584-1.584 2.204-1.614 1.379-.084-2.266-1.99.917-2.01 3.356-.008 1.02-1.14 3.192-2.515 4.826-1.375 1.634-2.5 2.403-2.5 1.708 0-1.848-5.374 3.585-11.483 11.61-9.143 12.01-15.486 26.618-17.758 40.893-1.035 6.507-1.412 7.283-4.198 8.629-2.829 1.366-3.175 2.117-4.561 9.896-.83 4.659-2.058 8.604-2.75 8.834-1.807.6-1.539 3.248.33 3.248 1.343 0 1.478.941.904 6.304-.82 7.658 1.519 15.185 3.925 12.633 1.798-1.907 4.355-10.154 5.19-16.739.649-5.121.839-5.386 5.537-7.767 5.082-2.575 5.602-3.293 3.737-5.158-.77-.77-1.923-.824-3.639-.172-3.063 1.165-3.185 1.061-2.559-2.197.412-2.141 1.6-2.984 6.779-4.813C42.313 167.317 45 165.46 45 162.804c0-1.931-.416-2.042-5.75-1.536-3.163.301-6.489.843-7.392 1.205-1.5.601-1.527.113-.312-5.682 3.188-15.208 10-29.445 19.583-40.93 2.129-2.551 3.885-5.251 3.901-6 .02-.884.398-.729 1.079.441.741 1.274.722 2.196-.065 3.144-.612.738-1.386 3.643-1.719 6.454-.457 3.865-.902 4.866-1.824 4.101-2.089-1.734-6.556 2.607-6.524 6.341.014 1.737-.222 6.397-.527 10.357-.486 6.333-.309 7.442 1.478 9.229 1.468 1.468 1.873 2.816 1.462 4.871-.538 2.69-.286 2.932 4.771 4.583 2.937.958 8.298 1.998 11.914 2.311l6.574.568 1.269-3.381c2.549-6.791 2.941-7.53 3.014-5.687.048 1.192.717 1.567 2.266 1.269 1.801-.347 27.051 2.291 39.421 4.119l3.118.46-1.591 4.424c-1.753 4.876-1.149 6.569 1.58 4.428 1.618-1.271 1.652-1.237.381.381-.765.976-1.15 2.016-.855 2.311.921.921 12.554 2.279 14.704 1.716 1.203-.314 2.044-.05 2.044.641 0 .647-.38.941-.844.655-3.862-2.388-15.006 6.831-17.229 14.254-3.411 11.383 7.756 16.127 17.08 7.257 5.053-4.806 5.175-11.958.208-12.187-1.043-.048-1.225-.277-.465-.583.688-.278 1.25-1.158 1.25-1.957 0-1.153.421-1.226 2.049-.355 1.493.8 2.98.789 5.484-.037 4.775-1.576 7.31-.616 6.706 2.539-.261 1.366.092 3.166.785 4.001 1.039 1.252.996 1.416-.243.94-1.121-.43-1.656.388-2.109 3.228-.334 2.091-2.035 9.929-3.78 17.416l-3.172 13.614-3.11-.829c-1.711-.457-5.247-1.098-7.86-1.425-7.264-.911-6.07-2.695 6-8.958 7.238-3.756 9.233-6.54 5.668-7.908-3.106-1.192-5.812-.554-13.809 3.255-18.656 8.884-20.822 18.485-5.078 22.501 6.624 1.69 6.096 2.558-5.031 8.275-11.008 5.656-13.632 8.583-11.63 12.975 1.932 4.241 4.409 3.281 21.09-8.174l10.863-7.46-1.564 4.891c-1.707 5.338-1.29 7.784 1.517 8.904 1.758.701 1.756.94-.05 6.925l-1.869 6.2-4.679.8c-17.028 2.914-37.695-.429-54.571-8.828-9.386-4.671-9.988-4.836-11.766-3.228-2.233 2.022-1.016 3.067 10.371 8.903 13.575 6.959 22.185 8.812 41.288 8.887 21.887.086 31.072-2.262 49.132-12.559 18.269-10.416 40.515-38.418 40.794-51.351.059-2.733.551-3.546 2.432-4.02 1.853-.468 2.259-1.113 1.895-3.014-.254-1.331.033-2.584.638-2.786.717-.239 1.218-5.738 1.438-15.785.393-17.913-1.201-27.865-5.498-34.342-1.488-2.242-2.809-5.035-2.937-6.207-.476-4.364-11.543-22.478-16.441-26.912-1.871-1.692-1.953-1.689-1.953.088 0 1.342-.302 1.553-1.093.762-.79-.79-.79-1.657 0-3.134 1.916-3.579 1.314-7.854-1.407-9.994-1.375-1.082-2.5-2.845-2.5-3.918 0-2.545-3.057-5.261-5.922-5.261-1.418 0-2.459-.742-2.784-1.984-.555-2.121-6.366-4.309-8.881-3.344-.791.303-2.055.04-2.81-.586-.754-.626-3.111-1.201-5.237-1.277-2.126-.076-4.995-.969-6.376-1.984-3.627-2.668-10.39-3.131-13.144-.901-1.82 1.474-2.91 1.619-6.274.836-12.67-2.949-49.189 3-52.807 8.602-.437.678-.741.26-.75-1.035-.018-2.589 3.762-7.335 7.388-9.275 3.558-1.904 3.278-3.185-.416-1.898-3.51 1.224-5.987.553-5.987-1.623 0-2.183-1.634-1.892-3.38.602M113 84.65c-1.375.193-6.437.888-11.25 1.544-4.812.657-8.75 1.566-8.75 2.022 0 .455-1.115 2.512-2.478 4.572-3.692 5.579-4.439 10.265-1.514 9.5 2.155-.564 2.177-.5.635 1.854-1.301 1.985-1.4 3.156-.531 6.303 1.112 4.026.005 8.555-2.091 8.555-.561 0-1.021.891-1.021 1.98 0 3.314-3.068 9.879-4.836 10.347-1.218.323-1.094.472.464.557 3.58.195 4.894 2.709 3.718 7.114l-1.026 3.845 6.017 1.06c17.141 3.019 34.872 4.474 35.735 2.932.464-.829 1.875-1.393 3.136-1.254 1.261.139 4.685.29 7.609.336 5.015.078 5.283.211 4.703 2.333-.531 1.942-.465 2.01.482.5 1.392-2.22 3.762-2.23 6.419-.027 1.144.948 1.517 1.083.829.3-1.728-1.967-1.563-3.002.5-3.141.963-.065.448-.403-1.143-.75-3.487-.762-5.779-3.769-3.81-4.999 2.481-1.548-1.049-3.208-4.635-2.179-12.279 3.521-24.102 3.251-25.574-.584-1.77-4.614 2.359-15.088 7.343-18.626 2.451-1.74 2.978-3.977 1.327-5.629-.804-.804-1.163-2.359-.84-3.645.417-1.66.058-2.374-1.382-2.75-2.638-.69-3.766-5.419-1.769-7.416.84-.839 3.571-1.757 6.07-2.039 4.75-.535 6.577-2.459 4.598-4.844-1.504-1.811-.3-5.092 2.098-5.719 1.082-.283 1.962-.894 1.957-1.358-.011-.835-16.166-1.369-20.99-.694m74.472 1.395c-.366.593-1.705 1.473-2.974 1.956l-2.307.877 2.009 4.061c2.417 4.886 3.26 5.049 4.702.912 1.843-5.286.738-11.314-1.43-7.806m-51.908 4.662c-.542 1.425-.428 1.54.56.56.684-.679.991-1.486.683-1.793-.308-.308-.867.247-1.243 1.233m-54.893.792c-.919.672-1.671 1.564-1.671 1.984 0 .419.637.233 1.416-.414 1.104-.916 1.491-.866 1.75.228.269 1.13.682 1.068 2.125-.32 2.298-2.211-.856-3.499-3.62-1.478m66.142-.816c.721.289 1.584.253 1.916-.079.332-.332-.258-.568-1.312-.525-1.165.048-1.402.285-.604.604M30.13 102.315c-1.975 4.92-1.342 7.5 2.997 12.207 5.084 5.516 4.996 5.518 8.779-.193 4.43-6.689 4.169-16.34-.297-10.974-3.543 4.257-8.189 3.959-9.45-.605l-.898-3.25-1.131 2.815m139.949.268c.048 1.165.285 1.402.604.605.289-.722.253-1.585-.079-1.917-.332-.332-.568.258-.525 1.312m-44.266 4.1c.721.289 1.584.253 1.916-.079.332-.332-.258-.568-1.312-.525-1.165.048-1.402.285-.604.604m44.266 1.9c.048 1.165.285 1.402.604.605.289-.722.253-1.585-.079-1.917-.332-.332-.568.258-.525 1.312M128 111c0 .55.45 1 1 1s1-.45 1-1-.45-1-1-1-1 .45-1 1m93.158 2c0 1.375.227 1.938.504 1.25.278-.687.278-1.812 0-2.5-.277-.687-.504-.125-.504 1.25M152 113c0 .55.45 1 1 1s1-.45 1-1-.45-1-1-1-1 .45-1 1m-8.364 1.78c-.338.546.056 1.549.875 2.229 1.626 1.35 1.965.291.599-1.866-.523-.824-1.101-.967-1.474-.363m32.364.279c0 .582.45.781 1 .441s1-.816 1-1.059-.45-.441-1-.441-1 .477-1 1.059m10.57.722c-.393 1.236-1.132 1.99-1.642 1.675-.51-.316-.928.803-.928 2.485 0 1.824.518 3.059 1.284 3.059 1.518 0 4.952 5.43 4.023 6.36-.352.352.335.64 1.526.64 1.192 0 2.167.45 2.167 1s.591 1 1.313 1c1.8 0 7.043 5.614 6.327 6.774-.332.537.561.719 2.089.427 2.616-.5 2.624-.526.434-1.336-1.229-.455-3.006-2.253-3.949-3.996-.943-1.742-3.674-6.138-6.069-9.769-2.395-3.63-4.693-7.493-5.108-8.584-.725-1.908-.781-1.898-1.467.265m-58.82-.119c.688.278 1.813.278 2.5 0 .688-.277.125-.504-1.25-.504s-1.937.227-1.25.504M179.5 119c-.34.55.11 1 1 1s1.34-.45 1-1c-.34-.55-.79-1-1-1-.21 0-.66.45-1 1m-9.806 3.686c-1.025 1.659 1.531 3.178 3.806 2.261 1.93-.778 1.924-.809-.167-.877-1.191-.038-2.346-.61-2.567-1.271-.279-.837-.603-.871-1.072-.113m38.404 3.463c-1.625 4.66-.771 9.514 2.59 14.736.447.694 6.764-2.292 9.048-4.278 2.317-2.014 3.966-7.663 2.791-9.564-.428-.692-1.309-.299-2.431 1.086-2.452 3.029-6.887 1.884-8.419-2.174-1.422-3.768-2.213-3.725-3.579.194m-26.693.101-1.905 2.25 2.25-1.905c1.238-1.048 2.25-2.06 2.25-2.25 0-.8-.805-.209-2.595 1.905M17.828 135.5c-4.704 9.306-4.444 15.565.988 23.79 2.99 4.527 3.606 4.066 5.066-3.79.613-3.3 1.393-7.238 1.733-8.75.454-2.018.233-2.75-.829-2.75-1.654 0-3.327-2.922-4.579-8l-.863-3.5-1.516 3m175.33-.5c0 1.375.227 1.938.504 1.25.278-.687.278-1.812 0-2.5-.277-.687-.504-.125-.504 1.25m-139.533-.202c-.271.439-.093 1.445.397 2.237.671 1.086.848.889.721-.798-.183-2.427-.364-2.66-1.118-1.439m109.882.191c-.35.566.051.734.941.393 1.732-.665 2.049-1.382.611-1.382-.518 0-1.216.445-1.552.989M79 141.059c0 .582.45.781 1 .441s1-.816 1-1.059-.45-.441-1-.441-1 .477-1 1.059m115.872 2.691c-1.243 1.586-1.208 1.621.378.378 1.666-1.307 2.195-2.128 1.372-2.128-.207 0-.995.787-1.75 1.75m-22 1c-1.243 1.586-1.208 1.621.378.378.963-.755 1.75-1.543 1.75-1.75 0-.823-.821-.294-2.128 1.372m13.026 3.169c-1.054 3.436-1.148 4.73-.319 4.412.987-.378 2.786-8.299 2.052-9.033-.132-.133-.912 1.947-1.733 4.621m5.9-.37c-.312.523-.829 2.976-1.149 5.451l-.582 4.5 1.471-4.486c1.387-4.227 1.548-7.621.26-5.465m-22.658 1.782c-.829.999-.655 1.812.695 3.261.989 1.063 2.269 2.771 2.844 3.798.716 1.28 1.269 1.503 1.759.711.409-.663-.577-2.363-2.31-3.981-2.275-2.125-2.739-3.109-1.876-3.972.632-.632.888-1.148.57-1.148-.317 0-1.074.599-1.682 1.331m-93.14.728c0 .582.45.781 1 .441s1-.816 1-1.059-.45-.441-1-.441-1 .477-1 1.059m64.079 2.524c.048 1.165.285 1.402.604.605.289-.722.253-1.585-.079-1.917-.332-.332-.568.258-.525 1.312m27.411 1.433c-.346.559-.996.789-1.445.512-.68-.421-2.402 3.549-1.755 4.047.115.089 1.257-1.129 2.536-2.707 1.279-1.577 2.093-2.868 1.809-2.868-.284 0-.8.457-1.145 1.016m15.134 1.523c-.965 2.514-.681 3.163.498 1.136.584-1.004.851-2.036.593-2.293-.257-.258-.749.263-1.091 1.157M139.5 156c-.34.55-.141 1 .441 1s1.059-.45 1.059-1-.198-1-.441-1-.719.45-1.059 1m7.5 1.902c0 1.038 1.902 2.541 2.466 1.948.183-.192-.297-.93-1.067-1.639-.769-.71-1.399-.849-1.399-.309m-22.743 3.335c-.132 1.759.033 1.919.772.75 1.156-1.828 1.227-2.987.184-2.987-.433 0-.863 1.007-.956 2.237m54.433.199c-.995.755-1.423 1.611-.95 1.903.473.293 1.404-.339 2.068-1.404 1.42-2.273 1.295-2.329-1.118-.499m41.06 4.157c-2.76 4.548-4.18 18.407-1.886 18.407 3.021 0 6.136-7.769 6.136-15.304 0-8.908-.503-9.275-4.25-3.103m-62.417-1.111c0 .816 1.163 2.503 2.584 3.75l2.583 2.268-2.5-2.831c-1.375-1.556-2.35-3.056-2.167-3.333.184-.276.146-.69-.083-.919-.229-.229-.417.25-.417 1.065M164 166.5c1.292 1.375 2.7 2.5 3.129 2.5.429 0-.345-1.125-1.72-2.5s-2.783-2.5-3.129-2.5c-.346 0 .428 1.125 1.72 2.5m6.606.348-1.894 2.652 2.338-2.222c1.287-1.222 2.139-2.416 1.894-2.652-.244-.237-1.296.763-2.338 2.222m-36.876.227c.601 2.298.879 2.386 1.6.508.299-.78-.052-1.646-.78-1.925-.904-.347-1.164.103-.82 1.417m-93.153 6.175c-7.475 11.453-12.3 33.623-7.514 34.529 3.774.714 17.066-16.394 15.635-20.124-.874-2.277-2.036-2.083-5.627.939l-3.083 2.594 2.599-5.174c3.603-7.174 4.549-10.891 3.345-13.142-1.348-2.518-3.567-2.361-5.355.378M163 171.313c0 .172 1.463 1.635 3.25 3.25l3.25 2.937-2.937-3.25c-2.738-3.029-3.563-3.71-3.563-2.937m-89.924 3.096c-1.394 1.679-2.69 8.92-3.566 19.923l-.703 8.832 2.346-.332c1.963-.278 2.585-1.313 3.802-6.332.8-3.3 1.621-5.213 1.823-4.25.574 2.727 2.823 2.067 5.107-1.5l2.081-3.25.017 6.25c.013 4.73.363 6.25 1.439 6.25 1.816 0 3.269-4.481 4.612-14.223 1.683-12.208-1.627-15.642-6.965-7.225-3.091 4.874-3.19 4.86-4.986-.714-1.296-4.023-3.348-5.429-5.007-3.429m40.026 1.824c-.513 1.347-1.251 4.58-1.642 7.183l-.709 4.733-3.224-5.825c-3.65-6.594-6.447-8.125-6.663-3.647-.108 2.244-.223 2.376-.56.646-.573-2.944-3.063-4.964-4.432-3.595-1.337 1.337-5.082 20.647-4.678 24.121.182 1.568 1.022 2.77 2.075 2.969 2.249.427 4.307-4.294 5.648-12.955.932-6.021.956-5.867.459 2.887-.494 8.688-.408 9.25 1.426 9.25 2.377 0 3.81-1.604 4.739-5.305l.701-2.795 1.525 2.3c.839 1.265 2.124 2.792 2.856 3.393 1.065.876.816 1.37-1.251 2.476-4.102 2.195-2.13 13.203 2.076 11.589 2.953-1.133 5.259-11.589 2.741-12.428-.513-.171-.09-1.963.939-3.982 2.435-4.775 2.706-20.311.389-22.234-1.227-1.018-1.645-.807-2.415 1.219m-53.329-.166c-6.56 3.823-15.714 27.867-11.26 29.576 2.262.868 4.192-1.235 7.122-7.764 3.1-6.908 3.957-7.256 4.849-1.971 1.349 7.981 5.689 9.518 6.86 2.429 1.101-6.661.752-20.841-.544-22.137-1.448-1.448-4.667-1.508-7.027-.133m69.15 5.856c-3.153 3.153-3.722 6.602-1.575 9.539 1.572 2.149 3.652 1.283 3.652-1.521 0-1.274-.687-1.941-2-1.941-2.949 0-2.431-2.579.786-3.911 1.712-.71 2.785-1.912 2.785-3.122 0-2.555-.185-2.507-3.648.956M60.16 183.24c-1.564 1.564-1.463 2.76.233 2.76 1.585 0 2.932-2.681 1.723-3.428-.438-.271-1.318.03-1.956.668m98.84.138c0 .207.787.995 1.75 1.75 1.586 1.243 1.621 1.208.378-.378-1.307-1.666-2.128-2.195-2.128-1.372m19 0c0 .207.787.995 1.75 1.75 1.586 1.243 1.621 1.208.378-.378-1.307-1.666-2.128-2.195-2.128-1.372m4.116 1.25c-.064 1.17.645 2.745 1.576 3.5 1.411 1.144 1.556 1.146.872.01-.502-.833-.286-1.743.558-2.344 1.082-.771 1.015-.867-.309-.444-1.056.338-1.855-.095-2.134-1.155-.337-1.279-.475-1.173-.563.433m6.456 1.122c.497.412 1.185 1.125 1.527 1.584.343.458.896.121 1.23-.75.438-1.141.01-1.584-1.527-1.584-1.174 0-1.728.338-1.23.75m15.241 3.933c.721.289 1.584.253 1.916-.079.332-.332-.258-.568-1.312-.525-1.165.048-1.402.285-.604.604M172 196.5c1.292 1.375 2.574 2.5 2.849 2.5.275 0-.557-1.125-1.849-2.5-1.292-1.375-2.574-2.5-2.849-2.5-.275 0 .557 1.125 1.849 2.5m-149.93 9.138c-7.142 9.08-9.875 51.434-3.237 50.156 2.076-.4 3.987-7.193 4.814-17.118l.662-7.935 1.882 6.129c2.43 7.915 3.931 7.816 8.141-.534l3.36-6.664.563 7.914c.657 9.225 3.279 21.395 5.167 23.976 1.239 1.695 1.394 1.659 2.696-.632 2.283-4.015 1.895-48.313-.462-52.731-3.522-6.604-6.366-5.261-11.165 5.27l-3.175 6.969-.715-5.387c-1.482-11.172-4.515-14.519-8.531-9.413m65.508 5.76-6.923 2.19-2.782 13.956c-4.168 20.911-3.891 22.942 3.288 24.084 7.041 1.121 32.377-15.065 27.69-17.691-1.111-.622-4.854-.11-11.477 1.57-5.405 1.371-9.909 2.493-10.007 2.493-.099 0 .044-.855.317-1.899.321-1.228 2.589-2.662 6.423-4.06 3.26-1.188 6.837-3.138 7.949-4.332 2.007-2.153 2.294-6.322.42-6.086-13.598 1.712-15.229 1.131-7.019-2.501 4.707-2.082 8.12-6.175 7.184-8.614-.813-2.12-6.64-1.776-15.063.89m120.591.13c-1.267 2.78-.754 6.472.898 6.472.513 0 .933.675.933 1.5s.45 1.5 1 1.5c1.462 0 1.223-8.313-.3-10.396-1.208-1.652-1.387-1.586-2.531.924M60 214.452c-4.817 2.643-9.5 13.918-9.5 22.875 0 7.761.031 7.855 3.735 11.25 5.964 5.465 11.039 3.932 16.214-4.9 9.707-16.567 2.618-36.395-10.449-29.225m84 7.926c0 .207.787.995 1.75 1.75 1.586 1.243 1.621 1.208.378-.378-1.307-1.666-2.128-2.195-2.128-1.372m-83.502 2.984c-2.234 3.41-3.274 15.638-1.33 15.638 2.311 0 6.811-5.338 7.937-9.417 1.823-6.605-3.234-11.367-6.607-6.221m6.872 32.888c.331 1.238.609 4.837.616 8 .008 3.163.431 5.75.941 5.75.942 0 7.584-10.903 6.93-11.379-1.325-.964-8.076-4.621-8.531-4.621-.308 0-.288 1.012.044 2.25m83.88 6.781c-2.405.967-3.074 2.96-1 2.983.688.007 2.262.285 3.5.616 1.914.513 2.25.212 2.25-2.013 0-2.751-1.011-3.089-4.75-1.586m-61.555 6.789C87.025 276.725 86.074 283 88 283c.55 0 1-.44 1-.977 0-.537 1.091-1.692 2.424-2.565 5.01-3.283 10.941 2.344 10.821 10.266-.079 5.268.961 5.431 3.365.526 2.072-4.226 2.409-15.478.566-18.921-.733-1.369-2.514-2.254-5.385-2.674-2.36-.345-5.216-.889-6.346-1.207-1.676-.472-2.554.335-4.75 4.372" fill-rule="evenodd"/>
</svg>