<!DOCTYPE svg PUBLIC "-//W3C//DTD SVG 1.1//EN" "http://www.w3.org/Graphics/SVG/1.1/DTD/svg11.dtd">
<svg xmlns="http://www.w3.org/2000/svg" viewBox="0 0 206 96">
<path fill="#074ca3" d="M15.2 28.2c-2.02 2.02-1.666 37.407.382 38.193 3.54 1.359 23.183.663 23.76-.842.332-.864-.197-1.688-1.311-2.041-13.628-4.325-14.536-27.433-1.281-32.586 1.237-.481 2.25-1.561 2.25-2.399 0-1.976-21.851-2.274-23.8-.325m22.514 11.932c-2.632 7.221-4.564 13.352-4.293 13.623 1.371 1.371 3.467-1.183 5.464-6.659C40.107 43.743 41.458 41 41.887 41c1.863 0 1.771 1.493-.438 7.129l-2.35 5.997 2.119-.313c1.534-.227 2.604-1.694 3.873-5.313 2.494-7.11 2.397-8.5-.591-8.5-2.905 0-3.041-.769-1-5.654 1.827-4.373 1.928-7.346.25-7.345-.693 0-3.382 5.849-6.036 13.131m10.953-12.465c-1.366 1.365-.57 2.087 2.926 2.654 9.245 1.501 15.781 11.731 13.342 20.884C63.231 57.598 56.337 64 51.157 64c-1.069 0-2.202.675-2.519 1.5-1.004 2.617 27.923 2.188 29.327-.434 1.801-3.367 1.342-34.616-.536-36.495-1.629-1.628-27.233-2.433-28.762-.904M90 34.833c0 6.297.294 7.834 1.5 7.834 1.033 0 1.5-1.037 1.5-3.334V36h5.937c5.935 0 5.936.001 6.25 3.173.172 1.745.876 3.358 1.563 3.583.931.306 1.25-1.654 1.25-7.673 0-6.518-.29-8.083-1.5-8.083-1.048 0-1.5 1.056-1.5 3.5V34H93v-3.5c0-2.444-.452-3.5-1.5-3.5-1.206 0-1.5 1.537-1.5 7.833m23.691-.259c-2.085 4.213-3.607 7.843-3.384 8.067.66.66 3.693-.776 3.693-1.748 0-1.362 11.764-1.102 12.221.27.409 1.227 3.802 2.131 3.747.999-.017-.364-1.705-3.812-3.75-7.662-5.39-10.147-7.476-10.135-12.527.074m18.309.395c0 6.672.244 7.875 1.5 7.393.825-.317 1.5-1.428 1.5-2.469 0-3.312 9.734-2.723 11.023.667 1.091 2.87 3.435 2.299 2.664-.649-.268-1.025-.135-3.424.295-5.332 1.346-5.968-.682-7.579-9.539-7.579H132v7.969m21-.469c0 6 .3 7.5 1.5 7.5.833 0 1.5-.889 1.5-2 0-3.39 9.728-2.93 10.589.5.894 3.56 2.727 3.105 2.191-.544-.245-1.674-.072-3.276.387-3.559.458-.283.833-2.048.833-3.921 0-4.412-2.027-5.476-10.434-5.476H153v7.5m20-4.071c0 3.809 2.132 6.571 5.071 6.571 1.378 0 1.929.697 1.929 2.441 0 2.807 1.858 4.408 2.989 2.576.421-.681.544-2.089.272-3.128-.389-1.487.048-1.889 2.051-1.889 3.519 0 5.688-2.506 5.688-6.571 0-4.583-2.747-4.737-3.187-.179-.312 3.235-.339 3.25-5.813 3.25-5.474 0-5.501-.015-5.813-3.25-.44-4.558-3.187-4.404-3.187.179M117.701 33.5l-1.669 3.5h3.484c3.782 0 4.087-.583 2.323-4.453-1.531-3.362-2.148-3.22-4.138.953m17.299-1c0 2.365.298 2.5 5.531 2.5 4.15 0 5.685-.4 6.146-1.601.866-2.256-1.407-3.366-6.927-3.384-4.404-.014-4.75.167-4.75 2.485m21-.052c0 2.431.265 2.552 5.57 2.552 5.203 0 5.548-.148 5.25-2.25-.526-3.698-10.82-3.986-10.82-.302m-109.404 20.6c-2.606 7.229-4.5 13.381-4.21 13.672 1.361 1.36 3.28-.954 5.009-6.04 1.705-5.018 2.204-5.605 5-5.877 2.578-.252 3.47-1.067 5.253-4.803 3.845-8.053 3.598-9.452-1.731-9.798l-4.583-.298-4.738 13.144m6.368-7.465C50.796 50.641 50.485 53 51.987 53c.989 0 3.566-5.369 4.65-9.692 1.041-4.146-1.629-2.492-3.673 2.275M90 59.5c0 6 .3 7.5 1.5 7.5.925 0 1.5-.939 1.5-2.45 0-2.281.396-2.471 5.75-2.75l5.75-.3.319-3.898c.401-4.898-.625-5.567-8.569-5.587L90 52v7.5m18.667-6.833c-1.157 1.157-.722 11.878.533 13.133 1.374 1.374 10.621 1.599 12.659.308 1.828-1.158 2.655-9.278 1.219-11.962-1.148-2.146-12.572-3.319-14.411-1.479M126 53.5c0 .933.944 1.5 2.5 1.5 2.389 0 2.5.267 2.5 6 0 4.667.333 6 1.5 6s1.5-1.333 1.5-6c0-5.733.111-6 2.5-6 1.556 0 2.5-.567 2.5-1.5 0-1.179-1.389-1.5-6.5-1.5s-6.5.321-6.5 1.5m17 0c0 .933.944 1.5 2.5 1.5 2.389 0 2.5.267 2.5 6 0 4.667.333 6 1.5 6s1.5-1.333 1.5-6c0-5.733.111-6 2.5-6 1.556 0 2.5-.567 2.5-1.5 0-1.179-1.389-1.5-6.5-1.5s-6.5.321-6.5 1.5m16 6V67h7c5.556 0 7-.31 7-1.5 0-1.152-1.278-1.5-5.5-1.5-4.833 0-5.5-.242-5.5-2 0-1.704.667-2 4.5-2 2.475 0 4.5-.45 4.5-1s-2.025-1-4.5-1c-3.833 0-4.5-.296-4.5-2 0-1.758.667-2 5.5-2 3.025 0 5.5-.45 5.5-1 0-.571-3-1-7-1h-7v7.5m17 0c0 6 .3 7.5 1.5 7.5.943 0 1.5-.951 1.5-2.56 0-3.611 7.304-3.321 7.82.31.175 1.237 1.019 2.25 1.875 2.25 1.19 0 1.416-.695.963-2.961-.326-1.629-.157-3.23.375-3.559 1.364-.843 1.204-5.843-.233-7.28-.679-.679-3.933-1.2-7.5-1.2H176v7.5M93 57c0 3.046.094 3.108 4.25 2.807 3.785-.273 4.25-.581 4.25-2.807s-.465-2.534-4.25-2.807C93.094 53.892 93 53.954 93 57m18.667-2.333c-.367.366-.667 2.641-.667 5.054v4.389l4.75-.305c4.739-.304 4.751-.314 5.069-4.203.2-2.443-.173-4.211-1-4.735-1.58-1.002-7.212-1.14-8.152-.2M179 57.057c0 2.978.111 3.05 4.241 2.75 7.208-.522 6.312-5.757-.991-5.792-2.961-.014-3.25.257-3.25 3.042" fill-rule="evenodd"/>
</svg>