<!DOCTYPE svg PUBLIC "-//W3C//DTD SVG 1.1//EN" "http://www.w3.org/Graphics/SVG/1.1/DTD/svg11.dtd">
<svg xmlns="http://www.w3.org/2000/svg" viewBox="0 0 299 222">
<path fill="#131210" d="M190.171 11.347c-2.397 5.418-4.027 6.57-5.823 4.115-1.279-1.75-1.348-1.731-1.348.378 0 1.223-.675 2.482-1.5 2.798-.825.317-1.5 1.203-1.5 1.969S179.595 22 179.1 22s-.908 1.462-.917 3.25c-.009 1.788-.944 5.275-2.078 7.75-1.134 2.475-2.071 5.288-2.083 6.25-.012.962-.499 1.75-1.081 1.75s-.763.478-.402 1.063c.888 1.436-2.409 4.937-4.649 4.937-1.265 0-1.994-1.04-2.456-3.5-.361-1.925-1.014-3.5-1.452-3.5-.437 0-.573.849-.301 1.887.271 1.038-.004 2.195-.611 2.57-.746.461-.449 1.517.912 3.248 2.89 3.674 2.602 4.297-4.286 9.256-9.407 6.772-13.994 8.051-28.288 7.885-11.038-.128-12.353.053-15.089 2.076-4.425 3.272-9.506 4.127-14.891 2.506-4.193-1.262-4.501-1.235-3.998.352.389 1.228-1.013 2.925-4.905 5.935-7.092 5.487-9.084 9.611-9.886 20.473-.69 9.346-1.564 12.594-4.063 15.093-3.497 3.497.528 2.4 6.917-1.885 4.638-3.111 6.56-3.978 6.087-2.745-.545 1.421-.162 1.305 1.808-.546 2.38-2.236 4.454-9.101 6.12-20.254.578-3.871 3.849-8.851 5.815-8.852.788 0 1.065 1.611.839 4.879-.199 2.863.247 6.067 1.078 7.751 1.853 3.757 1.515 8.594-.845 12.076-2.823 4.164-3.153 6.334-1.706 11.204 1.426 4.795 1.638 14.396.389 17.591-.515 1.318-.115 3.282 1.174 5.757 1.076 2.066 1.712 4.395 1.412 5.177-.851 2.216 1.376 3.369 7.094 3.671 8.619.456 9.154-3.027 1.496-9.74l-3.577-3.136 1.281-9.364c1.37-10.019 3.862-15.391 8.571-18.476 3.574-2.342 4.308-.897 1.777 3.5l-2.161 3.755 2.945 2.778c3.925 3.705 8.045 10.888 9.468 16.507l1.157 4.571 7.296.297c10.752.437 12.072-2.803 2.487-6.109-3.294-1.136-4.462-2.303-6.632-6.628-4.256-8.477-4.361-11.645-.592-17.874l3.226-5.333 4.5.824c8.413 1.539 17.067.874 23.602-1.815l6.102-2.51 2.648 2.112c5.945 4.74 2.817 11.536-5.31 11.536-3.678 0-4.393 2.083-2.413 7.03 1.567 3.918 1.916 4.22 4.871 4.22 4.431 0 5.74-.557 9.02-3.837 2.007-2.006 4.201-3.35 4.981-3.051 1.857.713 3.671 7.748 3.835 14.872.108 4.699.446 5.766 1.826 5.766.931 0 2.778 1.387 4.105 3.082 2.246 2.869 2.846 3.079 8.721 3.051 7.097-.034 8.543-.881 7.64-4.477-.639-2.549-6.136-6.656-8.907-6.656-1.7 0-6.717-5.464-6.727-7.327-.004-.645-.714-2.523-1.578-4.173-1.14-2.175-1.398-4.402-.941-8.1.58-4.683.426-5.235-1.883-6.747-2.437-1.598-3.637-4.662-5.034-12.858-.437-2.561-1.052-3.543-1.994-3.181-.749.287-1.659.042-2.022-.546-.363-.587.009-1.068.826-1.068 2.026 0 6.637-10.374 6.61-14.871-.012-1.996-.818-5.429-1.79-7.629-.973-2.2-1.729-4.45-1.679-5 .212-2.365 1.704-5.5 2.617-5.5.546 0 .671-.52.279-1.155-.443-.715-.275-.883.44-.44.635.392 1.155 1.789 1.155 3.103 0 2.48 5.389 7.478 8.094 7.507 1.162.013 1.15.177-.066.947-2.265 1.432.649 2.148 4.955 1.216 3.489-.754 4.738-2.259 7.199-8.678 1.652-4.308 1.636-4.78-.243-7-.93-1.1-1.972-3.575-2.315-5.5-.343-1.925-1.901-6.2-3.463-9.5-1.898-4.012-2.723-7.16-2.49-9.5 1.541-15.481 1.567-14.681-.397-12.5-3.31 3.676-5.426 5.059-4.651 3.04.627-1.633.474-1.642-2.428-.141-4.141 2.142-4.08 2.173-4.815-2.421-.893-5.587-1.947-5.745-4.209-.631M192.232 17c0 1.925.206 2.712.457 1.75.252-.962.252-2.538 0-3.5-.251-.963-.457-.175-.457 1.75m3.435 13.667c-.367.366-.667 1.131-.667 1.7 0 .626.466.567 1.183-.15.651-.651.951-1.416.667-1.7-.284-.284-.817-.217-1.183.15m-36.331 10.9c-.331.862-.204 1.965.281 2.45.511.511.883-.151.883-1.567 0-2.839-.32-3.082-1.164-.883m9.051 8.965c-2.221 3.39-2.965 14.892-1.388 21.465 2.29 9.547 10.425 15.494 17.716 12.953 3.55-1.238 8.345-9.714 8.183-14.464l-.103-2.986-.812 3.451c-.978 4.152-3.309 6.05-7.424 6.045-8.349-.01-14.059-8.64-14.059-21.246 0-8.817.094-8.586-2.113-5.218m38.251-.032c.317.825.753 1.5.969 1.5.216 0 .393-.675.393-1.5s-.436-1.5-.969-1.5c-.532 0-.709.675-.393 1.5m-9.896 3.379c-.297 1.135.087 2.564.861 3.207 1.112.922 1.394.776 1.382-.714-.026-3.133-1.614-4.899-2.243-2.493M97.89 78.25c-1.175 2.238-1.17 2.24.964.345 2.384-2.116 2.602-2.595 1.181-2.595-.53 0-1.496 1.013-2.145 2.25M32 158.5c0 3.33.169 3.5 3.481 3.5 4.553 0 4.656.515 4.304 21.5l-.285 17-3.75.31c-3.413.283-3.75.575-3.75 3.25V207h26v-3c0-2.759-.28-3-3.481-3-4.155 0-4.787-1.543-4.325-10.542.273-5.307.552-5.993 2.556-6.278 1.513-.214 2.25.195 2.25 1.25 0 1.008.895 1.57 2.5 1.57 2.41 0 2.5-.233 2.5-6.5 0-6.182-.117-6.5-2.383-6.5-1.543 0-2.568.706-2.907 2-.706 2.7-3.332 2.539-4.08-.25-.784-2.928-.798-10.148-.023-12.168.548-1.428 10.333-1.582 100.5-1.582H251v-7H32v3.5m224.75-2.338c-3.655 1.335-3.482 3.387.399 4.74 6.154 2.145 14.851.739 14.851-2.402 0-3.119-9.235-4.535-15.25-2.338M70 168.666c-4.738 1.878-5 2.874-5 18.989C65 207.621 64.492 207 80.811 207 94.757 207 97 205.886 97 198.961V195h-5c-4.386 0-5 .254-5 2.066 0 4.058-1.845 5.934-5.835 5.934-4.933 0-6.165-1.416-6.165-7.083 0-5.65.524-5.883 13.25-5.903L97 190v-8.389c0-12.378-.739-13.05-14.66-13.325-5.962-.118-11.515.053-12.34.38M102 171c0 1.898.512 3 1.393 3 2.156 0 2.607 2.337 2.607 13.5s-.451 13.5-2.607 13.5c-.881 0-1.393 1.102-1.393 3v3h17v-3c0-2-.5-3-1.5-3-1.234 0-1.5-1.786-1.5-10.077 0-9.855.066-10.143 2.989-13.066 3.975-3.975 5.011-3.003 5.011 4.702V189h10v-8.943c0-12.464-2.517-14.357-12.75-9.593l-5.25 2.444v-2.454c0-2.372-.235-2.454-7-2.454h-7v3m37 0c0 2.333.444 3 2 3 1.898 0 2 .667 2 13.094 0 12.252-.128 13.127-2 13.616-1.417.371-2 1.364-2 3.407V207h18v-2.883c0-2.043-.583-3.036-2-3.407-1.821-.476-2-1.364-2-9.92 0-9.328.025-9.422 3.316-12.611 4.118-3.992 4.684-3.45 4.684 4.488V189h11v-8.066c0-12.728-3.52-15.542-13.177-10.532-6.093 3.161-5.823 3.156-5.823.098 0-2.429-.2-2.5-7-2.5h-7v3m42.028-1.932c-3.257 1.36-3.994 2.679-4.013 7.182L177 180h4.937c4.838 0 4.943-.065 5.25-3.25.296-3.073.531-3.25 4.313-3.25h4l.311 4.903c.386 6.087-.289 6.562-9.361 6.582-9.011.019-9.45.51-9.45 10.56 0 11.463-.012 11.455 17.829 11.455H209v-2.571c0-1.415-.675-3.247-1.5-4.072-1.188-1.188-1.5-4.367-1.5-15.306 0-11.612-.262-14.024-1.651-15.179-2.044-1.699-19.717-2.309-23.321-.804M214 171c0 2.333.444 3 2 3 1.898 0 2 .667 2 13.094 0 12.252-.128 13.127-2 13.616-1.417.371-2 1.364-2 3.407V207h18v-2.883c0-2.043-.583-3.036-2-3.407-1.821-.476-2-1.364-2-9.92 0-9.317.028-9.425 3.298-12.594C235.792 173.84 236 174.008 236 182v7h11v-8.066c0-14.275-3.368-15.779-18.25-8.152-.412.212-.75-.778-.75-2.199 0-2.531-.14-2.583-7-2.583h-7v3m40 0c0 2.333.444 3 2 3 1.901 0 2 .667 2 13.5s-.099 13.5-2 13.5c-1.556 0-2 .667-2 3v3h18v-3c0-1.898-.512-3-1.393-3-2.156 0-2.607-2.337-2.607-13.5s.451-13.5 2.607-13.5c.881 0 1.393-1.102 1.393-3v-3h-18v3m-178.547 4.33c-.321 1.282-.442 4.319-.269 6.75l.316 4.42 5.121.298c5.579.324 6.333-.519 6.365-7.114.025-5.04-1.574-6.684-6.502-6.684-3.822 0-4.528.327-5.031 2.33m111.962 14.032c-.288.749-.386 4.012-.219 7.25l.304 5.888 4.25.307 4.25.308V188h-4.031c-2.48 0-4.233.524-4.554 1.362" fill-rule="evenodd"/>
</svg>