<!DOCTYPE svg PUBLIC "-//W3C//DTD SVG 1.1//EN" "http://www.w3.org/Graphics/SVG/1.1/DTD/svg11.dtd">
<svg xmlns="http://www.w3.org/2000/svg" viewBox="0 0 389 103">
<path fill="#cd1e1f" d="M44 9.567C1.796 18.706-7.48 74.004 29.788 94.288c13.185 7.176 3.241 6.79 163.801 6.355 80.617-.219 147.497-.805 152.064-1.332 50.765-5.86 53.764-76.544 3.79-89.326C339.218 7.37 55.936 6.982 44 9.567m2.27 10.477c-38.341 7.655-38.161 60.975.232 68.955 3.365.7 53.265.952 152.5.77L346.5 89.5l5.747-2.321c29.502-11.913 29.473-53.448-.045-65.375L346.5 19.5l-148-.15c-81.4-.083-149.904.23-152.23.694M312 36.394v7.393l-4.125-.926c-13.396-3.01-21.696 18.018-10.909 27.639 1.918 1.71 3.894 2.04 13.638 2.273l11.396.273V29h-10v7.394M46.25 30.813l-3.25.314V73h10V57.8c0-9.35.357-14.834.927-14.25.51.523 4.283 7.25 8.386 14.95l7.46 14 5.113.302 5.114.303V31H69.056l-.278 13.75L68.5 58.5 66 53.919c-1.375-2.519-4.725-8.671-7.444-13.67-5.169-9.504-5.888-10.054-12.306-9.436M212 34.5v4.6l5.75-.3 5.75-.3v-8l-5.75-.3-5.75-.3v4.6M193 39c0 2.667-.333 3-3 3-4.118 0-4.34 3.713-.25 4.184l2.75.316.279 13.25.279 13.25H203V46h3c2.333 0 3-.444 3-2s-.667-2-3-2c-2.667 0-3-.333-3-3 0-2.933-.111-3-5-3s-5 .067-5 3m-23.177 3.709c-1.472.225-3.215 1.058-3.872 1.85C164.584 46.206 162 46.494 162 45c0-.55-2.25-1-5-1h-5v29h10V62.071c0-11.757.882-14.087 5.321-14.056 5.135.036 5.199.29 5.626 22.235.051 2.626.278 2.75 5.053 2.75h5V61.565c0-6.289-.447-12.611-.994-14.048-.886-2.33-6.511-5.791-8.724-5.367-.43.082-1.987.334-3.459.559M89.5 44.348c-10.255 4.714-10.304 22.111-.076 26.757 12.967 5.889 25.209-5.568 20.664-19.339-2.48-7.513-12.516-11.129-20.588-7.418m39.788.221c-7.999 4.094-9.656 17.876-2.9 24.121C134.447 76.139 149 72.203 149 62.574c0-3.09-8.409-1.735-8.846 1.426-.471 3.403-1.962 5-4.669 5-2.655 0-3.485-1.686-3.485-7.082 0-4.396-.493-4.183 10-4.32l7.5-.098-.349-3c-1.057-9.097-11.394-14.265-19.863-9.931m105.746.183c-6.731 3.395-9.554 13.609-5.761 20.85 5.145 9.82 21.088 9.406 24.59-.64 1.21-3.47.731-3.962-3.853-3.962-3.395 0-3.724.269-4.584 3.75-1.913 7.745-8.426 4.796-8.426-3.815 0-3.223-.65-3.037 11.5-3.303l6-.132-.15-3.273c-.407-8.89-10.582-13.881-19.316-9.475m36.001-.064c-1.709 1.197-2.525 1.342-2.806.5-.24-.722-2.519-1.188-5.812-1.188H257v29H267.937l.281-11.643c.316-13.057 1.134-14.673 6.479-12.796l2.803.984.282 11.778.282 11.779 5.218-.301 5.218-.301-.012-12.182c-.011-11.492-.148-12.327-2.424-14.75-2.968-3.159-11.095-3.635-15.029-.88m61.465-.734c-9.05 3.744-10.292 22-1.794 26.394 14.14 7.312 27.188-3.779 22.128-18.811-2.384-7.083-12.46-10.84-20.334-7.583M212 58.5V73h12V44h-12v14.5M93.571 47.571c-1.969 1.97-2.269 18.331-.371 20.229 4.117 4.117 7.8-.745 7.8-10.3 0-9.791-3.238-14.119-7.429-9.929M133.2 47.2c-2.898 2.898-1.443 5.8 2.908 5.8 3.979 0 4.087-.086 3.421-2.74-1.018-4.055-3.927-5.462-6.329-3.06m104.775 1.365C236.449 52.58 236.735 53 241 53c3.507 0 4-.283 4-2.3 0-4.88-5.362-6.51-7.025-2.135m66.897-.911c-2.411 2.905-1.86 17.803.756 20.419 1.765 1.764 2.491 1.934 4.25.992 2.502-1.339 3.268-19.519.922-21.865-1.691-1.691-4.314-1.49-5.928.454m31.624-.275c-2.474 1.809-2.953 17.156-.624 19.966 4.29 5.172 8.138.59 8.113-9.66-.022-9.535-2.979-13.604-7.489-10.306" fill-rule="evenodd"/>
</svg>