<!DOCTYPE svg PUBLIC "-//W3C//DTD SVG 1.1//EN" "http://www.w3.org/Graphics/SVG/1.1/DTD/svg11.dtd">
<svg xmlns="http://www.w3.org/2000/svg" viewBox="0 0 1920 2941">
<path fill="#a7bac2" d="M1575.5 153.346c-4.193.968-5.231 1.679-6.43 4.404-1.312 2.98-1.811 3.251-6 3.265-2.514.008-5.695.664-7.07 1.457s-3.565 1.92-4.868 2.505c-1.302.585-3.485 1.942-4.851 3.017-1.366 1.074-4.049 2.247-5.961 2.606-2.297.431-3.842 1.452-4.551 3.007-.59 1.295-2.017 2.644-3.171 2.997-5.803 1.777-14.394 6.509-14.828 8.166-.284 1.088-3.614 3.397-8.079 5.603-4.231 2.091-7.856 4.572-8.183 5.602-.322 1.016-2.113 3.012-3.98 4.436-1.866 1.423-3.676 3.479-4.021 4.568-.346 1.089-.939 1.906-1.318 1.815-.379-.091-2.431.593-4.561 1.52s-4.159 1.686-4.51 1.686c-.35 0-.633 1.463-.628 3.25.008 2.698-.409 3.309-2.457 3.598-1.357.191-3.555 1.204-4.885 2.25-1.33 1.046-3.032 1.902-3.783 1.902-.835 0-1.365 1.11-1.365 2.861 0 2.513-.304 2.803-2.5 2.384-2.671-.511-11.409 5.153-11.469 7.434-.053 2.006-3.054 4.321-5.602 4.321-1.944 0-2.429.515-2.429 2.577 0 3.123-4.985 8.423-7.923 8.423-1.616 0-2.077.632-2.077 2.848 0 2.35-.692 3.16-3.953 4.631-2.175.981-5.443 3.442-7.264 5.47-1.82 2.028-4.023 4.106-4.894 4.619-.872.513-2.829 2.83-4.349 5.15-1.52 2.32-3.573 4.475-4.563 4.789-.99.314-2.955 2.086-4.367 3.937-1.412 1.852-4.152 4.346-6.089 5.543-2.426 1.5-3.521 2.913-3.521 4.548 0 1.741-.96 2.827-3.616 4.087-3.573 1.696-9.384 8.48-9.384 10.955 0 .703-1.125 2.163-2.5 3.244-1.375 1.082-2.5 2.633-2.5 3.447 0 1.793-6.183 8.732-7.781 8.732-1.421 0-6.219 5.087-6.219 6.594 0 .612-3.263 3.933-7.25 7.379-3.987 3.446-8.172 7.759-9.299 9.583-1.127 1.824-4.637 6.118-7.801 9.542-3.164 3.423-6.195 7.053-6.737 8.065-.542 1.013-3.871 4.6-7.397 7.972-4.566 4.366-6.918 7.54-8.173 11.031-1.195 3.323-2.447 5.073-3.89 5.435-1.267.318-2.855 2.182-3.924 4.606-.989 2.24-3.312 5.678-5.163 7.641-1.851 1.963-3.366 3.909-3.366 4.326 0 .416-1.444 2.402-3.21 4.412-1.765 2.011-4.666 6.864-6.445 10.785-2.098 4.621-4.174 7.659-5.903 8.634-1.468.828-4.154 4.191-5.971 7.473-1.816 3.282-4.19 6.685-5.274 7.564-1.085.878-2.931 3.365-4.104 5.527-1.172 2.162-3.677 6.631-5.565 9.931-2.173 3.797-3.451 7.377-3.481 9.75-.041 3.312-.336 3.75-2.527 3.75-2.467 0-6.52 5.795-6.52 9.323 0 .771-1.237 2.965-2.75 4.875-1.513 1.91-4.024 6.36-5.581 9.887-1.558 3.528-4.38 9.565-6.272 13.415-1.893 3.85-3.431 8.323-3.419 9.94.013 1.714-1.729 5.838-4.176 9.887-3.868 6.403-6.378 14.075-7.344 22.454-.504 4.369-1.14 5.219-3.91 5.219-2.485 0-3.548 1.668-3.548 5.567 0 1.321-1.125 6.285-2.5 11.03-1.375 4.745-2.5 9.955-2.5 11.579 0 1.624-1.088 5.331-2.418 8.238-1.33 2.907-2.65 7.398-2.934 9.98-.284 2.581-1.174 6.586-1.979 8.9-2.542 7.312-3.632 11.881-5.774 24.205-1.147 6.6-2.379 12.45-2.738 13-.359.551-.938 7.076-1.288 14.501-.349 7.425-.904 15.075-1.233 17-.329 1.925-.877 5.075-1.217 7-.341 1.925-.759 4.4-.93 5.5-.171 1.1-.79 4.025-1.376 6.5-.585 2.475-1.077 8.1-1.092 12.5-.015 4.4-.671 11.825-1.458 16.5-1.828 10.867-2.451 15.523-3.475 26-.842 8.61-.809 9.984.539 22.5.414 3.85.597 8.35.405 10-.192 1.65-.462 18.75-.601 38-.138 19.25-.323 37.7-.41 41-.193 7.327 1.699 42.138 2.459 45.229.301 1.226.95 8.28 1.443 15.676.492 7.396 1.336 14.236 1.877 15.201.698 1.248.579 2.157-.409 3.146-.765.765-1.391 2.423-1.391 3.685 0 2.498-2.809 6.514-7.48 10.695-3.806 3.408-8.016 2.942-15.02-1.662-3.026-1.989-6.925-3.552-9.876-3.958-3.188-.44-5.716-1.513-7.305-3.102-1.336-1.336-3.979-3.077-5.874-3.869-1.895-.791-3.445-2.089-3.445-2.883s-.617-1.681-1.372-1.97c-.754-.29-2.329-2.476-3.5-4.857-1.17-2.382-3.239-5.377-4.597-6.656-1.357-1.279-2.774-3.979-3.147-6-.374-2.021-2.445-6.285-4.602-9.475-2.158-3.189-4.175-7.349-4.483-9.243-.307-1.894-1.565-4.459-2.796-5.7-1.23-1.242-2.984-4.732-3.896-7.757-2.779-9.208-4.774-12.461-7.86-12.816-2.81-.324-3.131-1.068-2.777-6.436.11-1.676-.416-2.982-1.346-3.339-.84-.322-2.034-2.121-2.653-3.997-.619-1.877-1.766-3.468-2.549-3.537-2.928-.257-3.35-.403-4.496-1.549-.837-.837-.889-1.995-.181-4.025.859-2.463.604-3.318-1.875-6.288-1.579-1.891-2.87-3.839-2.87-4.331 0-.491-1.125-2.23-2.5-3.864s-2.5-3.838-2.5-4.897c0-1.059-1.542-3.387-3.426-5.173-1.884-1.786-4.594-5.583-6.022-8.438-1.428-2.854-3.442-5.458-4.475-5.786-1.033-.327-2.182-1.817-2.554-3.31-.371-1.493-2.157-4.964-3.968-7.714s-4.307-7.004-5.548-9.454c-1.241-2.45-3.212-5.214-4.381-6.143-1.169-.929-3.701-4.716-5.626-8.415-1.925-3.7-4.463-7.173-5.64-7.718-1.177-.545-2.654-2.12-3.283-3.5-1.607-3.527-12.264-18.27-13.206-18.27-1.295 0-7.876-9.171-8.559-11.927-.351-1.415-2.633-4.598-5.071-7.073-2.438-2.475-5.076-5.738-5.863-7.25-.786-1.513-1.818-2.75-2.294-2.75-.475 0-1.866-2.132-3.091-4.738-1.225-2.605-3.074-5.331-4.11-6.056-1.036-.726-1.883-1.921-1.883-2.656 0-.735-.604-1.568-1.342-1.851-.739-.284-2.129-2.171-3.089-4.195-1.141-2.405-2.928-4.174-5.158-5.106-1.952-.815-3.411-2.14-3.411-3.096 0-2.936-4.065-10.188-6.067-10.823-1.063-.338-1.933-1.184-1.933-1.882 0-.697-1.913-3.299-4.25-5.783-6.557-6.966-20.596-22.419-23.576-25.951-1.471-1.743-4.812-5.436-7.424-8.207-2.612-2.77-4.75-5.627-4.75-6.347 0-.72-.675-1.309-1.5-1.309-1.961 0-9.5-7.556-9.5-9.521 0-.837-1.237-2.049-2.75-2.694-4.218-1.797-6.25-3.869-6.25-6.372 0-1.438-1.198-3.112-3.25-4.541-3.758-2.619-14.75-13.753-14.75-14.94 0-.441-1.768-2.069-3.929-3.617-2.16-1.548-4.64-4.303-5.51-6.121-.934-1.951-2.745-3.711-4.421-4.295-1.562-.544-5.442-4.007-8.622-7.694-11.576-13.422-17.408-19.139-20.2-19.803-3.872-.921-5.98-2.962-6.682-6.47-.381-1.908-1.465-3.297-3.038-3.895-1.38-.524-2.587-1.899-2.771-3.156-.188-1.281-2.237-3.568-4.827-5.387-2.475-1.739-4.661-4.024-4.858-5.078-.571-3.06-2.066-4.284-5.126-4.197-2.812.08-7.214-3.655-8.509-7.219-.299-.825-2.886-3.075-5.747-5-2.861-1.925-6.565-4.684-8.231-6.131-1.666-1.446-3.929-2.799-5.029-3.005-1.1-.207-2.444-1.386-2.987-2.62-.543-1.234-1.53-2.244-2.193-2.244-.664 0-1.795-.835-2.513-1.857-.719-1.021-2.331-2.18-3.584-2.575-1.252-.396-3.003-1.829-3.891-3.184-1.602-2.444-11.188-9.384-12.963-9.384-.508 0-2.085-1.238-3.505-2.75-4.899-5.22-16.933-15.113-17.614-14.482-.967.897-2.209-.212-3.1-2.768-.575-1.65-1.56-3-2.189-3s-2.983-1.575-5.232-3.5-4.533-3.5-5.075-3.5c-.542 0-1.699-.686-2.57-1.525-2.135-2.055-8.489-6.16-12.398-8.009-5.735-2.714-10.527-5.994-12.593-8.62-2.115-2.69-11.595-7.846-14.424-7.846-.897 0-1.899-1.069-2.227-2.375-.547-2.178-4.035-4.625-6.595-4.625-.981 0-5.329-3.144-8.847-6.398-.825-.763-3.228-2.105-5.339-2.981-2.112-.877-5.09-2.645-6.618-3.931-1.527-1.286-4.3-2.9-6.16-3.588-5.243-1.938-11.883-5.476-11.883-6.331 0-1.839-4.241-4.771-6.901-4.771-2.088 0-4.12-1.216-7.25-4.342-2.392-2.388-5.811-5.185-7.599-6.215-1.787-1.031-3.25-2.232-3.25-2.669 0-.792-7.581-4.554-13.717-6.808-1.769-.649-3.479-2.009-3.8-3.021-.322-1.012-3.253-3.173-6.515-4.803-6.901-3.449-19.602-11.729-20.707-13.5-1.077-1.725-10.283-7.61-12.955-8.28-1.229-.308-2.506-1.416-2.838-2.461-.331-1.046-1.012-1.901-1.512-1.901s-3.282-2.293-6.182-5.097c-2.901-2.803-6.973-6.19-9.049-7.528-2.076-1.337-4.935-3.431-6.353-4.653a2774.03 2774.03 0 0 0-5.225-4.491 175.331 175.331 0 0 1-4.183-3.699c-3.455-3.218-9.192-6.532-11.308-6.532-2.87 0-4.656-1.779-4.656-4.637 0-1.643-1.791-3.449-6.75-6.807-3.712-2.515-8.1-6.409-9.75-8.655-1.65-2.245-5.114-5.638-7.697-7.538-2.584-1.901-4.953-4.261-5.266-5.246-.312-.984-2.875-2.87-5.696-4.191-3.298-1.545-6.016-3.745-7.617-6.164-1.369-2.069-2.846-3.762-3.281-3.762-.436 0-3.56-2.7-6.943-6-3.383-3.3-6.762-6-7.508-6-.747 0-1.643-.9-1.992-2s-1.007-2-1.462-2c-.456 0-1.888-1.117-3.183-2.483-1.381-1.455-3.493-2.49-5.105-2.5-2.473-.015-2.75-.37-2.75-3.517 0-2.511-.443-3.5-1.567-3.5-2.687 0-8.275-5.003-8.932-7.997-.575-2.617-.916-2.81-4.064-2.299-2.905.471-3.437.264-3.437-1.341 0-3.38-4.816-9.363-7.536-9.363-2.057 0-2.464-.483-2.464-2.926 0-2.561-.7-3.269-5.6-5.667-3.421-1.673-6.436-4.035-7.75-6.069-1.182-1.831-2.897-3.574-3.811-3.873-.913-.298-2.343-1.585-3.177-2.859-1.233-1.881-2.694-2.422-7.797-2.885-9.6-.87-9.541-.956-9.594 13.979-.024 7.04-.386 25.85-.803 41.8-1.252 47.878-1.057 63.085.904 70.307.942 3.469 2.361 12.469 3.154 20 .792 7.531 2.331 17.743 3.418 22.693 1.35 6.144 1.99 12.877 2.017 21.219.032 10.159.371 12.857 2.009 16 1.083 2.08 2.635 8.281 3.45 13.781 2.963 20.015 5.78 33.116 8.259 38.411 1.791 3.827 2.687 7.78 3.06 13.5.29 4.449.942 8.894 1.45 9.877.507.983 1.575 5.202 2.374 9.376 1.086 5.677 2.193 8.433 4.395 10.941 1.619 1.844 3.229 5.049 3.578 7.124 2.721 16.181 4.011 20.904 6.494 23.771.952 1.1 3.444 7.4 5.537 14s4.66 12.969 5.703 14.153c1.707 1.938 2.111 3.667 2.588 11.057.078 1.215 1.234 3.24 2.569 4.5 1.335 1.259 3.392 5.183 4.571 8.719 1.949 5.845 3.204 8.521 7.533 16.071.789 1.375 2.399 4.75 3.578 7.5 2.148 5.007 5.757 11.026 13.015 21.701 2.132 3.136 3.876 6.133 3.876 6.661 0 3.809 4.596 12.292 7.63 14.082 2.104 1.242 3.37 2.768 3.37 4.062 0 3.284 3.517 9.286 6.9 11.774 2.094 1.54 3.1 3.128 3.1 4.892 0 1.634 1.63 4.525 4.353 7.72 2.394 2.809 5.078 6.516 5.963 8.238.886 1.721 3.202 4.068 5.147 5.216 2.698 1.592 3.539 2.747 3.544 4.87.007 3.076 2.06 6.63 6.243 10.809 1.512 1.511 2.75 3.325 2.75 4.03 0 .705 1.575 2.255 3.5 3.445s3.5 2.575 3.5 3.079c0 .503 1.524 2.604 3.388 4.668 1.863 2.064 4.367 5.635 5.565 7.935 1.198 2.3 2.823 4.718 3.612 5.372.789.655 1.435 1.805 1.435 2.555 0 .75 1.499 1.991 3.332 2.756 3.8 1.588 7.668 6.012 7.668 8.77 0 1.026.435 1.865.967 1.865.531 0 2.525 1.462 4.429 3.25 1.905 1.788 4.895 4.338 6.644 5.667 1.749 1.33 3.625 3.693 4.168 5.25.543 1.558 1.399 2.833 1.902 2.833.503 0 3.271 2.248 6.152 4.997 2.881 2.748 6.024 5.253 6.986 5.566.961.314 2.016 1.64 2.344 2.948.393 1.567 2.356 3.287 5.753 5.043 5.277 2.727 9.002 6.095 14.016 12.673 2.655 3.483 7.534 6.773 10.043 6.773.603-.001 3.121 2.254 5.596 5.009 2.475 2.756 5.488 5.143 6.695 5.304 1.208.161 4.65 2.519 7.651 5.24 7.588 6.881 16.068 13.391 20.452 15.701 2.036 1.073 4.852 3.03 6.257 4.348 1.405 1.319 3.756 2.398 5.224 2.398 1.928 0 3.082.797 4.153 2.869.816 1.577 3.64 4.254 6.276 5.947 2.635 1.694 6.48 4.864 8.543 7.044 2.63 2.779 4.911 4.16 7.627 4.619 2.429.411 4.95 1.784 6.749 3.677 1.58 1.663 4.223 3.713 5.873 4.556 1.65.844 5.127 3.138 7.727 5.099 2.6 1.961 5.429 3.668 6.286 3.794 7.731 1.134 11.322 2.82 11.872 5.572.375 1.873 1.517 3.236 3.342 3.989 8.124 3.349 12.021 5.347 14.273 7.318 1.375 1.203 4.636 2.973 7.246 3.933 2.61.96 5.085 2.271 5.5 2.914 2.015 3.123 7.689 5.838 13.553 6.485 6.033.665 6.192.758 5.881 3.423-.351 3.006-.226 3.084 10.137 6.317 3.487 1.088 6.71 2.875 8.046 4.463 1.226 1.457 3.715 2.947 5.533 3.31 1.817.364 4.643 1.788 6.28 3.166 1.638 1.378 3.602 2.505 4.366 2.505.764 0 2.911 1.337 4.773 2.972 2.562 2.249 4.132 2.876 6.462 2.582 2.588-.328 3.447.153 5.4 3.021 1.278 1.876 2.592 3.414 2.921 3.418 1.577.018 10.024 8.973 11.839 12.551 5.199 10.253 2.9 24.454-4.211 26.016-1.738.382-3.85 1.076-4.693 1.542-5.929 3.278-8.851 3.757-13.718 2.249-9.305-2.884-46.207-.935-51.229 2.707-1.422 1.031-4.025 2.117-5.785 2.414-1.759.296-4.459 1.019-6 1.607-1.786.681-7.874.859-16.804.492-13.055-.538-14.536-.408-21.889 1.926-4.337 1.377-8.499 2.503-9.247 2.503-.749 0-1.361.401-1.361.892 0 .49-1.136 1.176-2.525 1.525s-3.414 1.522-4.5 2.608c-1.579 1.579-3.337 1.975-8.764 1.975-4.814 0-7.929.582-10.711 2-2.158 1.1-4.649 2-5.537 2-.888 0-2.62 1.071-3.85 2.379-1.502 1.599-3.856 2.595-7.179 3.035-3.403.452-5.979 1.564-8.261 3.569-1.825 1.601-5.985 3.896-9.245 5.098-6.968 2.568-8.027 3.31-9.692 6.785-.688 1.435-2.148 2.745-3.244 2.911-5.263.795-6.792 1.589-12.191 6.324-3.191 2.799-7.031 5.729-8.534 6.511-1.503.782-3.408 2.727-4.233 4.322-.951 1.838-2.59 3.139-4.479 3.554-1.892.415-3.739 1.883-5.06 4.02-1.273 2.06-3.426 3.809-5.555 4.512-2.14.706-4.054 2.267-4.983 4.063-.83 1.604-2.132 2.917-2.893 2.917-1.5 0-5.564 7.554-5.564 10.34 0 .949-1.224 2.168-2.75 2.739-1.513.566-4.401 2.693-6.419 4.725a254.594 254.594 0 0 1-7.25 6.974c-1.97 1.803-3.581 4.224-3.581 5.379 0 2.346-5.194 11.929-7.506 13.848-.822.682-1.494 2.085-1.494 3.117 0 1.033-.993 2.871-2.207 4.085-4.032 4.032-8.793 11.957-8.797 14.643-.003 2.371-3.157 8.857-4.935 10.15-1.614 1.174-5.206 13.098-4.925 16.352.211 2.459-.315 4.255-1.715 5.849-3.308 3.766-6.404 12.578-10.468 29.799-1.232 5.225-3.084 11.287-4.113 13.471-1.03 2.184-2.329 6.832-2.888 10.327-.558 3.496-1.722 8.234-2.587 10.529-1.864 4.949-3.164 13.096-3.281 20.565-.046 2.966-.95 8.366-2.009 12-1.279 4.388-2.125 11.311-2.519 20.608-.584 13.793-1.895 21.104-4.843 27-.825 1.65-2.033 6.825-2.683 11.5-1.626 11.673-4.691 22.814-7.43 27-1.259 1.925-2.621 5.3-3.026 7.5-.405 2.2-1.527 4.9-2.494 6-.966 1.1-3.235 5.648-5.042 10.107-2.411 5.951-4.051 8.56-6.166 9.81-1.585.936-3.566 3.025-4.403 4.643-.836 1.617-1.931 2.94-2.433 2.94-.501 0-2.379 2.044-4.173 4.541-2.052 2.858-4.842 5.241-7.525 6.428-2.954 1.306-4.462 2.676-4.909 4.458-.522 2.08-1.248 2.574-3.787 2.577-1.728.002-5.842 1.35-9.142 2.996s-6.58 2.994-7.29 2.996c-.709.002-3.184.975-5.5 2.161-2.666 1.366-6.472 2.254-10.378 2.422-4.377.188-7.488 1.002-10.713 2.803-4.369 2.439-5.204 2.537-21.572 2.537-9.707 0-17.85.44-18.941 1.024-2.739 1.466-18.99 1.831-19.887.447-.395-.611-2.205-1.872-4.02-2.803-1.816-.93-3.545-2.326-3.843-3.101-.297-.776-1.412-1.686-2.477-2.025-1.065-.338-4.061-2.717-6.658-5.288-3.783-3.744-5.291-4.608-7.589-4.345-2.736.313-2.85.166-2.462-3.16.402-3.44.333-3.511-5.131-5.297-3.047-.996-7.564-3.162-10.039-4.815-3.183-2.125-5.964-3.094-9.5-3.311-2.75-.169-7.627-.562-10.837-.874-5.084-.493-6.02-.307-7.245 1.442-.773 1.105-4.334 3.646-7.912 5.647-6.381 3.568-7.507 4.803-5.506 6.04 3.205 1.981.466 5.355-2.889 3.559-2.269-1.214-7.527 7.497-8.479 14.045-.508 3.493-.864 90.74-.439 107.396.154 6.02.029 87.849-.186 122-.163 26.025.035 30.596 1.501 34.5.929 2.475 1.982 6.151 2.34 8.169.694 3.908 9.199 9.584 16.891 11.274 6.643 1.459 20.06-1.642 30.261-6.994 3.564-1.87 8.719-11.864 9.516-18.449.366-3.025.814-6.548.995-7.828 1.54-10.872.869-123.185-.847-141.672-.255-2.75-.573-8.228-.708-12.174-.134-3.946-.575-7.71-.981-8.366-.405-.655-.118-2.377.638-3.826.756-1.449 1.377-3.894 1.381-5.434.018-8.456 10.411-15.883 14.783-10.564.947 1.153 3.057 3.374 4.688 4.934 3.806 3.643 3.956 6.318 2.691 47.93-.996 32.759-1.1 33.895-3.77 41.105-3.304 8.926-3.159 51.895.175 51.895.792 0 1.473.338 1.516.75.042.412.225 1.425.407 2.25 1.509 6.83 2.408 15.291 1.897 17.847-1.349 6.744 4.8 31.153 7.849 31.153.973 0 1.948-.112 2.165-.25.217-.138 1.39.65 2.605 1.75s2.388 1.888 2.605 1.75c2.523-1.597 3.09 1.324.757 3.903-2.155 2.38-.481 4.511 3.636 4.628 1.653.047 4.312 1.015 5.908 2.152 1.597 1.137 3.405 2.067 4.02 2.067.614 0 1.629 1.125 2.256 2.5 1.207 2.648 2.302 3.144 3.318 1.5 1.648-2.666 9.515-.209 11.559 3.61 2.235 4.177 10.533 8.031 18.989 8.819 8.085.754 9.271 1.181 10.185 3.669.427 1.161 2.503 1.776 7.592 2.249 3.853.358 9.171 1.58 11.818 2.715 4.295 1.84 19.602 3.103 23.857 1.968 2.787-.744 14.555.072 14 .97-.34.55-.172 1 .374 1 .545 0 1.258.842 1.585 1.87.479 1.51 2.253 2.084 9.203 2.982 4.834.624 10.029 1.948 11.845 3.02 1.78 1.05 5.206 2.23 7.614 2.624 2.409.393 6.404 1.733 8.879 2.978 2.475 1.245 5.737 2.763 7.25 3.374 1.512.61 2.75 1.788 2.75 2.619 0 .99 1.388 1.731 4.035 2.155 6 .959 9.023 3.687 8.008 7.226-.846 2.951.236 6.028 2.618 7.452.737.44 1.339 2.24 1.34 4 .001 1.76 1.081 7.7 2.401 13.2 3.98 16.589 4.267 37.5.514 37.5-.419 0-2.062 1.093-3.649 2.429-3.214 2.705-15.881 4.548-30.267 4.405-6.113-.06-8.517.409-13 2.536-3.025 1.436-6.4 2.622-7.5 2.636-3.065.038-4.75 1.52-4.75 4.179 0 2.047-.776 2.632-5.125 3.864-4.092 1.158-5.451 2.104-6.743 4.689-.889 1.781-2.058 3.806-2.596 4.5-3.289 4.239.297 21.484 5.657 27.208 1.058 1.13 2.396 3.3 2.972 4.822.587 1.548 2.269 3.227 3.817 3.809 1.522.573 4.343 2.564 6.268 4.423 5.447 5.263 16.047 9.601 25.734 10.534 4.529.436 11.197 1.778 14.818 2.983 8.164 2.717 13.519 2.796 30.637.454 7.498-1.026 14.988 1.114 17.688 5.054 1.24 1.81 3.35 3.566 4.689 3.902 1.339.336 2.434 1.035 2.434 1.553s.935 1.813 2.077 2.877c1.143 1.065 2.634 4.12 3.314 6.789.787 3.088 1.994 5.232 3.317 5.893 4.141 2.07 5.076 3.435 4.628 6.758-.633 4.697 3.936 14.303 7.191 15.12 1.364.343 2.473 1.351 2.473 2.249 0 1.739 3.933 6.865 13.3 17.334 9.116 10.188 10.023 11 12.293 11 1.356 0 3.129 1.435 4.861 3.934 1.499 2.163 4.069 4.401 5.711 4.974 1.641.572 4.273 2.064 5.847 3.316 6.338 5.038 8.653 6.298 12.461 6.776 2.92.367 4.298 1.141 5.175 2.909.735 1.481 2.862 2.965 5.523 3.853 2.381.794 5.004 2.03 5.829 2.748.825.717 3.411 1.813 5.746 2.434 2.335.622 5.045 1.989 6.023 3.038 1.126 1.209 4.26 2.304 8.563 2.991 3.733.597 7.548 1.518 8.478 2.048.929.529 5.251 1.864 9.604 2.965 4.353 1.101 8.735 2.744 9.737 3.651 1.331 1.204 4.86 1.859 13.086 2.43 6.195.429 12.353 1.029 13.686 1.333 1.333.303 5.383 1.266 9 2.138 5.313 1.282 11.352 1.527 31.415 1.275l24.838-.313 2.533-2.946c1.948-2.267 3.274-2.897 5.747-2.73 2.185.147 6.377-1.39 13.103-4.804 5.44-2.761 10.523-5.02 11.297-5.02.775 0 2.811-.845 4.526-1.878 4.344-2.617 7.609-2.996 28.118-3.263l18-.234 4 3.701c2.2 2.036 4.45 4.178 5 4.76.55.583 2.017 2.095 3.26 3.36 1.243 1.266 2.898 4.271 3.677 6.678.78 2.407 2.151 6.369 3.047 8.805 1.194 3.245 1.548 7.015 1.323 14.096-.368 11.576.149 12.459 7.807 13.359 3.078.362 6.561 1.182 7.741 1.822 1.18.64 4.083 1.271 6.451 1.403 2.369.132 4.896.729 5.616 1.326 2.363 1.962 69.829 2.663 77.078.802 3.3-.848 10.05-1.842 15-2.21 11.808-.878 20.281-2.353 22.892-3.984 1.159-.725 4.583-1.88 7.608-2.566 3.025-.687 7.096-2.05 9.047-3.029 1.95-.98 5.214-2.094 7.253-2.477 4.082-.765 13.059-8.792 14.252-12.743.37-1.225 1.789-3.421 3.154-4.88 2.192-2.343 2.585-3.973 3.381-14 1.574-19.829 1.747-21.007 3.345-22.773.863-.953 1.568-2.469 1.568-3.369 0-4.741 10.627-11.686 17.928-11.717 1.415-.006 4.822-.7 7.572-1.542 7.083-2.17 18.085-3.532 32-3.961 13.01-.402 28.249-3.376 32.5-6.343 4.237-2.958 11.185-5.067 18.348-5.571 7.845-.552 13.113-2.055 16.537-4.717 1.312-1.02 3.437-1.855 4.723-1.855 2.212 0 5.192-1.143 16.892-6.483 2.75-1.255 8.969-3.307 13.82-4.56 4.85-1.253 9.8-3.048 11-3.987 2.576-2.019 9.95-5.063 17.831-7.362 3.107-.906 5.899-2.295 6.203-3.087.303-.792 2.791-2.574 5.528-3.961 2.737-1.387 5.242-2.952 5.567-3.478.325-.525 1.932-1.659 3.571-2.519l5.955-3.124c1.637-.858 3.917-2.883 5.068-4.5 1.151-1.616 2.744-2.939 3.54-2.939 3.087 0 12.219-6.075 12.838-8.54.478-1.905 1.271-2.46 3.513-2.46 2.812 0 6.073-2.128 10.347-6.75 1.144-1.237 2.668-2.25 3.387-2.25.719 0 2.415-1.755 3.769-3.9s4.397-5.196 6.762-6.781c2.983-1.997 4.397-3.699 4.613-5.552.201-1.72 1.091-2.907 2.5-3.334 5.855-1.772 11.679-4.829 12.174-6.39.304-.957 1.669-2.248 3.033-2.87 1.365-.621 2.481-1.782 2.481-2.579 0-.797 1.027-2.269 2.282-3.271 1.256-1.003 3.262-3.421 4.459-5.374 1.197-1.953 3.882-5.182 5.968-7.176 2.085-1.994 5.141-5.318 6.791-7.387 1.65-2.07 4.237-4.984 5.75-6.476s2.75-3.217 2.75-3.834c0-.616 1.718-3.023 3.818-5.348 2.1-2.326 4.878-5.803 6.173-7.728 1.295-1.925 3.347-4.4 4.56-5.5 1.213-1.1 3.048-4.201 4.077-6.891 1.03-2.69 3.335-6.465 5.122-8.39 1.787-1.924 3.25-3.93 3.25-4.458 0-2.011 3.282-7.761 4.43-7.761 1.081 0 4.401-6.979 6.044-12.706.348-1.213 1.858-3.238 3.356-4.5 1.498-1.262 3.361-3.869 4.141-5.794.78-1.925 2.455-5.48 3.723-7.899 1.268-2.419 2.306-4.989 2.306-5.711 0-.722.947-2.194 2.104-3.273 1.664-1.549 2.091-3.104 2.039-7.421-.061-5.158.086-5.492 2.646-6.011 3.09-.627 7.08-9.305 7.809-16.981.379-3.996 2.359-6.704 4.901-6.704 1.052 0 4.022-9.582 5.189-16.742.326-1.996 1.832-4.385 3.92-6.219 2.065-1.813 3.392-3.906 3.392-5.35 0-3.263 2.545-11.437 4.166-13.383 2.38-2.857 5.084-16.54 5.495-27.806.507-13.922.688-14.46 3.861-11.479 3.093 2.905 3.295 2.678 4.579-5.129.578-3.516 1.675-8.047 2.438-10.07.763-2.023 1.473-6.748 1.579-10.5.246-8.759 2.272-17.99 4.485-20.436 1.271-1.405 2.078-5.318 3.021-14.651.708-7.004 1.855-15.885 2.549-19.735.694-3.85 1.31-15.325 1.37-25.5.06-10.175.401-21.875.757-26 1.704-19.717.393-113.969-1.765-127-.775-4.675-1.73-15.021-2.124-22.991-.692-14.004-.806-14.576-3.397-17-3.794-3.55-4.843-5.924-4.878-11.038-.017-2.459-.721-8.296-1.565-12.971-.844-4.675-1.549-10.075-1.568-12-.042-4.349-.853-5.555-3.866-5.744-3.275-.206-3.426-.496-3.653-6.997-.467-13.353-3.41-29.977-5.541-31.294-1.063-.657-1.56-2.387-3.147-10.965-.597-3.226-1.969-6.534-3.317-8-3.283-3.569-6.293-9.787-7.734-15.978-.768-3.299-2.298-6.403-3.995-8.107-1.513-1.519-2.75-3.211-2.75-3.76 0-2.587-6.159-18.701-7.857-20.558-2.258-2.47-5.379-8.571-7.091-13.864-.797-2.464-2.246-4.299-4.186-5.302-2.242-1.16-2.817-2.011-2.349-3.483.953-3.004-.374-5.823-3.505-7.442-1.898-.981-3.076-2.56-3.537-4.739-1.239-5.847-4.645-12.686-6.633-13.317-1.103-.35-2.975-2.955-4.336-6.033-1.318-2.979-2.871-5.417-3.451-5.417-.58 0-1.055-.508-1.055-1.129s-1.463-2.799-3.25-4.84c-1.787-2.042-4.15-4.987-5.25-6.546-3.093-4.382-9.843-10.802-13.341-12.688-2.011-1.085-3.159-2.472-3.159-3.816 0-3.317-1.745-5.811-8.467-12.099-3.439-3.217-7.328-7.429-8.643-9.36-1.62-2.379-3.437-3.709-5.64-4.127-2.55-.485-3.25-1.115-3.25-2.926 0-1.269-.712-5.086-1.582-8.483-1.34-5.23-1.38-6.658-.262-9.331 1.469-3.509 1.541-3.791 1.719-6.706.081-1.325 1.323-2.551 3.506-3.464 1.859-.777 4.672-2.781 6.25-4.454 1.578-1.672 5.339-4.726 8.359-6.786 6.834-4.662 8.883-6.266 10.91-8.538.88-.986 4.507-4.586 8.061-8 7.324-7.037 9.49-9.31 13.039-13.684 1.375-1.694 3.287-3.968 4.25-5.052.963-1.084 1.75-3.526 1.75-5.426 0-3.163.298-3.51 3.536-4.118 3.144-.59 3.854-1.346 6.42-6.834 1.722-3.681 3.906-6.717 5.417-7.525 2.49-1.332 4.627-5.587 4.627-9.211 0-1.014 1.729-3.097 3.841-4.627 3.062-2.218 3.685-3.184 3.071-4.756-1.212-3.101-1.153-3.212 3.379-6.33 4.436-3.052 9.709-11.833 9.709-16.168 0-1.47.948-2.508 3-3.282 1.65-.623 3-1.778 3-2.566 0-.789 1.35-4.292 3-7.784s3-6.788 3-7.324c0-.535 1.079-1.681 2.398-2.545 1.394-.913 2.661-2.974 3.026-4.922.346-1.844 1.687-4.911 2.98-6.816 1.293-1.906 2.878-5.061 3.522-7.013.644-1.951 1.766-3.775 2.493-4.054.972-.374 1.211-2.25.903-7.102-.436-6.856-.183-7.325 4.307-7.984 1.209-.178 2.172-1.776 2.982-4.952.658-2.579 1.85-5.689 2.65-6.91.799-1.222 1.673-4.887 1.943-8.144.407-4.923.946-6.286 3.197-8.081 2.216-1.767 2.818-3.236 3.309-8.078.331-3.256 1.204-6.849 1.94-7.986.737-1.137 2.273-6.535 3.414-11.997 1.14-5.462 2.699-10.621 3.463-11.465.912-1.008 1.489-4.61 1.681-10.493.279-8.564.408-9.012 2.927-10.217 2.355-1.126 2.761-2.135 3.828-9.51.657-4.538 2.1-10.276 3.207-12.751 1.822-4.076 1.948-5.758 1.335-17.862-.483-9.519-.365-13.17.409-12.691.597.369 1.086.146 1.086-.495s.633-.923 1.407-.626c1.909.733 3.306-3.291 3.958-11.407.29-3.619 1.27-8.569 2.177-11 2.176-5.83 3.215-14.39 3.815-31.419.563-15.989.676-16.756 2.828-19.202 1.291-1.466 1.693-5.674 2.18-22.798.329-11.55 1.031-23.475 1.561-26.5 1.744-9.968 2.225-13.436 2.636-19 .792-10.753 2.335-87.344 2.87-142.5.544-56.087.71-60.269 2.793-70.5.693-3.403 1.075-16.546 1.002-34.464-.122-30.145.072-31.584 4.167-30.801 2.313.442 2.4.217 3.063-7.89.375-4.59 1.758-12.845 3.072-18.345 1.909-7.99 2.417-13.005 2.532-24.952.138-14.442.871-19.27 3.138-20.671 1.521-.94 3.557-12.55 4.363-24.877.378-5.775 1.236-11.85 1.906-13.5.726-1.785 1.277-8.585 1.361-16.792l.142-13.793-3.486-2.056c-1.917-1.131-3.485-2.485-3.485-3.009 0-3.054-8.517-4.346-16.5-2.504M599 1091.764c-3.025 1.505-5.95 3.266-6.5 3.914-.55.648-2.888 1.671-5.196 2.274-3.982 1.04-8.304 4.916-8.304 7.448 0 .621-.853 2.721-1.896 4.666-2.253 4.205-.191 10.521 4.422 13.543 1.361.892 2.474 2.224 2.474 2.961 0 .741 1.577 1.635 3.533 2.002 1.944.365 5.529 2.312 7.968 4.328 2.439 2.015 6.927 4.511 9.974 5.547 3.607 1.226 6.371 2.959 7.924 4.968 2.569 3.322 7.801 5.674 16.709 7.509 4.326.892 5.856 1.702 6.698 3.549 1.479 3.247 11.103 2.551 15.521-1.122 1.554-1.293 3.417-2.351 4.139-2.351 2.03 0 5.485-3.274 5.805-5.5.158-1.1.63-2.549 1.049-3.221.419-.671.123-2.471-.659-4-.781-1.528-1.73-4.22-2.11-5.982-.379-1.762-1.589-4.347-2.689-5.745-1.266-1.61-1.766-3.278-1.363-4.547 1.218-3.84-.276-6-3.681-5.319-2.266.454-3.312.182-3.994-1.036-.508-.907-1.498-1.65-2.199-1.65-.702 0-2.297-1.087-3.546-2.415-1.248-1.329-3.351-2.687-4.674-3.019-1.323-.332-2.405-1.04-2.405-1.573 0-1.557-7.731-5.993-10.445-5.993-1.367 0-4.413-.637-6.77-1.414-3.893-1.286-10.529-2.404-15.035-2.535-2.567-.075-2.137-2.857.5-3.231 1.44-.205 2.25-1.01 2.25-2.237 0-2.867-1.441-2.833-7.5.181m-16.225 226.443c-4.423.552-6.426 1.398-8.89 3.753-1.75 1.672-4.224 3.04-5.499 3.04-1.274 0-3.795 1.253-5.601 2.783-1.807 1.531-5.31 4.059-7.785 5.618-5.063 3.19-12 10.195-12 12.118 0 .697-.567 1.485-1.26 1.75-.692.266-1.838 2.649-2.546 5.296-.708 2.646-2.14 5.409-3.182 6.139-1.185.83-2.138 3.1-2.544 6.061-.358 2.604-1.124 6.535-1.703 8.735-2.289 8.702-2.48 11.596-1.136 17.257.75 3.159 1.101 6.999.779 8.534-.661 3.156 1.761 7.709 4.101 7.709.804 0 2.802 2.654 4.44 5.898 3.208 6.356 6.911 9.924 11.186 10.779 1.478.296 2.905 1.369 3.171 2.385.266 1.016 1.543 2.054 2.838 2.308 1.296.254 6.406 1.4 11.356 2.549 8.458 1.961 9.271 1.991 13.5.496 3.372-1.192 6.291-1.425 11.644-.928 7.52.699 8.534.262 8.749-3.763.082-1.527 1.248-2.293 4.903-3.221 4.997-1.268 9.976-5.202 12.026-9.502.845-1.772 2.137-2.592 4.435-2.814 3.036-.294 3.243-.557 3.243-4.128 0-2.098.681-5.445 1.514-7.438 2.709-6.484 4.526-17.43 3.849-23.19-.443-3.766-.29-5.431.499-5.431 1.337 0 1.595-9.599.281-10.412-.472-.291-1.127-2.802-1.455-5.579-.329-2.777-1.219-6.277-1.977-7.779a495.895 495.895 0 0 1-2.831-5.73c-.799-1.65-2.674-3.587-4.166-4.305-1.612-.774-2.714-2.116-2.714-3.303 0-4.851-5.068-8.892-11.152-8.892-5.366 0-5.705-.15-6.686-2.965-1.385-3.973-7.912-5.262-19.387-3.828m67.984 152.293c-4.435 5.052-13.85 9.156-22.388 9.757-1.171.083-2.971 1.422-4 2.976-1.029 1.555-2.996 3.065-4.371 3.356-1.375.292-3.175.937-4 1.434-5.866 3.535-12.851 7.137-16.674 8.597-2.846 1.087-4.831 2.578-5.391 4.05-.487 1.281-1.643 2.33-2.568 2.33-2.007 0-11.456 6.946-16.367 12.032-7.346 7.607-18.036 19.646-21.201 23.877-4.3 5.747-10.799 16.059-10.799 17.134 0 .464-.902 2.371-2.004 4.24-1.103 1.868-2.471 5.92-3.041 9.004-.57 3.084-2.12 7.546-3.445 9.916-1.718 3.073-2.378 5.74-2.303 9.303.064 3.018-.917 7.961-2.478 12.494-1.422 4.125-2.9 10.875-3.285 15-.385 4.125-1.047 7.95-1.47 8.5-4.324 5.617-5.225 73.618-1.11 83.815.625 1.548 1.136 3.839 1.136 5.091 0 1.252.67 4.485 1.489 7.185.819 2.7 1.494 6.077 1.5 7.504.025 6.039 4.725 7.154 24.761 5.876 7.045-.449 8.919-2.47 5.645-6.087-1.514-1.673-1.624-2.573-.728-5.931.581-2.178.807-5.87.501-8.206-.306-2.336-.48-6.835-.387-9.997.243-8.196.339-13.232.328-17.25-.005-1.925.018-4.963.05-6.75s-.378-5.15-.911-7.473c-.533-2.323-.582-3.984-.109-3.691.474.293.861.055.861-.527 0-.582-.363-1.059-.806-1.059-.443 0-.8-1.013-.794-2.25.006-1.237-.346-5.874-.781-10.303-.714-7.258-.574-8.472 1.418-12.294 1.692-3.245 2.049-5.111 1.522-7.947-.956-5.148-.669-14.928.579-19.706.575-2.2 1.692-7.15 2.483-11 2.21-10.756 4.565-18.409 6.041-19.634.736-.611 1.338-1.658 1.338-2.326 0-.668 1.734-3.65 3.853-6.627s4.763-8.113 5.876-11.413c1.599-4.743 2.652-6.289 5.027-7.379 2.099-.963 3.344-2.511 4.129-5.131.618-2.064 1.797-4.311 2.62-4.994.822-.682 1.495-1.83 1.495-2.551 0-.721.938-1.608 2.085-1.972 1.147-.364 2.541-1.969 3.098-3.567.557-1.598 1.696-2.906 2.532-2.906.835 0 3.255-1.789 5.376-3.974 2.121-2.186 5.106-4.249 6.633-4.584 4.884-1.072 5.187-1.294 6.693-4.898 1.171-2.801 2.039-3.544 4.145-3.544 2.47 0 5.828-2.163 12.031-7.75 1.592-1.434 3.774-2.25 6.018-2.25 1.936 0 4.321-.429 5.3-.952.979-.524 3.029-1.179 4.557-1.456 1.528-.277 3.51-1.146 4.405-1.93 2.349-2.059 16.377-6.662 20.302-6.662 4.355 0 9.685-1.558 11.712-3.423.887-.816 2.668-2.447 3.956-3.624 2.15-1.963 2.294-2.689 1.74-8.796-.743-8.186-2.904-11.543-7.682-11.938-1.87-.154-4.394-.782-5.608-1.395-1.647-.833-3.731-.792-8.221.161-5.622 1.193-7.867 1.108-14.447-.543-2.164-.543-3.162-.022-5.866 3.058m-250.205 242.402c-1.858.727-1.847.788.25 1.336 1.493.391 2.196.124 2.196-.832 0-.773-.113-1.374-.25-1.336-.137.039-1.126.413-2.196.832m173.501 334.949c-4.569 2.364-5.633 3.446-6.619 6.733-3.871 12.909-5.607 21.055-6.375 29.916-.477 5.5-1.628 12.025-2.559 14.5-1.055 2.808-1.854 8.587-2.124 15.367-.442 11.086-1.371 14.633-3.834 14.633-.986 0-1.553 1.945-1.967 6.75-1.014 11.767-2.458 20.83-4.08 25.607-1.622 4.778-2.202 15.386-1.19 21.791.457 2.896.146 4.03-1.504 5.5-4.095 3.648-5.176 8.713-3.063 14.352.309.825.671 2.005.804 2.621.6 2.784 3.829 6.399 5.338 5.976.89-.25 4.318-1.023 7.618-1.717 3.3-.694 7.168-2.109 8.596-3.145 1.429-1.036 4.421-2.129 6.65-2.428 2.936-.394 4.64-1.337 6.183-3.425 1.545-2.089 2.977-2.882 5.207-2.882 1.821 0 4.287-1.019 6.046-2.5 1.634-1.375 3.8-2.5 4.813-2.5 3.144 0 5.005-1.137 5.005-3.057 0-2.561 2.672-3.797 6.967-3.221 2.797.376 4.52-.112 7.473-2.117 2.112-1.433 4.659-2.605 5.661-2.605 1.001 0 2.636-.875 3.633-1.945.997-1.07 4.007-2.437 6.69-3.038 2.683-.601 6.149-2.163 7.703-3.47 1.554-1.308 4.298-2.697 6.099-3.087 1.801-.39 4.408-1.51 5.794-2.489 1.386-.978 4.648-2.099 7.25-2.489 4.335-.65 4.73-.941 4.73-3.489 0-3.351 1.911-4.269 5.955-2.859 2.482.865 3.585.697 6.278-.959 1.797-1.105 5.699-2.447 8.672-2.984 5.276-.951 5.472-.902 8.175 2.057 2.309 2.529 3.28 2.93 5.844 2.417 2.859-.572 3.076-.414 3.076 2.238 0 1.568.631 3.376 1.402 4.016.771.639 1.653 2.164 1.96 3.388.319 1.271 1.849 2.712 3.567 3.36 1.961.74 3.63 2.477 4.79 4.985 2.351 5.08 3.368 6.055 7.396 7.092 2.843.732 3.435 1.378 3.696 4.038.218 2.217 1.472 4.16 4.177 6.476 2.126 1.819 4.168 4.515 4.538 5.989.37 1.475 1.432 2.922 2.359 3.216 1.965.624 8.115 8.317 8.115 10.151 0 .688.905 1.538 2.011 1.889 1.106.352 2.643 1.86 3.415 3.353.772 1.493 2.527 3.316 3.901 4.051 1.4.75 3.92 4.14 5.735 7.715 1.78 3.508 3.608 6.378 4.062 6.378.454 0 1.492 1.29 2.307 2.866 4.406 8.521 16.882 20.134 21.629 20.134 2.096 0 4.995.451 6.444 1.002 4.558 1.732 7.345.306 8.517-4.358.573-2.279 1.939-6.169 3.036-8.644 1.098-2.475 2.647-8.265 3.443-12.866.796-4.601 1.911-8.924 2.478-9.608.567-.683 1.716-6.121 2.553-12.084.837-5.963 2.199-12.199 3.027-13.859.828-1.659 2.126-7.149 2.884-12.199.759-5.05 2.06-10.24 2.891-11.533.831-1.293 1.822-4.601 2.201-7.351.38-2.75 1.299-7.7 2.042-11 .743-3.3 1.64-8.475 1.992-11.5.352-3.025 1.967-8.314 3.589-11.754 1.622-3.44 3.342-8.615 3.822-11.5.479-2.885 1.604-6.976 2.499-9.09 1.705-4.027 2.283-15.326.853-16.682-3.54-3.357-14.687-2.627-22.331 1.462-1.375.736-4.525 1.666-7 2.067-4.787.776-7.624 1.978-9.799 4.153-1.398 1.398-1.898 1.532-11.701 3.133-7.548 1.232-18.627 5.174-20.863 7.422-.936.941-3.374 1.985-5.419 2.32-2.045.335-6.369 1.927-9.608 3.539-3.24 1.611-6.892 2.93-8.116 2.93-1.223 0-3.297.826-4.609 1.836-1.312 1.01-5.489 2.339-9.282 2.954-5.03.815-7.616 1.806-9.555 3.664-2.134 2.044-3.657 2.546-7.731 2.546-2.79 0-6.688.675-8.663 1.5-4.56 1.906-9.718 1.919-12.213.032-1.067-.808-2.656-1.483-3.53-1.5-1.852-.037-7.664-4.089-12.787-8.915-1.975-1.861-4.948-3.839-6.607-4.395-4.398-1.475-5.517-2.636-5.517-5.722 0-3.102-1.283-4.434-5.159-5.358-1.885-.45-3.305-1.968-4.878-5.219-1.221-2.521-2.937-4.86-3.815-5.196-.877-.337-3.182-2.213-5.121-4.17-1.94-1.956-4.764-4.567-6.277-5.8-1.513-1.234-2.75-2.91-2.75-3.725 0-.814-1.237-2.128-2.75-2.92-1.513-.791-3.875-2.869-5.25-4.616-2.279-2.897-9.51-10.316-14.5-14.877-1.1-1.006-2.788-2.105-3.75-2.443-.962-.337-1.75-1.497-1.75-2.577 0-1.167-.913-2.242-2.25-2.65-2.245-.684-9.75-7.917-9.75-9.397 0-.429-1.933-1.045-4.295-1.369-2.363-.324-4.95-.827-5.75-1.118-.8-.292-3.905.737-6.9 2.286m499.445 66.653c-6.05.626-12.575 1.639-14.5 2.252-6.525 2.075-14.128 3.244-21.101 3.244-4.604 0-8.881.714-12.674 2.115-4.449 1.644-9.291 2.285-21.725 2.877-12.325.586-17.465 1.261-22.376 2.938-4.539 1.549-10.303 2.403-20 2.964-10.339.598-14.468 1.243-17.124 2.677-2.923 1.577-6.549 1.99-22 2.504-16.08.535-19.113.9-23.183 2.787-3.047 1.413-8.247 2.512-14.881 3.144-9.351.891-10.43 1.214-12.982 3.885-1.531 1.602-4.125 3.207-5.765 3.568-5.036 1.106-6.17 3.291-6.29 12.116-.153 11.27 1.621 15.062 7.319 15.652 11.874 1.229 41.568.277 43.427-1.392 3.047-2.735 7.829-3.389 19.136-2.617 20.158 1.376 51.956 1.016 63.219-.716 10.891-1.674 25.984-2.821 58.591-4.451 14.814-.741 20.191-1.387 24-2.885 2.7-1.061 7.609-2.477 10.909-3.146 3.597-.729 7.001-2.15 8.5-3.547 1.375-1.282 3.737-2.636 5.25-3.01 1.513-.374 2.75-1.065 2.75-1.537 0-.471 1.463-2.527 3.25-4.569 3.192-3.646 3.248-3.878 3.129-12.987-.132-10.132-1.924-13.848-8.374-17.37-1.511-.825-3.818-2.235-5.126-3.133-3.383-2.323-8.785-2.667-21.379-1.363m-352.661 227.99c-.272.272-5.184 1.641-10.917 3.042-5.732 1.401-11.641 3.429-13.132 4.506-1.49 1.077-3.971 1.958-5.514 1.958-1.543 0-4.406.858-6.363 1.907-1.956 1.048-5.503 2.489-7.881 3.202-2.55.764-4.514 2.02-4.786 3.06-.254.971-1.426 2.064-2.604 2.431-1.178.366-3.819 2.068-5.87 3.783-8.118 6.789-10.592 8.617-11.659 8.617-.612 0-1.113.466-1.113 1.036 0 .57-2.053 3.158-4.563 5.75-2.509 2.593-5.194 6.195-5.966 8.004-.904 2.122-2.482 3.666-4.443 4.35-2.025.706-3.253 1.944-3.677 3.71-.35 1.457-1.697 4.671-2.994 7.142-1.296 2.471-2.357 5.22-2.357 6.11 0 .891-1.029 3.144-2.287 5.008-2.701 4.005-4.9 14.689-3.832 18.621 1.033 3.804.555 12.142-.904 15.769-2 4.975 1.016 29.566 4.403 35.899 1.441 2.694 2.62 6.207 2.62 7.806 0 3.678 5.979 16.643 7.989 17.323.831.282 2.589 2.263 3.906 4.403 3.596 5.843 16.15 18.388 20.437 20.422 2.075.985 4.19 2.891 4.702 4.237.512 1.345 2.116 2.897 3.566 3.448 1.449.551 3.766 1.891 5.148 2.979 1.382 1.087 4.367 2.471 6.633 3.077 2.265.605 4.924 1.957 5.908 3.003 1.572 1.672 6.868 2.666 10.211 1.915.55-.123 22.458-.164 48.684-.09l47.683.133 3.317-2.892c1.824-1.591 4.441-3.232 5.816-3.647 6.613-1.995 11.251-5.008 18.403-11.954 4.283-4.159 8.126-7.562 8.54-7.562.414 0 1.565-1.8 2.557-4s2.15-4 2.572-4c.423 0 1.053-1.293 1.4-2.874.348-1.581 1.702-3.88 3.01-5.109 1.379-1.296 2.663-3.975 3.054-6.376.371-2.278 1.497-5.041 2.503-6.141 1.227-1.343 2.212-4.956 2.999-11 .645-4.95 2.138-11.25 3.317-14 3.386-7.893 3.08-19.441-.605-22.856-1.513-1.402-2.75-2.952-2.75-3.445 0-3.03-33.524-3.996-65.232-1.88-16.57 1.106-17.835 1.331-19.307 3.433-.866 1.236-2.414 2.248-3.44 2.248-2.795 0-4.364 5.958-3.767 14.3.484 6.776.645 7.137 4.654 10.467 2.284 1.897 4.816 4.732 5.627 6.3.811 1.568 2.597 3.974 3.97 5.347 2.142 2.142 2.495 3.403 2.495 8.918 0 6.928-.374 7.53-6 9.655-1.925.727-3.95 1.85-4.5 2.496-4.065 4.774-18.566 4.451-23.542-.525-1.077-1.077-2.559-1.958-3.294-1.958-1.676 0-10.664-6.931-10.664-8.223 0-.526-.917-1.704-2.037-2.617-1.857-1.512-2.785-4.243-6.101-17.937-1.483-6.123-.747-55.089.867-57.723.674-1.1 1.675-3.811 2.226-6.025 1.628-6.546 10.076-14.593 17.739-16.896 13.012-3.911 42.789 2.602 46.209 10.107.59 1.295 2.09 2.753 3.335 3.242 1.244.488 4.168 2.739 6.497 5.003 3.252 3.159 5.433 4.342 9.387 5.092 10.737 2.036 29.926.584 32.378-2.451.55-.68 2.317-1.875 3.926-2.655 1.61-.779 3.238-2.542 3.619-3.917a827.204 827.204 0 0 1 2.368-8.229c2.65-9.059 2.323-34.068-.559-42.729-1.197-3.598-2.288-7.034-2.424-7.636-.136-.602-3.101-1.646-6.589-2.321-3.487-.674-7.241-1.454-8.341-1.732-5.157-1.304-11.03-1.465-14.83-.406-2.331.65-12.328 1.249-22.67 1.358-17.529.185-18.709.077-22.485-2.055-2.192-1.238-5.567-2.251-7.5-2.251-1.933-.001-8.156-1.126-13.829-2.5-9.201-2.23-22.021-3.33-23.347-2.005m526.389 3.195c-2.66 1.855-12.274 4.273-17.077 4.295-1.842.009-4.767.668-6.5 1.464-1.733.797-8.474 3.232-14.979 5.411-10.426 3.493-12.243 4.448-15.328 8.052-2.536 2.963-4.264 4.089-6.276 4.089-2.959 0-8.068 3.972-8.068 6.272 0 .752-1.454 2.011-3.232 2.798-3.543 1.568-9.514 8.797-13.303 16.106-1.333 2.572-3.245 4.937-4.249 5.255-1.048.333-2.589 2.706-3.621 5.574-.988 2.747-2.088 4.995-2.445 4.995-.358 0-.65 2.662-.65 5.917 0 6.682-.749 8.033-3.499 6.316-2.514-1.57-2.596-1.363-4.05 10.224-.866 6.899-1.024 15.193-.513 27 .405 9.374.683 18.664.617 20.644-.169 5.123 1.487 8.899 3.901 8.899 2.521 0 3.735 4.188 2.195 7.568-1.293 2.837-.43 8.388 1.413 9.095.705.27 1.987 2.257 2.85 4.414.863 2.158 1.987 3.923 2.496 3.923.51 0 1.927 1.618 3.148 3.595 1.222 1.977 3.171 4.634 4.332 5.904 1.16 1.271 2.605 2.916 3.21 3.656 2.724 3.332 12.251 11.285 15.676 13.088 2.077 1.092 4.23 2.835 4.785 3.872.555 1.037 1.634 1.885 2.397 1.885.764 0 2.665 1.074 4.225 2.387 1.56 1.312 4.512 2.849 6.561 3.415 2.048.565 4.838 1.904 6.2 2.975 2.367 1.862 4.547 1.954 49.946 2.102l47.47.155 2.632-2.439c1.448-1.342 4.379-2.735 6.513-3.096 2.134-.36 4.419-1.305 5.077-2.098.659-.793 3.174-1.94 5.59-2.549 2.417-.608 4.844-1.947 5.394-2.976.551-1.028 2.703-2.738 4.784-3.8 3.828-1.953 16.15-14.289 16.15-16.169 0-.561 1.397-2.295 3.103-3.854 3.25-2.968 3.697-3.621 8.135-11.858 1.506-2.795 3.455-5.483 4.33-5.973 1.087-.608 1.772-2.926 2.161-7.306.434-4.882 1.107-6.919 2.814-8.52 4.801-4.501 4.79-52.447-.015-61.708-1.39-2.68-2.528-6.302-2.528-8.048 0-1.747-1.102-4.797-2.449-6.779-1.346-1.982-2.766-4.899-3.155-6.482-.389-1.584-1.65-3.818-2.802-4.967-1.151-1.148-3.894-4.687-6.094-7.864-2.2-3.177-6.368-7.544-9.263-9.704-2.895-2.159-6.442-5.708-7.883-7.885-1.857-2.807-3.764-4.301-6.553-5.137-2.497-.748-4.425-2.128-5.279-3.779-1.216-2.352-12.785-8.043-16.351-8.043-3.355 0-11.313-2.388-13.088-3.928-1.174-1.018-4.561-2.084-7.826-2.462-6.56-.76-17.291-3.49-18.707-4.759-1.768-1.584-19.82-.906-22.322.838M350 2347.056c-1.968.551-24.29 1.136-51 1.337-58.841.443-61.106.859-64.042 11.764-.905 3.359-1.408 3.843-3.997 3.843H228v7.312c0 6.854.176 7.442 2.808 9.388 1.609 1.189 3.332 3.823 4.034 6.166.674 2.249 3.01 6.152 5.192 8.673 2.181 2.52 3.966 5.2 3.966 5.954 0 .755.9 1.658 2.001 2.007 3.355 1.065 4.141 4.132 4.051 15.813-.55 71.51-.738 74.687-4.42 74.687-2.413 0-12.547 17.227-12.902 21.932-.086 1.15-.944 1.599-2.81 1.469-3.357-.232-4.462 6.593-3.356 20.732l.694 8.867h2.892c2.073 0 3.199.672 3.973 2.371 1.452 3.186 20.718 3.999 88.111 3.719l21.734-.09 3.266-2.92 3.266-2.919-.052-13.331c-.051-13.088-.112-13.448-3.379-19.83-1.83-3.575-3.759-6.776-4.287-7.114-8.226-5.261-13.782-12.829-13.782-18.771 0-10.633 3.321-12.638 22.29-13.452 7.816-.335 15.672-.791 17.46-1.014 1.788-.222 3.25-.009 3.25.473 0 2.08 27.074.995 30.671-1.228 2.478-1.531 5.443-2.193 10.866-2.425 5.699-.244 8.08-.809 10.095-2.394 1.451-1.141 3.171-2.075 3.823-2.075.652 0 3.025-1.575 5.274-3.5s4.564-3.5 5.145-3.5c.58 0 1.483-.787 2.005-1.75.522-.963 3.226-4 6.007-6.75 2.782-2.75 5.341-6.283 5.688-7.851.346-1.569 1.675-5.169 2.952-8 4.606-10.211 4.311-41.227-.45-47.279-1.142-1.452-2.076-3.426-2.076-4.387 0-1.786-7.504-9.983-9.139-9.983-.497 0-1.416-1.125-2.043-2.5-.626-1.375-1.663-2.5-2.304-2.5-.641 0-2.2-1.102-3.465-2.448-1.265-1.347-3.612-2.736-5.216-3.089-1.604-.352-3.91-1.664-5.125-2.916-1.426-1.47-4.864-2.883-9.708-3.99-4.125-.943-8.85-2.108-10.5-2.588-1.65-.48-5.475-1.164-8.5-1.518-3.025-.355-8.425-1.535-12-2.623-7.468-2.271-28.328-3.359-34-1.772m162.951.911c-.851.499-4.901 1.159-9 1.467-21.504 1.617-25.301 5.616-25.404 26.752-.044 9.168.096 9.837 2.632 12.5 1.473 1.548 2.992 4.081 3.375 5.63.428 1.733 2.151 3.735 4.475 5.202 5.987 3.78 7.537 9.609 7.174 26.982-.161 7.7-.696 15.575-1.189 17.5-.492 1.925-1.189 12.5-1.547 23.5-.779 23.924-1.373 26.76-6.666 31.801-2.423 2.307-4.182 5.006-4.475 6.87-.266 1.689-1.379 4.787-2.472 6.884-2.435 4.673-3.807 13.643-3.834 25.07-.03 13.014.476 14.618 4.841 15.333 5.39.883 108.264 1.027 110.887.156 3.012-1.002 3.268-2.53 3.528-21.114l.224-16-4.156-6.5c-2.287-3.575-5.149-7.578-6.362-8.896-1.213-1.317-2.847-3.931-3.631-5.807-1.527-3.653-4.423-30.275-3.737-34.348.227-1.347.531-13.699.675-27.449.287-27.256.89-30.605 6.127-34.037 1.421-.931 2.584-2.232 2.584-2.891 0-.658 1.984-3.419 4.409-6.135 9.983-11.179 6.215-36.068-5.909-39.036a337.574 337.574 0 0 1-10.5-2.801c-6.225-1.784-59.159-2.324-62.049-.633m399.049.932c-5.775.4-12.075 1.232-14 1.848-1.925.617-6.087 1.633-9.25 2.258-3.163.625-5.75 1.492-5.75 1.926 0 .435-1.22 2.54-2.71 4.679-2.496 3.582-2.741 4.819-3.105 15.629-.481 14.301.355 16.088 10.377 22.194 12.33 7.511 12.146 6.653 12.028 56.153l-.09 37.914-2.789 4.744c-1.534 2.61-4.121 5.434-5.75 6.276-1.629.842-2.961 1.99-2.961 2.551 0 .561-1.013 2.04-2.25 3.288-8.544 8.612-11.671 33.38-5.364 42.478l2.886 4.163 55.114.153c140.32.391 129.097.505 130.941-1.337 1.933-1.933 3.334-2.398 9.923-3.293 2.612-.355 4.75-1.072 4.75-1.592 0-.521 1.835-1.681 4.078-2.579 2.489-.996 4.435-2.57 4.994-4.042.504-1.325 2.199-2.857 3.766-3.403 3.36-1.172 6.365-4.945 8.077-10.144.74-2.245 2.387-4.419 4.126-5.447 3.352-1.98 4.038-4.965 4.205-18.316.192-15.308-.754-22.187-3.637-26.435-1.435-2.114-2.609-4.626-2.609-5.582 0-.956-.675-2.298-1.5-2.983s-1.5-1.795-1.5-2.467c0-1.881-3.756-4.863-8.35-6.628-5.841-2.245-11.051-9.866-10.167-14.873 1.102-6.239 1.509-6.848 8.785-13.125 3.938-3.398 7.77-7.353 8.515-8.79.746-1.437 1.994-3.318 2.774-4.18 3.823-4.225 3.812-28.597-.014-32.925-.736-.831-2.012-3.532-2.836-6.001-1.083-3.247-2.148-4.643-3.847-5.044-1.292-.305-2.509-1.382-2.704-2.394-.451-2.344-4.732-6.274-8.839-8.116-1.751-.786-3.777-2.276-4.503-3.313-1.985-2.834-18.004-7.832-27.314-8.522-4.4-.327-10.475-1.316-13.5-2.199-4.562-1.332-12.148-1.646-44.5-1.843-21.45-.13-47.1-.5-57-.822-9.9-.322-22.725-.258-28.5.141m498.5 2.764c-17.418 3.417-20.797 4.599-21.583 7.546-.397 1.489-1.778 4.189-3.069 6-2.1 2.943-2.342 4.348-2.292 13.291l.056 10 4.876 6.75c2.681 3.713 5.183 6.75 5.559 6.75 1.994 0 11.034 8.715 11.964 11.535.586 1.773 1.947 4.022 3.027 4.999 1.079.977 1.962 2.392 1.962 3.146 0 .753 1.052 1.769 2.337 2.258 1.397.531 3.476 3.139 5.168 6.485 1.557 3.078 5.147 8.404 7.977 11.836 2.829 3.433 6.401 8.387 7.937 11.01 1.536 2.623 4.32 6.209 6.187 7.97 2.912 2.747 3.394 3.861 3.394 7.846 0 3.065.653 5.475 1.918 7.083 4.119 5.237 3.871 16.61-.465 21.288-1.349 1.456-2.453 3.244-2.453 3.973 0 .729-.71 1.915-1.578 2.636-5.594 4.642-8.742 16.801-8.846 34.167l-.076 12.732 3.269 3.268 3.269 3.268h95.462l4-2.688c6.866-4.613 7.28-5.244 8.027-12.223 1.08-10.081-.213-19.366-3.098-22.251-3.329-3.329-4.427-5.682-4.444-9.522-.016-3.67-2.003-9.972-4.995-15.835-3.127-6.13-3.737-14.543-1.251-17.266 1.178-1.29 2.468-4.814 3.087-8.437 1.078-6.3 4.288-12.269 7.996-14.866 1.111-.778 2.293-2.659 2.627-4.179.705-3.212 5.606-8.798 8.534-9.727 1.122-.357 2.017-1.513 2.017-2.607 0-1.081 1.463-3.511 3.25-5.399 6.065-6.406 7.907-9.385 7.572-12.245-.266-2.272.245-3.018 2.915-4.255 1.78-.825 3.494-2.277 3.81-3.227.315-.95 3.654-4.018 7.42-6.818 8.64-6.425 9.39-8.248 9.627-23.401.277-17.714-.517-26.554-2.385-26.554-.834 0-3.992-1.171-7.019-2.603l-5.502-2.603-23.094.389c-19.369.326-23.609.665-26.288 2.099-1.756.941-4.865 1.977-6.908 2.301-2.043.325-4.303 1.114-5.022 1.754-.718.64-2.052 1.795-2.963 2.567-2.322 1.966-1.594 20.994.993 25.947.962 1.843 2.102 6.848 2.533 11.121.431 4.274 1.056 8.211 1.389 8.75.599.969-2.206 5.34-5.568 8.675-.957.949-2.464 4.218-3.35 7.264-3.795 13.053-12.393 12.499-14.83-.955-1.151-6.357-.191-7.706 5.487-7.706 2.713 0 4.933-.45 4.933-1 0-1.047-1.687-1.33-6.182-1.038-5.255.342-6.1-2.849-5.482-20.697.301-8.671.848-18.169 1.216-21.107 1.023-8.165-1.417-12.865-7.123-13.721-2.367-.355-4.895-.441-5.616-.191-.722.25-3.057-.153-5.189-.896-2.131-.742-6.04-1.35-8.685-1.35-2.645 0-5.851-.393-7.124-.874-4.797-1.811-40.723-2.148-49.315-.463M339 2393.122c-4.225 1.265-10 5.477-10 7.294 0 .723-1.012 2.601-2.25 4.175-5.452 6.931-.524 23.916 8.13 28.022 6.295 2.987 14.439 2.35 25.381-1.987 11.183-4.432 11.192-4.445 11.221-16.626.034-14.39-6.156-19.937-23.982-21.49-2.75-.239-6.575.036-8.5.612m646.746 3.939c-2.064 1.095-4.816 3.673-6.114 5.729-1.298 2.057-3.096 4.35-3.996 5.097-2.449 2.033-2.107 8.374.636 11.786 1.25 1.555 3.032 4.492 3.96 6.528 3.911 8.571 30.576 8.752 38.803.262 4.832-4.986 4.948-15.446.235-21.268-7.087-8.756-24.422-12.962-33.524-8.134m265.754.285c-2.733 1.281-9.358 7.196-12.115 10.816-2.639 3.466-3.704 6.637-4.42 13.156-.419 3.816-1.19 7.218-1.714 7.56-4.264 2.786-4.82 30.583-.848 42.446 1.321 3.947 2.723 9.876 3.115 13.176.392 3.3 1.561 7.403 2.597 9.118 1.037 1.715 1.885 3.685 1.885 4.379 0 .693 1.575 3.004 3.5 5.135 1.925 2.13 3.5 4.239 3.5 4.684 0 .804 12.838 6.184 14.756 6.184.549 0 1.535-.646 2.191-1.436.655-.789 2.537-1.731 4.181-2.092 3.314-.728 9.872-6.711 9.872-9.005 0-.807.438-1.467.974-1.467 1.189 0 4.026-5.289 4.026-7.505 0-.883.96-3.712 2.133-6.287 4.471-9.815 4.985-49.228.856-65.585-1.094-4.332-1.989-8.91-1.989-10.173 0-2.178-5.196-8.45-7-8.45-.466 0-2.197-1.136-3.848-2.525-3.784-3.185-16.693-4.454-21.652-2.129m-263.935 75.084c-5.369 1.474-7.081 3.159-8.526 8.392-.519 1.878-1.691 4.241-2.606 5.252-3.287 3.632 3.352 23.926 7.828 23.926.523 0 1.864 1.16 2.979 2.579 1.984 2.521 2.219 2.564 10.644 1.917 5.977-.459 9.428-1.236 11.266-2.535 1.457-1.03 3.821-2.167 5.253-2.526 6.841-1.717 10.851-12.788 8.224-22.707-1.968-7.43-7.433-14.326-11.868-14.977-6.614-.97-18.444-.624-23.194.679" fill-rule="evenodd"/>
</svg>