<!DOCTYPE svg PUBLIC "-//W3C//DTD SVG 1.1//EN" "http://www.w3.org/Graphics/SVG/1.1/DTD/svg11.dtd">
<svg xmlns="http://www.w3.org/2000/svg" viewBox="0 0 720 484">
<path d="M429 17.057c-40.668 6.012-63.642 35.237-65.687 83.559l-.597 14.116-27.608.539c-81.581 1.592-143.535 23.444-203.449 71.758-44.237 35.673-84.64 88.335-92.121 120.072-3.762 15.96-1.407 40.646 5.05 52.934 9.329 17.754 28.096 32.526 56.667 44.607C167.673 432.725 233.44 443.945 297 438.036c43.829-4.074 95.868-21.989 137.884-47.466 5.053-3.063 9.62-5.57 10.151-5.57 1.149 0 2.191 1.039 11.965 11.928 8.567 9.546 28.556 28.049 34.5 31.937 2.2 1.439 4.225 2.869 4.5 3.178.275.31 2.268 1.638 4.428 2.951 27.535 16.745 55.313 18.342 78.289 4.502 22.317-13.444 78.794-63.936 98.985-88.496 28.261-34.376 34.509-58.562 20.254-78.412-9.101-12.672-41.127-19.576-77.456-16.697-6.6.523-12.324.64-12.72.26-.396-.38-.026-3.157.822-6.171 6.581-23.379-.301-52.298-18.556-77.98-3.323-4.675-6.043-8.817-6.044-9.205-.001-.388 3.261-2.595 7.248-4.904 35.053-20.297 50.407-35.975 51.553-52.643 1.047-15.213-12.635-29.202-47.733-48.806C548.404 30.376 467.959 11.298 429 17.057M298.5 128.514c-71.136 8.978-130.306 37.263-180.873 86.462-30.2 29.383-45.05 48.246-57.096 72.524-9.828 19.808-10.725 22.713-11.271 36.5-1.562 39.466 21.008 59.724 93.595 84.006 101.744 34.036 199.345 24.768 286-27.16 13.803-8.272 16.173-10.021 20.443-15.084 3.761-4.46 16.643-14.495 53.048-41.322 8.165-6.017 29.315-21.719 47-34.893s34.852-25.598 38.15-27.609c8.939-5.45 10.992-11.615 10.966-32.938-.017-14.529-.193-15.958-2.811-22.818-5.534-14.499-16.449-31.581-23.076-36.113-12.118-8.288-65.131-26.378-99.575-33.98-35.197-7.769-42.412-8.359-106-8.676-44.514-.222-59.984.026-68.5 1.101m-2 36.11c-22.625 1.088-46.853 5.626-71.75 13.437-12.583 3.948-16.308 5.827-9 4.541 32.626-5.742 70.544-5.902 80.619-.34 14.457 7.982 10.09 28.729-8.588 40.801-9.726 6.286-9.883 6.148-9.119-8.063.737-13.702.712-13.734-6.36-8.144-21.075 16.658-22.647 27.931-8.317 59.644.994 2.2 2.54 5.767 3.434 7.927.969 2.34 1.984 3.552 2.511 3 .918-.962 3.197-13.714 5.079-28.427.598-4.675 1.335-9.333 1.638-10.35.52-1.746 2.833-2.961 26.501-13.927C334.113 210.375 356 191.968 356 180.272c0-10.95-24.307-17.342-59.5-15.648m209.5 6.1c-30.585 8.905-32.444 9.765-36.652 16.945-2.958 5.048-3.972 20.581-1.996 30.588.685 3.471.533 3.836-1.999 4.799-5.924 2.252-27.479 8.151-27.975 7.656-.682-.683.743-3.411 13.762-26.34 5.973-10.521 10.86-19.408 10.86-19.75 0-1.276-3.798-.483-23.893 4.99-22.713 6.186-25.595 7.322-26.402 10.409-.773 2.955.934 3.273 8.31 1.553 7.048-1.645 7.438-1.576 6.571 1.155-1.159 3.653-18.704 33.801-20.879 35.878-2.036 1.944-18.986 7.393-22.997 7.393-2.734 0-2.207-1.253 7.478-17.801 5.054-8.635 10.956-19.009 13.115-23.054l3.927-7.354-3.365.701c-11.691 2.438-45.538 12.751-46.615 14.204-2.474 3.338-1.579 4.619 2.75 3.936l8.008-1.265 4.007-.632-1.257 2.954c-3.108 7.299-21.347 36.594-23.22 37.294-2.248.84-6.573-.44-7.752-2.296-1.156-1.818-.933-8.583.658-19.907 1.779-12.666 2.28-17.78 1.741-17.78-2.349 0-20.184 6.554-20.569 7.559-.972 2.533-2.964 33.951-2.315 36.52 1.944 7.701 7.756 6.917 62.199-8.382a16439.98 16439.98 0 0 1 60-16.7c18.15-5.012 38.4-10.628 45-12.48 6.6-1.852 16.05-3.875 21-4.495 15.464-1.94 22.5-4.611 22.5-8.542 0-2.392-.139-2.435-5.891-1.834-8.668.906-9.857-1.169-8.234-14.376.65-5.287.812-9.983.36-10.435-.994-.994-15.275 2.797-16.858 4.475-.617.654-1.607 6.157-2.2 12.229-1.33 13.625-1.632 14.461-5.227 14.461-4.426 0-5.95-3.126-5.95-12.202 0-15.586 3.579-19.167 25.226-25.235 5.561-1.559 8.641-4.351 7.261-6.584-.841-1.36-2.731-1.096-12.487 1.745m-181.015 18.673c-9.135 4.884-10.402 11.684-2.455 13.175 12.523 2.349 28.714-7.908 21.589-13.677-3.544-2.869-13.307-2.613-19.134.502m-91.615 10.08c-3.936 1.667-4.632 2.783-3.068 4.921 1.129 1.544 1.486 1.433 4.078-1.272 3.616-3.775 3.163-5.415-1.01-3.649m-64.488 9.904c-22.107 7.9-29.186 36.191-13.243 52.926 5.449 5.72 7.231 5.506 2.036-.245-22.245-24.622.592-61.278 31.825-51.083 8.504 2.775 18.767 13.278 17.134 17.533-.743 1.936.766 1.916 2.382-.031 1.027-1.237.959-1.851-.365-3.315-.895-.988-2.096-3.144-2.67-4.792-2.965-8.504-25.433-15.162-37.099-10.993m4.475 7.132c-.744 1.938 1.356 4.487 3.698 4.487 1.906 0 3.513-3.273 2.451-4.991-.966-1.562-5.499-1.19-6.149.504m-14.363 9.994c-1.107 1.334-1.063 1.852.264 3.18 2.145 2.144 4.972.953 4.562-1.922-.391-2.739-3.027-3.426-4.826-1.258M184.5 230c-.923 1.494.361 3 2.559 3 1.274 0 1.941-.687 1.941-2 0-2.121-3.347-2.865-4.5-1m24.175 1.658c-.362.362-.16 1.257.447 1.989 3.738 4.504-1.531 22.315-8.498 28.73-8.142 7.496-25.073 10.835-31.984 6.307-1.588-1.041-3.549-1.53-4.686-1.17-5.837 1.853 1.985 3.827 15.546 3.922 13.315.094 22.845-5.501 28.777-16.896 4.009-7.7 4.342-26.825.398-22.882m-39.008 6.009c-1.267 1.266-.661 4.121 1.011 4.763 2.124.815 4.793-1.761 3.99-3.852-.608-1.584-3.755-2.158-5.001-.911m-14.709 2.883c-2.091 2.521 1.359 5.562 3.679 3.242 1.817-1.818 1.207-4.792-.983-4.792-.775 0-1.988.698-2.696 1.55m375.325 4.082c-3.524 1.737-5.123 4.928-3.355 6.696 2.743 2.743 15.067-.266 16.512-4.032 1.584-4.129-6.759-5.819-13.157-2.664m-56.766 2.704-6.982 2.235-.828 4.934c-.987 5.89-1.92 7.175-6.065 8.355-49.33 14.048-61.199 17.666-101.142 30.831-51.852 17.09-46.936 16.224 33-5.808 27.786-7.659 35.823-9.89 55.25-15.336 4.813-1.349 10.438-2.749 12.5-3.111l3.75-.659v6.557c0 3.606-.45 12.319-1 19.362-.55 7.042-1.187 15.218-1.415 18.169-.529 6.845.541 6.176-17.797 11.128-22.391 6.047-22.901 5.703-20.924-14.109.927-9.289 1.311-10.621 3.642-12.634 2.75-2.374 6.922-2.984 8.041-1.174 1.684 2.724-.7 11.918-4.166 16.066-2.059 2.465-3.11 4.529-2.577 5.062 2.028 2.028 17.18-3.429 21.096-7.598 4.137-4.403 4.994-19.715 1.336-23.856-4.408-4.989-29.259 1.667-40.015 10.718-4.712 3.965-6.154 9.235-6.983 25.532l-.738 14.5-3.925-.13c-6.03-.199-6.575-1.642-6.575-17.426 0-21.334-1.092-21.894-29.314-15.051-8.698 2.109-16.217 4.238-16.71 4.731-.816.816-2.818 15.388-4.493 32.715-.956 9.888-6.258 13.886-11.483 8.661-2.324-2.324-2.384-3.372-.865-15.214.624-4.867.927-9.057.674-9.311-.6-.6-16.792 4.106-17.868 5.193-.453.458-1.288 6.204-1.856 12.77-1.16 13.408-2.25 15.719-6.498 13.784-5.064-2.308-6.006-17.561-1.615-26.167 2.428-4.759 6.203-6.912 17.528-9.994 9.319-2.537 12.5-4.34 12.5-7.084 0-2.679-.877-2.579-17.79 2.04-23.541 6.429-28.705 9.184-32.602 17.398-1.937 4.081-2.181 18.4-.46 26.97 1.425 7.091.697 8.015-6.351 8.073-9.102.074-9.259-1.143-4.311-33.334.877-5.707 1.395-10.576 1.151-10.82-.644-.644-7.162 2.886-14.637 7.926l-6.5 4.382-1.157 6.944c-2.369 14.215-2.767 29.148-.855 32.066 1.616 2.466 2.091 2.6 7.37 2.08 6.037-.595 43.165-10.558 51.312-13.769 2.894-1.141 7.33-1.933 10.824-1.933 5.256 0 22.949-3.977 36.865-8.287 5.591-1.732 5.66-1.897 7.03-16.713 2.257-24.409 1.929-23.026 5.856-24.667 6.418-2.681 6.636-2.137 5.854 14.644-1.117 23.983-4.49 23.676 61.401 5.593 10.725-2.943 28.05-7.677 38.5-10.52 25.546-6.949 31.5-8.948 31.5-10.573 0-2.263-1.413-2.451-7.08-.943-14.993 3.99-15.499 2.856-12.929-29.034 1.681-20.864.922-19.111 9.299-21.468 19.312-5.434 22.198-6.566 22.53-8.839.415-2.854.082-2.826-15.243 1.263-7.107 1.897-13.35 3.184-13.873 2.861-.523-.323-.692-2.774-.374-5.452l.576-4.865-3.203.05c-1.762.028-6.345 1.057-10.186 2.286m-313.947 5.342c-1.072 2.793 2.02 5.16 4.067 3.114.9-.9 1.364-2.347 1.031-3.214-.802-2.09-4.284-2.022-5.098.1m22.973 1.253c-.317.512-.118 1.213.441 1.559.559.345 1.016-.074 1.016-.931 0-1.757-.6-2.015-1.457-.628m10.159 3.7c-.347.348-.166 1.502.403 2.565 1.144 2.137 3.895.853 3.895-1.818 0-1.385-3.119-1.926-4.298-.747m-15.112 4.223c-1.023 1.655.531 4.146 2.587 4.146 1.461 0 1.88-.572 1.643-2.24-.331-2.318-3.181-3.603-4.23-1.906m-49.561 21.115c-3.598 3.852-3.869 5.417-.779 4.494 4.863-1.451 6.99-3.457 5.6-5.28-.706-.926-1.398-1.857-1.538-2.07-.139-.213-1.616 1.072-3.283 2.856m78.971.519c-18.101 2.396-42.205 7.671-58 12.693-6.596 2.097-10.767 4.464-6 3.405 15.449-3.432 54.268-5.569 67.311-3.705 20.626 2.947 27.418 12.246 20.157 27.595C226.904 331.01 211.549 345 206.845 345c-.465 0-.845-5.625-.845-12.5 0-6.913-.41-12.5-.917-12.5-.504 0-4.442 3.327-8.75 7.392-15.107 14.258-17.714 24.177-10.986 41.811 4.481 11.746 11.533 27.251 12.124 26.659.236-.236 1.544-8.739 2.907-18.896 1.363-10.156 2.744-19.151 3.069-19.988.326-.836 9.47-5.947 20.322-11.355 37.189-18.536 51.012-28.28 57.981-40.872 5.657-10.222-1.626-18.109-19.7-21.334-9.514-1.698-42.004-1.655-55.05.071" fill-rule="evenodd"/>
</svg>