<!DOCTYPE svg PUBLIC "-//W3C//DTD SVG 1.1//EN" "http://www.w3.org/Graphics/SVG/1.1/DTD/svg11.dtd">
<svg xmlns="http://www.w3.org/2000/svg" viewBox="0 0 426 357">
<path d="M17 8.709c-5.38 1.979-5-8.904-5 143.255 0 119.02.21 139.941 1.419 141.595 1.375 1.881 3.584 1.957 71.25 2.441l69.831.5.293 9.5c.406 13.137.814 12.449-13.97 23.556C121.766 343.874 121 344.607 121 348.547c0 6.838-5.766 6.453 96.723 6.453 90.944 0 92.306-.029 94.277-2 2.038-2.038 2.497-4.54 1.373-7.471-.345-.899-7.995-7.262-17-14.141L280 318.881V296h69.5c68.207 0 69.537-.037 71.503-2.003 1.988-1.988 2.002-3.085 1.75-142.25L422.5 11.5 419 9.752c-3.298-1.648-14.931-1.744-202-1.671-109.175.042-199.175.325-200 .628M25 152.5V283h385V22H25v130.5M44 37.709c-5.351 1.968-5-5.808-5 110.873v107.273l2.645 2.081 2.646 2.081 173.943-.259 173.943-.258 1.911-2.361c1.856-2.291 1.912-5.484 1.912-108.316 0-67.201-.358-106.623-.979-107.784-.538-1.006-2.405-2.326-4.149-2.934-3.294-1.148-343.769-1.537-346.872-.396M52 149v98h31.5c19.917 0 31.5-.361 31.5-.981 0-.539-1.515-3.351-3.366-6.25-11.282-17.662-17.364-35.495-19.565-57.371-3.241-32.196 10.236-82.025 32.482-120.098a2703.19 2703.19 0 0 0 6.146-10.55c.232-.413-17.381-.75-39.138-.75H52v98m92.068-92.732c-27.987 42.668-43.397 96.812-37.623 132.189 3.026 18.541 11.045 37.739 21.639 51.805l5.093 6.762 38.161-.262 38.162-.262-.326-6c-.75-13.809-6.879-33.201-11.228-35.529-1.233-.66-3.602.046-8.575 2.555-13.711 6.919-28.502 8.666-32.316 3.817-4.265-5.422-.315-9.78 9.62-10.613 17.902-1.5 33.724-13.459 40.499-30.611 2.023-5.12 2.277-7.973 2.858-32.119.352-14.575.713-26.601.803-26.724 1.391-1.896 6.408-3.122 8.631-2.109 3.738 1.703 4.199 4.8 4.391 29.525.197 25.317 1.194 30.442 7.951 40.88 8.088 12.493 19.566 19.301 35.975 21.338 8.267 1.027 10.217 2.386 10.217 7.126 0 8.499-19.687 7.522-35.762-1.775-5.568-3.22-6.403-2.754-10.614 5.924-3.522 7.257-5.821 16.545-7.073 28.565l-.65 6.25h77.278l1.94-2.25c20.487-23.77 29.967-59.407 24.862-93.458-4.586-30.59-18.913-67.499-36.074-92.929L286.939 51l-69.719.018-69.72.018-3.432 5.232M304 51.442c0 .243 2.555 4.631 5.677 9.75 6.667 10.932 13.571 25.362 18.81 39.318 20.981 55.882 19.322 101.005-5.12 139.259-1.852 2.899-3.367 5.718-3.367 6.265 0 .644 11.015.901 31.25.73l31.25-.264.255-97.75.255-97.75h-39.505c-21.728 0-39.505.199-39.505.442m-90 151.511c0 1.51 2.251 6.047 3 6.047.749 0 3-4.537 3-6.047 0-.524-1.35-.953-3-.953s-3 .429-3 .953M168 306v10.019l49.25-.26 49.25-.259v-19l-49.25-.259-49.25-.26V306m-12.614 29.25-7.886 6.25 34.677.263c19.072.144 50.532.144 69.912 0l35.236-.263-8.08-6.25-8.08-6.25H163.272l-7.886 6.25" fill-rule="evenodd"/>
</svg>