<!DOCTYPE svg PUBLIC "-//W3C//DTD SVG 1.1//EN" "http://www.w3.org/Graphics/SVG/1.1/DTD/svg11.dtd">
<svg xmlns="http://www.w3.org/2000/svg" viewBox="0 0 423 220">
<path fill="#080808" d="M35.844 11.394c-10.208 3.646-15.611 8.608-20.268 18.613L13.02 35.5l-.01 75.212c-.012 87.309-.576 82.044 9.909 92.374 10.535 10.379-8.756 9.373 186.081 9.702 176.535.298 179.093.246 186.989-3.782 5.849-2.984 12.733-10.648 14.995-16.692 1.957-5.231 2.016-7.63 2.016-81.692V34.319l-3.064-6.13c-3.719-7.443-10.192-13.393-17.576-16.156-5.39-2.016-6.879-2.033-179.148-1.989-140.315.035-174.415.295-177.368 1.35m47.252 6.856c-10.91 28.742-14.422 73.62-9.105 116.374 3.285 26.423 12.605 69.756 15.402 71.611 2.379 1.578 112.621.891 113.234-.706.311-.809-.164-9.247-1.056-18.75-5.235-55.814-12.256-72.147-39.884-92.779-5.335-3.984-6.235-8.21-1.88-8.827 3.12-.442 15.493 9.705 25.626 21.017 8.476 9.462 10.888 10.81 19.348 10.81h5.482l-.539-4.021c-.589-4.388 1.341-7.552 3.987-6.537.799.307 1.62.558 1.825.558.206 0 .671 1.586 1.035 3.524 1.062 5.666 6.374 7.968 12.772 5.536 1.361-.518 8.028-6.497 14.816-13.288 16.477-16.485 23.413-20.936 25.232-16.195.923 2.406-.341 4.145-6.227 8.57-17.333 13.03-28.147 28.042-33.154 46.024-3.964 14.24-9.525 53.007-8.824 61.516l.314 3.813 59.711.258c56.105.242 59.766.152 60.626-1.5.504-.967 2.526-8.508 4.493-16.758 15.349-64.375 16.445-114.335 3.537-161.25L346.772 16H83.95l-.854 2.25m120.888 37.612c-10.638 5.683 1.587 31.757 12.469 26.593 5.819-2.761 11.722-17.233 9.459-23.187-1.917-5.043-15.048-7.082-21.928-3.406M32 89c-1.87 1.87-2 3.333-2 22.5s.13 20.63 2 22.5c2.367 2.367 3.927 2.505 6.559.581 2.995-2.191 2.995-43.971 0-46.162-2.632-1.924-4.192-1.786-6.559.581m351.5 6.954c-17.029 3.968-17.346 27.227-.423 30.927 14.068 3.075 25.065-13.14 16.514-24.35-4.131-5.416-10.283-7.931-16.091-6.577" fill-rule="evenodd"/>
</svg>