<!DOCTYPE svg PUBLIC "-//W3C//DTD SVG 1.1//EN" "http://www.w3.org/Graphics/SVG/1.1/DTD/svg11.dtd">
<svg xmlns="http://www.w3.org/2000/svg" viewBox="0 0 676 556">
<path d="M341.5 43.845c-10.839 6.638-40.262 79.74-48.406 120.264-4.884 24.306-7.833 85.836-4.799 100.141l.796 3.75 14.704-.002c8.088 0 30.51-.297 49.827-.659l35.122-.658-.43-6.591c-.734-11.232-3.253-27.664-7.858-51.256-8.918-45.682-12.206-69.985-14.927-110.334-2.283-33.854-3.011-38.981-6.564-46.212-4.879-9.928-10.558-12.673-17.465-8.443m-5.199 45.547c-10.047 8.48-14.187 33.742-15.036 91.742l-.493 33.634 3.613 6.46c4.17 7.457 6.888 10.265 9.11 9.412 1.402-.538 1.501-4.321.928-35.371-.744-40.305.565-73.91 3.592-92.259 2.661-16.125 2.526-17.197-1.714-13.618m222.951 74.727c-51.564 4.683-93.757 33.509-131.989 90.172l-8.238 12.209 6.738.626c3.705.344 30.31.681 59.121.75l52.384.124 9.116-8.312c18.128-16.529 35.179-30.96 48.019-40.64C617.009 202.006 629 189.564 629 183.149c0-3.531-6.74-9.525-13.695-12.179-12.25-4.675-41.139-8.206-56.053-6.851M81 171.068c-24.302 2.68-40 8.349-40 14.447 0 7.334 17.875 23.747 62.17 57.086 16.318 12.282 29.957 22.796 30.309 23.365.841 1.361 119.521 1.448 119.521.088 0-3.623-21.241-34.968-30.189-44.549-29.943-32.063-95.852-55.504-141.811-50.437m-3 25.273c0 5.037 15.807 17.698 34.5 27.634 16.268 8.647 26.456 15.031 34.979 21.916 11.579 9.355 14.038 10.449 16.95 7.538 2.551-2.552 1.885-4.248-4.179-10.627-10.785-11.348-21.969-19.262-39.75-28.128-6.05-3.017-17.075-8.901-24.5-13.077-14.46-8.132-18-9.166-18-5.256m508.582.783c-31.222 16.457-52.66 32.204-63.511 46.65-5.316 7.078-6.003 9.207-3.612 11.192 2.392 1.985 6.771.291 12.078-4.673 7.628-7.134 22.412-18.704 39.148-30.636 21.967-15.662 30.624-25.765 21.983-25.655-.092.001-2.831 1.406-6.086 3.122m-426.955 94.671c-.271.438 3.115 4.713 7.523 9.5l8.016 8.705 46.167-.015c25.392-.009 46.73-.373 47.418-.81 1.132-.719-1.522-14.377-3.377-17.379-.643-1.04-105.105-1.041-105.747-.001m129.687.455c-.921 1.431-.731 15.666.222 16.619.346.347 22.755.631 49.797.631H388.5l.288-9.25.287-9.25h-49.478c-38.488 0-49.658.278-50.283 1.25m120.915-.581c-3.221 1.296-7.502 15.91-5.106 17.428 1.577.999 78.447 1.231 87.691.265l6.107-.639 6.369-7.611c3.504-4.187 6.698-8.174 7.099-8.862.733-1.258-99.068-1.825-102.16-.581m24.271 41.385c-17.6.371-32.852.736-33.893.81-1.734.125-1.846.785-1.34 7.886.892 12.487-2.923 11.25 34.693 11.25h32.747l4.503-6.772c9.151-13.762 9.185-14.321.873-14.039-3.071.104-19.983.493-37.583.865m-237.326.662c-1.456.277-2.131.953-1.804 1.805.708 1.845 10.794 15.792 12.093 16.721.57.409 15.644.634 33.496.5l32.46-.242.754-3.5c.416-1.925.484-6.312.153-9.75l-.602-6.25-37.112.136c-20.412.075-38.159.336-39.438.58m93.6 5.034c.242 3.163.748 7.325 1.124 9.25l.685 3.5 11.458.618c14.921.806 59.48.811 68.459.008l7-.626 2.191-6c3.6-9.863 3.293-11.103-2.941-11.852-2.887-.347-23.962-.635-46.832-.639L290.335 333l.439 5.75M222 377.329c0 .73 1.394 3.433 3.098 6.006 11.947 18.036 30.527 18.391 41.815.8C272.367 375.637 273.301 376 246 376c-19.29 0-24 .261-24 1.329m78.464-.271c-.797 1.29 3.283 7.622 7.864 12.203 15.792 15.792 45.724 15.548 55.383-.452 1.762-2.92 3.904-6.996 4.76-9.059l1.556-3.75h-34.455c-23.144 0-34.669.347-35.108 1.058m103.843 2.448c2.491 15.35 23.773 22.871 35.882 12.682 3.339-2.81 11.811-13.783 11.811-15.298 0-.495-10.699-.89-24.131-.89h-24.131l.569 3.506m-100.599 47.12c-.39.389-.715 7.72-.723 16.291-.019 19.414.185 19.067-8.556 14.507-19.71-10.28-41.677 4.425-41.787 27.972-.128 27.386 25.024 41.795 46.395 26.578 3.47-2.471 4.491-2.086 5.309 2.005.59 2.953.738 3.021 6.518 3.021h5.913l.678-22.25c.373-12.238.536-32.6.362-45.25l-.317-23-6.542-.291c-3.599-.16-6.861.028-7.25.417m104.267 1.939c-.536 1.411-.982 8.948-.99 16.75-.018 16.621-.432 17.863-4.744 14.235-13.42-11.293-34.505-5.191-42.603 12.328-2.625 5.678-3.036 21.425-.708 27.122 7.698 18.839 26.156 24.9 42.592 13.985l5.973-3.966.683 2.554c1.19 4.452 2.708 5.427 8.444 5.427H422v-91h-6.525c-6.084 0-6.59.173-7.5 2.565m-75.122 6.428c-3.476 3.476-3.235 6.107.903 9.859 7.185 6.517 17.634-3.553 10.789-10.397-3.466-3.467-7.891-3.263-11.692.538m-176.119 19.048c-15.196 3.772-22.234 14.053-22.234 32.482 0 12.649 2.125 17.456 11.277 25.512 8.98 7.904 17.042 8.512 29.716 2.241 7.48-3.701 10.507-3.825 10.507-.43 0 3.255 2.224 4.239 7.396 3.272 6.219-1.161 5.864.245 4.61-18.259-.782-11.553-.801-19.003-.065-25.359 1.76-15.196 1.796-15.034-3.625-16.552-4.264-1.193-4.78-1.149-5.75.489-.586.99-1.812 2.757-2.724 3.927l-1.658 2.127-2.599-2.805c-5.121-5.526-16.79-8.646-24.851-6.645m297.984.009c-13.795 3.4-22.133 15.409-22.182 31.95-.077 25.592 21.871 39.927 42.403 27.696 7.508-4.473 7.949-4.506 8.718-.66.752 3.76 3.521 5.341 7.913 4.517 4.912-.922 4.865-.617 4.919-31.32l.05-28.266-3.52-.978c-5.158-1.433-5.491-1.318-7.318 2.511-1.939 4.066-2.699 4.266-5.296 1.392-4.953-5.481-17.572-8.843-25.687-6.842m62.25 3.2c-7.836 4.016-9.968 7.512-9.968 16.348 0 6.037.072 6.196 4.843 10.658 2.663 2.492 6.151 5.21 7.75 6.042 11.1 5.773 8.812 14.167-4.245 15.577l-5.848.631.09 4.302c.131 6.208 1.934 7.607 8.714 6.76 21.007-2.625 27.869-23.352 11.685-35.296-10.39-7.668-11.351-8.693-10.677-11.377.695-2.773 3.087-4.212 9.188-5.531 4.671-1.009 5.555-3.424 3.035-8.296-2.135-4.13-6.253-4.078-14.567.182m-306.483-.226c-.38.615-.352 3.224.061 5.797.414 2.573 1.022 15.704 1.353 29.179l.601 24.5 6.5.289 6.5.289.158-19.46c.208-25.782 1.044-27.388 14.513-27.885l6.329-.233.88-5.189c.485-2.854.611-5.891.282-6.75-.956-2.492-9.204-1.987-15.511.949-6.567 3.057-7.418 3.08-8.664.24-1.115-2.542-11.634-3.939-13.002-1.726m120.857 12.726c.357 7.012.652 20.512.654 30L332 517h13.699l.056-24.996c.031-13.747.366-27.247.744-30l.689-5.004h-16.497l.651 12.75m-173.351-2.5c-6.723 4.576-9.392 9.147-9.825 16.824-.481 8.507.694 11.621 6.355 16.839 14.377 13.252 34.017-2.034 28.435-22.132-3.045-10.963-16.602-17.225-24.965-11.531m301.178-1.257c-10.787 2.551-16.822 19.099-10.745 29.467 4.816 8.219 10.063 11.196 18.129 10.287 19.554-2.204 20.903-34.36 1.666-39.703-4.157-1.154-4.381-1.156-9.05-.051m-184.353 2.486c-12.136 8.247-11.172 27.941 1.726 35.246 19.637 11.122 35.98-17.928 18.928-33.646-5.668-5.225-14.332-5.896-20.654-1.6M379 467.831c-8.363 3.201-11.328 18.815-5.469 28.811 9.539 16.278 31.668 10.202 33.219-9.12 1.309-16.3-11.977-25.727-27.75-19.691" fill-rule="evenodd"/>
</svg>