<!DOCTYPE svg PUBLIC "-//W3C//DTD SVG 1.1//EN" "http://www.w3.org/Graphics/SVG/1.1/DTD/svg11.dtd">
<svg xmlns="http://www.w3.org/2000/svg" viewBox="0 0 1920 707">
<path fill="#0e0e0d" d="M1107.5 188.414c-17.602 4.448-29.622 6.7-40.735 7.631-6.196.519-19.14 1.63-28.765 2.469-11.799 1.029-30.695 1.554-58 1.612-51.098.108-72.394 1.772-81 6.329-12.437 6.586-16.371 9.253-21.364 14.488-8.895 9.325-9.522 11.432-9.729 32.698-.155 15.8.08 18.835 1.889 24.449 2.712 8.419 3.951 17.017 5.22 36.213 1.176 17.806 2.349 22.221 8.322 31.326 4.311 6.571 6.254 7.953 9.663 6.871 2.953-.938 3.924-3.477 4.86-12.714 1.427-14.081 4.823-17.546 16.189-16.515 6.816.618 7.3.196 8.241-7.184.794-6.232 3.357-9.136 10.022-11.358 6.636-2.212 6.575-2.072 7.082-16.229.607-16.971 3.838-20.883 17.09-20.695 13.222.188 16.323-1.381 21.209-10.733 2.188-4.189 3.856-5.947 7.32-7.713a406.143 406.143 0 0 0 7.27-3.796l2.784-1.509-2.072-4.062c-2.643-5.181-1.308-8.587 4.504-11.489 3.461-1.728 6.83-2.084 25-2.64 40.658-1.245 66.775-5.312 80.591-12.549 8.682-4.548 10.351-6.215 15.85-15.826 6.615-11.561 4.63-13.135-11.441-9.074m-176 27.543c-13.947 3.743-35.319 20.175-35.465 27.267-.117 5.703 15.16 6.071 19.799.478.733-.885 3.69-2.294 6.571-3.131 17.986-5.229 32.683-17.665 26.892-22.756-2.117-1.861-13.396-3.039-17.797-1.858m783 17.544c-15.95 1.235-43.175 3.264-60.5 4.508-32.495 2.334-38 3.32-38 6.81 0 1.056-.933 4.792-2.073 8.301-1.149 3.537-2.301 10.391-2.586 15.38-.282 4.95-1.588 13.275-2.9 18.5-1.313 5.225-2.891 14.652-3.506 20.949-.615 6.296-1.99 14.846-3.055 19-1.065 4.153-2.367 11.677-2.892 16.719-.526 5.043-1.617 11.118-2.424 13.5-.807 2.383-1.96 7.707-2.561 11.832-1.697 11.637-4.048 24.725-6.019 33.5-2.634 11.727-3.519 30.811-1.506 32.482 1.461 1.212 11.999 1.589 15.517.555.828-.243 13.655-1.375 28.505-2.514 33.063-2.538 30.638-1.103 32.333-19.136.64-6.813 1.834-14.862 2.654-17.887.819-3.025 1.495-6.656 1.501-8.068.06-13.037 9.773-20.131 20.472-14.951 7.689 3.722 9.616 8.26 15.929 37.519 3.644 16.882 3.866 17.1 15.896 15.545 3.968-.512 15.54-1.433 25.715-2.045 26.232-1.579 33.972-2.608 35.648-4.738 2.623-3.337-.1-16.833-7.215-35.762-3.316-8.823-3.769-11.101-3.846-19.356l-.087-9.356 8.592-8.201c4.726-4.511 9.001-8.915 9.5-9.787.5-.872 2.428-3.361 4.286-5.532 6.894-8.056 15.122-34.333 15.122-48.295 0-20.621-11.318-39.8-27-45.753-3.025-1.149-7.283-3.018-9.461-4.154-5.176-2.699-16.714-2.609-56.039.435m-18.141 16.847c-6.848 4.719-8.394 7.944-10.054 20.977-.783 6.146-2.324 14.1-3.424 17.675-1.101 3.575-2.433 11.754-2.961 18.176-.528 6.421-1.626 13.269-2.44 15.217-6.013 14.391 3.165 25.914 18.02 22.625 18.532-4.104 25.819-14.556 28.524-40.917.644-6.27 1.847-13.245 2.674-15.5 2.03-5.534 2.835-20.982 1.375-26.364-3.593-13.238-20.537-19.59-31.714-11.889M1496 250.02c-3.025.406-14.725 1.286-26 1.954-27.773 1.646-25.067-.128-37.544 24.611-5.525 10.953-11.936 23.515-14.248 27.915-2.312 4.4-4.205 8.398-4.206 8.883-.001.486-1.635 4.086-3.632 8-1.996 3.915-4.191 8.703-4.876 10.642-.685 1.938-3.102 6.395-5.37 9.905-2.268 3.509-4.124 6.925-4.124 7.59 0 .666-.822 2.283-1.826 3.595-1.005 1.312-3.043 5.709-4.53 9.772-1.487 4.063-3.526 8.563-4.532 10-1.006 1.437-2.826 5.308-4.045 8.601-1.22 3.293-2.636 6.492-3.148 7.109-1.558 1.878-12.919 25.293-12.926 26.642-.003.694-.936 2.611-2.073 4.261-5.161 7.493-15.469 31.628-14.541 34.046.684 1.783 8.198 1.953 15.651.354 7.554-1.62 11.353-5.513 16.937-17.355 5.964-12.648 10.063-17.02 17.256-18.406 19.506-3.757 60.223-7.168 64.159-5.375 3.366 1.534 5.01 4.987 8.008 16.817 3.999 15.784 5.36 16.219 38.61 12.35 4.675-.544 14.257-1.345 21.293-1.781 17.285-1.07 17.744-1.482 15.394-13.856-.919-4.837-2.597-16.219-3.728-25.294-1.132-9.075-3.172-21.9-4.534-28.5-5.387-26.103-11.63-62.748-13.968-82-.936-7.7-2.554-17.367-3.598-21.483-1.043-4.115-2.177-9.871-2.52-12.791-.878-7.468-4.373-8.484-21.339-6.206m-664.712 6.946c-1.767 1.078-4.111 2.857-5.209 3.955-1.098 1.098-3.927 2.964-6.288 4.148-2.36 1.183-5.416 3.183-6.791 4.444-1.375 1.261-8.35 6.108-15.5 10.771-9.077 5.92-13.953 9.808-16.159 12.883l-3.158 4.406 3.658 5.576c2.013 3.068 4.403 6.95 5.313 8.628 3.46 6.381 6.106 7.017 13.667 3.289 3.656-1.803 8.005-4.383 9.663-5.734 7.266-5.916 15.318-11.659 19.016-13.562 10.542-5.425 14.734-11.706 12.591-18.862-.672-2.241-1.478-7.3-1.793-11.242-.883-11.087-2.514-12.661-9.01-8.7M1329 262.059c-7.461.975-70.312 6.384-98.5 8.477-32.288 2.397-33.038 2.591-33.996 8.805-.353 2.288-1.246 6.184-1.984 8.659-.738 2.475-1.605 9.705-1.925 16.066-.336 6.666-1.467 14.928-2.671 19.5-1.148 4.364-2.689 13.172-3.423 19.574-.735 6.403-2.001 12.928-2.813 14.5-.812 1.573-2.01 8.035-2.663 14.36-.653 6.325-2.078 15.55-3.167 20.5-1.089 4.95-2.876 15.525-3.972 23.5s-3.085 19-4.419 24.5c-6.442 26.554-5.56 28.262 13.75 26.621 30.211-2.568 76.473-6.067 93.783-7.094 37.824-2.243 37.673-2.188 39.059-14.157 1.999-17.263 2.927-16.528-18.224-14.429-8.434.836-21.05 1.822-28.035 2.19l-12.701.668-3.549-3.549c-4.929-4.929-4.88-6.286 1.348-36.941 3.498-17.219 8.101-20.809 26.679-20.809 17.587 0 23.118-2.381 24.543-10.565 3.101-17.818 2.395-19.147-8.907-16.754-15.971 3.383-27.199 1.933-30.772-3.973-2.309-3.816-2.691-19.603-.57-23.504.687-1.263 1.66-4.823 2.163-7.912 2.253-13.842 7.177-16.612 32.466-18.262 9.9-.646 22.725-1.705 28.5-2.352l10.5-1.178 2.8-5.596c1.54-3.077 3.435-8.003 4.211-10.945 2.692-10.206-.661-12.102-17.511-9.9m-447.25 9.021c-4.305 2.508-1.065 11.2 4.75 12.744 4.253 1.129 6.405.403 7.108-2.397 1.916-7.635-5.462-14.072-11.858-10.347m276.001 3.502c-.32.32-5.103.975-10.628 1.455-11.792 1.024-15.385 2.595-18.099 7.916-1.097 2.151-2.503 4.225-3.123 4.608-.62.384-3.943 5.035-7.383 10.337-3.441 5.301-7.028 10.281-7.973 11.064-.944.784-2.579 3.251-3.633 5.482-1.053 2.231-5.177 9.231-9.164 15.556-12.37 19.626-23.168 21.289-29.212 4.5-.99-2.75-2.829-7.7-4.087-11-1.258-3.3-3.017-8.836-3.909-12.303-.892-3.466-3.858-10.984-6.591-16.706-5.898-12.351-6.112-12.453-22.298-10.57-5.583.649-20.593 2.243-33.356 3.542-12.762 1.3-23.675 2.654-24.25 3.009-2.168 1.34-.86 8.362 3.546 19.028 2.499 6.05 5.884 14.6 7.522 19s3.799 9.8 4.803 12c1.004 2.2 3.669 9.497 5.923 16.216 2.254 6.719 5.475 14.943 7.157 18.276 6.77 13.412 7.516 28.3 2.231 44.52-1.616 4.957-3.253 11.707-3.639 15-.386 3.294-1.581 9.275-2.657 13.292-2.171 8.114-3.94 17.984-4.648 25.936-.614 6.887 1.446 7.88 13.212 6.369 4.403-.566 14.755-1.5 23.005-2.075 27.69-1.932 40.509-3.34 41.522-4.561.547-.659 1.471-3.848 2.054-7.086.582-3.238 1.725-8.137 2.541-10.887.815-2.75 2.145-10.625 2.956-17.5.81-6.875 1.879-13.85 2.375-15.5.497-1.65 1.436-6.96 2.088-11.799 1.635-12.145 11.03-31.469 21.726-44.688 2.441-3.018 5.355-7.282 6.474-9.475 2.181-4.276 10.493-16.519 17.407-25.641 2.336-3.081 5.959-8.415 8.052-11.854 4.263-7.004 6.119-9.878 15.002-23.229 3.409-5.123 7.285-10.664 8.614-12.314 3.2-3.973 4.155-7.234 2.649-9.048-1.196-1.441-5.092-1.987-6.209-.87m-315.192 39.353c-.963 1.064-3.846 2.926-6.405 4.137-4.04 1.911-4.39 2.306-2.654 2.994 5.046 2.001 13.671.112 15.151-3.319 2.242-5.197-2.279-8.025-6.092-3.812M619.5 316.076c-7.975.902-28.058 2.503-49.966 3.982-11.105.75-15.749 1.467-18 2.781l-3.034 1.77-.5 35.445c-.275 19.495-.836 35.963-1.246 36.594-.41.631-1.192 17.506-1.737 37.5-.545 19.994-1.488 41.527-2.095 47.852-1.425 14.857-.467 29.197 2.107 31.526 1.737 1.572 3.649 1.543 30.163-.459 45.858-3.462 69.089-5.803 73.331-7.388 2.187-.817 8-2.696 12.917-4.174 8.414-2.53 18.511-8.684 24.56-14.968 16.12-16.748 23.926-29.245 30.335-48.562 5.541-16.703 5.93-19.869 5.14-41.822-.855-23.735-4.366-36.982-12.896-48.653-1.206-1.65-3.67-5.435-5.476-8.412-5.085-8.381-6.447-9.387-25.738-19.025L667.23 315l-20.365.142c-11.201.078-23.515.498-27.365.934m820.99 1.314c-2.945 1.283-7.369 7.988-8.98 13.61-1.209 4.216-5.776 14.342-7.808 17.31-1.058 1.546-3.01 5.821-4.337 9.5-1.327 3.68-3.941 8.94-5.809 11.69-6.462 9.511-8.133 21.858-3.524 26.029 2.652 2.4 7.551 3.194 13.968 2.263 3.025-.438 10.473-1.439 16.55-2.223 18.601-2.399 22.45-5.083 22.45-15.655 0-5.832-4.347-28.107-6.483-33.219-.767-1.836-1.926-7.357-2.574-12.267-1.548-11.72-5.795-19.334-10.258-18.389-.102.022-1.539.63-3.195 1.351m-822.07 12.693c-4.97 2.559-5.64 5.818-8.925 43.417-1.806 20.675-3.675 60.504-4.19 89.314-.512 28.617 1.526 33.247 14.003 31.817 8.216-.941 26.291-13.93 28.013-20.131 5.628-20.261 6.678-28.604 6.71-53.315.018-13.027.443-30.703.946-39.282 1.881-32.095-8.592-50.738-29.477-52.475-2.75-.229-5.936.066-7.08.655M448 332.167c-7.425.463-15.75 1.305-18.5 1.871-2.75.566-8.242 1.663-12.205 2.436-11.949 2.334-13.886 4.641-23.896 28.465-1.95 4.642-4.698 10.492-6.106 13-3.249 5.789-12.26 22.186-14.494 26.373-.935 1.753-2.43 5.663-3.322 8.688-.892 3.025-3.37 8.425-5.507 12-2.138 3.575-5.271 9.862-6.962 13.97-1.692 4.109-5.046 10.859-7.453 15-2.408 4.142-5.373 9.78-6.59 12.53-5.565 12.574-14.489 31.325-16.419 34.5-1.17 1.925-2.981 5.525-4.025 8-1.045 2.475-3.051 6.524-4.46 8.998-8.041 14.12-6.789 18.048 5.381 16.886 11.331-1.083 16.222-5.01 20.169-16.199 4.921-13.946 13.216-20.766 26.889-22.107 3.85-.378 9.475-1.1 12.5-1.606 9.757-1.63 38.673-3.047 41.358-2.026 3.563 1.355 7.462 8.642 9.199 17.195 2.705 13.312 5.093 15.824 13.704 14.42 2.332-.381 12.789-1.353 23.239-2.161 41.858-3.235 39.039-2.282 38.077-12.862-.352-3.871-1.744-11.763-3.093-17.538-6.802-29.124-11.941-60.387-14.934-90.857-1.387-14.122-9.252-56.587-11.656-62.932-2.901-7.657-3.418-7.758-30.894-6.044m362.974 15.705c-6.013 6.014-4.523 12.255 2.357 9.868 3.768-1.307 12.728-6.902 14.53-9.073 1.094-1.318.734-1.686-2.543-2.596-6.891-1.913-11.167-1.376-14.344 1.801m-600.474.152c-11 1.031-31.475 2.571-45.5 3.422-40.209 2.44-36.994.75-37.016 19.459-.009 7.477-.448 18.807-.976 25.178-.528 6.37-1.436 23.02-2.017 37-.582 13.979-1.739 31.267-2.571 38.417-2.042 17.545-1.055 70.981 1.363 73.75 1.884 2.16 6.001 2.219 20.717.298 6.05-.789 21.125-1.941 33.5-2.559 26.951-1.345 60.218-4.5 62.967-5.971 1.088-.583 6.124-2.414 11.191-4.07 11.691-3.82 23.799-11.71 30.767-20.049 2.791-3.341 5.075-6.605 5.075-7.254 0-.65 1.177-2.913 2.616-5.031 5.008-7.37 6.782-22.246 4.411-36.99-1.43-8.893-2.902-12.209-7.646-17.232-2.135-2.259-4.913-5.269-6.175-6.687-2.25-2.529-4.455-3.498-12.929-5.68-6.851-1.764-11.562-9.768-9.825-16.691.379-1.507 3.319-5.236 6.535-8.287 9.055-8.59 14.239-19.573 14.17-30.023-.1-15.321-2.85-20.55-15.157-28.824l-5.5-3.698-14-.177c-7.7-.097-23 .667-34 1.699m642.72 10.931c-2.204 1.597-6.418 4.109-9.364 5.582-2.946 1.473-6.576 3.822-8.067 5.22-1.491 1.399-5.758 4.192-9.482 6.207-10.701 5.792-12.258 10.552-5.918 18.087 1.283 1.525 4.261 6.284 6.616 10.576 2.356 4.292 4.908 8.429 5.672 9.193.764.764 2.339 3.254 3.5 5.534s3.284 5.67 4.717 7.532c1.433 1.863 4.181 6.588 6.106 10.5 4.584 9.317 5.922 9.505 13.694 1.917 15.883-15.506 31.011-28.593 36.081-31.212 2.049-1.059 4.251-2.798 4.895-3.866.643-1.067 3.343-3.191 6-4.718 13.292-7.643 14.902-13.706 6.298-23.711-4.907-5.707-5.959-5.469-10.09 2.281-3.887 7.293-8.517 9.923-17.471 9.923-7.319 0-9.581-1.436-13.051-8.285-1.435-2.83-3.881-6.736-5.436-8.68-1.556-1.944-3.768-5.667-4.915-8.272-2.942-6.678-4.816-7.407-9.785-3.808m-656.613 5.14c-6.254 4.919-8.23 13.727-8.73 38.905-.139 7.003.227 10.303 1.392 12.555 4.025 7.778 16.994 7.147 24.927-1.213 8.238-8.681 11.174-30.429 5.675-42.024-4.15-8.749-16.876-13.248-23.264-8.223m205.788 36.806c-4.113 2.508-7.037 7.436-9.881 16.654-1.287 4.171-3.504 9.342-4.927 11.492-1.423 2.151-2.587 4.209-2.587 4.575 0 .366-3.403 7.642-7.563 16.169-8.514 17.453-8.896 20.429-3.411 26.561l2.815 3.148 12.106-.235c33.957-.659 39.749-6.613 34.158-35.108-1.812-9.236-3.272-18.621-4.641-29.837-.973-7.966-6.629-15.332-11.761-15.316-.662.002-2.6.855-4.308 1.897m392.253 9.106c-1.363 1.62-2.781 4.418-3.15 6.219-.369 1.801-2.158 7.774-3.976 13.274-7.807 23.616-10.396 32.298-11.036 37-.375 2.75-1.987 9.032-3.583 13.959-1.597 4.928-2.903 9.519-2.903 10.201 0 3.673-2.45 11.723-4.476 14.709-1.276 1.881-3.079 6.055-4.006 9.276-.926 3.22-2.705 6.98-3.953 8.355-1.248 1.375-3.942 4.975-5.987 8l-5.898 8.729c-10.489 15.536-12.386 20.422-9.177 23.631 1.987 1.987 4.516 1.457 8.997-1.886 1.65-1.231 4.575-3.012 6.5-3.957 1.925-.946 4.942-3.136 6.704-4.868 1.763-1.732 6.197-5.849 9.855-9.149 3.658-3.3 9.253-8.475 12.434-11.5 3.18-3.025 7.302-6.85 9.159-8.5 1.857-1.65 8.545-8.817 14.862-15.926 6.317-7.11 13.561-15.21 16.097-18 5.736-6.311 12.68-17.281 13.485-21.302.684-3.424-.43-5.959-5.179-11.787-4.082-5.008-9.223-13.592-14.364-23.985-2.177-4.4-5.836-10.475-8.131-13.5-2.295-3.025-4.598-6.424-5.119-7.554-1.923-4.177-4.428-4.68-7.155-1.439m129.852 1.006c-1.1.413-2.857 1.704-3.905 2.869L918.69 416h3.955c3.959 0 6.355-1.354 6.355-3.593 0-1.643-2.101-2.294-4.5-1.394m-17.833 14.654c-2.101 2.101-.547 3.322 2.333 1.833 1.65-.853 3-1.765 3-2.026 0-.728-4.578-.563-5.333.193m-712.271 10.762c-8.063 3.51-8.545 6.362-9.852 58.363l-.661 26.291 3.459 3.459c7.129 7.129 20.867 3.008 28.084-8.425 4.973-7.878 8.527-31.338 6.706-44.27-.569-4.041-1.331-10.272-1.694-13.847-1.728-17.045-13.685-26.949-26.042-21.571m694.104 5.838c-1.65 1.212-3.898 3.321-4.996 4.688-1.098 1.367-2.866 3.174-3.929 4.015-3.156 2.498-14.52 14.464-14.549 15.32-.014.435-1.713 2.546-3.776 4.693C850.248 482.433 846.684 488 850.354 488c1.479 0 6.637-4.417 6.66-5.702.008-.439 1.808-2.787 4-5.218s3.986-4.858 3.986-5.395c0-.536 3.938-4.898 8.75-9.693 15.221-15.165 23.359-26.048 14.75-19.725m-45.536 51.741c-2.361 2.404-6.258 9.032-5.661 9.628 1.229 1.229 8.055-7.837 7.509-9.974-.223-.87-.752-.772-1.848.346m-8.664 12.263c-.44.699-1.97 1.784-3.4 2.41-2.382 1.044-14.227 15.402-15.549 18.848-2.436 6.346 12.868-6.951 16.649-14.466 1.227-2.441 2.855-5.06 3.616-5.822 1.625-1.624 1.744-2.241.434-2.241-.523 0-1.31.572-1.75 1.271M791 551.5c-2.178 2.318-2.208 2.499-.424 2.485 2.176-.018 3.322-.717 5.296-3.235 2.279-2.906-2.066-2.237-4.872.75m-12.75 11.148c-3.247 1.6-4.66 4.107-1.668 2.959.87-.334 1.979-.607 2.465-.607.485 0 1.364-.9 1.953-2 1.275-2.382 1.347-2.372-2.75-.352" fill-rule="evenodd"/>
</svg>