<!DOCTYPE svg PUBLIC "-//W3C//DTD SVG 1.1//EN" "http://www.w3.org/Graphics/SVG/1.1/DTD/svg11.dtd">
<svg xmlns="http://www.w3.org/2000/svg" viewBox="0 0 716 512">
<path fill="#fbfbfb" stroke="#fbfbfb" d="M351.19 181.437c-12.027 3.871-15.74 10.538-13.82 24.813.773 5.746.4 6.523-2.313 4.806-1.073-.679-1.2-1.508-.495-3.234 1.17-2.867.322-14.04-1.101-14.507-1.409-.462-21.536 11.758-22.827 13.86-.762 1.241-.524 2.623.918 5.323 2.873 5.381 4.04 6.095 7.702 4.712 2.257-.852 3.451-.87 4.419-.066 2.038 1.691 1.613 2.485-1.865 3.482-3.52 1.01-5.998 6.584-3.872 8.71.585.585 1.064 2.295 1.064 3.799s.439 3.889.975 5.3c.537 1.411.589 2.565.117 2.565s-1.104-.939-1.404-2.087c-1.671-6.389-6.987 1.852-13.839 21.453-2.651 7.586-4.937 12.215-7.573 15.336-6.853 8.113-8.275 12.875-4.026 13.478 1.238.176 2.061.545 1.831.82-.23.275.144 1.552.832 2.838 2.785 5.203 14.593-2.476 34.922-22.712 8.082-8.044 17.475-16.426 20.873-18.626 3.399-2.2 6.416-4.562 6.704-5.25.774-1.841-.409-4.25-2.086-4.25-.981 0-1.262-.625-.856-1.904.641-2.022-2.63-8.761-5.146-10.601-2.576-1.884-.653-6.673 2.529-6.301 2.015.236 2.91-.32 3.932-2.444.728-1.512 1.717-2.75 2.198-2.75 1.821 0 4.017-3.252 4.017-5.949 0-3.051 2.261-5.626 3.997-4.553.596.369.828 1.48.514 2.469-.314.989.849 6.688 2.584 12.665 5.991 20.64 5.97 20.112 1.403 35.868-3.768 12.999-4.307 12.464 12.597 12.485 13.151.016 15.905-.872 15.905-5.123 0-7.67 7.076-25.203 11.717-29.035.884-.73 2.322-2.491 3.195-3.914 1.608-2.619 4.141-5.936 11.838-15.498 6.472-8.041 5.254-10.632-4.549-9.671-5.071.497-5.538.801-10.813 7.019-3.032 3.574-6.223 7.581-7.09 8.905-1.963 2.995-3.527 2.561-4.478-1.243-3.758-15.038-3.279-14.58-15.191-14.516-8.587.047-9.629-.14-9.629-1.728 0-2.303 1.907-4.181 4.247-4.181 1.015 0 2.593-1.301 3.505-2.891 1.629-2.838 1.822-2.892 10.405-2.919 11.008-.035 18.683-1.602 21.867-4.464 7.832-7.042 6.471-12.887-2.476-10.634-4.383 1.104-39.249.706-52.548-.6-2.475-.243-6.44.182-8.81.945m-233.239 27.612c-1.133 1.133-2.079 6.216-3.353 18.015-.976 9.04-2.41 20.594-3.186 25.675-2.096 13.718-1.928 17.093.887 17.8 6.2 1.556 39.317-.275 44.224-2.446 13.875-6.138 17.792-25.066 6.597-31.874l-2.996-1.822 3.028-4.654c5.458-8.392 3.615-18.272-3.833-20.541-6.419-1.955-39.443-2.078-41.368-.153m127.565-1.183c-3.448.749-3.612 1.316-5.944 20.634-.797 6.6-2.152 17.311-3.011 23.801-2.275 17.195-2.246 17.48 1.85 18.248 7.841 1.471 34.617-.423 39.343-2.783 23.182-11.578 25.943-47.149 4.514-58.141-3.458-1.774-30.682-3.076-36.752-1.759m-32.516.883c-10.553.276-14 .827-14 2.235 0 .52-2.475 5.027-5.5 10.016s-5.5 9.264-5.5 9.5c0 .236-2.132 3.933-4.739 8.215-2.606 4.282-5.418 9.011-6.25 10.508-.831 1.498-3.682 6.373-6.336 10.834-5.784 9.721-5.611 10.948 1.544 10.928 6.11-.018 6.775-.356 9.323-4.736 2.291-3.939 3.337-4.311 12.539-4.456 7.818-.123 9.919 1.119 9.919 5.863 0 3.408 2.435 4.047 14.374 3.774 13.53-.31 13.645-.406 12.522-10.43-2.501-22.326-3.906-36.955-3.901-40.625.014-11.047-1.09-11.964-13.995-11.626m222.2.451c-.66.66-1.2 1.791-1.2 2.514 0 .723-1.11 5.47-2.467 10.55-1.358 5.08-3.853 15.086-5.547 22.236-1.693 7.15-3.547 14.589-4.12 16.53-.573 1.942-.889 4.867-.704 6.5l.338 2.97 22.781.269c23.643.279 26.719-.154 26.719-3.757 0-1.055.516-3.051 1.147-4.435 2.023-4.441-.081-5.577-10.331-5.577h-8.939l.689-4.75c.911-6.28.424-5.892 8.381-6.676l6.991-.689 1.025-3.692c1.937-6.973.632-10.596-3.653-10.151-7.354.765-8.637-.574-5.803-6.056 1.49-2.881 1.617-2.917 11.24-3.2l9.734-.286 1.884-5.248c3.009-8.381 3.381-8.252-23.787-8.252-16.694 0-23.514.336-24.378 1.2m72.455.629c-.91 1.006-1.655 2.152-1.655 2.548 0 .395-1.473 3.06-3.273 5.921s-3.831 6.327-4.514 7.702c-.682 1.375-2.545 4.593-4.139 7.15a269.904 269.904 0 0 0-5.436 9.196c-1.396 2.5-3.608 6.257-4.917 8.35-10.729 17.158-11.382 19.627-5.316 20.124 6.106.499 8.277-.498 11.601-5.328l3.09-4.492h8.252c8.958 0 10.652.795 10.652 5 0 4.464 1.509 5 14.078 5 9.277 0 11.939-.315 12.951-1.535 1.641-1.977-3.412-59.453-5.335-60.675-2.755-1.752-24.291-.893-26.039 1.039m52.281-.252c-.72.867-2.755 7.28-4.523 14.25-1.768 6.97-5.043 19.846-7.279 28.613-3 11.767-3.78 16.282-2.977 17.25 1.23 1.481 24.376 1.893 26.612.474.699-.443 2.147-3.872 3.218-7.62 2.884-10.083 2.91-10.08 5.599.456l1.914 7.5 13.199.279c15.686.331 16.603-.235 13.913-8.581-3.379-10.484-3.27-11.471 1.785-16.209 12.461-11.679 11.518-29.572-1.897-36.022-5.539-2.663-47.404-2.993-49.564-.39m-419.168 9.022c-1.14 1.912-1.919 9.401-.978 9.401 1.31 0 2.808-2.036 3.46-4.704.561-2.294-1.542-6.275-2.482-4.697m124.797.651c-.204.688-.884 5.525-1.51 10.75-3.763 31.425-3.764 31.525-.257 29.396 6.02-3.656 10.906-34.692 6.202-39.396-2.288-2.288-3.896-2.56-4.435-.75m68.935.681c-1.65.863-3.123 1.617-3.274 1.676-1.085.424 1.358 3.393 2.792 3.393 1.973 0 6.468 4.804 7.48 7.995.717 2.259 2.512 2.595 4.302.805 1.817-1.817 1.438-3.8-.727-3.8-2.359 0-6.067-4.498-6.088-7.385-.027-3.685-1.214-4.396-4.485-2.684m251.107-.239c-1.193 3.824-4.577 17.868-4.592 19.058-.026 2.108 3.852 1.386 5.371-1 2.003-3.145 4.861-13.961 4.453-16.849-.424-3.002-4.386-3.918-5.232-1.209m-79.235 17.815c-3.207 4.548-6.45 11.338-5.615 11.756.607.304 4.565.217 8.493-.186.877-.09.798-7.245-.127-11.57l-.64-2.994-2.111 2.994M197.38 239.75a142.507 142.507 0 0 1-3.523 5.46c-2.742 4.001-2.325 4.79 2.536 4.79 5.074 0 5.385-.501 4.822-7.75-.459-5.902-1.402-6.516-3.835-2.5m-59.079 1.488c-1.198 1.567-3.51 16.615-2.743 17.855 1.957 3.167 4.819-2.367 5.805-11.225.663-5.961-.933-9.417-3.062-6.63m182.731 1.89c.017.754.692 2.246 1.5 3.313 1.443 1.908 1.468 1.906 1.468-.127 0-1.138-.675-2.629-1.5-3.314-1.21-1.004-1.494-.979-1.468.128m4.932 9.708c.659 1.284 1.472 2.061 1.807 1.726.336-.335-.203-1.386-1.197-2.336-1.728-1.65-1.755-1.623-.61.61M328.71 259c.601 2.296 1.39 2.5 3.09.8 1.847-1.847 1.436-2.8-1.206-2.8-1.914 0-2.3.409-1.884 2" fill-rule="evenodd"/>
<path fill="#0c0c0b" stroke="#0c0c0b" d="M354 183.002c-8.475 1.749-13.417 6.037-14.406 12.498-.909 5.938.894 27.708 2.51 30.294 2.147 3.439 4.562 2.773 5.596-1.544.806-3.368 1.224-3.749 4.099-3.74 1.761.005 3.257-.333 3.326-.75.069-.418.181-1.316.25-1.997.069-.68 1.363-1.829 2.875-2.554 2.015-.966 2.75-2.054 2.75-4.072 0-4.562 2.185-6.576 6.837-6.302 3.393.201 4.343-.18 5.73-2.297.915-1.396 2.485-2.538 3.489-2.538 2.463 0 3.392-1.756 1.888-3.568-1.907-2.297-1.202-2.432 14.148-2.714 16.082-.296 20.168-1.503 23.358-6.902 2.328-3.942 2.062-4.052-7.379-3.056-7.17.756-44.193-.062-49.571-1.096-1.1-.211-3.575-.059-5.5.338m3 6.329c-3.684 1.722-8 4.785-8 5.677 0 2.487 6.829 1.091 13.75-2.81 5.462-3.079.256-5.674-5.75-2.867m-35.241 12.018c-10.111 6.307-10.314 6.596-7.719 10.995 2.626 4.45 1.863 4.496 10.96-.665l7.5-4.255.302-5.212c.389-6.695-1.462-6.84-11.043-.863m21.977 2.249c-.974.973.363 3.402 1.871 3.402.766 0 1.393-.9 1.393-2 0-1.883-1.948-2.719-3.264-1.402m-225.185 8.594c-.284 1.269-.995 7.033-1.58 12.808-.585 5.775-1.261 11.175-1.504 12-1.594 5.433-3.38 30.438-2.225 31.171.692.439 8.298.805 16.903.814 21.289.021 27.392-1.847 34.855-10.663 2.888-3.412 2.039-15.624-1.302-18.723-1.54-1.43-3.423-2.599-4.182-2.599-2.308 0-3.02-4.158-.969-5.658 5.756-4.209 7.26-13.128 3.042-18.036l-2.412-2.806-20.055-.308-20.055-.308-.516 2.308m125.017-1.037c-.244.74-.653 4.495-.909 8.345-.256 3.85-1.171 12.4-2.032 19a15412.8 15412.8 0 0 0-2.632 20.287c-.587 4.559-.789 8.738-.449 9.287 1.869 3.025 38.333.083 41.965-3.386.684-.653 2.186-1.841 3.338-2.638 14.196-9.832 15.561-39.111 2.255-48.352L280.5 210.5l-18.245-.345c-14.63-.277-18.332-.079-18.687 1m126.67-.323c-.915.581-1.005 1.607-.326 3.734.515 1.614 1.889 6.309 3.055 10.434 1.165 4.125 2.867 9.863 3.783 12.75 1.556 4.907 1.554 5.593-.024 10.5-3.012 9.369-4.726 16.063-4.726 18.462v2.35l12.113-.281 12.113-.281 1.256-3.5c.691-1.925 2.067-6.875 3.057-11 1.718-7.159 4.277-12.415 8.41-17.275 6.763-7.952 19.742-25.352 19.375-25.975-.568-.964-9.498-.952-10.856.015-.568.404-4.141 4.689-7.941 9.522-8.013 10.192-9.094 10.395-11.785 2.213-1.086-3.3-2.589-7.463-3.342-9.25l-1.368-3.25-10.766.015c-5.921.009-11.334.376-12.028.817m65.861 1.399c-.481 1.248-1.393 4.744-2.026 7.769-2.18 10.42-2.886 13.512-3.999 17.5l-2.088 7.5c-2.636 9.492-5.045 21.403-4.576 22.627.425 1.107 4.81 1.373 22.59 1.373 23.95 0 22.758.308 23.235-6l.265-3.5-8.45-.294c-10.86-.377-11.297-.753-9.313-8.005 1.94-7.095 3.286-8.201 9.986-8.201 5.798 0 6.366-.53 6.628-6.192.148-3.198.113-3.223-4.152-2.936-4.91.329-7.199-1.085-7.199-4.447 0-2.005 1.602-6.857 2.781-8.425.207-.275 4.724-.725 10.039-1 9.101-.471 9.73-.645 10.836-3 3.208-6.829 4.315-6.471-20.919-6.769l-22.763-.269-.875 2.269m72.595-.013c-.768 1.255-4.723 7.907-8.789 14.782-4.067 6.875-7.94 13.4-8.607 14.5-.667 1.1-1.668 2.9-2.224 4-.557 1.1-3.666 6.5-6.909 12-6.503 11.028-6.569 11.5-1.606 11.5 3.476 0 4.172-.518 9.066-6.75l2.553-3.25h9.876c10.762 0 11.946.636 11.946 6.415 0 3.292 1.905 3.751 14 3.378l9.5-.293-.231-6c-.273-7.104-3.241-41.05-4.154-47.5l-.636-4.5-11.195-.282c-10.73-.271-11.253-.188-12.59 2m52.439-.466c-.555 1.037-2.57 8.154-4.479 15.817-1.908 7.662-4.604 18.206-5.99 23.431-1.387 5.225-2.666 11.3-2.843 13.5l-.321 4h23.829l1.719-7.158c1.922-7.999 2.539-9.349 4.261-9.327 2.75.036 3.9 2.093 5.077 9.088l1.244 7.397 11.351.284c13.398.336 13.531.254 11.971-7.408-2.553-12.54-2.605-12.125 2.008-16.074 10.841-9.279 11.801-26.695 1.807-32.796-4.954-3.024-48.069-3.679-49.634-.754M200.63 213.25c-5.792 9.203-11.366 18.494-11.847 19.75-.316.825-4.896 8.7-10.178 17.5-11.086 18.47-11.162 18.729-5.396 18.307 3.633-.265 4.575-.847 6.881-4.252 3.323-4.907 4.573-5.397 13.969-5.485 8.766-.081 10.7.948 11.135 5.93l.306 3.5 11.837.282 11.837.283-.444-6.283c-1.914-27.122-4.24-49.142-5.391-51.032-.251-.412-5.145-.75-10.875-.75-9.717 0-10.513.151-11.834 2.25m128.923 1.783c-2.393 1.525-2.642 1.996-1.323 2.502 2.943 1.129 6.27.093 6.27-1.952 0-2.616-1.452-2.777-4.947-.55m-65.007 1.217c-2.258 7.224-6.17 38.049-5.647 44.5.19 2.345 5.615 1.368 8.327-1.5 4.093-4.329 7.89-26.664 6.218-36.576-.821-4.865-7.808-9.91-8.898-6.424m-126.448 2.899c-1.577 4.522-1.399 10.798.324 11.459 4.544 1.744 9.185-7.507 6.116-12.191-2.248-3.43-5.102-3.106-6.44.732m446.113-1.899c-1 1.21-2.142 5.879-4.425 18.096-1.261 6.744-.421 7.983 4.46 6.583 3.674-1.053 5.511-3.37 6.286-7.929.327-1.925 1.017-4.534 1.532-5.797 1.317-3.231 1.165-9.574-.264-11.003-1.571-1.571-6.274-1.54-7.589.05m-264.219 7.765c-1.534 2.866.954 3.582 5.063 1.456 2.489-1.286 2.914-1.877 1.841-2.557-2.416-1.529-5.784-.993-6.904 1.101m8.31 5.333c-7.988 4.062-7.935 3.742-2.469 14.988 4.519 9.299 6.19 11.078 7.867 8.375.858-1.383 13.352-10.598 17.059-12.582 2.709-1.45 2.872-4.128.435-7.138l-1.807-2.231-1.716 2.62c-2.841 4.335-6.063 3.508-9.268-2.38-1.496-2.75-2.987-4.956-3.312-4.902-.325.054-3.38 1.517-6.789 3.25m174.393 9.252c-6.067 10.846-5.928 11.908 1.554 11.876 7.784-.033 8.099-.525 7.092-11.106-1.122-11.801-2.412-11.915-8.646-.77m-303.228-6.835c-1.906 1.356-9.467 15.061-9.467 17.16 0 1.865.596 2.075 5.878 2.075 7.6 0 8.42-.987 7.622-9.173-1.051-10.784-1.487-11.872-4.033-10.062m-62.72 5.631c-2.021 2.02-4.193 22.703-2.499 23.779 4.549 2.887 8.204-2.972 9.327-14.95.629-6.708-3.548-12.109-6.828-8.829m175.38 8.763c-1.557 3.488-3.629 8.816-4.605 11.841-2.772 8.594-5.56 14.118-9.588 19-12.648 15.33 2.611 9.583 19.302-7.27 10.482-10.583 10.261-9.665 4.861-20.185-5.71-11.123-6.411-11.361-9.97-3.386M346 250.025c-3.575 2.682-11.9 10.447-18.5 17.255-6.6 6.809-15.751 15.156-20.337 18.55-4.585 3.393-7.731 6.17-6.991 6.17 3.402 0 15.635-9.785 29.695-23.754 8.458-8.403 16.673-16.043 18.256-16.977 1.582-.935 2.877-2.053 2.877-2.485 0-.431.62-.784 1.378-.784.757 0 1.937-.675 2.622-1.5 2.791-3.363-2.667-1.225-9 3.525" fill-rule="evenodd"/>
</svg>