<!DOCTYPE svg PUBLIC "-//W3C//DTD SVG 1.1//EN" "http://www.w3.org/Graphics/SVG/1.1/DTD/svg11.dtd">
<svg xmlns="http://www.w3.org/2000/svg" viewBox="0 0 304 425">
<path fill="#060606" d="M16.5 8.861C7.178 14.619 5.925 24.903 13.585 32.79L17 36.307v190.912c0 134.844.317 191.505 1.08 192.931 3.047 5.693 13.729 5.113 16.003-.868.531-1.397.917-40.045.917-91.847V238h264V79H35V57.035c0-21.132.078-22.006 2.054-23.064 8.426-4.509 7.648-19.524-1.295-24.976C31.344 6.303 20.76 6.229 16.5 8.861M115 158v78h92V80h-92v78m44.544-29.495c-1.931 1.497-1.928 1.538.25 3.063 1.213.85 2.206 2.025 2.206 2.611 0 .737-.386.747-1.25.033-3.679-3.041-8.364-2.504-11.515 1.319-3.112 3.775-5.862 3.974-4.916.356.52-1.986-.759-2.601-1.825-.878-1.176 1.904.503 4.552 3.639 5.735l3.137 1.184-3.103 3.535c-3.501 3.986-3.187 7.778.692 8.357 2.511.374 2.729 1.447.647 3.175-2.44 2.025-5.939-2.728-5.569-7.563.102-1.336-.743-2.478-2.389-3.228-1.537-.701-2.548-.773-2.548-.183 0 .539.675.979 1.5.979 1.043 0 1.5 1.049 1.5 3.441 0 1.893.478 3.736 1.062 4.097.584.361 1.471 1.735 1.972 3.052.787 2.07 1.563 2.395 5.689 2.384 9.477-.025 13.325.7 15.369 2.895l2 2.146-2.714 1.032a7.914 7.914 0 0 1-5.402.094c-1.479-.515-3.294-.562-4.034-.105-1.79 1.106-2.942.286-2.942-2.095 0-1.068-.45-1.941-1-1.941s-1 .417-1 .927c0 2.491-3.829 1.3-7.292-2.269-2.085-2.149-4.042-3.657-4.349-3.35-1.196 1.196 1.836 7.619 3.906 8.276 1.178.374 2.757 1.295 3.51 2.048.752.752 2.884 1.368 4.737 1.368 1.854 0 3.648.45 3.988 1 .34.55 2.166 1 4.059 1 5.113 0 4.563 2.683-.653 3.18-3.243.31-4.386-.027-5.5-1.617-.842-1.202-1.406-1.471-1.406-.669 0 .843-.735 1.147-1.983.821-1.686-.441-1.83-.235-.964 1.383.559 1.046 1.677 1.902 2.482 1.902.806 0 1.465.585 1.465 1.299 0 3.298 11.934 4.821 17.05 2.175 3.52-1.82 3.683-2.669.765-3.987-4.795-2.166-2.055-5.097 3.067-3.281 3.406 1.208 5.798.143 7.544-3.359 1.253-2.51 1.269-2.839.091-1.861-.786.652-1.848.927-2.36.611-.512-.316-1.486.095-2.166.914-1.581 1.905-4.17 1.936-3.785.045.162-.795-.605-2.108-1.704-2.919-2.535-1.869-1.247-3.297 1.744-1.935 2.385 1.086 8.754.592 8.754-.679 0-.413-1.761-1.972-3.914-3.464-6.354-4.402-11.2-12.006-6.451-10.121 1.026.407 2.99.938 4.365 1.18 4.04.711 5.166 1.304 4.504 2.375-.342.554-.277 1.565.144 2.247.522.844.988.445 1.46-1.25.642-2.307.7-2.328.792-.29.055 1.21.709 2.56 1.453 3 .745.44 1.584 1.475 1.865 2.3.282.825.843-1.467 1.247-5.094.836-7.507-1.004-12.563-6.823-18.744-5.865-6.23-15.375-9.544-19.098-6.657M182 152.559c0 .857.457 1.276 1.016.931.559-.346.758-1.047.441-1.559-.857-1.387-1.457-1.129-1.457.628m-52.862 2.76c-.872 1.06-1.113 2.643-.671 4.404.891 3.551 2.838.717 2.347-3.416-.283-2.383-.447-2.48-1.676-.988m62.005.571c-.941.597-1.145 1.826-.665 4.012l.693 3.151 1.917-2.438c2.712-3.447 1.332-6.801-1.945-4.725m-4.11 10.477c-1.384 1.384-1.311 4.343.129 5.233 1.438.889 4.926-3.206 4.245-4.982-.593-1.546-2.944-1.681-4.374-.251M130 167.443c0 1.463 4.018 4.872 4.81 4.081.236-.237.143-1.577-.209-2.977-.691-2.754-4.601-3.691-4.601-1.104m7.469 8.382c.185 2.519 1.249 3.868 3.515 4.461 2.517.658 2.65-1.29.266-3.883-2.277-2.476-3.94-2.73-3.781-.578m42.731.375c-2.166 2.166-1.399 3.956 1.55 3.616 1.969-.226 2.841-.955 3.07-2.566.358-2.523-2.498-3.172-4.62-1.05m-11.547 6.631c-1.906 2.106-1.272 3.169 1.891 3.169 3.036 0 5.378-2.804 3.392-4.061-2.146-1.357-3.446-1.138-5.283.892m-22.653.167c0 1.223 5.823 3.284 7.482 2.647 1.561-.599 2.105-2.553.768-2.762-3.605-.565-8.25-.5-8.25.115" fill-rule="evenodd"/>
</svg>