<!DOCTYPE svg PUBLIC "-//W3C//DTD SVG 1.1//EN" "http://www.w3.org/Graphics/SVG/1.1/DTD/svg11.dtd">
<svg xmlns="http://www.w3.org/2000/svg" viewBox="0 0 720 248">
<path fill="#fbfbfb" stroke="#fbfbfb" d="M587.5 12.407C556.405 19.509 532.696 41.209 522.392 72c-3.958 11.828-4.312 40.519-.626 50.742 13.264 36.794 43.152 59.798 79.234 60.986 37.899 1.249 68.066-18.51 82.988-54.354 6.503-15.62 7.704-37.487 2.986-54.374-4.706-16.849-21.055-41.133-32.44-48.188A646.533 646.533 0 0 1 646 21.429c-1.925-1.244-8.45-3.95-14.5-6.012-12.851-4.381-32.202-5.705-44-3.01m6.97 12.583c-41.057 5.721-70.595 49.096-60.615 89.01 10.139 40.553 50.823 65.14 89.6 54.149 24.48-6.94 44.699-27.506 51.267-52.149 2.331-8.744 2.304-27.11-.053-36-9.462-35.697-44.808-59.941-80.199-55.01m-.97 12.115c-2.75.558-5.378 1.389-5.84 1.845-1.171 1.157 14.146 37.194 16.4 38.587 1.205.745 17.94-34.168 17.94-37.426 0-2.87-19.193-4.894-28.5-3.006M566.942 49.75c-2.486 2.063-6.201 5.617-8.256 7.898l-3.734 4.148 7.95 18.352c16.2 37.394 19.843 45.349 20.71 45.227.488-.069 3.41-5.694 6.493-12.5l5.604-12.375 8.68-.289 8.68-.29 1.553 3.79c2.714 6.625 10.234 22.289 10.7 22.289C626.475 126 653 64.77 653 62.109 653 60.055 638.763 46 636.682 46c-1.535 0-2.132 1.183-13.871 27.5-4.907 11-9.313 20.394-9.791 20.875-.478.481-4.685.556-9.349.168l-8.481-.707-2.579-5.948C582.857 65.398 573.6 46 572.62 46c-.636 0-3.191 1.688-5.678 3.75M163.25 68.662c-.962.388-1.25 7.529-1.25 30.946v30.442l2.565.975c3.196 1.215 6.49 1.226 8.384.028 2.104-1.331 2.042-60.811-.065-62.146-1.472-.932-7.547-1.087-9.634-.245m54.75.067c-2.789 1.061-2.969 2.729-2.985 27.556L215 121.07l-2.08-1.113c-1.143-.612-3.027-2.719-4.185-4.682-1.545-2.617-3.789-4.332-8.42-6.432-3.647-1.653-6.315-3.492-6.315-4.353 0-1.859 1.332-1.886 4.8-.098 2.327 1.2 3.218 1.186 6.45-.107 4.34-1.735 4.81-3.943 1.5-7.044-6.514-6.102-18.281-5.467-23.582 1.273-4.742 6.028-.607 18.799 6.214 19.193 4.227.244 7.65 1.869 7.539 3.578-.059.916-.203.907-.583-.035-.278-.687-1.169-1.25-1.98-1.25-.904 0-1.193.485-.745 1.25.402.688-.169.463-1.27-.5-2.566-2.245-4.093-2.2-8.093.239-7.034 4.289-2.095 10.011 8.641 10.011 8.317 0 13.049-1.311 15.609-4.324 1.937-2.28 2.055-2.296 3.75-.515.962 1.012 1.3 1.839.75 1.839-1.95 0-.963 2.682 1.466 3.982 1.713.917 2.858 1.007 3.75.294 1.459-1.164 7.291-2.425 10.284-2.222 15.859 1.073 19.162-.075 23.25-8.074 8.139-15.928-7.6-36.516-21.136-27.647-1.399.917-2.784 1.667-3.079 1.667-.294 0-.535-5.861-.535-13.025V69.95l-2.565-.975c-2.802-1.065-4.149-1.116-6.435-.246M71.847 71.7c-8.09.251-11.99.768-12.755 1.689-.784.944-.884 9.362-.346 29.219L59.5 130.5l12 .314c28.891.755 36.967-2.957 36.967-16.994 0-5.92-.114-6.179-4.377-9.962-4.006-3.555-4.248-4.031-2.854-5.621 5-5.704 6.314-14.997 2.76-19.515-4.753-6.043-12.085-7.644-32.149-7.022m583.27 22.084c-20.025 46.17-25.181 58.485-24.691 58.975.299.299 3.079-1.139 6.178-3.197 20.812-13.818 30.691-35.307 27.959-60.815-1.282-11.973-2.304-11.428-9.446 5.037m-109.13-11.778c-.775 1.439-1.53 6.95-1.785 13.029-.932 22.258 8.841 41.815 26.935 53.897 10.247 6.843 10.625 8.737-5.674-28.432-19.803-45.159-17.905-41.408-19.476-38.494M72 89.963V96l5.25-.08c9.075-.14 14.197-1.959 14.567-5.175.547-4.755-1.518-5.81-12.567-6.419l-7.25-.4v6.037m58 2.684c-13.325 4.343-18.043 10.846-16.549 22.807 2.102 16.824 21.737 21.884 35.601 9.174l4.223-3.871-.177-7.005c-.295-11.69-3.117-15.745-13.719-19.711-5.562-2.081-6.736-2.256-9.379-1.394m141.169 1.324c-13.008 3.161-17.267 24.143-6.871 33.853 3.573 3.337 10.252 5.111 14.66 3.893 1.948-.538 7.367-1.032 12.042-1.098l8.5-.119.265-10.5c.145-5.775-.08-13.875-.5-18l-.765-7.5-4.212-.306c-2.316-.168-5.129.186-6.25.786-1.295.693-2.676.755-3.788.171-2.78-1.46-9.452-2.062-13.081-1.18m49.352.172c-9.296 2.151-15.311 13.496-12.564 23.699 2.471 9.173 11.066 14.42 20.178 12.316 7.069-1.631 7.201-1.59 6.484 1.997-1.294 6.471-6.509 7.853-12.619 3.345-5.682-4.192-14.126-2.623-12.553 2.332 3.376 10.639 18.7 14.032 30.746 6.808 6.503-3.9 6.451-3.678 6.934-29.908L347.5 94.5l-9.5-.041c-5.225-.023-10.4-.31-11.5-.639-1.1-.329-3.79-.183-5.979.323m34.471.366c-1.932 2.329-.863 26.971 1.355 31.224 3.077 5.899 9.232 7.62 16.644 4.654 3.105-1.242 4.354-1.345 5.436-.448.822.683 3.821 1.041 7.239.863l5.834-.302.274-17.368c.31-19.639.156-20.132-6.315-20.132-7.421 0-7.457.052-7.474 10.857-.017 11.026-1.253 14.643-5.005 14.643-3.038 0-3.695-2.472-3.862-14.55-.071-5.165-.593-9.025-1.318-9.75-1.767-1.767-11.275-1.537-12.808.309m53.467.371c-14.324 6.506-14.868 29.071-.85 35.271 6.497 2.874 12.52 2.61 19.288-.845 6.894-3.521 7.719-6.086 2.931-9.118-3.258-2.063-3.294-2.063-6.42-.131-5.227 3.23-12.408 2.038-12.408-2.06 0-1.786.899-1.955 11.75-2.215l11.75-.282-.14-5.285c-.346-13.041-13.634-20.908-25.901-15.335m51.67-.265c-3.127 1.103-4.679 1.235-5.45.464-1.574-1.574-10.211-1.347-11.581.303-.789.95-1.061 6.659-.873 18.25l.275 16.868h12l.523-10.5c.603-12.119 1.746-15 5.953-15 4.083 0 4.461 1.053 5.024 14l.5 11.5h12l.286-12.5c.222-9.667-.082-13.468-1.341-16.771-2.52-6.615-9.623-9.328-17.316-6.614M230.048 104.76c-3.805 3.081-3.926 9.515-.25 13.192 3.649 3.649 6.172 3.838 9.783.732 7.858-6.759-1.501-20.428-9.533-13.924m180.988-.304c-1.903 2.294-.297 3.544 4.554 3.544 4.691 0 7.119-2.304 4.306-4.086-2.194-1.388-7.528-1.062-8.86.542m-283.578 2.59C123.307 111.634 127.027 121 133 121c6.074 0 9.475-9.525 5-14-2.666-2.666-8.109-2.642-10.542.046M274 107c-4.854 4.854-1.362 14 5.345 14 4.477 0 6.928-2.83 6.928-8 0-7.299-7.371-10.902-12.273-6m48.637-.494c-4.445 4.445-1.623 12.786 4.498 13.298 6.532.545 10.516-8.153 5.865-12.804-2.396-2.396-8.185-2.672-10.363-.494M72.011 108.75c.006 1.513.29 4.438.631 6.5l.62 3.75h6.744c9.263 0 12.869-.88 14.633-3.571 3.448-5.263-3.295-9.429-15.261-9.429H72l.011 2.75m531.25 9.5c-1.056 1.341-14.519 31.795-15.667 35.439-1.169 3.71 2.398 4.781 15.906 4.776 13.865-.005 17.5-.703 17.5-3.358C621 152.02 606.002 117 604.68 117c-.239 0-.878.563-1.419 1.25m-395.389 11.414c-1.244 1.508-1.162 1.552.878.465 2.327-1.24 2.9-2.129 1.372-2.129-.482 0-1.495.749-2.25 1.664" fill-rule="evenodd"/>
<path fill="#1d1e21" stroke="#1d1e21" d="M585.5 14.422c-26.555 6.098-51.684 28.175-60.075 52.78-7.511 22.023-6.893 50.474 1.381 63.548.783 1.238 1.152 2.25.82 2.25-.333 0 1.249 3.037 3.514 6.75 17.12 28.063 38.48 41.052 69.078 42.007 34.634 1.081 56.414-9.943 74.78-37.853 17.61-26.762 17.675-65.168.156-92.354C658.481 25.679 637.566 13.956 607 13.351c-10.613-.211-17.392.127-21.5 1.071m5.569 10.601c-48.675 10.262-73.68 63.127-50.809 107.42 17.036 32.994 60.38 48.081 93.546 32.561C661.501 152.043 676.5 128.504 676.5 98c0-34.559-19.061-60.578-52-70.981-7.913-2.5-25.938-3.575-33.431-1.996m3.431 12.632c-8.092 1.711-8.011.547-1.148 16.446C599.159 67.555 603.759 77 604.504 77c1.658 0 17.216-36.613 16.053-37.776-1.51-1.51-20.834-2.673-26.057-1.569m-27.195 12.198c-7.176 5.672-11.493 11.166-10.845 13.801.501 2.036 23.51 54.552 25.667 58.583 1.564 2.922 2.962 1.038 8.311-11.199L595.264 100H613.7l2.817 6.75c5.527 13.245 8.622 18.753 9.577 17.046.484-.864 6.773-14.969 13.977-31.343 14.947-33.976 14.578-31.017 4.938-39.664-8.628-7.739-8.51-7.728-11.848-1.061-1.59 3.175-6.627 14.225-11.195 24.556l-8.305 18.784-9.337-.284-9.337-.284-10.408-23.364c-5.724-12.851-10.828-23.785-11.342-24.299-.579-.579-2.834.567-5.932 3.016M163.235 99.75l.265 29.75 4.663.301 4.662.301.338-11.801c.185-6.49.182-20.014-.008-30.051L172.809 70H162.97l.265 29.75M217 90.846c0 11.466-.292 24.966-.65 30l-.649 9.154 3.399-.015c1.87-.008 4.525-.588 5.9-1.288 2.045-1.042 3.228-1.023 6.5.104 8.177 2.819 15.29-.072 19.25-7.821 7.77-15.207-5.781-32.178-20.204-25.301-4.647 2.216-4.504 2.558-5.226-12.538L224.691 70H217v20.846M60.234 101.151 60.5 129.5l17.5-.059c16.019-.054 17.858-.245 21.729-2.26 9.263-4.82 10.623-17.024 2.645-23.725l-3.624-3.043 3.235-5.732c4.978-8.82 3.354-15.267-4.985-19.786-1.739-.943-7.753-1.467-19.766-1.724l-17.265-.369.265 28.349m586.527 13.099c-18.817 43.104-18.287 40.92-8.109 33.427 11.949-8.796 20.494-21.036 23.83-34.137 2.266-8.897 1.925-32.54-.469-32.54-.405 0-7.269 14.963-15.252 33.25m-101.148-30c-5.975 21.67 4.501 48.531 24.735 63.427 9.809 7.221 9.89 7.917-2.357-20.177-20.07-46.04-21.074-47.981-22.378-43.25m-474.201.119c-.289.753-.388 3.791-.219 6.75L71.5 96.5l8.201-.103C89.543 96.274 93 94.601 93 89.962c0-4.625-4.612-6.954-13.781-6.958-5.244-.003-7.429.379-7.807 1.365m54.225 11.096c-14.672 5.23-15.638 25.871-1.54 32.896 8.528 4.25 17.148 2.637 24.653-4.614 3.754-3.626 4.7-14.043 1.786-19.678-4.279-8.274-15.219-12.055-24.899-8.604m63.312.06c-9.822 4.232-8.969 14.452 1.728 20.703 3.119 1.823 5.855 3.867 6.08 4.543.53 1.591-3.185 1.603-5.722.019-4.83-3.017-11.859 4.27-7.478 7.752 3.572 2.838 20.217 1.422 23.133-1.968 5.123-5.956 1.926-13.063-7.766-17.266-6.333-2.747-7.653-4.437-5.301-6.788 1.384-1.384 1.822-1.37 4.377.139 3.641 2.151 9.5.831 9.5-2.14 0-4.527-12.084-7.779-18.551-4.994m83.551-.585c-14.969 3.558-17.921 27.321-4.218 33.955 5.226 2.529 9.293 2.659 14.763.47 3.047-1.219 4.374-1.346 5.22-.5 1.39 1.39 9.385 1.511 10.223.154.333-.539.292-8.414-.091-17.5L297.699 95h-4.15c-2.282 0-4.675.526-5.319 1.17-.884.884-2.095.892-4.95.035-6.135-1.842-7.621-2.016-10.78-1.265m135.167 1.668c-15.78 8.211-9.388 34.392 8.396 34.392 5.985 0 15.937-4.399 15.937-7.045 0-3.1-5.085-4.267-9.339-2.143-4.74 2.368-7.896 2.057-11.411-1.124-5.017-4.541-2.743-5.688 11.273-5.688 11.489 0 11.948-.252 10.975-6.013-2.051-12.139-14.671-18.186-25.831-12.379m-90.662.1c-10.332 5.298-11.283 24.249-1.518 30.284 3.496 2.161 6.465 2.303 17.482.837 3.821-.509 4.129 5.93.458 9.601-2.303 2.303-8.705 2.025-10.968-.475-2.667-2.947-12.134-2.503-11.625.545 1.578 9.45 18.765 12.94 29.374 5.965 5-3.287 5.58-6.1 5.969-28.965l.323-19-5 .244c-7.466.364-9.476.328-15.5-.276-4.148-.416-6.359-.111-8.995 1.24M356.1 108.25c.119 15.902.514 17.573 4.84 20.489 4.155 2.799 6.512 2.833 12.513.179 4.333-1.917 4.802-1.951 5.91-.436.901 1.231 2.453 1.566 6.17 1.332l4.967-.314.274-17.25.273-17.25H379v9.453c0 12.72-2.188 16.892-7.908 15.076-2.644-.839-3.037-2.318-3.761-14.156L366.696 95H356l.1 13.25m87.996-11.866c-.785.946-1.061 6.399-.872 17.25l.276 15.866h10l.574-10.5c.665-12.153 1.074-13.405 4.907-14.992 6.347-2.629 7.893.267 8.271 15.492l.248 10h10l.32-10c.437-13.62-1.033-20.049-5.157-22.564-3.778-2.303-9.114-2.481-13.942-.464-3.101 1.296-3.669 1.296-4.744 0-1.548-1.864-8.356-1.925-9.881-.088m-32.461 6.689c-4.791 3.768-3.034 5.927 4.824 5.927 6.158 0 7.949-2.392 4.203-5.615-3.405-2.929-5.604-3.005-9.027-.312m-183.046 2.004c-3.713 4.413-3.578 10.088.334 14 4.841 4.841 11.066 3.588 13.718-2.761 4.373-10.465-7.03-19.585-14.052-11.239m-101.31 1.444c-4.167 4.167-4.038 8.034.426 12.693 3.751 3.916 7.305 3.678 11.191-.749 3.979-4.531 3.915-7.189-.281-11.77-4.248-4.638-6.832-4.678-11.336-.174m148.608-2.404c-9.034 3.314-5.929 18.283 3.792 18.283 9.164 0 11.403-14.308 2.849-18.205-3.002-1.368-3.122-1.369-6.641-.078m46.03 1.812c-5.469 5.469-1.771 15.071 5.803 15.071 10.504 0 11.009-15.615.57-17.618-2.702-.519-3.71-.116-6.373 2.547m-250.58.635c-.792 2.065.354 11.527 1.54 12.713.511.511 4.987.77 9.947.576 15.182-.594 19.089-7.755 7.492-13.728-3.52-1.813-18.246-1.472-18.979.439m528.943 19.101c-6.011 12.988-12.28 27.91-12.28 29.231 0 2.099 5 3.104 15.44 3.104 13.991 0 16.56-.58 16.56-3.739 0-2.204-9.411-25.24-13.929-34.096l-1.702-3.335-4.089 8.835" fill-rule="evenodd"/>
</svg>