<!DOCTYPE svg PUBLIC "-//W3C//DTD SVG 1.1//EN" "http://www.w3.org/Graphics/SVG/1.1/DTD/svg11.dtd">
<svg xmlns="http://www.w3.org/2000/svg" viewBox="0 0 436 542">
<path fill="#070707" d="M220.5 41.935c-7.117 1.733-15.021 7.232-18.969 13.198-5.58 8.431-6.071 11.851-7.014 48.867-.6 23.493-1.748 59-1.909 58.999-.059 0-2.583-.956-5.608-2.125-11.983-4.628-26.189-1.846-35.369 6.928-4.117 3.935-9.629 14.208-9.63 17.948-.001 2.787-.547 2.791-6.624.049-20.734-9.357-45.374 6.962-45.376 30.055-.001 6.314.864 9.978 6.121 25.935l6.121 18.581-2.598 14.565c-5.426 30.417-6.09 57.138-1.727 69.485 4.736 13.407 13.912 25.713 33.714 45.217L147 404.774v63.317l2.455 2.454c2.415 2.416 6.521 3.169 10 1.834 4.224-1.621 4.545-4.552 4.545-41.491v-35.211l-6.241-5.589c-31.759-28.44-43.037-43.609-44.709-60.137-1.127-11.136 2.04-50.374 4.243-52.578.124-.124 2.922.691 6.216 1.81 13.92 4.73 33.439-2.985 38.507-15.221 1.423-3.437 1.629-3.485 5.866-1.371 14.9 7.433 35.773-.26 43.191-15.919 4.202-8.87 4.355-12.969 1.198-32.172l-2.794-17 1.843-63c1.685-57.598 2.007-63.343 3.747-67 5.368-11.28 20.879-11.561 27.379-.497 1.978 3.368 2.109 6.109 3.555 74.497l1.502 71-2.31 9.5c-2.707 11.14-2.517 19.218.62 26.311 1.888 4.267 1.922 4.696.381 4.771-32.015 1.554-57.41 22.496-72.593 59.862-3.326 8.186-3.273 10.538.322 14.133 6.43 6.43 11.275 3.541 17.571-10.48 15.363-34.209 36.932-48.927 65.89-44.958 4 .548 4.577.909 4.059 2.542-2.86 9.011 1.952 23.731 9.882 30.229 5.155 4.224 16.225 9.588 19.79 9.589 3.526.001 7.588-3.369 8.374-6.947 1.059-4.824-1.381-7.884-9.497-11.911-8.977-4.455-11.523-7.572-11.407-13.966.273-15.035 29.727-42.305 47.428-43.91 9.686-.878 16.426 7.694 20.489 26.057 2.901 13.11.199 20.582-13.166 36.405-27.18 32.182-29.766 35.816-38.778 54.494-11.477 23.789-25.07 36.239-47.692 43.682-7.766 2.555-10.266 4.898-10.266 9.619 0 7.904 6.704 10.33 17.9 6.478 3.197-1.1 5.968-2 6.157-2 .188 0 .343 12.62.343 28.045v28.046l2.455 2.454c3.686 3.687 8.686 3.63 12.545-.144l2.5-2.444.301-33.125.302-33.125 2.698-2.082c12.428-9.585 19.659-19.157 29.773-39.41 7.947-15.913 11.422-20.887 28.403-40.649 24.535-28.553 29.057-40.986 23.12-63.566-7.262-27.617-22.613-40.487-43.063-36.101-2.929.629-5.468 1-5.642.827-.173-.174.792-4.343 2.146-9.264 6.76-24.571-3.327-45.098-23.595-48.016-2.444-.352-5.467-.794-6.719-.982-3.517-.527-13.297 2.343-17.566 5.155-2.113 1.392-3.983 2.385-4.156 2.206-.173-.179-.621-17.425-.996-38.325-1.013-56.527-1.599-65.127-4.905-71.883-6.748-13.792-23.034-21.35-38.101-17.682m-52.05 135.472c-4.066 1.771-8.223 6.865-9.005 11.036-.892 4.752 6.326 47.652 8.664 51.496 7.037 11.571 26.03 8.5 28.489-4.607.622-3.316-4.145-36.346-6.716-46.537-2.459-9.747-12.703-15.19-21.432-11.388m111.008 4.473c-5.993 2.722-7.3 5.574-13.106 28.6-7.119 28.232-6.788 33.096 2.607 38.377l4.165 2.341 6.188-5.877c3.403-3.232 7.803-7.214 9.776-8.849 3.438-2.848 3.785-3.759 8.312-21.8 2.936-11.698 4.499-19.854 4.129-21.54-2.254-10.263-12.617-15.546-22.071-11.252m-164.217 21.115c-3.725 2.27-6.966 7.08-7.821 11.606-1.002 5.297 10.821 39.573 15.139 43.892 8.413 8.412 23.821 3.661 26.012-8.022.837-4.459-9.923-39.106-13.594-43.773-4.368-5.553-13.8-7.323-19.736-3.703" fill-rule="evenodd"/>
</svg>