<!DOCTYPE svg PUBLIC "-//W3C//DTD SVG 1.1//EN" "http://www.w3.org/Graphics/SVG/1.1/DTD/svg11.dtd">
<svg xmlns="http://www.w3.org/2000/svg" viewBox="0 0 478 463">
<path fill="#0a0a0a" d="M199.5 12.701c-13.779 3.229-24.209 10.788-32.747 23.731-2.157 3.27-4.264 5.223-6.253 5.796-22.561 6.501-38.11 22.16-43.077 43.385-3.004 12.834-.472 31.099 5.692 41.073 1.162 1.881 1.949 3.559 1.749 3.729-.2.171-3.289 1.696-6.864 3.389-3.575 1.693-9.53 5.584-13.233 8.645l-6.733 5.567-7.16-1.984c-3.937-1.091-7.386-2.211-7.663-2.488-.945-.945-10.189-43.771-9.64-44.659.301-.487 2.56-.885 5.02-.885 27.206 0 28.665-39.34 1.966-53-11.2-5.73-35.587-5.735-48.139-.009-5.711 2.604-13.828 11.815-16.347 18.55-2.832 7.567-3.251 118.054-.485 127.527 8.949 30.645 43.678 46.866 73.456 34.31 3.308-1.395 4.06-1.325 11.407 1.074 14.023 4.577 25.781 4.295 38.968-.934l6.083-2.413 9.373 3.278c8.016 2.804 9.68 3.779 11.5 6.736 1.17 1.901 3.365 5.058 4.877 7.014l2.75 3.556v112.239l24.387 48.825C227.735 463.51 227.37 463 240 463c12.419 0 11.16 1.778 40.897-57.746L305 357.008V244.685l3.917-5.093c2.154-2.8 4.466-6.307 5.138-7.793.806-1.782 2.28-2.923 4.333-3.353 1.712-.359 5.978-1.783 9.48-3.165l6.368-2.513 4.632 2.058c14.116 6.271 29.159 6.462 43.18.549 3.319-1.4 4.042-1.331 11.202 1.073 26.828 9.006 55.005-2.005 67.01-26.185 5.763-11.608 5.814-12.314 5.514-75.31l-.274-57.498-3.309-6.721C455.162 46.459 444.363 41 423.157 41c-17.285 0-23.596 1.806-31.479 9.011C371.98 68.014 377.748 98 400.909 98c2.735 0 5.163.338 5.395.75.232.412-1.041 7.275-2.83 15.25a8957.676 8957.676 0 0 0-4.926 22.082l-1.674 7.581-7.916 2.288-7.917 2.287-5.566-5.087c-3.061-2.797-8.939-6.754-13.061-8.791-4.123-2.038-7.283-4.19-7.023-4.782 7.775-17.734 9.598-27.195 7.656-39.716-3.35-21.59-19.01-39.71-39.973-46.253-6.91-2.158-7.781-2.731-9.932-6.546-12.536-22.235-40.952-31.32-65.069-20.804l-8.428 3.674-6.1-2.912c-9.46-4.514-24.872-6.47-34.045-4.32m.079 14.402c-10.494 3.609-17.299 9.464-22.168 19.073l-2.479 4.891 4.284 1.945c2.356 1.069 5.296 1.954 6.534 1.966 2.121.021 2.25.431 2.25 7.15v7.128l-3.75-.602c-2.062-.33-5.263-.904-7.112-1.275l-3.362-.674.733 3.398c.402 1.868 1.381 4.667 2.174 6.219 1.104 2.16 1.171 3.149.284 4.218-1.863 2.244-10.243 6.586-11.073 5.737C163.74 84.073 160 69.669 160 63.574c0-3.616-.23-6.574-.511-6.574-2.05 0-10.421 5.033-14.56 8.754-23.886 21.476-18.409 59.607 10.46 72.824l5.411 2.477-1.841 6.08c-2.422 7.999-1.773 7.834-11.468 2.918-9.859-4.999-9.857-4.999-14.111 4.212-4.541 9.831-4.31 26.376.505 36.154 5.088 10.334 15.52 20.264 23.22 22.103l2.604.622.541-8.322c.511-7.862 3.69-19.049 5.78-20.341.915-.565 6.928 2.206 10.337 4.763 1.713 1.285 1.745 1.644.384 4.328-.816 1.611-1.801 4.676-2.188 6.813-.673 3.714-.602 3.856 1.616 3.224 1.277-.363 4.458-.936 7.071-1.274l4.75-.614v13.12l-3.25.7c-5.032 1.084-8.75 3.331-8.75 5.289 0 5.149 11.539 17.652 19.78 21.432 7.788 3.572 22.796 3.2 30.72-.762l6-3 .255-102.679.254-102.678-2.794-1.99c-8.136-5.793-20.727-7.458-30.636-4.05m58.688-.097c-2.878 1.023-6.592 2.664-8.254 3.646l-3.022 1.785.254 103.031.255 103.032 6 3c16.569 8.285 38.891 1.058 47.909-15.51 3.509-6.446 3.11-7.319-4.369-9.559l-6.125-1.835.293-6.048c.333-6.902 1.744-7.778 9.019-5.598 5.252 1.573 5.922.811 4.149-4.725-.833-2.599-1.743-5.443-2.022-6.322-.491-1.545 7.844-7.903 10.36-7.903 2.559 0 7.286 15.998 7.286 24.658 0 5.336 2.054 5.476 9.441.64 28.468-18.634 26.208-62.643-3.941-76.739-3.3-1.543-6.13-2.918-6.29-3.055-.802-.692 3.289-12.504 4.332-12.504 1.941 0 8.53 2.977 12.379 5.592 4.924 3.346 5.398 3.164 8.917-3.439 10.981-20.603 2.586-48.734-17.622-59.043-6.468-3.3-6.843-3.044-7.536 5.14-.606 7.152-3.617 17.764-5.781 20.371-.91 1.097-1.95.861-5.755-1.305-6.604-3.762-6.592-3.74-4.779-8.271 2.977-7.439 2.383-9.356-2.615-8.452-9.286 1.679-9.25 1.7-9.25-5.482v-6.39l4.83-1.226c7.558-1.919 8.404-3.303 5.538-9.059-7.783-15.63-27.743-24.067-43.601-18.43M45 55.037c-6.498 1.358-11.945 5.601-15.207 11.844L27 72.228v52.75c0 64.101.476 67.34 11.53 78.394 13.541 13.541 30.639 16.199 48.998 7.615l6.326-2.958 7.823 3.736c8.126 3.88 19.811 5.137 27.573 2.966 3.588-1.003 3.498-1.53-1.283-7.535-10.972-13.78-15.063-36.418-9.496-52.541.92-2.664 1.413-5.104 1.096-5.421-.979-.979-7.849 5.168-12.327 11.029l-4.259 5.576-8.077-3.5c-4.442-1.925-8.264-3.312-8.494-3.082-.23.23-.849 3.818-1.376 7.975-.905 7.138-5.249 20.165-7.106 21.313-.671.415-10.244-3.728-11.775-5.095-.19-.171.894-3.379 2.41-7.13 4.27-10.564 3.848-16.623-3.4-48.881-7.149-31.814-6.445-29.633-10.085-31.244-6.992-3.095-11.91-11.033-12.313-19.875L42.5 70.5l6.75-.296 6.75-.295v2.896c0 10.567 9.911 15.125 24.238 11.146 11.074-3.076 5.814-21.795-7.738-27.541-4.71-1.997-20.698-2.795-27.5-1.373m365.707-.01c-14.317 3.622-23.101 21.976-13.43 28.064 2.749 1.731 4.507 1.975 11.953 1.662 11.094-.466 13.77-2.396 13.77-9.927V70h14l-.006 4.75c-.011 9.871-4.198 17.273-12.031 21.269-2.14 1.092-3.968 2.876-4.294 4.191-.313 1.259-3.331 14.665-6.706 29.79-6.934 31.068-7.202 35.694-2.711 46.787l2.545 6.287-5.879 2.967-5.88 2.968-2.527-4.988c-3.149-6.214-5.511-15.099-5.511-20.731 0-5.19-.162-5.202-9.816-.733-6.98 3.232-7.776 3.403-8.684 1.867-4.186-7.078-13.726-16.532-15.197-15.06-.32.32.251 3.406 1.268 6.859 4.895 16.61.949 36.773-10.006 51.123-4.509 5.908-4.471 6.331.685 7.731 8.13 2.209 20.407.052 31.374-5.513 3.029-1.536 3.359-1.473 10.806 2.063 22.676 10.769 47.698.103 56.183-23.949 1.693-4.796 2.1-114.673.442-119.035-1.568-4.123-7.346-9.884-11.961-11.925-5.095-2.255-22.145-3.27-28.387-1.691M235.752 252.294l-3.748 2.206.248 46.5.248 46.5 7.25.294 7.25.294v-93.89l-3.557-2.099c-1.957-1.155-3.644-2.079-3.75-2.055-.106.025-1.88 1.037-3.941 2.25M188.24 301.25l.26 46.25 14.75.277 14.75.276v-88.762l-9.75-.568c-5.363-.312-11.719-1.277-14.126-2.145-2.406-.868-4.773-1.578-5.26-1.578-.503 0-.772 19.923-.624 46.25m96.26-44.595c-2.2.832-8.275 1.813-13.5 2.179l-9.5.666v88l14.75.277 14.75.276v-46.526c0-36.593-.267-46.512-1.25-46.457-.687.039-3.05.752-5.25 1.585m-216.942 4.679c-1.036.758-3.602 6.695-5.941 13.75L57.5 287.5l-13.209.5c-11.704.443-13.381.728-14.718 2.5-3.599 4.77-1.968 7.493 9.904 16.534 5.238 3.989 9.516 7.751 9.506 8.359-.009.609-1.581 6.057-3.494 12.107-4.081 12.91-4.124 13.422-1.416 16.865 3.22 4.094 5.839 3.338 16.862-4.865 5.543-4.125 10.339-7.5 10.658-7.5.319 0 5.06 3.375 10.536 7.5 10.919 8.225 13.555 8.988 16.798 4.865 2.697-3.428 2.654-3.93-1.445-16.772C95.567 321.594 94 316.146 94 315.486c0-.659 4.285-4.463 9.523-8.452 12.393-9.438 13.722-11.88 9.022-16.579-2.343-2.344-3.018-2.455-14.922-2.455H85.155l-3.137-10.25c-1.725-5.637-3.362-11.026-3.637-11.974-1.272-4.391-7.434-6.92-10.823-4.442m336.769.117c-1.478 1.057-3.169 4.835-5.284 11.802-4.98 16.405-3.01 14.747-17.522 14.747-13.987 0-16.521 1.058-16.521 6.896 0 3.19 1.689 4.911 13.79 14.05 3.965 2.995 7.21 5.737 7.21 6.093 0 .356-1.567 5.555-3.482 11.554-4.086 12.801-4.289 15.611-1.329 18.368 3.515 3.275 6.079 2.463 15.974-5.064 5.135-3.907 9.882-7.323 10.549-7.593.667-.269 5.347 2.711 10.401 6.622 9.943 7.695 12.547 8.862 15.842 7.098 4.16-2.226 4.244-5.112.513-17.423-1.908-6.291-3.468-12.109-3.468-12.928 0-.82 4.325-4.784 9.612-8.81 10.08-7.677 11.952-10.249 10.411-14.302-1.466-3.856-4.084-4.561-16.943-4.561h-12.051l-3.701-11.895c-2.036-6.542-4.228-12.616-4.872-13.497-1.74-2.379-6.566-2.991-9.129-1.157M69.361 296.237c-1.07 3.729-4.312 5.723-9.361 5.757l-3.5.023 3.867 3.665c3.794 3.595 3.855 3.769 3.231 9.085l-.638 5.421 3.388-2.094C68.212 316.942 70.53 316 71.5 316c.97 0 3.288.942 5.152 2.094l3.388 2.094-.655-5.567c-.625-5.32-.515-5.698 2.48-8.495 3.773-3.525 3.875-4.126.7-4.126-4.483 0-7.621-1.889-9.127-5.494-1.821-4.359-2.884-4.429-4.077-.269m336.754.32c-1.387 3.837-4.155 5.443-9.383 5.443h-3.138l3.703 3.792c3.795 3.887 4.408 6.223 2.767 10.54-1.296 3.407-.286 3.963 2.977 1.638 3.407-2.425 5.899-2.486 9.813-.239 3.69 2.118 4.475 1.511 3.111-2.401-1.322-3.792.031-7.626 3.49-9.893 3.395-2.224 3.211-3.437-.521-3.437-4.366 0-6.89-1.651-8.532-5.58-1.81-4.333-2.68-4.305-4.287.137m-291.07 21.897-4.372 4.455 6.914 7.684c15.284 16.99 24.195 29.55 36.296 51.157 3.465 6.188 6.724 11.25 7.242 11.25 1.421 0 10.875-4.938 10.875-5.68 0-1.547-11.295-21.788-17.334-31.066-10.422-16.008-31.488-41.984-34.208-42.179-.573-.041-3.009 1.929-5.413 4.379m236.41 3.297c-16.524 18.174-30.359 38.434-42.326 61.979l-2.15 4.231 6.112 3.085c3.361 1.697 6.218 2.943 6.349 2.769.13-.173 2.86-5.265 6.065-11.315 9.776-18.451 20.946-34.312 35.63-50.594l7.751-8.594-4.728-4.656c-2.599-2.561-4.936-4.656-5.192-4.655-.256 0-3.636 3.487-7.511 7.75M193.531 361.95c-.323.523 5.957 14.033 13.956 30.023l14.543 29.073 17.735-.273 17.735-.273 14.317-28.355c7.874-15.595 14.076-28.982 13.781-29.75-.647-1.685-91.03-2.122-92.067-.445m226.344 1.396c-1.893.92-3.201 3.691-6.446 13.654l-4.071 12.5-10.929.247c-16.037.361-18.429 1.375-18.429 7.807 0 3.143.788 4.018 10 11.093 11.596 8.907 11.237 7.611 6.377 23.042l-3.623 11.504 1.972 2.654c3.668 4.936 6.825 4.18 18.14-4.343l10.096-7.606 9.971 7.551c10.604 8.031 14.241 9.226 17.412 5.722 2.409-2.661 2.038-6.355-1.863-18.578-1.915-5.999-3.482-11.024-3.482-11.167 0-.143 3.938-3.282 8.75-6.976 10.731-8.236 12.25-9.908 12.25-13.488 0-5.532-3.59-6.962-17.481-6.962h-12.211l-2.217-7.632c-5.336-18.362-8.064-22.013-14.216-19.022m-367.878 1.157c-.686.827-2.914 6.79-4.95 13.25L43.344 389.5l-13.255.5c-14.92.563-16.448 1.328-15.884 7.956.261 3.06 1.382 4.296 9.795 10.8 5.225 4.04 9.649 8.018 9.832 8.84.183.822-1.323 6.935-3.346 13.583l-3.678 12.088 1.945 2.616c3.64 4.899 6.811 4.126 18.087-4.409l10.087-7.634 9.842 7.58c10.866 8.369 14.742 9.544 17.674 5.357 2.188-3.123 2.003-4.806-1.946-17.656C80.574 422.863 79 417.6 79 417.425c0-.174 3.938-3.333 8.75-7.021 10.724-8.217 12.25-9.882 12.25-13.36 0-5.371-2.809-6.508-16.967-6.871l-12.764-.327-3.324-11.029c-1.828-6.066-4.172-12.107-5.207-13.423-2.192-2.786-7.746-3.294-9.741-.891m3 34.005c-1.351 4.095-3.496 5.492-8.431 5.492-4.416 0-4.417.316-.017 5.186 2.162 2.393 3.353 4.59 3.048 5.621-1.421 4.794-1.788 7.412-.988 7.047.49-.223 2.541-1.247 4.557-2.275 3.621-1.846 3.715-1.843 7.78.276 5.159 2.689 5.209 2.684 4.029-.42-1.792-4.714-1.143-7.54 2.525-11 4.448-4.195 4.403-4.435-.845-4.435-4.806 0-7.054-1.717-8.185-6.25-.927-3.712-2.081-3.46-3.473.758m366 0c-1.351 4.095-3.496 5.492-8.431 5.492-4.12 0-4.572 1.294-1.22 3.491 3.451 2.261 4.649 5.596 3.632 10.108-1.068 4.736-.831 5.006 2.49 2.83 3.309-2.168 7.59-2.092 11.083.196l2.69 1.763-.72-5.232c-.7-5.09-.621-5.325 2.88-8.627 4.517-4.26 4.493-4.529-.401-4.529-4.46 0-7.541-2.324-8.583-6.475-.877-3.495-2.053-3.157-3.42.983M116 412.897v6.708l9.876 1.233c25.371 3.166 46.81 13.748 63.881 31.528l8.184 8.525 4.279-3.538c2.354-1.947 4.653-3.893 5.108-4.324 1.423-1.349-11.977-15.631-21.109-22.501-19.039-14.322-39.582-21.984-63.969-23.858l-6.25-.48v6.707m236.5-5.856c-19.746 1.945-39.15 9.205-55.282 20.684-7.453 5.303-20.217 17.06-23.45 21.601l-2.093 2.939 4.913 4.303 4.912 4.303 9.5-9.276c11.132-10.87 16.595-14.923 27.5-20.402 12.674-6.368 30.675-11.188 41.796-11.192l3.795-.001-.295-6.74c-.34-7.731.327-7.364-11.296-6.219M230 436.11c0 .611 1.417 3.769 3.149 7.018 3.342 6.271 6.521 8.221 9.446 5.793 1.389-1.153 7.405-12.033 7.405-13.392 0-.291-4.5-.529-10-.529-6.661 0-10 .371-10 1.11" fill-rule="evenodd"/>
</svg>