<!DOCTYPE svg PUBLIC "-//W3C//DTD SVG 1.1//EN" "http://www.w3.org/Graphics/SVG/1.1/DTD/svg11.dtd">
<svg xmlns="http://www.w3.org/2000/svg" viewBox="0 0 720 547">
<path d="M160.665 84.075c-26.634 4.317-54.168 35.648-58.711 66.805-2.669 18.301.242 29.208 11.02 41.302 9.7 10.883 14.362 12.533 18.325 6.485 1.542-2.354 1.472-2.492-2.82-5.575-22.215-15.953-22.065-47.097.354-73.71 21.449-25.46 46.097-27.155 57.073-3.924 5.756 12.181 13.131 8.103 13.072-7.228-.063-16.42-17.647-27.506-38.313-24.155m124.215-.645c-.341.354-5.917.867-12.391 1.14l-11.771.497-9.315 5.841c-5.124 3.213-12.373 6.91-16.109 8.217-10.55 3.688-20.305 15.635-36.213 44.352-7.207 13.01-7.146 12.556-2.082 15.402 9.995 5.618 27.009 20.015 33.554 28.394l2.947 3.774 5.64-1.994c6.613-2.337 19.143-4.034 21.219-2.872.794.445 2.585 2.754 3.978 5.132 3.892 6.641 15.851 17.444 20.218 18.263 8.618 1.617 19.882-1.835 22.246-6.818 1.57-3.31.624-14.19-1.412-16.226-.735-.735-3.711-1.639-6.613-2.007-9.242-1.173-9.953-1.851-11.291-10.776-.73-4.867.513-6.825 3.015-4.749 2.068 1.716 3.36.441 4.619-4.559 1.249-4.961 2.842-5.547 7.931-2.915 2.656 1.373 4.372.471 1.95-1.026-2.479-1.532-.572-2.066 4.021-1.125 5.666 1.161 11.291.059 18.786-3.678 5.714-2.85 5.612-3.427-1.352-7.664-6.685-4.067-7.94-6.033-3.851-6.033h2.77l-2.919-3.047c-3.635-3.794-3.084-4.212 8.308-6.304 9.638-1.77 10.375-2.16 7.677-4.062-1.067-.752-6.44-4.829-11.94-9.06l-10-7.691-14.5.332c-16.042.367-18.504 1.221-22.307 7.737-2.054 3.519-2.097 3.48 2.226 1.973 5.374-1.873 20.711 1.379 17.081 3.622-.55.34-1 3.793-1 7.674v7.056l-7.291 7.635c-10.156 10.636-10.875 11.632-7.701 10.663 20.624-6.292 25.778-10.802 29.564-25.874l1.655-6.589-4.114-4.673c-5.869-6.668-5.057-7.919 1.03-1.589 5.798 6.029 6.023 8.589 1.827 20.785-3.239 9.413-5.879 11.326-27.537 19.957-7.613 3.033-14.538 6.105-15.388 6.824-.85.72-4.659 3.021-8.465 5.114l-6.92 3.805-13.322-.943c-18.18-1.286-21.055-3.754-21.261-18.254-.074-5.17.122-5.592 4.423-9.541 2.475-2.272 4.5-4.788 4.501-5.59.001-1.633 5.645-13.96 6.391-13.96 3.131 0 16.35-3.692 21.831-6.098 3.865-1.696 9.333-3.76 12.152-4.587 2.819-.827 8.275-2.878 12.125-4.559 6.224-2.717 8.44-3.122 19.99-3.656 15.22-.703 14.915-.454 16.064-13.131l.682-7.527-6.868-2.194c-6.7-2.141-25.24-4.113-26.488-2.818m134.972.703c-2.407.348-6.508 1.635-9.114 2.86-5.341 2.511-5.946 5.462-3.388 16.507l1.159 5 13.495.656c12.398.604 14.147.937 21.496 4.095 4.4 1.89 9.35 3.767 11 4.17 1.65.403 6.434 2.24 10.631 4.082 4.196 1.842 10.496 3.889 14 4.548 9.603 1.806 13.041 5.047 15.302 14.422.394 1.635 2.594 4.706 4.889 6.824 4.169 3.849 4.172 3.857 3.966 10.654-.227 7.513-2.534 14.532-5.116 15.562-.919.367-7.782 1.154-15.251 1.749l-13.579 1.082-12.134-6.729c-6.674-3.7-15.863-8.087-20.421-9.749-18.576-6.773-23.736-11.109-26.93-22.626-2.773-9.999-2.524-11.65 2.568-17.04 5.652-5.981 6.99-4.957 1.624 1.243-2.227 2.573-4.041 4.989-4.032 5.368.064 2.56 4.05 15.493 5.566 18.061 2.555 4.325 25.125 15.754 27.137 13.741.372-.372-3.185-4.599-7.905-9.394l-8.581-8.719-.555-8.558-.554-8.557 5.917-1.313c5.651-1.253 7.345-1.186 12.914.518l2.456.751-2.136-3.42c-3.949-6.326-7.047-7.38-22.776-7.753l-14-.332-10.5 7.921c-15.666 11.817-15.537 11.204-2.803 13.259 9.688 1.563 11.052 2.395 8.053 4.915-2.786 2.34-2.892 4.069-.25 4.069 4.421 0 1.34 3.348-6.865 7.461-6.3 3.158-6.086 3.479 5.358 8.021 6.381 2.533 7.54 2.694 13.25 1.841 6.416-.959 7.182-.712 5.007 1.613-1.03 1.1-.809 1.207 1.25.607 7.294-2.129 7.744-2.015 8.445 2.129.997 5.905 1.918 6.939 4.948 5.559 3.291-1.5 3.998-.321 3.159 5.27-1.043 6.955-3.377 9.093-10.759 9.855-3.929.406-6.729 1.238-7.453 2.215-1.949 2.629-2.701 12.899-1.18 16.106 2.603 5.485 15.273 8.985 23.134 6.391 4.897-1.616 16.275-12.334 19.886-18.732l3.007-5.33 4.157.572c7.381 1.016 14.931 2.608 18.734 3.949l3.712 1.31 11.355-11.19c6.245-6.155 15.518-14.018 20.605-17.474 5.087-3.455 9.25-6.498 9.25-6.76 0-1.408-15.19-27.304-21.06-35.904-8.2-12.013-12.547-16.628-17.63-18.718-2.096-.861-5.772-2.382-8.17-3.38-2.398-.998-7.798-3.987-12-6.643-4.202-2.656-9.215-5.263-11.14-5.792-4.117-1.131-34.807-1.76-41.148-.843M549 84.165c-15.03 2.33-22.974 9.757-23.775 22.227-1.062 16.548 6.669 22.703 12.349 9.833 10.388-23.541 36.388-22.402 56.923 2.492 22.742 27.572 23.157 58.481.998 74.394l-4.569 3.281 3.443 3.444 3.443 3.443 3.578-2.211c5.207-3.218 14.197-13.658 17.632-20.478 3.608-7.16 4.325-26.543 1.404-37.946-6.929-27.047-34.376-55.385-56.313-58.142-2.537-.319-5.738-.717-7.113-.885-1.375-.167-4.975.079-8 .548M396.361 90.09c-3.797 1.1-4.776 4.671-3.49 12.72.989 6.187 1.589 6.956 5.629 7.212 7.672.486 7.308 1.077 5.712-9.272-1.316-8.535-2.491-11.889-4.084-11.66-.346.05-2.04.5-3.767 1m-75.381.66c-.038 1.444-1.993 14.777-2.572 17.54l-.585 2.79 4.839-.606c8.177-1.024 7.992-.845 8.696-8.416.647-6.966.176-9.95-1.785-11.293-1.413-.967-8.567-.98-8.593-.015m14.551.5c-.224.688-.915 5.293-1.537 10.235-1.251 9.939-.472 11.68 5.882 13.145 1.443.333 6.146 2.168 10.45 4.078 9.093 4.035 10.751 3.583 5.273-1.436-3.694-3.386-3.835-3.731-2.746-6.741 2.776-7.677.154-18.292-4.853-19.653-4.411-1.198-12.033-.971-12.469.372m39.771-.238c-4.581 1.845-7.623 17.267-4.101 20.789.936.936.341 2.084-2.685 5.182-5.365 5.495-3.921 5.938 5.426 1.665 4.389-2.006 8.47-3.648 9.069-3.648.599 0 2.481-.72 4.184-1.601l3.095-1.6-.605-9.93c-.333-5.462-.875-10.367-1.204-10.9-.739-1.196-10.179-1.165-13.179.043M266.5 120.892c-16.444 5.987-20.378 8.781-21.222 15.071l-.542 4.041 4.146-1.462C256.729 135.773 275 122.66 275 119.797c0-1.269-3.104-.869-8.5 1.095m184.5 1.555c5.844 6.2 23.664 17.553 27.551 17.553 1.404 0-.437-8.33-2.226-10.067-2.377-2.309-20.31-9.905-25.105-10.634l-3.72-.565 3.5 3.713m-215.955 10.719c-1.059 1.741-2.454 5.369-3.1 8.062-.954 3.978-1.906 5.379-5.077 7.478-5.414 3.583-6.026 7.657-2.72 18.106 1.396 4.411 3.934 5.252 17.866 5.914 13.158.625 12.904.751 15.376-7.631.877-2.973 2.958-7.822 4.624-10.775 3.15-5.58 3.071-7.345-.459-10.275-.855-.709-1.555-2.784-1.555-4.611v-3.32l-7.555 3.443c-10.696 4.874-10.863 4.823-10.055-3.057l.666-6.5h-3.043c-2.344 0-3.484.727-4.968 3.166M481.61 136.5c.788 7.692 1 7.612-9.269 3.5-8.939-3.579-8.341-3.522-8.341-.804 0 1.208-1.212 3.945-2.693 6.083-2.22 3.202-2.48 4.179-1.479 5.553 2.594 3.563 6.19 11.913 7.341 17.044l1.206 5.376 12.562-.551c15.689-.687 16.549-.958 18.494-5.82 3.06-7.649 2.171-14.303-2.402-17.978-3.073-2.47-4.334-4.458-5.578-8.797-2.271-7.919-3.894-10.106-7.502-10.106h-3.005l.666 6.5m-215.562 16.452c-4.177 4.177-7.874 16.048-4.998 16.048 3.301 0 16.95-12.096 16.95-15.022 0-2.935-9.249-3.729-11.952-1.026m182.202-.921c-1.238.498-2.25 1.333-2.25 1.856 0 1.863 10.371 12.262 14.153 14.191l3.847 1.963v-2.343c0-3.861-2.871-11.079-5.56-13.979-2.624-2.83-5.97-3.384-10.19-1.688M189 159.456c0 .251 3.262 2.336 7.25 4.634 10.014 5.771 16.895 10.982 26.2 19.841l7.95 7.569-5.729-6.644c-10.787-12.51-35.671-30.229-35.671-25.4m338.016 2.603c-7.604 4.191-18.388 12.651-25.516 20.019-7.614 7.87-5.293 6.633 4.729-2.52 4.251-3.882 11.676-9.402 16.5-12.266 4.824-2.865 9.671-5.882 10.771-6.706 3.632-2.719-.639-1.749-6.484 1.473m-341.766 1.613c-2.767 1.095-.927 3.461 5 6.43 9.068 4.543 18.35 10.895 27.596 18.885 9.023 7.797 9.154 7.868 9.154 4.927 0-6.705-35.763-32.609-41.75-30.242m343.022 3.218c-8.905 4.727-16.738 10.576-24.329 18.167-11.399 11.399-10.023 14.044 2.011 3.863 10.277-8.695 17.457-13.597 26.796-18.297 7.492-3.77 8.079-4.394 6.05-6.423-1.748-1.748-2.558-1.541-10.528 2.69m-348.98 4.79c-.935 2.439 5.623 7.714 20.14 16.201 13.386 7.826 22.132 11.888 23.231 10.79 2.077-2.077-18.239-18.332-30.717-24.578-8.915-4.462-11.666-4.986-12.654-2.413m356.474.264c-9.862 3.855-36.723 24.403-34.646 26.503 3.049 3.081 42.88-21.05 42.88-25.979 0-2.999-1.636-3.103-8.234-.524m-369.314 7.828c-4.427 2.6-10.952 6.8-14.5 9.333-3.549 2.532-9.288 6.095-12.753 7.916-6.63 3.485-11.199 7.932-11.199 10.901 0 2.243-1.754 3.698-10.835 8.992-5.77 3.364-8.381 5.711-12.241 11l-4.906 6.725-7.637 1.187c-11.751 1.827-12.438 2.354-15.677 12.014-1.538 4.586-3.065 11.224-3.395 14.75-.512 5.489-2.309 9.31-2.309 4.91 0-2.889-2.168-1.414-13.788 9.379-31.222 29-44.057 47.749-33.824 49.409 10.766 1.747 34.583-11.821 43.57-24.822 3.994-5.777 6.07-7.735 10.968-10.346 3.322-1.771 5.936-3.76 5.807-4.42-.17-.876 4.023-1.335 15.523-1.7l15.755-.5 6.478-5.798c3.953-3.537 8.057-8.501 10.529-12.733 4.314-7.387 6.182-8.96 10.666-8.984 3.495-.019 4.859-.882 5.711-3.616.396-1.269 1.782-2.354 3.43-2.684 1.521-.304 4.995-2.152 7.72-4.107 2.725-1.955 6.648-4.472 8.717-5.593l3.763-2.038 9.237 2.16c10.286 2.405 30.014 8.973 35.763 11.906 5.264 2.685 6.528 10.808 2.584 16.611-2.449 3.604-2.473 3.799-.816 6.612 4.374 7.428 8.455 8.665 28.767 8.72l16.061.044 5.689-6.583c6.171-7.139 6.436-8.051 4.193-14.409-1.329-3.767-1.329-4.89 0-10.02 2.089-8.06 1.909-9.947-1.451-15.245-3.958-6.24-10.797-11.045-21.047-14.784-4.672-1.704-9.9-3.967-11.618-5.029-1.717-1.061-4.028-1.93-5.133-1.93-1.106 0-2.631-.934-3.389-2.077-.758-1.142-2.951-2.395-4.872-2.786-3.302-.671-3.509-.954-3.788-5.183l-.295-4.473-11.205-5.688c-6.163-3.128-16.742-9.311-23.509-13.74-6.768-4.429-12.393-8.043-12.5-8.031-.108.012-3.818 2.149-8.244 4.75m370.544 3.039c-6.327 4.229-16.767 10.389-23.201 13.689l-11.697 6-.299 4.464c-.279 4.167-.519 4.508-3.614 5.137-1.824.37-4.328 1.624-5.565 2.786S490.034 217 489.623 217c-.412 0-3.533 1.286-6.936 2.859-3.403 1.572-9.562 4.149-13.687 5.726-15.421 5.897-21.946 15.716-18.698 28.133 1.498 5.729 1.499 6.56.01 10.577-2.091 5.642-1.358 8.005 4.495 14.501 4.563 5.064 5.075 5.34 11.732 6.328 14.761 2.19 30.663-.393 36.139-5.869 4.005-4.005 4.114-5.625.711-10.633-2.207-3.247-2.438-4.218-1.5-6.279.611-1.34 1.111-3.486 1.111-4.768 0-1.281.589-2.819 1.309-3.416 2.707-2.247 28.671-11.091 38.795-13.216l10.529-2.209 6.434 4.759c3.538 2.617 8.305 5.568 10.592 6.558 2.287.99 4.45 2.718 4.806 3.84.44 1.384 1.834 2.239 4.341 2.662 6.453 1.086 6.977 1.43 10.271 6.74 6.767 10.909 8.416 12.908 14.271 17.31l6.026 4.529 15.744-.316c17.346-.348 19.656-1.096 22.86-7.406 3.104-6.112.805-27.887-3.76-35.618-1.898-3.214-4.683-4.491-12.595-5.775-7.213-1.17-9.467-2.595-14.687-9.283-4.744-6.077-7.226-8.119-14.866-12.234-4.364-2.35-6.032-3.963-7.703-7.446-2.517-5.245-4.786-7.235-12.864-11.283-3.302-1.654-8.928-5.163-12.503-7.797-3.575-2.634-9.875-6.604-14-8.821l-7.5-4.031-11.504 7.689m-206.377-3.766c-6.238 1.845-7.619 4.394-7.619 14.062 0 9.862-.478 9.309 9 10.418 6.138.717 7.905-.69 12.513-9.971 1.776-3.578 2.512-4.121 6.27-4.624 9.19-1.23 7.905-3.26-3.434-5.423-4.317-.823-8.301-2.109-8.853-2.856-1.443-1.955-4.555-2.589-7.877-1.606M384.601 181c-1.595 1.019-5.195 2.167-8 2.551-8.274 1.131-10.562 2.26-8.16 4.024 1.068.784 3.638 1.425 5.712 1.425 3.545 0 3.833.236 4.836 3.958.586 2.176 2.619 5.605 4.518 7.618l3.453 3.661 6.421-.687c7.474-.801 7.584-.977 7.605-12.211.013-6.776-.151-7.3-3.063-9.75-3.696-3.11-9.011-3.345-13.322-.589m-73.351 4.031c-1.238.498-2.236 1.257-2.219 1.687.116 2.953 2.032 15.575 2.472 16.286.641 1.038 6.67-.848 7.732-2.418.404-.597.741-4.574.75-8.836L320 184l-3.25.063c-1.788.035-4.262.471-5.5.968m92.961 7.719.289 8.75 3.5 1.156c4.671 1.542 5.081.925 5.736-8.641.637-9.292.226-9.974-6.025-10l-3.789-.015.289 8.75m248.36 77.425c-1.039 7.836-6.802 15.825-11.415 15.825-2.594 0-.847 2.03 4.265 4.955 5.568 3.185 9.202 6.768 13.579 13.388 4.171 6.308 26.896 20.609 35.234 22.173 19.029 3.57 9.211-15.032-24.85-47.079-17.202-16.185-15.983-15.514-16.813-9.262M73.379 277.75c1.51 2.903 6.621 8.157 6.621 6.806 0-.435-1.35-2.33-3-4.209-1.65-1.879-3-3.851-3-4.382 0-.531-.462-.965-1.026-.965-.602 0-.435 1.134.405 2.75m156.178 15.371c-2.904 9.779-5.817 27.019-4.746 28.09 2.478 2.478 45.292 4.049 46.735 1.715.844-1.365-2.652-5.109-9.046-9.689-11.401-8.167-12.368-10.34-8.311-18.688 2.857-5.881 2.668-5.989-11.203-6.402l-11.847-.354-1.582 5.328M473 288.731c-5.047.593-5.41 1.446-2.998 7.053 2.975 6.915 2.422 9.034-3.446 13.203-7.735 5.496-14.952 12.563-14.151 13.859 1.466 2.373 44.273.876 46.785-1.636 1.06-1.06-1.609-16.699-4.771-27.96l-1.475-5.25-8.222.16c-4.522.088-9.797.345-11.722.571m217 113.638V448h15v-90l-3.75-.011c-2.062-.006-5.437-.29-7.5-.631l-3.75-.62v45.631M653 403v45h14v-90h-14v45m-637 .64v44.661l19.75-.61c12.274-.379 21.728-1.157 24.975-2.054 32.619-9.009 38.192-61.587 8.527-80.447-6.79-4.317-10.326-4.917-33.002-5.6L16 358.979v44.661m484-.184v44.771l20.75-.497c22.908-.549 26.091-1.19 32.301-6.506 5.893-5.044 6.949-7.771 6.949-17.94 0-10.794-1.617-14.395-8.584-19.112-6.064-4.106-6.287-4.987-2.557-10.136 6.043-8.342 5.49-20.95-1.213-27.653-5.495-5.495-8.75-6.262-29.896-7.043l-17.75-.656v44.772m18.571-30.885c-2.539 2.54-2.219 17.781.429 20.429 5.28 5.28 17-2.116 17-10.728 0-7.357-12.702-14.427-17.429-9.701m-483.84 1.841c-2.841 2.841-3.889 55.287-1.159 58.017 2.919 2.919 19.545.151 26.825-4.466 15.322-9.717 13.967-42.205-2.099-50.297-8.489-4.277-20.839-5.982-23.567-3.254m95.093 18.061c-2.002 1.361-3.848 3.048-4.103 3.75-.697 1.918-4.145-.418-4.541-3.075-.293-1.976-.914-2.148-7.75-2.148H106v57h14.821l.356-15.25c.474-20.264 3.216-25.75 12.87-25.75 2.904 0 2.953-.088 2.953-5.375 0-11.781-1.149-13.247-7.176-9.152m34.676-.625c-20.246 9.685-20.944 46.232-1.056 55.266 7.996 3.632 17.352 2.008 22.993-3.991 4.573-4.862 8.953-3.078 7.063 2.877-.597 1.88-.18 2 6.933 2H208v-57h-6.875c-6.839 0-6.878.016-7.475 3-.788 3.939-3.055 3.883-8.626-.214-5.605-4.122-14.252-4.938-20.524-1.938m77.991.017c-10.068 4.574-14.929 14.296-14.277 28.558.653 14.31 4.419 20.803 14.786 25.496 7.368 3.336 18.154 1.74 22.983-3.401 6.822-7.261 9.228 2.066 3.478 13.482-4.759 9.448-12.315 10.266-21.788 2.359-2.447-2.042-3.89-2.359-10.75-2.359-8.924 0-9.53.664-5.927 6.493 9.495 15.363 49.499 13.64 53.986-2.325.567-2.018 1.326-18.406 1.686-36.418l.655-32.75h-7.036c-7.019 0-7.039.008-7.637 3-.72 3.602-3.178 3.946-6.957.973-6.54-5.144-15.945-6.404-23.202-3.108m82.509-.614c-13.753 4.617-21.935 25.639-16.027 41.178 5.413 14.237 28.363 21.424 42.31 13.251 10.169-5.96 14.051-13.518 13.973-27.21-.068-12.067-5.041-20.765-14.688-25.693-4.879-2.492-20-3.394-25.568-1.526m87.566.331c-2.163.792-4.674 2.11-5.578 2.929-2.476 2.241-4.87 1.807-5.577-1.011-.599-2.385-.969-2.5-8.019-2.5H386v57h15l.024-14.75c.034-20.894 1.541-25.728 9.214-29.546 5.006-2.491 9.783-.543 12.703 5.181 1.847 3.62 2.059 5.841 2.059 21.575V448h15.214l-.357-22.914-.357-22.914-3.025-4.336c-5.197-7.448-14.212-9.806-23.909-6.254m176.009-.536c-7.471 2.234-15.642 14.038-17.054 24.638-3.087 23.172 19.42 42.139 35.163 29.631 1.949-1.548 4.129-3.239 4.846-3.757 1.82-1.316 4.47 1.093 4.47 4.064 0 2.297.261 2.378 7.657 2.378h7.658l-.655-17.25c-.359-9.488-.655-22.312-.657-28.5L630 391h-6.875c-6.839 0-6.878.016-7.475 3-.74 3.699-2.833 3.865-6.787.538-4.887-4.112-13.343-5.568-20.288-3.492m-339.597 15.74c-8.673 8.674-6.575 20.31 4.706 26.094 4.964 2.545 12.691-.514 16.382-6.487 8.79-14.222-9.482-31.212-21.088-19.607m80.944-1.512c-10.72 7.224-10.687 21.156.068 28.476 8.869 6.036 20.949-2.51 20.994-14.852.04-11.186-12.574-19.345-21.062-13.624m267.578.396c-13.143 6.891-13.176 24.358-.057 29.874 5.602 2.356 15.519-4.127 17.546-11.468 2.915-10.555-8.85-22.936-17.489-18.406m-424.716.884c-5.913 3.209-9.641 13.265-7.189 19.392 4.741 11.848 18.395 13.084 24.729 2.239 7.148-12.24-5.684-28.065-17.54-21.631m345.914 1.891c-2.467 2.467-2.509 24.601-.053 27.057 4.181 4.181 21.068-1.829 23.713-8.438 2.356-5.89-.858-14.72-6.403-17.587-4.811-2.488-15.181-3.108-17.257-1.032m-295.141 92.778c-3.154 4.503-1.408 9.023 4.185 10.832 10.348 3.347 13.645 6.558 10.235 9.968-2.536 2.536-7.009 2.527-10.25-.023-2.966-2.333-4.727-2.565-4.727-.622 0 2.612 3.18 4.055 9.006 4.089 7.589.043 10.22-2.084 9.792-7.915-.293-3.987-.394-4.085-6.298-6.118-11.445-3.942-13.53-6.816-7.288-10.044 3.081-1.593 3.39-1.567 7.519.623 4.823 2.559 7.039 1.844 3.408-1.099-3.591-2.911-13.464-2.716-15.582.309m59.979 1.041c-3.787 3.787-4.883 11.062-2.581 17.119 2.621 6.893 15.922 8.677 21.142 2.835 4.202-4.703 4.276-14.65.143-19.275-4.595-5.143-13.902-5.481-18.704-.679m139.782-1.857c-4.545 2.056-6.611 10.73-4.426 18.582 2.211 7.943 17.347 9.219 22.477 1.894 3.023-4.315 2.244-14.921-1.347-18.362-3.593-3.442-11.544-4.448-16.704-2.114m-272.96 5.74c.353 3.38.642 9.005.642 12.5 0 3.569.438 6.353 1 6.353.55 0 1-2.025 1-4.5 0-3.071.597-5.097 1.88-6.38 1.841-1.841 1.841-1.915 0-3.49-2.022-1.732-2.433-5.206-.902-7.63.618-.978 3.307-1.706 7.734-2.093 6.762-.59 6.752-.593-2.604-.75l-9.393-.157.643 6.147m33.804 4.35c.493 13.324 1.724 15.022 10.853 14.968 3.275-.019 6.446-.526 7.048-1.128C205.08 521.32 206.339 500 203.5 500c-1.233 0-1.5 1.778-1.5 10 0 13.022-1.97 15.649-9.713 12.95-4.131-1.44-5.287-4.61-5.287-14.497 0-7.111-.256-8.453-1.613-8.453-1.407 0-1.564 1.345-1.225 10.497M260 512.5c0 7.667.387 12.5 1 12.5s1-4.833 1-12.5-.387-12.5-1-12.5-1 4.833-1 12.5m28.875-10.496c-7.362 3.89-8.278 13.955-1.769 19.432 3.575 3.008 4.666 3.117 9.263.925 7.765-3.703 7.555-16.763-.336-20.844-3.49-1.805-2.723-1.857-7.158.487M323 512.5c0 7.667.387 12.5 1 12.5.563 0 1-2.806 1-6.418 0-12.406 2.516-12.828 9.52-1.597 5.858 9.393 7.912 10.177 8.844 3.375.934-6.812.775-20.36-.239-20.36-1.073 0-2.125 4.951-2.125 10.003 0 8.177-2.924 7.317-9.356-2.753-7.264-11.372-8.644-10.534-8.644 5.25m59 0c0 10.444.247 12.5 1.5 12.5 1.022 0 1.505-1.035 1.515-3.25.025-5.282 3.552-7.75 11.073-7.75 3.535 0 5.912-2.918 5.912-7.257 0-5.667-1.846-6.743-11.571-6.743H382v12.5m45.119-10.615c-8.437 4.496-7.968 17.45.763 21.066 11.615 4.811 17.426-15.604 6.107-21.457-3.436-1.777-2.725-1.817-6.87.391m31.942-.135c.033.962 1.508 6.471 3.277 12.242 3.719 12.128 5.809 13.985 7.674 6.821a7739.89 7739.89 0 0 0 2.066-7.96c2.035-7.865 5.981-5.326 7.833 5.039 1.991 11.138 4.084 10.106 8.555-4.214 1.944-6.227 3.534-11.852 3.534-12.5 0-2.377-2.803-1.094-3.434 1.572-2.414 10.206-3.684 13.25-5.527 13.25-2.102 0-2.39-.682-4.112-9.75-1.047-5.509-1.46-6.25-3.485-6.25-2.359 0-2.439.217-5.047 13.75-.569 2.956-3.762 2.935-5.114-.033-.572-1.256-1.616-4.856-2.32-8-1.193-5.332-4.048-8.236-3.9-3.967m49.546-.168c-.334.87-.607 6.495-.607 12.5V525h9.5c5.667 0 9.5-.404 9.5-1 0-.563-2.81-1-6.429-1-7.078 0-9.571-1.432-9.571-5.5 0-3.969 2.521-5.488 9.321-5.616 6.488-.122 6.223-.357-1.559-1.38-11.424-1.502-10.022-8.562 1.906-9.597l6.832-.592-9.143-.158c-7.512-.129-9.251.125-9.75 1.425m36.035 4.565c-1.17 11.199-.822 18.853.858 18.853 1.079 0 1.5-1.103 1.5-3.929 0-5.979 4.48-8.743 10.455-6.45 1.955.75 4.545 5.497 4.545 8.329 0 1.228.654 2.05 1.63 2.05 1.379 0 1.519-.73.907-4.75-.883-5.804-.886-8.798-.013-12.885 1.308-6.128-.442-7.365-10.417-7.365h-8.822l-.643 6.147M387.4 501.765c-4.158 2.776-4.025 9.789.206 10.851 6.222 1.561 12.457-2.692 10.942-7.464-1.004-3.163-8.206-5.351-11.148-3.387m161.171.806c-4.89 4.891 1.842 12.157 8.651 9.337 4.841-2.005 5.991-5.695 2.778-8.908-2.463-2.463-9.144-2.714-11.429-.429" fill-rule="evenodd"/>
</svg>