<!DOCTYPE svg PUBLIC "-//W3C//DTD SVG 1.1//EN" "http://www.w3.org/Graphics/SVG/1.1/DTD/svg11.dtd">
<svg xmlns="http://www.w3.org/2000/svg" viewBox="0 0 579 576">
<path fill="#070707" d="M183.75 9.08c-3.472 2.022-1.597 5.76 15.538 30.978A93632.833 93632.833 0 0 0 229.167 84a70774.561 70774.561 0 0 1 21.737 31.962c5.691 8.375 8.922 14.043 8.552 15-1.891 4.889-3.574 16.48-2.674 18.42.54 1.165 8.685 13.463 18.1 27.33 9.415 13.867 17.11 25.567 17.099 26-.01.433-3.522 5.288-7.803 10.788l-7.784 10h-63.557l-16.494-32c-23.508-45.607-20.609-43.477-59.621-43.79l-26.222-.21-.332-2.911c-.262-2.296.343-3.438 2.871-5.417 4.532-3.546 5.961-7.747 5.961-17.519 0-8.326.029-8.422 2.883-9.604 3.825-1.585 7.654-5.695 9.564-10.267 2.023-4.843 2.124-18.063.151-19.701-1.237-1.026-13.62-1.328-45.345-1.104-2.295.016-4.4 1.064-7.178 3.574-4.937 4.461-6.077 9.203-6.069 25.248.006 14.42 1.003 18.343 5.536 21.801 3.296 2.514 3.458 2.931 3.458 8.912 0 4.891-.361 6.413-1.639 6.903-.901.346-12.364.592-25.472.548-21.414-.073-24.273.113-28.162 1.834-9.167 4.055-15.879 12.767-17.129 22.234-1.022 7.735-3.822 93.259-3.202 97.81 1.692 12.43 11.778 23.625 23.921 26.552 2.748.662 2.803.808 2.217 5.893-.331 2.868-4.411 54.898-9.068 115.622C15.127 526.659 13.682 554.282 16.2 556.8c2.109 2.109 79.614 1.679 81.971-.455 1.702-1.54 1.956-1.54 3.658 0 2.98 2.697 223.071 2.528 225.516-.174 2.517-2.782 2.536-199.4.02-208.368-2.102-7.49-6.682-12.698-17.656-20.076l-8.524-5.731-.343-5.511c-.443-7.134-.277-7.485 3.541-7.485 5.202 0 5.617-1.122 5.617-15.2 0-7.04.337-12.787.75-12.77.413.016 4.428 5.529 8.924 12.25a4367.315 4367.315 0 0 0 17.032 25.22A49996.7 49996.7 0 0 1 360.18 353c8.039 11.825 22.2 32.626 31.468 46.225 22.674 33.267 46.881 69.015 47.681 70.414.389.679-1.95 2.834-5.801 5.343-3.549 2.312-6.734 5.092-7.078 6.177-.775 2.441 10.776 20.461 13.713 21.393 1.405.446 6.035-2.161 16.752-9.429l14.811-10.044 1.986 2.211c4.063 4.523 44.288 57.649 44.288 58.494 0 .482-2.025 2.331-4.5 4.109-4.779 3.432-5.588 5.876-2.851 8.613 2.461 2.461 2.913 2.213 31.953-17.507C573.688 517.89 573 518.426 573 515.324c0-4.482-4.083-5.051-9.5-1.324-3.928 2.702-4.904 3.008-5.959 1.866-3.565-3.859-38.681-64.126-37.849-64.958.515-.515 6.983-5.1 14.372-10.188 16.354-11.26 16.249-10.972 8.226-22.646-7.896-11.49-7.705-11.421-16.182-5.784l-7.044 4.683-2.516-3.236c-2.34-3.011-12.267-17.533-51.085-74.737a34642.163 34642.163 0 0 0-32.115-47.222c-9.267-13.598-30.97-45.472-48.229-70.832-17.26-25.36-32.049-46.365-32.863-46.678-.815-.313-7.569 1.149-15.01 3.249l-13.527 3.817-2.11-2.877c-1.16-1.583-8.859-12.813-17.109-24.957-8.25-12.144-15.681-23.023-16.514-24.176-1.465-2.027-15.724-5.858-19.037-5.115-1.444.324-4.031-3.343-48.556-68.846-26.306-38.7-32.883-47.665-34.725-47.333-.092.017-.955.489-1.918 1.05M99.913 116.25c-3.607 7.013-9.007 9.514-12.413 5.75-1.984-2.192-4.023-2.58-5.027-.956-.971 1.57 1.467 3.956 4.042 3.956 3.104 0 3.485 1.52 3.485 13.907C90 149.795 91.571 154 95.64 154c4.443 0 7.455-11.2 3.362-12.499-5.741-1.822-2.952-8.501 3.549-8.501 6.369 0 7.449-1.605 7.449-11.071V114h-4.465c-3.62 0-4.683.425-5.622 2.25m-70.432 42.144c-3.326 1.449-9.143 7.586-10.451 11.026-.459 1.209-1.165 9.722-1.568 18.917l-.732 16.72 14.385-.279L45.5 204.5l.648-9.939c.765-11.738 2.66-14.616 7.362-11.177 1.846 1.35 1.854 2.219.331 35.25-.859 18.626-1.453 34-1.32 34.164.445.549 28.445 3.569 28.897 3.118.245-.245 1.475-17.229 2.733-37.743l2.287-37.296-2.219-6.189c-2.864-7.985-2.796-10.089.408-12.61 2.178-1.712 2.414-2.324 1.378-3.572-1.717-2.069-51.804-2.169-56.524-.112m75.514.112c-1.036 1.248-.8 1.86 1.378 3.572 3.176 2.499 3.265 4.646.528 12.749-2.053 6.081-2.075 6.87-.995 36.444.607 16.626 1.101 33.491 1.099 37.479-.006 8.263.708 8.785 5.129 3.75 5.734-6.53 15.866-1.844 15.866 7.339 0 1.447.947 2.116 3.732 2.638 7.875 1.478 10.902 5.686 9.841 13.682l-.642 4.841h8.05l.259-48.75.26-48.75h7l.291 8.297c.216 6.135.67 8.443 1.745 8.855 1.601.615 26.464-9.616 26.464-10.889 0-1.905-12.029-24.529-14.39-27.064-5.008-5.377-7.095-5.699-36.955-5.699-23.192 0-27.602.232-28.66 1.506m196.272 24.253c-3.978 2.607-7.241 5.085-7.25 5.505-.028 1.245 4.412 7.71 5.304 7.724.704.01 12.509-7.899 15.056-10.088 1.077-.926-3.086-7.903-4.709-7.891-.642.005-4.423 2.142-8.401 4.75m33.914 4.701c-17.208 5.053-30.87 14.433-42.053 28.875-8.181 10.564-8.864 11.665-7.242 11.665.989 0 60.772-40.363 63.078-42.587 2.296-2.215-.868-1.745-13.783 2.047m-160.074 17.079c-6.817 2.978-12.558 5.578-12.758 5.779-.76.76 14.616 35.948 17.174 39.302 1.476 1.934 4.52 4.848 6.766 6.475 8.033 5.818 9.493 5.95 62.95 5.665l48.662-.26-9.651-14.25L278.6 233h-34.366c-18.901 0-35.123-.41-36.05-.911-.926-.501-5.273-8.151-9.659-17-5.212-10.514-8.503-16.067-9.5-16.027-.839.035-7.102 2.499-13.918 5.477M346 221.698a51572.706 51572.706 0 0 0-31.24 21.321l-12.739 8.705 15.552 22.888a17012.128 17012.128 0 0 1 18.739 27.618c1.754 2.601 3.697 4.548 4.319 4.327.622-.222 11.197-7.236 23.5-15.587 12.303-8.351 26.081-17.679 30.619-20.727 9.677-6.502 9.601-6.202 3.61-14.124-.159-.209-3.405 1.749-7.215 4.352-7.532 5.147-10.633 5.416-11.737 1.019-.799-3.185-.287-3.827 6.904-8.65 3.403-2.282 6.363-4.293 6.577-4.468.645-.525-4.912-7.372-5.983-7.372-.546 0-3.762 1.8-7.148 4-6.964 4.525-7.805 4.71-10.065 2.213-2.631-2.907-.969-5.799 5.911-10.28 7.403-4.824 7.005-4.011 4.146-8.473-2.886-4.504-2.817-4.527-19.01 6.414-13.905 9.396-15.645 10.151-17.694 7.681-2.867-3.454-.822-5.84 13.454-15.701 7.7-5.318 14-10.049 14-10.512 0-1.571-3.925-7.342-4.966-7.302-.569.023-9.359 5.718-19.534 12.658M16.666 214.75c-.249.412-.782 13.004-1.185 27.981l-.734 27.232 2.636 5.268c2.908 5.814 8.046 10.271 13.537 11.743 1.969.528 24.644 3.595 50.39 6.815 41.743 5.222 46.898 5.685 47.625 4.283 1.186-2.289 4.449-25.021 3.699-25.771-.35-.35-3.21-.985-6.357-1.412-6.729-.914-8.582-2.746-7.673-7.59.834-4.447-.762-4.229-4.675.639-1.74 2.166-3.71 4.148-4.378 4.404-.667.256-15.299-1.21-32.515-3.259-35.372-4.209-34.571-3.921-33.615-12.083.29-2.475.822-12.262 1.181-21.75l.654-17.25H31.187c-7.738 0-14.272.338-14.521.75M157 378.693v152.86l9.25 6.225c5.088 3.423 9.588 6.224 10 6.223.412 0 .75-43.119.75-95.819 0-107.971-.342-102.806 7.332-110.831 2.292-2.397 7.993-6.967 12.668-10.155l8.5-5.796v-11.9l-3.5-.306c-5.688-.497-6-1.611-6-21.385 0-13.58-.297-17.809-1.25-17.81-2.557-.001-13.37-5.88-16.798-9.133-5.947-5.642-8.551-9.861-13.792-22.344-2.767-6.588-5.509-12.138-6.095-12.334-.75-.25-1.065 44.828-1.065 152.505m249.739-94.172c-7.15 4.797-8.477 7.598-5.168 10.908 2.44 2.44 4.408 1.931 11.64-3.007l6.712-4.582-2.595-3.92c-3.181-4.807-2.467-4.847-10.589.601m10.761 15.798c-4.932 3.494-6.056 4.823-6.313 7.466-.673 6.904 6.39 5.989 16.277-2.11l2.963-2.428-2.463-3.616c-3.063-4.496-3.154-4.49-10.464.688m-202.822 9.336c-.373.373-.678 4.348-.678 8.834v8.156l-11.741 7.927c-12.94 8.737-16.491 13.045-16.018 19.428l.259 3.5h133l-.075-4.099c-.12-6.547-3.365-10.492-15.212-18.492-5.892-3.979-10.938-7.421-11.213-7.65-.275-.229-.725-4.319-1-9.088l-.5-8.671-38.072-.262c-20.939-.144-38.377.044-38.75.417m205.801 11.77c-14.483 9.835-16.337 11.905-13.847 15.46 2.488 3.551 5.489 2.474 19.444-6.979 16.653-11.281 15.521-10.015 12.759-14.278-3.099-4.782-2.497-4.973-18.356 5.797m19.207 10.132c-7.52 5.044-8.468 6.432-6.839 10.007 2.016 4.425 6.327 3.03 18.978-6.145.27-.196-4.826-8.419-5.219-8.419-.07 0-3.184 2.051-6.92 4.557m10.014 16.188c-6.165 4.185-6.772 4.901-6.5 7.668.559 5.685 4.474 5.762 12.761.252l7.051-4.689-2.639-3.988c-3.187-4.816-2.379-4.874-10.673.757M89.586 351.75c-.994 6.316-17.587 173.957-17.566 177.464.019 3.106.764 3.778 13.624 12.286 7.482 4.95 13.998 9.15 14.48 9.333.498.19.876-43.492.876-101.25V348H90.176l-.59 3.75m363.38 17c-11.967 8.066-14.52 10.214-14.776 12.437-.346 2.991 3.679 6.537 6.016 5.301 3.966-2.099 28.738-19.11 28.763-19.752.04-.996-4.308-7.708-5.003-7.724-.294-.006-7.044 4.375-15 9.738M186 419.5V453h134v-67H186v33.5m40.2-22.3c-.66.66-1.2 2.145-1.2 3.3 0 4.321 1.114 4.5 28 4.5s28-.179 28-4.5-1.114-4.5-28-4.5c-18.578 0-25.929.329-26.8 1.2m-19 19c-.66.66-1.2 2.145-1.2 3.3 0 4.494.061 4.5 47 4.5s47-.006 47-4.5c0-1.155-.54-2.64-1.2-3.3-1.727-1.727-89.873-1.727-91.6 0M484 451.605c-25.575 17.371-46.645 31.724-46.822 31.894-.697.674 4.402 7.477 5.613 7.489 1.819.017 94.209-62.893 94.209-64.149 0-1.665-4.03-6.84-5.318-6.828-.65.006-22.107 14.223-47.682 31.594M226.75 435.08c-2.009 1.17-2.318 4.952-.55 6.72.871.871 8.222 1.2 26.8 1.2 26.886 0 28-.179 28-4.5 0-4.317-1.134-4.502-27.45-4.47-15.147.019-25.742.434-26.8 1.05m280.344 23.8-2.406 1.864 16.32 25.378a24824.546 24824.546 0 0 1 20.636 32.128c4.589 7.178 4.909 7.406 7.561 5.391 1.547-1.175-.105-4.311-17.758-33.718-10.704-17.833-20.022-32.532-20.705-32.665-.683-.134-2.325.596-3.648 1.622m-12.287 8.47c-1.523 1.158.372 4.153 18.801 29.719 18.441 25.583 25.364 34.637 22.883 29.931-2.242-4.254-38.926-60.995-39.416-60.968-.316.017-1.337.611-2.268 1.318m-12.775 8.591-2.467 1.896 2.489 3.499c1.369 1.924 11.837 15.69 23.262 30.592 18.657 24.334 20.973 26.988 22.729 26.048 1.075-.575 1.955-1.502 1.955-2.059 0-.877-22.623-32.805-38.736-54.667-5.932-8.049-5.78-7.962-9.232-5.309" fill-rule="evenodd"/>
</svg>