<!DOCTYPE svg PUBLIC "-//W3C//DTD SVG 1.1//EN" "http://www.w3.org/Graphics/SVG/1.1/DTD/svg11.dtd">
<svg xmlns="http://www.w3.org/2000/svg" viewBox="0 0 456 188">
<path d="M40.718 43.033c-13.115 3.292-20 10.761-23.189 25.159-.977 4.409-2.985 9.712-4.705 12.424-2.516 3.968-2.903 5.391-2.396 8.808 1.663 11.207 1.687 18.529.101 31.97-3.053 25.896-2.43 34.926 2.21 31.999 1.309-.826 2.388-5.843 4.837-22.478 5.376-36.522 5.226-36.124 14.286-37.966 3.101-.631 9.238-2.723 13.638-4.65 4.4-1.927 10.672-4.054 13.938-4.726 6.163-1.269 8.971-3.564 6.897-5.638-.826-.826-6.014-.782-19.797.169-21.595 1.49-21.525 1.514-18.533-6.36 3.629-9.551 8.692-13.252 23.368-17.085 8.113-2.118 11.653-7.969 6.493-10.731-2.903-1.554-12.524-2.056-17.148-.895m89.073 12.917c-1.489.47-4.039 1.802-5.665 2.961-4.403 3.134-8.406 3.627-12.039 1.482-5.423-3.204-4.766-5.228-17.705 54.607-5.588 25.843-5.441 38 .46 38 2.534 0 3.157-1.837 3.164-9.332.014-15.07 3.978-31.29 8.898-36.406 4.214-4.383 6.972-4.048 27.096 3.29 14.262 5.201 26.388 3.623 25.806-3.359-.303-3.644-.355-3.683-5.806-4.449-7.601-1.069-24.026-6.648-24.694-8.388-.794-2.069 2.256-5.006 9.934-9.568 12.097-7.187 15.12-13.013 11.122-21.437-2.684-5.656-13.623-9.592-20.571-7.401M410 61.523c-4.125 2.975-9.975 6.59-13 8.034-14.635 6.984-19.528 15.468-13.079 22.677l2.921 3.266h15.742c16.868 0 18.428.497 14.22 4.53-3.104 2.974-15.403 8.867-20.086 9.624-4.636.75-7.718 4.336-7.718 8.981 0 4.21 2.269 4.461 8.322.923 2.298-1.344 8.304-4.015 13.347-5.937 11.476-4.373 16.624-7.595 19.799-12.394 7.501-11.334 2.479-15.211-19.718-15.221-9.427-.005-11.75-.284-11.75-1.412 0-2.037 9.224-8.356 18.642-12.772C426.017 67.896 427 66.864 427 62c0-8.26-5.976-8.427-17-.477M218.244 59.25c-1.092 1.364-4.95 20.029-8.216 39.75-1.139 6.875-2.31 13.682-2.602 15.126-.7 3.466 1.776 5.874 6.038 5.874 4.165 0 4.536-.946 4.536-11.568 0-7.413.482-9.675 4.087-19.168 4.492-11.83 6.284-24.834 4.008-29.087-1.309-2.445-6.176-3.019-7.851-.927m79.903 1.778c-16.631 3.45-25.25 20.579-26.858 53.375l-.486 9.903 6.849-.662c16.14-1.56 29.101-5.594 36.889-11.48 11.605-8.771 2.389-11.64-16.825-5.237-10.479 3.492-12.716 3.462-12.716-.173 0-4.562 4.79-9.754 9-9.754 1.44 0 3.491-.661 4.559-1.468 1.067-.808 3.291-1.483 4.941-1.501 3.032-.032 13.065-3.435 15.107-5.123.609-.503 2.466-.643 4.128-.311 3.705.741 7.265-1.01 7.265-3.573 0-3.051-1.165-3.227-20.487-3.095-24.372.166-25.458-2.372-3.153-7.364l10.14-2.269.305-4.652c.274-4.181.05-4.749-2.211-5.608-3.991-1.517-11.711-1.991-16.447-1.008m-171.643 8.46c-10.473 4.347-14.499 9.001-14.502 16.762-.002 4.582 1.117 4.737 8.218 1.139 5.956-3.018 20.228-16.537 19.57-18.538-.752-2.285-6.964-1.988-13.286.637m51.798 21.013c-3.876 2.715-3.819 10.119.098 12.734 2.305 1.539 7.525.762 9.561-1.424 5.928-6.363-2.55-16.289-9.659-11.31m65.771 2.134c-2.75 3.495-2.618 6.911.382 9.91 3.864 3.865 8.614 3.156 11.103-1.658 4.034-7.8-6.109-15.087-11.485-8.252" fill-rule="evenodd"/>
</svg>