<!DOCTYPE svg PUBLIC "-//W3C//DTD SVG 1.1//EN" "http://www.w3.org/Graphics/SVG/1.1/DTD/svg11.dtd">
<svg xmlns="http://www.w3.org/2000/svg" viewBox="0 0 420 357">
<path fill="#161616" d="M85.841 5.524c-1.463.795-3.263 2.822-4 4.506-1.053 2.403-1.771 2.921-3.341 2.411-7.959-2.586-13.338-.236-16.79 7.336-2.418 5.304-2.47 7.087-1.656 57.223.473 29.177.052 33.052-4.173 38.424-1.625 2.066-2.829 2.615-5.215 2.381-4.698-.462-6.922-4.748-10.09-19.445-9.077-42.123-11.013-47.611-17.689-50.152-10.225-3.892-16.35 6.272-13.805 22.913.452 2.958 1.56 10.104 2.462 15.879.902 5.775 3.917 17.475 6.699 26l5.059 15.5.099 64.5.099 64.5 3.322 8c2.481 5.975 5.207 17.368 10.765 45 7.802 38.793 8.505 41.5 10.769 41.5 3.754 0 3.862-2.48.789-18.187-7.597-38.829-13.191-63.827-15.563-69.546-4.424-10.67-4.759-16.645-4.434-79.267l.304-58.5-4.3-13C15.357 83.89 12.178 54 18.824 54c4.284 0 5.187 2.781 15.586 48 3.175 13.807 5.736 18.829 10.892 21.353 7.313 3.581 14.528-.093 18.815-9.58 2.532-5.603 3.132-27.089 1.994-71.405-.412-16.053.67-21.078 5.12-23.782 4.228-2.569 5.985 3.883 7.193 26.414.339 6.325.821 13.975 1.072 17 1.034 12.471 1.467 21.109 1.603 32 .168 13.443.912 16.279 4.145 15.82 2.921-.414 3.346-8.668 1.743-33.82-2.005-31.443-2.336-55.046-.833-59.391 1.949-5.634 4.775-7.239 8.116-4.611 4.163 3.275 5.418 10.179 7.176 39.502.297 4.95 1.016 15.693 1.598 23.873l1.057 14.874-2.419 3.626c-5.368 8.05-9.081 15.746-9.247 19.169-.11 2.259-1.354 5.245-3.315 7.951-8.402 11.599-7.853 23.506 1.919 41.579 7.775 14.38 7.229 16.35-8.6 31.008-16.019 14.834-23.079 26.014-25.309 40.082-1.025 6.462-.163 8.634 3.228 8.136 1.666-.244 2.26-1.534 3.295-7.158 2.516-13.681 8.655-22.884 24.923-37.364 16.745-14.905 17.915-20.17 8.558-38.528-8.422-16.523-9.12-25.858-2.519-33.703 4.404-5.233 5.347-4.444 15.204 12.705 11.264 19.6 10.744 18.141 13.785 38.659 3.533 23.838 2.041 31.81-11.688 62.43-9.893 22.063-10.651 28.387-5.926 49.379 1.644 7.305 3.938 21.382 5.099 31.282 1.16 9.9 2.505 19.012 2.989 20.25 1.005 2.572 4.675 3.058 5.565.737 1.27-3.309-4.423-44.225-8.062-57.947-3.383-12.754-2.069-21.79 5.676-39.04 12.277-27.345 15.243-38.762 14.332-55.164-.571-10.27-.393-13.318 1.054-18.093 2.47-8.148 2.683-8.325 9.225-7.665 18.899 1.907 43.953 5.841 46.901 7.366.89.461-.404 2.865-4.33 8.047-8.324 10.987-10.76 16.312-10.188 22.267.833 8.672 4.95 11.976 24.749 19.865 5.775 2.301 17.478 7.463 26.006 11.471 22.341 10.501 28.759 11.272 33.506 4.029.917-1.4 2.531-2.819 3.586-3.154 1.056-.335 5.088-4.403 8.961-9.039 3.872-4.637 7.369-8.43 7.771-8.43.402 0 4.092 4.106 8.2 9.123 16.928 20.676 24.069 25.167 42.002 26.414 16.179 1.125 33.851 8.226 53.546 21.516 7.765 5.239 10.779 6.05 11.889 3.197 1.65-4.24-21.08-18.534-42.899-26.977-7.819-3.025-10.742-3.609-21.219-4.238-10.779-.647-12.7-1.048-17-3.546-7.992-4.643-25.346-24.03-38.744-43.283-6.293-9.044-6.782-9.036-18.043.294-9.1 7.54-10.216 9.008-8.457 11.127 1.896 2.284 3.48 1.628 11.093-4.596l7.302-5.969 2.596 2.996c5.982 6.906 5.981 6.919-2.001 16.397-8.257 9.806-7.036 9.488-20.946 5.466-14.085-4.073-15.538-5.035-14.661-9.707 1.149-6.129 7.352-20.5 12.872-29.828 2.893-4.887 7.025-12.166 9.182-16.175 4.542-8.443 6.431-9.401 13.551-6.872 5.835 2.073 7.53 2.087 8.303.071 1.351-3.52-6.293-7.731-14.229-7.838-6.802-.092-7.439.643-19.445 22.428-22.572 40.956-22.496 46.668.709 53.396 9.847 2.855 10.414 3.159 8.834 4.739-1.725 1.725-10.857-1.571-27.418-9.896-24.887-12.512-25.144-9.413 4.546-54.739 14.662-22.384 18.328-26.5 23.598-26.5 6.858 0 27.584 9.47 53.009 24.22 23.427 13.591 39.513 21.399 53.34 25.89 14.821 4.815 19.148 7.306 25.785 14.846 6.325 7.185 15.736 15.035 26.273 21.914 9.28 6.058 9.602 6.118 9.602 1.81 0-3.051-.7-3.795-8.663-9.204-4.764-3.236-13.877-10.871-20.25-16.967-14.194-13.576-13.977-13.439-29.207-18.494-15.418-5.118-30.175-12.153-50.564-24.104-19.589-11.483-44.176-23.433-51.957-25.255-3.223-.754-8.085-2.785-10.805-4.513-8.337-5.298-16.007-4.474-23.877 2.565-2.95 2.638-4.435 3.299-6.5 2.896-3.975-.776-36.923-2.695-59.177-3.446l-19.5-.658.327-15.844c.203-9.826-.118-17.7-.845-20.73-2.151-8.966-10.642-13.742-22.074-12.415l-5.783.671-.522-3.341c-.286-1.838-.793-8.966-1.126-15.841-1.019-21.064-3.339-46.312-4.593-50C101.467 5.951 93.313 1.466 85.841 5.524m27.577 86.445c-3.069 1.242-7.096 6.442-11.016 14.226-5.245 10.415-3.653 10.985 13.513 4.836 11.899-4.263 14.376-4.304 13.889-.23-.272 2.275-1.391 2.906-10.554 5.955-11.545 3.842-11.707 4.09-7.355 11.244l2.737 4.5H131.5l.641-6c1.012-9.46.954-27.121-.098-29.887-1.791-4.709-12.105-7.281-18.625-4.644M232.5 136.797c-4.601 2.902-30.281 29.831-39.914 41.855-15.695 19.591-15.957 24.05-1.79 30.53 7.27 3.325 7.7 3.232 8.035-1.739.137-2.034.846-5.128 1.577-6.876 2.296-5.495 35.897-56.767 39.488-60.254 3.848-3.737 3.754-4.189-1.022-4.904-2.289-.342-4.339.104-6.374 1.388M120 140.966c0 2.412 7.317 14.035 8.842 14.044 10.313.064 40.848 3.882 56.6 7.077l9.942 2.016 9.558-9.575c7.092-7.106 9.21-9.795 8.209-10.422-1.315-.825-6.405-1.189-43.651-3.123-23.876-1.24-49.5-1.249-49.5-.017" fill-rule="evenodd"/>
</svg>