<!DOCTYPE svg PUBLIC "-//W3C//DTD SVG 1.1//EN" "http://www.w3.org/Graphics/SVG/1.1/DTD/svg11.dtd">
<svg xmlns="http://www.w3.org/2000/svg" viewBox="0 0 313 276">
<path fill="#060606" d="M154.841 8.344c-6.916 3.074-9.605 7.788-10.889 19.092-5.54 48.752-56.149 72.414-97.452 45.563-11.798-7.67-22.061-5.654-27.726 5.446-4.094 8.021-1.426 16.813 7.008 23.098 21.155 15.765 50.724 21.711 78.968 15.878l3.25-.671v71.483l-2.75-.634c-31.335-7.221-53.481-.083-68.617 22.118-16.062 23.56-12.489 50.239 6.768 50.53 9.735.147 15.846-5.808 18.112-17.651 2.314-12.092 6.694-18.116 15.309-21.051 14.62-4.982 28.582 3.66 30.664 18.978 1.056 7.776 2.422 11.231 5.756 14.565 8.095 8.095 21.518 6.296 27.356-3.665l2.402-4.099.05-73.912.05-73.912 9.355-9.867 9.356-9.867 9.559 9.867 9.558 9.867.036 73.782c.04 81.107-.178 78.188 6.18 82.988 11.48 8.667 26.447 2.29 28.386-12.093 1.644-12.205 6.632-19.562 15.346-22.634 15.975-5.633 28.816 3.767 31.671 23.184 1.537 10.461 11.7 17.672 21.252 15.081 25.145-6.822 13.189-52.893-17.851-68.793-12.419-6.361-30.715-8.355-42.448-4.626-2.75.874-5.562 1.594-6.25 1.6-.977.009-1.25-7.775-1.25-35.614V116.75l3.25.66c28.499 5.788 56.012.356 77.922-15.383 10.001-7.184 12.493-17.13 6.471-25.821-6.533-9.426-15.085-10.23-27.702-2.604-27.909 16.87-56.626 13.925-78.441-8.045-10.965-11.043-15.761-21.265-17.609-37.531-1.903-16.743-12.654-25.19-25.05-19.682" fill-rule="evenodd"/>
</svg>