<!DOCTYPE svg PUBLIC "-//W3C//DTD SVG 1.1//EN" "http://www.w3.org/Graphics/SVG/1.1/DTD/svg11.dtd">
<svg xmlns="http://www.w3.org/2000/svg" viewBox="0 0 553 547">
<path d="M276.197 13.461c-83.054 18.911-94.796 130.364-17.411 165.259 3.143 1.417 5.812 2.645 5.931 2.729.12.084-1.304 17.68-3.165 39.102-1.86 21.422-3.297 39.035-3.193 39.14.105.105 6.704-16.423 14.665-36.73L287.5 186.04l6.119-.02c54.05-.176 95.666-50.209 85.478-102.765-6.478-33.418-30.781-59.645-63.701-68.746-8.333-2.304-31.02-2.911-39.199-1.048M273 29.551c-20.298 4.347-39.891 20.166-49.482 39.949-24.905 51.373 14.355 110.658 70.982 107.188 64.642-3.961 94.273-81.249 48.585-126.73-18.91-18.825-43.729-26.051-70.085-20.407m-18.338 29.286c-7.404 7.448-7.659 7.856-5.901 9.447 1.743 1.577 2.239 1.261 9.577-6.121 7.404-7.448 7.659-7.856 5.901-9.447-1.743-1.577-2.239-1.261-9.577 6.121m7.503 7.786-7.256 6.622 6.31 6.628c3.47 3.645 12.487 13.127 20.037 21.072l13.727 14.446 2.813-2.696c1.547-1.482 3.072-2.695 3.388-2.695.316 0 7.925 7.763 16.907 17.25 8.983 9.488 16.8 17.25 17.371 17.25 2.671 0-.074-3.531-14.522-18.683-18.771-19.686-17.839-18.27-14.397-21.862l2.761-2.882-19.402-20.432c-10.671-11.238-19.645-20.48-19.941-20.537-.297-.057-3.805 2.876-7.796 6.519m2.883 2.829-4.369 4.451 13.074 13.798c7.191 7.59 14.892 15.558 17.115 17.707l4.04 3.908 4.546-3.725 4.546-3.725-3.25-3.877-3.25-3.876-2.569 2.457c-3.392 3.244-4.687 1.829-1.434-1.566l2.524-2.636-2.51-2.358L291 87.651l-2.496 2.345c-3.267 3.07-4.548 1.744-1.475-1.527l2.371-2.524-2.586-2.586-2.587-2.586-2.113 2.113c-3.174 3.174-4.902 2.546-1.828-.663l2.661-2.777-2.244-2.612-2.244-2.611-2.941 2.344c-3.844 3.065-4.611 2.184-1.199-1.378l2.673-2.791-3.788-3.699L269.416 65l-4.368 4.452m-172.829 2.94C80.414 76.863 72.801 83.652 67.426 94.5c-18.962 38.271 20.271 77.805 59.154 59.609 10.901-5.101 21.959-18.642 23.939-29.314.785-4.232 2.211-3.592-13.849-6.219-15.34-2.51-29.038-7.74-34.92-13.335-4.182-3.977-3.508-5.831 1-2.751 17.686 12.085 71.303 10.042 79.877-3.044 5.147-7.854-12.9-16.036-36.548-16.568-6.955-.157-7.74-.41-12.5-4.031-11.366-8.645-28.512-11.321-41.36-6.455m338.194-.568c-34.863 12.051-41.434 58.97-11.095 79.229 42.279 28.233 90.846-24.173 59.987-64.728-10.195-13.399-32.738-20.085-48.892-14.501M57.487 172.779c-27.174 9.504-43.747 43.023-48.538 98.168-1.846 21.24-.88 77.686 1.407 82.287 5.522 11.107 21.705 11.08 27.32-.045 2.123-4.208 2.162-4.975 1.605-32-.92-44.635 3.262-79.685 11.746-98.459 1.894-4.19 1.915-2.794 2.192 148.77l.281 153 2.329 4.728c9.127 18.532 35.478 17.798 44.09-1.228 2.002-4.422 2.037-6.102 2.059-97.25L102 338h10l.01 92.75.01 92.75 2.347 5.041c6.989 15.009 25.618 18.867 38.375 7.948 8.412-7.201 7.695 6.566 8.258-158.489l.5-146.5 2.205 11c1.212 6.05 2.71 14.825 3.329 19.5 2.366 17.893 5.541 24.296 18.165 36.636 11.215 10.961 32.841 26.419 49.286 35.229 4.812 2.578 13.022 2.869 16.292.578 2.653-1.858 2.993-3.973.473-2.939-.963.395-2.241.781-2.84.857-.6.076-5.776-8.938-11.503-20.032-9.461-18.326-10.871-20.515-15.41-23.924-8.567-6.432-19.515-16.536-20.892-19.28-.724-1.444-1.876-6.9-2.558-12.125-5.688-43.539-18.718-71.495-38.266-82.094L153.5 171.5l-45.5-.237c-41.173-.215-45.977-.071-50.513 1.516m338.421.111c-21.901 8.569-35.912 35.999-42.363 82.937-.856 6.23-1.981 12.118-2.498 13.086-3.052 5.702-23.297 21.828-40.938 32.61-14.311 8.746-16.311 10.873-16.9 17.967-.837 10.1 6.181 17.14 16.255 16.305 11.488-.953 52.958-30.077 64.394-45.224 6.76-8.953 8.822-14.524 10.634-28.728.888-6.962 2.667-16.862 3.953-22l2.339-9.343.108 146.782c.119 162.002-.35 150.466 6.409 157.59 11.92 12.566 32.696 9.366 39.724-6.118 1.857-4.09 1.932-7.383 1.953-85.504L439 362h9.922l.289 81.25.289 81.25 2.38 4.835c7.247 14.719 28.242 17.933 39.241 6.007 7.006-7.598 6.323 8.617 6.879-163.298l.5-154.544 3.261 8.832c7.824 21.192 10.58 44.609 10.671 90.668.073 37.1.017 36.675 5.511 41.298 7.309 6.151 18.441 3.466 22.9-5.522 5.128-10.336 3.939-79.043-1.891-109.28-7.489-38.841-23.365-63.91-44.635-70.48-9.477-2.927-90.983-3.031-98.409-.126M233.75 280.051c-5.556 2.881-6.752 4.212-4.842 5.392 1.271.786 14.162-5.72 13.757-6.943-.62-1.874-3.159-1.433-8.915 1.551m3.75 6.617c-2.75 1.417-5.159 2.718-5.353 2.891-.195.173 3.63 8.241 8.5 17.929l8.853 17.614 3.025-.554c3.018-.553 3.042-.521 10.473 14.449 6.688 13.47 9.002 17.067 9.002 13.991 0-.557-3.378-7.757-7.506-16-4.129-8.244-7.14-14.988-6.691-14.988.448 0 1.618-.587 2.599-1.305 1.661-1.214 1.172-2.535-7.045-19-4.857-9.732-9.286-17.674-9.844-17.648-.557.025-3.263 1.205-6.013 2.621m1.234 2.445-3.766 1.951 7.666 15.218c4.216 8.37 7.833 15.415 8.036 15.655.204.241 2.147-.434 4.317-1.5l3.947-1.937-7.571-15c-9.079-17.988-8.017-16.777-12.629-14.387" fill-rule="evenodd"/>
</svg>