<!DOCTYPE svg PUBLIC "-//W3C//DTD SVG 1.1//EN" "http://www.w3.org/Graphics/SVG/1.1/DTD/svg11.dtd">
<svg xmlns="http://www.w3.org/2000/svg" viewBox="0 0 296 450">
<path d="M142.781 9.89c-9.23 3.703-15.895 10.957-19.392 21.106-.884 2.568-1.649 14.707-2.341 37.159-.565 18.34-1.302 39.722-1.638 47.517l-.61 14.171-4.65-2.089c-6.719-3.019-19.883-3.064-26.326-.09C79.692 131.417 69 143.48 69 148.902c0 .532-.444 2.135-.986 3.56l-.985 2.593-4.183-2.133c-15.883-8.103-38.337 1.121-44.708 18.366-3.588 9.711-3.002 14.687 4.306 36.544l6.444 19.275-1.885 8.697c-5.748 26.513-7.448 60.209-3.668 72.696 4.159 13.739 13.695 26.845 34.297 47.137L73 370.774v63.317l2.455 2.454c3.518 3.519 9.632 3.431 12.472-.18 2.01-2.554 2.073-3.73 2.073-38.558v-35.924l-4.694-4.191C69.756 343.804 61.902 336.035 53.269 326c-5.339-6.206-11.29-16.264-12.899-21.8-2.669-9.179-1.9-32.436 1.786-54.044 1.195-7.004.324-6.608 9.344-4.249 13.273 3.469 28.573-2.457 35.623-13.798l3.022-4.862 4.678 1.761c17.34 6.528 35.321-.328 42.715-16.287 3.743-8.08 3.923-13.364 1.035-30.357-3.07-18.059-3.078-18.787-.999-89.364 1.533-52.028 1.704-54.704 3.766-58.999 5.164-10.754 18.202-12.276 25.98-3.032 3.749 4.454 3.395-1.962 5.181 94.031.281 15.125.765 33.376 1.076 40.558.493 11.424.287 14.115-1.649 21.5-3.391 12.933-3.029 20.48 1.487 31.043.574 1.343-.362 1.698-5.816 2.208-29.566 2.76-55.003 25.302-68.241 60.472-3.472 9.225-.677 15.266 7.027 15.187 4.659-.047 6.198-1.774 10.758-12.072 15.181-34.281 38.177-50.567 65.21-46.183l4.853.787.15 9c.133 7.97.493 9.62 3.147 14.422 6.8 12.304 26.501 22.074 32.472 16.103 5.438-5.438 3.337-11.086-5.832-15.669-18.372-9.185-17.058-21.512 4.388-41.163 27.659-25.345 43.062-23.654 50.531 5.548 4.469 17.474 2.075 23.149-20.996 49.759-15.597 17.99-22.368 27.919-30.381 44.547-10.841 22.498-24.522 35.46-44.701 42.35C165.582 366.949 163 369.058 163 374c0 7.196 5.968 9.896 15.365 6.949 3.374-1.058 6.698-1.929 7.385-1.936.97-.01 1.25 6.12 1.25 27.352 0 25.906.107 27.502 2.012 29.923 4.188 5.324 12.663 3.953 14.88-2.407.719-2.064 1.108-14.122 1.108-34.373v-31.193l6.198-5.242c11.668-9.867 17.108-17.32 25.738-35.266 7.107-14.778 12.107-22.018 27.488-39.807 13.489-15.599 21.377-26.988 24.591-35.5 7.431-19.683-3.544-53.107-20.747-63.189-5.172-3.031-17.009-4.305-23.457-2.525-4.965 1.371-4.972 1.341-2.148-9.111 3.216-11.907 3.002-22.757-.596-30.098-8.004-16.331-27.804-22.899-44.405-14.73-3.741 1.841-6.94 3.191-7.11 3-.17-.191-.802-22.847-1.405-50.347-1.235-56.281-1.323-56.96-8.498-65.763-8.539-10.474-25.383-14.854-37.868-9.847m-45.99 133.098c-11.92 3.594-13.009 8.485-8.269 37.144 2.858 17.284 4.344 23.857 5.921 26.197 8.58 12.733 26.94 8.706 28.295-6.207.42-4.613-5.648-43.251-7.557-48.122-1.408-3.594-6.281-7.881-10.25-9.02-3.891-1.116-4.412-1.115-8.14.008m110.864 4.459c-8.342 3-8.841 3.998-15.626 31.266-6.556 26.35-6.336 30.367 1.97 36.037 4.839 3.303 5.634 2.972 15.728-6.548l9.226-8.702 4.517-17.5c5.162-19.999 5.329-22.031 2.263-27.444-3.761-6.64-11.222-9.574-18.078-7.109M42.274 169.093c-4.491 2.224-7.632 6.388-8.727 11.574-.883 4.18 10.393 38.92 14.04 43.254C56.854 234.934 75 228.327 75 213.94c0-4.271-10.51-35.927-13.27-39.971-4.573-6.698-12.009-8.562-19.456-4.876" fill-rule="evenodd"/>
</svg>