<!DOCTYPE svg PUBLIC "-//W3C//DTD SVG 1.1//EN" "http://www.w3.org/Graphics/SVG/1.1/DTD/svg11.dtd">
<svg xmlns="http://www.w3.org/2000/svg" viewBox="0 0 580 571">
<path fill="#121212" d="M280.5 5.594c-28.06 2.845-38.463 4.801-56 10.531-71.582 23.39-117.309 90.558-115.305 169.375l.305 12h8l.677-15.5c.372-8.525 1.151-18.65 1.73-22.5.579-3.85 1.062-7.514 1.073-8.142.011-.627 1.095-1.411 2.41-1.741 3.332-.836 4.07-3.501 1.818-6.562-2.211-3.007-1.443-7.703 3.897-23.82 7.922-23.909 29.81-32.699 59.645-23.953 4.537 1.33 8.25 2.265 8.25 2.079 0-1.874-30.298-14.231-40.25-16.417-3.163-.694-5.75-1.487-5.75-1.761 0-1.123 8.258-11.045 13.422-16.126l5.533-5.444 5.772 2.345c7.848 3.188 26.983 12.556 28.904 14.151 2.465 2.046 8.175-6.614 10.292-15.609.518-2.2 1.238-4.969 1.601-6.154.515-1.684.149-2.313-1.683-2.887-1.287-.403-4.141-1.951-6.341-3.44-2.2-1.488-5.912-3.538-8.25-4.555-4.516-1.964-5.18-2.893-2.741-3.829 2.017-.774 5.383.595 12.227 4.973 3.129 2.002 7.394 3.868 9.477 4.147 4.436.595 4.325.27 1.787 5.245-1.1 2.156-2.011 4.726-2.024 5.71-.041 3.111-4.57 12.99-7.86 17.144-3.528 4.454-2.948 5.681 1.89 3.994 2.198-.766 6.004-.863 11.865-.303 4.746.453 11.217.791 14.379.751 3.658-.047 5.763.34 5.785 1.065.02.626.25 5.381.513 10.567.331 6.545.014 11.232-1.036 15.33-.831 3.247-1.512 6.092-1.512 6.323 0 .939 2.445.328 3.921-.98 3.221-2.853 8.924-5.42 14.667-6.602 3.252-.669 7.609-1.843 9.682-2.608 4.79-1.767 4.73-1.776 4.73.659 0 3.285 2.884 8.016 8.787 14.414 5.02 5.44 10.179 14.18 10.203 17.286.006.688.685 1.25 1.51 1.25s1.5-.69 1.5-1.533c0-3.073 5.109-11.494 10.999-18.13 5.366-6.044 7.978-11.014 7.995-15.209.005-1.117.291-1.137 1.53-.108.838.696 1.792.997 2.119.67.327-.327 1.273.084 2.102.913.83.829 2.463 1.415 3.631 1.303 1.168-.112 2.799.054 3.624.369.825.315 3.3 1.109 5.5 1.763 2.2.655 6.155 2.547 8.788 4.205 5.907 3.719 6.248 3.41 4.165-3.757-1.309-4.504-1.493-7.358-.859-13.357.444-4.196.692-9.001.551-10.677l-.255-3.048 6.305-.073c3.468-.04 9.984-.411 14.48-.826 5.419-.499 9.274-.37 11.436.384 5.14 1.792 5.701-.122 1.481-5.052-2.675-3.126-4.502-6.952-6.708-14.053-1.667-5.366-3.448-10.014-3.957-10.329-1.986-1.228-.769-2.455 2.433-2.455 1.944 0 4.928-1.064 7.078-2.522 7.917-5.373 13.16-7.493 15.072-6.094 1.593 1.164 1.356 1.452-2.441 2.972-2.312.925-6.53 3.248-9.373 5.163-2.843 1.915-5.787 3.481-6.541 3.481-1.384 0-.84 4.839.674 5.99.369.28.812 1.86.984 3.51.441 4.232 4.669 12.771 7.036 14.208 1.629.989 2.41.889 4.32-.555 2.748-2.078 22.642-11.796 28.171-13.762 5.225-1.858 8.183.293 19.989 14.539 4.48 5.406 4.501 5.735.421 6.6-10.965 2.326-44.022 15.532-42.553 17 .171.172 4.112-.789 8.757-2.134 26.079-7.553 48.968-.562 56.594 17.287 5.648 13.218 9.759 29.317 7.487 29.317-3.855 0-3.119 6.427.898 7.827 2.186.762 2.906 1.78 3.406 4.82 1.383 8.408 2.867 31.14 2.382 36.488l-.514 5.668 3.092.454c7.185 1.055 7.061 1.396 6.408-17.662C481.479 85.43 422.337 19.61 330.078 7.507c-11.523-1.512-41.954-2.686-49.578-1.913m-17.339 12.953C259.941 25.612 266.452 33 275.897 33h3.997l-.155 3.896c-.384 9.618 11.177 10.948 14.249 1.639 1.541-4.667 3.133-4.462 5.538.715 3.788 8.156 12.517 7.341 13.474-1.258l.5-4.492 5.088-.621c8.608-1.051 13.539-6.252 11.946-12.6-1.026-4.088-7.546-6.314-8.872-3.029-.403 1-.52 1-.583 0-.043-.687-.743-1.25-1.554-1.25-1.026 0-1.37.837-1.129 2.75.19 1.512.141 2.163-.109 1.445-.767-2.2-2.744-.703-2.971 2.249-.235 3.064-1.316 4.889-1.316 2.223 0-.917-.723-1.667-1.607-1.667-1.002 0-1.395.553-1.044 1.468.31.807.133 1.734-.393 2.059-.526.325-.956.114-.956-.468 0-1.991-2.048-1.063-2.963 1.344-.503 1.321-1.39 2.697-1.972 3.057-.731.452-.764-.122-.105-1.855 1.232-3.241-1.094-2.576-3.423.979-.871 1.329-2.135 2.38-2.81 2.337-.945-.061-.939-.195.023-.583 1.502-.606 1.681-3.338.219-3.338-.568 0-1.291.675-1.607 1.5-.317.825-.978 1.5-1.469 1.5-.491 0-.893-.675-.893-1.5 0-1.941-.904-1.897-3.171.155-1.718 1.555-1.829 1.524-1.829-.5 0-2.238-1.424-2.896-2.5-1.155-.974 1.576-2.501 1.166-1.862-.5.358-.932-.005-1.5-.958-1.5-.843 0-1.732.788-1.976 1.75-.302 1.193-.683.716-1.198-1.5-.79-3.394-1.46-3.896-3.064-2.292-.603.603-1.512.609-2.45.016-.996-.63-1.076-.948-.242-.959.688-.008 1.25-.71 1.25-1.559 0-.909-.71-1.423-1.726-1.25-1.131.193-1.735-.367-1.75-1.62-.013-1.053-.655-2.125-1.426-2.384-1.01-.339-1.245.126-.843 1.665.307 1.175.15 1.884-.348 1.575-.499-.308-.907-1.208-.907-2.001 0-2.662-5.53-1.767-6.839 1.106m-10.411-.24c-3.162.559-5.75 1.394-5.75 1.855 0 .461-.623.838-1.383.838-2.118 0-2.64 5.102-.9 8.794 1.86 3.947 5.465 5.992 11.397 6.468 3.247.26 4.277.726 3.967 1.795-2.789 9.601 2.848 17.236 11.803 15.987 2.49-.348 6.212.992 5.583 2.009-.972 1.573 1.751 6.725 4.264 8.071 3.033 1.623 9.615.073 10.082-2.374.189-.994-.273-1.75-1.071-1.75-.772 0-2.006-1.125-2.742-2.5-.736-1.375-1.937-2.568-2.669-2.65a99.02 99.02 0 0 0-2.581-.25c-1.494-.119-4.716-3.455-4.833-5.003-.539-7.089-1.99-11.566-4.119-12.705-1.559-.834-1.863-.806-1.291.119.411.666-1.672-.323-4.63-2.198-6.266-3.973-9.11-8.598-8.644-14.063.176-2.062.083-3.685-.207-3.605-.289.08-3.114.603-6.276 1.162M334 21.324c0 4.221-1.78 8.665-4.185 10.448-.944.7-2.36 1.916-3.147 2.703-.786.786-1.694 1.165-2.018.842-.323-.323-1.782.195-3.242 1.151-1.46.957-2.35 1.248-1.979.647.411-.666.11-.875-.774-.536-1.245.478-2.591 5.388-3.211 11.713-.214 2.19-4.42 6.841-5.553 6.141-.45-.278-1.704.38-2.788 1.464-1.083 1.083-3.132 2.731-4.554 3.663-2.467 1.616-1.916 5.403.564 3.87.488-.301.887-.071.887.511 0 1.474 6.26 1.329 8.274-.191.91-.687 2.24-3.05 2.955-5.25 1.116-3.434 1.722-4.016 4.285-4.115 1.642-.064 4.044-.176 5.336-.25 1.292-.074 3.931-1.716 5.864-3.649 3.378-3.378 3.488-3.716 2.852-8.801l-.66-5.288 4.273-.253c8.317-.49 13.479-5.605 12.185-12.073-.726-3.633-2.54-4.627-10.325-5.66L334 17.742v3.582m-99.5 1.47c-4.404 1.502-5.159 2.183-6.331 5.706-3.92 11.783 2.152 21.039 14.694 22.398 5.529.6 5.555.618 6.38 4.6 1.174 5.663 5.28 11.093 10.184 13.467 8.79 4.255 24.056 1 18.181-3.876-.766-.635-1.946-2.49-2.622-4.122-.91-2.198-1.893-2.967-3.792-2.967-7.536 0-15.183-7.166-15.19-14.236-.004-3.578-.189-3.782-4.397-4.841-6.755-1.701-10.873-6.516-11.003-12.865-.057-2.775-.329-5.029-.604-5.008-.275.021-2.75.805-5.5 1.744m118.208.199c1.683 6.433-3.652 14-11.211 15.904-4.268 1.074-4.497 1.312-4.497 4.667 0 8.388-5.96 13.353-17.25 14.369-.413.037-.75.639-.75 1.339s-1.388 2.957-3.085 5.015l-3.086 3.744 3.553 1.484c11.661 4.873 25.75-2.626 27.35-14.557l.501-3.734 5.897-.427c12.151-.879 18.264-10.073 14.672-22.065-1.215-4.053-3.258-5.509-9.957-7.094-2.289-.542-2.584-.355-2.137 1.355m-57.86 21.814c-.84 1.199-1.825 1.883-2.188 1.52-.363-.363-.712.427-.776 1.756-.071 1.489-.283 1.79-.551.784-.35-1.314-1.11-1.481-3.884-.856-2.065.466-3.449.396-3.449-.175 0-.525-.412-.7-.915-.389-.503.311-1.142 0-1.421-.691-.348-.863-.526-.787-.57.244-.035.825.373 2.175.906 3 .533.825.976 1.174.985.775.008-.399 1.11-.309 2.448.2 1.707.648 2.579.566 2.921-.275.269-.66.524-.161.567 1.109.043 1.27.529 2.031 1.079 1.691.55-.34 1 .273 1 1.362 0 1.366.889 2.174 2.872 2.61 3.035.667 8.128-.205 8.128-1.392 0-1.393 4.141-5.111 5.06-4.543.517.319.94.029.94-.645s.279-.947.619-.606c.593.592 3.381-1.595 3.381-2.652 0-.281-.9-.442-2-.359-1.1.083-2 .531-2 .997 0 .465-.45.568-1 .228-.55-.34-1.007-.029-1.015.691-.011.948-.277.896-.964-.191-1.229-1.944-3.337-1.954-4.201-.021-.452 1.013-.703.602-.75-1.229-.042-1.673-.625-2.75-1.487-2.75-.779 0-1.594-.534-1.812-1.187-.24-.72-.996-.329-1.923.994m-68.766 5.606c-1.212 1.29-3.128 5.438-4.258 9.216-1.13 3.779-2.903 8.541-3.939 10.581-1.037 2.041-1.885 3.891-1.885 4.111 0 .436 15.894 1.853 22.696 2.024 4.531.114 8.311-2.471 10.74-7.345 1.084-2.177.9-3.178-1.429-7.742l-2.674-5.242-7.246 4.992C231.096 65.824 228 67.061 228 65.037c0-.529 2.672-2.777 5.938-4.995 7.619-5.174 7.835-5.636 3.321-7.1-2.067-.671-4.932-2.042-6.366-3.047-2.563-1.797-2.645-1.788-4.811.518m72.113.087c.02 1.65.244 2.204.498 1.231.254-.973.237-2.323-.037-3-.274-.677-.481.119-.461 1.769m60.01 1.078-6.294 3.183 6.544 4.67c3.6 2.568 6.545 5.097 6.545 5.62 0 1.992-2.935.774-9.868-4.095-6.768-4.752-9.132-5.434-9.132-2.632 0 .663-.881 2.849-1.957 4.857l-1.957 3.651 2.207 3.242c4.425 6.5 6.801 7.488 14.735 6.128 3.855-.661 9.524-1.202 12.598-1.202 4.096 0 5.442-.334 5.04-1.25-3.73-8.511-5.623-13.576-5.642-15.099-.035-2.739-2.771-8.019-4.774-9.213-1.354-.807-3.173-.324-8.045 2.14m-65.01-.078c.02 1.65.244 2.204.498 1.231.254-.973.237-2.323-.037-3-.274-.677-.481.119-.461 1.769m.455 13.56c-1.44 1.134-4.201 2.317-6.134 2.631C279.123 69.053 286.921 78 296.5 78c9.999 0 17.182-8.996 8.315-10.414-2.442-.39-4.756-1.484-5.557-2.627-1.723-2.461-2.365-2.449-5.608.101m-128.61 4.392c-2.657 3.201 1.245 8.118 4.71 5.936C173.212 73.207 171.979 68 168 68c-.965 0-2.297.653-2.96 1.452m257 0c-2.657 3.201 1.245 8.118 4.71 5.936C430.212 73.207 428.979 68 425 68c-.965 0-2.297.653-2.96 1.452m-83.642.848c-.993 1.081 3.603 5.779 5.546 5.668.306-.017-.659-.938-2.144-2.047-1.599-1.193-2.474-2.608-2.143-3.468.665-1.735.241-1.787-1.259-.153M252.5 73c-1.65 1.093-2.55 1.98-2 1.971 1.003-.016 6.44-3.913 5.5-3.942-.275-.009-1.85.878-3.5 1.971m25.613-.636c-.693.834-1.856 1.288-2.585 1.008-.729-.279-1.597-.07-1.928.466-.331.536-1.463.749-2.515.474-2.427-.635-4.366 2.722-3.519 6.094.966 3.851 3.671 5.592 11.871 7.641 8.157 2.038 11.276 3.837 14.213 8.2 2.249 3.34 3.628 3.471 5.22.495 1.941-3.626 7.82-7.019 15.492-8.941 13.288-3.33 15.99-12.175 4.377-14.33-2.069-.384-4.008-1.097-4.309-1.584-.954-1.543-2.271-.964-2.995 1.316-.817 2.575-2.838 4.797-4.364 4.797-.589 0-1.071.477-1.071 1.059s-.419.8-.931.484c-.512-.317-1.218-.111-1.569.457-.351.568-1.029.791-1.508.495-.478-.295-1.333.26-1.9 1.234-.679 1.166-1.042 1.307-1.062.412-.021-.962-1.055-1.24-3.53-.951-1.925.225-3.5.001-3.5-.498 0-.498-.675-.647-1.5-.33-.825.316-1.5.091-1.5-.5 0-.592-.675-.817-1.5-.5-.825.316-1.517.252-1.538-.143-.02-.396-1.512-2.441-3.314-4.545-2.841-3.319-3.443-3.625-4.535-2.31M334 72.313c0 .247 1.652 1.71 3.671 3.25s3.356 2.289 2.97 1.665c-.791-1.28-6.641-5.609-6.641-4.915m-78.128 2.437c-1.269 1.619-1.222 1.64.628.283 1.1-.807 2.188-1.594 2.417-1.75.229-.156-.054-.283-.628-.283s-1.662.787-2.417 1.75m78.844 2.291c2.318 2.399 4.413 4.158 4.655 3.91.241-.248-1.656-2.21-4.216-4.361l-4.655-3.91 4.216 4.361M180 76c-1.496 2.795.374 6 3.5 6s4.996-3.205 3.5-6c-.619-1.158-2.094-2-3.5-2-1.406 0-2.881.842-3.5 2m77.5 1.61-4 3.579 4.25-3.178c3.658-2.736 4.977-4.054 4-3.996-.137.008-2.05 1.626-4.25 3.595m70.5-2.791c0 1.208 1.897 2.617 2.591 1.924.251-.252-.229-1.027-1.067-1.723-.95-.789-1.524-.865-1.524-.201m78.571.752c-1.859 1.86-1.875 1.993-.536 4.495 1.84 3.438 7.965 1.57 7.965-2.429 0-1.045-3.207-3.637-4.5-3.637-.746 0-2.064.707-2.929 1.571M251.872 77.75c-1.243 1.586-1.208 1.621.378.378.963-.755 1.75-1.543 1.75-1.75 0-.823-.821-.294-2.128 1.372m7.06 3.013-3.432 3.733 3.495-2.998c1.922-1.649 3.685-3.11 3.917-3.248.232-.138.203-.468-.064-.735-.266-.267-2.029 1.195-3.916 3.248m73.941-1.013c.519.963 2.188 2.875 3.71 4.25 2.429 2.194 2.359 1.981-.575-1.75-3.52-4.475-4.712-5.426-3.135-2.5M343 79.378c0 .207.788.995 1.75 1.75 1.586 1.243 1.621 1.208.378-.378-1.307-1.666-2.128-2.195-2.128-1.372M218.5 83c.995 1.1 2.206 2 2.69 2s.399-.9-.19-2-1.799-2-2.69-2c-1.43 0-1.408.235.19 2m3.539.155c1.581 3.062 4.97 6.764 7.379 8.062 1.567.844-1.291-5.781-3.814-8.843-.057-.069-1.155-.449-2.44-.844-2.184-.673-2.257-.567-1.125 1.625M330 81.613c0 .557 1.461 2.335 3.246 3.95l3.247 2.937-2.482-3a637.712 637.712 0 0 1-3.246-3.95c-.475-.59-.765-.566-.765.063m40.185.251c-.723.459-2.308.644-3.523.412-1.85-.354-2.848.715-6.159 6.593-2.174 3.859-4.105 6.862-4.293 6.674-.188-.187 1.038-2.785 2.724-5.773 3.497-6.195 3.631-6.77 1.58-6.77-.817 0-2.848 2.7-4.514 6-1.666 3.3-3.255 6-3.531 6-.277 0 .63-2.235 2.014-4.967 3.066-6.05 3.066-6.056.231-5.821-2.547.21-2.641.513-3.113 10.038-.352 7.109.325 8.403 2.22 4.244.628-1.379 1.488-2.408 1.91-2.288 1.796.511 5.239-2.484 8.249-7.175 1.776-2.767 3.458-5.031 3.739-5.031.281 0-.252 1.164-1.184 2.587-2.607 3.979-1.297 3.809 3.292-.427 2.288-2.112 4.46-3.575 4.827-3.25.366.324.343.028-.053-.66-.827-1.438-2.523-1.586-4.416-.386m-176.25 2.258c-1.54 2.877 2.129 6.958 4.762 5.297 2.911-1.836 3.825-4.085 2.373-5.835-1.888-2.275-5.787-1.981-7.135.538M227 82.619c0 1.551 7.175 12.185 10.04 14.881l3.189 3-2.751-5.486C233.187 86.456 230.109 82 228.487 82c-.818 0-1.487.279-1.487.619m165.04.833c-1.539 1.855-.477 5.275 1.87 6.02 3.978 1.262 6.949-1.999 5.051-5.544-1.215-2.272-5.203-2.546-6.921-.476M235.627 89.75c5.582 10.118 6.683 11.513 6.111 7.75-.25-1.65-.82-3.861-1.267-4.914-.612-1.446-.491-1.716.497-1.105 1.035.639 1.156-.004.58-3.079-.891-4.746-1.268-5.402-3.107-5.402-1.816 0-1.803.4.142 4.16.87 1.683 1.154 2.795.63 2.472-.524-.324-1.516-1.949-2.204-3.611-.781-1.884-1.977-3.021-3.179-3.021-1.726 0-1.538.706 1.797 6.75m23.245-3c-1.243 1.586-1.208 1.621.378.378 1.666-1.307 2.195-2.128 1.372-2.128-.207 0-.995.787-1.75 1.75m70.098.194c.573 1.07 1.535 2.25 2.139 2.623.604.374.325-.501-.62-1.944-2.002-3.055-3.038-3.518-1.519-.679m-66.098.806c-1.243 1.586-1.208 1.621.378.378 1.666-1.307 2.195-2.128 1.372-2.128-.207 0-.995.787-1.75 1.75M337.5 91c.995 1.1 2.035 2 2.31 2 .275 0-.315-.9-1.31-2-.995-1.1-2.035-2-2.31-2-.275 0 .315.9 1.31 2m-129.414.397c-.682.821-1.092 2.53-.913 3.798.409 2.882 5.498 3.274 7.213.555 2.297-3.641-3.542-7.676-6.3-4.353m62.478.31c-.542 1.425-.428 1.54.56.56.684-.679.991-1.486.683-1.793-.308-.308-.867.247-1.243 1.233m109.007-.136c-2.43 2.431-1.76 5.549 1.429 6.644 4.26 1.462 7.041-5.052 3.066-7.18-2.502-1.339-2.635-1.323-4.495.536m-104.617 1.515c-.614 1.147-.928 2.274-.697 2.504.23.23.932-.708 1.559-2.086 1.378-3.024.707-3.35-.862-.418m42.077-1.586c0 .55.436 1.675.969 2.5.533.825.969 1.05.969.5s-.436-1.675-.969-2.5c-.533-.825-.969-1.05-.969-.5m-35.41 2.719c-1.432 2.227-2.075 6.039-1.772 10.493.083 1.217 2.668 5.033 5.744 8.48 3.076 3.447 6.73 8.209 8.12 10.582l2.528 4.314 3.48-5.294c1.914-2.912 5.685-7.63 8.379-10.484 5.47-5.795 6.526-11.264 3.358-17.391l-1.542-2.982-3.084 1.781c-3.716 2.147-7.55 7.624-8.435 12.048-.834 4.171-3.047 4.161-3.909-.016-.935-4.528-4.661-9.918-8.319-12.031-3.034-1.753-3.105-1.745-4.548.5m41.41-.719c0 .55.436 1.675.969 2.5.533.825.969 1.05.969.5s-.436-1.675-.969-2.5c-.533-.825-.969-1.05-.969-.5m-102.996 8.434c-1.339 2.502-1.323 2.635.536 4.495 3.556 3.555 8.777-.041 6.429-4.429-1.38-2.579-5.598-2.619-6.965-.066M366 102c-1.496 2.795.374 6 3.5 6s4.996-3.205 3.5-6c-.619-1.158-2.094-2-3.5-2-1.406 0-2.881.842-3.5 2m-213 2.679c-24.972 9.075-27.025 35.396-4.51 57.821 26.43 26.323 66.144 32.736 74.078 11.962 7.81-20.452-33.556-54.653-55.488-45.877-13.384 5.355-6.541 25.997 11.704 35.305 6.116 3.12 7.112 2.568 2.494-1.384-15.908-13.617-13.68-30.36 3.531-26.532 19.97 4.44 33.908 21.763 27.349 33.991-12.337 23.005-78.268-10.503-75.939-38.593 1.225-14.777 21.354-24.912 41.419-20.856l3.862.781-4 .862c-6.596 1.422-9.5 2.939-9.5 4.962 0 2.355 2.477 2.427 7.628.22 5.102-2.185 18.571-2.286 23.372-.175l3.5 1.538-5.104-.465c-5.535-.505-9.637.969-8.796 3.16.373.973 3.176 1.493 9.712 1.801 7.474.353 10.167.937 14.438 3.134 6.618 3.403 6.713 4.03.239 1.57-7.558-2.872-14.076-2.178-12.72 1.355.388 1.011 2.676 1.611 7.44 1.952 8.225.589 17.774 4.537 21.942 9.074l2.849 3.099-2.914-1.822c-7.451-4.661-9.547-5.595-13.89-6.19-3.814-.523-4.773-.335-5.3 1.038-.893 2.327-.408 2.599 6.348 3.554 16.525 2.336 24.188 11.282 34.724 40.536 8.764 24.338 11.448 28.5 18.377 28.5 9.217 0 9.622-10.672 1.095-28.87-16.277-34.734-45.495-62.192-77.94-73.246-11.784-4.015-31.96-5.127-40-2.205m258.069-.591c-13.688 2.685-31.715 11.218-45.294 21.44-34.556 26.013-63.843 83.872-42.454 83.872 6.483 0 9.216-4.124 17.165-25.9 11.377-31.169 19.116-41.06 33.672-43.036 7.527-1.022 8.842-1.463 8.842-2.964 0-3.981-9.636-2.272-17.577 3.117-4.952 3.36-5.429 2.358-.724-1.522 4.91-4.051 13.123-7.113 21.289-7.939 4.911-.497 6.565-1.059 6.805-2.314.475-2.477-4.349-3.121-10.792-1.44-7.11 1.855-7.336 1.433-.781-1.46 3.878-1.711 7.516-2.403 13.702-2.607 4.631-.153 8.884-.741 9.45-1.307 1.991-1.991-1.307-3.529-7.488-3.492l-6.012.036 3.814-1.346c5.707-2.014 16.3-1.895 22.621.253 7.259 2.467 10.434 1.447 6.387-2.052-1.543-1.335-4.018-2.459-5.5-2.497-6.267-.164-6.785-1.668-.838-2.433 32.79-4.22 50.401 18.563 31.797 41.134-6.727 8.161-23.555 18.863-36.858 23.44-35.54 12.227-46.792-19.416-12.709-35.743 21.978-10.528 31.281 3.245 14.311 21.188-5.633 5.956-5.51 6.632.611 3.352 17.428-9.341 24.459-27.728 13.157-34.408-13.402-7.921-46.901 9.813-56.178 29.739-6.958 14.948 2.513 27.925 20.438 28.002 23.216.1 54.052-19.042 64.24-39.879 4.783-9.785 4.913-22.415.306-29.9-7.337-11.922-25.464-17.245-45.402-13.334m-91.35 3.412c-1.558 5.238-5.711 23.842-5.393 24.159.64.64 6.889-23.515 6.431-24.859-.282-.826-.66-.571-1.038.7m-52.719.548c0 2.098 6.123 20.162 6.655 19.631.604-.605-4.645-18.932-5.766-20.129-.547-.584-.889-.393-.889.498m3.02.002c.023 1.692 6.764 22.847 6.893 21.631.181-1.707-5.096-21.224-5.983-22.131-.582-.595-.923-.408-.91.5m3.051-.05c-.008 1.884 5.741 21.909 5.849 20.373.044-.62-.667-4.445-1.58-8.5-1.679-7.462-4.256-14.628-4.269-11.873m49.601 0c-1.373 3.672-6.714 24.291-6.379 24.627.647.646 7.855-23.69 7.387-24.938-.302-.804-.629-.703-1.008.311m-.115 10.335c-2.046 6.509-3.549 12.007-3.338 12.217.689.689 7.996-21.408 7.522-22.747-.254-.718-2.137 4.021-4.184 10.53M261 108.863c0 1.648 7.984 21.336 9.179 22.636.505.549-.25-2.151-1.679-6-1.429-3.85-3.326-9.024-4.214-11.499-1.731-4.818-3.286-7.25-3.286-5.137m2.992-.313c-.011 1.34 8.254 23.537 8.626 23.165.498-.497-6.687-22.129-7.694-23.165-.584-.6-.927-.6-.932 0m64.628.45c-1.767 4.327-7.558 22.396-7.269 22.684.652.652 8.791-21.757 8.34-22.962-.324-.864-.638-.783-1.071.278m-70.62.945c0 1.381 6.79 16.055 7.429 16.055.501 0-1.213-4.76-4.844-13.45-1.427-3.415-2.585-4.582-2.585-2.605m73.625-.147c-.48.776-2.663 6.462-7.181 18.702-2.223 6.023 1.746-1.291 5.031-9.271 3.169-7.697 4.391-13.057 2.15-9.431m-99.05 2.119c-3.42 3.779 2.603 8.505 6.225 4.883 1.63-1.63 1.508-3.35-.371-5.229-2.081-2.08-3.747-1.982-5.854.346m22.429-.667c.005 1.697 3.974 8.105 4.62 7.46.549-.55-3.334-8.71-4.144-8.71-.264 0-.478.563-.476 1.25m78.736.5c-.272.963-1.443 4.112-2.602 7-1.16 2.888-1.897 5.25-1.638 5.25.643 0 6.5-11.688 6.5-12.971 0-1.708-1.731-1.155-2.26.721m20.707.309c-2.323 2.567-.978 5.293 2.837 5.751 3.52.423 5.214-2.655 3.112-5.655-1.892-2.701-3.567-2.728-5.949-.096m-18.286 1.488c-.639 1.401-1.146 2.863-1.128 3.25.048 1.009 3.967-3.84 3.967-4.908 0-1.81-1.716-.809-2.839 1.658m-20.611.56c-.895 2.51-2.503 10.36-2.435 11.893.036.825.9-1.637 1.921-5.471 1.604-6.026 1.96-10.476.514-6.422m-155.515 3.827c-1.325 2.476-1.33 5.066-.01 5.066.975 0 2.975-4.078 2.975-6.065 0-1.641-1.893-1.003-2.965.999m118.508 1.43c1.056 5.649 3.269 13.379 3.332 11.636.085-2.325-2.564-14.023-3.351-14.804-.387-.383-.378 1.043.019 3.168M430 118.066c0 1.71 1.983 4.934 3.035 4.934 1.365 0 1.2-3.365-.235-4.8-1.486-1.486-2.8-1.549-2.8-.134M311.73 119.5c-.321 1.1-.821 4.025-1.11 6.5-.513 4.382-.49 4.356.9-1 1.325-5.108 1.51-9.956.21-5.5m-30.084 2.531c1.296 6.586 2.3 8.632 1.701 3.469-.32-2.75-.987-5.436-1.483-5.969-.539-.58-.627.424-.218 2.5m26.978.508c-.343.893-.572 2.825-.509 4.293.086 1.998.311 1.664.895-1.332.828-4.251.645-5.65-.386-2.961m-64.957.128c-1.189 1.188-.706 5.056.785 6.293 3.269 2.714 8.222-2.239 5.508-5.508-1.237-1.491-5.105-1.974-6.293-.785m99.415.734c-2.692 3.244 1.168 8.193 4.668 5.985 2.894-1.826 2.313-6.821-.836-7.187-1.422-.165-3.146.376-3.832 1.202m-58.161 3.35c.478 3.451.547 3.521.877.877.197-1.579-.036-3.266-.519-3.749-.503-.503-.656.722-.358 2.872m21.158-1.168c.048 1.165.285 1.402.604.605.289-.722.253-1.585-.079-1.917-.332-.332-.568.258-.525 1.312m-154.087.927c-1.225 1.475-.981 5.988.617 11.409.604 2.05.438 2.313-1.089 1.727-2.987-1.146-5.52.237-5.52 3.014 0 3.815 10.965 14.257 19 18.094 9.973 4.762 12.226 4.901 5.368.33-12.335-8.22-17.664-20.809-12.796-30.224.865-1.672 1.329-3.675 1.032-4.45-.717-1.869-5.032-1.804-6.612.1m282.404-.1c-.297.775.167 2.778 1.032 4.45 4.874 9.426-.582 22.405-12.716 30.248-7.791 5.035-5.142 4.992 4.994-.081 15.438-7.727 26.674-24.554 14.222-21.298-1.925.504-2.148.305-1.486-1.318 1.527-3.746 1.841-10.365.565-11.903-1.579-1.902-5.894-1.966-6.611-.098m-129.201 4.09c.02 1.65.244 2.204.498 1.231.254-.973.237-2.323-.037-3-.274-.677-.481.119-.461 1.769m6.884-.917c.048 1.165.285 1.402.604.605.289-.722.253-1.585-.079-1.917-.332-.332-.568.258-.525 1.312M288.232 132c0 1.925.206 2.713.457 1.75.252-.963.252-2.537 0-3.5-.251-.963-.457-.175-.457 1.75m14.926-1c0 1.375.227 1.938.504 1.25.278-.687.278-1.812 0-2.5-.277-.687-.504-.125-.504 1.25m-24.079.583c.048 1.165.285 1.402.604.605.289-.722.253-1.585-.079-1.917-.332-.332-.568.258-.525 1.312m28.079.417c0 1.375.227 1.938.504 1.25.278-.687.278-1.812 0-2.5-.277-.687-.504-.125-.504 1.25m-30.079.583c.048 1.165.285 1.402.604.605.289-.722.253-1.585-.079-1.917-.332-.332-.568.258-.525 1.312m9.079.417c0 1.375.227 1.938.504 1.25.278-.687.278-1.812 0-2.5-.277-.687-.504-.125-.504 1.25m3.921.583c.048 1.165.285 1.402.604.605.289-.722.253-1.585-.079-1.917-.332-.332-.568.258-.525 1.312m19 0c.048 1.165.285 1.402.604.605.289-.722.253-1.585-.079-1.917-.332-.332-.568.258-.525 1.312m-27 1c.048 1.165.285 1.402.604.605.289-.722.253-1.585-.079-1.917-.332-.332-.568.258-.525 1.312m31 0c.048 1.165.285 1.402.604.605.289-.722.253-1.585-.079-1.917-.332-.332-.568.258-.525 1.312m-59.672 1.93c-1.081 4.309 3.379 7.301 6.393 4.287 1.714-1.714 1.482-5.478-.382-6.193-3.306-1.269-5.379-.611-6.011 1.906m79.633-1.061c-2.657 3.201 1.245 8.118 4.71 5.936 3.462-2.181 2.229-7.388-1.75-7.388-.965 0-2.297.653-2.96 1.452M302.158 139c0 1.375.227 1.938.504 1.25.278-.687.278-1.812 0-2.5-.277-.687-.504-.125-.504 1.25m1.921-.417c.048 1.165.285 1.402.604.605.289-.722.253-1.585-.079-1.917-.332-.332-.568.258-.525 1.312m-17 2c.048 1.165.285 1.402.604.605.289-.722.253-1.585-.079-1.917-.332-.332-.568.258-.525 1.312m-107 4.821c-5.05 6.086 16.081 22.036 21.721 16.396 3.269-3.269-.756-10.587-8.157-14.831-5.577-3.199-11.628-3.897-13.564-1.565m221.421.437c-9.191 4.243-15.031 15.235-8.909 16.771 8.302 2.084 24.328-10.728 20.69-16.541-1.416-2.262-7.138-2.374-11.781-.23m-137.845 2.988c-3.147 3.477-1.376 7.171 3.438 7.171 4.106 0 5.598-6.024 1.973-7.965-2.678-1.433-3.506-1.311-5.411.794M325 147.763c-3.518 1.259-4.117 6.569-.933 8.273 2.799 1.498 7.191-1.26 6.744-4.235-.371-2.472-3.707-4.79-5.811-4.038m-132.648 5.722c-3.168 2.316 3.385 9.303 7.321 7.806 2.124-.807 2.246-3.124.295-5.604-2.377-3.023-5.327-3.876-7.616-2.202m55.744.456c-1.511.934-.815 4.059.904 4.059 1.464 0 2.466-2.934 1.374-4.026-.501-.501-1.497-.516-2.278-.033m146.251.528c-4.279 2.998-3.043 8.522 1.579 7.055 2.709-.86 6.098-5.299 5.411-7.088-.713-1.858-4.315-1.84-6.99.033M342 156c0 1.506.522 2.046 1.75 1.81.962-.186 1.75-1 1.75-1.81s-.788-1.624-1.75-1.81c-1.228-.236-1.75.304-1.75 1.81m-214.918 1.401c-2.692 3.244 1.168 8.193 4.668 5.985 2.894-1.826 2.313-6.821-.836-7.187-1.422-.165-3.146.376-3.832 1.202m332.341 1.049c-1.226 4.888 4.326 7.517 6.97 3.3 1.506-2.403-.331-5.159-3.709-5.563-2.098-.251-2.742.196-3.261 2.263m-253.273 3.5c.22.66.726 1.166 1.125 1.125 1.196-.124.964-1.495-.325-1.925-.66-.22-1.02.14-.8.8m28.646 7.392c.697 13.271-2.907 19-14.296 22.723l-4 1.308 3.5.93c10.284 2.732 21.15 6.171 26.22 8.298 3.146 1.319 5.906 2.399 6.134 2.399.229 0-1.075-2.812-2.896-6.25-1.821-3.437-5.341-12.187-7.823-19.443-6.634-19.4-7.392-20.504-6.839-9.965m15.924-7.054c-.793 2.066.755 3.96 2.9 3.547 2.657-.512 2.461-4.252-.243-4.638-1.167-.166-2.363.324-2.657 1.091m21.69.087c-1.199 3.123.014 5.125 3.104 5.125 2.651 0 2.986-.336 2.986-3 0-3.41-4.936-5.133-6.09-2.125m42.753-.518c-2.61 1.695-.974 5.643 2.337 5.643 2.667 0 3-.333 3-3 0-3.168-2.57-4.44-5.337-2.643m22.169.721c-1.023 2.666 2.017 4.93 3.983 2.964.88-.88 1.346-2.262 1.036-3.071-.752-1.957-4.256-1.883-5.019.107m19.704 1.172c-.707 1.512-3.22 8.481-5.585 15.485-2.366 7.004-5.858 15.666-7.761 19.25-1.902 3.583-3.174 6.513-2.825 6.512.349-.002 3.862-1.319 7.805-2.926 6.41-2.612 16.452-5.669 24.784-7.546 2.858-.644 2.761-.743-3-3.071-9.968-4.028-13.061-9.771-12.18-22.618.601-8.774.562-8.937-1.238-5.086m27.658-2.111c-.799.799.104 2.361 1.365 2.361.518 0 .941-.675.941-1.5 0-1.546-1.18-1.987-2.306-.861m-183.527 4.423c-1.283.514-3.533.679-5 .367l-2.667-.568 2.361 2.069c4.102 3.596 12.022 1.926 9.583-2.02-.673-1.09-1.228-1.07-4.277.152m186.431-.22c-1.852 2.996 2.492 5.835 6.561 4.288 4.642-1.765 5.193-3.725 1.045-3.72-2.037.003-4.446-.344-5.353-.771-.907-.426-1.921-.335-2.253.203m-250.587 3.645c-2.193 2.642-.416 6.513 2.989 6.513 2.329 0 3.097-.537 3.593-2.513.723-2.881-.983-5.487-3.593-5.487-.965 0-2.31.669-2.989 1.487m313.739-.407c-3.721 2.168-1.057 7.385 3.445 6.747 2.649-.376 3.67-4.08 1.759-6.382-1.398-1.684-2.773-1.781-5.204-.365m-195.644 2.721c-1.336 2.497.767 5.563 3.46 5.044 2.928-.564 2.717-6.234-.248-6.656-1.356-.193-2.572.418-3.212 1.612m78.057-.923c-2.356 1.493-1.006 5.622 1.837 5.622 1.874 0 2.584-.598 2.837-2.387.289-2.041-1.13-4.082-2.837-4.082-.275 0-1.102.381-1.837.847m-206.323 6.75c-1.221 2.762-2.266 7.822-2.59 12.551l-.543 7.924 6.337-.301 6.336-.302 1.787-7c2.234-8.749 2.257-8.237-.417-9.048-3.18-.964-6.75-4.469-6.75-6.626 0-3.306-2.077-1.907-4.16 2.802m152.469-2.992c-.668 1.741.634 4.512 2.396 5.099 2.074.691 4.379-2.709 3.258-4.804-1.261-2.356-4.792-2.54-5.654-.295m28.765.226c-1.445 2.699.878 5.605 3.752 4.693 3.898-1.237 2.379-6.555-1.873-6.555-.485 0-1.331.838-1.879 1.862m153.999.447c-1.033 2.715-5.612 6.691-7.708 6.691-1.728 0-1.726.066.305 8.75l1.696 7.25h12.923l-.583-7.25c-.951-11.842-4.691-20.549-6.633-15.441m-313.406 4.358c-2.56 2.559.774 7.963 4.234 6.864 2.508-.796 3.649-4.163 2.059-6.079-1.237-1.491-5.105-1.974-6.293-.785m289.308.863c-.97 1.169-1.004 2.111-.143 4 1.589 3.487 6.116 3.162 7.383-.53 1.396-4.066-4.428-6.858-7.24-3.47m-177.964 2.957c-1.531 1.845-.577 6.082 1.553 6.899 2.39.917 5.436-1.168 5.436-3.721 0-4.237-4.436-6.254-6.989-3.178m67.739-.407c-4.363 2.541-.208 9.306 4.25 6.92 2.579-1.38 2.619-5.598.066-6.965-2.302-1.232-2.12-1.234-4.316.045m-42.216.865c-.965 1.561.305 3.055 2.598 3.055 1.375 0 1.908-.552 1.68-1.739-.384-1.992-3.305-2.891-4.278-1.316m17.789.656c-.767 1.998 1.665 3.654 3.334 2.269 1.513-1.256.638-3.87-1.295-3.87-.784 0-1.701.72-2.039 1.601M162.2 188.2c-2.86 2.86-.228 7.225 3.995 6.627 4.227-.599 3.195-7.827-1.117-7.827-.923 0-2.218.54-2.878 1.2m262.886.197c-.682.821-1.092 2.53-.913 3.798.409 2.882 5.498 3.274 7.213.555 2.297-3.641-3.542-7.676-6.3-4.353M290 191c0 .55.45 1 1 1s1-.45 1-1-.45-1-1-1-1 .45-1 1m11 0c0 .55.45 1 1 1s1-.45 1-1-.45-1-1-1-1 .45-1 1m-123.25 3.08c-2.35 1.369-2.237 5.589.184 6.885 2.502 1.339 2.635 1.323 4.495-.536 3.639-3.639-.256-8.925-4.679-6.349m232.29 1.372c-1.625 1.958-.429 5.29 2.199 6.124 2.966.941 6.18-2.925 4.711-5.669-1.206-2.254-5.199-2.517-6.91-.455m-144.469 1.119c-2.329 2.33-1.923 5.311.899 6.597 4.646 2.117 8.095-4.725 3.596-7.133-2.502-1.339-2.635-1.323-4.495.536m56.096.096c-1.087 1.086-.761 4.839.533 6.133 3.014 3.014 7.474.022 6.393-4.287-.618-2.459-5.115-3.658-6.926-1.846M192.75 199.08c-3.048 1.775-2.22 5.658 1.375 6.447 4.678 1.028 7.08-4.276 2.941-6.492-2.302-1.232-2.12-1.234-4.316.045m91.709 3.133c.357 2.358.861 5.419 1.122 6.802.375 1.984-.48 3.451-4.053 6.958-5.61 5.505-5.605 5.648.222 6.47 7.215 1.019 8.149 1.46 9.787 4.628 2.179 4.214 7.742 4.223 9.918.016 1.423-2.751 7.435-5.087 13.094-5.087 2.323 0 1.74-1.138-3.098-6.049l-4.548-4.618 1.024-6.358c.563-3.497.912-6.47.775-6.607-.137-.136-2.925 1.122-6.197 2.797l-5.948 3.046-6.373-3.143-6.372-3.142.647 4.287m109.949-.701c-.878 3.498.663 4.851 4.551 3.997 2.692-.591 3.111-1.084 2.849-3.351-.461-3.983-6.432-4.504-7.4-.646M83.877 203.1c-22.909 1.766-47.824 6.822-57.966 11.764C16.543 219.428 16 220.98 16 243.18c0 22.286.248 23.159 9.281 32.735 7.609 8.066 8.003 9.254 11.202 33.734 1.355 10.368 3.338 22.262 4.406 26.43 11.727 45.768 49.604 69.072 112.206 69.034 45.383-.028 80.938-17.151 102.104-49.173 8.534-12.912 11.043-18.64 21.872-49.94 5.239-15.145 12.144-20.491 23.9-18.505 8.296 1.402 11.532 6.511 20.279 32.019 13.184 38.45 30.694 59.661 61.127 74.045 40.008 18.91 104.689 14.658 138.17-9.083 22.073-15.651 31.585-35.56 36.498-76.386 2.398-19.928 4.637-26.555 10.647-31.509 1.977-1.629 4.879-4.99 6.451-7.467l2.857-4.506v-20.436c0-18.677-.172-20.714-1.996-23.666-6.976-11.287-56.571-19.669-107.504-18.169-43.147 1.271-77.387 7.72-117.707 22.169-23.121 8.286-31.367 9.803-53.293 9.803-21.536 0-30.579-1.59-49.856-8.765-51.228-19.067-106.921-26.747-162.767-22.444m123.694.471c-2.256 2.257-1.939 4.304.865 5.582 3.229 1.471 5.564.455 5.564-2.422 0-4.327-3.527-6.061-6.429-3.16m171.839.804c-1.232 3.208.024 5.14 3.126 4.807 3.918-.42 5.218-1.76 3.841-3.96-1.418-2.264-6.2-2.846-6.967-.847M94 207c0 .55.675 1 1.5 1s1.5-.45 1.5-1-.675-1-1.5-1-1.5.45-1.5 1m11 .5c0 .825.45 1.5 1 1.5s1-.675 1-1.5-.45-1.5-1-1.5-1 .675-1 1.5m6.813-.817c.721.289 1.584.253 1.916-.079.332-.332-.258-.568-1.312-.525-1.165.048-1.402.285-.604.604M122 207c0 .55.45 1 1 1s1-.45 1-1-.45-1-1-1-1 .45-1 1m101.086.397c-.682.821-1.092 2.53-.913 3.798.409 2.882 5.498 3.274 7.213.555 2.297-3.641-3.542-7.676-6.3-4.353m141.664-.317c-3.947 2.299-.95 7.51 3.654 6.355 2.825-.709 3.574-4.057 1.396-6.235-1.445-1.445-2.722-1.476-5.05-.12m101.25-.021c0 .582.45.781 1 .441s1-.816 1-1.059-.45-.441-1-.441-1 .477-1 1.059m16-.059c0 .55.675 1 1.5 1s1.5-.45 1.5-1-.675-1-1.5-1-1.5.45-1.5 1m17 .417c0 .87.712 1.583 1.583 1.583s1.406-.534 1.188-1.187c-.618-1.855-2.771-2.162-2.771-.396M78 208c0 .55.45 1 1 1s1-.45 1-1-.45-1-1-1-1 .45-1 1m10 .583c0 .871.534 1.406 1.188 1.188 1.854-.618 2.161-2.771.395-2.771-.87 0-1.583.713-1.583 1.583m27.543-.652c-.317.512-.118 1.213.441 1.559.559.345 1.016-.074 1.016-.931 0-1.757-.6-2.015-1.457-.628M132 208c0 .55.45 1 1 1s1-.45 1-1-.45-1-1-1-1 .45-1 1m340 0c0 .55.45 1 1 1s1-.45 1-1-.45-1-1-1-1 .45-1 1m17 .5c0 .825.45 1.5 1 1.5s1-.675 1-1.5-.45-1.5-1-1.5-1 .675-1 1.5m16.5-.5c-.816 1.32.38 3.192 1.569 2.457 1.215-.75 1.207-3.457-.01-3.457-.518 0-1.219.45-1.559 1m8.152.714c-2.16 1.129-2.567 1.767-1.683 2.638.879.865 1.457.779 2.348-.352.651-.825 1.746-1.5 2.433-1.5 1.382 0 1.887-1.854.575-2.113-.454-.089-2.107.508-3.673 1.327M65 209c-1.181.73-1.23 1.17-.242 2.158.966.966 1.509.975 2.442.042 1.622-1.622-.195-3.439-2.2-2.2m6.192.075c.197.591.785 1.075 1.308 1.075s1.111-.484 1.308-1.075c.197-.591-.391-1.075-1.308-1.075s-1.505.484-1.308 1.075m10.502-.436c-.799.799.104 2.361 1.365 2.361.518 0 .941-.675.941-1.5 0-1.546-1.18-1.987-2.306-.861m16.498.436c.197.591.785 1.075 1.308 1.075s1.111-.484 1.308-1.075c.197-.591-.391-1.075-1.308-1.075s-1.505.484-1.308 1.075M462 209c0 .55.45 1 1 1s1-.45 1-1-.45-1-1-1-1 .45-1 1m16.543-.069c-.683 1.105.894 2.299 1.818 1.375.95-.951.773-2.306-.302-2.306-.518 0-1.2.419-1.516.931m16.457.486c0 .87.712 1.583 1.583 1.583 1.766 0 1.459-2.153-.395-2.771-.654-.218-1.188.317-1.188 1.188m27 .083c0 .825.675 1.5 1.5 1.5s1.5-.675 1.5-1.5-.675-1.5-1.5-1.5-1.5.675-1.5 1.5m-446.5.5c-.399.646-.276 1.624.274 2.174.667.667 1.242.609 1.726-.174.399-.646.276-1.624-.274-2.174-.667-.667-1.242-.609-1.726.174m16.5.5c0 .917.484 1.505 1.075 1.308.591-.197 1.075-.786 1.075-1.308s-.484-1.111-1.075-1.308c-.591-.197-1.075.391-1.075 1.308m17-.5c0 .55.45 1 1 1s1-.45 1-1-.45-1-1-1-1 .45-1 1m17 .059c0 .582.45.781 1 .441s1-.816 1-1.059-.45-.441-1-.441-1 .477-1 1.059M468.5 210c-.34.55-.141 1 .441 1s1.059-.45 1.059-1-.198-1-.441-1-.719.45-1.059 1m59.673.659c.195 1.013 1.023 1.841 1.841 1.841 2.143 0 1.834-2.906-.355-3.327-1.336-.257-1.743.15-1.486 1.486m-473.391-.108c-.303.303-1.615.675-2.916.828-1.301.152-3.041.544-3.866.871-.825.327-3.3.932-5.5 1.345-2.2.412-4.337.841-4.75.952-.413.112-1.661.259-2.775.328-1.223.076-2.438 1.213-3.07 2.875-.914 2.403-1.166 2.535-2.002 1.042-1.076-1.923-3.903-1.332-3.903.815 0 .766-.93 1.393-2.067 1.393-1.661 0-1.933.423-1.385 2.151.545 1.716.353 2.025-.945 1.527-1.319-.506-1.51-.155-1.007 1.849.381 1.517.192 2.473-.488 2.473-1.384 0-1.461 2.664-.101 3.504.554.343 1.308-.193 1.675-1.191.367-.997 1.264-2.173 1.993-2.613.729-.44 1.325-1.452 1.325-2.25 0-.797.45-1.45 1-1.45s1 .423 1 .941-.45 1.219-1 1.559c-1.728 1.068-1.134 3.674.75 3.287 1.007-.207 1.625-1.087 1.456-2.073-.172-1.005.345-1.714 1.25-1.714.849 0 1.56-.562 1.58-1.25.061-2.13 4.953-7.556 4.959-5.5.003.963-.445 1.75-.995 1.75s-1 .738-1 1.64c0 .902-.788 2.221-1.75 2.932-1.333.985-1.473 1.575-.587 2.474 1.372 1.392 3.337.447 3.337-1.605 0-.793.45-1.441 1-1.441s1-.852 1-1.893.675-2.152 1.5-2.469c.825-.316 1.5-1.216 1.5-2 0-.783.679-1.685 1.509-2.003.83-.319 1.393-1.098 1.25-1.732-.142-.634.304-1.359.991-1.611.688-.252 1.25.254 1.25 1.125 0 .87-.502 1.583-1.117 1.583-.624 0-.886.882-.593 2 .388 1.483.03 2-1.384 2-1.067 0-1.906.692-1.906 1.573 0 2.506 2.968 1.229 4.818-2.073.925-1.65 2.049-3.16 2.497-3.355.448-.195 1.267-1.545 1.82-3 .897-2.359 1.111-2.456 1.985-.895 1.31 2.342 3.88 2.231 3.88-.167 0-1.054.563-2.143 1.25-2.421.698-.281.771-.539.167-.583-.596-.043-1.332.169-1.635.472m3.218.89c0 .793.399 1.688.887 1.989 1.101.681 3.342-1.868 2.438-2.772-1.19-1.19-3.325-.687-3.325.783m44.553-.526a1.116 1.116 0 0 0 .362 1.532c.521.322 1.21.159 1.532-.362a1.116 1.116 0 0 0-.362-1.532 1.116 1.116 0 0 0-1.532.362M119 211c0 .55.45 1 1 1s1-.45 1-1-.45-1-1-1-1 .45-1 1m119.571.571c-2.88 2.881-1.172 6.429 3.094 6.429 3.203 0 4.652-3.102 2.731-5.845-1.788-2.553-3.667-2.741-5.825-.584m111.025-.265c-2.852 2.085-1.741 6.12 1.795 6.524 4.307.492 6.098-3.198 3.038-6.259-1.91-1.909-2.537-1.944-4.833-.265M458 211c0 .55.477 1 1.059 1s.781-.45.441-1-.816-1-1.059-1-.441.45-.441 1m27 0c0 .55.45 1 1 1s1-.45 1-1-.45-1-1-1-1 .45-1 1m16.229.188c.618 1.854 2.771 2.161 2.771.395 0-.87-.712-1.583-1.583-1.583s-1.406.534-1.188 1.188m16.948.365c.452 2.172 2.227 2.305 2.633.197.21-1.095-.28-1.75-1.31-1.75-.961 0-1.512.647-1.323 1.553m16.123-.228c-.44.729-1.58 1.612-2.533 1.963-1.051.385-1.501 1.242-1.143 2.174.752 1.959 2.27 1.978 3.014.038.846-2.203 3.362-1.828 3.362.5 0 2.07 2.413 2.76 3.5 1 .942-1.524 2.5-1.192 2.5.531 0 .843.598 1.761 1.33 2.042.731.281 1.94 2.067 2.686 3.969 1.256 3.2 4.984 5.039 4.984 2.458 0-.55.675-1 1.5-1 .833 0 1.5.889 1.5 2s.667 2 1.5 2c.825 0 1.5-.661 1.5-1.469 0-.894.586-1.243 1.5-.893.825.317 1.5 1.176 1.5 1.91 0 2.186 2.212 2.882 3.512 1.105 1.511-2.067 2.488-2.115 2.488-.122 0 .843.675 1.791 1.5 2.107.825.317 1.5 1.428 1.5 2.469s.675 1.893 1.5 1.893c.833 0 1.5-.889 1.5-2 0-1.1-.45-2-1-2s-1-.702-1-1.559.45-1.281 1-.941c1.915 1.183 1.001-5.229-1.132-7.94-1.619-2.059-2.701-2.568-4.5-2.116-1.67.419-2.368.169-2.368-.847 0-1.226-4.048-3.187-8.31-4.026-.654-.129-2.99-.714-5.19-1.301-4.293-1.145-12.823-2.411-10.75-1.595.688.27 1.25 1.115 1.25 1.877 0 2.002-2.707.675-3.308-1.621-.583-2.231-2.234-2.526-3.392-.606m-465.757.606c-.74 1.197 1.141 2.382 2.473 1.559 1.119-.691.384-2.49-1.016-2.49-.485 0-1.141.419-1.457.931m16.649.144c.197.591.785 1.075 1.308 1.075s1.111-.484 1.308-1.075c.197-.591-.391-1.075-1.308-1.075s-1.505.484-1.308 1.075m27.808.484c0 .857.457 1.276 1.016.931.559-.346.758-1.047.441-1.559-.857-1.387-1.457-1.129-1.457.628M475 212c0 .55.45 1 1 1s1-.45 1-1-.45-1-1-1-1 .45-1 1m16.192.075c.197.591.786 1.075 1.308 1.075s1.111-.484 1.308-1.075c.197-.591-.391-1.075-1.308-1.075s-1.505.484-1.308 1.075m16.808.342c0 .87.712 1.583 1.583 1.583 1.766 0 1.459-2.153-.395-2.771-.654-.218-1.188.317-1.188 1.188m16.446-.33c-1.03 1.668 1.287 3.58 2.667 2.2 1.154-1.154.432-3.287-1.113-3.287-.485 0-1.184.489-1.554 1.087m-461.779.58c-1.218 1.218-.689 3.333.833 3.333.833 0 1.5-.889 1.5-2 0-1.992-1.066-2.601-2.333-1.333M79 213.5c0 .825.675 1.5 1.5 1.5s1.5-.675 1.5-1.5-.675-1.5-1.5-1.5-1.5.675-1.5 1.5m17-.5c0 .55.45 1 1 1s1-.45 1-1-.45-1-1-1-1 .45-1 1m368.5 0c.34.55.816 1 1.059 1s.441-.45.441-1-.477-1-1.059-1-.781.45-.441 1m16.5 0c0 .55.45 1 1 1s1-.45 1-1-.45-1-1-1-1 .45-1 1m17 .5c0 .825.45 1.5 1 1.5s1-.675 1-1.5-.45-1.5-1-1.5-1 .675-1 1.5M73 215c0 1.1.45 2 1 2s1-.9 1-2-.45-2-1-2-1 .9-1 2m16.694-1.361c-.799.799.104 2.361 1.365 2.361.518 0 .941-.675.941-1.5 0-1.546-1.18-1.987-2.306-.861M106 214c0 .55.45 1 1 1s1-.45 1-1-.45-1-1-1-1 .45-1 1m17.5 0c.34.55.816 1 1.059 1s.441-.45.441-1-.477-1-1.059-1-.781.45-.441 1m347.5 0c0 .55.477 1 1.059 1s.781-.45.441-1-.816-1-1.059-1-.441.45-.441 1m16.469.05c-.95 1.538.351 2.53 1.635 1.246.718-.718.735-1.277.052-1.699-.56-.346-1.319-.142-1.687.453m26.531.45c0 .825.675 1.5 1.5 1.5s1.5-.675 1.5-1.5-.675-1.5-1.5-1.5-1.5.675-1.5 1.5m30.636.006c-.348.907.003 1.494.895 1.494 1.618 0 1.986-1.563.574-2.435-.493-.305-1.153.119-1.469.941m-488.942.133c-.933.934.194 2.361 1.865 2.361.793 0 1.441-.675 1.441-1.5 0-1.506-2.111-2.056-3.306-.861M100 215.5c0 .825.45 1.5 1 1.5s1-.675 1-1.5-.45-1.5-1-1.5-1 .675-1 1.5m17-.5c0 .55.45 1 1 1s1-.45 1-1-.45-1-1-1-1 .45-1 1m387 .5c0 .917.484 1.505 1.075 1.308.591-.197 1.075-.786 1.075-1.308s-.484-1.111-1.075-1.308c-.591-.197-1.075.391-1.075 1.308m16.496-.493c-.343.554.1 1.285.984 1.624 1.914.734 2.981-.075 2.061-1.564-.83-1.344-2.235-1.371-3.045-.06m-471.05 1.08c-1.03 1.668 1.287 3.58 2.667 2.2C53.267 217.133 52.545 215 51 215c-.485 0-1.184.489-1.554 1.087M66 216.5c0 .825.675 1.5 1.5 1.5s1.5-.675 1.5-1.5-.675-1.5-1.5-1.5-1.5.675-1.5 1.5m17-.5c0 .55.675 1 1.5 1s1.5-.45 1.5-1-.675-1-1.5-1-1.5.45-1.5 1m27.543-.069c-.317.512-.118 1.213.441 1.559.559.345 1.016-.074 1.016-.931 0-1.757-.6-2.015-1.457-.628M477.5 216c.34.55.816 1 1.059 1s.441-.45.441-1-.477-1-1.059-1-.781.45-.441 1m16.5 0c0 .55.45 1 1 1s1-.45 1-1-.45-1-1-1-1 .45-1 1m16.667-.333c-1.151 1.15-.729 2.333.833 2.333.825 0 1.5-.675 1.5-1.5 0-1.562-1.183-1.984-2.333-.833m16.972.027c-1.195 1.195-.645 3.306.861 3.306.825 0 1.5-.648 1.5-1.441 0-1.671-1.427-2.798-2.361-1.865M551 216c0 .55.45 1 1 1s1-.45 1-1-.45-1-1-1-1 .45-1 1m-515 1c0 .55.675 1 1.5 1s1.5-.45 1.5-1-.675-1-1.5-1-1.5.45-1.5 1m24 .64c0 .902-.788 2.221-1.75 2.932-1.377 1.018-1.491 1.556-.533 2.528.963.977 1.368.834 1.938-.683.397-1.054 1.38-2.411 2.186-3.015.805-.604 1.144-1.617.753-2.25-1.047-1.693-2.594-1.402-2.594.488m16.694-1.001c-.799.799.104 2.361 1.365 2.361.518 0 .941-.675.941-1.5 0-1.546-1.18-1.987-2.306-.861M94 217c0 .55.45 1 1 1s1-.45 1-1-.45-1-1-1-1 .45-1 1m160.75.08c-3.805 2.216-1.136 7.92 3.706 7.92 2.802 0 4.165-4.656 2.048-6.996-2.022-2.234-3.184-2.421-5.754-.924m77.746.924c-2.779 3.071-.568 7.475 3.279 6.532 4.643-1.138 5.826-2.971 3.856-5.976-2.014-3.074-4.669-3.281-7.135-.556M467 217.059c0 .582.45.781 1 .441s1-.816 1-1.059-.45-.441-1-.441-1 .477-1 1.059m16.5-.059c-.34.55.084 1 .941 1s1.559-.45 1.559-1-.423-1-.941-1-1.219.45-1.559 1m16.969.05c-.95 1.538.351 2.53 1.635 1.246.718-.718.735-1.277.052-1.699-.56-.346-1.319-.142-1.687.453m57.531.391c0 .857.45 1.559 1 1.559s1-.423 1-.941-.45-1.219-1-1.559c-.55-.34-1 .084-1 .941M70.5 218c-.399.646-.276 1.624.274 2.174.667.667 1.242.609 1.726-.174.399-.646.276-1.624-.274-2.174-.667-.667-1.242-.609-1.726.174m16.5.5c0 .825.45 1.5 1 1.5s1-.675 1-1.5-.45-1.5-1-1.5-1 .675-1 1.5m17-.5c0 .55.45 1 1 1s1-.45 1-1-.45-1-1-1-1 .45-1 1m369.5 0c-.34.55-.141 1 .441 1s1.059-.45 1.059-1-.198-1-.441-1-.719.45-1.059 1m16.5.441c0 .857.45 1.559 1 1.559s1-.423 1-.941-.45-1.219-1-1.559c-.55-.34-1 .084-1 .941m27 .059c0 .825.45 1.5 1 1.5s1-.675 1-1.5-.45-1.5-1-1.5-1 .675-1 1.5m16-.059c0 .793.399 1.688.887 1.989 1.101.681 3.342-1.868 2.438-2.772-1.19-1.19-3.325-.687-3.325.783m14 .059c0 .825.45 1.5 1 1.5s1 .9 1 2c0 1.111.667 2 1.5 2 1.939 0 1.952-2.613.017-3.355-.844-.324-1.229-1.232-.893-2.107.38-.991.018-1.538-1.017-1.538-.884 0-1.607.675-1.607 1.5m-494 1c0 .825.675 1.5 1.5 1.5s1.5-.675 1.5-1.5-.675-1.5-1.5-1.5-1.5.675-1.5 1.5m44.553-.585a1.116 1.116 0 0 0 .362 1.532c.521.322 1.21.159 1.532-.362a1.116 1.116 0 0 0-.362-1.532 1.116 1.116 0 0 0-1.532.362M463 219c0 .55.477 1 1.059 1s.781-.45.441-1-.816-1-1.059-1-.441.45-.441 1m43.192.075c.197.591.786 1.075 1.308 1.075s1.111-.484 1.308-1.075c.197-.591-.391-1.075-1.308-1.075s-1.505.484-1.308 1.075M523 219.5c0 .825.675 1.5 1.5 1.5s1.5-.675 1.5-1.5-.675-1.5-1.5-1.5-1.5.675-1.5 1.5m16.533-.553c-.88 1.423.242 3.053 2.099 3.053.876 0 1.378-.703 1.191-1.667-.389-2.009-2.386-2.849-3.29-1.386M47 221.083c0 2.437 2.337 2.093 2.823-.416.192-.987-.318-1.667-1.25-1.667-.927 0-1.573.855-1.573 2.083m17-.583c0 .917.484 1.505 1.075 1.308.591-.197 1.075-.786 1.075-1.308s-.484-1.111-1.075-1.308c-.591-.197-1.075.391-1.075 1.308m17-.5c0 .55.45 1 1 1s1-.45 1-1-.45-1-1-1-1 .45-1 1m27 0c0 .55.477 1 1.059 1s.781-.45.441-1-.816-1-1.059-1-.441.45-.441 1m372 .059c0 .582.45.781 1 .441s1-.816 1-1.059-.45-.441-1-.441-1 .477-1 1.059m16-.059c0 .55.45 1 1 1s1-.45 1-1-.45-1-1-1-1 .45-1 1m17 .5c0 .825.45 1.5 1 1.5s1-.675 1-1.5-.45-1.5-1-1.5-1 .675-1 1.5m16.5-.5c-.729 1.18.217 3 1.559 3 .518 0 .941-.9.941-2 0-2.109-1.455-2.691-2.5-1m24.065-.105c-.305.493.119 1.153.941 1.469.907.348 1.494-.003 1.494-.895 0-1.618-1.563-1.986-2.435-.574m-479.373 1.18c.197.591.785 1.075 1.308 1.075s1.111-.484 1.308-1.075c.197-.591-.391-1.075-1.308-1.075s-1.505.484-1.308 1.075M91 221c0 .55.45 1 1 1s1-.45 1-1-.45-1-1-1-1 .45-1 1m378.5 0c.34.55.816 1 1.059 1s.441-.45.441-1-.477-1-1.059-1-.781.45-.441 1m16.5 0c0 .55.45 1 1 1s1-.45 1-1-.45-1-1-1-1 .45-1 1m17 .441c0 .857.45 1.559 1 1.559s1-.423 1-.941-.45-1.219-1-1.559c-.55-.34-1 .084-1 .941m57-.559c0 .55.45 1.278 1 1.618.55.34 1 .168 1-.382s-.45-1.278-1-1.618c-.55-.34-1-.168-1 .382m-533 1.587c0 .894.586 1.243 1.5.893.825-.317 1.5-.978 1.5-1.469 0-.491-.675-.893-1.5-.893s-1.5.661-1.5 1.469m41.583-.603c-.431.697-.513 1.537-.183 1.867.895.895 1.871-.421 1.387-1.871-.338-1.016-.574-1.016-1.204.004m16.417.693c0 .857.45 1.281 1 .941.55-.34 1-1.041 1-1.559s-.45-.941-1-.941-1 .702-1 1.559m407.543-.628c-.317.512-.118 1.213.441 1.559.559.345 1.016-.074 1.016-.931 0-1.757-.6-2.015-1.457-.628m26.649.144c.197.591.785 1.075 1.308 1.075s1.111-.484 1.308-1.075c.197-.591-.391-1.075-1.308-1.075s-1.505.484-1.308 1.075M536 222.5c0 .825.675 1.5 1.5 1.5s1.5-.675 1.5-1.5-.675-1.5-1.5-1.5-1.5.675-1.5 1.5m-485 1c0 .825.675 1.5 1.5 1.5s1.5-.675 1.5-1.5-.675-1.5-1.5-1.5-1.5.675-1.5 1.5m44.5-.5c-.34.55-.141 1 .441 1S97 223.55 97 223s-.198-1-.441-1-.719.45-1.059 1m16.5.059c0 .582.45.781 1 .441s1-.816 1-1.059-.45-.441-1-.441-1 .477-1 1.059M509 223c0 .55.45 1 1 1s1-.45 1-1-.45-1-1-1-1 .45-1 1m16.694-.361c-.799.799.104 2.361 1.365 2.361.518 0 .941-.675.941-1.5 0-1.546-1.18-1.987-2.306-.861m16.973.028c-1.218 1.218-.689 3.333.833 3.333.833 0 1.5-.889 1.5-2 0-1.992-1.066-2.601-2.333-1.333M566 223c0 .55.423 1 .941 1s1.219-.45 1.559-1c.34-.55-.084-1-.941-1s-1.559.45-1.559 1m-521.554 1.087c-.369.598-.152 1.607.483 2.242 1.254 1.254 3.408-.975 2.446-2.531-.699-1.131-2.139-.989-2.929.289m16.783.101c.618 1.854 2.771 2.161 2.771.395 0-.87-.712-1.583-1.583-1.583s-1.406.534-1.188 1.188M78 224c0 .55.675 1 1.5 1s1.5-.45 1.5-1-.675-1-1.5-1-1.5.45-1.5 1m421 0c0 .55.45 1 1 1s1-.45 1-1-.45-1-1-1-1 .45-1 1m16.639-.306c-1.126 1.126-.685 2.306.861 2.306.825 0 1.5-.423 1.5-.941 0-1.261-1.562-2.164-2.361-1.365m16.77.682c-.847 2.208.28 3.335 1.808 1.807.902-.902.905-1.461.016-2.35-.89-.89-1.324-.761-1.824.543M556 224c0 .55.423 1 .941 1s1.219-.45 1.559-1c.34-.55-.084-1-.941-1s-1.559.45-1.559 1m-500.846 1.438c.191.917.796 1.644 1.346 1.615 1.484-.079 1.212-2.316-.346-2.835-.841-.28-1.215.177-1 1.22M72 225.5c0 .825.45 1.5 1 1.5s1-.675 1-1.5-.45-1.5-1-1.5-1 .675-1 1.5m17-.5c0 .55.45 1 1 1s1-.45 1-1-.45-1-1-1-1 .45-1 1m178.98.524c-1.525 1.838-1.349 2.024 2.652 2.784 3.758.714 4.637.063 3.298-2.439-1.209-2.259-4.217-2.434-5.95-.345m51.733-.903c-1.88 1.879-.597 3.494 2.537 3.192 3.952-.381 4.502-3.167.713-3.609-1.396-.163-2.859.025-3.25.417m185.87.245c-.431.697-.513 1.537-.183 1.867.895.895 1.871-.421 1.387-1.871-.338-1.016-.574-1.016-1.204.004m57.111-.227c-.799.799.104 2.361 1.365 2.361.518 0 .941-.675.941-1.5 0-1.546-1.18-1.987-2.306-.861M38 226.5c0 .825.675 1.5 1.5 1.5s1.5-.675 1.5-1.5-.675-1.5-1.5-1.5-1.5.675-1.5 1.5m44-.559c0 .518.45 1.219 1 1.559.55.34 1-.084 1-.941S83.55 225 83 225s-1 .423-1 .941M99 226c0 .55.45 1 1 1s1-.45 1-1-.45-1-1-1-1 .45-1 1m396 .559c0 .857.457 1.276 1.016.931.559-.346.758-1.047.441-1.559-.857-1.387-1.457-1.129-1.457.628m27-.559c0 .55.45 1 1 1s1-.45 1-1-.45-1-1-1-1 .45-1 1m16.667-.333c-1.151 1.15-.729 2.333.833 2.333.825 0 1.5-.675 1.5-1.5 0-1.562-1.183-1.984-2.333-.833m-489.973.972c-.799.799.104 2.361 1.365 2.361.518 0 .941-.675.941-1.5 0-1.546-1.18-1.987-2.306-.861M65 227c0 .55.675 1 1.5 1s1.5-.45 1.5-1-.675-1-1.5-1-1.5.45-1.5 1m28 0c0 .55.477 1 1.059 1s.781-.45.441-1-.816-1-1.059-1-.441.45-.441 1m418.5 0c.34.55 1.041 1 1.559 1s.941-.45.941-1-.702-1-1.559-1-1.281.45-.941 1m16.5.5c0 .917.484 1.505 1.075 1.308.591-.197 1.075-.786 1.075-1.308s-.484-1.111-1.075-1.308c-.591-.197-1.075.391-1.075 1.308m16.446-.413c-1.03 1.668 1.287 3.58 2.667 2.2 1.154-1.154.432-3.287-1.113-3.287-.485 0-1.184.489-1.554 1.087M569 227c0 .55.45 1 1 1s1-.45 1-1-.45-1-1-1-1 .45-1 1m-526.846 1.438c.191.917.796 1.644 1.346 1.615 1.484-.079 1.212-2.316-.346-2.835-.841-.28-1.215.177-1 1.22M59 228.5c0 .917.484 1.505 1.075 1.308.591-.197 1.075-.786 1.075-1.308s-.484-1.111-1.075-1.308c-.591-.197-1.075.391-1.075 1.308m17-.5c0 .55.45 1 1 1s1-.45 1-1-.45-1-1-1-1 .45-1 1m425 0c0 .55.45 1 1 1s1-.45 1-1-.45-1-1-1-1 .45-1 1m17 .5c0 .825.45 1.5 1 1.5s1-.675 1-1.5-.45-1.5-1-1.5-1 .675-1 1.5m-465.306.139c-.799.799.104 2.361 1.365 2.361.518 0 .941-.675.941-1.5 0-1.546-1.18-1.987-2.306-.861m16.849.292c-.683 1.105.894 2.299 1.818 1.375.95-.951.773-2.306-.302-2.306-.518 0-1.2.419-1.516.931M86.5 229c.34.55.816 1 1.059 1s.441-.45.441-1-.477-1-1.059-1-.781.45-.441 1m30.863.17c-37.019 3.094-54.902 21.941-58.38 61.527-5.292 60.235 29.991 98.644 90.433 98.443 57.676-.191 95.84-32.54 102.188-86.617 4.85-41.321-.532-52.539-29.754-62.016-24.458-7.932-77.007-13.634-104.487-11.337m328.637.007c-61.389 3.364-95.083 13.857-103.059 32.096-3.968 9.073-3.128 38.884 1.653 58.704 9.192 38.104 45.396 65.753 90.297 68.961 66.158 4.727 107.655-38.131 99.186-102.438-6.03-45.78-28.758-60.573-88.077-57.323m62 .382c0 .857.457 1.276 1.016.931.559-.346.758-1.047.441-1.559-.857-1.387-1.457-1.129-1.457.628m26.192-.484c.197.591.785 1.075 1.308 1.075s1.111-.484 1.308-1.075c.197-.591-.391-1.075-1.308-1.075s-1.505.484-1.308 1.075M551 229.5c0 .825.675 1.5 1.5 1.5s1.5-.675 1.5-1.5-.675-1.5-1.5-1.5-1.5.675-1.5 1.5m-515.457.431c-.317.512-.118 1.213.441 1.559 1.193.737 3.016-.199 3.016-1.549 0-1.217-2.707-1.225-3.457-.01M80 230c0 .55.45 1 1 1s1-.45 1-1-.45-1-1-1-1 .45-1 1m444 0c0 .55.675 1 1.5 1s1.5-.45 1.5-1-.675-1-1.5-1-1.5.45-1.5 1m17 .5c0 .917.484 1.505 1.075 1.308.591-.197 1.075-.786 1.075-1.308s-.484-1.111-1.075-1.308c-.591-.197-1.075.391-1.075 1.308m16.446-.413c-1.03 1.668 1.287 3.58 2.667 2.2 1.154-1.154.432-3.287-1.113-3.287-.485 0-1.184.489-1.554 1.087m-528.269 1.466c.452 2.172 2.227 2.305 2.633.197.21-1.095-.28-1.75-1.31-1.75-.961 0-1.512.647-1.323 1.553M46 231.5c0 .825.675 1.5 1.5 1.5s1.5-.675 1.5-1.5-.675-1.5-1.5-1.5-1.5.675-1.5 1.5m17-.5c0 .55.45 1 1 1s1-.45 1-1-.45-1-1-1-1 .45-1 1m451 0c0 .55.45 1 1 1s1-.45 1-1-.45-1-1-1-1 .45-1 1m16.694-.361c-.799.799.104 2.361 1.365 2.361.518 0 .941-.675.941-1.5 0-1.546-1.18-1.987-2.306-.861M547.5 231c-.399.646-.276 1.624.274 2.174.667.667 1.242.609 1.726-.174.399-.646.276-1.624-.274-2.174-.667-.667-1.242-.609-1.726.174m16.622.353c-1.216 1.465-.526 2.647 1.545 2.647 1.489 0 1.825-2.578.446-3.43-.487-.301-1.383.051-1.991.783m-541 1c-1.216 1.465-.526 2.647 1.545 2.647 1.489 0 1.825-2.578.446-3.43-.487-.301-1.383.051-1.991.783m16.572-.714c-.799.799.104 2.361 1.365 2.361.518 0 .941-.675.941-1.5 0-1.546-1.18-1.987-2.306-.861m16.849.292c-.683 1.105.894 2.299 1.818 1.375.95-.951.773-2.306-.302-2.306-.518 0-1.2.419-1.516.931m16.967.085c.346.559 1.047.758 1.559.441 1.387-.857 1.129-1.457-.628-1.457-.857 0-1.276.457-.931 1.016M504 232c0 .55.45 1 1 1s1-.45 1-1-.45-1-1-1-1 .45-1 1m16.553-.085a1.116 1.116 0 0 0 .362 1.532c.521.322 1.21.159 1.532-.362a1.116 1.116 0 0 0-.362-1.532 1.116 1.116 0 0 0-1.532.362m-469.914.779c-1.126 1.126-.685 2.306.861 2.306.825 0 1.5-.423 1.5-.941 0-1.261-1.562-2.164-2.361-1.365M67 233c0 .55.45 1 1 1s1-.45 1-1-.45-1-1-1-1 .45-1 1m17 .059c0 .582.45.781 1 .441s1-.816 1-1.059-.45-.441-1-.441-1 .477-1 1.059m426.543-.128c-.317.512-.118 1.213.441 1.559.559.345 1.016-.074 1.016-.931 0-1.757-.6-2.015-1.457-.628m26.649.144c.197.591.785 1.075 1.308 1.075s1.111-.484 1.308-1.075c.197-.591-.391-1.075-1.308-1.075s-1.505.484-1.308 1.075m16.351-.144c-.74 1.197 1.141 2.382 2.473 1.559 1.119-.691.384-2.49-1.016-2.49-.485 0-1.141.419-1.457.931M33 234.5c0 .825.675 1.5 1.5 1.5s1.5-.675 1.5-1.5-.675-1.5-1.5-1.5-1.5.675-1.5 1.5m28-.059c0 .857.45 1.559 1 1.559s1-.423 1-.941-.45-1.219-1-1.559c-.55-.34-1 .084-1 .941m55.685-.7c-3.716.377-3.798.471-3.127 3.573 2.235 10.333 8.782 30.686 9.871 30.686.222 0 1.795-1.758 3.498-3.907 2.748-3.47 2.971-4.226 1.995-6.75-.605-1.564-2.333-7.542-3.84-13.286-1.508-5.744-3.155-10.502-3.661-10.573-.507-.072-2.638.044-4.736.257M128 234.748c0 1.914 6.033 20.572 6.488 20.065.155-.172-.104-3.013-.576-6.313a697.62 697.62 0 0 1-1.446-10.75c-.475-3.831-.964-4.75-2.527-4.75-1.179 0-1.939.685-1.939 1.748m10 7.179c0 10.637 1.42 12.022 2.383 2.323.368-3.713.77-7.633.893-8.712.135-1.183-.471-2.105-1.526-2.323-1.565-.323-1.75.599-1.75 8.712m313.649-8.168c-.258.417-.079 2.779.398 5.25.476 2.47.892 6.516.925 8.991.043 3.285.32 4.095 1.028 3 1.647-2.548 1.268-18-.441-18-.793 0-1.652.341-1.91.759m8.946 2.491c-.272 1.787-.768 5.725-1.101 8.75-.333 3.025-.819 6.625-1.079 8-.261 1.375.861-.943 2.492-5.151 4.312-11.126 4.876-14.849 2.25-14.849-1.563 0-2.187.792-2.562 3.25m8.462 2.458c-.704 3.185-2.375 9.28-3.713 13.544l-2.432 7.752 3.491 4.573 3.492 4.573 3.535-11.325c1.945-6.229 4.179-14.137 4.964-17.575l1.429-6.25h-3.33c-1.831 0-3.965-.244-4.743-.542-1.041-.4-1.75.981-2.693 5.25M527 234c0 .55.45 1 1 1s1-.45 1-1-.45-1-1-1-1 .45-1 1m16.694-.361c-.799.799.104 2.361 1.365 2.361.518 0 .941-.675.941-1.5 0-1.546-1.18-1.987-2.306-.861M560 235c0 1.289.506 1.998 1.25 1.75.688-.229 1.25-1.017 1.25-1.75 0-.733-.562-1.521-1.25-1.75-.744-.248-1.25.461-1.25 1.75m-532.846.438c.191.917.796 1.644 1.346 1.615 1.484-.079 1.212-2.316-.346-2.835-.841-.28-1.215.177-1 1.22M44 235.5c0 .825.45 1.5 1 1.5s1-.675 1-1.5-.45-1.5-1-1.5-1 .675-1 1.5m103.576-.623c-.786 1.272-3.558 13.474-3.153 13.879.188.189 1.837-2.717 3.665-6.457 1.827-3.739 3.492-7.137 3.7-7.549.535-1.061-3.554-.938-4.212.127M441 234.358c0 .425 7.034 13.995 7.5 14.47.471.478-1.393-7.785-2.611-11.578-.84-2.613-4.889-5.009-4.889-2.892m76 .642c0 .55.45 1 1 1s1-.45 1-1-.45-1-1-1-1 .45-1 1m16 .5c0 .917.484 1.505 1.075 1.308.591-.197 1.075-.786 1.075-1.308s-.484-1.111-1.075-1.308c-.591-.197-1.075.391-1.075 1.308m17-.059c0 .793.45 1.719 1 2.059.55.34 1-.309 1-1.441 0-1.132-.45-2.059-1-2.059s-1 .648-1 1.441m-512.361.253c-1.126 1.126-.685 2.306.861 2.306.825 0 1.5-.423 1.5-.941 0-1.261-1.562-2.164-2.361-1.365m16.361.247c0 .518.45 1.219 1 1.559.55.34 1-.084 1-.941S55.55 235 55 235s-1 .423-1 .941M71 236c0 .55.45 1 1 1s1-.45 1-1-.45-1-1-1-1 .45-1 1m95 0c0 .55.702 1 1.559 1s1.281-.45.941-1c-.34-.55-1.041-1-1.559-1s-.941.45-.941 1m258.5 0c-.34.55.084 1 .941 1s1.559-.45 1.559-1-.423-1-.941-1-1.219.45-1.559 1m98.5.559c0 .857.45 1.281 1 .941.55-.34 1-1.041 1-1.559s-.45-.941-1-.941-1 .702-1 1.559m43-.059c0 .825.675 1.5 1.5 1.5s1.5-.675 1.5-1.5-.675-1.5-1.5-1.5-1.5.675-1.5 1.5m-545.771.688c.618 1.854 2.771 2.161 2.771.395 0-.87-.712-1.583-1.583-1.583s-1.406.534-1.188 1.188M48 237.5c0 .825.45 1.5 1 1.5s1-.675 1-1.5-.45-1.5-1-1.5-1 .675-1 1.5m17-.5c0 .55.45 1 1 1s1-.45 1-1-.45-1-1-1-1 .45-1 1m108.872.687c-1.208 1.485-1.153 1.605.46 1 1.007-.378 2.807-.719 4-.757 2.099-.068 2.104-.098.168-.93-2.853-1.226-3.102-1.189-4.628.687M414 237c-1.222.79-1.098.972.668.985 1.193.008 2.993.324 4 .702 1.613.605 1.668.485.46-1-1.553-1.908-2.949-2.095-5.128-.687m99 0c0 .55.477 1 1.059 1s.781-.45.441-1-.816-1-1.059-1-.441.45-.441 1m26 0c0 .55.675 1 1.5 1s1.5-.45 1.5-1-.675-1-1.5-1-1.5.45-1.5 1m17 .5c0 .825.675 1.5 1.5 1.5s1.5-.675 1.5-1.5-.675-1.5-1.5-1.5-1.5.675-1.5 1.5m-525 1c0 .917.484 1.505 1.075 1.308.591-.197 1.075-.786 1.075-1.308s-.484-1.111-1.075-1.308c-.591-.197-1.075.391-1.075 1.308m44-.5c0 .55.45 1 1 1s1-.45 1-1-.45-1-1-1-1 .45-1 1m454 0c0 .55.45 1 1 1s1-.45 1-1-.45-1-1-1-1 .45-1 1m17 .5c0 .825.45 1.5 1 1.5s1-.675 1-1.5-.45-1.5-1-1.5-1 .675-1 1.5m16.5-.5c-.816 1.32.38 3.192 1.569 2.457 1.215-.75 1.207-3.457-.01-3.457-.518 0-1.219.45-1.559 1m9.5-.167c0 .642-.675 1.167-1.5 1.167s-1.5.675-1.5 1.5c0 2.334 2.698 1.764 3.344-.706.317-1.214.37-2.414.116-2.667-.253-.253-.46.065-.46.706M24 239.5c0 .825.675 1.5 1.5 1.5s1.5-.675 1.5-1.5-.675-1.5-1.5-1.5-1.5.675-1.5 1.5m17.192-.425c.197.591.785 1.075 1.308 1.075s1.111-.484 1.308-1.075c.197-.591-.391-1.075-1.308-1.075s-1.505.484-1.308 1.075M58 239c0 .55.45 1 1 1s1-.45 1-1-.45-1-1-1-1 .45-1 1m461 0c0 .55.45 1 1 1s1-.45 1-1-.45-1-1-1-1 .45-1 1m17 .559c0 .857.45 1.281 1 .941.55-.34 1-1.041 1-1.559s-.45-.941-1-.941-1 .702-1 1.559m16.5-.559c-.399.646-.276 1.624.274 2.174.667.667 1.242.609 1.726-.174.399-.646.276-1.624-.274-2.174-.667-.667-1.242-.609-1.726.174M35 240.5c0 .825.45 1.5 1 1.5s1-.675 1-1.5-.45-1.5-1-1.5-1 .675-1 1.5m17-.5c0 .55.45 1 1 1s1-.45 1-1-.45-1-1-1-1 .45-1 1m473.543-.069c-.317.512-.118 1.213.441 1.559.559.345 1.016-.074 1.016-.931 0-1.757-.6-2.015-1.457-.628M19 241.559c0 .857.45 1.281 1 .941.55-.34 1-1.041 1-1.559s-.45-.941-1-.941-1 .702-1 1.559m26.553-.644a1.116 1.116 0 0 0 .362 1.532c.521.322 1.21.159 1.532-.362a1.116 1.116 0 0 0-.362-1.532 1.116 1.116 0 0 0-1.532.362M62 241c0 .55.45 1 1 1s1-.45 1-1-.45-1-1-1-1 .45-1 1m99 0c0 .55.423 1 .941 1s1.219-.45 1.559-1c.34-.55-.084-1-.941-1s-1.559.45-1.559 1m27.5.109c-17.636 2.541-41.468 12.659-51.923 22.043-18.359 16.479-22.893 41.431-11.595 63.812 14.218 28.166 59.475 37.856 88.596 18.968 14.428-9.359 31.127-30.423 32.883-41.479l.628-3.953-1.496 3.25c-1.179 2.56-2.104 3.25-4.355 3.25-1.572 0-6.089 1.592-10.039 3.538-4.564 2.248-9.509 3.818-13.571 4.307-3.514.423-7.607 1.567-9.096 2.542-3.486 2.284-2.711 3.108 1.069 1.137 1.72-.897 5.559-1.514 9.438-1.518 4.675-.004 7.667-.598 10.5-2.085 11.723-6.154 13.95-5.469 7.915 2.435-3.586 4.697-4.832 5.46-5.954 3.644-1.107-1.791-4.658-1.064-11.895 2.435-11.225 5.427-12.311 6.83-3.105 4.013 12.732-3.896 15.377-2.775 6.489 2.749-5.025 3.124-6.202 4.953-1.825 2.835 1.659-.802 1.344-.256-1.084 1.884-16.977 14.959-51.57 18.977-72.42 8.412-20.239-10.256-29.79-38.403-19.87-58.554 3.015-6.123 13.422-17.37 20.15-21.774 1.26-.825 3.451-2.389 4.869-3.475 2.268-1.737 2.497-1.765 1.911-.238-.621 1.618-.46 1.63 2.339.183 1.652-.855 6.703-2.472 11.223-3.594 8.627-2.141 11.718-3.986 11.718-6.996 0-.995.787-2.222 1.75-2.725 2.549-1.333 15.626-4.155 19.256-4.155 1.82 0 2.855-.415 2.494-1-.718-1.162-6.475-1.12-15 .109m201.11-.385c-.398.398 3.081 1.273 7.732 1.944 10.45 1.508 15.658 3.546 15.658 6.126 0 2.98 2.968 4.929 10 6.566 3.575.832 8.3 2.281 10.5 3.22 2.2.938 4.981 1.824 6.181 1.968 6.066.726 21.819 15.934 26.028 25.127 3.164 6.911 4.132 17.957 2.333 26.621-7.162 34.499-46.429 47.59-85.542 28.517-6.98-3.404-15.025-9.565-10.25-7.85 3.899 1.4 3.449.827-2.25-2.866-8.268-5.358-6.772-6.292 4.898-3.058 9.637 2.67 9.674 2.184.216-2.855-8.452-4.504-12.445-5.201-13.989-2.442-.536.958-1.158 1.52-1.381 1.25-3.487-4.222-7.744-10.561-7.744-11.53 0-1.61 6.199.172 10.349 2.974 2.078 1.403 5.044 2.018 10.971 2.273 5.126.222 8.995.923 10.488 1.901 1.301.852 2.602 1.313 2.892 1.024 1.232-1.232-6.244-4.406-11.73-4.979-3.856-.403-8.418-1.863-12.938-4.139-3.84-1.934-8.329-3.516-9.975-3.516-2.237 0-3.37-.695-4.485-2.75l-1.492-2.75-.04 3.042c-.102 7.73 20.037 32.733 33.289 41.329 28.584 18.541 73.731 9.477 87.994-17.667 14.95-28.449 4.652-59.216-24.919-74.452-17.137-8.83-49.104-16.719-52.794-13.028m39.89.276c.34.55 1.041 1 1.559 1s.941-.45.941-1-.702-1-1.559-1-1.281.45-.941 1m112.5 0c0 .55.45 1 1 1s1-.45 1-1-.45-1-1-1-1 .45-1 1m16.694-.361c-.799.799.104 2.361 1.365 2.361.518 0 .941-.675.941-1.5 0-1.546-1.18-1.987-2.306-.861m-530.502 1.436c.197.591.785 1.075 1.308 1.075s1.111-.484 1.308-1.075c.197-.591-.391-1.075-1.308-1.075s-1.505.484-1.308 1.075m27.808.484c0 .857.457 1.276 1.016.931.559-.346.758-1.047.441-1.559-.857-1.387-1.457-1.129-1.457.628M532 242c0 .55.45 1 1 1s1-.45 1-1-.45-1-1-1-1 .45-1 1m16.192.075c.197.591.785 1.075 1.308 1.075s1.111-.484 1.308-1.075c.197-.591-.391-1.075-1.308-1.075s-1.505.484-1.308 1.075m16.962.363c.191.917.796 1.644 1.346 1.615 1.484-.079 1.212-2.316-.346-2.835-.841-.28-1.215.177-1 1.22M22 243.5c0 .917.484 1.505 1.075 1.308.591-.197 1.075-.786 1.075-1.308s-.484-1.111-1.075-1.308c-.591-.197-1.075.391-1.075 1.308m17-.5c0 .55.45 1 1 1s1-.45 1-1-.45-1-1-1-1 .45-1 1m166.28 3.072c-3.55 3.585-5.052 4.295-12.576 5.939-7.243 1.583-16.704 5.194-16.704 6.375 0 .19 2.857-.447 6.349-1.415 5.247-1.455 13.131-2.644 19.356-2.918 1.71-.075 12.439-10.576 11.631-11.384-1.561-1.56-4.278-.412-8.056 3.403m174.416-3.434c-.351.35 1.748 3.023 4.664 5.939 5.212 5.213 5.426 5.313 12.721 5.999 4.08.383 10.218 1.471 13.64 2.418 3.422.947 6.017 1.391 5.767.987-.83-1.344-10.895-4.937-17.832-6.366-5.773-1.19-7.479-2.052-10.906-5.513-3.778-3.815-6.523-4.996-8.054-3.464M538 243c0 .55.45 1 1 1s1-.45 1-1-.45-1-1-1-1 .45-1 1m17 .5c0 .825.45 1.5 1 1.5s1-.675 1-1.5-.45-1.5-1-1.5-1 .675-1 1.5m-522.306.139c-.799.799.104 2.361 1.365 2.361.518 0 .941-.675.941-1.5 0-1.546-1.18-1.987-2.306-.861M49 244c0 .55.45 1 1 1s1-.45 1-1-.45-1-1-1-1 .45-1 1m17.5 0c.34.55.816 1 1.059 1s.441-.45.441-1-.477-1-1.059-1-.781.45-.441 1m204.313.833c-1.946 1.978-1.763 6.895.312 8.375 1.038.74.919.832-.486.375-1.377-.448-1.711-.214-1.284.899.326.851-.385 2.402-1.639 3.573-1.666 1.555-1.781 1.902-.466 1.4 1.118-.428 1.792-.179 1.865.688.064.746.176 1.993.25 2.771.195 2.047 2.528 2.529 3.241.669.335-.871 1.058-1.583 1.608-1.583s.75.652.444 1.449c-.372.969-.076 1.265.893.893.807-.309 1.5.046 1.564.801.064.746.176 2.032.25 2.857.074.825.81 1.5 1.635 1.5 1.118 0 1.53-1.274 1.617-5 .168-7.177.27-7.688 1.399-6.99.559.346.736 1.082.394 1.636-.343.554.218 1.79 1.245 2.747 1.776 1.654 1.961 1.652 3.752-.049 1.839-1.746 1.81-1.865-1.226-4.97-1.71-1.749-2.861-3.583-2.557-4.075.304-.492-.654-2.102-2.13-3.578-2.476-2.476-2.78-2.551-3.937-.967-1.369 1.871-2.723 1.342-1.92-.751.275-.715.024-1.595-.557-1.954-.643-.397-.824-.045-.462.899.328.854.098 1.552-.511 1.552-1.091 0-1.5-1.299-1.182-3.75.207-1.588-.044-1.518-2.112.583m14.457.995c.011 1.469.217 2.11.458 1.422.241-.687.899-1.25 1.462-1.25s.724.787.358 1.75c-.533 1.399-.415 1.5.587.506 1.004-.997.842-1.629-.816-3.173-2.057-1.917-2.069-1.912-2.049.745M528 244c0 .55.45 1 1 1s1-.45 1-1-.45-1-1-1-1 .45-1 1m43 .5c0 .825.45 1.5 1 1.5s1-.675 1-1.5-.45-1.5-1-1.5-1 .675-1 1.5m-528 1c0 .825.45 1.5 1 1.5s1-.675 1-1.5-.45-1.5-1-1.5-1 .675-1 1.5m17-.5c0 .55.477 1 1.059 1s.781-.45.441-1-.816-1-1.059-1-.441.45-.441 1m484.5 0c.34.55 1.041 1 1.559 1s.941-.45.941-1-.702-1-1.559-1-1.281.45-.941 1m16.5.583c0 .871.534 1.406 1.188 1.188 1.854-.618 2.161-2.771.395-2.771-.871 0-1.583.713-1.583 1.583m-534.85.367c.22.66.726 1.166 1.125 1.125 1.196-.124.964-1.495-.325-1.925-.66-.22-1.02.14-.8.8m27.393-.019c-.317.512-.118 1.213.441 1.559.559.345 1.016-.074 1.016-.931 0-1.757-.6-2.015-1.457-.628M534 246c0 .55.45 1 1 1s1-.45 1-1-.45-1-1-1-1 .45-1 1m17 0c0 .55.45 1 1 1s1-.45 1-1-.45-1-1-1-1 .45-1 1m16.694-.361c-.799.799.104 2.361 1.365 2.361.518 0 .941-.675.941-1.5 0-1.546-1.18-1.987-2.306-.861m-548 1c-.799.799.104 2.361 1.365 2.361.518 0 .941-.675.941-1.5 0-1.546-1.18-1.987-2.306-.861M36.5 247c-.34.55.084 1 .941 1S39 247.55 39 247s-.423-1-.941-1-1.219.45-1.559 1m233.5-.107c0 .491.675 1.152 1.5 1.469.825.316 1.493 1.152 1.485 1.857-.011.91-.285.855-.946-.19-.512-.809-1.279-1.122-1.706-.696-.939.94 1.717 2.754 2.932 2.003.474-.293 1.63.164 2.571 1.015 1.732 1.568 5.433.584 3.831-1.018-.427-.426-1.194-.113-1.706.696-.568.898-.936 1.007-.946.28-.027-2.155 2.262-2.65 3.626-.785.736 1.007 1.605 1.563 1.932 1.236.327-.326-.38-1.567-1.57-2.757-2.082-2.082-2.218-2.095-3.581-.334-1.35 1.744-1.534 1.701-3.872-.919-2.549-2.857-3.55-3.38-3.55-1.857M524 247c0 .55.45 1 1 1s1-.45 1-1-.45-1-1-1-1 .45-1 1m17 0c0 .55.45 1 1 1s1-.45 1-1-.45-1-1-1-1 .45-1 1m16.469.05c-.95 1.538.351 2.53 1.635 1.246.718-.718.735-1.277.052-1.699-.56-.346-1.319-.142-1.687.453M30 248.5c0 .825.45 1.5 1 1.5s1-.675 1-1.5-.45-1.5-1-1.5-1 .675-1 1.5m17-.5c0 .55.45 1 1 1s1-.45 1-1-.45-1-1-1-1 .45-1 1m-6.447.915a1.116 1.116 0 0 0 .362 1.532c.521.322 1.21.159 1.532-.362a1.116 1.116 0 0 0-.362-1.532 1.116 1.116 0 0 0-1.532.362M57.5 249c-.34.55-.141 1 .441 1S59 249.55 59 249s-.198-1-.441-1-.719.45-1.059 1m489.5 0c0 .55.45 1 1 1s1-.45 1-1-.45-1-1-1-1 .45-1 1m17 .5c0 .825.45 1.5 1 1.5s1-.675 1-1.5-.45-1.5-1-1.5-1 .675-1 1.5M24 250c0 .55.45 1 1 1s1-.45 1-1-.45-1-1-1-1 .45-1 1m142.652 1.615c-4.884 2.542-5.791 4.245-1.477 2.775 1.279-.435 2.55-.846 2.825-.912 1.887-.455 6-2.949 6-3.639 0-1.413-2.276-.863-7.348 1.776M419 249.974c0 1.247 4.557 3.582 8.75 4.485 4.547.979 4.058.173-1.732-2.854-5.334-2.789-7.018-3.181-7.018-1.631m118 .085c0 .582.45.781 1 .441s1-.816 1-1.059-.45-.441-1-.441-1 .477-1 1.059m16.15-.109c.22.66.726 1.166 1.125 1.125 1.196-.124.964-1.495-.325-1.925-.66-.22-1.02.14-.8.8m16.85.55c0 .917.484 1.505 1.075 1.308.591-.197 1.075-.786 1.075-1.308s-.484-1.111-1.075-1.308c-.591-.197-1.075.391-1.075 1.308M34 251c0 .55.45 1 1 1s1-.45 1-1-.45-1-1-1-1 .45-1 1m232.618.448c.328.854.098 1.552-.511 1.552s-1.107-.468-1.107-1.039c0-.601-.592-.495-1.401.25-.771.709-.996 1.439-.5 1.622.495.184.901.794.901 1.357s-.698.756-1.552.428c-.854-.327-1.294-.178-.979.332 1.366 2.211 5.987.572 6.2-2.199.114-1.49-.209-2.967-.719-3.282-.51-.315-.659.125-.332.979M543 251c0 .55.45 1 1 1s1-.45 1-1-.45-1-1-1-1 .45-1 1m17 .441c0 .857.45 1.559 1 1.559s1-.423 1-.941-.45-1.219-1-1.559c-.55-.34-1 .084-1 .941m-532.306.198c-.799.799.104 2.361 1.365 2.361.518 0 .941-.675.941-1.5 0-1.546-1.18-1.987-2.306-.861M533 252c0 .55.477 1 1.059 1s.781-.45.441-1-.816-1-1.059-1-.441.45-.441 1m-495 .941c0 .518.45 1.219 1 1.559.55.34 1-.084 1-.941S39.55 252 39 252s-1 .423-1 .941m511.51.075c.346.559 1.047.758 1.559.441 1.387-.857 1.129-1.457-.628-1.457-.857 0-1.276.457-.931 1.016M566 253c0 .55.702 1 1.559 1s1.281-.45.941-1c-.34-.55-1.041-1-1.559-1s-.941.45-.941 1m-545 1c0 .55.45 1 1 1s1-.45 1-1-.45-1-1-1-1 .45-1 1m243.658.551c.306.797.958 1.449 1.449 1.449 1.438 0 1.026-1.735-.556-2.342-.969-.372-1.265-.076-.893.893m14.391-.11c-.657.792-1.792 1.211-2.521.931-.729-.279-1.586-.088-1.903.426-.327.529.787.775 2.574.567l3.151-.367-2.349 2.501c-2.75 2.928-3.465 3.152-2.565.807.57-1.486.399-1.467-1.391.154-2.017 1.824-2.037 1.809-1.684-1.221.254-2.184-.012-2.926-.925-2.576-2.03.779-2.482 3.148-.902 4.728 1.1 1.1 1.15 1.555.207 1.892-.683.244-.899.809-.481 1.257.419.448 1.39-.047 2.16-1.1 1.292-1.767 1.54-1.791 3.24-.307 1.9 1.659 4.34 1.477 4.34-.323 0-.563-.675-.765-1.5-.448-2.027.777-1.909.425.982-2.939 2.354-2.74 2.571-2.799 4.214-1.156 1.074 1.075 1.271 1.733.518 1.733-1.637 0-1.546 1.659.127 2.3 3.687 1.415 3.801-1.198.204-4.69-4.291-4.168-3.949-4.033-5.496-2.169m73.701.271c-6.057 6.734 1.432 10.383 11.681 5.691 6.792-3.109 13.364-2.148 27.893 4.08 10.358 4.439 6.863 1.436-5.893-5.066-11.9-6.065-16.659-6.641-24.039-2.907-5.751 2.91-6.983 2.686-7.557-1.377-.33-2.331-.362-2.338-2.085-.421M539.5 254c.34.55.816 1 1.059 1s.441-.45.441-1-.477-1-1.059-1-.781.45-.441 1m16.5 0c0 .55.45 1 1 1s1-.45 1-1-.45-1-1-1-1 .45-1 1m-524 1c0 .55.45 1 1 1s1-.45 1-1-.45-1-1-1-1 .45-1 1m182.738.522c-5.11 1.877-16.671 8.059-19.738 10.556l-2.5 2.035 4-1.934c15.286-7.39 25.544-9.204 32.399-5.73 2.769 1.403 6.142 2.551 7.496 2.551 4.473 0 7.264-4.941 4.405-7.8-1.77-1.77-2.8-1.464-2.8.831 0 3.196-2.596 3.396-7.416.571-4.979-2.918-9.923-3.255-15.846-1.08M546 255c0 .55.477 1 1.059 1s.781-.45.441-1-.816-1-1.059-1-.441.45-.441 1m16.583-.134c-.431.697-.513 1.537-.183 1.867.895.895 1.871-.421 1.387-1.871-.338-1.016-.574-1.016-1.204.004M25 255.941c0 .518.45 1.219 1 1.559.55.34 1-.084 1-.941S26.55 255 26 255s-1 .423-1 .941M42 256c0 .55.45 1 1 1s1-.45 1-1-.45-1-1-1-1 .45-1 1m-6 1c0 .55.477 1 1.059 1s.781-.45.441-1-.816-1-1.059-1-.441.45-.441 1m516 .059c0 .582.45.781 1 .441s1-.816 1-1.059-.45-.441-1-.441-1 .477-1 1.059m17-.059c0 .55.45 1 1 1s1-.45 1-1-.45-1-1-1-1 .45-1 1m-550 1c0 .55.45 1 1 1s1-.45 1-1-.45-1-1-1-1 .45-1 1m523 .059c0 .582.45.781 1 .441s1-.816 1-1.059-.45-.441-1-.441-1 .477-1 1.059m16-.059c0 .55.45 1 1 1s1-.45 1-1-.45-1-1-1-1 .45-1 1m-529 1c0 .55.45 1 1 1s1-.45 1-1-.45-1-1-1-1 .45-1 1m519 0c0 .55.45 1 1 1s1-.45 1-1-.45-1-1-1-1 .45-1 1m17 .559c0 .857.457 1.276 1.016.931.559-.346.758-1.047.441-1.559-.857-1.387-1.457-1.129-1.457.628m-542 1c0 .857.457 1.276 1.016.931.559-.346.758-1.047.441-1.559-.857-1.387-1.457-1.129-1.457.628m532.079.024c.048 1.165.285 1.402.604.605.289-.722.253-1.585-.079-1.917-.332-.332-.568.258-.525 1.312M33.5 261c-.34.55-.141 1 .441 1S35 261.55 35 261s-.198-1-.441-1-.719.45-1.059 1m537.5 0c0 .55.45 1 1 1s1-.45 1-1-.45-1-1-1-1 .45-1 1m-10 1c0 .55.45 1 1 1s1-.45 1-1-.45-1-1-1-1 .45-1 1m-534 1.059c0 .582.45.781 1 .441s1-.816 1-1.059-.45-.441-1-.441-1 .477-1 1.059m540.543-.128c-.317.512-.118 1.213.441 1.559.559.345 1.016-.074 1.016-.931 0-1.757-.6-2.015-1.457-.628M20.5 264c-.34.55-.141 1 .441 1S22 264.55 22 264s-.198-1-.441-1-.719.45-1.059 1m257.5 1c0 .55.45 1 1 1s1-.45 1-1-.45-1-1-1-1 .45-1 1m285.5 1c.34.55.816 1 1.059 1s.441-.45.441-1-.477-1-1.059-1-.781.45-.441 1m-539 1c.34.55.816 1 1.059 1s.441-.45.441-1-.477-1-1.059-1-.781.45-.441 1m320.5 1.374c0 5.104 3.165 11.216 8.722 16.841 5.424 5.49 5.663 5.954 6.089 11.852.518 7.155 2.15 6.129 2.174-1.367.018-5.819-1.84-9.683-7.687-15.983-2.442-2.63-5.329-6.793-6.416-9.25-2.233-5.048-2.882-5.519-2.882-2.093m208-1.315c0 .582.45.781 1 .441s1-.816 1-1.059-.45-.441-1-.441-1 .477-1 1.059m-339.129 1.371c-3.977 1.514-12.137 6.637-11.534 7.241.208.208 3.03-.324 6.271-1.182 16.755-4.436 22.959.569 11.401 9.198-5.96 4.45-5.834 5.181.387 2.257 9.055-4.256 11.565-9.737 6.854-14.963-3.275-3.633-8.113-4.555-13.379-2.551m30.164 3.494c-1.278 2.731-3.874 6.452-5.767 8.27-6.336 6.084-9.443 16.893-6.268 21.806.688 1.065.974-.167.985-4.246.015-5.657.113-5.853 6.36-12.659 4.493-4.897 6.724-8.27 7.645-11.559 1.903-6.798-.031-7.853-2.955-1.612M278 268c0 .55.45 1 1 1s1-.45 1-1-.45-1-1-1-1 .45-1 1m91.388-.02c-9.489 3.834-7.191 13.733 4.303 18.535 5.156 2.155 4.971 1.406-.7-2.828-5.036-3.76-7.18-7.898-5.147-9.931 1.549-1.549 10.249-1.162 16.817.748 6.947 2.019 7.511 1.537 2.262-1.936-7.204-4.768-13.205-6.338-17.535-4.588M566 270.059c0 .582.45.781 1 .441s1-.816 1-1.059-.45-.441-1-.441-1 .477-1 1.059M445.5 280c.34.55.816 1 1.059 1s.441-.45.441-1-.477-1-1.059-1-.781.45-.441 1m-9.5 1c0 .55.45 1 1 1s1-.45 1-1-.45-1-1-1-1 .45-1 1m-263.5 5c-.34.55-.141 1 .441 1s1.059-.45 1.059-1-.198-1-.441-1-.719.45-1.059 1m246.5 0c0 .55.477 1 1.059 1s.781-.45.441-1-.816-1-1.059-1-.441.45-.441 1m38 3c0 .55.477 1 1.059 1s.781-.45.441-1-.816-1-1.059-1-.441.45-.441 1m-167.543 4.863c-4.436 2.705-5.918 5.493-11.352 21.352-2.692 7.857-5.892 16.922-7.112 20.144l-2.219 5.86 2.092 2.092c2.521 2.521 13.508 3.63 17.071 1.723 2.169-1.161 2.196-1.098 1.559 3.642-2.793 20.764-28.692 39.223-55.204 39.346-3.14.015-5.641.675-7.255 1.915l-2.462 1.893 3.857.723c2.121.398 7.504.454 11.962.125 27.923-2.064 51.749-18.873 55.147-38.904l.725-4.274 1.384 5.395c5.27 20.552 27.2 35.615 54.963 37.754 4.462.344 9.821.304 11.91-.087l3.796-.713-2.909-1.918c-1.689-1.113-4.657-1.921-7.072-1.924-26.093-.042-52.028-18.63-54.919-39.361-.671-4.809-.656-4.843 1.588-3.642 3.555 1.902 14.579.854 17.056-1.622 1.999-2 2.001-2.068.134-6.452-1.038-2.436-3.82-10.28-6.183-17.43-4.987-15.093-9.046-23.708-12.214-25.928-4.179-2.927-4.817-1.612-1.394 2.873 7.602 9.959 12.387 24.022 10.302 30.278-2.002 6.006-9.149 6.927-14.243 1.833l-2.362-2.362-1.518 2.316c-3.427 5.231-12.628 3.921-14.608-2.08-2.027-6.14 2.707-19.622 10.451-29.768 3.876-5.078 3.683-5.637-.971-2.799m-148.674 2.421c-11.9 11.9-3.137 33.002 13.705 33.002 13.424 0 20.982-14.518 14.218-27.31-2.868-5.424-3.773-5.723-5.915-1.96-4.587 8.06-16.169 5.748-17.677-3.529l-.634-3.9-3.697 3.697m306.791 1.173c-1.559 8.309-11.273 10.002-17.171 2.992l-3.097-3.68-2.369 3.834c-5.442 8.805-3.086 21.669 4.869 26.586 17.114 10.577 37.107-15.295 23.268-30.11-3.687-3.947-4.702-3.877-5.5.378M175 298c0 .55.45 1 1 1s1-.45 1-1-.45-1-1-1-1 .45-1 1m241 .059c0 .582.45.781 1 .441s1-.816 1-1.059-.45-.441-1-.441-1 .477-1 1.059m64.411 11.284c1.928 5.947-3.449 22.053-10.468 31.348-4.283 5.674-3.4 5.974 3.611 1.228 10.487-7.101 14.531-22.176 8.388-31.268-1.171-1.733-1.86-2.322-1.531-1.308m-370.856 3.915c-3.96 10.282.19 21.846 10.401 28.979 7.228 5.05 7.852 4.747 3.121-1.519-5.596-7.412-9.087-15.579-10.488-24.537l-1.202-7.681-1.832 4.758M460 312c0 .55.45 1 1 1s1-.45 1-1-.45-1-1-1-1 .45-1 1m-273.5 2c.34.55.816 1 1.059 1s.441-.45.441-1-.477-1-1.059-1-.781.45-.441 1m54.649 7.066c-2.939 4.729-5.044 16.413-2.149 11.934.533-.825.976-2.475.985-3.667.008-1.191.419-2.316.913-2.5.81-.3 4.405-10.833 3.698-10.833-.164 0-1.714 2.28-3.447 5.066m107.399-1.816c1.089 5.009 2.302 7.75 3.427 7.75.564 0 1.032 1.238 1.04 2.75.009 1.512.452 3.425.985 4.25 2.938 4.547.83-8.141-2.149-12.934-3.682-5.921-4.266-6.242-3.303-1.816m-247.855 2.107c-2.261 5.892.005 13.528 5.348 18.024 4.532 3.814 5.288 3.214 2.055-1.631-2.825-4.234-4.386-8.124-5.909-14.724-.63-2.733-.949-3.089-1.494-1.669m389.36 3.885c-.631 3.044-2.669 8.059-4.528 11.146-3.711 6.163-3.315 6.989 1.434 2.993 4.182-3.519 6.044-7.407 6.026-12.581-.025-7.058-1.614-7.902-2.932-1.558M180 325c0 .55.45 1 1 1s1-.45 1-1-.45-1-1-1-1 .45-1 1m231 0c0 .55.45 1 1 1s1-.45 1-1-.45-1-1-1-1 .45-1 1m4.5 4c-.34.55-.141 1 .441 1s1.059-.45 1.059-1-.198-1-.441-1-.719.45-1.059 1m-180.75 1.573c-.412.418-.75 2.009-.75 3.535 0 3.077-1.8 4.833-2.987 2.913-1.021-1.652-2.411.498-1.633 2.527.651 1.696-.226 4.452-1.417 4.452-.453 0-1.023-1.012-1.266-2.25l-.443-2.25-.744 2.25c-.409 1.238-1.323 2.25-2.032 2.25-.709 0-3.175 1.576-5.48 3.502-2.306 1.926-6.593 4.938-9.529 6.694-2.935 1.756-5.786 4.117-6.335 5.248-.549 1.131-1.029 1.494-1.066.806-.038-.687-.57-1.25-1.184-1.25-1 0-.405 12.748.645 13.847 1.299 1.358 6.482-3.622 6.571-6.313.097-2.962.118-2.975.9-.534.676 2.111.816 1.829.9-1.816.055-2.373.659-5.298 1.343-6.5 1.157-2.031 1.282-1.87 1.791 2.316l.547 4.5.969-5.5c1.137-6.453 2.763-6.82 3.398-.768l.448 4.268.552-5.422c.657-6.457 2.742-7.957 3.32-2.39l.396 3.812.168-3.628c.217-4.676 3.126-7.581 3.25-3.244l.081 2.872 1.44-3.296c.792-1.812 1.831-3.054 2.309-2.758.478.295 1.662-.674 2.632-2.153 1.205-1.84 1.398-2.812.609-3.075-.634-.212-1.153-1.247-1.153-2.301 0-2.398 2.977-2.56 3.063-.167.045 1.239.351 1.03 1.047-.714 1.104-2.766.804-10.644-.36-9.463M357 335.382c0 3.025.45 5.778 1 6.118.55.34 1-.084 1-.941s.675-1.559 1.5-1.559c1.795 0 2.028 3.657.271 4.243-1.667.556 1.723 5.757 3.752 5.757.812 0 1.477.9 1.477 2s.45 2 1 2 1-.955 1-2.122c0-3.654 2.834-.238 3.276 3.948l.388 3.674.168-3.833c.253-5.762 2.555-4.057 3.255 2.411l.587 5.422.163-4.833c.205-6.069 2.521-5.943 2.97.161.328 4.45 2.193 5.872 2.193 1.672 0-6.261 2.944-1.672 3.1 4.832.085 3.567.215 3.808.9 1.668.761-2.377.806-2.341.9.724.088 2.821 5.269 7.642 6.556 6.1.928-1.111 1.453-13.824.572-13.824-.565 0-1.057.788-1.091 1.75-.05 1.383-.247 1.295-.939-.421-.481-1.194-3.715-4.081-7.187-6.416-3.471-2.335-7.789-5.52-9.596-7.079-1.806-1.559-3.891-2.834-4.633-2.834s-1.683-1.012-2.092-2.25l-.744-2.25-.45 2.308c-.622 3.187-2.77 2.154-2.911-1.401-.182-4.586-.312-4.88-1.585-3.607-2.005 2.005-2.8 1.368-2.8-2.241 0-1.893-.45-3.719-1-4.059-.62-.383-1 1.47-1 4.882M168.5 334c-.34.55-.141 1 .441 1s1.059-.45 1.059-1-.198-1-.441-1-.719.45-1.059 1m46.007.989c-.35.566.051.734.941.393 1.732-.665 2.049-1.382.611-1.382-.518 0-1.216.445-1.552.989m79.84 3.454-2.018 4.127 2.12 1.599c1.945 1.467 2.282 1.464 4.085-.035 1.953-1.623 1.952-1.662-.102-5.726l-2.067-4.092-2.018 4.127M376.5 335c.34.55 1.068 1 1.618 1s.722-.45.382-1c-.34-.55-1.068-1-1.618-1s-.722.45-.382 1m50 0c-.34.55-.141 1 .441 1s1.059-.45 1.059-1-.198-1-.441-1-.719.45-1.059 1m-93.243 27.586c.578 5.132 4.614 10.176 10.303 12.875 5.68 2.696 5.776 1.687.398-4.197-2.883-3.154-6.363-7.429-7.733-9.5-3.208-4.848-3.595-4.741-2.968.822M154 359.645c0 3.96 9.086 14.918 16.101 19.42l4.996 3.206 6.463-1.75c7.382-1.998 8.736-3.177 4.731-4.119-4.899-1.153-14.263-6.606-17.318-10.085-2.527-2.879-14.973-8.425-14.973-6.672m102.678 1.724c-.854 1.304-4.144 5.425-7.312 9.158-5.52 6.506-5.636 6.758-2.812 6.053 6.361-1.588 12.105-7.705 13.123-13.974.678-4.184-.697-4.751-2.999-1.237M432 361.31c-3.344 1.101-7.068 3.32-9.5 5.66-3.945 3.797-11.753 8.124-17.066 9.457-3.721.934-2.16 2.103 5.396 4.044 6.301 1.618 6.35 1.614 10.534-.839 6.841-4.009 17.655-16.797 16.447-19.45-.171-.375-2.786.133-5.811 1.128m-238.51.706c-.346.559-1.047.758-1.559.441-.526-.325-.88 1.301-.815 3.734.064 2.37.322 3.521.573 2.559.904-3.459 3.186-1.865 3.579 2.5.252 2.801.442 1.779.557-3 .16-6.607-.695-8.888-2.335-6.234m203.589 3.734c.043 2.613.336 4.075.65 3.25 1.244-3.269 2.776-2.917 3.379.777.515 3.15.628 2.799.735-2.277.076-3.608-.211-5.468-.719-4.666-.681 1.074-.964 1.025-1.453-.25-1.234-3.214-2.669-1.461-2.592 3.166m-216.829-1.719c-3.076 1.236-3.085 5.034-.011 4.707 1.796-.191 4.761-3.524 4.761-5.352 0-.638-2.355-.318-4.75.645m83.245 1.993c-.366 1.663-1.807 4.382-3.204 6.042-1.397 1.66-2.312 3.246-2.034 3.524.983.983 7.743-7.983 7.743-10.27 0-3.341-1.723-2.857-2.505.704m63.253-2.439c-1.147 1.147 1.397 6.163 4.796 9.458 1.901 1.842 3.456 2.866 3.456 2.276 0-.591-.736-1.685-1.637-2.432-.9-.747-2.459-3.278-3.464-5.623-1.875-4.375-2.143-4.687-3.151-3.679m81.597 1.244c.91 1.006 1.655 2.243 1.656 2.75 0 .506 1.125.986 2.5 1.065 4.043.233 3.491-4.196-.626-5.019-4.79-.958-5.322-.777-3.53 1.204M265 373.157c-6.45 6.022-6.469 6.055-2.5 4.413 4.95-2.048 10.891-6.733 11.323-8.928.603-3.06-2.301-1.574-8.823 4.515m27.283.539c-7.135 12.11-7.025 10.261-1.211 20.335 2.847 4.933 5.295 8.969 5.44 8.969.144 0 2.594-4.101 5.444-9.114l5.182-9.113-4.684-8.137c-2.576-4.475-5.017-8.498-5.423-8.94-.406-.442-2.543 2.258-4.748 6M319 368.411c0 1.754 5.017 6.047 10.094 8.637 5.867 2.993 5.699 2.437-1.207-4.004-6.404-5.971-8.887-7.266-8.887-4.633m-24.69 12.788c-2.007 3.402-2.009 3.498-.148 7.125 2.285 4.455 2.378 4.467 4.394.568 1.694-3.275 1.432-6.16-.84-9.267-1.296-1.771-1.484-1.684-3.406 1.574M239 383c0 .55.45 1 1 1s1-.45 1-1-.45-1-1-1-1 .45-1 1m113 0c0 .55.45 1 1 1s1-.45 1-1-.45-1-1-1-1 .45-1 1m-76.025 3.565c-.536 1.411-.975 2.9-.975 3.309 0 .409-1.542 3.305-3.427 6.435-3.987 6.621-3.237 7.187 2.577 1.941 4.648-4.194 7.028-8.851 6.181-12.092-.77-2.943-3.167-2.719-4.356.407m36.479-.239c-.852 3.394 1.573 7.648 7.167 12.572 5.337 4.697 6.656 4.704 3.319.017-1.254-1.76-3.302-5.723-4.553-8.807-2.491-6.142-4.947-7.708-5.933-3.782m-168.738 8.549c-1.89 2.247-2.114 6.568-.251 4.855.736-.677.932-1.38.436-1.563-1.342-.497-1.089-1.881.452-2.472 1.347-.517 1.542 3.048.279 5.092-.308.498 1.987.859 5.134.807 5.416-.089 5.702-.223 5.896-2.75.12-1.562-.592-3.376-1.729-4.405-1.063-.962-1.933-1.252-1.933-.644s.784 1.544 1.742 2.08 1.414 1.302 1.014 1.703c-.401.4-1.623-.41-2.716-1.8-2.286-2.906-6.274-3.338-8.324-.903m294.713.107c0 1.029.379 1.637.842 1.35 2.281-1.409 5.3-.937 5.3.829 0 1.587-.194 1.645-1.416.422-2.222-2.221-4.316.206-2.255 2.613.849.992 2.007 1.797 2.572 1.789.566-.009.353-.452-.472-.985-.825-.533-1.012-.976-.417-.985.596-.008 1.421.322 1.833.735 1.458 1.458 5.607.982 4.375-.502-.818-.986-1.304-1.036-1.828-.189-.398.644-.713.01-.713-1.434 0-1.423.619-3.101 1.375-3.729 1.006-.834 1.375-.839 1.375-.018 0 .617-.45 1.122-1 1.122s-1 .505-1 1.122c0 .765.489.717 1.533-.15.844-.7 1.369-1.767 1.167-2.372-.438-1.313-8.7-1.556-8.7-.256 0 .495-.579.421-1.286-.166-.969-.805-1.285-.607-1.285.804m-288.185 1.582c1.333 1.592 1.457 2.335.542 3.25s-.912 1.186.014 1.186c.66 0 1.207-.562 1.215-1.25.011-.847.316-.775.946.221.512.809 1.255 1.147 1.651.75.397-.397.534-.834.305-.971-.229-.137-1.764-1.375-3.41-2.75-2.16-1.804-2.512-1.926-1.263-.436m100.756.209-3.5 1.727 5.525.594c3.038.327 6.561 1.149 7.828 1.827 2.898 1.551 5.147.741 5.147-1.854 0-4.149-8.583-5.461-15-2.294m77.75-.693c-2.045 1.191-2.336 4.758-.447 5.483.716.275 2.952-.189 4.968-1.032 2.016-.842 5.592-1.55 7.947-1.573l4.282-.042L342 397c-3.804-2.082-10.461-2.545-13.25-.92m-48.309 1.388c-1.875 1.418-1.856 1.471.559 1.536 1.375.037 3.625.71 5 1.496 3.194 1.826 4 1.84 4 .071 0-3.963-5.892-5.876-9.559-3.103m24.13.103c-3.39 3.391-1.778 5.334 2.429 2.929 1.375-.786 3.625-1.459 5-1.496 2.415-.065 2.434-.118.559-1.536-2.531-1.914-6.015-1.869-7.988.103m-91.028.36c-.317.512-.118 1.213.441 1.559.559.345 1.016-.074 1.016-.931 0-1.757-.6-2.015-1.457-.628m16.457.796-3.5 1.65 3 .347c1.65.19 4.022.862 5.27 1.491 3.455 1.742 5.052-.393 2.33-3.115-2.487-2.487-2.599-2.493-7.1-.373m125.861.202c-3.118 2.548-1.265 5.118 2.369 3.286 1.248-.629 3.62-1.301 5.27-1.493l3-.349-3.718-1.686c-4.554-2.067-4.075-2.083-6.921.242m22.139-.37c0 .857.457 1.276 1.016.931.559-.346.758-1.047.441-1.559-.857-1.387-1.457-1.129-1.457.628m-181.5 5.354-5 1.759-.264 29.923c-.26 29.361-.222 30.008 2 34.414 2.926 5.804 6.596 7.72 10.783 5.631l2.981-1.487.022 3.174c.058 8.4 5.417 14.28 12.187 13.372 3.085-.414 4.027-.172 4.423 1.137 3.508 11.596 11.117 16.098 17.597 10.41 1.56-1.37 1.787-1.334 2.318.368 3.883 12.441 13.143 17.783 19.87 11.464l2.337-2.195.684 2.808c4.604 18.908 25.362 16.602 29.15-3.238l.754-3.953 1.168 4.5c5.002 19.288 23.275 21.8 28.627 3.936l1.137-3.793 2.638 1.95C337.285 519.544 349 512.76 349 503.04c0-2.359 1.253-2.645 2.9-.661 4.714 5.68 14.434.78 16.859-8.499.843-3.227 1.069-3.365 4.982-3.052 7.113.57 12.182-5.138 12.237-13.778.017-2.683.289-3.183 1.222-2.25 2.281 2.281 8.455 1.455 10.728-1.435 3.792-4.821 4.18-8.716 3.87-38.806l-.298-28.941-6-1.795c-3.3-.988-6.822-1.802-7.827-1.809-1.893-.014-7.005 4.483-7.797 6.859-.341 1.021-1.401.71-4.303-1.259-5.847-3.968-13.577-2.59-17.294 3.083l-1.571 2.397-2.604-2.425c-7.279-6.779-15.751-6.277-21.877 1.296l-1.994 2.465-2.605-3.095c-5.755-6.84-14.306-8.194-21.788-3.448-4.522 2.867-8.742 9.34-8.919 13.679-.043 1.064-.783-.091-1.643-2.566-5.183-14.917-20.5-18.843-29.906-7.665l-2.605 3.095-1.994-2.465c-6.126-7.573-14.598-8.075-21.877-1.296l-2.604 2.425-1.571-2.397c-3.717-5.673-11.447-7.051-17.294-3.083-2.902 1.969-3.962 2.28-4.303 1.259-2.05-6.151-8.101-7.957-16.624-4.96m-16.25 3.81-3.25.404v58.948l3.382 8.757c15.944 41.285 46.206 73.281 80.118 84.711 7.18 2.42 9.229 2.67 20 2.448 15.11-.313 17.428-.313 31.5-.003 12.59.278 16.057-.392 27.905-5.389 29.948-12.63 58.518-44.956 73.059-82.661l3.036-7.873V408l-2.25-.014c-1.238-.007-3.262-.285-4.5-.616l-2.25-.603v28.46c0 32.307.082 31.846-8.941 50.273-16.095 32.868-41.969 57.713-69.059 66.314-9.617 3.053-56.055 3.044-65.366-.012-30.761-10.098-59.112-40.226-74.641-79.32L186 464.948v-28.974c0-22.598-.275-28.939-1.25-28.814-.687.088-2.713.342-4.5.563M198 409c-4.015 4.015-2.715 7.61 3.971 10.986 7.501 3.786 7.029 3.923 7.029-2.052 0-9.652-5.674-14.26-11-8.934m188.039.189c-1.567 1.682-2.039 3.533-2.039 8 0 6.72-.192 6.639 7 2.935 4.662-2.402 5.547-3.304 5.809-5.92.617-6.164-6.579-9.515-10.77-5.015M221 411.279c-3.282 1.639-6.117 7.353-5.774 11.634.263 3.272.562 3.511 7.219 5.75 10.416 3.505 10.555 3.456 10.555-3.762 0-11.148-5.181-17.029-12-13.622m52.034.423c-5.283 2.741-7.211 7.001-7.794 17.222-.317 5.556-.118 9.033.54 9.44.572.354 6.481.936 13.13 1.293l12.09.65v-9.185c0-16.629-7.571-24.812-17.966-19.42M311 410.66c-6.437 2.55-9 8.23-9 19.944v9.703l12.192-.655c7.956-.428 12.493-1.089 13.057-1.904 1.387-2 .183-17.011-1.647-20.552-2.641-5.106-9.951-8.378-14.602-6.536m55.463.371c-4.308 1.608-5.916 4.811-6.307 12.557-.44 8.699-.576 8.629 10.056 5.205 7.73-2.49 8.646-3.891 6.867-10.5-1.589-5.902-6.062-8.962-10.616-7.262m-122.804 2.023c-3.302 2.597-4.893 7.904-4.481 14.946l.322 5.5 5 1.241c2.75.683 7.137 1.529 9.75 1.879l4.75.638V417.8l-3.4-3.4c-3.999-3.999-7.996-4.45-11.941-1.346M337.4 414.4l-3.4 3.4v19.458l4.75-.638c12.446-1.67 14.719-2.744 15.076-7.12 1.248-15.334-7.839-23.687-16.426-15.1M196 426v3l6.75-.046 6.75-.046-6.386-2.954c-7.738-3.58-7.114-3.584-7.114.046m194.75-.434c-5.329 2.774-5.749 3.266-2.5 2.925 1.238-.13 3.712-.293 5.5-.363 2.766-.109 3.25-.5 3.25-2.628 0-3.044-.281-3.041-6.25.066m-4.75 4.505c-6.733.723-15 3.171-15 4.442 0 .268 5.85.487 13 .487h13v-3c0-2.241-.443-2.966-1.75-2.867-.962.073-5.125.495-9.25.938M196 432.5v2.5l14.25-.039c13.701-.038 14.115-.099 10.75-1.581-1.925-.848-7.55-1.943-12.5-2.434-12.815-1.27-12.5-1.309-12.5 1.554m.487 4.346c-1.684 1.685-.353 5.339 1.763 4.839 1.238-.292 9.675-.85 18.75-1.24 17.385-.748 23.411-1.739 17-2.797-4.537-.748-36.875-1.439-37.513-.802m165.782.18c-9.827 1.401-4.107 2.372 20.981 3.563l13.75.652V435.896l-15.25.264c-8.387.145-17.154.535-19.481.866m-14.769 4.029-2 .804 2 .124c1.1.067 12.125 1.392 24.5 2.944 23.168 2.905 25 2.828 25-1.049 0-1.663-.829-1.88-7.25-1.892-8.774-.017-33.085-.93-37.25-1.398-1.65-.186-3.9.025-5 .467m-132.5.986c-6.325.383-13.187.755-15.25.827-3.909.138-4.967 1.877-2.425 3.987 1.163.965 46.419-3.818 50.175-5.302 1.539-.608-19.626-.29-32.5.488m7.5 4.445c-25.311 3.02-23.451 2.563-20.883 5.131l2.094 2.094 22.394-4.36c12.317-2.398 22.845-4.547 23.395-4.777 2.45-1.02-9.531-.172-27 1.912m143.5 2.497 23.5 4.752 2.246-2.038c1.235-1.121 2.034-2.25 1.776-2.509-.649-.648-43.192-5.173-47.522-5.054-1.925.053 7.075 2.235 20 4.849m-26-2.089c.825.507 11.115 3.486 22.867 6.619l21.368 5.697 2.066-2.066c2.637-2.637 3.765-2.295-21.801-6.619-11.55-1.954-22.125-3.777-23.5-4.052-1.809-.362-2.085-.246-1 .421m-113.425 3.997c-19.376 3.559-22.814 4.84-18.781 6.999 1.467.785 6.687-.265 22.278-4.483 28.892-7.815 28.173-8.332-3.497-2.516m6.113 3.595c-23.23 5.921-22.795 5.743-19.423 7.952 2.329 1.526 3.296 1.287 21.71-5.378 27.356-9.9 27.19-10.087-2.287-2.574m103.395-5.092c.631.596 40.605 14.606 41.676 14.606.512 0 1.719-.871 2.683-1.935 2.048-2.264 4.437-1.427-24.351-8.526-17.565-4.331-20.945-5.031-20.008-4.145M238 458.075c-9.625 3.257-18.113 6.153-18.863 6.435-1.865.703.423 3.49 2.865 3.49 1.642 0 25.847-10.633 32.498-14.277 4.857-2.66 1.996-1.906-16.5 4.352m103-2.48c23.883 11.221 29.869 13.504 31.965 12.195 1.119-.699 2.035-1.567 2.035-1.929 0-1.031-37.68-13.883-40.5-13.814-.55.014 2.375 1.61 6.5 3.548m-98.25 6.019c-18.708 7.994-18.953 8.154-15.672 10.203 1.865 1.165 3.628.414 17.25-7.348 22.713-12.942 22.582-13.179-1.578-2.855m92.25-4.428c18.091 11.186 28.104 16.088 30.568 14.965 3.959-1.804 3.178-2.325-14.833-9.892-21.101-8.865-22.704-9.382-15.735-5.073m-86.741 7.573c-8.933 4.807-16.245 9.006-16.25 9.33-.005.325 1.095 1.093 2.444 1.707 2.237 1.02 3.681.244 16.5-8.867 12.061-8.574 15.082-10.965 13.797-10.92-.137.004-7.558 3.942-16.491 8.75m79.856-6.943c17.888 13.625 27.15 19.384 29.471 18.327 3.816-1.739 3.305-2.156-13.945-11.393-16.224-8.688-20.103-10.42-15.526-6.934M196 459.953c0 5.703 3.063 9.727 6.423 8.438 3.031-1.163 2.663-3.719-1.091-7.563-4.494-4.603-5.332-4.74-5.332-.875m196.18 1.354c-4.005 4.089-4.2 4.53-2.678 6.052 3.778 3.779 8.721-2.154 7.341-8.811-.261-1.257-1.375-.598-4.663 2.759m-138.096 6.381c-12.858 8.717-14.11 9.82-12.496 11 2.994 2.19 3.85 1.689 15.837-9.268 16.116-14.732 15.956-14.815-3.341-1.732m68.952-8.339c22.527 20.755 23.75 21.706 26.396 20.5 3.738-1.703 3.84-1.598-11.77-12.154-12.989-8.783-18.537-11.949-14.626-8.346m-61.871 10.211c-11.007 9.555-13.627 12.413-11.415 12.454.412.007 1.667.26 2.788.561 1.643.441 3.783-1.546 11.05-10.264 14.005-16.799 13.899-16.92-2.423-2.751m56.925-9.83c1.184 3.553 19.166 23.269 21.21 23.255 5.209-.037 4.882-1.582-1.504-7.103a63612.81 63612.81 0 0 0-13.206-11.413c-3.8-3.283-6.725-5.415-6.5-4.739m-50.065 11.742c-10.355 11.671-10.955 12.926-6.581 13.762 2.312.442 7.93-7.527 17.261-24.484 1.363-2.477-1.679.577-10.68 10.722M313 460.507c0 .972 14.169 24.479 15.102 25.056 1.18.729 5.898-.624 5.898-1.692 0-.501-4.158-5.515-9.239-11.141C313.178 459.905 313 459.72 313 460.507M308.553 463c.398 1.375 2.668 7.45 5.046 13.5l4.322 11 3.237-.281c1.78-.154 3.406-.45 3.613-.657.207-.207-3.52-6.155-8.282-13.219-4.763-7.064-8.334-11.718-7.936-10.343m-33.417 9.927c-8.391 12.985-8.438 13.12-4.876 14.126 2.221.627 2.97.386 3.838-1.236 1.869-3.493 9.005-23.047 8.569-23.483-.229-.229-3.618 4.538-7.531 10.593m7.646.388c-2.594 6.152-4.988 11.93-5.32 12.84-.553 1.516 4.84 3.876 6.063 2.653.678-.677 4.609-23.884 4.287-25.304-.172-.756-2.435 3.659-5.03 9.811m15.292-7.815c-.046 2.2-.375 8.387-.73 13.75l-.646 9.75h8.02l-2.875-12.75c-3.442-15.265-3.661-15.89-3.769-10.75m4.968-2.417c.024.78 1.061 6.817 2.306 13.417 2.224 11.786 2.314 12.006 5.08 12.328 4.743.553 4.637-.889-1.012-13.765-5.65-12.878-6.445-14.372-6.374-11.98m-12.897 10.743c-1.26 5.871-2.532 11.686-2.826 12.924-.48 2.017-.161 2.25 3.073 2.25H294v-12.441c0-6.843-.352-12.658-.782-12.924-.43-.266-1.813 4.32-3.073 10.191m-78.13.924c.03 7.697 5.012 11.904 8.388 7.084 2.48-3.539 1.942-5.114-2.76-8.084-5.542-3.501-5.646-3.483-5.628 1m163.735-.612c-5.182 3.38-5.549 4.277-3.153 7.696 3.425 4.891 8.87.035 8.213-7.325l-.31-3.469-4.75 3.098M197 480.078c0 1.491 3.253 4.02 4.789 3.722 2.887-.56 2.227-2.306-1.287-3.406-1.926-.602-3.502-.745-3.502-.316m195.25.348c-3.533 1.074-4.157 2.289-1.667 3.244.925.355 2.462-.27 3.695-1.503 2.612-2.612 2.148-3.01-2.028-1.741m-164.244 3.824c.022 12.989 9.371 18.228 12.985 7.277 1.605-4.862 1.302-5.307-5.511-8.082-7.547-3.074-7.481-3.081-7.474.805m129.494-.539c-3.3 1.47-6.185 2.808-6.41 2.974-.226.166.13 2.107.791 4.313 3.454 11.527 13.091 6.569 13.113-6.748.007-3.902.05-3.899-7.494-.539m-109.476 9.539c.06 10.769 4.409 18.027 9.701 16.191 3.742-1.298 6.396-6.73 6.048-12.382l-.273-4.441-7-1.786c-3.85-.983-7.338-1.797-7.75-1.809-.412-.013-.739 1.89-.726 4.227M340 490.025c-1.375.477-4.413 1.359-6.75 1.96-4.155 1.068-4.25 1.187-4.248 5.304.002 5.535 2.777 10.94 6.233 12.138 5.332 1.849 9.747-5.244 9.759-15.677.006-5.013-.402-5.318-4.994-3.725m-131 2.571c0 4.671 6.879 8.953 9.758 6.075 1.451-1.452 1.336-1.677-1.335-2.61-1.608-.562-4.161-1.684-5.673-2.495-1.512-.81-2.75-1.247-2.75-.97m172.575.973c-1.057.773-3.419 1.686-5.249 2.03-3.65.684-4.1 1.514-1.839 3.39 2.231 1.852 5.803.482 7.871-3.017 2.143-3.629 1.903-4.367-.783-2.403m-111.204 1.907c-.358.931-.364 5.079-.014 9.216 1.955 23.133 19.233 22.959 20.448-.206l.43-8.186-6.867-.678c-3.778-.373-8.326-.939-10.107-1.259-2.478-.445-3.393-.183-3.89 1.113m40.262-.165-8.867 1.015.429 8.173c1.279 24.365 19.955 23.005 20.215-1.472.104-9.797 1.042-9.182-11.777-7.716m55.231 11.855c-1.449 1.129-4.712 2.288-7.25 2.574-3.973.448-4.614.835-4.614 2.783 0 4.861 7.377 3.383 12.297-2.464 4.038-4.799 3.827-6.214-.433-2.893m-140.991.584c3.812 7.072 14.127 10.462 14.127 4.643 0-2.039-.487-2.393-3.289-2.393-1.808 0-5.053-.9-7.211-2-4.766-2.43-4.804-2.433-3.627-.25M246 520.98c0 4.203 10.523 10.73 14.25 8.838 3.624-1.84 2.078-4.517-3-5.194-2.613-.348-6.213-1.524-8-2.614-1.787-1.089-3.25-1.553-3.25-1.03m97.459 1.055c-1.627 1.073-5.12 2.24-7.761 2.593-4.157.557-4.761.927-4.5 2.758.677 4.74 10.468 2.106 14.383-3.869 2.221-3.39 1.519-3.88-2.122-1.482m-71.258 13.694c6.152 6.587 18.953 7.493 18.784 1.33-.071-2.57-1.959-3.226-6.497-2.259-3.497.746-6.066.677-9.673-.258l-4.912-1.274 2.298 2.461m45.608-1.197c-3.175.869-5.922.998-8.5.4-5.486-1.274-6.099-1.168-6.844 1.18-1.5 4.723 6.783 6.892 13.324 3.489 2.233-1.162 8.542-6.888 7.135-6.477-.233.068-2.535.702-5.115 1.408" fill-rule="evenodd"/>
</svg>