<!DOCTYPE svg PUBLIC "-//W3C//DTD SVG 1.1//EN" "http://www.w3.org/Graphics/SVG/1.1/DTD/svg11.dtd">
<svg xmlns="http://www.w3.org/2000/svg" viewBox="0 0 187 343">
<path d="M105.5 8.393c-1.65.723-4.474 2.827-6.275 4.676C93.51 18.935 93 22.622 93 58.035c0 36.824-.509 44.436-2.898 43.311-4.301-2.024-15.534-1.531-19.01.834-6.878 4.682-7.613 6.624-7.41 19.587l.183 11.618-5.77 6.557c-11.761 13.365-26.786 32.734-27.923 35.993-2.91 8.35-.623 18.168 7.657 32.86 7.948 14.103 15.838 30.345 17.564 36.156 2.985 10.051 2.334 14.082-6.501 40.248-7.489 22.178-7.984 24.137-6.481 25.64 3.194 3.195 4.85.17 12.788-23.356 12.271-36.37 12.11-37.726-9.109-76.756-10.933-20.109-12.622-25.569-10.023-32.404 1.895-4.983 29.012-37.575 33.312-40.038 1.484-.849 8.807-1.225 24.371-1.25L116 137l-.005 3.25c-.015 9.381-12.858 18.919-29.833 22.153-9.579 1.825-11.224 3.108-13.975 10.896-1.272 3.602-4.084 9.078-6.25 12.169-4.253 6.071-4.686 7.665-2.564 9.427 2.185 1.813 3.959.475 8.474-6.392l4.227-6.429 3.213 1.959c10.818 6.596 22.143-1.338 20.405-14.295-.512-3.816 2.162-6.048 12.717-10.617.534-.231.66 3.7.306 9.521-.748 12.271.228 17.006 4.248 20.608 3.862 3.461 8.502 3.603 13.217.403 2.865-1.944 4.391-2.273 8.889-1.911 9.625.773 16.037-5.728 22.858-23.174 5.445-13.927 5.846-16.084 3.249-17.474-2.98-1.595-4.567.488-7.666 10.062-5.003 15.454-9.961 22.915-16.28 24.501-2.293.576-4.671-1.134-3.719-2.674.208-.337 1.305-6.209 2.438-13.048 6.303-38.052 8.79-44.513 17.057-44.296 11.725.307 15.867 13.085 13.894 42.861-2.811 42.441-10.353 63.905-29.819 84.86-10.939 11.777-13.42 16.348-16.548 30.492-1.306 5.905-5.11 19.137-8.454 29.405-6.366 19.55-7.051 23.156-4.579 24.105 2.831 1.086 4.413-.55 5.993-6.202.87-3.113 3.809-12.41 6.531-20.66 2.721-8.25 5.895-19.725 7.052-25.5 2.579-12.878 4.538-16.384 15.919-28.495 21.887-23.289 31.289-53.282 31.35-100.005.036-27.609-5.892-37.5-22.475-37.5h-6.455l-1.138-4.25c-2.59-9.677-8.73-14.746-17.869-14.748L125.317 96l-.659-19.661C124.296 65.526 124 47.503 124 36.29c0-22.82-.469-24.861-6.357-27.655-4.112-1.952-8.062-2.03-12.143-.242m-.797 8.006c-5.151 4.774-5.517 8.7-5.874 63.101l-.329 50h16l.648-9.5c.357-5.225 1.109-10.674 1.672-12.109 1.344-3.427.33-90.869-1.074-92.641-1.725-2.177-8.179-1.505-11.043 1.149m21.962 86.857c-3.869 2.829-6.707 22.12-4.668 31.728 1.068 5.037 1.027 6.662-.271 10.726-.92 2.878-1.809 11.037-2.226 20.443-.669 15.077-.617 15.73 1.419 17.766 2.001 2.001 2.28 2.029 5.177.532 4.115-2.128 5.19-5.21 8.356-23.951 1.487-8.8 4.041-21.625 5.675-28.5 3.189-13.412 3.161-16.522-.206-23.596-2.74-5.754-9.067-8.211-13.256-5.148m-53.78 5.705c-2.906 2.906-2.956 3.132-2.673 12.172l.288 9.211 8.427.392c12.816.596 13.078.456 13.049-7.005C91.924 110.192 89.285 106 80.812 106c-4.17 0-5.44.475-7.927 2.961m13.187 60.127c-5.44 1.067-6.505 2.052-5.697 5.269.936 3.732 3.362 5.643 7.161 5.643 4.056 0 5.464-2.045 5.464-7.934 0-4.412.119-4.361-6.928-2.978" fill-rule="evenodd"/>
</svg>