<!DOCTYPE svg PUBLIC "-//W3C//DTD SVG 1.1//EN" "http://www.w3.org/Graphics/SVG/1.1/DTD/svg11.dtd">
<svg xmlns="http://www.w3.org/2000/svg" viewBox="0 0 1065 1107">
<path fill="#aecde3" stroke="#aecde3" d="M482.545 28.078C355.75 47.619 263.818 151.328 263.662 275c-.231 182.993 189.139 303.562 362.11 230.552C683.52 481.176 736.07 428.473 758.436 372.5c3.805-9.52 4.813-11.772 5.979-13.351.548-.743 1.077-1.868 1.174-2.5.097-.632 1.333-4.974 2.746-9.649 7.262-24.031 12.3-54.923 11.34-69.535-.725-11.037-2.512-16.98-2.612-8.684-.039 3.321-.527 5.415-1.313 5.641-.687.197-5.075 1.153-9.75 2.124-48.839 10.147-101.354 38.87-144 78.76-6.47 6.052-7.543 6.726-7.813 4.906-.172-1.16.182-3.032.785-4.16 1.127-2.106-1.136-3.213-2.397-1.173-.299.484-1.338 1.087-2.309 1.34-1.633.426-1.768-.75-1.788-15.629-.028-20.834-2.962-30.886-13.661-46.801-24.355-36.231-59.363-48.698-95.467-33.997-32.182 13.105-56.115 53.433-52.793 88.958.804 8.595.888 8.558-8.693 3.75-25.473-12.784-45.466-35.925-54.869-63.509-5.58-16.369-5.299-55.167.512-70.605 1.371-3.643 2.493-7.424 2.493-8.401 0-.978 1.866-6.372 4.147-11.989 3.974-9.785 4.099-10.418 3-15.18-1.53-6.627-1.4-18.007.353-30.816 2.367-17.302 1.984-34.954-.979-45.051-3.609-12.301-4.516-11.36 10.229-10.603 17.56.902 30.777 4.542 50.499 13.906l10.748 5.104 4.252-2.115c31.998-15.915 67.781-18.49 100.274-7.214 12.334 4.28 12.252 4.269 15.479 1.972 4.889-3.482 20.877-10.619 30.998-13.839 8.523-2.711 12.902-3.761 30.5-7.311 2.75-.555 7.471-.86 10.491-.679 6.317.38 7.208 1.784 4.607 7.265-4.544 9.575-5.488 23.466-3.098 45.565 1.74 16.084 1.884 27.557.444 35.346-1.006 5.438-.914 5.966 1.905 10.934 5.567 9.815 10.871 24.814 13.161 37.22.406 2.2 1.47 6.682 2.364 9.96 1.004 3.679 1.626 9.85 1.626 16.125 0 13.463.709 17.275 2.689 14.449.954-1.363 2.539-2.034 4.802-2.034 14.697 0 33.855-7.459 62.509-24.337 27.459-16.174 25.08-14.469 24.391-17.476C750.161 126.458 670.857 50.467 575 31c-27.385-5.562-67.171-6.819-92.455-2.922m133.582 80.95c-4.49 2.037-16.046 9.991-16.098 11.08-.016.335 2.539 2.314 5.677 4.397 5.293 3.514 5.782 3.657 6.75 1.971 4.355-7.583 12.459-13.144 22.544-15.471 7.053-1.627 8.063-2.257 4.99-3.113-5.614-1.562-19.358-.908-23.863 1.136m-203.377 7.688c-4.227.641-3.293 1.703 2.727 3.102 8.245 1.917 14.253 4.912 18.625 9.284l3.934 3.934 4.443-3.268c5.477-4.029 5.477-4.025.271-7.549-8.454-5.722-17.546-7.389-30-5.503m34.392 53.283c-6.072 2.185-11.068 5.684-14.006 9.81-2.197 3.085-3.95 8.682-2.527 8.067.49-.212 4.716-2.245 9.391-4.517 10.535-5.121 20.015-6.875 31.939-5.911l8.561.692-3-3.196c-6.566-6.996-19.017-9.024-30.358-4.945m138.188-.192c-3.958 1.608-9.33 5.763-9.33 7.215 0 .371 4.388.479 9.75.241 12.715-.565 22.614 1.787 33.626 7.99 7.243 4.08 7.739 3.854 4.683-2.138-6.253-12.256-25.253-18.786-38.729-13.308m-136.293 39.09c-1.273.857-1.241 1.452.25 4.578 3.714 7.789-.716 15.525-8.891 15.525H436l.056 6.75c.2 24.181 24.94 33.451 35.114 13.157 9.301-18.552 1.467-39.626-15.11-40.651-3.058-.189-6.219.1-7.023.641m146.412.374c-.326.851-.113 3.276.473 5.388 2.474 8.909-1.23 14.341-9.778 14.341-4.996 0-5.061.04-5.719 3.548-1.872 9.978 6.035 23.635 15.842 27.364 3.194 1.214 12.523-1.201 13.392-3.466.305-.795 1.103-1.446 1.774-1.446 2.079 0 5.223-4.276 6.932-9.428 4.124-12.431.646-28.521-7.367-34.073-4.721-3.272-14.604-4.688-15.549-2.228m-75.698 63.712c-14.876 2.666-28.929 12.223-41.199 28.017-21.305 27.422-17.449 60.47 8.537 73.172 20.218 9.882 60.25 9.344 82.591-1.109 18.692-8.747 25.662-26.49 18.95-48.243-10.372-33.614-41.183-56.802-68.879-51.837m-25.853 46.295c-13.11 8.79-13.125 35.722-.02 35.722 13.127 0 17.878-24.225 7.033-35.865-2.48-2.662-2.839-2.655-7.013.143m60.181.309c-5.924 4.985-7.524 17.316-3.498 26.953 4.851 11.61 18.812 11.542 20.997-.103 1.502-8.01-3.109-22.182-8.768-26.943-3.724-3.134-4.911-3.122-8.731.093m49.421 41.998C580.922 380.496 550.05 392 521.88 392c-29.741 0-55.75 22.337-61.533 52.845l-1.771 9.346 5.962 5.603c6.265 5.888 21.971 21.002 46.915 45.148 8.205 7.943 15.01 14.018 15.122 13.5 4.039-18.753 17.129-48.477 35.632-80.913 9.094-15.942 34.126-53.912 41.706-63.263 4.82-5.947 5.025-6.442 4.434-10.75-.716-5.223-.852-5.277-4.847-1.931m-62.087 49.165c4.323 30.495-3.097 40.059-23.596 30.417-15.35-7.22-32.544-10.989-37.654-8.254-4.902 2.623-1.726 5.542 9.825 9.029 19.712 5.95 31.576 16.217 38.653 33.449 1.493 3.635 3.061 6.609 3.486 6.609 2.542 0 13.601-19.048 17.948-30.914 7.154-19.527 3.538-45.086-6.379-45.086-2.954 0-2.956.003-2.283 4.75M469 441.709c-13.524 4.973 2.249 23.539 29.625 34.871 18.514 7.664 27.685 4.588 21.081-7.072-2.751-4.857-4.523-5.333-7.97-2.139-11.194 10.374-25.753.462-18.687-12.722 2.461-4.592 2.032-5.304-5.393-8.939-7.72-3.78-15.004-5.341-18.656-3.999M294.634 570.783c-.266.431.125 3.981.87 7.888 10.941 57.423 7.68 153.958-6.14 181.74-1.35 2.714-2.061 5.292-1.589 5.764.47.47 14.775.735 31.79.59l30.935-.265-.293-9.665c-.183-6.051.105-9.91.77-10.321.584-.361 4.09 2.12 7.792 5.513 25.955 23.787 55.412 25.15 83.384 3.857 13.756-10.472 17.739-19.897 17.812-42.145.112-34.345-10.263-57.998-30.357-69.207-21.27-11.865-52.616-17.387-71.923-12.671-7.059 1.725-7.072 1.696-6.323-13.762.64-13.206 2.051-21.207 6.603-37.419 1.207-4.302 1.948-8.464 1.646-9.25-.608-1.587-64.006-2.217-64.977-.647m166.095-.179c-.681.681-.608 1.316 1.709 14.896 5.031 29.489 6.827 103.323 3.199 131.5-2.836 22.032-6.361 36.477-10.69 43.815-3.751 6.357-4.337 6.242 30.232 5.949l31.23-.264-.164-10.203c-.191-11.917-.003-12.012 8.361-4.216 25.382 23.66 54.72 25.119 83.03 4.129 14.434-10.702 17.91-19.249 17.777-43.71-.2-36.524-9.4-56.487-31.741-68.866-19.846-10.997-51.249-16.272-69.987-11.757-2.648.639-5.236.901-5.75.583-2.81-1.737-.298-29.55 4.06-44.96 1.556-5.5 2.981-11.575 3.167-13.5l.338-3.5-32.07-.264c-17.638-.145-32.354.021-32.701.368M262.5 583.053c-4.66 1.441-34.196 4.947-41.677 4.947-8.073 0-8.391.387-5.884 7.176 2.948 7.984 5.782 19.969 7.76 32.824 2.457 15.967 2.482 88.326.037 109.5-2.521 21.831-2.983 28.232-2.076 28.752 1.544.885 56.721-1.233 57.703-2.215.998-.998.787-3.087-3.539-35.037-2.302-17.008-3.251-84.851-1.824-130.5l.5-16-4-.187c-2.2-.103-5.35.23-7 .74M114 625.637c-5.271.695-24.95 4.184-29.5 5.23-10.529 2.422-19.873 5.106-20.719 5.952-1.069 1.069 6.576 23.821 8.772 26.107 1.182 1.229 2.719.862 11.159-2.668 35.476-14.836 62.657-13.225 67.777 4.018 1.835 6.178 1.96 13.122.261 14.473-.687.546-10.7 1.261-22.25 1.588-54.732 1.549-75.51 11.641-79.059 38.398-2.39 18.019 6.022 33.086 23.059 41.301 26.143 12.605 53.37 9.4 72.5-8.536 4.861-4.557 7.56-5.986 7.849-4.155.1.635.513 4.98.917 9.655l.734 8.5 25 .608c13.75.334 25.34.309 25.755-.056.416-.365-.372-4.43-1.75-9.034-2.499-8.352-2.505-8.463-2.505-50.034 0-37.992-.171-42.334-1.944-49.266-5.044-19.72-13.559-26.092-40.556-30.35-9.117-1.437-39.077-2.577-45.5-1.731m839 5.286c-17.029 1.552-17 1.523-17 17.173 0 10.927.491 11.808 5.512 9.899 5.603-2.13 17.822-2.372 27.251-.541 16.018 3.111 20.583 7.52 20.681 19.971l.056 7.075-8.971-.305c-35.528-1.208-65.708 3.995-81.133 13.987-25.178 16.311-18.563 57.214 10.852 67.099 23.431 7.875 47.717 5.032 67.335-7.882 8.199-5.397 9.395-5.097 10.968 2.754.602 3.005 1.425 6 1.831 6.655.941 1.524 49.175 1.718 50.112.202.336-.544.046-3.581-.645-6.75-.892-4.092-1.28-18.355-1.339-49.26-.092-47.89-.586-53.245-5.64-61.173-9.784-15.344-40.13-22.527-79.87-18.904m-41.5 1.579c-15.586 2.922-32.07 12.158-40.565 22.728-4.704 5.854-5.435 4.735-5.435-8.321V635.5l-30.276-.265c-34.667-.303-32.601-.935-29.35 8.979 7.899 24.088 9.493 72.792 3.565 108.928-.87 5.303-1.437 11.153-1.26 13l.321 3.358 29.435.265c16.343.148 29.831-.131 30.327-.627.524-.524-.35-3.113-2.116-6.266-10.291-18.371-7.053-76.2 4.916-87.816 8.961-8.697 26.227-12.044 39.343-7.628 4.348 1.464 8.246 2.304 8.663 1.867 1.182-1.239 1.589-37.593.424-37.869-.546-.13-4.142.355-7.992 1.076m-286.107 1.917c-.3.781.144 2.47.985 3.755 4.205 6.417 4.88 13.599 5.251 55.826.374 42.764.995 49.423 5.416 58.088 6.33 12.409 21.89 19.246 43.955 19.315 19.818.062 33.842-5.344 47.208-18.198 8.854-8.516 9.634-8.165 10.005 4.5l.287 9.795 26.275.267c21.467.218 26.371.016 26.799-1.099.288-.751-.61-7.171-1.996-14.267-4.851-24.827-5.812-54.739-3.033-94.401.849-12.126 1.273-22.486.941-23.023-.724-1.171-57.129-1.364-57.849-.199-.264.428.619 6.166 1.964 12.75 2.562 12.544 5.292 66.289 3.874 76.264-1.981 13.935-28.708 22.862-44.302 14.798-9.207-4.762-11.967-13.345-10.284-31.988 1.508-16.715 3.586-69.923 2.809-71.947-.892-2.325-57.416-2.553-58.305-.236M359.5 653.436c-7.822 2.204-10.506 3.415-11.121 5.018-.945 2.462 1.458 55.719 2.724 60.369 1.695 6.223 9.546 14.43 17.385 18.171 20.48 9.774 37.831-5.278 41.574-36.065 2.581-21.231-4.576-37.979-19.542-45.728-6.19-3.204-22.6-4.138-31.02-1.765m164.129.612c-10.983 3.215-10.868 3.099-10.179 10.276.326 3.397 1.042 16.707 1.592 29.577 1.144 26.806 1.723 29.033 9.499 36.484 18.849 18.061 41.589 9.885 49.068-17.641 7.079-26.055.739-47.648-16.821-57.288-7.119-3.908-22.402-4.557-33.159-1.408m-402.547 43.055c-15.361 4.96-24.857 22.515-17.825 32.951 5.83 8.65 20.48 11.576 30.848 6.16 6.569-3.432 13.274-11.383 15.272-18.11 2.772-9.338 4.153-19.974 2.771-21.358-2.302-2.308-23.57-2.063-31.066.357m843.831 2.94c-29.88 7.238-38.699 25.814-19.286 40.621 12.009 9.161 35.314-2.158 41.17-19.995 3.244-9.881 4.004-19.61 1.665-21.32-2.592-1.896-14.28-1.551-23.549.694M26.462 851.249c-.263.688-.361 51.651-.219 113.251l.257 112h1009v-226l-504.281-.251c-402.901-.201-504.377.001-504.757 1M35 963.5V1068h992V859H35v104.5m64.271-22.598c-5.826 2.73-8.5 7.229-7.968 13.405.563 6.529 4.453 10.402 14.696 14.631 8.551 3.531 10.852 6.235 7.432 8.736-2.927 2.14-8.482 1.537-15.23-1.656l-6.3-2.98.3 5.603.299 5.603 5 1.965c12.308 4.838 26.912.822 29.597-8.139 2.627-8.768-1.335-14.918-12.597-19.555-10.775-4.436-13.254-7.511-7.75-9.616 2.605-.996 6.398-.398 17 2.681 2.105.611 2.25.353 2.25-4.014 0-4.443-.181-4.745-3.75-6.268-6.032-2.574-17.895-2.779-22.979-.396m232.442-1.281c-.392.392-.713 11.437-.713 24.546V988h11.036l-.268-24.25-.268-24.25-4.537-.296c-2.496-.163-4.858.025-5.25.417M423 963.5v24.605l5.25-.303 5.25-.302.5-11.29c.539-12.175 1.007-13.165 6.231-13.195 3.375-.019 3.689 1.114 4.021 14.485l.248 10 5.25.302 5.25.303v-12.602c0-14.468-1.086-17.805-6.534-20.082-4.593-1.919-7.359-1.784-11.179.546l-3.213 1.959-.287-9.213-.287-9.213-5.25-.302-5.25-.303V963.5m219.713-23.879c-.392.392-.713 4.175-.713 8.407v7.695l-4.447-1.018c-16.073-3.678-25.979 16.51-14.155 28.85 4.513 4.71 11.549 6.149 16.668 3.41 1.333-.714 1.934-.714 1.934 0 0 .588 2.381 1.035 5.518 1.035h5.518l-.268-24.25-.268-24.25-4.537-.296c-2.496-.163-4.858.025-5.25.417m268.486 4.906c-2.827 5.82-2.771 6.477.551 6.451 2.34-.018 13.25-8.704 13.25-10.549 0-.236-2.61-.429-5.801-.429h-5.8l-2.2 4.527M144 955.169c-9.445 2.668-14.524 13.856-10.577 23.301 5.408 12.944 28.66 12.84 34.089-.152 6.048-14.477-7.386-27.704-23.512-23.149m47.5.044c-1.65.581-3.562 1.5-4.25 2.044-.892.705-1.25.524-1.25-.635 0-1.299-1.093-1.622-5.5-1.622H175V988.105l5.25-.303 5.25-.302.283-11.248c.314-12.485 1.609-14.799 7.879-14.075 4.182.484 5.306 3.784 5.323 15.625l.015 10.303 5.25-.303c5.945-.342 5.247 1.408 5.582-14.013.196-8.981 2.261-12.116 7.633-11.585 4.4.435 5.503 3.553 5.52 15.598l.015 10.303 5.25-.303 5.25-.302v-12c0-10.279-.293-12.498-2.041-15.474-3.878-6.601-12.351-7.624-20.023-2.418-3.41 2.314-3.854 2.397-4.703.88-2.074-3.706-9.48-5.298-15.233-3.275m59.806-.109c-8.235 2.382-13.387 11.716-11.22 20.325 4.843 19.231 35.914 16.05 35.914-3.676 0-12.814-11.394-20.496-24.694-16.649m36.695-.041c-10.708 4.527-9.574 14.699 2.22 19.917 10.216 4.519 6.697 7.147-5.971 4.459-3.199-.678-3.25-.632-3.25 2.961 0 4.571 2.23 5.6 12.142 5.6 6.417 0 7.26-.248 9.935-2.923 6.35-6.35 3.537-14.056-6.827-18.699-8.277-3.709-5.897-7.143 2.807-4.051 6.124 2.175 5.943 2.229 5.943-1.792 0-2.489-.588-3.779-2.086-4.581-2.984-1.597-11.972-2.134-14.913-.891m71.869-.096c-13.247 4.007-16.093 21.788-4.797 29.971 7.659 5.548 25.792 3.601 26.756-2.873.586-3.937-.561-5.613-2.6-3.801-6.584 5.852-20.229 2.672-20.229-4.714 0-.303 5.175-.55 11.5-.55H382l-.016-3.25c-.052-10.19-11.654-17.946-22.114-14.783m37.63.562c-2.2.792-4.11 1.448-4.244 1.456-.134.008-1.596 1.883-3.25 4.165-2.572 3.551-3.006 5.045-3.006 10.352 0 10.973 6.04 16.509 17.984 16.484 9.893-.02 11.016-.527 11.016-4.969v-3.75l-6.831.489c-7.942.568-11.169-1.869-11.169-8.436 0-6.038 3.808-8.689 11.585-8.065l6.415.515v-3.766c0-3.622-.17-3.809-4.443-4.885-5.778-1.455-9.153-1.357-14.057.41m75-.325c-12.634 4.404-15.426 21.41-4.841 29.486 8.107 6.186 26.421 3.79 27.154-3.551.304-3.043-1.832-4.536-3.237-2.262-2.222 3.595-15.529 2.947-17.564-.855-2.489-4.651-1.742-5.022 10.118-5.022h11.13l-.497-4.409c-1.184-10.502-11.957-16.98-22.263-13.387m45.69.149c-1.271.705-3.18 2.602-4.244 4.214l-1.933 2.933-.006-3.75L512 955h-11v33h11l.004-7.75c.005-11.751 4.631-18.041 10.888-14.806l2.911 1.506 1.599-3.995c2.13-5.326 2.069-5.66-1.352-7.429-3.539-1.83-4.823-1.858-7.86-.173m22.31-.2c-13.984 5.138-16.001 23.593-3.364 30.779 8.125 4.62 21.052 1.881 25.911-5.49 2.858-4.335 2.702-14.045-.297-18.457-4.181-6.153-15.032-9.484-22.25-6.832m37.119-.119c-11.246 3.368-10.13 15.076 1.912 20.067 9.076 3.762 5.197 7.863-4.332 4.58-4.826-1.663-5.199-1.447-5.199 3.01 0 4.239 2.43 5.309 12.049 5.309 16.798 0 18.748-15.109 2.833-21.955-8-3.442-5.219-6.7 3.175-3.718 6.161 2.188 5.943 2.269 5.943-2.208 0-3.758-.141-3.917-4.443-5-5.096-1.284-7.868-1.303-11.938-.085m90.385 1.151c-11.647 5.998-12.234 22.026-1.082 29.541 7.03 4.738 24.262 2.324 25.386-3.555.842-4.406-.092-5.225-3.635-3.189-8.46 4.864-18.673 1.83-18.673-5.547 0-.239 5.175-.435 11.5-.435H693v-2.48c0-12.06-13.917-20.041-24.996-14.335m59.272-.531c-13.274 4.7-14.716 23.892-2.292 30.494 3.897 2.071 15.03 2.558 19.511.854 3.07-1.167 3.557-8.958.505-8.061-9.491 2.79-15.755.303-16.684-6.625-.909-6.773 2.784-9.742 11.269-9.061l6.415.515v-3.766c0-3.622-.17-3.809-4.443-4.885-5.717-1.44-9.058-1.315-14.281.535m35.224-.432c-13.832 4.903-15.815 22.153-3.51 30.528 7.126 4.85 21.702 2.094 25.96-4.908 8.893-14.624-5.888-31.492-22.45-25.62m48.896-.245c-1.157.468-3.055 2.127-4.218 3.687l-2.115 2.836-.031-3.25L805 955h-11V988.105l5.25-.303 5.25-.302.521-8.668c.688-11.461 4.531-16.333 10.458-13.258 1.55.804 2.91 1.341 3.021 1.194.666-.88 2.5-7.35 2.5-8.819 0-2.735-5.772-4.521-9.604-2.972m20.725-.032c-6.769 1.713-8.121 2.999-8.121 7.724 0 5.093-.135 5.041 4.665 1.784 4.802-3.259 11.658-3.189 12.132.125.239 1.674-.536 2.326-4 3.361C826.382 971.051 823 974.071 823 980.26c0 6.645 8.701 10.112 16.48 6.567 1.969-.897 2.85-.897 3.747 0 1.507 1.507 8.928 1.515 12.226.012 3.724-1.696 3.766-7.362.047-6.428l-2.5.627-.006-7.769c-.006-9.63-1.384-14.823-4.466-16.843-2.849-1.866-11.72-2.667-16.407-1.481M909 954.7c-9.362 3.387-13 7.972-13 16.384 0 13.879 15.581 21.883 28.5 14.641 9.59-5.376 10.614-21.33 1.765-27.493-5.175-3.605-12.769-5.158-17.265-3.532m46.021.416c-1.364.544-3.277 1.71-4.25 2.592-1.642 1.486-1.771 1.446-1.771-.553 0-1.947-.534-2.155-5.525-2.155h-5.525l.275 16.25.275 16.25 5.25.302 5.25.303v-10.98c0-10.671.074-11.038 2.635-13.052 6.345-4.992 8.223-2.368 8.58 11.988l.285 11.439 5.25.302 5.25.303v-12.602c0-14.468-1.086-17.805-6.534-20.082-3.905-1.631-5.955-1.697-9.445-.305M860 958.956v3.956l6.904.294 6.905.294-3.274 5c-1.8 2.75-5.132 7.844-7.404 11.321-2.272 3.476-4.131 6.739-4.131 7.25 0 .535 7.004.929 16.5.929H892v-8h-15.945l7.281-11.25c4.005-6.187 7.619-11.812 8.032-12.5.588-.979-2.728-1.25-15.309-1.25H860v3.956m-713.927 4.679C141.547 969.388 144.588 982 150.5 982c.875 0 2.695-1.105 4.045-2.455C159.68 974.411 156.754 961 150.5 961c-1.353 0-3.237 1.121-4.427 2.635m107.909-.821c-2.64 2.137-3.785 10.064-2.088 14.454 2.46 6.363 10.327 5.337 12.193-1.59 2.701-10.033-3.637-18.102-10.105-12.864m107.673.015C358.691 966.104 359.624 967 366 967c6.459 0 7.628-1.217 4.171-4.345-2.415-2.186-6.455-2.103-8.516.174m112.902.394C472.154 966.652 472.563 967 479 967c6.459 0 7.628-1.217 4.171-4.345-2.61-2.362-6.753-2.089-8.614.568m68.499-.279c-4.306 4.306-3.318 16.245 1.494 18.075 3.789 1.441 7.068-.33 8.468-4.574 3.313-10.038-3.794-19.669-9.962-13.501m129.515-.373C669.377 965.765 670.612 967 677 967c6.402 0 7.201-.799 4-4-2.397-2.397-6.264-2.593-8.429-.429m92.618.468c-2.737 2.549-3.207 13.8-.683 16.324 4.202 4.202 9.927 2.179 11.069-3.911 1.999-10.653-4.254-18.126-10.386-12.413m144.867-.095c-4.357 4.357-3.315 16.247 1.587 18.11 5.91 2.247 9.977-3.231 8.894-11.981-.925-7.481-6.102-10.508-10.481-6.129m-278 1c-6.649 6.649-.884 19.222 7.375 16.082 2.46-.935 2.569-1.312 2.569-8.894 0-6.298-.324-8.042-1.582-8.525-2.997-1.15-6.423-.602-8.362 1.337m204.694 10.628c-3.116 1.69-3.785 5.817-1.109 6.844 2.721 1.044 6.359-2.067 6.359-5.439 0-3.334-1.135-3.637-5.25-1.405" fill-rule="evenodd"/>
<path fill="#04acec" stroke="#04acec" d="M482.545 29.078C389.682 43.39 315.126 101.632 281.668 186c-12.101 30.515-19.477 72.726-16.688 95.5.899 7.341 1.689 17.33 2.492 31.5 1.277 22.533 15.835 63.034 32.708 91 85.725 142.077 290.489 164.411 406.828 44.374 22.207-22.913 45.561-58.978 52.522-81.108.971-3.086 2.766-7.087 3.99-8.891 6.439-9.488 19.46-78.045 15.694-82.63-.562-.685-1.229-2.37-1.482-3.745-.458-2.491-.46-2.49-.596.205-.116 2.309-.685 2.799-3.886 3.348-46.576 7.999-105.495 38.335-144.75 74.528-4.95 4.564-10.295 9.451-11.878 10.859l-2.878 2.56.501-4.71.5-4.71-2.823 1.46c-1.552.803-2.975 1.46-3.161 1.46-.186 0-.346-6.637-.356-14.75-.019-16.322-1.37-23.806-6.232-34.528-6.495-14.326-20.497-31.57-32.707-40.283-52.543-37.495-124.89 9.2-122.309 78.941.217 5.841.033 10.62-.407 10.62-.44 0-4.051-1.627-8.025-3.616-32.744-16.386-55.648-47.662-59.828-81.699-1.672-13.612.516-44.643 3.682-52.219.874-2.093 2.412-6.991 3.417-10.886 1.005-3.894 3.214-10.154 4.91-13.91 2.828-6.266 2.991-7.195 1.972-11.24-1.272-5.051-.713-25.266 1.145-41.43 1.486-12.933.763-26.406-1.88-35-1.099-3.575-2.144-7.625-2.321-9l-.322-2.5 10.691.234c17.165.377 35.492 5.381 55.972 15.285l8.056 3.896 6.876-3.463c30.463-15.341 73.42-16.734 104.55-3.39l4.54 1.946 5.751-3.549C598.355 98.793 620.34 90.988 638 87.975c4.125-.703 7.928-1.661 8.45-2.127 1.464-1.307 13.979-1.019 15.35.352 1.442 1.442 1.587 5.443.227 6.283-1.592.984-4.83 12.74-5.546 20.134-.42 4.338-.035 12.428 1.041 21.883 1.871 16.448 2.175 36.189.633 41.194-.876 2.845-.402 4.38 4.32 14 6.956 14.174 14.777 43.166 14.649 54.306-.135 11.765.952 20.617 2.303 18.769.781-1.068 4.014-2.008 9.479-2.756 17.817-2.44 32.212-8.288 56.49-22.95 6.465-3.905 13.633-8.04 15.929-9.191 6.131-3.072 9.549-6.588 8.944-9.2C748.868 126.312 670.501 51.395 575 32c-27.385-5.562-67.171-6.819-92.455-2.922m137.449 78.856C614.375 109.643 601 118.1 601 119.944c0 .425 2.365 2.343 5.255 4.262l5.255 3.489 2.704-4.344c3.211-5.158 10.186-9.848 17.786-11.96 8.442-2.346 8.874-2.615 5.5-3.43-3.992-.964-14.373-.98-17.506-.027M414.5 116.96c-4.429.749-4.312.824 6.299 4.082 5.378 1.651 8.574 3.387 12.147 6.599 5.762 5.18 5.532 5.159 10.402.989l3.849-3.295-5.209-3.343c-8.31-5.332-16.665-6.862-27.488-5.032m35.581 52.628c-6.747 1.815-10.866 4.324-15.484 9.437-3.103 3.433-5.055 8.79-2.847 7.808.413-.183 3.675-1.788 7.25-3.566 9.973-4.961 17.675-6.543 29.69-6.098 11.52.426 12.032.091 6.259-4.091-6.7-4.854-15.304-6.061-24.868-3.49M590 168.876c-5.202 1.126-10.929 4.123-12.116 6.34-1.416 2.647-1.246 2.695 5.616 1.572 9.052-1.482 21.279.929 32.546 6.416 9.279 4.519 9.91 4.518 7.536-.004-5.45-10.382-21.053-17.037-33.582-14.324m-139.25 39.906c-3.127.399-3.231.752-1.25 4.218 4.346 7.602-1.415 17.358-9.601 16.26l-4.211-.565.577 7.623c1.359 17.966 12.527 26.75 26.767 21.052 9.736-3.895 14.82-24.408 9.138-36.87-3.832-8.404-12.072-12.912-21.42-11.718m146.424-.041c-1.708.307-2.149.863-1.658 2.089.368.918.902 4.145 1.186 7.17.582 6.202-2.348 10.91-6.904 11.092-9.065.362-8.266-.274-8.601 6.852-.367 7.825 1.27 11.536 8.069 18.291 6.474 6.431 13.759 7.588 18.628 2.959.98-.932 2.642-2.186 3.694-2.788 7.839-4.484 10.768-22.839 5.509-34.531-3.478-7.734-12.082-12.542-19.923-11.134m-82.05 64.837c-31.275 8.411-56.947 47.644-49.61 75.813 5.64 21.653 25.269 32.132 59.986 32.024 51.169-.16 74.533-20.871 63.641-56.415-11.129-36.318-44.354-59.401-74.017-51.422m-21.427 46.199c-7.502 4.612-12.021 24.288-7.095 30.89 9.706 13.008 25.081-7.025 18.348-23.908-3.364-8.437-6.113-10.143-11.253-6.982m60.381.365c-7.027 6.547-6.705 25.163.553 31.982 3.864 3.629 10.7 3.355 14.071-.564 2.362-2.746 2.497-3.472 2.05-11-.981-16.54-9.56-27.046-16.674-20.418m46.422 42.982c-20.876 17.288-47.56 27.16-77 28.486-34.752 1.567-61.194 24.724-64.114 56.151l-.639 6.867 33.877 32.651c29.77 28.694 33.951 32.383 34.495 30.436 5.378-19.257 10.154-31.104 21.859-54.215 14.862-29.344 33.695-59.798 52.198-84.405 7.759-10.318 8.406-11.934 7.199-17.97-.786-3.929-.685-3.955-7.875 1.999m-58.986 43.853c-.332.538.091 4.344.941 8.458 1.939 9.387 1.933 11.896-.043 18.548-3.47 11.686-11.24 13.912-25.437 7.29-15.769-7.356-31.973-10.815-36.566-7.805-3.784 2.479-1.301 4.553 9.591 8.008 20.565 6.523 32.511 17.011 39.604 34.77 1.043 2.611 2.155 4.748 2.472 4.75 2.55.017 12.332-16.306 17.076-28.496 5.539-14.233 5.171-37.622-.692-43.948-2.394-2.583-5.84-3.364-6.946-1.575m-75.418 36.408c-7.512 9.051 19.017 31.184 43.729 36.484 11.362 2.437 15.37-3.419 8.21-11.996l-2.767-3.315-3.613 3.172c-11.331 9.949-25.982.84-19.659-12.222 2.659-5.493 2.253-6.199-5.788-10.041-7.207-3.445-18.05-4.567-20.112-2.082M295.791 571.542c-.298.299.044 3.623.762 7.389 10.866 57.026 7.597 153.76-6.128 181.359-1.738 3.493-2.047 4.918-1.142 5.265.682.262 14.51.356 30.729.21l29.488-.265-.274-8c-.5-14.562.206-15.031 9.621-6.402 16.873 15.464 38.901 22.194 56.933 17.394 15.567-4.144 32.699-16.015 37.779-26.177 11.546-23.095 3.848-74.224-13.47-89.468-18.191-16.013-58.589-25.8-82.451-19.975-7.763 1.895-8.056 1.297-7.272-14.864.635-13.106 2.054-21.142 6.579-37.256 1.196-4.262 1.897-8.199 1.556-8.75-.644-1.043-61.679-1.49-62.71-.46m166.103.194c-.282 2.031.325 7.463 1.592 14.264 4.908 26.346 6.751 102.989 3.149 131-2.832 22.023-6.357 36.474-10.69 43.817-1.16 1.966-1.674 3.854-1.183 4.345.478.478 14.337.749 30.799.603l29.93-.265-.333-7.211c-.667-14.405.65-15.409 9.448-7.208 20.706 19.302 47.348 24.127 69.901 12.661 9.127-4.641 20.145-13.455 23.369-18.695 11.722-19.051 7.706-66.78-7.339-87.214-6.936-9.421-24.67-18.771-45.537-24.01-9.782-2.455-32.88-2.978-41.362-.935-6.978 1.68-7.638.829-7.638-9.851 0-11.979 1.645-23.689 4.992-35.537 1.553-5.5 2.978-11.35 3.166-13l.342-3-31.25-.264c-17.187-.146-31.298.079-31.356.5M262.5 584.053c-4.471 1.383-34.061 4.947-41.07 4.947-7.625 0-7.726.119-5.422 6.361 2.883 7.81 5.728 19.885 7.691 32.639 2.452 15.929 2.481 88.293.045 109.5-2.569 22.359-2.934 27.268-2.063 27.75 1.6.884 54.677-1.208 55.664-2.195.657-.657.268-6.325-1.154-16.774A8263.301 8263.301 0 0 1 272.79 721c-1.291-9.783-1.812-90.312-.79-122l.5-15.5-3.5-.187c-1.925-.103-4.85.23-6.5.74M114 626.637c-5.316.701-24.977 4.189-29.5 5.235-11.941 2.759-18.129 4.539-19.206 5.525-1.182 1.081 5.517 22.641 7.776 25.025.525.554 4.773-.709 10.652-3.168C125.745 641.68 154 647.419 154 673.527c0 6.947-.608 7.142-24.5 7.814-57.658 1.621-77.885 12.573-77.87 42.159.01 18.03 6.08 27.931 21.753 35.482 26.513 12.774 55.951 9.02 73.563-9.381 6.1-6.374 7.964-4.833 8.949 7.399l.605 7.5 24 .595c13.2.327 24.297.327 24.659 0 .363-.327-.282-3.295-1.433-6.595-1.966-5.638-2.128-8.774-2.695-52-.579-44.13-.695-46.273-2.845-52.708-5.272-15.782-14.055-21.56-38.649-25.423-9.157-1.439-39.117-2.578-45.537-1.732m843.5 4.951c-2.2.219-6.853.666-10.339.994-9.338.878-10.161 2.042-10.161 14.359 0 10.771.395 11.62 4.653 10.001 8.505-3.234 30.309-1.536 39.347 3.064 6.7 3.41 9.877 9.351 9.956 18.622.061 7.082-.963 7.713-11.17 6.886-11.57-.938-44.44 1.18-54.786 3.531-27.734 6.3-40 18.112-40 38.517 0 17.629 9.483 31.421 25.248 36.719 23.373 7.856 47.688 5.033 67.234-7.805 9.261-6.083 10.474-5.723 12.007 3.562.406 2.454 1.191 5.025 1.747 5.712 1.203 1.491 47.287 1.83 48.199.355.304-.492.012-3.305-.649-6.25-.828-3.69-1.227-18.883-1.281-48.855-.109-60.193-1.308-64.457-20.505-72.881-12.282-5.39-40.192-8.453-59.5-6.531m-46 1.968c-15.858 2.851-28.571 9.974-40.728 22.824-2.6 2.748-5.075 4.648-5.5 4.22-.425-.427-.772-6.025-.772-12.439V636.5l-28.934-.266c-16.823-.154-29.323.123-29.861.661-.569.569-.12 3.374 1.163 7.266 6.684 20.269 9.295 69.022 5.24 97.839a2625.013 2625.013 0 0 1-2.186 15.073c-1.932 13.03-4.557 11.927 28.38 11.927 15.601 0 28.64-.275 28.977-.612.336-.337-.683-2.924-2.265-5.75-7.565-13.508-7.998-52.429-.857-76.998 4.786-16.469 26.836-25.768 45.843-19.334 4.125 1.397 7.802 2.237 8.17 1.867.751-.755 1.511-34.862.79-35.48-.253-.217-3.61.172-7.46.863m-284.983 1.416c-.33.534.073 1.999.896 3.255 4.167 6.359 4.846 13.622 5.216 55.773.374 42.672 1 49.431 5.37 57.999 6.04 11.838 21.223 18.336 43.001 18.404 19.865.062 33.839-5.341 47.301-18.288 8.951-8.61 10.001-8.12 10.699 4.989l.5 9.396 24.932.268c13.713.147 25.322-.122 25.799-.599.489-.489-.231-6.488-1.654-13.768-4.828-24.712-5.814-55.163-3.052-94.22.829-11.725 1.249-21.738.932-22.25-.685-1.11-55.144-1.287-55.75-.181-.226.413.656 5.925 1.96 12.25 2.496 12.106 5.199 66.011 3.803 75.828-2.049 14.405-29.453 23.955-45.27 15.775-10.022-5.182-13.013-14.054-11.284-33.467 1.529-17.175 3.549-68.482 2.775-70.5-.734-1.911-55.006-2.553-56.174-.664M359.5 652.436c-13.806 3.89-12.913 1.261-11.644 34.293 1.261 32.819 1.615 34.506 8.9 42.374 22.391 24.185 49.66 10.038 54.306-28.174 2.605-21.423-4.983-38.671-20.56-46.737-6.172-3.195-22.595-4.126-31.002-1.756m163.307.895c-10.63 3.219-11.057 3.678-10.346 11.092.32 3.342 1.031 16.608 1.581 29.478 1.154 27.043 1.707 29.095 9.985 37.031 19.446 18.645 42.862 10.226 50.582-18.188 11.454-42.158-13.662-70.964-51.802-59.413m-401.743 42.778c-15.767 5.09-25.906 23.411-18.795 33.962 6.494 9.637 22.924 12.807 33.258 6.418 10.114-6.253 14.843-14.565 17.591-30.918 1.792-10.666 1.382-11-13.901-11.306-9.582-.191-12.89.144-18.153 1.844m843.849 2.934c-30.999 7.509-39.612 26.126-19.587 42.333 12.045 9.749 36.376-2.14 42.489-20.761 3.552-10.821 4.005-19.927 1.092-21.967-3.145-2.203-14.006-2.024-23.994.395M27.461 852.249c-.262.688-.36 51.201-.218 112.251l.257 111h1007v-224l-503.281-.251c-402.101-.201-503.377.001-503.758 1M35 964v105h992V859H35v105m66.655-23.541c-7.844 2.797-11.642 9.161-9.722 16.291 1.404 5.217 4.108 7.513 13.462 11.438 8.582 3.6 10.791 5.702 8.997 8.562-1.826 2.912-9.467 2.82-16.05-.194-3.071-1.406-5.754-2.556-5.963-2.556-.208 0-.379 2.015-.379 4.477 0 5.546 2.132 7.213 11.198 8.759C117.787 989.725 127 984.46 127 973.633c0-7.37-2.794-10.501-13.491-15.121-9.623-4.156-11.597-6.204-8.444-8.762 2.822-2.29 7.277-2.213 14.435.25 3.197 1.1 5.992 2 6.211 2 .219 0 .261-2.137.094-4.75l-.305-4.749-6-1.671c-7.378-2.054-12.809-2.167-17.845-.371M331 963.5V987h11v-47h-11v23.5m92 0V987h10v-10.427c0-10.074.089-10.498 2.635-12.5 6.581-5.178 9.365-1.418 9.365 12.65V987h10v-11.55c0-12.347-.989-15.928-5.217-18.889-3.083-2.16-9.628-1.953-13.533.428l-3.25 1.982V940h-10v23.5m219-15.75v7.75h-7.419c-11.229 0-16.137 5.43-15.398 17.036.686 10.778 7.86 16.909 17.471 14.931 2.115-.435 6.659-.678 10.096-.538l6.25.253V940h-11v7.75m269.527-2.803c-3.781 7.462-.637 7.842 7.426.898 6.256-5.387 6.261-5.845.064-5.845-4.968 0-4.991.015-7.49 4.947m-770.51 11.904c-13.352 7.161-9.999 28.118 4.901 30.635 12.693 2.145 21.282-3.803 21.846-15.128.413-8.273-1.552-12.189-7.685-15.318-5.221-2.663-14.28-2.753-19.062-.189m34.65-1.184c-.367.366-.667 7.566-.667 16V987h10v-10.326c0-11.781 1.748-15.007 8.133-15.007 4.976 0 5.867 2.205 5.867 14.524V987h10v-10.326c0-9.441.193-10.499 2.25-12.351 3.173-2.856 5.553-3.496 8.072-2.17 3.417 1.798 3.646 2.683 3.663 14.097L223 987h10v-11.55c0-12.347-.989-15.928-5.217-18.889-4.34-3.04-14.137-1.454-17.726 2.871-1.155 1.39-1.676 1.232-4.712-1.434-4.22-3.705-10.817-4.101-16.61-.996L185 959.004v-2.002c0-2.014-7.572-3.097-9.333-1.335m73.783.686c-12.487 5.657-12.742 23.106-.43 29.397 19.745 10.089 37.247-15.009 19.636-28.157-3.444-2.572-14.666-3.296-19.206-1.24m36.325.206c-3.288 1.784-4.775 4.333-4.775 8.184 0 4.183 2.003 6.313 9.144 9.722 7.955 3.799 8.46 6.04 1.356 6.022-2.75-.007-6.012-.375-7.25-.817-2.059-.736-2.25-.506-2.25 2.704 0 4.279.607 4.689 7.922 5.353 10.937.991 17.033-3.454 15.732-11.471-.769-4.737-2.186-6.153-9.474-9.466-3.623-1.647-6.15-3.389-5.922-4.081.601-1.835 6.096-2.006 10.141-.316l3.601 1.505v-3.414c0-2.352-.602-3.736-1.934-4.449-2.838-1.518-13.138-1.187-16.291.524m70.177.694c-9.93 6.692-9.804 22.215.229 28.24 2.525 1.517 5.113 1.995 10.819 2 9.543.009 13.375-1.717 13.811-6.221l.311-3.214-4.708 2.083c-6.111 2.703-11.975 2.071-15.162-1.635-4.289-4.986-3.416-5.506 9.248-5.506 13.231 0 13.62-.379 9.25-9.03-4.436-8.781-15.924-12.023-23.798-6.717m40.498-.846c-12.425 5.412-12.659 22.993-.391 29.42 4.333 2.27 15.704 2.674 18.943.672 1.892-1.17 1.229-7.801-.707-7.059-8.977 3.445-16.295-.083-16.295-7.855 0-7.4 6.28-10.824 15.25-8.316 4.04 1.13 4.215-5.762.185-7.294-3.643-1.385-13.383-1.137-16.985.432m73.57.345c-8.934 4.488-11.113 18.43-4.024 25.744 7.82 8.068 28.004 7.013 28.004-1.463v-2.921l-4.647 2.056c-6.049 2.676-11.927 2.029-15.101-1.662-4.297-4.995-3.426-5.506 9.376-5.506h11.628l-.656-4.25c-1.727-11.195-14.129-17.249-24.58-11.998m31.693-1.131c-.392.392-.713 7.612-.713 16.046V987h11v-7.632c0-11.298 4.794-17.689 10.841-14.453 2.896 1.55 2.951 1.511 4.313-3.036 1.112-3.711 1.048-4.258-.651-5.5-4.109-3.005-11.339-.315-13.163 4.897-.665 1.9-.855 1.641-1.309-1.776-.524-3.945-.593-4.004-5.068-4.296-2.496-.163-4.858.025-5.25.417m36.737.732c-16.558 7.502-10.032 31.535 8.588 31.625 17.293.084 24.356-20.129 10.618-30.385-3.444-2.572-14.666-3.296-19.206-1.24m34.95 2.047c-5.939 5.939-4.159 11.06 5.506 15.839 8.171 4.041 8.739 6.266 1.594 6.248-2.75-.007-6.013-.375-7.25-.817-2.06-.737-2.25-.507-2.25 2.716 0 3.216.324 3.61 3.75 4.561 19.671 5.463 29.244-12.37 10.754-20.034-3.814-1.581-5.504-2.839-5.504-4.097 0-2.284 6.214-2.48 10-.316 3.624 2.072 4 1.882 4-2.025 0-6.709-14.505-8.17-20.6-2.075m93.59-1.15c-10.853 7.386-10.31 22.73 1.01 28.573 8.703 4.492 24 1.402 24-4.849 0-3.532.363-3.453-4.5-.974-7.799 3.976-17.351 1.123-17.468-5.217-.028-1.507 1.347-1.752 11.218-2l11.25-.283-.331-3.5c-1.101-11.634-15.486-18.347-25.179-11.75m60.011-1.127c-15.993 6.377-12.135 29.855 5.179 31.518 9.424.905 13.262-.52 13.638-5.063.268-3.235.056-3.744-1.337-3.209-9.449 3.626-16.385.282-16.449-7.93-.051-6.452 5.835-10.764 12.196-8.934 6.051 1.741 5.772 1.836 5.772-1.962 0-2.936-.469-3.771-2.565-4.568-3.268-1.242-13.171-1.153-16.434.148m33.499.235c-12.202 5.64-12.375 23.652-.282 29.505 15.811 7.654 32.525-7.033 25.277-22.212-3.41-7.142-16.841-11.061-24.995-7.293M794 971v16h10v-6.599c0-11.209 4.695-17.749 11.132-15.505 1.742.607 3.253 1.104 3.359 1.104.106 0 .758-1.886 1.448-4.192 2.401-8.012-6.189-9.838-12.361-2.628L804 963.36V955h-10v16m35-14.641c-3.159 1.181-3.53 1.724-3.812 5.575l-.313 4.267 2.313-1.625c4.23-2.974 9.667-3.901 12.395-2.114 3.622 2.374 2.992 4.306-1.827 5.604-2.335.628-5.905 1.99-7.934 3.025-13.455 6.864-5.165 21.257 8.866 15.395 3.236-1.352 3.802-1.352 5.296 0 3.627 3.282 14.423.395 13.838-3.7-.235-1.648-.995-2.259-2.822-2.271-2.47-.015-2.506-.138-3-10.242-.65-13.301-1.733-14.624-12.259-14.979-4.136-.139-8.742.318-10.741 1.065m31.667-.692c-.367.366-.667 1.941-.667 3.5V962h7c3.85 0 7 .431 7 .958 0 .527-3.372 6.152-7.494 12.5L859.012 987H892v-6h-8c-4.4 0-8-.407-8-.905 0-.497 3.194-5.751 7.099-11.675 3.904-5.923 7.327-11.366 7.607-12.095.544-1.419-28.639-2.059-30.039-.658m44.783.686c-16.466 7.46-9.929 31.535 8.588 31.625 17.293.084 24.356-20.129 10.618-30.385-3.444-2.572-14.666-3.296-19.206-1.24M939 971v16h10l.032-10.25c.033-10.642.602-12.43 4.646-14.583 5.367-2.859 7.322 1.119 7.322 14.898V987h10v-11.032c0-12.024-1.211-16.602-5.117-19.337-3.173-2.223-9.681-2.052-13.633.358-3.241 1.976-3.25 1.976-3.25-.004 0-1.715-.679-1.985-5-1.985h-5v16m-793.523-7.606c-3.692 5.636-2.532 15.712 2.049 17.8 3.124 1.423 7.148.284 8.604-2.437 1.85-3.456 1.417-13.495-.681-15.813-2.57-2.84-7.976-2.596-9.972.45m107.562-.205c-5.124 5.5-1.696 18.811 4.845 18.811 4.593 0 6.616-3.211 6.616-10.5 0-9.612-6.117-14.048-11.461-8.311m108.206-.939c-3.715 4.644-2.746 5.86 4.423 5.548 6.193-.27 6.802-.485 6.513-2.298-.446-2.795-3.004-4.5-6.75-4.5-1.752 0-3.636.563-4.186 1.25m113.515 0c-4.237 3.265-2.643 5.233 4.49 5.546 7.318.32 8.124-.389 5.193-4.573-1.764-2.519-6.995-3.045-9.683-.973m67.313 1.385C537.255 969.759 540.54 982 547 982c5.791 0 9.377-10.615 5.85-17.316-2.423-4.603-7.587-5.106-10.777-1.049m92.284-1.643c-8.268 3.336-6.606 19.008 2.016 19.008 4.827 0 5.627-1.454 5.627-10.225 0-7.479-.113-7.868-2.565-8.8-1.411-.536-2.648-.946-2.75-.912-.102.035-1.149.453-2.328.929m37.2 1.231c-2.829 4.038-2.064 4.777 4.943 4.777 5.651 0 6.5-.241 6.5-1.845 0-4.89-8.539-7.078-11.443-2.932m92.848-.118c-4.823 5.33-1.585 18.916 4.5 18.88 4.995-.03 7.095-3.344 7.095-11.197 0-9.05-6.475-13.34-11.595-7.683m145 0c-1.448 1.6-1.905 3.613-1.905 8.395 0 11.465 10.488 15.363 13.121 4.876 2.739-10.917-5.029-20.108-11.216-13.271m-72.507 11.185c-5.536 3.73-3.389 9.621 2.524 6.927 2.149-.978 2.578-1.844 2.578-5.196 0-4.66-.503-4.831-5.102-1.731" fill-rule="evenodd"/>
<path fill="#aacce3" stroke="#aacce3" d="M481.545 30.078c-57.944 8.93-107.77 34.276-146.554 74.548-43.417 45.083-65.428 96.353-69.553 162.004l-.637 10.13 6.85 1.171c9.28 1.585 32.143 8.245 45.175 13.158C372.095 311.925 425.887 353.869 465.48 407c2.664 3.575 5.193 6.9 5.621 7.389.427.489 3.464-1.536 6.748-4.5 13.976-12.615 28.763-18.848 44.77-18.872 26.658-.041 53.005-9.225 75.381-26.277l9.5-7.24.806-8.5c2.161-22.799-4.578-43.634-20.5-63.378-25.19-31.238-62.01-39.761-94.806-21.946-29.032 15.77-47.763 50.345-45.692 84.341l.603 9.892-7.551-3.441c-27.328-12.454-49.959-38.525-59-67.968-4.657-15.168-3.804-55.276 1.468-69.013 1.052-2.743 2.436-7.186 3.075-9.873.639-2.687 2.66-8.129 4.492-12.092l3.329-7.207-1.454-6.907c-1.551-7.365-1.475-9.676 1.252-37.769 1.802-18.57 1.232-27.44-2.537-39.478-3.153-10.071-3.737-9.54 9.765-8.886 17.848.864 33.217 5.047 53.921 14.677l9.172 4.265 11.828-5.021c33.137-14.067 66.234-14.666 99.085-1.792 5.134 2.012 6.34 2.185 7.286 1.046 4.181-5.039 34.674-16.724 51.958-19.912 5.225-.963 10.694-2.378 12.154-3.145 4.147-2.176 13.418-1.821 15.846.607 2.482 2.482 2.493 3.461.084 7.382-5.188 8.441-6.357 24.785-3.488 48.773 1.587 13.273 1.434 29.888-.32 34.628-.651 1.759.336 4.646 4.44 12.989 3.439 6.992 6.346 14.907 8.346 22.728 1.688 6.6 3.811 14.475 4.718 17.5 1.076 3.593 1.779 10.409 2.026 19.658.36 13.484.461 14.075 2.127 12.409 1.164-1.164 4.104-1.969 8.779-2.404 15.737-1.462 30.053-7.176 54.897-21.911 8.86-5.255 17.546-10.298 19.303-11.206 8.004-4.14 7.981-3.936 2.535-22.228C739.846 118.324 665.62 51.201 576 33c-27.418-5.568-68.949-6.853-94.455-2.922m138.91 78.318c-4.969 1.207-14.513 6.801-17.8 10.433-1.601 1.769-1.436 2.008 3.506 5.08 4.83 3.003 5.252 3.099 6.155 1.407 3.531-6.615 17.007-15.316 23.722-15.316 3.849 0 1.88-1.739-2.678-2.364-5.817-.797-6.713-.745-12.905.76m-203.205 8.337c-5.255.472-5.502 1.817-.5 2.724 6.055 1.098 14.274 5.289 17.889 9.121l3.357 3.561 2.841-2.023c5.405-3.849 5.545-4.58 1.419-7.43-7.226-4.99-15.035-6.849-25.006-5.953m30.632 53.648c-5.904 2.109-10.886 5.641-13.978 9.91-4.519 6.239-3.8 7.305 2.569 3.81 9.758-5.356 17.693-7.244 30.379-7.23l11.353.013-1.853-2.083c-4.77-5.365-19.449-7.644-28.47-4.42m137.701.102c-2.154.768-4.956 2.436-6.227 3.706l-2.311 2.311 11.728.059c12.684.064 21.093 2.242 30.95 8.019 5.638 3.304 6.41 2.495 2.682-2.81-7.911-11.255-23.498-16.032-36.822-11.285M449 209.874c0 .481.682 2.806 1.514 5.167 2.662 7.544-2.625 15.34-10.014 14.769l-4-.31.174 6.255c.68 24.422 23.974 32.407 34.326 11.767 8.856-17.658.101-38.522-16.164-38.522-3.21 0-5.836.393-5.836.874m146.814-.367c-.378.384-.265 1.807.25 3.161 3.521 9.261-1.371 18.008-9.554 17.086-5.08-.573-5.521-.003-5.488 7.078.039 8.276 8.04 19.868 15.513 22.477 2.739.956 9.731-.717 11.849-2.835.81-.811 1.877-1.474 2.37-1.474 3.876 0 8.495-11.494 8.639-21.5.202-14.043-6.568-23.529-17.341-24.296-3.054-.218-5.861-.081-6.238.303m-83.872 64.78c-18.72 6.382-37.69 26.049-45.084 46.742-3.814 10.674-3.42 26.356.883 35.097 8.319 16.897 24.552 24.688 53.355 25.607 53.096 1.695 78.921-19.382 68.474-55.884-11.021-38.506-46.601-62.139-77.628-51.562M495 319.285c-8.532 4.286-13.499 26.086-7.463 32.756 2.226 2.46 9.045 2.641 12.349.326 7.694-5.389 8.22-24.303.892-32.103-2.468-2.627-2.489-2.631-5.778-.979m59.004 1.557c-8.006 8.006-5.355 29.748 4.026 33.019 3.888 1.355 8.349.484 10.669-2.084 4.703-5.204.857-25.607-5.897-31.29-3.794-3.192-5.312-3.131-8.798.355m211.62 29.697c-.965 2.514-.681 3.163.498 1.136.584-1.004.851-2.036.593-2.293-.257-.258-.749.263-1.091 1.157m-154.781 5.984c-2.4 1.304-2.604 1.857-2.113 5.71.685 5.365.814 5.49 3.323 3.219 1.392-1.259 1.979-2.864 1.801-4.924-.145-1.681.08-3.613.5-4.292.993-1.607-.205-1.508-3.511.287m-330.811 3.108c-.117 4.124 11.244 28.564 20.16 43.369 51.368 85.297 148.429 131.888 251.051 120.511 86.464-9.587 160.841-60.913 199.386-137.591 4.5-8.954 7.357-16.565 4.606-12.274-.404.63-3.885 1.459-7.735 1.841-79.146 7.861-143.657 43.52-204.621 113.106-10.888 12.429-11.476 13.5-14.893 27.157-.585 2.337-1.237 4.25-1.449 4.25-.212 0-15.607-14.644-34.211-32.542-32.343-31.115-33.812-32.687-33.513-35.866.343-3.642-6.917-10.195-26.813-24.202-38.869-27.365-87.375-45.467-132.289-49.368-11.671-1.014-11.783-1.098-16.659-12.522-1.644-3.85-3.003-6.491-3.02-5.869m262.523 52.538c2.619 16.383.425 26.975-6.555 31.648-4.422 2.96-8.425 2.458-19.211-2.412-14.743-6.657-30.136-10.372-35.112-8.475-4.87 1.857-3.061 4.272 5.323 7.102 24.116 8.141 33.316 15.549 41.611 33.502l3.655 7.91 2.901-3.472c8.519-10.197 16.605-30.53 17.455-43.897 1.029-16.17-1.992-26.182-8.12-26.906l-2.8-.331.853 5.331m-75.805 31.547c-7.067 7.84 12.997 26.297 37.165 34.189 14.789 4.829 21.282.736 14.549-9.173-2.851-4.195-3.944-4.572-5.394-1.862-.551 1.028-2.547 2.603-4.437 3.5-12.239 5.808-22.498-3.874-16.52-15.591 2.053-4.024 2.06-4.181.25-5.574-7.657-5.89-22.403-9.05-25.613-5.489M296.368 573.75c3.786 13.186 7.632 61.318 7.632 95.509 0 40.954-5.807 80.553-13.558 92.456-.793 1.218-1.442 2.455-1.442 2.75 0 .294 13.565.535 30.144.535h30.144l-.669-8.019c-1.165-13.967 1.197-15.06 11.72-5.422 19.624 17.975 46.936 22.52 68.687 11.429 6.07-3.095 19.353-13.308 21.826-16.781 12.777-17.943 7.775-72.225-8.295-90.012-7.754-8.583-22.627-16.214-40.775-20.92-11.344-2.942-35.595-3.772-44.619-1.527-3.87.962-4.558.857-6.397-.982-3.849-3.849-1.569-27.224 4.841-49.628 1.316-4.599 2.393-8.986 2.393-9.75 0-1.154-5.231-1.388-31.067-1.388-29.113 0-31.036.11-30.565 1.75m166.108 1c.234 1.513 1.117 6.8 1.962 11.75 5.011 29.371 6.791 101.512 3.196 129.5-2.783 21.657-5.941 34.801-10.519 43.774-1.163 2.28-2.115 4.389-2.115 4.686 0 .297 13.44.54 29.866.54h29.867l-.499-6.973c-.531-7.429.928-13.027 3.396-13.027.763 0 4.091 2.485 7.395 5.523 17.658 16.233 39.229 22.267 59.197 16.557 14.348-4.104 29.516-15.137 34.523-25.115 9.426-18.784 5.24-63.592-7.699-82.399-7.007-10.183-23.739-19.377-45.046-24.75-9.568-2.413-34.767-3.032-42.837-1.053-3.796.931-4.575.825-6.25-.85-3.637-3.637-2.108-25.942 3.043-44.413 1.534-5.5 3.06-11.462 3.391-13.25l.603-3.25h-61.9l.426 2.75M261.5 585.076c-4.45 1.342-34.085 4.924-40.736 4.924-3.17 0-5.764.208-5.764.462 0 .255.879 2.842 1.952 5.75 2.938 7.954 5.773 19.957 7.745 32.788 2.449 15.934 2.473 86.365.036 107.5-.888 7.7-1.905 17.203-2.262 21.117l-.647 7.117 14.338-.388c7.886-.213 20.3-.65 27.588-.969 15.574-.684 14.227 1.592 11.312-19.113-4.438-31.516-4.562-33.741-4.562-81.764 0-25.85.402-54.087.894-62.75l.894-15.75-3.894.086c-2.142.047-5.244.493-6.894.99M113 627.638c-5.452.717-25.055 4.205-29.5 5.248-13.34 3.132-18.5 4.628-18.5 5.364 0 .747 5.767 17.633 7.514 22 .973 2.433 2.155 2.246 11.647-1.838C125.3 640.711 155 647.132 155 673.727c0 7.296-1.803 7.89-26.053 8.578-54.615 1.551-73.894 10.753-76.59 36.554-1.939 18.559 5.247 32.04 21.14 39.662 24.961 11.97 52.744 8.952 71.151-7.729 3.516-3.186 7.009-5.792 7.763-5.792 2.07 0 4.589 7.354 4.589 13.394v5.354l23.75.471c13.063.258 23.871.382 24.018.274.148-.108-.723-3.076-1.935-6.595-2.106-6.116-2.229-8.427-2.804-52.398-.581-44.391-.682-46.239-2.884-52.842-4.699-14.088-13.412-19.633-36.608-23.297-9.057-1.431-40.966-2.587-47.537-1.723m837.661 5.453c-12.859 1.061-12.661.847-12.661 13.64v10.486l2.75-.74c10.752-2.893 16.72-3.08 27.849-.871 15.593 3.095 22.012 9.01 23.127 21.31.803 8.853-1.14 10.393-12.024 9.532-4.511-.356-16.977-.128-27.702.507-48.658 2.882-67.029 14.857-65.802 42.892.948 21.68 11.244 32.061 35.928 36.223 23.458 3.956 40.497.552 57.293-11.446 6.883-4.916 9.609-3.289 11.096 6.626l.712 4.75H1039.25l-.656-3.25c-1.965-9.737-2.636-26.513-2.38-59.486.317-40.789-.245-46.542-5.26-53.831-9.726-14.136-37.787-19.847-80.293-16.342M910.5 634.48c-14.544 2.701-25.575 8.706-37.026 20.157-3.5 3.5-6.766 6.363-7.258 6.363-2.16 0-3.048-5.123-2.496-14.386l.574-9.614h-29.147c-23.732 0-29.147.25-29.147 1.343 0 .739.863 3.851 1.917 6.915 7.749 22.525 9.415 72.598 3.55 106.742-.804 4.675-1.462 10.188-1.464 12.25L810 768h28.583c15.721 0 28.431-.337 28.245-.75-.187-.413-1.542-3.034-3.012-5.825-8.688-16.499-7.07-66.027 2.711-82.995 6.701-11.624 27.861-18.046 42.853-13.006 4.334 1.457 7.998 2.52 8.142 2.363.518-.569 1.014-34.785.502-34.697-.288.05-3.674.675-7.524 1.39m-282.954 2.27c5.511 12.682 6.532 23.106 6.345 64.75-.167 37.258.7 44.521 6.333 53.024 11.053 16.687 51.191 20.543 74.776 7.183 3.025-1.714 8.739-6.174 12.698-9.911 3.959-3.738 7.646-6.796 8.193-6.796 2.62 0 4.109 4.61 4.109 12.723V766h25c17.466 0 25-.33 25-1.096 0-.603-1.112-6.791-2.472-13.75-4.735-24.244-5.727-54.337-3.022-91.654.798-11 1.46-20.788 1.472-21.75.02-1.625-1.947-1.75-27.497-1.75h-27.519l.503 2.25c4.15 18.565 4.755 24.259 5.644 53.089 1.186 38.462.482 40.95-13.46 47.578-15.248 7.249-30.748 5.568-39.388-4.272-6.045-6.885-6.577-11.843-4.468-41.645.642-9.075 1.468-25.837 1.835-37.25l.668-20.75h-27.755c-26.056 0-27.708.107-26.995 1.75M363.5 650.626c-18.631 4.672-17.904 3.095-16.65 36.077 1.205 31.736 1.826 34.593 9.29 42.759 19.285 21.101 42.785 14.322 52.97-15.281 11.273-32.767-4.908-63.036-34.11-63.806-5.225-.138-10.4-.025-11.5.251m167-.19c-.55.214-4.281 1.347-8.291 2.518-9.605 2.804-11.438 4.654-10.724 10.826.3 2.596.998 15.5 1.55 28.674 1.159 27.621 2.023 30.802 10.584 39.005 17.32 16.596 37.785 12.551 48.106-9.51 16.46-35.185 1.21-70.74-30.725-71.636-5.225-.147-9.95-.091-10.5.123m-407.664 44.483c-21.586 6.903-31.274 29.8-16.931 40.013 15.412 10.975 33.982 5.709 43.245-12.264 2.525-4.902 6.142-21.367 5.369-24.447-1.328-5.291-19.531-7.188-31.683-3.302m842.726 3.204c-16.244 3.925-28.996 12.546-31.392 21.223-3.144 11.389 9.868 26.654 22.72 26.654 5.807 0 19.135-7.122 24.505-13.094 6.31-7.019 11.953-24.398 10.196-31.401-1.413-5.627-11.376-6.922-26.029-3.382M28 963.5V1075h1006V852H28v111.5m6.668-104.834c-.368.367-.668 47.842-.668 105.501V1069h994.009l-.254-105.25-.255-105.25-496.082-.251c-272.846-.138-496.383.049-496.75.417M106 939.708c-9.672 1.562-14 5.731-14 13.486 0 6.746 4.422 11.309 14.765 15.234 7.7 2.923 10.005 5.265 8.306 8.44-1.995 3.727-11.752 3.265-18.821-.89L93 974.067v4.806c0 5.677 1.185 6.504 11.837 8.264 12.719 2.1 22.172-3.674 22.156-13.535-.011-7.349-3.133-10.537-15.243-15.569-4.263-1.771-7.75-3.366-7.75-3.545 0-.178-.251-.978-.558-1.777-1.753-4.569 7.722-6.16 16.599-2.787l5.062 1.923-.301-4.634c-.291-4.469-.445-4.676-4.302-5.772-5.284-1.501-11.405-2.233-14.5-1.733M332 963.5V987h9v-47h-9v23.5m91 0V987h10v-10.326c0-11.083 1.619-14.698 6.564-14.659 4.403.035 4.92 1.353 5.272 13.447l.336 11.538H455.241l-.418-12.25c-.321-9.378-.821-12.859-2.135-14.846-3.598-5.443-11.573-6.554-16.611-2.315L433 960.178V940h-10v23.5m219.79-15.25c-.238 6.774-.558 8.172-1.79 7.815-8.822-2.556-16.2.048-19.75 6.971-6.916 13.487 4.434 28.883 17.323 23.498 2.497-1.043 4.021-1.252 4.245-.581.192.576 2.336 1.047 4.765 1.047H652v-47h-8.919l-.291 8.25m268.52-2.747L909.119 950h2.499c1.594 0 4.197-1.621 7.19-4.477l4.692-4.477-5-.02c-4.94-.019-5.026.034-7.19 4.477M143.001 956.07c-17.236 7.24-11.464 31.42 7.499 31.42 17.549 0 24.233-19.485 10.239-29.851-3.185-2.36-13.652-3.285-17.738-1.569m46.225.934c-3.925 2.392-4.226 2.428-4.226.496 0-1.111-1.167-1.5-4.5-1.5H176v31h8.934l.283-11.25.283-11.25 3.748-2c3.452-1.842 3.964-1.879 6.5-.464 2.73 1.524 2.754 1.63 3.034 13.25l.281 11.714H209l.032-10.25c.033-10.646.602-12.429 4.652-14.587 6.842-3.644 9.316.031 9.316 13.837v11h10.206l-.37-12.25c-.291-9.655-.747-12.811-2.152-14.899-3.826-5.688-12.802-6.286-19.353-1.29-3.585 2.734-3.598 2.736-5.213.707-3.707-4.66-11.294-5.677-16.892-2.264m60.175-.099c-14.277 6.484-11.737 26.212 3.881 30.144 12.052 3.035 21.721-3.877 21.714-15.522-.008-13.197-12.73-20.464-25.595-14.622m36.824.099c-8.493 5.178-6.311 12.127 5.725 18.237 8.273 4.199 4.681 8.267-4.836 5.477L282 979.219v3.291c0 3.12.258 3.352 4.971 4.483 10.312 2.474 18.484-1.42 18.484-8.807 0-5.016-2.167-7.572-9.377-11.062-8.892-4.303-6.964-8.51 2.573-5.617 2.667.809 4.962 1.476 5.099 1.482.137.006.25-1.35.25-3.014 0-5.172-11.116-7.03-17.775-2.971m69.987.712c-10.039 6.509-9.765 21.553.5 27.548 8.05 4.702 23.503 2.178 24.096-3.936l.307-3.171-3.769 1.921c-7.973 4.065-18.346 1.219-18.346-5.033 0-1.936.585-2.045 11-2.045h11v-3.768c0-11.525-14.433-18.23-24.788-11.516m40.059-.752c-13.9 6.31-11.32 26.426 3.856 30.066 8.529 2.047 15.873-.071 15.873-4.577 0-3.24-.123-3.357-2.565-2.428-9.911 3.768-19.009-3.396-15.395-12.122 1.973-4.763 5.084-6.273 11.551-5.606l5.526.571-.309-3.145c-.481-4.911-10.509-6.404-18.537-2.759m73.651.31c-10.389 7.001-10.782 21.584-.747 27.686 7.841 4.769 23.965 2.668 24.641-3.21.357-3.099-.24-3.294-3.816-1.25-6.593 3.769-18 .313-18-5.452 0-1.94.581-2.048 11-2.048h11v-3.852c0-11.018-14.638-18.236-24.078-11.874m46.197.916c-1.716 1.754-3.119 3.779-3.119 4.5 0 .72-.45 1.31-1 1.31s-1-1.8-1-4v-4h-9v31h9v-6.55c0-12.105 5.988-19.203 13.024-15.437 2.845 1.522 5.095-6.722 2.376-8.71-3.081-2.253-6.923-1.548-10.281 1.887m22.152-1.226c-13.793 6.261-11.21 26.452 3.845 30.064 12.402 2.975 22.217-4.08 22.217-15.968 0-12.74-13.256-19.909-26.062-14.096m36.627.319c-2.932 1.97-3.439 2.918-3.699 6.91-.338 5.189 1.845 7.522 10.551 11.277 8.451 3.646 3.396 7.983-6.005 5.154L571 979.196v3.33c0 3.212.191 3.373 5.384 4.535 18.736 4.193 25.778-11.717 8.805-19.895-8.993-4.333-7.148-8.574 2.462-5.659 2.667.809 4.961 1.476 5.099 1.482.138.006.25-1.35.25-3.014 0-5.377-11.549-7.095-18.102-2.692m93.086-.431c-9.838 5.228-11.206 20.101-2.515 27.339 6.88 5.73 26.531 3.652 26.531-2.805 0-2.783-.738-2.925-4.636-.892-7.049 3.676-17.364.44-17.364-5.449 0-1.936.585-2.045 11-2.045h11v-3.266c0-11.003-13.711-18.358-24.016-12.882m58.417.053c-6.184 2.809-8.903 7.281-8.873 14.595.048 11.994 9.442 18.309 23.037 15.487 5.343-1.11 5.435-1.189 5.435-4.665 0-2.997-.267-3.418-1.75-2.759-6.725 2.986-13.611 1.21-15.822-4.081-3.376-8.08 1.495-14.013 10.822-13.183l5.75.511v-2.93c0-5.042-10.387-6.704-18.599-2.975M763 955.69c-2.889 1.025-8.857 5.494-9.541 7.144-6.154 14.861 4.64 27.7 20.335 24.188 19.969-4.469 16.056-32.281-4.494-31.943-2.64.043-5.475.318-6.3.611m46.173 2.099c-1.47 1.534-3.209 3.671-3.864 4.75-1.046 1.721-1.199 1.441-1.25-2.289L804 956h-10v31h10v-7.04c0-11.8 4.885-18.156 11.602-15.096 2.591 1.181 2.787.958 4.779-5.447 1.426-4.585-7.176-5.835-11.208-1.628m20.077-1.127c-4.038 1.43-4.25 1.703-4.25 5.494v3.989l2.601-2.046c1.431-1.126 4.166-2.34 6.077-2.698 7.331-1.376 11.584 4.136 5.072 6.572-12.728 4.762-14.374 5.897-15.304 10.546-1.344 6.719 6.524 11.191 14.11 8.022 3.597-1.503 4.108-1.498 7.006.063 4.268 2.298 11.753.205 12.268-3.43.274-1.934-.064-2.272-2-2-2.276.318-2.342.096-2.873-9.674-.298-5.5-.915-10.804-1.371-11.787-2.114-4.559-12.771-6.083-21.336-3.051m76.024.431c-7.886 3.904-11.329 15.595-6.681 22.689 7.601 11.601 27.192 10.204 31.959-2.28 5.718-14.972-10.236-27.854-25.278-20.409m46.803.496c-2.961 2.491-3.077 2.51-3.077.5 0-1.84-.596-2.089-5-2.089h-5v31h10v-10.927c0-10.614.076-10.987 2.635-13 6.749-5.31 9.365-1.747 9.365 12.756V987h10l-.006-10.25c-.003-5.638-.48-11.961-1.061-14.052-2.049-7.377-11.834-10.177-17.856-5.109M861 959v3h7c3.85 0 7 .206 7 .458s-3.375 5.656-7.5 12.009c-4.125 6.354-7.5 11.773-7.5 12.043 0 .269 6.975.49 15.5.49H891v-6h-8c-4.4 0-8-.208-8-.462s3.171-5.221 7.046-11.037c3.875-5.817 7.298-11.235 7.607-12.039.476-1.242-1.64-1.462-14.046-1.462H861v3m-714.694 3.413c-3.614 3.109-4.169 13.871-.901 17.482 2.457 2.715 7.665 2.791 10.058.146 4.069-4.496 2.75-16.712-2.039-18.894-3.451-1.572-3.914-1.49-7.118 1.266m108.9-1.356c-7.777 3.089-5.964 20.943 2.126 20.943 5.583 0 7.039-1.881 7.479-9.657.527-9.324-3.281-13.799-9.605-11.286m106.249 1.398C357.109 966.8 358.092 968 366 968c5.647 0 7-.299 7-1.545 0-2.248-4.562-6.455-7-6.455-1.15 0-3.195 1.105-4.545 2.455m113 0C470.109 966.8 471.092 968 479 968c7.969 0 9.411-1.958 4.365-5.927-3.46-2.722-5.912-2.617-8.91.382m69.86-1.439c-3.174 1.266-4.315 4.093-4.315 10.696 0 7.682 1.773 10.288 7 10.288 5.296 0 7-2.584 7-10.612 0-8.519-3.888-12.683-9.685-10.372m129.185.155c-6.431 3.724-4.84 6.829 3.5 6.829 7.591 0 8.579-.912 5.25-4.847-2.2-2.599-6.142-3.492-8.75-1.982m93 .045c-5.011 2.853-6.518 14.241-2.461 18.595 3.012 3.233 8.393 2.985 10.671-.492 5.496-8.386-.82-22.311-8.21-18.103m144.551.219c-4.515 2.486-5.87 14.746-2.051 18.565 4.88 4.88 11.571 1.552 12.063-6 .695-10.674-3.616-16.085-10.012-12.565m-279.596 2.02c-6.913 6.912-.084 21.346 8.22 17.375 4.29-2.051 4.937-17.267.8-18.839-4.09-1.555-6.372-1.185-9.02 1.464m205.308 10.11c-4.961 2.692-4.896 8.435.096 8.435 3.733 0 5.141-1.698 5.141-6.2 0-4.195-.909-4.583-5.237-2.235" fill-rule="evenodd"/>
<path fill="#0562ac" stroke="#0562ac" d="M483.545 30.078C367.115 48.022 279.641 136.701 267.107 249.5c-2.46 22.137-2.446 26.387.093 26.913 14.789 3.059 19.936 4.321 29.764 7.296 64.162 19.423 123.529 62.442 168.214 121.891l7.049 9.377 6.813-6.308c13.033-12.067 26.416-17.207 46.96-18.036 27.122-1.096 49.285-9.275 72.822-26.874 8.913-6.665 8.947-6.746 9.078-21.421.23-25.679-8.726-46.26-28.671-65.889-32.968-32.446-83.195-27.744-112.717 10.551-13.054 16.933-19.101 35.571-18.898 58.25.062 7.012-.008 12.75-.157 12.75-1.723 0-15.709-7.319-21.94-11.48-21.176-14.145-37.436-36.475-45.159-62.02-3.443-11.389-2.631-53.26 1.239-63.862.831-2.276 2.552-7.738 3.825-12.138 1.272-4.4 3.537-10.7 5.032-14 2.618-5.777 2.673-6.247 1.491-12.65-1.286-6.965-.973-17.054 1.113-35.85 1.578-14.22.68-32.684-1.986-40.839C387.654 94.705 387.429 95 398.848 95c16.23 0 31.44 3.916 54.084 13.926l11.315 5.002 7.593-3.555c30.316-14.194 65.852-16.179 96.66-5.402 4.95 1.732 9.723 3.382 10.607 3.668.884.286 4.034-1.033 7-2.93 11.318-7.24 29.591-13.773 51.147-18.288 4.264-.893 8.003-2.028 8.309-2.522.845-1.369 15.829-1.107 17.237.301 1.806 1.806 1.442 6.902-.66 9.236-4.811 5.338-6.415 24.826-3.628 44.064 1.707 11.78 1.924 31.388.409 36.846-.975 3.51-.765 4.427 2.398 10.5 6.268 12.031 6.873 13.848 14.588 43.774 1.582 6.139 2.101 11.263 2.125 21 .025 10.321.274 12.568 1.25 11.311.802-1.033 4.294-1.953 10.218-2.694 17.421-2.177 30.362-7.566 58.738-24.462 8.105-4.826 15.108-8.775 15.562-8.775 1.073 0 5.2-5.587 5.2-7.041 0-5.764-10.137-33.215-19.003-51.459C716.977 99.55 650.124 48.46 574 33c-27.347-5.554-65.402-6.783-90.455-2.922m135.397 78.87c-4.735 1.437-16.942 9.468-16.942 11.147 0 .368 2.103 2.036 4.674 3.709l4.673 3.04 2.708-4.269C617.971 116.4 628.65 110 635.037 110c1.08 0 1.963-.45 1.963-1 0-1.173-14.229-1.214-18.058-.052M414.5 118c-.34.55.268 1 1.352 1 4.042 0 13.463 4.478 17.996 8.553l4.687 4.214 3.878-3.256 3.879-3.256-4.74-2.778c-8.559-5.015-25.034-7.742-27.052-4.477m36 51.919c-9.374 2.632-17.072 8.674-18.967 14.888-.691 2.265-.606 2.251 4.693-.739 10.382-5.86 16.079-7.28 29.498-7.356 13.225-.075 13.711-.426 6.64-4.796-3.795-2.346-16.492-3.505-21.864-1.997m137.84-.025c-3.754.97-9.544 4.218-10.01 5.615-.205.615 3.938.995 10.92 1.002 12.12.011 16.935 1.147 28.145 6.642 6.675 3.271 7.645 3.105 5.087-.872-6.545-10.178-21.581-15.634-34.142-12.387m-138.586 39.685c-.318.319.103 2.579.936 5.024 2.677 7.857-2.226 15.397-10.011 15.397h-3.942l.473 7.25c1.445 22.129 23.511 30.132 32.73 11.87 7.485-14.83 5.227-29.465-5.69-36.87-4.536-3.077-12.603-4.563-14.496-2.671m146.246.243c0 .594.493 3.379 1.096 6.19 1.9 8.86-1.932 13.988-10.454 13.988-4.941 0-5.656.869-5.62 6.832.055 9.118 10.533 22.168 17.799 22.168 4.454 0 10.179-1.756 10.179-3.123 0-.509 1.149-1.364 2.554-1.898 4.428-1.683 6.923-8.873 6.935-19.979.018-15.505-5.215-23.304-16.491-24.58-4.047-.458-5.998-.327-5.998.402m-80.737 63.179c-32.957 9.149-58.668 49.265-50.004 78.019 6.063 20.123 26.455 31.096 58.241 31.338 59.326.452 83.806-29.009 60.125-72.358-15.762-28.852-43.544-43.888-68.362-36.999m-20.256 46.856c-12.37 6.634-13.531 34.143-1.441 34.143 7.858 0 11.888-6.101 11.888-18 0-12.227-4.573-19.293-10.447-16.143m57.811 2.393c-5.268 7.386-3.228 25.548 3.391 30.184 8.347 5.846 15.883-1.449 14.278-13.82-2.064-15.906-11.658-24.791-17.669-16.364m57.432 34.412c-1.366.552-1.79 9.338-.45 9.338 1.836 0 3.2-2.642 3.2-6.2 0-3.76-.316-4.12-2.75-3.138M289.361 381c24.12 53.593 75.847 102.241 132.744 124.843 126.003 50.054 264.933-.252 326.909-118.369 6.496-12.382 6.639-11.896-3.264-11.089-68.246 5.562-136.004 40.789-189.625 98.584-23.548 25.38-25.871 28.781-27.562 40.341-.479 3.274-1.133 4.711-2.049 4.5-.74-.171-16.499-14.895-35.02-32.722-30.707-29.557-33.637-32.661-33.26-35.232.507-3.453-.462-4.411-17.234-17.036-42.137-31.719-90.348-51.039-139.606-55.946-9.978-.994-12.177-1.522-13.651-3.279-.997-1.188-.296 1.152 1.618 5.405m253.043 29.672c2.152 12.844 1.887 21.819-.798 27.119-4.75 9.373-10.922 10.334-25.159 3.917-16.472-7.425-32.745-10.838-36.028-7.556-2.097 2.098.323 3.878 8.581 6.311 18.893 5.566 31.672 15.788 39.018 31.208l4.369 9.172 3.811-5.109c4.411-5.912 10.633-18.375 13.846-27.734 5.383-15.681 2.164-39.962-5.412-40.828-2.808-.321-2.855-.247-2.228 3.5M468 443.29c-12.698 6.401 21.011 33.544 45.232 36.422 8.11.964 10.416-4.138 4.858-10.75l-2.91-3.462-3.156 3c-4.621 4.393-15.903 4.505-19.611.194-3.094-3.597-3.237-9.829-.336-14.589 2.3-3.772 2.404-3.607-4.577-7.296-7.87-4.159-15.5-5.536-19.5-3.519M297.263 575.25c9.817 66.154 8.786 143.888-2.348 177.179-1.669 4.989-3.457 9.498-3.974 10.021-2.268 2.29.65 2.55 28.634 2.55h29.575l-.703-8.993c-1.104-14.102 1.173-15.282 11.4-5.909 16.599 15.213 37.844 21.943 54.919 17.397 15.581-4.147 32.711-16.014 37.793-26.18 11.375-22.754 3.743-72.317-13.47-87.468-18.161-15.986-54.718-25.069-80.348-19.964-10.113 2.015-10.162 1.935-9.456-15.374.573-14.08 1.898-21.908 6.322-37.371 1.316-4.599 2.393-8.536 2.393-8.75 0-.213-13.774-.388-30.609-.388h-30.61l.482 3.25m165.761 0c.013 1.788.468 5.05 1.01 7.25 4.974 20.164 7.29 107.063 3.611 135.5-2.834 21.915-6.376 36.49-10.613 43.67l-1.965 3.33 29.717.002 29.716.003-.333-7.605c-.604-13.817 2.575-16.368 10.38-8.328 15.225 15.685 39.312 23.259 57.463 18.068 13.244-3.787 29.689-14.68 34.866-23.093 11.585-18.828 7.617-64.901-7.339-85.214-13.282-18.041-55.948-30.583-84.796-24.928-9.372 1.837-9.741 1.425-9.741-10.868 0-13.056 1.573-24.445 5.083-36.808C524.618 570.261 527.927 572 493 572h-30l.024 3.25M263.5 585.076c-4.615 1.392-34.198 4.924-41.236 4.924-6.817 0-6.96.171-4.797 5.73 2.359 6.063 5.328 18.896 7.234 31.27 2.508 16.274 2.482 90.118-.039 112.5-.929 8.25-1.93 17.275-2.224 20.056l-.534 5.057 12.298-.318c33.743-.872 42.798-1.483 42.798-2.887 0-.759-.872-7.574-1.938-15.144-4.454-31.632-4.562-33.613-4.562-83.764 0-26.95.398-55.638.884-63.75l.885-14.75-2.885.086c-1.586.047-4.234.493-5.884.99M117 627.455c-.825.204-5.55.895-10.5 1.537-9.048 1.173-17.309 2.834-27.5 5.529-3.025.8-7.342 1.908-9.594 2.463l-4.094 1.009 3.249 9.253c1.787 5.09 3.726 10.481 4.31 11.98l1.062 2.727 8.283-3.567c11.395-4.906 18.582-7.028 30.284-8.943 28.166-4.609 42.5 3.514 42.5 24.084 0 8.099-.076 8.127-24.5 8.814-47.204 1.327-68.601 8.949-75.286 26.817-7.768 20.76-.441 39.324 19.286 48.866 25.891 12.523 53.988 8.817 71.446-9.423 6.948-7.26 11.054-3.934 11.054 8.953v6.256l23.25.379c12.787.209 23.446.244 23.685.077.239-.166-.41-2.657-1.443-5.534-1.696-4.726-1.935-9.678-2.471-51.232-.57-44.144-.684-46.271-2.835-52.708-5.273-15.785-14.085-21.58-38.649-25.415-8.566-1.337-38.328-2.714-41.537-1.922m837 5.468c-16.434 1.498-15.964 1.048-15.986 15.302L938 656.95l2.75-1.058c5.332-2.053 20.178-2.258 29.25-.404 16.922 3.458 21.852 8.654 21.956 23.14.06 8.297-.688 8.805-11.713 7.955-29.981-2.312-64.318 3.54-79.863 13.609-23.76 15.391-16.949 54.057 11.12 63.127 23.502 7.594 45.526 4.936 64.982-7.843 9.507-6.245 12.479-5.6 13.945 3.024 1.396 8.215-1.012 7.5 25.247 7.5 20.448 0 23.465-.196 22.968-1.491-1.822-4.747-2.726-26.703-2.45-59.491.342-40.513-.213-46.177-5.298-54.153-9.159-14.366-39.211-21.379-76.894-17.942m-47 2.67c-12.186 3.237-27.337 12.507-34.354 21.02-7.227 8.768-10.082 5.897-9.076-9.126l.703-10.487h-29.137c-16.025 0-29.136.155-29.136.343 0 .189.863 2.851 1.917 5.915 7.8 22.673 9.511 76.037 3.55 110.742-.804 4.675-1.462 9.737-1.464 11.25L810 768h28c15.4 0 28-.168 28-.374s-1.093-2.343-2.428-4.75c-7.171-12.924-7.39-54.237-.415-78.236 4.834-16.634 27.915-26.059 47.593-19.434l7.25 2.441v-15.242c0-8.383.273-15.953.607-16.823.785-2.047-3.878-2.043-11.607.011m-278.569 1.662c4.135 6.31 4.821 13.654 5.21 55.745.515 55.883 2.228 62.376 18.53 70.268 24.623 11.919 55.161 7.052 74.909-11.94 10.222-9.83 12.92-8.708 12.92 5.372v9.3h50.217l-.588-2.34c-6.411-25.547-8.232-63.274-5.123-106.16.798-11 1.46-20.337 1.472-20.75.012-.413-12.128-.75-26.978-.75-25.052 0-26.999.126-26.99 1.75.006.962.921 6.025 2.034 11.25 2.168 10.176 4.739 66.879 3.439 75.828-2.08 14.318-28.833 23.77-45.983 16.247-11.367-4.986-14.387-13.645-12.584-36.075 1.299-16.156 3.028-51.589 3.062-62.75L682 635h-55.046l1.477 2.255M358.5 651.438c-13.862 3.9-12.95 1.142-11.666 35.313 1.272 33.824 1.607 35.451 8.922 43.352 23.073 24.922 51.759 10.291 56.363-28.748 2.657-22.529-4.801-39.955-20.617-48.171-6.17-3.206-24.39-4.17-33.002-1.746m163.307.895c-10.863 3.287-11.131 3.599-10.398 12.121.334 3.875 1.062 17.577 1.619 30.447 1.17 27.041 1.725 29.099 9.999 37.031 20.857 19.998 46.243 9.788 53.289-21.432 6.054-26.826-.551-47.153-18.542-57.06-7.483-4.121-24.296-4.638-35.967-1.107M120.064 695.15c-16.112 5.1-26.363 24.691-18.795 35.921 6.314 9.37 22.092 12.923 33.217 7.48 10.234-5.007 16.047-13.67 18.986-28.292 2.133-10.613 1.79-14.33-1.472-15.971-4.197-2.113-24.25-1.571-31.936.862m843.849 2.893c-31.315 7.586-40.226 27.735-19.607 44.334 12.715 10.235 38.271-1.76 44.559-20.915 3.547-10.806 4.028-21.723 1.049-23.81-3.188-2.233-15.96-2.041-26.001.391M28 963.5V1075h1006V852H28v111.5m6 0V1069h994V858H34v105.5m66.5-22.013c-6.044 2.839-8.502 6.224-8.496 11.697.007 6.143 3.117 9.445 13.749 14.595 8.425 4.081 9.747 5.056 9.747 7.191 0 5.226-10.913 6.41-18.107 1.964-4.219-2.608-4.393-2.527-4.393 2.04 0 5.854 3.555 7.526 16 7.526 10.642 0 13.616-1.292 16.467-7.151 3.679-7.562.447-14.274-8.967-18.618-12.514-5.775-13-6.101-13-8.719 0-5.395 8.206-6.012 19.75-1.484 1.492.585 1.75.087 1.75-3.382 0-4.037-.041-4.081-5.182-5.607-6.402-1.902-15.328-1.925-19.318-.052M332 963.5V987h9v-47h-9v23.5m91.667-22.833c-.367.366-.667 10.941-.667 23.5V987h9v-9.865c0-11.774 1.674-15.135 7.537-15.135 4.715 0 5.463 1.975 5.463 14.434V987h9v-25.2l-3.4-3.4c-4.205-4.205-8.668-4.522-13.879-.985-4.608 3.127-4.721 2.933-4.721-8.082V940h-3.833c-2.109 0-4.134.3-4.5.667M643 948.617c0 8.487-.034 8.605-2.25 7.878-11.817-3.877-20.95 2.328-20.95 14.234 0 12.456 8.46 19.165 19.37 15.362 2.226-.776 3.422-.816 3.653-.122.189.567 2.331 1.031 4.76 1.031H652v-47h-9v8.617m269.02-3.657c-2.458 4.819-2.47 5.045-.27 5.019.962-.011 4-2.019 6.75-4.461l5-4.441-4.73-.039c-4.517-.036-4.82.14-6.75 3.922m-769.619 11.945c-11.137 5.058-12.469 20.043-2.458 27.652 4.02 3.055 17.421 2.796 21.706-.421 12.552-9.42 5.012-29.092-11.149-29.092-2.2 0-5.845.838-8.099 1.861m46.849.549c-4.04 2.31-4.25 2.334-4.25.488 0-1.635-.711-1.942-4.5-1.942H176v31h9v-10.927c0-12.063 1.587-15.095 7.885-15.058 5.686.034 7.115 3.231 7.115 15.919V987h8v-10.077c0-11.426 2.462-15.941 8.673-15.908 5.86.032 7.327 3.346 7.327 16.55V987h8v-12.277c0-13.45-.664-15.464-6.011-18.229-5.222-2.7-9.814-1.74-15.065 3.149l-2.577 2.398-1.921-2.123c-4.842-5.35-10.666-6.186-17.176-2.464m61.25-.97c-10.638 4.682-13.409 16.529-5.941 25.404 7.377 8.766 26.039 5.921 29.476-4.494 4.737-14.353-9.564-27.059-23.535-20.91m36.829-.026c-3.702 1.61-5.329 4.198-5.329 8.476 0 3.84 2.355 6.229 9.444 9.583 10.887 5.15 5.55 9.519-7.194 5.89-1.982-.564-2.25-.277-2.25 2.415 0 3.558 4.676 4.848 14.242 3.929 13.013-1.251 11.872-14.999-1.675-20.172-8.84-3.376-4.19-8.342 4.909-5.242l4.524 1.542v-2.842c0-4.655-9.505-6.696-16.671-3.579m71.121-.107c-9.941 4.511-12.558 18.474-4.899 26.134 6.815 6.814 27.449 5.893 27.449-1.226 0-2.632-.869-2.825-3.559-.791-5.816 4.399-17.957.818-18.665-5.505l-.276-2.463 11.25-.283c11.174-.281 11.25-.299 11.25-2.716 0-9.805-13.093-17.44-22.55-13.15m39.05.143c-15.322 6.8-12.213 28.724 4.285 30.22 9.637.874 13.215-.162 13.215-3.827 0-2.665-.261-2.939-2.217-2.318-11.679 3.706-20.507-6.801-13.106-15.597 2.578-3.064 2.913-3.167 9-2.78l6.323.403v-2.751c0-4.401-10.57-6.425-17.5-3.35m73.68.188c-10.597 5.222-12.166 20.447-2.829 27.454 6.471 4.857 25.649 2.76 25.649-2.805 0-2.685-.725-2.853-3.441-.799-5.743 4.344-18.559.473-18.559-5.605V972H494.263l-.551-4.112c-1.305-9.728-13.363-15.725-22.532-11.206m45.47 1.592c-1.732 1.801-3.686 4.163-4.341 5.25-1.035 1.717-1.199 1.353-1.25-2.774L511 956h-9v31h9v-7.114c0-11.558 3.968-16.865 11.548-15.443 3.161.593 3.434.424 4.297-2.655 1.867-6.652-4.924-8.993-10.195-3.514m22.771-1.378c-9.938 4.514-12.889 16.154-6.238 24.609 5.832 7.414 20.979 7.455 27.787.075 3.948-4.279 4.227-15.004.506-19.426-5.731-6.811-14.193-8.828-22.055-5.258m37.079-.347c-9.181 4.704-7.401 12.866 3.895 17.862 11.515 5.093 5.721 9.996-7.145 6.046-3.652-1.121-3.178 4.235.5 5.653 4.556 1.758 15.899.685 18.316-1.731 5.61-5.611 1.565-13.957-8.657-17.861-8.712-3.327-3.908-8.239 5.067-5.181l4.524 1.542v-2.842c0-4.702-10.002-6.817-16.5-3.488m93.501-.48c-12.401 5.215-13.63 23.327-1.981 29.179 7.729 3.883 22.98 1.413 22.98-3.723 0-2.531-.052-2.55-2.95-1.051-7.587 3.924-17.554.918-18.274-5.511l-.276-2.463 11.355-.284 11.355-.283-.657-3.717c-1.693-9.578-12.789-15.832-21.552-12.147m56.87.937c-6.445 3.406-8.871 7.28-8.871 14.166 0 10.32 5.808 15.828 16.691 15.828 9.302 0 11.309-.8 11.309-4.508v-3.258l-3.963 1.365c-11.025 3.799-19.591-7.033-12.36-15.627 2.578-3.064 2.913-3.167 9-2.78 6.302.401 6.323.394 6.323-2.297 0-4.87-11.049-6.63-18.129-2.889m34.099.244c-15.416 7.788-10.74 28.469 6.688 29.579 11.726.747 18.461-4.809 18.555-15.306.117-12.942-13.093-20.411-25.243-14.273m48.549.5c-1.515 1.513-3.253 3.875-3.862 5.25-1.029 2.323-1.131 2.165-1.437-2.25l-.33-4.75H795v31h9v-7.768c0-11.245 3.023-15.745 10.021-14.916l4.779.566.683-3.643c1.193-6.361-4.938-8.508-9.964-3.489m20.481-.923c-3.922 1.497-4.541 2.137-4.816 4.983l-.316 3.265 3.801-2.038c3.91-2.095 9.805-2.657 12.168-1.159 2.698 1.71.892 5.468-3.337 6.943-8.497 2.964-9.8 3.584-11.621 5.539-6.976 7.489 3.629 16.275 13.457 11.148 2.505-1.306 3.01-1.305 4.322.007 2.998 2.998 13.342 1.175 13.342-2.352 0-1.472-.548-1.781-2.5-1.408l-2.5.478v-8.967c0-4.932-.468-10.31-1.04-11.951-2.046-5.869-11.846-7.968-20.96-4.488m76.5.063c-12.276 5.666-13.154 22.493-1.48 28.358 12.047 6.053 26.123-1.358 26.123-13.753 0-12.754-12.544-20.189-24.643-14.605m46.095.61c-4.443 3.015-4.595 3.032-4.595.5 0-1.707-.667-2-4.557-2h-4.557l.192 15.5.193 15.5H948v-10.195c0-11.417 2.217-15.805 7.987-15.805 4.485 0 5.013 1.495 5.013 14.2V987h9v-11.953c0-13.488-.832-16.265-5.54-18.499-4.587-2.176-7.612-1.934-11.865.952M861 959v3h7.107c8.412 0 8.437-.827-.391 12.73-3.5 5.373-6.694 10.333-7.099 11.02-.575.978 2.651 1.25 14.824 1.25H891v-6h-8c-4.4 0-8-.251-8-.557 0-.306 3.074-5.369 6.831-11.25 3.756-5.881 7.158-11.255 7.559-11.943.568-.976-2.462-1.25-13.831-1.25H861v3m-715.139 2.912c-2.829 2.29-3.53 15.372-.989 18.434 2.518 3.034 9.783 2.222 11.602-1.296 5.567-10.764-2.466-23.735-10.613-17.138m107.062 1.011c-3.772 3.772-4.206 12.176-.85 16.442 2.787 3.544 9.179 3.762 11.282.385 6.783-10.891-2.077-25.182-10.432-16.827M361 962c-4.235 4.235-2.764 6 5 6 6.006 0 6.998-.249 6.985-1.75-.047-5.377-8.028-8.207-11.985-4.25m114.5-.805c-6.449 3.657-4.83 6.805 3.5 6.805 6.333 0 7-.19 7-2 0-4.624-5.988-7.364-10.5-4.805m66.806 1.218c-3.614 3.109-4.169 13.871-.901 17.482 4.552 5.03 11.956 1.951 13.142-5.463 1.764-11.031-5.313-17.978-12.241-12.019m129.917-.856c-1.266.886-2.223 2.608-2.223 4 0 2.358.243 2.443 7 2.443 6.245 0 7-.208 7-1.927 0-4.588-7.545-7.481-11.777-4.516m93.076-.054c-7.205 5.047-4.582 20.515 3.474 20.482 4.592-.019 5.808-.752 7.164-4.32 4.039-10.621-3.089-21.449-10.638-16.162m144.069.857c-3.515 3.023-4.081 14.09-.901 17.604 4.706 5.2 12.382 1.551 13.268-6.305 1.217-10.796-5.654-17.073-12.367-11.299m-278.269 1.241c-6.624 8.421.246 22.075 8.719 17.331 3.486-1.952 4.673-16.368 1.537-18.662-3.022-2.209-7.977-1.566-10.256 1.331m206.375 9.734c-5.548 3.111-5.845 7.987-.518 8.494 3.948.375 6.053-1.64 6.029-5.77-.028-4.607-1.158-5.166-5.511-2.724" fill-rule="evenodd"/>
</svg>