<!DOCTYPE svg PUBLIC "-//W3C//DTD SVG 1.1//EN" "http://www.w3.org/Graphics/SVG/1.1/DTD/svg11.dtd">
<svg xmlns="http://www.w3.org/2000/svg" viewBox="0 0 412 313">
<path fill="#0b0b0b" d="M172.733 14.75c-2.337 2.594-12.042 57.308-10.762 60.674 1.596 4.197 8.841 4.664 10.959.707 1.128-2.108 10.07-52.7 10.07-56.975 0-5.245-6.858-8.189-10.267-4.406m-83.689 5.827c-5.994 2.601-9.809 6.232-12.483 11.886-2.443 5.164-2.736 5.421-5.141 4.507-9.031-3.434-22.149 2.397-27.067 12.03-2.062 4.04-2.3 5.91-2.325 18.3L42 81.099l-5.98-.676c-7.686-.87-15.286 2.468-19.514 8.568-3.615 5.217-3.991 9.54-5.567 64.009-2.877 99.496.492 123.411 20.343 144.404L36.574 303h102.824l4.582-4.881c7.774-8.28 9.716-11.873 29.11-53.868l18.821-40.751h11.794c9.994 0 11.734.229 11.398 1.5-2.704 10.221-.311 19.929 6.558 26.604 3.924 3.814 4.253 4.491 3.346 6.878-3.1 8.154-.195 19.188 6.826 25.924 3.537 3.394 3.924 4.179 2.955 5.99-2.154 4.025-1.517 13.688 1.261 19.12 5.799 11.34 12.196 12.713 59.951 12.863 58.529.185 76.965-3.769 96.46-20.687l5.54-4.807V178.722l-10.75-11.127c-19.982-20.684-28.492-43.25-28.18-74.727.094-9.512-.24-12.463-1.811-16.014-6.933-15.675-29.241-17.416-38.764-3.026-5.246 7.927-8.468 39.27-6.503 63.262.649 7.926 1.254 15.535 1.344 16.91l.164 2.5-78.437.256c-62.089.203-78.604-.006-79.235-1-.439-.691-.804-6.333-.813-12.538-.016-12.219-.888-15.554-5.489-21.012-5.362-6.359-14.228-8.936-23.776-6.911l-3.75.796-.022-39.796c-.024-44.38-.008-44.26-7.106-50.994-6.446-6.116-17.822-8.197-25.828-4.724M90.4 35.4 87 38.8v62.1c0 60.767-.043 62.143-2 64.1-2.791 2.791-6.437 2.532-8.927-.635C74.034 161.773 74 160.85 74 107.438V53.145l-2.635-2.072c-5.039-3.964-12.822-1.844-15.73 4.284C54.183 58.417 54 64.999 54 114.21c0 60.788.166 59.123-5.892 59.123-5.656 0-5.567.57-6.108-38.969l-.5-36.54-2.806-2.412c-3.555-3.056-6.828-3.061-10.368-.016l-2.785 2.396-.693 20.354c-.381 11.195-1.222 35.429-1.87 53.854-2.363 67.24.884 93.758 13.686 111.76l4.451 6.26 46.649-.26 46.649-.26 4.544-5.677c4.196-5.244 38.043-76.155 38.043-79.704 0-.86-2.958-1.108-10.735-.903l-10.735.284-.624 3.854c-.692 4.267-2.121 5.608-6.001 5.631-5.881.034-5.905-.131-5.905-40.363 0-41.017-.073-41.501-6.67-44.257-4.622-1.931-8.63-.985-11.803 2.785-2.417 2.873-2.527 3.564-2.527 15.927 0 11.59-.206 13.129-2 14.923-2.829 2.829-6.434 2.53-9.037-.75l-2.181-2.75.72-57c.524-41.439.411-58.146-.415-61.196-2.385-8.815-12.2-11.391-18.687-4.904m135.266-1.15c-2.771 2.551-28.296 46.429-29.274 50.323-1.142 4.552 5.319 9.211 9.237 6.662C208.328 89.479 236 41.094 236 38.13c0-5.348-6.205-7.679-10.334-3.88m22.265 52.5c-21.136 17.667-22.449 18.963-22.738 22.44-.348 4.191 3.11 7.487 6.834 6.513 2.88-.753 44.571-35.735 45.883-38.5 1.565-3.298 1.358-4.935-.91-7.203-3.849-3.849-5.707-2.779-29.069 16.75m83.368-8.247c-6.4 4.483-9.239 46.913-4.972 74.318.97 6.226 1.51 12.117 1.201 13.09-1.293 4.074-1.91 4.104-88.528 4.351l-83.5.238v19l70.5.5c78.536.557 73.058.04 80.389 7.589 7.725 7.954 8.603 20.25 2.127 29.793L306.06 231l2.469 3.637c5.144 7.582 5.538 16.137 1.102 23.94l-2.319 4.077 2.366 2.923c4.607 5.693 6.183 15.41 3.594 22.158-.788 2.052 28.368 1.147 40.492-1.257 8.783-1.742 23.997-8.756 28.986-13.364l3.25-3.001V185.43l-8.812-9.233c-20.192-21.156-30.216-46.793-30.768-78.687-.274-15.871-.296-16.006-2.904-18.25-3.091-2.659-8.98-3.024-12.217-.757M233.388 203.98c-6.954 2.81-8.527 12.081-2.988 17.62l3.4 3.4 28.85-.004c27.07-.003 29.052-.127 32.125-2 6.231-3.799 7.062-11.359 1.825-16.596l-3.4-3.4-28.85.063c-15.867.035-29.8.448-30.962.917m5.685 36.655c-2.483 3.156-2.728 8.984-.512 12.148 3.262 4.658 5.248 4.938 31.394 4.433l24.455-.472 2.795-2.795c4.372-4.373 3.353-11.007-2.195-14.284-2.431-1.436-6.324-1.665-28.342-1.665h-25.523l-2.072 2.635m9.86 32.278c-3.867 3.868-3.893 7.981-.076 12.253l2.857 3.198 19.893.848c23.811 1.014 25.827.765 28.437-3.516 2.328-3.819 2.467-6.807.493-10.624-2.209-4.273-3.345-4.476-26.854-4.796l-21.816-.297-2.934 2.934" fill-rule="evenodd"/>
</svg>