<!DOCTYPE svg PUBLIC "-//W3C//DTD SVG 1.1//EN" "http://www.w3.org/Graphics/SVG/1.1/DTD/svg11.dtd">
<svg xmlns="http://www.w3.org/2000/svg" viewBox="0 0 373 251">
<path d="M54.701 14.632c-4.136 4.136 18.371 40.821 31.546 51.418 7.587 6.102 13.545 8.915 33.013 15.586 21.485 7.363 30.602 12.44 45.646 25.421 7.348 6.34 9.063 9.534 9.1 16.943.01 1.925.647 5.863 1.415 8.75l1.398 5.25h-2.375c-3.267 0-8.909-5.207-10.822-9.986-1.004-2.511-2.964-4.833-5.353-6.344-20.175-12.758-20.802-13.005-26.069-10.265-10.158 5.286-12.93 17.463-6.854 30.123 7.473 15.573 26.938 46.251 43.344 68.313 8.511 11.446 10.807 16.016 9.738 19.386-.888 2.798-1.326 2.509-17.551-11.582-16.192-14.062-21.085-19.565-32.584-36.645-9.322-13.846-13.456-18.535-15.614-17.707-2.552.979-2.029 3.44 1.709 8.039 1.864 2.292 7.101 9.568 11.639 16.168 4.537 6.6 10.198 14.304 12.578 17.121 4.18 4.945 28.496 26.706 34.472 30.851 2.66 1.844 3.613 4.601 1.61 4.656-.447.012-10.931-8.417-23.299-18.732-21.498-17.931-22.822-19.242-30.112-29.826C86.56 141.175 59.127 104.963 40.16 84.5c-7.007-7.559-9.223-10.841-13.845-20.5a9811.363 9811.363 0 0 0-10.363-21.577C11.07 32.299 2.87 20 1.002 20c-2.607 0-.842 7.185 3.369 13.719C9.812 42.161 12.53 47.545 18.396 61.5c4.486 10.672 9.031 17.787 17.055 26.695C48.099 102.238 54.268 109.434 60.144 117c8.372 10.782 38.114 51.732 52.292 72 12.649 18.082 13.794 19.415 23.064 26.841 3.85 3.084 13.378 11.114 21.174 17.845 16.968 14.651 21.184 16.311 24.262 9.555l1.239-2.72 1.996 2.739c3.572 4.904 7.129 3.897 17.403-4.924 4.909-4.215 15.333-13.029 23.163-19.587 13.388-11.211 14.876-12.827 24.941-27.086 38.133-54.019 59.139-81.749 74.882-98.854 11.32-12.3 16.119-19.145 19.915-28.409 5.679-13.857 12.339-27.072 17.286-34.296C366.841 22.683 367.41 20 363.903 20c-3.693 0-14.148 16.929-21.856 35.387-6.604 15.816-8.215 18.312-20.958 32.469-16.568 18.408-53.425 67.153-80.027 105.841-5.246 7.628-8.548 11.028-19.363 19.937-7.171 5.907-17.031 14.256-21.911 18.553-4.88 4.297-9.529 7.813-10.331 7.813-2.16 0-1.766-2.326.65-3.835 4.245-2.651 30.882-26.329 35.347-31.42 2.529-2.885 8.267-10.645 12.75-17.245 4.483-6.6 9.851-14.153 11.929-16.784 3.848-4.871 4.159-7.716.846-7.716-1.999 0-8.536 7.863-17.459 21-10.439 15.37-13.732 19.031-29.781 33.106C187.551 231.303 186 232.157 186 226.875c0-3.902.664-5.06 10.473-18.265 19.697-26.516 43.649-66.062 45.546-75.202 1.753-8.443-1.681-16.907-8.749-21.568-4.763-3.141-7.953-2.352-19.584 4.845-9.883 6.116-11.015 7.134-13.293 11.949-2.461 5.203-7.244 9.366-10.761 9.366-1.979 0-1.981-.112-.132-7 .812-3.025 1.482-7.232 1.488-9.349.021-6.612 2.616-10.212 13.9-19.281 12.604-10.129 22.591-15.241 43.777-22.408 18.072-6.114 25.571-10.257 34.316-18.962 13.3-13.238 30.275-42.344 26.752-45.867-2.383-2.383-3.861-.811-8.663 9.222-14.756 30.822-25.561 40.302-59.035 51.799-18.758 6.443-27.397 11.028-40.392 21.439-13.932 11.162-15.41 13.182-16.619 22.715-1.623 12.801-3.388 16.599-4.387 9.442-2.685-19.215-2.773-19.394-14.431-29.341-14.942-12.75-22.828-17.003-46.27-24.955C99.741 68.603 93.363 65.12 84.931 56.34c-8.36-8.706-14.004-17.019-20.928-30.827-5.034-10.037-7.39-12.793-9.302-10.881m78.108 104.118c-8.197 8.789-6.94 13.737 11.065 43.544C155.77 181.987 180.225 217 182.084 217c2.967 0 32.913-44.101 47.192-69.5 7.865-13.989 8.763-17.825 5.645-24.112-4.285-8.639-5.901-8.771-17.678-1.441-7.101 4.42-10.261 6.989-10.688 8.689-2.175 8.665-18.202 17.109-22.543 11.878-1.078-1.299-1.561-1.227-3.846.57-5.827 4.584-18.996-2.56-22.326-12.112-.67-1.923-3.82-4.504-10.792-8.844-11.38-7.083-10.891-6.967-14.239-3.378" fill-rule="evenodd"/>
</svg>