<!DOCTYPE svg PUBLIC "-//W3C//DTD SVG 1.1//EN" "http://www.w3.org/Graphics/SVG/1.1/DTD/svg11.dtd">
<svg xmlns="http://www.w3.org/2000/svg" viewBox="0 0 206 207">
<path fill="#131313" d="M132.295 5.191C127.973 6.328 126 9.464 126 15.198c0 2.991-.74 5.968-1.996 8.028-1.627 2.668-1.997 5.044-2 12.838-.011 28.509-3.773 39.657-21.869 64.81-9.324 12.96-15.249 23.425-17.655 31.182-.947 3.055-2.308 6.356-3.023 7.334-2.92 3.993-27.352 3.975-52.547-.039-5.825-.928-11.337-1.401-12.25-1.051-1.952.749-2.2 4.034-.41 5.429 3.142 2.446 36.384 5.676 52.682 5.118 15.378-.526 14.828-.032 25.416-22.847 2.506-5.399 8.979-15.975 14.994-24.5C123.911 78.019 128 66.241 128 41.997c0-12.562.099-13.186 2.455-15.542 2.888-2.889 5.179-3.09 8.572-.751 9.211 6.348 11.105 18.649 8.594 55.796-.888 13.137.269 26.79 2.454 28.975 2.141 2.141 4.425-1.003 4.425-6.091 0-5.504 1.533-8.136 10.323-17.721l5.353-5.837-.559-5.663c-.308-3.115-.848-8.977-1.201-13.027-.61-6.994-.875-7.622-5.287-12.5-6.615-7.313-8.755-10.562-11.12-16.883-2.339-6.251-9.065-13.278-13.7-14.312-5.875-1.311-6.309-1.585-6.309-3.989 0-8.275 14.74.365 37.095 21.742 15.13 14.467 23.554 33.781 27.089 62.103l1.234 9.888-6.496 6.157c-58.388 55.349-83.628 76.719-94.738 80.213-7.753 2.439-21.102 1.465-68.49-5C8.631 186.955 5 187.092 5 190.413c0 2.577 2.65 3.482 14.533 4.967 6.582.822 20.292 2.617 30.467 3.989 37.75 5.088 46.592 4.573 58.992-3.442 10.346-6.687 38.651-31.113 63.023-54.386 5.784-5.522 14.829-13.948 20.101-18.723 12.806-11.6 12.801-11.584 10.013-29.582-5.333-34.428-15.285-52.79-39.059-72.063-18.999-15.402-23.697-17.842-30.775-15.982m22.861 61.611C153.869 82.172 153.712 88 154.588 88c.323 0 2.469-2.078 4.768-4.618l4.181-4.618-.785-10.584c-.652-8.807-1.146-10.971-2.942-12.882-3.306-3.519-3.418-3.241-4.654 11.504" fill-rule="evenodd"/>
</svg>