<!DOCTYPE svg PUBLIC "-//W3C//DTD SVG 1.1//EN" "http://www.w3.org/Graphics/SVG/1.1/DTD/svg11.dtd">
<svg xmlns="http://www.w3.org/2000/svg" viewBox="0 0 413 465">
<path fill="#0c0c0c" d="M200.444 12.886c-8.35 3.793-14.512 14.606-12.979 22.778 1.476 7.871 4.643 12.008 13.535 17.682 3.451 2.202 3.5 2.331 3.5 9.194v6.96l-6.5.575c-7.517.666-10.524 2.064-17.7 8.231-9.435 8.109-22.268 12.958-54.989 20.778-15.105 3.61-20.757 6.436-27.39 13.693-12.129 13.271-20.242 34.614-24.873 65.438-5.88 39.13-30.772 130.534-48.241 177.135-6.456 17.224-7.018 19.319-6.506 24.278.488 4.728.119 6.396-2.87 12.955-3.724 8.171-4.205 12.034-2.02 16.217 4.867 9.316 27.547 20.032 40.179 18.984 7.155-.593 10.06-3.397 14.392-13.889 2.199-5.326 4.04-8.339 5.423-8.878 6.623-2.579 11.899-14.307 19.114-42.488 2.398-9.366 5.757-20.4 7.464-24.521 3.85-9.294 3.734-12.508-.451-12.508-4.925 0-9.811 11.312-16.412 38-3.549 14.349-8.537 28.489-11.277 31.973-3.576 4.546-16.519 2.415-30.879-5.083-15.467-8.076-16.338-10.391-9.947-26.433C45.767 326.933 74.82 223.413 80.54 187.5c6.088-38.228 11.254-53.904 22.184-67.316 3.261-4 10.923-9.988 11.622-9.08.167.218 1.796 4.671 3.619 9.896 18.572 53.236 46.752 103.189 83.35 147.75 8.844 10.768 8.669 10.862 28.331-15.25 29.495-39.172 62.48-101.287 73.413-138.25 1.676-5.664 2.964-5.412 10.418 2.041 12.143 12.144 19.364 31.142 24.023 63.209 5.568 38.319 34.766 143.385 51.655 185.867 4.781 12.027 4.421 14.418-2.903 19.299-14.789 9.855-32.929 14.886-38.157 10.584-2.815-2.316-8.034-17.218-13.504-38.558-2.438-9.513-5.957-21.097-7.82-25.744-3.329-8.305-3.444-8.448-6.829-8.448-4.694 0-4.89 2.419-1.009 12.482 1.69 4.384 5.061 15.743 7.491 25.244 7.373 28.834 11.614 38.87 18.18 43.026 2.949 1.866 4.399 4.005 7.289 10.752 4.327 10.103 7.699 12.996 15.15 12.996 6.057 0 16.639-3.236 24.957-7.633 15.585-8.237 18.133-14.387 11.604-28.009-3.052-6.368-3.346-7.733-2.91-13.472.451-5.929.094-7.389-4.991-20.386-16.781-42.893-43.951-141.936-49.755-181.372-4.556-30.961-12.324-50.974-25.076-64.606-7.339-7.845-11.479-9.915-27.134-13.567-31.729-7.402-45.458-12.686-55.596-21.397-7.294-6.266-8.591-6.851-16.642-7.497l-7-.561-.5-7.682c-.556-8.54-2.207-11.709-8.092-15.531-7.042-4.574-7.87-5.427-9.032-9.308-2.178-7.269 2.522-15.786 9.708-17.589 6.984-1.753 14.903 3.551 16.055 10.755 1.359 8.499 9.361 9.654 9.361 1.351 0-14.279-17.878-24.823-31.556-18.61m-44.887 86.506c-6.018 1.796-11.105 3.753-11.304 4.349-.86 2.581 19.037 48.259 21.022 48.259 3.364 0 35.657-23.543 35.663-26 .002-.825-2.79-3.525-6.204-6-3.414-2.475-10.767-8.888-16.339-14.25-5.573-5.362-10.528-9.721-11.013-9.686-.485.035-5.806 1.532-11.825 3.328M243 103.63c-4.125 4.183-11.437 10.757-16.25 14.609-4.812 3.851-8.75 7.379-8.75 7.839 0 2.261 33.197 25.922 36.371 25.922 1.654 0 20.962-45.072 20.436-47.707-.266-1.335-19.883-8.301-23.307-8.277-.55.004-4.375 3.43-8.5 7.614m-37.847-1.517c-4.944.928-10.653 3.946-10.653 5.632 0 1.141 13.665 12.255 15.068 12.255 1.596 0 15.432-11.118 15.432-12.401 0-3.193-12.965-6.776-19.847-5.486m-76.74 4.812c-5.546 1.358-5.56 1.456-1.778 12.356 17.339 49.979 47.646 103.87 80.207 142.626l2.863 3.407 7.674-9.907c26.337-34 51.961-78.301 67.621-116.907 4.147-10.223 11-28.957 11-30.069 0-.346-8.845-2.431-10.315-2.431-.914 0-3.517 5.325-7.212 14.75-15.136 38.611-61.023 118.178-68.663 119.061-7.776.898-56.518-84.843-72.089-126.811-2.575-6.941-3.447-7.51-9.308-6.075M226 145.354c0 1.668 5.776 39.865 6.584 43.541.298 1.354.893 2.006 1.371 1.5 1.128-1.196 16.045-28.677 16.045-29.56 0-.381-4.838-4.009-10.75-8.062-13.864-9.505-13.25-9.161-13.25-7.419m-45.264 7.13c-5.921 3.966-11.016 7.463-11.324 7.771-.308.307 2.442 6.06 6.109 12.784 9.315 17.075 10.307 18.621 10.849 16.905.856-2.713 5.798-41.834 5.464-43.255-.232-.985-3.612.78-11.098 5.795m-77.199 62.865c-1.788 1.308-1.792 1.985-.111 21.75 2.717 31.953 6.364 66.014 8.823 82.401 3.478 23.177 3.173 29.568-2.069 43.391-7.469 19.694-6.584 29.622 3.684 41.356l4.817 5.505.656 10.722c.813 13.294 2.763 18.24 8.751 22.203l4.265 2.823 74.875.275c79.415.291 80.213.249 85.863-4.505 4.537-3.818 5.905-7.946 6.972-21.033l.94-11.533 4.392-4.695c7.141-7.635 8.108-10.147 8.084-21.009-.019-8.792-.341-10.32-4.314-20.5-5.783-14.815-5.924-17.317-2.297-41 3.796-24.792 8.45-62.161 10.734-86.198 1.838-19.343 1.59-21.302-2.701-21.302-3.496 0-4.623 4.013-6.323 22.5-2.178 23.692-5.766 52.443-10.233 82-4.201 27.801-4.055 30.663 2.352 46 7.314 17.507 4.946 30.498-6.892 37.817-4.025 2.489-6.173 2.995-16.361 3.855-16.759 1.414-140.771.532-145.621-1.037-16.802-5.433-21.653-19.594-13.578-39.635 6.736-16.717 6.932-19.929 2.829-46.5-2.145-13.89-7.076-60.328-9.132-86-1.427-17.804-3.175-21.475-8.405-17.651m40.941 25.676c-1.008 1.113-4.671 3.422-8.141 5.13-8.695 4.28-8.942 4.684-7.616 12.424 1.963 11.461 9.523 22.568 17.178 25.236 8.736 3.045 20.427-10.724 22.58-26.595.851-6.27.145-7.412-6.361-10.277-2.54-1.119-6.279-3.364-8.309-4.989-4.335-3.469-6.81-3.715-9.331-.929" fill-rule="evenodd"/>
</svg>