<?xml version="1.0" encoding="UTF-8"?>
<!DOCTYPE svg PUBLIC "-//W3C//DTD SVG 1.1//EN" "http://www.w3.org/Graphics/SVG/1.1/DTD/svg11.dtd">
<!-- Creator: CorelDRAW -->
<svg xmlns="http://www.w3.org/2000/svg" xml:space="preserve" width="16.9332mm" height="16.9332mm" style="shape-rendering:geometricPrecision; text-rendering:geometricPrecision; image-rendering:optimizeQuality; fill-rule:evenodd; clip-rule:evenodd"
viewBox="0 0 16.9332 16.9332"
 xmlns:xlink="http://www.w3.org/1999/xlink">
 <defs>
  <style type="text/css">
   <![CDATA[
    .fil1 {fill:black}
    .fil2 {fill:#656567}
    .fil0 {fill:#F3F3F5}
   ]]>
  </style>
 </defs>
 <g id="Capa_x0020_1">
  <metadata id="CorelCorpID_0Corel-Layer"/>
  <g id="_710284560">
   <path id="_710282688" class="fil0" d="M7.0298 14.9191c0.3668,-0.1417 0.4723,0.381 0.1954,0.4751 -0.3548,0.1206 -0.5137,-0.3521 -0.1954,-0.4751zm2.9829 0.0757c0.1142,0.1656 0.0168,0.3591 -0.1219,0.4062 -0.1437,0.0487 -1.1077,0.0221 -1.3349,0.0228 -0.1786,0.0006 -0.4601,0.0464 -0.568,-0.1025 -0.1158,-0.1599 -0.0451,-0.3451 0.0978,-0.4022 0.2473,-0.0988 1.0103,-0.0321 1.3381,-0.0332 0.1916,-0.0006 0.4815,-0.0469 0.5889,0.1089zm-3.7046 -9.6212c0.0944,-0.616 -0.013,-0.6514 0.6525,-0.8134 0.4097,-0.0998 0.9665,-0.1146 1.4067,-0.0647 0.9466,0.1072 1.56,0.5068 1.7306,0.4884 0.0942,-0.0102 0.4351,-0.1817 0.4969,-0.2301l0.0087 -2.7545c0.0006,-1.1122 -0.7155,-1.0207 -1.7066,-1.0172l-0.7084 1.1404c-0.4059,0.2872 -1.0636,0.1987 -1.6323,0.1987 -0.6224,0 -1.1743,0.091 -1.6079,-0.2227 -0.3969,-0.2874 -0.4086,-0.79 -0.6937,-1.1165l-1.4818 0.2899c-0.2935,0.3507 -0.197,1.0651 -0.197,1.5953l0 10.5271c0,0.5594 -0.0337,1.2295 0.0017,1.7753 0.0357,0.5512 0.4064,0.7852 0.9596,0.7834l5.283 -0.0007c0.5455,0 1.1931,0.0925 1.5204,-0.2073 0.3615,-0.3312 0.2624,-0.9323 0.2624,-1.5207 0,-0.5646 0.0243,-1.1855 -0.0057,-1.7432l-3.3995 -0.0007c-0.4754,0 -1.2078,0.0919 -1.5658,-0.1253 -0.4253,-0.2582 -0.3866,-0.6786 -0.3866,-1.3002 0,-0.5235 -0.0437,-4.7365 0.0315,-5.0517 0.121,-0.5072 0.458,-0.5983 1.0313,-0.6296z"/>
   <path id="_710282832" class="fil1" d="M10.3334 10.9897l0.0011 -5.5271c1.3914,-0.57 1.2968,-0.4227 2.9473,-0.2938l-0.0041 5.5202c-1.3229,-0.1839 -1.8318,-0.1354 -2.9443,0.3007zm-3.4719 -0.3008l0.0111 -5.5474c0.4545,-0.134 1.062,-0.1609 1.5724,-0.0975l1.3559 0.4282 -0.0083 5.5089c-1.086,-0.4314 -1.6636,-0.4849 -2.9311,-0.2922zm-0.5534 -5.3153c-0.5733,0.0313 -0.9103,0.1224 -1.0313,0.6296 -0.0752,0.3152 -0.0315,4.5282 -0.0315,5.0517 0,0.6216 -0.0387,1.042 0.3866,1.3002 0.358,0.2172 1.0904,0.1253 1.5658,0.1253l3.3995 0.0007c0.03,0.5577 0.0057,1.1786 0.0057,1.7432 0,0.5884 0.0991,1.1895 -0.2624,1.5207 -0.3273,0.2998 -0.9749,0.2073 -1.5204,0.2073l-5.283 0.0007c-0.5532,0.0018 -0.9239,-0.2322 -0.9596,-0.7834 -0.0354,-0.5458 -0.0017,-1.2159 -0.0017,-1.7753l0 -10.5271c0,-0.5302 -0.0965,-1.2446 0.197,-1.5953l1.4818 -0.2899c0.2851,0.3265 0.2968,0.8291 0.6937,1.1165 0.4336,0.3137 0.9855,0.2227 1.6079,0.2227 0.5687,0 1.2264,0.0885 1.6323,-0.1987l0.7084 -1.1404c0.9911,-0.0035 1.7072,-0.095 1.7066,1.0172l-0.0087 2.7545c-0.0618,0.0484 -0.4027,0.2199 -0.4969,0.2301 -0.1706,0.0184 -0.784,-0.3812 -1.7306,-0.4884 -0.4402,-0.0499 -0.997,-0.0351 -1.4067,0.0647 -0.6655,0.162 -0.5581,0.1974 -0.6525,0.8134zm4.8083 9.8356c-0.012,-0.4 -0.0474,-2.4945 0.0222,-2.7417 0.4278,-0.0505 1.1123,-0.0104 1.5678,-0.0104 0.5323,0 1.0572,0.0086 1.583,-0.023 0.7325,-0.0712 0.5956,-1.141 0.5956,-1.5679l0.0002 -4.3769c0.0025,-0.9888 -0.242,-0.862 -1.0629,-1.1162 -0.0694,-0.4498 0.1486,-0.7364 -1.0017,-0.8639 -0.7624,-0.0846 -0.9318,-0.0245 -1.6754,0.0754 -0.0435,-0.7663 -0.0062,-1.6552 -0.0047,-2.4343 0.0013,-0.7071 -0.1413,-1.3861 -0.8999,-1.6193 -0.5787,-0.1778 -3.9464,-0.077 -4.8541,-0.077 -1.6976,0 -3.3468,-0.3866 -3.3486,1.5819l0.0004 12.4148c0,0.9365 0.0223,1.4575 0.6409,1.8413 0.5031,0.3122 1.5702,0.1972 2.2546,0.1972 1.0263,0 4.2193,0.0509 4.9813,-0.0076 0.6019,-0.0461 1.2468,-0.6106 1.2013,-1.2724z"/>
   <path id="_710282928" class="fil0" d="M12.9805 9.3948c-0.1034,0.1836 -0.3542,0.1402 -0.6136,0.1314 -0.2717,-0.0093 -0.5029,0.0092 -0.7521,0.0494 -0.2487,0.0401 -0.4226,0.1199 -0.6596,0.1583 -0.2456,0.0399 -0.4314,-0.1366 -0.3192,-0.3708 0.155,-0.3237 2.7414,-0.6729 2.3445,0.0317zm-1.3146 -1.8469c1.6249,-0.3005 1.5958,0.5353 0.8906,0.4984 -1.316,-0.0689 -1.8299,0.4645 -1.9374,0.0049 -0.0928,-0.3972 0.7133,-0.4417 1.0468,-0.5033zm-0.9266 -0.6803c-0.369,-0.48 0.1947,-0.5806 0.6429,-0.6536 0.2918,-0.0475 1.154,-0.1486 1.454,-0.0394 0.2085,0.0759 0.2331,0.385 0.0342,0.4771 -0.1187,0.0549 -0.5896,0.0061 -0.7688,0.0143 -0.6431,0.0295 -1.0893,0.2317 -1.3623,0.2016zm-0.4059 4.1221c1.1125,-0.4361 1.6214,-0.4846 2.9443,-0.3007l0.0041 -5.5202c-1.6505,-0.1289 -1.5559,-0.2762 -2.9473,0.2938l-0.0011 5.5271z"/>
   <path id="_710283408" class="fil0" d="M7.3502 9.0174c0.3618,-0.1102 1.7659,0.0511 2.053,0.2471 0.1655,0.1129 0.1605,0.4046 -0.0637,0.4664 -0.054,0.0148 -1.0966,-0.2004 -1.3871,-0.2058 -0.2145,-0.004 -0.5831,0.0799 -0.7305,-0.0428 -0.0975,-0.0812 -0.1917,-0.3674 0.1283,-0.4649zm0.1741 -1.4941c0.5015,-0.0494 0.9715,-0.0045 1.4411,0.1083 0.9637,0.2313 0.5011,0.6615 0.2058,0.6141 -0.4184,-0.0671 -0.6421,-0.2335 -1.3698,-0.2123 -0.247,0.0072 -0.5516,0.0902 -0.6468,-0.1428 -0.1249,-0.3057 0.1523,-0.3458 0.3697,-0.3673zm-0.1895 -1.3584c0.4122,-0.1195 1.8463,0.0604 2.09,0.2449 0.1561,0.1182 0.1202,0.402 -0.0839,0.4566 -0.0656,0.0175 -1.0884,-0.1959 -1.3885,-0.2033 -0.2152,-0.0054 -0.5868,0.0729 -0.7336,-0.0448 -0.1702,-0.1364 -0.0919,-0.3932 0.116,-0.4534zm-0.4733 4.524c1.2675,-0.1927 1.8451,-0.1392 2.9311,0.2922l0.0083 -5.5089 -1.3559 -0.4282c-0.5104,-0.0634 -1.1179,-0.0365 -1.5724,0.0975l-0.0111 5.5474z"/>
   <path id="_710283024" class="fil1" d="M7.3502 9.0174c-0.32,0.0975 -0.2258,0.3837 -0.1283,0.4649 0.1474,0.1227 0.516,0.0388 0.7305,0.0428 0.2905,0.0054 1.3331,0.2206 1.3871,0.2058 0.2242,-0.0618 0.2292,-0.3535 0.0637,-0.4664 -0.2871,-0.196 -1.6912,-0.3573 -2.053,-0.2471z"/>
   <path id="_710283552" class="fil1" d="M7.3348 6.1649c-0.2079,0.0602 -0.2862,0.317 -0.116,0.4534 0.1468,0.1177 0.5184,0.0394 0.7336,0.0448 0.3001,0.0074 1.3229,0.2208 1.3885,0.2033 0.2041,-0.0546 0.24,-0.3384 0.0839,-0.4566 -0.2437,-0.1845 -1.6778,-0.3644 -2.09,-0.2449z"/>
   <path id="_710283960" class="fil1" d="M10.7393 6.8676c0.273,0.0301 0.7192,-0.1721 1.3623,-0.2016 0.1792,-0.0082 0.6501,0.0406 0.7688,-0.0143 0.1989,-0.0921 0.1743,-0.4012 -0.0342,-0.4771 -0.3,-0.1092 -1.1622,-0.0081 -1.454,0.0394 -0.4482,0.073 -1.0119,0.1736 -0.6429,0.6536z"/>
   <path id="_710283600" class="fil1" d="M12.9805 9.3948c0.3969,-0.7046 -2.1895,-0.3554 -2.3445,-0.0317 -0.1122,0.2342 0.0736,0.4107 0.3192,0.3708 0.237,-0.0384 0.4109,-0.1182 0.6596,-0.1583 0.2492,-0.0402 0.4804,-0.0587 0.7521,-0.0494 0.2594,0.0088 0.5102,0.0522 0.6136,-0.1314z"/>
   <path id="_710283528" class="fil1" d="M11.6659 7.5479c-0.3335,0.0616 -1.1396,0.1061 -1.0468,0.5033 0.1075,0.4596 0.6214,-0.0738 1.9374,-0.0049 0.7052,0.0369 0.7343,-0.7989 -0.8906,-0.4984z"/>
   <path id="_710283384" class="fil1" d="M7.5243 7.5233c-0.2174,0.0215 -0.4946,0.0616 -0.3697,0.3673 0.0952,0.233 0.3998,0.15 0.6468,0.1428 0.7277,-0.0212 0.9514,0.1452 1.3698,0.2123 0.2953,0.0474 0.7579,-0.3828 -0.2058,-0.6141 -0.4696,-0.1128 -0.9396,-0.1577 -1.4411,-0.1083z"/>
   <path id="_710284632" class="fil1" d="M8.0857 14.9191c-0.1429,0.0571 -0.2136,0.2423 -0.0978,0.4022 0.1079,0.1489 0.3894,0.1031 0.568,0.1025 0.2272,-0.0007 1.1912,0.0259 1.3349,-0.0228 0.1387,-0.0471 0.2361,-0.2406 0.1219,-0.4062 -0.1074,-0.1558 -0.3973,-0.1095 -0.5889,-0.1089 -0.3278,0.0011 -1.0908,-0.0656 -1.3381,0.0332z"/>
   <path id="_710284680" class="fil2" d="M11.1164 15.2092c0.0689,-0.1236 0.0374,-0.48 0.0374,-0.6453l0.0085 -2.0626 2.7516 0.001c0.1463,0.0005 0.2731,0.013 0.3755,-0.0682 -0.5258,0.0316 -1.0507,0.023 -1.583,0.023 -0.4555,0 -1.14,-0.0401 -1.5678,0.0104 -0.0696,0.2472 -0.0342,2.3417 -0.0222,2.7417z"/>
   <path id="_710284752" class="fil1" d="M7.0298 14.9191c-0.3183,0.123 -0.1594,0.5957 0.1954,0.4751 0.2769,-0.0941 0.1714,-0.6168 -0.1954,-0.4751z"/>
  </g>
 </g>
</svg>
