<?xml version="1.0" encoding="UTF-8"?>
<!DOCTYPE svg PUBLIC "-//W3C//DTD SVG 1.1//EN" "http://www.w3.org/Graphics/SVG/1.1/DTD/svg11.dtd">
<!-- Creator: CorelDRAW -->
<svg xmlns="http://www.w3.org/2000/svg" xml:space="preserve" width="16.9332mm" height="16.9332mm" style="shape-rendering:geometricPrecision; text-rendering:geometricPrecision; image-rendering:optimizeQuality; fill-rule:evenodd; clip-rule:evenodd"
viewBox="0 0 16.9332 16.9332"
 xmlns:xlink="http://www.w3.org/1999/xlink">
 <defs>
  <style type="text/css">
   <![CDATA[
    .fil0 {fill:black}
    .fil1 {fill:#F7F7F7}
   ]]>
  </style>
 </defs>
 <g id="Capa_x0020_1">
  <metadata id="CorelCorpID_0Corel-Layer"/>
  <g id="_376083496">
   <path id="_376914936" class="fil0" d="M6.096 3.8295c0.4137,-0.1637 0.7608,0.2997 0.4082,0.6493 -0.3055,0.303 -0.4938,0.2929 -0.7425,0.7571 -0.3531,0.6594 -0.4016,2.378 -0.5849,2.4939 -1.1903,0.7526 -0.7381,-3.2448 0.9192,-3.9003zm-4.2819 8.2973c-0.0605,0.4757 -0.09,1.0001 0.1305,1.4161l12.9913 0.0002c0.2213,-0.4083 0.1819,-0.9426 0.2269,-1.4001l-0.1153 -0.0114c-0.5532,-0.9419 -1.4387,0.451 -1.7706,-2.7988 -0.1414,-1.3846 0.0387,-2.9164 -0.4085,-4.219 -0.3616,-1.0535 -1.0843,-2.0277 -2.0825,-2.5473 -2.0864,-1.0861 -0.7255,-2.1471 -2.3509,-2.1432 -1.6949,0.0041 -0.2357,1.0672 -2.299,2.1243 -2.9101,1.491 -2.3882,4.508 -2.5845,6.6706 -0.3064,3.3761 -1.1087,1.9302 -1.7374,2.9086z"/>
   <path id="_374308280" class="fil0" d="M8.1989 14.3039c-1.4719,0.351 -0.9806,2.5248 0.5551,2.1661 1.3091,-0.3057 0.9053,-2.5142 -0.5551,-2.1661z"/>
   <path id="_376083520" class="fil1" d="M6.096 3.8295c-1.6573,0.6555 -2.1095,4.6529 -0.9192,3.9003 0.1833,-0.1159 0.2318,-1.8345 0.5849,-2.4939 0.2487,-0.4642 0.437,-0.4541 0.7425,-0.7571 0.3526,-0.3496 0.0055,-0.813 -0.4082,-0.6493z"/>
  </g>
 </g>
</svg>
