<?xml version="1.0" encoding="UTF-8"?>
<!DOCTYPE svg PUBLIC "-//W3C//DTD SVG 1.1//EN" "http://www.w3.org/Graphics/SVG/1.1/DTD/svg11.dtd">
<!-- Creator: CorelDRAW -->
<svg xmlns="http://www.w3.org/2000/svg" xml:space="preserve" width="16.9332mm" height="16.9332mm" style="shape-rendering:geometricPrecision; text-rendering:geometricPrecision; image-rendering:optimizeQuality; fill-rule:evenodd; clip-rule:evenodd"
viewBox="0 0 16.9332 16.9332"
 xmlns:xlink="http://www.w3.org/1999/xlink">
 <defs>
  <style type="text/css">
   <![CDATA[
    .fil0 {fill:black}
    .fil1 {fill:#F3F3F4}
   ]]>
  </style>
 </defs>
 <g id="Capa_x0020_1">
  <metadata id="CorelCorpID_0Corel-Layer"/>
  <g id="_374300624">
   <path id="_374301056" class="fil0" d="M8.2184 10.6213c0.8609,0.1595 0.5871,0.3826 0.941,0.6403 0.1583,0.1153 0.4393,0.0817 0.6489,0.1399l0.4377 0.3776c-0.1136,0.1243 -0.6788,0.2873 -0.8563,0.3515l-1.0229 -0.5645 -0.1484 -0.9448zm1.3109 -3.6806l-4.2642 0c-0.284,0 -1.2309,-0.0794 -1.35,0.1118 -0.3166,0.508 0.7369,0.3946 0.9588,0.3946l4.3357 0.0003c-0.0242,0.1696 -0.8487,1.503 -1.0005,1.7579 -1.4722,0.0305 -3.1119,0.0022 -4.6152,0.0022 -0.319,0 -1.3273,-0.0865 -1.4498,0.1277 -0.2852,0.4984 0.7674,0.3786 1.0587,0.3786l4.6975 0.0002c-0.1464,0.6904 -0.3768,-0.286 -0.0643,1.761l-5.2384 -0.0013c-0.2397,-0.0015 -0.5014,-0.0074 -0.4865,0.2658 0.019,0.3479 0.7046,0.2411 1.2339,0.2411l4.5157 0.0003c0.0973,0.0253 0.0693,0.0266 0.1133,0.3235 0.1654,1.1154 0.0067,0.8955 2.5032,-0.0457 0.2707,-0.102 0.3983,-0.0943 0.5399,-0.3457l0.6696 -1.1251c0.0388,1.0153 0.0038,2.1015 0.0038,3.1246 0,1.8727 0.3064,1.5884 -1.5541,1.5884 -0.2356,0 -8.4668,0.0314 -8.618,-0.016 -0.2261,-0.0709 -0.1688,-0.35 -0.1684,-0.6124 0.0051,-3.1478 -0.0161,-6.2957 0.0164,-9.4434l9.0085 -0.0006c-0.016,0.1501 -0.7206,1.291 -0.8456,1.5122zm3.37 -2.8073l0.6401 0.361c-0.8981,1.5963 -1.8229,3.2234 -2.7549,4.8039 -0.1771,0.3003 -0.7927,1.3435 -0.9092,1.5838 -0.3036,-0.0515 -0.545,-0.02 -0.6504,-0.3872l3.6744 -6.3615zm-0.3726 -1.3802l2.3983 1.3721 -0.2323 0.4341c-0.139,-0.0501 -2.2942,-1.2925 -2.3972,-1.3901l0.2312 -0.4161zm-6.3851 -0.8588c-0.0001,-0.6718 0.7573,-0.6837 0.7574,0 0,0.9555 0.1034,0.6551 -0.3893,1.2605 -0.4838,-0.0166 -0.368,-0.6556 -0.3681,-1.2605zm-3.4046 0c0,-0.3291 0.1844,-0.6206 0.5405,-0.4628 0.2801,0.1242 0.2172,0.53 0.2172,0.8539 -0.0002,0.3421 0.0575,0.725 -0.2393,0.8433 -0.1576,0.0628 -0.3101,0.0152 -0.4124,-0.0923 -0.1613,-0.1694 -0.106,-0.8254 -0.106,-1.1421zm6.8095 0c0,-0.684 0.7573,-0.6759 0.7573,0 0,0.8781 0.0951,0.5742 -0.3816,1.2608 -0.4928,0.0056 -0.3757,-0.6599 -0.3757,-1.2608zm-7.3166 -0.0052c-0.5971,0.0821 -0.7793,0.0972 -1.105,0.487 -0.289,0.346 -0.2782,0.7835 -0.2782,1.3316l-0.0001 11.2358c-0.0011,0.5678 0.0885,0.9163 0.5722,1.0391 0.3867,0.0982 2.5926,0.0247 3.1707,0.0247 2.1453,0 4.2905,-0.0007 6.4358,0 1.3774,0.0003 1.1699,-0.4993 1.1699,-2.0238 0,-1.0667 -0.0001,-2.1334 -0.0002,-3.2001 0,-0.2506 -0.0138,-0.5392 -0.0015,-0.7848 0.0114,-0.2276 0.7029,-1.3369 0.8447,-1.5759l2.3588 -4.0767c0.3355,-0.5946 1.1152,-1.5429 0.3917,-2.273 -0.2345,-0.2367 -0.6384,-0.4377 -0.9735,-0.6245 -0.2958,-0.1649 -0.7133,-0.4834 -1.1224,-0.4964 -0.8858,-0.0284 -1.1516,0.7797 -1.6349,1.6153 -0.0907,-0.0853 -0.2452,-0.3874 -0.4779,-0.4804l-0.7664 -0.1862c-0.0367,-0.5832 -0.2986,-1.0026 -0.8907,-1.0015l-0.8875 1.0015 -1.6283 -0.0059c-0.0694,-1.3341 -1.3155,-1.0462 -1.5185,-0.7288l-0.2521 0.7134 -1.635 0.0053c-0.025,-0.5799 -0.3042,-0.9773 -0.8694,-0.985 -0.6019,-0.0082 -0.8771,0.3985 -0.9022,0.9893z"/>
   <path id="_374301536" class="fil1" d="M9.6445 14.0903c-0.1227,0.2855 -0.5673,0.1268 -0.452,-0.1934 0.1035,-0.2877 0.588,-0.1231 0.452,0.1934zm-7.5314 -0.0711c-0.0184,-0.3056 0.2954,-0.2795 0.5562,-0.2783l5.2981 0.0002c0.2457,-0.0002 0.6417,-0.075 0.6834,0.2105 0.0491,0.3353 -0.3127,0.2957 -0.5767,0.2937l-5.298 -0.0003c-0.2681,0.0008 -0.6454,0.0652 -0.663,-0.2258zm7.4162 -7.0785c0.125,-0.2212 0.8296,-1.3621 0.8456,-1.5122l-9.0085 0.0006c-0.0325,3.1477 -0.0113,6.2956 -0.0164,9.4434 -0.0004,0.2624 -0.0577,0.5415 0.1684,0.6124 0.1512,0.0474 8.3824,0.016 8.618,0.016 1.8605,0 1.5541,0.2843 1.5541,-1.5884 0,-1.0231 0.035,-2.1093 -0.0038,-3.1246l-0.6696 1.1251c-0.1416,0.2514 -0.2692,0.2437 -0.5399,0.3457 -2.4965,0.9412 -2.3378,1.1611 -2.5032,0.0457 -0.044,-0.2969 -0.016,-0.2982 -0.1133,-0.3235l-4.5157 -0.0003c-0.5293,0 -1.2149,0.1068 -1.2339,-0.2411 -0.0149,-0.2732 0.2468,-0.2673 0.4865,-0.2658l5.2384 0.0013c-0.3125,-2.047 -0.0821,-1.0706 0.0643,-1.761l-4.6975 -0.0002c-0.2913,0 -1.3439,0.1198 -1.0587,-0.3786 0.1225,-0.2142 1.1308,-0.1277 1.4498,-0.1277 1.5033,0 3.143,0.0283 4.6152,-0.0022 0.1518,-0.2549 0.9763,-1.5883 1.0005,-1.7579l-4.3357 -0.0003c-0.2219,0 -1.2754,0.1134 -0.9588,-0.3946 0.1191,-0.1912 1.066,-0.1118 1.35,-0.1118l4.2642 0z"/>
   <path id="_374301008" class="fil1" d="M9.2249 10.4949c0.1054,0.3672 0.3468,0.3357 0.6504,0.3872 0.1165,-0.2403 0.7321,-1.2835 0.9092,-1.5838 0.932,-1.5805 1.8568,-3.2076 2.7549,-4.8039l-0.6401 -0.361 -3.6744 6.3615z"/>
   <path id="_374301296" class="fil0" d="M2.1131 14.0192c0.0176,0.291 0.3949,0.2266 0.663,0.2258l5.298 0.0003c0.264,0.002 0.6258,0.0416 0.5767,-0.2937 -0.0417,-0.2855 -0.4377,-0.2107 -0.6834,-0.2105l-5.2981 -0.0002c-0.2608,-0.0012 -0.5746,-0.0273 -0.5562,0.2783z"/>
   <path id="_374301272" class="fil1" d="M9.1594 11.2616c-0.3539,-0.2577 -0.0801,-0.4808 -0.941,-0.6403l0.1484 0.9448 1.0229 0.5645c0.1775,-0.0642 0.7427,-0.2272 0.8563,-0.3515l-0.4377 -0.3776c-0.2096,-0.0582 -0.4906,-0.0246 -0.6489,-0.1399z"/>
   <path id="_374301344" class="fil1" d="M12.2955 3.1693c0.103,0.0976 2.2582,1.34 2.3972,1.3901l0.2323 -0.4341 -2.3983 -1.3721 -0.2312 0.4161z"/>
   <path id="_374300240" class="fil1" d="M2.737 1.8944c0,0.3167 -0.0553,0.9727 0.106,1.1421 0.1023,0.1075 0.2548,0.1551 0.4124,0.0923 0.2968,-0.1183 0.2391,-0.5012 0.2393,-0.8433 0,-0.3239 0.0629,-0.7297 -0.2172,-0.8539 -0.3561,-0.1578 -0.5405,0.1337 -0.5405,0.4628z"/>
   <path id="_374300432" class="fil1" d="M6.1416 1.8944c0.0001,0.6049 -0.1157,1.2439 0.3681,1.2605 0.4927,-0.6054 0.3893,-0.305 0.3893,-1.2605 -0.0001,-0.6837 -0.7575,-0.6718 -0.7574,0z"/>
   <path id="_374300672" class="fil1" d="M9.5465 1.8944c0,0.6009 -0.1171,1.2664 0.3757,1.2608 0.4767,-0.6866 0.3816,-0.3827 0.3816,-1.2608 0,-0.6759 -0.7573,-0.684 -0.7573,0z"/>
   <path id="_374300096" class="fil0" d="M9.6445 14.0903c0.136,-0.3165 -0.3485,-0.4811 -0.452,-0.1934 -0.1153,0.3202 0.3293,0.4789 0.452,0.1934z"/>
  </g>
 </g>
</svg>
