<?xml version="1.0" encoding="UTF-8"?>
<!DOCTYPE svg PUBLIC "-//W3C//DTD SVG 1.1//EN" "http://www.w3.org/Graphics/SVG/1.1/DTD/svg11.dtd">
<!-- Creator: CorelDRAW -->
<svg xmlns="http://www.w3.org/2000/svg" xml:space="preserve" width="16.9332mm" height="16.9332mm" style="shape-rendering:geometricPrecision; text-rendering:geometricPrecision; image-rendering:optimizeQuality; fill-rule:evenodd; clip-rule:evenodd"
viewBox="0 0 16.9332 16.9332"
 xmlns:xlink="http://www.w3.org/1999/xlink">
 <defs>
  <style type="text/css">
   <![CDATA[
    .fil0 {fill:black}
    .fil2 {fill:#575758}
    .fil3 {fill:#888888}
    .fil1 {fill:#F7F7F7}
   ]]>
  </style>
 </defs>
 <g id="Capa_x0020_1">
  <metadata id="CorelCorpID_0Corel-Layer"/>
  <g id="_376915176">
   <path id="_376084384" class="fil0" d="M0.4854 11.8945l0.0031 4.9381 16.0223 0 -0.0467 -4.9223c0.1055,-0.1138 -0.1264,-0.1011 0.2962,-0.1222l0 -0.8902 -16.5856 0 0 0.8902c0.4966,0 0.1912,-0.0098 0.3107,0.1064z"/>
   <path id="_376067296" class="fil0" d="M11.6274 6.1921c0.159,-0.1361 0.0269,-0.0834 0.3412,-0.1318l-0.1097 0.2288c-0.1369,0.7244 -0.154,0.6164 -0.7725,1.1556l0.8401 0.7835 -0.0143 1.362 -3.1902 0.5947 0.0012 -3.4949 2.9042 -0.4979zm-6.3475 -0.0222l2.9332 0.5132 -0.0022 3.5029 -3.1944 -0.5821 -0.0092 -1.3533c0.5489,0.0187 1.056,-0.1848 0.8167,-0.859 -0.2175,-0.6125 -0.5592,0.1095 -0.7479,-1.1025l-0.0983 -0.2065 0.3021 0.0873zm-2.1155 0.6177c1.6863,1.485 1.6062,1.0845 1.5907,2.0094 -0.0273,1.6383 0.0518,0.644 0.2018,1.2118 0.0448,0.1697 0.0117,0.3884 0.0595,0.6223l6.9224 0c0.1339,-1.5874 0.167,-0.2668 0.2492,-1.1485 0.0339,-0.3641 -0.0053,-0.9874 -0.0053,-1.3809l1.5773 -1.3035 -0.8481 -1.3404c-0.3493,-0.5259 -0.3783,-0.9242 -1.2271,-0.9242l-6.5193 0 -1.1918 0.9568c-0.2614,0.3831 -0.5197,0.8884 -0.8093,1.2972z"/>
   <path id="_375817920" class="fil0" d="M6.48 2.6187c0.2129,0.939 1.2259,1.7704 2.4683,1.4939 0.9617,-0.214 1.7833,-1.2202 1.4994,-2.4651 -0.5836,-2.5583 -4.5829,-1.7412 -3.9677,0.9712z"/>
   <path id="_376946424" class="fil1" d="M11.8589 6.2891c-0.1286,-0.143 0.1412,-0.1369 -0.2315,-0.097l-2.9042 0.4979 -0.0012 3.4949 3.1902 -0.5947 0.0143 -1.362 -0.8401 -0.7835c0.6185,-0.5392 0.6356,-0.4312 0.7725,-1.1556z"/>
   <path id="_376946136" class="fil1" d="M5.2799 6.1699c-0.3207,-0.0434 -0.1233,-0.0618 -0.2038,0.1192 0.1887,1.212 0.5304,0.49 0.7479,1.1025 0.2393,0.6742 -0.2678,0.8777 -0.8167,0.859l0.0092 1.3533 3.1944 0.5821 0.0022 -3.5029 -2.9332 -0.5132z"/>
   <path id="_376946040" class="fil2" d="M0.4854 11.8945c-0.1195,-0.1162 0.1859,-0.1064 -0.3107,-0.1064l0 -0.8902c-0.1442,0.246 -0.0952,0.6098 -0.0711,0.9313l0.3818 0.0653z"/>
   <path id="_376946808" class="fil2" d="M16.4641 11.9103l0.3673 -0.0813c0.0175,-0.3759 0.0753,-0.6814 -0.0711,-0.9311l0 0.8902c-0.4226,0.0211 -0.1907,0.0084 -0.2962,0.1222z"/>
   <path id="_376914504" class="fil3" d="M11.8589 6.2891l0.1097 -0.2288c-0.3143,0.0484 -0.1822,-0.0043 -0.3412,0.1318 0.3727,-0.0399 0.1029,-0.046 0.2315,0.097z"/>
   <path id="_376914912" class="fil3" d="M5.0761 6.2891c0.0805,-0.181 -0.1169,-0.1626 0.2038,-0.1192l-0.3021 -0.0873 0.0983 0.2065z"/>
  </g>
 </g>
</svg>
