<?xml version="1.0" encoding="UTF-8"?>
<!DOCTYPE svg PUBLIC "-//W3C//DTD SVG 1.1//EN" "http://www.w3.org/Graphics/SVG/1.1/DTD/svg11.dtd">
<!-- Creator: CorelDRAW -->
<svg xmlns="http://www.w3.org/2000/svg" xml:space="preserve" width="16.9332mm" height="16.9332mm" style="shape-rendering:geometricPrecision; text-rendering:geometricPrecision; image-rendering:optimizeQuality; fill-rule:evenodd; clip-rule:evenodd"
viewBox="0 0 16.9332 16.9332"
 xmlns:xlink="http://www.w3.org/1999/xlink">
 <defs>
  <style type="text/css">
   <![CDATA[
    .fil0 {fill:black}
    .fil1 {fill:#1D1D1D}
    .fil3 {fill:#5C5C5C}
    .fil2 {fill:#F6F6F6}
   ]]>
  </style>
 </defs>
 <g id="Capa_x0020_1">
  <metadata id="CorelCorpID_0Corel-Layer"/>
  <g id="_376083808">
   <path id="_376080712" class="fil0" d="M13.9588 8.9494l-0.4109 -0.1142 0.8449 -1.4086 -0.1992 0.8066c-0.3177,0.3044 -0.3512,0.1066 -0.5283,0.5121 0.1365,0.1431 0.1584,0.1134 0.2935,0.2041zm0 0c0.7224,0.0171 1.3384,-0.9091 0.9834,-1.7287 -0.3279,-0.7571 -1.2083,-0.8847 -1.562,-1.2908 0.4322,-1.2566 0.3299,-1.4638 1.0726,-1.9302 0.2337,-0.1468 0.436,-0.2119 0.5864,-0.3409l-0.0055 -0.3338 -0.9269 0.1905c-0.693,0.2875 -1.3473,1.3001 -1.3257,2.375 0.0081,0.3994 -0.1629,0.5299 -0.3528,0.8508l-1.3807 2.2958c-0.1506,0.2538 -1.3394,2.1644 -1.3955,2.3471 -0.1115,0.3638 0.1301,0.6573 0.4816,0.6076 0.4111,-0.0582 1.4756,-2.239 1.8545,-2.7663 0.119,-0.1656 0.0574,-0.0746 0.1664,-0.148 1.2334,0.8187 0.5147,0.3703 1.7361,0.8843 0.2479,0.7991 0.4472,2.014 0.9536,2.0289 0.8625,0.0253 0.256,-1.3242 0.0606,-2.014 -0.3211,-1.1339 -0.3186,-0.54 -0.9461,-1.0273z"/>
   <path id="_376080592" class="fil0" d="M8.5232 11.893c0.2774,-0.3061 0.5927,-0.8935 0.5626,-1.5168 -0.0687,-1.4267 -2.1361,-0.8051 -1.3367,-2.4021 0.3474,-0.6942 0.8914,-0.6217 0.8339,-1.2025 -0.5841,0.2006 -0.8334,0.1954 -1.1803,0.7956 -0.6383,1.104 -0.1788,1.4766 -0.2365,1.7225l-0.8543 1.4789 1.6507 0.5104 0.5943 -0.9512 -0.3188 1.1396 0.2851 0.4256z"/>
   <path id="_376080496" class="fil0" d="M3.683 11.5354c0.2399,0.0982 0.2272,0.0969 0.2721,0.3576 0.1797,-0.1696 0.1834,-0.192 0.298,-0.4019 0.9347,-1.7117 -0.4103,-2.0718 -1.1738,-2.5418l0.3666 -1.3294c0.2088,-0.3957 0.8187,-0.3441 0.5181,-0.9249l-1.1658 0.9607c-0.358,0.6284 -0.3124,0.9365 -0.1446,1.6421l-0.8554 1.4182 1.6641 0.5305 0.5352 -0.9102 -0.3145 1.1991z"/>
   <path id="_710533904" class="fil0" d="M6.1923 10.9228c-0.1588,0.3755 -1.3388,2.0958 -1.2334,2.3966 0.0818,0.2332 0.3748,0.3678 0.6065,0.1685 0.1012,-0.087 0.9586,-1.5753 1.0101,-1.6888 1.1143,0.4319 1.1513,0.3179 1.2678,0.8107 0.0927,0.3926 0.1659,0.9267 0.4718,0.9849 0.7258,0.1383 0.3561,-0.8282 0.2526,-1.2295 -0.2121,-0.8231 -0.1209,-0.7492 -0.9153,-0.9904 -0.4935,-0.1499 -1.0078,-0.3506 -1.4601,-0.452z"/>
   <path id="_710531192" class="fil0" d="M3.683 11.5354l-1.9733 -0.6005c-0.2323,0.3719 -1.4308,2.089 -1.272,2.4378l0.171 0.1911 0.5566 -0.2592 0.8594 -1.5055 1.1905 0.4001 0.4678 1.3621 0.3401 0.0168 0.1847 -0.204c-0.0911,-0.4929 -0.2049,-1.5136 -0.5248,-1.8387z"/>
   <path id="_710531912" class="fil0" d="M14.1795 4.7216c-1.0476,0.5694 -0.2584,1.8837 0.6573,1.5011 0.9862,-0.412 0.3339,-2.0398 -0.6573,-1.5011z"/>
   <path id="_710531216" class="fil0" d="M8.4464 7.7075c-1.0117,0.3407 -0.5001,1.6987 0.4304,1.465 0.3381,-0.0849 0.6418,-0.4962 0.5201,-0.962 -0.0904,-0.3455 -0.5122,-0.6507 -0.9505,-0.503z"/>
   <path id="_710531840" class="fil0" d="M3.9124 7.7158c-1.0891,0.3999 -0.4259,1.7554 0.4562,1.4399 0.9765,-0.3494 0.4017,-1.755 -0.4562,-1.4399z"/>
   <path id="_710532128" class="fil0" d="M4.7121 9.8594c-0.0025,0.2826 0.005,0.2252 0.3272,0.2252 0.7314,0.0002 1.4122,0.134 1.4937,-0.2252l-1.8209 0z"/>
   <path id="_710532560" class="fil1" d="M12.6683 9.8519c-0.4035,-0.0016 -0.7988,-0.1289 -0.8871,0.2352l1.7401 -0.01c-0.2941,-0.125 -0.4677,-0.2236 -0.853,-0.2252z"/>
   <path id="_710532464" class="fil2" d="M13.9588 8.9494c-0.1351,-0.0907 -0.157,-0.061 -0.2935,-0.2041 0.1771,-0.4055 0.2106,-0.2077 0.5283,-0.5121l0.1992 -0.8066 -0.8449 1.4086 0.4109 0.1142z"/>
   <polygon id="_710532272" class="fil0" points="10.2551,9.8706 9.2369,9.8632 9.291,10.0745 10.1342,10.0827 "/>
   <path id="_710532656" class="fil3" d="M15.1813 10.0454c0.0642,-0.1896 -0.2449,-0.1487 0.5468,-0.1443l0.7037 0.0003c-0.041,0.1815 0.1649,0.1448 -0.4989,0.1378 -0.2504,-0.0025 -0.5016,-0.0029 -0.7516,0.0062zm0 0c-0.0437,0.1064 0.4784,0.0619 0.6149,0.0616 0.2511,-0.0007 0.4721,0.0247 0.7138,-0.041l-0.0052 -0.2229 -1.4021 -0.0069 0.0786 0.2092z"/>
   <path id="_710532536" class="fil0" d="M15.1813 10.0454c0.25,-0.0091 0.5012,-0.0087 0.7516,-0.0062 0.6638,0.007 0.4579,0.0437 0.4989,-0.1378l-0.7037 -0.0003c-0.7917,-0.0044 -0.4826,-0.0453 -0.5468,0.1443z"/>
   <path id="_710534384" class="fil0" d="M1.9309 10.039l0.0596 -0.1436c-0.1615,0.0053 -0.3434,-0.0079 -0.4931,-0.0009 -0.3215,0.015 -0.178,-0.0379 -0.2193,0.1445l0.6528 0z"/>
   <path id="_710534552" class="fil3" d="M1.9309 10.039l-0.6528 0c0.0413,-0.1824 -0.1022,-0.1295 0.2193,-0.1445 0.1497,-0.007 0.3316,0.0062 0.4931,0.0009l-0.077 -0.0686 -0.7135 0.0476 0.0055 0.1916c0.217,0.0603 0.5182,0.0861 0.7254,-0.027z"/>
  </g>
 </g>
</svg>
