<?xml version="1.0" encoding="UTF-8"?>
<!DOCTYPE svg PUBLIC "-//W3C//DTD SVG 1.1//EN" "http://www.w3.org/Graphics/SVG/1.1/DTD/svg11.dtd">
<!-- Creator: CorelDRAW -->
<svg xmlns="http://www.w3.org/2000/svg" xml:space="preserve" width="16.9332mm" height="16.9332mm" style="shape-rendering:geometricPrecision; text-rendering:geometricPrecision; image-rendering:optimizeQuality; fill-rule:evenodd; clip-rule:evenodd"
viewBox="0 0 16.9332 16.9332"
 xmlns:xlink="http://www.w3.org/1999/xlink">
 <defs>
  <style type="text/css">
   <![CDATA[
    .fil0 {fill:black}
   ]]>
  </style>
 </defs>
 <g id="Capa_x0020_1">
  <metadata id="CorelCorpID_0Corel-Layer"/>
  <g id="_376067368">
   <path id="_376066696" class="fil0" d="M2.4009 15.9096c0.05,0.381 0.2805,0.5351 0.6961,0.5387 2.7857,0.024 5.689,-0.0012 8.4807,-0.0012 3.294,0 2.9751,0.3575 2.9752,-1.9136 0,-0.8446 -0.0265,-1.3732 -0.3311,-2.0866 -0.3391,-0.7946 -1.0639,-1.4943 -1.8017,-1.8423 -1.0504,-0.4952 -1.0111,-0.2514 -1.2877,-0.0484 -1.4872,1.0915 -3.6223,1.105 -5.0723,0.1604 -0.5141,-0.3349 -0.4534,-0.4669 -0.7706,-0.3906 -1.5347,0.3688 -2.66,1.6104 -2.865,3.1983 -0.0562,0.4356 -0.0799,1.9561 -0.0236,2.3853z"/>
   <path id="_376066912" class="fil0" d="M4.8668 3.057c0.0385,0.4802 0.0076,1.0899 0.0066,1.5836 -0.0011,0.5077 0.0624,0.5997 0.7728,0.8347 1.721,0.5692 4.6178,0.6026 6.174,-0.2198 0.2419,-0.1279 0.2509,-0.2632 0.2513,-0.5775l0.0065 -1.6208 1.3037 -0.3374 -0.0058 1.6229c-0.1844,0.1751 -0.4535,0.2758 -0.3808,0.7377 0.1026,0.6525 1.1475,0.6542 1.2239,-0.0334 0.019,-0.171 -0.0241,-0.3247 -0.1063,-0.4496l-0.2857 -0.2919 0.0213 -1.7108c0.2501,-0.0965 0.87,-0.1016 0.8029,-0.4341 -0.0406,-0.2011 -0.5749,-0.2719 -0.9346,-0.3669l-4.0564 -1.0713c-1.0566,-0.2794 -0.9893,-0.3671 -2.0797,-0.0788l-5.0628 1.3351c-0.1608,0.0439 -0.3203,0.1612 -0.1967,0.3491 0.0951,0.1447 2.289,0.666 2.5458,0.7292z"/>
   <path id="_376066336" class="fil0" d="M4.9231 6.1508c-0.0928,0.6816 -0.1169,1.1648 0.0853,1.8241 0.7159,2.3342 3.6322,3.3783 5.7144,1.7625 0.253,-0.1964 0.3024,-0.2644 0.5047,-0.5013 0.6868,-0.8042 0.9983,-1.72 0.7939,-3.0863l-0.7949 0.2613c-1.2999,0.4122 -3.3322,0.4254 -4.6834,0.1838 -0.9182,-0.1642 -1.2126,-0.361 -1.62,-0.4441z"/>
  </g>
 </g>
</svg>
