<?xml version="1.0" encoding="UTF-8"?>
<!DOCTYPE svg PUBLIC "-//W3C//DTD SVG 1.1//EN" "http://www.w3.org/Graphics/SVG/1.1/DTD/svg11.dtd">
<!-- Creator: CorelDRAW -->
<svg xmlns="http://www.w3.org/2000/svg" xml:space="preserve" width="16.9332mm" height="16.9332mm" style="shape-rendering:geometricPrecision; text-rendering:geometricPrecision; image-rendering:optimizeQuality; fill-rule:evenodd; clip-rule:evenodd"
viewBox="0 0 16.9332 16.9332"
 xmlns:xlink="http://www.w3.org/1999/xlink">
 <defs>
  <style type="text/css">
   <![CDATA[
    .fil0 {fill:black}
    .fil2 {fill:#5B5B5B}
    .fil1 {fill:#999999}
   ]]>
  </style>
 </defs>
 <g id="Capa_x0020_1">
  <metadata id="CorelCorpID_0Corel-Layer"/>
  <g id="_376063408">
   <path id="_376241104" class="fil0" d="M5.3933 12.7966l0.0022 2.3972 -4.211 0.0086c-0.147,-0.227 -0.072,-2.3135 -0.0428,-2.492l3.7875 -0.0285c0.5981,-0.0081 0.4126,0.0016 0.4641,0.1147zm0.8784 -1.134c-0.0846,0.1498 0.0995,0.106 -0.2491,0.157 -0.4432,0.0649 -4.8416,-0.0265 -4.8945,-0.0347l-0.0133 -6.2372 -0.6755 0 -0.016 10.9559 0.7176 0 0.0028 -0.7902 4.2435 -0.0254 0.0096 0.8156 0.7405 -0.0081 -0.0003 -0.8325 1.0895 -0.2043 0.0204 -5.7549c-1.2507,-0.3796 -0.77,-0.2976 -2.1226,-0.2976l-0.0704 -0.932c-0.0543,-0.1261 -0.969,-0.7101 -1.4099,-2.0681 -0.232,-0.7147 0.2001,-1.3755 0.9386,-1.2184 0.5397,0.1147 0.7311,0.9408 0.9658,1.3682l-0.1154 -1.5961c-0.3513,-0.4508 -1.0257,-0.4318 -1.5597,-0.2121 -1.751,0.7202 -2.2369,5.1009 -1.2143,6.1196 0.6864,0.6835 2.5831,0.3914 3.6898,0.4633l-0.0771 0.332z"/>
   <path id="_713317288" class="fil0" d="M14.5678 16.4507l1.1169 0 0.0237 -7.2856c0.2672,-0.1085 0.4891,-0.0678 0.7859,-0.0678l0.0156 -0.9082 -9.8717 0.0004 0 0.9708 0.7829 0.0097 0.0184 7.3101 1.1319 -0.0048 0.0087 -5.9789 5.9993 0.0011 -0.0116 5.9532z"/>
   <path id="_376063120" class="fil0" d="M4.8845 0.4863c-1.1217,0.3292 -1.6943,1.2739 -1.4021,2.3429 0.6646,2.4324 4.2945,1.4401 3.6968,-0.9689 -0.2073,-0.8358 -1.1942,-1.6969 -2.2947,-1.374z"/>
   <path id="_376062760" class="fil0" d="M6.3125 9.1455c0.1383,-0.1101 0.1284,0.241 0.1141,-0.5473 -0.0037,-0.2123 -0.0081,-0.377 0.0262,-0.586l0.3541 -0.0803c-1.618,-0.7794 -1.6763,-2.1701 -2.0353,-2.4488 -0.5098,-0.396 -1.935,0.0484 -0.1229,2.3009 0.7426,0.9231 1.5134,1.2 1.6638,1.3615z"/>
   <polygon id="_376063216" class="fil0" points="8.1191,7.5085 8.1224,7.7788 12.059,7.7627 12.0593,7.2415 11.8049,7.2272 8.1191,7.2272 "/>
   <path id="_376062928" class="fil1" d="M6.2717 11.6626c-0.3802,0.1971 -4.3387,0.089 -5.0872,0.089l-0.0449 -6.2425 -0.7003 0.0386 0.6755 0 0.0133 6.2372c0.0529,0.0082 4.4513,0.0996 4.8945,0.0347 0.3486,-0.051 0.1645,-0.0072 0.2491,-0.157z"/>
   <path id="_376063696" class="fil2" d="M14.5678 16.4507c0.1995,0.0915 0.3348,0.0611 0.5736,0.06 0.2232,-0.0012 0.3767,0.0064 0.5995,-0.0275l0.0138 -7.2983c0.4549,0.0062 0.5767,0.052 0.7396,-0.0876 -0.2968,0 -0.5187,-0.0407 -0.7859,0.0678l-0.0237 7.2856 -1.1169 0z"/>
   <path id="_376063744" class="fil1" d="M1.1845 15.2024l0 -2.4492c0.8374,0 3.5904,-0.1067 4.2088,0.0434 -0.0515,-0.1131 0.134,-0.1228 -0.4641,-0.1147l-3.7875 0.0285c-0.0292,0.1785 -0.1042,2.265 0.0428,2.492z"/>
   <path id="_376063792" class="fil1" d="M6.3125 9.1455c0.1021,0.075 -0.1467,0.1315 0.1765,0.0441l0.0068 -1.1299 0.3852 -0.0278c0,-0.1883 0.0142,-0.0186 -0.0741,-0.1l-0.3541 0.0803c-0.0343,0.209 -0.0299,0.3737 -0.0262,0.586 0.0143,0.7883 0.0242,0.4372 -0.1141,0.5473z"/>
   <path id="_376063432" class="fil0" d="M7.2289 9.512c-0.049,-0.2117 0.1288,-0.1135 -0.119,-0.1631 -0.0669,-0.0134 -0.1976,0.0157 -0.2691,0.0355l0.3881 0.1276z"/>
  </g>
 </g>
</svg>
