<?xml version="1.0" encoding="UTF-8"?>
<!DOCTYPE svg PUBLIC "-//W3C//DTD SVG 1.1//EN" "http://www.w3.org/Graphics/SVG/1.1/DTD/svg11.dtd">
<!-- Creator: CorelDRAW -->
<svg xmlns="http://www.w3.org/2000/svg" xml:space="preserve" width="16.9332mm" height="16.9332mm" style="shape-rendering:geometricPrecision; text-rendering:geometricPrecision; image-rendering:optimizeQuality; fill-rule:evenodd; clip-rule:evenodd"
viewBox="0 0 16.9332 16.9332"
 xmlns:xlink="http://www.w3.org/1999/xlink">
 <defs>
  <style type="text/css">
   <![CDATA[
    .fil0 {fill:black}
   ]]>
  </style>
 </defs>
 <g id="Capa_x0020_1">
  <metadata id="CorelCorpID_0Corel-Layer"/>
  <path class="fil0" d="M9.9672 11.3996c-0.0012,-0.6713 -0.1755,-1.0679 -0.8323,-1.1045 -2.6195,-0.1463 -2.1736,0.0722 -2.1762,3.8719 0.6103,0.0537 2.3641,0.0524 3.0087,-0.0086l-0.0002 -2.7588zm-2.7207 -4.1226l1.0075 -0.0044 0.0168 -1.0149 0.3465 -0.1259 0.0003 0.0266 0.0186 -0.0068 0.0208 1.5102 -1.5265 -0.0058 -0.003 -0.0197 -0.016 -0.0001c-0.0333,-0.216 -0.0396,-0.2486 0.135,-0.3592zm-4.2463 6.1978l1.0227 0.0052 0.0765 -0.2299 -0.014 -0.9604 -1.1813 0.028 -0.0169 0.8623c0.0337,0.4192 -0.0043,0.1745 0.113,0.2948zm1.6856 -1.0822l-0.0154 1.0827 1.1517 0.018c0.0091,-0.0179 0.024,-0.0633 0.0267,-0.054 0.0009,0.0031 0.1086,0.1209 -0.0138,-1.15 -0.2096,-0.0207 -0.3938,-0.0142 -0.6035,-0.0171 -0.7341,-0.0103 -0.4519,-0.0251 -0.5457,0.1204zm7.5555 0.001c-0.048,-0.135 0.1282,-0.1354 -0.5453,-0.1213l-0.6046 0.0167c-0.0668,0.2042 -0.0744,0.651 -0.0613,0.8911 0.0001,0.001 0.0056,0.1141 0.0102,0.1394 0.0605,0.3375 -0.0073,0.0304 0.0656,0.172l1.1513 -0.021 -0.0159 -1.0769zm0.6583 1.0871l1.0293 -0.0052c0.1117,-0.0789 0.1139,0.1294 0.1048,-0.5126l-0.009 -0.6684 -1.183 0.0125 -0.0159 0.873c0.0014,0.0283 0.0052,0.1119 0.0096,0.1364 0.0205,0.1141 0.0398,0.1184 0.0642,0.1643zm-8.7893 -2.9457l-1.2267 0.0103 0.0409 1.1902 1.1756 -0.0049 0.0102 -1.1956zm1.7596 0.0146l-1.2055 -0.0195c-0.0352,0.3797 -0.0749,0.8392 0.0283,1.2082l1.1693 -0.0148 0.0079 -1.1739zm6.3944 -0.0199l-1.207 0.0206 0.0382 1.185 1.1393 -0.0036c0.1017,-0.3649 0.0632,-0.8208 0.0295,-1.202zm1.7803 0.0153l-1.227 -0.0115 0.0429 1.2046 1.1737 -0.0139 0.0104 -1.1792zm-5.1946 -4.8476c-1.0306,-0.2243 -1.8853,0.4496 -2.0856,1.2696 -0.26,1.0645 0.4449,1.9347 1.2583,2.1416 2.2938,0.5837 3.1213,-2.9118 0.8273,-3.4112zm7.0367 3.4513l-0.8939 0.0648c-0.0059,0.5218 -0.1488,4.9814 0.0387,5.3323l0.2736 0.1187 -0.0749 0.7719c-3.6322,0.1226 -6.6049,0.1145 -10.2113,0.1145 -0.5772,0 -3.0405,0.1585 -3.3198,-0.118l0.195 -0.8857c0.1843,-0.3408 0.0474,-4.7425 0.0407,-5.3396l-0.8382 -0.015c-0.1817,-0.0621 -0.3274,-0.2102 -0.2042,-0.4972 0.087,-0.2025 1.2216,-0.942 1.453,-1.104 1.7873,-1.2512 4.2907,-2.9939 5.9202,-4.2229l-0.725 -0.6661c-0.4539,0.1046 -0.6299,0.2811 -1.0979,0.0632 -0.0061,-0.225 -0.0029,-0.4462 -0.0059,-0.6711 -0.0008,-0.0608 -0.0087,-0.3156 -0.0018,-0.3571 0.0562,-0.3346 -0.0491,-0.1171 0.1129,-0.2068 0.5203,0.0778 0.6577,-0.0789 1.0725,-0.1593l1.0048 -0.0343 0.0385 2.0288 5.9187 4.225c0.5209,0.3614 2.0465,1.1967 1.3043,1.5579z"/>
 </g>
</svg>
