<?xml version="1.0" encoding="UTF-8"?>
<!DOCTYPE svg PUBLIC "-//W3C//DTD SVG 1.1//EN" "http://www.w3.org/Graphics/SVG/1.1/DTD/svg11.dtd">
<!-- Creator: CorelDRAW -->
<svg xmlns="http://www.w3.org/2000/svg" xml:space="preserve" width="16.9332mm" height="16.9332mm" style="shape-rendering:geometricPrecision; text-rendering:geometricPrecision; image-rendering:optimizeQuality; fill-rule:evenodd; clip-rule:evenodd"
viewBox="0 0 16.9332 16.9332"
 xmlns:xlink="http://www.w3.org/1999/xlink">
 <defs>
  <style type="text/css">
   <![CDATA[
    .fil0 {fill:black}
   ]]>
  </style>
 </defs>
 <g id="Capa_x0020_1">
  <metadata id="CorelCorpID_0Corel-Layer"/>
  <g id="_374306288">
   <path id="_374306384" class="fil0" d="M7.7466 3.3291c-0.2578,-0.1198 -0.5419,0.121 -0.7436,0.2417 -0.2231,0.1334 -0.4482,0.2619 -0.6605,0.398 -0.6267,0.4018 -1.3844,0.8004 -1.9637,1.1768 -0.2306,0.1499 -0.3165,0.4407 -0.101,0.6762 0.1485,0.1624 0.4114,0.3404 0.5815,0.4786 0.6818,0.5542 0.588,0.6416 1.3102,0.2129 0.7462,-0.4429 1.963,-1.1413 2.6268,-1.5718 0.2,-0.1296 0.3467,-0.4353 0.1089,-0.6759 -0.1789,-0.1811 -0.9607,-0.8447 -1.1586,-0.9365zm0.8163 10.7398l0.1609 -0.9043c0.3473,0.1927 0.4948,0.5375 1.0312,0.2166 0.5717,-0.3419 5.4681,-3.2627 5.4825,-3.3052l0.0519 -1.4702c-0.1753,0.0524 -1.2983,0.7557 -1.5379,0.9012 -0.5135,0.3118 -0.9987,0.6003 -1.5201,0.9151l-2.2722 1.3637 -0.9806 0.1187c0.1097,-1.2779 0.8836,-2.5988 -0.1608,-3.3873 -0.8644,-0.6528 -1.6765,0.0558 -2.3101,0.4874l-0.6722 0.442c-0.0442,-0.0759 -3.8774,-3.2022 -4.1693,-3.37 0,0.2975 0.001,0.5951 -0.0001,0.8925 -0.0017,0.4841 -0.0369,0.4331 0.2612,0.6747l2.9967 2.4271 -0.7044 0.49c-0.1139,-0.1201 -0.2851,-0.2297 -0.4022,-0.326l-2.1085 -1.7032c-1.0042,-0.7986 -0.8544,-0.7582 -0.8543,-2.2332 0,-1.3159 -0.0304,-1.2998 1.1143,-1.9734 0.3267,-0.1923 0.6347,-0.3798 0.9702,-0.5832 1.2627,-0.7652 2.545,-1.5344 3.8069,-2.2991 1.0257,-0.6216 1.2338,-0.3308 2.0608,0.3444 1.6814,1.3727 3.4167,2.7344 5.0698,4.106l1.698 1.3722c0.3199,0.2475 0.5043,0.44 0.5091,1.0092 0.0044,0.5161 0.0031,1.0374 0.0002,1.5537 -0.005,0.9169 -0.5275,1.0241 -1.4548,1.5802 -0.5749,0.3447 -4.504,2.7416 -4.8105,2.8473 -0.5697,0.1963 -0.8504,-0.0214 -1.2557,-0.1869z"/>
   <path id="_374306672" class="fil0" d="M7.8724 9.1655c0.3308,-0.1032 0.6035,0.1422 0.6039,0.4499 0.0002,0.1757 -0.4198,2.3371 -0.4715,2.6148 -0.0633,0.3409 -0.1991,1.4891 -0.3747,1.6737 -0.2634,0.2769 -0.4905,0.098 -0.7272,-0.0481 -0.1823,-0.1125 -0.4534,-0.3127 -0.6324,-0.3869 -0.1917,0.3017 -1.2565,1.9876 -1.3835,2.1376 -0.4647,0.549 -1.4171,0.0159 -1.0692,-0.7159l0.9185 -1.4099c0.1079,-0.1681 0.3891,-0.5552 0.4557,-0.7317 -0.1836,-0.0657 -0.4849,-0.2904 -0.6641,-0.4011 -0.1926,-0.1191 -0.4557,-0.3061 -0.2936,-0.6397 0.0904,-0.1859 0.9488,-0.7196 1.1713,-0.8767 0.2931,-0.2069 2.3218,-1.6207 2.4668,-1.666z"/>
  </g>
 </g>
</svg>
