<?xml version="1.0" encoding="UTF-8"?>
<!DOCTYPE svg PUBLIC "-//W3C//DTD SVG 1.1//EN" "http://www.w3.org/Graphics/SVG/1.1/DTD/svg11.dtd">
<!-- Creator: CorelDRAW -->
<svg xmlns="http://www.w3.org/2000/svg" xml:space="preserve" width="16.9332mm" height="16.9332mm" style="shape-rendering:geometricPrecision; text-rendering:geometricPrecision; image-rendering:optimizeQuality; fill-rule:evenodd; clip-rule:evenodd"
viewBox="0 0 16.9332 16.9332"
 xmlns:xlink="http://www.w3.org/1999/xlink">
 <defs>
  <style type="text/css">
   <![CDATA[
    .fil0 {fill:#FEFEFE}
    .fil1 {fill:black}
    .fil2 {fill:#747474}
    .fil3 {fill:#F7F7F7}
   ]]>
  </style>
 </defs>
 <g id="Capa_x0020_1">
  <metadata id="CorelCorpID_0Corel-Layer"/>
  <g id="_376080760">
   <path id="_374304272" class="fil0" d="M9.1894 7.1807c-0.0007,-0.3361 -0.0879,-0.5346 -0.4167,-0.5529 -1.3113,-0.0733 -1.0881,0.0361 -1.0894,1.9382 0.3055,0.0269 1.1835,0.0262 1.5061,-0.0043l0 -1.381zm-3.4876 1.0388l0.5119 0.0026 0.0383 -0.1151 -0.007 -0.4807 -0.5913 0.014 -0.0085 0.4316c0.0169,0.2099 -0.0021,0.0874 0.0566,0.1476zm0.8438 -0.5418l-0.0077 0.542 0.5765 0.009c0.0045,-0.0089 0.012,-0.0316 0.0133,-0.027 0.0005,0.0016 0.0544,0.0606 -0.0068,-0.5757 -0.105,-0.0103 -0.1972,-0.007 -0.3022,-0.0085 -0.3674,-0.0052 -0.2262,-0.0126 -0.2731,0.0602zm3.7821 0.0005c-0.024,-0.0675 0.0642,-0.0677 -0.273,-0.0607l-0.3026 0.0084c-0.0335,0.1022 -0.0372,0.3259 -0.0307,0.4461 0.0001,0.0005 0.0028,0.0571 0.0051,0.0697 0.0303,0.169 -0.0037,0.0153 0.0328,0.0862l0.5764 -0.0106 -0.008 -0.5391zm0.3296 0.5442l0.5152 -0.0026c0.0559,-0.0394 0.057,0.0648 0.0525,-0.2565l-0.0046 -0.3346 -0.5921 0.0062 -0.008 0.437c0.0007,0.0142 0.0026,0.056 0.0048,0.0683 0.0103,0.0571 0.0199,0.0593 0.0322,0.0822zm-4.3998 -1.4745l-0.6141 0.0051 0.0205 0.5958 0.5885 -0.0024 0.0051 -0.5985zm0.8808 0.0073l-0.6034 -0.0098c-0.0177,0.1901 -0.0375,0.4201 0.0141,0.6048l0.5853 -0.0074 0.004 -0.5876zm3.2009 -0.01l-0.6042 0.0104 0.0191 0.5931 0.5704 -0.0018c0.0509,-0.1826 0.0316,-0.4109 0.0147,-0.6017zm0.8912 0.0077l-0.6142 -0.0058 0.0215 0.603 0.5875 -0.0069 0.0052 -0.5903zm-2.6003 -2.4267c-0.5159,-0.1123 -0.9437,0.2251 -1.044,0.6356 -0.1302,0.5328 0.2227,0.9684 0.6299,1.072 1.1482,0.2922 1.5624,-1.4576 0.4141,-1.7076zm3.5224 1.7277l-0.4474 0.0324c-0.003,0.2612 -0.0745,2.4936 0.0193,2.6693l0.137 0.0594 -0.0375 0.3865c-1.8182,0.0613 -3.3063,0.0572 -5.1116,0.0572 -0.2889,0 -1.522,0.0794 -1.6618,-0.059l0.0976 -0.4434c0.0923,-0.1706 0.0237,-2.374 0.0204,-2.6729l-0.4196 -0.0075c-0.091,-0.0311 -0.1639,-0.1053 -0.1022,-0.2489 0.0435,-0.1014 0.6115,-0.4716 0.7273,-0.5527 0.8947,-0.6263 2.1479,-1.4986 2.9636,-2.1139l-0.363 -0.3334c-0.2272,0.0524 -0.3153,0.1407 -0.5495,0.0316 -0.0031,-0.1126 -0.0015,-0.2233 -0.003,-0.3359 -0.0004,-0.0304 -0.0044,-0.158 -0.0009,-0.1788 0.0281,-0.1675 -0.0246,-0.0586 0.0565,-0.1035 0.2605,0.039 0.3292,-0.0395 0.5369,-0.0798l0.503 -0.0171 0.0193 1.0156 2.9628 2.1149c0.2607,0.181 1.0244,0.5991 0.6528,0.7799z"/>
   <path id="_374304128" class="fil1" d="M4.7713 6.0748c0.1055,0.0623 0.2054,0.0435 0.3978,0.0424l0.0014 2.638 -0.0976 0.4434c0.1398,0.1384 1.3729,0.059 1.6618,0.059 1.8053,0 3.2934,0.0041 5.1116,-0.0572l0.0375 -0.3865 -0.1369 -0.0594 0.0094 -2.6367c0.1586,-0.0035 0.3223,0.0353 0.4187,-0.065 0.3715,-0.1808 -0.3922,-0.5989 -0.6529,-0.7798l-2.9628 -2.115 -0.0193 -1.0156 -0.503 0.0172c-0.2077,0.0402 -0.2764,0.1187 -0.5369,0.0797 -0.0694,-0.0406 0.0872,-0.0493 -0.0822,-0.0316 -0.0044,0.1688 -0.0477,0.5137 0.0296,0.6498 0.2342,0.1091 0.3223,0.0208 0.5496,-0.0316l0.3629 0.3335c-0.8157,0.6152 -2.0689,1.4875 -2.9636,2.1138 -0.1158,0.0811 -0.6838,0.4513 -0.7273,0.5527 -0.0617,0.1437 0.0112,0.2178 0.1022,0.2489zm4.5434 -5.6129c0.0197,0.0124 -0.0029,0.0232 0.1089,0.0491l0.2093 0.0215c0.7789,0.0837 1.7852,0.6428 2.2828,1.0048 0.5942,0.4322 1.1708,1.041 1.575,1.7304 0.9646,1.6452 1.0257,3.4169 0.3779,5.3561 -0.7694,2.3035 -2.9029,5.3098 -4.5549,7.0371l-0.8368 0.8491c-0.1653,-0.0866 -0.344,-0.3065 -0.4639,-0.4397 -0.1525,-0.1697 -0.2535,-0.2822 -0.4289,-0.46l-0.8282 -0.9499c-2.3759,-2.8538 -5.5648,-7.347 -3.3977,-11.2491 0.4253,-0.7657 0.9915,-1.3912 1.6877,-1.9019 0.7367,-0.5405 1.6189,-0.8969 2.552,-1.0379 0.6367,-0.0962 1.1066,-0.0206 1.7168,-0.0096z"/>
   <path id="_374304512" class="fil2" d="M5.1705 8.7552l-0.0014 -2.638c-0.1924,0.0011 -0.2923,0.0199 -0.3978,-0.0424l0.4196 0.0075c0.0033,0.2989 0.0719,2.5023 -0.0204,2.6729z"/>
   <path id="_374303936" class="fil1" d="M8.3721 4.6155c-0.0677,0.103 -0.0412,0.3016 -0.0382,0.468 -0.1178,-0.002 -0.3901,-0.0507 -0.4746,0.0423 -0.0874,0.0554 -0.0842,0.0717 -0.0675,0.1798l0.7641 0.0029 -0.0104 -0.756 -0.1734 0.063zm0.2804 -0.2904c1.1484,0.25 0.7341,1.9998 -0.4141,1.7077 -0.4072,-0.1036 -0.76,-0.5393 -0.6299,-1.0721 0.1003,-0.4105 0.5281,-0.7478 1.044,-0.6356z"/>
   <path id="_374304200" class="fil1" d="M9.2119 8.5606c-0.3227,0.0305 -1.2006,0.0312 -1.5061,0.0043 0.0013,-1.9021 -0.2219,-2.0115 1.0893,-1.9382 0.3288,0.0183 0.4161,0.2168 0.4167,0.5529l0.0001 1.381z"/>
   <polygon id="_374303576" class="fil1" points="7.1368,8.2277 6.5603,8.2186 6.568,7.6767 7.1194,7.6626 "/>
   <polygon id="_374303792" class="fil1" points="9.7818,8.2268 9.7989,7.6628 10.3502,7.6772 10.3581,8.2162 "/>
   <polygon id="_374303144" class="fil1" points="11.2187,7.2954 10.6662,7.293 10.6662,6.7771 11.2191,6.7762 "/>
   <polygon id="_374303744" class="fil1" points="7.1249,7.2948 6.571,7.2927 6.5709,6.7776 7.1228,6.7762 "/>
   <polygon id="_374303552" class="fil1" points="5.7032,7.2956 5.6996,6.7762 6.2525,6.7758 6.2523,7.2928 "/>
   <polygon id="_374303600" class="fil1" points="9.7963,7.2952 9.7955,6.7762 10.3475,6.7771 10.3473,7.2936 "/>
   <polygon id="_374303768" class="fil1" points="11.1949,8.2188 10.6797,8.2214 10.6816,7.6691 11.199,7.6685 "/>
   <polygon id="_374302808" class="fil1" points="6.2361,8.221 5.7242,8.2184 5.7236,7.6683 6.2411,7.6693 "/>
   <path id="_374302688" class="fil3" d="M7.8593 5.1258l0.5044 -0.0022 0.0084 -0.5081 0.1734 -0.063 0.0104 0.756 -0.7641 -0.0029c-0.0167,-0.1081 -0.0199,-0.1244 0.0675,-0.1798z"/>
  </g>
 </g>
</svg>
