<?xml version="1.0" encoding="UTF-8"?>
<!DOCTYPE svg PUBLIC "-//W3C//DTD SVG 1.1//EN" "http://www.w3.org/Graphics/SVG/1.1/DTD/svg11.dtd">
<!-- Creator: CorelDRAW -->
<svg xmlns="http://www.w3.org/2000/svg" xml:space="preserve" width="16.9332mm" height="16.9332mm" style="shape-rendering:geometricPrecision; text-rendering:geometricPrecision; image-rendering:optimizeQuality; fill-rule:evenodd; clip-rule:evenodd"
viewBox="0 0 16.9332 16.9332"
 xmlns:xlink="http://www.w3.org/1999/xlink">
 <defs>
  <style type="text/css">
   <![CDATA[
    .fil0 {fill:black}
    .fil1 {fill:#1E1E1E}
    .fil2 {fill:#7B7B7B}
   ]]>
  </style>
 </defs>
 <g id="Capa_x0020_1">
  <metadata id="CorelCorpID_0Corel-Layer"/>
  <g id="_712806704">
   <polygon id="_376922880" class="fil0" points="3.1713,13.439 3.0421,13.439 3.0421,13.5035 2.9129,13.5035 2.9129,13.5681 2.8484,13.5681 2.8484,13.6327 2.7838,13.6327 2.7838,13.6973 2.7192,13.6973 2.7192,13.7619 2.6547,13.7619 2.6547,13.8265 2.5901,13.8265 2.5901,13.891 2.5255,13.891 2.5255,14.0202 2.4609,14.0202 2.4609,14.0847 2.3963,14.0847 2.3963,14.2139 2.3317,14.2139 2.3317,14.4077 2.2672,14.4077 2.2672,14.6014 2.2026,14.6014 2.2026,14.7305 2.138,14.7305 2.138,14.9888 2.0735,14.9888 2.0735,15.57 2.0089,15.57 2.0089,16.0866 2.7838,16.0866 2.7838,15.6346 2.8484,15.6346 2.8484,15.2471 2.9129,15.2471 2.9129,14.9243 2.9775,14.9243 2.9775,14.6659 3.0421,14.6659 3.0421,14.6014 3.1066,14.6014 3.1066,16.0866 5.6898,16.0866 5.6898,14.6014 5.7544,14.6014 5.7544,14.7951 5.8189,14.7951 5.8189,14.9888 5.8835,14.9888 5.8835,15.3117 5.9481,15.3117 5.9481,15.6346 6.0126,15.6346 6.0126,16.0866 6.8521,16.0866 6.8521,15.7637 6.9167,15.7637 6.9167,15.3117 6.9813,15.3117 6.9813,14.9888 7.0459,14.9888 7.0459,14.7305 7.1104,14.7305 7.1104,14.6014 7.175,14.6014 7.175,16.0866 9.7581,16.0866 9.7581,14.6014 9.8226,14.6014 9.8226,14.7305 9.8872,14.7305 9.8872,14.9243 9.9518,14.9243 9.9518,15.2471 10.0164,15.2471 10.0164,15.57 10.081,15.57 10.081,16.0866 10.9205,16.0866 10.9205,15.8929 10.985,15.8929 10.985,15.3762 11.0496,15.3762 11.0496,15.0534 11.1142,15.0534 11.1142,14.7951 11.1788,14.7951 11.1788,14.6659 11.2434,14.6659 11.2434,16.0866 13.891,16.0866 13.891,14.7305 13.9556,14.7305 13.9556,14.9243 14.0202,14.9243 14.0202,15.1825 14.0847,15.1825 14.0847,15.57 14.1493,15.57 14.1493,16.0866 14.9243,16.0866 14.9243,15.57 14.8597,15.57 14.8597,15.118 14.7951,15.118 14.7951,14.7951 14.7305,14.7951 14.7305,14.6014 14.6659,14.6014 14.6659,14.4077 14.6014,14.4077 14.6014,14.2139 14.5368,14.2139 14.5368,14.0847 14.4722,14.0847 14.4722,14.0202 14.4077,14.0202 14.4077,13.891 14.3431,13.891 14.3431,13.8265 14.2785,13.8265 14.2785,13.6973 14.2139,13.6973 14.2139,13.6327 14.0847,13.6327 14.0847,13.5681 14.0202,13.5681 14.0202,13.5035 13.891,13.5035 13.891,13.439 13.7619,13.439 13.7619,13.3744 11.308,13.3744 11.308,13.439 11.1788,13.439 11.1788,13.5035 11.0496,13.5035 11.0496,13.5681 10.985,13.5681 10.985,13.6327 10.9205,13.6327 10.9205,13.6973 10.8559,13.6973 10.8559,13.7619 10.7913,13.7619 10.7913,13.8265 10.7268,13.8265 10.7268,13.9556 10.6622,13.9556 10.6622,14.0202 10.5976,14.0202 10.5976,14.1493 10.533,14.1493 10.533,14.2139 10.4684,14.2139 10.4684,14.1493 10.4038,14.1493 10.4038,14.0202 10.3393,14.0202 10.3393,13.891 10.2747,13.891 10.2747,13.8265 10.2101,13.8265 10.2101,13.7619 10.1456,13.7619 10.1456,13.6973 10.081,13.6973 10.081,13.6327 10.0164,13.6327 10.0164,13.5681 9.9518,13.5681 9.9518,13.5035 9.8226,13.5035 9.8226,13.439 9.6935,13.439 9.6935,13.3744 7.2396,13.3744 7.2396,13.439 7.1104,13.439 7.1104,13.5035 6.9813,13.5035 6.9813,13.5681 6.9167,13.5681 6.9167,13.6327 6.8521,13.6327 6.8521,13.6973 6.7875,13.6973 6.7875,13.7619 6.7229,13.7619 6.7229,13.8265 6.6584,13.8265 6.6584,13.891 6.5938,13.891 6.5938,14.0202 6.5292,14.0202 6.5292,14.1493 6.4647,14.1493 6.4647,14.2139 6.4001,14.2139 6.4001,14.1493 6.3356,14.1493 6.3356,14.0202 6.271,14.0202 6.271,13.9556 6.2063,13.9556 6.2063,13.8265 6.1418,13.8265 6.1418,13.7619 6.0772,13.7619 6.0772,13.6973 6.0126,13.6973 6.0126,13.6327 5.9481,13.6327 5.9481,13.5681 5.8835,13.5681 5.8835,13.5035 5.7544,13.5035 5.7544,13.439 5.6252,13.439 5.6252,13.3744 3.1713,13.3744 "/>
   <polygon id="_376086256" class="fil0" points="9.3061,4.6566 9.1769,4.6566 9.1769,4.7211 8.9186,4.7211 8.9186,4.7857 8.854,4.7857 8.854,4.8503 8.6603,4.8503 8.6603,4.9148 8.3374,4.9148 8.3374,4.9794 8.2083,4.9794 8.2083,5.044 7.8208,5.044 7.8208,5.1086 7.5625,5.1086 7.5625,5.1732 7.3687,5.1732 7.3687,5.2378 6.9813,5.2378 6.9813,5.3023 6.3356,5.3023 6.3356,5.3669 5.9481,5.3669 5.9481,5.4315 3.5587,5.4315 3.5587,5.496 3.4296,5.496 3.4296,5.5606 3.3004,5.5606 3.3004,5.6252 3.2359,5.6252 3.2359,5.6898 3.1713,5.6898 3.1713,5.7544 3.1066,5.7544 3.1066,5.8189 3.0421,5.8189 3.0421,5.8835 2.9775,5.8835 2.9775,6.0126 2.9129,6.0126 2.9129,6.0772 2.8484,6.0772 2.8484,6.2064 2.7838,6.2064 2.7838,6.3356 2.7192,6.3356 2.7192,6.5938 2.6547,6.5938 2.6547,6.7875 2.5901,6.7875 2.5901,7.0459 2.5255,7.0459 2.5255,7.2396 2.4609,7.2396 2.4609,7.7562 2.3963,7.7562 2.3963,9.6935 2.4609,9.6935 2.4609,9.8872 2.5255,9.8872 2.5255,9.9518 2.6547,9.9518 2.6547,10.0164 2.9775,10.0164 2.9775,9.9518 3.1066,9.9518 3.1066,9.8227 3.1713,9.8227 3.1713,7.7562 3.2359,7.7562 3.2359,7.4333 3.3004,7.4333 3.3004,7.0459 3.365,7.0459 3.365,6.7875 3.4296,6.7875 3.4296,6.723 3.4941,6.723 3.4941,10.9205 3.6233,10.9205 3.6233,10.8559 3.6878,10.8559 3.6878,10.7913 3.817,10.7913 3.817,10.7268 4.0108,10.7268 4.0108,10.6622 4.7211,10.6622 4.7211,9.4353 4.9148,9.4353 4.9148,10.7268 4.9794,10.7268 4.9794,10.7913 5.1086,10.7913 5.1086,10.8559 5.1732,10.8559 5.1732,10.9205 5.2377,10.9205 5.2377,10.985 5.3023,10.985 5.3023,11.0496 5.3669,11.0496 5.3669,11.1142 5.4314,11.1142 5.4314,11.1788 5.496,11.1788 5.496,11.2434 5.5606,11.2434 5.5606,11.3725 5.6252,11.3725 5.6252,11.5017 5.6898,11.5017 5.6898,11.6308 5.7544,11.6308 5.7544,12.2766 5.6898,12.2766 5.6898,12.4704 5.6252,12.4704 5.6252,12.6641 5.5606,12.6641 5.5606,12.7286 5.496,12.7286 5.496,12.8578 5.4314,12.8578 5.4314,12.9223 5.3669,12.9223 5.3669,12.9869 5.3023,12.9869 5.3023,13.1161 5.6898,13.1161 5.6898,13.1807 5.8835,13.1807 5.8835,13.2453 5.9481,13.2453 5.9481,13.3098 6.0772,13.3098 6.0772,13.3744 6.1418,13.3744 6.1418,6.1418 6.5938,6.1418 6.5938,6.0772 7.0459,6.0772 7.0459,6.0126 7.4333,6.0126 7.4333,5.9481 7.7562,5.9481 7.7562,5.8835 8.0791,5.8835 8.0791,5.8189 8.3374,5.8189 8.3374,5.7544 8.5311,5.7544 8.5311,5.6898 8.7895,5.6898 8.7895,5.6252 8.9832,5.6252 8.9832,5.5606 9.1123,5.5606 9.1123,5.496 9.3061,5.496 9.3061,5.4315 9.4998,5.4315 9.4998,5.3669 9.6289,5.3669 9.6289,5.3023 9.6935,5.3023 9.6935,5.2378 9.7581,5.2378 9.7581,5.1732 9.8226,5.1732 9.8226,4.8503 9.7581,4.8503 9.7581,4.7211 9.6289,4.7211 9.6289,4.6566 9.4998,4.6566 9.4998,4.592 9.3061,4.592 "/>
   <polygon id="_712804112" class="fil0" points="3.6878,2.5901 3.8816,2.5901 3.8816,1.0403 14.0847,1.0403 14.0847,7.6917 6.7875,7.6917 6.7875,7.8854 14.2785,7.8854 14.2785,0.8466 3.6878,0.8466 "/>
   <polygon id="_712804040" class="fil0" points="9.6289,3.3005 9.4998,3.3005 9.4998,3.365 9.4352,3.365 9.4352,3.4296 9.3707,3.4296 9.3707,3.4942 9.3061,3.4942 9.3061,3.5587 9.2414,3.5587 9.2414,3.7524 9.1769,3.7524 9.1769,4.0108 9.1123,4.0108 9.1123,4.5274 9.3707,4.5274 9.3707,4.4628 9.4352,4.4628 9.4352,4.1399 9.4998,4.1399 9.4998,3.8817 9.5644,3.8817 9.5644,4.5274 9.6935,4.5274 9.6935,4.592 9.7581,4.592 9.7581,4.6566 9.8226,4.6566 9.8226,4.7211 9.8872,4.7211 9.8872,4.7857 9.9518,4.7857 9.9518,5.1732 9.8872,5.1732 9.8872,5.3023 9.8226,5.3023 9.8226,5.3669 9.7581,5.3669 9.7581,5.4315 9.6935,5.4315 9.6935,5.496 9.5644,5.496 9.5644,6.8521 9.6289,6.8521 9.6289,6.9168 9.9518,6.9168 9.9518,6.8521 10.0164,6.8521 10.0164,6.7875 10.081,6.7875 10.081,4.9148 10.1456,4.9148 10.1456,6.8521 10.2101,6.8521 10.2101,6.9168 10.533,6.9168 10.533,6.8521 10.5976,6.8521 10.5976,6.7875 10.6622,6.7875 10.6622,3.8817 10.7268,3.8817 10.7268,4.1399 10.7913,4.1399 10.7913,5.1086 11.0496,5.1086 11.0496,5.044 11.1142,5.044 11.1142,4.2045 11.0496,4.2045 11.0496,3.8171 10.985,3.8171 10.985,3.6879 10.9205,3.6879 10.9205,3.5587 10.8559,3.5587 10.8559,3.4296 10.7913,3.4296 10.7913,3.365 10.7268,3.365 10.7268,3.3005 10.5976,3.3005 10.5976,3.2359 9.6289,3.2359 "/>
   <polygon id="_712803896" class="fil0" points="8.1437,10.985 8.0145,10.985 8.0145,11.0496 7.8853,11.0496 7.8853,11.1142 7.8208,11.1142 7.8208,11.1788 7.6916,11.1788 7.6916,11.2434 7.6271,11.2434 7.6271,11.3725 7.5625,11.3725 7.5625,11.4371 7.4979,11.4371 7.4979,11.5662 7.4333,11.5662 7.4333,11.6954 7.3687,11.6954 7.3687,12.212 7.4333,12.212 7.4333,12.4057 7.4979,12.4057 7.4979,12.5349 7.5625,12.5349 7.5625,12.6641 7.6271,12.6641 7.6271,12.7286 7.6916,12.7286 7.6916,12.7932 7.7562,12.7932 7.7562,12.8578 7.8208,12.8578 7.8208,12.9223 7.9499,12.9223 7.9499,12.9869 8.0791,12.9869 8.0791,13.0515 8.854,13.0515 8.854,12.9869 8.9832,12.9869 8.9832,12.9223 9.1123,12.9223 9.1123,12.8578 9.1769,12.8578 9.1769,12.7932 9.2414,12.7932 9.2414,12.7286 9.3061,12.7286 9.3061,12.6641 9.3707,12.6641 9.3707,12.5349 9.4352,12.5349 9.4352,12.4704 9.4998,12.4704 9.4998,12.2766 9.5644,12.2766 9.5644,11.76 9.4998,11.76 9.4998,11.5662 9.4352,11.5662 9.4352,11.4371 9.3707,11.4371 9.3707,11.3725 9.3061,11.3725 9.3061,11.2434 9.2414,11.2434 9.2414,11.1788 9.1769,11.1788 9.1769,11.1142 9.0477,11.1142 9.0477,11.0496 8.9186,11.0496 8.9186,10.985 8.7895,10.985 8.7895,10.9205 8.1437,10.9205 "/>
   <polygon id="_712804256" class="fil0" points="4.0753,10.985 3.9462,10.985 3.9462,11.0496 3.817,11.0496 3.817,11.1142 3.6878,11.1142 3.6878,11.1788 3.6233,11.1788 3.6233,11.2434 3.5587,11.2434 3.5587,11.308 3.4941,11.308 3.4941,11.4371 3.4296,11.4371 3.4296,11.5662 3.365,11.5662 3.365,11.6954 3.3004,11.6954 3.3004,12.2766 3.365,12.2766 3.365,12.4704 3.4296,12.4704 3.4296,12.5995 3.4941,12.5995 3.4941,12.6641 3.5587,12.6641 3.5587,12.7286 3.6233,12.7286 3.6233,12.7932 3.6878,12.7932 3.6878,12.8578 3.7524,12.8578 3.7524,12.9223 3.8816,12.9223 3.8816,12.9869 3.9462,12.9869 3.9462,13.0515 4.7857,13.0515 4.7857,12.9869 4.9148,12.9869 4.9148,12.9223 5.044,12.9223 5.044,12.8578 5.1086,12.8578 5.1086,12.7932 5.1732,12.7932 5.1732,12.7286 5.2377,12.7286 5.2377,12.6641 5.3023,12.6641 5.3023,12.5349 5.3669,12.5349 5.3669,12.4057 5.4314,12.4057 5.4314,11.6308 5.3669,11.6308 5.3669,11.5017 5.3023,11.5017 5.3023,11.3725 5.2377,11.3725 5.2377,11.308 5.1732,11.308 5.1732,11.1788 5.044,11.1788 5.044,11.1142 4.9794,11.1142 4.9794,11.0496 4.8502,11.0496 4.8502,10.985 4.7211,10.985 4.7211,10.9205 4.0753,10.9205 "/>
   <polygon id="_712804400" class="fil0" points="12.2766,10.985 12.0829,10.985 12.0829,11.0496 11.9537,11.0496 11.9537,11.1142 11.8892,11.1142 11.8892,11.1788 11.8246,11.1788 11.8246,11.2434 11.76,11.2434 11.76,11.308 11.6954,11.308 11.6954,11.3725 11.6308,11.3725 11.6308,11.5017 11.5662,11.5017 11.5662,11.5662 11.5017,11.5662 11.5017,12.4057 11.5662,12.4057 11.5662,12.5349 11.6308,12.5349 11.6308,12.6641 11.6954,12.6641 11.6954,12.7286 11.76,12.7286 11.76,12.7932 11.8246,12.7932 11.8246,12.8578 11.8892,12.8578 11.8892,12.9223 12.0183,12.9223 12.0183,12.9869 12.1474,12.9869 12.1474,13.0515 12.9869,13.0515 12.9869,12.9869 13.0516,12.9869 13.0516,12.9223 13.1807,12.9223 13.1807,12.8578 13.2453,12.8578 13.2453,12.7932 13.3098,12.7932 13.3098,12.7286 13.3744,12.7286 13.3744,12.6641 13.439,12.6641 13.439,12.5995 13.5035,12.5995 13.5035,12.4704 13.5681,12.4704 13.5681,12.2766 13.6327,12.2766 13.6327,11.76 13.5681,11.76 13.5681,11.5662 13.5035,11.5662 13.5035,11.4371 13.439,11.4371 13.439,11.308 13.3744,11.308 13.3744,11.2434 13.3098,11.2434 13.3098,11.1788 13.2453,11.1788 13.2453,11.1142 13.1161,11.1142 13.1161,11.0496 13.0516,11.0496 13.0516,10.985 12.7932,10.985 12.7932,10.9205 12.2766,10.9205 "/>
   <polygon id="_712805096" class="fil0" points="4.4628,3.0421 4.3336,3.0421 4.3336,3.1067 4.2045,3.1067 4.2045,3.1713 4.1399,3.1713 4.1399,3.2359 4.0753,3.2359 4.0753,3.3005 4.0108,3.3005 4.0108,3.365 3.9462,3.365 3.9462,3.4296 3.8816,3.4296 3.8816,3.5587 3.817,3.5587 3.817,3.6233 3.7524,3.6233 3.7524,4.3336 3.817,4.3336 3.817,4.5274 3.8816,4.5274 3.8816,4.6566 3.9462,4.6566 3.9462,4.7211 4.0108,4.7211 4.0108,4.7857 4.0753,4.7857 4.0753,4.8503 4.1399,4.8503 4.1399,4.9148 4.2045,4.9148 4.2045,4.9794 4.3336,4.9794 4.3336,5.044 4.5274,5.044 4.5274,5.1086 5.1732,5.1086 5.1732,5.044 5.3023,5.044 5.3023,4.9794 5.4314,4.9794 5.4314,4.9148 5.496,4.9148 5.496,4.8503 5.5606,4.8503 5.5606,4.7857 5.6252,4.7857 5.6252,4.7211 5.6898,4.7211 5.6898,4.6566 5.7544,4.6566 5.7544,4.5274 5.8189,4.5274 5.8189,4.3982 5.8835,4.3982 5.8835,3.7524 5.8189,3.7524 5.8189,3.5587 5.7544,3.5587 5.7544,3.4296 5.6898,3.4296 5.6898,3.365 5.6252,3.365 5.6252,3.3005 5.5606,3.3005 5.5606,3.2359 5.496,3.2359 5.496,3.1713 5.4314,3.1713 5.4314,3.1067 5.3023,3.1067 5.3023,3.0421 5.1086,3.0421 5.1086,2.9775 4.4628,2.9775 "/>
   <polygon id="_712804808" class="fil0" points="9.8872,2.3318 9.8226,2.3318 9.8226,2.3963 9.7581,2.3963 9.7581,2.4609 9.6935,2.4609 9.6935,2.913 9.7581,2.913 9.7581,3.0421 9.8872,3.0421 9.8872,3.1067 10.3393,3.1067 10.3393,3.0421 10.4038,3.0421 10.4038,2.9775 10.4684,2.9775 10.4684,2.913 10.533,2.913 10.533,2.5255 10.4684,2.5255 10.4684,2.3963 10.4038,2.3963 10.4038,2.3318 10.3393,2.3318 10.3393,2.2672 9.8872,2.2672 "/>
   <polygon id="_712804928" class="fil0" points="4.3982,1.6214 6.5292,1.6214 6.5292,1.4277 4.3982,1.4277 "/>
   <polygon id="_712804832" class="fil0" points="4.3982,2.1381 5.7544,2.1381 5.7544,1.9443 4.3982,1.9443 "/>
   <polygon id="_712804664" class="fil0" points="11.2434,2.0735 12.4058,2.0735 12.4058,1.8797 11.2434,1.8797 "/>
   <polygon id="_712804976" class="fil0" points="11.8246,6.2064 12.9869,6.2064 12.9869,6.0126 11.8246,6.0126 "/>
   <polygon id="_712805864" class="fil0" points="12.1474,3.4942 13.2453,3.4942 13.2453,3.3005 12.1474,3.3005 "/>
   <polygon id="_712806008" class="fil0" points="7.4333,7.175 8.5311,7.175 8.5311,6.9813 7.4333,6.9813 "/>
   <polygon id="_712805360" class="fil1" points="7.6271,2.913 7.6916,2.913 7.6916,3.0421 7.7562,3.0421 7.7562,3.2359 7.8208,3.2359 7.8208,3.365 7.8853,3.365 7.8853,3.4942 7.9499,3.4942 7.9499,3.6233 8.9832,3.6233 8.9832,3.4942 8.0145,3.4942 8.0145,3.4296 7.9499,3.4296 7.9499,3.2359 7.8853,3.2359 7.8853,3.1067 7.8208,3.1067 7.8208,2.9775 7.7562,2.9775 7.7562,2.8484 7.6271,2.8484 "/>
   <polygon id="_712805576" class="fil1" points="8.2083,6.4001 8.1437,6.4001 8.1437,6.4647 8.0791,6.4647 8.0791,6.5938 8.0145,6.5938 8.0145,6.723 7.9499,6.723 7.9499,6.8521 8.0145,6.8521 8.0145,6.7875 8.0791,6.7875 8.0791,6.6584 8.1437,6.6584 8.1437,6.5938 8.2083,6.5938 8.2083,6.4647 8.2728,6.4647 8.2728,6.4001 9.3061,6.4001 9.3061,6.271 8.2083,6.271 "/>
   <path id="_712805456" class="fil2" d="M7.175 2.5255l1.0333 0 0 0.1292 -1.0333 0 0 -0.1292zm0 0l-0.0646 0 0 0.1938 1.1624 0 0 -0.2584 -1.0978 0 0 0.0646z"/>
   <polygon id="_712805936" class="fil1" points="11.76,2.2672 11.6954,2.2672 11.6954,2.3963 11.6308,2.3963 11.6308,2.5255 11.5662,2.5255 11.5662,2.5901 11.5017,2.5901 11.5017,2.6547 10.8559,2.6547 10.8559,2.7838 11.5662,2.7838 11.5662,2.7193 11.6308,2.7193 11.6308,2.5901 11.6954,2.5901 11.6954,2.5255 11.76,2.5255 11.76,2.3963 11.8246,2.3963 11.8246,2.2026 11.76,2.2026 "/>
   <polygon id="_712806392" class="fil0" points="11.0496,5.4315 12.0829,5.4315 12.0829,5.496 12.1474,5.496 12.1474,5.6252 12.212,5.6252 12.212,5.7544 12.2766,5.7544 12.2766,5.8189 12.3412,5.8189 12.3412,5.9481 12.4058,5.9481 12.4058,5.8835 12.4704,5.8835 12.4704,5.8189 12.4058,5.8189 12.4058,5.7544 12.3412,5.7544 12.3412,5.6252 12.2766,5.6252 12.2766,5.496 12.212,5.496 12.212,5.4315 12.1474,5.4315 12.1474,5.3669 11.0496,5.3669 "/>
   <polygon id="_712806680" class="fil0" points="7.175,2.5255 7.175,2.6547 8.2083,2.6547 8.2083,2.5255 "/>
   <polygon id="_712806200" class="fil0" points="12.6641,3.6879 12.5995,3.6879 12.5995,3.7524 12.5349,3.7524 12.5349,3.8817 12.4704,3.8817 12.4704,4.0108 12.4058,4.0108 12.4058,4.0754 11.3725,4.0754 11.3725,4.1399 12.4704,4.1399 12.4704,4.0754 12.5349,4.0754 12.5349,3.9462 12.5995,3.9462 12.5995,3.8817 12.6641,3.8817 12.6641,3.7524 12.7286,3.7524 12.7286,3.6233 12.6641,3.6233 "/>
  </g>
 </g>
</svg>
