<?xml version="1.0" encoding="UTF-8"?>
<!DOCTYPE svg PUBLIC "-//W3C//DTD SVG 1.1//EN" "http://www.w3.org/Graphics/SVG/1.1/DTD/svg11.dtd">
<!-- Creator: CorelDRAW -->
<svg xmlns="http://www.w3.org/2000/svg" xml:space="preserve" width="16.9332mm" height="16.9332mm" style="shape-rendering:geometricPrecision; text-rendering:geometricPrecision; image-rendering:optimizeQuality; fill-rule:evenodd; clip-rule:evenodd"
viewBox="0 0 16.9332 16.9332"
 xmlns:xlink="http://www.w3.org/1999/xlink">
 <defs>
  <style type="text/css">
   <![CDATA[
    .fil0 {fill:black}
    .fil1 {fill:#F3F3F5}
   ]]>
  </style>
 </defs>
 <g id="Capa_x0020_1">
  <metadata id="CorelCorpID_0Corel-Layer"/>
  <g id="_374304080">
   <path id="_374305712" class="fil0" d="M12.7521 12.3122c0.5667,0.1292 0.3899,-0.4148 0.3579,-0.8179 -0.0279,-0.3511 -0.0581,-0.8197 -0.2445,-1.0124l-0.1683 0.3853c-0.044,0.1555 -0.0817,1.215 0.0549,1.445zm-8.0796 -0.7125c-0.1664,-0.1254 -0.9053,-0.4056 -1.1048,-0.4873 -0.0204,0.3891 -0.2263,2.1579 -0.1389,2.3899l1.0993 1.4452c0.0566,-0.4486 -0.0061,-1.2166 0.011,-1.7224 0.0184,-0.5433 0.1079,-1.0774 0.1334,-1.6254zm6.8877 -0.9052c-0.944,-0.011 -2.3992,-0.1047 -3.2383,0.1616 -2.2404,0.7111 -2.6079,3.3796 -1.897,4.3368 0.5592,0.7528 1.7686,0.5473 2.9246,0.5473 1.1547,0 2.3125,-0.0095 3.4668,-0.0006 1.1194,0.0087 2.3405,0.173 2.7535,-0.7107 0.1952,-0.4175 0.2422,-2.7123 -0.0229,-3.0766l-2.1921 -1.2397c-0.0623,0.3868 0.2759,1.2787 0.0794,1.6657 -0.0281,0.0552 -0.4178,0.4573 -0.4643,0.4909l-0.7873 -0.0757c-0.2035,0.1452 -0.4339,0.2167 -0.7612,0.0876 -0.7831,-0.3086 0.006,-1.5805 0.1388,-2.1866zm0.7659 0.9784c0.0186,-0.365 0.0705,-0.7632 0.0688,-1.1198 -0.093,0.1487 -0.5699,1.505 -0.587,1.6969 0.4478,0.2337 0.4998,-0.2145 0.5182,-0.5771zm-3.9836 -5.3841c-0.2403,-0.5898 -0.6477,-1.198 -0.9487,-1.7521 -0.5395,-0.9929 -0.5098,-1.0765 -1.4549,-0.4703 -0.5658,0.3629 -1.0886,0.7112 -1.6312,1.0931 -0.2767,0.1947 -0.5275,0.3807 -0.7873,0.5736 -0.2059,0.1529 -0.6508,0.3845 -0.5911,0.7327 0.0518,0.3013 0.8099,1.3759 1.0115,1.7043 0.1737,0.283 0.3346,0.5384 0.52,0.8333 0.0835,0.1328 0.5745,0.7374 0.2535,0.8082 -0.344,0.0759 -0.5288,-1.0149 -1.1988,-1.4448 -0.2761,-0.1771 -1.4617,-0.9763 -1.6959,-1.0034 -0.1436,0.2408 -0.5218,0.8401 -0.5974,1.0678l0.411 0.2436 0.2982 -0.2276 0.019 0.0572c0.0252,0.1249 -0.0104,0.2605 -0.017,0.3906l0.3603 0.2391 0.4073 -0.1912 -0.0719 0.4155 0.4498 0.2972 0.4918 -0.4073 -0.2037 0.5767c0.5977,0.4074 0.3594,0.2912 0.8407,0.1638l-0.0926 0.3449 0.6854 0.4364 0.5319 -1.4746c0.1329,-0.2683 1.1302,-1.3401 1.433,-1.6091 0.2077,-0.1845 1.5265,-1.2834 1.5771,-1.3976zm4.6573 -1.8746c-0.7424,0.1384 -1.0456,2.2607 -1.5638,3.0659 -0.5943,0.9233 -1.6657,1.3944 -3.2046,1.516 -1.3324,0.1052 -2.81,0.0623 -3.0405,1.6446l-0.2795 4.297c0.3137,-0.0129 0.551,-0.0979 0.7174,-0.2602 0.4116,-0.4015 -0.1247,-1.0686 0.5143,-2.3919 0.3721,-0.7705 1.1719,-1.4914 2.1253,-1.77 1.122,-0.3279 3.3354,-0.0449 3.7039,-0.1684 0.2085,-0.0697 0.0563,-0.1314 0.3205,-0.1613 1.0722,-0.1211 0.549,0.0917 1.2297,0.1863l1.5654 0.4252c0.1266,-0.8784 0.1245,-2.3721 0.0159,-3.2582 -0.0811,-0.6611 -0.3735,-1.2984 -0.6782,-1.8694 -0.1906,-0.3571 -0.0655,-0.2361 -0.3822,-0.4423 -0.0926,0.1829 0.017,0.5965 -0.1556,0.8717 -0.1332,0.2124 -0.5386,0.2711 -0.7903,0.0976 -0.4652,-0.3205 0.0712,-1.3232 -0.0977,-1.7826zm-2.6787 0.5903c-0.0354,-0.1982 -0.1979,-0.4287 -0.2904,-0.6035 -0.1047,-0.1979 -0.1729,-0.44 -0.4792,-0.3755 -0.15,0.0315 -1.0671,0.5172 -1.1641,0.6014l0.6354 1.1509 1.2983 -0.7733zm2.5236 -1.0288c-0.2866,-0.4968 -1.7367,-0.9175 -2.603,-0.9643 -0.4885,-0.0265 -1.1645,0.0983 -1.5987,0.2082 -0.6712,0.1699 -0.7389,0.2346 -1.2413,0.5291l0.3683 0.771 0.83 -0.4016c0.6488,-0.3263 1.1579,-0.7689 1.6162,-0.0776 0.1103,0.1663 0.3444,0.5848 0.3986,0.7741l1.1154 -0.4456c0.2198,-0.0837 1.0004,-0.311 1.1145,-0.3933zm-1.4077 -1.1023c0.0002,-0.8572 -0.3172,-0.9161 -1.1555,-0.9327 -0.2778,-0.0055 -0.74,-0.0081 -0.9459,0.1079 -0.1947,0.1095 -0.3341,0.4302 -0.2916,0.7315l2.393 0.0933zm2.5276 1.7174c0.3021,0.1582 0.559,0.0506 1.0211,1.0402 0.903,1.9343 0.4053,5.1386 0.4491,5.4194 0.0215,0.1381 0.292,0.436 0.3831,0.6367 0.3198,0.705 0.2879,2.0289 0.2351,2.798 -0.0438,0.6371 -0.3417,1.0632 -0.7336,1.3109 -0.5331,0.3369 -1.1121,0.2886 -1.8321,0.2822 -1.3906,-0.0124 -2.7841,-0.007 -4.1751,-0.0092 -0.6958,-0.0011 -1.3916,-0.0021 -2.0875,-0.004 -0.682,-0.002 -1.4083,0.0449 -2.0838,0.0062 -1.1656,-0.0669 -2.0431,-0.8748 -2.09,-2.0133 -0.0449,-1.0868 0.1505,-2.7226 0.2624,-3.8407 -0.2401,-0.1038 -1.62,-1.0617 -2.0017,-1.3047 -0.7266,-0.4627 -0.4878,-0.6231 -0.0555,-1.3626 0.4713,-0.8064 0.3462,-0.6435 2.0047,0.2421 -0.0855,-0.4616 -1.1423,-1.2595 -0.483,-1.9108 0.4446,-0.4393 2.8644,-2.0561 3.3801,-2.3601 0.6772,-0.3991 0.8523,0.0557 1.1356,-0.0896 0.0718,-0.0368 0.1742,-0.0976 0.2383,-0.1339 0.5266,-0.2982 -0.1144,-2.0727 1.5564,-2.3926 0.5208,-0.0997 2.3192,-0.0802 2.7065,0.1254 0.6935,0.3682 0.7822,0.9881 0.9438,1.9006 0.1264,0.7139 0.0824,0.5189 0.5101,0.9156 0.4313,0.3998 0.5558,-0.1035 0.716,0.7442z"/>
   <path id="_374305592" class="fil1" d="M15.5469 11.9523c0.2651,0.3643 0.2181,2.6591 0.0229,3.0766 -0.413,0.8837 -1.6341,0.7194 -2.7535,0.7107 -1.1543,-0.0089 -2.3121,0.0006 -3.4668,0.0006 -1.156,0 -2.3654,0.2055 -2.9246,-0.5473 -0.7109,-0.9572 -0.3434,-3.6257 1.897,-4.3368 0.8391,-0.2663 2.2943,-0.1726 3.2383,-0.1616 -0.1328,0.6061 -0.9219,1.878 -0.1388,2.1866 0.3273,0.1291 0.5577,0.0576 0.7612,-0.0876l0.7873 0.0757c0.0465,-0.0336 0.4362,-0.4357 0.4643,-0.4909 0.1965,-0.387 -0.1417,-1.2789 -0.0794,-1.6657l2.1921 1.2397z"/>
   <path id="_374306096" class="fil1" d="M5.1909 10.6407c0.2305,-1.5823 1.7081,-1.5394 3.0405,-1.6446 1.5389,-0.1216 2.6103,-0.5927 3.2046,-1.516 0.5182,-0.8052 0.8214,-2.9275 1.5638,-3.0659 0.1689,0.4594 -0.3675,1.4621 0.0977,1.7826 0.2517,0.1735 0.6571,0.1148 0.7903,-0.0976 0.1726,-0.2752 0.063,-0.6888 0.1556,-0.8717 0.3167,0.2062 0.1916,0.0852 0.3822,0.4423 0.3047,0.571 0.5971,1.2083 0.6782,1.8694 0.1086,0.8861 0.1107,2.3798 -0.0159,3.2582l-1.5654 -0.4252c-0.6807,-0.0946 -0.1575,-0.3074 -1.2297,-0.1863 -0.2642,0.0299 -0.112,0.0916 -0.3205,0.1613 -0.3685,0.1235 -2.5819,-0.1595 -3.7039,0.1684 -0.9534,0.2786 -1.7532,0.9995 -2.1253,1.77 -0.639,1.3233 -0.1027,1.9904 -0.5143,2.3919 -0.1664,0.1623 -0.4037,0.2473 -0.7174,0.2602l0.2795 -4.297z"/>
   <path id="_374305640" class="fil1" d="M5.6987 7.4124c0.3271,-0.2663 0.7626,-0.6092 1.1099,-0.8406 0.1044,-0.0696 0.5684,-0.3353 0.2764,-0.477 -0.2643,-0.1283 -1.4572,0.9476 -1.7375,1.1572 -0.0607,0.0454 -0.5529,0.4564 -0.2412,0.5463 0.1837,0.053 0.4818,-0.2959 0.5924,-0.3859zm-0.9028 -1.0447c0.146,0.0921 0.3029,-0.0926 0.3734,-0.157 0.3801,-0.3467 0.9786,-0.5982 0.707,-0.7895 -0.1981,-0.1396 -0.6262,0.2636 -0.7241,0.3408 -0.0962,0.0758 -0.6148,0.4427 -0.3563,0.6057zm3.5466 -0.0789c-0.0506,0.1142 -1.3694,1.2131 -1.5771,1.3976 -0.3028,0.269 -1.3001,1.3408 -1.433,1.6091l-0.5319 1.4746 -0.6854 -0.4364 0.0926 -0.3449c-0.4813,0.1274 -0.243,0.2436 -0.8407,-0.1638l0.2037 -0.5767 -0.4918 0.4073 -0.4498 -0.2972 0.0719 -0.4155 -0.4073 0.1912 -0.3603 -0.2391c0.0066,-0.1301 0.0422,-0.2657 0.017,-0.3906l-0.019 -0.0572 -0.2982 0.2276 -0.411 -0.2436c0.0756,-0.2277 0.4538,-0.827 0.5974,-1.0678 0.2342,0.0271 1.4198,0.8263 1.6959,1.0034 0.67,0.4299 0.8548,1.5207 1.1988,1.4448 0.321,-0.0708 -0.17,-0.6754 -0.2535,-0.8082 -0.1854,-0.2949 -0.3463,-0.5503 -0.52,-0.8333 -0.2016,-0.3284 -0.9597,-1.403 -1.0115,-1.7043 -0.0597,-0.3482 0.3852,-0.5798 0.5911,-0.7327 0.2598,-0.1929 0.5106,-0.3789 0.7873,-0.5736 0.5426,-0.3819 1.0654,-0.7302 1.6312,-1.0931 0.9451,-0.6062 0.9154,-0.5226 1.4549,0.4703 0.301,0.5541 0.7084,1.1623 0.9487,1.7521z"/>
   <path id="_374305448" class="fil1" d="M12.8447 3.9757c-0.1141,0.0823 -0.8947,0.3096 -1.1145,0.3933l-1.1154 0.4456c-0.0542,-0.1893 -0.2883,-0.6078 -0.3986,-0.7741 -0.4583,-0.6913 -0.9674,-0.2487 -1.6162,0.0776l-0.83 0.4016 -0.3683 -0.771c0.5024,-0.2945 0.5701,-0.3592 1.2413,-0.5291 0.4342,-0.1099 1.1102,-0.2347 1.5987,-0.2082 0.8663,0.0468 2.3164,0.4675 2.603,0.9643z"/>
   <path id="_374304704" class="fil1" d="M4.6725 11.5997c-0.0255,0.548 -0.115,1.0821 -0.1334,1.6254 -0.0171,0.5058 0.0456,1.2738 -0.011,1.7224l-1.0993 -1.4452c-0.0874,-0.232 0.1185,-2.0008 0.1389,-2.3899 0.1995,0.0817 0.9384,0.3619 1.1048,0.4873z"/>
   <path id="_374305280" class="fil1" d="M10.3211 5.0045l-1.2983 0.7733 -0.6354 -1.1509c0.097,-0.0842 1.0141,-0.5699 1.1641,-0.6014 0.3063,-0.0645 0.3745,0.1776 0.4792,0.3755 0.0925,0.1748 0.255,0.4053 0.2904,0.6035z"/>
   <path id="_374304752" class="fil1" d="M11.437 2.8734l-2.393 -0.0933c-0.0425,-0.3013 0.0969,-0.622 0.2916,-0.7315 0.2059,-0.116 0.6681,-0.1134 0.9459,-0.1079 0.8383,0.0166 1.1557,0.0755 1.1555,0.9327z"/>
   <path id="_374305088" class="fil0" d="M7.085 6.0948c0.292,0.1417 -0.172,0.4074 -0.2764,0.477 -0.3473,0.2314 -0.7828,0.5743 -1.1099,0.8406 -0.1106,0.09 -0.4087,0.4389 -0.5924,0.3859 -0.3117,-0.0899 0.1805,-0.5009 0.2412,-0.5463 0.2803,-0.2096 1.4732,-1.2855 1.7375,-1.1572z"/>
   <path id="_374304680" class="fil1" d="M12.7521 12.3122c-0.1366,-0.23 -0.0989,-1.2895 -0.0549,-1.445l0.1683 -0.3853c0.1864,0.1927 0.2166,0.6613 0.2445,1.0124 0.032,0.4031 0.2088,0.9471 -0.3579,0.8179z"/>
   <path id="_374305136" class="fil0" d="M5.8763 5.4212c0.2716,0.1913 -0.3269,0.4428 -0.707,0.7895 -0.0705,0.0644 -0.2274,0.2491 -0.3734,0.157 -0.2585,-0.163 0.2601,-0.5299 0.3563,-0.6057 0.0979,-0.0772 0.526,-0.4804 0.7241,-0.3408z"/>
   <path id="_374305208" class="fil1" d="M11.8079 12.25c0.0171,-0.1919 0.494,-1.5482 0.587,-1.6969 0.0017,0.3566 -0.0502,0.7548 -0.0688,1.1198 -0.0184,0.3626 -0.0704,0.8108 -0.5182,0.5771z"/>
  </g>
 </g>
</svg>
