<!DOCTYPE svg PUBLIC "-//W3C//DTD SVG 1.1//EN" "http://www.w3.org/Graphics/SVG/1.1/DTD/svg11.dtd">
<svg xmlns="http://www.w3.org/2000/svg" viewBox="0 0 410 458">
<path fill="#070707" d="M251.5 14.734c-19.06 6.825-61.282 37.938-85.934 63.325-14.804 15.245-17.018 19.651-14.586 29.032 1.474 5.685 14.877 18.923 30.79 30.409 11.822 8.534 12.781 9.602 11.226 12.507-2.93 5.476.581 17.959 7.152 25.424 5.218 5.928 9.023 7.855 15.512 7.855 4.97 0 5.343.19 8.223 4.201 1.659 2.31 5.514 5.921 8.567 8.023l5.55 3.822v15.648l-8.98 4.51c-9.88 4.962-11.161 5.25-13.081 2.937-3.435-4.14-9.002-5.719-18.085-5.13-7.682.497-8.858.348-10.028-1.272-.729-1.009-14.601-16.796-30.826-35.082-52.183-58.812-61-69.067-61-70.952 0-1.017 3.323-8.519 7.385-16.67 9.191-18.447 15.775-35.049 20.449-51.571 4.21-14.882 3.954-14.722 14.854-9.269 11.527 5.766 24.5 21.072 22.739 26.826-.369 1.206-7.529 8.943-15.912 17.193C129.735 92.031 114 110.265 114 113.02c0 2.208 2.012 3.98 4.518 3.98 1.468 0 4.096-2.536 8.549-8.25 3.536-4.538 14.381-16.148 24.099-25.802 18.861-18.736 19.856-20.263 18.53-28.437-2.059-12.686-23.829-31.179-40.865-34.714-6.868-1.425-8.367-.556-9.567 5.541l-.819 4.162-6.972.503c-11.61.837-14.486 4.003-17.025 18.739C91.434 66.235 79.988 98.085 76 100.076c-.825.411-3.75 1.53-6.5 2.485-5.787 2.009-16.801 12.659-23.623 22.841l-4.086 6.098.469 8 .469 8-7.615 7.356c-4.188 4.046-12.239 11.179-17.891 15.852C2.691 182.722.51 188.886 7.137 199.214l3.138 4.89-2.638 2.753c-3.627 3.786-3.337 5.75 1.823 12.323 14.956 19.051 42.067 30.257 54.11 22.366 4-2.621 6.085-7.039 7.969-16.885 2.21-11.553 8.59-33.634 11.844-40.993 3.41-7.711 5.32-6.9 20.107 8.535L115 204.216l-.002 9.642c-.008 30.88-5.124 63.689-12.439 79.762-8.11 17.824-28.829 24.612-35.434 11.609-3.106-6.115-6.876-19.224-8.128-28.262-2.228-16.091-3.598-18.981-7.747-16.345-1.554.988-1.744 2.945-1.693 17.495.085 24.354 4.134 36.896 15.503 48.021 9.122 8.926 13.602 10.286 34.453 10.463 16.65.141 17.173.211 24.5 3.276 30.422 12.726 47.575 46.112 49.644 96.623.338 8.25 1.058 15.563 1.601 16.25 1.669 2.114 224.051 1.798 226.171-.321 3.77-3.771.115-60.982-5.94-92.972-13.279-70.152-48.311-124.023-82.795-127.317-7.155-.683-7.415-.81-17.478-8.524L285 215.786v-15.609l5.75-3.919c3.163-2.156 7.271-5.908 9.129-8.339 3.192-4.174 3.671-4.428 8.63-4.581 15.2-.469 27.976-20.667 22.048-34.855l-1.442-3.453 13.192-9.156c7.256-5.036 15.138-10.725 17.516-12.642 2.729-2.201 4.673-3.136 5.273-2.536.552.552.835 8.841.677 19.811l-.273 18.862-4.976 2.566c-8.811 4.541-10.984 8.972-11.233 22.899-.115 6.416-.227 12.461-.25 13.433-.022.972-2.141 3.779-4.707 6.238-6.22 5.959-5.397 8.337 3.823 11.037 17.909 5.246 34.508.512 39.483-11.26 1.863-4.408 1.87-28.127.009-32.58-1.489-3.563-7.528-9.325-11.26-10.744L374 160.05v-31.21c0-36.657.482-34.719-11.779-47.34-19.656-20.234-36.159-34.004-58.754-49.026-28.054-18.651-38.993-22.385-51.967-17.74m-4 59.923c-14.069 3.003-34.137 14.837-37.072 21.862-1.586 3.795-1.963 16.481-.49 16.481.516 0 4.003-.712 7.75-1.581 25.483-5.915 62.976-5.872 89.132.101 8.781 2.006 8.574 2.161 8.271-6.217-.303-8.34-1.653-10.987-8.31-16.291-16.308-12.992-39.432-18.591-59.281-14.355M69.486 111.846c-1.658 1.01-5.288 4.496-8.067 7.746-15.071 17.62-15.082 19.19-.258 34.833 11.038 11.649 14.527 13.94 22.839 15.003 8.611 1.102 13.23 3.724 21.117 11.99 3.979 4.17 7.673 7.582 8.208 7.582 1.987 0-2.045-37.161-4.965-45.761-2.232-6.576-5.6-11.132-17.002-23.004-10.945-11.397-14.626-12.808-21.872-8.389m180.599 3.309c-12.075.966-12.472 1.21-17.38 10.677-8.786 16.947-11.288 38.404-5.782 49.591 6.323 12.848 16.208 18.086 34.077 18.057 30.712-.049 44.883-18.774 37.396-49.416-1.766-7.228-9.073-23.603-11.706-26.233-2.584-2.581-20.985-3.926-36.605-2.676m-6.679 27.231c-1.415 3.685.062 10.109 2.399 10.441 4.517.64 7.452-7.17 3.995-10.627-1.636-1.636-5.741-1.517-6.394.186m30.794-.186c-1.67 1.67-1.504 8.303.245 9.754 4.233 3.513 8.914-2.261 6.651-8.204-1.129-2.967-4.681-3.765-6.896-1.55m-71.755 8.861c-5.358 5.921 3.857 23.939 12.243 23.939 2.313 0 2.483-.285 1.951-3.25-.321-1.787-.877-6.4-1.236-10.25-1.003-10.74-7.759-16.184-12.958-10.439m109.301.83c-1.937 2.301-2.568 4.491-3.098 10.75-.366 4.322-.774 8.759-.907 9.859-.402 3.337 3.588 3.028 7.719-.599 7.149-6.277 10.543-18.231 6.099-21.481-3.19-2.333-7.107-1.746-9.813 1.471m-67.175 18.68c-2.972 2.973-1.252 6.497 4.712 9.654 11.551 6.112 33.931.325 31.262-8.084-1.022-3.22-3.19-3.222-9.271-.005-6.923 3.663-12.834 3.484-19.805-.601-5.105-2.992-4.898-2.963-6.898-.964M44.5 180.237c-3.3 3.913-11.317 12.635-17.815 19.382-13.507 14.024-13.29 12.886-4.065 21.316 7.013 6.41 13.922 10.473 22.235 13.075 13.075 4.094 15.833 2.309 18.575-12.022.999-5.218 2.886-13.207 4.193-17.753 1.307-4.546 2.377-8.921 2.377-9.723 0-1.695-17.013-21.35-18.5-21.373-.55-.009-3.7 3.186-7 7.098m218.228 32.204c-6.475 2.899-12.073 5.571-12.442 5.939-.789.79 9.656 11.62 11.207 11.62.583 0 4.086-3.049 7.784-6.775 6.393-6.442 6.723-7.007 6.723-11.5 0-5.669 1.13-5.73-13.272.716m-30.978 15.12c-4.812 2.453-8.75 4.89-8.75 5.414 0 1.116 8.711 15.885 10.555 17.895 1.334 1.455 20.439-12.059 20.443-14.461.002-.972-12.326-13.484-13.161-13.358-.186.027-4.274 2.057-9.087 4.51m42.969 2.218c-3.146 3.178-5.719 6.28-5.719 6.893 0 1.515 19.778 16.583 20.876 15.905 1.858-1.149 9.284-14.816 8.477-15.602-2.006-1.951-16.675-12.975-17.266-12.975-.357 0-3.223 2.601-6.368 5.779m-77.42-3.766c-2.087.84-.558 3.567 29.248 52.187 32.882 53.635 34.378 55.758 37.739 53.526 2.673-1.774 55.978-88.865 54.988-89.84-.426-.419-3.092-1.067-5.925-1.44-4.693-.617-5.288-.467-6.693 1.688-.848 1.301-10.352 17.216-21.12 35.366-19.491 32.852-21.802 36.103-24.839 34.937-.878-.337-11.57-17.56-23.761-38.275-12.191-20.714-23.464-39.728-25.052-42.252-3.967-6.307-8.757-8.244-14.585-5.897m47.951 29.046c-3.437 2.745-6.25 5.162-6.25 5.372 0 1.074 10.229 17.569 10.895 17.569.777 0 3.109-18.583 3.106-24.75-.001-4.196-.326-4.121-7.751 1.809m25.11-2.309c.272.963 1.037 6.7 1.7 12.75 1.665 15.185 1.972 15.227 9.79 1.349l3.183-5.65-6.408-5.1c-6.694-5.326-9.1-6.301-8.265-3.349" fill-rule="evenodd"/>
</svg>