<!DOCTYPE svg PUBLIC "-//W3C//DTD SVG 1.1//EN" "http://www.w3.org/Graphics/SVG/1.1/DTD/svg11.dtd">
<svg xmlns="http://www.w3.org/2000/svg" viewBox="0 0 476 550">
<path d="M205 55.524C92.214 74.773 26.293 187.648 65.726 294c23.765 64.094 84.606 109.937 152.072 114.583l10.165.7.64 3.412c2.579 13.751-1.133 32.764-9.141 46.817-2.454 4.306-4.462 8.036-4.462 8.288 0 .838 12.374-.879 21.5-2.983 33.383-7.697 57.765-30.603 68.521-64.374l2.248-7.056 10.936-5.944c35.313-19.192 66.037-54.191 79.926-91.047C438.566 189.093 373.502 75.014 261 55.959c-13.557-2.297-43.72-2.531-56-.435m19.5 7.135c-20.899 1.253-46.814 7.432-60.75 14.484L160 79.041v304.908l2.996 1.549c14.476 7.486 38.609 13.225 60.435 14.374l11.931.628.827 3c3.41 12.373 2.684 31.642-1.675 44.46-1.383 4.065-2.514 7.719-2.514 8.12 0 1.038 10.411-1.811 17.5-4.79 22.851-9.602 38.47-28.152 47.907-56.895 2.049-6.243 3.227-8.363 5.127-9.228l2.466-1.124V79.051l-2.996-1.549c-18.14-9.38-54.02-16.252-77.504-14.843M141.697 89C50.163 147.648 36.36 274.124 113.118 350.882 124.773 362.537 146.59 379 150.381 379c.34 0 .619-66.375.619-147.5S150.662 84 150.25 84s-4.261 2.25-8.553 5M314 231.5c0 81.125.3 147.5.667 147.5.367 0 5.879-3.441 12.25-7.647 22.154-14.625 45.002-40.467 56.494-63.896 35.928-73.251 16.6-159.334-46.911-208.927C329.409 92.993 315.782 84 314.482 84c-.265 0-.482 66.375-.482 147.5m-87.736-57.973c-2.841 1.991-1.978 4.068 2.676 6.443 4.632 2.362 6.466 4.529 5.646 6.667-.575 1.498-.858 1.46-2.862-.382-9.299-8.55-20.689-8.15-24.988.877-2.558 5.37-5.214 7.691-8.159 7.127-3.161-.604-3.347-3.01-.512-6.614 1.136-1.444 1.784-3.08 1.441-3.635-2.094-3.389-7.514 2.309-7.491 7.875.024 5.529 1.082 6.426 8.156 6.904 8.555.579 9.054 1.387 4.02 6.516-7.082 7.216-7.216 14.785-.311 17.645 4.229 1.752 4.533 7.085.508 8.919-3.227 1.471-4.826.365-6.409-4.433-.618-1.872-2.538-4.511-4.268-5.865-2.686-2.102-3.103-3.02-2.866-6.303.311-4.307-2.357-8.646-5.882-9.567-3.276-.857-3.776 2.231-.722 4.456 2.22 1.617 2.493 2.406 2.03 5.863-.485 3.613-.189 4.321 3.108 7.43 2.004 1.891 4.517 5.473 5.583 7.962 2.269 5.294 4.985 6.432 10.735 4.5 4.563-1.533 9.994-1.242 12.743.683 2.649 1.856 8.988 1.799 10.56-.095 1.959-2.36 3.597-1.796 6.902 2.376l3.07 3.877-3.964 2.623c-4.711 3.118-4.94 3.128-16.668.707-9.298-1.918-18.647-5.514-25.774-9.913-2.735-1.687-4.382-2.145-5.403-1.501-10.698 6.748 15.947 23.535 37.585 23.679 9.056.061 9.722 1.363 1.175 2.299-7.838.857-10.943 7.333-5.923 12.353 2.251 2.251 20.277 2.992 24.023.988 3.87-2.072 3.719-11.3-.206-12.546-4.483-1.423.845-2.389 10.183-1.847 10.955.637 16-1.258 16-6.009 0-3.291-2.741-5.901-5.399-5.14-6.484 1.857-7.539 1.784-10.529-.732-1.649-1.388-3.577-2.729-4.285-2.981-3.286-1.172.459-1.641 4.904-.615 5.071 1.171 14.572.574 17.253-1.084 2.187-1.351.077-3.298-9.818-9.062-11.762-6.853-11.996-7.07-13.51-12.601-.734-2.679-1.671-5.658-2.082-6.621-1.119-2.62.854-2.19 7.804 1.697 10.031 5.612 22.796 17.787 24.935 23.784.846 2.37 1.678.167 2.726-7.222 2.543-17.932-6.435-42.458-18.467-50.444-13.034-8.652-31.445-13.116-37.268-9.038m-13.166 21.428c-2.127 1.087-2.97 2.006-2.25 2.451 2.406 1.487 1.094 5.593-3.405 10.658-6.43 7.24-6.016 9.715 2.024 12.094 3.511 1.039 6.691 2.707 7.728 4.054 2.557 3.322 2.256.253-.396-4.037-2.774-4.489-2.724-11.358.142-19.582 2.987-8.568 2.704-8.984-3.843-5.638m-46.656 23.746c-5.152 5.152 2.716 31.659 13.289 44.775 34.32 42.571 101.908 29.303 117.097-22.988 4.596-15.825 3.246-25.665-3.124-22.763-2.223 1.013-2.619 1.983-3.245 7.964-4.449 42.481-46.513 66.224-84.459 47.672-17.744-8.675-32-30.944-32-49.986 0-5.853-3.942-8.29-7.558-4.674" fill-rule="evenodd"/>
</svg>