<!DOCTYPE svg PUBLIC "-//W3C//DTD SVG 1.1//EN" "http://www.w3.org/Graphics/SVG/1.1/DTD/svg11.dtd">
<svg xmlns="http://www.w3.org/2000/svg" viewBox="0 0 344 458">
<path fill="#090909" d="M207.23 14.55c-5.727 1.542-10.78 3.86-13.385 6.139-1.399 1.225-2.906 1.265-9.772.261-29.235-4.274-56.965 13.808-66.785 43.55-4.928 14.924-3.775 34.514 2.803 47.619 1.81 3.607 1.808 3.628-.581 5.872-4.287 4.027-5.51 8.079-5.51 18.253 0 14.945 5.98 22.756 17.423 22.756 4.052 0 4.133.071 5.97 5.25 2.378 6.707 6.363 12.485 12.081 17.518l4.526 3.984-.034 9.374-.034 9.374-14.106 8.5c-17.044 10.27-15.305 9.595-19.251 7.47-5.54-2.983-9.219-1.519-17.404 6.921C96.391 234.384 92 241.716 92 246.045c0 1.034-2.532 4.709-5.627 8.167C64.344 278.831 34.489 326.648 15.956 367c-8.638 18.805-2.206 40.281 14.66 48.947 3.892 2 4.151 2.414 4.763 7.623 1.237 10.524 6.803 18.337 16.056 22.54 3.877 1.761 9.474 1.847 121.28 1.868L289.93 448l3.511-3.082c9.037-7.935 5.035-20.925-7.364-23.9-9.051-2.171-10.142-.054 18.304-35.518 24.122-30.074 25.626-32.703 25.609-44.788-.012-9.128-1.901-13.297-13.1-28.906-26.669-37.172-63.493-72.696-98.253-94.784L199 204.544v-16.799l4.57 4.213c10.391 9.578 26.73 13.15 40.43 8.837 3.188-1.003 5.667-1.159 8.5-.533 18.049 3.981 36.63-3.54 43.4-17.569 8.104-16.792 6.226-32.419-5.355-44.561l-5.469-5.733 1.562-4.95c3.793-12.016 1.058-25.968-6.85-34.953l-4.146-4.709 1.429-4.644c.803-2.608 1.416-8.588 1.4-13.643-.036-10.866-1.802-14.935-10.416-24-3.136-3.3-7.286-8.475-9.222-11.5-11.001-17.192-31.412-24.885-51.603-19.45M159.2 97.058c-7.003 3.499-10.43 7.129-14.11 14.942-4.175 8.865-3.972 41.506.315 50.791 11.197 24.249 42.219 26.668 57.243 4.464 5.509-8.142 6.705-14.967 6.177-35.255-.447-17.17-1.552-21.203-7.743-28.254-8.831-10.058-28.768-13.241-41.882-6.688m-34.734 27.979c-1.207 1.334-1.992 4.085-2.273 7.966C121.326 144.999 123.917 150 131 150h4v-20.665l-3.941-3.168c-4.668-3.751-4.281-3.685-6.593-1.13m96.237 1.755L217 130.584V150h4.427c6.733 0 8.573-2.898 8.573-13.5 0-6.812-.357-8.684-2.073-10.865-2.657-3.379-2.82-3.353-7.224 1.157m-58.08 3.494c-1.317.963-1.679 2.383-1.441 5.648.587 8.05 7.02 8.334 7.619.337.434-5.784-2.529-8.653-6.178-5.985m22.338.753c-3.462 3.462-1.617 10.889 2.718 10.946 4.462.058 5.735-8.993 1.644-11.694-1.963-1.297-2.391-1.223-4.362.748M160.2 156.2c-3.07 3.07.027 8.394 6.3 10.833 9.668 3.758 26.5-1.048 26.5-7.566 0-4.446-2.526-5.034-8.544-1.989-6.57 3.324-13.507 3.2-17.983-.321-3.12-2.454-4.557-2.673-6.273-.957m14.8 38.664-11.5 2.695-.269 3.97c-.241 3.562.413 4.832 6.348 12.323 3.639 4.593 6.959 7.968 7.376 7.5C186.786 210.321 190 204.658 190 198.364c0-7.53 1.1-7.273-15-3.5m-27.25 22.241c-4.812 2.781-8.75 5.69-8.75 6.464 0 2.523 6.071 20.431 6.926 20.431 1.377 0 23.074-15.031 23.074-15.985 0-.798-11.695-16.049-12.262-15.991-.131.014-4.175 2.3-8.988 5.081m41.304 2.645c-3.326 4.262-6.049 8.085-6.051 8.495-.006 1.476 23.051 16.101 23.928 15.178 1.142-1.204 6.069-16.966 6.069-19.416 0-1.518-15.326-12.007-17.543-12.007-.195 0-3.076 3.488-6.403 7.75m-61.708 10.142c-6.094 5.678-2.473 19.407 13.121 49.753C151.638 301.381 171.272 329 175.554 329c2.052 0 14.548-14.942 22.571-26.988 11.147-16.736 29.461-55.072 31.445-65.82.439-2.379-5.139-8.192-7.862-8.192-.26 0-1.681 3.877-3.158 8.615-6.085 19.515-18.638 44.653-32.433 64.942-9.308 13.692-10.472 13.8-18.767 1.741-13.896-20.2-25.696-43.192-32.336-63.005-4.292-12.808-4.614-13.246-7.668-10.401m105.687 21.875c-12.671 33.277-37.332 73.071-52.411 84.572-5.288 4.033-6.57 3.532-15.758-6.164-13.82-14.582-25.713-32.868-36.41-55.976-2.877-6.216-5.619-11.391-6.092-11.5-1.307-.302-2.133 10.006-2.253 28.13L120 307.158l4.644 4.644c10.447 10.447 10.386 16.249-.402 38.275l-8.044 16.423-.349 21.819-.349 21.818 3.735 3.432 3.736 3.431 50.764-.015c54.229-.015 53.705.031 57.483-5.06 1.808-2.436 1.906-4.661 1.818-41.339l-.094-38.763 3.967-3.967c6.401-6.401 8.6-11.969 8.236-20.856-.771-18.808-.917-17.468 1.941-17.801 3.73-.433 5.008 1.763 6.303 10.827l1.148 8.03 11.981 10.598c18.2 16.097 21.482 19.333 21.482 21.18 0 .934-7.875 11.783-17.5 24.109-9.625 12.326-17.5 22.748-17.5 23.16 0 .413 5.375 4.829 11.945 9.814l11.944 9.064 18.881-23.24c27.853-34.287 29.223-36.759 26.365-47.589-2.669-10.11-22.987-36.579-47.606-62.014-10.959-11.323-34.792-33.148-36.168-33.121-.474.009-2.871 5.297-5.328 11.75m-77.258-3.732c-7.704 5.687-7.645 4.302-.768 17.98 2.278 4.53 4.492 7.842 4.921 7.361.609-.686 4.149-26.345 4.086-29.626-.027-1.443-1.565-.643-8.239 4.285m33.964-3.329c-.803 1.471 1.562 30.294 2.486 30.294.865 0 10.789-20.01 10.763-21.702-.012-.723-1.395-1.759-10.13-7.592-1.477-.986-2.881-1.436-3.119-1M80.918 272.75C65.284 292.537 41.29 331.851 27.1 360.928c-7.424 15.214-7.598 15.745-7.576 23.072.072 24.17 28.657 36.44 45.734 19.631 6.726-6.621 27.743-30.321 27.73-31.27-.006-.474-2.712-2.344-6.013-4.157-3.301-1.813-8.94-6.046-12.532-9.406-3.681-3.444-6.885-5.714-7.341-5.204-.446.498-4.51 5.743-9.032 11.656-8.331 10.891-10.817 12.603-13.87 9.55-2.074-2.074-1.345-4.149 3.622-10.314C60.718 348.479 66 340.848 66.001 338.222c.001-5.563 8.398-20.449 16.503-29.256l4.172-4.534.594-17.966c.327-9.881.898-18.754 1.269-19.716 1.528-3.962-1.854-1.299-7.621 6m13.563 37.589c-5.308 2.408-15.485 15.867-19.043 25.184-2.534 6.636-1.357 10.689 4.934 16.979 10.556 10.557 20.995 14.143 27.127 9.32 3.153-2.48 16.501-28.898 16.501-32.658 0-11.145-19.307-23.457-29.519-18.825m155.605 12.984c-1.153 2.38-3.668 6.166-5.591 8.412L241 335.818v24.674c0 19.29.273 24.586 1.25 24.269 1.252-.406 34.75-42.665 34.75-43.838 0-.634-21.549-19.977-23.659-21.237-.723-.431-1.949.939-3.255 3.637m-5.008 74.306c-1.945 2.472-2.078 3.908-2.078 22.506V440h22.345c24.16 0 25.655-.333 25.655-5.706 0-2.744-1.453-3.752-8.184-5.682-6.819-1.955-9.816-5.199-9.816-10.625 0-3.605-.428-4.067-11.716-12.615-6.444-4.879-12.259-9.212-12.923-9.628-.734-.461-2.018.276-3.283 1.885" fill-rule="evenodd"/>
</svg>