<!DOCTYPE svg PUBLIC "-//W3C//DTD SVG 1.1//EN" "http://www.w3.org/Graphics/SVG/1.1/DTD/svg11.dtd">
<svg xmlns="http://www.w3.org/2000/svg" viewBox="0 0 720 552">
<path fill="#050505" d="M366.531 57.25c-.224.688-3.806 17-7.96 36.25-7.604 35.232-9.62 43.501-9.389 38.5.063-1.375-.142-3.175-.456-4-.315-.825-2.045-14.673-3.846-30.773-1.801-16.1-3.58-28.7-3.952-28-.373.7-8.938 24.547-19.033 52.993s-18.669 51.396-19.054 51c-.384-.396-5.678-9.495-11.762-20.22-10.654-18.779-11.064-19.342-11.071-15.233-.005 2.346.915 26.087 2.044 52.756 2.89 68.281 3.964 66.245-11.454 21.712-7.096-20.496-12.999-37.146-13.119-37-.12.146 3.944 33.565 9.031 74.265 10.133 81.081 10.608 85.298 9.374 83.335-.462-.734-8.808-19.888-18.549-42.565-9.74-22.676-17.797-41.126-17.905-41-.108.127 5.37 33.53 12.174 74.23 6.804 40.7 12.263 74.9 12.133 76-.15 1.266-6.015-7.329-15.987-23.429-8.663-13.985-15.744-25.01-15.737-24.5.007.511 5.407 17.785 12 38.388 6.593 20.602 11.987 38.039 11.987 38.75 0 2.004-1.366 1.691-20.348-4.658-9.781-3.272-17.642-5.578-17.468-5.124.811 2.117 34.427 40.073 35.49 40.073 3.84 0-1.881-7.872-20.521-28.24-3.993-4.363-2.262-4.218 13.92 1.167 8.391 2.792 15.387 4.947 15.546 4.788.158-.159-1.28-5.222-3.197-11.252-8.66-27.242-13.384-42.834-13.072-43.146.186-.187 5.439 7.878 11.673 17.922 14.36 23.137 14.05 22.807 12.333 13.096C263.164 372.64 248.139 281 248.66 281c.373 0-.768-2.581 19.237 43.5 8.834 20.35 16.072 36.594 16.083 36.099.011-.496-4.046-33.32-9.016-72.943s-8.904-72.728-8.743-73.567c.162-.839 3.639 8.135 7.727 19.943 4.087 11.807 9.156 26.193 11.262 31.968l3.83 10.5-.572-14.5c-3.551-90.014-4.336-111.466-4.086-111.715.16-.16 4.265 6.702 9.121 15.249 4.857 8.547 9.318 16.182 9.914 16.968.832 1.096 5.126-10.046 18.51-48.027 9.584-27.2 17.557-49.325 17.716-49.165.159.159 2.084 16.184 4.278 35.611 2.193 19.426 4.153 35.486 4.355 35.689.203.202 4.59-19.202 9.749-43.121C363.992 85.83 367.839 70 368.595 70c.653 0 1.859 3.037 2.68 6.75.82 3.713 5.021 23.05 9.335 42.973 4.315 19.922 8.115 35.897 8.447 35.5.331-.398 2.275-15.781 4.319-34.186 3.496-31.471 4.017-34.996 5.028-33.954.223.23 7.71 21.117 16.639 46.417 8.929 25.3 16.637 47.082 17.13 48.405.803 2.157 1.895.641 10.584-14.694 5.329-9.404 9.847-16.94 10.04-16.747.336.335-3.182 96.22-4.293 117.036l-.534 10 10.927-31.329c6.01-17.23 11.192-31.593 11.515-31.916 1.155-1.155.458 5.131-8.345 75.238-4.903 39.046-8.806 71.101-8.675 71.233.132.131 7.597-16.853 16.589-37.743C478.973 302.092 486.706 285 487.165 285c1.387 0 1.205 1.231-10.171 68.843C470.947 389.782 466 419.66 466 420.239c0 .578 5.433-7.676 12.074-18.344 6.641-10.667 12.471-19.803 12.956-20.301.889-.913-1.836 8.168-11.524 38.406-2.908 9.075-4.99 16.615-4.628 16.756.363.141 7.369-1.991 15.569-4.738 15.632-5.237 17.156-5.43 13.899-1.764-20.165 22.696-24.158 28.246-20.323 28.246 1.199 0 36.226-39.584 35.59-40.22-.139-.139-8.884 2.633-19.433 6.16-13.587 4.542-19.18 6.019-19.18 5.064 0-.742 5.598-18.811 12.439-40.154 6.842-21.343 12.344-38.9 12.228-39.016-.116-.116-7.397 11.472-16.181 25.751-8.784 14.279-16.107 25.551-16.275 25.049-.167-.502 5.36-34.545 12.282-75.651 6.922-41.106 12.442-74.881 12.266-75.057-.176-.176-7.255 15.744-15.732 35.377-20.576 47.654-21.025 48.603-21.026 44.399-.001-2.447 14.128-118.21 18.515-151.702.288-2.2-5.32 12.598-12.463 32.884-7.143 20.286-13.284 37.161-13.646 37.5-.362.339-.376-5.909-.03-13.884.346-7.975 1.306-31.375 2.134-52 .828-20.625 1.614-40.046 1.747-43.157.133-3.112-.053-5.474-.415-5.249-.361.225-5.466 8.958-11.344 19.407-5.878 10.45-11.011 18.999-11.406 18.999-.395 0-9.016-23.396-19.156-51.991-10.14-28.594-18.672-51.994-18.96-52-.287-.005-2.056 13.726-3.931 30.514-2.111 18.911-3.796 30.394-4.429 30.183-1.291-.431-1.775-2.401-10.178-41.453-5.951-27.658-7.193-32.247-8.72-32.25-.98-.002-1.965.56-2.188 1.247m-58.223 134.828c-4.563 1.696-7.933 12.178-10.383 32.293-3.743 30.733 3.38 47.509 22.521 53.041l4.054 1.172.832 29.958.832 29.958-4.582 57.59c-2.52 31.674-4.582 58.562-4.582 59.75 0 3.024 23.488 3.419 24.389.41.288-.962 5.52-20.875 11.626-44.25s11.444-42.846 11.862-43.269c.419-.423 7.766 19.377 16.328 44l15.568 44.769 11.18.283 11.18.284-.568-4.284c-.312-2.355-2.627-29.258-5.144-59.783l-4.577-55.5.828-29.892.828-29.892 4-1.193c20.296-6.056 27.15-24.804 21.577-59.023-3.541-21.744-5.701-26.75-11.541-26.75-6.768 0-8.876 5.431-6.904 17.79 2.18 13.657 1.609 33.709-1.086 38.179-2.629 4.36-3.428 4.531-14.776 3.156l-9.88-1.198-3.042 3.691c-5.27 6.393-9.834 8.132-21.348 8.132-11.168 0-16.437-2.071-21.954-8.628l-2.665-3.167-9.765 1.183c-5.371.651-10.536.888-11.477.527-6.167-2.366-7.73-21.747-3.692-45.78 1.556-9.261-3.2-15.951-9.639-13.557m54.839 11.087c-22.705 3.997-26.525 35.703-5.426 45.036 15.94 7.051 33.191-4.093 33.257-21.483.058-15.356-12.762-26.206-27.831-23.553m124.584 78.755c-.435 1.663-.305 2.054.437 1.312.582-.582.86-1.647.62-2.369-.25-.749-.703-.295-1.057 1.057" fill-rule="evenodd"/>
</svg>