<!DOCTYPE svg PUBLIC "-//W3C//DTD SVG 1.1//EN" "http://www.w3.org/Graphics/SVG/1.1/DTD/svg11.dtd">
<svg xmlns="http://www.w3.org/2000/svg" viewBox="0 0 440 526">
<path fill="#050505" d="M212.5 57.636c-37.276 3.999-73.679 21.834-97.21 47.628-21.966 24.078-34.027 58.625-30.282 86.741.622 4.672 1.363 11.195 1.647 14.495l.516 6-9.658 15.92c-17.527 28.889-25.136 46.186-22.892 52.035 1.398 3.642 13.605 6.531 27.701 6.556 3.398.006 7.783.277 9.744.601l3.567.59 2.142 27.149c2.756 34.941 4.899 41.767 15.5 49.38 9.518 6.836 19.643 8.385 48.509 7.425 10.881-.361 14.473.692 15.565 4.567.908 3.22 25.011 84.773 25.115 84.976.055.11 23.037-8.114 51.069-18.274 28.032-10.161 59.967-21.694 70.967-25.63 11-3.935 20.138-7.25 20.307-7.365.168-.115-3.06-8.697-7.175-19.07-22.82-57.53-26.589-81.71-15.999-102.627 1.834-3.623 7.177-9.694 17.364-19.733 34.095-33.6 45.953-69.597 36.438-110.623-10.256-44.223-50.072-81.917-100.935-95.556-16.231-4.352-46.314-6.868-62-5.185m-10 31.833c-8.708 2-14.163 4.599-21.823 10.397-5.285 4-7.599 5.139-10.48 5.158-5.911.04-12.161 1.812-20.01 5.676-12.478 6.143-18.199 13.313-21.765 27.276-1.376 5.388-2.374 7.11-5.944 10.253-16.004 14.086-18.815 48.143-5.444 65.939 11.563 15.389 39.61 23.001 58.412 15.852 3.812-1.449 4.554-1.287 4.554.991 0 14.933 27.112 27.529 47.227 21.943 3.626-1.007 3.912-.884 10.5 4.551 20.115 16.592 41.551 16.634 63.991.127 3.18-2.34 8.582-5.745 12.005-7.568 13.176-7.017 21.822-20.227 23.531-35.953.515-4.736 1.426-9.511 2.025-10.611 5.375-9.872 7.023-17.395 7.01-32-.021-22.281-10.013-40.245-27.241-48.976-3.577-1.812-5.129-3.382-6.611-6.69-8.282-18.478-43.212-32.222-61.972-24.384-3.591 1.5-4.141 1.468-9.884-.591-7.717-2.767-28.746-3.535-38.081-1.39m-6.006 25.781c-.243.688-2.053 5.514-4.021 10.725-3.348 8.863-3.467 9.557-1.835 10.75 2.7 1.974 2.712 1.957 7.064-9.975 3.633-9.957 3.914-11.328 2.451-11.93-2.487-1.022-3.173-.942-3.659.43m-18.62 5.5c-3.804 9.712-3.872 10.116-1.822 10.767 2.777.881 3.368.234 5.493-6.017 1.658-4.88 1.714-5.725.43-6.537-2.296-1.452-2.944-1.17-4.101 1.787m48.725 5.09c-.285.461-2.13 5.291-4.1 10.733-3.347 9.245-3.468 9.977-1.844 11.164 2.377 1.738 2.742 1.191 7.177-10.758 3.4-9.162 3.686-10.564 2.278-11.159-2.249-.949-2.914-.946-3.511.02m-18.756 5.989c-3.795 9.683-3.851 10.034-1.706 10.714 2.528.803 2.884.428 5.075-5.339 2.275-5.99 2.244-6.851-.267-7.508-1.554-.407-2.31.113-3.102 2.133m45.607 11.421c-1.499 3.988-3.335 8.76-4.081 10.606-1.519 3.76-1.261 4.678 1.519 5.405 2.425.634 10.957-21.104 8.817-22.465-2.571-1.633-3.624-.547-6.255 6.454m-84.557-1.81c-6.215 3.514-8.477 13.55-4.334 19.235 2.838 3.896 10.574 7.839 11.64 5.934 2.921-5.22 8.871-23.939 7.913-24.897-1.763-1.763-12.25-1.951-15.219-.272m68.824-.731c-3.78 6.628-3.888 13.222-.217 13.275.87.012 5.894-11.991 5.245-12.532-1.008-.839-4.665-1.379-5.028-.743m-46.53 6.041c-1.607 3.181-8.477 23.294-8.078 23.647.215.191 12.316 4.715 26.891 10.055 29.427 10.779 28.696 10.407 26.885 13.691-.75 1.359-1.318 5.751-1.342 10.375-.095 17.799 11.257 30.265 28.457 31.249 28.885 1.652 44.054-32.001 23.558-52.267l-6.068-6-44.112-16.25c-49.484-18.229-45.016-16.827-46.191-14.5m73.885 9.788c-2.55 6.813-2.552 7.103-.073 7.751 2.327.609 2.239.719 4.986-6.251 1.684-4.273 1.849-5.527.814-6.184-2.597-1.647-3.694-.75-5.727 4.684" fill-rule="evenodd"/>
</svg>