<!DOCTYPE svg PUBLIC "-//W3C//DTD SVG 1.1//EN" "http://www.w3.org/Graphics/SVG/1.1/DTD/svg11.dtd">
<svg xmlns="http://www.w3.org/2000/svg" viewBox="0 0 327 446">
<path d="M127.925 6.912C104.032 10.284 88.392 22.88 80.79 44.875c-2.952 8.541-3.312 33.803-.581 40.765l1.625 4.14-4.529 3.253C60.3 105.245 67.917 138 87.762 138c2.694 0 3.652.784 6.857 5.613 3.37 5.078 12.308 13.387 14.399 13.387 3.234 0 5.551 9.983 3.182 13.711-1.904 2.996-26.894 17.638-48.841 28.617-17.308 8.66-24.524 14.5-30.641 24.802-4.57 7.697-8.119 18.738-7.442 23.156.27 1.768-.776 45.504-2.326 97.191-1.986 66.223-2.506 94.353-1.762 95.25 1.35 1.626 4.268 1.638 5.592.023.639-.78 2-35.687 3.615-92.75 1.426-50.325 3.036-95.325 3.579-100 1.292-11.116 5.878-20.684 13.244-27.631 4.561-4.301 24.32-16.222 25.231-15.222.177.194 2.711 6.203 5.631 13.353 13.852 33.914 31.531 62.188 50.546 80.836 11.266 11.049 11.18 11.056 24.145-2.078 19.496-19.751 34.805-45.525 52.593-88.546l1.566-3.788 4.285 2.164c21.916 11.072 20.996 9.907 64.247 81.412 40.935 67.675 40.825 67.45 38.191 78.123-2.367 9.593-4.238 12.236-27.16 38.377-22.377 25.52-25.785 28.341-34.358 28.444l-4.635.056-.526-11c-.611-12.795-2.381-17.69-8.856-24.496-2.288-2.406-4.039-4.701-3.89-5.101.15-.399 9.61-10.42 21.022-22.27 20.937-21.738 22.025-23.216 19.179-26.062-2.286-2.286-3.377-1.989-8.929 2.429-2.75 2.188-5.337 3.984-5.75 3.989-.413.006-.75-11.832-.75-26.307 0-29.994-.679-34.107-6.738-40.814-5.154-5.705-10.403-8.095-19.008-8.657-15.997-1.045-27.714 7.115-30.063 20.936l-.74 4.353-7.128.557c-5.767.451-7.836 1.097-10.832 3.382-6.566 5.009-6.491 4.351-6.491 56.595 0 30.553-.364 47.777-1.035 49.032-1.001 1.869-2.579 1.934-47.25 1.928-47.784-.005-50.804-.232-56.779-4.258-7.182-4.84-6.88-2.285-7.503-63.334-.624-61.17-.49-59.127-3.961-59.998-5.819-1.461-5.66-3.332-4.95 58.021.671 58.063.866 60.583 5.102 66.258C63.861 410.68 64 411.687 64 424.877c0 13.344.106 14.084 2.223 15.566 2.635 1.847 180.068 2.398 189.604.59 6.115-1.16 13.831-6.27 20.269-13.425 39.674-44.09 45.798-52.773 46.619-66.108.626-10.154-.654-13.169-17.194-40.503A45046.789 45046.789 0 0 1 268.108 259c-27.747-46.064-29.403-47.997-50.089-58.477-15.486-7.847-28.753-15.372-41.264-23.407l-8.745-5.616-.005-6.642c-.005-6.057.193-6.691 2.247-7.206 3.357-.843 13.4-10.203 16.353-15.241 2.125-3.627 3.107-4.411 5.522-4.411 11.629 0 19.829-10.132 19.829-24.5 0-10.955-4.981-20.342-12.044-22.696-1.002-.334-.866-1.828.628-6.866 4.236-14.29 1.751-36.108-5.708-50.102-10.605-19.897-38.151-30.982-66.907-26.924M105.429 71.25c-7.32 8.656-8.898 14.53-9.258 34.472-.367 20.327.466 25.185 5.741 33.487 12.334 19.412 57.381 21.605 73.585 3.583 6.989-7.773 8.765-13.671 9.273-30.792.492-16.599-.534-23.789-4.635-32.463-5.614-11.876-8.879-13.275-22.135-9.483-6.928 1.981-30.186 1.767-37.154-.342-8.748-2.649-12.165-2.308-15.417 1.538m17.321 25.83c-2.069 1.205-2.459 8.811-.55 10.72 3.167 3.167 7 .264 7-5.3 0-5.553-2.547-7.693-6.45-5.42m29.821.491c-3.22 3.221-1.117 11.429 2.929 11.429 2.393 0 4.5-3.044 4.5-6.5s-2.107-6.5-4.5-6.5c-.746 0-2.064.707-2.929 1.571m-69.808 1.994c-8.746 4.746-7.661 25.637 1.498 28.858 1.485.522 2.85.753 3.034.513.618-.808-.507-30.936-1.154-30.896-.353.022-1.873.708-3.378 1.525m110.844.017c-1.34 3.491-.671 29.418.758 29.418 4.697 0 9.635-7.944 9.635-15.5 0-8.812-8.159-19.739-10.393-13.918M122 127c-5.298 9.899 21.082 15.745 33.37 7.394 5.88-3.995 3.338-12.212-2.617-8.459-5.299 3.339-7.561 4.053-12.863 4.059-4.343.005-6.444-.559-9.295-2.494-4.45-3.02-7.162-3.178-8.595-.5m17.298 41.376c-8.361 1.757-15.541 3.533-15.955 3.947-.414.414 3.162 4.667 7.946 9.452l8.698 8.698 9.507-9.467c8.14-8.106 9.506-9.936 9.506-12.736 0-4.078.215-4.079-19.702.106m-31.548 15.773c-4.263 2.777-7.75 5.726-7.75 6.553 0 1.88 5.87 19.546 6.812 20.501.801.812 24.503-13.684 25.057-15.326.341-1.007-14.662-16.939-15.846-16.828-.287.028-4.01 2.322-8.273 5.1m48.217 2.445c-4.382 4.264-7.957 8.237-7.946 8.829.012.593 5.525 4.512 12.25 8.71 10.895 6.8 12.368 7.458 13.505 6.024 1.683-2.124 7.194-19.396 6.531-20.469-.418-.677-9.221-6.555-15.09-10.077-.848-.509-3.989 1.863-9.25 6.983m32.57 8.589c-.249.724-1.691 5.142-3.206 9.817-5.634 17.388-22.036 47.222-36.17 65.788-8.458 11.112-9.199 11.238-15.934 2.712-13.838-17.519-31.219-48.693-37.773-67.75-4.054-11.788-4.338-12.018-10.498-8.5-4.873 2.782-4.893 2.198.555 15.67 12.954 32.027 29.496 59.169 46.824 76.829l7.113 7.249 6.367-6.249c17.34-17.017 32.915-42.004 46.672-74.872 3.972-9.491 6.067-15.709 5.516-16.374-2.067-2.49-9.007-5.658-9.466-4.32M150 208.388c0 3.019 5.372 36.339 5.956 36.942.825.852 13.048-22.119 13.039-24.504-.002-.729-4.022-3.914-8.931-7.076-8.404-5.413-10.064-6.298-10.064-5.362m-30.75 6.131c-4.537 2.995-8.25 5.754-8.25 6.13 0 .906 11.962 23.593 13.047 24.746 1.189 1.262 4.953-24.382 4.953-33.744 0-3.502-.175-3.45-9.75 2.868m100.598 70.499c-8.284 4.376-8.309 4.512-8.654 47.943-.168 21.153-.046 39.491.27 40.75.653 2.605 2.105 2.789 9.487 1.206l5.049-1.083v-36.762c0-39.595.063-40.072 5.294-40.072 3.358 0 3.706 3.466 3.706 36.934 0 18.186.338 33.05.75 33.031.412-.019 3.805-2.29 7.54-5.047l6.789-5.012-.289-31.783-.29-31.782-2.882-3.777c-5.1-6.683-18.438-8.948-26.77-4.546M197 398.353c-12.012 6.132-17.269 24.55-9.093 31.856l3.165 2.827 23.714-.268 23.714-.268-.077-9.5c-.108-13.245-4.224-20.672-13.923-25.121-6.209-2.848-21.508-2.584-27.5.474" fill-rule="evenodd"/>
</svg>