<!DOCTYPE svg PUBLIC "-//W3C//DTD SVG 1.1//EN" "http://www.w3.org/Graphics/SVG/1.1/DTD/svg11.dtd">
<svg xmlns="http://www.w3.org/2000/svg" viewBox="0 0 319 349">
<path d="M115 57.93c-11.224 2.244-20.013 13.234-19.994 25.002.028 18.289 20.772 30.294 37.052 21.443 19.647-10.682 16.112-40.474-5.466-46.071-5.428-1.408-6.284-1.435-11.592-.374m91.168 19.673c-14.011 6.983-17.828 26.256-7.572 38.239 17.575 20.532 50.434 2.542 42.913-23.495-4.248-14.708-21.211-21.785-35.341-14.744m-92.976 42.421c-3.417 2.083-7.13 8.67-7.17 12.716-.012 1.232 4.273 22.14 9.522 46.462l9.543 44.223-8.2 45.543c-9.053 50.273-9.099 51.02-3.498 56.621 7.194 7.194 18.451 6.163 23.642-2.166 2.853-4.576 19.312-98.121 18.421-104.696-.646-4.77-.645-4.772 1.784-3.665 2.004.913 2.433 1.839 2.444 5.273.007 2.291 3.043 14.29 6.746 26.665l6.733 22.5-.715 23.751c-.828 27.495-.218 30.871 6.303 34.901 4.759 2.942 12.179 3.034 16.007.198 7.297-5.405 7.789-7.77 8.819-42.35l.639-21.5-6.181-20.425c-3.4-11.234-6.237-21.156-6.304-22.05-.142-1.883 5.272-15.025 6.189-15.025.339 0 4.772 7.116 9.851 15.814 9.591 16.422 12.67 20.277 17.733 22.196 8.944 3.389 20.5-4.498 20.5-13.992 0-4.387-1.632-7.829-12.575-26.519l-9.717-16.595-1.833-21.202c-2.6-30.08-4.221-33.202-17.239-33.202-9.976 0-11.665 2.221-23.091 30.377-4.926 12.137-9.512 22.28-10.193 22.541-.681.262-5.309-1.384-10.285-3.657l-9.048-4.133-4.01-12.814c-2.205-7.048-5.868-18.777-8.14-26.064-4.452-14.278-6.429-17.954-10.898-20.265-4.154-2.148-11.8-1.886-15.779.539" fill-rule="evenodd"/>
</svg>