<!DOCTYPE svg PUBLIC "-//W3C//DTD SVG 1.1//EN" "http://www.w3.org/Graphics/SVG/1.1/DTD/svg11.dtd">
<svg xmlns="http://www.w3.org/2000/svg" viewBox="0 0 720 522">
<path fill="#040404" d="M188.324 109.587c-23.956 8.78-24.29 44.399-.5 53.438 28.47 10.818 51.482-23.245 31.263-46.274-6.581-7.494-20.816-10.809-30.763-7.164m321.876 1.471c-26.081 13.033-18.539 51.789 10.459 53.747 26.466 1.788 40.571-29.328 22.015-48.565-8.279-8.582-21.461-10.685-32.474-5.182m-157.7 29.28c-23.27 7.711-29.312 34.958-11.336 51.12 18.313 16.465 48.618 3.303 48.964-21.266.286-20.319-19.362-35.907-37.628-29.854m-190.252 35.824c-17.112 8.298-26.532 34.391-27.921 77.338-.857 26.516.028 36.009 3.701 39.682 3.682 3.682 8.642 3.808 12.782.324l2.963-2.493.482-27.757c.483-27.874 1.525-37.787 5.357-50.988 2.645-9.11 3.386-7.175 3.418 8.923.034 16.678.466 17.119 4.142 4.222 3.207-11.252 3.22-51.595.017-51.363-.379.027-2.602.978-4.941 2.112M177 174.645c0 2.625 8.039 16.44 11.894 20.439 10.243 10.627 21.677 3.585 30.085-18.529l.971-2.555h-21.475c-11.811 0-21.475.29-21.475.645m51.227 1.082c-1.961 4.781-.746 41.585 1.653 50.033 3.377 11.898 4.12 11.141 4.12-4.201 0-8.008.394-13.559.961-13.559 1.258 0 3.82 8.643 5.249 17.709 1.336 8.48 2.184 8.957 13.859 7.784 8.155-.819 7.885.002 4.87-14.793-4.668-22.905-13.888-38.02-26.373-43.237-3.337-1.394-3.666-1.374-4.339.264m259.025.245c-12.942 5.875-23.722 26.575-26.702 51.278l-.694 5.75h19.985l.622-3.25c4.892-25.556 7.455-28.702 7.536-9.25.065 15.694.551 16.532 3.485 6 2.779-9.977 3.331-52.566.681-52.478-.366.012-2.576.89-4.913 1.95m14.716.445c8.099 21.301 19.405 28.811 29.444 19.557 3.968-3.657 10.331-14.08 12.041-19.724l.682-2.25H501.05l.918 2.417m50.602-.739c-1.752 4.566-1.846 30.993-.146 41.158 3.119 18.655 4.423 19.932 4.506 4.414.085-16.096 1.641-17.845 4.892-5.5 3.624 13.758 4.491 22.287 4.802 47.25.168 13.475.322 25.226.341 26.114.069 3.192 5.031 6.886 9.248 6.886 9.74 0 11.601-7.572 10.446-42.5-1.158-35.045-6.844-56.703-18.201-69.336-6.953-7.732-14.608-11.822-15.888-8.486M328.5 206.371c-6.403 2.07-9.557 4.041-17 10.628-8.62 7.629-21.331 15.587-28 17.531-5.459 1.592-24.614 3.416-36.5 3.476-12.381.063-18.095 7.974-11.457 15.862 3.458 4.111 8.137 4.665 27.884 3.305 25.436-1.751 37.839-6.235 55.743-20.152l6.33-4.92.273 17.99c.198 13.111.605 18.104 1.5 18.414.675.233 15.177 2.478 32.227 4.989 17.05 2.51 32.012 4.785 33.25 5.054l2.25.49v-21.937c0-12.066.254-22.601.565-23.411.429-1.115 2.556.026 8.75 4.695 18.213 13.729 27.626 17.037 53.387 18.768 19.88 1.335 24.309.811 27.755-3.285 3.047-3.621 3.225-7.237.57-11.591-2.374-3.894-2.845-4.001-20.714-4.725-27.841-1.128-35.837-4.041-55.306-20.149-14.828-12.269-13.222-11.863-48.007-12.113-21.889-.157-30.532.122-33.5 1.081m-99.197 57.101c-19.168 16.408-9.52 47.694 15.959 51.748l7.738 1.231v36.873c0 40.266.16 41.514 5.836 45.367 2.48 1.684 6.038 1.809 51.551 1.809h48.888l4.307-12c2.369-6.6 4.332-12.562 4.363-13.25.043-.982-9.475-1.25-44.408-1.25h-44.463l-.287-47.25-.287-47.25-2.583-5.506c-1.421-3.028-4.02-6.944-5.777-8.7l-3.194-3.194-14.723-.36c-8.098-.198-15.626-.694-16.731-1.103-1.503-.557-3.057.155-6.189 2.835M484 261c-.825.533-7.913.976-15.751.985l-14.251.015-3.918 4.037c-7.486 7.714-7.475 7.632-8.06 60.463l-.52 47-15.737.275-15.738.276-.587 2.724c-.479 2.22-3.761 14.188-6.164 22.475-.474 1.636 1.24 1.749 26.359 1.728 41.334-.034 38.367 3.659 38.367-47.764V316.23l5.75-.69c22.024-2.643 34.302-23.697 24.939-42.764-4.177-8.507-11.127-14.078-14.689-11.776m-206.744 2.66c-.901.364-.569 1.656 1.198 4.671 5.196 8.87 5.546 12.583 5.546 58.89v42.8l42.736-.26c39.787-.243 42.76-.382 43.074-2.011.316-1.642-2.057-1.75-38.614-1.75-34.977 0-39.091-.168-40.324-1.65-1.446-1.74-2.606-27.287-1.448-31.902 1.32-5.26 2.138-5.444 24.397-5.495l20.679-.047-4.5-1.763c-7.362-2.884-13.513-6.915-18.199-11.926-16.476-17.619-12.986-43.371 6.227-45.948 3.022-.405 3.972-.979 3.972-2.401 0-1.769-1.149-1.864-21.75-1.789-11.962.043-22.31.305-22.994.581m122.748 7.59.003 8.25 4.533 1.864c8.123 3.341 12.569 12.347 10.382 21.031-1.185 4.705-6.707 12.085-9.772 13.057-1.672.531-1.621.944.742 6.059l2.536 5.489h9.631c13.315 0 12.941-.568 12.941 19.638 0 19.748.3 19.214-10.989 19.584-7.159.234-8.541.552-8.823 2.028-.305 1.594.827 1.75 12.739 1.75H437l.012-43.25c.013-46.625.273-49.441 5.366-58.132 1.404-2.395 2.268-4.639 1.92-4.986-.347-.348-10.456-.632-22.465-.632H400l.004 8.25M163 267.447c0 .797-3.15 29.395-7 63.553s-7 64.264-7 66.903c0 12.814 14.954 19.708 25.426 11.722 4.978-3.798 4.954-3.664 12.383-68.625l6.691-58.5 4.695-.303c5.74-.369 4.185-8.362 12.254 62.966 6.624 58.559 6.898 60.036 12.037 64.837 2.325 2.173 3.589 2.5 9.666 2.5 6.927 0 7.028-.039 10.92-4.211 4.371-4.686 4.907-7.701 2.428-13.635-1.051-2.515-1.508-7.268-1.526-15.872-.025-11.613-4.057-53.488-5.352-55.584-.332-.537-1.811-1.28-3.288-1.65-3.703-.93-12.763-7.081-15.873-10.777-9.008-10.705-11.262-27.389-5.47-40.483l1.897-4.288h-26.444c-22.412 0-26.444.221-26.444 1.447m344.685 4.625c7.6 18.816-4.009 44.956-21.968 49.463-1.449.364-3.027 1.18-3.507 1.813-1.388 1.833-6.229 48.109-6.219 59.452.006 7.234-.439 11.166-1.498 13.213-1.351 2.614-1.34 3.329.11 6.954 5.639 14.093 25.972 12.886 29.276-1.737.587-2.602 3.782-29.03 7.099-58.73 7.636-68.376 6.091-60.5 11.865-60.5h4.753l6.772 59.75c5.071 44.736 7.216 60.629 8.539 63.25 6.584 13.043 26.892 9.716 28.765-4.712.407-3.135-12.714-124.838-14.235-132.038l-.475-2.25h-51.73l2.453 6.072m-191.185.47c-13.639 4.687-14.492 23.944-1.277 28.865C319.555 303.02 390.845 314 396.989 314c10.905 0 18.222-12.431 13.355-22.688-3.367-7.094-5.102-7.603-46.844-13.742-20.9-3.074-39.125-5.772-40.5-5.996-1.375-.224-4.3.212-6.5.968m-5.429 32.59c5.801 10.839 23.323 19.377 41.429 20.187 24.501 1.097 29.783 22.289 15.816 63.458-5.038 14.848-5.317 19.604-1.469 25.008 5.778 8.115 20.144 7.982 25.528-.235 3.902-5.954 11.37-29.705 13.695-43.55 3.943-23.483-2.027-51.936-11.07-52.763-17.787-1.627-81.739-12.006-82.605-13.406-1.177-1.905-2.398-.705-1.324 1.301m-45.404 100.535c-.367.366-.667 1.716-.667 3 0 2.237.31 2.333 7.5 2.333h7.5v-6h-6.833c-3.759 0-7.134.3-7.5.667M440 408v3h16v-6h-16v3" fill-rule="evenodd"/>
</svg>