<!DOCTYPE svg PUBLIC "-//W3C//DTD SVG 1.1//EN" "http://www.w3.org/Graphics/SVG/1.1/DTD/svg11.dtd">
<svg xmlns="http://www.w3.org/2000/svg" viewBox="0 0 480 402">
<path fill="#141714" d="M273.786 58.646c-2.043 1.57-4.215 4.315-4.827 6.101C267.1 70.174 264.909 71 252.365 71c-10.827 0-25.409 2.017-27.731 3.836-.624.489-2.285 1.162-3.691 1.497-7.643 1.819-27.874 19.535-39.24 34.363a8513.921 8513.921 0 0 1-7.405 9.643c-10.035 13.041-12.235 21.919-11.938 48.161l.248 22 3.446 6.059a779.228 779.228 0 0 0 5.446 9.432c9.621 16.226 35.125 31.997 51.771 32.015 6.934.007 11.94 1.49 13.504 4 1.319 2.118.058 16.909-1.832 21.494-.454 1.1-1.022 4.925-1.263 8.5-.905 13.432-3.488 24.303-6.383 26.863-2.834 2.507-14.577 2.502-21.182-.01-1.422-.54-5.292-1.606-8.6-2.369-7.684-1.771-29.513-8.451-40.515-12.396-4.675-1.677-9.359-3.057-10.41-3.068-1.05-.011-6.133-2.102-11.294-4.646-11.674-5.756-13.846-8.938-13.03-19.097.601-7.487.115-7.954-9.273-8.936-10.609-1.108-10.972-1.75-11.111-19.664-.157-20.043-.418-21.177-4.892-21.177H93.5l-.5 17.648C92.413 245.872 91.952 247 84.068 247c-6.422 0-8.728 1.895-9.547 7.845-.784 5.702.748 10.033 5.241 14.82 3.069 3.27 12.004 8.335 14.705 8.335.843 0 1.533.45 1.533 1s.591 1 1.313 1 3.645 1.125 6.495 2.5 5.769 2.5 6.487 2.5 1.733.421 2.255.936c.523.514 5.45 2.543 10.95 4.508 5.5 1.966 10.9 3.99 12 4.5 1.1.51 7.175 2.558 13.5 4.551 6.325 1.993 15.325 5.129 20 6.968 4.675 1.84 11.425 3.854 15 4.476 6.443 1.122 9.37 2.087 20 6.599 3.025 1.284 7.721 2.591 10.435 2.904 10.369 1.198 10.888 3.555 10.459 47.558-.121 12.375.131 25.087.559 28.25l.777 5.75h10.953c10.905 0 10.949-.01 10.23-2.25-2.025-6.312-2.367-11.242-2.389-34.417-.028-28.941.843-31.203 7.535-19.583 1.03 1.788 2.225 3.25 2.657 3.25.431 0 .784.438.784.973 0 1.375 4.37 11.028 9.57 21.142 2.808 5.46 4.43 9.924 4.43 12.191 0 1.967.45 3.854 1 4.194.55.34 1 1.491 1 2.559s.36 1.941.799 1.941c.937 0 3.201 5.886 3.201 8.321 0 1.474 1.398 1.679 11.469 1.679 12.803 0 12.086.629 8.55-7.5-.956-2.2-3.219-7.6-5.028-12-1.808-4.4-4.338-10.25-5.621-13-1.283-2.75-3.66-8.847-5.282-13.548-1.954-5.662-5.167-11.82-9.519-18.237-3.613-5.329-6.576-10.033-6.583-10.452-.015-.781-4.56-5.48-11.236-11.616-5.114-4.7-4.909-11.189 1.185-37.647 2.842-12.34 4.192-20.853 4.345-27.405.198-8.433 2.474-10.08 15.071-10.908 5.265-.345 11.06-1.25 12.878-2.009 1.817-.76 5.493-1.709 8.168-2.11 2.675-.401 5.817-1.116 6.983-1.589 1.166-.472 6.62-2.049 12.12-3.505 13.062-3.456 14.816-4.135 22.352-8.66 3.494-2.098 6.749-3.814 7.233-3.814 2.429 0 14.746-12.497 17.395-17.649 1.089-2.118 3.237-5.943 4.774-8.501 8.886-14.786 10.598-49.995 3.493-71.85-1.877-5.775-3.916-11.4-4.531-12.5-.616-1.1-1.906-3.8-2.868-6-6.848-15.659-21.353-28.693-45.226-40.64l-8.378-4.193-15.122-.438-15.122-.438-3.714 2.855M288.5 72.16c-5.204 2.694-8.5 5.759-8.5 7.904 0 2.68-3.245 5.943-6 6.033-1.375.045-9.088-.252-17.14-.659-12.417-.627-15.455-.482-20 .956-6.831 2.16-15.086 6.479-16.295 8.524-.514.87-2.432 3.157-4.263 5.082C200.658 116.452 194 124.522 194 127.029c0 .534-.45.971-1 .971s-1 .675-1 1.5-.417 1.5-.928 1.5c-.51 0-2.404 3.037-4.208 6.75l-3.281 6.75-.041 22-.042 22 2.715 5c1.493 2.75 4.124 6.35 5.848 8 1.723 1.65 3.998 4.688 5.055 6.75 1.058 2.063 2.325 3.75 2.818 3.75.492 0 2.143 1.322 3.668 2.938 3.408 3.611 15.959 8.341 26.409 9.954 8.466 1.306 44.049 1.806 45.928.645 1.336-.826 8.177-2.622 20.559-5.397 4.4-.987 9.8-2.721 12-3.854 2.2-1.134 7.375-3.045 11.5-4.247 17.399-5.07 28.823-25.475 31.696-56.614.316-3.418-.337-8.314-2.001-15-1.358-5.459-2.782-12.129-3.165-14.822-.383-2.693-1.067-5.618-1.521-6.5-.453-.882-2.246-5.371-3.985-9.977-3.024-8.009-4.313-10.77-6.524-13.973-1.611-2.334-11.926-12.122-12.792-12.138-.435-.008-1.785-.946-3-2.084-3.709-3.474-19.446-10.935-22.966-10.887-1.783.025-5.042.976-7.242 2.116m-81.75 49.225c-3.65 5.196-.921 10.38 5.95 11.302 9.767 1.31 16.438-4.957 11.8-11.085-2.509-3.314-15.463-3.473-17.75-.217m63.594-1.692c-4.125.806-3.77 7.694.569 11.025 2.026 1.555 8.249 1.613 13.221.124 3.463-1.038 3.866-1.499 3.866-4.428 0-6.116-7.036-8.795-17.656-6.721M215.2 167.2c-3.814 3.814-.806 10.995 7.111 16.976 11.406 8.618 15.446 10.091 26.021 9.492 11.104-.629 15.664-1.471 17.733-3.277.861-.751 3.092-1.898 4.959-2.549 3.923-1.368 11.976-9.443 11.976-12.01 0-2.168-4.546-6.832-6.66-6.832-.864 0-6.235 2.25-11.936 5-9.738 4.697-10.842 5-18.228 5-8.538 0-8.821-.147-18.749-9.75-3.595-3.477-9.766-4.511-12.227-2.05" fill-rule="evenodd"/>
</svg>