<!DOCTYPE svg PUBLIC "-//W3C//DTD SVG 1.1//EN" "http://www.w3.org/Graphics/SVG/1.1/DTD/svg11.dtd">
<svg xmlns="http://www.w3.org/2000/svg" viewBox="0 0 736 727">
<path fill="#07070a" d="M419.488 174.943c-2.776 1.126-9.924 9.052-12.362 13.708-1.109 2.117-3.106 5.178-4.439 6.802l-2.422 2.953-17.383.764c-21.269.936-35.862 2.507-41.708 4.492-8.585 2.915-23.369 10.56-28.497 14.737-2.858 2.328-5.943 4.653-6.854 5.167-2.976 1.677-15.17 13.739-22.168 21.926a1383.41 1383.41 0 0 1-12.5 14.405c-3.11 3.519-6.067 7.119-6.57 8-.503.882-1.18 1.828-1.505 2.103-6.94 5.87-22.952 33.435-27.592 47.5-3.578 10.844-5.169 76.694-1.956 80.941.807 1.068 1.468 2.838 1.468 3.934 0 1.097.857 3.823 1.904 6.059 1.048 2.236 2.836 6.091 3.975 8.566 1.139 2.475 4.549 8.1 7.577 12.5 15.9 23.099 26.067 32.685 44.044 41.53 18.627 9.165 29.504 12.97 37.072 12.969 9.022-.002 22.714 2.107 24.678 3.801 2.582 2.227 2.229 6.025-.683 7.351-2.512 1.145-11.707-.67-26.067-5.144-5.57-1.735-21.69-3.871-34.421-4.559-2.982-.161-6.357-.741-7.5-1.288-3.762-1.8-8.829-3.16-11.778-3.16-1.595 0-4.182-.663-5.748-1.472-1.566-.81-9.756-3.261-18.2-5.446-8.444-2.186-18.01-4.898-21.258-6.028-3.248-1.13-6.848-2.07-8-2.089-1.152-.02-3.22-.679-4.595-1.465-1.375-.786-3.716-1.445-5.203-1.465-1.486-.019-10.486-1.56-20-3.424-15.132-2.964-24.936-4.707-40.297-7.162-8.266-1.321-13.305-2.347-23.88-4.862-8.165-1.941-13.542-2.587-21.55-2.587-5.868 0-11.097-.389-11.62-.864C91.509 442.37 82.829 441 73.586 441c-12.571 0-17.712 2.236-29.234 12.714C32.898 464.13 30.67 468.461 30.573 480.5c-.131 16.174 5.828 22.5 21.194 22.5 6.902 0 8.595.386 13.8 3.15 9.514 5.051 20.322 4.074 30.354-2.742 5.39-3.663 6.597-3.198 9.983 3.842 1.653 3.438 4.052 7.375 5.33 8.75 4.871 5.242 11.777 18.767 11.769 23.05-.002.852.395 1.977.88 2.5.486.522 2.536 5.225 4.555 10.45 2.019 5.225 5.596 13.55 7.95 18.5 2.353 4.95 4.856 10.8 5.562 13 4.297 13.387 17.156 15.658 52.55 9.283 3.3-.595 18.15-1.439 33-1.875 14.85-.437 29.7-1.233 33-1.77 3.3-.536 9.6-1.477 14-2.091 26.826-3.742 38.763-6.02 50-9.54 15.502-4.857 20.13-2.673 17.558 8.287-3.182 13.561-5.356 26.965-6.117 37.706-.468 6.6-1.301 15.375-1.852 19.5-.55 4.125-1.021 24.712-1.045 45.75L333 727h33.906c31.799 0 33.878-.109 33.451-1.75-.25-.962.294-4.675 1.208-8.25 1.303-5.091 1.836-14.197 2.459-42 1.192-53.181 2.731-66.241 10.957-93 5.227-16.999 7.936-33.865 7.986-49.719.028-8.623.385-10.888 2.283-14.5 1.899-3.613 2.328-6.341 2.75-17.485.275-7.262.97-13.672 1.544-14.244 1.023-1.019 11.554-4.132 20.456-6.046 2.475-.532 9.675-2.819 16-5.081 12.022-4.3 24.309-7.925 26.859-7.925 3.099 0 22.867-10.382 35.216-18.495 10.574-6.946 21.618-17.723 25.487-24.87 1.204-2.222 5.698-10.501 11.746-21.635 1.942-3.575 3.851-8.3 4.242-10.5.391-2.2 1.042-4.45 1.447-5 .405-.55 1.97-6.512 3.476-13.25 2.702-12.079 2.733-12.62 2.255-39-.367-20.284-.86-27.959-2.039-31.75-.856-2.75-3.532-11.525-5.948-19.5-2.416-7.975-5.596-16.746-7.067-19.492-1.471-2.746-2.684-5.671-2.696-6.5-.036-2.481-3.927-10.329-6.45-13.008-1.295-1.375-3.686-4.975-5.315-8-3.2-5.946-18.663-23.076-26.645-29.519-11.206-9.045-36.612-24.242-46.105-27.578-11.593-4.075-48.194-6.711-54.975-3.96m21.825 26.246c-12.068 6.66-15.155 9.46-16.846 15.278-2.872 9.879-12.691 13.979-24.347 10.167-10.695-3.498-44.864-1.883-50.62 2.392-.55.409-2.437 1.05-4.194 1.426-2.758.589-6.809 3.214-14.706 9.529-2.557 2.044-3.998 3.544-11.6 12.073-3.575 4.012-8.023 8.866-9.885 10.788-1.862 1.923-4.865 5.433-6.672 7.8a389.75 389.75 0 0 1-6.364 8.082c-5.85 7.175-13.079 17.554-13.079 18.775 0 .674-1.399 2.975-3.109 5.113-1.71 2.139-4.234 6.363-5.609 9.388-5.42 11.925-5.569 13.168-6.018 50.12l-.42 34.619 3.676 7.3c5.052 10.033 7.479 13.644 18.373 27.342 14.133 17.769 24.512 23.908 46.607 27.565 24.055 3.981 28.053 4.269 52.035 3.738 23.6-.521 25.803-.785 41.965-5.017 3.3-.864 7.514-1.833 9.364-2.153 5.873-1.017 18.296-4.652 23.049-6.744 2.523-1.111 8.637-3.506 13.587-5.323 21.673-7.956 24.513-9.273 29.285-13.59 10.552-9.545 18.179-20.521 22.5-32.378 1.399-3.838 3.901-10.286 5.56-14.328 1.671-4.07 3.317-10.315 3.689-14 .369-3.658 1.298-10.926 2.063-16.151 2.336-15.95 1.488-25.749-3.558-41.12-1.074-3.272-2.458-9.635-3.075-14.14-1.158-8.457-3.562-18.917-4.981-21.67-1.768-3.429-5.886-13.002-9.029-20.986-3.438-8.735-7.467-15.386-12.512-20.657-5.175-5.406-23.388-20.191-27.23-22.104-2.041-1.017-6.471-3.53-9.843-5.586-3.372-2.055-6.747-3.74-7.5-3.743-.753-.004-2.635-.667-4.183-1.474-5.312-2.77-11.719-2.9-16.373-.331M411.5 282.517c-11.707 6.304-9.17 17.698 4.798 21.555 6.936 1.915 18.974-3.323 20.364-8.861 2.416-9.626-14.764-18.293-25.162-12.694m-102.079.902c-1.771.771-3.754 2.773-4.668 4.711-5.897 12.507 15.227 23.207 26.216 13.279 6.817-6.159 6.105-14.248-1.576-17.893-3.974-1.886-15.733-1.943-19.972-.097m14.079 77.438c-6.195 2.881-7.888 5.312-7.107 10.2 1.003 6.274 4.92 13.068 9.749 16.909 2.397 1.907 6.608 5.571 9.358 8.143 2.75 2.572 6.575 5.135 8.5 5.695 1.925.56 6.398 2.183 9.94 3.607 11.132 4.476 36.629 2.377 51.06-4.203 9.556-4.357 22.65-16.177 23.501-21.213 1.701-10.066-10.746-17.234-19.001-10.943-2.15 1.639-19.27 10.222-24 12.033-3.663 1.402-7.541 1.913-14.5 1.909-14.229-.008-15.55-.6-27.854-12.487-11.848-11.446-13.762-12.386-19.646-9.65M178.839 503.938c-1.286 1.615-3.166 4.115-4.177 5.554-1.011 1.439-4.316 3.79-7.345 5.225-6.23 2.949-8.307 5.993-6.512 9.542.624 1.232 2.457 5.616 4.074 9.741 6.817 17.393 10.22 20.937 18.421 19.185 12.201-2.606 18.469-3.115 41.2-3.345 13.2-.133 25.35-.604 27-1.047 1.65-.443 7.05-1.258 12-1.811 4.95-.553 11.475-1.424 14.5-1.935 3.025-.511 9.55-1.459 14.5-2.106 9.505-1.243 21.5-5.967 21.5-8.468 0-.725-1.687-1.861-3.75-2.526-2.062-.664-4.2-1.538-4.75-1.941-.55-.403-3.7-1.022-7-1.375-8.837-.946-39.21-8.246-53-12.738C206.285 503.117 198.173 501 188.444 501c-6.842 0-7.403.172-9.605 2.938" fill-rule="evenodd"/>
</svg>