<!DOCTYPE svg PUBLIC "-//W3C//DTD SVG 1.1//EN" "http://www.w3.org/Graphics/SVG/1.1/DTD/svg11.dtd">
<svg xmlns="http://www.w3.org/2000/svg" viewBox="0 0 480 451">
<path fill="#090909" d="M230.539 8.042c-13.75 2.166-26.453 7.668-34.317 14.863-3.391 3.103-5.361 4.062-9.5 4.623-29.625 4.02-44.263 38.838-26.699 63.504l2.097 2.945-2.468 3.261c-7.458 9.858-5.158 27.09 4.466 33.459 3.331 2.204 5.601 2.799 12.397 3.251 4.575.303 8.503.777 8.728 1.052.225.275 1.408 2.161 2.628 4.191 2.29 3.808 12.58 13.809 14.21 13.809.507 0 .919 5.294.919 11.812 0 11.727-.02 11.827-2.75 13.843-1.512 1.117-11.3 7.79-21.75 14.828-41.322 27.831-46.997 35.509-51.017 69.017-.924 7.7-1.748 14.029-1.831 14.064-2.305.973-10.379 8.891-14.127 13.852-5.886 7.793-5.631 7.729-9.392 2.334C93.96 281.027 81.124 271.702 67 267.226c-17.641-5.591-54.854-1.973-58.978 5.733-1.197 2.237-.394 3.258 7.594 9.648 2.136 1.709 4.88 4.892 6.098 7.072l2.214 3.966-7.214 2.934-7.214 2.935-.285 16.993c-.406 24.168-.214 24.515 10.585 19.121 12.181-6.086 25.858-9.754 41.2-11.05 8.953-.757 9.906-.002 7.713 6.116-3.868 10.792-.948 23.658 7.029 30.964l3.717 3.405-.29 21.718c-.335 25.108.552 32.994 4.649 41.328 10.108 20.562 39.486 18.75 49.576-3.058 1.958-4.23 2.128-6.55 2.414-32.921l.308-28.369 3.805-5.131c6.552-8.832 8.079-19.624 4.038-28.531l-1.996-4.401 10.768.6c9.291.517 24.334 3.434 25.928 5.027.284.285.035 17.765-.553 38.846-1.861 66.727-1.845 69.815.366 71.432 1.576 1.153 10.866 1.397 53.148 1.397 58.487 0 54.38.66 54.38-8.743 0-5.814-4.425-161.544-5.861-206.257-.451-14.025-.636-25.844-.412-26.263.556-1.042 14.41 8.631 21.064 14.708 6.745 6.159 11.773 12.813 36.683 48.555 20.676 29.666 24.018 34 26.223 34 1.776 0 2.538-.982 15.33-19.773l11.078-16.274 3.824 4.838c4.791 6.062 12.853 13.215 20.301 18.016 3.598 2.318 5.607 4.266 5.399 5.233-.609 2.825-40.418 61.649-43.207 63.843-7.821 6.151-10.947 4.855-35.205-14.602-11.395-9.139-20.8-16.661-20.901-16.715-.101-.055-.828-12.574-1.616-27.82-1.492-28.852-1.945-31.155-6.01-30.544-4.099.615-4.188 2.095-2.372 39.493 2.299 47.374 4.38 93.586 5.22 115.924.75 19.945.954 20.798 4.734 19.849 3.6-.904 3.57-.637 2.616-23.468-1.242-29.704-2.045-81-1.269-81 .366 0 2.964 1.951 5.773 4.336 2.809 2.385 6.458 5.175 8.108 6.201 1.65 1.025 6.893 4.928 11.651 8.673 13.885 10.929 21.178 12.639 31.922 7.485l5.572-2.672 36.067-54.262c19.837-29.843 36.566-55.791 37.177-57.66 2.856-8.74.392-18.875-6.545-26.929l-4.036-4.686-1.464-88.149-1.463-88.148-2.709-3.553c-5.94-7.787-18.297-6.013-21.771 3.125-.561 1.475-1.623 38.756-2.495 87.599l-1.519 85.031-2.193 1.528c-4.087 2.848-7.768 7.545-15.993 20.408-4.51 7.055-13.995 21.659-21.076 32.455l-12.876 19.628-2.124-2.499c-1.169-1.374-11.342-15.754-22.607-31.955-25.445-36.593-31.173-42.693-55.018-58.595-9.075-6.052-18.395-12.321-20.712-13.932l-4.212-2.929-.038-10.836-.038-10.836 5.891-5.8c3.241-3.191 7.079-7.827 8.53-10.303l2.639-4.503 6.829-.386c7.767-.438 12.175-2.798 16.201-8.671 3.428-5.001 4.006-17.899 1.097-24.476l-2.009-4.541 3.79-2.508c8.695-5.754 10.06-16.076 4.1-31.008-1.728-4.327-4.023-11.649-5.1-16.27-5.985-25.668-22.494-37.899-52.468-38.87-6.6-.214-14.682.034-17.961.55M210.5 54.328c-11.582 4.542-18.275 12.735-20.603 25.223-1.778 9.539-.634 41.759 1.696 47.735 8.204 21.048 36.71 32.805 56.589 23.339C264.308 142.946 273 126.919 273 104.862V94.145l-6.25-3.793c-8.221-4.99-18.053-14.982-24.23-24.627-6.384-9.968-11.24-12.765-21.966-12.649-3.88.042-8.404.605-10.054 1.252m5.5 36.435c-3.093 1.107-4.304 8.533-1.8 11.037 1.637 1.637 5.296 1.512 6.742-.23 3.122-3.762-.781-12.296-4.942-10.807m28.976 1.261C241.51 95.49 243.136 103 247.353 103c3.42 0 4.816-2.213 4.458-7.067-.389-5.275-3.621-7.123-6.835-3.909m-75.595 7.886c-11.176 6.814-4.73 27.015 8.264 25.899l3.594-.309-.172-12.931c-.095-7.112-.4-13.299-.679-13.75-.936-1.515-7.86-.829-11.007 1.091m112.286 9.82c-.345 6.473-.75 12.67-.898 13.77-.227 1.686.264 1.974 3.125 1.837 10.33-.497 14.017-18.12 5.106-24.408-6.378-4.501-6.639-4.188-7.333 8.801m-67.096 10.841c-2.048 2.049-1.99 2.627.6 5.92 6.893 8.762 27.752 8.779 34.636.028 4.317-5.489-.394-8.993-6.99-5.198-7.707 4.433-15.696 4.279-21.667-.417-2.942-2.315-4.516-2.395-6.579-.333m15.929 48.276c-17.726 2.613-18.005 2.692-18.296 5.193-.266 2.283 7.253 11.732 17.474 21.96 1.332 1.333 2.603.332 11.424-9l9.925-10.5-.264-4.921c-.145-2.707-.713-5.026-1.263-5.153-.55-.127-9.1.962-19 2.421m-28.555 18.971c-1.956 1.475-4.626 3.392-5.933 4.259l-2.377 1.578 3.609 6.422c4.115 7.322 11.461 17.423 12.671 17.423.447 0 4.021-3.027 7.943-6.727l7.13-6.727-8.7-9.523c-9.665-10.579-9.381-10.447-14.343-6.705m48.009 2.932c-3.015 3.162-7.051 7.479-8.968 9.591l-3.486 3.842 7.492 6.844c9.017 8.237 8.981 8.26 21.888-13.228l2.223-3.701-6.252-4.549c-7.631-5.553-6.342-5.673-12.897 1.201M170.5 209.255c-24.304 16.524-31.839 28.194-33.994 52.647-.702 7.962-.643 8.361 1.126 7.614 8.684-3.666 15.428-4.807 29.015-4.909l14.148-.107.589-10c.853-14.491 1.947-53.508 1.498-53.452-.21.027-5.782 3.72-12.382 8.207M191.637 220c-.331 5.775-.876 18.617-1.211 28.538l-.609 18.039 5.841 1.824c10.152 3.169 11.26 6.495 3.861 11.586-4.114 2.83-11.519 11.239-11.519 13.079 0 .429 1.688 1.325 3.75 1.992 2.063.667 5.447 2.066 7.521 3.109l3.772 1.896-.272 19.11c-.323 22.753-.524 23.17-8.917 18.517-2.787-1.545-5.268-2.609-5.513-2.365-.527.527-2.677 69.68-2.181 70.152 3.911 3.726 86.586 3.507 89.92-.238.361-.406.292-14.014-.155-30.239-1.457-52.934-4.082-136.173-4.761-151l-.664-14.5-4.411 5.926c-10.182 13.676-12.297 15.129-16.834 11.56-1.408-1.108-2.738-1.837-2.954-1.62-.374.373 7.008 114.237 8.253 127.298l.587 6.165-10.666 12.154c-5.867 6.684-11.271 12.385-12.01 12.669-2.175.834-3.728-.562-13.848-12.441L209 359.921l.04-6.21c.022-3.416 1.768-33.661 3.881-67.211 2.112-33.55 3.704-61.152 3.538-61.338-.166-.186-1.636.648-3.266 1.854-1.892 1.398-3.687 1.962-4.96 1.558-1.791-.569-10.133-10.214-14.364-16.609-1.574-2.38-1.651-2.102-2.232 8.035m230.438-.694c-4.978 1.735-4.703 2.649 2.463 8.18 9.35 7.219 11.241 12.107 7.512 19.416-3.443 6.75-13.052 9.121-18.174 4.486-4.196-3.797-1.236-7.963 4.918-6.923 2.839.48 4.196.252 5.117-.858 2.121-2.555.843-4.76-5.771-9.963l-6.361-5.003-1.797 2.383c-6.673 8.847-14.105 22.348-13.541 24.598 1.32 5.257 24.359 26.425 28.686 26.356 1.846-.029 22.751-31.774 24.576-37.318 4.69-14.247-12.976-30.46-27.628-25.354M48.5 297.132c-8.139.753-23.326 4.692-28.594 7.416L17 306.051v10.308c0 5.669.259 10.567.576 10.884.317.317 2.983-.525 5.923-1.871 15.998-7.324 30.982-8.886 83.001-8.653 11 .049 26.525.114 34.5.143 16.777.063 28.729 1.884 41 6.246 4.675 1.663 9.287 3.271 10.25 3.574 1.594.502 1.75-.43 1.75-10.464v-11.015l-7.25-2.622c-25.774-9.321-56.317-6.706-74.718 6.396-3.908 2.783-8.766 2.568-13.418-.593-13.194-8.966-31.182-13.005-50.114-11.252m34.95 29.275c-13.219 5.758-11.378 26.179 2.975 32.99 5.432 2.578 34.27 2.31 39.518-.368 13.856-7.068 15.491-26.297 2.729-32.091-5.299-2.406-39.983-2.813-45.222-.531m23.96 56.04c-9.399 1.769-17.836 3.503-18.75 3.853-2.034.781-2.405 23.109-.53 31.901 3.834 17.972 28.08 21.059 36.273 4.617 2.526-5.069 2.597-5.737 2.597-24.514 0-14.838-.289-19.277-1.25-19.189-.687.064-8.94 1.563-18.34 3.332M215 425.5v8.5h33v-17h-33v8.5" fill-rule="evenodd"/>
</svg>