<!DOCTYPE svg PUBLIC "-//W3C//DTD SVG 1.1//EN" "http://www.w3.org/Graphics/SVG/1.1/DTD/svg11.dtd">
<svg xmlns="http://www.w3.org/2000/svg" viewBox="0 0 445 429">
<path d="M396.733 28.509c-7.292 14.632-8.132 18.74-5.127 25.074 6.336 13.351 25.77 7.625 25.736-7.583-.009-3.754-11.976-31-13.616-31-.143 0-3.29 6.079-6.993 13.509m-48.662 70.189c-4.3 2.26-6.962 5.84-7.678 10.325-1.526 9.567 5.132 12.433 10.212 4.397 2.208-3.494 4.256-5.214 8.635-7.25 6.662-3.099 6.759-3.322 2.713-6.203-4.215-3.001-9.643-3.498-13.882-1.269m16.295 21.662-2.866 2.464V159.5h56v-18.224c0-24.679 2.368-22.685-27.41-23.077l-22.859-.302-2.865 2.463m10.84 18.89.294 7.25h35l.294-7.25.294-7.25h-36.176l.294 7.25m-55.838-4.766c-.925 2.411 1.545 4.516 5.3 4.516 6.134 0 8.332 3.418 8.332 12.955V160h14.058l-.279-13.25-.279-13.25-13.27-.279c-11.207-.236-13.362-.04-13.862 1.263M255 215.135v40.134l-9.184 9.366-9.184 9.365H191v127H227.763l14.167 7 14.166 7 75.702-.004c73.318-.003 75.803-.065 78.903-1.956 8.385-5.112 8.385-17.968 0-23.08-2.827-1.725-5.098-1.953-19.451-1.956L375 388v-15h22.54c20.199 0 22.925-.198 26.25-1.905 9.896-5.081 9.896-19.109 0-24.19-3.326-1.708-6.052-1.905-26.294-1.905h-22.584l.294-7.25.294-7.25 23.548-.5c25.525-.542 26.823-.821 30.595-6.579 2.288-3.491 2.074-10.983-.409-14.314-4.565-6.125-6.622-6.578-31.484-6.925l-22.75-.317V288h22.54c25.245 0 28.104-.632 31.846-7.04 3.936-6.74 1.369-15.479-5.596-19.055-3.539-1.817-6.783-1.905-70.211-1.905h-66.501l-2.039-2.189c-1.921-2.062-2.039-3.433-2.039-23.776 0-11.873-.474-25.401-1.053-30.061-2.203-17.737-11.133-28.881-23.197-28.952L255 175v40.135m66.455-37.68L319 179.909V245h98v-70H323.909l-2.454 2.455M21 337.5V415h155V260H21v77.5" fill-rule="evenodd"/>
</svg>