<!DOCTYPE svg PUBLIC "-//W3C//DTD SVG 1.1//EN" "http://www.w3.org/Graphics/SVG/1.1/DTD/svg11.dtd">
<svg xmlns="http://www.w3.org/2000/svg" viewBox="0 0 643 659">
<path fill="#070707" d="M83.105 40.583c-44.614 11.997-50.546 75.413-8.963 95.81 10.76 5.278 14.144 5.607 57.703 5.607h39.572l14.616 14.5c15.391 15.267 15.463 15.319 18.526 13.083 1.716-1.253 1.979-2.922 2.268-14.384l.327-12.966 7.173-1.736c18.022-4.36 31.009-16.541 37.154-34.845 9.096-27.096-7.236-57.566-34.723-64.782-9.611-2.523-124.421-2.77-133.653-.287m5.146 7.933C55.815 55.563 43.346 95.453 66.07 119.48c12.301 13.007 14.555 13.471 65.693 13.542 27.379.038 42.236.422 43.628 1.127 1.16.589 6.722 5.625 12.359 11.193L198 155.464l.015-9.482c.019-11.818.099-11.932 9.036-13.055 24.654-3.095 41.254-24.562 37.811-48.896C242.29 65.857 227.413 50.925 209 48.035c-10.325-1.62-112.958-1.211-120.749.481M81.5 58.502c-8.799 3.111-13.674 12.437-11.417 21.843 1.119 4.665 2.571 6.479 16.821 21.024 8.578 8.756 17.597 17.204 20.042 18.775 12.252 7.871 28.054-.697 28.054-15.211 0-6.736-2.187-9.699-20.774-28.146C93.617 56.333 91.298 55.038 81.5 58.502m52.524.474c-1.483 1.483-1.767 2.546-1.137 4.25.837 2.263.954 2.275 23.601 2.543 23.564.279 25.512-.013 25.512-3.82 0-4.58-1.83-4.949-24.571-4.949-20.011 0-21.56.131-23.405 1.976M82.888 67.5c-3.256 1.769-5.335 6.56-4.439 10.231C79.14 80.561 90.586 93 92.5 93c.582 0 3.858-2.825 7.28-6.278l6.222-6.278-6.251-6.109c-8.861-8.66-11.522-9.738-16.863-6.835m59.862 9.58c-2.009 1.17-2.318 4.952-.55 6.72 1.727 1.727 89.873 1.727 91.6 0 1.837-1.837 1.428-5.608-.734-6.765-2.626-1.405-87.899-1.362-90.316.045m135.703 1.246c-8.535 3.289-15.267 10.556-17.516 18.908-.624 2.316-.918 13.342-.737 27.636l.3 23.782 2.751 4.154c1.513 2.285 4.551 5.073 6.75 6.195l3.999 2.04V191h-53.341c-58.532 0-58.273-.023-67.768 6.07-8.809 5.653-16.891 19.48-16.891 28.898V229h-29.8c-21.844 0-30.12.32-31 1.2-1.745 1.745-1.745 308.855 0 310.6.875.875 8.612 1.2 28.552 1.2h27.353l-.303 5.25-.302 5.25-41.721.261c-49.604.31-44.142-2.155-43.633 19.691.338 14.487.478 15.382 3.015 19.215 5.354 8.09-22.807 7.375 279.178 7.088l269.514-.255 2.824-2.059c5.961-4.346 7.323-9.186 7.323-26.03 0-11.45-.328-15.438-1.339-16.277-.923-.766-14.209-1.193-42.75-1.373L521.5 552.5v-10l26.918-.267c17.815-.176 27.368-.64 28.25-1.372 1.982-1.645 1.982-309.077 0-310.722-.882-.732-10.435-1.196-28.25-1.372L521.5 228.5l-.605-8.5c-1.396-19.596-10.309-27.946-30.895-28.943l-11.5-.557-.5-19.181c-.558-21.396-1.04-22.982-8.071-26.567-4.24-2.162-16.115-2.438-17.795-.413-.766.923-1.193 14.209-1.373 42.75L450.5 228.5h-23.994l-2.093-6.5c-5.141-15.967-12.77-24.404-26.14-28.908-5.89-1.984-8.269-2.092-46.241-2.092H312v-10.683l5.717-2.924C328.459 171.899 331 164.532 331 138.88v-15.846l4.87-2.468c10-5.068 13.207-11.446 13.897-27.639.75-17.598 4.412-15.941-35.052-15.851-22.856.052-34.165.442-36.262 1.25m-125.214 17.34c-2.26.911-3.406 4.153-2.239 6.334 1.286 2.403 23.508 3.092 25.8.8 1.661-1.661 1.5-4.357-.371-6.229-1.543-1.542-19.836-2.256-23.19-.905m38 0c-2.26.911-3.406 4.153-2.239 6.334 1.477 2.76 44.343 3.155 45.393.418 1.123-2.925.62-5.341-1.327-6.383-1.944-1.04-39.342-1.37-41.827-.369m-39.342 20.217c-2.052 1.661-2.185 2.189-1.132 4.5l1.192 2.617h30.822c31.911 0 33.221-.163 33.221-4.129 0-4.676-1.298-4.871-32.461-4.871-27.218 0-29.484.135-31.642 1.883m145.649 8.351c-.85.476-1.546 1.536-1.546 2.356 0 2.448-3.79 9.115-5.57 9.799-.922.353-3.098-.257-4.911-1.377-4.852-2.999-10.033-2.652-13.596.911-5.819 5.819-2.842 13.845 6.077 16.383l4.5 1.28.272 19.942.272 19.941 4.186 4.265c5.229 5.329 5.588 5.313 11.172-.484 4.399-4.568 4.575-4.982 4.586-10.793l.012-6.042-4.425-1.184c-4.854-1.298-6.429-3.766-4.594-7.196 1.013-1.892 1.707-1.994 9.521-1.393 9.641.741 14.286-1.497 17.104-8.242 2.473-5.918 1.971-38.082-.606-38.9-2.813-.893-20.585-.311-22.454.734m162.121 28.433c-.367.366-.667 19.716-.667 43V238h53v-12.05c0-21.146-4.796-25.993-25.89-26.168-17.689-.147-16.11 2.06-16.11-22.527 0-23.517-.44-25.255-6.39-25.255-1.802 0-3.577.3-3.943.667m-291.668 47.548c-5.612.955-12.041 4.848-16.381 9.919-6.97 8.142-6.691 3.709-6.389 101.438l.271 87.928 2.243 5.5c3.227 7.914 8.886 14.892 15.906 19.611 6.98 4.692 128.754 46.164 129.936 44.251 1.251-2.024 17.365-51.245 16.922-51.689-.255-.254-24.435-8.834-53.735-19.067L203.5 379.5l-.259-54.887c-.276-58.647-.329-57.995 4.673-57.414l2.586.301.259 52.22c.24 48.457.384 52.285 2 53.139 1.953 1.032 73.614 26.141 74.606 26.141.349 0 .635-13.856.635-30.791v-30.792l-9.919-30.958a42001.85 42001.85 0 0 0-20-62.215c-5.545-17.191-10.095-31.591-10.111-32-.017-.409-.561.156-1.209 1.256-.79 1.341-1.313 10.416-1.585 27.529l-.406 25.529 4.959 3.083c15.764 9.799 10.235 33.095-8.099 34.123-20.655 1.159-27.559-25.714-9.017-35.098l3.113-1.576.607-25.295c.335-13.912 1.205-29.008 1.934-33.545.896-5.574.987-8.261.28-8.284-14.148-.457-67.502-.269-70.548.249m86.079-.215c-.767.522 24.413 79.891 25.779 81.257 1.723 1.723 3.931-52.386 2.306-56.523-1.123-2.861-1.896-3.645-3.081-3.124-5.967 2.621-7.81 1.871-11.016-4.48-3.402-6.739-3.774-9.297-1.614-11.09 2.219-1.842 4.81-.854 7.035 2.683 2.363 3.757 2.679 3.82 7.66 1.527 4.695-2.161 4.697-2.02-.068-6.673l-3.921-3.829-11.172-.124c-6.145-.068-11.504.101-11.908.376m51.172 3.377c-5.142 4.691-5.155 4.821-.716 6.938 4.962 2.366 5.872 2.153 7.765-1.815 1.758-3.687 5.092-4.709 7.501-2.3 1.873 1.873 1.446 4.369-1.866 10.93-3.328 6.594-2.513 6.255-11.309 4.701-4.204-.742-4.748 5.061-3.049 32.538.854 13.822 1.779 25.806 2.055 26.631.345 1.03 27.078-77.838 27.351-80.689.01-.105-5.27-.33-11.732-.5l-11.75-.311-4.25 3.877m59-3.606c-11.137.149-20.25.43-20.25.625s1.171 2.999 2.602 6.23c4.519 10.204 6.594 19.976 7.267 34.228l.631 13.353 4.919 1.864c9.597 3.637 12.978 8.438 19.314 27.429 6.457 19.353 6.382 22.166-.796 29.952-2.165 2.35-3.937 4.744-3.937 5.321 0 2.045-6.14 6.227-9.142 6.227-9.724 0-14.692-11.32-7.935-18.077 3.324-3.324 9.261-4.007 12.636-1.455 2.689 2.034 3.035 1.927 4.397-1.361 1.959-4.73-6.809-30.771-12.103-35.946-7.76-7.587-21.48-5.665-26.253 3.677-2.343 4.586-9.6 26.755-9.6 29.327 0 4.756 2.369 6.619 5.83 4.585 6.433-3.78 14.183-.999 16.023 5.75 2.859 10.479-9.767 18.087-17.011 10.25a696.224 696.224 0 0 0-7.825-8.258c-7.369-7.653-7.539-10.913-1.504-28.834 6.927-20.571 9.554-24.472 19.05-28.297l4.619-1.861-.417-13c-.418-13.075-3.861-30.177-5.829-28.96-.467.288-5.405 14.572-10.974 31.742a33492.438 33492.438 0 0 1-20.543 63.084L297 339.233v31.348c0 28.835.14 31.423 1.75 32.279 3.012 1.602 33.87 12.143 35.347 12.075.771-.036 4.292-3.411 7.822-7.5 7.156-8.288 7.951-8.548 15.091-4.93 7.306 3.702 10.561 12.713 6.522 18.054-2.538 3.355-1.752 4.137 6.861 6.822 8.416 2.624 11.66 4.841 16.301 11.141l2.195 2.978.055-86.731.056-86.731 2.513-.631c5.466-1.371 5.486-1.238 5.502 36.965.017 39.221.58 43.162 8.069 56.431 22.762 40.332 80.536 38.976 101.231-2.374 5.482-10.955 5.685-13.253 5.685-64.34v-47.122l-26.25.266-26.25.267-.26 45.91c-.273 48.201-.312 48.59-4.803 48.59-3.134 0-1.418 4.927-20.947-60.158-20.475-68.241-20.134-67.3-26.609-73.356-8.849-8.278-12.931-9.112-42.631-8.715M83 385.5V533h487V238h-49.11l.305 4.75.305 4.75 17.956.274c12.831.196 18.178.624 18.734 1.5.908 1.428 1.107 269.788.203 272.144-.801 2.089-462.107 2.468-464.193.382-1.856-1.856-1.731-271.114.126-272.656.841-.698 8.616-1.2 21.25-1.372l19.924-.272.305-4.75.305-4.75H83v147.5m347.4-145.044c1.959 7.807 1.717 7.651 11.34 7.333l8.76-.289.305-4.75.305-4.75H429.783l.617 2.456M344.934 417.5c-7.337 8.618-7.767 8.735-18.201 4.972-3.855-1.391-7.118-2.403-7.251-2.25-.644.74-17.474 52.12-17.172 52.422.831.83 53.298 18.356 54.954 18.356 3.378 0 7.716-3.015 9.098-6.324.753-1.802 4.134-11.021 7.513-20.487 8.377-23.466 8.42-23.36-12.375-30.115-12.992-4.221-13.925-5.689-8.564-13.481C356.97 414.73 356.43 410 351.725 410c-.223 0-3.279 3.375-6.791 7.5m-166.435 24.335c-.275.274-.499 16.623-.499 36.332V514h110.045l-.272-18.131-.273-18.131-54.251-18.201c-29.838-10.011-54.476-17.977-54.75-17.702m202.097 29.915c-7.476 20.564-10.311 24.949-17.53 27.112-6.131 1.837-7.295 1.575-36.768-8.263-15.49-5.17-28.419-9.145-28.731-8.833-.312.312-.567 7.692-.567 16.401V514h92v-30.5c0-16.775-.357-30.5-.794-30.5-.436 0-3.861 8.438-7.61 18.75M207 546.996V552h239.11l-.305-4.75-.305-4.75-119.25-.254-119.25-.254v5.004m67 16.802c0 1.264 1.191 3.401 2.646 4.75l2.646 2.452h93.862l2.923-2.923c6.302-6.302 8.056-6.069-46.327-6.154-27.087-.042-50.713-.155-52.5-.25-2.774-.148-3.25.164-3.25 2.125" fill-rule="evenodd"/>
</svg>