<!DOCTYPE svg PUBLIC "-//W3C//DTD SVG 1.1//EN" "http://www.w3.org/Graphics/SVG/1.1/DTD/svg11.dtd">
<svg xmlns="http://www.w3.org/2000/svg" viewBox="0 0 720 487">
<path fill="#060606" d="M341 31.419c-28.422 5.965-52.962 29.218-58.463 55.396-3.407 16.215-1.506 25.431 6.871 33.314L294 124.45v9.118c0 13.999 4.914 21.052 15.981 22.932 3.119.53 3.831 1.264 6.258 6.446 1.506 3.216 5.218 8.47 8.25 11.676L330 180.45v13.361l-6.75 4.944c-10.136 7.424-17.706 12.361-28.474 18.568l-9.725 5.607-6.539-.611-6.54-.611-6.083 6.083c-5.957 5.957-6.075 6.181-5.743 10.896.29 4.098-.138 5.503-2.875 9.453-7.263 10.481-14.783 29.244-28.599 71.36-22.958 69.988-25.293 90.575-11.667 102.885l3.766 3.402-.136 11.857c-.151 13.287 1.025 16.88 7.527 22.994 7.904 7.431-1.249 6.862 110.411 6.862h100.073l3.944-2.61c2.17-1.436 4.837-4.28 5.927-6.321 1.292-2.416 4.069-4.98 7.964-7.352 14.853-9.045 35.993-28.691 44.237-41.112 14.605-22.002 15.878-48.209 3.726-76.697-24.661-57.811-48.478-91.11-77.47-108.308-14.002-8.307-33.558-21.191-42.224-27.819-5.607-4.288-5.75-4.519-5.75-9.254 0-4.639.213-5.013 4.759-8.35 5.87-4.309 10.319-9.752 13.841-16.935 2.58-5.26 2.917-5.539 8.053-6.689 10.549-2.361 14.331-8.723 14.341-24.125.005-7.643.335-9.18 3.039-14.174 5.235-9.664 7.426-27.683 4.858-39.955-3.563-17.033-17.526-29.636-37.283-33.654-6.794-1.382-8.541-2.159-10.917-4.855-6.898-7.829-23.144-11.135-38.691-7.871m31.53 49.613c-7.037 21.665-24.236 38.355-44.865 43.537l-6.815 1.712.325 13.109c.367 14.823 2.261 20.659 9.192 28.331 13.332 14.757 40.352 14.75 53.216-.013 8.021-9.206 8.877-12.585 9.238-36.457.414-27.402-2.359-37.325-14.185-50.766l-4.331-4.921-1.775 5.468M303 134.444c0 8.012 2.077 12.088 6.5 12.755 1.874.282 2.018-.343 2.285-9.949l.285-10.25H303v7.444m38.2-5.244c-1.554 1.554-1.554 9.046 0 10.6 3.252 3.252 7.8.589 7.8-4.566 0-6.234-4.285-9.549-7.8-6.034m25 0c-1.554 1.554-1.554 9.046 0 10.6 3.477 3.477 7.8.54 7.8-5.3 0-4.554-1.347-6.5-4.5-6.5-1.155 0-2.64.54-3.3 1.2m39.8 3.297-3.5 1.259-.295 7.204c-.331 8.065 1.46 8.996 6.545 3.403 2.206-2.427 3.467-13.557 1.5-13.244-.413.066-2.325.686-4.25 1.378m-65.989 23.99c-2.957 3.563 1.407 8.911 9.385 11.5 10.77 3.496 27.278-3.138 25.076-10.077-.986-3.105-4.146-3.217-10.003-.351-6.388 3.125-11.918 2.964-16.582-.484-3.305-2.444-6.159-2.657-7.876-.588m15.04 35.655c-7.397 1.608-13.641 3.115-13.876 3.35-.549.548 12.813 15.508 13.851 15.508 1.763 0 16.012-17.573 15.748-19.422-.386-2.705-.735-2.692-15.723.564m-28.199 14.889-6.648 5.023 1.448 5.723c2.755 10.885 4.51 15.375 5.812 14.875.692-.266 5.551-3.558 10.798-7.317 10.889-7.802 10.781-6.621 1.514-16.58l-6.276-6.746-6.648 5.022m41.773 3.085c-3.782 4.381-6.707 8.119-6.5 8.306 1.902 1.72 20.281 14.578 20.838 14.578.868 0 6.037-16.835 6.037-19.664 0-1.564-11.905-11.677-13.258-11.262-.133.041-3.336 3.66-7.117 8.042m-60.875 9.516c-4.613 2.949-4.659 1.891.727 16.751 11.49 31.699 26.548 59.36 41.106 75.511l4.861 5.394 4.863-5.394c11.386-12.63 25.352-36.821 35.443-61.394 5.126-12.483 10.715-28.452 10.103-28.866-5.924-4.012-7.846-4.472-7.868-1.884-.052 6.255-13.048 38.238-22.169 54.561C363.983 293.698 358.055 302 355.047 302c-6.725 0-31.81-46.435-40.026-74.093-3.631-12.22-2.721-11.184-7.271-8.275m101.893 17.789c-11.439 33.117-29.078 65.135-45.671 82.902-8.948 9.582-10.391 9.785-17.235 2.427-17.922-19.268-34.628-49.038-47.279-84.25-2.556-7.114-3.677-9.067-5.35-9.32-3.363-.509-3.581 2.376-.669 8.863 6.981 15.556 7.868 22.03 8.322 60.719.41 34.935.434 35.272 2.577 36.372 1.189.611 3.287 2.128 4.662 3.371 1.724 1.559 4.186 2.412 7.935 2.749 19.132 1.718 17.863 34.746-1.336 34.746H313v13.435c0 21.677-4.551 27.543-21.38 27.559l-5.88.006.498 4.418c.755 6.696 3.973 11.047 10.564 14.284l5.698 2.798 47.663.303 47.663.303.337-16.383c.451-21.947 2.752-25.49 17.316-26.662l6.978-.561-.303-12.5c-.167-6.875-.904-31.134-1.636-53.91-1.438-44.68-1.48-43.81 2.177-44.728 4.665-1.171 5.503 1.091 6.04 16.297l.488 13.841 4.307 4.5c13.214 13.808 24.973 33.218 26.074 43.036 1.516 13.52-7.279 30.789-14.512 28.493-3.492-1.108-2.775-8.529.824-8.529 1.725 0 4.997-12.014 5.039-18.5.045-7.03-8.655-22.204-17.487-30.5l-3.726-3.5.664 27.435c.935 38.665.941 38.705 5.554 39.443 11.586 1.852 15.282 8.87 15.998 30.379l.542 16.275 4-2.691c21.383-14.386 38.415-34.11 44.114-51.085 7.101-21.154 3.631-37.746-16.18-77.366-24.359-48.718-36.93-64.105-67.561-82.699l-3.626-2.202-3.604 10.432m-72.134-1.368c-3.845 2.691-7.128 5.305-7.297 5.81-.168.504 1.78 5.579 4.329 11.277 4.478 10.013 6.459 13.452 6.459 11.215 0-.575.925-7.903 2.055-16.284 1.131-8.382 1.918-15.615 1.75-16.075-.168-.46-3.451 1.365-7.296 4.057m27.49-2.358c-.003 4.288 3.4 32.305 3.924 32.301.317-.003 2.937-5.25 5.821-11.66 4.86-10.799 5.117-11.747 3.5-12.905-.959-.687-4.331-3.115-7.494-5.395-4.68-3.374-5.75-3.81-5.751-2.341m-101.145 20.406c-11.864 18.106-46.868 125.824-46.848 144.167.014 13.709 6.763 21.732 18.28 21.732 8.723 0 22.561-5.667 30.437-12.465l4.222-3.644-3.621-3.18c-5.648-4.959-6.324-7.65-6.324-25.179 0-8.543-.357-15.532-.793-15.532-.436 0-4.516 3.15-9.066 7-8.378 7.088-10.926 8.169-13.095 5.555-2.474-2.98-.536-5.912 9.954-15.057 5.775-5.035 12.3-11.404 14.5-14.154 2.2-2.75 5.462-5.981 7.25-7.181l3.25-2.181-.008-29.741c-.008-31.537-.754-39.758-4.325-47.655l-2.222-4.915-1.591 2.43m11.534 88.837c-5.885 2.496-6.388 4.604-6.388 26.774v20.442l2.837 2.837c3.416 3.416 9.007 4.475 19.929 3.774 12.251-.787 12.234-.749 12.234-27.71 0-27.867.795-26.462-15.16-26.784-6.237-.126-12.29.174-13.452.667M313 358.5c0 9.375 1.141 10.635 6.039 6.669 4.933-3.994 2.211-15.169-3.694-15.169-2.276 0-2.345.25-2.345 8.5m96.482 48.927-2.588 2.588.303 22.583c.377 28.073-.698 26.402 16.991 26.402 11.892 0 11.984-.018 14.889-2.923l2.923-2.923v-21.021c0-27.521.665-26.488-17.376-26.964-12.372-.326-12.591-.293-15.142 2.258" fill-rule="evenodd"/>
</svg>