<!DOCTYPE svg PUBLIC "-//W3C//DTD SVG 1.1//EN" "http://www.w3.org/Graphics/SVG/1.1/DTD/svg11.dtd">
<svg xmlns="http://www.w3.org/2000/svg" viewBox="0 0 353 417">
<path d="M163 7.879C153.895 10.868 61.018 51.76 59.012 53.662 54.802 57.654 57.34 59.699 76 67.354c4.675 1.918 11.088 4.642 14.25 6.054L96 75.975l-.064 16.762c-.103 26.895-1.242 39.894-3.728 42.548-7.893 8.426-3.245 40.964 6.588 46.116 1.487.779 3.69 4.3 6.114 9.771 19.897 44.908 54.865 67.814 84.869 55.594 21.445-8.733 41.07-30.384 51.77-57.112 1.515-3.784 3.629-7.196 5.025-8.111 9.538-6.249 14.366-41.636 6.356-46.586-1.78-1.1-3.994-27.039-3.706-43.432L249.5 75.8l17-7.304c18.586-7.985 21.5-9.67 21.5-12.428 0-2.779-.803-3.167-55-26.564L182.5 7.703 174 7.38c-4.675-.177-9.625.047-11 .499M69.136 67.635c-.075 1.174-1.261 2.872-2.636 3.773-3.105 2.035-3.274 5.818-.389 8.703l2.111 2.111-2.307 33.223c-2.464 35.472-2.337 38.569 1.973 48.055l1.817 4 1.71-4c4.99-11.675 5.015-14.474.641-70.462-.838-10.729-.773-11.548 1.024-12.807C76.36 77.934 74.745 70 70.998 70c-.472 0-1.054-1.013-1.292-2.25-.418-2.166-.439-2.171-.57-.115m43.85 189.975c-13.975 9.775-26.383 14.538-54.486 20.916-29.323 6.654-35.559 10.766-41.906 27.628-4.79 12.726-8.522 51.756-6.155 64.373 2.322 12.376 27.394 25.947 61.874 33.492 106.995 23.413 256.594 3.007 263.166-35.896 1.764-10.437-2.222-48.402-6.32-60.21-6.357-18.317-12.521-22.589-42.513-29.466-30.183-6.921-41.575-11.414-56.679-22.356-2.379-1.723-4.621-2.786-4.983-2.362-.363.424-8.035 16.634-17.05 36.021S191.227 325 190.84 325c-1.527 0-8.913-25.904-7.906-27.727.539-.975 2.575-5.565 4.523-10.199 6.525-15.519 5.096-17.437-13.311-17.874-14.254-.339-19.335 1.104-19.982 5.673-.279 1.972 4.051 14.206 8.061 22.778 1.235 2.638-6.815 28.159-8.386 26.588-.515-.515-8.151-16.417-16.968-35.338-8.818-18.92-16.339-34.722-16.715-35.115-.376-.392-3.602 1.328-7.17 3.824" fill-rule="evenodd"/>
</svg>