<!DOCTYPE svg PUBLIC "-//W3C//DTD SVG 1.1//EN" "http://www.w3.org/Graphics/SVG/1.1/DTD/svg11.dtd">
<svg xmlns="http://www.w3.org/2000/svg" viewBox="0 0 481 342">
<path fill="#050505" d="M65.734 17.045C32.275 25.31 37.182 73.34 71.5 73.473c26.011.1 38.268-31.143 19.401-49.453-5.972-5.796-17.267-8.926-25.167-6.975m324-.007C363.013 23.691 359.2 59.821 384 71.374c9.986 4.653 23.381 2.252 31.872-5.711 12.461-11.686 10.487-34.765-3.797-44.391-5.935-4-15.784-5.867-22.341-4.234M222.46 49.977c-29.979 11.932-21.247 57.523 11.004 57.452 38.34-.085 40.305-57.07 2.036-59.045-6.361-.328-9.032-.002-13.04 1.593M50.003 83.25c.012 4.634 10.459 20.841 15.363 23.831 9.368 5.713 21.444-4.469 27.078-22.831l.691-2.25H71.567c-16.588 0-21.566.289-21.564 1.25M374 82.522c0 .287 1.309 3.409 2.909 6.937 11.216 24.738 24.729 26.001 36.056 3.371C418.845 81.081 420.327 82 395.5 82c-11.825 0-21.5.235-21.5.522M34.672 85.108C22.071 91.756 13.343 109.276 9.318 136c-1.723 11.439-2.429 54.499-1.005 61.298 1.478 7.058 9.925 9.897 15.497 5.208l2.963-2.493.482-27.757c.483-27.874 1.525-37.787 5.357-50.988 2.645-9.11 3.386-7.175 3.418 8.923.034 16.678.467 17.121 4.139 4.222 3.583-12.584 3.231-51.504-.464-51.369-.663.025-2.928.953-5.033 2.064m66.614.642c-1.653 6.049-.884 38.362 1.101 46.25 3.724 14.798 4.52 14.283 4.644-3l.11-15.5 1.939 4.369c1.067 2.403 2.656 8.253 3.532 13 .876 4.747 1.736 9.137 1.911 9.756.432 1.528 4.885 2.071 12.837 1.565 7.893-.503 7.739.02 4.571-15.533-4.274-20.983-12.945-35.976-24.141-41.745-4.886-2.518-5.612-2.424-6.504.838m258.159-.741c-8.354 4.135-16.708 15.739-20.873 28.991-2.644 8.413-5.843 25.753-5.002 27.113.301.488 4.776.887 9.944.887h9.395l.647-3.75c1.087-6.307 4.415-19.092 5.715-21.956 1.056-2.325 1.3-.528 1.729 12.749l.5 15.457 1.771-5.5c2.892-8.984 3.893-17.65 3.814-33-.123-23.788-.408-24.571-7.64-20.991m66.199 1.241c-2.382 13.382-1.471 36.564 1.976 50.288 2.122 8.449 2.318 8.028 2.493-5.37.225-17.244.912-19.281 3.671-10.876 4.174 12.715 5.419 23.683 5.945 52.39.563 30.744.603 30.886 8.923 31.995 9.078 1.211 11.028-3.596 11.273-27.798.514-50.57-9.144-83.029-27.322-91.829-5.63-2.726-6.28-2.613-6.959 1.2m-219.199 27.742c-7.399 1.086-13.122 4.029-20.445 10.512-19.3 17.087-31.471 21.484-59.5 21.495-15.828.006-21.719 3.69-20.058 12.543 1.329 7.086 3.559 7.727 25.058 7.21 29.628-.712 44.823-5.984 63.355-21.979 1.845-1.593 3.645-2.607 4-2.254.355.353.87 8.59 1.145 18.305l.5 17.663 14.5 2.241c30.059 4.646 48.461 7.272 50.938 7.268l2.562-.005v-21.745c0-11.96.149-22.279.332-22.931.19-.678 3.758 1.355 8.334 4.748C297.727 162.308 310.154 166 340.905 166h14.917l2.589-3.077c4.482-5.326 2.619-13.671-3.53-15.815-1.749-.609-8.4-1.116-14.78-1.126-26.777-.041-39.028-4.413-57.101-20.375-8.118-7.17-13.994-10.238-22.138-11.56-7.144-1.159-46.627-1.199-54.417-.055m-104.306 58.502c-19.222 17.365-8.604 48.802 17.361 51.405l6 .601.5 38c.532 40.409.532 40.414 5.629 44.422 2.592 2.04 3.544 2.078 51.766 2.078h49.125l4.256-12.25c2.341-6.738 4.249-12.583 4.24-12.99-.009-.406-19.929-.856-44.266-1l-44.25-.26-.5-47.5c-.561-53.283-.564-53.308-8.47-60.971l-3.336-3.234-14.347-.259c-7.891-.142-15.536-.589-16.988-.993-2.184-.607-3.348-.096-6.72 2.951m252.862-2.371c-1.374.548-8.311.883-15.416.744l-12.917-.253-3.824 4.44c-7.321 8.501-7.242 7.891-7.824 60.446l-.52 47-15.737.275-15.738.276-.587 2.724c-.82 3.801-5.144 19.355-5.97 21.475-1.002 2.572 54.119 2.698 58.46.134 5.6-3.309 5.532-2.81 6.072-44.384l.5-38.5 6-.532c11.1-.983 20.376-7.311 24.874-16.968 7.701-16.533-4.333-42.077-17.373-36.877m-202.751 1.59c-3.891.495-3.833-.008-.655 5.678 5.141 9.198 5.38 11.766 5.393 57.859L157 278h43c37.556 0 43-.19 43-1.5 0-1.307-4.927-1.5-38.345-1.5-42.976 0-40.702.399-42.098-7.378-1.117-6.227.472-28.508 2.154-30.19 1.149-1.149 5.513-1.435 22.11-1.447l20.679-.015-7.996-4.012c-16.789-8.424-27.1-24.298-25.128-38.684 1.169-8.526 8.174-15.865 16.423-17.206 2.822-.459 3.701-1.073 3.701-2.585 0-1.906-.756-1.987-19.5-2.083-10.725-.055-20.963.086-22.75.313m121.499-.129c-.412.412-.749 4.234-.749 8.493v7.745l4.527 2.191c12.102 5.859 14.284 20.486 4.569 30.64-1.659 1.735-3.588 3.344-4.287 3.577-.968.323-.814 1.471.651 4.847 3.053 7.035 2.833 6.923 13.627 6.923 12.384 0 11.913-.786 11.913 19.863 0 19.625.295 19.137-11.571 19.137-6.826 0-8.429.285-8.429 1.5 0 1.256 2.111 1.5 13 1.5h13l.012-42.75c.013-46.268.265-48.928 5.489-57.842 1.472-2.511 2.374-4.867 2.005-5.237-.939-.941-42.84-1.503-43.757-.587M29.212 239.75c-4.002 36.163-7.262 66.882-7.244 68.266.133 10.374 13.79 17.17 23.532 11.709 7.329-4.109 6.338 1.154 16.042-85.225 5.509-49.038 4.54-44.5 9.498-44.5 3.21 0 4.187.446 4.93 2.25.51 1.238 3.882 28.545 7.493 60.683 5.032 44.779 6.972 59.125 8.302 61.395 5.441 9.291 17.973 10.29 25.24 2.014 3.393-3.865 3.742-6.975 1.495-13.342-1.003-2.843-1.5-8.098-1.5-15.863 0-9.803-3.131-46.834-4.546-53.776-.263-1.288-1.487-2.403-3.073-2.802-3.978-.998-12.469-6.749-16.133-10.926-10.44-11.901-12.098-27.074-4.794-43.883.713-1.642-.872-1.75-25.603-1.75H36.487l-7.275 65.75M378 174.523c0 .306.93 2.38 2.067 4.609 8.956 17.554-1.24 43.576-19.762 50.442-2.643.979-4.94 1.874-5.106 1.987-1.022.703-5.194 43.026-5.218 52.939-.016 6.6-.514 13.8-1.107 16-2.212 8.204-2.153 10.812.324 14.476 4.774 7.063 14.514 8.711 21.94 3.712 6.077-4.09 4.887 2.642 14.827-83.93 2.699-23.508 5.188-43.196 5.53-43.75.902-1.459 8.482-1.256 9.002.242.24.688 3.415 27.575 7.057 59.75 4.865 42.98 7.106 59.611 8.449 62.687 5.16 11.816 24.461 10.511 28.181-1.907 1.084-3.618.743-8.652-2.588-38.223-2.111-18.731-4.203-37.432-4.65-41.557-.448-4.125-1.298-11.55-1.89-16.5a2976.638 2976.638 0 0 1-3.925-35l-.631-6-26.25-.267c-14.437-.146-26.25-.016-26.25.29m-190.726 7.57c-12.405 6.141-10.672 25.31 2.61 28.872 4.437 1.19 76.784 12.035 80.285 12.035 13.055 0 19.788-17.787 10.315-27.248-3.662-3.656-4.338-3.803-46.763-10.204-41.969-6.331-40.81-6.245-46.447-3.455M183 212.021c0 1.062 5.39 7.436 9 10.643 7.029 6.244 22.643 11.286 35.054 11.319 22.6.06 27.9 23.514 14.344 63.487-4.979 14.683-5.231 17.178-2.338 23.154 3.652 7.545 12.437 10.25 20.541 6.327 5.121-2.479 6.573-4.576 10.444-15.072 12.39-33.604 13.888-60.362 4.491-80.207l-2.45-5.172-40.293-5.884c-24.429-3.568-41.966-6.597-44.543-7.694-2.338-.995-4.25-1.401-4.25-.901M139 317v3h14v-6h-14v3m174.184-.25c.311 2.707.437 2.755 8.066 3.042l7.75.292V314H312.867l.317 2.75" fill-rule="evenodd"/>
</svg>