<!DOCTYPE svg PUBLIC "-//W3C//DTD SVG 1.1//EN" "http://www.w3.org/Graphics/SVG/1.1/DTD/svg11.dtd">
<svg xmlns="http://www.w3.org/2000/svg" viewBox="0 0 720 542">
<path fill="#050505" d="M334 24.517c-94.208 11.666-171.319 79.692-193.34 170.563-8.861 36.567-8.314 78.878 1.471 113.725 10.977 39.09 29.348 70.51 58.369 99.828 75.59 76.362 195.944 88.397 285.5 28.549 45.786-30.598 77.864-74.94 92.869-128.377 11.13-39.64 10.22-87.727-2.42-127.805C544.02 78.172 440.463 11.334 334 24.517m.597 20.622c-112.1 14.384-192.617 118.136-178.029 229.403 10.444 79.661 63.395 144.061 139.298 169.416 14.574 4.869 18.425 5 4.941.169-61.014-21.861-108.847-75.748-124.799-140.595C146.277 182.676 232.523 64.526 357.5 54.899c53.93-4.154 111.876 15.962 149.873 52.027 3.765 3.574 5.234 4.565 4.094 2.762-2.477-3.917-19.056-18.53-30.683-27.044-26.134-19.137-59.115-32.472-91.802-37.118-11.559-1.642-42.865-1.866-54.385-.387M349 77.09c-50.468 6.496-95.395 36.306-114.82 76.183-5.186 10.649-5.592 12.172-3.732 14.033 2.689 2.689 5.144.75 14.687-11.596 34.977-45.255 72.899-67.13 126.62-73.038 9.162-1.008 10.772-1.452 11.08-3.056.199-1.032-.245-2.261-.987-2.731-1.677-1.063-24.082-.923-32.848.205m-26.073 47.941c-.039.258-.827 8.073-1.75 17.368l-1.677 16.898-15.669 8.142-15.669 8.142 16.169 7.008 16.169 7.008 2.676 15.452c1.472 8.498 2.822 16.3 3 17.338.248 1.442 2.065-.089 7.713-6.5 4.063-4.613 9.369-10.525 11.79-13.137l4.402-4.751 16.637 2.489c9.151 1.37 16.808 2.32 17.015 2.112.208-.208-3.558-7.017-8.37-15.131l-8.748-14.753 7.62-15.097c4.19-8.304 7.434-15.284 7.207-15.51-.227-.227-7.731 1.197-16.677 3.164L348.5 148.85l-6.5-6.179c-3.575-3.399-9.312-8.863-12.75-12.144-3.437-3.28-6.283-5.753-6.323-5.496m120.727 43.695c-.273.975-1.05 8.634-1.726 17.019l-1.231 15.244-14.598 7.584c-8.03 4.171-14.936 7.908-15.349 8.305-.412.397 6.338 3.849 15 7.672l15.75 6.95 2.676 15.5c1.472 8.525 2.822 16.334 3 17.354.237 1.356 3.41-1.659 11.824-11.238 6.325-7.201 12.025-13.097 12.667-13.104.642-.007 8.268 1.1 16.946 2.459s15.932 2.318 16.119 2.131c.187-.187-3.539-7.037-8.279-15.221l-8.619-14.881 7.636-15.364c4.199-8.45 7.499-15.481 7.333-15.624-.167-.144-7.82 1.4-17.007 3.43l-16.703 3.691-8.797-8.889c-12.287-12.416-15.998-15.32-16.642-13.018m-90.557 62.439c-.662 6.784-1.462 14.662-1.778 17.506l-.576 5.171-14.871 7.691c-8.18 4.231-14.872 8.026-14.872 8.434 0 .408 6.934 3.773 15.409 7.477l15.409 6.736.994 5.66c.547 3.113 1.8 10.723 2.785 16.91.985 6.188 2.08 11.25 2.434 11.25.353 0 5.554-5.623 11.556-12.496 12.571-14.394 9.643-13.439 30.913-10.075 8.25 1.306 15.088 2.292 15.196 2.193.108-.1-3.777-6.907-8.633-15.127l-8.83-14.947 7.596-15.228c4.178-8.376 7.387-15.437 7.132-15.692-.255-.255-8.022 1.158-17.261 3.14l-16.798 3.604-12.301-12.271L354.3 218.83l-1.203 12.335m-101.479 35.523c-.322 2.646-1.071 10.212-1.664 16.812-1.259 14.005.434 11.983-18.105 21.614-11.37 5.906-13.63 7.429-12.208 8.225.96.537 7.833 3.615 15.274 6.841 7.441 3.226 13.852 6.192 14.247 6.592.394.401 1.906 7.703 3.359 16.228 1.453 8.525 2.821 16.077 3.041 16.782.22.706 5.614-4.582 11.986-11.751 11.492-12.928 11.615-13.029 15.269-12.497 2.025.295 9.509 1.407 16.629 2.472 7.121 1.064 13.142 1.739 13.38 1.501.239-.239-3.449-6.982-8.194-14.985l-8.629-14.551 7.951-15.88c5.761-11.505 7.483-15.766 6.249-15.469-.937.225-8.678 1.962-17.203 3.858l-15.5 3.45-10.5-10.258c-15.711-15.349-14.679-14.746-15.382-8.984m132.481 61.062c-.685 8.663-1.457 16.507-1.717 17.431-.268.952-6.962 5.006-15.429 9.343-8.226 4.214-14.75 7.996-14.497 8.404.252.408 7.245 3.62 15.54 7.136 11.393 4.831 15.19 6.888 15.528 8.415.245 1.112 1.618 8.771 3.049 17.021 1.432 8.25 2.72 15.119 2.863 15.265.143.145 3.541-3.455 7.551-8 4.009-4.546 9.206-10.333 11.547-12.861l4.258-4.595 16.317 2.357c8.975 1.297 16.68 2.238 17.122 2.09.443-.147-3.029-6.774-7.713-14.726-4.685-7.952-8.518-14.817-8.518-15.257 0-.439 3.378-7.542 7.506-15.785 4.129-8.244 7.041-14.988 6.472-14.988-.568 0-8.283 1.619-17.143 3.598l-16.11 3.598-12.127-12.098c-6.67-6.654-12.381-12.098-12.691-12.098-.31 0-1.124 7.087-1.808 15.75" fill-rule="evenodd"/>
</svg>