<!DOCTYPE svg PUBLIC "-//W3C//DTD SVG 1.1//EN" "http://www.w3.org/Graphics/SVG/1.1/DTD/svg11.dtd">
<svg xmlns="http://www.w3.org/2000/svg" viewBox="0 0 720 516">
<path d="M339.5 36.028C232.883 48.017 152.803 123.919 136.431 228.5c-2.331 14.89-2.337 50.629-.012 65.5C151.803 392.385 223.866 465.989 323 484.57c11.622 2.179 52.175 3.092 64.418 1.451 102.344-13.719 179.801-88.359 196.677-189.524 2.832-16.974 3.076-51.097.487-67.997C569.332 128.959 492.279 52.147 393 37.52c-13.458-1.983-42.046-2.78-53.5-1.492m-3.5 21.02C223.544 70.855 142.672 173.984 156.529 285.912c7.507 60.633 39.664 112.642 90.749 146.773 16.512 11.033 47.324 24.906 59.222 26.666 2.703.399 1.285-.363-4.377-2.354-48.795-17.154-92.448-57.707-114.1-105.997C128.962 219.273 222.492 70.576 366.5 67.252c54.409-1.256 101.228 16 141.547 52.169 2.501 2.243.026-.454-5.5-5.994-26.893-26.963-61.993-45.401-102.766-53.985-13.747-2.894-48.948-4.215-63.781-2.394m14 32.042c-52.83 6.8-95.462 35.356-116.752 78.203-3.782 7.611-4.29 9.319-3.372 11.334 1.956 4.293 4.573 2.871 11.731-6.377 37.991-49.084 72.753-70.084 127.548-77.056 11.487-1.461 13.368-1.953 13.68-3.574.199-1.034-.245-2.265-.987-2.735-1.675-1.062-23.077-.924-31.848.205m3.049 138.071c-7.322 15.476-7.499 15.738-10.995 16.255-1.955.288-9.629 1.279-17.054 2.202-7.425.922-13.7 1.848-13.945 2.058-.245.21 5.264 5.881 12.242 12.603l12.688 12.221-3.115 16.294c-1.714 8.961-2.901 16.508-2.639 16.771.263.262 7.143-3.102 15.29-7.476l14.813-7.954 4.767 2.416c2.622 1.329 9.351 4.919 14.953 7.979 5.603 3.059 10.413 5.336 10.689 5.06.277-.277-.899-7.835-2.613-16.796l-3.115-16.294 12.688-12.221c6.978-6.722 12.487-12.4 12.242-12.618-.245-.219-6.745-1.155-14.445-2.081-21.522-2.59-20.046-2.099-22.345-7.426-1.104-2.56-4.406-9.619-7.336-15.688l-5.328-11.034-7.442 15.729" fill-rule="evenodd"/>
</svg>