<!DOCTYPE svg PUBLIC "-//W3C//DTD SVG 1.1//EN" "http://www.w3.org/Graphics/SVG/1.1/DTD/svg11.dtd">
<svg xmlns="http://www.w3.org/2000/svg" viewBox="0 0 600 490">
<path d="M387 16.042c-3.025.418-9.1.797-13.5.842l-8 .081-6.119 6.745-6.119 6.745-16.429.647c-15.903.627-28.722 3.24-33.253 6.779-.594.464-2.214 1.113-3.6 1.443C293.269 40.919 266 63.197 266 67.083c0 .341-2.691 3.499-5.979 7.018-3.288 3.52-5.988 6.881-6 7.471-.012.589-1.358 2.839-2.993 5-1.635 2.16-2.985 4.242-3 4.625-.015.383-2.23 3.606-4.922 7.162-4.237 5.599-5.05 7.45-6.064 13.803-.644 4.036-1.565 8.913-2.045 10.838-1.585 6.349-1.138 37.817.633 44.5 2.706 10.217 9.817 22.222 16.673 28.153 1.369 1.184 2.873 2.759 3.343 3.5 4.354 6.868 27.395 20.222 36.872 21.369 3.29.399 6.538 1.169 7.217 1.711.679.543 5.11 1.228 9.848 1.524 13.814.862 16.365 4.109 12.442 15.838-1.087 3.248-1.987 7.265-2 8.927-.033 3.96-5.101 10.116-9.042 10.982-3.096.68-4.98 3.014-4.988 6.18-.004 1.831-3.508 10.909-5.811 15.056-.684 1.231-2.505 2.892-4.046 3.689-1.542.797-4.721 3.051-7.065 5.01-2.344 1.959-4.951 3.561-5.794 3.561-.842 0-4.188 1.35-7.435 3s-6.903 3.02-8.124 3.044c-2.825.056-10.773 2.184-12.66 3.389-.792.506-2.817 1.022-4.5 1.147-1.683.126-7.018.565-11.856.976-10.157.863-21.804-.835-25.589-3.731-1.69-1.293-4.112-1.825-8.316-1.825-11.924 0-18.141-6.829-12.448-13.673 3.159-3.797 4.254-6.1 5.083-10.684.685-3.791.572-3.974-6.619-10.727-7.665-7.198-10.066-8.255-18.815-8.28-6.481-.019-14.079 2.446-14.994 4.864-1.517 4.006-2.116 12.082-1.095 14.765.912 2.399.728 2.926-1.539 4.411-3.26 2.136-5.475.918-6.887-3.784-.56-1.866-1.91-4.967-2.999-6.892-1.409-2.49-2.125-6.096-2.483-12.5-.514-9.19-1.79-10.946-5.417-7.452-1.58 1.521-1.005 18.259.756 22.043 1.76 3.779 3.596 11.186 3.634 14.659.078 7.192-16.32-5.89-19.074-15.217-1.172-3.97-1.684-4.533-4.12-4.533-5.579 0-3.243 11.341 3.853 18.708 2.126 2.206 4.605 5.087 5.509 6.402 1.831 2.663 8.148 6.039 14.606 7.807 6.575 1.8 4.042 6.083-3.597 6.083-1.514 0-3.181.389-3.703.864-1.596 1.451-10.031 3.136-15.702 3.136-6.419 0-9.826 1.94-8.166 4.649 1.25 2.04 6.858 3.745 9.863 3 1.13-.281 3.855-.994 6.055-1.586 24.383-6.557 59.358-6.053 69 .994 3.39 2.477 20.85 4.394 39 4.282 19.185-.119 26.248-1.107 33.137-4.638 1.575-.807 5.563-2.066 8.863-2.798 9.463-2.1 23.734-8.583 28.208-12.814 2.375-2.246 4.893-2.628 7.292-1.107 1.175.745 1.5 3.187 1.5 11.268 0 10.13-.225 11.169-4.609 21.25-3.048 7.008-2.686 21.817.569 23.3 3.419 1.558 4.003 5.959 1.947 14.681-1.408 5.971-1.524 7.968-.582 10.034 1.364 2.993 1.597 19.63.295 21.035-1.296 1.398-5.219 23.446-6.127 34.434-.432 5.234-1.235 11.316-1.784 13.516-.549 2.2-1.302 11.867-1.673 21.482-.375 9.706-1.144 18.045-1.728 18.75-.841 1.012 1.415 1.268 11.192 1.268 10.807 0 12.098-.177 10.992-1.51-1.256-1.513-1.219-3.663.546-31.49.332-5.225.997-10.4 1.479-11.5.482-1.1 1.11-6.725 1.396-12.5.665-13.418 1.873-21.686 3.39-23.203.658-.658 1.197-1.824 1.197-2.589 0-.766.9-2.537 2-3.935 1.68-2.136 2.004-4.08 2.024-12.158.013-5.288.444-11.415.958-13.615.514-2.2 1.013-15.925 1.109-30.5.159-24.009.354-26.817 2.078-29.868 1.046-1.852 2.374-5.565 2.95-8.25 1.705-7.953 4.121-6.477 5.209 3.181.221 1.96.866 4.435 1.434 5.5.567 1.066 1.363 11.162 1.769 22.437.405 11.275.876 23.2 1.047 26.5 1.73 33.466 2.274 58.552 1.914 88.25l-.426 35.25h7.717l7.717-.001-.095-20.249c-.053-11.138.331-22.044.852-24.237.609-2.564.546-13.456-.178-30.5-.619-14.582-1.337-32.588-1.594-40.013-.527-15.189-3.083-53.838-4.662-70.5-1.396-14.735-1.424-21.049-.12-26.894 1.877-8.406-.02-11.616-9.453-15.995-3.58-1.662-3.377-.731-3.736-17.111-.108-4.95-.535-10.4-.949-12.111-.954-3.949 3.808-7.389 10.231-7.389 6.366 0 19.078-1.933 26.204-3.985 3.575-1.029 8.975-2.403 12-3.053 3.025-.65 7.3-1.995 9.5-2.989 2.2-.994 6.25-2.364 9-3.045s5.52-1.638 6.155-2.126c.635-.489 4.01-1.711 7.5-2.716 18.063-5.203 32.73-17.132 39.452-32.086 1.36-3.025 3.129-6.774 3.933-8.331.803-1.557 1.46-3.492 1.46-4.3 0-.807.745-2.908 1.656-4.669 5.026-9.714 7.118-39.706 3.376-48.403-2.058-4.784-3.346-10.365-4.979-21.577-.502-3.445-2.672-9.504-5.372-15-2.492-5.071-5.252-10.795-6.133-12.72-3.216-7.028-8.174-14-9.956-14-.699 0-1.757-1.066-2.35-2.369-.594-1.302-3.167-3.665-5.719-5.25-2.551-1.584-6.975-4.839-9.831-7.232s-6.317-4.826-7.692-5.407c-1.375-.581-6.1-2.763-10.5-4.849-12.061-5.718-16.618-6.494-28.5-4.851m-3.093 13.776c-1.324 1.019-3.79 2.452-5.481 3.184-2.915 1.262-6.307 5.346-9.215 11.096-2.063 4.08-6.125 4.758-18.711 3.125-12.168-1.58-31.523-.35-34.482 2.19-.835.717-4.33 2.78-7.768 4.584-3.437 1.805-6.25 3.6-6.25 3.989 0 .389-1.464 2.239-3.253 4.111-2.936 3.071-16.177 17.392-20.714 22.403-.996 1.1-2.54 3.449-3.432 5.22-.892 1.772-2.451 3.665-3.465 4.207-1.824.976-10.136 16.412-10.136 18.823 0 .688-.45 1.25-1 1.25-.642 0-.992 9.402-.978 26.25.023 27.765.615 31.729 5.32 35.622.912.755 1.658 1.941 1.658 2.635 0 .695 1.125 2 2.5 2.901 1.375.901 2.5 2.265 2.5 3.032 0 .766.337 1.543.75 1.727.413.183 2.021 1.908 3.574 3.833 2.833 3.51 5.161 5.279 11.676 8.876 1.925 1.062 4.85 3.099 6.5 4.527 1.65 1.427 3.238 2.595 3.528 2.596.291 0 7.703.901 16.472 2.001 9.894 1.241 21.925 2 31.707 2 14.379 0 18-.387 28.793-3.074 1.925-.48 7.526-1.835 12.446-3.013 4.92-1.177 9.645-2.536 10.5-3.019 2.109-1.193 9.384-3.671 16.054-5.469 10.947-2.95 27-13.48 27-17.71 0-.547.624-1.494 1.387-2.105.763-.61 2.626-4.035 4.142-7.61 1.515-3.575 3.569-8.3 4.566-10.5 4.822-10.65 6.669-35.62 3.514-47.5-2.142-8.064-3.295-12.797-4.699-19.297-.688-3.188-1.625-6.027-2.081-6.309-.456-.281-.829-1.809-.829-3.394 0-1.585-.415-3.139-.923-3.452-.508-.314-1.212-1.885-1.564-3.49-.353-1.606-1.288-3.456-2.077-4.111-.79-.656-1.436-2.021-1.436-3.035 0-4.613-10.192-16.159-19.153-21.697-1.945-1.203-5.214-3.768-7.263-5.701-2.05-1.933-4.358-3.514-5.13-3.514-.772 0-4.228-1.288-7.679-2.863-5.653-2.58-7.481-3.252-12.868-4.734-.876-.241-2.676.396-4 1.415M363 87.232c-2.526 1.222-6 4.532-6 5.718 0 1.226 7.508 7.835 9.618 8.467 4.423 1.324 12.279-4.366 12.35-8.945.075-4.772-10.057-8.097-15.968-5.24m-74 1.033c-5.275 2.702-3.014 10.689 3.487 12.321 8.769 2.201 16.496-3.666 13.389-10.166-1.307-2.735-1.806-2.936-7.885-3.177-3.815-.152-7.522.27-8.991 1.022m7.452 54.381c-4.005 4.321-3.256 6.319 6.048 16.123 8.975 9.459 16.673 13.233 26.967 13.223 9.59-.009 19.888-1.547 22.874-3.417 1.187-.744 3.959-1.907 6.159-2.584 2.2-.678 5.125-2.292 6.5-3.586a593.86 593.86 0 0 1 5.867-5.419c2.873-2.617 3.276-3.523 2.744-6.181-1.74-8.699-7.857-8.072-26.111 2.678-6.427 3.785-23.704 3.645-28.772-.233-1.976-1.512-4.138-3.74-4.803-4.949-.664-1.209-2.111-2.334-3.215-2.5-1.103-.166-2.502-1.201-3.108-2.301-2.453-4.451-7.461-4.835-11.15-.854M168.198 261.673c-11.147 5.493-3.54 19.327 10.627 19.327 5.365 0 10.175-2.772 10.175-5.864 0-3.104-13.124-15.11-16.5-15.095-.55.002-2.486.737-4.302 1.632" fill-rule="evenodd"/>
</svg>