<!DOCTYPE svg PUBLIC "-//W3C//DTD SVG 1.1//EN" "http://www.w3.org/Graphics/SVG/1.1/DTD/svg11.dtd">
<svg xmlns="http://www.w3.org/2000/svg" viewBox="0 0 614 518">
<path fill="#0a0a0a" d="M274.144 110.856c-1.208 1.208-2.48 5.308-3.645 11.75-9.07 50.164-8.946 48.666-4.223 51.355 2.95 1.679 7.242.133 8.225-2.963 1.232-3.881 9.489-51.798 9.494-55.093.009-6.129-5.796-9.104-9.851-5.049M189.5 116.9c-4.97 2.306-9.901 7.408-11.982 12.396l-1.583 3.796-5.858-.663c-7.997-.905-14.428 1.312-19.838 6.838-6.311 6.446-7.239 9.614-7.239 24.71v13.04l-5.366-.63c-9.406-1.106-18.019 3.695-21.732 12.113-3.702 8.393-6.129 137.196-3.005 159.5 2.541 18.141 8.885 32.998 18.74 43.889l5.531 6.111H240.89l4.135-4.412c2.274-2.426 5.476-6.235 7.115-8.464 3.666-4.985 39.86-82.194 39.86-85.029 0-.735 4.141-1.095 12.607-1.095 11.598 0 12.553.14 11.929 1.75-3.354 8.658-1.141 18.599 5.722 25.695 4.758 4.919 4.861 5.152 3.816 8.671-2.707 9.115-.07 18.426 7.094 25.039 3.95 3.647 4.053 3.897 2.823 6.867-4.549 10.982 2.149 25.014 13.798 28.906 10.983 3.67 93.672 2.205 111.14-1.969 13.472-3.219 35.235-15.733 37.465-21.542.333-.869.606-23.206.606-49.638v-48.057l-10.783-11.131c-19.338-19.961-27.242-40.097-27.753-70.698-.239-14.301-.556-17.148-2.279-20.5-8.981-17.466-33.001-16.437-40.596 1.739-4.127 9.878-5.999 56.914-2.99 75.124l.621 3.756-78.86-.256-78.86-.256-.568-12c-1.116-23.585-10.672-32.496-31.432-29.307-1.965.302-2.009-.397-2.5-40.193-.551-44.666-.332-43.146-7.165-49.699-6.627-6.358-18.017-8.261-26.335-4.401m4.821 11.713c-6.453 3.182-6.321 1.739-6.321 69.288 0 59.766-.044 61.143-2 63.099-2.488 2.488-5.107 2.544-8.038.17l-2.26-1.83.2-53.955c.11-29.676-.103-54.744-.472-55.707-1.497-3.9-8.91-5.783-13.869-3.524-6.239 2.843-6.045.931-6.221 61.346-.088 30.25-.201 55.755-.25 56.679-.239 4.471-7.272 6.488-10.435 2.992-1.474-1.628-1.655-5.671-1.655-36.923v-35.095l-2.589-3.076c-3.331-3.959-8.004-4.204-11.392-.597-3.066 3.264-5.427 63.851-4.639 119.02.62 43.355 2.044 51.568 11.471 66.146 6.686 10.338 1.062 9.354 53.484 9.354h46.191l4.311-5.519C243.2 376.175 279 302.034 279 299.375c0-.206-4.95-.375-11-.375-10.45 0-11 .103-11 2.066 0 6.774-6.6 10.334-11 5.934-1.929-1.929-2-3.333-2-39.6v-37.6l-3.4-3.4c-4.491-4.491-9.164-4.654-13.834-.484l-3.266 2.915-.274 12.335c-.344 15.476-.54 16.307-4.207 17.826-2.539 1.052-3.397.99-5.513-.396L211 256.954v-60.076c0-66.662.143-65.159-6.478-68.301-4.137-1.962-6.162-1.955-10.201.036m132.867 1.137c-1.986 1.709-27.298 44.758-29.049 49.405-2.035 5.4 3.553 10.587 8.156 7.571 2.78-1.821 29.916-47.971 30.504-51.877.802-5.326-5.477-8.657-9.611-5.099m21.562 53.35c-24.244 20.33-25.59 22.019-20.921 26.245 3.987 3.608 6.131 2.382 28.543-16.33C381.424 172.099 382.613 170.613 378 166c-3.781-3.781-5.656-2.685-29.25 17.1m84.603-9.216c-1.847 1.151-3.572 3.335-4.175 5.289-3.974 12.858-4.862 47.809-1.756 69.155l1.866 12.828-2.053 2.053c-2.035 2.036-2.748 2.054-85.894 2.172l-83.841.119-.285 10.224-.284 10.224 70.364.276 70.363.276 4.895 3.026c11.757 7.271 14.947 23.276 6.81 34.175l-2.39 3.202 3.259 4.624c4.304 6.106 4.647 15.275.849 22.707-2.248 4.399-2.304 4.862-.789 6.537 3.924 4.335 5.979 11.275 5.301 17.897l-.649 6.332 9.278-.026c27.408-.076 43.75-4.206 58.028-14.665l4.75-3.479v-86.126l-8.471-8.787c-21.332-22.129-33.906-57.258-30.922-86.389.602-5.874.477-6.399-2.235-9.378-3.698-4.063-7.874-4.85-12.019-2.266m-102.08 128.643c-4.404 4.404-4.346 10.854.139 15.341l2.63 2.632 28.664.295c20.36.209 29.489-.047 31.513-.886 7.32-3.032 9.244-12.292 3.704-17.832L394.846 299H334.8l-3.527 3.527m8.443 34.377c-2.134 3.612-2.183 7.292-.15 11.224 2.674 5.17 5.352 5.598 31.88 5.091l23.947-.458 2.803-2.804c3.912-3.911 3.864-9.05-.119-13.034L395.154 334h-53.723l-1.715 2.904m9.774 32.291c-2.158 2.563-2.579 3.872-2.132 6.624 1.289 7.942 4.607 8.945 30.971 9.365l19.829.316 2.421-2.806c3.55-4.114 3.338-9.931-.502-13.771L397.154 366h-44.976l-2.688 3.195" fill-rule="evenodd"/>
</svg>