<!DOCTYPE svg PUBLIC "-//W3C//DTD SVG 1.1//EN" "http://www.w3.org/Graphics/SVG/1.1/DTD/svg11.dtd">
<svg xmlns="http://www.w3.org/2000/svg" viewBox="0 0 373 457">
<path d="M171.516 58.608c-12.622 4.024-18.323 12.059-27.412 38.639-2.681 7.839-5.986 16.75-7.346 19.803-5.272 11.839-3.76 20.548 4.492 25.868 4.452 2.869 4.568 3.983 2.22 21.298-1.891 13.95-3.311 21.287-9.633 49.784-8.893 40.084-12.69 66.524-14.363 100-.915 18.316 1.851 24.715 11.517 26.648 3.633.727 3.614.416.419 6.946-3.224 6.589-4.362 16.371-2.121 18.231 2.665 2.211 56.107 1.211 58.41-1.094 1.37-1.371 1.522-2.157.676-3.5-.98-1.554-3.656-1.758-26.233-1.998-23.752-.253-25.142-.37-25.142-2.128 0-2.839 2.626-8.507 5.552-11.984l2.626-3.121h68.72l2.433 3.25c3.355 4.481 5.669 9.258 5.669 11.7 0 1.855-.614 2.05-6.465 2.05-5.56 0-6.623.296-7.597 2.117-1.919 3.585.811 5.141 9.945 5.67 11.995.694 13.117.213 13.117-5.628 0-4.676-2.389-13.698-4.133-15.609-2.86-3.133-.939-3.55 16.383-3.556 25.702-.008 29.163-1.744 34.11-17.107 9.305-28.896 3.649-49.841-16.093-59.601-16.152-7.985-36.307-4.84-58.254 9.092-3.017 1.915-5.628 3.341-5.801 3.168-.352-.352 3.654-14.849 7.473-27.046 12.996-41.506 16.765-63.795 16.738-99-.019-25.293-.812-32.737-6.055-56.878-4.163-19.168-4.969-21.212-10.844-27.493-8.109-8.669-21.612-12.155-33.008-8.521m1.014 8.986c-8.317 3.045-12.434 9.652-20.502 32.906-2.863 8.25-6.343 17.57-7.735 20.71-2.718 6.133-2.629 11.436.231 13.81 2.955 2.452 12.708.738 19.437-3.415 5.873-3.625 6.224-3.714 8.581-2.169 4.269 2.796 2.968 5.509-5.042 10.521-2.75 1.72-6.871 3.602-9.158 4.181-4.757 1.205-5.308 2.359-5.328 11.17-.02 8.354-3.419 29.664-7.447 46.692-2.192 9.268-2.136 9.508 1.683 7.194 1.787-1.083 5.95-2.946 9.25-4.14 9.141-3.308 13.501-7.811 16.048-16.571 1.585-5.451 3.537-7.155 6.773-5.913 6.13 2.352-1.482 20.746-11.072 26.756-2.062 1.292-6.613 3.31-10.113 4.484-7.807 2.62-14.255 7.738-17.068 13.549-5.344 11.039-14.407 79.754-13.175 99.891.059.962 1.007 2.65 2.107 3.75 1.96 1.96 3.311 1.999 67.25 1.968 49.715-.024 65.628-.322 66.837-1.25 6.438-4.943 10.976-30.111 7.552-41.887-3.631-12.491-14.747-20.181-29.139-20.16-18.613.028-36.478 10.135-56.764 32.112-6.319 6.845-8.33 7.894-10.819 5.642-2.834-2.565-2.462-3.669 3.682-10.911 5.526-6.514 5.668-6.843 10.907-25.307 2.919-10.289 7.589-26.069 10.377-35.068 12.213-39.426 16.18-82.107 11.002-118.389-1.331-9.324-1.916-10.158-4.433-6.316-4.314 6.583-14.503 12.115-17.252 9.366-2.248-2.248-1.203-4.128 6.233-11.216 8.295-7.905 10.234-12.264 9.231-20.756-1.983-16.804-17.046-26.757-32.134-21.234" fill-rule="evenodd"/>
</svg>