<!DOCTYPE svg PUBLIC "-//W3C//DTD SVG 1.1//EN" "http://www.w3.org/Graphics/SVG/1.1/DTD/svg11.dtd">
<svg xmlns="http://www.w3.org/2000/svg" viewBox="0 0 720 469">
<path fill="#040404" d="M344.5 34.138c-57.802 7.312-102.813 64.231-96.098 121.524l.839 7.162-2.957 1.529c-8.073 4.175-11.12 12.744-9.399 26.431 2.319 18.431 5.951 25.583 15.08 29.7 2.219 1.001 4.035 2.331 4.035 2.956 0 3.314 3.053 25.049 4.038 28.751 2.593 9.74 8.074 17.934 20.627 30.835l12.187 12.526-3.929 32.974c-4.381 36.76-5.203 40.516-10.728 49.021-6.5 10.005-10.659 12.775-70.505 46.953l-57.781 33 105.625.255c58.094.14 152.88.14 210.636 0l105.01-.255-57.84-34c-79.866-46.947-75.297-41.657-81.815-94.727-1.939-15.784-3.525-29.887-3.525-31.34 0-2.006 2.749-5.511 11.415-14.558 16.599-17.325 22.285-29.626 24.115-52.17l.714-8.795 4.748-2.406c8.857-4.488 11.289-8.733 13.523-23.601 3.037-20.226 1.019-26.981-9.985-33.42-1.587-.928-1.632-1.71-.523-9 4.6-30.233-11.569-69.689-37.693-91.983-25.935-22.132-56.806-31.537-89.814-27.362M303 158.5 279.516 182l23.946 23.962 23.947 23.962 4.724-5.212 4.724-5.212-18.669-18.75L299.52 182l18.754-18.774 18.754-18.773-4.798-4.727c-2.639-2.599-5.012-4.726-5.272-4.726-.261 0-11.042 10.575-23.958 23.5m85.735-18.761-4.739 4.738 18.742 18.762L421.48 182l-18.668 18.75-18.669 18.75 4.724 5.212 4.724 5.212 23.947-23.962L441.484 182 418 158.5c-12.916-12.925-23.719-23.5-24.005-23.5-.287 0-2.654 2.132-5.26 4.739m-35.332 40.791c-8.018 48.247-8.296 42.515 2.147 44.274l5.049.85 6.771-41.077c3.724-22.592 6.977-41.811 7.23-42.708.372-1.323-.633-1.759-5.32-2.309-3.179-.374-6.462-.874-7.295-1.112-1.263-.361-2.697 6.67-8.582 42.082" fill-rule="evenodd"/>
</svg>