<!DOCTYPE svg PUBLIC "-//W3C//DTD SVG 1.1//EN" "http://www.w3.org/Graphics/SVG/1.1/DTD/svg11.dtd">
<svg xmlns="http://www.w3.org/2000/svg" viewBox="0 0 720 530">
<path d="M338.407 32.988c-103.845 10.97-185.666 88.147-202.011 190.546-2.372 14.861-2.341 52.189.057 67.966 13.814 90.888 80.906 164.421 170.047 186.372 27.587 6.793 68.392 8.019 94.649 2.844 47.672-9.396 85.788-29.544 119.449-63.142 102.771-102.578 82.7-275.075-40.94-351.852-40.248-24.993-94.817-37.639-141.251-32.734M332.5 54.632c-98.234 12.573-174.567 97.225-177.236 196.551-2.4 89.327 48.056 165.585 131.466 198.696 12.494 4.959 19.672 6.386 8.362 1.661-130.555-54.532-166.852-222.054-70.329-324.59C297.39 49.799 416.948 41.973 499.5 108.967c11.558 9.38 5.036 2.252-8-8.744-42.981-36.253-101.302-52.976-159-45.591m13 31.952c-44.461 6.865-81.285 29.325-104.074 63.476-10.822 16.218-14.206 25.659-9.802 27.349 2.35.902 3.68-.238 10.168-8.71 36.497-47.661 73.555-69.988 127.087-76.57 11.709-1.44 13.652-1.931 13.96-3.531.197-1.022-.249-2.243-.991-2.713-2.083-1.32-26.289-.855-36.348.699m69.48 46.542c-.011.756-.677 7.449-1.48 14.874-.803 7.425-1.469 14.237-1.48 15.138-.013 1.096-4.817 4.076-14.509 9-7.969 4.049-14.494 7.598-14.5 7.886-.006.289 6.708 3.414 14.921 6.947l14.931 6.422 1.037 6.053c.57 3.33 1.805 10.726 2.744 16.436l1.706 10.382 4.577-4.882c2.518-2.685 7.55-8.228 11.183-12.317l6.606-7.435 15.755 2.239c8.665 1.231 15.966 2.027 16.224 1.769.258-.258-3.217-6.694-7.721-14.303l-8.191-13.835 7.161-14.364c3.939-7.9 6.957-14.569 6.707-14.819s-7.361 1.067-15.803 2.927l-15.348 3.381-12.25-11.436c-6.738-6.29-12.259-10.818-12.27-10.063m-97.261 4.023c-.302 1.293-1.107 8.681-1.789 16.417l-1.24 14.066-14.327 7.434c-7.88 4.089-14.212 7.803-14.071 8.255.14.452 6.77 3.653 14.732 7.114l14.476 6.292 2.568 14.887c1.413 8.187 2.779 15.497 3.036 16.244.286.828 4.657-3.361 11.218-10.75 5.913-6.66 11.444-12.108 12.291-12.108.847 0 7.614.927 15.038 2.059 7.423 1.133 14.095 1.92 14.826 1.75.885-.206-1.365-4.934-6.748-14.18l-8.077-13.871 7.227-14.493c3.974-7.971 7.051-14.669 6.836-14.883-.214-.215-7.542 1.188-16.284 3.118l-15.894 3.507-11.635-11.604c-10.582-10.555-11.684-11.392-12.183-9.254M457 218.393c0 3.335-3.047 29.873-3.517 30.634-.285.462-6.786 4.105-14.444 8.094-7.659 3.99-13.753 7.532-13.543 7.872.21.34 6.897 3.45 14.859 6.91 11.233 4.881 14.589 6.774 14.979 8.444.275 1.184 1.506 8.341 2.735 15.903 1.228 7.563 2.54 13.75 2.915 13.75s5.439-5.33 11.253-11.844l10.571-11.843 15.823 2.283c8.702 1.256 16 2.107 16.216 1.891.216-.216-3.282-6.679-7.773-14.361l-8.166-13.968 7.106-14.186c3.908-7.802 6.866-14.426 6.572-14.72-.294-.294-7.546.96-16.115 2.786l-15.58 3.321-11.211-11.18c-11.295-11.263-12.68-12.331-12.68-9.786M261.104 236.25c-1.927 21.044-.136 18.155-16.58 26.739-7.89 4.12-14.187 7.747-13.993 8.061.194.315 6.567 3.198 14.161 6.409 7.594 3.21 14.281 6.409 14.859 7.109.579.699 2.125 8.057 3.436 16.352 1.312 8.294 2.699 15.08 3.084 15.08.384 0 5.53-5.424 11.435-12.053 9.55-10.721 11.027-11.994 13.365-11.522 1.446.292 7.129 1.211 12.629 2.042 5.5.831 11.462 1.761 13.25 2.067 4.411.755 4.35.564-4.741-14.956l-7.99-13.642 6.99-13.955c3.845-7.675 6.991-14.334 6.991-14.799 0-.464-7.213.747-16.03 2.691l-16.03 3.535-11.236-11.204C268.525 228.042 263.21 223 262.893 223c-.317 0-1.122 5.963-1.789 13.25m93.843-10.583c-.131 6.966-2.745 28.527-3.552 29.303-.492.472-7.082 4.086-14.645 8.031-7.562 3.944-13.75 7.282-13.75 7.417 0 .136 6.637 3.104 14.75 6.597 8.113 3.493 14.909 6.465 15.103 6.605.195.139 1.553 7.275 3.02 15.856 1.466 8.582 2.968 15.698 3.337 15.813.369.116 3.69-3.164 7.38-7.289s8.494-9.459 10.676-11.854l3.966-4.353 15.396 2.258c8.468 1.242 15.673 1.981 16.01 1.644.338-.338-3.02-6.757-7.463-14.265l-8.076-13.652 7.457-14.889c4.101-8.189 7.116-14.874 6.7-14.855-.416.018-7.694 1.554-16.174 3.413l-15.419 3.38-11.356-10.664c-12.912-12.125-13.288-12.363-13.36-8.496m48.961 85.875c-.051.527-.838 7.868-1.75 16.313L400.5 343.21l-14.25 7.545c-7.837 4.151-14.247 7.816-14.243 8.146.003.329 6.661 3.449 14.795 6.933l14.79 6.333 2.376 14.167c1.307 7.791 2.641 15.188 2.964 16.437.521 2.006 1.868.818 11.573-10.208 8.499-9.656 11.437-12.38 12.989-12.042 4.949 1.077 29.815 4.504 30.161 4.157.213-.213-3.222-6.549-7.634-14.081-4.412-7.531-8.021-14.128-8.021-14.659 0-.53 3.153-7.259 7.007-14.951 4.12-8.225 6.489-13.992 5.75-14-.691-.007-7.924 1.415-16.073 3.16l-14.816 3.172-7.184-6.92c-13.423-12.928-16.684-15.817-16.776-14.857m-98.034 4.481c-.07.263-.857 7.677-1.75 16.477l-1.624 16-13.961 7.134c-7.679 3.923-14.089 7.523-14.245 8-.156.476 6.049 3.566 13.788 6.866 7.74 3.3 14.437 6.45 14.882 7 .445.55 1.791 7.075 2.99 14.5 3.302 20.436 1.84 19.881 14.491 5.501 8.679-9.865 11.37-12.342 13-11.963 3.794.882 29.856 4.494 30.169 4.181.17-.17-3.264-6.364-7.632-13.764-4.367-7.4-7.95-14.023-7.961-14.718-.012-.695 3.132-7.558 6.986-15.25 4.12-8.225 6.489-13.992 5.75-14-.691-.007-7.916 1.413-16.055 3.156l-14.799 3.168-4.201-3.892c-2.311-2.14-7.69-7.262-11.952-11.382s-7.807-7.276-7.876-7.014" fill-rule="evenodd"/>
</svg>