<!DOCTYPE svg PUBLIC "-//W3C//DTD SVG 1.1//EN" "http://www.w3.org/Graphics/SVG/1.1/DTD/svg11.dtd">
<svg xmlns="http://www.w3.org/2000/svg" viewBox="0 0 525 532">
<path d="M226.947 47.456c-8.047 2.041-18.368 6.335-35.872 14.926-18.216 8.94-25.791 11.584-44.575 15.56C117.026 84.179 102.466 88.6 90 95.094c-27.21 14.176-42.517 37.182-40.503 60.875.399 4.692.563 11.681.364 15.531-1.807 35.02.935 61.722 9.194 89.525 1.574 5.297 3.8 16.571 4.948 25.053 3.944 29.164 8.092 42.444 15.107 48.374 9.713 8.21 30.565 14.193 53.052 15.222l13.662.626 3.99 6.258c15.824 24.821 51.593 26.618 80.611 4.05 6.806-5.293 6.042-5.128 13.421-2.904 3.737 1.127 9.27 1.72 16.319 1.75 6.969.03 10.389.393 9.868 1.046-20.925 26.264-26.785 48.302-17.628 66.291 8.256 16.219 22.059 16.306 56.062.354L320.5 421.5l18.5-.081c36.248-.159 54.181-10.973 72.009-43.419 10.885-19.81 17.176-28.205 32.756-43.709 36.021-35.844 38.544-51.421 13.166-81.291-23.948-28.187-31.526-48.296-28.591-75.862 3.556-33.387-11.242-77.945-32.388-97.522C381.555 66.287 367.929 63.121 333 64.99c-26.537 1.42-29.573.971-46.854-6.923-23.065-10.537-44.406-14.363-59.199-10.611M236 53.174c-8.421 1.2-19.186 5.584-42 17.104-21.131 10.67-26.031 12.386-49.417 17.305-35.147 7.394-54.237 14.679-67.813 25.877-10.282 8.481-18.662 20.896-20.315 30.095-.599 3.336-.033 2.633 3.668-4.555 10.434-20.264 30.692-32.912 52.827-32.983 6.825-.021 5.543 1.231-2.95 2.881-29.347 5.701-45.59 24.896-51.077 60.359-3.143 20.316.332 56.855 8.091 85.086 2.244 8.164 4.734 19.527 5.533 25.25.799 5.724 2.102 15.02 2.895 20.657 3.016 21.436 6.32 27.573 17.881 33.216 11.853 5.786 45.671 12.398 48.939 9.569.42-.363-.104-4.232-1.164-8.597-4.663-19.208-5.402-35.23-4.17-90.438.432-19.339-.409-24.489-6.018-36.859-3.177-7.007-1.262-6.682 3.204.543 2.591 4.193 3.884 4.215 3.892.066.008-4.813 1.939-10.934 3.308-10.488 4.026 1.31 6.155 18.55 4.722 38.238-4.616 63.438 2.092 109.542 18.036 123.946 13.869 12.53 43.212 10.692 61.41-3.845l2.982-2.383-4.819-4.967c-13.112-13.516-13.147-13.712-13.133-71.751.009-40.202.293-49.95 1.744-60 3.629-25.135 4.138-23.417 4.885 16.5.801 42.848 3.214 84.103 5.412 92.544 4.584 17.602 15.961 24.875 38.947 24.899 16.743.016 20.249-1.12 35.928-11.651 15.362-10.318 19.319-15.869 21.15-29.669.907-6.838-.387-6.451-4.402 1.313-3.033 5.866-12.611 16.462-13.803 15.27-.273-.273 1.521-4.256 3.988-8.851 6.687-12.46 8.639-19.405 8.639-30.738 0-5.254.742-15.513 1.65-22.798l1.649-13.245-4.977-4.474c-18.568-16.695-21.18-49.356-8.383-104.834 2.199-9.533 4.931-23.077 6.072-30.098 3.759-23.122 6.032-25.674 26.362-29.598 16.818-3.245 16.91-2.804.616 2.934-18.083 6.368-18.28 6.634-20.612 27.864-.823 7.498-3.242 22.632-5.375 33.632-10.719 55.277-6.629 87.241 12.337 96.422 12.555 6.078 39.798-2.258 54.437-16.656 6.995-6.879 8.875-11.45 9.77-23.748.967-13.281 1.214-13.963 9.75-26.863 4.06-6.135 7.967-12.638 8.683-14.45 1.879-4.76.77-17.219-2.245-25.205a908.569 908.569 0 0 1-3.171-8.5c-1.592-4.442 5.432 5.06 7.491 10.132 2.366 5.83 3.946 6.177 3.946.868 0-1.86.421-3.642.936-3.96 1.677-1.037 2.363 8.461 1.107 15.319a597.824 597.824 0 0 0-2.039 11.861c-1.499 9.506-3.789 14.655-8.601 19.338-6.856 6.673-7.621 8.769-8.377 22.939-1.098 20.578-8.668 31.003-29.909 41.191-10.578 5.073-11.126 5.489-12.188 9.257-3.836 13.615-16.202 35.209-23.971 41.859l-3.988 3.414 1.172 5.076 1.172 5.077 6.989-10.185c3.845-5.602 13.125-17.386 20.624-26.186 7.498-8.8 15.574-18.363 17.946-21.25 4.804-5.847 6.494-6.615 5.502-2.5-1.944 8.064-9.811 20.558-25.344 40.25-21.678 27.482-22.502 29.638-6.872 17.984 20.154-15.028 32.787-29.296 43.812-49.484 3.305-6.05 6.013-10.733 6.018-10.407.032 1.77-4.232 12.436-7.758 19.407-11.168 22.08-28.776 39.767-61.731 62.007-7.15 4.826-15.421 10.981-18.381 13.679-2.959 2.698-8.613 6.68-12.563 8.848-21.247 11.661-38.999 40.712-37.182 60.848 1.164 12.902 5.907 18.414 15.415 17.917l5.711-.299.85-5c5.784-34.021 15.533-48.667 32.55-48.898 12.711-.172 17.678 6.844 17.448 24.648l-.151 11.75h13.736c30 0 43.552-9.064 62.053-41.5 10.753-18.853 15.762-25.27 33.563-43 34.013-33.877 35.159-41.742 10.67-73.255-15.099-19.43-19.14-26.857-23.155-42.561l-1.743-6.816-3.265 9.128c-1.796 5.02-3.464 8.929-3.707 8.687-.242-.243.515-5.784 1.683-12.312 11.285-63.068-11.113-124.649-49.137-135.095-5.497-1.51-10.162-1.719-33.231-1.488-33.236.333-35.006.037-54.164-9.06-22.246-10.563-29.017-10.027-47 3.723-7.759 5.932-18.921 11.555-22.884 11.527-3.103-.022-3.098-.03 1.14-1.954 4.874-2.212 8.937-5.123 18.536-13.28 3.735-3.174 8.637-6.937 10.892-8.36 3.82-2.411 3.985-4.642.316-4.245-.55.059-3.925.525-7.5 1.035m9.36 21.162c-16.869 12.482-19.455 20.63-12.372 38.985 6.15 15.94 7.154 15.477 3.033-1.4-1.662-6.804-3.011-13.282-2.999-14.396.047-4.369 4.36-11.161 12.166-19.158 9.03-9.252 9.089-10.629.172-4.031m-81.612 27.091c-14.702 5.246-21.056 22.272-16.656 44.633 1.769 8.993 2.666 6.134 3.157-10.06.598-19.713 4.02-26.487 16.689-33.031 6.111-3.156 4.082-4.137-3.19-1.542m178.752 9.261c-5.083.693-12.278 3.339-13.673 5.028-1.184 1.433-1.003 1.527 1.673.871 6.699-1.643 22.94-1.784 29.494-.256 7.062 1.646 8.413 1.445 5.433-.809-4.242-3.208-16.261-5.742-22.927-4.834M195.333 120.5c2.417 16.437 2.871 24.717 2.357 43-.578 20.532-.045 22.542 2.745 10.358 3.478-15.188 2.878-34.071-1.541-48.543-2.48-8.12-4.437-10.766-3.561-4.815m-81.258 26.164c.6 1.56 1.483 8.301 1.962 14.981 1.529 21.296 3.963 23.758 3.963 4.008 0-10.708-.28-12.778-2.25-16.641-2.628-5.153-5.447-6.954-3.675-2.348m215.043 2.242c-1.692 1.071.005 1.674 7.382 2.623 2.75.354 8.303 1.539 12.339 2.635 11.252 3.052 10.851.109-.567-4.163-5.562-2.081-16.601-2.712-19.154-1.095M324 163.669c-9.286 1.257-5.116 2.619 11.842 3.869 4.588.339 10.157 1.256 12.375 2.039 7.886 2.782 8.111.709.337-3.094-5.563-2.722-16.216-3.943-24.554-2.814m13.336 15.29c-12.183 2.902-30.1 17.876-27.408 22.907 3.041 5.681 46.385 9.792 54.935 5.209 4.664-2.5-.113-15.604-8.324-22.832-6.013-5.293-12.117-6.973-19.203-5.284m-6.207 9.038c-7.224 3.982-14.497 10.035-13.39 11.142 2.902 2.902 37.326 5.372 41.146 2.953 1.875-1.188.874-4.744-2.74-9.734-5.739-7.922-15.476-9.62-25.016-4.361m79.073-.997c-1.756 3.72-11.225 27.189-11.902 29.5-.477 1.63.008 1.445 2.625-1 5.656-5.287 11.966-21.832 10.869-28.5l-.411-2.5-1.181 2.5M344.5 252c-1.65.42-6.937.817-11.75.882L324 253l-.02 10.25c-.011 5.637-.441 13.158-.954 16.713-1.165 8.062-.755 8.47 3.536 3.514 2.99-3.455 21.357-29.606 22.271-31.71.377-.868-.11-.841-4.333.233M90.569 319.112c2.222 3.594 17.724 7.888 28.48 7.888 8.84 0 8.939-1.457.201-2.939-3.713-.63-11.399-2.251-17.08-3.603-11.727-2.79-12.553-2.886-11.601-1.346m199.931 8.099c-10.204 5.297-18.149 6.937-36.5 7.536-15.642.51-16.293.61-12.52 1.923 13.92 4.842 38.425 1.549 49.925-6.709 3.455-2.482 6.841-6.249 5.314-5.913-.121.027-2.919 1.45-6.219 3.163m104.856 7.905c.363 1.311 1.414 6.556 2.337 11.656 1.981 10.951 3.807 11.736 3.807 1.636 0-5.044-.557-7.971-2.066-10.847-2.407-4.587-5.12-6.214-4.078-2.445m-17.033 8.955c.262.865 1.682 5.365 3.156 10 1.473 4.636 3.398 13.502 4.277 19.701 1.716 12.095 2.866 13.197 3.844 3.684 1.078-10.474-2.925-25.019-8.663-31.477-1.7-1.914-2.876-2.772-2.614-1.908m-177.085 4.466c-4.544 1.262-11.631 2.61-15.75 2.996-7.913.742-9.546 1.805-4.363 2.842 8.966 1.793 23.221-1.136 28.611-5.879 3.381-2.976 2.348-2.971-8.498.041m104.13 34.383c-6.936 3.15-13.222 14.096-17.239 30.02-2.881 11.42-2.854 14.423.121 13.486 5.052-1.593 22.345-10.197 23.622-11.753.78-.95 2.802-1.673 4.679-1.673 4.816 0 6.077-1.891 6.79-10.177 1.502-17.445-5.736-25.46-17.973-19.903" fill-rule="evenodd"/>
</svg>