<!DOCTYPE svg PUBLIC "-//W3C//DTD SVG 1.1//EN" "http://www.w3.org/Graphics/SVG/1.1/DTD/svg11.dtd">
<svg xmlns="http://www.w3.org/2000/svg" viewBox="0 0 720 545">
<path fill="#040404" d="M340.5 25.593c-1.65.231-6.6.897-11 1.481-99.151 13.148-177.699 91.025-193.072 191.426-2.335 15.25-2.342 49.911-.013 65C151.623 382.038 225.532 457.186 324 474.23c15.117 2.617 53.88 3.148 67.5.926 69.349-11.317 125.298-47.486 160.78-103.939 36.069-57.388 44.335-130.407 22.035-194.637C548.926 103.458 485.089 46.724 409.5 30.105c-17.106-3.76-56.144-6.314-69-4.512M329 47.886C211.754 66.389 133.92 180.358 159.894 295.5c16.131 71.507 67.85 128.152 138.011 151.153 13.152 4.312 15.293 3.917 2.902-.535C243.939 425.685 197.178 376.085 179.078 317 144.326 203.556 214.48 84.9 330.681 60.585c61.969-12.967 130.021 5.002 174.129 45.979 4.55 4.228 8.501 7.458 8.78 7.179.828-.828-19.406-19.158-29.623-26.835C459.545 68.558 431.551 55.912 401 49.43c-17.022-3.612-53.888-4.402-72-1.544m22 30.807c-51.576 5.499-101.811 39.672-118.994 80.947-3.318 7.972-3.122 10.363.851 10.354 2.196-.004 4.159-1.991 11.606-11.75 33.908-44.43 74.229-67.871 126.53-73.561 9.813-1.067 11.544-1.52 11.848-3.097.196-1.015-.251-2.231-.993-2.701-1.297-.822-23.635-.961-30.848-.192m33.052 72.557c-1.224 6.738-2.749 14.464-3.389 17.169l-1.163 4.919-15.785 6.569c-18.309 7.619-18.375 5.981.639 15.893 14.785 7.706 14.145 6.769 15.145 22.2.41 6.325 1.028 13.432 1.373 15.794l.628 4.294 12.371-11.544c6.805-6.349 13.046-11.544 13.87-11.544.824 0 8.203 1.575 16.397 3.5 8.195 1.925 15.308 3.5 15.807 3.5.499 0-2.465-7.034-6.586-15.631l-7.495-15.63 9.051-14.87c4.979-8.178 8.469-14.869 7.757-14.869-.711 0-7.764.9-15.672 2s-15.151 2-16.095 2c-.958 0-6.676-5.744-12.943-13-6.175-7.15-11.33-13-11.456-13-.125 0-1.23 5.512-2.454 12.25m-104.532 73.5c-1.563 8.662-3.185 16.444-3.605 17.292-.42.849-7.794 4.439-16.387 7.979-13.737 5.658-15.41 6.592-13.85 7.733.976.713 7.737 4.489 15.025 8.391 15.257 8.168 13.67 5.334 15.266 27.262.556 7.649 1.145 14.04 1.308 14.204.163.163 5.853-4.858 12.643-11.157 6.791-6.3 13.016-11.454 13.833-11.454.818 0 8.191 1.575 16.385 3.5 8.195 1.925 15.308 3.5 15.807 3.5.499 0-2.454-7.013-6.564-15.584l-7.471-15.583 8.969-14.667c4.933-8.066 8.599-14.801 8.148-14.965-.452-.165-7.389.623-15.416 1.75-8.028 1.127-15.464 2.049-16.525 2.049-1.232 0-5.994-4.704-13.162-13-6.178-7.15-11.306-13-11.397-13-.091 0-1.444 7.088-3.007 15.75m102.604 53.843-3.29 17.273-10.667 4.475a2436.295 2436.295 0 0 1-16.337 6.789l-5.67 2.314 14.67 7.786c8.068 4.282 15.175 8.465 15.793 9.295.617.83 1.445 6.927 1.841 13.55.395 6.622 1.015 14.016 1.377 16.429l.659 4.389 12.604-11.9 12.604-11.9 16.74 3.954c9.207 2.174 16.903 3.953 17.102 3.953.199 0-3.009-7.064-7.129-15.698l-7.491-15.698 7.541-12.346c4.147-6.79 8.265-13.451 9.15-14.802 2.034-3.104 2.37-3.095-17.121-.456-8.123 1.1-15.1 2-15.504 2-.405 0-5.876-6.003-12.159-13.34l-11.423-13.34-3.29 17.273" fill-rule="evenodd"/>
</svg>