<!DOCTYPE svg PUBLIC "-//W3C//DTD SVG 1.1//EN" "http://www.w3.org/Graphics/SVG/1.1/DTD/svg11.dtd">
<svg xmlns="http://www.w3.org/2000/svg" viewBox="0 0 241 436">
<path d="M110.5 1.631C93.417 4.278 80.12 13.226 73.979 26.206c-1.638 3.462-2.978 6.879-2.978 7.595-.001.716-1.464 1.916-3.251 2.667-22.158 9.314-29.077 41.031-13.729 62.94l3.92 5.597-2.47 4.646C53.294 113.746 53 115.549 53 124.833c0 15.828 4.244 22.764 14.646 23.936 4.291.484 4.577.73 7.438 6.397 1.636 3.241 5.436 8.455 8.445 11.586L89 172.446v8.277c0 9.941.952 8.856-16.761 19.104-29.587 17.119-42.155 32.115-46.66 55.673-1.835 9.598-8.948 130.379-8.363 142 .841 16.682 11.599 29.948 27.599 34.036 8.956 2.288 135.324 1.616 147.248-.783 25.706-5.171 39.647-26.594 34.98-53.753-1.896-11.035-25.111-110.728-27.594-118.5-3.836-12.002-11.71-27.207-17.672-34.12-6.517-7.558-26.916-22.095-45.723-32.583-3.033-1.692-3.054-1.763-3.054-10.215 0-7.078.295-8.672 1.75-9.461 3.713-2.015 11.582-11.006 14.596-16.676 3.021-5.685 3.35-5.963 7.815-6.595 9.658-1.366 14.839-8.527 14.839-20.511 0-6.675 1.534-10.339 4.329-10.339.369 0 .674 10.463.677 23.25.007 29.686 1.687 35.384 12.561 42.586 10.796 7.152 39.624 11.413 42.379 6.266 2.166-4.048.93-138.303-1.336-145.102-8.937-26.815-32.032-38.044-54.337-26.418l-6.555 3.417-6.109-5.004C149.516 5.453 127.303-.974 110.5 1.631M83.953 85.603c-3.844 10.042-4.425 14.876-4.439 36.897-.014 21.72.02 22.072 2.634 27.648 11.96 25.509 47.253 26.098 59.582.994 2.604-5.305 2.79-6.572 3.104-21.201l.335-15.558-9.003-1.199c-22.698-3.022-39.351-11.945-48.131-25.789l-2.973-4.689-1.109 2.897m-20.918 27.331c-1.112 2.079-1.442 20.841-.414 23.521.693 1.805 6.245 5.013 7.135 4.122.314-.313.471-6.309.35-13.323-.204-11.798-.385-12.884-2.413-14.482-2.81-2.214-3.397-2.193-4.658.162M154 127.965c0 13.572.182 14.073 4.316 11.872 3.771-2.009 4.619-4.089 4.652-11.413.034-7.497-.993-9.382-6.718-12.334l-2.25-1.16v13.035m-55.939-8.539c-1.742 2.099-.924 9.643 1.189 10.967 2.864 1.795 5.202-.441 5.561-5.319.453-6.152-3.551-9.503-6.75-5.648m22.496.797c-3.901 5.568 1.684 14.136 6.243 9.577.66-.66 1.2-3.045 1.2-5.3 0-6.398-4.248-8.839-7.443-4.277m-.962 25.673c-.944 1.042-3.713 2.194-6.153 2.56-5.109.767-7.193 3.272-5.442 6.544 3.294 6.155 21.321-1.601 19.606-8.435-.798-3.179-5.393-3.563-8.011-.669M111 182.577a5232.03 5232.03 0 0 1-11.75 2.911c-3.827.936-2.689 4.625 4.276 13.86 3.59 4.758 6.892 8.652 7.339 8.652.446 0 3.584-3.577 6.973-7.949 5.995-7.733 6.162-8.114 6.162-14 0-7.101.768-6.896-13-3.474m-28.342 21.095c-4.313 2.553-8.08 5.264-8.371 6.023-.521 1.358 5.337 21.305 6.256 21.305 1.988 0 23.441-15.598 23.008-16.728-.936-2.44-11.021-15.161-12.051-15.202-.55-.022-4.529 2.049-8.842 4.602m41.092 2.787c-3.162 4.096-5.75 7.849-5.75 8.34 0 .762 22.276 16.201 23.375 16.201.677 0 5.698-16.571 5.916-19.524.188-2.537-.607-3.313-7.791-7.614-4.4-2.635-8.45-4.804-9-4.82-.55-.017-3.588 3.321-6.75 7.417m-63.543 11.506-4.093 2.965 3.014 8.285c3.758 10.328 10.897 26.846 16.007 37.035l3.887 7.75h5.322c2.928 0 5.554-.231 5.836-.513.282-.282-3.447-8.371-8.286-17.976-5.135-10.192-10.337-22.261-12.493-28.987-4.164-12.991-3.688-12.548-9.194-8.559m91.685 9.785c-2.38 7.012-8.054 20.167-12.609 29.233-4.556 9.066-8.283 16.603-8.283 16.75 0 .147 8.213.269 18.25.271 16.541.003 18.56.192 21.56 2.022 6.205 3.783 6.19 3.63 6.194 59.692l.004 50.782 2.496 4.919c3.053 6.018 3.608 21.984.983 28.267-1.972 4.719-2.116 4.666 7.933 2.912 20.88-3.645 30.157-14.658 29.986-35.598-.09-11.037-.603-13.695-12.758-66-15.716-67.633-19.106-77.99-29.419-89.889l-3.805-4.39-3.826 10.446c-6.453 17.62-11.617 27.277-14.781 27.643-5.218.603-5.429-2.687-.828-12.905 4.027-8.943 12.011-29.488 12.011-30.908 0-.673-7.43-5.997-8.37-5.997-.227 0-2.359 5.738-4.738 12.75m-106.827 3.454c-7.195 9.734-11.546 22.301-12.566 36.296-4.096 56.198-7.432 131.22-6.046 135.985 2.231 7.675 7.366 13.769 14.684 17.426L47.319 424h90.727l-.273-17.75-.273-17.75-41.392-.5c-38.012-.459-41.481-.643-42.494-2.25-1.438-2.28.201-4.998 3.481-5.772l2.405-.567.5-46.956c.537-50.405.39-49.081 5.977-53.783 3.836-3.227 3.929-2.535-2.074-15.318-2.804-5.97-7.304-16.442-10.001-23.271-2.696-6.829-5.073-12.587-5.282-12.796-.208-.209-1.808 1.554-3.555 3.917M121 228.588c0 4.665 3.228 33.137 3.958 34.912.726 1.767 9.156-13.725 12.299-22.602.393-1.111-1.015-2.774-4.595-5.423a1695.358 1695.358 0 0 1-8.412-6.267c-2.92-2.197-3.25-2.26-3.25-.62m-29.5 5.49c-3.85 2.751-7.123 5.352-7.273 5.78-.149.427 2.498 6.372 5.884 13.21 3.386 6.837 6.305 11.982 6.487 11.432.52-1.568 3.402-29.063 3.402-32.457 0-3.933-.221-3.88-8.5 2.035m-17.171 49.373C68.965 285.796 69 285.456 69 334.434V380h82.019l-.259-48.75-.26-48.75-36.5-.217c-29.287-.175-37.127.056-39.671 1.168m72.338 105.216c-.367.366-.667 8.466-.667 18V424h9.05c15.037 0 17.95-2.889 17.95-17.802 0-14.246-3.87-18.024-18.583-18.142-3.896-.031-7.384.244-7.75.611" fill-rule="evenodd"/>
</svg>