<!DOCTYPE svg PUBLIC "-//W3C//DTD SVG 1.1//EN" "http://www.w3.org/Graphics/SVG/1.1/DTD/svg11.dtd">
<svg xmlns="http://www.w3.org/2000/svg" viewBox="0 0 408 584">
<path d="M197.358 75.954c-17.3 4.125-21.95 21.536-19.007 71.175 2.116 35.688 2.26 47.229.738 59.371-4.328 34.537-11.198 46.465-36.571 63.488-17.021 11.42-24.983 21.112-31.253 38.045-2.671 7.213-2.765 8.132-2.761 26.967.005 29.847 2.64 46.549 10.807 68.5 2.587 6.956 5.157 16.203 6.112 22 3.648 22.138 6.889 28.093 18.493 33.985 10.332 5.245 14.892 10.703 21.396 25.61 6.181 14.166 19.446 17.213 52.688 12.101a2493.937 2493.937 0 0 1 25-3.7c27.366-3.862 40.777-10.618 50.032-25.205 7.782-12.266 8.601-24.177 2.305-33.533-3.397-5.048-3.46-5.311-1.872-7.742 8.951-13.692 9.764-22.719 2.728-30.264l-2.563-2.748 2.706-5.752c6.992-14.868 5.154-27.294-5.404-36.531l-5.121-4.479 4.651-4.652c9.951-9.95 12.98-22.297 7.948-32.395-3.2-6.421-7.549-10.12-18.055-15.358l-8.146-4.06-.689-6.435c-1.614-15.075-8.575-34.72-16.549-46.708-4.574-6.878-4.765-7.457-5.305-16.134-.363-5.821-1.845-13.592-4.197-22-4.271-15.269-4.557-22.166-1.516-36.5 5.158-24.308-2.415-58.642-16.266-73.747-6.662-7.266-21.474-15.131-26.647-14.151-.297.057-1.954.44-3.682.852m.661 6.153c-5.434 1.147-10.29 7.092-12.589 15.412-1.799 6.505-1.93 10.728-1.93 61.981v55l-2.723 12c-5.215 22.979-13.354 34.712-34.342 49.503-22.082 15.562-30.909 32.299-30.649 58.115.263 26.14 3.414 46.513 10.653 68.882 2.403 7.425 4.669 16.425 5.035 20 2.161 21.099 4.156 25.301 15.709 33.1 11.736 7.923 15.195 11.736 20.852 22.988 5.644 11.226 7.557 12.782 17.365 14.132 7.623 1.05 10.158.787 49.1-5.093 22.723-3.431 28.22-4.867 37.801-9.874 15.202-7.945 24.433-27.462 18.109-38.29-2.84-4.864-4.008-4.698-11.91 1.695-12.475 10.091-22.149 13.245-43.13 14.06-12.804.498-22.325-.096-21.104-1.317.259-.259 7.714-1.358 16.568-2.441 26.879-3.291 35.171-6.876 49.741-21.507 12.385-12.437 16.588-23.133 11.111-28.279-2.866-2.692-4.116-2.716-7.718-.151-15.851 11.287-44.721 14.182-90.812 9.107-10.639-1.171-20.052-2.13-20.917-2.13-.865 0-1.233-.337-.818-.75.414-.413 18.152-.75 39.416-.75 43.916 0 48.163-.51 62.822-7.551 23.213-11.148 27.048-36.258 7.111-46.568-2.846-1.472-3.29-1.401-9.131 1.459-15.582 7.627-38.076 8.226-76.139 2.026-7.15-1.164-14.125-2.574-15.5-3.132l-2.5-1.015 2.5-.76c1.375-.418 7-.818 12.5-.89 12.505-.162 11.391-.817-9.5-5.582-31.66-7.22-18.167-7.167 25.5.1 17.349 2.888 44.036 4.216 52.5 2.614 17.922-3.393 32-15.47 32-27.452 0-16.556-22.024-26.088-87-37.654-20.56-3.66-37.423-7.793-32.5-7.966 1.1-.038 10.55.763 21 1.781 10.45 1.018 19.195 1.672 19.434 1.453.238-.218-2.177-2.886-5.369-5.928-3.191-3.042-5.559-5.775-5.261-6.072.588-.588 10.363 6.256 15.196 10.639 2.489 2.258 4.824 3.012 13.711 4.43 5.89.939 15.34 2.753 21 4.03 5.659 1.278 10.554 2.164 10.879 1.97.991-.592-.861-11.446-3.51-20.575-3.915-13.485-7.177-19.703-13.565-25.857-3.14-3.025-5.912-6.129-6.161-6.899-.364-1.123-1.758-.876-7.074 1.25-6.9 2.761-10.78 3.354-10.78 1.649 0-.55.787-1.006 1.75-1.013 2.382-.017 13.173-5.572 16.095-8.286 3.163-2.937 2.519-10.518-2.355-27.71-4.243-14.968-4.496-21.586-1.405-36.678 8.283-40.444-13.885-86.524-39.066-81.206m-7.09 24.581c-3.613 9.503-3.196 28.351 1.085 49.037 3.438 16.614 7.829 21.107 15.849 16.217 4.325-2.636 3.478-3.549-1.217-1.31-4.438 2.116-6.506.745-8.949-5.931-3.671-10.034-7.109-44.113-5.643-55.951.666-5.385.355-5.956-1.125-2.062M257 305.304c0 .233-.464 2.847-1.03 5.81-1.92 10.036-.811 24.895 1.858 24.883 1.081-.005 1.211-29.855.133-30.521-.528-.327-.961-.404-.961-.172m-134 18.32c0 6.054 12.99 11.855 22.076 9.859 4.06-.892 2.427-1.946-4.576-2.954-6.486-.933-11.328-2.991-14.75-6.269-2.537-2.43-2.75-2.48-2.75-.636m139.423 45.937c-.883 4.705.027 17.289 1.345 18.607 1.586 1.586 2.532-6.203 1.727-14.222-.793-7.893-2.072-9.718-3.072-4.385M133 385.032c0 13.91 7.28 17.608 26.303 13.361 13.465-3.007 11.609-4.057-4.027-2.279-14.949 1.7-18.635-.485-20.019-11.864-.715-5.877-2.257-5.342-2.257.782m18.638 58.967c5.552 9.5 27.083 11.735 42.774 4.439 3.034-1.411 2.992-1.428-2.412-.944-26.077 2.333-29.543 2.041-37.048-3.121l-5.175-3.56 1.861 3.186m37.369 38.509c2.619 3.156 16.92 4.513 24.493 2.325l4-1.156-3.5-.727c-7.136-1.483-26.136-1.819-24.993-.442" fill-rule="evenodd"/>
</svg>