<!DOCTYPE svg PUBLIC "-//W3C//DTD SVG 1.1//EN" "http://www.w3.org/Graphics/SVG/1.1/DTD/svg11.dtd">
<svg xmlns="http://www.w3.org/2000/svg" viewBox="0 0 430 533">
<path d="M324 67.134C313.747 69.037 296.674 80.647 288.903 91c-10.727 14.291-16.783 32.568-19.878 60-1.829 16.207-6.595 37.643-8.948 40.25-.373.413-3.239-1.533-6.369-4.323-18.059-16.095-42.505-31.04-55.582-33.978-15.971-3.589-33.158 4.939-39.166 19.434-2.098 5.061-2.503 5.447-6.35 6.04-16.274 2.509-27.672 14.088-29.289 29.754-.538 5.212-.76 5.58-4.097 6.787-13.196 4.772-19.559 20.024-14.742 35.339l1.821 5.789-3.04 3.204c-11.156 11.76-9.684 29.215 3.717 44.053 3.722 4.12 5.014 6.552 6.46 12.151 3.675 14.239 11.18 27.173 36.555 63 16.266 22.967 24.88 39.717 32.038 62.298 3.123 9.85 4.307 11.462 6.68 9.089.817-.817.71-2.478-.402-6.25-8.337-28.289-19.223-48.65-42.846-80.137-10.612-14.145-16.797-24.571-22.272-37.544-5.907-13.997-5.942-14.179-2.523-13.34 6.812 1.672 9.826 3.174 9.68 4.823-.132 1.499.037 1.523 1.5.216 1.872-1.671 16.176 1.319 35.792 7.482l10.142 3.187-3.392 6.171c-1.866 3.394-3.386 6.809-3.378 7.588.008.779 1.02-.575 2.25-3.011 1.23-2.435 3.811-5.921 5.736-7.746 1.925-1.825 5.617-5.331 8.205-7.792 3.628-3.451 5.133-5.872 6.581-10.589 1.673-5.449 2.304-6.308 5.796-7.889 7.139-3.232 11.755-11.501 11.292-20.23-.251-4.716-.067-5.166 2.678-6.559 7.622-3.87 14.38-13.24 14.426-20.004.019-2.733.556-3.459 3.46-4.673 7.049-2.945 12.238-13.644 11.258-23.212-.747-7.289-3.689-12.331-11.663-19.986-3.832-3.679-6.687-7.142-6.346-7.695.351-.568.123-.697-.524-.298-.946.585-8.84-5.426-17.163-13.068-4.327-3.973-9.551-7.372-10.923-7.107-3.917.754-1.583 3.831 10.639 14.023 21.443 17.88 27.834 24.498 29.689 30.745 3.078 10.364 2.084 10.445-6.208.508-5.245-6.285-6.747-7.5-9.268-7.5-6.728 0-13.929 6.178-13.929 11.95 0 2.983-.855 2.655-9.644-3.7-17.008-12.296-21.034-17.066-30.593-36.246-6.387-12.817-6.079-16.367 2.206-25.355 11.176-12.125 27.046-12.304 47.609-.539 8.714 4.986 25.743 17.536 33.685 24.825l5.763 5.29-3.582 4.985c-4.256 5.924-4.083 6.618.784 3.154 4.789-3.407 5.992-2.505 5.148 3.861-.492 3.709-.364 4.886.475 4.367.632-.391 1.149-1.25 1.149-1.911s1.977-7.272 4.393-14.691c5.388-16.548 7.979-28.393 10.057-45.99 3.677-31.134 10.323-47.996 24.528-62.23 9.645-9.665 17.474-14.154 26.772-15.352 6.481-.834 6.532-1.164-1.016 6.62-16.484 17-17.336 23.483-4.271 32.481 3.046 2.098 5.537 3.934 5.537 4.082 0 .148-.487 1.536-1.082 3.084-.656 1.704-1.048 10.509-.996 22.315.108 24.327-.116 25.305-5.989 26.1l-4.433.6 4.75.15c2.613.082 4.75.318 4.75.522 0 .205-1.164 3.918-2.586 8.25-5.127 15.621-6.598 24.807-7.426 46.378-.852 22.198-1.222 24.128-6.972 36.349-7.743 16.457-8.906 26.048-6.092 50.241 1.145 9.85 2.332 20.224 2.638 23.052 1.186 10.989-4.641 18.156-17.792 21.882l-5.27 1.493 5.99-.61c5.808-.592 12.261-3.105 15.678-6.104 1.938-1.702 2.304.552 3.359 20.697.679 12.962 1.76 22.847 4.117 37.652 1.808 11.352 2.622 13.482 4.455 11.649.911-.911.664-4.594-1.07-15.992-1.239-8.145-2.391-18.409-2.559-22.809-.169-4.4-.592-15.875-.939-25.5-.686-18.972-1.695-31.35-4.193-51.424-1.88-15.106-.924-25.127 3.35-35.134 9.747-22.823 9.558-22.008 10.421-44.942.8-21.254 1.727-27.611 6.246-42.836 3.734-12.584 3.871-13.708 4.529-37.191l.616-22.026 3.29-6.678c1.81-3.673 5.41-9.432 8-12.797 9.156-11.897 9.766-13.962 6.343-21.472-4.954-10.866-12.65-15.313-23.133-13.366m4.408 12.012c-10.35 9.91-15.707 17.931-14.361 21.501 1.721 4.564 12.023 13.932 13.391 12.177.139-.178 2.208-3.249 4.599-6.824 2.39-3.575 6.06-8.678 8.155-11.34 4.649-5.909 4.802-8.817.779-14.89-5.151-7.776-5.097-7.774-12.563-.624M143.459 186.367c-8.163 3.801-13.699 12.073-14.981 22.387-.55 4.421-.247 5.295 4.411 12.746 11.491 18.379 20.688 26.221 46.361 39.529l11.75 6.092v-5.101c0-8.553 6.146-17.299 13.14-18.698 4.147-.829 4.091-.889-11.188-11.822-16.107-11.525-21.841-18.394-30.928-37.045L156.931 184l-4.215.01c-2.319.005-6.484 1.066-9.257 2.357m45.946 22.883-1.905 2.25 2.25-1.905c2.114-1.79 2.705-2.595 1.905-2.595-.19 0-1.202 1.012-2.25 2.25m7 7-1.905 2.25 2.25-1.905c1.238-1.048 2.25-2.06 2.25-2.25 0-.8-.805-.209-2.595 1.905M121 219.722c-10.912 4.1-15.789 16.737-11.414 29.577 1.765 5.181 7.333 8.688 38.414 24.196 7.425 3.705 17.55 9.522 22.5 12.927 12.308 8.465 12.583 8.582 7.75 3.283-4.738-5.195-5.188-7.654-2.277-12.428 2.656-4.356 5.675-4.891 13.73-2.432 9.63 2.939 8.943 1.997-2.848-3.902-34.701-17.361-47.323-27.374-57.986-45.999-3.22-5.623-4.514-6.483-7.869-5.222m95.5 3.681c-4.291 1.894-6.593 4.869-7.186 9.29l-.516 3.849 8.781 6.229c11.142 7.904 13.48 7.954 17.35.367l1.936-3.795-6.009-7.421c-8.629-10.659-9.005-10.882-14.356-8.519m-52.989 8.22c-.945 1.443-1.224 2.318-.62 1.944 1.154-.713 3.483-4.567 2.759-4.567-.231 0-1.193 1.18-2.139 2.623m6.361 7.127c-1.243 1.586-1.208 1.621.378.378 1.666-1.307 2.195-2.128 1.372-2.128-.207 0-.995.787-1.75 1.75m8 3c-1.243 1.586-1.208 1.621.378.378 1.666-1.307 2.195-2.128 1.372-2.128-.207 0-.995.787-1.75 1.75m22.389 6.176c-7.269 5.266-9.295 15.875-3.983 20.865 7.589 7.13 15.192 6.993 21.674-.389 2.498-2.846 5.891-11.096 4.864-11.829a3433.9 3433.9 0 0 1-7.948-5.899c-8.832-6.565-9.233-6.641-14.607-2.748m-93.824 15.324c-8.424 9.991-6.655 24.269 4.591 37.045 4.747 5.392 12.07 8.138 38.972 14.612 9.075 2.184 19.158 4.898 22.407 6.032 11.502 4.014 12.381 2.53 2.508-4.235-9.719-6.66-11.161-13.025-4.303-18.988 1.313-1.142 2.388-2.399 2.388-2.794 0-1.267-17.225-11.929-26-16.093-4.675-2.219-14.684-7.363-22.241-11.431-15.941-8.582-14.8-8.324-18.322-4.148m73.248 13.783c-4.71 3.705-4.092 6.252 3.209 13.239 10.758 10.295 12.715 11.41 15.881 9.046 4.045-3.019 6.323-6.632 6.901-10.942.529-3.939.515-3.958-4.823-6.534-4.552-2.197-7.417-3.236-17.539-6.364-.653-.201-2.286.498-3.629 1.555M201 279c.825.533 1.95.969 2.5.969s.325-.436-.5-.969c-.825-.533-1.95-.969-2.5-.969s-.325.436.5.969m-29.491 21.4c-4.901 4.902-3.663 8.553 4.913 14.481l7.423 5.132 2.062-2.622c5.994-7.62 4.927-10.468-6.148-16.416l-5.742-3.083-2.508 2.508" fill-rule="evenodd"/>
</svg>