<!DOCTYPE svg PUBLIC "-//W3C//DTD SVG 1.1//EN" "http://www.w3.org/Graphics/SVG/1.1/DTD/svg11.dtd">
<svg xmlns="http://www.w3.org/2000/svg" viewBox="0 0 376 536">
<path d="M176.898 37.282c-11.603 7.792-13.104 20.904-14.365 125.527-.175 14.47-.549 26.541-.832 26.824-.284.283-1.794-.14-3.358-.941-12.022-6.155-26.627.063-33.084 14.084-3.303 7.174-5.962 21.245-6.788 35.932l-.687 12.208-3.377 1.115c-9.979 3.293-26.257 33.302-30.418 56.077-.643 3.516-2.105 10.217-3.251 14.892-4.362 17.804-2.334 31.52 8.845 59.832 15.333 38.831 27.054 54.216 50.355 66.096 19.993 10.193 28.361 11.539 53.941 8.679 7.908-.884 22.533-1.615 32.5-1.624 38.366-.037 47.205-5.794 58.505-38.106 2.188-6.257 6.258-17.211 9.045-24.342 12.555-32.123 19.269-84.897 17.031-133.867-.553-12.104-1.506-22.166-2.374-25.047-4.098-13.619-18.471-22.873-30.357-19.545-5.685 1.592-5.25 2.146-5.662-7.229-.604-13.738-7.245-21.81-19.544-23.754-13.823-2.185-23.591 4.086-27.558 17.693-.848 2.907-2.031 6.507-2.629 8l-1.088 2.714-.949-3c-.522-1.65-1.577-21.9-2.343-45-1.672-50.4-5.416-98.244-8.353-106.733-6.074-17.556-22.488-27.682-33.205-20.485m2.401 6.968c-4.738 5.202-7.189 15.479-8.03 33.666-.551 11.915-.498 12.385 1.328 11.668 3.741-1.468 16.021-1.865 19.738-.638 5.242 1.729 4.523 2.783-1.585 2.323-2.887-.217-8.4-.029-12.25.418l-7 .813-.705 17.5a4508.695 4508.695 0 0 1-1.63 36c-.551 11.037-.568 27.981-.042 42 .485 12.925.993 27.775 1.129 33l.248 9.5 9.189-.348c8.955-.339 16.311.98 16.311 2.926 0 .507-.113.931-.25.942-5.202.406-21.994 3.111-23.945 3.857-2.875 1.101-2.914 1.63-.89 12.123l.675 3.5h14.493c18.347 0 22.724 2.517 22.985 13.218.111 4.555 1.425.6 5.944-17.887l4.074-16.669-3.543-13.704L212 204.755v-25.231c0-13.877-.288-27.986-.64-31.354l-.64-6.124-17.11-.273c-16.562-.264-16.966-.32-12.61-1.731 2.944-.953 8.91-1.471 17.25-1.498l12.75-.04-.007-4.502c-.045-26.813-4.985-71.217-8.729-78.458-5.941-11.49-17.575-17.211-22.965-11.294M238.5 190.863c-7.222 3.286-9.717 9.954-12.036 32.173-.877 8.399-3.346 22.964-5.487 32.367-4.008 17.598-8.977 43.351-8.977 46.521 0 1.522 1.172 1.871 7.832 2.327 9.112.625 14.962 3.155 17.854 7.722l1.938 3.061 2.8-10.767c1.54-5.922 4.512-18.192 6.605-27.267 2.092-9.075 6.11-24.15 8.928-33.5 9.122-30.269 9.823-42.005 2.931-49.115-5.121-5.284-15.072-6.85-22.388-3.522m-97.489 3.991c-9.567 5.132-15.94 23.619-15.991 46.396L125 250l4.25-.002c2.338 0 10.916.721 19.064 1.603s15.06 1.358 15.36 1.059c.299-.3.045-5.657-.565-11.906-.61-6.248-1.11-17.186-1.111-24.307-.001-10.323-.356-13.656-1.75-16.447-3.216-6.439-12.297-8.868-19.237-5.146m134.616 25.89-3.872 1.788-3.899 13.984c-2.145 7.691-5.023 18.934-6.396 24.984-1.374 6.05-3.584 14.6-4.911 19-1.328 4.4-2.918 10.925-3.534 14.5-.615 3.575-1.351 7.288-1.634 8.25-.435 1.476.16 1.75 3.808 1.75 6.183 0 10.612 1.506 15.144 5.147 3.828 3.077 4.002 3.117 5.399 1.266 2.442-3.235 6.214-12.298 10.992-26.413 6.419-18.963 8.025-19.597 4.716-1.86-5.88 31.517-18.112 49.907-33.15 49.838-5.628-.026-12.662-2.936-14.245-5.893-1.288-2.407-3.045-2.765-3.045-.62 0 .806-1.41 3.071-3.133 5.034-1.723 1.962-2.961 3.694-2.75 3.847.211.153 6.008 3.041 12.883 6.416 12.686 6.23 22.978 13.173 26.368 17.79 3.026 4.12 1.298 3.886-7.109-.963-7.049-4.066-12.831-6.905-36.012-17.682-4.099-1.906-7.887-2.913-11-2.923-5.944-.021-11.901-3.235-15.088-8.142-2.161-3.328-2.966-3.73-10.5-5.238-4.487-.898-9.11-1.888-10.271-2.199-3.074-.824-3.888 3.051-1.173 5.58 1.126 1.05 8.626 6.408 16.666 11.908 28.752 19.667 40.213 31.873 43.528 46.357 1.017 4.445-.659 3.163-4.409-3.371-5.469-9.531-18.91-21.592-39.707-35.629-9.982-6.738-18.616-12.25-19.186-12.25-.985 0-3.634 3.945-2.938 4.376 16.146 9.983 25.136 24.056 32.335 50.624 2.759 10.181 4.259 24.93 3.012 29.625-.625 2.357-1.091.984-2.586-7.625-2.284-13.148-7.673-29.703-13.611-41.808-6.19-12.62-13.111-19.528-28.751-28.697-6.562-3.847-14.48-9.341-17.595-12.209l-5.663-5.214-5.159.815c-5.159.816-20.643-.045-21.81-1.212-1.09-1.091 4.026-2.45 13.604-3.615 10.761-1.308 12.451-2.021 15.105-6.374 2.791-4.578 2.404-5.936-2.336-8.186-4.114-1.952-7.29-6.271-6.455-8.776.221-.663 1.04.123 1.821 1.746 2.223 4.62 7.511 6.179 16.017 4.72 15.562-2.669 28.578-8.761 35.638-16.682 6.469-7.258 13.991-22.234 8.318-16.561-3.295 3.295-7.51 4.948-16.713 6.555-14.477 2.527-18.05.561-17.012-9.362l.615-5.886-8.722-1.111c-33.184-4.228-41.891-3.974-41.523 1.211.11 1.537 2.302 6.381 4.872 10.765s4.451 8.194 4.179 8.465c-1.166 1.166-9.909-10.152-11.003-14.244-.638-2.387-1.493-4.34-1.898-4.34-1.693 0-9.456 12.375-15.368 24.5-18.857 38.672-17.952 54.322 6.308 109 21.197 47.776 46.94 63.848 89.712 56.012 5.281-.967 18.71-1.993 32.5-2.482 37.848-1.343 42.567-4.279 53.068-33.015 2.308-6.317 5.75-14.867 7.648-19 10.158-22.117 14.552-39.371 18.212-71.515 1.046-9.186-.61-81.447-2.025-88.378-2.472-12.11-16.535-20.875-26.276-16.378m-96.328 40.158c-7.239.698-8.273 1.483-8.989 6.827-.685 5.104.911 5.8 9.68 4.22 10.991-1.979 14.342-3.253 15.898-6.042 3.219-5.771.349-6.637-16.589-5.005m25.329 17.61c-4.539 8.669-13.459 17.677-21.136 21.344-4.114 1.965-6.343 3.576-5.913 4.272.38.615 1.206 3.138 1.836 5.608l1.146 4.491 10.351 3.386c5.693 1.863 10.517 3.387 10.719 3.387.203 0 .381-1.238.397-2.75.015-1.512 1.544-11.975 3.398-23.25s3.073-20.821 2.71-21.213c-.364-.391-1.942 1.735-3.508 4.725M263 280.926c0 1.1 3.545 2.932 8.75 4.522 2.962.904 2.929-.957-.052-2.91-3.199-2.097-8.698-3.115-8.698-1.612m-40.501 4.076c-.69 1.116 2.437 2.52 7.894 3.544 4.746.89 4.837-1.134.139-3.097-4.045-1.69-7.158-1.863-8.033-.447M261 290.98c0 1.333 7.405 5.02 10.083 5.02 1.898 0 1.994-.202.789-1.655C269.34 291.291 261 288.71 261 290.98m-39.75 4.682c-2.678 1.081-1.004 2.08 4.5 2.688 3.162.349 6.762.916 8 1.259 3.293.914 2.796-1.275-.7-3.083-2.826-1.462-9.168-1.926-11.8-.864M165 306c-1.375.44-3.947.845-5.715.9-2.168.068-3.578.779-4.331 2.186-1.586 2.963-.598 3.389 3.792 1.632 2.106-.842 5.918-1.845 8.471-2.228 3.391-.508 4.497-1.072 4.105-2.093-.584-1.522-2.444-1.639-6.322-.397m44.975 5.565c-6.864 18.056 14.785 30.337 23.561 13.366 4.801-9.284-2.394-15.931-17.242-15.931-4.816 0-5.44.253-6.319 2.565m41.248-.008c-4.005 2.805-2.906 10.521 1.849 12.98 7.473 3.865 18.69-2.576 15.744-9.041-2.168-4.758-12.971-7.177-17.593-3.939m-89.389 2.995c-2.828.884-5.73 2.724-7.366 4.668l-2.699 3.209 3.782 3.175c2.08 1.746 6.21 4.647 9.178 6.445l5.396 3.271 2.076-2.077c2.425-2.425 3.384-9.677 2.08-15.743-1.014-4.721-4.296-5.498-12.447-2.948" fill-rule="evenodd"/>
</svg>