<!DOCTYPE svg PUBLIC "-//W3C//DTD SVG 1.1//EN" "http://www.w3.org/Graphics/SVG/1.1/DTD/svg11.dtd">
<svg xmlns="http://www.w3.org/2000/svg" viewBox="0 0 321 457">
<path d="M145.387 11.936c-28.14 4.469-51.667 23.877-60.346 49.782-6.188 18.471-4.792 30.648 4.496 39.209L94 105.041l.006 7.73c.011 15.294 6.929 25.103 17.78 25.207 1.726.017 2.731 1.061 4.111 4.272 2.138 4.975 8.119 13.051 12.222 16.504 2.656 2.234 2.881 2.957 2.881 9.24v6.817l-6.75 4.982C101.295 196.736 88.52 203.5 79.478 203.5c-6.648 0-7.269.202-11.657 3.794-5.633 4.612-8.247 9.622-7.393 14.172.505 2.693-.035 4.223-3.051 8.653-10.118 14.856-30.942 74.02-45.01 127.881-5.944 22.757-4.441 36.277 5.026 45.223l4.129 3.902-.648 8.187c-1.159 14.63 2.808 24.164 12.547 30.159l4.921 3.029 98.579.279c87.18.247 99.053.099 102.678-1.275 4.394-1.666 7.439-4.401 9.643-8.662.765-1.478 6.23-5.883 12.316-9.927 12.897-8.569 34.909-29.947 40.297-39.136 9.987-17.033 13.511-36.955 9.709-54.891-3.937-18.572-25.804-62.579-45.759-92.088-12.674-18.743-20.365-25.517-47.805-42.107-6.875-4.157-18.125-11.536-25-16.398l-12.5-8.839-.274-5.978c-.269-5.862-.205-6.025 3.321-8.406 5.291-3.572 11.212-10.716 14.261-17.207 2.514-5.351 2.948-5.751 6.865-6.339 10.593-1.588 15.287-8.566 15.311-22.761.014-8.837.292-10.268 3.002-15.5 7.589-14.65 8.366-36.102 1.788-49.408-6.472-13.093-17.32-20.902-34.097-24.543-6.564-1.424-8.328-2.281-12.058-5.855-6.969-6.677-19.992-9.625-33.232-7.523m28.15 47.881c-.355 1.475-2.703 6.958-5.217 12.183-8.141 16.921-23.203 29.336-40.883 33.699l-6.586 1.625.325 13.117c.309 12.498.479 13.432 3.617 19.798 13.596 27.586 52.316 26.944 65.543-1.088 3.12-6.612 3.14-6.763 3.492-25.651.487-26.151-2.2-36.37-13.198-50.19-5.058-6.357-6.261-6.949-7.093-3.493M103 115.577c0 7.041.207 7.784 2.923 10.5 5.283 5.283 6.077 4.294 6.077-7.577V108h-9v7.577m39.203-5.321c-3.322 4.002-1.955 11.744 2.072 11.744 3.308 0 4.725-1.838 4.725-6.129 0-5.431-4.123-8.838-6.797-5.615m24.861.166c-2.204 2.656-.926 11.027 1.741 11.405 3.532.5 5.195-1.553 5.195-6.414 0-5.554-4.05-8.468-6.936-4.991m39.596 2.996c-3.93 1.737-4.627 3.214-4.645 9.832-.016 6.084.349 6.452 4.513 4.555 3.479-1.585 5.472-5.684 5.472-11.255 0-4.925-.552-5.249-5.34-3.132m-64.91 23.662c-4.659 2.714.384 9.798 8.545 12.004 11.145 3.012 26.354-3.315 24.209-10.071-.962-3.032-3.633-3.182-8.927-.502-6.471 3.276-12.143 3.273-16.982-.011-4.122-2.797-4.386-2.852-6.845-1.42m13.32 36.063c-7.387 1.586-13.631 3.085-13.876 3.329-.499.5 12.937 16.337 13.96 16.454 1.853.211 15.846-17.603 15.846-20.174 0-3.241 1.107-3.268-15.93.391m-27.9 14.69c-6.245 4.604-6.323 4.721-5.8 8.667.87 6.546 4.614 17.5 5.982 17.5 1.747 0 20.819-14.007 20.447-15.016-.484-1.313-13.2-15.992-13.774-15.901-.289.046-3.374 2.183-6.855 4.75m41.776 3.227c-3.986 4.422-6.842 8.39-6.347 8.819 5.027 4.353 19.826 14.172 20.799 13.799 1.185-.455 4.962-11.681 6.116-18.178.495-2.787.041-3.336-6.395-7.739l-6.926-4.74-7.247 8.039m-61.696 10.055c-4.034 2.584-4.113 1.536 1.227 16.268 11.734 32.372 29.425 64.415 42.588 77.141l4.113 3.976 4.483-5c14.632-16.321 31.644-48.107 42.321-79.07l3.908-11.335-3.497-2.161c-4.379-2.707-3.681-3.691-9.373 13.227-7.191 21.375-16.564 40.433-29.826 60.643-7.208 10.984-8.52 10.942-16.194-.516-12.84-19.172-24.867-44.142-31.151-64.673-3.498-11.428-3.706-11.633-8.599-8.5m102.397 17.647c-12.686 35.357-28.941 64.817-45.443 82.359-9.431 10.026-10.051 10.046-18.704.629-16.291-17.731-36.389-54.344-45.972-83.75-2.143-6.575-3.155-8-5.682-8-3.08 0-3.257 2.684-.578 8.786 7.463 17 8.732 26.411 8.732 64.763v31.288l3.401 2.102c1.87 1.156 3.656 2.767 3.968 3.581.394 1.027 2.063 1.48 5.452 1.48 19.813 0 21.978 32.071 2.342 34.705l-4.163.558v13.553c0 21.034-3.584 26.085-19.15 26.987-7.193.416-7.85.632-7.844 2.575.012 4.666 2.384 10.254 5.667 13.35 6.474 6.105 8.638 6.322 60.368 6.032l46.459-.26.5-16.181c.66-21.367 3.27-25.373 17.032-26.151l6.968-.394-.026-5.137c-.014-2.825-.679-24.037-1.477-47.137-1.879-54.35-1.876-55.978.074-57.929 1.922-1.921 2.533-1.947 4.914-.205 1.625 1.187 1.926 3.16 2.319 15.167l.452 13.802 6.957 8.05c17.453 20.198 23.25 31.083 23.23 43.615-.021 12.437-6.437 25.499-12.187 24.807-4.12-.495-5.137-3.24-2.314-6.246 6.483-6.9 7.93-21.521 3.084-31.151-3.414-6.785-15.64-23.41-17.215-23.41-1.053 0-.492 39.284.824 57.64l.583 8.139 3.641.589c5.163.835 10.764 4.995 13.352 9.916 1.965 3.736 2.262 6.067 2.606 20.466.214 8.938.688 16.25 1.054 16.25 1.123 0 8.273-5.06 15.629-11.06 35.944-29.321 44.157-57.556 27.849-95.739-15.752-36.883-36.071-70.881-51.849-86.756-7.147-7.191-28.331-22.607-30.826-22.433-.096.007-1.908 4.844-4.027 10.75M137 217.566c-3.575 2.448-6.634 4.849-6.798 5.337-.426 1.266 9.226 22.406 10.411 22.801.566.189 1.742-5.942 2.767-14.438.98-8.121 2.001-15.553 2.269-16.516.772-2.779-1.608-2.004-8.649 2.816m27.985-3.375c-.054 4.91 3.54 32.809 4.227 32.809.874 0 9.421-17.69 10.365-21.453.42-1.67-.735-3-5.776-6.655-8.219-5.959-8.798-6.268-8.816-4.701m-103.309 25.04c-10.605 17.901-42.379 115.964-44.312 136.761-1.091 11.743 3.139 20.993 10.951 23.944 9.192 3.473 27.415-1.939 38.348-11.391l3.691-3.191-4.112-4.112c-5.39-5.39-6.23-8.889-6.236-25.992-.003-7.837-.343-14.241-.756-14.231-.413.01-4.507 3.16-9.099 7-8.354 6.986-9.587 7.627-11.876 6.172-3.743-2.378-1.884-5.341 10.08-16.065 6.521-5.844 13.172-12.411 14.78-14.593 1.608-2.182 4.286-4.83 5.951-5.884l3.028-1.918-.311-35.615c-.282-32.25-.49-36.041-2.202-40.116-3.248-7.729-3.771-7.78-7.925-.769m12.638 85.719C69.253 328.036 69 329.273 69 350.918v20.05l2.918 3.266 2.918 3.266h12.477c17.886 0 16.687 1.946 16.687-27.082v-23.273l-2.635-2.072c-3.787-2.979-22.229-3.063-27.051-.123M113 339.5c0 8.4.029 8.5 2.5 8.5 3.977 0 6.5-3.3 6.5-8.5s-2.523-8.5-6.5-8.5c-2.471 0-2.5.1-2.5 8.5m96.861 48.412c-2.358 1.909-2.361 1.937-2.361 25.088 0 28.77-1.093 27 16.677 27 18.808 0 18.823-.022 18.823-27.55V392.8l-3.4-3.4-3.4-3.4h-11.989c-10.315 0-12.319.267-14.35 1.912" fill-rule="evenodd"/>
</svg>