<!DOCTYPE svg PUBLIC "-//W3C//DTD SVG 1.1//EN" "http://www.w3.org/Graphics/SVG/1.1/DTD/svg11.dtd">
<svg xmlns="http://www.w3.org/2000/svg" viewBox="0 0 574 576">
<path fill="#0b090c" d="M338.595 157.889c-1.127 1.249-3.121 2.111-4.882 2.111-2.993 0-9.713 3.45-9.713 4.987 0 2.104-7.555 9.563-10.849 10.711-2.008.699-8.151 1.302-13.651 1.338-5.5.037-13.15.511-17 1.053l-11 1.551c-2.2.311-5.125 1.614-6.5 2.897-1.375 1.283-4.75 3.087-7.5 4.009-2.75.923-7.469 3.765-10.486 6.316-10.432 8.82-33.042 32.884-35.835 38.138-2.039 3.837-7.46 12.992-11.811 19.947-3.981 6.364-4.761 13.249-4.709 41.553.048 26.199.524 31.322 3.302 35.474.929 1.389 3.144 4.661 4.922 7.27l3.233 4.744-2.73 2.53c-3.42 3.169-6.212 3.885-11.856 3.039-9.023-1.353-10.123-4.049-11.162-27.352l-.682-15.295-3.093.62c-7.341 1.47-6.926.746-6.193 10.829 2.102 28.923 2.095 29.237-.727 32.059-1.899 1.899-3.621 2.582-6.505 2.582-2.158 0-5.572.689-7.587 1.531l-3.664 1.531.291 7.65.292 7.651 5 2.569c4.334 2.226 6.303 2.575 14.78 2.62l9.78.052 8.47 8.426c4.658 4.634 8.47 8.943 8.47 9.575 0 .633.688 1.721 1.53 2.42.841.698 4.4 5.59 7.909 10.872 7.142 10.752 13.13 17.985 24.251 29.299 4.923 5.008 7.364 8.221 6.989 9.199-.378.985-.113 1.325.771.986.741-.285 1.688.033 2.103.705.481.778.34.966-.387.516-.629-.388-2.743.053-4.698.98-3.231 1.533-3.845 1.547-6.761.152-4.168-1.995-16.013-5.448-21.573-6.289-2.401-.363-6.451-1.583-9-2.712-2.549-1.129-5.984-2.388-7.634-2.798-1.65-.41-5.25-1.636-8-2.725-2.75-1.089-8.375-3.016-12.5-4.283-8.717-2.676-20.512-8.894-23.75-12.519-1.942-2.175-2.252-3.64-2.264-10.714-.021-13.054-.833-13.872-15.246-15.379-10.57-1.105-10.737-1.487-10.754-24.52-.016-23.225-.161-24.008-4.367-23.599l-3.119.304-.27 21.444c-.313 24.813-.194 24.477-9.037 25.495-11.432 1.316-13.715 3.665-13.012 13.393.647 8.934 4.761 13.492 18.058 20.002 17.233 8.438 28.161 13.378 30.261 13.679 3.247.465 17.496 5.517 24.364 8.637 6.1 2.771 11.166 4.371 17.636 5.569 1.65.306 3.888 1.169 4.973 1.918 1.084.75 2.884 1.37 4 1.378 1.115.009 6.042 1.803 10.949 3.987 4.907 2.185 10.532 4.228 12.5 4.542 8.411 1.34 17.079 3.753 18.159 5.054.64.771 1.988 1.402 2.996 1.402s4.89 1.161 8.628 2.579c3.737 1.419 9.028 3.031 11.757 3.584 5.751 1.164 9.337 2.852 11.769 5.54 1.568 1.732 1.757 5.859 2.053 44.852.247 32.454.659 44.105 1.69 47.695l1.363 4.75h25.346l-.809-4.25c-3.248-17.064-3.65-22.345-4.256-55.922-.763-42.215-.695-42.834 8.243-75.328 3.263-11.861 6.013-24.715 6.633-31 .326-3.3.992-8.25 1.482-11s1.178-7.17 1.529-9.822c.967-7.299 2.917-8.678 12.272-8.678 5.62 0 8.434-.459 10.141-1.655 1.3-.911 4.213-2.016 6.473-2.456 2.26-.44 8.102-1.664 12.982-2.719 4.88-1.055 9.733-1.694 10.783-1.419 1.05.275 2.711-.225 3.689-1.111 2.197-1.988 13.683-6.224 19.411-7.159 2.334-.381 5.594-1.512 7.244-2.514 1.65-1.001 5.25-2.568 8-3.481 9.478-3.147 27.452-18.534 31.523-26.986 1.06-2.2 2.347-4.675 2.86-5.5 2.307-3.708 7.117-16.263 7.117-18.575 0-1.406.443-3.384.984-4.396.542-1.011 1.503-8.368 2.137-16.348 1.589-20.016.345-32.238-4.952-48.681-2.214-6.875-4.34-14.075-4.722-16-.383-1.925-1.542-4.698-2.576-6.161-1.034-1.464-2.903-4.839-4.152-7.5-4.467-9.519-18.986-24.971-27.475-29.244-2.341-1.178-4.812-3.031-5.491-4.118-.679-1.088-1.94-1.977-2.802-1.977-.863 0-4.017-1.464-7.01-3.254-6.175-3.693-16.382-7.156-25.941-8.802-3.575-.616-7.031-1.559-7.681-2.097-2.693-2.229-11.7-2.201-13.724.042m6.263 20.308c-.744 1.032-3.041 2.622-5.105 3.532-3.073 1.356-3.753 2.173-3.753 4.509 0 6.841-12.193 12.405-19.093 8.712-2.566-1.373-32.278-1.337-32.737.04-.185.556-1.199 1.01-2.253 1.01s-1.917.45-1.917 1-.693 1-1.54 1c-2.761 0-9.773 4.158-13.698 8.122-2.111 2.133-4.347 3.878-4.967 3.878-.621 0-.871.257-.558.571.314.314-2.986 4.123-7.333 8.464-4.347 4.342-7.904 8.251-7.904 8.689 0 .437-.9 1.357-2 2.044s-2 1.727-2 2.312c0 .585-.563 1.69-1.25 2.457-2.996 3.341-3.785 4.463-3.136 4.463.38 0-.249.816-1.399 1.813-1.15.998-2.231 2.44-2.403 3.205-.171.765-1.317 2.437-2.546 3.716-2.37 2.467-7.266 12.38-7.266 14.712 0 .763-.46 1.541-1.022 1.728-2.188.729-1.281 50.295 1.006 55.03 1.109 2.294 2.016 4.541 2.016 4.993 0 .452 1.35 2.234 3 3.96 1.65 1.727 3 3.567 3 4.09 0 .523 1.398 2.256 3.106 3.852 1.708 1.595 2.871 2.901 2.585 2.901-.286 0 .874 1.575 2.578 3.5 1.705 1.925 3.691 3.5 4.415 3.5.724 0 1.316.702 1.316 1.559s.368 1.332.818 1.054c.45-.278 1.449.37 2.221 1.441.771 1.07 2.203 1.946 3.182 1.946.978 0 1.779.45 1.779 1s.9 1 2 1 2 .369 2 .819c0 .848 9.921 3.872 11.25 3.43.413-.137.75.13.75.593 0 .464 2.961.939 6.581 1.056 3.619.117 7.698.638 9.065 1.157 4.016 1.527 36.84 1.157 44.782-.504 3.81-.797 7.367-1.178 7.904-.846.542.335.659.09.263-.55-.493-.799.512-1.155 3.263-1.155 2.186 0 4.125-.43 4.309-.956.183-.526 2.021-1.068 4.083-1.205 2.063-.136 3.75-.606 3.75-1.043 0-.438.953-.796 2.119-.796 2.624 0 15.258-4.219 15.714-5.248.184-.414.977-.752 1.764-.752s2.212-.395 3.167-.877c2.395-1.21 8.608-3.123 10.144-3.123 3.831 0 23.092-17.564 23.092-21.057 0-1.004.45-2.103 1-2.443.55-.34 1-1.491 1-2.559s.45-1.941 1-1.941 1-.661 1-1.47c0-.808.827-2.945 1.839-4.75 2.327-4.152 3.144-7.42 4.194-16.78.463-4.125 1.267-10.275 1.786-13.666.598-3.908.591-7.753-.019-10.5-.53-2.384-1.202-6.134-1.494-8.334-.292-2.2-.858-4.45-1.257-5-.4-.55-1.302-4.375-2.004-8.5s-2.163-9.975-3.246-13c-1.084-3.025-2.006-6.062-2.051-6.75-.045-.687-.456-1.25-.915-1.25-.458 0-.833-.873-.833-1.941s-.45-2.219-1-2.559c-.55-.34-1-1.524-1-2.63 0-1.107-.697-2.71-1.549-3.562-.852-.852-1.808-2.845-2.125-4.429-.317-1.583-.97-2.879-1.451-2.879-.481 0-.875-.675-.875-1.5s-.45-1.5-1-1.5-1-.391-1-.868c0-1.294-9.081-10.132-10.411-10.132-.631 0-1.796-.9-2.589-2-.793-1.1-2.017-2-2.721-2-.703 0-1.279-.45-1.279-1s-.675-1-1.5-1-1.5-.379-1.5-.843c0-.463-2.137-1.926-4.75-3.25s-4.9-2.745-5.083-3.157c-.184-.412-.957-.75-1.72-.75-.762 0-3.027-.922-5.033-2.048-4.83-2.713-14.527-2.57-16.556.245m-93.569 55.129c-8.779 3.21-8.134 15.111.93 17.15 10.21 2.296 17.781-1.318 17.781-8.489 0-4.771-2.95-7.444-9.799-8.878-2.915-.61-5.39-1.075-5.5-1.033-.111.042-1.646.604-3.412 1.25m72.711.626c-4.427 1.81-4.499 1.914-4.439 6.415.093 6.999 3.649 9.63 13.015 9.632 6.068.001 7.365-.319 9.112-2.249 8.532-9.427-4.161-19.329-17.688-13.798m-65.885 55.556c-7.402 4.07-5.165 11.127 7.204 22.725 11.565 10.843 22.422 13.483 42.752 10.394 4.714-.716 9.889-1.975 11.5-2.798C333.554 312.689 339 307.487 339 301.27c0-6.24-8.716-10.127-15.163-6.761-18.954 9.894-18.797 9.839-28.419 9.917-10.898.089-12.083-.443-21.395-9.608-7.418-7.302-10.448-8.313-15.908-5.31m-42.365 68.064c-1.512.821-2.75 1.922-2.75 2.447 0 .526-1.8 2.092-4 3.481-5.899 3.724-5.346 5.068 7.284 17.708 6.207 6.211 15.79 16.017 21.297 21.792 11.526 12.088 19.69 19.233 27.205 23.808 5.92 3.604 11.214 4.066 11.214.979 0-.983.399-1.787.887-1.787.997 0 1.779-3.291 3.209-13.5.54-3.85 1.447-9.25 2.016-12 4.028-19.453 2.023-23.374-12.612-24.669-4.4-.389-10.025-1.222-12.5-1.851-2.475-.628-6.3-1.388-8.5-1.688-2.2-.299-5.272-1.612-6.827-2.918-1.554-1.306-3.396-2.374-4.092-2.374-1.691 0-8.235-3.74-13.563-7.75-4.937-3.716-4.627-3.653-8.268-1.678" fill-rule="evenodd"/>
</svg>