<!DOCTYPE svg PUBLIC "-//W3C//DTD SVG 1.1//EN" "http://www.w3.org/Graphics/SVG/1.1/DTD/svg11.dtd">
<svg xmlns="http://www.w3.org/2000/svg" viewBox="0 0 544 342">
<path d="M63.45 58.407c-5.315 2.315-8.209 6.794-8.929 13.823-.353 3.448-.502 46.095-.331 94.77.339 96.696-.068 90.703 6.495 95.709l3.659 2.791 146.905.263c142.164.255 146.992.203 149.578-1.609 1.47-1.029 4.535-3.033 6.81-4.454l4.136-2.582 6.762 4.441 6.762 4.441h54.536c53.115 0 54.647-.054 58.814-2.071 9.035-4.374 8.353 4.005 8.353-102.649V67.296l-2.27-3.398c-4.747-7.107-2.719-6.895-65.977-6.896L382.006 57l-3.753 3.276c-7.548 6.59-6.645 6.497-13.184 1.359l-5.9-4.635-146.335.039c-119.405.032-146.895.284-149.384 1.368M65 68c-1.971 1.971-2 3.333-2 93.326v91.325l2.314 2.175L67.629 257h287.934l5.718-3.577 5.719-3.577V234h9v14.89l5.663 4.055 5.663 4.055h53.114c46.455 0 53.394-.195 55.337-1.557l2.223-1.556v-92.289c0-88.137-.082-92.362-1.829-93.943-1.654-1.498-7.032-1.655-56.522-1.655h-54.694l-4.477 4.127c-4.469 4.12-4.478 4.141-4.478 11V88h-9l-.015-6.25c-.018-7.184.025-7.099-6.088-12.034L356.294 66H211.647C68.333 66 66.982 66.018 65 68m162.483 10.521c-6.154 3.067-5.954 1.284-6.292 55.979-.338 54.876-.217 56.294 5.113 59.544 3.056 1.863 5.406 1.949 53.797 1.952 34.463.003 51.615-.349 53.78-1.104 6.19-2.158 6.119-1.476 6.119-58.827V84.032l-2.917-3.266-2.918-3.266-51.832-.241c-44.46-.207-52.262-.028-54.85 1.262m217.853 3.046c-1.189 3.097 1.274 3.478 20.736 3.205 19.292-.27 19.43-.288 19.748-2.522l.319-2.25h-20.101c-17.328 0-20.184.216-20.702 1.567m.008 7.979c-1.197 3.121 1.236 3.499 20.728 3.226 18.671-.261 19.428-.35 19.428-2.272 0-2.776-39.1-3.705-40.156-.954m-170.677.121c-.367.366-.667 2.593-.667 4.947v4.281l-5.25.303c-4.867.28-5.273.498-5.561 2.993-.255 2.214-.876 2.746-3.5 3-3.152.305-3.195.383-3.689 6.575-.461 5.771-.757 6.421-3.75 8.235-4.021 2.437-4.021 2.418.25 12.275 3.25 7.499 3.5 8.811 3.5 18.365v10.289l-10.25.285-10.25.285v4.5c0 3.178.384 4.421 1.308 4.231.72-.149 3.288-.799 5.708-1.446 3.695-.989 5.285-.898 9.941.57 5.276 1.663 5.81 1.663 11.086 0 4.907-1.547 6.081-1.59 10.25-.377 5.902 1.718 8.507 1.72 14.383.009 4.172-1.215 5.259-1.164 10.084.476 5.1 1.733 5.684 1.744 10.252.188 5.946-2.027 8.084-2.058 13.362-.195l4.126 1.455V161.07l-10.25-.285-10.25-.285-.288-9.263c-.27-8.714-.078-9.745 3.25-17.426 1.946-4.49 3.538-8.914 3.538-9.832 0-1.841-3.014-4.979-4.783-4.979-.694 0-1.239-2.59-1.421-6.75l-.296-6.75-3.75-.31c-3.396-.281-3.75-.583-3.75-3.198 0-2.778-.199-2.899-5.25-3.19l-5.25-.302-.305-4.75-.305-4.75h-5.778c-3.178 0-6.079.3-6.445.667m181.136 6.079c5.667.179 14.667.178 20-.001 5.333-.18.697-.326-10.303-.325-11 .001-15.364.148-9.697.326m-10.136 2.921c-.367.366-.667 1.491-.667 2.5 0 1.718 1.288 1.833 20.5 1.833H486v-5h-19.833c-10.909 0-20.134.3-20.5.667M367 112v9h9v-18h-9v9m-97.333-7.333c-.367.366-.667 1.941-.667 3.5 0 2.571-.324 2.833-3.5 2.833-2.833 0-3.5.381-3.5 2 0 2.646.403 2.585 10.274-1.547l8.474-3.548 8.569 3.548C299.27 115.573 300 115.678 300 113c0-1.667-.667-2-4-2-3.905 0-4-.083-4-3.5V104h-10.833c-5.959 0-11.134.3-11.5.667M446 107c0 .632 7.167 1 19.5 1s19.5-.368 19.5-1-7.167-1-19.5-1-19.5.368-19.5 1m-.313 3.646c-2.944 2.945-.517 3.354 19.886 3.354 19.055 0 20.549-.129 20.237-1.75-.304-1.584-2.187-1.776-19.886-2.021-10.752-.148-19.859.039-20.237.417M445.5 117c-.404.654 6.49 1 19.941 1 13.039 0 20.559-.366 20.559-1 0-.633-7.314-1-19.941-1-12.215 0-20.18.387-20.559 1m-.164 6.567c-1.189 3.097 1.274 3.478 20.736 3.205 19.292-.27 19.43-.288 19.748-2.522l.319-2.25h-20.101c-17.328 0-20.184.216-20.702 1.567m-.146 9.183c.308 1.597 2.084 1.75 20.31 1.75s20.002-.153 20.31-1.75c.312-1.621-1.185-1.75-20.31-1.75s-20.622.129-20.31 1.75M367 145v9h9v-18h-9v9m88.75-7.254c5.637.178 14.863.178 20.5 0 5.637-.178 1.025-.324-10.25-.324s-15.887.146-10.25.324m-10.38 3.733c-1.661 4.328-.476 4.578 20.357 4.292l19.773-.271v-5l-19.773-.271c-16.945-.233-19.857-.054-20.357 1.25m.13 7.521c-.404.654 6.49 1 19.941 1 13.039 0 20.559-.366 20.559-1 0-.633-7.314-1-19.941-1-12.215 0-20.18.387-20.559 1m.187 3.646c-2.944 2.945-.517 3.354 19.886 3.354 19.055 0 20.549-.129 20.237-1.75-.304-1.584-2.187-1.776-19.886-2.021-10.752-.148-19.859.039-20.237.417M445.5 159c-.404.654 6.49 1 19.941 1 13.039 0 20.559-.366 20.559-1 0-.633-7.314-1-19.941-1-12.215 0-20.18.387-20.559 1m.167 5.667c-2.921 2.92-.463 3.333 19.833 3.333 19.833 0 20.5-.065 20.5-2 0-1.933-.667-2-19.833-2-10.909 0-20.134.3-20.5.667M367 178v9h9v-18h-9v9m-127.75-4.161c-4.089 1.539-4.25 1.761-4.25 5.88 0 4.909.799 5.193 7.774 2.763 3.792-1.321 4.68-1.319 7.872.015 4.639 1.938 10.134 1.911 14.885-.074 3.438-1.437 4.144-1.437 7.906 0 5.204 1.987 8.988 1.992 14.779.019 4.139-1.41 4.924-1.41 8.3 0 4.657 1.946 9.045 1.977 14.358.102 3.612-1.274 4.64-1.274 8.252 0 6.349 2.241 6.874 2.021 6.874-2.882v-4.337l-5.434-1.847c-5.3-1.802-5.573-1.801-10.999.044-4.924 1.674-6.055 1.739-9.816.565-5.582-1.743-9.225-1.759-15-.065-4.275 1.253-5.296 1.207-10.214-.465-5.149-1.75-5.712-1.762-9.784-.207-5.249 2.005-9.423 2.054-12.753.15-3.164-1.809-7.334-1.698-12.75.339m206.437-1.193c-2.944 2.945-.517 3.354 19.886 3.354 19.055 0 20.549-.129 20.237-1.75-.304-1.584-2.187-1.776-19.886-2.021-10.752-.148-19.859.039-20.237.417m10.063 7.1c5.637.178 14.863.178 20.5 0 5.637-.178 1.025-.324-10.25-.324s-15.887.146-10.25.324m-10.063 2.9c-.378.378-.687 1.512-.687 2.521 0 1.718 1.29 1.833 20.57 1.833h20.569l-.319-2.25c-.318-2.235-.45-2.252-19.883-2.521-10.759-.148-19.872.039-20.25.417M446 191c0 .632 7.167 1 19.5 1s19.5-.368 19.5-1-7.167-1-19.5-1-19.5.368-19.5 1m-1 5c0 1.935.667 2 20.5 2s20.5-.065 20.5-2-.667-2-20.5-2-20.5.065-20.5 2m0 5c0 .634 7.5 1 20.5 1s20.5-.366 20.5-1-7.5-1-20.5-1-20.5.366-20.5 1m-77.333.667c-.367.366-.667 4.416-.667 9V219h9v-18h-3.833c-2.109 0-4.134.3-4.5.667M92 225v20h7v-40h-7v20m9.422 0c0 11.275.146 15.887.324 10.25.178-5.637.178-14.863 0-20.5-.178-5.637-.324-1.025-.324 10.25m3.245-19.333c-.367.366-.667 9.366-.667 20V245h7v-40h-2.833c-1.559 0-3.134.3-3.5.667M115.422 225c0 11.275.146 15.887.324 10.25.178-5.637.178-14.863 0-20.5-.178-5.637-.324-1.025-.324 10.25m3.578 0v20h8v-40h-8v20m12.667-19.333c-1.543 1.542-.742 39.333.833 39.333 1.283 0 1.5-2.889 1.5-20 0-18.262-.367-21.3-2.333-19.333M137 225v20h7v-40h-7v20m9.667-19.333c-.367.366-.667 9.366-.667 20 0 18.666.069 19.333 2 19.333 1.933 0 2-.667 2-20 0-19.787-.423-22.243-3.333-19.333m9.333 19.27V245h7.042l-.271-19.75-.271-19.75-3.25-.313-3.25-.314v20.064m9.422.063c0 11.275.146 15.887.324 10.25.178-5.637.178-14.863 0-20.5-.178-5.637-.324-1.025-.324 10.25m2.578 0v20h7v-40h-7v20m10.667-19.333c-1.113 1.112-.789 39.333.333 39.333.633 0 1-7.333 1-20 0-11-.15-20-.333-20-.184 0-.634.3-1 .667M183 225v20h8v-40h-8v20m12 0c0 17.111.217 20 1.5 20s1.5-2.889 1.5-20-.217-20-1.5-20-1.5 2.889-1.5 20m6 0v20h6v-40h-6v20m9 0c0 19.333.067 20 2 20s2-.667 2-20-.067-20-2-20-2 .667-2 20m9 0v20h7v-40h-7v20m9.422 0c0 11.275.146 15.887.324 10.25.178-5.637.178-14.863 0-20.5-.178-5.637-.324-1.025-.324 10.25m3.578 0v20h6v-40h-6v20m10.422 0c0 11.275.146 15.887.324 10.25.178-5.637.178-14.863 0-20.5-.178-5.637-.324-1.025-.324 10.25m3.578 0v20h8v-40h-8v20m13 0c0 12.667.367 20 1 20s1-7.333 1-20-.367-20-1-20-1 7.333-1 20m5.667-19.333c-.367.366-.667 9.366-.667 20V245h7v-40h-2.833c-1.559 0-3.134.3-3.5.667M274 225c0 17.111.217 20 1.5 20s1.5-2.889 1.5-20-.217-20-1.5-20-1.5 2.889-1.5 20m9 0v20h7v-40h-7v20m12 0v20h7v-40h-7v20m11.422 0c0 11.275.146 15.887.324 10.25.178-5.637.178-14.863 0-20.5-.178-5.637-.324-1.025-.324 10.25m3.578 0v20h8v-40h-8v20m12.667-19.333c-1.543 1.542-.742 39.333.833 39.333 1.283 0 1.5-2.889 1.5-20 0-18.262-.367-21.3-2.333-19.333M328 225v20h7v-40h-7v20m9.667-19.333c-.367.366-.667 9.366-.667 20 0 18.666.069 19.333 2 19.333 1.933 0 2-.667 2-20 0-19.787-.423-22.243-3.333-19.333M292.42 225.5c-.001 11 .145 15.636.325 10.303.179-5.333.18-14.333.001-20-.178-5.667-.325-1.303-.326 9.697m152.924-17.954c-1.197 3.121 1.236 3.499 20.728 3.226 18.671-.261 19.428-.35 19.428-2.272 0-2.776-39.1-3.705-40.156-.954m0 8c-1.197 3.121 1.236 3.499 20.728 3.226 18.671-.261 19.428-.35 19.428-2.272 0-2.776-39.1-3.705-40.156-.954m10.459 6.2c5.667.179 14.667.178 20-.001 5.333-.18.697-.326-10.303-.325-11 .001-15.364.148-9.697.326m-10.136 2.921c-.367.366-.667 1.491-.667 2.5 0 1.718 1.288 1.833 20.5 1.833H486v-5h-19.833c-10.909 0-20.134.3-20.5.667M446 233c0 .632 7.167 1 19.5 1s19.5-.368 19.5-1-7.167-1-19.5-1-19.5.368-19.5 1m-1 5c0 1.935.667 2 20.5 2s20.5-.065 20.5-2-.667-2-20.5-2-20.5.065-20.5 2m.5 5c-.404.654 6.509 1 20 1s20.404-.346 20-1c-.378-.611-8.157-1-20-1s-19.622.389-20 1" fill-rule="evenodd"/>
</svg>