<!DOCTYPE svg PUBLIC "-//W3C//DTD SVG 1.1//EN" "http://www.w3.org/Graphics/SVG/1.1/DTD/svg11.dtd">
<svg xmlns="http://www.w3.org/2000/svg" viewBox="0 0 736 633">
<path d="M415.276 138.112c-3.604 1.041-11.981 8.942-14.262 13.451-4.759 9.409-4.136 9.197-29.014 9.869-24.805.671-32.894 2.26-48.097 9.449-3.628 1.715-7.049 3.119-7.602 3.119-6.85 0-42.796 34.521-60.393 58-3.504 4.675-7.094 9.294-7.978 10.265-2.466 2.709-13.364 24.664-14.76 29.735-1.69 6.141-3.421 43.937-2.909 63.5.485 18.518 2.064 24.113 10.131 35.896 2.535 3.702 4.608 6.931 4.608 7.177 0 3.821 25.504 30.272 33.027 34.253a494.21 494.21 0 0 1 6.473 3.497c5.253 2.905 22.322 9.677 24.39 9.677 1.096 0 2.23.386 2.522.857.869 1.406 11.325 3.046 23.588 3.7 17.035.908 19.024 3.158 15.893 17.978-1.042 4.931-2.153 9.64-2.469 10.465-.316.825-.991 6.959-1.502 13.631-.51 6.673-1.644 14.098-2.521 16.5-.876 2.403-1.998 7.294-2.492 10.869-4.215 30.499-4.349 30.713-19.409 30.876-3.85.042-8.575-.355-10.5-.881-1.925-.527-8.9-2.342-15.5-4.033-6.6-1.691-16.725-4.666-22.5-6.612-5.775-1.946-15.45-4.624-21.5-5.95-13.078-2.868-15.03-3.532-28.772-9.777-3.175-1.443-7-2.625-8.5-2.627-1.5-.002-6.328-1.39-10.728-3.084-4.4-1.695-9.8-3.68-12-4.411-4.851-1.613-19.137-9.321-22.25-12.005-2.061-1.778-2.25-2.802-2.25-12.204 0-8.166-1.26-17.885-2.606-20.107-.498-.822-22.832-6.185-25.758-6.185-6.44 0-6.631-.803-6.678-28.079-.058-33.105-.966-36.892-8.509-35.477-5.972 1.12-6.321 2.905-5.703 29.132.764 32.435.156 34.428-10.496 34.419-14.328-.012-21.08 6.406-19.76 18.786.825 7.738 1.147 8.461 7.317 16.406 3.998 5.149 5.87 6.533 14.639 10.823 16.357 8.004 29.313 13.99 30.278 13.99.495 0 2.672.849 4.838 1.887s7.088 2.89 10.938 4.116c3.85 1.225 7.825 2.653 8.834 3.173 1.008.52 4.833 2.005 8.5 3.301 3.666 1.296 11.166 4.218 16.666 6.494s11.8 4.508 14 4.96c11.693 2.402 39.078 12.247 41.891 15.06.555.555 1.9 1.009 2.988 1.009s3.361.425 5.05.945c1.689.519 7.121 1.7 12.071 2.624 4.95.924 9.9 2.228 11 2.897 1.1.67 4.7 2.022 8 3.005 3.3.983 7.8 2.59 10 3.572 2.2.982 6.113 2.724 8.695 3.871 2.949 1.31 6.785 2.086 10.316 2.086 6.14 0 8.563.915 12.739 4.809l2.75 2.565v42.93l13.721-.688c19.888-.998 17.855.939 17.427-16.611l-.363-14.901 2.792-2.588c1.835-1.7 3.33-2.334 4.358-1.848.861.407 4.94.888 9.065 1.07 4.125.181 8.58.877 9.901 1.546 2.626 1.33 11.338 1.391 48.599.339 15.498-.437 24.468-1.114 27.5-2.076 2.475-.785 9-1.737 14.5-2.116s11.125-1.125 12.5-1.656c1.375-.532 4.962-1.619 7.971-2.416 3.009-.797 6.159-2.068 7-2.826.841-.757 2.771-1.687 4.288-2.066 1.518-.379 3.007-1.089 3.309-1.578.303-.489 2.075-.889 3.939-.889 4.337 0 18.498-4.454 21.61-6.797 2.832-2.131 9.198-4.822 13.383-5.656 3.904-.778 26.22-10.347 29.654-12.716 1.46-1.007 3.229-1.831 3.932-1.831 2.184 0 20.23-9.221 22.377-11.435 10.055-10.366 13.526-19.41 10.959-28.559-2.367-8.434-3.724-9.339-14.966-9.974-14.679-.83-13.847 1.097-14.456-33.51-.545-30.998-.418-30.401-6.629-31.142-7.038-.84-6.815-1.784-7.371 31.173l-.5 29.628-2.361 1.909c-1.683 1.362-3.938 1.91-7.855 1.91-6.112 0-22.236 4.494-22.71 6.329-1.728 6.696-2.058 10.265-1.543 16.671.753 9.355-.541 12.502-6.875 16.714-4.463 2.968-25.765 9.286-31.31 9.286-2.165 0-7.658 2.234-15.012 6.104-2.017 1.062-6.742 2.352-10.5 2.869-10.395 1.427-22.55 3.778-25.67 4.965-3.21 1.22-20.759 1.242-34.664.042-46.435-4.006-47.385-4.446-44.554-20.632.851-4.866 1.549-10.391 1.551-12.277.002-1.886.428-4.811.948-6.5 1.43-4.649 4.143-18.262 5.097-25.571.466-3.575 1.587-9.65 2.492-13.5.904-3.85 2.23-12.615 2.946-19.477 1.729-16.57 2.826-17.692 17.908-18.323 18.121-.757 32.983-3.641 55.411-10.752 5.115-1.621 9.959-2.948 10.764-2.948.805 0 2.246-.398 3.201-.885 2.525-1.286 14.762-5.114 16.367-5.12 1.882-.006 11.984-4.185 15.181-6.28 1.44-.943 3.196-1.735 3.903-1.759.707-.025 4.885-2.281 9.285-5.014s9.318-5.751 10.928-6.706c5.011-2.971 18.33-17.189 20.573-21.962 1.176-2.501 3.906-6.941 6.068-9.868 2.162-2.926 3.931-5.988 3.931-6.804 0-.816.395-1.728.877-2.026 1.081-.668 6.123-16.616 6.123-19.367 0-1.099.94-5.042 2.089-8.761 4.738-15.341 2.17-66.272-4.031-79.948-.499-1.1-1.125-3.125-1.391-4.5-.72-3.724-5.788-17.276-7.107-19-1.814-2.374-3.388-6.206-4.106-10-.364-1.925-2.303-5.525-4.308-8-2.005-2.475-4.739-6.596-6.075-9.159-2.949-5.655-18.855-22.429-25.071-26.438-2.475-1.597-5.398-3.714-6.495-4.706-1.097-.991-5.822-3.875-10.5-6.408-4.678-2.533-10.305-5.803-12.505-7.267-2.2-1.464-5.575-3.246-7.5-3.96-1.925-.714-5.3-2.086-7.5-3.047-9.072-3.966-45.979-6.575-55.224-3.903m24.766 22.717c-2.073.197-4.834 1.537-6.897 3.348-1.891 1.661-5.398 3.86-7.792 4.886-4.215 1.807-4.353 2.008-4.353 6.363 0 9.756-12.716 15.059-26.068 10.87-7.856-2.464-38.298-2.06-44.323.589-2.26.993-6.682 2.822-9.828 4.064-9.136 3.607-19.18 12.952-45.198 42.051-3.688 4.125-7.691 9.12-8.895 11.099-3.659 6.019-12.384 19.246-14.445 21.901-4.699 6.051-6.288 13.514-7.344 34.5-1.481 29.408-.517 45.327 3.209 53 3.077 6.339 9.181 16.38 10.576 17.397.455.331 2.142 2.403 3.748 4.603 9.085 12.442 21.195 21.722 35.346 27.086 16.66 6.314 67.872 9.679 90.448 5.942 16.738-2.77 43.055-9.409 51.774-13.06 3.575-1.497 11.9-4.645 18.5-6.996 17.808-6.343 23.724-10.275 33.418-22.215 7.664-9.439 17.36-33.406 19.12-47.257.594-4.675 1.794-12.55 2.666-17.5 1.69-9.589.199-20.696-4.698-35-.941-2.75-2.022-8.18-2.401-12.066-.79-8.092-2.131-12.869-6.576-23.434-1.736-4.125-3.748-9.088-4.47-11.029-3.699-9.935-9.848-20.196-15.39-25.682-7.781-7.702-15.745-14.473-19.012-16.164-1.461-.756-3.378-2.004-4.26-2.772-2.808-2.447-26.258-13.625-29.897-14.251-1.925-.331-5.056-.454-6.958-.273m-32.577 77.057c-10.223 3.682-11.905 6.016-9.304 12.907C403.77 265.652 433 263.702 433 248.468c0-5.798-9.747-12.527-18-12.426-1.375.016-4.766.846-7.535 1.844m-102.054 1.005c-14.317 8.731-6.168 23.178 13.017 23.077 6.585-.034 8.344-.915 12.159-6.086 2.839-3.848 3.175-9.349.78-12.768-4.04-5.768-19.34-8.257-25.956-4.223m14.089 73.331c-12.562 4.453-11.583 15.12 2.597 28.299 18.562 17.251 31.6 21.443 56.058 18.023 17.027-2.38 24.045-5.073 36.047-13.83 13.228-9.651 14.866-19.904 4.014-25.132-5.445-2.623-8.081-1.953-23.85 6.065l-15.133 7.694-11.134.459c-14.905.614-17.26-.344-28.778-11.698-11.804-11.637-13.077-12.271-19.821-9.88" fill-rule="evenodd"/>
</svg>