<!DOCTYPE svg PUBLIC "-//W3C//DTD SVG 1.1//EN" "http://www.w3.org/Graphics/SVG/1.1/DTD/svg11.dtd">
<svg xmlns="http://www.w3.org/2000/svg" viewBox="0 0 720 528">
<path d="M345 28.086C273.363 32.072 204.629 73.989 166.406 137c-35.632 58.74-42.067 135.302-16.727 199 60.27 151.501 255.007 192.386 370.369 77.759 56.812-56.449 79.413-138.067 59.811-215.992C553.308 92.214 455.998 21.91 345 28.086m-5.995 21.004c-78.871 7.588-149.193 64.436-173.902 140.581C121.981 322.557 220.861 459 360.283 459c135.829 0 234.323-129.115 198.339-260-26.631-96.863-118.584-159.631-219.617-149.91M332.5 72.96c-51.016 8.148-97.081 37.941-113.509 73.413-6.411 13.844-6.724 15.167-4.341 18.372 4.696 6.318 6.501 5.329 26.656-14.604 10.007-9.896 21.119-20.331 24.694-23.189 24.965-19.953 55.964-34.292 92-42.556 6.325-1.45 12.063-3.088 12.75-3.639 2.067-1.657 1.496-6.471-.973-8.2-3.053-2.139-22.687-1.927-37.277.403M200.752 186.75c-9.332 9.787-14.134 30.681-8.653 37.649 7.655 9.732 17.347-7.341 18.05-31.796.248-8.637-4.138-11.368-9.397-5.853m141.183 20.417c-.036 1.283-.824 9.758-1.75 18.833l-1.685 16.5-9.195 5a2941.151 2941.151 0 0 1-16.836 9.077l-7.641 4.078 17.336 7.539 17.336 7.54 3.155 18.204c1.735 10.013 3.363 18.413 3.618 18.669.344.343 17.909-18.754 24.719-26.875.354-.422 8.819.447 18.812 1.93 9.993 1.484 18.41 2.458 18.704 2.163.294-.294-3.525-7.374-8.487-15.734-4.961-8.36-9.021-15.856-9.021-16.657 0-.802 3.6-8.647 8-17.434s8-16.13 8-16.319c0-.188-7.762 1.376-17.25 3.474-9.488 2.099-17.94 3.823-18.784 3.831-.843.008-7.706-5.873-15.25-13.069-11.461-10.933-13.727-12.7-13.781-10.75m191.366 63.083c-2.154 2.367-5.509 9.541-14.816 31.679-14.263 33.926-28.725 56.424-52.235 81.266-8.688 9.18-9.889 12.012-6.421 15.15 2.813 2.546 5.148 2.034 13.117-2.879 43.513-26.827 75.7-79.331 72.048-117.525-.873-9.132-6.821-13.045-11.693-7.691" fill-rule="evenodd"/>
</svg>