<!DOCTYPE svg PUBLIC "-//W3C//DTD SVG 1.1//EN" "http://www.w3.org/Graphics/SVG/1.1/DTD/svg11.dtd">
<svg xmlns="http://www.w3.org/2000/svg" viewBox="0 0 720 508">
<path fill="#040404" d="M329.5 25.491c-73.612 11.228-134.157 53.631-169.332 118.594-28.953 53.471-33.906 124.997-12.642 182.551 49.389 133.677 206.955 189.955 328.732 117.415 122.956-73.243 147.875-240.733 51.568-346.605-33.703-37.05-77.468-60.995-129.826-71.03-11.761-2.255-55.877-2.85-68.5-.925m18 19.101c-32.115 3.149-52.626 8.573-76.583 20.251-102.18 49.81-144.648 171.543-95.499 273.75 20.704 43.055 55.977 77.943 98.392 97.32 11.705 5.347 30.95 12.334 32.528 11.808.547-.183-1.893-1.37-5.422-2.638-51.795-18.621-96.934-63.344-117.161-116.083C134.244 199.911 225.657 61.113 364 55.322c50.392-2.109 103.956 16.697 139.884 49.113 10.326 9.317 11.712 9.757 3.087.98C476.885 74.8 436.851 54.318 392 46.596c-8.497-1.463-36.951-2.744-44.5-2.004m-6 34.334c-39.466 7.054-71.103 25.39-94.617 54.837-9.846 12.33-18.665 29.908-16.776 33.437 2.189 4.091 5.134 2.08 13.882-9.481 33.161-43.822 74.142-68.242 123.692-73.705 15.48-1.707 15.502-1.713 15.134-4.299-.439-3.087-25.755-3.57-41.315-.789m23.63 77.294c-2.06 22.938.064 19.497-17.837 28.888l-15.538 8.152 15.813 6.769c10.344 4.428 16.049 7.41 16.495 8.62.375 1.018 1.662 7.926 2.86 15.351 3.146 19.49 1.837 19.095 14.956 4.503l11.344-12.619 5.639.686c3.101.377 10.813 1.481 17.138 2.454 6.325.973 11.626 1.652 11.78 1.509.154-.143-3.558-6.769-8.25-14.724-4.691-7.955-8.53-14.997-8.53-15.649 0-.652 3.396-7.966 7.548-16.255 5.67-11.321 7.1-14.944 5.75-14.563-.989.278-8.657 1.927-17.04 3.664l-15.242 3.158-12.053-11.332c-6.63-6.233-12.411-11.458-12.847-11.612-.436-.153-1.33 5.697-1.986 13m-37.117 114.519c-1.867 20.948-.384 18.58-17.081 27.288-7.938 4.14-14.359 7.943-14.27 8.451.089.508 6.839 3.835 15 7.393s14.976 6.568 15.145 6.689c.169.121 1.63 7.578 3.247 16.571 1.617 8.993 3.054 16.669 3.193 17.057.139.388 2.85-2.308 6.023-5.991a793.46 793.46 0 0 1 11.5-13l5.73-6.304 16.928 2.542c9.31 1.399 17.065 2.406 17.232 2.238.168-.167-3.512-6.784-8.178-14.703-4.665-7.919-8.482-14.924-8.482-15.566 0-.642 3.168-7.578 7.039-15.413 3.872-7.835 6.805-14.48 6.518-14.767-.493-.493-5.053.39-24.367 4.722l-8.309 1.864-12.317-11.905C335.791 261.357 330.041 256 329.787 256c-.253 0-1.052 6.632-1.774 14.739" fill-rule="evenodd"/>
</svg>