<!DOCTYPE svg PUBLIC "-//W3C//DTD SVG 1.1//EN" "http://www.w3.org/Graphics/SVG/1.1/DTD/svg11.dtd">
<svg xmlns="http://www.w3.org/2000/svg" viewBox="0 0 463 460">
<path d="M433 25.528c-26.592 6.566-61.963 7.908-95 3.605-31.208-4.065-51.552-3.188-100 4.313-39.607 6.131-50.194 6.614-85.5 3.898-41.504-3.193-68.566.404-117 15.552-18.721 5.855-18.997 5.982-18.795 8.645.113 1.486.389 2.886.613 3.111.225.224 10.933-2.776 23.795-6.667C90.867 42.934 99.43 42.067 175.5 44.38c28.786.875 29.127.845 80-6.975 30.834-4.74 57.781-5.244 86.613-1.619 30.067 3.78 55.074 3.071 83.954-2.38 15.821-2.987 16.277-3.187 15.383-6.751-.75-2.988-.856-3.002-8.45-1.127m-2 50.021c-22.074 5.535-60.62 7.364-84.897 4.028-31.309-4.303-56.553-4.169-87.103.463-61.936 9.391-66.323 9.72-98.92 7.428-49.918-3.51-70.737-1.085-121.58 14.166-25.404 7.621-22.768 6.449-21.94 9.748.867 3.455-.244 3.641 26.54-4.461 44.345-13.416 69.366-16.514 109.4-13.543 35.621 2.644 46.866 2.133 86.5-3.925 12.375-1.892 27.675-4.136 34-4.988 15.255-2.055 43.741-2.032 61 .048 37.456 4.515 55.105 4.6 82.5.398 6.717-1.03 24.679-4.875 25.299-5.415.164-.143.003-1.438-.359-2.878-.757-3.017-2.116-3.156-10.44-1.069m-.5 42.499c-26.715 6.232-60.607 7.354-92.958 3.079-29.039-3.838-53.024-2.879-95.542 3.821-40.466 6.378-55.586 7.154-89 4.571-41.867-3.236-66.401-.139-114 14.39-22.394 6.835-22.499 6.881-22.295 9.601.113 1.503.383 2.911.6 3.129.218.217 8.522-2.074 18.453-5.093 31.309-9.516 31.848-9.639 33.591-7.711 8.025 8.877 42.576 59.383 47.659 69.665 13.065 26.431 15.903 54.38 8.438 83.112-3.41 13.125-3.224 12.893-12.699 15.794-4.536 1.389-16.797 5.24-27.247 8.559-21.405 6.797-21.603 6.821-32.833 3.941-10.549-2.706-16.951-2.244-23.373 1.684-9.324 5.704-11.811 16.497-5.87 25.474 4.567 6.901 7.705 7.712 32.576 8.414 11.825.334 23.443.845 25.818 1.136 5.212.638 5.876-.697-9.382 18.852-11.725 15.022-11.913 15.14-22.436 14.103-8.908-.878-13.601.447-19.276 5.443-16.054 14.131-10.831 36.709 9.335 40.362 5.947 1.078 11.122-1.29 44.172-20.21 17.453-9.99 32.078-18.164 32.5-18.163.423.001.834 2.176.914 4.834.334 11.111 10.161 21.165 20.688 21.165 2.776 0 31.891-6.447 69.667-15.425 3.575-.85 6.799-1.552 7.164-1.56.365-.008-.258 2.168-1.386 4.837-2.964 7.016-1.907 12.968 3.309 18.627 7.431 8.061 7.757 8.05 46.147-1.525 32.632-8.139 33.761-8.505 59.266-19.247 32.537-13.703 36.866-14.714 53.338-12.464 29.023 3.966 54.337-10.445 60.767-34.593 3.197-12.007.715-22.134-9.212-37.591-6.989-10.882-10.447-18.33-12.923-27.834-1.527-5.865-20.002-170.027-19.222-170.806.239-.239 6.012-1.125 12.83-1.969 11.12-1.376 32.367-5.553 33.358-6.558.833-.843-.735-5.887-1.803-5.801-.623.05-4.733.93-9.133 1.957m-149.404 8.035c-10.551 1.017-35.325 4.812-36.033 5.52-.561.561 3.179 11.933 18.48 56.189 17.724 51.263 18.822 75.848 4.918 110.111-11.504 28.348-22.833 40.387-68.961 73.285-36.414 25.97-35.946 25.771-47.651 20.322-9.83-4.577-20.323-1.676-25.424 7.028-5.915 10.092.787 22.462 12.17 22.462 11.016 0 76.877-16.693 108.487-27.497 40.672-13.901 43.323-14.348 58.637-9.896 25.284 7.35 53.083-10.734 54.976-35.762.789-10.429-1.319-17.075-9.15-28.845-14.175-21.307-13.588-18.669-25.171-113.134-5.403-44.07-10.208-79.693-10.803-80.101-1.373-.941-23.53-.737-34.475.318m42.485 6.667c.446 4.725 3.938 16.5 11.641 39.25 19.769 58.387 22.888 68.071 24.294 75.419 3.462 18.096 2.792 35.876-2.078 55.139l-2.543 10.057 3.899 5.943c16.206 24.698 7.507 55.728-19.032 67.889-12.954 5.936-23.136 6.952-35.83 3.577-14.662-3.9-17.631-3.304-32.957 6.604-16.937 10.951-18.334 11.501-30.835 12.141-9.477.484-10.757.794-15 3.63-7.719 5.159-8.609 12.991-2.143 18.851 4.254 3.855 5.053 3.753 40.776-5.213 30.639-7.691 32.583-8.326 56.683-18.526 31.79-13.455 33.647-13.947 49.044-12.97 22.107 1.401 24.952 1.157 35.311-3.034C423.167 384.083 430.5 374.232 430.5 357c0-11.823-.095-12.081-9.913-26.918-12.262-18.529-12.44-19.423-23.066-116.082-4.685-42.625-8.765-78.963-9.065-80.75l-.547-3.25-15.204-.02c-9.295-.013-21.035-.789-30.205-1.996-21.486-2.83-19.679-3.286-18.919 4.766M222.5 134.464l-14 2.111.02 4.463c.011 2.454.654 17.422 1.428 33.261 1.094 22.37 1.154 30.966.27 38.501-4.875 41.549-31.472 78.425-69.329 96.121-11.597 5.421-71.176 24.077-76.914 24.085-2.461.003-8.75-.939-13.975-2.093-9.327-2.061-9.589-2.065-14.396-.256-7.961 2.997-11.181 10.16-7.586 16.876 2.897 5.414 4.716 5.715 40.982 6.764l33.5.97 25.254-3.133c36.409-4.518 43.702-4.113 59.544 3.303 13.146 6.155 13.793 6.081 26.833-3.066C230.81 340.671 250 321.613 250 316.75c0-.771-1.122-4.613-2.494-8.539-7.226-20.684-7.031-28.713 1.996-82.02l6.657-39.31-9.227-26.973c-5.075-14.834-9.498-27.103-9.829-27.263-.332-.161-6.903.658-14.603 1.819m-116 1.223c-11.359.997-30.5 4.315-30.5 5.288 0 .423 7.563 11.29 16.806 24.147 28.414 39.523 30.761 43.442 36.759 61.365 7.627 22.794 8.447 47.506 2.366 71.284-1.064 4.158-1.7 7.793-1.414 8.079 2.558 2.558 29.615-15.239 41.066-27.012C182.661 267.45 195 249.111 195 244.037c0-1.409-45.885-106.193-47.191-107.767-1.001-1.206-29.608-1.61-41.309-.583m49.531 1.475c.056 2.448 41.588 96.341 42.536 96.164 1.477-.275 4.305-11.904 5.55-22.822.913-8.003.815-15.904-.49-39.504-.898-16.225-1.631-30.443-1.63-31.596.003-2.052-.388-2.097-18.84-2.135-10.363-.022-20.713-.356-23-.742-3.161-.534-4.15-.382-4.126.635m173.98 44.421c.039 10.882 12.947 105.581 15.313 112.342 3.982 11.384 5.11 11.846 7.155 2.934 6.264-27.286 4.413-41.527-11.409-87.772-10.587-30.945-11.076-32.162-11.059-27.504m-69.393 21.227C258.745 205.839 249 268.488 249 277.495c0 12.566 3.869 31.505 6.436 31.505.891 0 7.135-13.066 9.38-19.627 6.341-18.533 8.001-42.681 4.208-61.216-2.472-12.08-7.408-26.963-8.406-25.347M138 357.52c-10.175 1.272-23.675 2.851-30 3.509-6.325.658-11.994 1.33-12.597 1.494-.603.163-7.298 8.263-14.879 18-16.23 20.848-18.41 22.415-28.847 20.735-10.043-1.618-15.45.575-21.094 8.554-7.374 10.425-.477 23.747 12.24 23.641 8.699-.073 63.391-31.809 100.498-58.315 31.714-22.656 31.833-22.264-5.321-17.618m36.238 3.941c-7.838 4.481-28.412 19.767-27.57 20.483 2.753 2.342 13.845 6.203 16.369 5.699C165.85 387.08 194 367.541 194 366.151c0-.577-14.086-7.187-15.215-7.139-.157.007-2.203 1.109-4.547 2.449m76.084 37.865c-1.748.646-3.547 1.548-3.998 2.005-1.121 1.137 4.591-.299 7.676-1.929 3.075-1.626.654-1.676-3.678-.076" fill-rule="evenodd"/>
</svg>