<!DOCTYPE svg PUBLIC "-//W3C//DTD SVG 1.1//EN" "http://www.w3.org/Graphics/SVG/1.1/DTD/svg11.dtd">
<svg xmlns="http://www.w3.org/2000/svg" viewBox="0 0 471 286">
<path fill="#060606" d="M66.062 6.827C62.415 8.783 59 14.046 59 17.71c0 1.943-.314 2.121-2.367 1.341-5.402-2.054-13.074 1.504-15.696 7.28C34.223 41.118 47.6 50.893 74.668 50.98l6.168.02 2.551-7.75c6.304-19.155 5.401-31.36-2.686-36.29-4.023-2.454-10.207-2.51-14.639-.133m62.075 28.203c-23.44 4.86-32.493 33.61-16.163 51.326 13.901 15.081 40.649 11.378 49.573-6.862 11.39-23.281-8.419-49.647-33.41-44.464m66.586 29.98c-18.71 3.258-27.315 22.275-15.947 35.24 2.438 2.781 2.932 2.294 8.118-8 6.581-13.064 9.467-15.75 16.922-15.75 6.516 0 10.179 2.07 12.651 7.151 2.73 5.612 1.997 9.082-4.665 22.068-5.986 11.67-6.183 12.282-4.382 13.599 1.037.758 1.616 1.815 1.287 2.348-.799 1.292-12.707 9.621-12.707 8.887 0-.316 4.05-8.665 9-18.553 11.444-22.862 11.833-28.452 2.23-32.103-8.604-3.271-9.551-1.916-37.778 54.033-5.946 11.786-11.63 22.248-12.632 23.25-3.07 3.07-3.967 2.028-1.84-2.14 2.62-5.136 2.654-5.04-1.796-5.04-16.688 0-25.346 6.128-26.873 19.02-.562 4.744-.707 4.927-5.123 6.432-2.499.851-4.689 1.548-4.866 1.548-.177 0-.322-1.999-.322-4.443 0-7.198-1.104-7.557-23.223-7.557C68.935 165 70 164.282 70 180.345c0 14.095.262 14.438 11.374 14.859l7.818.296 1.286 3.75 1.286 3.75H74.989c-14.374 0-16.862-.226-17.382-1.582-.334-.87-.607-29.13-.607-62.8 0-46.281-.293-61.511-1.2-62.418-1.995-1.995-38.196-1.661-40.229.371-2.621 2.622-2.37 200.396.258 202.774 1.562 1.414 4.515 1.655 20.3 1.655C56.791 281 57 280.934 57 274.382c0-2.32.273-4.93.607-5.8.55-1.435 17.604-1.582 183-1.582H423v4.777c0 9.108.274 9.223 22 9.223 18.383 0 18.928-.059 20.443-2.223 2.727-3.892 2.311-103.023-.443-105.777-1.1-1.1-2.614-2-3.364-2-.867 0-1.599-1.712-2.008-4.7-1.623-11.835-6.454-14.38-29.128-15.343-31.094-1.32-47.448-7.484-87.5-32.98-45.084-28.699-52.284-31.395-73.265-27.444l-9.532 1.796-3.852-3.01c-20.184-15.77-47.895-26.701-61.628-24.309m96.527 6.21c-2.63 1.269-3.084 3.336-.5 2.277 5.51-2.259 9.868-1.772 13.621 1.524 3.883 3.409 5.51 3.494 3.745.195-2.29-4.278-11.672-6.5-16.866-3.996m1 6.442c-2.773 1.119-1.077 2.396 2.333 1.756 2.827-.53 4.214-.205 6.578 1.543 3.902 2.885 5.181 1.594 1.533-1.546-2.655-2.286-7.224-3.052-10.444-1.753M271 95.497c-16.696 3.361-32.319 11.989-71.501 39.484-41.383 29.04-60.381 39.872-84.345 48.088-23.664 8.114-26.41 14.841-9.505 23.289 32.247 16.115 89.968 20.892 120.851 10.001 33.845-11.935 55.285-11.269 116.89 3.632 37.429 9.053 43.529 9.539 57.73 4.602 25.54-8.88 52.813-37.621 53.254-56.119.229-9.615-4.766-12.459-21.9-12.468-32.483-.018-46.985-5.666-101.474-39.517-37.646-23.388-41.465-24.724-60-20.992M94.05 98.541c-23.546 6.567-30.296 36.365-11.97 52.841 19.703 17.715 50.885 3.618 50.914-23.017.022-20.294-19.502-35.246-38.944-29.824m300.2 27.679c-1.238.597-2.25 1.519-2.25 2.049 0 .55.968.65 2.25.234 6.495-2.108 9.376-1.771 13.144 1.538 3.755 3.297 5.139 3.51 4.03.622-1.73-4.508-11.693-7.086-17.174-4.443m1 6.442c-2.877 1.161-.933 2.256 3.039 1.712 3.244-.445 4.613-.197 5.622 1.019.734.884 2.032 1.607 2.886 1.607 1.19 0 1.004-.583-.797-2.5-2.266-2.412-7.226-3.26-10.75-1.838" fill-rule="evenodd"/>
</svg>