<!DOCTYPE svg PUBLIC "-//W3C//DTD SVG 1.1//EN" "http://www.w3.org/Graphics/SVG/1.1/DTD/svg11.dtd">
<svg xmlns="http://www.w3.org/2000/svg" viewBox="0 0 344 452">
<path fill="#040404" d="M130 24.984a40678.094 40678.094 0 0 1-79 20.927C10.98 56.46 9.622 56.996 10.208 61.992c.409 3.488 1.31 3.809 36.985 13.182C74.17 82.261 78.966 83.798 79.429 85.5c.299 1.1.55 13.037.557 26.527.016 27.779-.084 27.379 7.834 31.367 32.474 16.358 98.45 21.423 143.18 10.991 21.212-4.947 36.474-11.129 39.73-16.092 1.557-2.375 1.809-5.866 2.094-28.996.25-20.31.61-26.297 1.583-26.297.693 0 7.825-1.8 15.848-4 8.024-2.2 15.299-4 16.167-4 1.391 0 1.573 2.633 1.539 22.25l-.038 22.25-3.212 2.005c-12.904 8.058-6.16 29.495 9.279 29.495 15.772 0 22.175-19.907 9.511-29.567l-3.501-2.67v-47.52l10.035-2.753C339.808 65.81 342 64.393 342 60.757c0-3.727-3.1-4.887-36.5-13.652-48.833-12.817-109.842-28.941-117.98-31.183-10.919-3.007-13.995-2.523-57.52 9.062M80.256 170.958c-3.324 15.57.686 43.015 8.58 58.715 36.147 71.894 137.86 72.379 173.704.827 8.029-16.029 9.774-23.537 9.876-42.5.046-8.525-.244-16.665-.645-18.089l-.728-2.589-11.249 3.879c-46.502 16.038-119.31 16.066-167.248.064l-11.533-3.849-.757 3.542m2.515 111.039C47.02 294.105 24.102 319.743 14.833 358c-.981 4.047-1.333 14.79-1.333 40.676 0 39.912-.3 38.389 8.486 43.035L26.315 444H325.576l4.404-2.25c8.674-4.432 8.481-3.554 8.811-40.055.324-35.892-.165-41.062-5.357-56.591-10.599-31.699-37.23-56.274-70.08-64.667l-7.146-1.826-3.829 3.362c-39.032 34.27-106.556 35.158-149.854 1.972-7.533-5.773-8.25-5.844-19.754-1.948" fill-rule="evenodd"/>
</svg>