<!DOCTYPE svg PUBLIC "-//W3C//DTD SVG 1.1//EN" "http://www.w3.org/Graphics/SVG/1.1/DTD/svg11.dtd">
<svg xmlns="http://www.w3.org/2000/svg" viewBox="0 0 720 537">
<path fill="#070707" d="M326.264 41.029C222.737 56.698 142.665 142.483 134.863 246.088 121.657 421.463 301.702 544.275 459.5 467.528c93.715-45.58 142.88-145.76 122.383-249.369C563.904 127.273 486.83 54.653 393.83 40.97c-17.93-2.638-49.932-2.61-67.566.059m13.037 18.964C208.206 73.852 123.924 204.756 165.549 329.86c47.319 142.216 228.42 187.262 336.351 83.663 117.37-112.659 65.65-308.049-92.284-348.634-18.328-4.71-50.731-6.966-70.315-4.896M338 83.096c-51.92 5.795-105.449 40.177-121.029 77.737-4.133 9.963-4.428 12.317-1.937 15.483 4.164 5.293 6.029 4.241 24.048-13.566 39.097-38.637 70.83-56.652 118.384-67.207 6.581-1.461 12.543-3.136 13.25-3.722 2.093-1.737 1.55-6.521-.939-8.264-2.494-1.748-18.205-1.975-31.777-.461m-16.025 50.417c-.073 2.9-3.893 37.726-4.16 37.931-.173.132-7.609 4.02-16.525 8.638-8.915 4.619-15.89 8.714-15.5 9.099.391.386 7.685 3.705 16.21 7.375 8.525 3.671 15.994 7.184 16.597 7.809.603.624 2.348 8.785 3.878 18.135 1.53 9.35 3.116 17.37 3.524 17.821.409.452 6.066-5.173 12.571-12.5 13.855-15.605 11.347-14.749 33.381-11.395 9.049 1.378 16.599 2.358 16.778 2.178.18-.18-3.957-7.601-9.193-16.492l-9.521-16.165 8.498-16.973c4.674-9.336 8.11-16.974 7.635-16.974-.475 0-8.901 1.808-18.725 4.017l-17.862 4.018-13.781-13.754c-7.579-7.565-13.791-13.31-13.805-12.768M424.64 195.75c-.36 4.262-1.162 12.765-1.783 18.896l-1.129 11.145-16.897 8.738c-9.293 4.806-16.77 8.852-16.614 8.992.156.139 7.699 3.468 16.763 7.396 9.064 3.929 16.844 7.507 17.289 7.952.446.446 2.166 8.856 3.825 18.691 1.658 9.835 3.162 18.03 3.343 18.21.245.246 24.083-25.893 25.151-27.578.107-.17 8.425.837 18.483 2.237 10.059 1.399 18.495 2.339 18.746 2.087.251-.251-3.655-7.475-8.68-16.053-5.025-8.578-9.137-16.022-9.137-16.542 0-.519 3.627-8.187 8.06-17.04 4.432-8.852 7.904-16.25 7.715-16.439-.189-.189-8.563 1.518-18.609 3.793l-18.266 4.137-13.213-13.186C432.419 193.934 426.208 188 425.883 188c-.324 0-.884 3.488-1.243 7.75m-223.888 2c-9.408 9.867-14.41 31.727-8.66 37.848 8.387 8.928 17.908-8.479 17.908-32.739 0-8.168-4.147-10.459-9.248-5.109m69.87 49.34c-.272 1.325-.988 8.035-1.59 14.91-.602 6.875-1.342 14.32-1.646 16.545l-.552 4.046-16.397 8.454c-9.019 4.65-16.406 8.691-16.417 8.979-.011.288 7.623 3.848 16.963 7.91 10.024 4.36 17.168 8.038 17.432 8.976.247.875 1.673 9.128 3.171 18.34 1.497 9.212 3.076 16.75 3.507 16.75.431 0 6.048-5.888 12.482-13.084 6.433-7.196 12.272-13.304 12.973-13.573.702-.269 9.227.707 18.945 2.17 9.717 1.463 17.815 2.508 17.995 2.323.181-.185-3.926-7.613-9.125-16.507l-9.453-16.171 8.55-17.079c4.703-9.393 8.344-17.079 8.091-17.079-.253 0-8.678 1.805-18.722 4.011l-18.264 4.01-7.532-7.266c-20.934-20.193-19.864-19.319-20.411-16.665m262.7 33.825c-1.131 1.053-5.547 10.166-9.814 20.25a11554.813 11554.813 0 0 1-10.749 25.335c-9.355 21.891-26.637 46.887-47.452 68.635-7.752 8.1-8.91 11.104-5.478 14.21 2.849 2.579 5.152 2.028 13.713-3.275 31.825-19.717 58.321-53.687 68.695-88.07 1.347-4.468 2.125-10.774 2.487-20.17l.527-13.67-2.58-2.58c-3.061-3.061-6.514-3.307-9.349-.665m-161.754 29.182c-.331 2.422-1.244 11.091-2.03 19.265-.786 8.174-1.566 14.966-1.733 15.092-.168.127-7.599 4.01-16.515 8.628-8.915 4.619-15.89 8.714-15.5 9.099.391.386 7.685 3.705 16.21 7.375 8.525 3.671 16.005 7.184 16.621 7.809.617.624 2.398 9.123 3.957 18.885 1.559 9.762 3.165 17.75 3.569 17.75.403 0 6.197-6.179 12.876-13.731 11.297-12.774 12.363-13.707 15.31-13.4 1.742.181 10.142 1.358 18.667 2.615 8.525 1.256 15.651 2.148 15.836 1.981.185-.167-3.981-7.539-9.256-16.383l-9.592-16.079 8.511-17.002c4.824-9.634 7.968-16.987 7.257-16.968-.691.018-9.131 1.788-18.756 3.933l-17.5 3.899-13.666-13.585-13.666-13.585-.6 4.402" fill-rule="evenodd"/>
</svg>