<!DOCTYPE svg PUBLIC "-//W3C//DTD SVG 1.1//EN" "http://www.w3.org/Graphics/SVG/1.1/DTD/svg11.dtd">
<svg xmlns="http://www.w3.org/2000/svg" viewBox="0 0 720 547">
<path d="M245.5 61.469c-31.181 5.87-55.308 28.233-63.689 59.031-2.052 7.541-2.212 10.841-2.788 57.5l-.612 49.5-17.637 45.314c-15.523 39.88-18.118 45.836-21.644 49.66-5.308 5.759-5.291 5.599-4.937 46.106l.307 35.079 2.791 3.657c3.498 4.584 5.69 5.766 13.209 7.119l6 1.079.269 22.243.269 22.243h36.924l.269-22.25.269-22.25 170.25-.253 170.25-.253V460h37v-45.071l4.384-1.879c2.447-1.049 5.651-3.539 7.25-5.635l2.866-3.756.307-35.079c.354-40.481.368-40.35-4.913-46.079-3.49-3.787-6.161-9.909-21.665-49.66L542.545 227.5l-.59-49.5c-.556-46.7-.713-49.953-2.766-57.5-7.712-28.339-29.503-50.109-58.189-58.133-8.591-2.403-223.161-3.221-235.5-.898m3.5 14.209c-23.388 4.025-44.049 21.892-51.741 44.744l-2.719 8.078-.326 45.287-.326 45.287 9.74-.287 9.741-.287 16.657-31c19.369-36.048 23.124-40.922 36.092-46.844 4.06-1.855 8.507-3.89 9.882-4.523 1.375-.633 5.2-3.43 8.5-6.216 17.432-14.715 45.668-21.107 68.614-15.532 7.359 1.788 7.846 1.789 14.5.051 22.154-5.789 51.352.804 68.955 15.571 3.262 2.736 7.056 5.493 8.431 6.126 1.375.633 5.822 2.668 9.882 4.523 12.891 5.887 16.657 10.777 36.077 46.844l16.691 31 9.731.287 9.731.287-.335-45.287c-.326-44.107-.395-45.469-2.636-52.287-6.597-20.063-21.899-35.853-41.788-43.119l-7.853-2.868L363 75.38c-61.325-.073-112.625.061-114 .298m10.422 89.584c-7.121 11.097-49.444 91.823-49.995 95.362-2.577 16.542 15.477 30.457 31.065 23.944 5.595-2.338 7.863-4.715 15.107-15.835l6.364-9.766.268-48.484c.148-26.666.044-48.478-.231-48.471-.275.007-1.435 1.47-2.578 3.25m199.347 45.221.268 48.484 6.364 9.766c7.244 11.12 9.512 13.497 15.107 15.835 15.588 6.513 33.642-7.402 31.065-23.944-.805-5.169-50.596-98.562-52.573-98.612-.275-.007-.379 21.805-.231 48.471m-120.031-2.887c-.406.405-.738 11.183-.738 23.949v23.212l2.75 1.075c11.445 4.472 28.067 4.469 39.518-.007l2.768-1.082-.268-23.622-.268-23.621-2.5.102c-1.375.056-6.363.9-11.085 1.874-9.086 1.875-8.572 1.916-27.427-2.181-1.107-.24-2.344-.105-2.75.301M191.071 235.25C183.835 253.766 160 316.065 160 316.464c0 .295 90.225.536 200.5.536s200.484-.337 200.464-.75c-.02-.413-7.151-19.2-15.846-41.75l-15.81-41-6.654-.296c-3.66-.162-6.654-.059-6.654.231 0 .289 2.036 4.472 4.525 9.296 7.853 15.217 8.298 25.661 1.641 38.561-12.084 23.418-46.792 26.938-62.21 6.308l-2.544-3.404-2.877 5.493c-3.769 7.199-10.181 13.499-17.296 16.993-8.005 3.931-24.044 4.157-31.519.444-11.236-5.581-19.472-16.625-21.794-29.222l-1.211-6.575-5.608 1.379c-7.227 1.778-25.998 1.775-33.236-.005l-5.628-1.384-1.075 6.485c-2.138 12.901-9.731 23.379-20.929 28.878-9.093 4.465-24.184 4.203-32.991-.572-7.308-3.963-13.069-9.849-16.749-17.112l-2.627-5.183-2.686 3.594c-15.557 20.819-50.207 17.419-62.352-6.117-6.657-12.9-6.212-23.344 1.641-38.561 2.489-4.824 4.525-8.986 4.525-9.25 0-.265-2.936-.481-6.525-.481-5.839 0-6.617.236-7.404 2.25" fill-rule="evenodd"/>
</svg>