<!DOCTYPE svg PUBLIC "-//W3C//DTD SVG 1.1//EN" "http://www.w3.org/Graphics/SVG/1.1/DTD/svg11.dtd">
<svg xmlns="http://www.w3.org/2000/svg" viewBox="0 0 720 540">
<path d="M337.5 29.641c-94.93 10.117-174.551 79.463-196.84 171.439-11.154 46.03-7.509 96.281 10.077 138.92C193.799 444.408 305.03 500.969 414.92 474.34 515.867 449.877 586.349 359.697 586.349 255c0-110.263-76.192-201.791-185.349-222.657-13.204-2.524-50.342-4.104-63.5-2.702m8 20.334c-115.491 8.671-201.565 111.32-189.585 226.09 9.802 93.904 83.648 170.059 176.949 182.48 126.532 16.845 237.165-83.404 232.836-210.98-3.946-116.274-104.267-206.294-220.2-197.59M339.589 73.1c-54.019 5.694-105.402 38.788-122.769 79.071-4.394 10.193-4.571 11.646-1.781 14.64 4.572 4.908 6.68 3.675 25.829-15.094 19.987-19.592 26.706-25.378 38.991-33.583 22.313-14.901 48.495-25.739 77.641-32.139 12.496-2.745 14.723-4.034 14.309-8.284-.554-5.677-9.696-6.985-32.22-4.611m35.023 81.668c-.98 10.303-2.081 19.034-2.447 19.402-.366.369-7.64 4.333-16.165 8.81-8.525 4.477-15.808 8.45-16.185 8.83-.377.379 7.048 4.024 16.5 8.098 9.452 4.075 17.274 7.463 17.382 7.53.108.067 1.594 8.42 3.303 18.562 1.709 10.142 3.245 18.578 3.414 18.747.269.269 19.397-20.822 23.668-26.096 1.577-1.948 1.743-1.942 19.879.734 10.059 1.484 18.494 2.494 18.744 2.243.25-.25-3.631-7.495-8.625-16.099-4.994-8.605-9.08-16.074-9.08-16.599 0-.524 3.627-8.196 8.06-17.049 4.432-8.852 7.89-16.265 7.683-16.471-.342-.342-30.829 5.928-35.021 7.202-1.298.395-5.501-3.123-15.554-13.017l-13.775-13.558-1.781 18.731m-172.988 32.313c-3.455 2.718-10.155 16.751-11.743 24.594-2.002 9.89.902 16.325 7.366 16.325 6.455 0 10.995-11.599 13.074-33.401.737-7.733-3.627-11.506-8.697-7.518m131.988 93.687c-.98 10.303-2.081 19.021-2.447 19.373-.366.353-8.074 4.491-17.13 9.196l-16.466 8.553 6.466 2.893a16754.98 16754.98 0 0 0 17.243 7.696c5.928 2.642 10.97 5.113 11.205 5.493.234.379 1.776 8.695 3.425 18.479 1.65 9.785 3.173 17.963 3.384 18.174.211.211 5.912-5.918 12.669-13.621 6.756-7.702 13.017-13.99 13.912-13.974.895.017 9.274 1.108 18.621 2.423 9.346 1.316 17.165 2.221 17.375 2.011.21-.21-3.725-7.346-8.744-15.859S384 315.461 384 314.646c0-.815 3.632-8.537 8.07-17.16 4.439-8.623 7.851-15.899 7.582-16.168-.415-.415-29.602 5.682-34.93 7.296-1.297.393-5.508-3.132-15.554-13.019l-13.775-13.558-1.781 18.731m200.708-10.295c-2.487 1.76-4.333 5.577-15.484 32.027-14.735 34.949-26.851 53.985-51.211 80.462-9.952 10.817-11.155 13.344-7.796 16.383 2.773 2.51 5.812 2.018 12.457-2.019 32.986-20.037 62.945-59.36 70.724-92.826 2.917-12.548 3.039-29.039.24-32.347-2.405-2.842-6.262-3.567-8.93-1.68" fill-rule="evenodd"/>
</svg>