<!DOCTYPE svg PUBLIC "-//W3C//DTD SVG 1.1//EN" "http://www.w3.org/Graphics/SVG/1.1/DTD/svg11.dtd">
<svg xmlns="http://www.w3.org/2000/svg" viewBox="0 0 720 544">
<path d="M335.051 45.081C240.756 55.674 161.902 125.605 140.069 218c-5.531 23.407-7.173 61.925-3.623 85 17.16 111.562 111.701 193 224.054 193 112.342 0 207.022-81.562 224.043-193 2.265-14.828 2.252-50.593-.023-66-14.273-96.648-89.153-173.165-186.02-190.087-13.829-2.416-49.168-3.436-63.449-1.832M348 65.13c-117.239 5.907-206.702 113.644-191.462 230.569C173.295 424.261 302.405 505.459 425.5 464.85 485.233 445.144 534.533 396.4 554.808 337 602.257 197.984 495.542 57.696 348 65.13m-5.5 22.571c-52.061 4.751-104.382 36.086-123.224 73.799-7.009 14.028-7.511 20.319-1.797 22.492 3.92 1.491 4.961.719 23.521-17.447 26.895-26.323 39.541-35.671 64.266-47.504 18.565-8.885 37.692-15.26 57.234-19.077 7.024-1.372 9.5-3.213 9.5-7.062 0-5.547-8.77-7.093-29.5-5.201m59.195 44.444c-.312 1.845-1.126 9.794-1.808 17.663-1.454 16.759.478 14.328-19.637 24.718-7.288 3.764-13.242 7.098-13.232 7.409.011.311 7.323 3.736 16.25 7.612l16.232 7.046 2.974 17.712c1.636 9.742 3.253 17.596 3.594 17.454.341-.143 5.853-6.151 12.248-13.351l11.628-13.093 18.028 2.628c9.915 1.445 18.028 2.545 18.028 2.446 0-.1-4.05-7.075-9-15.499-4.95-8.425-9-15.677-9-16.116 0-.438 3.595-7.976 7.988-16.75 4.393-8.773 7.431-15.768 6.75-15.544-.681.224-8.823 2.067-18.094 4.094l-16.855 3.686-12.764-12.735-12.763-12.735-.567 3.355m-99.117 4.051c-.293 1.817-1.003 8.479-1.578 14.804-1.763 19.392.221 16.529-18.023 26.012-8.794 4.571-15.873 8.405-15.733 8.522.141.116 7.231 3.227 15.756 6.913 8.525 3.685 15.95 7.129 16.5 7.652.55.524 2.356 8.859 4.013 18.524l3.013 17.572 10.487-11.801c5.768-6.491 11.189-12.666 12.048-13.723 1.536-1.892 1.844-1.881 19.395.724 9.809 1.456 17.955 2.526 18.103 2.376.148-.149-3.812-7.208-8.799-15.686l-9.067-15.415 8.15-16.335c4.482-8.984 7.813-16.322 7.403-16.306-.41.016-8.489 1.735-17.953 3.82l-17.208 3.791-6.292-6.397c-3.461-3.518-9.306-9.086-12.988-12.373l-6.694-5.978-.533 3.304M199.57 204.319c-6.075 7.966-11.43 24.282-10.171 30.993 2.547 13.578 14.574 9.351 17.991-6.323 2.802-12.851 3.59-23.149 1.971-25.739-2.191-3.503-6.677-3.013-9.791 1.069m249.001 15.849c-.235.732-.935 7.407-1.554 14.832-1.799 21.57.201 18.482-18.132 27.998-8.769 4.552-15.819 8.393-15.665 8.535.154.143 7.255 3.297 15.78 7.009 8.525 3.712 15.97 7.319 16.545 8.014.575.696 2.335 8.955 3.911 18.355 1.576 9.399 2.942 17.089 3.036 17.089.093 0 5.522-6.075 12.063-13.5 6.542-7.425 12.355-13.49 12.919-13.479.564.012 8.226 1.131 17.026 2.487 8.8 1.355 16.535 2.471 17.189 2.478.654.008-2.833-6.832-7.75-15.2-4.916-8.368-8.939-15.798-8.939-16.512 0-.715 3.402-8.091 7.56-16.393 4.158-8.302 7.414-15.24 7.237-15.417-.178-.178-8.054 1.372-17.503 3.443l-17.18 3.766-13.057-12.419c-7.995-7.604-13.223-11.902-13.486-11.086m-108.663 2.381c-.051 1.623-.838 9.858-1.75 18.3l-1.658 15.35-15.728 8.15c-8.651 4.483-15.738 8.397-15.75 8.698-.012.302 7.207 3.654 16.042 7.449 8.835 3.796 16.247 7.198 16.471 7.561.224.362 1.612 8.035 3.085 17.051 1.473 9.015 2.981 16.74 3.352 17.164.37.425 5.815-5.078 12.1-12.228 13.18-14.995 10.124-13.976 31.928-10.641 8.525 1.304 15.63 2.254 15.789 2.112.159-.143-3.799-7.257-8.795-15.809l-9.085-15.548 8.052-16.079c5.053-10.093 7.552-16.079 6.712-16.079-.737 0-8.37 1.575-16.963 3.5-8.593 1.925-16.166 3.5-16.831 3.5-.664 0-6.983-5.715-14.043-12.701-12.144-12.016-12.841-12.541-12.928-9.75M241 226.632c0 3.038-2.971 32.687-3.394 33.868-.197.55-7.38 4.6-15.963 9-8.583 4.4-15.609 8.225-15.614 8.5-.004.275 7.226 3.612 16.069 7.415 18.522 7.967 16.74 5.674 19.891 25.585 1.262 7.975 2.604 15.093 2.981 15.819.461.886 4.433-2.945 12.108-11.679 13.202-15.022 10.297-14.045 31.922-10.737 8.525 1.304 15.669 2.215 15.875 2.025.207-.19-3.74-7.326-8.77-15.858l-9.146-15.512 8.026-16.029c4.415-8.816 7.552-16.029 6.972-16.029-.58 0-8.506 1.624-17.612 3.608l-16.557 3.608-5.144-4.849c-2.829-2.667-8.857-8.443-13.394-12.836-6.482-6.275-8.25-7.539-8.25-5.899m293.137 58.985c-2.526 1.769-2.628 1.982-14.753 30.775-14.962 35.529-27.878 55.812-52.206 81.981-9.059 9.745-10.175 11.896-8.143 15.693 2.051 3.832 6.806 2.496 18.419-5.174 40.806-26.95 71.809-79.572 67.635-114.799-1.068-9.018-5.396-12.368-10.952-8.476m-149.472 31.005c-.302 1.583-1.089 9.178-1.748 16.878-.659 7.7-1.552 14.696-1.984 15.546-.432.85-7.568 5.043-15.859 9.317s-15.062 8.078-15.048 8.454c.015.376 7.317 3.837 16.228 7.693l16.202 7.01 2.953 17.937 2.953 17.938 8.069-8.925c4.438-4.909 10.094-11.042 12.569-13.629l4.5-4.704 15.5 2.416c8.525 1.328 16.487 2.422 17.694 2.431 1.956.014 1.227-1.615-6.75-15.079-4.919-8.303-8.944-15.508-8.944-16.012 0-.504 3.579-8.064 7.953-16.799 5.792-11.566 7.49-15.777 6.25-15.494-.937.214-9.077 2.01-18.091 3.992l-16.387 3.604-12.755-12.726c-12.502-12.474-12.766-12.669-13.305-9.848m-97.022 20.603c-.97 10.025-1.848 18.303-1.953 18.395-.104.091-7.277 3.853-15.94 8.36S254 372.294 254 372.441c0 .147 7.087 3.334 15.75 7.082 8.663 3.747 16.105 7.115 16.538 7.484.434.368 2.101 8.447 3.705 17.953s3.057 17.423 3.228 17.595c.172.171 5.649-5.734 12.172-13.122 6.523-7.388 12.141-13.433 12.484-13.433.343 0 8.223 1.138 17.512 2.527 9.289 1.39 17.092 2.326 17.338 2.079.247-.247-3.604-7.313-8.557-15.703l-9.006-15.254 7.977-15.932c4.388-8.762 7.819-16.09 7.624-16.285-.194-.194-8.208 1.382-17.809 3.504l-17.456 3.857-13.047-12.898-13.048-12.898-1.762 18.228" fill-rule="evenodd"/>
</svg>