<!DOCTYPE svg PUBLIC "-//W3C//DTD SVG 1.1//EN" "http://www.w3.org/Graphics/SVG/1.1/DTD/svg11.dtd">
<svg xmlns="http://www.w3.org/2000/svg" viewBox="0 0 464 611">
<path fill="#090909" d="M215.5 71.605c-17.068 2.467-32.775 10.73-42.058 22.126-21.589 26.502-26.164 71.408-16.87 165.593 1.401 14.203 2.408 26.773 2.238 27.933-.355 2.416-2.133 3.037-15.31 5.344-21.637 3.788-30.579 10.199-35.003 25.099-3.565 12.002-4.658 44.376-1.919 56.8 5.25 23.811 8.568 41.332 9.565 50.5 1.214 11.168 1.254 10.811-4.068 35.949-1.1 5.196-2.308 14.984-2.684 21.75L108.708 495H117v-9.816c0-10.416.643-15.051 4.552-32.804 4-18.172 2.854-32.822-5.274-67.38-3.456-14.693-3.642-16.374-3.59-32.289.031-9.234.308-17.04.615-17.347.307-.307 1.883.223 3.501 1.179 2.84 1.678 2.966 2.075 3.622 11.348.374 5.285 1.978 17.259 3.564 26.609 7.248 42.731 8.44 66.041 4.677 91.5-1.422 9.625-2.881 20.087-3.242 23.25l-.655 5.75h32.486l-.686-4.25a4225.34 4225.34 0 0 0-2.347-14.25c-2.006-12.081-2.477-57.647-.614-59.509 1.7-1.7 13.773 26.891 17.317 41.009 3.441 13.708 3.528 19.445.51 33.75-.683 3.238-.671 3.25 3.298 3.25h3.983l1.288-7.529c2.755-16.109.172-29.146-11.486-57.971-9.912-24.507-9.801-24.001-4.022-18.339 2.617 2.564 6.275 5.478 8.128 6.476 2.366 1.275 3.526 2.715 3.897 4.839.291 1.663 2.774 15.624 5.518 31.024 2.745 15.4 5.273 31.037 5.619 34.75l.628 6.75h83.417l.615-7.75c.339-4.263 2.881-20.316 5.649-35.674 2.767-15.359 5.032-28.672 5.032-29.584 0-.913 2.49-3.374 5.532-5.47 3.043-2.095 6.702-5.199 8.131-6.898l2.598-3.087-.752 3.421c-.413 1.882-3.591 10.199-7.062 18.482-11.353 27.092-14.758 45.112-11.493 60.837l1.188 5.723h4.036c3.047 0 3.904-.343 3.499-1.399-3.507-9.14-3.216-25.201.7-38.601 2.701-9.244 14.726-38.996 15.762-38.999 4.534-.009 2.68 53.5-2.66 76.749l-.517 2.25h33.076l-.461-2.25c-.253-1.238-.739-5.175-1.08-8.75-.341-3.575-1.564-12.125-2.719-19-3.617-21.544-1.99-52.269 4.745-89.584 1.382-7.654 2.758-18.191 3.058-23.416.736-12.791 1-13.732 4.336-15.457 3.942-2.039 4.083-1.47 4.083 16.442 0 13.343-.354 16.401-3.555 30.668-9.024 40.227-9.621 48.763-4.961 70.847 2.295 10.874 3.81 21.234 4.205 28.75l.616 11.75h6.956l-.503-13.25c-.376-9.882-1.33-16.936-3.752-27.75-4.652-20.763-3.815-32.267 5.131-70.5 2.969-12.692 3.273-15.448 3.248-29.5-.081-45.21-6.377-55.045-39.385-61.524-7.425-1.457-13.874-3.008-14.332-3.445-.458-.437.321-12.211 1.73-26.163 8.755-86.655 6.777-125.075-8-155.461C282.785 83.526 263.223 72.075 233 71.464c-7.975-.161-15.85-.097-17.5.141m-3 12.871c-20.569 4.515-33.54 15.924-41.358 36.38-4.576 11.973-5.085 16.131-1.058 8.644 10.39-19.319 22.943-30.578 40.151-36.014 31.078-9.818 62.223 3.373 78.496 33.247 4.608 8.457 5.112 8.495 2.67.199-6.639-22.557-22.504-38.129-43.216-42.417-8.89-1.841-27.385-1.861-35.685-.039M223 99.097c-37.001 4.008-59.112 44.288-50.861 92.653 1.494 8.754 1.852 7.794 1.181-3.16-.634-10.344.219-17.931 1.744-15.521.498.787.912 3.918.921 6.957.078 28.371 12.727 56.652 29.761 66.538 2.615 1.518 7.325 4.766 10.467 7.217 9.411 7.34 17.729 7.172 27.68-.559 3.343-2.597 8.468-6.216 11.388-8.041 14.443-9.029 25.662-32.583 27.234-57.181.742-11.6 1.196-14 2.651-14 .806 0 .974 3.504.589 12.25-.608 13.781.441 12.992 2.293-1.726 6.399-50.837-23.375-89.94-65.048-85.427m-7.309 19.404c-17.212 4.732-34.18 21.488-38.224 37.749-.808 3.25 1.985 4.052 2.998.861.387-1.22 2.228-2.3 5.19-3.046 13.594-3.423 24.728-13.931 26.873-25.362.808-4.306 1.464-4.426 8.92-1.637 7.111 2.661 15.265 8.207 24.052 16.36 3.85 3.572 8.463 7.29 10.25 8.262 4.374 2.378 4.115 2.931-1.696 3.619-4.838.573-11.727 3.353-10.745 4.336.272.272 3.097.014 6.277-.574s10.761-1.102 16.848-1.142l11.066-.073-5.238-1.862c-9.317-3.312-16.952-8.039-25.446-15.753-9.325-8.468-18.143-14.551-23.638-16.306-5.515-1.761-6.143-2.933-1.572-2.933 8.894 0 22.159 6.524 32.894 16.179 7.556 6.796 13.387 10.714 17.657 11.863 3.822 1.029 7.743 6.692 6.277 9.064-.303.492.58.894 1.963.894h2.514l-1.482-4.202c-9.771-27.693-38.777-43.709-65.738-36.297M242 124.046c3.025 1.646 9.74 6.565 14.922 10.932 13.005 10.958 18.396 13.509 14.199 6.718-4.713-7.626-14.899-15.351-24.676-18.715-8.727-3.002-10.944-2.471-4.445 1.065m-40.557 4.616c-7.058 4.67-13.301 11.338-10.614 11.338 3.149 0 16.495-12.009 15.004-13.501-.246-.245-2.221.728-4.39 2.163m2.045 6.433c-2.251 2.353-7.036 5.605-10.988 7.469-10.229 4.824-13.034 10.103-3.725 7.011 6.416-2.131 12.533-6.709 16.32-12.213 4.166-6.056 3.253-7.344-1.607-2.267m-9.356 21.224c-2.162 1.258-1.512 1.433 7.5 2.019 5.428.353 11.218.906 12.868 1.229l3 .588-3.341-2.234c-4.185-2.796-16.307-3.766-20.027-1.602m-14.844 6.382c-2.809.544-2.448 2.969 2.501 16.799 4.483 12.528 7.391 15.773 15.681 17.494 13.523 2.807 19.008.286 25.03-11.505 6.431-12.59 8.543-12.586 15 .027 5.445 10.636 7.494 12.005 17.831 11.907 13.946-.132 16.709-2.306 22.779-17.923 4.357-11.211 4.857-16.009 1.754-16.84-5.216-1.396-25.434-.619-34.864 1.34-5.225 1.086-11.975 1.974-15 1.974-3.025 0-9.775-.888-15-1.974-8.905-1.85-29.078-2.584-35.712-1.299m11.177 6.19c-5.217 2.27-5.715 8.83-1.354 17.838 2.77 5.722 6.473 7.55 15.551 7.673 8.606.118 10.931-1.508 14.406-10.07 3.33-8.204 3.162-12.399-.568-14.236-3.468-1.708-24.775-2.624-28.035-1.205m54.113.188c-7.295 1.788-8.022 3.986-4.465 13.495 3.681 9.836 6.365 11.944 15.062 11.828 11.858-.158 16.617-4.424 18.338-16.44 1.143-7.976-.978-9.42-14.173-9.653-5.962-.105-12.605.241-14.762.77m-49.935 3.17-4.858 1.007.641 4.122c.629 4.047 2.676 6.622 5.265 6.622 2.127 0 1.505-1.928-1.441-4.463-3.13-2.694-3.002-3.035 1.5-4 2.964-.635 3.25-.483 3.25 1.729 0 5.841 7.757 7.827 10.831 2.772l1.801-2.962 2.145 2.145c2.044 2.044 2.179 2.058 2.858.289 1.154-3.008-4.999-7.51-10.265-7.51-2.314 0-4.806-.17-5.538-.379-.733-.208-3.518.074-6.189.628m59.119-.301c-6.513.651-11.612 4.394-10.376 7.615.605 1.577.893 1.523 3.14-.588 1.86-1.747 2.474-1.947 2.474-.804 0 2.248 3.299 4.829 6.174 4.829 2.998 0 5.826-2.817 5.826-5.804 0-1.881.401-2.07 3.25-1.527 4.578.871 4.653 1.188 1 4.251-3.704 3.107-4.04 4.08-1.405 4.08 3.454 0 8.846-10.789 5.536-11.077-.485-.042-1.781-.238-2.881-.436-5.472-.986-7.443-1.069-12.738-.539m-51.4 3.552c-.793 2.064.282 4.5 1.984 4.5.775 0 1.969-.675 2.654-1.5 1.441-1.736-.189-4.5-2.654-4.5-.775 0-1.668.675-1.984 1.5m50.305-.833c-1.267 1.266-.661 4.121 1.011 4.763 2.542.975 5.021-1.883 3.364-3.88-1.351-1.627-3.249-2.01-4.375-.883M162.158 204c0 1.375.227 1.938.504 1.25.278-.687.278-1.812 0-2.5-.277-.687-.504-.125-.504 1.25m.258 6.25c.278 1.787.783 8.425 1.122 14.75.689 12.876 5.074 58.946 5.667 59.539.828.827 4.795-.847 4.795-2.023 0-.688-1.991-15.373-4.425-32.634-2.434-17.26-4.736-33.97-5.115-37.132-.38-3.162-1.109-5.75-1.621-5.75-.511 0-.702 1.463-.423 3.25m57.706-2.385c-1.692 1.119-.449 3.475 1.448 2.746.753-.288 2.62.128 4.149.926 3.384 1.765 4.358 1.798 7.966.272 1.548-.655 3.715-1.217 4.815-1.25 1.1-.032 2-.734 2-1.559 0-1.104-.924-1.422-3.5-1.203-6.154.522-10.432.455-13-.203-1.375-.353-3.12-.231-3.878.271m71.085 37.471c-4.974 34.896-5.188 37.205-3.559 38.396 3.804 2.781 3.651 3.497 6.771-31.732 4.915-55.499 4.016-57.365-3.212-6.664M219 221.085c-1.381.581-4.452.763-6.859.406-5.13-.761-5.456 1.123-.582 3.357 1.618.741 3.841 2.766 4.941 4.5 2.226 3.508 9.536 7.652 13.5 7.652 3.964 0 11.274-4.144 13.5-7.652 1.1-1.734 3.323-3.759 4.941-4.5 1.617-.742 3.082-1.806 3.255-2.365.282-.908-1.795-1.143-14.446-1.634-1.512-.059-4.1.004-5.75.14-1.65.136-4.575-.023-6.5-.354-1.925-.331-4.625-.128-6 .45m4.269 3.608c.973.254 2.323.237 3-.037.677-.274-.119-.481-1.769-.461-1.65.02-2.204.244-1.231.498m11 0c.973.254 2.323.237 3-.037.677-.274-.119-.481-1.769-.461-1.65.02-2.204.244-1.231.498m-11.786 6.046c3.247 2.793 10.358 3.059 14.613.545 4.36-2.575 3.771-2.806-7.169-2.806h-10.072l2.628 2.261m-18.323 30.212c.025 12.15.728 11.058-10.987 17.084-5.32 2.737-10.348 5.404-11.173 5.928-4.79 3.04-21.564 8.341-35 11.061-26.274 5.319-33.637 11.007-36.907 28.507-1.008 5.395-1.004 5.399 14.971 13.854 26.165 13.849 60.089 25.065 92.945 30.73l12.641 2.18 16.425-3.263c36.335-7.217 65.034-17.402 93.731-33.265l9.306-5.144-.675-4.061c-2.92-17.555-11.147-24.456-34.561-28.99-13.95-2.701-34.191-8.996-38.866-12.087-.819-.542-5.769-3.274-11-6.072l-9.51-5.087-.5-10.794-.5-10.794-5.354 4.381a16800.46 16800.46 0 0 0-8.375 6.855c-7.053 5.779-18.825 3.888-27.833-4.47-8.696-8.068-8.802-8.026-8.778 3.447m-19.972 27.788c.502 2.606 3.812 2.897 3.812.334 0-1.431-.642-2.073-2.073-2.073s-1.97.539-1.739 1.739m86.292-.707c-.388.628-.235 1.613.34 2.188 1.344 1.344 4.477.172 3.93-1.471-.556-1.671-3.386-2.147-4.27-.717m-81 6c-.388.628-.235 1.613.34 2.188 1.344 1.344 4.477.172 3.93-1.471-.556-1.671-3.386-2.147-4.27-.717m75.708.707c.502 2.606 3.812 2.897 3.812.334 0-1.431-.642-2.073-2.073-2.073s-1.97.539-1.739 1.739M195 301.073c0 2.563 3.31 2.272 3.812-.334.231-1.2-.308-1.739-1.739-1.739s-2.073.642-2.073 2.073m65-.073c0 1.506.522 2.046 1.75 1.81.962-.186 1.75-1 1.75-1.81s-.788-1.624-1.75-1.81c-1.228-.236-1.75.304-1.75 1.81m-59.5 5c-.837 1.354.292 3 2.059 3 .793 0 1.441-.9 1.441-2 0-2.07-2.413-2.76-3.5-1m54 0c-.837 1.354.292 3 2.059 3 .793 0 1.441-.9 1.441-2 0-2.07-2.413-2.76-3.5-1m-48.5 7c0 1.506.522 2.046 1.75 1.81.963-.186 1.75-1 1.75-1.81s-.787-1.624-1.75-1.81c-1.228-.236-1.75.304-1.75 1.81m43.19-.25c.186.962 1 1.75 1.81 1.75s1.624-.788 1.81-1.75c.236-1.228-.304-1.75-1.81-1.75s-2.046.522-1.81 1.75m-38.002 5.989c.502 2.606 3.812 2.897 3.812.334 0-1.431-.642-2.073-2.073-2.073s-1.97.539-1.739 1.739m32.471-.997c-.29.47-.152 1.46.306 2.201 1.014 1.641 4.376.581 3.785-1.194-.5-1.502-3.351-2.204-4.091-1.007m-27.179 6.29c-.388.628-.235 1.613.34 2.188 1.344 1.344 4.477.172 3.93-1.471-.556-1.671-3.386-2.147-4.27-.717m21.708.707c.502 2.606 3.812 2.897 3.812.334 0-1.431-.642-2.073-2.073-2.073s-1.97.539-1.739 1.739m-15.998 6.011c.186.962 1 1.75 1.81 1.75s1.624-.788 1.81-1.75c.236-1.228-.304-1.75-1.81-1.75s-2.046.522-1.81 1.75M233 331c0 1.506.522 2.046 1.75 1.81.963-.186 1.75-1 1.75-1.81s-.787-1.624-1.75-1.81c-1.228-.236-1.75.304-1.75 1.81m-5.5 5c-.837 1.354.292 3 2.059 3 .793 0 1.441-.9 1.441-2 0-2.07-2.413-2.76-3.5-1m1.167 5.667c-.367.366-.667 1.716-.667 3 0 1.926-.524 2.333-3 2.333-2 0-3 .5-3 1.5s1 1.5 3 1.5h3v7.5c0 6 .3 7.5 1.5 7.5s1.5-1.5 1.5-7.5V350h3c2 0 3-.5 3-1.5s-1-1.5-3-1.5c-2.667 0-3-.333-3-3 0-2.867-.9-3.767-2.333-2.333" fill-rule="evenodd"/>
</svg>