<!DOCTYPE svg PUBLIC "-//W3C//DTD SVG 1.1//EN" "http://www.w3.org/Graphics/SVG/1.1/DTD/svg11.dtd">
<svg xmlns="http://www.w3.org/2000/svg" viewBox="0 0 720 482">
<path fill="#09090a" d="M267.978 96.941c-33.576 4.539-56.306 32.087-54.781 66.391l.46 10.324-6.579 3.396c-35.598 18.379-42.711 69.723-13.723 99.052 15.644 15.827 43.893 23.261 61.996 16.315 1.09-.418 1.517 1.891 2.086 11.277 1.961 32.338 13.131 57.35 34.804 77.93 60.107 57.077 158.448 32.266 184.81-46.626 5.997-17.948 6.578-40.396 1.688-65.282-.167-.85 2.482-1.403 8.761-1.829 45.429-3.082 71.377-49.644 51.208-91.889-2.205-4.619-5.465-8.859-11.264-14.653-25.604-25.578-64.926-25.188-90.105.892-3.629 3.76-6.676 6.706-6.77 6.548-.095-.158-.984-2.987-1.976-6.287-11.478-38.182-53.175-56.15-88.705-38.226l-8.613 4.345-4.887-6.537c-13.388-17.908-36.937-28.043-58.41-25.141m-7.287 5.498c-9.859 2.837-21.442 10.143-19.368 12.218.366.365 4.155-.941 8.421-2.903 14.099-6.483 25.45-7.921 38.087-4.823 7.665 1.88 9.325-.086 2.597-3.076-6.225-2.766-22.374-3.535-29.737-1.416m91.809 21.407c-12.092 3.516-28.5 16.291-28.5 22.19 0 2.654.635 2.244 9-5.812 3.124-3.008 8.524-6.76 12.5-8.683 6.293-3.045 10.248-4.095 22.814-6.06 2.317-.362 3.66-1.064 3.421-1.788-.631-1.91-12.467-1.815-19.235.153m-84 16.644c-8.884 3.116-14.928 14.492-12.497 23.522 1.792 6.655 2.947 7.86 11.753 12.268 8.053 4.03 8.369 4.101 12.894 2.891 6.53-1.746 9.782-4.389 12.764-10.374 8.362-16.78-7.239-34.505-24.914-28.307m-.67 4.537c-14.848 7.844-9.354 30.973 7.358 30.973 11.709 0 19.155-9.056 16.648-20.248-2.331-10.407-14.399-15.8-24.006-10.725m.068 2.243c-11.939 7.975-6.686 26.897 7.467 26.897 8.656 0 14.968-6.181 14.968-14.657 0-11.407-13.036-18.519-22.435-12.24m191.994 6.084c-11.877 4.886-21.801 14.047-26.906 24.837-5.721 12.093-3.245 13.378 3.601 1.868 6.447-10.837 12.393-16.4 23.532-22.015 13-6.554 12.83-10.061-.227-4.69M307 155.648c-6.961 1.017-9 1.592-9 2.537 0 1.051 9.627.522 10.74-.591.892-.892-.246-2.165-1.74-1.946m-5.364 5.22c-2.304.508-3.237 1.61-4.772 5.632-2.948 7.723-8.075 12.672-15.086 14.56l-3.962 1.067 5.423 5.686c6.29 6.596 10.281 12.573 13.28 19.884l2.132 5.196 5.568-3.95 5.569-3.951-1.991-6.246c-3.384-10.616-3.442-28.69-.12-37.347.575-1.499-1.017-1.639-6.041-.531m57.864.794c-4.641 2.446-7.594 5.469-9.61 9.838-3.08 6.674-2.033 17.5 1.692 17.5 1.004 0 1.421-.55 1.084-1.429-6.971-18.164 14.939-32.712 27.81-18.466 4.197 4.645 4.978 7.375 4.144 14.474-.841 7.152 1.716 7.777 3.207.784 3.425-16.057-14.176-30.162-28.327-22.701m-125.733 5.253c-9.203 1.494-17.04 3.025-17.416 3.401-1.657 1.656.99 1.765 6.896.284 3.51-.88 8.827-1.649 11.817-1.708 7.816-.155 18.218-2.182 18.695-3.642.527-1.617-.107-1.564-19.992 1.665m128.648-.494c-6.13 2.669-9.924 10.389-8.408 17.109 1.114 4.942.418 4.719 14.191 4.531 13.682-.187 13.744-.212 14.493-5.793 1.517-11.312-10.006-20.318-20.276-15.847m-110.249 2.455c-1.064.675-.997.975.332 1.485 2.635 1.011 3.484.756 2.864-.861-.654-1.704-1.295-1.829-3.196-.624m-31.368 7.055C211.566 178.883 200 186.478 200 189.589c0 2.17 1.355 1.743 8.312-2.619 11.01-6.904 16.409-8.402 30.437-8.448 7.22-.024 12.351-.447 12.5-1.031.892-3.519-20.841-4.633-30.451-1.56m86.89 5.714c-1.987 1.988.961 2.355 18.895 2.355 15.222 0 19.491-.278 19.168-1.25-.454-1.365-36.749-2.419-38.063-1.105M391 182c0 .626 6.167 1 16.5 1s16.5-.374 16.5-1-6.167-1-16.5-1-16.5.374-16.5 1m-1.306 5.061c-.297 1.137-.013 2.231.634 2.439.644.207 4.689 1.312 8.988 2.454 4.298 1.142 10.535 3.22 13.858 4.619 3.324 1.399 6.166 2.405 6.316 2.235.151-.169.748-2.559 1.328-5.31.58-2.751 1.356-5.789 1.725-6.75.622-1.62-.533-1.748-15.819-1.748-15.813 0-16.513.085-17.03 2.061m84.306.187c-9.97 5.329-13.964 17.997-8.751 27.752 9.917 18.558 37.751 11.553 37.751-9.5 0-15.127-16.003-25.199-29-18.252m-166 1.436c0 3.743 3.073 14.316 4.16 14.316.493 0 3.583-1.356 6.866-3.013 6.749-3.407 13.809-6.106 22.224-8.496 4.448-1.263 5.75-2.07 5.75-3.562 0-1.839-.906-1.929-19.5-1.929H308v2.684m167.209 1.928c-11.766 5.999-11.937 23.405-.288 29.348 14.541 7.418 29.861-6.834 23.174-21.559-3.669-8.079-14.854-11.886-22.886-7.789m.248 2.251c-12.623 7.698-7.22 27.13 7.543 27.13 14.768 0 20.28-19.364 7.696-27.037-4.113-2.508-11.208-2.551-15.239-.093M422 199.481c0 .835.357 1.519.793 1.519 1.027 0 29.7 3.842 33.957 4.55 2.381.396 3.25.165 3.25-.864 0-1.064-4.066-1.933-16.75-3.582-9.212-1.197-17.762-2.394-19-2.659-1.558-.335-2.25-.016-2.25 1.036m-85 5.909c-22.174 7.753-41.551 24.859-52.282 46.153-5.144 10.206-6.893 21.037-3.01 18.638.648-.401 3.957-5.633 7.353-11.626 14.088-24.864 23.779-33.894 49.613-46.228 14.274-6.815 16.78-9.375 9.076-9.268-2.337.032-7.175 1.081-10.75 2.331m93-.985c0 .223 3.085 2.693 6.855 5.488 16.928 12.548 31.177 31.494 38.64 51.374 2.195 5.847 3.881 6.416 14.551 4.907 19.754-2.794 35.679-13.105 45.225-29.283 4.037-6.841 7.529-16.424 6.397-17.556-.665-.665-30.973-5.213-35.285-5.295-1.382-.026-3.024 1.33-4.728 3.905-10.245 15.482-36.699 11.087-40.254-6.689-.717-3.584.577-3.164-17.681-5.737-11.271-1.588-13.72-1.787-13.72-1.114m75.354 5.831c-.305.493-.363 1.088-.13 1.321.305.305 35.515 5.409 37.526 5.439.138.002.25-.671.25-1.496 0-.877-.935-1.517-2.25-1.54-1.237-.022-9.583-1.071-18.546-2.331-9.254-1.301-16.535-1.903-16.85-1.393m-273.717 2.176c-10.882 4.028-16.513 16.769-12.089 27.356 8.388 20.075 38.452 14.008 38.452-7.76 0-14.142-13.662-24.297-26.363-19.596m.363 3.706c-7.098 2.816-11.778 11.317-10.475 19.029 2.633 15.587 25.876 17.748 32.062 2.981 5.517-13.168-8.318-27.273-21.587-22.01m-.975 2.676c-3.706 2.044-8.025 8.932-8.025 12.798 0 13.381 17.036 19.965 25.807 9.975 10.727-12.217-3.617-30.587-17.782-22.773M177 225.981c0 1.264 1.306 1.52 20.819 4.077 8.975 1.176 16.595 1.862 16.933 1.523 1.462-1.462-2.229-2.381-17.752-4.419-18.739-2.462-20-2.536-20-1.181m.325 10.628c1.994 24.435 17.636 44.754 40.999 53.254 6.328 2.302 8.654 2.607 19.676 2.58 17.162-.043 19.448-1.061 20.377-9.079 1.078-9.301 4.406-20.047 9.618-31.054l4.825-10.191-2.66-.506c-10.529-2.003-10.749-1.974-12.907 1.683-9.103 15.428-33.733 13.538-39.84-3.057-2.389-6.494-1.251-5.984-18.45-8.252-8.505-1.122-16.997-2.316-18.872-2.654l-3.409-.615.643 7.891m82.675.244c0 .557.788 1.241 1.75 1.52 7.073 2.053 16.34 1.541 12.5-.691-1.827-1.062-14.25-1.784-14.25-.829m101.746 28.17c-26.848 6.776-36.661 39.841-17.874 60.222 22.153 24.034 61.431 7.917 61.585-25.269.106-22.777-21.981-40.438-43.711-34.953m-1.414 6.765c-28.752 10.289-26.904 50.214 2.675 57.792 24.772 6.346 45.73-20.92 33.439-43.503-6.893-12.663-22.928-19.008-36.114-14.289m2.662 3.146c-15.42 4.691-23.362 22.145-16.643 36.573 11.243 24.143 47.238 17.551 49.445-9.055 1.459-17.6-16.334-32.527-32.802-27.518m78.575 9.126c-31.818 8.129-33.048 8.547-31.679 10.762 1.321 2.137 66.11-14.522 66.11-17 0-2.564.061-2.575-34.431 6.238M468 285.526c-4.675 1.236-19.586 5.053-33.135 8.484l-24.635 6.237-.656 5.798c-1.389 12.284-10.151 24.16-22.202 30.092-16.068 7.911-37.973 3.267-48.36-10.253-1.852-2.411-3.716-4.79-4.142-5.286-1.1-1.281-66.87 15.434-66.87 16.994 0 2.578 6.368 15.24 11.764 23.391 14.217 21.474 37.242 37.828 63.03 44.766 14.535 3.911 40.164 3.865 54.59-.097 49.013-13.462 80.817-55.322 80.546-106.012-.095-17.659.466-16.862-9.93-14.114m-167.5 34.441c-16.5 4.239-31.238 8.013-32.75 8.389-2.868.711-3.233 1.336-1.956 3.345 1.128 1.774 65.585-14.784 66.011-16.958.553-2.816-1.03-2.552-31.305 5.224" fill-rule="evenodd"/>
</svg>