<!DOCTYPE svg PUBLIC "-//W3C//DTD SVG 1.1//EN" "http://www.w3.org/Graphics/SVG/1.1/DTD/svg11.dtd">
<svg xmlns="http://www.w3.org/2000/svg" viewBox="0 0 271 242">
<path fill="#050505" d="M89.81 11.376c-26.788 7.338-24.28 44.055 3.356 49.14 9.514 1.751 22.964-6.579 26.264-16.266 6.531-19.165-10.534-38.104-29.62-32.874m-8.069 58.042c-4.86 1.749-6.487 3.156-8.689 7.515-2.716 5.376-23.306 73.899-23.758 79.067-.313 3.576 1.145 9.212 7.096 27.442 4.12 12.618 7.266 23.306 6.991 23.75-.274.444-9.727.808-21.006.808-21.879 0-22.664.147-28.088 5.28-6.152 5.822-5.179 16.292 2.055 22.123l3.842 3.097 59.658.281c65.781.31 65.349.346 70.569-5.858 5.41-6.429 4.846-9.766-5.231-30.925-8.305-17.439-8.868-18.998-6.864-19.001 2.185-.003 34.844 6.98 35.567 7.604.21.182-1.253 6.861-3.25 14.842-5.4 21.569-4.54 27.427 4.638 31.593 6.965 3.162 55.378 2.938 61.759-.286 8.655-4.372 11.713-14.348 6.7-21.852-4.017-6.013-7.202-6.895-24.921-6.896-8.63-.001-15.915-.364-16.188-.807-.274-.442 1.039-6.855 2.917-14.25 4.041-15.905 4.053-16.093 1.391-21.592-3.602-7.441-2.34-7.035-57.793-18.573l-11.364-2.365-17.944-34.957c-9.87-19.227-19.061-36.868-20.425-39.202-3.827-6.549-10.88-9.279-17.662-6.838M204 109.905c-17.949 6.327-22.585 29.594-8.382 42.065 16.223 14.243 41.279 3.186 41.36-18.252.067-17.538-16.613-29.582-32.978-23.813M87.125 136.723c-1.638 5.377-3.656 12.122-4.486 14.988l-1.508 5.211 8.52 25.539L98.171 208h7.39c8.841 0 9.22 2.533-3.399-22.677-11.941-23.854-12.511-27.61-5.384-35.5l3.571-3.951-4.425-9.031c-2.433-4.966-4.738-9.225-5.123-9.463-.384-.238-2.038 3.967-3.676 9.345" fill-rule="evenodd"/>
</svg>