<!DOCTYPE svg PUBLIC "-//W3C//DTD SVG 1.1//EN" "http://www.w3.org/Graphics/SVG/1.1/DTD/svg11.dtd">
<svg xmlns="http://www.w3.org/2000/svg" viewBox="0 0 202 297">
<path d="M45.748 10.366c-21.306 7.949-22.74 36.744-2.304 46.26 23.769 11.068 46.32-19.385 28.754-38.829-6.695-7.41-17.996-10.585-26.45-7.431m2.47 61.24c-4.328 2.208-4.355 2.25-23.669 36.385-18.298 32.341-19.703 35.691-17.448 41.614 1.713 4.501 39.076 36.962 43.707 37.974 1.481.323 3.201.741 3.822.927.786.236-.051 7.144-2.748 22.667-10.132 58.331-9.846 56.336-8.64 60.264 3.229 10.522 15.753 14.313 24.222 7.332 4.829-3.98 4.938-4.331 9.042-29.069 4.676-28.191 3.132-26.515 14.919-16.19 17.174 15.045 22.471 14.638 35.536-2.729 3.596-4.78 7.227-8.712 8.068-8.736.841-.025 4.375 2.826 7.853 6.336l6.324 6.381-9.353 5.476A1632.645 1632.645 0 0 1 122 250.518c-4.675 2.642-9.555 5.744-10.845 6.893-7.708 6.867-6.656 19.264 2.086 24.594 4.347 2.651 75.683 3.12 80.69.531 11.453-5.923 11.082-23.29-.602-28.172-1.796-.75-5.529-1.364-8.297-1.364-5.906 0-6.221-.714-1.625-3.69 4.346-2.814 7.127-9.627 6.13-15.017-.701-3.786-7.333-11.102-22.037-24.308-2.75-2.47-9.95-9.039-16-14.599C138.796 183.712 137.658 183 131.714 183c-6.007 0-9.668 2.687-17.717 13-3.649 4.675-7.323 8.5-8.166 8.5s-5.44-3.698-10.215-8.219l-8.682-8.218 1.23-8.512 1.231-8.511-9.692-44.607c-5.33-24.533-10.425-46.151-11.32-48.039-3.363-7.087-13.132-10.375-20.165-6.788m61.919 54.763c-16.903 6.117-21.402 28.626-8.192 40.983 16.422 15.36 41.51 4.568 41.499-17.852-.008-17.368-16.871-29.079-33.307-23.131m-64.374 5.881c-.806 1.238-2.231 3.735-3.167 5.551l-1.7 3.3 5.195 4.7c8.058 7.289 7.964 7.489 4.26-9.051-1.632-7.288-2.326-7.969-4.588-4.5" fill-rule="evenodd"/>
</svg>