<?xml version="1.0" encoding="UTF-8"?>
<!DOCTYPE svg PUBLIC "-//W3C//DTD SVG 1.1//EN" "http://www.w3.org/Graphics/SVG/1.1/DTD/svg11.dtd">
<!-- Creator: CorelDRAW (Versión de evaluación) -->
<svg xmlns="http://www.w3.org/2000/svg" xml:space="preserve" width="8.4666mm" height="8.4666mm" version="1.1" style="shape-rendering:geometricPrecision; text-rendering:geometricPrecision; image-rendering:optimizeQuality; fill-rule:evenodd; clip-rule:evenodd"
viewBox="0 0 846.66 846.66"
 xmlns:xlink="http://www.w3.org/1999/xlink"
 xmlns:xodm="http://www.corel.com/coreldraw/odm/2003">
 <defs>
  <style type="text/css">
   <![CDATA[
    .fil2 {fill:#020202}
    .fil3 {fill:#036CB0}
    .fil4 {fill:#171718}
    .fil0 {fill:#555555}
    .fil5 {fill:#686868}
    .fil1 {fill:white}
   ]]>
  </style>
 </defs>
 <g id="Capa_x0020_1">
  <metadata id="CorelCorpID_0Corel-Layer"/>
  <g id="_2118610342976">
   <g>
    <path class="fil0" d="M437.07 821.9l-26.17 -0.02c-7.68,12.14 -3.39,8.58 -3.53,10.28l-2.13 -2.13c-0.41,-0.39 -1.87,-2.09 -2.31,-2.46 -5.8,-4.89 2.51,-0.61 -4.61,-2.32 -6.81,8 -2.84,0.29 -3.58,11 7.99,-1.09 15.24,-1.16 21.46,-1.41 -7.68,-12.97 -2.13,-9.89 -1.57,-11.19l5.98 5 5.68 -4.86c0.72,6.35 0.35,-7.22 -0.26,3.53l-0.38 2.67c1.06,6.48 5.29,5.88 5.29,5.88l2.75 -6.27c0.24,-0.66 0.43,-1.56 0.62,-2.11 0.19,-0.54 0.51,-0.93 0.64,-2.03l2.12 -3.56z"/>
    <path class="fil0" d="M391.33 834.66c3.17,-7.06 3.01,-3.58 -0.53,-8.91 -9.65,2.23 -11.29,7 0.53,8.91z"/>
   </g>
   <g>
    <path class="fil1" d="M526.31 392.14c-3.72,4.95 -5.73,10.63 -8.87,15.94 -54.03,91.22 -211.47,55.02 -205.27,-65.62 6.21,-120.64 177.63,-144.43 215.8,-30.16l78.41 0.07c-12.54,-84.84 -101.21,-160.69 -203.48,-149.59 -90.81,9.86 -166.16,86.72 -166.92,184.44 -0.77,98.84 74.03,175.62 163.61,187.15 101.56,13.08 191.45,-62.13 205.21,-142.55l-78.49 0.32z"/>
    <path class="fil1" d="M163.18 546.05c8.83,8.28 32.85,37.52 48.81,50.37 109.66,88.27 249.23,103.09 373.84,33.88 47.37,-26.31 72.39,-53.96 103.25,-93.94 10.73,7.09 87.13,87.55 91.47,95.13 -64.78,84.08 -191.92,173.59 -358.93,173.59 -103.78,0 -218.29,-42.32 -289.93,-105.01 -14.59,-12.76 -57.7,-50.67 -64.28,-66.25 16.94,-18.2 70.78,-63.71 95.77,-87.77zm226.12 -502.61c178.84,-21.07 320.95,114.73 339.23,268.9 21.48,181.18 -113.83,323.91 -269.83,341.76 -181.29,20.74 -322.87,-113.39 -341.2,-271.21 -19.54,-168.2 102.56,-319.51 271.8,-339.45zm21.6 778.44l26.17 0.02c70.25,3.08 171.45,-32.81 219.94,-62.19 21.31,-12.91 64.25,-40.41 81.49,-58.32 18.77,-19.5 54.36,-51.36 67.13,-74.56l-104.43 -107.34c2.22,-9.28 12.7,-25.02 17.47,-36 18.66,-42.9 29.79,-87.44 29.55,-136.27 -0.58,-116.92 -63.29,-220.6 -160.16,-278.27 -106.26,-63.27 -235.51,-59 -340.47,6.42 -94.08,58.63 -154.74,171.04 -149.18,288.21 3.89,82.06 27.04,108.15 53.19,165.39 -15.05,17.41 -102.53,87.96 -110.94,100.19 19.93,21.74 25.73,40.51 65.97,72.7 29.63,23.7 47.08,39.78 83,59.04 53.89,28.88 147.09,65.39 221.27,60.98z"/>
    <path class="fil1" d="M650.36 655.09c-9.43,-2.7 -14.63,-14.58 -18.41,-22.91 10.25,-1.38 7.16,-0.39 12.18,7.53 3.91,6.15 5.65,6.86 6.23,15.38zm-42.49 -21.27c5.29,12.75 47.05,70.57 57.5,85.08l15.17 -10.16c-4.15,-15.29 -20.46,-26.9 -24.28,-42.03 11.82,2.18 19.25,19.93 30.03,35.49 8.86,-2.38 13.16,-6.74 19.12,-10.27 -5.47,-6.6 -10.51,-13.62 -16.48,-22.49 -7.21,-10.7 -8.64,-18.61 -25.71,-17.04 6.51,-13.06 -3.55,-66.04 -55.35,-18.58z"/>
    <path class="fil1" d="M605.47 692.32c5.12,11.3 13.82,24.25 14.97,37.31 -8.6,-2.36 -2.97,3.82 -8.6,-6.5l-21.43 -46.01c-11.31,-22.22 -4.37,-16.5 -3.35,-18.19 6.6,3.52 1.94,-2.48 6.86,7.69l11.55 25.7zm-22.81 -47.4c-32.01,12.79 -12.88,35.29 -2.5,58.69 8.97,20.23 16.74,51.29 43.11,41.01 29.12,-11.35 12.76,-36.41 2.91,-56.76 -9.62,-19.85 -16.07,-53.9 -43.52,-42.94z"/>
    <path class="fil1" d="M319.56 776.15c13.22,13.38 40.84,23.18 47.26,-13.08 4,-22.56 10.1,-53.6 11.34,-75.65l-19.36 -4.71c-2.88,15.47 -5.04,30.73 -7.45,46.06l-5.26 34.44c-2.6,11.39 -1.06,5.85 -6.02,7.66 -5.11,-10.54 10.34,-69.85 10.33,-88.12l-18.76 -4.13c-4.39,20.59 -15.09,78.72 -12.08,97.53z"/>
    <path class="fil1" d="M259.89 719.51c-3.72,13 -14.4,30.5 -2.6,41.31 10.51,9.63 30.34,12.49 38.59,-1.12 22.07,-36.41 -11.62,-52.71 0.19,-74.32 4.51,-8.25 -0.41,-2.84 6.72,-5.08 3.08,7.01 -2.9,13.59 -4.97,23.41l18.28 6.21c4.24,-9.61 8.77,-17.62 7.35,-29.5 -5.28,-9.95 -15.31,-18.07 -29.99,-16.55 -11.53,1.19 -17.06,12.92 -20.26,24.34 -5.26,18.82 23.85,56.97 -0.44,63.82 -1.32,-10.37 3.93,-16.14 6.64,-25.54l-19.51 -6.98z"/>
    <path class="fil1" d="M179.01 664.77c-0.84,-1.89 -7.6,3.04 3.16,-9.27l20.37 -21.06c-3.18,6.56 -15.51,32.79 -23.53,30.33zm-46.19 17.98c4.96,5.59 5.69,6.68 13.86,10.38 5.44,-3.97 5.61,-4.42 9.94,-9.74 6.03,-7.42 6.92,-10.39 15.56,-4.83 -1.12,9.47 -9.47,17.01 -13.02,24.93 5.29,4.13 9.55,7.61 15.48,11.42 8.21,-7.66 49.17,-80.7 52.67,-88.08 -3.76,-5.71 -14.52,-12.93 -20.05,-15.6 -12.41,9.41 -25.34,23.04 -37.43,34.12l-37.01 37.4z"/>
    <path class="fil1" d="M151.95 644.75l-14.08 -11.33c-8.39,7.59 -10.21,15.89 -20.92,16.11 0.93,-11.64 29.25,-35.65 37.62,-45.06 5.73,-6.45 7.79,-13.04 16.37,-11.21 -0.56,8.53 -8.44,11.49 -12.68,19.59 7.63,6.94 4.59,8.13 14.05,11.94 20.13,-17.76 25.31,-37.38 -0.22,-49.02 -22.12,-10.09 -43.26,28.04 -56.52,40.94 -4.51,4.39 -6.97,5.29 -10.75,10.19 -23.73,30.84 23.2,64.61 47.13,17.85z"/>
    <path class="fil1" d="M512.65 679.65c-2.16,20.13 12.02,52.14 18.48,70.66 15.25,43.72 46.85,13.62 48.78,7.01 1.61,-15.12 -3.38,-20.76 -6.15,-33.18l-19.3 5.82c1.44,10.76 7.9,17.48 4.64,25.59 -6.99,-2.54 -2.59,5.27 -9.85,-16.32 -2.31,-6.89 -4.37,-12.57 -6.6,-19.06 -3.29,-9.58 -13.78,-28.98 -9.18,-37.41 7.98,4 6.79,11.43 11.65,19.57l18.27 -5.55c-9.4,-33.85 -26.1,-41.26 -50.74,-17.13z"/>
    <path class="fil1" d="M686.1 609.32c-15.11,-16.78 -9.63,-9.96 -8.03,-13.16 4.49,-1.16 8.37,3.85 14.05,9.47 5.31,5.25 8.46,7.97 9.76,17.52 -12.09,-3.28 -4.53,-1.33 -15.78,-13.83zm-34.03 -8.12c9.45,15.45 22.03,24.98 33.43,39.04l34.37 37.38 14.67 -10.45c-3.04,-8.68 -6.1,-11.32 -12.31,-17.04 -5.89,-5.43 -8.33,-9.51 -13.25,-14.61 22.11,-24.51 10.76,-27.18 -5.86,-47.9 -19.86,-24.77 -37.17,0.95 -51.05,13.58z"/>
    <path class="fil1" d="M233.15 687.57c2.46,-8.1 11.05,-26.78 18.38,-30.63 3.04,6.33 -4.52,20.25 -8.71,26.46 -4.7,6.98 -0.05,4.58 -9.67,4.17zm-43.96 36.98c4.76,5.23 11.28,8.17 18.98,10.4l17.07 -34.23c17.01,4.07 23.72,9.36 33.98,-5.61 5.87,-8.56 14.45,-24.06 13.74,-35.66 -5.69,-10.61 -22.33,-20.48 -35.41,-23.86l-48.36 88.96z"/>
    <polygon class="fil1" points="467.45,699.47 466.07,685.06 427.95,688.3 437.19,791.39 475.2,787.9 474.22,773.7 455.76,772.11 454.18,739.39 470.1,738.03 469.48,724.19 451.9,724.54 449.85,701.02 "/>
    <path class="fil1" d="M408.75 689.74c-7.22,-2.88 -10.88,-2.31 -19.82,-2.34l-4.28 103.16 37.57 1.84 -0.07 -15.02 -17.07 -1.21 3.67 -86.43z"/>
    <path class="fil1" d="M734.71 635.65l12.77 14.23c7.29,-3.22 10.77,-7.1 14.24,-14.15l-13.33 -12.68 -13.68 12.6z"/>
   </g>
   <g>
    <path class="fil2" d="M526.31 392.14l78.49 -0.32c-13.76,80.42 -103.65,155.63 -205.21,142.55 -89.58,-11.53 -164.38,-88.31 -163.61,-187.15 0.76,-97.72 76.11,-174.58 166.92,-184.44 102.27,-11.1 190.94,64.75 203.48,149.59l-78.41 -0.07c-38.17,-114.27 -209.59,-90.48 -215.8,30.16 -6.2,120.64 151.24,156.84 205.27,65.62 3.14,-5.31 5.15,-10.99 8.87,-15.94zm184.02 0.04c3.93,28.32 -23.56,86.26 -35.42,105.73 -20.5,33.67 -37.94,51.87 -64.54,75.38 -47.87,42.31 -128.57,74.66 -214.36,66.94 -149,-13.41 -267.01,-138.74 -265.59,-297.68 2.26,-253.65 311,-373.73 486.03,-213.53 46.49,42.57 94.29,115.38 96.26,183.22l-85.82 0.03c-15.78,-96.74 -104.55,-177.17 -221.63,-169.79 -101.18,6.39 -187.57,96.44 -189.18,202.41 -2.81,185.42 213.13,268.86 334.94,166.66 42.68,-35.8 56.27,-59.61 75.85,-119.83l83.46 0.46zm-321.03 -348.74c-169.24,19.94 -291.34,171.25 -271.8,339.45 18.33,157.82 159.91,291.95 341.2,271.21 156,-17.85 291.31,-160.58 269.83,-341.76 -18.28,-154.17 -160.39,-289.97 -339.23,-268.9z"/>
    <path class="fil2" d="M451.62 831.88l1.54 -6.63c7.41,4.41 3.22,0.56 8.37,7.02 -1.11,0.49 1.21,6.07 -9.91,-0.39zm-60.82 -6.13c3.54,5.33 3.7,1.85 0.53,8.91 -11.82,-1.91 -10.18,-6.68 -0.53,-8.91zm46.27 -3.85l-2.12 3.56c-0.13,1.1 -0.45,1.49 -0.64,2.03 -0.19,0.55 -0.38,1.45 -0.62,2.11l-2.75 6.27c0,0 -4.23,0.6 -5.29,-5.88l0.38 -2.67c0.61,-10.75 0.98,2.82 0.26,-3.53l-5.68 4.86 -5.98 -5c-0.56,1.3 -6.11,-1.78 1.57,11.19 -6.22,0.25 -13.47,0.32 -21.46,1.41 0.74,-10.71 -3.23,-3 3.58,-11 7.12,1.71 -1.19,-2.57 4.61,2.32 0.44,0.37 1.9,2.07 2.31,2.46l2.13 2.13c0.14,-1.7 -4.15,1.86 3.53,-10.28 -74.18,4.41 -167.38,-32.1 -221.27,-60.98 -35.92,-19.26 -53.37,-35.34 -83,-59.04 -40.24,-32.19 -46.04,-50.96 -65.97,-72.7 8.41,-12.23 95.89,-82.78 110.94,-100.19 -26.15,-57.24 -49.3,-83.33 -53.19,-165.39 -5.56,-117.17 55.1,-229.58 149.18,-288.21 104.96,-65.42 234.21,-69.69 340.47,-6.42 96.87,57.67 159.58,161.35 160.16,278.27 0.24,48.83 -10.89,93.37 -29.55,136.27 -4.77,10.98 -15.25,26.72 -17.47,36l104.43 107.34c-12.77,23.2 -48.36,55.06 -67.13,74.56 -17.24,17.91 -60.18,45.41 -81.49,58.32 -48.49,29.38 -149.69,65.27 -219.94,62.19zm287.74 -301.85c4.06,-13.43 12.85,-26.22 18.32,-40.04 43.42,-109.69 33.91,-222.66 -28.59,-320.88 -28.53,-44.85 -70.75,-84.93 -118.48,-112.21 -238.22,-136.09 -523.16,41.61 -519.77,304.96 0.93,72.71 21.31,118.38 50.78,176.79l-54.89 49.26c-4.86,4.7 -9.2,6.88 -14.1,11.64 -25.87,25.09 -51.26,35.14 -35.54,56.58 3.31,4.53 6.98,9.32 10.09,13.23 14.94,18.78 49.36,55.41 68.25,69.21 9.07,6.63 16.05,13.43 26.03,20.51 181.82,128.99 399.02,130.01 585.87,3.42l94.49 -87.24c2.96,-3.36 18.17,-22.48 20.01,-26.54 7.6,-16.76 -12.32,-27.99 -23.49,-39.92l-78.98 -78.77z"/>
    <path class="fil2" d="M405.08 776.17l17.07 1.21 0.07 15.02 -37.57 -1.84 4.28 -103.16c8.94,0.03 12.6,-0.54 19.82,2.34l-3.67 86.43zm-85.52 -0.02c-3.01,-18.81 7.69,-76.94 12.08,-97.53l18.76 4.13c0.01,18.27 -15.44,77.58 -10.33,88.12 4.96,-1.81 3.42,3.73 6.02,-7.66l5.26 -34.44c2.41,-15.33 4.57,-30.59 7.45,-46.06l19.36 4.71c-1.24,22.05 -7.34,53.09 -11.34,75.65 -6.42,36.26 -34.04,26.46 -47.26,13.08zm130.29 -75.13l2.05 23.52 17.58 -0.35 0.62 13.84 -15.92 1.36 1.58 32.72 18.46 1.59 0.98 14.2 -38.01 3.49 -9.24 -103.09 38.12 -3.24 1.38 14.41 -17.6 1.55zm62.8 -21.37c24.64,-24.13 41.34,-16.72 50.74,17.13l-18.27 5.55c-4.86,-8.14 -3.67,-15.57 -11.65,-19.57 -4.6,8.43 5.89,27.83 9.18,37.41 2.23,6.49 4.29,12.17 6.6,19.06 7.26,21.59 2.86,13.78 9.85,16.32 3.26,-8.11 -3.2,-14.83 -4.64,-25.59l19.3 -5.82c2.77,12.42 7.76,18.06 6.15,33.18 -1.93,6.61 -33.53,36.71 -48.78,-7.01 -6.46,-18.52 -20.64,-50.53 -18.48,-70.66zm-252.76 39.86l19.51 6.98c-2.71,9.4 -7.96,15.17 -6.64,25.54 24.29,-6.85 -4.82,-45 0.44,-63.82 3.2,-11.42 8.73,-23.15 20.26,-24.34 14.68,-1.52 24.71,6.6 29.99,16.55 1.42,11.88 -3.11,19.89 -7.35,29.5l-18.28 -6.21c2.07,-9.82 8.05,-16.4 4.97,-23.41 -7.13,2.24 -2.21,-3.17 -6.72,5.08 -11.81,21.61 21.88,37.91 -0.19,74.32 -8.25,13.61 -28.08,10.75 -38.59,1.12 -11.8,-10.81 -1.12,-28.31 2.6,-41.31zm322.77 -74.59c27.45,-10.96 33.9,23.09 43.52,42.94 9.85,20.35 26.21,45.41 -2.91,56.76 -26.37,10.28 -34.14,-20.78 -43.11,-41.01 -10.38,-23.4 -29.51,-45.9 2.5,-58.69zm-345.11 -9.33c13.08,3.38 29.72,13.25 35.41,23.86 0.71,11.6 -7.87,27.1 -13.74,35.66 -10.26,14.97 -16.97,9.68 -33.98,5.61l-17.07 34.23c-7.7,-2.23 -14.22,-5.17 -18.98,-10.4l48.36 -88.96zm510.84 -12.54l13.33 12.68c-3.47,7.05 -6.95,10.93 -14.24,14.15l-12.77 -14.23 13.68 -12.6zm-140.52 10.77c51.8,-47.46 61.86,5.52 55.35,18.58 17.07,-1.57 18.5,6.34 25.71,17.04 5.97,8.87 11.01,15.89 16.48,22.49 -5.96,3.53 -10.26,7.89 -19.12,10.27 -10.78,-15.56 -18.21,-33.31 -30.03,-35.49 3.82,15.13 20.13,26.74 24.28,42.03l-15.17 10.16c-10.45,-14.51 -52.21,-72.33 -57.5,-85.08zm-438.04 11.53c12.09,-11.08 25.02,-24.71 37.43,-34.12 5.53,2.67 16.29,9.89 20.05,15.6 -3.5,7.38 -44.46,80.42 -52.67,88.08 -5.93,-3.81 -10.19,-7.29 -15.48,-11.42 3.55,-7.92 11.9,-15.46 13.02,-24.93 -8.64,-5.56 -9.53,-2.59 -15.56,4.83 -4.33,5.32 -4.5,5.77 -9.94,9.74 -8.17,-3.7 -8.9,-4.79 -13.86,-10.38l37.01 -37.4zm482.24 -44.15c13.88,-12.63 31.19,-38.35 51.05,-13.58 16.62,20.72 27.97,23.39 5.86,47.9 4.92,5.1 7.36,9.18 13.25,14.61 6.21,5.72 9.27,8.36 12.31,17.04l-14.67 10.45 -34.37 -37.38c-11.4,-14.06 -23.98,-23.59 -33.43,-39.04zm-500.12 43.55c-23.93,46.76 -70.86,12.99 -47.13,-17.85 3.78,-4.9 6.24,-5.8 10.75,-10.19 13.26,-12.9 34.4,-51.03 56.52,-40.94 25.53,11.64 20.35,31.26 0.22,49.02 -9.46,-3.81 -6.42,-5 -14.05,-11.94 4.24,-8.1 12.12,-11.06 12.68,-19.59 -8.58,-1.83 -10.64,4.76 -16.37,11.21 -8.37,9.41 -36.69,33.42 -37.62,45.06 10.71,-0.22 12.53,-8.52 20.92,-16.11l14.08 11.33zm11.23 -98.7c-24.99,24.06 -78.83,69.57 -95.77,87.77 6.58,15.58 49.69,53.49 64.28,66.25 71.64,62.69 186.15,105.01 289.93,105.01 167.01,0 294.15,-89.51 358.93,-173.59 -4.34,-7.58 -80.74,-88.04 -91.47,-95.13 -30.86,39.98 -55.88,67.63 -103.25,93.94 -124.61,69.21 -264.18,54.39 -373.84,-33.88 -15.96,-12.85 -39.98,-42.09 -48.81,-50.37z"/>
    <path class="fil2" d="M620.44 729.63c-1.15,-13.06 -9.85,-26.01 -14.97,-37.31l-11.55 -25.7c-4.92,-10.17 -0.26,-4.17 -6.86,-7.69 -1.02,1.69 -7.96,-4.03 3.35,18.19l21.43 46.01c5.63,10.32 0,4.14 8.6,6.5z"/>
    <path class="fil2" d="M233.15 687.57c9.62,0.41 4.97,2.81 9.67,-4.17 4.19,-6.21 11.75,-20.13 8.71,-26.46 -7.33,3.85 -15.92,22.53 -18.38,30.63z"/>
    <path class="fil2" d="M678.07 596.16c-1.6,3.2 -7.08,-3.62 8.03,13.16 11.25,12.5 3.69,10.55 15.78,13.83 -1.3,-9.55 -4.45,-12.27 -9.76,-17.52 -5.68,-5.62 -9.56,-10.63 -14.05,-9.47z"/>
    <path class="fil2" d="M650.36 655.09c-0.58,-8.52 -2.32,-9.23 -6.23,-15.38 -5.02,-7.92 -1.93,-8.91 -12.18,-7.53 3.78,8.33 8.98,20.21 18.41,22.91z"/>
   </g>
   <path class="fil3" d="M710.33 392.18l-83.46 -0.46c-19.58,60.22 -33.17,84.03 -75.85,119.83 -121.81,102.2 -337.75,18.76 -334.94,-166.66 1.61,-105.97 88,-196.02 189.18,-202.41 117.08,-7.38 205.85,73.05 221.63,169.79l85.82 -0.03c-1.97,-67.84 -49.77,-140.65 -96.26,-183.22 -175.03,-160.2 -483.77,-40.12 -486.03,213.53 -1.42,158.94 116.59,284.27 265.59,297.68 85.79,7.72 166.49,-24.63 214.36,-66.94 26.6,-23.51 44.04,-41.71 64.54,-75.38 11.86,-19.47 39.35,-77.41 35.42,-105.73z"/>
   <path class="fil4" d="M179.01 664.77c8.02,2.46 20.35,-23.77 23.53,-30.33l-20.37 21.06c-10.76,12.31 -4,7.38 -3.16,9.27z"/>
   <path class="fil5" d="M461.53 832.27c-5.15,-6.46 -0.96,-2.61 -8.37,-7.02l-1.54 6.63c11.12,6.46 8.8,0.88 9.91,0.39z"/>
  </g>
 </g>
</svg>
