<?xml version="1.0" encoding="UTF-8"?>
<!DOCTYPE svg PUBLIC "-//W3C//DTD SVG 1.1//EN" "http://www.w3.org/Graphics/SVG/1.1/DTD/svg11.dtd">
<!-- Creator: CorelDRAW (Versión de evaluación) -->
<svg xmlns="http://www.w3.org/2000/svg" xml:space="preserve" width="8.4666mm" height="8.4666mm" version="1.1" style="shape-rendering:geometricPrecision; text-rendering:geometricPrecision; image-rendering:optimizeQuality; fill-rule:evenodd; clip-rule:evenodd"
viewBox="0 0 846.66 846.66"
 xmlns:xlink="http://www.w3.org/1999/xlink"
 xmlns:xodm="http://www.corel.com/coreldraw/odm/2003">
 <defs>
  <style type="text/css">
   <![CDATA[
    .fil0 {fill:#9C040A}
   ]]>
  </style>
 </defs>
 <g id="Capa_x0020_1">
  <metadata id="CorelCorpID_0Corel-Layer"/>
  <path class="fil0" d="M285.4 168.92l89.22 6.33 0.74 257.4 -175.92 -168.09 75.81 -40.79c-52.34,-8.1 -182.16,-27.9 -230.23,-20.88 57.56,31.24 225.52,273.29 310.29,328.11l136.24 0 302.84 -328.75 -225.43 20.03 70.85 39.19c-17.15,35.15 -133.56,149.99 -170.84,167.06l-2.53 -253.88 84.9 -2.39c-14.62,-33.65 -101.82,-148.58 -132.55,-172.27l-133.39 168.93zm-206.97 364.9c11.13,182.56 148.81,264.93 322.21,276.04l17.77 36.81 22.2 -33.98c173.4,-23.29 309.91,-87.19 323.89,-283.54l40.04 11.68c-25.89,-40.47 -63.39,-100.45 -105,-125.79 -2.03,102.7 20.96,175.57 -58.08,248.26 -109.47,100.66 -359.22,88.81 -451.3,-5.03 -66.24,-67.51 -42.58,-159.3 -47.75,-250.14 -27.62,22.3 -90.24,99.17 -100.29,131.73l36.31 -6.04zm269.13 82.1l143.06 2.79 2.73 -49.98 -147.37 -2.59 1.58 49.78zm2.3 83.84l141.39 -1.08 0.77 -49.94 -147.05 1.45 4.89 49.57z"/>
 </g>
</svg>
