<?xml version="1.0" encoding="UTF-8"?>
<!DOCTYPE svg PUBLIC "-//W3C//DTD SVG 1.1//EN" "http://www.w3.org/Graphics/SVG/1.1/DTD/svg11.dtd">
<!-- Creator: CorelDRAW (Versión de evaluación) -->
<svg xmlns="http://www.w3.org/2000/svg" xml:space="preserve" width="8.4666mm" height="8.4666mm" version="1.1" style="shape-rendering:geometricPrecision; text-rendering:geometricPrecision; image-rendering:optimizeQuality; fill-rule:evenodd; clip-rule:evenodd"
viewBox="0 0 846.66 846.66"
 xmlns:xlink="http://www.w3.org/1999/xlink"
 xmlns:xodm="http://www.corel.com/coreldraw/odm/2003">
 <defs>
  <style type="text/css">
   <![CDATA[
    .fil0 {fill:#373435}
    .fil3 {fill:#03128B}
    .fil2 {fill:#0B1162}
    .fil1 {fill:#EFEFEF}
   ]]>
  </style>
 </defs>
 <g id="Capa_x0020_1">
  <metadata id="CorelCorpID_0Corel-Layer"/>
  <g id="_2118404740528">
   <path class="fil0" d="M161.44 321.28c-39.48,-32.34 -94.06,-90.4 -120.48,-138.1 302.54,74.22 468.49,65.05 765.71,0.91 -43.46,85.95 -171.84,185.98 -266.22,246.31l239.67 -16.88c-38.71,65.32 -311.38,250.39 -356.3,250.08 -49.57,-0.34 -310.89,-183.38 -355.6,-250.49l238.42 15.15 -145.2 -106.98zm-161.45 402.33l846.24 0.41 0.43 -600.7 -846.17 -0.68 -0.5 600.97z"/>
   <path class="fil1" d="M403.96 352.19c92.63,-30.22 134.42,118.67 44.91,144.71 -94.25,27.46 -149.87,-110.46 -44.91,-144.71zm-97.32 76.07l-238.42 -15.15c44.71,67.11 306.03,250.15 355.6,250.49 44.92,0.31 317.59,-184.76 356.3,-250.08l-239.67 16.88c94.38,-60.33 222.76,-160.36 266.22,-246.31 -297.22,64.14 -463.17,73.31 -765.71,-0.91 26.42,47.7 81,105.76 120.48,138.1l145.2 106.98z"/>
   <path class="fil2" d="M378.67 394.07c39.18,-25.94 53.09,-22.35 95.16,0.06l-3.23 57.42c-54.05,46.02 -98.95,27.74 -91.93,-57.48zm25.29 -41.88c-104.96,34.25 -49.34,172.17 44.91,144.71 89.51,-26.04 47.72,-174.93 -44.91,-144.71z"/>
   <path class="fil3" d="M378.67 394.07c-7.02,85.22 37.88,103.5 91.93,57.48l3.23 -57.42c-42.07,-22.41 -55.98,-26 -95.16,-0.06z"/>
  </g>
 </g>
</svg>
