<?xml version="1.0" encoding="UTF-8"?>
<!DOCTYPE svg PUBLIC "-//W3C//DTD SVG 1.1//EN" "http://www.w3.org/Graphics/SVG/1.1/DTD/svg11.dtd">
<!-- Creator: CorelDRAW (Versión de evaluación) -->
<svg xmlns="http://www.w3.org/2000/svg" xml:space="preserve" width="8.4666mm" height="8.4666mm" version="1.1" style="shape-rendering:geometricPrecision; text-rendering:geometricPrecision; image-rendering:optimizeQuality; fill-rule:evenodd; clip-rule:evenodd"
viewBox="0 0 846.66 846.66"
 xmlns:xlink="http://www.w3.org/1999/xlink"
 xmlns:xodm="http://www.corel.com/coreldraw/odm/2003">
 <defs>
  <style type="text/css">
   <![CDATA[
    .fil0 {fill:#5E063A}
    .fil1 {fill:#FEE2D6}
   ]]>
  </style>
 </defs>
 <g id="Capa_x0020_1">
  <metadata id="CorelCorpID_0Corel-Layer"/>
  <path class="fil0" d="M619.58 219.77l149.31 0.34c-30.19,68.72 -33.71,9.87 -81.7,150.94 -70.15,206.2 -69.54,141.38 3.21,250.81l-423.56 4.41 27.36 -73.33 209.69 -2.62 49.96 -146.5 -207.89 -0.86 26.16 -71.44 212.99 -2.17 34.47 -109.58zm-402.29 92.2c-19.04,-40.72 -43,-55.3 -59.6,-89.56l423.88 0.72 -23.92 71.41 -213.22 -2.49 -54.92 148.1 209.15 3.25 -17.12 69.47 -219.03 -0.14 -38.27 116.85 -137.92 -4.26c3.62,-27.87 38.75,-44.72 71.81,-145.06 19.02,-57.67 41.1,-110.28 59.16,-168.29zm-137.97 -131.66c19.19,48.12 30.15,38.26 52.82,86.06 -35.53,86.84 -48.91,115.45 -31.28,226.28 9.27,58.38 -83.39,119.38 -100.86,173.44 46.17,-1.46 184.88,-7.52 219.07,9.87 88.54,45.04 196.85,114.58 352.63,26.43 93.17,-52.71 17.12,-35.75 190.3,-39.68 -0.89,-28.63 -39.69,-65.44 -57.98,-86.52 5.7,-31.18 20.74,-62.69 27.32,-96.32 16.64,-85.28 -30.47,-119.34 56.95,-218.03 21.79,-24.59 48.92,-53.84 58.38,-80.93 -43.05,-1.52 -195.37,6.55 -222.02,-2.98 -39.58,-14.15 -156.15,-134.2 -353.4,-40.84 -27.1,12.83 -55.93,39.02 -74.53,43.1 -20.5,4.49 -90.47,-0.37 -117.4,0.12z"/>
  <path class="fil1" d="M217.29 311.97c-18.06,58.01 -40.14,110.62 -59.16,168.29 -33.06,100.34 -68.19,117.19 -71.81,145.06l137.92 4.26 38.27 -116.85 219.03 0.14 17.12 -69.47 -209.15 -3.25 54.92 -148.1 213.22 2.49 23.92 -71.41 -423.88 -0.72c16.6,34.26 40.56,48.84 59.6,89.56zm367.82 17.38l-212.99 2.17 -26.16 71.44 207.89 0.86 -49.96 146.5 -209.69 2.62 -27.36 73.33 423.56 -4.41c-72.75,-109.43 -73.36,-44.61 -3.21,-250.81 47.99,-141.07 51.51,-82.22 81.7,-150.94l-149.31 -0.34 -34.47 109.58z"/>
 </g>
</svg>
