<?xml version="1.0" encoding="UTF-8"?>
<!DOCTYPE svg PUBLIC "-//W3C//DTD SVG 1.1//EN" "http://www.w3.org/Graphics/SVG/1.1/DTD/svg11.dtd">
<!-- Creator: CorelDRAW (Versión de evaluación) -->
<svg xmlns="http://www.w3.org/2000/svg" xml:space="preserve" width="25.3998mm" height="25.3998mm" version="1.1" style="shape-rendering:geometricPrecision; text-rendering:geometricPrecision; image-rendering:optimizeQuality; fill-rule:evenodd; clip-rule:evenodd"
viewBox="0 0 2539.98 2539.98"
 xmlns:xlink="http://www.w3.org/1999/xlink"
 xmlns:xodm="http://www.corel.com/coreldraw/odm/2003">
 <defs>
  <style type="text/css">
   <![CDATA[
    .fil0 {fill:#0B0B0B}
    .fil1 {fill:#D88D27}
   ]]>
  </style>
 </defs>
 <g id="Capa_x0020_1">
  <metadata id="CorelCorpID_0Corel-Layer"/>
  <g id="_2118400967504">
   <path class="fil0" d="M1034.86 1831.05c0,-59.48 6.42,-188.9 17.52,-236.55 49.81,4.14 4.71,-1.49 39.64,12.93 19.97,8.24 19.43,8.74 39.21,13.35 -8.97,33.61 -37.24,42.05 -73.31,154.46l-23.06 55.81zm67.9 -1831.05l24.05 0c8.74,2.35 18.96,6.01 30.87,8.77l-1.39 96.37 -6.79 52.56c-3.02,91.32 -18.27,177.68 -18.27,262.83 128.69,0 127.34,78.78 219.03,140.17 0,-43.26 -11.94,-132.83 -22.96,-169.83 -15.18,-50.99 -67.72,-103.71 45.49,-63.28 27.26,9.74 40.93,19.09 59.18,37.51 37.83,38.19 62.55,156.97 67.22,213.13l5.85 -11.67c6.15,-14.8 -0.05,3.33 5,-12.52 2.27,-7.11 4.39,-17.76 4.95,-21.36 2.68,-17.39 2.86,-41.77 2.22,-59.66 -1.65,-46 -9.26,-59.63 -9.26,-113.82 52.5,38.46 12.47,209.52 8.77,254.07 21.91,10.52 33.05,8.11 58.46,20.4 28.35,13.71 17.53,15.55 46.19,23.41 16.93,29.52 34.5,41.55 54.78,85.82 20.77,45.35 19.55,67.83 17.05,123.09l33.77 -4.03c25.18,9.62 11.16,7.12 17.53,-3.33l26.28 0.02c33.69,-0.11 36.25,2.85 61.32,8.69 -16.65,14.48 -54.99,23.84 -54.99,23.84 -1.05,-1.91 -4.42,1.24 -6.33,2.45 43.09,3.58 80.72,21.66 114.92,34 19.85,7.17 32,11.09 51.06,19.04 31.18,12.98 26.7,1.49 35.52,34.56l-201.5 35.05 92.68 38.73c66.48,25.06 71.9,19.48 82.54,48.88l-210.26 8.75c30.13,41.14 20.64,-7.73 26.28,43.81 -82.76,0 -145.74,-8.76 -236.55,-8.76l0 87.6 70.1 0c0,56.27 -19.39,59.4 -16.69,103.83 2.49,41 23.86,61.62 7.92,100.1l-14.56 15.1 -45.48 88.89c-18.87,67.32 -51.63,61.98 -8.77,119.97l12.29 14.28c0.6,-1.39 2.8,3.09 4.18,4.64l0 8.77c13.03,28.02 25.07,69.53 37.43,102.66 15.97,42.82 29.5,76.83 -20.13,90.08 3.29,39.49 10.37,42.78 51.97,44.83 34.71,1.71 63.59,-1.87 87.58,-10.41 45.79,-16.31 79.61,-41.65 79.26,-104.67 -0.81,-141.72 -150.96,-64.04 -139.09,-147.04 4.47,-31.27 22.73,-30.09 51.69,-36.69 39.27,2.43 65.98,16.34 96.37,26.17 38.97,58.3 44.7,42.52 58.26,135.11 5.06,34.53 1.48,55.47 -5.88,83.69 -10.31,39.45 -17.48,29.33 -26.1,61.57l-8.75 8.76 -17.53 8.77 -8.76 8.75 -8.76 0 -8.77 8.77c-85.07,7.08 -179.32,77.85 -259.94,-29.16 -16.77,-22.26 9.13,-1.77 -20.4,-23.41 1.36,61 21.69,41.64 23.81,78.78 2.73,47.73 -20.61,19.79 8.94,78.92l28.58 45.75c0,43.04 -7.48,45.27 0.41,68.61 19.32,57.15 44.34,54.13 -44.21,113.42 0,88.1 2.54,141.42 -26.29,201.51 -89.75,20.9 -205.58,47.78 -297.87,26.28 1.43,-64.73 38.77,-71.48 78.59,-96.63 42.54,-26.87 61.58,-45.49 61.58,-113.63 -64.78,-15.1 -62.14,-32.54 -105.13,-61.33 3.1,-37.24 16.14,-65.12 18.13,-105.13l-18.13 -52.52c-14.95,-41.41 -1.91,0.24 -14.08,-21 -16.83,-29.36 5.23,-59.71 -99.81,-84.18 0,-160.05 4.44,-112.24 -25.34,-117.39 -30.14,-5.22 -3.36,7.83 -35.99,-14.02 0,72.51 -2.64,140.73 -11.7,210.26l-4.03 52.57 -28.07 403c-46.1,10.74 -23.99,10.74 -70.09,0 0,-132.18 17.69,-241.67 17.33,-324.34 -0.2,-50.76 9.45,-61.58 8.41,-104.95l2.53 -52.56c7.77,-22.25 10.64,-142.96 14.2,-176.55 6.64,-62.79 10.08,-118.47 10.11,-182.65l0.01 -43.8c19.32,-30.53 7.53,-39.17 -0.57,-60.05l-5.41 -12.56c-12.77,-33.3 7.31,22.3 -4.71,-13.15 -3.31,-9.78 -4.03,-14.35 -8.41,-28.14l-15.94 -87.61 51.54 -27.28c15.62,-17.89 36.04,-432.51 36.04,-463.33 -62.53,41.87 -46.84,49.17 -87.62,52.56l0.11 -78.85 16.41 -87.6c13.43,-46.56 41.71,-67.92 88.59,-78.85l0.19 -35.05 0.63 -35.04c45.6,-106.43 -70.85,-153.63 -105.92,-201.5 24.36,-33.24 84.6,-50.43 131.41,-61.33 0,-85.99 7.83,-186.6 14.98,-262.82l2.76 -43.81c-0.19,-19.71 4.84,-80.79 8.83,-96.32 3.86,-14.98 8.77,-22.84 15.05,-26.34zm98.56 1051.32c-8.55,32.05 -9.25,18.36 -26.28,43.81 16.36,70.24 104.96,140.16 131.41,140.16 20.07,0 10.19,-2.97 35.04,-8.75 -5.78,69.51 -22.99,-11.31 -146.68,159.95 -17.53,24.29 -24.03,42.77 -37.3,67.83 -27.07,-7.23 -58.94,-32.76 -96.37,-52.56l26.43 -376.58c-0.18,-16.6 -2.25,-56.05 -0.18,-70.26 4.26,-29.27 4.09,-31.63 35.08,-35.01 -39.37,82.05 51.45,94.01 78.85,131.41z"/>
   <path class="fil1" d="M1149.5 157.7c150.59,0 195.9,-14.06 368.11,25.39 127.12,29.12 250.98,99.64 346.01,170.88 130.56,97.86 254.89,262.92 315.26,420.66 154.32,403.18 36.89,785.57 -252.42,1071.92 -19.52,19.32 -36.05,30.28 -57.26,47.87 -19.3,16 -38.74,35.18 -63.38,41.75l-8.75 8.76 -17.53 8.77 -8.76 8.75 -8.76 0 -8.77 8.77c-1.56,1.36 -4.16,1.23 -4.91,3.84l-50.5 28.35c-115.84,57.36 -132.04,47.86 -192.18,72.94l28.58 45.75c100.09,-11.05 251.41,-94.43 330.52,-153.27 99.49,-74 171.09,-146.07 245.32,-245.29 386.41,-516.45 162.81,-1345.25 -511.17,-1569.18 -154.43,-51.31 -243.12,-49.22 -442.62,-49.22l-6.79 52.56z"/>
   <path class="fil1" d="M937.95 2102.63l2.53 -52.56c-72.45,-33.79 -136.03,-55.75 -204.8,-103.83 -182.53,-127.62 -338.49,-304.46 -401.78,-526.88 -26.49,-93.11 -58.39,-246.19 -40.13,-373.22 25.81,-179.73 59.49,-323.96 161.5,-460.52 15.8,-21.14 27.99,-41.55 43.76,-61.37 52.65,-66.22 90.08,-100.16 152.97,-153.67 98.16,-83.51 216.12,-147.27 342.61,-183.06 27.23,-7.69 62.79,-10.27 81.51,-21.05l2.76 -43.81c-99.59,0 -256.99,75.74 -323.99,114.26 -83.91,48.23 -179.58,125.33 -243.61,194.45 -249.2,269.01 -329.48,649.11 -226.91,1002.49 40.79,140.57 143.61,310.4 244.32,412.75 10.11,10.28 15.8,15.89 26.84,25.72l18.96 16.1c5.85,4.9 3.75,2.98 9.61,7.9 25.58,21.51 34.45,32.19 61.39,52.5 41.22,31.04 85.27,63.05 132.24,86.77 37.62,18.99 118.36,63.45 160.22,67.03z"/>
   <path class="fil1" d="M929.83 928.66l16.41 -87.6 -17.67 -43.44c20.05,-13.02 33.64,-22.21 52.43,-36.7 19.09,-14.73 29.76,-27.34 54.02,-33.76l0.63 -35.04 -140.97 0c-17.28,-36.01 -33.65,-96.63 -43.8,-140.17l-17.52 0c-2.43,29.15 -32.78,117.18 -43.8,140.17l-157.7 0c7.24,27.09 15.3,25.94 56.24,57.64 24.58,19.03 42.75,31.65 66.41,47.49 -11.64,24.26 -50.08,136.65 -52.56,166.46l140.18 -96.37c31.72,21.25 51.4,42.25 87.7,61.32z"/>
   <path class="fil1" d="M964.79 1690.87l0.01 -43.8c-22.84,-47.46 -28.43,-81.7 -29.52,-84.41l10.42 -29.49 -15.94 -87.61c-42.45,-26.87 -45.01,-12.32 -78.88,-157.7 -33.49,38.55 -36.71,97.64 -61.32,148.94l-157.7 0c14.48,21.63 95.45,89.11 122.65,96.37 -4.61,55.41 -40.98,116.74 -52.56,166.46 33.43,-7.79 47.12,-24.06 71.35,-42.54 130.19,-99.21 74.85,2.65 191.49,33.78z"/>
   <path class="fil1" d="M1586.8 1439.22l-14.56 15.1c-2.53,19.27 -8.38,56.84 -8.71,63.59 -2.05,41.12 8.74,9.9 0.36,53.6 -7.27,37.99 -26.61,71.59 -29.43,110.59l0 8.77c40.83,-3.44 12.79,4.31 42.09,-19 11.45,-9.13 20.84,-17.29 33.92,-27.49 24.36,-19 49.79,-47.94 72.7,-14.75 39.27,2.43 65.98,16.34 96.37,26.17 -1.24,-56.07 -25.03,-66.53 -26.29,-122.63l91.93 -65.77c21.53,-18.41 14.34,-2.04 21.97,-30.6l-157.7 0c-14.14,-60.71 -40.38,-107.9 -43.8,-148.94 -44.79,32.82 -24.84,129.61 -78.85,151.36z"/>
   <path class="fil1" d="M1621.37 657.08c16.93,29.52 34.5,41.55 54.78,85.82 20.77,45.35 19.55,67.83 17.05,123.09l33.77 -4.03 17.53 -3.33 26.28 0.02c-8.33,-17.43 -12.57,-31.4 -17.53,-52.64 32.81,-48.98 86.74,-66.85 110.19,-93.12 6.57,-7.35 29.63,-1.25 -0.1,-16.51 -18.18,-9.32 -129.38,-4.26 -153.89,-4.26 -1.92,-23.12 -27.78,-122.02 -52.56,-140.17 -12.1,25.2 -27.68,74.85 -35.52,105.13z"/>
   <path class="fil1" d="M1010.37 2128.92c38.23,0.93 56.74,12.65 95.11,16.98 42.53,4.79 66.56,9.3 113.97,9.3l-18.13 -52.52c-57.47,-4.91 -132.03,-25.25 -186.92,-26.33l-4.03 52.57z"/>
  </g>
 </g>
</svg>
