<?xml version="1.0" encoding="UTF-8"?>
<!DOCTYPE svg PUBLIC "-//W3C//DTD SVG 1.1//EN" "http://www.w3.org/Graphics/SVG/1.1/DTD/svg11.dtd">
<!-- Creator: CorelDRAW (Versión de evaluación) -->
<svg xmlns="http://www.w3.org/2000/svg" xml:space="preserve" width="8.4666mm" height="8.4666mm" version="1.1" style="shape-rendering:geometricPrecision; text-rendering:geometricPrecision; image-rendering:optimizeQuality; fill-rule:evenodd; clip-rule:evenodd"
viewBox="0 0 846.66 846.66"
 xmlns:xlink="http://www.w3.org/1999/xlink"
 xmlns:xodm="http://www.corel.com/coreldraw/odm/2003">
 <defs>
  <style type="text/css">
   <![CDATA[
    .fil0 {fill:black}
   ]]>
  </style>
 </defs>
 <g id="Capa_x0020_1">
  <metadata id="CorelCorpID_0Corel-Layer"/>
  <path class="fil0" d="M379.09 52.67c220.09,-29.52 392.2,138.9 415.15,326.24 26.85,219.35 -135.99,391.41 -324.28,415.74 -222.97,28.82 -395.21,-137.57 -417.9,-326.06 -26.88,-223.27 136.04,-390.3 327.03,-415.92zm-12.63 -47.66c-64.75,10.61 -109.36,25.37 -157.73,54.23 -20.37,12.16 -46.46,29.47 -61.85,43.22 -98.8,88.25 -165.68,224.86 -142.15,382.05 31.49,210.37 224.52,390.75 474.52,358.38 212.17,-27.48 398.63,-227.46 363.03,-475.37 -15.01,-104.53 -70.89,-209.4 -150.15,-270.13 -78.49,-60.14 -191.08,-114.42 -325.67,-92.38zm6.26 505.29l-0.3 16.83c-6.29,7.81 8.6,4.67 -15.98,6.85l-120.57 -1.35 1.22 -27.55c23.74,-2.51 48.09,-1.19 72,-1.19 11.43,0 22.84,0.03 34.27,-0.12 33.74,-0.41 25.79,-0.27 29.36,6.53zm67.98 -4.22l134.81 1.45 -1.45 24.12 -133.54 -2.02 0.18 -23.55zm-67.61 -56.19l-0.96 17.13c-6.37,8.13 8.11,4.68 -15.69,6.77l-120.19 -1.14 0.25 -27.58 124.09 -1.5c15.8,2.44 7.51,-2.13 12.5,6.32zm98.12 -4.11c104.92,1.22 104.22,-11.27 104.34,26.16l-135.25 -0.25 0.04 -18.42c8.07,-5.33 -12.92,-8 30.87,-7.49zm90.17 -115.7c-14.89,7.26 -105.43,6.99 -120.58,0.01l-0.35 -12.76c14.3,-9.66 110.19,-7.84 121.59,0.01l-0.66 12.74zm-310.48 -17.74l121.85 0.32 -1.06 20.9 -120.4 -1.26 -0.39 -19.96zm310.54 -37.48c-15.35,7.15 -105.14,6.88 -120.71,0l-0.23 -12.75 95.35 -5.6c5.25,0.06 11.26,0.13 16.31,1.23 9.58,2.07 4.08,0.42 9.83,4.37l-0.55 12.75zm-310.46 -17.72l121.68 0.4 -0.89 20.67 -120.53 -1.23 -0.26 -19.84zm13.05 -35.64c4.18,-10.99 51.93,-37.81 64.73,-57.29l107.52 2.34c-2.87,15.19 -15,21.54 -26.72,33.92 -12.94,13.67 -10.65,22.53 -36.63,22.53l-108.9 -1.5zm-138.16 52.55l59.91 -14.02 4.85 127.21c48.92,6.28 24.22,-20.02 114.19,-20.02l67.82 0.57 -0.05 43.87 -135.03 -2.28c-23.97,-3.85 -40.81,-15.58 -65.04,-17.43l-0.6 220.1c51.72,2.1 58.99,-0.15 66.96,-45.8l132.04 -0.56c15.46,87.59 -33,112.83 126.2,115.98 40.84,0.81 83.3,1.54 124.06,-0.44 46.69,-2.27 67.68,-8.18 83.15,-41.05 -9.41,-12.38 -20.23,-15.41 -24,-32.81 -3.15,-14.49 -1.37,-33.71 -4.6,-51.32 -48.46,26.54 23.4,68.21 -135.86,67.14l-98.29 -1.33 -2.01 -56 117.69 0.4c33.74,4.64 12.32,27.79 61.57,12.23 33.02,-10.43 23.78,-37.3 24.26,-87.14 0.53,-54.33 10.19,-31.94 20.27,-59.32 -6.53,-14.32 -38.18,-43.14 -59.38,-47.38 -16.08,7.43 -25.28,19.3 -36.65,24.12 -16.97,7.2 -99.9,3.79 -127,3.46l0.01 -44.79 99.97 0.17c25.22,1.8 17.88,4.08 29.39,16.64 26.37,0.17 34.48,-6.8 54.81,-16.69l0.67 -98.15c12.92,-9.09 16.74,-9.47 25.29,-24.29 -4.29,-16.79 -38.98,-44.87 -59.31,-52.8 -26.18,13.14 -22.81,30.72 -51.29,30.67l-88.46 -0.33c36.43,-29.76 68.6,-28.33 88.31,-37.01 0.53,-21.26 -30.92,-51.43 -46.86,-60.59 -21.09,-4.26 -23.86,29.59 -102.57,25.69l-34.82 -1.49c10.64,-24.09 24.11,-7.84 38.18,-31.58 -8.27,-26.44 -70.08,-37.43 -84.35,-29.92 -10.68,5.62 -44.41,51.88 -57.87,66.06 -29.23,30.79 -122.22,110.11 -125.56,120.23z"/>
 </g>
</svg>
