<?xml version="1.0" encoding="UTF-8"?>
<!DOCTYPE svg PUBLIC "-//W3C//DTD SVG 1.1//EN" "http://www.w3.org/Graphics/SVG/1.1/DTD/svg11.dtd">
<!-- Creator: CorelDRAW (Versión de evaluación) -->
<svg xmlns="http://www.w3.org/2000/svg" xml:space="preserve" width="8.4666mm" height="8.4666mm" version="1.1" style="shape-rendering:geometricPrecision; text-rendering:geometricPrecision; image-rendering:optimizeQuality; fill-rule:evenodd; clip-rule:evenodd"
viewBox="0 0 846.66 846.66"
 xmlns:xlink="http://www.w3.org/1999/xlink"
 xmlns:xodm="http://www.corel.com/coreldraw/odm/2003">
 <defs>
  <style type="text/css">
   <![CDATA[
    .fil0 {fill:#040404}
   ]]>
  </style>
 </defs>
 <g id="Capa_x0020_1">
  <metadata id="CorelCorpID_0Corel-Layer"/>
  <path class="fil0" d="M105.71 150.14c22.5,74.35 157.27,426.41 -9.86,397.35 -68.32,-11.86 -54.35,-68.32 -56.53,-123.95 -34.13,32.32 -44.97,97.66 -36.67,143.47 44.7,38.41 152.72,78.36 195.28,15.14 36.07,-53.6 15.88,-182.98 25.05,-248.8 119.07,151.79 127.8,181.02 198.14,363.17 58.81,-83.53 38.96,-191.12 204.49,-363 4.02,63.39 -13.29,200.3 24.44,249.18 45.71,59.2 150.65,25.48 193.42,-18.2 9.66,-44.27 -3.01,-106.49 -33.12,-139.06l-20.93 105.14c-232.16,128.38 -59.21,-341.04 -52.07,-378.76 -186.74,80.58 -278.3,384.63 -314.77,433.57 -76.65,-160.37 -145.02,-353.9 -316.87,-435.25z"/>
 </g>
</svg>
