<?xml version="1.0" encoding="UTF-8"?>
<!DOCTYPE svg PUBLIC "-//W3C//DTD SVG 1.1//EN" "http://www.w3.org/Graphics/SVG/1.1/DTD/svg11.dtd">
<!-- Creator: CorelDRAW (Versión de evaluación) -->
<svg xmlns="http://www.w3.org/2000/svg" xml:space="preserve" width="8.4666mm" height="8.4666mm" version="1.1" style="shape-rendering:geometricPrecision; text-rendering:geometricPrecision; image-rendering:optimizeQuality; fill-rule:evenodd; clip-rule:evenodd"
viewBox="0 0 846.66 846.66"
 xmlns:xlink="http://www.w3.org/1999/xlink"
 xmlns:xodm="http://www.corel.com/coreldraw/odm/2003">
 <defs>
  <style type="text/css">
   <![CDATA[
    .fil0 {fill:#050405}
    .fil1 {fill:#EAE635}
   ]]>
  </style>
 </defs>
 <g id="Capa_x0020_1">
  <metadata id="CorelCorpID_0Corel-Layer"/>
  <g id="_2118196947376">
   <path class="fil0" d="M365.91 466.71c-71.2,-15.2 -348.69,-60.57 -304.89,-217.84 61.63,-221.27 691.41,-210.15 733.89,6.78 29.57,151.07 -225.01,195.41 -310.14,210.89l-0.65 301.37 -117.45 -1.62 -0.76 -299.58zm156.85 39.87c137.12,-12.36 378.77,-116.16 312.67,-283.57 -101.41,-256.82 -767.76,-231.03 -830.57,16.07 -40.67,160.04 182.81,254.53 322.65,268.46l1.15 297.37 193.27 -3.03 0.83 -295.3z"/>
   <path class="fil0" d="M370.08 219.85c146.5,-35.05 276.34,74.25 111.91,112.25 -143.91,33.25 -280.91,-71.8 -111.91,-112.25zm240.16 80.38c56.26,-138.4 -305.34,-167.1 -364.75,-54.32 -72.98,138.53 312.91,181.8 364.75,54.32z"/>
   <path class="fil0" d="M572.48 543.5l93.31 0.06 -0.89 171.27 -93.32 -1.45 0.9 -169.88zm-27.26 196.85l146.46 -1.35 -1.18 -225.55 -145.52 1.74 0.24 225.16z"/>
   <path class="fil0" d="M186.18 543.04l93.01 3.01 0.06 167.3 -94.44 1 1.37 -171.31zm-26.5 197.29l142.24 0.47 -1.01 -227.58 -141.79 0.42 0.56 226.69z"/>
   <path class="fil1" d="M610.24 300.23c-51.84,127.48 -437.73,84.21 -364.75,-54.32 59.41,-112.78 421.01,-84.08 364.75,54.32zm-244.33 166.48l0.76 299.58 117.45 1.62 0.65 -301.37c85.13,-15.48 339.71,-59.82 310.14,-210.89 -42.48,-216.93 -672.26,-228.05 -733.89,-6.78 -43.8,157.27 233.69,202.64 304.89,217.84z"/>
   <polygon class="fil1" points="571.58,713.38 664.9,714.83 665.79,543.56 572.48,543.5 "/>
   <polygon class="fil1" points="184.81,714.35 279.25,713.35 279.19,546.05 186.18,543.04 "/>
  </g>
 </g>
</svg>
