<?xml version="1.0" encoding="UTF-8"?>
<!DOCTYPE svg PUBLIC "-//W3C//DTD SVG 1.1//EN" "http://www.w3.org/Graphics/SVG/1.1/DTD/svg11.dtd">
<!-- Creator: CorelDRAW (Versión de evaluación) -->
<svg xmlns="http://www.w3.org/2000/svg" xml:space="preserve" width="8.4666mm" height="8.4666mm" version="1.1" style="shape-rendering:geometricPrecision; text-rendering:geometricPrecision; image-rendering:optimizeQuality; fill-rule:evenodd; clip-rule:evenodd"
viewBox="0 0 846.66 846.66"
 xmlns:xlink="http://www.w3.org/1999/xlink"
 xmlns:xodm="http://www.corel.com/coreldraw/odm/2003">
 <defs>
  <style type="text/css">
   <![CDATA[
    .fil0 {fill:#040404}
   ]]>
  </style>
 </defs>
 <g id="Capa_x0020_1">
  <metadata id="CorelCorpID_0Corel-Layer"/>
  <g id="_2118205237344">
   <path class="fil0" d="M609.22 705.06c22.74,-34.79 40.13,-101.72 55.61,-141.97l181.84 -407.56c-42.59,27.5 -98.71,108.05 -139.16,155.87l-126.98 167.11c-11.98,-7.47 -3.24,-1.32 -14.91,-12.68l-29.94 -34.28c-14.58,-17.79 -19.18,-23.47 -37.6,-44.9 -52.37,-60.87 -195.05,-228.46 -241,-262.43l-257.08 354.14c12.2,40.45 37.4,78.78 54.49,122.19 15.11,38.39 26.69,90.45 42.61,121.89 46.93,-73.58 140.51,-372.97 171.41,-406.06 161.09,162.92 185.29,185.49 340.71,388.68z"/>
   <path class="fil0" d="M481.31 230.58c11.98,112.84 200.87,101.96 186.35,-24.4 -13.56,-118.08 -199.51,-99.66 -186.35,24.4z"/>
  </g>
 </g>
</svg>
