<?xml version="1.0" encoding="UTF-8"?>
<!DOCTYPE svg PUBLIC "-//W3C//DTD SVG 1.1//EN" "http://www.w3.org/Graphics/SVG/1.1/DTD/svg11.dtd">
<!-- Creator: CorelDRAW (Versión de evaluación) -->
<svg xmlns="http://www.w3.org/2000/svg" xml:space="preserve" width="8.4666mm" height="8.4666mm" version="1.1" style="shape-rendering:geometricPrecision; text-rendering:geometricPrecision; image-rendering:optimizeQuality; fill-rule:evenodd; clip-rule:evenodd"
viewBox="0 0 846.66 846.66"
 xmlns:xlink="http://www.w3.org/1999/xlink"
 xmlns:xodm="http://www.corel.com/coreldraw/odm/2003">
 <defs>
  <style type="text/css">
   <![CDATA[
    .fil2 {fill:#040404}
    .fil3 {fill:#7683BB}
    .fil4 {fill:#D67D26}
    .fil1 {fill:#ED8001}
    .fil0 {fill:#EDEDED}
   ]]>
  </style>
 </defs>
 <g id="Capa_x0020_1">
  <metadata id="CorelCorpID_0Corel-Layer"/>
  <path class="fil0" d="M377.12 685.99c2.22,1.52 -0.26,0.84 2.15,-1.57 -0.04,-0.2 -1.05,-4.09 -1.05,-4.09 -0.68,-1.35 -1.76,-0.92 -2.65,-3.62 -0.79,-2.4 -0.35,-8.24 -0.35,-11.07 -0.24,-1.24 -3.16,-1.63 -2.26,-5.97 1.99,-4.55 0.85,0.51 2.26,-3.01l0.03 -61.02c-0.11,-8.05 -2.65,-7.43 0.93,-10.05 1.55,-1.15 0.54,0.75 1.3,-1.17l0 -9.03c1.23,-2.92 -0.93,-0.32 2.34,-2.56 -0.47,-4.71 -102.41,-174.5 -103.38,-179.33l292.72 -0.61c-3.03,8.19 -20.29,32.55 -20.93,38.02l1.37 3.42 6.56 4.05c-1.76,4.17 -0.72,-1.02 -2.15,2.92 3.78,0.25 2.59,-0.4 5.22,-1.47 1.05,1.91 0.62,1.09 0.82,3.69l5.77 0.17 0.21 3.57 4.3 0.21 0.17 5.84 7.36 0.16 0.17 5.86c7.95,0.58 9.25,-0.51 11.97,-0.45 -2.29,1.94 -1.64,2.77 -1.35,6.47l5.77 0.16 0.09 5.14 2.35 1.87c3.01,-2.3 103.38,-173.47 113.79,-192 18.13,-32.27 37.72,-64.25 56.39,-96.38l42.38 -72.77c3.93,-7 11.17,-17.38 13.95,-24.29l-182.2 105.14c-29.97,17.94 -61.29,34.53 -91.05,52.71 -7.46,4.56 -15.54,8.65 -22.88,13.24 -5.68,3.57 -26.6,1.76 -34.3,1.76l-161.8 0.01c-8.78,-0.01 -7.09,0.72 -14.37,-3.61 -7.55,-4.49 -15.28,-8.9 -22.89,-13.22 -30.51,-17.33 -60.65,-35.34 -91.19,-52.61 -30.41,-17.19 -61.03,-34.91 -91.14,-52.56l-68.72 -39.68c-5.43,-3.08 -17.84,-11.23 -22.99,-12.78 7.24,9.61 15.78,26.06 22.16,36.92l67 112.86c30.14,50.07 59.33,100.62 89.49,150.64 16.67,27.65 176.44,298.45 178.63,300.09zm2.7 -113.16c-3.27,2.24 -1.1,-0.36 -2.34,2.55l0 9.04c-0.76,1.92 0.25,0.02 -1.3,1.16 -3.58,2.63 -1.04,2.01 -0.93,10.06l-0.03 61.02c-1.41,3.52 -0.27,-1.54 -2.26,3.01 -0.9,4.34 2.02,4.73 2.26,5.97 0,2.83 -0.44,8.67 0.35,11.07 0.89,2.7 1.97,2.28 2.65,3.62 0,0 1.01,3.89 1.05,4.09 -2.41,2.41 0.07,3.09 -2.15,1.57 1.57,4.78 29.37,50.06 34.43,58.82 3.45,5.99 7.66,13.77 11.57,19.16 4.46,-4.62 172.81,-288.03 173.74,-291.45l-2.35 -1.87 -0.09 -5.14 -5.77 -0.16c-0.29,-3.7 -0.94,-4.53 1.34,-6.47 -2.71,-0.06 -4.01,1.03 -11.96,0.45l-0.17 -5.86 -7.36 -0.16 -0.17 -5.84 -4.3 -0.21 -0.21 -3.57 -5.77 -0.17c-0.2,-2.6 0.23,-1.78 -0.82,-3.69 -2.63,1.07 -1.44,1.72 -5.22,1.47 1.43,-3.94 0.39,1.25 2.15,-2.92l-6.56 -4.05 -1.37 -3.42c-5.66,4.28 -120.57,211.23 -125.55,214.62 -3.55,-7.39 -40.08,-70.39 -42.86,-72.7z"/>
  <path class="fil1" d="M131.84 344.14c-4.3,15.56 -8.35,28.55 -11.16,44.85 -5.72,33.19 -5.98,71.03 -0.12,104.18 1.25,7.12 7.93,39.38 11.03,43.81 4.02,1.82 3.07,2.28 4.17,6.32 0.81,2.98 1.54,5.2 1.44,8.12 -0.36,8.88 25.14,52.5 31.52,61.92 1.77,-1.4 -1.4,-1.49 2.1,-1.04 1.58,3.34 3.79,6.21 5.7,9.25l13.19 16.99c2.8,2.66 6.61,4.92 6.23,8.59 0.51,1.87 5.35,6.96 7.15,7.64 4.37,0.05 4.19,2.77 6.97,5.54 2.8,2.79 4.26,2.45 5.62,6.82 2.28,4.62 30.99,25.87 37.37,29.96 30.23,19.41 58.42,32.81 93.51,41.89 11.05,2.87 48.29,10.27 58.04,8.52 -1.45,-4.08 -54.56,-92.56 -57.67,-97.58 -24.41,-39.44 -170.27,-289.98 -173.81,-292.07l-2.55 -0.43c-0.99,-3.93 -24.07,-41.92 -25.1,-42.86 -3.62,6.07 -10.17,23.19 -11.62,30.14 -2.37,1.15 -0.7,0.95 -2.01,-0.56z"/>
  <path class="fil1" d="M673.99 357.42c-1.92,1.43 -48.13,81.06 -53.91,90.71l-81.09 136.45c-11.33,19.05 -81.12,134.2 -81.26,137.1 0.31,2.44 -5.89,12.75 -5.89,12.76 -2.05,2.35 -6.04,8.33 -6.49,11.23 8.13,0.69 23.38,-3.36 28.89,-1.96 11.04,1.78 54.79,-13.82 66.86,-18.53 17.89,-6.98 39.84,-19.14 55.58,-30.28 71.48,-50.59 119.38,-124.45 130.74,-212.35 5.28,-40.89 2.91,-77.37 -6.71,-116.96 -1.44,-5.9 -7.89,-28.97 -10.48,-32.49 -3.28,-0.57 -1.87,-0.06 -3.3,-4.34l-6.18 -13.65c-2.14,2.41 -4.27,7.68 -6.53,10.69 -5.27,7.01 -4.48,9.43 -6.05,11.33l-9.82 15.71c-1.31,3.48 -0.02,3.55 -4.36,4.58z"/>
  <path class="fil1" d="M240.01 194.81c0.25,0.44 2.27,-0.24 -0.59,2.78 -0.78,0.82 -1.51,1.13 -2.54,2.18 2.3,2.2 4.83,3.4 7.96,4.33l0.5 2.52c0.97,1.58 61.59,35.97 68.98,40.16 11.06,6.27 7.66,6.01 21.33,6.03l164.82 -0.05c8.05,0 18.87,1.99 25.86,-2.23 8.55,-5.16 67.32,-37.98 69.43,-40.59l0.11 -2.07c2.82,-0.9 11.9,-5.86 13.85,-8.01 -1.75,-1.5 -5.38,-4.55 -7.19,-5.78 -4.02,-2.74 -5.24,-0.19 -6.48,-5.77 -0.78,-2.94 -31.05,-19.14 -36.02,-21.71 -13.36,-6.94 -27.36,-12.22 -41.61,-17.08 -78.61,-26.77 -169.75,-17.43 -242.38,22.27 -13.05,7.14 -23.77,15.35 -36.03,23.02z"/>
  <path class="fil2" d="M131.84 344.14c2.69,-7.8 9.16,-26.82 13.41,-32.91 1.96,1.29 2.63,3.17 4.07,5.64 5.35,9.14 21.82,35.42 23.8,40.98 3.54,2.09 149.4,252.63 173.81,292.07 3.11,5.02 56.22,93.5 57.67,97.58 -9.75,1.75 -46.99,-5.65 -58.04,-8.52 -35.09,-9.08 -63.28,-22.48 -93.51,-41.89 -6.38,-4.09 -35.09,-25.34 -37.37,-29.96 -3.16,-1.58 -11.04,-9.19 -12.59,-12.36 -1.8,-0.68 -6.64,-5.77 -7.15,-7.64 -5.25,-2.73 -22.89,-27.11 -27.22,-33.79 -6.38,-9.42 -31.88,-53.04 -31.52,-61.92 -3.11,-3.02 -4.61,-9.98 -5.61,-14.44 -3.1,-4.43 -9.78,-36.69 -11.03,-43.81 -5.86,-33.15 -5.6,-70.99 0.12,-104.18 2.81,-16.3 6.86,-29.29 11.16,-44.85zm342.4 399.57c-3.26,2.42 -27.4,4.68 -32.35,3.95 1.06,-3.52 13,-23.8 15.84,-25.98 0.14,-2.9 69.93,-118.05 81.26,-137.1l81.09 -136.45c5.78,-9.65 51.99,-89.28 53.91,-90.71 1.06,-3.33 25.1,-43.97 27.07,-45.93 2.7,4.18 8.09,16.91 9.17,21.61 2.59,3.52 9.04,26.59 10.48,32.49 9.62,39.59 11.99,76.07 6.71,116.96 -11.36,87.9 -59.26,161.76 -130.74,212.35 -15.74,11.14 -37.69,23.3 -55.58,30.28 -12.07,4.71 -55.82,20.31 -66.86,18.53zm-234.23 -548.9c12.26,-7.67 22.98,-15.88 36.03,-23.02 72.63,-39.7 163.77,-49.04 242.38,-22.27 14.25,4.86 28.25,10.14 41.61,17.08 4.97,2.57 35.24,18.77 36.02,21.71 4.45,1.68 13.03,8.4 16.5,11.69 -1.39,1.81 -14.24,9.22 -16.79,9.94 -2.11,2.61 -60.88,35.43 -69.43,40.59 -6.99,4.22 -17.81,2.23 -25.86,2.23l-164.82 0.05c-13.67,-0.02 -10.27,0.24 -21.33,-6.03 -7.39,-4.19 -68.01,-38.58 -68.98,-40.16 -3.38,-1.16 -9.39,-4.21 -11.62,-6.91l6.29 -4.9zm356.85 277.71c-0.93,3.42 -169.28,286.83 -173.74,291.45 -3.91,-5.39 -8.12,-13.17 -11.57,-19.16 -5.06,-8.76 -32.86,-54.04 -34.43,-58.82 -2.19,-1.64 -161.96,-272.44 -178.63,-300.09 -30.16,-50.02 -59.35,-100.57 -89.49,-150.64l-67 -112.86c-6.38,-10.86 -14.92,-27.31 -22.16,-36.92 5.15,1.55 17.56,9.7 22.99,12.78l68.72 39.68c30.11,17.65 60.73,35.37 91.14,52.56 30.54,17.27 60.68,35.28 91.19,52.61 7.61,4.32 15.34,8.73 22.89,13.22 7.28,4.33 5.59,3.6 14.37,3.61l161.8 -0.01c7.7,0 28.62,1.81 34.3,-1.76 7.34,-4.59 15.42,-8.68 22.88,-13.24 29.76,-18.18 61.08,-34.77 91.05,-52.71l182.2 -105.14c-2.78,6.91 -10.02,17.29 -13.95,24.29l-42.38 72.77c-18.67,32.13 -38.26,64.11 -56.39,96.38 -10.41,18.53 -110.78,189.7 -113.79,192zm-596.87 -400.9l0 3.12c10.73,6.82 30.28,42.53 37.38,54.55 11.42,19.36 23.38,38.58 34.59,58 11.01,19.09 22.57,38.98 34.22,57.6l34.27 58.04c-1.12,4.05 -5.4,12.14 -7.33,16.5 -18.5,41.94 -28.24,101.67 -23.36,146.13 3.88,35.31 5.36,46.44 16.86,80.96 7.8,23.38 19.6,45.4 32.53,66.08 24.45,39.09 60.57,72.63 99.35,97.12 38.58,24.37 83.08,38.59 128.22,44.13 7.39,0.9 15.51,1.02 22.59,2.17l13.13 22.54 1.25 0 13.64 -22.59c5.35,-0.75 11.05,-0.97 16.51,-1.49 40.55,-3.89 62.05,-11.61 99.7,-26.71 19.85,-7.96 50.1,-27.16 67.02,-41.35 26.75,-22.43 28.59,-24.48 53.39,-55.02 10.63,-13.09 20.04,-29.33 27.92,-44.27 43.34,-82.23 47.01,-178.86 12.31,-265.41 -7.85,-19.58 -10.24,-15.7 -4.84,-24.38 9.06,-14.59 18.27,-30.56 26.62,-45.59 4.13,-7.42 9.68,-15.26 13.49,-22.73 3.63,-7.13 9.06,-15.99 13.37,-22.81 9.25,-14.65 17.38,-30.82 26.43,-45.69 4.48,-7.36 9.39,-15.26 13.35,-22.82l26.73 -45.53c1.79,-2.49 15.01,-16.2 17.33,-17.66l0 -2.03c-1.61,-1.22 -2.92,-2.36 -3.56,-4.37l-2.93 0c-2.54,2.71 -219.29,127.35 -220.62,127.59 -3.14,-0.55 -73.41,-68.5 -196.6,-68.5 -55.99,0 -108.98,13.81 -157.19,41.84 -22.37,13.01 -25.18,17.91 -39.23,26.64l-220.37 -127.57 -3.05 0 -3.12 3.51z"/>
  <path class="fil3" d="M370.63 542.1l52.09 89.12c2.12,-1.34 44.35,-74.36 50.64,-86.01 4.75,-8.78 13.43,-21 16.89,-29.8 -3.22,-1.68 -0.71,-1.82 -1.25,-6.45l-0.56 -0.09c-0.12,-0.02 -0.59,-0.05 -0.77,-0.06 -5.15,-0.48 -1.94,2 -7.66,0.65l-10.19 -1.24 -0.2 -4.5 -5.74 -0.13 -0.28 -3.62c-9.01,-0.09 -3.12,-0.33 -8.16,-2.65 3.24,-0.29 5.95,0.47 8.32,-0.98 -3.34,-1.98 -8.47,-0.31 -12.11,-0.17l0.02 -7.25c2.88,-0.23 3.79,0.39 6.03,-0.87 -2.16,-1.2 -4.5,-1.18 -6.88,0.11l-5.93 -4.12c0.95,-2.35 1.53,-2.64 2,-4.12 -7.05,1.21 -6.14,1.19 -9.24,-1.3 -2.22,-1.79 -0.97,-0.35 -3.73,-1.51 -0.16,-0.06 -0.32,-0.21 -0.47,-0.28 -6.82,-2.94 -3.44,2.67 -6.71,-3.04l-5.25 0.68c0.86,-2.66 -0.5,-0.65 2.21,-2.22 -1.62,-0.87 -1.37,-0.38 -2.59,-1.16 -5.06,-3.23 -2.77,-0.66 -5.47,-3.21l-0.24 3.61c-10.68,1.02 -5.8,2.35 -11.25,0 -1.31,1.58 -0.6,1.26 -2.82,1.73l-0.68 3.07c-3.86,1.27 -3.15,-2.49 -3.48,13.15l-11.87 0.22c-0.02,10.17 0.86,7.91 -1.69,12.61 -2.33,-1.16 -4.52,-0.75 -7.27,-0.53 -0.08,11.45 -2.02,2.32 -3.04,7.39 0.01,5.56 -0.53,3.02 -1.26,5.48 -0.37,1.25 -0.11,2.17 -0.28,3.47 -0.54,4.07 -2.13,6.92 -0.8,13.64l-1.58 0.5c-0.06,0.01 -0.34,0.18 -0.39,0.06l-0.13 3.39c1.97,-0.86 0.59,0.56 1.94,-1.58 0.93,3.59 -0.23,1.49 1.63,2.09 -0.29,-1.63 -0.68,-2.6 -0.41,-4.63l1.6 2.9c0.74,1.65 0.47,1.13 0.34,3.4l-2.79 0.72c0.91,3.22 1.32,1.05 -0.54,3.53zm-80.89 -140.04c0.13,-1.79 31.58,-0.84 35.35,-0.42 -2.94,1.49 -3.16,-0.45 -6.1,1.37l12.12 0.18c-2.15,0.94 -5.6,0.5 -8.3,0.56 -6.47,0.16 -0.98,1.38 -7.22,1.71 -0.26,3.06 0.36,3.69 -1.04,6.09 -1.72,-2.8 -0.37,-2.44 -1.23,-5.34 -0.35,5.03 0.57,6.28 0.73,10.32 0.53,13.39 0.45,12.49 -2.06,13.02 2.15,2.41 0.63,0.37 0.73,2.3 0.26,5 1.72,1.65 -0.85,6.25l-1.62 -0.47c1.96,5.36 39.17,67.96 45.37,78.64 4.06,6.99 12.27,19.08 15.01,25.83 1.86,-2.48 1.45,-0.31 0.54,-3.53l2.79 -0.72c0.13,-2.27 0.4,-1.75 -0.34,-3.4l-1.6 -2.9c-0.27,2.03 0.12,3 0.41,4.63 -1.86,-0.6 -0.7,1.5 -1.63,-2.09 -1.35,2.14 0.03,0.72 -1.94,1.58l0.13 -3.39c0.05,0.12 0.33,-0.05 0.39,-0.06l1.58 -0.5c-1.33,-6.72 0.26,-9.57 0.8,-13.64 0.17,-1.3 -0.09,-2.22 0.28,-3.47 0.73,-2.46 1.27,0.08 1.26,-5.48 1.02,-5.07 2.96,4.06 3.04,-7.39 2.75,-0.22 4.94,-0.63 7.27,0.53 2.55,-4.7 1.67,-2.44 1.69,-12.61l11.87 -0.22c0.33,-15.64 -0.38,-11.88 3.48,-13.15l0.68 -3.07c2.22,-0.47 1.51,-0.15 2.82,-1.73 5.45,2.35 0.57,1.02 11.25,0l0.24 -3.61c2.7,2.55 0.41,-0.02 5.47,3.21 1.22,0.78 0.97,0.29 2.59,1.16 -2.71,1.57 -1.35,-0.44 -2.21,2.22l5.25 -0.68c3.27,5.71 -0.11,0.1 6.71,3.04 0.15,0.07 0.31,0.22 0.47,0.28 2.76,1.16 1.51,-0.28 3.73,1.51 3.1,2.49 2.19,2.51 9.24,1.3 -0.47,1.48 -1.05,1.77 -2,4.12l5.93 4.12c2.38,-1.29 4.72,-1.31 6.88,-0.11 -2.24,1.26 -3.15,0.64 -6.03,0.87l-0.02 7.25c3.64,-0.14 8.77,-1.81 12.11,0.17 -2.37,1.45 -5.08,0.69 -8.32,0.98 5.04,2.32 -0.85,2.56 8.16,2.65l0.28 3.62 5.74 0.13 0.2 4.5 10.19 1.24c5.72,1.35 2.51,-1.13 7.66,-0.65 0.18,0.01 0.65,0.04 0.77,0.06l0.56 0.09c0.54,4.63 -1.97,4.77 1.25,6.45l25.55 -44.11 -2.38 0.94 -1.56 -5.94 5.21 -2.28c-1.04,-4.04 -1.07,-2.7 -5.24,-3.12 0.85,-3.02 0.34,-0.13 1.09,-2.98l-4.27 1.68c-5.38,-6.79 -1.73,-5.85 -8.84,-6.22 -0.74,-3.39 -1.21,-1.52 -1.66,-4.45 -0.21,-1.41 0.01,-4.5 0.1,-6.15l-1.56 -1.2 2.67 -1.26c-2.86,-0.81 -2.48,0.43 -1.52,-3.07 -3.7,-0.49 -4.71,-2.9 -8.66,-3.4 -0.39,-2.53 -1.25,-3.3 -2.26,-5.01l-5.21 -1.07c-1.41,-6.35 -0.18,-1.93 -0.15,-8.21 -3.83,-2.86 -0.98,-2.01 -11.22,-2.21 -6.44,-0.12 -2.79,1.17 -6.58,1.33 0.78,-2.69 0.21,-0.06 1.34,-2.87 -1.31,-3.58 -1.1,0.56 -1.72,-4.31 -4.97,-0.6 -0.79,-1.05 -5.69,-1.83 -0.31,-3.93 -0.72,-2.96 -0.01,-6.59 4.91,0.58 -1.93,-1 10.09,-1.23l-64.27 -0.38c14.32,0.31 102.13,1.18 109.01,-1.47l-223.9 0.37 1.13 1.69zm226.06 69.24c3.27,-3.33 17.01,-28.93 20.68,-35.3 3.43,-5.95 19.58,-31.54 20.32,-35.89l-44.29 -0.11c-6.88,2.65 -94.69,1.78 -109.01,1.47l64.27 0.38c-12.02,0.23 -5.18,1.81 -10.09,1.23 -0.71,3.63 -0.3,2.66 0.01,6.59 4.9,0.78 0.72,1.23 5.69,1.83 0.62,4.87 0.41,0.73 1.72,4.31 -1.13,2.81 -0.56,0.18 -1.34,2.87 3.79,-0.16 0.14,-1.45 6.58,-1.33 10.24,0.2 7.39,-0.65 11.22,2.21 -0.03,6.28 -1.26,1.86 0.15,8.21l5.21 1.07c1.01,1.71 1.87,2.48 2.26,5.01 3.95,0.5 4.96,2.91 8.66,3.4 -0.96,3.5 -1.34,2.26 1.52,3.07l-2.67 1.26 1.56 1.2c-0.09,1.65 -0.31,4.74 -0.1,6.15 0.45,2.93 0.92,1.06 1.66,4.45 7.11,0.37 3.46,-0.57 8.84,6.22l4.27 -1.68c-0.75,2.85 -0.24,-0.04 -1.09,2.98 4.17,0.42 4.2,-0.92 5.24,3.12l-5.21 2.28 1.56 5.94 2.38 -0.94zm-226.06 -69.24c0.27,2.28 18.14,33.12 20.51,35.57l1.62 0.47c2.57,-4.6 1.11,-1.25 0.85,-6.25 -0.1,-1.93 1.42,0.11 -0.73,-2.3 2.51,-0.53 2.59,0.37 2.06,-13.02 -0.16,-4.04 -1.08,-5.29 -0.73,-10.32 0.86,2.9 -0.49,2.54 1.23,5.34 1.4,-2.4 0.78,-3.03 1.04,-6.09 6.24,-0.33 0.75,-1.55 7.22,-1.71 2.7,-0.06 6.15,0.38 8.3,-0.56l-12.12 -0.18c2.94,-1.82 3.16,0.12 6.1,-1.37 -3.77,-0.42 -35.22,-1.37 -35.35,0.42z"/>
  <path class="fil2" d="M515.8 471.3l-25.55 44.11c-3.46,8.8 -12.14,21.02 -16.89,29.8 -6.29,11.65 -48.52,84.67 -50.64,86.01l-52.09 -89.12c-2.74,-6.75 -10.95,-18.84 -15.01,-25.83 -6.2,-10.68 -43.41,-73.28 -45.37,-78.63 -2.37,-2.46 -20.24,-33.3 -20.51,-35.58l-1.13 -1.69 223.89 -0.37 44.3 0.11c-0.74,4.35 -16.89,29.94 -20.32,35.89 -3.67,6.37 -17.41,31.97 -20.68,35.3zm-135.98 101.53c2.78,2.31 39.31,65.31 42.86,72.7 4.98,-3.39 119.89,-210.34 125.55,-214.62 0.64,-5.47 17.9,-29.83 20.93,-38.02l-292.72 0.61c0.97,4.83 102.91,174.62 103.38,179.33z"/>
  <path class="fil4" d="M131.84 344.14c1.31,1.51 -0.36,1.71 2.01,0.56 1.45,-6.95 8,-24.07 11.62,-30.14 1.03,0.94 24.11,38.93 25.1,42.86l2.55 0.43c-1.98,-5.56 -18.45,-31.84 -23.8,-40.98 -1.44,-2.47 -2.11,-4.35 -4.07,-5.64 -4.25,6.09 -10.72,25.11 -13.41,32.91z"/>
  <path class="fil4" d="M673.99 357.42c4.34,-1.03 3.05,-1.1 4.36,-4.58l9.82 -15.71c1.57,-1.9 0.78,-4.32 6.05,-11.33 2.26,-3.01 4.39,-8.28 6.53,-10.69l6.18 13.65c1.43,4.28 0.02,3.77 3.3,4.34 -1.08,-4.7 -6.47,-17.43 -9.17,-21.61 -1.97,1.96 -26.01,42.6 -27.07,45.93z"/>
  <path class="fil4" d="M474.24 743.71c-5.51,-1.4 -20.76,2.65 -28.89,1.96 0.45,-2.9 4.44,-8.88 6.49,-11.23 0,-0.01 6.2,-10.32 5.89,-12.76 -2.84,2.18 -14.78,22.46 -15.84,25.98 4.95,0.73 29.09,-1.53 32.35,-3.95z"/>
  <path class="fil4" d="M195.94 647.13c0.38,-3.67 -3.43,-5.93 -6.23,-8.59l-13.19 -16.99c-1.91,-3.04 -4.12,-5.91 -5.7,-9.25 -3.5,-0.45 -0.33,-0.36 -2.1,1.04 4.33,6.68 21.97,31.06 27.22,33.79z"/>
  <path class="fil4" d="M595.76 209.94c2.55,-0.72 15.4,-8.13 16.79,-9.94 -3.47,-3.29 -12.05,-10.01 -16.5,-11.69 1.24,5.58 2.46,3.03 6.48,5.77 1.81,1.23 5.44,4.28 7.19,5.78 -1.95,2.15 -11.03,7.11 -13.85,8.01l-0.11 2.07z"/>
  <path class="fil4" d="M245.34 206.62l-0.5 -2.52c-3.13,-0.93 -5.66,-2.13 -7.96,-4.33 1.03,-1.05 1.76,-1.36 2.54,-2.18 2.86,-3.02 0.84,-2.34 0.59,-2.78l-6.29 4.9c2.23,2.7 8.24,5.75 11.62,6.91z"/>
  <path class="fil4" d="M137.2 551.42c0.1,-2.92 -0.63,-5.14 -1.44,-8.12 -1.1,-4.04 -0.15,-4.5 -4.17,-6.32 1,4.46 2.5,11.42 5.61,14.44z"/>
  <path class="fil4" d="M215.68 667.13c-1.36,-4.37 -2.82,-4.03 -5.62,-6.82 -2.78,-2.77 -2.6,-5.49 -6.97,-5.54 1.55,3.17 9.43,10.78 12.59,12.36z"/>
  <path class="fil0" d="M846.66 72.48l0 -4.37 -3.56 0c0.64,2.01 1.95,3.15 3.56,4.37z"/>
  <polygon class="fil0" points="-0.01,71.62 3.11,68.11 -0.01,68.11 "/>
 </g>
</svg>
