<?xml version="1.0" encoding="UTF-8"?>
<!DOCTYPE svg PUBLIC "-//W3C//DTD SVG 1.1//EN" "http://www.w3.org/Graphics/SVG/1.1/DTD/svg11.dtd">
<!-- Creator: CorelDRAW (Versión de evaluación) -->
<svg xmlns="http://www.w3.org/2000/svg" xml:space="preserve" width="8.4666mm" height="8.4666mm" version="1.1" style="shape-rendering:geometricPrecision; text-rendering:geometricPrecision; image-rendering:optimizeQuality; fill-rule:evenodd; clip-rule:evenodd"
viewBox="0 0 846.66 846.66"
 xmlns:xlink="http://www.w3.org/1999/xlink"
 xmlns:xodm="http://www.corel.com/coreldraw/odm/2003">
 <defs>
  <style type="text/css">
   <![CDATA[
    .fil7 {fill:#0B8B44}
    .fil2 {fill:#15321A}
    .fil5 {fill:#170A02}
    .fil4 {fill:#262526}
    .fil6 {fill:#32A35D}
    .fil3 {fill:#E8A549}
    .fil1 {fill:#EC9524}
    .fil0 {fill:#F0F0F0}
   ]]>
  </style>
 </defs>
 <g id="Capa_x0020_1">
  <metadata id="CorelCorpID_0Corel-Layer"/>
  <g id="_2118360491936">
   <path class="fil0" d="M134.01 330.87c77.8,-214.94 257.85,-186.29 287.83,-237.72 47.95,42.82 122.74,34.85 202.96,99.46 25.06,20.17 49.12,52.59 64.52,81.22 53.87,100.15 8.45,31.99 81.49,73.38 -91.39,66.7 -6.72,57.43 -69.44,200.35 -56.79,129.42 -86.6,29.91 -61.88,202.7 -27.01,-9.93 -77.35,-39.72 -100.8,-40.74 -25.71,-1.12 -70.5,18.61 -116.25,18.08 -151.89,-1.75 -54.07,-46.72 -212.25,25.38l11.4 -105.1c-154.66,-138.66 -47.95,-200.88 -145.52,-303.55l57.94 -13.46zm231.53 -308.34c-535.45,85.46 -404.89,881.34 125.14,799.76 522.97,-80.5 399.4,-883.49 -125.14,-799.76z"/>
   <path class="fil1" d="M536.42 678.59l53.23 0.19 -13.22 -74.09c-18.98,-7.57 -1.14,-2.84 -25.18,-5.08l-10.92 -10.24 -61.04 -0.94 -1.57 -97.56 -105.08 -1.46 -1.45 99.49 -64.94 -0.27 1.25 -240.98c44.92,-1.77 40.8,-10.97 64.41,15.03 18.32,18.64 10.65,31.75 17.62,66.19l74.4 -4.67c2.45,-43.86 2.77,-117.5 -10.78,-156.71 -14.94,-43.28 -40.34,-37.62 -75.91,-57.12l-47.99 108.06 -210.36 33.57 145.74 157.9 -34.52 210.16c46.23,-14.93 102.7,-49.61 144.97,-72.23 84.35,-45.15 79.91,4.21 161.34,30.76z"/>
   <path class="fil2" d="M338.01 692.3c85.65,-37.4 69.88,-56.98 137.01,-17.26l34.92 11.78c-41.83,35.62 -125.76,23.66 -171.93,5.48zm-115.02 -69.98c-51.92,-58.81 -86.28,-118.87 -82.07,-202.89 112.9,101.95 102.93,56.42 82.07,202.89zm485.33 -211.07c16.78,80.21 -27.39,165.33 -85.51,216.66l-16.92 -116.84 102.43 -99.82zm-171.9 267.34c-81.43,-26.55 -76.99,-75.91 -161.34,-30.76 -42.27,22.62 -98.74,57.3 -144.97,72.23l34.52 -210.16 -145.74 -157.9 210.36 -33.57 47.99 -108.06 47.72 -84.57c39.13,56.48 55.34,144.83 105.02,194.95l204.92 30.74c-24.8,56.43 -107.86,96.65 -136.66,141.89 -31.97,50.21 16.91,166.1 19.85,229.59l-81.67 -44.38zm-376.33 -361.05c28.35,-48.24 30.13,-77.57 85.19,-118.81 50.75,-38.04 90.08,-53.82 152.34,-63.62 -67.59,121.72 -58.99,203.99 -237.53,182.43zm372.78 -13.82l-80.9 -171.11c97.15,22.07 225.89,81.98 239.89,194.27l-158.99 -23.16zm-456.8 40.61c97.57,102.67 -9.14,164.89 145.52,303.55l-11.4 105.1c158.18,-72.1 60.36,-27.13 212.25,-25.38 45.75,0.53 90.54,-19.2 116.25,-18.08 23.45,1.02 73.79,30.81 100.8,40.74 -24.72,-172.79 5.09,-73.28 61.88,-202.7 62.72,-142.92 -21.95,-133.65 69.44,-200.35 -73.04,-41.39 -27.62,26.77 -81.49,-73.38 -15.4,-28.63 -39.46,-61.05 -64.52,-81.22 -80.22,-64.61 -155.01,-56.64 -202.96,-99.46 -29.98,51.43 -210.03,22.78 -287.83,237.72l-57.94 13.46z"/>
   <path class="fil3" d="M377.24 210.37c35.57,19.5 60.97,13.84 75.91,57.12 13.55,39.21 13.23,112.85 10.78,156.71l-74.4 4.67c-6.97,-34.44 0.7,-47.55 -17.62,-66.19l2.61 77.55 101.3 -0.33 5.35 -91.17 57.91 -0.65 1.25 241.29 10.92 10.24c24.04,2.24 6.2,-2.49 25.18,5.08l13.22 74.09 -53.23 -0.19 81.67 44.38c-2.94,-63.49 -51.82,-179.38 -19.85,-229.59 28.8,-45.24 111.86,-85.46 136.66,-141.89l-204.92 -30.74c-49.68,-50.12 -65.89,-138.47 -105.02,-194.95l-47.72 84.57z"/>
   <path class="fil4" d="M365.54 22.53c524.54,-83.73 648.11,719.26 125.14,799.76 -530.03,81.58 -660.59,-714.3 -125.14,-799.76zm-36.1 -9.73c-543.16,124.48 -348.64,949.95 190.67,820.04 535.03,-128.88 350.5,-944.07 -190.67,-820.04z"/>
   <path class="fil5" d="M540.33 589.37l-1.25 -241.29 -57.91 0.65 -5.35 91.17 -101.3 0.33 -2.61 -77.55c-23.61,-26 -19.49,-16.8 -64.41,-15.03l-1.25 240.98 64.94 0.27 1.45 -99.49 105.08 1.46 1.57 97.56 61.04 0.94z"/>
   <path class="fil6" d="M532.87 303.72l158.99 23.16c-14,-112.29 -142.74,-172.2 -239.89,-194.27l80.9 171.11z"/>
   <path class="fil7" d="M160.09 317.54c178.54,21.56 169.94,-60.71 237.53,-182.43 -62.26,9.8 -101.59,25.58 -152.34,63.62 -55.06,41.24 -56.84,70.57 -85.19,118.81z"/>
   <path class="fil6" d="M605.89 511.07l16.92 116.84c58.12,-51.33 102.29,-136.45 85.51,-216.66l-102.43 99.82z"/>
   <path class="fil7" d="M222.99 622.32c20.86,-146.47 30.83,-100.94 -82.07,-202.89 -4.21,84.02 30.15,144.08 82.07,202.89z"/>
   <path class="fil7" d="M338.01 692.3c46.17,18.18 130.1,30.14 171.93,-5.48l-34.92 -11.78c-67.13,-39.72 -51.36,-20.14 -137.01,17.26z"/>
  </g>
 </g>
</svg>
