<?xml version="1.0" encoding="UTF-8"?>
<!DOCTYPE svg PUBLIC "-//W3C//DTD SVG 1.1//EN" "http://www.w3.org/Graphics/SVG/1.1/DTD/svg11.dtd">
<!-- Creator: CorelDRAW (Versión de evaluación) -->
<svg xmlns="http://www.w3.org/2000/svg" xml:space="preserve" width="8.4666mm" height="8.4666mm" version="1.1" style="shape-rendering:geometricPrecision; text-rendering:geometricPrecision; image-rendering:optimizeQuality; fill-rule:evenodd; clip-rule:evenodd"
viewBox="0 0 846.66 846.66"
 xmlns:xlink="http://www.w3.org/1999/xlink"
 xmlns:xodm="http://www.corel.com/coreldraw/odm/2003">
 <defs>
  <style type="text/css">
   <![CDATA[
    .fil0 {fill:black}
   ]]>
  </style>
 </defs>
 <g id="Capa_x0020_1">
  <metadata id="CorelCorpID_0Corel-Layer"/>
  <path class="fil0" d="M650.45 204.07c92.87,12.49 197.6,183.57 162.3,344.01 -27.18,123.61 -131.76,248.21 -289.36,221.36 -164.79,-28.09 -215.72,-206.95 -135.52,-310.38 29.83,-38.46 69.48,-67.46 118.47,-77.91 23.47,-5 31.55,-0.22 45.58,-16.92 8.97,-10.67 76.17,-133.39 98.53,-160.16zm19.13 -25.53c8.12,-48.01 93.4,-131.66 89.73,-175.92 -31.01,-0.86 -35.18,28.28 -64.64,75.17 -14.34,22.84 -37.47,68.39 -54.56,85.9 -55.59,-13.83 -85.28,-34.31 -157.03,-40.25 -421.08,-34.91 -620.83,432.47 -378.11,683.48 8.71,9.02 16.74,17.69 25.88,26.11 25.13,23.14 44.58,6.62 19.79,-19.74 -9.03,-9.6 -14.23,-13.71 -23.2,-23.72 -125.71,-140.34 -132.61,-330.73 -26.74,-472.82 106.35,-142.75 297.59,-214.94 523.03,-127.64 -4.57,18.64 -37.64,67.84 -50.18,88.42 -32.54,53.42 -31.49,68.61 -63.76,76.46 -277.01,67.36 -224.25,418.85 22.68,442.27 167.24,15.87 279.39,-104.45 306.82,-246.63 23.92,-123.92 -11.4,-231.38 -90.97,-313.77 -29.26,-30.31 -43.6,-34.41 -78.74,-57.32z"/>
 </g>
</svg>
