<?xml version="1.0" encoding="UTF-8"?>
<!DOCTYPE svg PUBLIC "-//W3C//DTD SVG 1.1//EN" "http://www.w3.org/Graphics/SVG/1.1/DTD/svg11.dtd">
<!-- Creator: CorelDRAW (Versión de evaluación) -->
<svg xmlns="http://www.w3.org/2000/svg" xml:space="preserve" width="8.4666mm" height="8.4666mm" version="1.1" style="shape-rendering:geometricPrecision; text-rendering:geometricPrecision; image-rendering:optimizeQuality; fill-rule:evenodd; clip-rule:evenodd"
viewBox="0 0 846.66 846.66"
 xmlns:xlink="http://www.w3.org/1999/xlink"
 xmlns:xodm="http://www.corel.com/coreldraw/odm/2003">
 <defs>
  <style type="text/css">
   <![CDATA[
    .fil1 {fill:#FEFEFE}
    .fil0 {fill:#373435;fill-rule:nonzero}
   ]]>
  </style>
 </defs>
 <g id="Capa_x0020_1">
  <metadata id="CorelCorpID_0Corel-Layer"/>
  <g id="_2118357148656">
   <g>
    <path class="fil0" d="M426.92 0.84l-14.59 124.09 -14.48 -1.7 14.59 -124.09 14.42 -0.42 0.06 2.12zm-14.48 -1.7c0.46,-3.99 4.1,-6.85 8.09,-6.39 3.99,0.46 6.85,4.1 6.39,8.09l-14.48 -1.7zm21.96 126.21l-21.9 -124.09 14.36 -2.54 21.9 124.09 -8.3 8.48 -6.06 -5.94zm14.36 -2.54c0.7,3.96 -1.95,7.75 -5.91,8.45 -3.96,0.7 -7.75,-1.95 -8.45,-5.91l14.36 -2.54zm271.51 329.84l-2.68 14.34 -5.94 -7.53 0.59 -16.83 0.06 -16.44 -0.48 -16.05 -1.02 -15.64 -1.55 -15.23 -2.1 -14.83 -2.65 -14.4 -3.22 -13.99 -3.77 -13.57 -4.34 -13.14 -4.9 -12.72 -5.49 -12.29 -6.06 -11.87 -6.65 -11.43 -7.25 -11 -7.83 -10.57 -8.46 -10.14 -9.07 -9.71 -9.7 -9.27 -10.33 -8.83 -10.99 -8.39 -11.64 -7.95 -12.3 -7.5 -12.97 -7.04 -13.66 -6.59 -14.36 -6.12 -15.05 -5.65 -15.75 -5.18 -16.48 -4.68 -17.19 -4.21 -17.93 -3.7 -18.65 -3.21 2.24 -14.42 19.13 3.29 18.41 3.82 17.71 4.33 17.02 4.84 16.33 5.36 15.63 5.87 14.96 6.38 14.28 6.89 13.61 7.38 12.94 7.88 12.26 8.39 11.61 8.87 10.95 9.35 10.28 9.83 9.65 10.31 8.98 10.78 8.33 11.23 7.69 11.68 7.05 12.13 6.42 12.55 5.79 12.99 5.18 13.4 4.56 13.82 3.95 14.23 3.36 14.61 2.77 15.02 2.18 15.41 1.61 15.79 1.04 16.16 0.5 16.53 -0.06 16.92 -0.61 17.27 -5.94 -7.53zm5.94 7.53c-0.19,4.02 -3.62,7.11 -7.64,6.92 -4.02,-0.19 -7.11,-3.62 -6.92,-7.64l14.56 0.72zm108.17 28.71l-116.79 -21.9 2.68 -14.34 116.79 21.9 -0.44 14.41 -2.24 -0.07zm2.68 -14.34c3.95,0.74 6.57,4.56 5.83,8.51 -0.74,3.95 -4.56,6.57 -8.51,5.83l2.68 -14.34zm-119.03 14.53l116.79 -14.6 1.8 14.48 -116.79 14.6 -7.76 -9.7 5.96 -4.78zm1.8 14.48c-3.99,0.49 -7.65,-2.35 -8.14,-6.34 -0.49,-3.99 2.35,-7.65 6.34,-8.14l1.8 14.48zm-263.79 220.43l-14.32 -2.82 5.44 -5.68 13.09 -3.34 12.76 -3.59 12.41 -3.84 12.09 -4.08 11.76 -4.32 11.43 -4.56 11.1 -4.8 10.79 -5.04 10.47 -5.27 10.15 -5.51 9.84 -5.73 9.52 -5.97 9.23 -6.19 8.9 -6.42 8.62 -6.65 8.31 -6.86 8.02 -7.09 7.72 -7.31 7.43 -7.53 7.14 -7.75 6.86 -7.97 6.58 -8.19 6.29 -8.4 6.01 -8.61 5.74 -8.84 5.47 -9.05 5.19 -9.26 4.93 -9.47 4.66 -9.68 4.39 -9.9 4.14 -10.1 3.87 -10.31 13.72 4.92 -4.01 10.71 -4.3 10.5 -4.57 10.3 -4.86 10.08 -5.13 9.89 -5.43 9.66 -5.71 9.45 -6 9.24 -6.29 9.01 -6.59 8.8 -6.88 8.57 -7.18 8.35 -7.48 8.11 -7.79 7.89 -8.08 7.65 -8.38 7.41 -8.69 7.18 -9 6.95 -9.3 6.7 -9.61 6.45 -9.92 6.21 -10.24 5.97 -10.53 5.71 -10.87 5.47 -11.17 5.22 -11.48 4.96 -11.81 4.72 -12.14 4.46 -12.45 4.2 -12.77 3.94 -13.1 3.69 -13.43 3.44 5.44 -5.68zm-5.44 5.68c-3.91,0.94 -7.87,-1.46 -8.81,-5.37 -0.94,-3.91 1.46,-7.87 5.37,-8.81l3.44 14.18zm-33.31 115.59l24.43 -124.09 14.32 2.82 -24.43 124.09 -14.29 0.12 -0.03 -2.94zm14.32 2.82c-0.77,3.95 -4.62,6.52 -8.57,5.75 -3.95,-0.77 -6.52,-4.62 -5.75,-8.57l14.32 2.82zm-26.69 -127.03l26.66 124.09 -14.26 3.06 -26.66 -124.09 8.54 -8.69 5.72 5.63zm-14.26 3.06c-0.84,-3.93 1.67,-7.82 5.6,-8.66 3.93,-0.84 7.82,1.67 8.66,5.6l-14.26 3.06zm-271.18 -235.16l1.92 -14.46 5.99 5.03 4.73 14.19 5.04 13.63 5.33 13.08 5.62 12.54 5.9 12.02 6.18 11.49 6.44 11.01 6.71 10.51 6.97 10.04 7.22 9.57 7.45 9.12 7.71 8.7 7.93 8.25 8.17 7.85 8.39 7.45 8.61 7.06 8.81 6.69 9.04 6.32 9.24 5.96 9.44 5.63 9.62 5.3 9.83 4.97 10.01 4.67 10.18 4.36 10.36 4.09 10.52 3.81 10.7 3.53 10.85 3.28 10.99 3.04 11.13 2.8 11.28 2.58 11.41 2.36 -2.82 14.32 -11.69 -2.42 -11.58 -2.66 -11.45 -2.88 -11.33 -3.12 -11.19 -3.4 -11.06 -3.65 -10.92 -3.95 -10.74 -4.23 -10.6 -4.54 -10.43 -4.87 -10.25 -5.19 -10.08 -5.54 -9.88 -5.89 -9.68 -6.26 -9.48 -6.64 -9.27 -7.01 -9.05 -7.42 -8.81 -7.83 -8.59 -8.25 -8.33 -8.69 -8.09 -9.12 -7.83 -9.58 -7.56 -10.03 -7.29 -10.5 -7.01 -10.99 -6.72 -11.47 -6.44 -11.97 -6.12 -12.48 -5.84 -13 -5.51 -13.54 -5.2 -14.07 -4.87 -14.63 5.99 5.03zm-5.99 -5.03c-1.21,-3.83 0.92,-7.94 4.75,-9.15 3.83,-1.21 7.94,0.92 9.15,4.75l-13.9 4.4zm-101.58 -24.03l109.49 14.6 -1.92 14.46 -109.49 -14.6 0.47 -14.51 1.45 0.05zm-1.92 14.46c-3.99,-0.53 -6.8,-4.2 -6.27,-8.19 0.53,-3.99 4.2,-6.8 8.19,-6.27l-1.92 14.46zm110.94 -7.25l-109.49 7.3 -0.98 -14.56 109.49 -7.3 7.78 7.2 -6.8 7.36zm-0.98 -14.56c4.02,-0.27 7.5,2.77 7.77,6.79 0.27,4.02 -2.77,7.5 -6.79,7.77l-0.98 -14.56zm277.9 -329.31l14.48 1.7 -6.3 6.38 -16.37 2.36 -15.93 2.8 -15.49 3.25 -15.04 3.7 -14.58 4.14 -14.1 4.62 -13.65 5.09 -13.16 5.55 -12.69 6.05 -12.19 6.53 -11.7 7.01 -11.21 7.52 -10.71 8.03 -10.2 8.53 -9.69 9.07 -9.18 9.6 -8.67 10.14 -8.15 10.69 -7.61 11.27 -7.09 11.83 -6.55 12.43 -6.01 13.01 -5.45 13.63 -4.9 14.25 -4.33 14.88 -3.75 15.51 -3.16 16.16 -2.58 16.81 -1.97 17.48 -1.35 18.15 -0.73 18.83 -0.11 19.51 -14.58 0.16 0.11 -19.99 0.75 -19.33 1.39 -18.69 2.03 -18.04 2.66 -17.39 3.28 -16.78 3.91 -16.15 4.53 -15.52 5.12 -14.93 5.73 -14.31 6.33 -13.71 6.91 -13.11 7.51 -12.53 8.07 -11.93 8.65 -11.35 9.19 -10.76 9.74 -10.18 10.29 -9.63 10.8 -9.05 11.33 -8.49 11.83 -7.94 12.32 -7.39 12.81 -6.85 13.29 -6.33 13.76 -5.81 14.21 -5.29 14.66 -4.8 15.1 -4.3 15.54 -3.82 15.97 -3.35 16.39 -2.88 16.79 -2.42 -6.3 6.38zm6.3 -6.38c3.99,-0.51 7.66,2.3 8.17,6.29 0.51,3.99 -2.3,7.66 -6.29,8.17l-1.88 -14.46z"/>
   </g>
   <g>
    <path class="fil0" d="M681.48 423.33l-12.68 0 0 0 -0.32 -12.06 -0.93 -11.91 -1.54 -11.72 -2.12 -11.54 -2.69 -11.33 -3.26 -11.12 -3.8 -10.89 -4.32 -10.64 -4.83 -10.39 -5.33 -10.11 -5.83 -9.81 -6.28 -9.52 -6.73 -9.19 -7.18 -8.87 -7.6 -8.51 -8.01 -8.14 -8.39 -7.78 -8.77 -7.37 -9.13 -6.97 -9.49 -6.54 -9.81 -6.11 -10.13 -5.65 -10.42 -5.19 -10.73 -4.7 -10.98 -4.2 -11.24 -3.69 -11.48 -3.17 -11.7 -2.62 -11.92 -2.06 -12.11 -1.5 -12.29 -0.91 -12.46 -0.3 0 -12.7 13.08 0.32 12.91 0.95 12.73 1.58 12.52 2.16 12.32 2.76 12.06 3.33 11.82 3.89 11.56 4.42 11.27 4.94 10.98 5.45 10.65 5.95 10.33 6.43 9.97 6.88 9.61 7.33 9.25 7.77 8.83 8.18 8.43 8.58 8 8.97 7.56 9.33 7.11 9.69 6.62 10.04 6.13 10.35 5.63 10.67 5.11 10.95 4.56 11.24 4 11.49 3.44 11.74 2.85 11.97 2.24 12.18 1.62 12.38 0.99 12.57 0.32 12.72 0 0zm0 0c0,3.5 -2.84,6.35 -6.34,6.35 -3.5,0 -6.34,-2.85 -6.34,-6.35l12.68 0zm-254.5 247.21l0 -12.7 0 0 12.46 -0.3 12.29 -0.91 12.11 -1.5 11.92 -2.06 11.7 -2.62 11.48 -3.17 11.24 -3.69 10.98 -4.2 10.73 -4.7 10.42 -5.19 10.13 -5.65 9.81 -6.11 9.49 -6.54 9.13 -6.97 8.77 -7.37 8.39 -7.78 8.01 -8.14 7.6 -8.51 7.18 -8.87 6.73 -9.19 6.28 -9.52 5.83 -9.81 5.33 -10.11 4.83 -10.39 4.32 -10.64 3.8 -10.89 3.26 -11.12 2.69 -11.33 2.12 -11.54 1.54 -11.72 0.93 -11.91 0.32 -12.06 12.68 0 -0.32 12.72 -0.99 12.57 -1.62 12.38 -2.24 12.18 -2.85 11.97 -3.44 11.74 -4 11.49 -4.56 11.24 -5.11 10.95 -5.63 10.67 -6.13 10.35 -6.62 10.04 -7.11 9.69 -7.56 9.33 -8 8.97 -8.43 8.58 -8.83 8.18 -9.25 7.77 -9.61 7.33 -9.97 6.88 -10.33 6.43 -10.65 5.95 -10.98 5.45 -11.27 4.94 -11.56 4.42 -11.82 3.89 -12.06 3.33 -12.32 2.76 -12.52 2.16 -12.73 1.58 -12.91 0.95 -13.08 0.32 0 0zm0 0c-3.5,0 -6.34,-2.85 -6.34,-6.35 0,-3.5 2.84,-6.35 6.34,-6.35l0 12.7zm-254.5 -247.21l12.68 0 0 0 0.32 12.06 0.93 11.91 1.54 11.72 2.12 11.54 2.69 11.33 3.26 11.12 3.8 10.89 4.32 10.64 4.83 10.39 5.33 10.11 5.83 9.81 6.28 9.52 6.73 9.19 7.18 8.87 7.6 8.51 8.01 8.14 8.39 7.78 8.77 7.37 9.13 6.97 9.49 6.54 9.81 6.11 10.13 5.65 10.42 5.19 10.73 4.7 10.98 4.2 11.24 3.69 11.48 3.17 11.7 2.62 11.92 2.06 12.11 1.5 12.29 0.91 12.46 0.3 0 12.7 -13.08 -0.32 -12.91 -0.95 -12.73 -1.58 -12.52 -2.16 -12.32 -2.76 -12.06 -3.33 -11.82 -3.89 -11.56 -4.42 -11.27 -4.94 -10.98 -5.45 -10.65 -5.95 -10.33 -6.43 -9.97 -6.88 -9.61 -7.33 -9.25 -7.77 -8.83 -8.18 -8.43 -8.58 -8 -8.97 -7.56 -9.33 -7.11 -9.69 -6.62 -10.04 -6.13 -10.35 -5.63 -10.67 -5.11 -10.95 -4.56 -11.24 -4 -11.49 -3.44 -11.74 -2.85 -11.97 -2.24 -12.18 -1.62 -12.38 -0.99 -12.57 -0.32 -12.72 0 0zm0 0c0,-3.5 2.84,-6.35 6.34,-6.35 3.5,0 6.34,2.85 6.34,6.35l-12.68 0zm254.5 -247.21l0 12.7 0 0 -12.46 0.3 -12.29 0.91 -12.11 1.5 -11.92 2.06 -11.7 2.62 -11.48 3.17 -11.24 3.69 -10.98 4.2 -10.73 4.7 -10.42 5.19 -10.13 5.65 -9.81 6.11 -9.49 6.54 -9.13 6.97 -8.77 7.37 -8.39 7.78 -8.01 8.14 -7.6 8.51 -7.18 8.87 -6.73 9.19 -6.28 9.52 -5.83 9.81 -5.33 10.11 -4.83 10.39 -4.32 10.64 -3.8 10.89 -3.26 11.12 -2.69 11.33 -2.12 11.54 -1.54 11.72 -0.93 11.91 -0.32 12.06 -12.68 0 0.32 -12.72 0.99 -12.57 1.62 -12.38 2.24 -12.18 2.85 -11.97 3.44 -11.74 4 -11.49 4.56 -11.24 5.11 -10.95 5.63 -10.67 6.13 -10.35 6.62 -10.04 7.11 -9.69 7.56 -9.33 8 -8.97 8.43 -8.58 8.83 -8.18 9.25 -7.77 9.61 -7.33 9.97 -6.88 10.33 -6.43 10.65 -5.95 10.98 -5.45 11.27 -4.94 11.56 -4.42 11.82 -3.89 12.06 -3.33 12.32 -2.76 12.52 -2.16 12.73 -1.58 12.91 -0.95 13.08 -0.32 0 0zm0 0c3.5,0 6.34,2.85 6.34,6.35 0,3.5 -2.84,6.35 -6.34,6.35l0 -12.7z"/>
   </g>
   <g>
    <path class="fil0" d="M679.37 423.33l-8.46 0 0 0 -0.32 -12.17 -0.94 -12.02 -1.55 -11.83 -2.14 -11.65 -2.72 -11.43 -3.29 -11.23 -3.83 -10.99 -4.36 -10.74 -4.88 -10.48 -5.38 -10.2 -5.88 -9.9 -6.33 -9.61 -6.8 -9.27 -7.24 -8.95 -7.67 -8.58 -8.08 -8.22 -8.46 -7.84 -8.86 -7.44 -9.21 -7.03 -9.56 -6.6 -9.9 -6.16 -10.21 -5.7 -10.52 -5.23 -10.81 -4.74 -11.09 -4.24 -11.33 -3.73 -11.58 -3.19 -11.8 -2.65 -12.02 -2.07 -12.22 -1.51 -12.39 -0.92 -12.56 -0.3 0 -8.48 12.98 0.32 12.81 0.94 12.62 1.57 12.42 2.15 12.22 2.73 11.96 3.31 11.73 3.85 11.45 4.38 11.19 4.9 10.88 5.41 10.57 5.9 10.24 6.38 9.9 6.82 9.53 7.27 9.16 7.7 8.76 8.12 8.36 8.5 7.93 8.9 7.5 9.25 7.04 9.61 6.57 9.95 6.08 10.26 5.58 10.58 5.06 10.86 4.52 11.14 3.97 11.39 3.41 11.63 2.82 11.87 2.22 12.07 1.61 12.27 0.98 12.46 0.32 12.61 0 0zm0 0c0,2.34 -1.9,4.24 -4.23,4.24 -2.33,0 -4.23,-1.9 -4.23,-4.24l8.46 0zm-252.39 245.1l0 -8.48 0 0 12.56 -0.3 12.39 -0.92 12.22 -1.51 12.02 -2.07 11.8 -2.65 11.58 -3.19 11.33 -3.73 11.09 -4.24 10.81 -4.74 10.52 -5.23 10.21 -5.7 9.9 -6.16 9.56 -6.6 9.21 -7.03 8.86 -7.44 8.46 -7.84 8.08 -8.22 7.67 -8.58 7.24 -8.95 6.8 -9.27 6.33 -9.61 5.88 -9.9 5.38 -10.2 4.88 -10.48 4.36 -10.74 3.83 -10.99 3.29 -11.23 2.72 -11.43 2.14 -11.65 1.55 -11.83 0.94 -12.02 0.32 -12.17 8.46 0 -0.32 12.61 -0.98 12.46 -1.61 12.27 -2.22 12.07 -2.82 11.87 -3.41 11.63 -3.97 11.39 -4.52 11.14 -5.06 10.86 -5.58 10.58 -6.08 10.26 -6.57 9.95 -7.04 9.61 -7.5 9.25 -7.93 8.9 -8.36 8.5 -8.76 8.12 -9.16 7.7 -9.53 7.27 -9.9 6.82 -10.24 6.38 -10.57 5.9 -10.88 5.41 -11.19 4.9 -11.45 4.38 -11.73 3.85 -11.96 3.31 -12.22 2.73 -12.42 2.15 -12.62 1.57 -12.81 0.94 -12.98 0.32 0 0zm0 0c-2.33,0 -4.23,-1.9 -4.23,-4.24 0,-2.34 1.9,-4.24 4.23,-4.24l0 8.48zm-252.39 -245.1l8.46 0 0 0 0.32 12.17 0.94 12.02 1.55 11.83 2.14 11.65 2.72 11.43 3.29 11.23 3.83 10.99 4.36 10.74 4.88 10.48 5.38 10.2 5.88 9.9 6.33 9.61 6.8 9.27 7.24 8.95 7.67 8.58 8.08 8.22 8.46 7.84 8.86 7.44 9.21 7.03 9.56 6.6 9.9 6.16 10.21 5.7 10.52 5.23 10.81 4.74 11.09 4.24 11.33 3.73 11.58 3.19 11.8 2.65 12.02 2.07 12.22 1.51 12.39 0.92 12.56 0.3 0 8.48 -12.98 -0.32 -12.81 -0.94 -12.62 -1.57 -12.42 -2.15 -12.22 -2.73 -11.96 -3.31 -11.73 -3.85 -11.45 -4.38 -11.19 -4.9 -10.88 -5.41 -10.57 -5.9 -10.24 -6.38 -9.9 -6.82 -9.53 -7.27 -9.16 -7.7 -8.76 -8.12 -8.36 -8.5 -7.93 -8.9 -7.5 -9.25 -7.04 -9.61 -6.57 -9.95 -6.08 -10.26 -5.58 -10.58 -5.06 -10.86 -4.52 -11.14 -3.97 -11.39 -3.41 -11.63 -2.82 -11.87 -2.22 -12.07 -1.61 -12.27 -0.98 -12.46 -0.32 -12.61 0 0zm0 0c0,-2.34 1.9,-4.24 4.23,-4.24 2.33,0 4.23,1.9 4.23,4.24l-8.46 0zm252.39 -245.1l0 8.48 0 0 -12.56 0.3 -12.39 0.92 -12.22 1.51 -12.02 2.07 -11.8 2.65 -11.58 3.19 -11.33 3.73 -11.09 4.24 -10.81 4.74 -10.52 5.23 -10.21 5.7 -9.9 6.16 -9.56 6.6 -9.21 7.03 -8.86 7.44 -8.46 7.84 -8.08 8.22 -7.67 8.58 -7.24 8.95 -6.8 9.27 -6.33 9.61 -5.88 9.9 -5.38 10.2 -4.88 10.48 -4.36 10.74 -3.83 10.99 -3.29 11.23 -2.72 11.43 -2.14 11.65 -1.55 11.83 -0.94 12.02 -0.32 12.17 -8.46 0 0.32 -12.61 0.98 -12.46 1.61 -12.27 2.22 -12.07 2.82 -11.87 3.41 -11.63 3.97 -11.39 4.52 -11.14 5.06 -10.86 5.58 -10.58 6.08 -10.26 6.57 -9.95 7.04 -9.61 7.5 -9.25 7.93 -8.9 8.36 -8.5 8.76 -8.12 9.16 -7.7 9.53 -7.27 9.9 -6.82 10.24 -6.38 10.57 -5.9 10.88 -5.41 11.19 -4.9 11.45 -4.38 11.73 -3.85 11.96 -3.31 12.22 -2.73 12.42 -2.15 12.62 -1.57 12.81 -0.94 12.98 -0.32 0 0zm0 0c2.33,0 4.23,1.9 4.23,4.24 0,2.34 -1.9,4.24 -4.23,4.24l0 -8.48z"/>
   </g>
   <g>
    <path class="fil0" d="M613.46 441.63l-1.34 8.36 -3.53 -3.62 -1.12 -7.28 -1.42 -7.17 -1.71 -7.07 -1.98 -6.97 -2.26 -6.85 -2.53 -6.73 -2.78 -6.61 -3.04 -6.47 -3.29 -6.33 -3.54 -6.2 -3.77 -6.05 -4.01 -5.88 -4.23 -5.73 -4.45 -5.56 -4.66 -5.38 -4.87 -5.21 -5.06 -5.02 -5.27 -4.82 -5.46 -4.64 -5.63 -4.43 -5.82 -4.22 -5.98 -4 -6.15 -3.79 -6.31 -3.55 -6.46 -3.33 -6.6 -3.08 -6.75 -2.84 -6.88 -2.59 -7 -2.33 -7.13 -2.07 -7.24 -1.8 -7.36 -1.53 1.56 -8.32 7.68 1.59 7.56 1.88 7.45 2.15 7.32 2.45 7.18 2.69 7.05 2.98 6.9 3.22 6.74 3.47 6.59 3.71 6.43 3.95 6.24 4.18 6.08 4.42 5.89 4.63 5.7 4.84 5.51 5.04 5.3 5.26 5.09 5.45 4.88 5.62 4.65 5.82 4.43 5.99 4.19 6.16 3.95 6.33 3.7 6.48 3.45 6.63 3.18 6.79 2.92 6.91 2.65 7.05 2.36 7.19 2.08 7.29 1.79 7.41 1.48 7.53 1.18 7.62 -3.53 -3.62zm3.53 3.62c0.3,2.31 -1.33,4.46 -3.64,4.76 -2.31,0.3 -4.46,-1.33 -4.76,-3.64l8.4 -1.12zm210.74 39.52l-215.61 -34.78 1.34 -8.36 215.61 34.78 -0.13 8.38 -1.21 -0.02zm1.34 -8.36c2.3,0.37 3.88,2.55 3.51,4.85 -0.37,2.3 -2.55,3.88 -4.85,3.51l1.34 -8.36zm-219.34 28.12l218.13 -28.14 1.08 8.4 -218.13 28.14 -4.68 -5.1 3.6 -3.3zm1.08 8.4c-2.31,0.29 -4.45,-1.35 -4.74,-3.66 -0.29,-2.31 1.35,-4.45 3.66,-4.74l1.08 8.4zm-188.88 148.21l0 -8.48 0 0 8.46 -0.17 8.36 -0.54 8.26 -0.89 8.14 -1.24 8.02 -1.55 7.9 -1.89 7.77 -2.21 7.61 -2.51 7.47 -2.82 7.31 -3.12 7.14 -3.41 6.97 -3.68 6.79 -3.96 6.59 -4.22 6.41 -4.48 6.19 -4.73 5.98 -4.97 5.76 -5.21 5.54 -5.44 5.29 -5.65 5.05 -5.87 4.8 -6.06 4.54 -6.26 4.27 -6.46 3.99 -6.63 3.71 -6.8 3.42 -6.98 3.12 -7.13 2.82 -7.28 2.5 -7.42 2.17 -7.56 1.85 -7.69 8.28 1.8 -1.93 8.05 -2.29 7.92 -2.62 7.78 -2.94 7.62 -3.28 7.47 -3.58 7.3 -3.87 7.14 -4.19 6.93 -4.47 6.76 -4.74 6.56 -5.02 6.34 -5.29 6.13 -5.53 5.91 -5.78 5.68 -6.02 5.45 -6.26 5.19 -6.47 4.95 -6.69 4.68 -6.89 4.42 -7.09 4.12 -7.29 3.86 -7.46 3.55 -7.63 3.26 -7.81 2.94 -7.95 2.63 -8.11 2.31 -8.24 1.97 -8.38 1.63 -8.5 1.28 -8.62 0.93 -8.72 0.56 -8.82 0.19 0 0zm0 0c-2.34,0 -4.24,-1.9 -4.24,-4.24 0,-2.34 1.9,-4.24 4.24,-4.24l0 8.48zm-191.22 -161.38l1.08 -8.4 3.66 3.61 1.36 8.28 1.74 8.16 2.12 8.01 2.47 7.88 2.82 7.71 3.17 7.55 3.5 7.38 3.82 7.2 4.14 7.01 4.45 6.82 4.74 6.61 5.02 6.39 5.31 6.15 5.58 5.94 5.84 5.68 6.09 5.44 6.34 5.18 6.57 4.9 6.79 4.63 7.01 4.34 7.21 4.04 7.42 3.74 7.6 3.43 7.77 3.1 7.95 2.77 8.12 2.43 8.25 2.08 8.41 1.72 8.54 1.35 8.66 0.98 8.78 0.6 8.89 0.19 0 8.48 -9.27 -0.21 -9.16 -0.62 -9.04 -1.02 -8.92 -1.41 -8.77 -1.8 -8.63 -2.18 -8.46 -2.53 -8.31 -2.89 -8.13 -3.24 -7.94 -3.59 -7.74 -3.9 -7.53 -4.22 -7.33 -4.54 -7.09 -4.83 -6.87 -5.12 -6.62 -5.42 -6.37 -5.68 -6.1 -5.94 -5.84 -6.2 -5.55 -6.45 -5.26 -6.69 -4.96 -6.91 -4.65 -7.12 -4.34 -7.35 -4 -7.54 -3.66 -7.72 -3.31 -7.91 -2.96 -8.09 -2.59 -8.24 -2.22 -8.41 -1.82 -8.54 -1.44 -8.68 3.66 3.61zm-3.66 -3.61c-0.32,-2.31 1.3,-4.47 3.61,-4.79 2.31,-0.32 4.47,1.3 4.79,3.61l-8.4 1.18zm-215.57 -33.22l220.31 28.43 -1.08 8.4 -220.31 -28.43 -0.13 -8.38 1.21 -0.02zm-1.08 8.4c-2.31,-0.29 -3.95,-2.43 -3.66,-4.74 0.29,-2.31 2.43,-3.95 4.74,-3.66l-1.08 8.4zm223.93 -35.94l-222.72 35.92 -1.34 -8.36 222.72 -35.92 4.81 5.08 -3.47 3.28zm-1.34 -8.36c2.3,-0.37 4.48,1.21 4.85,3.51 0.37,2.3 -1.21,4.48 -3.51,4.85l-1.34 -8.36zm157.63 -142.29l8.44 0.74 -3.65 3.83 -7.31 1.14 -7.21 1.41 -7.11 1.67 -7.01 1.94 -6.88 2.18 -6.77 2.44 -6.65 2.68 -6.51 2.91 -6.38 3.14 -6.24 3.38 -6.08 3.59 -5.94 3.8 -5.77 4.01 -5.6 4.23 -5.44 4.41 -5.26 4.61 -5.07 4.79 -4.89 4.97 -4.7 5.15 -4.49 5.33 -4.29 5.47 -4.08 5.65 -3.87 5.79 -3.63 5.94 -3.41 6.08 -3.18 6.22 -2.94 6.35 -2.7 6.48 -2.44 6.59 -2.19 6.71 -1.91 6.82 -1.66 6.92 -8.28 -1.8 1.74 -7.26 2.01 -7.14 2.29 -7.03 2.56 -6.91 2.82 -6.78 3.08 -6.65 3.32 -6.52 3.57 -6.36 3.81 -6.22 4.05 -6.07 4.26 -5.91 4.49 -5.73 4.71 -5.55 4.9 -5.39 5.11 -5.21 5.31 -5.01 5.5 -4.81 5.68 -4.61 5.86 -4.41 6.03 -4.19 6.2 -3.98 6.36 -3.75 6.52 -3.52 6.66 -3.28 6.79 -3.05 6.95 -2.8 7.07 -2.54 7.2 -2.28 7.31 -2.02 7.43 -1.75 7.53 -1.47 7.63 -1.2 -3.65 3.83zm3.65 -3.83c2.31,-0.31 4.46,1.32 4.77,3.63 0.31,2.31 -1.32,4.46 -3.63,4.77l-1.14 -8.4zm29.62 -280.54l-24.83 285.11 -8.44 -0.74 24.83 -285.11 8.42 -0.2 0.02 0.94zm-8.44 -0.74c0.2,-2.33 2.26,-4.05 4.59,-3.85 2.33,0.2 4.05,2.26 3.85,4.59l-8.44 -0.74zm38.96 287.62l-38.94 -286.68 8.4 -1.14 38.94 286.68 -4.98 4.73 -3.42 -3.59zm8.4 -1.14c0.31,2.31 -1.32,4.46 -3.63,4.77 -2.31,0.31 -4.46,-1.32 -4.77,-3.63l8.4 -1.14z"/>
    <path id="_1" class="fil1" d="M458.61 286.68c80.74,15.11 143.5,79.18 154.18,159.13l215.61 34.78 -218.13 28.14c-18.35,84.63 -95.69,148.17 -188.34,148.17 -97.39,0 -177.87,-70.21 -190.68,-161.34l-220.31 -28.43 222.72 -35.92c16.6,-76.15 80.98,-135.15 161.18,-146.1l24.83 -285.11 38.94 286.68z"/>
   </g>
   <g>
    <path class="fil0" d="M587.14 470.99l-8.46 0 0 0 -0.21 -7.87 -0.61 -7.76 -1 -7.64 -1.38 -7.53 -1.76 -7.38 -2.12 -7.26 -2.47 -7.1 -2.82 -6.94 -3.16 -6.77 -3.47 -6.58 -3.8 -6.4 -4.09 -6.21 -4.4 -6 -4.67 -5.78 -4.96 -5.54 -5.22 -5.32 -5.47 -5.06 -5.72 -4.81 -5.95 -4.54 -6.19 -4.27 -6.4 -3.98 -6.6 -3.68 -6.8 -3.38 -6.99 -3.07 -7.17 -2.75 -7.32 -2.41 -7.48 -2.05 -7.63 -1.72 -7.78 -1.34 -7.9 -0.98 -8.01 -0.59 -8.12 -0.2 0 -8.46 8.54 0.2 8.43 0.63 8.3 1.02 8.18 1.42 8.03 1.8 7.88 2.17 7.72 2.53 7.55 2.89 7.35 3.23 7.16 3.56 6.96 3.88 6.74 4.2 6.51 4.49 6.27 4.78 6.04 5.07 5.77 5.34 5.5 5.6 5.22 5.86 4.93 6.1 4.64 6.32 4.33 6.55 4 6.76 3.67 6.96 3.34 7.15 2.98 7.34 2.61 7.5 2.24 7.66 1.86 7.82 1.46 7.95 1.06 8.08 0.65 8.2 0.21 8.31 0 0zm0 0c0,2.33 -1.9,4.23 -4.23,4.23 -2.33,0 -4.23,-1.9 -4.23,-4.23l8.46 0zm-166.13 161.37l0 -8.46 0 0 8.12 -0.2 8.01 -0.59 7.9 -0.98 7.78 -1.34 7.63 -1.72 7.48 -2.05 7.32 -2.41 7.17 -2.75 6.99 -3.07 6.8 -3.38 6.6 -3.68 6.4 -3.98 6.19 -4.27 5.95 -4.54 5.72 -4.81 5.47 -5.06 5.22 -5.32 4.96 -5.54 4.67 -5.78 4.4 -6 4.09 -6.21 3.8 -6.4 3.47 -6.58 3.16 -6.77 2.82 -6.94 2.47 -7.1 2.12 -7.26 1.76 -7.38 1.38 -7.53 1 -7.64 0.61 -7.76 0.21 -7.87 8.46 0 -0.21 8.31 -0.65 8.2 -1.06 8.08 -1.46 7.95 -1.86 7.82 -2.24 7.66 -2.61 7.5 -2.98 7.34 -3.34 7.15 -3.67 6.96 -4 6.76 -4.33 6.55 -4.64 6.32 -4.93 6.1 -5.22 5.86 -5.5 5.6 -5.77 5.34 -6.04 5.07 -6.27 4.78 -6.51 4.49 -6.74 4.2 -6.96 3.88 -7.16 3.56 -7.35 3.23 -7.55 2.89 -7.72 2.53 -7.88 2.17 -8.03 1.8 -8.18 1.42 -8.3 1.02 -8.43 0.63 -8.54 0.2 0 0zm0 0c-2.33,0 -4.23,-1.9 -4.23,-4.23 0,-2.33 1.9,-4.23 4.23,-4.23l0 8.46zm-166.14 -161.37l8.46 0 0 0 0.21 7.87 0.61 7.76 1 7.64 1.38 7.53 1.76 7.38 2.12 7.26 2.47 7.1 2.82 6.94 3.16 6.77 3.47 6.58 3.8 6.4 4.09 6.21 4.4 6 4.67 5.78 4.96 5.54 5.22 5.32 5.48 5.06 5.71 4.81 5.96 4.54 6.18 4.27 6.4 3.98 6.6 3.68 6.81 3.38 6.99 3.07 7.16 2.75 7.32 2.41 7.49 2.05 7.63 1.72 7.77 1.34 7.9 0.98 8.02 0.59 8.12 0.2 0 8.46 -8.54 -0.2 -8.42 -0.63 -8.32 -1.02 -8.17 -1.42 -8.03 -1.8 -7.89 -2.17 -7.72 -2.53 -7.54 -2.89 -7.35 -3.23 -7.17 -3.56 -6.96 -3.88 -6.74 -4.2 -6.5 -4.49 -6.28 -4.78 -6.03 -5.07 -5.78 -5.34 -5.5 -5.6 -5.22 -5.86 -4.93 -6.1 -4.64 -6.32 -4.33 -6.55 -4 -6.76 -3.67 -6.96 -3.34 -7.15 -2.98 -7.34 -2.61 -7.5 -2.24 -7.66 -1.86 -7.82 -1.46 -7.95 -1.06 -8.08 -0.65 -8.2 -0.21 -8.31 0 0zm0 0c0,-2.33 1.9,-4.23 4.23,-4.23 2.33,0 4.23,1.9 4.23,4.23l-8.46 0zm166.14 -161.37l0 8.46 0 0 -8.12 0.2 -8.02 0.59 -7.9 0.98 -7.77 1.34 -7.63 1.72 -7.49 2.05 -7.32 2.41 -7.16 2.75 -6.99 3.07 -6.81 3.38 -6.6 3.68 -6.4 3.98 -6.18 4.27 -5.96 4.54 -5.71 4.81 -5.48 5.06 -5.22 5.32 -4.96 5.54 -4.67 5.78 -4.4 6 -4.09 6.21 -3.8 6.4 -3.47 6.58 -3.16 6.77 -2.82 6.94 -2.47 7.1 -2.12 7.26 -1.76 7.38 -1.38 7.53 -1 7.64 -0.61 7.76 -0.21 7.87 -8.46 0 0.21 -8.31 0.65 -8.2 1.06 -8.08 1.46 -7.95 1.86 -7.82 2.24 -7.66 2.61 -7.5 2.98 -7.34 3.34 -7.15 3.67 -6.96 4 -6.76 4.33 -6.55 4.64 -6.32 4.93 -6.1 5.22 -5.86 5.5 -5.6 5.78 -5.34 6.03 -5.07 6.28 -4.78 6.5 -4.49 6.74 -4.2 6.96 -3.88 7.17 -3.56 7.35 -3.23 7.54 -2.89 7.72 -2.53 7.89 -2.17 8.03 -1.8 8.17 -1.42 8.32 -1.02 8.42 -0.63 8.54 -0.2 0 0zm0 0c2.33,0 4.23,1.9 4.23,4.23 0,2.33 -1.9,4.23 -4.23,4.23l0 -8.46z"/>
   </g>
   <polygon class="fil1" points="339.4,627.7 426.99,642.29 507.48,627.7 507.48,663.37 423.43,707.98 339.4,663.37 "/>
  </g>
 </g>
</svg>
