<?xml version="1.0" encoding="UTF-8"?>
<!DOCTYPE svg PUBLIC "-//W3C//DTD SVG 1.1//EN" "http://www.w3.org/Graphics/SVG/1.1/DTD/svg11.dtd">
<!-- Creator: CorelDRAW -->
<svg xmlns="http://www.w3.org/2000/svg" xml:space="preserve" width="16.9332mm" height="16.9332mm" style="shape-rendering:geometricPrecision; text-rendering:geometricPrecision; image-rendering:optimizeQuality; fill-rule:evenodd; clip-rule:evenodd"
viewBox="0 0 16.9332 16.9332"
 xmlns:xlink="http://www.w3.org/1999/xlink">
 <defs>
  <style type="text/css">
   <![CDATA[
    .fil0 {fill:black}
   ]]>
  </style>
 </defs>
 <g id="Capa_x0020_1">
  <metadata id="CorelCorpID_0Corel-Layer"/>
  <g id="_584693288">
   <path id="_584690000" class="fil0" d="M13.269 9.7597c0.0029,-0.0029 0.0087,0.0046 0.0087,0.0088 0,0.0016 0.0038,0.0037 0.0036,0.0035 -0.0007,-0.0006 -0.0529,0.0283 -0.0123,-0.0123zm-2.2058 2.5382l-0.5741 0c0,-0.2535 0.0364,-2.0499 -0.0551,-2.2112l-0.3601 -0.4099c-0.1365,0.1351 -0.0682,0.4922 -0.0682,0.6872l0 5.2878c0,0.3826 0.1093,1.0987 -0.4537,1.0594 -0.4435,-0.031 -0.3319,-0.723 -0.3319,-1.1802l-0.0303 -2.9936 -0.4636 0.022c-0.0618,0.1852 -0.0198,2.594 -0.0198,3.0018 0,0.4042 0.1261,1.064 -0.355,1.156 -0.1647,0.0315 -0.365,-0.0935 -0.4198,-0.2906 -0.0435,-0.1561 0.0179,-6.3494 -0.0101,-6.4863l-0.119 -0.2738c-0.4967,0.3506 -0.3652,0.9159 -0.3652,1.5134 0,0.3842 0.079,1.1509 -0.1305,1.2897 -0.0992,0.0657 -0.2537,0.0719 -0.3467,0.0034 -0.2132,-0.157 -0.1271,-0.564 -0.1271,-0.8097 0,-1.0884 -0.1464,-1.7247 0.492,-2.3784 0.4346,-0.445 0.8612,-0.4317 1.472,-0.4317 0.6017,0 1.1353,-0.0791 1.6201,0.2835 0.4022,0.3008 0.6479,0.7294 0.6461,1.2575 -0.0021,0.6344 0,1.2692 0,1.9037zm-3.082 -4.6913c-0.0405,-0.2149 0.0836,-0.5754 0.2337,-0.7254 0.7776,-0.7772 1.6604,-0.1064 1.7006,0.491 0.0182,0.2703 -0.0268,0.5558 -0.2192,0.7487 -0.7179,0.7196 -1.5771,0.2178 -1.7151,-0.5143zm4.895 -1.8052c0.4962,0.3283 0.3928,1.1072 0.3928,1.6619l-0.0302 2.0547c0,-0.3445 -0.236,-2.2531 -0.2718,-2.78 -0.0204,-0.2995 -0.0908,-0.5233 -0.0908,-0.9366zm0 0l-0.0301 -0.0102 0.0223 -0.0174 0.0078 0.0276zm-8.71 -0.6621c0.0404,0.3686 0.0078,9.9171 0.0078,10.2708 0,0.373 -0.0738,0.8233 0.1452,1.1238 0.5768,0.7912 1.4236,0.2392 1.5116,-0.2828 0.034,-0.2013 -0.0042,-4.4201 0.005,-5.1619l0.0303 -1.2086 0.4834 0c0,1.4604 0,2.9209 0,4.3813 0,0.4631 -0.0639,1.7684 0.0629,2.1127 0.1555,0.4221 0.7265,0.6756 1.0439,0.5048l0.3436 -0.2356c0.0751,0.062 0.0743,0.0893 0.1725,0.165 0.2451,0.1889 0.5526,0.1405 0.7564,-0.077 0.2429,-0.2591 0.156,-0.6951 0.1589,-1.2311l0.0302 -2.7798 0.0906 0c0,0.337 -0.0231,3.5429 0.0051,3.7115 0.0247,0.1479 0.1299,0.2967 0.2541,0.3804 0.2089,0.1409 0.2635,0.1087 0.5062,0.0918 0.1967,-0.0137 0.504,0.1451 0.8585,-0.3239 0.2258,-0.2986 0.1589,-0.7095 0.1589,-1.08l0 -2.5079 0.4834 0c0,0.7856 0,1.5713 0,2.3569 0,0.324 -0.0684,0.8358 0.0696,1.1089 0.3099,0.6134 1.1155,0.6276 1.428,-0.0042 0.1366,-0.2759 0.0737,-0.7716 0.0737,-1.1047l0.0052 -2.3563 0.7752 -0.0058c-0.0584,-0.3512 -0.1279,-1.1253 -0.1739,-1.538 -0.047,-0.4228 -0.1216,-1.1545 -0.1455,-1.5967 0.1475,0.2 0.1546,0.311 0.4443,0.3915 0.2246,0.0623 0.4539,-0.0029 0.6195,-0.1685 0.2879,-0.2879 0.1975,-0.9454 0.1975,-1.4946 0,-0.564 0,-1.1281 0,-1.6921 0,-0.5705 -0.0768,-0.9046 -0.3122,-1.3799 -0.3612,-0.7294 -1.1991,-1.31 -1.9867,-1.3975 -0.3474,-0.0386 -2.0876,-0.0663 -2.4746,-0.0019l-0.6891 0.1729c-0.9666,-0.9877 -1.6857,-0.9289 -2.9375,-0.9289 -0.3883,0 -0.9178,-0.0448 -1.2812,0.0194 -0.4812,0.085 -0.5259,0.0694 -0.9951,0.3029 -0.8581,0.4271 -1.5195,1.3954 -1.532,2.3659 -0.011,0.863 0.0011,1.7355 0.0011,2.5996 0,0.4604 -0.0822,0.7507 0.2337,1.0656 0.2509,0.25 0.6874,0.2368 0.9385,-0.0143 0.2661,-0.2661 0.2177,-0.7003 0.2177,-1.0815l-0.0002 -2.5989c-0.0018,-0.3238 0.148,-0.6815 0.4155,-0.8733z"/>
   <path id="_584693048" class="fil0" d="M5.8609 0.0327c-0.1403,0.0337 -0.3039,0.0127 -0.5633,0.1844 -0.4473,0.2961 -0.6929,0.6697 -0.7318,1.2034 -0.1022,1.403 1.486,2.1697 2.547,1.2766 0.2074,-0.1745 0.0511,-0.0437 0.1963,-0.1966 0.2655,-0.2798 0.3986,-0.805 0.3284,-1.19 -0.1346,-0.7384 -0.7111,-1.2303 -1.3356,-1.3106l-0.3585 0c-0.1041,0.0141 -0.061,0.0277 -0.0825,0.0328z"/>
   <path id="_584693072" class="fil0" d="M10.8163 0.9392c-0.1059,0.0254 -0.1572,0.0024 -0.2975,0.0573 -0.085,0.0333 -0.1675,0.0634 -0.2478,0.1148 -1.094,0.7005 -0.874,2.243 0.305,2.6393 1.0178,0.342 2.0266,-0.5094 1.9057,-1.6036 -0.0402,-0.3639 -0.2729,-0.6781 -0.5341,-0.9163 -0.1213,-0.1107 -0.3173,-0.2011 -0.4722,-0.253 -0.0773,-0.0258 -0.2118,-0.0603 -0.2932,-0.0694 -0.2073,-0.0231 -0.2538,0.0041 -0.3659,0.0309z"/>
  </g>
 </g>
</svg>
