<?xml version="1.0" encoding="UTF-8"?>
<svg version="1.1" viewBox="0 0 24 24" xmlns="http://www.w3.org/2000/svg" xmlns:xlink="http://www.w3.org/1999/xlink">
    <!--Generated by IJSVG (https://github.com/iconjar/IJSVG)-->
    <path d="M19.453,13.2942l-1.935,-1.2944l1.935,-1.2943m-6.6795,8.0754v-3.6076l3.3533,-2.2427l2.7069,1.8104m-6.8336,-0.9113l-2.73576,-1.8299l2.73576,-1.8298l2.7355,1.8298m-3.5091,6.7811l-6.06029,-4.0399l2.70716,-1.8104l3.35313,2.2427m-6.67951,-4.4678l1.93516,1.2943l-1.93516,1.2944m6.67951,-8.07546v3.60763l-3.35313,2.24313l-2.70716,-1.8109m7.60729,-4.03986l6.0602,4.03986l-2.7069,1.8109l-3.3533,-2.24313m8.2196,0.33046c-0.0017,-0.01136 -0.0045,-0.02222 -0.0064,-0.03358c-0.0038,-0.02184 -0.0078,-0.04363 -0.0135,-0.06491c-0.0033,-0.01278 -0.0081,-0.02507 -0.012,-0.03736c-0.0062,-0.01899 -0.0124,-0.03792 -0.02,-0.05635c-0.0052,-0.01278 -0.0113,-0.02557 -0.0172,-0.03785c-0.0081,-0.01757 -0.0166,-0.03463 -0.0263,-0.05114c-0.0071,-0.01235 -0.0147,-0.0242 -0.022,-0.03599c-0.0104,-0.01614 -0.0211,-0.03178 -0.0328,-0.04692c-0.0084,-0.01136 -0.0174,-0.02271 -0.0264,-0.03364c-0.0123,-0.01415 -0.0251,-0.02836 -0.0386,-0.04164c-0.0101,-0.01036 -0.0202,-0.02079 -0.0308,-0.03028c-0.0142,-0.01278 -0.0288,-0.02513 -0.0438,-0.03693c-0.0115,-0.00899 -0.023,-0.01799 -0.035,-0.0265c-0.0045,-0.00285 -0.0085,-0.00664 -0.0128,-0.00949l-8.2265,-5.48432c-0.2598,-0.17326 -0.5982,-0.17326 -0.8581,0l-8.22647,5.48432c-0.00428,0.00285 -0.00831,0.00664 -0.01278,0.00949c-0.0121,0.00851 -0.02346,0.01751 -0.03482,0.0265c-0.01514,0.0118 -0.02985,0.02415 -0.04375,0.03693c-0.01092,0.00949 -0.02085,0.01992 -0.03103,0.03028c-0.01346,0.01328 -0.02625,0.02749 -0.03835,0.04164c-0.00924,0.01093 -0.01824,0.02228 -0.02674,0.03364c-0.01136,0.01514 -0.02228,0.03078 -0.03246,0.04692c-0.00782,0.01179 -0.01514,0.02364 -0.02222,0.03599c-0.00949,0.01651 -0.01799,0.03357 -0.02631,0.05114c-0.0059,0.01228 -0.01204,0.02507 -0.01725,0.03785c-0.00757,0.01843 -0.01372,0.03736 -0.01992,0.05635c-0.00404,0.01229 -0.0085,0.02458 -0.01204,0.03736c-0.00571,0.02128 -0.0095,0.04307 -0.01353,0.06491c-0.00186,0.01136 -0.00472,0.02222 -0.00614,0.03358c-0.00453,0.03313 -0.00708,0.06677 -0.00708,0.10084v5.48433c0,0.0341 0.00255,0.0677 0.00708,0.1013c0.00142,0.011 0.00428,0.0222 0.00614,0.0331c0.00403,0.0218 0.00782,0.0436 0.01353,0.0649c0.00354,0.0128 0.008,0.0251 0.01204,0.0374c0.0062,0.0189 0.01235,0.0379 0.01992,0.0568c0.00521,0.0129 0.01135,0.0252 0.01725,0.0374c0.00832,0.0175 0.01682,0.0345 0.02631,0.0516c0.00708,0.0119 0.0144,0.0237 0.02222,0.0355c0.01018,0.0161 0.0211,0.0318 0.03246,0.0469c0.0085,0.0119 0.0175,0.0227 0.02674,0.0336c0.0121,0.0142 0.02489,0.0284 0.03835,0.0417c0.01018,0.0104 0.02011,0.0208 0.03103,0.0302c0.0139,0.0129 0.02861,0.0252 0.04375,0.037c0.01136,0.0091 0.02272,0.018 0.03482,0.0265c0.00447,0.0029 0.0085,0.0067 0.01278,0.0094l8.22647,5.4844c0.13,0.0867 0.2796,0.1302 0.4292,0.1302c0.1494,0 0.2989,-0.0435 0.4289,-0.1302l8.2265,-5.4844c0.0043,-0.0027 0.0083,-0.0065 0.0128,-0.0094c0.012,-0.0085 0.0235,-0.0174 0.035,-0.0265c0.015,-0.0118 0.0296,-0.0241 0.0438,-0.037c0.0106,-0.0094 0.0207,-0.0198 0.0308,-0.0302c0.0135,-0.0133 0.0263,-0.0275 0.0386,-0.0417c0.009,-0.0109 0.018,-0.0217 0.0264,-0.0336c0.0117,-0.0151 0.0224,-0.0308 0.0328,-0.0469c0.0073,-0.0118 0.0149,-0.0236 0.022,-0.0355c0.0097,-0.0171 0.0182,-0.0341 0.0263,-0.0516c0.0059,-0.0122 0.012,-0.0245 0.0172,-0.0374c0.0076,-0.0189 0.0138,-0.0379 0.02,-0.0568c0.0039,-0.0123 0.0087,-0.0246 0.012,-0.0374c0.0057,-0.0213 0.0097,-0.0431 0.0135,-0.0649c0.0019,-0.0109 0.0047,-0.0221 0.0064,-0.0331c0.0042,-0.0336 0.0069,-0.0672 0.0069,-0.1013v-5.48433c0,-0.03407 -0.0027,-0.06771 -0.0069,-0.10084Z" fill="#8539BE"></path>
</svg>