<?xml version="1.0" encoding="UTF-8"?>
<svg version="1.1" viewBox="0 0 24 24" xmlns="http://www.w3.org/2000/svg" xmlns:xlink="http://www.w3.org/1999/xlink">
    <!--Generated by IJSVG (https://github.com/iconjar/IJSVG)-->
    <path d="M21,21h-4v-6.75c0,-1.0586 -1.1879,-1.9442 -2.2465,-1.9442c-1.0586,0 -1.7535,0.8856 -1.7535,1.9442v6.75h-4v-12h4v2c0.6623,-1.07143 2.3564,-1.76273 3.525,-1.76273c2.4715,0 4.475,2.04133 4.475,4.51273v7.25Zm-14,0h-4v-12h4v12Zm-1.99999,-18c1.10457,0 2,0.89543 2,2c0,1.10457 -0.89543,2 -2,2c-1.10457,0 -2,-0.89543 -2,-2c0,-1.10457 0.89543,-2 2,-2Z" fill="#8539BE"></path>
</svg>